<svg xmlns="http://www.w3.org/2000/svg" viewBox="0 0 81 78.74"><defs><style>.cls-1{fill:none;stroke:#00b0ff;}</style></defs><title>资源 1</title><g id="图层_2" data-name="图层 2"><g id="Layer_1" data-name="Layer 1"><path id="path22682" class="cls-1" d="M80.5,39.37a17,17,0,0,0-1.62-7.23,18,18,0,0,0-4.62-6,19.42,19.42,0,0,0-6.92-3.74,21.31,21.31,0,0,0-8.18-.78A23.25,23.25,0,0,0,50.94,24a24.78,24.78,0,0,0-7,5.37,25.7,25.7,0,0,0-6.66,16.46,25.49,25.49,0,0,0,1.3,8.83,23.71,23.71,0,0,0,4.24,7.58,22,22,0,0,0,6.46,5.31,20.13,20.13,0,0,0,7.66,2.33,18.61,18.61,0,0,0,7.63-.9,17.23,17.23,0,0,0,6.37-3.88A16.79,16.79,0,0,0,75,59a17.53,17.53,0,0,0,1.09-7.41,18.82,18.82,0,0,0-2.15-7.44,20.38,20.38,0,0,0-5.14-6.23,22.43,22.43,0,0,0-7.42-4,24,24,0,0,0-8.68-1.06A25.41,25.41,0,0,0,44,35,25.59,25.59,0,0,0,31.23,47.29a24.41,24.41,0,0,0-2.31,8.49,22.74,22.74,0,0,0,.88,8.45,20.85,20.85,0,0,0,3.82,7.2,19.11,19.11,0,0,0,6.07,4.89A17.79,17.79,0,0,0,47,78.23a17,17,0,0,0,13.31-5.67,18.11,18.11,0,0,0,3.76-6.64A19.65,19.65,0,0,0,64.84,58a21.57,21.57,0,0,0-2.42-7.93A23.34,23.34,0,0,0,57,43.36a24.9,24.9,0,0,0-7.66-4.51,25.59,25.59,0,0,0-17.76,0A24.9,24.9,0,0,0,24,43.36a23.34,23.34,0,0,0-5.38,6.74A21.57,21.57,0,0,0,16.16,58,19.65,19.65,0,0,0,17,65.92a18.11,18.11,0,0,0,3.76,6.64A17,17,0,0,0,34,78.23a17.79,17.79,0,0,0,7.29-1.91,19.11,19.11,0,0,0,6.07-4.89,20.85,20.85,0,0,0,3.82-7.2,22.74,22.74,0,0,0,.88-8.45,24.41,24.41,0,0,0-2.31-8.49A25.59,25.59,0,0,0,37,35a25.41,25.41,0,0,0-8.7-2.12,24,24,0,0,0-8.68,1.06,22.43,22.43,0,0,0-7.42,4,20.38,20.38,0,0,0-5.14,6.23,18.82,18.82,0,0,0-2.15,7.44A17.53,17.53,0,0,0,6,59a16.79,16.79,0,0,0,4.07,6.16A17.23,17.23,0,0,0,16.46,69a18.61,18.61,0,0,0,7.63.9,20.13,20.13,0,0,0,7.66-2.33,22,22,0,0,0,6.46-5.31,23.71,23.71,0,0,0,4.24-7.58,25.49,25.49,0,0,0,1.3-8.83A25.9,25.9,0,0,0,41.88,37a25.6,25.6,0,0,0-4.8-7.62,24.6,24.6,0,0,0-7-5.37,23.25,23.25,0,0,0-8.22-2.41,21.31,21.31,0,0,0-8.18.78,19.42,19.42,0,0,0-6.92,3.74,18,18,0,0,0-4.62,6,16.94,16.94,0,0,0,0,14.46,17.91,17.91,0,0,0,4.62,6,19.44,19.44,0,0,0,6.92,3.75,21.31,21.31,0,0,0,8.18.78,23.25,23.25,0,0,0,8.22-2.41,24.78,24.78,0,0,0,7-5.37,25.6,25.6,0,0,0,4.8-7.62,25.9,25.9,0,0,0,1.87-8.84,25.46,25.46,0,0,0-1.3-8.83,23.6,23.6,0,0,0-4.24-7.58,22,22,0,0,0-6.46-5.31,20.13,20.13,0,0,0-7.66-2.33,18.44,18.44,0,0,0-7.63.9,17.34,17.34,0,0,0-6.37,3.87A16.91,16.91,0,0,0,6,19.78a17.53,17.53,0,0,0-1.09,7.41,18.86,18.86,0,0,0,2.15,7.44,20.5,20.5,0,0,0,5.14,6.23,22.43,22.43,0,0,0,7.42,4,24.27,24.27,0,0,0,8.68,1.06A25.41,25.41,0,0,0,37,43.79a26,26,0,0,0,7.5-5.06,25.56,25.56,0,0,0,5.25-7.28A24.47,24.47,0,0,0,52.08,23a22.74,22.74,0,0,0-.88-8.45,20.85,20.85,0,0,0-3.82-7.2,19.14,19.14,0,0,0-6.07-4.9A17.78,17.78,0,0,0,34,.51,17,17,0,0,0,20.71,6.18,18.15,18.15,0,0,0,17,12.81a19.72,19.72,0,0,0-.79,7.9,21.57,21.57,0,0,0,2.42,7.93A23.34,23.34,0,0,0,24,35.38a24.9,24.9,0,0,0,7.66,4.51,25.59,25.59,0,0,0,17.76,0A24.9,24.9,0,0,0,57,35.38a23.34,23.34,0,0,0,5.38-6.74,21.57,21.57,0,0,0,2.42-7.93,19.72,19.72,0,0,0-.79-7.9,18.15,18.15,0,0,0-3.76-6.63A17,17,0,0,0,47,.51a17.78,17.78,0,0,0-7.29,1.9,19.14,19.14,0,0,0-6.07,4.9,20.85,20.85,0,0,0-3.82,7.2A22.74,22.74,0,0,0,28.92,23a24.47,24.47,0,0,0,2.31,8.49,25.56,25.56,0,0,0,5.25,7.28A26,26,0,0,0,44,43.79a25.41,25.41,0,0,0,8.7,2.12,24.27,24.27,0,0,0,8.68-1.06,22.43,22.43,0,0,0,7.42-4,20.5,20.5,0,0,0,5.14-6.23,18.86,18.86,0,0,0,2.15-7.44A17.53,17.53,0,0,0,75,19.78a16.91,16.91,0,0,0-4.07-6.17,17.34,17.34,0,0,0-6.37-3.87,18.44,18.44,0,0,0-7.63-.9,20.13,20.13,0,0,0-7.66,2.33,22,22,0,0,0-6.46,5.31,23.6,23.6,0,0,0-4.24,7.58,25.46,25.46,0,0,0-1.3,8.83,25.7,25.7,0,0,0,6.66,16.46,25,25,0,0,0,7,5.37,23.25,23.25,0,0,0,8.22,2.41,21.31,21.31,0,0,0,8.18-.78,19.44,19.44,0,0,0,6.92-3.75,17.91,17.91,0,0,0,4.62-6A17,17,0,0,0,80.5,39.37Z"/></g></g></svg>