<svg xmlns="http://www.w3.org/2000/svg" viewBox="0 0 25.51 28.04"><defs><style>.cls-1{fill:#375d81;}</style></defs><title>资源 10</title><g id="图层_2" data-name="图层 2"><g id="Layer_1" data-name="Layer 1"><path class="cls-1" d="M25,23.9c-.49-1.79-3.08-.58-3.88-4.28s-2.9-4.51-2.9-4.51-.52-.35.17-1.28,1.62-2.59,1.45-3.35-.36-1.29,1-2.85,1-2.85.84-4.85-1.14-1.35-2.05.16a6.06,6.06,0,0,1-2.5,2.2l.79-1.52h-.46l.13-1.07L16,3.41A7,7,0,0,0,16.6,0c0,.9-2.07,2-3.18,2.63.32-.32-.89-2.23-.89-2.23a4.65,4.65,0,0,1-.45,1.71c-.45,1-2,2.62-2.91,2.62S5.52,1.09,5.52,1.09,4.32.92,4.32,4.3A4.36,4.36,0,0,0,7,8.58s-.87.5-1.77,1c.4,1.21,2.32,4.78,2.32,4.78-.27,2.23-1.51,2.45-2.14,4.32a9.75,9.75,0,0,1-3,4.19C1.05,24.32,0,28,0,28H25.51A18.7,18.7,0,0,0,25,23.9ZM8.67,9s1.68,1.65,3.15,1.65H8.17Zm3.2,3.88a.4.4,0,1,1,.35-.4A.38.38,0,0,1,11.87,12.88Zm1.15,0a.4.4,0,0,1,0-.8.4.4,0,0,1,0,.8Zm.27-2.23c1.47,0,3.14-1.65,3.14-1.65l.51,1.65Z"/></g></g></svg>