<svg xmlns="http://www.w3.org/2000/svg" viewBox="0 0 172.9 174.09"><defs><style>.cls-1,.cls-3,.cls-4,.cls-5,.cls-6,.cls-7,.cls-8,.cls-9{fill:#f49022;}.cls-2{fill:#0cbdcd;}.cls-3{opacity:0.5;}.cls-4{opacity:0.8;}.cls-5{opacity:0.6;}.cls-6{opacity:0.7;}.cls-7{opacity:0.3;}.cls-8{opacity:0.2;}.cls-9{opacity:0.9;}</style></defs><title>资源 6</title><g id="图层_2" data-name="图层 2"><g id="央铋_1" data-name="央铋 1"><path class="cls-1" d="M67.11,87a19.84,19.84,0,0,0,5.52,13.74l-5.33,5.34.67.67,5.33-5.33A19.92,19.92,0,0,0,101.46,73.3l5.13-5.13-.67-.67-5.13,5.13A19.92,19.92,0,0,0,67.11,87ZM87,68.06a19,19,0,1,1-19,19A19,19,0,0,1,87,68.06Z"/><path class="cls-2" d="M88.31,73.53l.47-4.41-.33,0-.31,4.42Z"/><path class="cls-2" d="M86.89,73.47V69h-.33l.16,4.43Z"/><path class="cls-2" d="M86.42,73.49l-.16-4.43-.32,0,.31,4.42Z"/><path class="cls-2" d="M87.52,69.05h-.33v4.43h.18Z"/><path class="cls-2" d="M88.15,69.08l-.33,0-.15,4.43h.17Z"/><path class="cls-2" d="M74.09,83l-4.22-1.37-.09.31L74,83.16S74.07,83.05,74.09,83Z"/><path class="cls-1" d="M74.59,81.67l-4-1.81c-.05.1-.09.2-.13.3l4.11,1.66A1,1,0,0,1,74.59,81.67Z"/><path class="cls-2" d="M74,83.45,69.7,82.23l-.09.31,4.3,1.08C73.93,83.56,73.94,83.5,74,83.45Z"/><path class="cls-1" d="M74.41,82.1,70.3,80.44l-.12.31,4.16,1.52A1.22,1.22,0,0,1,74.41,82.1Z"/><path class="cls-2" d="M73.74,84.37l-4.34-.92-.06.32,4.37.77Z"/><path class="cls-2" d="M73.84,83.91l-4.3-1.07c0,.1-.05.21-.07.31l4.33.93C73.81,84,73.83,84,73.84,83.91Z"/><path class="cls-2" d="M73.59,85.3l-4.39-.61a3.11,3.11,0,0,0,0,.32l4.4.46Z"/><path class="cls-2" d="M73.65,84.83l-4.36-.77c0,.11,0,.22-.05.33l4.39.62A1.1,1.1,0,0,1,73.65,84.83Z"/><path class="cls-2" d="M76,79.2l-3.59-2.61-.18.27,3.67,2.48Z"/><path class="cls-2" d="M76.26,78.82l-3.49-2.73c-.07.09-.14.17-.2.26L76.15,79Z"/><path class="cls-2" d="M76.86,78.09l-3.29-3-.22.25,3.4,2.85A.69.69,0,0,1,76.86,78.09Z"/><path class="cls-2" d="M73.53,85.77l-4.41-.46c0,.11,0,.22,0,.33l4.42.31C73.52,85.89,73.53,85.83,73.53,85.77Z"/><path class="cls-1" d="M75,80.81l-3.91-2.08-.15.29,4,2C74.94,80.91,75,80.86,75,80.81Z"/><path class="cls-2" d="M75.46,80,71.7,77.64l-.17.28,3.84,2.21S75.42,80,75.46,80Z"/><path class="cls-2" d="M75.71,79.59,72,77.11l-.18.28,3.76,2.34Z"/><path class="cls-2" d="M76.55,78.44,73.16,75.6l-.21.25,3.49,2.73A1.71,1.71,0,0,0,76.55,78.44Z"/><path class="cls-2" d="M99.75,82.29l4.17-1.51-.12-.31-4.11,1.66Z"/><path class="cls-2" d="M99.91,82.74l4.22-1.37c0-.1-.07-.21-.11-.31l-4.16,1.52A1,1,0,0,0,99.91,82.74Z"/><path class="cls-2" d="M99.58,81.85l4.11-1.66-.13-.3-4,1.8Z"/><path class="cls-2" d="M100.05,83.19,104.32,82c0-.1-.06-.21-.1-.31L100,83A.94.94,0,0,1,100.05,83.19Z"/><path class="cls-2" d="M100.18,83.65l4.31-1.07-.09-.32-4.26,1.22C100.15,83.54,100.17,83.59,100.18,83.65Z"/><path class="cls-2" d="M99.39,81.42l4-1.8-.14-.3-4,1.94Z"/><path class="cls-2" d="M98.73,80.16l3.84-2.22-.17-.28L98.64,80Z"/><path class="cls-2" d="M98.22,79.35l3.67-2.47-.19-.27-3.58,2.6Z"/><path class="cls-2" d="M100.29,84.11l4.34-.92c0-.11,0-.21-.08-.32l-4.3,1.07A1.36,1.36,0,0,1,100.29,84.11Z"/><path class="cls-2" d="M99.18,81l4-1.94-.15-.3L99.1,80.84A1.09,1.09,0,0,1,99.18,81Z"/><path class="cls-2" d="M99,80.57l3.91-2.08-.16-.29-3.84,2.22Z"/><path class="cls-2" d="M97.94,79l3.59-2.6-.2-.27-3.49,2.73Z"/><path class="cls-2" d="M96.71,77.53l3.19-3.08-.24-.23-3.07,3.19Z"/><path class="cls-2" d="M96.53,96.73l3.08,3.19.23-.23-3.18-3.08Z"/><path class="cls-2" d="M77.37,96.55l-3.18,3.08a2.5,2.5,0,0,0,.23.23l3.07-3.18Z"/><path class="cls-2" d="M100.57,86l4.42-.31c0-.11,0-.22,0-.33l-4.41.47C100.56,85.87,100.57,85.93,100.57,86Z"/><path class="cls-2" d="M100.47,85l4.38-.61c0-.11,0-.22,0-.33l-4.36.77Z"/><path class="cls-2" d="M100.6,86.46l4.43-.15c0-.11,0-.22,0-.33l-4.42.31A1,1,0,0,1,100.6,86.46Z"/><path class="cls-2" d="M100.53,85.52l4.4-.47c0-.1,0-.21,0-.32l-4.38.61A1.1,1.1,0,0,0,100.53,85.52Z"/><path class="cls-2" d="M100.39,84.58l4.36-.77-.06-.32-4.33.92Z"/><path class="cls-2" d="M95.29,76.27,98,72.78l-.27-.2-2.6,3.59Z"/><path class="cls-2" d="M92,74.41l1.67-4.11-.31-.12-1.52,4.17Z"/><path class="cls-2" d="M91.1,74.09l1.37-4.21-.32-.1L90.93,74Z"/><path class="cls-2" d="M91.55,74.24l1.52-4.16L92.75,70l-1.36,4.22Z"/><path class="cls-2" d="M92.87,74.79l1.94-4-.3-.13-1.8,4Z"/><path class="cls-2" d="M92.43,74.59l1.81-4-.31-.13-1.66,4.11Z"/><path class="cls-2" d="M90.18,73.84l1.08-4.3-.32-.07L90,73.8Z"/><path class="cls-2" d="M90.64,74l1.23-4.26-.32-.09-1.07,4.3Z"/><path class="cls-2" d="M89.25,73.65,90,69.29l-.32-.05-.62,4.39Z"/><path class="cls-2" d="M89.72,73.74l.92-4.34-.32-.06-.77,4.37Z"/><path class="cls-2" d="M93.29,75l2.08-3.91-.29-.15-2,4Z"/><path class="cls-2" d="M96,76.88l3-3.29-.24-.22-2.85,3.39Z"/><path class="cls-2" d="M96.37,77.2,99.45,74l-.24-.23-3,3.3Z"/><path class="cls-2" d="M97.65,78.59l3.49-2.72a2.56,2.56,0,0,0-.2-.26l-3.39,2.85Z"/><path class="cls-2" d="M97,77.87l3.29-3-.23-.24-3.18,3.08Z"/><path class="cls-2" d="M95.66,76.57l2.85-3.4-.26-.2-2.73,3.49Z"/><path class="cls-2" d="M97.35,78.23l3.39-2.85-.21-.25-3.29,3Z"/><path class="cls-2" d="M94.52,75.72,97,72.05l-.27-.18-2.35,3.76Z"/><path class="cls-2" d="M93.71,75.23l2.21-3.84-.28-.16-2.08,3.91Z"/><path class="cls-2" d="M94.12,75.46l2.34-3.75-.28-.17L94,75.38Z"/><path class="cls-2" d="M94.91,76l2.6-3.58-.27-.19-2.48,3.67Z"/><path class="cls-2" d="M88.78,73.59l.62-4.39-.32,0-.47,4.4Z"/><path class="cls-2" d="M98.48,79.75l3.76-2.35-.18-.27-3.67,2.48Z"/><path class="cls-2" d="M86.85,100.61h-.18L86.52,105h.33Z"/><path class="cls-2" d="M93.08,99.19l1.94,4,.29-.15-2.08-3.91Z"/><path class="cls-2" d="M92.22,99.59l1.65,4.11.31-.13-1.8-4Z"/><path class="cls-2" d="M93.91,98.74l2.21,3.84.29-.16-2.35-3.76Z"/><path class="cls-2" d="M92.65,99.4l1.8,4,.3-.14-2-4Z"/><path class="cls-2" d="M95.83,97.37l2.85,3.4.25-.22-3-3.29Z"/><path class="cls-2" d="M95.47,97.67l2.72,3.49.26-.2L95.6,97.57Z"/><path class="cls-2" d="M91.78,99.76l1.51,4.17.31-.12L91.93,99.7Z"/><path class="cls-2" d="M95.09,98l2.61,3.59.26-.2-2.73-3.49Z"/><path class="cls-2" d="M94.71,98.24l2.47,3.67.27-.19-2.6-3.58Z"/><path class="cls-2" d="M94.31,98.5l2.35,3.75.27-.17L94.46,98.4Z"/><path class="cls-2" d="M93.5,99l2.08,3.91.28-.16-2.21-3.84Z"/><path class="cls-2" d="M88.09,100.57,88.4,105l.33,0-.47-4.41Z"/><path class="cls-2" d="M89,100.47l.62,4.39.32,0-.77-4.37Z"/><path class="cls-2" d="M88.56,100.53l.46,4.41.33,0-.62-4.38Z"/><path class="cls-2" d="M91.33,99.92l1.37,4.21L93,104l-1.52-4.17Z"/><path class="cls-2" d="M87.32,100.61h-.17v4.44h.32Z"/><path class="cls-2" d="M88.1,105l-.31-4.42h-.17l.15,4.43Z"/><path class="cls-2" d="M90.88,100.06l1.22,4.26.31-.09L91,100Z"/><path class="cls-2" d="M90.42,100.19l1.07,4.3.32-.09-1.22-4.26Z"/><path class="cls-2" d="M90,100.3l.92,4.33.32-.07-1.07-4.3Z"/><path class="cls-2" d="M89.5,100.39l.77,4.36.32,0-.92-4.34Z"/><path class="cls-2" d="M96.19,97.06l3,3.29.24-.22-3.08-3.19Z"/><path class="cls-2" d="M73.5,86.24l-4.42-.3c0,.1,0,.21,0,.32l4.43.16A1.09,1.09,0,0,1,73.5,86.24Z"/><path class="cls-2" d="M98.34,94.55,102,97l.17-.28-3.75-2.34Z"/><path class="cls-2" d="M98.07,94.94l3.59,2.6.19-.27L98.17,94.8Z"/><path class="cls-2" d="M97.79,95.32l3.49,2.73.2-.26L97.9,95.18Z"/><path class="cls-2" d="M96.87,96.4l3.18,3.07.23-.24-3.3-3A.69.69,0,0,0,96.87,96.4Z"/><path class="cls-2" d="M97.19,96.05l3.29,3,.21-.24L97.3,95.92A.69.69,0,0,0,97.19,96.05Z"/><path class="cls-2" d="M99.48,92.47l4,1.81c0-.11.09-.2.13-.31l-4.11-1.66C99.53,92.37,99.5,92.42,99.48,92.47Z"/><path class="cls-2" d="M97.5,95.69l3.39,2.85c.07-.09.14-.17.2-.26L97.6,95.55Z"/><path class="cls-2" d="M99.28,92.9l4,1.95.13-.3-4.05-1.8A1,1,0,0,1,99.28,92.9Z"/><path class="cls-2" d="M99.07,93.33,103,95.41l.15-.3-4-1.94Z"/><path class="cls-2" d="M98.84,93.74,102.68,96l.16-.29-3.91-2.08Z"/><path class="cls-2" d="M98.6,94.15l3.76,2.35.17-.28L98.69,94Z"/><path class="cls-2" d="M74.7,92.68l-4,1.81a2.55,2.55,0,0,0,.13.29l4-1.94Z"/><path class="cls-2" d="M75.12,93.53l-3.91,2.08a2.61,2.61,0,0,0,.17.28l3.83-2.21Z"/><path class="cls-2" d="M74.91,93.11l-4,1.94a2.59,2.59,0,0,0,.14.29L75,93.26A1.09,1.09,0,0,1,74.91,93.11Z"/><path class="cls-2" d="M74.51,92.25,70.4,93.91c0,.1.09.2.13.3l4-1.8S74.53,92.31,74.51,92.25Z"/><path class="cls-2" d="M74.34,91.81l-4.17,1.52.12.3L74.4,92Z"/><path class="cls-2" d="M76.74,95.86l-3.4,2.84a2.62,2.62,0,0,0,.22.25l3.29-3Z"/><path class="cls-2" d="M75.61,94.34l-3.76,2.35L72,97l3.67-2.47Z"/><path class="cls-2" d="M74.18,91.37,70,92.74c0,.1.07.2.1.31l4.17-1.52Z"/><path class="cls-2" d="M85.89,105l.33,0,.15-4.43H86.2Z"/><path class="cls-2" d="M76.43,95.49l-3.49,2.73c.07.09.14.17.2.26l3.4-2.85Z"/><path class="cls-2" d="M73.49,87.66l-4.43.16c0,.11,0,.22,0,.32l4.42-.31A.91.91,0,0,1,73.49,87.66Z"/><path class="cls-2" d="M74,90.92l-4.26,1.22.09.31,4.21-1.37S74.05,91,74,90.92Z"/><path class="cls-2" d="M73.48,86.72l-4.43-.16c0,.11,0,.22,0,.33h4.43Z"/><path class="cls-2" d="M73.47,87.19H69c0,.11,0,.22,0,.33l4.43-.16Z"/><path class="cls-2" d="M73.56,88.6l-4.4.47c0,.11,0,.21,0,.32l4.39-.61Z"/><path class="cls-2" d="M73.8,90l-4.34.92c0,.11.05.22.08.32l4.3-1.07C73.83,90.11,73.81,90.06,73.8,90Z"/><path class="cls-2" d="M73.91,90.46l-4.3,1.07c0,.11.06.21.08.32L74,90.63C73.94,90.57,73.92,90.52,73.91,90.46Z"/><path class="cls-2" d="M73.7,89.54l-4.36.77.06.32,4.34-.92C73.72,89.65,73.72,89.59,73.7,89.54Z"/><path class="cls-2" d="M75.87,94.73,72.2,97.21l.19.27L76,94.88Z"/><path class="cls-2" d="M83,100l-1.37,4.22.32.09L83.12,100Z"/><path class="cls-2" d="M83.41,100.12l-1.22,4.26.31.09,1.07-4.31Z"/><path class="cls-2" d="M81.63,99.48l-1.81,4,.3.13,1.66-4.11Z"/><path class="cls-2" d="M82.06,99.66l-1.66,4.11.31.12,1.51-4.16Z"/><path class="cls-2" d="M82.51,99.83,81,104l.31.1,1.37-4.21Z"/><path class="cls-2" d="M83.87,100.24l-1.08,4.3.32.07.92-4.34Z"/><path class="cls-2" d="M84.33,100.34l-.93,4.34.33.06.76-4.37Z"/><path class="cls-2" d="M85.26,100.49l-.62,4.39.33,0,.46-4.4Z"/><path class="cls-2" d="M85.73,100.55,85.26,105l.33,0,.31-4.42Z"/><path class="cls-2" d="M84.79,100.42,84,104.79l.32,0,.62-4.38Z"/><path class="cls-2" d="M78.41,97.51l-2.84,3.4.25.2,2.73-3.49Z"/><path class="cls-2" d="M78.79,97.8l-2.73,3.5.26.2,2.6-3.59Z"/><path class="cls-2" d="M79.17,98.09l-2.61,3.58.27.19,2.48-3.68Z"/><path class="cls-2" d="M81.2,99.29l-2,4,.3.14,1.8-4Z"/><path class="cls-2" d="M78.06,97.2l-3,3.3.25.21,2.85-3.39Z"/><path class="cls-2" d="M77.71,96.88l-3.08,3.19.24.23,3-3.3Z"/><path class="cls-2" d="M80.77,99.08,78.69,103l.3.15,1.94-4Z"/><path class="cls-2" d="M80.36,98.85l-2.21,3.84.28.16,2.08-3.92Z"/><path class="cls-2" d="M79.56,98.35,77.08,102l.27.17,2.35-3.75A.71.71,0,0,1,79.56,98.35Z"/><path class="cls-2" d="M80,98.61l-2.34,3.76.27.17L80.1,98.7Z"/><path class="cls-2" d="M75.18,76.19l.23.22v0l1.64,1.47.12-.12L75.6,76.21a15.69,15.69,0,0,1,9.94-4.86l0-.21.25,2.39H86l-.31-4.42-.33,0,.2,1.92A16,16,0,0,0,75.37,76L74,74.66l-.22.24,1.42,1.28Z"/><path class="cls-1" d="M102.8,86.69h0l-2.19.07v.18h2.2V87A15.69,15.69,0,0,1,102,92.1l.16.06-2.26-.73a1,1,0,0,1,0,.16L104,93.11c0-.11.07-.21.11-.31l-1.82-.59a16.14,16.14,0,0,0,.84-5.17v-.1H105v-.33l-2.11.07Z"/><path class="cls-2" d="M79.85,76.74,80,77l.14-.09L80,76.63Z"/><path class="cls-2" d="M80.4,76.37l.17.27.14-.09-.16-.27Z"/><path class="cls-2" d="M79.32,77.13l.2.24.13-.1L79.46,77Z"/><path class="cls-2" d="M78.45,77.87l-.13.12.23.22.12-.11Z"/><path class="cls-2" d="M81,76l.16.27.14-.08L81.12,76Z"/><path class="cls-2" d="M78.81,77.54l.21.24.12-.11L79,77.43Z"/><path class="cls-2" d="M83.38,75l.1.3.16,0L83.56,75Z"/><path class="cls-2" d="M81.55,75.73l.14.28.15-.07-.13-.28Z"/><path class="cls-2" d="M84.66,74.69l.07.31.16,0,0-.31Z"/><path class="cls-2" d="M85.31,74.59l0,.31.16,0,0-.32Z"/><path class="cls-2" d="M84,74.83l.08.31.16,0-.07-.31Z"/><path class="cls-2" d="M82.15,75.46l.13.29a.67.67,0,0,1,.15-.06l-.12-.3Z"/><path class="cls-2" d="M82.76,75.22l.11.29.16-.05-.1-.3Z"/><path class="cls-2" d="M78,78.33l-.12.13.24.21.11-.12Z"/><path class="cls-2" d="M74.47,87.29a1.09,1.09,0,0,0,0,.18l.31,0v-.16Z"/><path class="cls-2" d="M75.16,82.93l.3.1s0-.1.05-.15l-.3-.12A.84.84,0,0,1,75.16,82.93Z"/><path class="cls-2" d="M75,83.56l.31.08a.83.83,0,0,1,0-.15l-.3-.1Z"/><path class="cls-2" d="M74.66,84.84l.31,0,0-.16-.31-.06Z"/><path class="cls-2" d="M86,74.51l0,.32h.16l0-.32Z"/><path class="cls-2" d="M74.47,86.81h.32v-.16l-.32,0Z"/><path class="cls-2" d="M74.56,85.49l.32,0c0-.06,0-.11,0-.16l-.31-.05Z"/><path class="cls-2" d="M74.5,86.15l.32,0a1,1,0,0,1,0-.17l-.32,0C74.51,86,74.5,86.09,74.5,86.15Z"/><path class="cls-2" d="M74.79,84.2l.31.06a.83.83,0,0,0,0-.15L74.83,84A1.16,1.16,0,0,1,74.79,84.2Z"/><path class="cls-2" d="M75.39,82.32l.29.11c0-.05,0-.1.07-.15l-.29-.13A1.22,1.22,0,0,0,75.39,82.32Z"/><path class="cls-2" d="M76.27,80.55l.28.16s0-.09.08-.14l-.26-.17Z"/><path class="cls-2" d="M77,79.46l.26.19.1-.13-.25-.2A.76.76,0,0,1,77,79.46Z"/><path class="cls-2" d="M76.63,80l.26.17L77,80l-.26-.19Z"/><path class="cls-2" d="M75.65,81.71l.29.13a1,1,0,0,0,.07-.15l-.28-.14S75.68,81.66,75.65,81.71Z"/><path class="cls-2" d="M76,81.12l.28.15a.64.64,0,0,1,.08-.14L76,81A1.09,1.09,0,0,1,76,81.12Z"/><path class="cls-2" d="M77.43,79l.24.2.11-.12-.24-.22A1.34,1.34,0,0,0,77.43,79Z"/><path class="cls-2" d="M98.07,81.69a1,1,0,0,1,.07.15l.29-.13-.07-.16Z"/><path class="cls-2" d="M95.63,77.87l-.21.23.12.11.22-.22Z"/><path class="cls-2" d="M97.78,81.13l.08.14.28-.15L98.05,81Z"/><path class="cls-2" d="M97.45,80.57l.09.14.27-.16-.09-.15Z"/><path class="cls-2" d="M97.07,79.46,97,79.32l-.24.2.1.13Z"/><path class="cls-2" d="M96.1,78.33l-.22.22.11.12.23-.21Z"/><path class="cls-2" d="M96.54,78.81l-.23.22.1.12.25-.2Z"/><path class="cls-2" d="M97.1,80l.09.13.27-.17-.11-.15Z"/><path class="cls-2" d="M99.19,85.37a1,1,0,0,0,0,.16l.31,0a1,1,0,0,0,0-.17Z"/><path class="cls-2" d="M99.08,84.73l0,.16.32,0c0-.06,0-.11,0-.17Z"/><path class="cls-2" d="M99.26,86c0,.06,0,.11,0,.17l.32,0c0-.06,0-.12,0-.18Z"/><path class="cls-2" d="M98.78,83.49c0,.05,0,.1,0,.15l.31-.08c0-.06,0-.12,0-.17Z"/><path class="cls-2" d="M99,84.1l0,.16.31-.06a1.16,1.16,0,0,0,0-.18Z"/><path class="cls-2" d="M98.58,82.88l0,.15.3-.1-.06-.17Z"/><path class="cls-2" d="M98.34,82.28l.06.15.3-.11c0-.06,0-.12-.07-.17Z"/><path class="cls-2" d="M91.78,75.39l-.12.3a.94.94,0,0,1,.15.06l.13-.29Z"/><path class="cls-2" d="M89.2,75l.16,0,.06-.31-.17,0Z"/><path class="cls-2" d="M94.94,77.67l.12.11.22-.24-.14-.11Z"/><path class="cls-2" d="M90.53,75l-.08.31.15,0,.1-.3Z"/><path class="cls-2" d="M87.94,74.5v.32h.16l0-.32Z"/><path class="cls-2" d="M88.56,74.88l.16,0,0-.31-.17,0Z"/><path class="cls-2" d="M87.46,74.47h-.18v.32h.17Z"/><path class="cls-2" d="M91.16,75.16l-.1.3.15.05.12-.29Z"/><path class="cls-2" d="M89.89,74.79l-.06.31.15,0,.09-.31Z"/><path class="cls-2" d="M94.24,76.74l-.15-.11-.17.27.13.09Z"/><path class="cls-2" d="M94.77,77.13,94.63,77l-.19.25.13.1Z"/><path class="cls-2" d="M93.69,76.37l-.15-.09-.16.27.14.09Z"/><path class="cls-2" d="M92.54,75.73l-.16-.07-.13.28.15.07Z"/><path class="cls-2" d="M86.8,74.47h-.18l0,.32h.16Z"/><path class="cls-2" d="M93.12,76,93,76l-.15.28.14.08Z"/><path class="cls-2" d="M78,95.76l.22-.22-.11-.12-.23.21Z"/><path class="cls-2" d="M94.09,97.46l.15-.11-.19-.25-.13.09Z"/><path class="cls-2" d="M88.6,99.52l.17,0,0-.31-.16,0Z"/><path class="cls-2" d="M94.63,97.07l.14-.11-.2-.24-.13.1Z"/><path class="cls-2" d="M95.14,96.66l.13-.12-.21-.23-.12.1Z"/><path class="cls-2" d="M96.1,95.76l.12-.13L96,95.42l-.11.12Z"/><path class="cls-2" d="M93,98.14l.16-.09L93,97.78l-.14.07Z"/><path class="cls-2" d="M95.63,96.22l.13-.12-.22-.22-.12.11Z"/><path class="cls-2" d="M89.25,99.42l.17,0-.06-.31-.16,0Z"/><path class="cls-2" d="M92.38,98.43l.16-.07-.14-.29-.15.07Z"/><path class="cls-2" d="M90.53,99.13l.17,0-.09-.3-.16,0Z"/><path class="cls-2" d="M96.54,95.28l.12-.14-.25-.2-.1.12Z"/><path class="cls-2" d="M89.89,99.29l.18,0L90,99l-.16,0Z"/><path class="cls-2" d="M91.16,98.93l.17-.06-.12-.3-.15.06Z"/><path class="cls-2" d="M91.77,98.7l.17-.07-.13-.29-.15.06Z"/><path class="cls-2" d="M93.54,97.81l.15-.09-.17-.27-.14.09Z"/><path class="cls-2" d="M99.43,89.25l-.32,0,0,.16.31.07A1.16,1.16,0,0,1,99.43,89.25Z"/><path class="cls-2" d="M99.29,89.89,99,89.83,99,90l.3.08A1.16,1.16,0,0,0,99.29,89.89Z"/><path class="cls-2" d="M99.52,88.6l-.31,0a.78.78,0,0,0,0,.16l.31,0A1.1,1.1,0,0,0,99.52,88.6Z"/><path class="cls-2" d="M99.13,90.53l-.31-.08s0,.11,0,.16l.3.09A1.54,1.54,0,0,1,99.13,90.53Z"/><path class="cls-2" d="M99.59,87.94h-.32s0,.11,0,.16l.31,0C99.58,88.06,99.58,88,99.59,87.94Z"/><path class="cls-2" d="M99.61,86.63H99.3v.17h.32C99.62,86.75,99.61,86.69,99.61,86.63Z"/><path class="cls-2" d="M99.62,87.29H99.3v.16h.31A1,1,0,0,1,99.62,87.29Z"/><path class="cls-2" d="M97.45,93.52l.27.17.09-.15-.27-.16Z"/><path class="cls-2" d="M97,94.77l.11-.14-.26-.19-.09.13Z"/><path class="cls-2" d="M98.14,93l-.29-.15-.07.14.27.16Z"/><path class="cls-2" d="M97.35,94.24l.11-.15-.27-.17-.09.13Z"/><path class="cls-2" d="M98.43,92.38l-.29-.13a1,1,0,0,1-.07.15l.29.14Z"/><path class="cls-2" d="M98.93,91.16l-.3-.1-.06.16.3.11Z"/><path class="cls-2" d="M98.7,91.78l-.3-.12-.06.15.29.13A1.11,1.11,0,0,1,98.7,91.78Z"/><path class="cls-2" d="M80,97.46l.17-.27L80,97.1l-.19.25Z"/><path class="cls-2" d="M76.64,93.52l-.09-.14-.27.16.09.15Z"/><path class="cls-2" d="M76,92.4,76,92.25l-.29.13.07.16Z"/><path class="cls-2" d="M76.31,93s0-.1-.08-.14L76,93l.09.15Z"/><path class="cls-2" d="M79.15,96.42,79,96.31l-.21.24.13.11Z"/><path class="cls-2" d="M78.46,96.22l.21-.23-.12-.11-.22.22Z"/><path class="cls-2" d="M77.55,95.28l.23-.22-.11-.12-.24.2Z"/><path class="cls-2" d="M77.13,94.77l.24-.2a1.13,1.13,0,0,0-.1-.13l-.25.19A1.34,1.34,0,0,0,77.13,94.77Z"/><path class="cls-2" d="M77,94.05l-.09-.13-.27.17.11.15Z"/><path class="cls-2" d="M75,89.36s0-.11,0-.16l-.32,0,0,.18Z"/><path class="cls-2" d="M74.9,88.73c0-.06,0-.11,0-.16l-.32,0,0,.18Z"/><path class="cls-2" d="M75.14,90l0-.16-.31.07a1,1,0,0,0,0,.17Z"/><path class="cls-2" d="M75.75,91.81l-.06-.15-.3.12s0,.11.07.16Z"/><path class="cls-2" d="M75.51,91.22a1.42,1.42,0,0,0-.05-.16l-.3.1.06.17Z"/><path class="cls-2" d="M75.31,90.61l0-.16-.31.08c0,.06,0,.12.05.18Z"/><path class="cls-2" d="M82.93,98.93l.1-.3-.15,0-.12.29Z"/><path class="cls-2" d="M84.84,99.43l0-.32-.16,0-.06.31Z"/><path class="cls-2" d="M84.2,99.29l.06-.31-.16,0-.08.3Z"/><path class="cls-2" d="M85.49,99.52l0-.31-.16,0,0,.31Z"/><path class="cls-2" d="M87.45,99.3h-.16v.32h.17Z"/><path class="cls-2" d="M83.56,99.13l.08-.31-.15,0-.1.3Z"/><path class="cls-2" d="M86.81,99.3h-.17v.31h.18Z"/><path class="cls-2" d="M86.15,99.59v-.32H86l0,.31Z"/><path class="cls-2" d="M74.83,88.09a.86.86,0,0,1,0-.16l-.32,0a.91.91,0,0,1,0,.17Z"/><path class="cls-2" d="M80.55,97.81l.16-.27-.14-.09-.17.27Z"/><path class="cls-2" d="M81.12,98.14l.15-.29-.14-.07-.16.27Z"/><path class="cls-2" d="M79.46,97.07l.19-.25-.13-.1-.2.24Z"/><path class="cls-2" d="M81.71,98.43l.13-.29-.15-.06-.14.28Z"/><path class="cls-2" d="M88.12,99.57l0-.31h-.16v.32Z"/><path class="cls-2" d="M82.32,98.7l.11-.3-.15-.06-.13.29Z"/><path class="cls-1" d="M78.18,93.17h-.75a10.17,10.17,0,0,0,.82,1.13h.83A11.15,11.15,0,0,1,78.18,93.17Z"/><path class="cls-1" d="M78.18,80.91a13.93,13.93,0,0,1,.9-1.13h-.83a11.2,11.2,0,0,0-.82,1.13Z"/><path class="cls-1" d="M95.9,93.17A8.92,8.92,0,0,1,95,94.3h.84a10.17,10.17,0,0,0,.82-1.13Z"/><path class="cls-1" d="M95.9,80.91h.76a11.2,11.2,0,0,0-.82-1.13H95A10.61,10.61,0,0,1,95.9,80.91Z"/><path class="cls-1" d="M42.62,151.31A78.29,78.29,0,0,0,115.06,160l-.86-2.23,2.28,5.93.63-.26-3.84-9.71-.54.21,1.42,3.7a75.7,75.7,0,0,1-97.43-42.81l-2.35.94A78,78,0,0,0,42.62,151.31Z"/><path class="cls-2" d="M143,141.53l-1.81-1.77a76,76,0,0,1-12.07,10.07l1.42,2.1A78.94,78.94,0,0,0,143,141.53Z"/><path class="cls-2" d="M87,11.45a75.31,75.31,0,0,1,67.45,41.42L151,54.67c.07.12.13.25.19.38l9.36-4.65c-.08-.15-.15-.31-.23-.46l-4.66,2.36,1.13-.57A78.22,78.22,0,0,0,57.94,14.52l1,2.35A75.27,75.27,0,0,1,87,11.45Z"/><path class="cls-1" d="M87,29.42a57.71,57.71,0,0,0-52.57,34l-.25,0a1.39,1.39,0,1,0,1.39,1.38,1.36,1.36,0,0,0-.56-1.1A57,57,0,0,1,144,87a57.66,57.66,0,0,1-.77,9.39,1.39,1.39,0,1,0,.62.11A57.67,57.67,0,0,0,87,29.42ZM34.22,65.53a.75.75,0,1,1,.75-.75A.75.75,0,0,1,34.22,65.53Zm109.12,33a.75.75,0,1,1,.75-.75A.75.75,0,0,1,143.34,98.56Z"/><path class="cls-1" d="M87,35.12a52.25,52.25,0,0,0-10.53,1.07.93.93,0,0,0-1.79.36.93.93,0,0,0,1.86,0v0A52.28,52.28,0,0,1,87,35.44a51.61,51.61,0,0,1,45.63,75.73.91.91,0,0,0-.37-.08.93.93,0,0,0,0,1.86.92.92,0,0,0,.93-.93.89.89,0,0,0-.3-.67A51.94,51.94,0,0,0,87,35.12Zm-11.39,2a.62.62,0,0,1,0-1.23.62.62,0,1,1,0,1.23Zm56.65,75.48a.62.62,0,0,1,0-1.23.62.62,0,1,1,0,1.23Z"/><path class="cls-2" d="M133.14,94.5l2.5.4a50.2,50.2,0,0,0,.62-7.86,48.88,48.88,0,0,0-9.11-28.53L125.08,60A46.83,46.83,0,0,0,99.84,42.13l.26-.91A47.82,47.82,0,0,0,87,39.41a47.23,47.23,0,0,0-28.79,9.68,48,48,0,0,0-16.91,24.5l.91.27a46.74,46.74,0,0,0,13.53,47.85l.53-.58-2.23,2.46a49.66,49.66,0,0,0,6.35,4.86l1.8-2.79-.43.66A46.22,46.22,0,0,0,78.7,133l-.17.94a48.35,48.35,0,0,0,8.51.76,47.41,47.41,0,0,0,20-4.4l-.4-.87A46.63,46.63,0,0,0,133.14,94.5Zm-26.8,34.2-.74-1.58a44.49,44.49,0,0,1-26.45,3.37l-.31,1.71.14-.77A44.71,44.71,0,0,1,62.66,125L64,122.86a43.82,43.82,0,0,1-5.49-4.2l-1.7,1.88A45.13,45.13,0,0,1,43.77,74.31L43,74.08l1.67.5a44.2,44.2,0,0,1,54.46-30l.26-.91a45.3,45.3,0,0,1,24.4,17.23l-2.07,1.47A42.27,42.27,0,0,1,129.61,87a42.82,42.82,0,0,1-.54,6.8l3.28.53-.78-.13A45,45,0,0,1,106,128Z"/><path class="cls-1" d="M77.75,68.07a20.39,20.39,0,0,1,3.68-1.4l-1.26-4.58a26.54,26.54,0,0,0-4.51,1.71Z"/><path class="cls-2" d="M66,85.58a22.32,22.32,0,0,1,.63-3.87L62,80.51a25.59,25.59,0,0,0-.77,4.75Z"/><path class="cls-2" d="M61.19,85.85c0,.4,0,.79,0,1.19a27.21,27.21,0,0,0,.25,3.63L66.12,90A20.49,20.49,0,0,1,65.91,87c0-.32,0-.65,0-1Z"/><path class="cls-2" d="M70.54,73.86l-3.71-3a26,26,0,0,0-2.65,4l4.2,2.21A21.6,21.6,0,0,1,70.54,73.86Z"/><path class="cls-2" d="M68.15,77.58l-4.24-2.13a26,26,0,0,0-1.75,4.49l4.57,1.3A20.72,20.72,0,0,1,68.15,77.58Z"/><path class="cls-2" d="M70.85,73.48a21.32,21.32,0,0,1,2.78-2.76l-3-3.67a26.71,26.71,0,0,0-3.42,3.39Z"/><path class="cls-1" d="M81.9,66.54A21.49,21.49,0,0,1,85.78,66l-.27-4.74a25.77,25.77,0,0,0-4.77.73Z"/><path class="cls-2" d="M98.42,69.25l2.56-4A26.68,26.68,0,0,0,96.7,63l-1.77,4.41A21.36,21.36,0,0,1,98.42,69.25Z"/><path class="cls-2" d="M100.94,71.14l3.36-3.37a27.34,27.34,0,0,0-2.82-2.2l-2.65,4A19.37,19.37,0,0,1,100.94,71.14Z"/><path class="cls-2" d="M71.14,100.94a20,20,0,0,1-1.74-2.29l-4,2.61a26.68,26.68,0,0,0,2.34,3Z"/><path class="cls-2" d="M66.19,90.48l-4.68.77a25.73,25.73,0,0,0,1.22,4.66l4.46-1.64A20.7,20.7,0,0,1,66.19,90.48Z"/><path class="cls-2" d="M94.47,67.26l1.68-4.44a25.83,25.83,0,0,0-4.66-1.27l-.81,4.68A20.76,20.76,0,0,1,94.47,67.26Z"/><path class="cls-3" d="M79.57,106.81l-1.67,4.44a25.17,25.17,0,0,0,4.65,1.28l.81-4.68A21.24,21.24,0,0,1,79.57,106.81Z"/><path class="cls-4" d="M96.74,105.82,98.92,110a25.66,25.66,0,0,0,4-2.61L100,103.69A21.6,21.6,0,0,1,96.74,105.82Z"/><path class="cls-3" d="M87.77,108.16l-.73,0a21,21,0,0,1-3.19-.25l-.72,4.7a26.56,26.56,0,0,0,3.91.3c.31,0,.61,0,.91,0Z"/><path class="cls-5" d="M92.15,107.55a20.87,20.87,0,0,1-3.89.59l.28,4.74a25.9,25.9,0,0,0,4.77-.72Z"/><path class="cls-6" d="M96.3,106a21.13,21.13,0,0,1-3.68,1.39L93.88,112a25.69,25.69,0,0,0,4.51-1.7Z"/><path class="cls-7" d="M75.64,104.82l-2.56,4A26.17,26.17,0,0,0,77.35,111l1.77-4.41A21.65,21.65,0,0,1,75.64,104.82Z"/><path class="cls-8" d="M73.15,103l-3.36,3.36a26.89,26.89,0,0,0,2.79,2.19l2.65-4A20.15,20.15,0,0,1,73.15,103Z"/><path class="cls-2" d="M103,73.15a21.23,21.23,0,0,1,1.73,2.27l4-2.61a25.29,25.29,0,0,0-2.33-3Z"/><path class="cls-2" d="M106.89,79.8a20.23,20.23,0,0,1,1,3.8l4.69-.77a26.07,26.07,0,0,0-1.23-4.67Z"/><path class="cls-2" d="M108.12,88.51a20.67,20.67,0,0,1-.63,3.88l4.6,1.2a25.83,25.83,0,0,0,.77-4.76Z"/><path class="cls-9" d="M103.22,100.62a21.48,21.48,0,0,1-2.79,2.77l3,3.67a26.23,26.23,0,0,0,3.43-3.4Z"/><path class="cls-1" d="M103.53,100.24l3.71,3a27.27,27.27,0,0,0,2.66-4L105.7,97A20.71,20.71,0,0,1,103.53,100.24Z"/><rect class="cls-1" x="114.64" y="86.57" width="8.97" height="0.63"/><rect class="cls-1" x="50.38" y="86.57" width="8.97" height="0.63"/><path class="cls-2" d="M82.55,48.7l-.07-.63-.44,0,.08.63Z"/><path class="cls-2" d="M81.22,48.88l-.1-.63-.44.07.11.62Z"/><path class="cls-2" d="M85.24,48.48l0-.63-.44,0,0,.63Z"/><path class="cls-2" d="M83.89,48.56l0-.63-.45,0,.06.63Z"/><path class="cls-2" d="M79.89,49.1l-.11-.62-.44.08.12.62Z"/><path class="cls-2" d="M77.26,49.69l-.16-.61-.43.12.17.61Z"/><path class="cls-2" d="M76,50.06l-.18-.61-.42.13.19.6Z"/><path class="cls-2" d="M78.57,49.37l-.14-.61-.43.1.15.61Z"/><path class="cls-2" d="M74.68,50.47l-.2-.6-.42.14.21.6Z"/><path class="cls-2" d="M86.59,48.44v-.63h-.45l0,.64Z"/><path class="cls-2" d="M94.75,48.56l-.44-.08-.11.62.42.08Z"/><path class="cls-2" d="M100,50l-.42-.14-.2.6.41.14Z"/><path class="cls-2" d="M88,47.81H87.5v.63h.43Z"/><path class="cls-2" d="M102.58,51l-.41-.17-.24.58.4.17Z"/><path class="cls-2" d="M98.73,49.58l-.43-.13-.17.61.41.12Z"/><path class="cls-2" d="M103.83,51.58l-.41-.19-.26.58.39.18Z"/><path class="cls-2" d="M101.32,50.49l-.42-.16-.22.59.4.16Z"/><path class="cls-2" d="M92.05,48.12l-.45,0-.07.63.43,0Z"/><path class="cls-2" d="M73.41,50.92l-.22-.59-.42.16.24.59Z"/><path class="cls-2" d="M97.42,49.2,97,49.08l-.15.61.42.12Z"/><path class="cls-2" d="M96.09,48.86l-.44-.1-.13.61.42.1Z"/><path class="cls-2" d="M52.15,70.53l-.57-.27c-.07.13-.13.27-.19.41l.57.26Z"/><path class="cls-2" d="M55.55,64.73,55,64.36l-.26.37.53.36Z"/><path class="cls-2" d="M56.35,63.65l-.5-.39-.27.36.51.37Z"/><path class="cls-2" d="M57.19,62.59l-.49-.4-.28.35.5.39Z"/><path class="cls-2" d="M54.79,65.84l-.52-.35-.25.38.54.33C54.63,66.08,54.71,66,54.79,65.84Z"/><path class="cls-2" d="M58.06,61.56l-.47-.42-.29.34.48.41Z"/><path class="cls-2" d="M52.75,69.33l-.56-.3-.21.4.57.28C52.61,69.58,52.68,69.46,52.75,69.33Z"/><path class="cls-2" d="M108.6,54.27l-.38-.25-.33.54.36.24Z"/><path class="cls-2" d="M54.07,67l-.54-.33c-.08.12-.15.25-.23.38l.55.32C53.92,67.23,54,67.1,54.07,67Z"/><path class="cls-2" d="M51.59,71.76,51,71.51c-.06.13-.12.27-.17.41l.58.24C51.48,72,51.53,71.89,51.59,71.76Z"/><path class="cls-2" d="M53.39,68.14l-.55-.31-.22.39.56.3Z"/><path class="cls-2" d="M59,60.57l-.46-.44-.3.33.46.43Z"/><path class="cls-2" d="M69.71,52.55,69.43,52l-.4.21.3.56Z"/><path class="cls-2" d="M68.52,53.18l-.3-.56-.39.22.31.55Z"/><path class="cls-2" d="M60.13,58.51l.44.46.31-.29-.42-.47Z"/><path class="cls-2" d="M70.92,52l-.26-.58-.4.19.27.57Z"/><path class="cls-2" d="M66.2,54.56,65.86,54l-.37.25.35.52Z"/><path class="cls-2" d="M72.15,51.42l-.23-.58L71.5,51l.26.58Z"/><path class="cls-2" d="M67.35,53.85,67,53.3l-.38.23.33.54Z"/><path class="cls-2" d="M65.08,55.31l-.35-.53-.37.26.37.51Z"/><path class="cls-2" d="M61.89,57.78l-.41-.48-.34.29.42.47Z"/><path class="cls-2" d="M62.93,56.92l-.4-.5c-.11.1-.23.19-.35.28l.41.49Z"/><path class="cls-2" d="M64,56.09l-.38-.51-.35.27.39.5Z"/><path class="cls-2" d="M52,103.16l-.58.26c.06.14.12.27.19.41l.57-.28Z"/><path class="cls-2" d="M90.69,48l-.45,0,0,.63.43,0Z"/><path class="cls-2" d="M51.08,73l-.59-.24c-.06.14-.11.28-.16.42l.59.22Z"/><path class="cls-2" d="M59.15,59.47l.45.44.31-.3-.44-.46Z"/><path class="cls-2" d="M105.06,52.19l-.4-.21-.28.57.38.2Z"/><path class="cls-2" d="M89.32,47.87l-.45,0,0,.63.43,0Z"/><path class="cls-2" d="M93.4,48.32,93,48.25l-.09.63.43.06Z"/><path class="cls-2" d="M111.9,56.7l-.35-.28-.39.5.34.27Z"/><path class="cls-2" d="M106.26,52.84l-.39-.22-.3.56.38.21Z"/><path class="cls-2" d="M114.94,59.47l-.32-.32-.44.46.3.3Z"/><path class="cls-2" d="M109.73,55l-.37-.25-.36.52.36.24Z"/><path class="cls-2" d="M107.44,53.53l-.38-.23-.32.55.37.22Z"/><path class="cls-2" d="M59.15,114.62l.32.31.44-.45-.31-.3Z"/><path class="cls-2" d="M56.42,111.55l.28.35.49-.4-.27-.34Z"/><path class="cls-2" d="M69,121.9l.4.2.28-.57-.39-.19Z"/><path class="cls-2" d="M82,126l.45,0,.07-.63-.43,0Z"/><path class="cls-2" d="M114.17,114.48l.44.46.32-.32-.45-.44Z"/><path class="cls-2" d="M84.76,126.22l.45,0,0-.63-.43,0Z"/><path class="cls-2" d="M76.67,124.89l.43.12.15-.62-.41-.11Z"/><path class="cls-2" d="M110.83,55.85l-.36-.27-.37.51.34.27Z"/><path class="cls-2" d="M64.36,119.05l.37.25.35-.52c-.12-.08-.24-.16-.35-.25Z"/><path class="cls-2" d="M125.61,85.24l.63,0c0-.15,0-.3,0-.45l-.64,0Z"/><path class="cls-2" d="M62.18,117.38l.35.28.39-.49-.33-.27Z"/><path class="cls-2" d="M58.21,113.63l.3.32.46-.43-.3-.32Z"/><path class="cls-2" d="M120.91,68.52l.56-.3-.22-.39-.55.32Z"/><path class="cls-2" d="M117.67,62.54l-.28-.35-.49.4.27.34Z"/><path class="cls-2" d="M119.31,64.73l-.26-.37-.51.37.24.36Z"/><path class="cls-2" d="M125.52,83.9l.63-.05c0-.15,0-.3,0-.45l-.63.07C125.5,83.61,125.51,83.75,125.52,83.9Z"/><path class="cls-2" d="M119.53,66.21l.54-.34-.25-.38-.52.36C119.37,66,119.45,66.09,119.53,66.21Z"/><path class="cls-2" d="M118.51,63.62l-.28-.36-.49.39L118,64Z"/><path class="cls-2" d="M112.2,57.78l.32.28.43-.47-.34-.29Z"/><path class="cls-2" d="M113.2,58.68l.32.29.44-.46-.33-.3Z"/><path class="cls-2" d="M116.79,61.48l-.29-.33-.47.42.28.32Z"/><path class="cls-2" d="M115.88,60.46l-.3-.33-.46.44c.1.11.2.21.29.32Z"/><path class="cls-2" d="M120.24,67.35l.55-.32c-.08-.12-.15-.25-.23-.38L120,67C120.09,67.11,120.17,67.23,120.24,67.35Z"/><path class="cls-2" d="M124.71,78.57l.62-.13c0-.15-.06-.29-.1-.44l-.61.15Z"/><path class="cls-2" d="M124.4,77.26l.61-.15-.12-.44-.61.18Z"/><path class="cls-2" d="M124,76l.61-.18c0-.14-.09-.29-.13-.43l-.61.19C124,75.69,124,75.83,124,76Z"/><path class="cls-2" d="M125,79.89l.63-.11-.09-.44-.62.13C124.93,79.61,125,79.75,125,79.89Z"/><path class="cls-2" d="M121.54,69.71l.57-.27L121.9,69l-.56.3C121.41,69.46,121.47,69.59,121.54,69.71Z"/><path class="cls-2" d="M125.39,82.56l.63-.07c0-.15,0-.3,0-.45l-.63.09C125.36,82.27,125.37,82.41,125.39,82.56Z"/><path class="cls-2" d="M122.67,72.16l.58-.24-.17-.41-.58.26C122.55,71.9,122.61,72,122.67,72.16Z"/><path class="cls-2" d="M122.12,70.93l.58-.26c-.06-.14-.13-.27-.19-.41l-.57.28Z"/><path class="cls-2" d="M123.62,74.68l.6-.2c0-.14-.1-.28-.15-.42l-.59.21C123.53,74.41,123.58,74.55,123.62,74.68Z"/><path class="cls-2" d="M123.16,73.41l.6-.21-.16-.43L123,73Z"/><path class="cls-2" d="M125.21,81.22l.63-.09c0-.15,0-.29-.07-.44l-.63.11C125.17,80.94,125.19,81.08,125.21,81.22Z"/><path class="cls-2" d="M106.73,120.24l.32.55.39-.23-.34-.54Z"/><path class="cls-2" d="M105.56,120.91l.3.56.4-.22-.32-.55Z"/><path class="cls-2" d="M107.88,119.53l.34.54.37-.25-.35-.52Z"/><path class="cls-2" d="M103.16,122.12l.26.58.4-.19-.27-.57Z"/><path class="cls-2" d="M104.37,121.54l.28.57.4-.21-.29-.56Z"/><path class="cls-2" d="M115.11,113.52l.46.44.31-.33-.47-.42Z"/><path class="cls-2" d="M112.19,116.31l.41.49.34-.3-.42-.47Z"/><path class="cls-2" d="M87.5,125.65v.63H88l0-.63Z"/><path class="cls-2" d="M113.2,115.42l.42.46.33-.3-.44-.46Z"/><path class="cls-2" d="M111.16,117.17l.39.5.35-.28-.41-.49Z"/><path class="cls-2" d="M101.92,122.67l.24.58.42-.17-.26-.58Z"/><path class="cls-2" d="M110.09,118l.38.51.35-.27-.39-.5Z"/><path class="cls-2" d="M94.19,125l.12.63.44-.09-.13-.62Z"/><path class="cls-2" d="M100.67,123.16l.22.6.42-.16-.23-.59Z"/><path class="cls-2" d="M91.53,125.39l.07.63.44,0-.08-.63Z"/><path class="cls-2" d="M88.84,125.61l0,.63.45,0,0-.63Z"/><path class="cls-2" d="M90.19,125.52l0,.63.45,0-.06-.64Z"/><path class="cls-2" d="M92.87,125.21l.09.63.44-.07-.11-.63Z"/><path class="cls-2" d="M98.12,124l.18.61.43-.13-.2-.6Z"/><path class="cls-2" d="M99.4,123.62l.2.6.43-.15-.22-.59Z"/><path class="cls-2" d="M95.51,124.71l.14.62.44-.1-.16-.61Z"/><path class="cls-2" d="M96.82,124.4,97,125l.43-.12-.17-.61Z"/><path class="cls-2" d="M109,118.78l.35.53.37-.26-.37-.51Z"/><path class="cls-2" d="M124.61,95.94l.62.16c0-.15.07-.3.1-.44l-.62-.14C124.68,95.66,124.65,95.8,124.61,95.94Z"/><path class="cls-2" d="M124.9,94.63l.62.13.09-.45L125,94.2C125,94.34,124.93,94.49,124.9,94.63Z"/><path class="cls-2" d="M123.47,99.82l.6.22.15-.43-.6-.19Z"/><path class="cls-2" d="M125.14,93.3l.62.11c0-.15.06-.3.08-.44l-.63-.1C125.19,93,125.17,93.16,125.14,93.3Z"/><path class="cls-2" d="M124.28,97.25l.61.17L125,97l-.62-.16C124.36,97,124.32,97.11,124.28,97.25Z"/><path class="cls-2" d="M123.9,98.54l.6.2c0-.14.09-.29.13-.43l-.6-.18C124,98.27,123.94,98.41,123.9,98.54Z"/><path class="cls-2" d="M125.64,87.94l.63,0c0-.15,0-.3,0-.45h-.63C125.64,87.65,125.64,87.8,125.64,87.94Z"/><path class="cls-2" d="M116,112.53l.47.42.3-.34-.49-.41Z"/><path class="cls-2" d="M125.58,89.28l.64,0c0-.15,0-.3,0-.45l-.63,0Z"/><path class="cls-2" d="M125.34,92l.63.08c0-.14,0-.29,0-.44l-.63-.07C125.37,91.68,125.36,91.83,125.34,92Z"/><path class="cls-2" d="M125.48,90.63l.63.06c0-.15,0-.3,0-.45l-.63,0C125.51,90.34,125.5,90.49,125.48,90.63Z"/><path class="cls-2" d="M125.65,86.59h.63c0-.15,0-.3,0-.45l-.63,0C125.64,86.3,125.64,86.45,125.65,86.59Z"/><path class="cls-2" d="M119.29,108.25l.53.35.24-.37-.53-.34Z"/><path class="cls-2" d="M123,101.09l.58.23.17-.42-.6-.22Z"/><path class="cls-2" d="M118.53,109.36l.51.37c.09-.12.18-.24.26-.37l-.52-.35Z"/><path class="cls-2" d="M118,110.1l-.26.34.5.39.27-.35Z"/><path class="cls-2" d="M116.89,111.5l.49.41.28-.35-.5-.4Z"/><path class="cls-2" d="M120,107.11l.54.34c.08-.13.16-.26.23-.39l-.55-.32C120.16,106.87,120.09,107,120,107.11Z"/><path class="cls-2" d="M121.94,103.56l.57.27c.06-.13.12-.27.19-.4l-.58-.26Z"/><path class="cls-2" d="M122.49,102.33l.58.26.18-.42-.59-.24C122.61,102.07,122.55,102.2,122.49,102.33Z"/><path class="cls-2" d="M120.69,106l.55.31c.08-.13.15-.26.22-.39l-.55-.3Z"/><path class="cls-2" d="M121.34,104.76l.56.3c.07-.13.13-.27.2-.4l-.57-.28C121.47,104.51,121.4,104.64,121.34,104.76Z"/><path class="cls-2" d="M50.92,100.68l-.59.22.16.42.59-.24Z"/><path class="cls-2" d="M49.37,95.52l-.61.13c0,.15.06.29.1.44l.61-.15C49.44,95.8,49.41,95.66,49.37,95.52Z"/><path class="cls-2" d="M48.88,92.87l-.63.09c0,.15,0,.3.07.44l.62-.1Z"/><path class="cls-2" d="M49.1,94.2l-.62.11.09.44.61-.13C49.16,94.48,49.13,94.34,49.1,94.2Z"/><path class="cls-2" d="M48.57,90.19l-.64,0c0,.15,0,.3,0,.45l.63-.07Z"/><path class="cls-2" d="M48.7,91.53l-.63.07c0,.15,0,.3,0,.45l.63-.09C48.73,91.82,48.71,91.68,48.7,91.53Z"/><path class="cls-2" d="M50.61,74.27l-.6-.21c0,.14-.1.28-.14.42l.59.2Z"/><path class="cls-2" d="M51.42,101.93l-.58.24c0,.14.11.27.17.41l.58-.25C51.53,102.19,51.48,102.06,51.42,101.93Z"/><path class="cls-2" d="M48.48,88.85l-.63,0c0,.15,0,.3,0,.45l.63,0C48.49,89.14,48.49,89,48.48,88.85Z"/><path class="cls-2" d="M50.06,98.13l-.61.17c0,.15.09.29.13.43l.6-.19Z"/><path class="cls-2" d="M50.47,99.41l-.6.2c0,.14.09.28.14.42l.6-.21C50.56,99.68,50.51,99.55,50.47,99.41Z"/><path class="cls-2" d="M49.69,96.83l-.61.15.12.44.61-.18Z"/><path class="cls-2" d="M49.18,79.47l-.62-.13c0,.14-.05.29-.08.44l.62.11C49.13,79.75,49.16,79.61,49.18,79.47Z"/><path class="cls-2" d="M49.47,78.15,48.86,78c0,.14-.07.29-.1.44l.61.13C49.41,78.43,49.44,78.29,49.47,78.15Z"/><path class="cls-2" d="M52.55,104.37l-.57.28.21.41.56-.3Z"/><path class="cls-2" d="M48.94,80.79l-.62-.11c0,.15,0,.3-.07.45l.62.09C48.9,81.07,48.92,80.93,48.94,80.79Z"/><path class="cls-2" d="M50.18,75.55l-.6-.19c0,.14-.09.28-.13.43l.61.17Z"/><path class="cls-2" d="M49.81,76.84l-.61-.17-.12.43.61.16Z"/><path class="cls-2" d="M48.75,82.12,48.12,82c0,.15,0,.3,0,.45l.63.06C48.71,82.41,48.73,82.27,48.75,82.12Z"/><path class="cls-2" d="M48.45,86.16l-.64,0v.45h.63C48.44,86.44,48.44,86.3,48.45,86.16Z"/><path class="cls-2" d="M48.44,87.5h-.63V88l.64,0C48.44,87.79,48.44,87.65,48.44,87.5Z"/><path class="cls-2" d="M48.5,84.81l-.63,0c0,.15,0,.29,0,.44l.63,0C48.49,85.1,48.49,85,48.5,84.81Z"/><path class="cls-2" d="M48.6,83.46,48,83.4c0,.15,0,.3,0,.45l.64,0Z"/><path class="cls-2" d="M53.18,105.57l-.56.3.22.39.55-.32Z"/><path class="cls-2" d="M74.05,124.07l.43.15.19-.6-.4-.14Z"/><path class="cls-2" d="M72.77,123.6l.42.16.22-.6L73,123Z"/><path class="cls-2" d="M67.82,121.25l.4.22.3-.56-.38-.21Z"/><path class="cls-2" d="M71.5,123.07l.42.18.23-.59-.39-.17Z"/><path class="cls-2" d="M70.26,122.51l.4.19.26-.58-.39-.18Z"/><path class="cls-2" d="M75.35,124.51l.43.12L76,124l-.42-.13Z"/><path class="cls-2" d="M83.4,126.11l.44,0,0-.63-.43,0Z"/><path class="cls-2" d="M80.68,125.77l.44.07.09-.63-.42-.07Z"/><path class="cls-2" d="M79.33,125.52l.44.09.12-.63-.43-.08Z"/><path class="cls-2" d="M78,125.23l.44.1.14-.62-.43-.09Z"/><path class="cls-2" d="M60.13,115.57l.33.31.42-.47-.31-.29Z"/><path class="cls-2" d="M54.78,109.36l.26.37.51-.37-.24-.36Z"/><path class="cls-2" d="M55.58,110.47l.27.36.5-.39c-.08-.12-.17-.23-.26-.34Z"/><path class="cls-2" d="M54.56,107.88l-.54.34.25.38.52-.36C54.71,108.12,54.63,108,54.56,107.88Z"/><path class="cls-2" d="M57.29,112.61l.3.33.47-.42-.28-.32Z"/><path class="cls-2" d="M53.85,106.74l-.55.31.23.39.54-.33Z"/><path class="cls-2" d="M66.64,120.55l.39.23.32-.54L67,120Z"/><path class="cls-2" d="M63.26,118.23l.35.27L64,118l-.35-.26Z"/><path class="cls-2" d="M86.13,126.27h.45v-.63h-.43Z"/><path class="cls-2" d="M65.49,119.82l.37.25.34-.54-.36-.24Z"/><path class="cls-2" d="M61.14,116.5l.34.29.41-.48-.33-.29Z"/><path class="cls-1" d="M35.48,93.17A52,52,0,0,0,72.68,137a.43.43,0,0,0,0,.11.93.93,0,1,0,.93-.93.91.91,0,0,0-.82.52,51.39,51.39,0,0,1-37-43.53.93.93,0,0,0-.29-1.81.93.93,0,0,0,0,1.86Zm38.11,43.28a.62.62,0,1,1-.61.61A.62.62,0,0,1,73.59,136.45ZM35.5,91.63a.61.61,0,0,1,.62.61.62.62,0,1,1-1.23,0A.61.61,0,0,1,35.5,91.63Z"/><path class="cls-1" d="M42.5,124.6a1.35,1.35,0,0,0,.69-.19A57.53,57.53,0,0,0,87,144.66a57,57,0,0,0,26.13-6.25,1.37,1.37,0,0,0,1,.49,1.39,1.39,0,1,0-1.39-1.39,1.27,1.27,0,0,0,0,.34A57,57,0,0,1,43.66,124a1.42,1.42,0,0,0,.23-.76,1.39,1.39,0,1,0-1.39,1.38Zm71.72,12.16a.76.76,0,1,1-.75.75A.76.76,0,0,1,114.22,136.76ZM42.5,122.47a.75.75,0,1,1-.75.75A.75.75,0,0,1,42.5,122.47Z"/><path class="cls-1" d="M15.18,40.5a87.63,87.63,0,0,1,6.65-8.9l-.75-.66c-.69.8-1.35,1.62-2,2.44l-.35-.27q-2.16,2.72-4.08,5.56l.39.25-.68,1Z"/><path class="cls-1" d="M171.46,67.63c-.4-1.77-.87-3.53-1.38-5.27l.43-.13a84,84,0,0,0-3.17-8.9l-.42.17c-.49-1.17-1-2.34-1.55-3.49l-.91.44a85.32,85.32,0,0,1,6.06,17.4Z"/><path class="cls-1" d="M87,1.4A85.12,85.12,0,0,1,124.4,10l.44-.9a85.46,85.46,0,0,0-24.25-7.58l.07-.45A88,88,0,0,0,87.13,0V.45H87c-1.61,0-3.22,0-4.82.14l.06,1C83.85,1.45,85.44,1.4,87,1.4Z"/><path class="cls-2" d="M172.9,98.36l-1-.12a85.15,85.15,0,0,1-14.08,36.9l.37.25A86.65,86.65,0,0,1,125.66,164l-.2-.4A85.5,85.5,0,0,1,22.17,142.89l-.76.65q2.1,2.43,4.4,4.74.84.84,1.71,1.65l-.31.33A86.42,86.42,0,0,0,66,171.54l.11-.44a85.72,85.72,0,0,0,9.46,1.78l-2.09.16a87.88,87.88,0,0,0,39.82-3l-2,.15a84.32,84.32,0,0,0,11-4l.18.41a87.92,87.92,0,0,0,39.06-34.4l-.39-.23a85.91,85.91,0,0,0,5-9.44l.41.18a86,86,0,0,0,6.17-19.85l-.44-.08Q172.61,100.6,172.9,98.36Z"/><path class="cls-2" d="M8.54,51.71l-.91-.41a87.38,87.38,0,0,0,5.84,82.32l.85-.54A86,86,0,0,1,8.54,51.71Z"/><path class="cls-2" d="M57.3,21.86,53,12.35l-1.27.59,4.52,9.42Z"/><path class="cls-2" d="M27.23,47.5l-8.65-5.75c-.26.39-.51.78-.76,1.17l8.77,5.57C26.8,48.16,27,47.82,27.23,47.5Z"/><path class="cls-2" d="M28.65,45.43l-8.44-6-.81,1.15L28,46.4Z"/><path class="cls-2" d="M29.42,44.36l.71-.94-8.22-6.33-.84,1.12Z"/><path class="cls-2" d="M33.32,39.56l-7.77-6.9-.91,1.06,7.9,6.73C32.8,40.15,33.05,39.85,33.32,39.56Z"/><path class="cls-2" d="M35,37.71l-7.52-7.16-1,1,7.67,7Z"/><path class="cls-2" d="M31.69,41.46l-8-6.62-.89,1.09L31,42.38C31.19,42.07,31.44,41.76,31.69,41.46Z"/><path class="cls-2" d="M22.32,56.21l-9.39-4.5c-.2.42-.39.85-.59,1.27l9.48,4.3C22,56.92,22.15,56.57,22.32,56.21Z"/><path class="cls-2" d="M23.43,54l-9.22-4.82-.63,1.25L22.89,55Z"/><path class="cls-2" d="M25.89,49.61,17,44.17l-.72,1.2,9,5.25Z"/><path class="cls-2" d="M14.9,47.86l9.15,4.94c.18-.34.38-.69.57-1l-9-5.14C15.35,47,15.13,47.45,14.9,47.86Z"/><path class="cls-2" d="M55,22.93,50.4,13.58c-.42.21-.84.42-1.25.64L54,23.47Z"/><path class="cls-2" d="M48.51,26.62l-5.59-8.81-1.18.76,5.77,8.69Z"/><path class="cls-2" d="M36.76,35.93,29.49,28.5l-1,1,7.43,7.27C36.2,36.48,36.48,36.21,36.76,35.93Z"/><path class="cls-2" d="M52.82,24.09l-5-9.19-1.23.68,5.15,9.08C52.13,24.46,52.47,24.27,52.82,24.09Z"/><path class="cls-2" d="M46.42,28l-5.89-8.61-1.15.81,6.07,8.47Z"/><path class="cls-2" d="M21.28,58.49l-9.54-4.17-.55,1.29,9.63,4C21,59.21,21.13,58.85,21.28,58.49Z"/><path class="cls-2" d="M50.64,25.31l-5.28-9-1.2.72,5.47,8.89Z"/><path class="cls-2" d="M38.58,34.21l-7-7.68-1,1L37.71,35Z"/><path class="cls-2" d="M40.46,32.55l-6.74-7.92c-.36.3-.71.61-1.06.92l6.9,7.78Z"/><path class="cls-2" d="M42.39,31,35.92,22.8l-1.08.89,6.63,8Z"/><path class="cls-2" d="M44.38,29.45,38.2,21.06c-.38.27-.75.56-1.12.84l6.35,8.26Z"/><path class="cls-2" d="M5,83.45l10.44.44.06-1.19L5.11,82.05C5.09,82.51,5.06,83,5,83.45Z"/><path class="cls-2" d="M16.83,101.29c-.08-.38-.16-.77-.23-1.16L6.33,102c.08.46.17.92.26,1.38Z"/><path class="cls-2" d="M20.33,60.8,10.65,57c-.18.43-.34.87-.51,1.3l9.77,3.64Z"/><path class="cls-2" d="M16,96.36c-.05-.39-.1-.78-.14-1.17L5.49,96.35c0,.46.11.93.17,1.39Z"/><path class="cls-2" d="M17.36,103.74c-.09-.39-.18-.77-.26-1.16L6.9,104.83c.1.45.2.91.31,1.36Z"/><path class="cls-2" d="M15.73,93.88c0-.4-.07-.79-.1-1.18l-10.41.8c0,.46.07.93.11,1.4Z"/><path class="cls-2" d="M18,106.16c-.11-.38-.21-.76-.31-1.15l-10.12,2.6c.12.46.24.91.37,1.36Z"/><path class="cls-2" d="M19.49,110.93c-.13-.37-.26-.75-.38-1.12l-9.92,3.3c.15.44.3.88.46,1.32Z"/><path class="cls-2" d="M20.36,113.27l-.42-1.1-9.79,3.64c.16.44.33.87.5,1.31Z"/><path class="cls-2" d="M18.7,108.56c-.12-.38-.24-.76-.35-1.14l-10,3c.13.45.26.9.41,1.35Z"/><path class="cls-2" d="M15.54,91.38l-.06-1.18L5,90.64c0,.47,0,.93.08,1.4Z"/><path class="cls-2" d="M16.37,98.84l-.18-1.17L5.86,99.19c.07.46.13.93.21,1.39Z"/><path class="cls-2" d="M18,67.92l-10-2.8-.36,1.35,10.11,2.6Z"/><path class="cls-2" d="M6.33,72.07,16.6,74c.07-.39.14-.77.22-1.16L6.59,70.69C6.5,71.15,6.41,71.61,6.33,72.07Z"/><path class="cls-2" d="M5.86,74.89l10.33,1.53.18-1.17L6.07,73.51C6,74,5.92,74.43,5.86,74.89Z"/><path class="cls-2" d="M19.46,63.15l-9.82-3.5c-.15.44-.31.88-.45,1.33l9.89,3.29C19.2,63.89,19.33,63.52,19.46,63.15Z"/><path class="cls-2" d="M15.43,88.89c0-.4,0-.79,0-1.19L5,87.77c0,.47,0,.94,0,1.41Z"/><path class="cls-2" d="M18.33,66.66c.11-.38.23-.76.35-1.14L8.74,62.37c-.15.44-.28.89-.41,1.34Z"/><path class="cls-2" d="M59.59,20.86l-4-9.66-1.29.55,4.18,9.57Z"/><path class="cls-2" d="M5.48,77.74,15.86,78.9,16,77.73,5.65,76.34C5.59,76.81,5.54,77.27,5.48,77.74Z"/><path class="cls-2" d="M5,86.31l10.45.08c0-.4,0-.79,0-1.19L5,84.91C5,85.38,5,85.84,5,86.31Z"/><path class="cls-2" d="M5.21,80.59l10.42.8c0-.39.06-.79.1-1.18l-10.4-1Z"/><path class="cls-2" d="M6.89,69.26l10.2,2.24c.08-.38.17-.77.26-1.15L7.21,67.89C7.1,68.35,7,68.8,6.89,69.26Z"/><path class="cls-1" d="M119.76,162.33l-4.18-9.57-1.09.47,4,9.66Z"/><path class="cls-1" d="M124.93,159.87l-4.84-9.26-1,.54,4.64,9.35C124.1,160.29,124.52,160.09,124.93,159.87Z"/><path class="cls-1" d="M132.33,155.5l-5.78-8.7-1,.65,5.59,8.82C131.55,156,131.94,155.76,132.33,155.5Z"/><path class="cls-1" d="M122.37,161.15l-4.52-9.43-1.07.51,4.31,9.51Z"/><path class="cls-1" d="M127.45,158.5l-5.16-9.09-1,.58,5,9.19Z"/><path class="cls-1" d="M129.91,157l-5.47-8.9-1,.62,5.28,9Z"/><path class="cls-2" d="M157.78,128.73l-9-5.29c-.2.34-.4.68-.61,1l8.9,5.47C157.3,129.54,157.54,129.14,157.78,128.73Z"/><path class="cls-2" d="M159.19,126.24l-9.19-5-.58,1,9.09,5.17C158.74,127.06,159,126.65,159.19,126.24Z"/><path class="cls-2" d="M169,90.64,158.6,90.2c0,.4,0,.8-.06,1.19l10.43.66C169,91.58,169,91.11,169,90.64Z"/><path class="cls-2" d="M149.44,140.36l-7.95-6.77-.78.9,7.81,6.94C148.83,141.08,149.14,140.72,149.44,140.36Z"/><path class="cls-2" d="M165.77,110.38l-10-2.95c-.11.38-.23.76-.35,1.13l10,3.16Z"/><path class="cls-2" d="M156.27,131.17l-8.82-5.6c-.21.33-.43.66-.65,1l8.71,5.79C155.77,132,156,131.57,156.27,131.17Z"/><path class="cls-2" d="M147.54,142.51l-7.71-7-.81.87,7.56,7.2Q147.07,143,147.54,142.51Z"/><path class="cls-2" d="M162.9,118.48l-9.67-4c-.15.37-.3.73-.46,1.09l9.58,4.19C162.54,119.35,162.72,118.92,162.9,118.48Z"/><path class="cls-2" d="M153,135.89l-8.41-6.2c-.24.31-.47.63-.72.94l8.28,6.38C152.46,136.64,152.74,136.26,153,135.89Z"/><path class="cls-2" d="M164,115.82l-9.8-3.64-.42,1.1,9.71,3.85Z"/><path class="cls-2" d="M164.9,113.12l-9.91-3.3c-.13.37-.25.75-.39,1.12l9.85,3.51Z"/><path class="cls-2" d="M168.87,93.5l-10.42-.8c0,.39-.06.79-.1,1.18l10.4,1C168.8,94.44,168.83,94,168.87,93.5Z"/><path class="cls-2" d="M161.75,121.11l-9.52-4.31-.5,1.07,9.43,4.51C161.36,122,161.56,121.54,161.75,121.11Z"/><path class="cls-2" d="M160.52,123.7l-9.36-4.65-.54,1.06,9.26,4.84Z"/><path class="cls-2" d="M158.55,82.71c0,.39,0,.79,0,1.18L169,83.45l-.06-1.4Z"/><path class="cls-2" d="M166.53,107.62,156.4,105c-.1.38-.19.77-.3,1.15L166.16,109C166.29,108.53,166.41,108.07,166.53,107.62Z"/><path class="cls-2" d="M169.12,87.78l-10.45-.07c0,.39,0,.79,0,1.18l10.45.29C169.11,88.72,169.11,88.25,169.12,87.78Z"/><path class="cls-2" d="M169.11,86.32c0-.47,0-.94,0-1.41l-10.44.3c0,.39,0,.79,0,1.18Z"/><path class="cls-2" d="M151.27,138.16l-8.19-6.49c-.24.31-.49.61-.75.92l8,6.66Z"/><path class="cls-2" d="M167.76,102l-10.28-1.88c-.07.39-.14.77-.22,1.16l10.23,2.1C167.59,102.94,167.67,102.48,167.76,102Z"/><path class="cls-2" d="M168.23,99.2l-10.34-1.53c0,.39-.12.78-.18,1.17l10.3,1.74C168.09,100.12,168.16,99.66,168.23,99.2Z"/><path class="cls-2" d="M158.08,77.73c0,.39.1.78.14,1.18l10.39-1.17-.18-1.39Z"/><path class="cls-2" d="M167.2,104.83,157,102.59l-.27,1.15,10.16,2.46C167,105.75,167.1,105.29,167.2,104.83Z"/><path class="cls-2" d="M157.72,75.25c.06.39.13.78.18,1.17l10.34-1.52c-.07-.47-.15-.93-.22-1.39Z"/><path class="cls-2" d="M158.36,80.21l.09,1.19,10.42-.81c0-.46-.07-.93-.12-1.4Z"/><path class="cls-2" d="M168.6,96.36l-10.38-1.17-.15,1.18,10.36,1.38C168.49,97.29,168.55,96.82,168.6,96.36Z"/><path class="cls-2" d="M154.69,133.56l-8.62-5.9-.69,1,8.5,6.09Z"/><path class="cls-2" d="M155,64.28l9.92-3.3c-.15-.44-.31-.88-.47-1.33l-9.84,3.51C154.73,63.53,154.87,63.9,155,64.28Z"/><path class="cls-2" d="M153.23,59.6l9.66-4c-.18-.43-.36-.87-.55-1.3l-9.57,4.18C152.93,58.87,153.08,59.23,153.23,59.6Z"/><path class="cls-2" d="M154.15,61.92l9.79-3.64c-.16-.44-.33-.87-.5-1.31l-9.71,3.85Z"/><path class="cls-2" d="M152.23,57.31,161.74,53c-.19-.42-.39-.85-.59-1.27l-9.42,4.51Z"/><path class="cls-2" d="M157.27,72.79c.08.39.15.78.22,1.17l10.28-1.89c-.08-.46-.17-.92-.26-1.38Z"/><path class="cls-2" d="M156.73,70.35c.1.38.18.77.26,1.16l10.21-2.25c-.1-.45-.2-.91-.31-1.37Z"/><path class="cls-2" d="M156.11,67.93l.3,1.14,10.12-2.59c-.11-.46-.23-.91-.36-1.36Z"/><path class="cls-2" d="M155.4,65.53c.11.38.23.76.34,1.13l10-2.95c-.13-.44-.27-.89-.41-1.34Z"/></g></g></svg>