<svg xmlns="http://www.w3.org/2000/svg" viewBox="0 0 108.31 341.11"><defs><style>.cls-1{fill:none;stroke:#00b4eb;stroke-miterlimit:10;}.cls-2{fill:#00b4eb;}</style></defs><title>资源 1</title><g id="图层_2" data-name="图层 2"><g id="Layer_2" data-name="Layer 2"><path class="cls-1" d="M107.61,37.54q-2.16,2.18-4.2,4.36t-4,4.39q-1.92,2.19-3.75,4.4c-1.21,1.48-2.39,3-3.53,4.43s-2.26,3-3.34,4.43-2.12,3-3.14,4.44-2,3-3,4.45-1.89,3-2.78,4.44-1.77,3-2.61,4.45-1.66,3-2.45,4.43-1.55,3-2.29,4.44-1.45,3-2.13,4.42-1.36,2.94-2,4.41-1.26,2.94-1.85,4.4-1.17,2.93-1.72,4.39-1.08,2.93-1.59,4.38-1,2.92-1.47,4.37-.91,2.9-1.34,4.35-.84,2.9-1.23,4.35-.76,2.88-1.11,4.33-.69,2.88-1,4.31-.61,2.88-.89,4.31-.55,2.87-.79,4.3-.48,2.86-.69,4.29-.4,2.86-.58,4.28-.34,2.85-.48,4.28-.28,2.85-.39,4.27-.21,2.84-.29,4.26-.14,2.84-.19,4.26-.08,2.84-.09,4.26,0,2.84,0,4.26,0,2.84.09,4.26.11,2.84.19,4.26.18,2.85.29,4.27.24,2.84.39,4.27.3,2.85.48,4.27.37,2.86.58,4.28.44,2.86.69,4.29.51,2.87.79,4.3.57,2.87.89,4.31.65,2.88,1,4.32.72,2.88,1.11,4.33.8,2.89,1.23,4.34.87,2.9,1.34,4.36,1,2.9,1.47,4.36,1,2.92,1.59,4.38,1.12,2.93,1.72,4.39,1.21,2.93,1.85,4.4,1.31,2.94,2,4.42,1.4,2.94,2.13,4.42,1.5,3,2.29,4.43,1.61,3,2.45,4.44,1.71,3,2.61,4.44,1.82,3,2.78,4.45,1.94,3,3,4.44,2.06,3,3.14,4.44,2.19,3,3.34,4.44,2.32,2.95,3.53,4.42,2.47,2.94,3.75,4.41,2.61,2.93,4,4.39,2.76,2.91,4.2,4.35l-3.87,3.85L100.17,311l-3.34,3.31-3.17,3.15q-1.55,1.54-3.07,3.05l-3,3-3.07,3.05-3.17,3.15L78,333l-3.57,3.55-3.87,3.85c-1.43-1.45-2.84-2.9-4.21-4.35s-2.72-2.91-4-4.37-2.6-2.93-3.86-4.39-2.49-2.94-3.69-4.41-2.38-2.94-3.53-4.42-2.27-2.95-3.37-4.42-2.17-3-3.22-4.44-2.07-3-3.06-4.43-2-3-2.93-4.44-1.88-3-2.79-4.44-1.79-3-2.65-4.44-1.7-3-2.52-4.43-1.62-3-2.4-4.44-1.54-3-2.28-4.42-1.46-2.95-2.16-4.42-1.38-2.94-2-4.41-1.31-2.94-1.94-4.4-1.23-2.93-1.82-4.4-1.17-2.92-1.72-4.38-1.1-2.92-1.62-4.38-1-2.91-1.53-4.36-1-2.91-1.42-4.36-.9-2.9-1.33-4.35-.84-2.89-1.24-4.33-.78-2.89-1.15-4.33S7.3,227.56,7,226.12s-.66-2.88-1-4.31-.6-2.87-.89-4.3-.55-2.87-.81-4.3-.49-2.86-.72-4.29-.45-2.85-.65-4.28-.39-2.85-.57-4.27-.34-2.85-.49-4.27-.29-2.84-.41-4.27S1.2,189,1.1,187.57s-.19-2.84-.26-4.25-.14-2.84-.19-4.26-.09-2.84-.11-4.25,0-2.84,0-4.26,0-2.83,0-4.25.06-2.84.11-4.25.11-2.84.19-4.26S1,155,1.1,153.53s.21-2.84.34-4.26.26-2.84.41-4.26.31-2.85.49-4.27.37-2.85.57-4.28.42-2.85.65-4.28.47-2.86.72-4.29.53-2.86.81-4.29.58-2.87.89-4.3.64-2.88,1-4.31.69-2.88,1.06-4.32.75-2.89,1.15-4.33.81-2.89,1.24-4.34.87-2.9,1.33-4.35.93-2.9,1.42-4.35,1-2.91,1.53-4.37,1.06-2.91,1.62-4.37,1.13-2.93,1.72-4.39,1.2-2.93,1.82-4.39,1.27-2.94,1.94-4.41,1.34-2.93,2-4.41S25.25,64,26,62.55s1.5-2.95,2.28-4.43,1.58-2.95,2.4-4.43,1.66-3,2.52-4.43,1.75-3,2.65-4.44,1.84-3,2.79-4.44,1.93-3,2.93-4.44,2-3,3.06-4.44,2.12-3,3.22-4.43,2.22-2.95,3.37-4.43,2.32-2.95,3.53-4.42,2.43-2.94,3.69-4.4S61,10.89,62.29,9.43s2.66-2.92,4-4.37S69.11,2.15,70.54.71l3.87,3.84L78,8.1l3.34,3.32,3.17,3.15,3.07,3.05,3,3,3.07,3.05,3.17,3.15,3.34,3.32,3.57,3.54Z"/><path class="cls-2" d="M95.18,297.69l.4.46L92.28,301l-.41-.48Z"/><path class="cls-2" d="M82.1,280.9l.35.5-3.6,2.51-.35-.51Z"/><path class="cls-2" d="M93.58,295.83l.79.93-1.84,1.57-.8-.94Z"/><path class="cls-2" d="M92,294l.78.94-1.85,1.55-.79-.95Z"/><path class="cls-2" d="M90.46,292.06l.76.94-1.87,1.53-.78-.95Z"/><path class="cls-2" d="M88.94,290.15l.75,1-1.89,1.5-.77-1Z"/><path class="cls-2" d="M87.45,288.23c.29.39.44.58.74,1l-1.92,1.48-.75-1Z"/><path class="cls-2" d="M86,286.3c.28.39.43.58.72,1l-1.93,1.46-.74-1Z"/><path class="cls-2" d="M84.55,284.35l.71,1-2,1.44-.72-1Z"/><path class="cls-2" d="M83.14,282.39l.7,1-2,1.41-.71-1Z"/><path class="cls-2" d="M81.76,280.41c.14.2.2.3.34.49l-3.6,2.5-.35-.5C79.59,281.9,80.31,281.4,81.76,280.41Z"/><path class="cls-2" d="M70.84,262.58c.12.21.17.32.29.52l-3.86,2.1-.28-.53Z"/><path class="cls-2" d="M80.41,278.42c.26.4.4.6.67,1l-2,1.37c-.27-.41-.4-.61-.68-1Z"/><path class="cls-2" d="M79.08,276.42l.66,1-2,1.33-.67-1Z"/><path class="cls-2" d="M77.78,274.4l.65,1-2,1.31-.65-1Z"/><path class="cls-2" d="M76.51,272.38l.63,1-2,1.28c-.26-.41-.39-.61-.64-1Z"/><path class="cls-2" d="M75.27,270.34l.61,1-2.07,1.26-.62-1Z"/><path class="cls-2" d="M74.05,268.29l.6,1-2.08,1.23c-.25-.41-.37-.62-.61-1C72.79,269,73.21,268.77,74.05,268.29Z"/><path class="cls-2" d="M72.86,266.22c.23.42.35.62.59,1l-2.1,1.21-.6-1Z"/><path class="cls-2" d="M71.7,264.15l.57,1-2.11,1.19-.58-1.05Z"/><path class="cls-2" d="M70.56,262.06c.12.21.17.32.28.52L67,264.67c-.12-.22-.18-.32-.29-.54Z"/><path class="cls-2" d="M61.81,243.38l.22.55L58,245.59c-.09-.23-.14-.34-.23-.56Z"/><path class="cls-2" d="M69.46,260l.55,1-2.15,1.13-.55-1.06Z"/><path class="cls-2" d="M68.38,257.86l.53,1.05L66.76,260c-.22-.43-.33-.64-.54-1.07Z"/><path class="cls-2" d="M67.33,255.74c.2.43.31.64.52,1.06l-2.17,1.08-.53-1.07Z"/><path class="cls-2" d="M66.3,253.62l.51,1.06-2.18,1-.52-1.08Z"/><path class="cls-2" d="M65.3,251.48l.5,1.07-2.2,1-.5-1.08Z"/><path class="cls-2" d="M64.33,249.33l.48,1.08-2.2,1c-.2-.43-.3-.65-.49-1.08Z"/><path class="cls-2" d="M63.39,247.18l.47,1.07-2.22,1c-.19-.44-.29-.66-.47-1.09Z"/><path class="cls-2" d="M62.48,245l.45,1.08L60.7,247c-.19-.44-.28-.66-.46-1.1Z"/><path class="cls-2" d="M61.59,242.84c.09.22.13.33.22.54L57.74,245l-.22-.55Z"/><path class="cls-2" d="M55,223.49c.06.23.1.34.16.56l-4.22,1.21c-.06-.23-.09-.34-.16-.57Z"/><path class="cls-2" d="M60.73,240.66c.17.43.25.65.42,1.09l-2.25.89c-.17-.44-.26-.66-.43-1.11Z"/><path class="cls-2" d="M59.9,238.47c.16.44.24.66.41,1.09l-2.27.86c-.16-.44-.25-.66-.41-1.1Z"/><path class="cls-2" d="M59.09,236.27l.4,1.1-2.27.83c-.17-.44-.25-.66-.41-1.11Z"/><path class="cls-2" d="M58.31,234.07c.15.44.23.66.39,1.1l-2.29.8c-.15-.44-.23-.66-.39-1.11Z"/><path class="cls-2" d="M57.56,231.85c.15.45.22.67.37,1.11l-2.29.78-.38-1.12Z"/><path class="cls-2" d="M56.84,229.63c.14.45.21.67.36,1.11l-2.31.75c-.14-.44-.21-.67-.36-1.12Z"/><path class="cls-2" d="M56.14,227.41l.35,1.11-2.31.72c-.15-.45-.21-.67-.35-1.12Z"/><path class="cls-2" d="M55.47,225.17l.33,1.12-2.32.69-.33-1.12Z"/><path class="cls-2" d="M54.83,222.93c.07.23.1.34.16.56l-4.22,1.2c-.06-.23-.09-.34-.16-.57Z"/><path class="cls-2" d="M50.39,203.11l.1.57-4.32.75-.1-.59Z"/><path class="cls-2" d="M54.22,220.69l.3,1.12-2.33.64c-.13-.45-.19-.68-.31-1.14Z"/><path class="cls-2" d="M53.63,218.44c.12.45.18.67.29,1.12l-2.34.61c-.12-.45-.18-.68-.29-1.13Z"/><path class="cls-2" d="M53.07,216.18l.28,1.13-2.35.58c-.11-.46-.17-.68-.28-1.14Z"/><path class="cls-2" d="M52.54,213.92c.11.45.16.68.26,1.13l-2.35.55c-.11-.45-.16-.68-.27-1.14Z"/><path class="cls-2" d="M52,211.65l.25,1.13-2.37.53-.25-1.15Z"/><path class="cls-2" d="M51.56,209.38c.1.45.14.68.24,1.13l-2.37.5c-.1-.46-.15-.69-.24-1.15Z"/><path class="cls-2" d="M51.11,207.1l.22,1.14-2.37.47c-.09-.46-.14-.69-.22-1.15Z"/><path class="cls-2" d="M50.69,204.82c.08.46.12.68.21,1.14l-2.38.44c-.09-.46-.13-.69-.21-1.15Z"/><path class="cls-2" d="M50.3,202.54c0,.22.05.34.09.57l-4.32.73-.1-.58Z"/><path class="cls-2" d="M48,182.42c0,.23,0,.34,0,.57l-4.37.29c0-.24,0-.36,0-.59Z"/><path class="cls-2" d="M49.93,200.25c.07.46.11.68.18,1.14l-2.39.39c-.07-.47-.11-.7-.18-1.16Z"/><path class="cls-2" d="M49.59,198c.07.45.1.68.17,1.14l-2.4.36c-.07-.47-.1-.7-.17-1.16Z"/><path class="cls-2" d="M49.28,195.66l.15,1.15-2.4.33L46.88,196Z"/><path class="cls-2" d="M49,193.36c.06.46.09.69.14,1.15l-2.4.3c-.06-.46-.09-.7-.14-1.16Z"/><path class="cls-2" d="M48.74,191.06c0,.46.07.69.12,1.15l-2.4.27c-.06-.46-.08-.69-.13-1.16Z"/><path class="cls-2" d="M48.51,188.76c0,.46.06.69.11,1.15l-2.41.24c-.05-.46-.07-.7-.11-1.16Z"/><path class="cls-2" d="M48.31,186.46c0,.46,0,.69.09,1.15l-2.41.21-.1-1.16Z"/><path class="cls-2" d="M48.13,184.15c0,.46,0,.69.08,1.15l-2.41.19c0-.47,0-.7-.09-1.17Z"/><path class="cls-2" d="M48,181.84c0,.23,0,.35,0,.58l-4.38.27c0-.24,0-.36,0-.59Z"/><path class="cls-2" d="M47.86,161.62c0,.23,0,.34,0,.58L43.45,162c0-.24,0-.36,0-.59Z"/><path class="cls-2" d="M47.86,179.53c0,.46,0,.69.06,1.16l-2.42.12c0-.46,0-.7-.06-1.17Z"/><path class="cls-2" d="M47.77,177.22c0,.46,0,.69,0,1.16l-2.42.09c0-.46,0-.7,0-1.16Z"/><path class="cls-2" d="M47.7,174.91c0,.46,0,.69,0,1.15l-2.42.07c0-.46,0-.7,0-1.16Z"/><path class="cls-2" d="M47.67,172.6c0,.46,0,.69,0,1.15l-2.42,0c0-.46,0-.7,0-1.16Z"/><path class="cls-2" d="M47.66,170.29c0,.46,0,.69,0,1.15H45.24c0-.47,0-.7,0-1.17Z"/><path class="cls-2" d="M47.67,168c0,.46,0,.69,0,1.15l-2.42,0c0-.47,0-.7,0-1.17Z"/><path class="cls-2" d="M47.72,165.66c0,.47,0,.7,0,1.16l-2.42,0c0-.47,0-.7,0-1.17Z"/><path class="cls-2" d="M47.79,163.35c0,.46,0,.69,0,1.16l-2.42-.08c0-.47,0-.7,0-1.17Z"/><path class="cls-2" d="M47.89,161c0,.23,0,.35,0,.58l-4.38-.2c0-.24,0-.36,0-.59Z"/><path class="cls-2" d="M49.92,140.9c0,.23-.05.35-.08.57l-4.34-.65c0-.24.06-.35.09-.59Z"/><path class="cls-2" d="M48,158.73c0,.46,0,.69-.06,1.16l-2.42-.14c0-.46,0-.7.07-1.16Z"/><path class="cls-2" d="M48.17,156.43c0,.46-.05.69-.08,1.15l-2.42-.16c0-.47,0-.7.08-1.17Z"/><path class="cls-2" d="M48.35,154.12c0,.46-.06.69-.09,1.15l-2.42-.19.1-1.17Z"/><path class="cls-2" d="M48.56,151.82c-.05.46-.07.69-.11,1.14L46,152.75c0-.47.06-.7.11-1.17Z"/><path class="cls-2" d="M48.79,149.51c0,.46-.07.69-.12,1.15l-2.41-.25c.05-.46.08-.69.13-1.16Z"/><path class="cls-2" d="M49.06,147.21c-.06.46-.08.69-.14,1.15l-2.4-.28c0-.46.08-.69.13-1.16Z"/><path class="cls-2" d="M49.35,144.92l-.15,1.14-2.4-.3L47,144.6Z"/><path class="cls-2" d="M49.67,142.62c-.07.46-.1.69-.17,1.15l-2.39-.34c.06-.46.09-.69.16-1.16Z"/><path class="cls-2" d="M50,140.33c0,.23,0,.34-.09.57l-4.33-.67c0-.23.06-.35.09-.58Z"/><path class="cls-2" d="M54.21,120.46l-.15.56-4.24-1.12.15-.57Z"/><path class="cls-2" d="M50.39,138c-.08.46-.12.69-.19,1.15l-2.39-.4c.07-.46.11-.69.19-1.15Z"/><path class="cls-2" d="M50.79,135.76c-.09.46-.13.68-.21,1.14l-2.38-.42.2-1.15Z"/><path class="cls-2" d="M51.21,133.48c-.08.46-.13.68-.21,1.14l-2.38-.45c.08-.46.13-.69.22-1.15Z"/><path class="cls-2" d="M51.67,131.21l-.23,1.13-2.37-.48c.09-.46.13-.69.23-1.15Z"/><path class="cls-2" d="M52.15,128.93c-.1.46-.15.68-.24,1.14l-2.37-.51.25-1.15Z"/><path class="cls-2" d="M52.66,126.67c-.1.45-.15.68-.26,1.13L50,127.26c.11-.45.16-.68.26-1.14Z"/><path class="cls-2" d="M53.2,124.41l-.27,1.12L50.57,125c.11-.45.17-.68.28-1.14Z"/><path class="cls-2" d="M53.77,122.15c-.12.45-.18.68-.29,1.13l-2.35-.59c.12-.46.17-.69.29-1.14Z"/><path class="cls-2" d="M54.36,119.9l-.15.56L50,119.33c.06-.23.09-.34.16-.57Z"/><path class="cls-2" d="M60.71,100.49c-.08.22-.13.33-.21.55l-4.09-1.58c.08-.22.13-.33.21-.55Z"/><path class="cls-2" d="M55,117.66c-.13.44-.19.67-.32,1.12l-2.33-.65.32-1.13Z"/><path class="cls-2" d="M55.62,115.42l-.32,1.12L53,115.86l.33-1.13Z"/><path class="cls-2" d="M56.3,113.19c-.14.44-.21.66-.34,1.11l-2.32-.7.35-1.13Z"/><path class="cls-2" d="M57,111l-.35,1.11-2.31-.73c.14-.45.21-.67.36-1.12Z"/><path class="cls-2" d="M57.73,108.74c-.15.45-.22.67-.37,1.11l-2.3-.76.38-1.12Z"/><path class="cls-2" d="M58.49,106.53c-.16.44-.23.66-.38,1.11l-2.29-.79.38-1.12Z"/><path class="cls-2" d="M59.27,104.33c-.16.44-.24.66-.39,1.1l-2.28-.82.4-1.11Z"/><path class="cls-2" d="M60.08,102.13l-.4,1.1-2.28-.84.42-1.11Z"/><path class="cls-2" d="M60.92,100c-.08.21-.12.32-.21.54l-4.09-1.58.22-.56Z"/><path class="cls-2" d="M69.44,81.18l-.28.52-3.89-2,.27-.53Z"/><path class="cls-2" d="M61.79,97.77c-.18.43-.26.65-.44,1.08L59.1,98l.45-1.1Z"/><path class="cls-2" d="M62.68,95.59l-.45,1.09L60,95.75l.45-1.09Z"/><path class="cls-2" d="M63.61,93.43l-.47,1.08-2.23-1c.19-.44.28-.66.47-1.09Z"/><path class="cls-2" d="M64.55,91.28l-.47,1.07-2.22-1,.48-1.09Z"/><path class="cls-2" d="M65.53,89.13,65,90.2l-2.2-1c.19-.43.29-.65.49-1.08Z"/><path class="cls-2" d="M66.53,87,66,88.06c-.88-.41-1.32-.61-2.19-1,.2-.43.3-.64.51-1.07Z"/><path class="cls-2" d="M67.56,84.88l-.51,1.05-2.18-1.05.52-1.08Z"/><path class="cls-2" d="M68.62,82.76l-.53,1-2.16-1.08.53-1.07Z"/><path class="cls-2" d="M69.71,80.66c-.11.21-.17.31-.27.52l-3.9-2c.12-.22.17-.32.28-.54Z"/><path class="cls-2" d="M80.38,62.72l-.33.5L76.4,60.79l.34-.5Z"/><path class="cls-2" d="M70.82,78.56c-.22.42-.33.63-.56,1l-2.14-1.14.57-1.06Z"/><path class="cls-2" d="M72,76.48l-.57,1-2.12-1.16c.23-.43.34-.64.58-1.06Z"/><path class="cls-2" d="M73.13,74.41l-.59,1-2.11-1.19.6-1Z"/><path class="cls-2" d="M74.33,72.35c-.25.41-.37.61-.6,1l-2.1-1.21c.24-.42.36-.62.61-1Z"/><path class="cls-2" d="M75.55,70.3l-.61,1-2.08-1.24c.24-.41.37-.62.62-1Z"/><path class="cls-2" d="M76.8,68.26l-.63,1L74.11,68c.25-.41.38-.61.63-1Z"/><path class="cls-2" d="M78.08,66.24c-.26.4-.39.6-.64,1l-2-1.29c.26-.41.38-.62.65-1Z"/><path class="cls-2" d="M79.38,64.23l-.65,1-2-1.32.67-1Z"/><path class="cls-2" d="M80.71,62.23l-.33.49-3.64-2.43c.13-.21.2-.31.34-.51Z"/><path class="cls-2" d="M93.54,45.32l-.39.46L89.79,43l.41-.48Z"/><path class="cls-2" d="M82.07,60.24l-.68,1-2-1.37.69-1Z"/><path class="cls-2" d="M83.46,58.27l-.69,1-2-1.39c.28-.4.42-.6.71-1Z"/><path class="cls-2" d="M84.88,56.31l-.71,1-2-1.41.72-1Z"/><path class="cls-2" d="M86.32,54.36c-.29.39-.44.58-.72,1l-1.95-1.44.73-1Z"/><path class="cls-2" d="M87.79,52.43l-.74,1-1.93-1.46.75-1Z"/><path class="cls-2" d="M89.29,50.51l-.76,1L86.62,50l.76-1Z"/><path class="cls-2" d="M90.81,48.61l-.76,1-1.9-1.51.78-1Z"/><path class="cls-2" d="M92.36,46.72l-.78.94-1.87-1.53.79-1Z"/><path class="cls-2" d="M61,18.71c.19-.23.28-.35.48-.57L64.79,21l-.47.56Z"/><path class="cls-2" d="M45.43,39.32l.4-.6,3.64,2.45-.4.59Z"/><path class="cls-2" d="M59.06,21,60,19.85l1.86,1.55-.94,1.13Z"/><path class="cls-2" d="M57.19,23.3l.93-1.15L60,23.67l-.92,1.14Z"/><path class="cls-2" d="M55.35,25.63l.91-1.17,1.9,1.5-.9,1.15Z"/><path class="cls-2" d="M53.55,28c.35-.47.53-.71.89-1.17l1.92,1.47-.89,1.16Z"/><path class="cls-2" d="M51.77,30.33c.35-.48.53-.71.88-1.18l1.94,1.45-.87,1.17Z"/><path class="cls-2" d="M50,32.7l.87-1.18,2,1.42L52,34.12Z"/><path class="cls-2" d="M48.33,35.1l.85-1.2,2,1.4-.84,1.19Z"/><path class="cls-2" d="M46.66,37.51c.33-.49.49-.73.83-1.21l2,1.38c-.33.48-.5.71-.82,1.19Z"/><path class="cls-2" d="M45,39.93l.41-.61,3.64,2.44-.4.6Z"/><path class="cls-2" d="M32.11,61.79l.33-.64,3.88,2-.32.63Z"/><path class="cls-2" d="M43.41,42.37l.8-1.22,2,1.33c-.32.48-.48.72-.79,1.21Z"/><path class="cls-2" d="M41.84,44.83l.78-1.23,2,1.3-.77,1.22Z"/><path class="cls-2" d="M40.3,47.3l.77-1.24,2,1.28-.75,1.22Z"/><path class="cls-2" d="M38.8,49.78l.75-1.24,2.07,1.26c-.3.49-.45.73-.74,1.22Z"/><path class="cls-2" d="M37.33,52.29c.29-.51.43-.76.73-1.25l2.09,1.22-.73,1.24Z"/><path class="cls-2" d="M35.89,54.8c.28-.5.43-.75.71-1.26l2.11,1.2c-.29.5-.43.75-.71,1.25Z"/><path class="cls-2" d="M34.48,57.33l.7-1.27,2.12,1.18c-.28.5-.42.75-.69,1.25Z"/><path class="cls-2" d="M33.11,59.87l.68-1.27,2.14,1.15c-.28.5-.41.75-.68,1.26Z"/><path class="cls-2" d="M31.78,62.42c.13-.25.19-.38.33-.63l3.89,2-.33.62Z"/><path class="cls-2" d="M21.49,85.29c.1-.27.15-.4.26-.67l4.08,1.6-.25.65Z"/><path class="cls-2" d="M30.47,65l.65-1.28,2.16,1.1c-.26.5-.39.76-.64,1.26Z"/><path class="cls-2" d="M29.2,67.57l.63-1.29L32,67.35l-.62,1.28Z"/><path class="cls-2" d="M28,70.16c.24-.52.37-.78.61-1.29l2.19,1-.61,1.28Z"/><path class="cls-2" d="M26.76,72.77c.23-.52.35-.78.59-1.3l2.2,1c-.24.52-.36.77-.59,1.29Z"/><path class="cls-2" d="M25.58,75.38c.24-.52.35-.78.58-1.3l2.22,1c-.24.51-.35.77-.58,1.29Z"/><path class="cls-2" d="M24.45,78c.22-.53.33-.79.56-1.31l2.22,1c-.22.52-.33.78-.56,1.3Z"/><path class="cls-2" d="M23.34,80.64l.55-1.31,2.23.93c-.22.52-.32.79-.54,1.31Z"/><path class="cls-2" d="M22.27,83.29,22.8,82l2.25.91c-.22.52-.32.78-.53,1.31Z"/><path class="cls-2" d="M21.23,86c.1-.27.16-.4.26-.66l4.09,1.58-.25.65Z"/><path class="cls-2" d="M13.57,109.59c.08-.27.11-.41.19-.68L18,110.06l-.18.67Z"/><path class="cls-2" d="M20.23,88.62c.2-.54.29-.8.5-1.33l2.26.85c-.2.53-.3.79-.49,1.32Z"/><path class="cls-2" d="M19.26,91.29c.19-.53.28-.8.48-1.33l2.27.83c-.19.52-.28.79-.47,1.32Z"/><path class="cls-2" d="M18.32,94c.18-.54.28-.8.46-1.34l2.29.8c-.19.53-.28.8-.46,1.33Z"/><path class="cls-2" d="M17.41,96.68l.45-1.35,2.3.77-.45,1.33Z"/><path class="cls-2" d="M16.54,99.38,17,98l2.31.74c-.17.54-.26.81-.43,1.34Z"/><path class="cls-2" d="M15.71,102.09c.16-.54.24-.81.41-1.35l2.31.71c-.16.54-.24.81-.41,1.34Z"/><path class="cls-2" d="M14.9,104.81l.4-1.36,2.32.69c-.16.54-.24.81-.39,1.35Z"/><path class="cls-2" d="M14.13,107.54c.15-.55.23-.82.38-1.36l2.33.66-.38,1.35Z"/><path class="cls-2" d="M13.39,110.27l.18-.68,4.24,1.14-.18.67Z"/><path class="cls-2" d="M8.36,134.47c0-.28.06-.42.11-.7l4.33.69c0,.27-.07.41-.11.68Z"/><path class="cls-2" d="M12.69,113c.14-.55.2-.83.35-1.37l2.34.6c-.14.54-.21.81-.34,1.36Z"/><path class="cls-2" d="M12,115.76c.13-.54.19-.82.33-1.37l2.35.58c-.13.54-.2.81-.33,1.36Z"/><path class="cls-2" d="M11.38,118.52c.12-.55.19-.83.31-1.38l2.36.55c-.12.55-.19.82-.31,1.36Z"/><path class="cls-2" d="M10.78,121.28c.11-.55.17-.83.29-1.38l2.37.52-.3,1.37Z"/><path class="cls-2" d="M10.2,124.05c.11-.56.17-.83.28-1.38l2.38.49c-.12.54-.17.82-.28,1.36Z"/><path class="cls-2" d="M9.67,126.82c.1-.55.15-.83.26-1.38l2.38.46c-.11.55-.16.82-.26,1.37Z"/><path class="cls-2" d="M9.16,129.6l.25-1.39,2.38.43c-.1.55-.15.83-.24,1.38Z"/><path class="cls-2" d="M8.69,132.38c.09-.56.14-.84.23-1.39l2.39.41c-.09.54-.14.82-.23,1.37Z"/><path class="cls-2" d="M8.25,135.16c.05-.27.07-.41.11-.69l4.33.67-.1.68Z"/><path class="cls-2" d="M5.85,159.68c0-.28,0-.42,0-.7l4.38.21c0,.28,0,.42,0,.69Z"/><path class="cls-2" d="M7.85,138l.2-1.39,2.39.35c-.08.55-.12.83-.19,1.38Z"/><path class="cls-2" d="M7.48,140.75c.07-.56.11-.84.18-1.4l2.4.32c-.07.56-.11.83-.18,1.38Z"/><path class="cls-2" d="M7.14,143.54c.07-.55.1-.83.17-1.39l2.4.29c-.07.55-.1.83-.16,1.38Z"/><path class="cls-2" d="M6.84,146.34c0-.55.08-.83.15-1.39l2.4.26c-.06.55-.09.83-.14,1.38Z"/><path class="cls-2" d="M6.57,149.15c0-.56.07-.84.13-1.4l2.41.23c-.06.56-.08.83-.13,1.39Z"/><path class="cls-2" d="M6.33,152c0-.56.07-.84.11-1.4l2.42.21c0,.55-.07.83-.12,1.38Z"/><path class="cls-2" d="M6.13,154.76c0-.56,0-.84.09-1.4l2.42.18-.1,1.38Z"/><path class="cls-2" d="M6,157.57c0-.56,0-.84.09-1.4l2.41.15c0,.55,0,.83-.08,1.38Z"/><path class="cls-2" d="M5.82,160.38c0-.28,0-.42,0-.7l4.38.2c0,.28,0,.42,0,.69Z"/><path class="cls-2" d="M6,185c0-.28,0-.42,0-.7l4.37-.25c0,.27,0,.41,0,.68Z"/><path class="cls-2" d="M5.71,163.19l0-1.4,2.42.09,0,1.39Z"/><path class="cls-2" d="M5.64,166c0-.57,0-.85,0-1.41l2.42.06c0,.56,0,.84,0,1.39Z"/><path class="cls-2" d="M5.61,168.82c0-.56,0-.84,0-1.4l2.42,0c0,.55,0,.83,0,1.39Z"/><path class="cls-2" d="M5.6,171.63v-1.4H8v1.39Z"/><path class="cls-2" d="M5.63,174.45c0-.56,0-.85,0-1.41L8,173c0,.55,0,.83,0,1.39Z"/><path class="cls-2" d="M5.69,177.26c0-.56,0-.84,0-1.4l2.42-.06c0,.56,0,.84,0,1.39Z"/><path class="cls-2" d="M5.79,180.07l0-1.4,2.42-.08L8.21,180Z"/><path class="cls-2" d="M5.92,182.88c0-.56,0-.84-.07-1.4l2.42-.11c0,.55,0,.83.07,1.39Z"/><path class="cls-2" d="M6.08,185.69c0-.28,0-.42,0-.7l4.37-.27.05.69Z"/><path class="cls-2" d="M8.93,210.17c0-.28-.07-.41-.11-.69l4.32-.73c0,.28.07.41.11.69Z"/><path class="cls-2" d="M6.28,188.5l-.1-1.4,2.41-.17.1,1.39Z"/><path class="cls-2" d="M6.51,191.31c0-.56-.07-.84-.12-1.4l2.41-.2c0,.55.07.83.12,1.38Z"/><path class="cls-2" d="M6.77,194.11c0-.56-.08-.84-.13-1.4l2.41-.22c0,.55.08.83.13,1.38Z"/><path class="cls-2" d="M7.07,196.91l-.15-1.39,2.4-.26.15,1.38Z"/><path class="cls-2" d="M7.4,199.71c-.07-.56-.1-.84-.17-1.4l2.4-.28c.07.55.1.83.17,1.38Z"/><path class="cls-2" d="M7.76,202.5c-.07-.55-.11-.83-.18-1.39l2.4-.31c.07.55.1.83.18,1.38Z"/><path class="cls-2" d="M8.16,205.3c-.09-.56-.13-.84-.2-1.4l2.39-.34.2,1.38Z"/><path class="cls-2" d="M8.59,208.08c-.09-.55-.14-.83-.22-1.39l2.39-.37c.09.55.13.83.22,1.38Z"/><path class="cls-2" d="M9.05,210.87c-.05-.28-.07-.42-.12-.7l4.32-.73c.05.27.07.4.12.68Z"/><path class="cls-2" d="M14.53,235l-.2-.68,4.23-1.18.18.66Z"/><path class="cls-2" d="M9.55,213.64c-.11-.55-.16-.83-.26-1.38l2.39-.43.25,1.37Z"/><path class="cls-2" d="M10.08,216.42c-.11-.56-.17-.83-.27-1.39l2.38-.45c.1.54.15.82.26,1.37Z"/><path class="cls-2" d="M10.64,219.18c-.12-.55-.17-.82-.29-1.38l2.38-.48c.11.55.16.82.28,1.36Z"/><path class="cls-2" d="M11.24,222c-.13-.55-.19-.83-.31-1.38l2.37-.51.3,1.36Z"/><path class="cls-2" d="M11.87,224.7c-.13-.55-.2-.82-.32-1.37l2.36-.54c.12.54.19.81.31,1.36Z"/><path class="cls-2" d="M12.53,227.45c-.14-.55-.2-.82-.34-1.37l2.36-.57.33,1.36Z"/><path class="cls-2" d="M13.23,230.2c-.15-.55-.22-.82-.36-1.37l2.35-.6.35,1.35Z"/><path class="cls-2" d="M14,232.93c-.15-.54-.23-.82-.37-1.36l2.34-.63c.14.54.21.81.36,1.35Z"/><path class="cls-2" d="M14.72,235.66c-.08-.27-.12-.41-.19-.68l4.21-1.2c.08.27.12.4.19.67Z"/><path class="cls-2" d="M22.82,259.19c-.1-.27-.16-.4-.26-.66l4.06-1.64.27.65Z"/><path class="cls-2" d="M15.52,238.38c-.17-.54-.25-.81-.41-1.35l2.33-.69c.16.54.23.81.4,1.35Z"/><path class="cls-2" d="M16.35,241.1c-.17-.54-.26-.81-.42-1.36l2.31-.71c.17.54.25.81.42,1.34Z"/><path class="cls-2" d="M17.21,243.8c-.18-.54-.26-.81-.44-1.35l2.31-.73.43,1.33Z"/><path class="cls-2" d="M18.11,246.5c-.19-.54-.28-.81-.46-1.34l2.3-.77.45,1.33Z"/><path class="cls-2" d="M19,249.19c-.19-.54-.29-.8-.47-1.34l2.29-.79c.18.53.27.79.46,1.32Z"/><path class="cls-2" d="M20,251.87c-.2-.54-.29-.8-.48-1.34l2.27-.82.48,1.32Z"/><path class="cls-2" d="M21,254.54c-.21-.53-.31-.8-.5-1.33l2.26-.85.5,1.32Z"/><path class="cls-2" d="M22,257.2c-.21-.53-.32-.8-.52-1.33l2.26-.87.51,1.31Z"/><path class="cls-2" d="M23.09,259.85l-.27-.66,4.07-1.65c.1.26.15.39.26.65Z"/><path class="cls-2" d="M33.82,282.56l-.34-.64,3.87-2.07.33.62Z"/><path class="cls-2" d="M24.19,262.49l-.55-1.32,2.23-.93.55,1.3Z"/><path class="cls-2" d="M25.32,265.12l-.57-1.31,2.22-1,.57,1.3Z"/><path class="cls-2" d="M26.48,267.73l-.58-1.3,2.21-1,.58,1.29Z"/><path class="cls-2" d="M27.68,270.34l-.6-1.3,2.2-1c.23.52.35.77.59,1.29Z"/><path class="cls-2" d="M28.91,272.94l-.62-1.3,2.19-1c.24.52.36.77.61,1.28Z"/><path class="cls-2" d="M30.17,275.52l-.63-1.29,2.17-1.06.63,1.27Z"/><path class="cls-2" d="M31.47,278.09l-.65-1.28L33,275.72l.65,1.26Z"/><path class="cls-2" d="M32.8,280.65l-.67-1.28,2.15-1.12.66,1.27Z"/><path class="cls-2" d="M34.16,283.19l-.34-.63,3.86-2.09.34.63Z"/><path class="cls-2" d="M47.52,304.85l-.42-.6,3.62-2.48.41.59C49.68,303.35,49,303.85,47.52,304.85Z"/><path class="cls-2" d="M35.56,285.72l-.7-1.26L37,283.29c.28.5.42.75.69,1.25Z"/><path class="cls-2" d="M37,288.24,36.27,287l2.11-1.19c.28.5.42.74.71,1.24Z"/><path class="cls-2" d="M38.46,290.74c-.3-.5-.45-.75-.74-1.25.84-.48,1.26-.73,2.09-1.22l.73,1.24Z"/><path class="cls-2" d="M40,293.23,39.2,292l2.08-1.25c.29.5.44.74.74,1.23Z"/><path class="cls-2" d="M41.48,295.71c-.31-.5-.46-.74-.76-1.24l2.06-1.27.76,1.22Z"/><path class="cls-2" d="M43.05,298.17l-.79-1.23,2.05-1.3.77,1.22Z"/><path class="cls-2" d="M44.64,300.61l-.8-1.22,2-1.32c.32.48.48.72.79,1.21Z"/><path class="cls-2" d="M46.28,303l-.82-1.21,2-1.35.81,1.2Z"/><path class="cls-2" d="M47.94,305.45l-.42-.6c1.44-1,2.16-1.5,3.61-2.49.16.23.24.35.41.58Z"/><path class="cls-2" d="M63.92,325.84c-.19-.23-.29-.34-.49-.56l3.31-2.88.48.55Z"/><path class="cls-2" d="M49.64,307.85l-.85-1.19,2-1.4.85,1.18Z"/><path class="cls-2" d="M51.37,310.23c-.35-.47-.53-.71-.87-1.19l2-1.42c.34.47.51.71.86,1.18Z"/><path class="cls-2" d="M53.13,312.59l-.88-1.17L54.19,310l.87,1.16Z"/><path class="cls-2" d="M54.93,314.94l-.9-1.17L56,312.3c.36.46.54.69.89,1.16Z"/><path class="cls-2" d="M56.76,317.27l-.92-1.16,1.91-1.5.91,1.15Z"/><path class="cls-2" d="M58.62,319.58l-.93-1.15,1.89-1.52c.36.46.55.68.92,1.14Z"/><path class="cls-2" d="M60.52,321.87l-1-1.14,1.87-1.54.94,1.13Z"/><path class="cls-2" d="M62.45,324.14l-1-1.13,1.85-1.56,1,1.12Z"/></g></g></svg>