<svg xmlns="http://www.w3.org/2000/svg" viewBox="0 0 69.21 37.84"><defs><style>.cls-1,.cls-2{fill:#00b8de;}.cls-2{fill-rule:evenodd;}.cls-3{fill:#ff7000;}</style></defs><title>资源 2</title><g id="图层_2" data-name="图层 2"><g id="Layer_1" data-name="Layer 1"><rect class="cls-1" x="3.5" width="0.13" height="37.84"/><rect class="cls-1" x="7.94" width="0.13" height="37.84"/><rect class="cls-1" x="12.38" width="0.13" height="37.84"/><rect class="cls-1" x="16.81" width="0.13" height="37.84"/><rect class="cls-1" x="21.25" width="0.13" height="37.84"/><rect class="cls-1" x="25.68" width="0.13" height="37.84"/><rect class="cls-1" x="30.12" width="0.13" height="37.84"/><rect class="cls-1" x="34.55" width="0.13" height="37.84"/><rect class="cls-1" x="38.99" width="0.13" height="37.84"/><rect class="cls-1" x="43.42" width="0.13" height="37.84"/><rect class="cls-1" x="47.86" width="0.13" height="37.84"/><rect class="cls-1" x="52.29" width="0.13" height="37.84"/><rect class="cls-1" x="56.73" width="0.11" height="37.84"/><rect class="cls-1" x="61.16" width="0.11" height="37.84"/><rect class="cls-1" x="65.6" width="0.11" height="37.84"/><rect class="cls-1" y="1.13" width="69.21" height="0.11"/><rect class="cls-1" y="5.55" width="69.21" height="0.13"/><rect class="cls-1" y="9.98" width="69.21" height="0.13"/><rect class="cls-1" y="14.42" width="69.21" height="0.13"/><rect class="cls-1" y="18.85" width="69.21" height="0.13"/><rect class="cls-1" y="23.29" width="69.21" height="0.13"/><rect class="cls-1" y="27.72" width="69.21" height="0.13"/><rect class="cls-1" y="32.16" width="69.21" height="0.13"/><rect class="cls-1" y="36.6" width="69.21" height="0.13"/><path class="cls-2" d="M56.78,4.69a.88.88,0,1,1-.87.88A.87.87,0,0,1,56.78,4.69Z"/><path class="cls-1" d="M56.78,2.92h0v0a2.63,2.63,0,0,1,1.61.55l-.13.11a2.44,2.44,0,0,0-1.48-.5h0a2.5,2.5,0,0,0-1.49.5l-.13-.11a2.6,2.6,0,0,1,1.62-.55v0Zm-2,1.15a2.51,2.51,0,0,0-.51,1.5h0a2.5,2.5,0,0,0,.51,1.49l-.13.11a2.6,2.6,0,0,1-.55-1.6h0A2.63,2.63,0,0,1,54.68,4l.13.11Zm4-.11a2.57,2.57,0,0,1,.55,1.61h0a2.54,2.54,0,0,1-.55,1.6l-.11-.11a2.5,2.5,0,0,0,.5-1.49h0a2.5,2.5,0,0,0-.5-1.5L58.86,4Zm-.47,3.71a2.83,2.83,0,0,1-1.61.54h0a2.79,2.79,0,0,1-1.62-.54l.13-.13A2.49,2.49,0,0,0,56.78,8h0a2.44,2.44,0,0,0,1.48-.49Z"/><path class="cls-1" d="M58.08,4.67a1.66,1.66,0,0,1,.27.9,1.52,1.52,0,0,1-.46,1.11h0a1.57,1.57,0,0,1-1.11.47h0a1.5,1.5,0,0,1-.91-.29l.25-.24a1.21,1.21,0,0,0,.66.19h0a1.19,1.19,0,0,0,.88-.37h0A1.26,1.26,0,0,0,58,5.57a1.42,1.42,0,0,0-.18-.66l.24-.24ZM55.47,6.46l.25-.24a1.3,1.3,0,0,1-.2-.65h0a1.27,1.27,0,0,1,.37-.88h0a1.22,1.22,0,0,1,.89-.36h0a1.11,1.11,0,0,1,.64.18l.26-.24a1.53,1.53,0,0,0-.9-.29h0a1.58,1.58,0,0,0-1.13.47h0a1.57,1.57,0,0,0-.46,1.12h0A1.61,1.61,0,0,0,55.47,6.46Z"/><path class="cls-2" d="M16.9,13.12a1.32,1.32,0,1,1-1.32,1.32A1.32,1.32,0,0,1,16.9,13.12Z"/><path class="cls-3" d="M16.9,10.46h0v0a4,4,0,0,1,2.42.83l-.2.16a3.7,3.7,0,0,0-2.22-.74h0a3.84,3.84,0,0,0-2.26.74l-.19-.16a4,4,0,0,1,2.45-.83v0Zm-3,1.73a3.75,3.75,0,0,0-.77,2.25h0a3.75,3.75,0,0,0,.77,2.25l-.19.17a3.91,3.91,0,0,1-.83-2.42h0A3.91,3.91,0,0,1,13.74,12l.19.17ZM20,12a3.91,3.91,0,0,1,.82,2.42h0A3.91,3.91,0,0,1,20,16.86l-.16-.17a3.79,3.79,0,0,0,.74-2.25h0a3.79,3.79,0,0,0-.74-2.25L20,12Zm-.71,5.58a4.19,4.19,0,0,1-2.42.82h0a4.19,4.19,0,0,1-2.45-.82l.19-.19a3.84,3.84,0,0,0,2.26.74h0a3.7,3.7,0,0,0,2.22-.74Z"/><path class="cls-3" d="M18.85,13.09a2.48,2.48,0,0,1,.41,1.35,2.36,2.36,0,0,1-.69,1.68h0a2.38,2.38,0,0,1-1.67.71h0a2.31,2.31,0,0,1-1.38-.44l.39-.36a1.73,1.73,0,0,0,1,.28h0a1.81,1.81,0,0,0,1.32-.55h0a1.93,1.93,0,0,0,.55-1.32,2.09,2.09,0,0,0-.28-1l.36-.36Zm-3.93,2.7.38-.36a1.91,1.91,0,0,1-.3-1h0a1.93,1.93,0,0,1,.55-1.32h0a1.87,1.87,0,0,1,1.35-.55h0a1.71,1.71,0,0,1,1,.28l.38-.36a2.24,2.24,0,0,0-1.34-.44h0a2.4,2.4,0,0,0-1.7.71h0a2.36,2.36,0,0,0-.69,1.68h0A2.4,2.4,0,0,0,14.92,15.79Z"/><path class="cls-2" d="M8,31.58a.63.63,0,1,1-.62.63A.63.63,0,0,1,8,31.58Z"/><path class="cls-1" d="M8.93,31.56a1.1,1.1,0,0,1,.19.65A1.11,1.11,0,0,1,8.8,33v0h0a1.13,1.13,0,0,1-.81.33H8a1.2,1.2,0,0,1-.63-.2L7.52,33a.9.9,0,0,0,.47.13H8a.84.84,0,0,0,.64-.26h0a.87.87,0,0,0,.26-.62.9.9,0,0,0-.13-.47l.17-.18ZM7.06,32.85l.19-.18a.81.81,0,0,1-.15-.46h0a.88.88,0,0,1,.27-.63h0A.82.82,0,0,1,8,31.32H8a.91.91,0,0,1,.48.13l.16-.18A1.09,1.09,0,0,0,8,31.06H8a1.07,1.07,0,0,0-.8.35h0a1.13,1.13,0,0,0-.33.8h0A1.27,1.27,0,0,0,7.06,32.85Z"/><path class="cls-2" d="M48,22.69a.63.63,0,1,1-.62.64A.63.63,0,0,1,48,22.69Z"/><path class="cls-3" d="M48.9,22.67a1.05,1.05,0,0,1,.2.66,1.12,1.12,0,0,1-.33.78v0h0a1.13,1.13,0,0,1-.8.33h0a1.21,1.21,0,0,1-.64-.2l.17-.19a.88.88,0,0,0,.47.13h0a.87.87,0,0,0,.64-.25h0a1,1,0,0,0,.26-.62.91.91,0,0,0-.13-.48l.16-.18ZM47,24l.18-.18a.88.88,0,0,1-.14-.45h0a.89.89,0,0,1,.27-.64h0a.8.8,0,0,1,.62-.26h0a.94.94,0,0,1,.48.13l.16-.18a1.08,1.08,0,0,0-.64-.2h0a1.1,1.1,0,0,0-.8.34h0a1.13,1.13,0,0,0-.33.81h0A1.17,1.17,0,0,0,47,24Z"/></g></g></svg>