<svg xmlns="http://www.w3.org/2000/svg" viewBox="0 0 227.3 246"><defs><style>.cls-1,.cls-2{fill:#1d71b8;}.cls-2{opacity:0.5;}.cls-3{fill:#36a9e1;}.cls-4{fill:#f39200;}</style></defs><title>资源 7</title><g id="图层_2" data-name="图层 2"><g id="Layer_1" data-name="Layer 1"><polygon class="cls-1" points="53.94 25.04 53.94 104.57 46.87 104.57 46.87 35.29 38.37 35.29 38.37 25.04 53.94 25.04"/><rect class="cls-1" x="1" y="42.92" width="4.08" height="8.42"/><rect class="cls-1" x="1" y="53.67" width="4.08" height="8.42"/><rect class="cls-1" x="1" y="64.42" width="4.08" height="8.42"/><rect class="cls-1" x="1" y="75.18" width="4.08" height="8.42"/><rect class="cls-1" x="1" y="85.93" width="4.08" height="8.42"/><rect class="cls-1" x="1" y="96.68" width="4.08" height="8.42"/><rect class="cls-1" x="1" y="107.43" width="4.08" height="8.42"/><rect class="cls-1" x="1" y="118.19" width="4.08" height="8.42"/><rect class="cls-1" x="1" y="128.94" width="4.08" height="8.42"/><rect class="cls-1" x="1" y="139.69" width="4.08" height="8.42"/><rect class="cls-1" x="1" y="150.44" width="4.08" height="8.42"/><rect class="cls-1" x="1" y="161.19" width="4.08" height="8.42"/><rect class="cls-1" x="1" y="171.95" width="4.08" height="8.42"/><rect class="cls-1" x="1" y="182.7" width="4.08" height="8.42"/><rect class="cls-1" x="1" y="193.45" width="4.08" height="8.42"/><rect class="cls-1" x="1" y="204.2" width="4.08" height="8.42"/><rect class="cls-1" x="1" y="214.96" width="4.08" height="8.42"/><rect class="cls-1" x="1" y="225.71" width="4.08" height="8.42"/><rect class="cls-1" x="1" y="236.46" width="4.08" height="8.42"/><path class="cls-2" d="M152.58,217H140.82v3.71H66.32V217H30V152.34l21.5-29.95V108.2H43V38.92H25.66L16.36,1H1V37.17h9.58V245H30l24-10.54h98.59V220.67H226.3V217ZM26,48.67A7.34,7.34,0,1,1,18.66,56,7.33,7.33,0,0,1,26,48.67ZM26,70a7.34,7.34,0,1,1-7.33,7.34A7.34,7.34,0,0,1,26,70Zm0,21.34a7.33,7.33,0,1,1-7.33,7.33A7.33,7.33,0,0,1,26,91.34Zm0,36A7.34,7.34,0,1,1,33.32,120,7.34,7.34,0,0,1,26,127.34Z"/><path class="cls-3" d="M30.2,246H9.58V38.17H0V0H17.14l9.3,37.92H44V107.2h8.5v15.51l-21.5,30V216H67.32v3.71h72.5V216H227.3v5.71H153.58v13.79H54.2Zm-18.62-2h18.2l24-10.54h97.8V219.67H225.3V218H141.82v3.71H65.32V218H29V152l21.5-30V109.2H42V39.92H24.88L15.58,2H2V36.17h9.58ZM26,128.34A8.34,8.34,0,1,1,34.32,120,8.35,8.35,0,0,1,26,128.34Zm0-14.67A6.34,6.34,0,1,0,32.32,120,6.34,6.34,0,0,0,26,113.67ZM26,107a8.33,8.33,0,1,1,8.33-8.33A8.34,8.34,0,0,1,26,107Zm0-14.66a6.33,6.33,0,1,0,6.33,6.33A6.34,6.34,0,0,0,26,92.34Zm0-6.67a8.34,8.34,0,1,1,8.33-8.33A8.34,8.34,0,0,1,26,85.67ZM26,71a6.34,6.34,0,1,0,6.33,6.34A6.34,6.34,0,0,0,26,71Zm0-6.66A8.34,8.34,0,1,1,34.32,56,8.35,8.35,0,0,1,26,64.34Zm0-14.67A6.34,6.34,0,1,0,32.32,56,6.34,6.34,0,0,0,26,49.67Z"/><path class="cls-4" d="M30.27,120A4.28,4.28,0,1,0,26,124.28,4.28,4.28,0,0,0,30.27,120Z"/><path class="cls-4" d="M30.27,98.63A4.28,4.28,0,1,0,26,102.91,4.28,4.28,0,0,0,30.27,98.63Z"/><circle class="cls-4" cx="25.99" cy="77.39" r="4.28"/><path class="cls-4" d="M30.27,56.05A4.28,4.28,0,1,0,26,60.33,4.28,4.28,0,0,0,30.27,56.05Z"/></g></g></svg>