<svg xmlns="http://www.w3.org/2000/svg" viewBox="0 0 38.04 39.8"><defs><style>.cls-1{fill:#feb113;}.cls-2{fill:#00b3ea;}.cls-3{fill:#065977;}.cls-4{fill:#08ade5;}</style></defs><title>资源 11</title><g id="图层_2" data-name="图层 2"><g id="Layer_1" data-name="Layer 1"><path class="cls-1" d="M19.56,18.9a.7.7,0,0,0-.7-.71.71.71,0,0,0-.71.71.7.7,0,0,0,.71.7A.7.7,0,0,0,19.56,18.9Z"/><rect class="cls-2" x="13.72" y="14.03" width="0.96" height="6.23"/><polygon class="cls-2" points="23.99 24.1 17.3 24.1 17.3 23.14 23.07 23.14 23.99 24.1"/><polygon class="cls-2" points="20.51 13.78 24.03 13.78 24.03 17.45 23.07 17.45 23.07 14.74 20.51 14.74 20.51 13.78"/><polygon class="cls-3" points="13.72 14.05 23.77 14.05 23.77 23.83 13.98 23.83 13.98 13.78 13.72 13.78 13.72 24.1 24.03 24.1 24.03 13.78 13.72 13.78 13.72 14.05"/><rect class="cls-2" x="15.98" y="16.92" width="2.91" height="0.45" transform="translate(-6.42 22.48) rotate(-57.11)"/><polygon class="cls-2" points="19.57 22.26 16.95 20.56 17.19 20.19 19.46 21.65 19.57 22.26"/><polygon class="cls-2" points="20.83 17.33 22.21 18.23 21.28 19.66 20.9 19.42 21.59 18.36 20.58 17.71 20.83 17.33"/><polygon class="cls-2" points="18.28 15.84 22.03 18.26 19.55 22.1 15.72 19.62 18.14 15.87 18.04 15.8 15.54 19.66 19.59 22.27 22.21 18.23 18.35 15.73 18.28 15.84"/><path class="cls-4" d="M13,11.85l.23-.18a2.43,2.43,0,0,1,.25-.2,9.39,9.39,0,0,1,1.32-.78,8.78,8.78,0,0,1,1.65-.62,9,9,0,0,1,1.74-.29,9.7,9.7,0,0,1,1.54,0,5,5,0,0,1,.61.08l.25,0,.21.05.3.07.1,0,.42-1.56-.12,0-.35-.08-.25-.05-.3-.05c-.21,0-.45-.07-.72-.1a10.62,10.62,0,0,0-1.8,0,10.87,10.87,0,0,0-4,1.06,12,12,0,0,0-1.55.93l-.3.23L12,10.6c-.16.14-.31.26-.42.37l-.35.33,1.14,1.14.3-.28C12.77,12.07,12.9,12,13,11.85Z"/><path class="cls-4" d="M27.24,25.78l.21-.27.23-.31a10.94,10.94,0,0,0,.92-1.55,10.74,10.74,0,0,0,.72-1.95,10.57,10.57,0,0,0,.33-2,11.84,11.84,0,0,0,0-1.81c0-.26-.06-.5-.1-.71s0-.21-.05-.3l0-.25c0-.15-.06-.27-.09-.35l0-.12-1.56.42,0,.1c0,.07,0,.17.07.3s0,.14.05.21,0,.17,0,.26.06.38.09.61a9.55,9.55,0,0,1,0,1.53,9.69,9.69,0,0,1-.28,1.74,9.22,9.22,0,0,1-1.4,3,2.93,2.93,0,0,1-.19.26l-.18.23-.31.36-.28.3,1.14,1.14.33-.35Z"/><path class="cls-4" d="M16.5,27.81l-.29-.08a8.23,8.23,0,0,1-1-.38,9.14,9.14,0,0,1-1.35-.73,8.79,8.79,0,0,1-2.51-2.45,8.18,8.18,0,0,1-.77-1.33,7.35,7.35,0,0,1-.4-1c0-.12-.08-.22-.1-.29l0-.1-1.55.43,0,.13.11.34c.1.29.25.71.47,1.19A10.93,10.93,0,0,0,10,25.09a10.39,10.39,0,0,0,1.34,1.58A10.19,10.19,0,0,0,13,28a9.7,9.7,0,0,0,1.59.86,11,11,0,0,0,1.2.45l.34.09.13,0,.39-1.57Z"/><path class="cls-4" d="M22.13,28a9.91,9.91,0,0,0,1.29-.57,10.09,10.09,0,0,0,1.2-.76,11.68,11.68,0,0,0,1.07-.93,11.88,11.88,0,0,0,.93-1.07,11.32,11.32,0,0,0,.75-1.19,9.21,9.21,0,0,0,.57-1.29,9,9,0,0,0,.38-1.35,9.7,9.7,0,0,0-.45-5.38l-.06-.15-.07-.16-.13-.3c-.1-.19-.19-.39-.3-.58a11.23,11.23,0,0,0-.7-1.09,9.86,9.86,0,0,0-1.74-1.79,9.6,9.6,0,0,0-8-1.89,9.29,9.29,0,0,0-2.78,1.05,9,9,0,0,0-1.57,1.1c-.17.15-.29.27-.37.35l-.13.12.32.31.12-.11c.08-.07.19-.19.36-.33A7.92,7.92,0,0,1,14.35,11,8.9,8.9,0,0,1,17,10a9.2,9.2,0,0,1,3.67,0,9,9,0,0,1,3.92,1.82,9.15,9.15,0,0,1,2.33,2.75c.1.17.19.36.28.55s.09.19.13.29l.06.14.06.15a9.29,9.29,0,0,1,.43,5.13,9.48,9.48,0,0,1-.36,1.29A8.87,8.87,0,0,1,27,23.27a9.53,9.53,0,0,1-.72,1.14,9.26,9.26,0,0,1-1.91,1.91,10.41,10.41,0,0,1-1.14.72,8.72,8.72,0,0,1-2.51.9,9.18,9.18,0,0,1-5.13-.43l-.15-.05-.14-.07L15,27.27c-.19-.1-.38-.18-.56-.29a9.1,9.1,0,0,1-1-.67,8.94,8.94,0,0,1-1.71-1.65,9.46,9.46,0,0,1-1.18-1.92,9.8,9.8,0,0,1-.65-2,9.39,9.39,0,0,1,0-3.67,9,9,0,0,1,1-2.65,8.75,8.75,0,0,1,1.06-1.49,4.53,4.53,0,0,1,.33-.36l.11-.12-.32-.31-.12.12c-.07.09-.2.2-.34.38a9.33,9.33,0,0,0-1.11,1.56A10,10,0,0,0,9.44,17a9.75,9.75,0,0,0,0,3.85,9.49,9.49,0,0,0,1.91,4.12,9.49,9.49,0,0,0,1.79,1.73,8.68,8.68,0,0,0,1.08.7c.19.11.39.2.59.3l.3.13.15.07.16.06a9.58,9.58,0,0,0,5.37.45A10.35,10.35,0,0,0,22.13,28Z"/><path class="cls-3" d="M20.89,38.06c.41,0,.82-.08,1.24-.13l.62-.1.31-.06.31-.06a18.45,18.45,0,0,0,7.2-3.25,20.44,20.44,0,0,0,2.06-1.77,20.44,20.44,0,0,0,1.77-2.06,19.37,19.37,0,0,0,1.45-2.27,18.82,18.82,0,0,0,1.79-4.92c0-.11,0-.21.07-.32s0-.2,0-.31.08-.41.1-.62c0-.41.11-.83.13-1.23a17.53,17.53,0,0,0,0-2.4,18.38,18.38,0,0,0-2.19-7.75c-.14-.24-.26-.48-.4-.7s-.27-.43-.39-.64-.27-.38-.39-.56l-.19-.27-.19-.24L33.92,8l-.32-.38-.28-.33L33.08,7c-.3-.3-.45-.47-.45-.47l-3.84,3.84.32.33.17.18.2.24.23.26.24.32c.05.05.09.11.14.17l.13.19c.08.12.18.25.27.4l.28.44c.1.16.19.33.28.5a12.77,12.77,0,0,1,1,2.42,12.93,12.93,0,0,1,.54,3,12.08,12.08,0,0,1,0,1.7c0,.29-.06.58-.09.88,0,.14,0,.29-.08.44l0,.22,0,.22a13,13,0,0,1-1.27,3.47,12.45,12.45,0,0,1-1,1.61,15.68,15.68,0,0,1-1.26,1.46,15.77,15.77,0,0,1-1.45,1.26,15,15,0,0,1-1.61,1,13.13,13.13,0,0,1-3.48,1.26l-.22.05-.22,0-.44.07c-.29,0-.58.08-.87.09a13.85,13.85,0,0,1-1.7,0,13.65,13.65,0,0,1-2.49-.39v5.54a19,19,0,0,0,2.19.26A19.28,19.28,0,0,0,20.89,38.06Zm9.8-27.56-.14-.17,2.13-1.8.17.2.16.2-2.18,1.74Zm.94,1.28a1.64,1.64,0,0,0-.12-.18l2.32-1.55a2.34,2.34,0,0,1,.14.22l.14.22L31.75,12Zm.7,1.19,2.47-1.28.23.47-2.51,1.2ZM33,14.43l2.6-1,.18.48-2.63.92Zm.54,1.72c0-.1-.05-.21-.05-.21l2.69-.7s0,.12.07.25l.06.25-2.72.63S33.55,16.26,33.52,16.15Zm.29,1.57s0-.11,0-.15a.28.28,0,0,1,0-.06l2.76-.41a.45.45,0,0,0,0,.08l0,.18c0,.13,0,.26,0,.26l-2.77.32S33.83,17.83,33.81,17.72Zm.12,1.37L36.71,19l0,.51-2.79,0Zm-.07,2v-.06s0-.1,0-.15l0-.22,2.78.21,0,.26c0,.06,0,.13,0,.17a.28.28,0,0,1,0,.08ZM33.6,22.7s0-.11,0-.22a1.23,1.23,0,0,0,0-.21l2.74.51s0,.13,0,.26-.05.25-.05.25Zm-.42,1.53.13-.41,2.67.81-.16.5Zm-.59,1.48,0-.06a.53.53,0,0,1,.06-.14l.08-.2,2.56,1.11-.1.24-.07.16,0,.07Zm-.76,1.4.11-.18.11-.19,2.42,1.38-.13.23-.13.22Zm-.91,1.31.14-.17.09-.12,0-.05,2.25,1.64,0,.07-.11.14-.16.2Zm-1,1.21.3-.32,2,1.88-.35.38Zm-1.17,1.08.33-.28,1.84,2.09-.4.34Zm-1.23.91.12-.08.18-.13,1.6,2.29-.21.14L29,34,29,34l-1.53-2.33ZM26,32.45l.2-.09.19-.11,1.33,2.45-.22.13-.24.11ZM24.79,33l.14-.06.06,0L26,35.52l-.07,0-.17.06-.24.1-1-2.62Zm-1.31.44.76,2.68-.5.13-.68-2.7Zm-1.77.38.22,0,.46,2.75-.26.05-.26,0-.37-2.76Zm-1.8.16h.43l.16,2.78a2,2,0,0,1-.26,0H20Z"/><path class="cls-3" d="M8.86,29.72c-.19-.18-.44-.48-.75-.85a14.12,14.12,0,0,1-1-1.45,13,13,0,0,1-1-2.05,14.43,14.43,0,0,1-.76-2.6,14.81,14.81,0,0,1-.26-3,15.72,15.72,0,0,1,.42-3.23c.06-.27.15-.53.22-.8s.17-.54.26-.8.2-.53.31-.79.22-.52.36-.77a15,15,0,0,1,4.13-5.11,15.25,15.25,0,0,1,2.56-1.63,16,16,0,0,1,2.54-1,14.42,14.42,0,0,1,2.25-.45l.26,0,.24,0,.46,0,.82,0c.24,0,.46,0,.65,0l.49,0a1.87,1.87,0,0,1,.3,0h.1l.15-1.4-.11,0-.33,0-.53,0-.72,0-.9,0-.5,0-.27,0-.27,0a14.33,14.33,0,0,0-2.48.5,16.19,16.19,0,0,0-2.78,1.08,15.53,15.53,0,0,0-2.8,1.79,16.65,16.65,0,0,0-2.54,2.5,15.79,15.79,0,0,0-2,3.09,9.1,9.1,0,0,0-.39.84c-.13.28-.23.57-.34.86s-.21.58-.29.87-.18.59-.24.88a17.35,17.35,0,0,0-.46,3.53A16.16,16.16,0,0,0,3.94,23a15.24,15.24,0,0,0,.83,2.86A14.41,14.41,0,0,0,5.9,28.15,14.91,14.91,0,0,0,7,29.75c.34.41.62.73.82.94l.31.32,1-1Z"/><path class="cls-3" d="M6,33.15,5.84,33l-.37-.39c-.24-.26-.48-.53-.7-.81a17.31,17.31,0,0,1-1.24-1.71A17.82,17.82,0,0,1,1.7,26.29a19.16,19.16,0,0,1-1-8.3A19.47,19.47,0,0,1,8.41,4.46,19.1,19.1,0,0,1,24.16,1.12c2.46.58,2.17-.21-.4-.73L23.12.27A19.67,19.67,0,0,0,7.55,4.33,20.07,20.07,0,0,0,.1,18a19.83,19.83,0,0,0,1,8.37A18.05,18.05,0,0,0,2.87,30.2a20.39,20.39,0,0,0,2.68,3.39l.38-.37Z"/><path class="cls-4" d="M1.73,22.32v0C1.78,22.66,1.73,22.36,1.73,22.32Z"/><path class="cls-4" d="M3.11,27.29v0C3.16,27.4,3.1,27.26,3.11,27.29Z"/><path class="cls-4" d="M5.61,31.3h0S5.59,31.28,5.61,31.3Z"/><path class="cls-4" d="M8.11,31C8.16,31,8,30.91,8,30.87c-.22-.23-.43-.46-.64-.71A15.31,15.31,0,0,1,4,23.09,16.25,16.25,0,0,1,4.44,15a16.55,16.55,0,0,1,1.82-3.88A17.9,17.9,0,0,1,8.88,8a16.3,16.3,0,0,1,5.38-3.33,16,16,0,0,1,7.59-.9A12.86,12.86,0,0,1,24,4.19c1.12.33,2.28-1.9,1-2.28a18.71,18.71,0,0,0-8.45-.41A18.23,18.23,0,0,0,9.66,4.26,19.5,19.5,0,0,0,5.24,8.34,17.84,17.84,0,0,0,3,12a19.92,19.92,0,0,0-1.37,4.05,18,18,0,0,0-.41,4.39,17.42,17.42,0,0,0,.58,4.19,17.6,17.6,0,0,0,3.62,7c.32.38.66.74,1,1.09l1.18-1.18ZM1.66,18.33a18.75,18.75,0,0,1,.75-3.78.84.84,0,0,1,.07-.19l.09,0,.4.13,1,.31.12,0a15.85,15.85,0,0,0-.73,3.61Zm.07,4s0,0,0,0a20.16,20.16,0,0,1-.12-3.39l1.64.1h0c0,.09,0,.17,0,.26,0,.33,0,.65,0,1a14.32,14.32,0,0,0,.16,2.07c0,.12,0,.24,0,.36l-.07,0-.55.09-1,.17Zm1.39,4.95v0A19.3,19.3,0,0,1,1.94,23.6s1.45-.3,1.6-.33h0a15.49,15.49,0,0,0,1.14,3.51l-.85.39-.52.24-.14.06S3.13,27.34,3.12,27.31Zm2.49,4s0,0,0,0a15.07,15.07,0,0,1-1.21-1.64c-.08-.13-1-1.62-.93-1.63l1.47-.74,0,0a14.7,14.7,0,0,0,2,3.08l-.71.6-.44.37-.12.1S5.63,31.33,5.61,31.3Z"/><path class="cls-4" d="M5.6,31.3h0S5.64,31.34,5.6,31.3Z"/><path class="cls-1" d="M9.16,26.59,9,26.36l-.19-.31-.21-.38-.19-.38c-.06-.13-.12-.24-.16-.34l-.14-.34-1.38.57.15.37c0,.12.12.25.18.39l.22.43.23.42.22.36.15.25.07.09,1.24-.82Z"/><path class="cls-1" d="M7.74,23.47a2.63,2.63,0,0,1-.1-.36c0-.14-.08-.28-.1-.42l-.09-.42c0-.14,0-.27-.06-.38s0-.2,0-.26,0-.06,0-.08v0l-1.49.18v0a.28.28,0,0,0,0,.08c0,.07,0,.17,0,.3s0,.26.07.41l.09.48.12.47c0,.15.07.29.11.41l.12.39,1.42-.46Z"/><path class="cls-1" d="M7.26,20.57c0-.06,0-.15,0-.26s0-.52,0-.82,0-.59.06-.81,0-.21,0-.27a.65.65,0,0,1,0-.1L5.89,18.1l0,.12c0,.07,0,.17,0,.3s-.06.57-.06.91,0,.66,0,.91a2.54,2.54,0,0,0,0,.3v.11l1.5-.08Z"/><path class="cls-1" d="M7.59,17.09c0-.1,0-.23.09-.37s.08-.27.12-.42.1-.28.14-.41a2.49,2.49,0,0,1,.13-.36l.13-.35-1.39-.56L6.66,15l-.14.4-.15.47c0,.16-.09.32-.13.47s-.07.29-.1.41-.06.22-.07.29l0,.12,1.47.3a.35.35,0,0,1,0-.1Q7.56,17.26,7.59,17.09Z"/><path class="cls-1" d="M8.9,13.73l.22-.38L9.36,13c.07-.12.15-.22.21-.31l.16-.22a.37.37,0,0,1,.06-.09l-1.21-.89-.06.09-.18.25c-.06.1-.16.22-.24.35l-.26.41c-.09.14-.16.29-.24.43s-.15.26-.21.37l-.18.37,1.34.65.17-.33Z"/><path class="cls-1" d="M10.83,11.13c.1-.1.2-.21.31-.31l.31-.3.29-.25.21-.18L12,10l-.94-1.16a.39.39,0,0,0-.09.07l-.23.19-.32.28-.36.34c-.12.11-.23.24-.34.35l-.29.31-.27.31,1.14,1,.24-.28Z"/><path class="cls-1" d="M13,9.31l.32-.21L13.52,9l.19-.11.38-.21.34-.17.24-.11.09,0L14.15,7l-.1,0-.27.13-.38.19L13,7.58l-.21.12-.21.13-.36.23c-.1.06-.18.13-.24.17l-.1.06.86,1.23.09-.06A1.17,1.17,0,0,1,13,9.31Z"/><path class="cls-1" d="M16.26,7.78l.42-.11a3.74,3.74,0,0,1,.42-.11l.37-.08.37-.06-.25-1.48L17.18,6l-.41.09-.47.12-.47.13-.4.13L15,6.62,15.56,8l.34-.12Z"/><path class="cls-1" d="M19.43,7.26c.14,0,.28,0,.43,0h.44l.37,0H21l.14-1.49h-.11l-.3,0-.42,0h-1l-.43,0-.41,0,.14,1.49.37,0A2.24,2.24,0,0,1,19.43,7.26Z"/><path class="cls-2" d="M21.88,39.8h0Z"/><path class="cls-2" d="M21.83,39.8h0Z"/><path class="cls-3" d="M14.12,34.1A2.89,2.89,0,1,0,11.24,37,2.88,2.88,0,0,0,14.12,34.1Zm-5,0a2.12,2.12,0,1,1,2.12,2.12A2.12,2.12,0,0,1,9.12,34.1Z"/><path class="cls-1" d="M12.21,34.1a1,1,0,1,0-1,1A1,1,0,0,0,12.21,34.1Z"/><path class="cls-3" d="M30.92,5.18A2.89,2.89,0,1,0,28,8.07,2.89,2.89,0,0,0,30.92,5.18Zm-5,0A2.12,2.12,0,1,1,28,7.3,2.12,2.12,0,0,1,25.91,5.18Z"/><path class="cls-1" d="M29,5.18a1,1,0,1,0-1,1A1,1,0,0,0,29,5.18Z"/></g></g></svg>