<svg xmlns="http://www.w3.org/2000/svg" viewBox="0 0 220.42 98.91"><defs><style>.cls-1,.cls-3{fill:#1d71b8;}.cls-1{opacity:0.5;}.cls-2{fill:#36a9e1;}</style></defs><title>资源 6</title><g id="图层_2" data-name="图层 2"><g id="Layer_1" data-name="Layer 1"><polygon class="cls-1" points="219.94 0.6 219.94 98.31 205.72 98.31 205.72 88.69 149.19 88.69 149.19 98.31 134.45 98.31 134.45 89.14 18.6 89.14 18.6 79.89 2.3 70.92 205.75 70.92 205.75 27.99 2.3 27.99 2.3 15.88 32.52 0.6 100.5 0.6 111.12 11.95 184.06 11.95 195.15 0.6 219.94 0.6"/><path class="cls-2" d="M220.42,98.91H205.25V89.3H149.67v9.61H134V89.75H18.12V80.29L0,70.32H205.27V28.59H1.82V15.47L32.52,0h68.15l10.62,11.35h72.6L195,0h25.44ZM206.19,97.7h13.28V1.21H195.31L184.23,12.55H111L100.33,1.21H32.61L2.77,16.29V27.38H206.22V71.53H4.6l14.47,8v9.05H134.93V97.7h13.79V88.09h57.47Z"/><rect class="cls-3" x="149.2" y="88.66" width="56.52" height="0.04"/></g></g></svg>