<svg xmlns="http://www.w3.org/2000/svg" viewBox="0 0 28.99 28.99"><defs><style>.cls-1{fill:#69bffe;}</style></defs><title>资源 4</title><g id="图层_2" data-name="图层 2"><g id="央铋_1" data-name="央铋 1"><path class="cls-1" d="M14.5,29A14.5,14.5,0,1,1,29,14.5,14.51,14.51,0,0,1,14.5,29ZM14.5.55a13.95,13.95,0,1,0,13.94,14A14,14,0,0,0,14.5.55Z"/><path class="cls-1" d="M14.5,27.61A13.12,13.12,0,1,1,27.61,14.5,13.13,13.13,0,0,1,14.5,27.61Zm0-24A10.92,10.92,0,1,0,25.41,14.5,10.93,10.93,0,0,0,14.5,3.58Z"/><path class="cls-1" d="M14.5,24.77V23.12l.5,0,.1,1.65Zm-.59,0-.6-.05.19-1.64.5,0Zm1.78-.05-.19-1.64L16,23l.28,1.62C16.09,24.65,15.89,24.67,15.69,24.7Zm-3-.09c-.2,0-.39-.07-.59-.12l.38-1.6L13,23Zm4.15-.12-.38-1.6.48-.13.48,1.58Zm-5.31-.15L11,24.15l.56-1.55.48.16ZM18,24.15l-.56-1.55.46-.19.66,1.52Zm-7.58-.22-.54-.25.74-1.48.45.22Zm8.68-.26-.75-1.47a4.92,4.92,0,0,0,.45-.24l.82,1.43Zm-9.75-.28-.51-.31.91-1.38c.14.1.28.18.43.27Zm10.78-.31-.91-1.38.41-.29,1,1.32C20.47,22.85,20.31,23,20.14,23.08ZM8.37,22.74l-.47-.37L9,21.1l.39.31Zm12.73-.38L20,21.1l.37-.33L21.54,22ZM7.45,22,7,21.55l1.2-1.14c.11.13.23.24.35.36ZM22,21.54l-1.2-1.13L21.1,20l1.26,1.06ZM6.63,21.1c-.13-.15-.25-.31-.37-.47l1.32-1,.31.39Zm16.1-.47-1.32-1,.29-.42,1.38.91C23,20.31,22.85,20.47,22.73,20.63ZM5.92,20.15c-.11-.17-.22-.34-.32-.51L7,18.81c.08.15.17.29.26.43Zm17.47-.52L22,18.81a4.77,4.77,0,0,0,.24-.44l1.48.74ZM5.32,19.11c-.09-.17-.17-.35-.25-.54l1.51-.65.21.45Zm18.61-.55-1.52-.65c.07-.15.13-.31.19-.47l1.55.57C24.08,18.2,24,18.38,23.93,18.56ZM4.85,18c-.07-.19-.13-.38-.19-.57L6.24,17c0,.16.1.32.15.47Zm19.49-.58L22.76,17c0-.16.09-.32.13-.49l1.6.38C24.45,17.06,24.39,17.25,24.34,17.44ZM4.5,16.87l-.12-.58L6,16c0,.17.07.33.11.49Zm20.11-.59L23,16c0-.16.05-.33.07-.49l1.64.19C24.67,15.89,24.65,16.08,24.61,16.28ZM4.3,15.7c0-.2,0-.39-.06-.59L5.89,15c0,.16,0,.33,0,.5Zm20.45-.61L23.1,15c0-.17,0-.34,0-.5l1.65,0v0C24.77,14.7,24.76,14.89,24.75,15.09ZM4.23,14.51h0c0-.2,0-.4,0-.59L5.89,14c0,.17,0,.33,0,.5ZM23.1,14c0-.17,0-.34,0-.5l1.63-.2q0,.3.06.6ZM5.93,13.5l-1.64-.18c0-.2,0-.4.09-.6L6,13C6,13.17,6,13.34,5.93,13.5ZM23,13c0-.17-.06-.33-.1-.49l1.61-.38.12.58ZM6.1,12.52l-1.6-.38a5.47,5.47,0,0,1,.15-.58L6.23,12C6.18,12.19,6.14,12.35,6.1,12.52ZM22.75,12c-.05-.16-.1-.31-.16-.47L24.14,11c.07.19.13.38.19.57ZM6.39,11.56,4.84,11c.07-.19.14-.38.22-.56l1.51.65C6.51,11.24,6.44,11.4,6.39,11.56Zm16-.49-.21-.46,1.47-.74c.09.18.17.36.25.54ZM6.78,10.64,5.31,9.9c.09-.18.19-.36.29-.53L7,10.19ZM22,10.17l-.27-.42,1.38-.91c.11.16.21.33.31.5ZM7.29,9.77,5.91,8.86c.11-.17.22-.33.34-.49l1.32,1C7.47,9.49,7.38,9.63,7.29,9.77ZM21.4,9.34c-.1-.14-.2-.27-.31-.4l1.26-1.06c.13.15.25.31.37.47ZM7.89,9,6.62,7.9,7,7.45l1.2,1.14A3.8,3.8,0,0,0,7.89,9Zm12.87-.39-.36-.35L21.53,7a4.16,4.16,0,0,1,.42.42ZM8.57,8.23,7.44,7c.14-.13.29-.27.45-.4L9,7.9C8.82,8,8.7,8.11,8.57,8.23ZM20,7.88l-.4-.31,1-1.32.47.37ZM9.34,7.59l-1-1.33.49-.34L9.75,7.3Zm9.88-.31c-.14-.09-.28-.18-.43-.26l.83-1.43.51.32Zm-9-.25L9.35,5.61l.52-.29.75,1.47Zm8.17-.25-.45-.21.65-1.51.54.25Zm-7.28-.2-.66-1.51L11,4.85l.56,1.55Zm6.36-.19L17,6.23l.47-1.58.57.19ZM12,6.24l-.48-1.58.58-.16.38,1.61Zm4.46-.14L16,6l.28-1.62c.2,0,.39.07.59.12ZM13,6,12.7,4.38l.59-.08.19,1.63Zm2.5-.08-.5,0,.1-1.65.59,0Zm-1.5,0-.1-1.65h.6V5.87Z"/></g></g></svg>