<svg xmlns="http://www.w3.org/2000/svg" xmlns:xlink="http://www.w3.org/1999/xlink" viewBox="0 0 369.55 342.18"><defs><style>.cls-1{isolation:isolate;}.cls-2,.cls-3{mix-blend-mode:color-dodge;}.cls-2{fill:url(#radial-gradient);}.cls-4{fill:#263650;}.cls-5{fill:#5a667a;}</style><radialGradient id="radial-gradient" cx="184.78" cy="171.09" r="186.11" gradientUnits="userSpaceOnUse"><stop offset="0.49" stop-color="#097692"/><stop offset="0.66" stop-color="#5b6779"/><stop offset="0.82" stop-color="#a65a62"/><stop offset="0.94" stop-color="#d55154"/><stop offset="1" stop-color="#e74e4e"/></radialGradient></defs><title>资源 5</title><g class="cls-1"><g id="图层_2" data-name="图层 2"><g id="Layer_1" data-name="Layer 1"><path class="cls-2" d="M293.62,171.31l.16-2.41h12.7l-.15,2.69Zm24.82,4.94.15-3-25-.82-.12,2.41Zm8,5.1.16-3.14-33.2-2.16-.09,2.41Zm-23.55,1.86a22.91,22.91,0,0,0,.37-2.6l-10-1a19.21,19.21,0,0,1-.34,2.38Zm3,4.39.41-2.67-13.54-1.78-.37,2.38Zm-6.27,2.91.38-2.56-7.78-1.28-.34,2.38Zm3.45,4.67a25.85,25.85,0,0,0,.62-2.6l-12-2.38a20.78,20.78,0,0,1-.56,2.33Zm-6.83,2.33.64-2.45-6-1.41-.6,2.32Zm1.32,4.31.63-2.52-8.22-2.21-.58,2.33Zm5.58,5.87a26.55,26.55,0,0,0,.89-2.6l-14.91-4.54a22.32,22.32,0,0,1-.78,2.26Zm20.35,11.79,1.12-3.07L287.87,203.9l-.84,2.25Zm-17.16-1.72,1-2.72-20.62-7.8-.81,2.25Zm-8.81.77a25.92,25.92,0,0,0,1.13-2.46l-13.14-5.48a20.28,20.28,0,0,1-1,2.17Zm-7.36.93,1.13-2.33-7.3-3.33L282.88,216Zm2.34,5.54,1.15-2.42L282.38,217l-1,2.17Zm8.43,9.35s1.58-2.49,1.5-2.53l-21.5-11.59a20.45,20.45,0,0,1-1.24,2.06Zm-6.89.91,1.48-2.41L279,223.28l-1.25,2.05Zm-8.49-.58,1.37-2.28-9.69-6.08-1.23,2.07Zm-6.38.32,1.54-2-5.3-3.57-1.46,1.92Zm2.14,6.36,1.61-2.14-9.67-7-1.45,1.93Zm31.11,30.28,2.18-2.9L271.05,235.1,269.63,237Zm-15-5.85,2.21-2.44L268.93,238l-1.64,1.76Zm3.77,10.12,2.35-2.59-37-32.73-1.62,1.78Zm-18.59-11.06,2-2.25L264.1,243.23,262.5,245Zm-10.14-4.15,2.1-1.88-12.85-12.95-1.81,1.6Zm-6.16-.66,2-1.82-9.26-10-1.78,1.62Zm-.42,5.77,2.06-1.9-11.54-13.25-1.76,1.64Zm-1.09,5.35,2.31-1.71L253.71,253l-2,1.42Zm15.4,28.44,2.87-2.15-32.21-42.31-1.93,1.44Zm9.38,23.31,3.32-2.44L248,257.28l-1.91,1.47Zm-12-7.58,3.27-2-35.73-54L243,260.58Zm-10.7-7,3.06-1.87L242,261.18l-2,1.25Zm-22.15-29.72,2.36-1.44L239,263l-2,1.27Zm-.31,8.54,2.64-1.27L235.88,264.8l-2.18,1Zm-9.95-11.23,2.35-1.13-4.12-8.47-2.16,1.05Zm0,10c0,.06,2.54-1.2,2.54-1.2l-7.53-16.87s-2.14,1.1-2.16,1Zm-6-4,2.53-.9-4.8-11.77-2.26.81Zm-4.64-1.26,2.46-.91-3.44-9.3-2.25.83Zm-4.44-1.26c0,.08,2.41-.86,2.41-.86l-2.28-6.85a20.86,20.86,0,0,1-2.25.81ZM218.58,291l2.72-.69-5.16-17.44-2.33.57Zm-5.93-7,2.54-.66-2.5-9.59-2.32.6Zm-1.59,11.74c0,.08,2.78-.69,2.78-.69l-4.59-20.4a23.37,23.37,0,0,1-2.33.59Zm-5.22-5.43,2.7-.39-2.76-14.52-2.39.34ZM200.78,283l2.53-.39-1.06-6.76-2.38.37Zm-3.25,5.53,2.64-.41-1.44-11.72-2.38.39Zm-4.39-6.17,2.54-.1-.49-5.43-2.41.09Zm-3.64,3.29,2.6-.13-.49-8.54-2.41.13Zm-3.84,5.19,2.71-.16L188,277.17l-2.41.15ZM181.84,284l2.57.15.05-6.84-2.41-.15Zm-4.69,14.11,2.88.15.86-21.17-2.42-.12Zm-2.85-15,2.55.11.46-6.25-2.41-.09ZM170,287.13l2.61.41,1.15-10.84-2.37-.39Zm-4.7,4.48L168,292l2.21-15.89-2.37-.37ZM162.22,286l2.62.38,1.86-10.75-2.38-.33Zm-5.72,7.36,2.74.72,3.94-19-2.32-.63Zm-6.26,7.22,2.93.76,6.57-27.16-2.32-.6Zm-1.84-9.4,2.74.7,5.16-18.58-2.33-.57ZM140,303l3,1.09,9.95-31.74-2.25-.85Zm-2.5-6.59,2.84,1,9.23-26.36-2.25-.83Zm-23.17,44.28,3.87,1.45,28-72.27-2.26-.8Zm3.71-23,3.28,1.57,21.57-50.58-2.15-1.07Zm10.92-34.25,2.55,1.22,8.19-17.56-2.16-1Zm-10.35,10.43,2.84,1.36,15-29.67-2.18-1ZM122.4,278l2.38,1.46,8.46-15.4-2-1.27Zm.15-5.62,2.29,1.4,6.36-11-2-1.26Zm-10.18,8.28,2.54,1.53,13.25-21.26-2.07-1.23ZM104,284.85s2.49,1.92,2.55,1.84l18.51-27.63a20.6,20.6,0,0,1-1.94-1.43Zm10.23-21.34,2.1,1.58,5.87-8.16-1.93-1.45Zm-5.4.49,2.18,1.61,8.33-10.82-1.94-1.43Zm.71-7,1.91,1.75,5-6.09-1.78-1.63Zm-5.75.6,2,1.81,8.06-9.17-1.78-1.62Zm1.27-7,1.9,1.7,4.23-4.5-1.81-1.61Zm-4.3-1.11,1.74,1.93,6-6-1.59-1.8Zm-7.85,1.85,1.85,2,11.39-10.64L104.56,241ZM72.41,263.26l2.19,2.42,29.17-25.52-1.64-1.77Zm10.18-14.11,1.73,2.33,17.06-14L100,235.56Zm3.74-8.05L88,243.28l11.31-8.65-1.44-1.93Zm2.7-6.72,1.57,2.06,6.53-4.67-1.47-1.91Zm-5.81-.85,1.38,2.3L95,228.89l-1.23-2.07Zm-12.31,2.64,1.53,2.52L93.2,225.83,92,223.77Zm2.47-6.32,1.48,2.41,16.48-9.47-1.27-2Zm4.94-7.17,1.13,2.4,10.11-5.38-1-2.17ZM81.19,217l1.11,2.29L88,216.48,87,214.32Zm-6.76-1.23,1.18,2.4,10.87-4.9-1.07-2.15ZM32.91,227.53l1.25,3.4L85,210l-.8-2.26Zm12.48-10,1.13,3.09,37.31-13.9L83,204.44Zm-10.83-1.73,1.19,3.29,46.85-15.7-.85-2.25ZM53.7,205.12l.75,2.94,27-8.07-.58-2.33Zm8.57-6.66.71,2.71,17.64-4.64L80,194.21Zm3.49-5,.69,2.62,13.27-3-.63-2.32Zm-4.49-3.3.41,2.76,17.25-3.33-.34-2.38Zm-4.2-3.61.44,2.84,20.92-3.33-.37-2.38Zm-32.49-.92.53,3.54,52.76-6.63-.39-2.38ZM0,182.08l.23,4.1L77.41,179l-.09-2.41Zm12.46-6.58.2,3.83,64.61-3.86-.13-2.41Zm11.28-5.74.17,3.58,53.17-1.45-.15-2.41Zm37.07-4.3-.16,2.77,16.28.08.15-2.41Zm-7.35-4.55-.15,2.93,23.83.9.13-2.41Zm14.58-3-.11,2.61,9.39.67.09-2.42Zm-8.5-5-.44,2.78,18.38,1.9.39-2.37Zm6.34-3.21-.41,2.65,12.59,1.72.37-2.37Zm3.32-3.41-.38,2.6,9.77,1.66.34-2.38Zm3.48-3.19L72,145.57,79.09,147l.63-2.32ZM63,136.63l-.7,2.72L80,143.58l.61-2.32ZM72,135l-.63,2.55,9.56,2.62.58-2.33Zm-9.2-7.18-1,2.69,20,6.21.85-2.25ZM70,126,69,128.51l14,4.85.83-2.26Zm8.71-.8-.85,2.41L84.22,130l.8-2.26Zm-3-5.48-1.18,2.39,10.87,4.6,1.07-2.15Zm7.43-.76-1.1,2.27L87,123.47,88,121.31ZM82,114.07l-1.11,2.35,7.65,3.85,1-2.18Zm-2.38-5.8-1.42,2.31,11.87,6.47,1.27-2Zm7.76.09-1.32,2.19L92,114l1.25-2Zm-10-11.2-1.48,2.47L93.8,111,95,108.91ZM92,102.38l-1.54,2,5.17,3.53L97.13,106Zm-1.42-5.84L89,98.66l8.8,6.44,1.44-1.93ZM89,90.12l-1.64,2.23L100,102.24l1.42-1.95Zm6.61.34-1.8,2,8.36,7,1.64-1.76ZM92,81.76l-1.91,2.11,14.45,12.91L106.18,95ZM88.77,72.6l-2,2.24L107,94.13l1.59-1.81ZM98,75.88l-2.11,1.91,13.5,13.75,1.81-1.6ZM91.89,62.56l-2.33,2.11,22.52,24.49,1.78-1.62Zm6.85,1-2.25,2,18.22,21.18,1.78-1.63Zm-26.64-42-3.29,2.48,48.62,60.37L119.37,83Zm18,14.63-2.9,2.17L120.3,82.31l1.93-1.44ZM114.3,62.64c0-.08-2.29,1.67-2.29,1.67l11.14,15.86a20.6,20.6,0,0,1,1.94-1.43Zm-3.74-14-2.69,1.63,18.22,27.83,2.07-1.23ZM122.4,59.85,120,61.3l9.13,15,2-1.26Zm4.73,2.8-2.29,1.41,6.36,11,2-1.27Zm-2-12.77-2.67,1.28,11.82,22.08,2.18-1Zm.48-9.34-2.83,1.36,14.73,29.83,2.16-1ZM138.9,59.86,136.54,61l4.15,9.16,2.15-1.08Zm2.34-4.71-2.54.92,5.22,12.62,2.26-.8Zm5.67,4.07-2.41.89,2.77,7.38,2.25-.82Zm2.29-5.46-2.51.94,3.91,11.56,2.25-.85Zm5.44,4.82-2.46.61L154,65.11l2.32-.57Zm3.1-3.2-2.51.64,2.19,8.23,2.32-.6ZM160,47.46l-2.66.7,3.51,15.19,2.32-.62ZM160.09,24l-3.23.49,7.46,38,2.38-.34Zm7.09,15.82-2.86.44L167.85,62l2.37-.36Zm5.06,7.1-2.69.43,1.82,14.12,2.37-.39Zm4.49,6-2.59.11.76,8,2.41-.09Zm3.65-4.68-2.69.13.78,12.51,2.42-.13Zm3.89-12.13-3,.17.73,24.41,2.41-.15Zm4.23,5.53-2.83-.16,0,19,2.41.15Zm3.76,7.78-2.66-.13-.4,11.43,2.41.13Zm3.5,5.21-2.55-.11-.43,6.38,2.41.1Zm4.42-5-2.63-.42L196.35,61l2.38.38ZM210.76,7.62l-3.59-.55-7.3,54.51,2.38.37Zm2.47,15.72L210,22.85l-6.59,39.27,2.39.34ZM220.1,15s-3.39-.9-3.41-.82l-9.77,48.43a23.42,23.42,0,0,1,2.33.6Zm-.31,21.81-2.93-.76L210.37,63.5l2.32.61Zm1.53,10.67-2.73-.69-4.78,17.6,2.33.58Zm2.49,5.66s-2.52-1-2.54-.91l-4,13a23.32,23.32,0,0,1,2.25.82ZM229,50.81l-2.63-1L220.6,66.46l2.25.84Zm5.24-1.93-2.69-1-7.56,19.79,2.26.8Zm17-27.52-1.62-.78c-.8-.39-1.63-.74-1.63-.74l-20.6,49c0-.06,2.16,1,2.16,1ZM266.59,1.79,262.87,0,230.5,70.43l2.16,1Zm-.47,14-3.46-1.69L233.7,72l2.18,1Zm-.76,12.8-3.08-1.84L236.93,73.49l2,1.26ZM250.55,62.76l-2.37-1.44-8.22,14,2,1.26Zm7.69-4.2L255.73,57,243,77.21l2.07,1.23Zm-4.81,14.28-2.08-1.59-5.28,7.8L248,80.51ZM262,68l-2.26-1.69-10.86,15,1.93,1.44Zm-.29,7-2.16-1.59-7.81,10,2,1.43Zm1.16,4.74L261,77.87l-6.34,7.63,1.76,1.64Zm1,4.6L262,82.54l-4.79,5.39L259,89.55ZM274.5,79l-2.09-1.88L259.88,90.32l1.81,1.61Zm-3.19,8.74-1.75-2-7.06,7,1.6,1.8Zm10.86-4.39-1.94-2.13-15.35,14.2,1.62,1.78Zm-1.85,7-1.86-2-11.17,9.66,1.64,1.77Zm-3.86,8.1L275,96.45l-5.32,4.31,1.42,1.94Zm6.3.14-1.6-2.14-9.42,7.12,1.45,1.93Zm-2.89,6.71-1.53-2-4.45,3.14,1.46,1.92Zm4.55,1.57-1.34-2.23-7.14,4.71,1.23,2.06Zm6.28.79-1.4-2.31-11.53,7,1.25,2.06Zm-3.81,6.6a21.25,21.25,0,0,0-1.31-2.2l-5.95,3.38a20.59,20.59,0,0,1,1.24,2.07Zm14.46-3-1.24-2.59-18.76,9.84,1,2.18Zm-11.72,10-1.11-2.28-5.64,2.72,1.05,2.16Zm5.88,1.62a24.49,24.49,0,0,0-1.1-2.39l-10,4.41a19.56,19.56,0,0,1,1,2.18Zm6.14,1.87-.94-2.59-14.88,6,.81,2.26Zm-3.46,5.5-.92-2.48L287,131.65l.84,2.25Zm9.4,1.22a28.16,28.16,0,0,0-.91-2.68L288.28,135a22.5,22.5,0,0,1,.78,2.27Zm9.3,1.85-.75-2.93-26.81,7.85.58,2.33Zm-7.32,6.31-.7-2.74-18.68,4.8.61,2.32Zm14.71,1.35c.09,0-.71-3.06-.71-3.06l-32.47,7.21a20.78,20.78,0,0,1,.56,2.33Zm-4.56,5.47-.45-3-27.45,5.15.34,2.38Zm49.83-2-.61-4.08-76.61,11.79.37,2.37ZM348,152.81c.1,0-.48-3.59-.48-3.59l-54.59,6.57a18.94,18.94,0,0,1,.34,2.38Zm-35.25,7.68-.13-2.84-19.3,1.68.09,2.42Zm14.09,3.75-.16-3.14-33.21,1.81.12,2.41Zm-15.45,4.66-.16-2.8-17.57.39.16,2.41Z"/><g class="cls-3"><path class="cls-4" d="M184.78,273.54A102.45,102.45,0,1,1,287.23,171.09,102.57,102.57,0,0,1,184.78,273.54Zm0-203.3A100.85,100.85,0,1,0,285.63,171.09,101,101,0,0,0,184.78,70.24Z"/></g><g class="cls-3"><path class="cls-5" d="M184.78,260.06a88.89,88.89,0,0,1-84.37-60.64,2,2,0,1,1,3.79-1.28,84.9,84.9,0,0,0,80.58,57.92,2,2,0,1,1,0,4Z"/></g><g class="cls-3"><path class="cls-4" d="M155.93,107.67a2,2,0,0,1-.81-3.83A72.77,72.77,0,0,1,170,99.1a2,2,0,0,1,2.36,1.56,2,2,0,0,1-1.56,2.36,68.53,68.53,0,0,0-14,4.48A2.05,2.05,0,0,1,155.93,107.67Z"/></g><g class="cls-3"><path class="cls-5" d="M184.78,244.57A73.49,73.49,0,0,1,170,99.1a2,2,0,0,1,2.36,1.56,2,2,0,0,1-1.56,2.36,69.49,69.49,0,1,0,78.64,93.62,2,2,0,1,1,3.72,1.47,73.51,73.51,0,0,1-68.35,46.46Z"/></g></g></g></g></svg>