<svg xmlns="http://www.w3.org/2000/svg" viewBox="0 0 237.49 281.32"><defs><style>.cls-1{fill:#065977;}.cls-2{fill:#feb113;}.cls-3,.cls-4{fill:#00b3ea;}.cls-3{opacity:0.2;}</style></defs><title>资源 2</title><g id="图层_2" data-name="图层 2"><g id="Layer_1" data-name="Layer 1"><path class="cls-1" d="M164.68,199l-.7.22c-.41.13-1,.28-1.52.49s-1.1.38-1.5.55l-.67.28L157,192.75l.83-.34c.49-.22,1.17-.44,1.84-.68s1.35-.45,1.86-.61l.85-.25Z"/><path class="cls-1" d="M171.19,197.76l-.73.07c-.43,0-1,.15-1.58.23s-1.15.2-1.58.28l-.71.14-1.83-8.2.87-.18c.52-.1,1.22-.26,1.93-.35s1.41-.23,1.94-.27l.89-.09Z"/><path class="cls-1" d="M177.81,197.71l-.2,0c-.13,0-.31,0-.53,0-.44,0-1-.06-1.6-.07h-1.6l-.73,0-.36-8.4.89,0h2l2,.08.65,0,.24,0Z"/><path class="cls-1" d="M184.34,198.81l-.71-.17c-.43-.1-1-.24-1.57-.34s-1.14-.23-1.57-.28l-.72-.1,1.11-8.34.88.13c.53.06,1.22.2,1.92.34s1.4.28,1.91.41l.87.21Z"/><path class="cls-1" d="M190.57,201l-.66-.3c-.4-.18-.95-.38-1.49-.61s-1.09-.39-1.5-.54l-.69-.24,2.54-8,.85.28c.5.19,1.18.39,1.84.67s1.33.52,1.81.74l.81.37Z"/><path class="cls-1" d="M196.32,204.32a6.79,6.79,0,0,0-.61-.41c-.36-.23-.85-.56-1.34-.86l-1.39-.8-.64-.34,3.9-7.45.79.41c.46.28,1.08.63,1.7,1s1.2.76,1.65,1,.73.5.73.5Z"/><path class="cls-1" d="M201.39,208.57s-.2-.21-.52-.51c-.15-.16-.34-.33-.53-.52l-.64-.57-.65-.56-.58-.47-.57-.45,5.16-6.65.7.56.71.57.79.69.78.7.66.63.64.62Z"/><path class="cls-1" d="M205.65,213.63l-.11-.16a4.25,4.25,0,0,0-.31-.43l-1-1.28-1-1.23a6.68,6.68,0,0,0-.49-.54l6.25-5.63.17.18.42.48,1.25,1.51c.44.57.87,1.13,1.19,1.56.16.21.29.39.37.52l.14.2Z"/><path class="cls-1" d="M209,219.37l-.31-.66c-.18-.4-.46-.91-.74-1.42l-.4-.75c-.15-.23-.28-.45-.39-.64l-.38-.62,7.13-4.46.46.76c.14.22.3.49.47.78l.5.91c.34.63.68,1.25.9,1.74l.38.8Z"/><path class="cls-1" d="M211.22,225.59s0-.07-.05-.2a3.75,3.75,0,0,0-.14-.51c-.13-.41-.3-1-.47-1.52l-.54-1.51c-.07-.21-.15-.37-.19-.49l-.08-.18,7.8-3.16s0,.09.09.23.15.35.24.6l.66,1.85.58,1.87c.08.26.14.47.17.62s.06.24.06.24Z"/><path class="cls-1" d="M212.35,232.11s0-.29-.07-.73c0-.21-.05-.46-.08-.74s-.08-.55-.12-.84c-.08-.58-.16-1.16-.26-1.58s-.14-.72-.14-.72l8.23-1.72.17.87c.11.52.22,1.23.32,1.94.06.35.11.7.15,1s.07.64.1.91c0,.53.08.88.08.88Z"/><path class="cls-1" d="M212.31,238.73s0-.29.07-.73.05-1,.08-1.6,0-1.16,0-1.6v-.52a1.57,1.57,0,0,0,0-.2l8.41-.26v.89c0,.54,0,1.25,0,2s-.05,1.42-.1,2-.08.88-.08.88Z"/><path class="cls-1" d="M211.12,245.24s.09-.27.19-.7.25-1,.36-1.56.22-1.14.3-1.58.11-.72.11-.72l8.32,1.22s-.06.35-.13.88-.23,1.23-.37,1.93-.32,1.38-.44,1.9-.23.86-.23.86Z"/><path class="cls-1" d="M208.81,251.45l.31-.66.31-.68c.1-.26.21-.53.32-.79.22-.55.43-1.09.56-1.51s.24-.68.24-.68l8,2.65s-.12.33-.29.84-.42,1.17-.69,1.83c-.13.33-.26.66-.39,1l-.38.83-.37.81Z"/><path class="cls-1" d="M205.46,257.15l.42-.59.87-1.34c.32-.49.59-1,.82-1.38l.27-.46c0-.11.09-.18.09-.18l7.39,4-.11.22-.32.55c-.28.46-.61,1.09-1,1.69s-.77,1.2-1.07,1.64l-.52.73Z"/><path class="cls-1" d="M201.16,262.18l.51-.52c.29-.32.72-.72,1.09-1.16s.78-.87,1.06-1.21l.45-.57,6.57,5.24-.55.7c-.34.41-.82.94-1.29,1.48s-1,1-1.34,1.42l-.63.64Z"/><path class="cls-1" d="M196,266.36l.61-.41c.36-.24.81-.61,1.28-1s.9-.73,1.24-1l.56-.46,5.55,6.31-.68.58c-.41.34-1,.81-1.52,1.23s-1.13.87-1.57,1.17l-.73.5Z"/><path class="cls-1" d="M190.25,269.61l.66-.32c.39-.19.93-.42,1.43-.71s1-.55,1.4-.77l.62-.38,4.37,7.18-.75.46c-.46.28-1.1.6-1.72.95s-1.27.64-1.75.87l-.8.38Z"/><path class="cls-1" d="M184,271.77l.7-.17c.43-.11,1-.3,1.54-.46s1.1-.38,1.51-.52l.68-.25,3,7.84-.83.3c-.51.18-1.17.45-1.86.64s-1.36.43-1.88.56l-.86.22Z"/><path class="cls-1" d="M177.47,272.82h.19l.53-.05c.43-.05,1-.09,1.59-.17l1.58-.24.72-.15,1.61,8.26-.87.17c-.53.09-1.23.19-1.94.29s-1.41.16-1.95.22l-.64.06h-.24Z"/><path class="cls-1" d="M170.84,272.69l.73.07c.43.05,1,.08,1.6.11l.85,0h1.48l.14,8.41h-1.8l-1.05,0c-.71,0-1.42-.07-1.95-.13l-.89-.08Z"/><path class="cls-1" d="M164.35,271.42l.7.2,1.55.38c.57.13,1.15.22,1.57.31s.72.13.72.13l-1.32,8.3s-.36,0-.88-.15-1.23-.22-1.92-.38l-1.9-.46-.86-.25Z"/><path class="cls-1" d="M158.17,269l.18.09.48.22c.4.17.92.44,1.47.64s1.07.44,1.48.59l.69.24-2.75,7.95-.84-.29-1.82-.72c-.67-.26-1.3-.58-1.79-.8l-.59-.27-.22-.11Z"/><path class="cls-1" d="M152.51,265.6l.6.43c.35.26.83.57,1.32.89l.72.46.65.37.63.37-4.1,7.34-.77-.44-.79-.46-.88-.57c-.6-.38-1.2-.77-1.63-1.09l-.72-.52Z"/><path class="cls-1" d="M147.55,261.23l.14.14a3.79,3.79,0,0,0,.36.38l1.15,1.12,1.2,1.06.4.34.16.12-5.33,6.51-.19-.15c-.13-.1-.3-.24-.5-.42l-1.46-1.3c-.51-.5-1-1-1.41-1.37-.19-.18-.34-.35-.45-.46l-.17-.18Z"/><path class="cls-1" d="M143.43,256.05l.41.6c.12.18.26.39.42.61l.52.69c.35.46.69.93,1,1.25l.47.56-6.39,5.47-.57-.68c-.35-.41-.78-1-1.21-1.54-.22-.28-.43-.57-.63-.84l-.51-.75-.5-.73Z"/><path class="cls-1" d="M140.26,250.23a6.74,6.74,0,0,0,.3.66l.69,1.45c.28.51.56,1,.76,1.41.1.19.2.34.27.45l.1.17-7.24,4.28s0-.07-.13-.21-.19-.32-.32-.56l-.93-1.72-.85-1.76-.27-.59c-.06-.14-.09-.23-.09-.23Z"/><path class="cls-1" d="M138.17,244l.18.71c.05.21.11.46.18.72s.17.54.25.82.17.55.25.82.18.49.25.7l.25.68-7.88,2.95-.3-.84-.31-.86c-.1-.32-.2-.66-.3-1l-.31-1c-.09-.32-.16-.62-.22-.88-.14-.52-.22-.86-.22-.86Z"/><path class="cls-1" d="M137.22,237.4l0,.73c0,.43.1,1,.16,1.59s.16,1.15.22,1.59.12.71.12.71l-8.27,1.51s-.08-.34-.15-.87-.19-1.24-.28-1.94-.14-1.42-.19-1.95l-.05-.89Z"/><path class="cls-1" d="M137.42,230.79s0,.29-.07.72-.12,1-.13,1.6-.07,1.16-.06,1.6v.72l-8.41,0v-.89c0-.54.05-1.25.07-2s.12-1.42.16-2,.09-.88.09-.88Z"/><path class="cls-1" d="M138.79,224.31s-.09.28-.21.69-.26,1-.4,1.56-.26,1.13-.34,1.56-.13.72-.13.72l-8.29-1.44.17-.87c.09-.53.23-1.23.41-1.91s.33-1.39.49-1.9l.25-.85Z"/><path class="cls-1" d="M141.25,218.17l-.33.64-.66,1.46c-.23.53-.44,1.08-.6,1.48-.08.21-.15.38-.19.5s-.07.19-.07.19l-7.91-2.86.08-.23c.05-.15.13-.36.23-.6.2-.5.46-1.16.74-1.82s.59-1.29.81-1.78l.4-.79Z"/><path class="cls-1" d="M144.75,212.55l-.42.59c-.25.35-.61.82-.91,1.31s-.65,1-.86,1.35l-.37.63-7.29-4.19.45-.77c.26-.47.67-1.06,1.05-1.66s.81-1.17,1.12-1.61l.52-.72Z"/><path class="cls-1" d="M149.2,207.65l-.54.49c-.32.29-.71.73-1.12,1.14s-.79.86-1.08,1.18L146,211l-6.44-5.42.59-.67c.36-.4.82-.94,1.32-1.45s1-1,1.38-1.39l.65-.61Z"/><path class="cls-2" d="M157.09,207.72l-.49.33c-.32.23-.82.53-1.41,1a30.12,30.12,0,0,0-4.8,4.4,32,32,0,0,0-5.48,8.48,32.89,32.89,0,0,0-2.83,12.77,33.27,33.27,0,0,0,.73,7.46,31.92,31.92,0,0,0,2.65,7.57,32.86,32.86,0,0,0,4.71,7.07,31.28,31.28,0,0,0,3.1,3.1c.54.51,1.14,1,1.72,1.42l.91.65.45.33.48.31A33,33,0,0,0,174.37,268a32.75,32.75,0,0,0,32.8-37.8l-.08-.55-.11-.55-.23-1.11c-.19-.71-.34-1.44-.57-2.14a32.5,32.5,0,0,0-1.54-4.11,33.87,33.87,0,0,0-4.49-7.22,32.82,32.82,0,0,0-5.79-5.54,34.05,34.05,0,0,0-6.5-3.76,33,33,0,0,0-12.8-2.7,32.18,32.18,0,0,0-10,1.48,30.87,30.87,0,0,0-6,2.55c-.68.34-1.16.68-1.49.87l-.51.31-1.48-2.3.55-.34c.36-.21.88-.57,1.61-.94a33.63,33.63,0,0,1,6.49-2.77,35.11,35.11,0,0,1,10.83-1.6A35.88,35.88,0,0,1,189,202.7a36.43,36.43,0,0,1,7,4.07,35.2,35.2,0,0,1,6.28,6,36.26,36.26,0,0,1,4.86,7.81,35,35,0,0,1,1.67,4.46c.25.76.42,1.55.62,2.33.08.39.17.79.24,1.19l.12.6.09.6a35.49,35.49,0,0,1-54.54,35.13l-.52-.33-.49-.36-1-.71c-.62-.51-1.27-1-1.86-1.54a35.63,35.63,0,0,1-3.37-3.36A36.3,36.3,0,0,1,143,251a35.53,35.53,0,0,1-2.87-8.21,36.6,36.6,0,0,1-.79-8.09,35.78,35.78,0,0,1,3.07-13.84,34.75,34.75,0,0,1,5.94-9.19,33.52,33.52,0,0,1,5.2-4.77c.64-.5,1.18-.83,1.53-1.07l.53-.36Z"/><path class="cls-3" d="M147.2,253a32.85,32.85,0,1,1,45.4,9.83A32.85,32.85,0,0,1,147.2,253Z"/><polygon class="cls-4" points="153.1 199.89 152.24 200.44 147.71 193.37 127.73 110.67 135.86 105.44 136.42 106.3 128.9 111.14 148.69 193.05 153.1 199.89"/><polygon class="cls-4" points="131.46 109.49 128.39 111.47 73.64 94.19 69.52 87.79 70.38 87.23 74.31 93.33 128.24 110.35 130.91 108.63 131.46 109.49"/><rect class="cls-4" x="148.4" y="195.9" width="8.54" height="8.54" transform="translate(-84.07 114.55) rotate(-32.78)"/><rect class="cls-4" x="65.68" y="83.24" width="8.54" height="8.54" transform="translate(-36.24 51.81) rotate(-32.78)"/><rect class="cls-4" x="131.87" y="101.6" width="8.54" height="8.54" transform="translate(-35.64 90.56) rotate(-32.78)"/><path class="cls-1" d="M142.5,101.54l.5.74c.34.48.8,1.23,1.51,2.13a47.49,47.49,0,0,0,6.69,7.31,49.25,49.25,0,0,0,12.89,8.33,50.36,50.36,0,0,0,19.39,4.3,51.36,51.36,0,0,0,11.35-1.11,50.13,50.13,0,0,0,22.23-11.17,51.28,51.28,0,0,0,4.72-4.72c.76-.83,1.44-1.74,2.15-2.62.33-.46.67-.92,1-1.39s.66-.93,1-1.41a49.92,49.92,0,0,0,8.16-26.63,51.33,51.33,0,0,0-.41-7.22,49.35,49.35,0,0,0-4-14,54,54,0,0,0-3.5-6.43,55.41,55.41,0,0,0-4.4-5.84,49.45,49.45,0,0,0-11.07-9.42,50.8,50.8,0,0,0-6.4-3.37,50,50,0,0,0-27.63-3.59c-.57.08-1.13.18-1.69.3l-1.67.34c-1.1.28-2.2.52-3.27.87a50.34,50.34,0,0,0-6.26,2.34,51.15,51.15,0,0,0-10.93,6.8,49.65,49.65,0,0,0-8.43,8.82,49.72,49.72,0,0,0-9.82,29.3,49,49,0,0,0,2.25,15.19,47.68,47.68,0,0,0,3.88,9.11c.53,1,1,1.74,1.32,2.25l.47.77-2.88,1.85-.5-.81c-.32-.55-.84-1.33-1.41-2.41a51.68,51.68,0,0,1-4.15-9.74,52.86,52.86,0,0,1-2.4-16.24,53.15,53.15,0,0,1,10.49-31.31,53,53,0,0,1,9-9.43,54,54,0,0,1,11.68-7.26,51.81,51.81,0,0,1,6.68-2.5c1.15-.38,2.33-.64,3.5-.94.59-.13,1.19-.24,1.79-.36s1.2-.24,1.81-.32a53.37,53.37,0,0,1,29.52,3.83,55,55,0,0,1,6.83,3.6,54.08,54.08,0,0,1,6.29,4.59,55.4,55.4,0,0,1,5.56,5.49,59.54,59.54,0,0,1,4.7,6.24,58.34,58.34,0,0,1,3.73,6.86A52.56,52.56,0,0,1,237,67.63a57.12,57.12,0,0,1,.45,7.72,53.44,53.44,0,0,1-8.73,28.46c-.33.52-.67,1-1,1.51s-.7,1-1.07,1.48c-.76.94-1.48,1.91-2.3,2.8a53.39,53.39,0,0,1-5,5.05,54.33,54.33,0,0,1-11.45,7.62,52.5,52.5,0,0,1-12.31,4.31,54.33,54.33,0,0,1-12.13,1.19,53.79,53.79,0,0,1-20.72-4.59,52.76,52.76,0,0,1-13.78-8.91,50.61,50.61,0,0,1-7.15-7.81c-.76-1-1.25-1.76-1.61-2.28l-.54-.79Z"/><path class="cls-4" d="M149.17,97.25l.42.62c.29.4.67,1,1.27,1.79a39.35,39.35,0,0,0,5.62,6.14,41.37,41.37,0,0,0,10.83,7,42.2,42.2,0,0,0,16.31,3.62,43.13,43.13,0,0,0,9.53-.94,41.25,41.25,0,0,0,9.67-3.38,42.07,42.07,0,0,0,9-6,42.5,42.5,0,0,0,4-4c.64-.69,1.2-1.46,1.8-2.19l.84-1.17c.29-.38.56-.78.81-1.18a41.82,41.82,0,0,0-41.39-64.29,13.6,13.6,0,0,0-1.42.25l-1.4.28c-.92.24-1.85.44-2.75.74a41.25,41.25,0,0,0-14.45,7.69,41.52,41.52,0,0,0-7.09,7.4,42,42,0,0,0-8.25,24.64A41.53,41.53,0,0,0,144.4,87a39,39,0,0,0,3.27,7.66c.43.86.86,1.47,1.1,1.9l.4.65-.86.55-.4-.66c-.26-.45-.69-1.07-1.14-2a40.78,40.78,0,0,1-3.34-7.84,42.55,42.55,0,0,1-1.94-13.07A43.38,43.38,0,0,1,145,57.54,44,44,0,0,1,150,49a42.41,42.41,0,0,1,7.25-7.58,43.21,43.21,0,0,1,9.43-5.86,41.3,41.3,0,0,1,5.38-2c.92-.3,1.87-.51,2.81-.75l1.44-.29c.48-.11,1-.19,1.45-.26a42.84,42.84,0,0,1,42.41,65.85c-.26.42-.54.83-.83,1.22l-.86,1.19c-.62.76-1.2,1.54-1.86,2.25a41.05,41.05,0,0,1-4.06,4.07,43.65,43.65,0,0,1-9.23,6.15,42.57,42.57,0,0,1-9.91,3.47,44.08,44.08,0,0,1-9.77,1,43.26,43.26,0,0,1-16.7-3.71,42.33,42.33,0,0,1-11.1-7.17,40.06,40.06,0,0,1-5.75-6.29c-.62-.77-1-1.42-1.31-1.83l-.43-.64Z"/><path class="cls-2" d="M140.25,69.4s0,.48-.12,1.31c0,.42-.09.93-.11,1.51s-.08,1.24-.07,2a44.14,44.14,0,0,0,4.69,20.3c.67,1.26,1.24,2.32,1.69,3l.68,1.12-2.88,1.85-.73-1.21c-.49-.76-1.1-1.89-1.81-3.26a47.5,47.5,0,0,1-5.06-21.87c0-.77.06-1.48.07-2.11s.08-1.17.12-1.62c.09-.9.13-1.41.13-1.41Z"/><path class="cls-2" d="M157.32,39.4l-.27.21c-.18.14-.45.33-.76.6l-1.16,1c-.45.38-.91.84-1.44,1.32a48.1,48.1,0,0,0-3.36,3.57A45.06,45.06,0,0,0,147,50.59,43.79,43.79,0,0,0,142.42,60c-.24.67-.45,1.3-.6,1.86s-.32,1-.42,1.45l-.3,1.28-3.34-.77s.12-.5.34-1.38c.1-.43.27-1,.44-1.56s.39-1.28.65-2a47.2,47.2,0,0,1,4.94-10.17,48.36,48.36,0,0,1,3.58-4.88A51.24,51.24,0,0,1,151.33,40c.57-.52,1.07-1,1.55-1.43l1.25-1c.34-.3.63-.5.82-.65l.29-.22Z"/><path class="cls-2" d="M190.73,30.71l-1.31-.19c-.83-.07-2-.21-3.45-.25a48.41,48.41,0,0,0-4.9.07,46.63,46.63,0,0,0-5.56.77,44,44,0,0,0-10,3.29c-1.31.6-2.34,1.2-3.08,1.59-.37.2-.64.38-.84.5l-.29.17-1.78-2.92.32-.19c.21-.12.5-.32.9-.54.79-.42,1.91-1.06,3.32-1.7a46.34,46.34,0,0,1,10.73-3.55,46.25,46.25,0,0,1,11.27-.91c1.54,0,2.82.2,3.72.28l1.4.19Z"/><path class="cls-2" d="M220.26,48.58l-.8-1c-.24-.34-.55-.75-.93-1.19s-.79-1-1.28-1.48a43.84,43.84,0,0,0-17.2-11.75c-1.35-.49-2.49-.87-3.29-1.09l-.94-.27-.33-.09.86-3.31.36.09,1,.29c.87.24,2.09.65,3.55,1.18a50.18,50.18,0,0,1,10,5.21,49,49,0,0,1,8.5,7.45c.53.56,1,1.12,1.38,1.6s.74.91,1,1.27l.85,1.13Z"/><path class="cls-2" d="M228,82.21l.06-.34c0-.22.08-.55.14-1,.13-.83.25-2,.37-3.45A45.82,45.82,0,0,0,228.05,67a45.17,45.17,0,0,0-3-10c-.27-.67-.59-1.25-.83-1.78s-.48-1-.68-1.34l-.63-1.16,3-1.69.68,1.24c.22.4.48.88.74,1.45s.59,1.2.89,1.91A47.53,47.53,0,0,1,232,77.69c-.12,1.54-.25,2.82-.4,3.71-.06.44-.11.79-.14,1s-.07.37-.07.37Z"/><path class="cls-2" d="M209.35,111.23l.29-.19c.18-.13.46-.3.79-.56.67-.51,1.64-1.21,2.72-2.15a43.22,43.22,0,0,0,7.12-7.7,43.91,43.91,0,0,0,5.1-9.17c.56-1.33.91-2.47,1.19-3.26l.38-1.26,3.28,1s-.14.5-.4,1.36-.69,2.08-1.29,3.5a50.47,50.47,0,0,1-2.25,4.77,48.36,48.36,0,0,1-3.24,5.11,46.14,46.14,0,0,1-7.67,8.3c-1.16,1-2.21,1.77-2.93,2.32-.35.28-.66.46-.85.6l-.31.21Z"/><path class="cls-2" d="M175.53,118.09l1.29.25c.41.08.91.13,1.49.22s1.23.16,1.95.22a43.36,43.36,0,0,0,10.49-.27,44.42,44.42,0,0,0,5.49-1.15,48.59,48.59,0,0,0,4.63-1.58c.66-.28,1.28-.52,1.8-.77l1.36-.65c.38-.17.67-.34.87-.44l.3-.17,1.61,3-.32.17c-.22.12-.52.3-.93.48l-1.47.7c-.57.28-1.23.53-1.94.83a50.44,50.44,0,0,1-5,1.71,48.78,48.78,0,0,1-5.92,1.24,47.08,47.08,0,0,1-11.3.29c-.77-.06-1.47-.14-2.09-.24s-1.17-.15-1.61-.24l-1.39-.27Z"/><path class="cls-2" d="M147,98.63l.74,1.09c.46.7,1.19,1.65,2.07,2.79a44.24,44.24,0,0,0,16.54,12.67c.64.31,1.27.52,1.8.75s1,.39,1.42.52l1.24.43-1,3.26-1.34-.46c-.42-.15-.94-.32-1.52-.57s-1.25-.47-1.95-.8a47.42,47.42,0,0,1-17.82-13.66c-1-1.21-1.73-2.24-2.22-3l-.8-1.17Z"/><path class="cls-3" d="M150.59,96.33a40.13,40.13,0,1,1,55.46,12A40.13,40.13,0,0,1,150.59,96.33Z"/><path class="cls-3" d="M17.66,64.9A34.23,34.23,0,1,1,65,75.14,34.23,34.23,0,0,1,17.66,64.9Z"/><path class="cls-4" d="M85,65.7,85.3,65c.11-.23.25-.52.4-.86s.32-.73.5-1.17a42.52,42.52,0,0,0,2.36-7.57c.08-.4.16-.82.25-1.23s.14-.85.21-1.29c.16-.87.22-1.79.33-2.72a46.16,46.16,0,0,0,.11-5.92A43.13,43.13,0,0,0,88.68,38a45.11,45.11,0,0,0-1.76-6.28,43.24,43.24,0,0,0-6.14-11.26,44,44,0,0,0-7.83-8,42.91,42.91,0,0,0-6.68-4.27c-.85-.45-1.54-.75-2-1C64,7.08,63.86,7,63.74,7l-.19-.08,1.32-3.06.2.09c.13,0,.33.13.58.25.49.25,1.24.57,2.15,1A45.51,45.51,0,0,1,83.44,18.42a47.82,47.82,0,0,1,3.7,5.71,51.37,51.37,0,0,1,2.91,6.4A48.54,48.54,0,0,1,92,37.31a46.89,46.89,0,0,1,.83,6.76,47.8,47.8,0,0,1-.11,6.37c-.12,1-.19,2-.36,2.93-.08.47-.15.93-.22,1.39s-.19.89-.28,1.32a45.75,45.75,0,0,1-2.53,8.15l-.54,1.27c-.17.36-.31.67-.44.92-.24.5-.36.77-.36.77Z"/><path class="cls-4" d="M42.22,3.52l-.2,0-.58.07c-.51.07-1.26.14-2.2.31a42.51,42.51,0,0,0-7.66,2,45,45,0,0,0-9.91,5.19,47.75,47.75,0,0,0-4.91,4A46.88,46.88,0,0,0,12.38,20a45.73,45.73,0,0,0-3.59,5.45,42.24,42.24,0,0,0-2.66,5.74,44.25,44.25,0,0,0-1.72,5.66c-.18.92-.4,1.81-.51,2.69-.07.44-.15.87-.2,1.29s-.1.84-.14,1.25A42.38,42.38,0,0,0,3.48,50c.06,1,.17,1.71.24,2.21s.1.78.1.78l-3.29.51s0-.29-.11-.84S.23,51.28.16,50.25a45.68,45.68,0,0,1,.09-8.54c0-.44.09-.89.15-1.34S.54,39.45.61,39c.13-.95.36-1.91.56-2.9A48.29,48.29,0,0,1,3,30,46.35,46.35,0,0,1,5.88,23.8a49.54,49.54,0,0,1,3.87-5.87,52.07,52.07,0,0,1,4.72-5.21,51.07,51.07,0,0,1,5.29-4.3,48.11,48.11,0,0,1,10.67-5.6A46,46,0,0,1,38.69.64c2-.33,3.21-.43,3.21-.43Z"/><path class="cls-4" d="M9.81,69.16l.44.65c.29.43.67,1.08,1.26,1.84a41.71,41.71,0,0,0,5.19,6,43.46,43.46,0,0,0,9,6.59,41.37,41.37,0,0,0,5.76,2.61c1,.39,2,.7,3.09,1s2.11.57,3.19.77A42.93,42.93,0,0,0,61.47,86.8a42.34,42.34,0,0,0,7.14-3.46c.84-.47,1.44-.92,1.88-1.19s.65-.44.65-.44l1.91,2.73s-.24.17-.71.47-1.12.78-2,1.28a45.84,45.84,0,0,1-7.69,3.73,46.4,46.4,0,0,1-25.53,2c-1.16-.22-2.3-.53-3.43-.83s-2.25-.68-3.33-1.09a44.86,44.86,0,0,1-6.2-2.82A46.87,46.87,0,0,1,14.4,80,45.26,45.26,0,0,1,8.8,73.6c-.62-.82-1-1.52-1.35-2L7,70.91Z"/><path class="cls-4" d="M74.4,79.2l.42-.38,1.11-1c.45-.42.95-.94,1.5-1.48s1.07-1.17,1.63-1.78,1.06-1.26,1.52-1.87.9-1.19,1.24-1.7.63-.94.83-1.24.3-.48.3-.48l2.82,1.77a5.69,5.69,0,0,1-.32.51l-.9,1.34c-.36.55-.85,1.16-1.33,1.83s-1.09,1.33-1.64,2-1.19,1.32-1.76,1.91-1.13,1.14-1.62,1.6L77,81.33l-.46.4Z"/><path class="cls-4" d="M59.7,5.43l-.53-.17c-.35-.1-.83-.27-1.43-.42a42.74,42.74,0,0,0-4.42-.95L52.11,3.7l-1.18-.13c-.77-.1-1.49-.13-2.1-.17s-1.13-.06-1.49-.06h-.56L46.8,0h.61c.39,0,.94,0,1.6.06s1.44.08,2.27.19L52.55.4l1.3.2a46.92,46.92,0,0,1,4.76,1c.65.16,1.17.34,1.54.45l.58.18Z"/><path class="cls-4" d="M4.67,57.11s0,.2.15.55.24.83.4,1.43.43,1.26.68,2,.58,1.48.88,2.25.67,1.5,1,2.19.68,1.32,1,1.86l1,1.78L7,70.91,5.87,69c-.32-.58-.67-1.27-1.06-2s-.72-1.56-1.09-2.36-.67-1.64-1-2.42S2.24,60.7,2,60.07L1.6,58.52c-.11-.37-.16-.58-.16-.58Z"/><path class="cls-2" d="M62.36,14.53l-.58-.28-.71-.34-1-.41a34.9,34.9,0,0,0-6.26-1.95l-1-.21-1.07-.17C51,11,50.27,11,49.5,10.89a39.39,39.39,0,0,0-4.89-.09,36.4,36.4,0,0,0-5.2.65,37.63,37.63,0,0,0-5.2,1.45A36.66,36.66,0,0,0,24.9,18a36.44,36.44,0,0,0-6.61,6.49A35.86,35.86,0,0,0,14.76,30c-.37.7-.62,1.28-.81,1.66-.09.18-.15.34-.19.44a1.15,1.15,0,0,1-.07.15l-2.52-1.09.06-.17c0-.1.11-.27.22-.47.2-.41.47-1,.86-1.78A37.84,37.84,0,0,1,23.24,15.78,40.38,40.38,0,0,1,28,12.72a40.88,40.88,0,0,1,5.3-2.4,40.26,40.26,0,0,1,5.6-1.57,39.31,39.31,0,0,1,5.6-.7,39.77,39.77,0,0,1,5.27.1c.83.1,1.65.15,2.43.3l1.14.18,1.1.23A37.78,37.78,0,0,1,61.15,11l1.05.45.76.36.64.3Z"/><path class="cls-2" d="M10.92,49.89v.17q0,.16.06.48c.06.42.11,1,.26,1.82a34.39,34.39,0,0,0,1.68,6.34,36.68,36.68,0,0,0,4.29,8.2A40,40,0,0,0,20.53,71a38.4,38.4,0,0,0,4,3.63,37.71,37.71,0,0,0,4.51,3,34.93,34.93,0,0,0,4.75,2.2,36.45,36.45,0,0,0,4.68,1.42c.76.15,1.5.33,2.23.43.36,0,.71.12,1.06.16l1,.12a34.41,34.41,0,0,0,6.55.06c.8,0,1.41-.14,1.83-.19l.65-.09.42,2.72-.7.1c-.45.06-1.12.15-2,.21a38.26,38.26,0,0,1-7.06-.07L41.4,84.5l-1.14-.17c-.79-.11-1.58-.3-2.4-.47a39.39,39.39,0,0,1-5-1.52,38.37,38.37,0,0,1-10-5.58A38.12,38.12,0,0,1,15,68.48a39.69,39.69,0,0,1-4.63-8.83,38.21,38.21,0,0,1-1.81-6.83c-.27-1.69-.35-2.66-.35-2.66Z"/><path class="cls-2" d="M65.23,76.71l.54-.36c.35-.24.89-.56,1.52-1A33.64,33.64,0,0,0,72.24,71a35.61,35.61,0,0,0,5.45-7.48,32.35,32.35,0,0,0,2.16-4.77c.33-.83.58-1.69.85-2.55s.47-1.75.63-2.64A35.25,35.25,0,0,0,81.9,43,35.09,35.09,0,0,0,77,28.06c-.39-.7-.77-1.19-1-1.56L75.62,26l2.25-1.58s.14.2.39.59.65.92,1.07,1.67A37.6,37.6,0,0,1,82.41,33,38.21,38.21,0,0,1,84,54.12c-.18,1-.44,1.9-.68,2.84s-.56,1.86-.91,2.76a37.44,37.44,0,0,1-2.33,5.13,39,39,0,0,1-5.87,8.06,37.39,37.39,0,0,1-5.34,4.64c-.67.51-1.25.86-1.63,1.11l-.59.39Z"/><path class="cls-2" d="M73.54,23.27l-.31-.35L72.4,22c-.35-.37-.77-.78-1.22-1.24s-1-.89-1.47-1.35-1-.87-1.55-1.26-1-.74-1.41-1l-1-.69c-.25-.17-.4-.25-.4-.25l1.46-2.34s.16.09.43.27l1.1.74c.46.31,1,.71,1.52,1.11s1.1.89,1.67,1.36,1.09,1,1.59,1.45.94.94,1.31,1.34l.89,1,.34.37Z"/><path class="cls-2" d="M12.5,35.42s-.06.17-.14.45-.23.69-.35,1.19a36.41,36.41,0,0,0-.79,3.65c-.05.34-.11.67-.16,1s-.07.66-.11,1c-.08.63-.11,1.23-.14,1.74s-.05.93-.05,1.23v.47L8,46.1s0-.18,0-.5,0-.78.05-1.33.07-1.19.16-1.87c0-.34.07-.69.11-1s.12-.72.17-1.08a38.28,38.28,0,0,1,.85-3.94c.13-.53.28-1,.37-1.27s.15-.48.15-.48Z"/><path class="cls-2" d="M55.26,81l.45-.12,1.19-.34c.49-.15,1-.36,1.65-.56s1.22-.48,1.86-.73,1.24-.55,1.81-.84,1.09-.56,1.54-.81l1.47-.86,1.45,2.34L65.1,80l-1.66.87c-.61.31-1.28.6-1.95.9s-1.36.56-2,.79-1.26.44-1.78.6l-1.28.37-.48.13Z"/></g></g></svg>