<svg xmlns="http://www.w3.org/2000/svg" viewBox="0 0 88.6 28.96"><defs><style>.cls-1{fill:#ff7000;}.cls-2{fill:#00b8de;}</style></defs><title>资源 15</title><g id="图层_2" data-name="图层 2"><g id="Layer_1" data-name="Layer 1"><path class="cls-1" d="M6.48,12.12V12H6.35v.14Zm0,.28v-.14H6.35v.14Zm0,.27v-.13H6.35v.13Zm0,.28v-.14H6.35V13Zm0,.28v-.14H6.35v.14Zm0,.28v-.14H6.35v.14Zm0,.28v-.14H6.35v.14Z"/><path class="cls-1" d="M7.45,9.89V9.78H7.31v.11Zm0,.28V10H7.31v.14Zm0,.28v-.14H7.31v.14Zm0,.27v-.14H7.31v.14Zm0,.28v-.14H7.31V11Zm0,.28v-.14H7.31v.14Zm0,.28v-.14H7.31v.14Zm0,.28V11.7H7.31v.14Zm0,.28V12H7.31v.14Zm0,.28v-.14H7.31v.14Zm0,.27v-.13H7.31v.13Zm0,.28v-.14H7.31V13Zm0,.28v-.14H7.31v.14Zm0,.28v-.14H7.31v.14Zm0,.28v-.14H7.31v.14Z"/><path class="cls-1" d="M8.41,9.61V9.48H8.27v.13Zm0,.28V9.75H8.27v.14Zm0,.28V10H8.27v.14Zm0,.28v-.14H8.27v.14Zm0,.27v-.14H8.27v.14Zm0,.28v-.14H8.27V11Zm0,.28v-.14H8.27v.14Zm0,.28v-.14H8.27v.14Zm0,.28V11.7H8.27v.14Zm0,.28V12H8.27v.14Zm0,.28v-.14H8.27v.14Zm0,.27v-.13H8.27v.13Zm0,.28v-.14H8.27V13Zm0,.28v-.14H8.27v.14Zm0,.28v-.14H8.27v.14Zm0,.28v-.14H8.27v.14Z"/><path class="cls-1" d="M9.35,11.84V11.7H9.21v.14Zm0,.28V12H9.21v.14Zm0,.28v-.14H9.21v.14Zm0,.27v-.13H9.21v.13Zm0,.28v-.14H9.21V13Zm0,.28v-.14H9.21v.14Zm0,.28v-.14H9.21v.14Zm0,.28v-.14H9.21v.14Z"/><path class="cls-1" d="M10.31,12.12V12h-.14v.13Zm0,.28v-.14h-.14v.14Zm0,.27v-.13h-.14v.13Zm0,.28v-.14h-.14V13Zm0,.28v-.14h-.14v.14Zm0,.28v-.14h-.14v.14Zm0,.28v-.14h-.14v.14Z"/><path class="cls-1" d="M11.27,10.72v-.14h-.14v.14Zm0,.28v-.14h-.14V11Zm0,.28v-.14h-.14v.14Zm0,.28v-.14h-.14v.14Zm0,.28V11.7h-.14v.14Zm0,.28V12h-.14v.14Zm0,.28v-.14h-.14v.14Zm0,.27v-.13h-.14v.13Zm0,.28v-.14h-.14V13Zm0,.28v-.14h-.14v.14Zm0,.28v-.14h-.14v.14Zm0,.28v-.14h-.14v.14Z"/><path class="cls-1" d="M12.23,7.38V7.31h-.14v.07Zm0,.28V7.52h-.14v.14Zm0,.28V7.8h-.14v.14Zm0,.28V8.08h-.14v.14Zm0,.28V8.36h-.14V8.5Zm0,.27V8.64h-.14v.13Zm0,.28V8.91h-.14v.14Zm0,.28V9.19h-.14v.14Zm0,.28V9.47h-.14v.14Zm0,.28V9.75h-.14v.14Zm0,.28V10h-.14v.14Zm0,.28v-.14h-.14v.14Zm0,.27v-.14h-.14v.14Zm0,.28v-.14h-.14V11Zm0,.28v-.14h-.14v.14Zm0,.28v-.14h-.14v.14Zm0,.28V11.7h-.14v.14Zm0,.28V12h-.14v.14Zm0,.28v-.14h-.14v.14Zm0,.27v-.13h-.14v.13Zm0,.28v-.14h-.14V13Zm0,.28v-.14h-.14v.14Zm0,.28v-.14h-.14v.14Zm0,.28v-.14h-.14v.14Z"/><path class="cls-1" d="M13.19,4.32V4.18h-.14v.14Zm0,.28V4.46h-.14V4.6Zm0,.28V4.74h-.14v.14Zm0,.27V5h-.14v.14Zm0,.28V5.29h-.14v.14Zm0,.28V5.57h-.14v.14Zm0,.28V5.85h-.14V6Zm0,.28V6.13h-.14v.14Zm0,.28V6.41h-.14v.14Zm0,.27V6.69h-.14v.13Zm0,.28V7h-.14V7.1Zm0,.28V7.24h-.14v.14Zm0,.28V7.52h-.14v.14Zm0,.28V7.8h-.14v.14Zm0,.28V8.08h-.14v.14Zm0,.28V8.36h-.14V8.5Zm0,.27V8.64h-.14v.13Zm0,.28V8.91h-.14v.14Zm0,.28V9.19h-.14v.14Zm0,.28V9.47h-.14v.14Zm0,.28V9.75h-.14v.14Zm0,.28V10h-.14v.14Zm0,.28v-.14h-.14v.14Zm0,.27v-.14h-.14v.14Zm0,.28v-.14h-.14V11Zm0,.28v-.14h-.14v.14Zm0,.28v-.14h-.14v.14Zm0,.28V11.7h-.14v.14Zm0,.28V12h-.14v.14Zm0,.28v-.14h-.14v.14Zm0,.27v-.13h-.14v.13Zm0,.28v-.14h-.14V13Zm0,.28v-.14h-.14v.14Zm0,.28v-.14h-.14v.14Zm0,.28v-.14h-.14v.14Z"/><path class="cls-1" d="M14.15,2.92V2.79H14v.13Zm0,.28V3.06H14V3.2Zm0,.28V3.34H14v.14Zm0,.28V3.62H14v.14Zm0,.28V3.9H14V4Zm0,.28V4.18H14v.14Zm0,.28V4.46H14V4.6Zm0,.28V4.74H14v.14Zm0,.27V5H14v.14Zm0,.28V5.29H14v.14Zm0,.28V5.57H14v.14Zm0,.28V5.85H14V6Zm0,.28V6.13H14v.14Zm0,.28V6.41H14v.14Zm0,.27V6.69H14v.13Zm0,.28V7H14V7.1Zm0,.28V7.24H14v.14Zm0,.28V7.52H14v.14Zm0,.28V7.8H14v.14Zm0,.28V8.08H14v.14Zm0,.28V8.36H14V8.5Zm0,.27V8.64H14v.13Zm0,.28V8.91H14v.14Zm0,.28V9.19H14v.14Zm0,.28V9.47H14v.14Zm0,.28V9.75H14v.14Zm0,.28V10H14v.14Zm0,.28v-.14H14v.14Zm0,.27v-.14H14v.14Zm0,.28v-.14H14V11Zm0,.28v-.14H14v.14Zm0,.28v-.14H14v.14Zm0,.28V11.7H14v.14Zm0,.28V12H14v.14Zm0,.28v-.14H14v.14Zm0,.27v-.13H14v.13Zm0,.28v-.14H14V13Zm0,.28v-.14H14v.14Zm0,.28v-.14H14v.14Zm0,.28v-.14H14v.14Z"/><path class="cls-1" d="M15.12,3.2V3.11H15V3.2Zm0,.28V3.34H15v.14Zm0,.28V3.62H15v.14Zm0,.28V3.9H15V4Zm0,.28V4.18H15v.14Zm0,.28V4.46H15V4.6Zm0,.28V4.74H15v.14Zm0,.27V5H15v.14Zm0,.28V5.29H15v.14Zm0,.28V5.57H15v.14Zm0,.28V5.85H15V6Zm0,.28V6.13H15v.14Zm0,.28V6.41H15v.14Zm0,.27V6.69H15v.13Zm0,.28V7H15V7.1Zm0,.28V7.24H15v.14Zm0,.28V7.52H15v.14Zm0,.28V7.8H15v.14Zm0,.28V8.08H15v.14Zm0,.28V8.36H15V8.5Zm0,.27V8.64H15v.13Zm0,.28V8.91H15v.14Zm0,.28V9.19H15v.14Zm0,.28V9.47H15v.14Zm0,.28V9.75H15v.14Zm0,.28V10H15v.14Zm0,.28v-.14H15v.14Zm0,.27v-.14H15v.14Zm0,.28v-.14H15V11Zm0,.28v-.14H15v.14Zm0,.28v-.14H15v.14Zm0,.28V11.7H15v.14Zm0,.28V12H15v.14Zm0,.28v-.14H15v.14Zm0,.27v-.13H15v.13Zm0,.28v-.14H15V13Zm0,.28v-.14H15v.14Zm0,.28v-.14H15v.14Zm0,.28v-.14H15v.14Z"/><path class="cls-1" d="M16.08,4.6V4.46h-.14V4.6Zm0,.28V4.74h-.14v.14Zm0,.27V5h-.14v.14Zm0,.28V5.29h-.14v.14Zm0,.28V5.57h-.14v.14Zm0,.28V5.85h-.14V6Zm0,.28V6.13h-.14v.14Zm0,.28V6.41h-.14v.14Zm0,.27V6.69h-.14v.13Zm0,.28V7h-.14V7.1Zm0,.28V7.24h-.14v.14Zm0,.28V7.52h-.14v.14Zm0,.28V7.8h-.14v.14Zm0,.28V8.08h-.14v.14Zm0,.28V8.36h-.14V8.5Zm0,.27V8.64h-.14v.13Zm0,.28V8.91h-.14v.14Zm0,.28V9.19h-.14v.14Zm0,.28V9.47h-.14v.14Zm0,.28V9.75h-.14v.14Zm0,.28V10h-.14v.14Zm0,.28v-.14h-.14v.14Zm0,.27v-.14h-.14v.14Zm0,.28v-.14h-.14V11Zm0,.28v-.14h-.14v.14Zm0,.28v-.14h-.14v.14Zm0,.28V11.7h-.14v.14Zm0,.28V12h-.14v.14Zm0,.28v-.14h-.14v.14Zm0,.27v-.13h-.14v.13Zm0,.28v-.14h-.14V13Zm0,.28v-.14h-.14v.14Zm0,.28v-.14h-.14v.14Zm0,.28v-.14h-.14v.14Z"/><path class="cls-1" d="M17,6.27V6.13H16.9v.14Zm0,.28V6.41H16.9v.14Zm0,.27V6.69H16.9v.13Zm0,.28V7H16.9V7.1Zm0,.28V7.24H16.9v.14Zm0,.28V7.52H16.9v.14Zm0,.28V7.8H16.9v.14Zm0,.28V8.08H16.9v.14Zm0,.28V8.36H16.9V8.5Zm0,.27V8.64H16.9v.13Zm0,.28V8.91H16.9v.14Zm0,.28V9.19H16.9v.14Zm0,.28V9.47H16.9v.14Zm0,.28V9.75H16.9v.14Zm0,.28V10H16.9v.14Zm0,.28v-.14H16.9v.14Zm0,.27v-.14H16.9v.14ZM17,11v-.14H16.9V11Zm0,.28v-.14H16.9v.14Zm0,.28v-.14H16.9v.14Zm0,.28V11.7H16.9v.14Zm0,.28V12H16.9v.14Zm0,.28v-.14H16.9v.14Zm0,.27v-.13H16.9v.13ZM17,13v-.14H16.9V13Zm0,.28v-.14H16.9v.14Zm0,.28v-.14H16.9v.14Zm0,.28v-.14H16.9v.14Z"/><path class="cls-1" d="M18,7.94V7.8h-.14v.14Zm0,.28V8.08h-.14v.14Zm0,.28V8.36h-.14V8.5Zm0,.27V8.64h-.14v.13Zm0,.28V8.91h-.14v.14Zm0,.28V9.19h-.14v.14Zm0,.28V9.47h-.14v.14Zm0,.28V9.75h-.14v.14Zm0,.28V10h-.14v.14Zm0,.28v-.14h-.14v.14Zm0,.27v-.14h-.14v.14ZM18,11v-.14h-.14V11Zm0,.28v-.14h-.14v.14Zm0,.28v-.14h-.14v.14Zm0,.28V11.7h-.14v.14Zm0,.28V12h-.14v.14Zm0,.28v-.14h-.14v.14Zm0,.27v-.13h-.14v.13ZM18,13v-.14h-.14V13Zm0,.28v-.14h-.14v.14Zm0,.28v-.14h-.14v.14Zm0,.28v-.14h-.14v.14Z"/><path class="cls-1" d="M19,9.33v0h-.14v0Zm0,.28V9.47h-.14v.14Zm0,.28V9.75h-.14v.14Zm0,.28V10h-.14v.14Zm0,.28v-.14h-.14v.14Zm0,.27v-.14h-.14v.14ZM19,11v-.14h-.14V11Zm0,.28v-.14h-.14v.14Zm0,.28v-.14h-.14v.14Zm0,.28V11.7h-.14v.14Zm0,.28V12h-.14v.14Zm0,.28v-.14h-.14v.14Zm0,.27v-.13h-.14v.13ZM19,13v-.14h-.14V13Zm0,.28v-.14h-.14v.14Zm0,.28v-.14h-.14v.14Zm0,.28v-.14h-.14v.14Z"/><path class="cls-1" d="M19.92,10.45Zm0,.27v-.14h-.14v.14Zm0,.28v-.14h-.14V11Zm0,.28v-.14h-.14v.14Zm0,.28v-.14h-.14v.14Zm0,.28V11.7h-.14v.14Zm0,.28V12h-.14v.14Zm0,.28v-.14h-.14v.14Zm0,.27v-.13h-.14v.13Zm0,.28v-.14h-.14V13Zm0,.28v-.14h-.14v.14Zm0,.28v-.14h-.14v.14Zm0,.28v-.14h-.14v.14Z"/><path class="cls-1" d="M20.86,11v-.14h-.14V11Zm0,.28v-.14h-.14v.14Zm0,.28v-.14h-.14v.14Zm0,.28V11.7h-.14v.14Zm0,.28V12h-.14v.14Zm0,.28v-.14h-.14v.14Zm0,.27v-.13h-.14v.13Zm0,.28v-.14h-.14V13Zm0,.28v-.14h-.14v.14Zm0,.28v-.14h-.14v.14Zm0,.28v-.14h-.14v.14Z"/><path class="cls-1" d="M21.82,10.17v0h-.14v0Zm0,.28v-.14h-.14v.14Zm0,.27v-.14h-.14v.14Zm0,.28v-.14h-.14V11Zm0,.28v-.14h-.14v.14Zm0,.28v-.14h-.14v.14Zm0,.28V11.7h-.14v.14Zm0,.28V12h-.14v.14Zm0,.28v-.14h-.14v.14Zm0,.27v-.13h-.14v.13Zm0,.28v-.14h-.14V13Zm0,.28v-.14h-.14v.14Zm0,.28v-.14h-.14v.14Zm0,.28v-.14h-.14v.14Z"/><path class="cls-1" d="M22.78,9.05V8.91h-.14v.14Zm0,.28V9.19h-.14v.14Zm0,.28V9.47h-.14v.14Zm0,.28V9.75h-.14v.14Zm0,.28V10h-.14v.14Zm0,.28v-.14h-.14v.14Zm0,.27v-.14h-.14v.14Zm0,.28v-.14h-.14V11Zm0,.28v-.14h-.14v.14Zm0,.28v-.14h-.14v.14Zm0,.28V11.7h-.14v.14Zm0,.28V12h-.14v.14Zm0,.28v-.14h-.14v.14Zm0,.27v-.13h-.14v.13Zm0,.28v-.14h-.14V13Zm0,.28v-.14h-.14v.14Zm0,.28v-.14h-.14v.14Zm0,.28v-.14h-.14v.14Z"/><path class="cls-1" d="M23.75,7.38V7.24h-.14v.14Zm0,.28V7.52h-.14v.14Zm0,.28V7.8h-.14v.14Zm0,.28V8.08h-.14v.14Zm0,.28V8.36h-.14V8.5Zm0,.27V8.64h-.14v.13Zm0,.28V8.91h-.14v.14Zm0,.28V9.19h-.14v.14Zm0,.28V9.47h-.14v.14Zm0,.28V9.75h-.14v.14Zm0,.28V10h-.14v.14Zm0,.28v-.14h-.14v.14Zm0,.27v-.14h-.14v.14Zm0,.28v-.14h-.14V11Zm0,.28v-.14h-.14v.14Zm0,.28v-.14h-.14v.14Zm0,.28V11.7h-.14v.14Zm0,.28V12h-.14v.14Zm0,.28v-.14h-.14v.14Zm0,.27v-.13h-.14v.13Zm0,.28v-.14h-.14V13Zm0,.28v-.14h-.14v.14Zm0,.28v-.14h-.14v.14Zm0,.28v-.14h-.14v.14Z"/><path class="cls-1" d="M24.71,5.43V5.29h-.14v.14Zm0,.28V5.57h-.14v.14Zm0,.28V5.85h-.14V6Zm0,.28V6.13h-.14v.14Zm0,.28V6.41h-.14v.14Zm0,.27V6.69h-.14v.13Zm0,.28V7h-.14V7.1Zm0,.28V7.24h-.14v.14Zm0,.28V7.52h-.14v.14Zm0,.28V7.8h-.14v.14Zm0,.28V8.08h-.14v.14Zm0,.28V8.36h-.14V8.5Zm0,.27V8.64h-.14v.13Zm0,.28V8.91h-.14v.14Zm0,.28V9.19h-.14v.14Zm0,.28V9.47h-.14v.14Zm0,.28V9.75h-.14v.14Zm0,.28V10h-.14v.14Zm0,.28v-.14h-.14v.14Zm0,.27v-.14h-.14v.14Zm0,.28v-.14h-.14V11Zm0,.28v-.14h-.14v.14Zm0,.28v-.14h-.14v.14Zm0,.28V11.7h-.14v.14Zm0,.28V12h-.14v.14Zm0,.28v-.14h-.14v.14Zm0,.27v-.13h-.14v.13Zm0,.28v-.14h-.14V13Zm0,.28v-.14h-.14v.14Zm0,.28v-.14h-.14v.14Zm0,.28v-.14h-.14v.14Z"/><path class="cls-1" d="M25.67,3.48V3.4h-.14v.08Zm0,.28V3.62h-.14v.14Zm0,.28V3.9h-.14V4Zm0,.28V4.18h-.14v.14Zm0,.28V4.46h-.14V4.6Zm0,.28V4.74h-.14v.14Zm0,.27V5h-.14v.14Zm0,.28V5.29h-.14v.14Zm0,.28V5.57h-.14v.14Zm0,.28V5.85h-.14V6Zm0,.28V6.13h-.14v.14Zm0,.28V6.41h-.14v.14Zm0,.27V6.69h-.14v.13Zm0,.28V7h-.14V7.1Zm0,.28V7.24h-.14v.14Zm0,.28V7.52h-.14v.14Zm0,.28V7.8h-.14v.14Zm0,.28V8.08h-.14v.14Zm0,.28V8.36h-.14V8.5Zm0,.27V8.64h-.14v.13Zm0,.28V8.91h-.14v.14Zm0,.28V9.19h-.14v.14Zm0,.28V9.47h-.14v.14Zm0,.28V9.75h-.14v.14Zm0,.28V10h-.14v.14Zm0,.28v-.14h-.14v.14Zm0,.27v-.14h-.14v.14Zm0,.28v-.14h-.14V11Zm0,.28v-.14h-.14v.14Zm0,.28v-.14h-.14v.14Zm0,.28V11.7h-.14v.14Zm0,.28V12h-.14v.14Zm0,.28v-.14h-.14v.14Zm0,.27v-.13h-.14v.13Zm0,.28v-.14h-.14V13Zm0,.28v-.14h-.14v.14Zm0,.28v-.14h-.14v.14Zm0,.28v-.14h-.14v.14Z"/><path class="cls-1" d="M26.63,4.88V4.76h-.14v.12Zm0,.27V5h-.14v.14Zm0,.28V5.29h-.14v.14Zm0,.28V5.57h-.14v.14Zm0,.28V5.85h-.14V6Zm0,.28V6.13h-.14v.14Zm0,.28V6.41h-.14v.14Zm0,.27V6.69h-.14v.13Zm0,.28V7h-.14V7.1Zm0,.28V7.24h-.14v.14Zm0,.28V7.52h-.14v.14Zm0,.28V7.8h-.14v.14Zm0,.28V8.08h-.14v.14Zm0,.28V8.36h-.14V8.5Zm0,.27V8.64h-.14v.13Zm0,.28V8.91h-.14v.14Zm0,.28V9.19h-.14v.14Zm0,.28V9.47h-.14v.14Zm0,.28V9.75h-.14v.14Zm0,.28V10h-.14v.14Zm0,.28v-.14h-.14v.14Zm0,.27v-.14h-.14v.14Zm0,.28v-.14h-.14V11Zm0,.28v-.14h-.14v.14Zm0,.28v-.14h-.14v.14Zm0,.28V11.7h-.14v.14Zm0,.28V12h-.14v.14Zm0,.28v-.14h-.14v.14Zm0,.27v-.13h-.14v.13Zm0,.28v-.14h-.14V13Zm0,.28v-.14h-.14v.14Zm0,.28v-.14h-.14v.14Zm0,.28v-.14h-.14v.14Z"/><path class="cls-1" d="M27.59,7.38V7.24h-.14v.14Zm0,.28V7.52h-.14v.14Zm0,.28V7.8h-.14v.14Zm0,.28V8.08h-.14v.14Zm0,.28V8.36h-.14V8.5Zm0,.27V8.64h-.14v.13Zm0,.28V8.91h-.14v.14Zm0,.28V9.19h-.14v.14Zm0,.28V9.47h-.14v.14Zm0,.28V9.75h-.14v.14Zm0,.28V10h-.14v.14Zm0,.28v-.14h-.14v.14Zm0,.27v-.14h-.14v.14Zm0,.28v-.14h-.14V11Zm0,.28v-.14h-.14v.14Zm0,.28v-.14h-.14v.14Zm0,.28V11.7h-.14v.14Zm0,.28V12h-.14v.14Zm0,.28v-.14h-.14v.14Zm0,.27v-.13h-.14v.13Zm0,.28v-.14h-.14V13Zm0,.28v-.14h-.14v.14Zm0,.28v-.14h-.14v.14Zm0,.28v-.14h-.14v.14Z"/><path class="cls-1" d="M28.55,9.33v0h-.14v0Zm0,.28V9.47h-.14v.14Zm0,.28V9.75h-.14v.14Zm0,.28V10h-.14v.14Zm0,.28v-.14h-.14v.14Zm0,.27v-.14h-.14v.14Zm0,.28v-.14h-.14V11Zm0,.28v-.14h-.14v.14Zm0,.28v-.14h-.14v.14Zm0,.28V11.7h-.14v.14Zm0,.28V12h-.14v.14Zm0,.28v-.14h-.14v.14Zm0,.27v-.13h-.14v.13Zm0,.28v-.14h-.14V13Zm0,.28v-.14h-.14v.14Zm0,.28v-.14h-.14v.14Zm0,.28v-.14h-.14v.14Z"/><path class="cls-1" d="M29.51,11v-.14h-.14V11Zm0,.28v-.14h-.14v.14Zm0,.28v-.14h-.14v.14Zm0,.28V11.7h-.14v.14Zm0,.28V12h-.14v.14Zm0,.28v-.14h-.14v.14Zm0,.27v-.13h-.14v.13Zm0,.28v-.14h-.14V13Zm0,.28v-.14h-.14v.14Zm0,.28v-.14h-.14v.14Zm0,.28v-.14h-.14v.14Z"/><path class="cls-1" d="M30.47,11v-.14h-.13V11Zm0,.28v-.14h-.13v.14Zm0,.28v-.14h-.13v.14Zm0,.28V11.7h-.13v.14Zm0,.28V12h-.13v.14Zm0,.28v-.14h-.13v.14Zm0,.27v-.13h-.13v.13Zm0,.28v-.14h-.13V13Zm0,.28v-.14h-.13v.14Zm0,.28v-.14h-.13v.14Zm0,.28v-.14h-.13v.14Z"/><path class="cls-1" d="M31.44,9.33V9.19H31.3v.14Zm0,.28V9.47H31.3v.14Zm0,.28V9.75H31.3v.14Zm0,.28V10H31.3v.14Zm0,.28v-.14H31.3v.14Zm0,.27v-.14H31.3v.14Zm0,.28v-.14H31.3V11Zm0,.28v-.14H31.3v.14Zm0,.28v-.14H31.3v.14Zm0,.28V11.7H31.3v.14Zm0,.28V12H31.3v.14Zm0,.28v-.14H31.3v.14Zm0,.27v-.13H31.3v.13Zm0,.28v-.14H31.3V13Zm0,.28v-.14H31.3v.14Zm0,.28v-.14H31.3v.14Zm0,.28v-.14H31.3v.14Z"/><path class="cls-1" d="M32.38,7.1v0h-.14v0Zm0,.28V7.24h-.14v.14Zm0,.28V7.52h-.14v.14Zm0,.28V7.8h-.14v.14Zm0,.28V8.08h-.14v.14Zm0,.28V8.36h-.14V8.5Zm0,.27V8.64h-.14v.13Zm0,.28V8.91h-.14v.14Zm0,.28V9.19h-.14v.14Zm0,.28V9.47h-.14v.14Zm0,.28V9.75h-.14v.14Zm0,.28V10h-.14v.14Zm0,.28v-.14h-.14v.14Zm0,.27v-.14h-.14v.14Zm0,.28v-.14h-.14V11Zm0,.28v-.14h-.14v.14Zm0,.28v-.14h-.14v.14Zm0,.28V11.7h-.14v.14Zm0,.28V12h-.14v.14Zm0,.28v-.14h-.14v.14Zm0,.27v-.13h-.14v.13Zm0,.28v-.14h-.14V13Zm0,.28v-.14h-.14v.14Zm0,.28v-.14h-.14v.14Zm0,.28v-.14h-.14v.14Z"/><path class="cls-1" d="M33.34,5.43v0H33.2v0Zm0,.28V5.57H33.2v.14Zm0,.28V5.85H33.2V6Zm0,.28V6.13H33.2v.14Zm0,.28V6.41H33.2v.14Zm0,.27V6.69H33.2v.13Zm0,.28V7H33.2V7.1Zm0,.28V7.24H33.2v.14Zm0,.28V7.52H33.2v.14Zm0,.28V7.8H33.2v.14Zm0,.28V8.08H33.2v.14Zm0,.28V8.36H33.2V8.5Zm0,.27V8.64H33.2v.13Zm0,.28V8.91H33.2v.14Zm0,.28V9.19H33.2v.14Zm0,.28V9.47H33.2v.14Zm0,.28V9.75H33.2v.14Zm0,.28V10H33.2v.14Zm0,.28v-.14H33.2v.14Zm0,.27v-.14H33.2v.14Zm0,.28v-.14H33.2V11Zm0,.28v-.14H33.2v.14Zm0,.28v-.14H33.2v.14Zm0,.28V11.7H33.2v.14Zm0,.28V12H33.2v.14Zm0,.28v-.14H33.2v.14Zm0,.27v-.13H33.2v.13Zm0,.28v-.14H33.2V13Zm0,.28v-.14H33.2v.14Zm0,.28v-.14H33.2v.14Zm0,.28v-.14H33.2v.14Z"/><path class="cls-1" d="M34.3,4.88v0h-.14v0Zm0,.27V5h-.14v.14Zm0,.28V5.29h-.14v.14Zm0,.28V5.57h-.14v.14Zm0,.28V5.85h-.14V6Zm0,.28V6.13h-.14v.14Zm0,.28V6.41h-.14v.14Zm0,.27V6.69h-.14v.13Zm0,.28V7h-.14V7.1Zm0,.28V7.24h-.14v.14Zm0,.28V7.52h-.14v.14Zm0,.28V7.8h-.14v.14Zm0,.28V8.08h-.14v.14Zm0,.28V8.36h-.14V8.5Zm0,.27V8.64h-.14v.13Zm0,.28V8.91h-.14v.14Zm0,.28V9.19h-.14v.14Zm0,.28V9.47h-.14v.14Zm0,.28V9.75h-.14v.14Zm0,.28V10h-.14v.14Zm0,.28v-.14h-.14v.14Zm0,.27v-.14h-.14v.14Zm0,.28v-.14h-.14V11Zm0,.28v-.14h-.14v.14Zm0,.28v-.14h-.14v.14Zm0,.28V11.7h-.14v.14Zm0,.28V12h-.14v.14Zm0,.28v-.14h-.14v.14Zm0,.27v-.13h-.14v.13Zm0,.28v-.14h-.14V13Zm0,.28v-.14h-.14v.14Zm0,.28v-.14h-.14v.14Zm0,.28v-.14h-.14v.14Z"/><path class="cls-1" d="M35.26,5.15V5h-.14v.14Zm0,.28V5.29h-.14v.14Zm0,.28V5.57h-.14v.14Zm0,.28V5.85h-.14V6Zm0,.28V6.13h-.14v.14Zm0,.28V6.41h-.14v.14Zm0,.27V6.69h-.14v.13Zm0,.28V7h-.14V7.1Zm0,.28V7.24h-.14v.14Zm0,.28V7.52h-.14v.14Zm0,.28V7.8h-.14v.14Zm0,.28V8.08h-.14v.14Zm0,.28V8.36h-.14V8.5Zm0,.27V8.64h-.14v.13Zm0,.28V8.91h-.14v.14Zm0,.28V9.19h-.14v.14Zm0,.28V9.47h-.14v.14Zm0,.28V9.75h-.14v.14Zm0,.28V10h-.14v.14Zm0,.28v-.14h-.14v.14Zm0,.27v-.14h-.14v.14Zm0,.28v-.14h-.14V11Zm0,.28v-.14h-.14v.14Zm0,.28v-.14h-.14v.14Zm0,.28V11.7h-.14v.14Zm0,.28V12h-.14v.14Zm0,.28v-.14h-.14v.14Zm0,.27v-.13h-.14v.13Zm0,.28v-.14h-.14V13Zm0,.28v-.14h-.14v.14Zm0,.28v-.14h-.14v.14Zm0,.28v-.14h-.14v.14Z"/><path class="cls-1" d="M36.22,5.43V5.29h-.14v.14Zm0,.28V5.57h-.14v.14Zm0,.28V5.85h-.14V6Zm0,.28V6.13h-.14v.14Zm0,.28V6.41h-.14v.14Zm0,.27V6.69h-.14v.13Zm0,.28V7h-.14V7.1Zm0,.28V7.24h-.14v.14Zm0,.28V7.52h-.14v.14Zm0,.28V7.8h-.14v.14Zm0,.28V8.08h-.14v.14Zm0,.28V8.36h-.14V8.5Zm0,.27V8.64h-.14v.13Zm0,.28V8.91h-.14v.14Zm0,.28V9.19h-.14v.14Zm0,.28V9.47h-.14v.14Zm0,.28V9.75h-.14v.14Zm0,.28V10h-.14v.14Zm0,.28v-.14h-.14v.14Zm0,.27v-.14h-.14v.14Zm0,.28v-.14h-.14V11Zm0,.28v-.14h-.14v.14Zm0,.28v-.14h-.14v.14Zm0,.28V11.7h-.14v.14Zm0,.28V12h-.14v.14Zm0,.28v-.14h-.14v.14Zm0,.27v-.13h-.14v.13Zm0,.28v-.14h-.14V13Zm0,.28v-.14h-.14v.14Zm0,.28v-.14h-.14v.14Zm0,.28v-.14h-.14v.14Z"/><path class="cls-1" d="M37.18,5.71V5.62H37v.09Zm0,.28V5.85H37V6Zm0,.28V6.13H37v.14Zm0,.28V6.41H37v.14Zm0,.27V6.69H37v.13Zm0,.28V7H37V7.1Zm0,.28V7.24H37v.14Zm0,.28V7.52H37v.14Zm0,.28V7.8H37v.14Zm0,.28V8.08H37v.14Zm0,.28V8.36H37V8.5Zm0,.27V8.64H37v.13Zm0,.28V8.91H37v.14Zm0,.28V9.19H37v.14Zm0,.28V9.47H37v.14Zm0,.28V9.75H37v.14Zm0,.28V10H37v.14Zm0,.28v-.14H37v.14Zm0,.27v-.14H37v.14Zm0,.28v-.14H37V11Zm0,.28v-.14H37v.14Zm0,.28v-.14H37v.14Zm0,.28V11.7H37v.14Zm0,.28V12H37v.14Zm0,.28v-.14H37v.14Zm0,.27v-.13H37v.13Zm0,.28v-.14H37V13Zm0,.28v-.14H37v.14Zm0,.28v-.14H37v.14Zm0,.28v-.14H37v.14Z"/><path class="cls-1" d="M38.14,6.27V6.13H38v.14Zm0,.28V6.41H38v.14Zm0,.27V6.69H38v.13Zm0,.28V7H38V7.1Zm0,.28V7.24H38v.14Zm0,.28V7.52H38v.14Zm0,.28V7.8H38v.14Zm0,.28V8.08H38v.14Zm0,.28V8.36H38V8.5Zm0,.27V8.64H38v.13Zm0,.28V8.91H38v.14Zm0,.28V9.19H38v.14Zm0,.28V9.47H38v.14Zm0,.28V9.75H38v.14Zm0,.28V10H38v.14Zm0,.28v-.14H38v.14Zm0,.27v-.14H38v.14Zm0,.28v-.14H38V11Zm0,.28v-.14H38v.14Zm0,.28v-.14H38v.14Zm0,.28V11.7H38v.14Zm0,.28V12H38v.14Zm0,.28v-.14H38v.14Zm0,.27v-.13H38v.13Zm0,.28v-.14H38V13Zm0,.28v-.14H38v.14Zm0,.28v-.14H38v.14Zm0,.28v-.14H38v.14Z"/><path class="cls-1" d="M39.11,6.82V6.69H39v.13Zm0,.28V7H39V7.1Zm0,.28V7.24H39v.14Zm0,.28V7.52H39v.14Zm0,.28V7.8H39v.14Zm0,.28V8.08H39v.14Zm0,.28V8.36H39V8.5Zm0,.27V8.64H39v.13Zm0,.28V8.91H39v.14Zm0,.28V9.19H39v.14Zm0,.28V9.47H39v.14Zm0,.28V9.75H39v.14Zm0,.28V10H39v.14Zm0,.28v-.14H39v.14Zm0,.27v-.14H39v.14Zm0,.28v-.14H39V11Zm0,.28v-.14H39v.14Zm0,.28v-.14H39v.14Zm0,.28V11.7H39v.14Zm0,.28V12H39v.14Zm0,.28v-.14H39v.14Zm0,.27v-.13H39v.13Zm0,.28v-.14H39V13Zm0,.28v-.14H39v.14Zm0,.28v-.14H39v.14Zm0,.28v-.14H39v.14Z"/><path class="cls-1" d="M40.07,7.1v0h-.14v0Zm0,.28V7.24h-.14v.14Zm0,.28V7.52h-.14v.14Zm0,.28V7.8h-.14v.14Zm0,.28V8.08h-.14v.14Zm0,.28V8.36h-.14V8.5Zm0,.27V8.64h-.14v.13Zm0,.28V8.91h-.14v.14Zm0,.28V9.19h-.14v.14Zm0,.28V9.47h-.14v.14Zm0,.28V9.75h-.14v.14Zm0,.28V10h-.14v.14Zm0,.28v-.14h-.14v.14Zm0,.27v-.14h-.14v.14Zm0,.28v-.14h-.14V11Zm0,.28v-.14h-.14v.14Zm0,.28v-.14h-.14v.14Zm0,.28V11.7h-.14v.14Zm0,.28V12h-.14v.14Zm0,.28v-.14h-.14v.14Zm0,.27v-.13h-.14v.13Zm0,.28v-.14h-.14V13Zm0,.28v-.14h-.14v.14Zm0,.28v-.14h-.14v.14Zm0,.28v-.14h-.14v.14Z"/><path class="cls-1" d="M41,7.66V7.52h-.14v.14Zm0,.28V7.8h-.14v.14Zm0,.28V8.08h-.14v.14Zm0,.28V8.36h-.14V8.5Zm0,.27V8.64h-.14v.13Zm0,.28V8.91h-.14v.14Zm0,.28V9.19h-.14v.14Zm0,.28V9.47h-.14v.14Zm0,.28V9.75h-.14v.14Zm0,.28V10h-.14v.14Zm0,.28v-.14h-.14v.14Zm0,.27v-.14h-.14v.14ZM41,11v-.14h-.14V11Zm0,.28v-.14h-.14v.14Zm0,.28v-.14h-.14v.14Zm0,.28V11.7h-.14v.14Zm0,.28V12h-.14v.14Zm0,.28v-.14h-.14v.14Zm0,.27v-.13h-.14v.13ZM41,13v-.14h-.14V13Zm0,.28v-.14h-.14v.14Zm0,.28v-.14h-.14v.14Zm0,.28v-.14h-.14v.14Z"/><path class="cls-1" d="M42,7.94V7.81h-.14v.13Zm0,.28V8.08h-.14v.14Zm0,.28V8.36h-.14V8.5Zm0,.27V8.64h-.14v.13Zm0,.28V8.91h-.14v.14Zm0,.28V9.19h-.14v.14Zm0,.28V9.47h-.14v.14Zm0,.28V9.75h-.14v.14Zm0,.28V10h-.14v.14Zm0,.28v-.14h-.14v.14Zm0,.27v-.14h-.14v.14ZM42,11v-.14h-.14V11Zm0,.28v-.14h-.14v.14Zm0,.28v-.14h-.14v.14Zm0,.28V11.7h-.14v.14Zm0,.28V12h-.14v.14Zm0,.28v-.14h-.14v.14Zm0,.27v-.13h-.14v.13ZM42,13v-.14h-.14V13Zm0,.28v-.14h-.14v.14Zm0,.28v-.14h-.14v.14Zm0,.28v-.14h-.14v.14Z"/><path class="cls-1" d="M42.93,8.22V8.08h-.14v.14Zm0,.28V8.36h-.14V8.5Zm0,.27V8.64h-.14v.13Zm0,.28V8.91h-.14v.14Zm0,.28V9.19h-.14v.14Zm0,.28V9.47h-.14v.14Zm0,.28V9.75h-.14v.14Zm0,.28V10h-.14v.14Zm0,.28v-.14h-.14v.14Zm0,.27v-.14h-.14v.14Zm0,.28v-.14h-.14V11Zm0,.28v-.14h-.14v.14Zm0,.28v-.14h-.14v.14Zm0,.28V11.7h-.14v.14Zm0,.28V12h-.14v.14Zm0,.28v-.14h-.14v.14Zm0,.27v-.13h-.14v.13Zm0,.28v-.14h-.14V13Zm0,.28v-.14h-.14v.14Zm0,.28v-.14h-.14v.14Zm0,.28v-.14h-.14v.14Z"/><path class="cls-1" d="M43.89,7.94Zm0,.28V8.08h-.14v.14Zm0,.28V8.36h-.14V8.5Zm0,.27V8.64h-.14v.13Zm0,.28V8.91h-.14v.14Zm0,.28V9.19h-.14v.14Zm0,.28V9.47h-.14v.14Zm0,.28V9.75h-.14v.14Zm0,.28V10h-.14v.14Zm0,.28v-.14h-.14v.14Zm0,.27v-.14h-.14v.14Zm0,.28v-.14h-.14V11Zm0,.28v-.14h-.14v.14Zm0,.28v-.14h-.14v.14Zm0,.28V11.7h-.14v.14Zm0,.28V12h-.14v.14Zm0,.28v-.14h-.14v.14Zm0,.27v-.13h-.14v.13Zm0,.28v-.14h-.14V13Zm0,.28v-.14h-.14v.14Zm0,.28v-.14h-.14v.14Zm0,.28v-.14h-.14v.14Z"/><path class="cls-1" d="M44.85,7.94V7.8h-.14v.14Zm0,.28V8.08h-.14v.14Zm0,.28V8.36h-.14V8.5Zm0,.27V8.64h-.14v.13Zm0,.28V8.91h-.14v.14Zm0,.28V9.19h-.14v.14Zm0,.28V9.47h-.14v.14Zm0,.28V9.75h-.14v.14Zm0,.28V10h-.14v.14Zm0,.28v-.14h-.14v.14Zm0,.27v-.14h-.14v.14Zm0,.28v-.14h-.14V11Zm0,.28v-.14h-.14v.14Zm0,.28v-.14h-.14v.14Zm0,.28V11.7h-.14v.14Zm0,.28V12h-.14v.14Zm0,.28v-.14h-.14v.14Zm0,.27v-.13h-.14v.13Zm0,.28v-.14h-.14V13Zm0,.28v-.14h-.14v.14Zm0,.28v-.14h-.14v.14Zm0,.28v-.14h-.14v.14Z"/><path class="cls-1" d="M45.81,7.66V7.52h-.14v.14Zm0,.28V7.8h-.14v.14Zm0,.28V8.08h-.14v.14Zm0,.28V8.36h-.14V8.5Zm0,.27V8.64h-.14v.13Zm0,.28V8.91h-.14v.14Zm0,.28V9.19h-.14v.14Zm0,.28V9.47h-.14v.14Zm0,.28V9.75h-.14v.14Zm0,.28V10h-.14v.14Zm0,.28v-.14h-.14v.14Zm0,.27v-.14h-.14v.14Zm0,.28v-.14h-.14V11Zm0,.28v-.14h-.14v.14Zm0,.28v-.14h-.14v.14Zm0,.28V11.7h-.14v.14Zm0,.28V12h-.14v.14Zm0,.28v-.14h-.14v.14Zm0,.27v-.13h-.14v.13Zm0,.28v-.14h-.14V13Zm0,.28v-.14h-.14v.14Zm0,.28v-.14h-.14v.14Zm0,.28v-.14h-.14v.14Z"/><path class="cls-1" d="M46.77,7.1V7h-.14V7.1Zm0,.28V7.24h-.14v.14Zm0,.28V7.52h-.14v.14Zm0,.28V7.8h-.14v.14Zm0,.28V8.08h-.14v.14Zm0,.28V8.36h-.14V8.5Zm0,.27V8.64h-.14v.13Zm0,.28V8.91h-.14v.14Zm0,.28V9.19h-.14v.14Zm0,.28V9.47h-.14v.14Zm0,.28V9.75h-.14v.14Zm0,.28V10h-.14v.14Zm0,.28v-.14h-.14v.14Zm0,.27v-.14h-.14v.14Zm0,.28v-.14h-.14V11Zm0,.28v-.14h-.14v.14Zm0,.28v-.14h-.14v.14Zm0,.28V11.7h-.14v.14Zm0,.28V12h-.14v.14Zm0,.28v-.14h-.14v.14Zm0,.27v-.13h-.14v.13Zm0,.28v-.14h-.14V13Zm0,.28v-.14h-.14v.14Zm0,.28v-.14h-.14v.14Zm0,.28v-.14h-.14v.14Z"/><path class="cls-1" d="M47.74,6.55V6.41H47.6v.14Zm0,.27V6.69H47.6v.13Zm0,.28V7H47.6V7.1Zm0,.28V7.24H47.6v.14Zm0,.28V7.52H47.6v.14Zm0,.28V7.8H47.6v.14Zm0,.28V8.08H47.6v.14Zm0,.28V8.36H47.6V8.5Zm0,.27V8.64H47.6v.13Zm0,.28V8.91H47.6v.14Zm0,.28V9.19H47.6v.14Zm0,.28V9.47H47.6v.14Zm0,.28V9.75H47.6v.14Zm0,.28V10H47.6v.14Zm0,.28v-.14H47.6v.14Zm0,.27v-.14H47.6v.14Zm0,.28v-.14H47.6V11Zm0,.28v-.14H47.6v.14Zm0,.28v-.14H47.6v.14Zm0,.28V11.7H47.6v.14Zm0,.28V12H47.6v.14Zm0,.28v-.14H47.6v.14Zm0,.27v-.13H47.6v.13Zm0,.28v-.14H47.6V13Zm0,.28v-.14H47.6v.14Zm0,.28v-.14H47.6v.14Zm0,.28v-.14H47.6v.14Z"/><path class="cls-1" d="M48.7,5.43V5.37h-.14v.06Zm0,.28V5.57h-.14v.14Zm0,.28V5.85h-.14V6Zm0,.28V6.13h-.14v.14Zm0,.28V6.41h-.14v.14Zm0,.27V6.69h-.14v.13Zm0,.28V7h-.14V7.1Zm0,.28V7.24h-.14v.14Zm0,.28V7.52h-.14v.14Zm0,.28V7.8h-.14v.14Zm0,.28V8.08h-.14v.14Zm0,.28V8.36h-.14V8.5Zm0,.27V8.64h-.14v.13Zm0,.28V8.91h-.14v.14Zm0,.28V9.19h-.14v.14Zm0,.28V9.47h-.14v.14Zm0,.28V9.75h-.14v.14Zm0,.28V10h-.14v.14Zm0,.28v-.14h-.14v.14Zm0,.27v-.14h-.14v.14Zm0,.28v-.14h-.14V11Zm0,.28v-.14h-.14v.14Zm0,.28v-.14h-.14v.14Zm0,.28V11.7h-.14v.14Zm0,.28V12h-.14v.14Zm0,.28v-.14h-.14v.14Zm0,.27v-.13h-.14v.13Zm0,.28v-.14h-.14V13Zm0,.28v-.14h-.14v.14Zm0,.28v-.14h-.14v.14Zm0,.28v-.14h-.14v.14Z"/><path class="cls-1" d="M49.66,4.32V4.18h-.14v.14Zm0,.28V4.46h-.14V4.6Zm0,.28V4.74h-.14v.14Zm0,.27V5h-.14v.14Zm0,.28V5.29h-.14v.14Zm0,.28V5.57h-.14v.14Zm0,.28V5.85h-.14V6Zm0,.28V6.13h-.14v.14Zm0,.28V6.41h-.14v.14Zm0,.27V6.69h-.14v.13Zm0,.28V7h-.14V7.1Zm0,.28V7.24h-.14v.14Zm0,.28V7.52h-.14v.14Zm0,.28V7.8h-.14v.14Zm0,.28V8.08h-.14v.14Zm0,.28V8.36h-.14V8.5Zm0,.27V8.64h-.14v.13Zm0,.28V8.91h-.14v.14Zm0,.28V9.19h-.14v.14Zm0,.28V9.47h-.14v.14Zm0,.28V9.75h-.14v.14Zm0,.28V10h-.14v.14Zm0,.28v-.14h-.14v.14Zm0,.27v-.14h-.14v.14Zm0,.28v-.14h-.14V11Zm0,.28v-.14h-.14v.14Zm0,.28v-.14h-.14v.14Zm0,.28V11.7h-.14v.14Zm0,.28V12h-.14v.14Zm0,.28v-.14h-.14v.14Zm0,.27v-.13h-.14v.13Zm0,.28v-.14h-.14V13Zm0,.28v-.14h-.14v.14Zm0,.28v-.14h-.14v.14Zm0,.28v-.14h-.14v.14Z"/><path class="cls-1" d="M50.62,2.37h0Zm0,.28V2.51h-.14v.14Zm0,.27V2.79h-.14v.13Zm0,.28V3.06h-.14V3.2Zm0,.28V3.34h-.14v.14Zm0,.28V3.62h-.14v.14Zm0,.28V3.9h-.14V4Zm0,.28V4.18h-.14v.14Zm0,.28V4.46h-.14V4.6Zm0,.28V4.74h-.14v.14Zm0,.27V5h-.14v.14Zm0,.28V5.29h-.14v.14Zm0,.28V5.57h-.14v.14Zm0,.28V5.85h-.14V6Zm0,.28V6.13h-.14v.14Zm0,.28V6.41h-.14v.14Zm0,.27V6.69h-.14v.13Zm0,.28V7h-.14V7.1Zm0,.28V7.24h-.14v.14Zm0,.28V7.52h-.14v.14Zm0,.28V7.8h-.14v.14Zm0,.28V8.08h-.14v.14Zm0,.28V8.36h-.14V8.5Zm0,.27V8.64h-.14v.13Zm0,.28V8.91h-.14v.14Zm0,.28V9.19h-.14v.14Zm0,.28V9.47h-.14v.14Zm0,.28V9.75h-.14v.14Zm0,.28V10h-.14v.14Zm0,.28v-.14h-.14v.14Zm0,.27v-.14h-.14v.14Zm0,.28v-.14h-.14V11Zm0,.28v-.14h-.14v.14Zm0,.28v-.14h-.14v.14Zm0,.28V11.7h-.14v.14Zm0,.28V12h-.14v.14Zm0,.28v-.14h-.14v.14Zm0,.27v-.13h-.14v.13Zm0,.28v-.14h-.14V13Zm0,.28v-.14h-.14v.14Zm0,.28v-.14h-.14v.14Zm0,.28v-.14h-.14v.14Z"/><path class="cls-1" d="M51.58.14V0h-.14V.14Zm0,.28V.28h-.14V.42Zm0,.28V.56h-.14V.7Zm0,.27V.84h-.14V1Zm0,.28V1.11h-.14v.14Zm0,.28V1.39h-.14v.14Zm0,.28V1.67h-.14v.14Zm0,.28V2h-.14v.14Zm0,.28V2.23h-.14v.14Zm0,.28V2.51h-.14v.14Zm0,.27V2.79h-.14v.13Zm0,.28V3.06h-.14V3.2Zm0,.28V3.34h-.14v.14Zm0,.28V3.62h-.14v.14Zm0,.28V3.9h-.14V4Zm0,.28V4.18h-.14v.14Zm0,.28V4.46h-.14V4.6Zm0,.28V4.74h-.14v.14Zm0,.27V5h-.14v.14Zm0,.28V5.29h-.14v.14Zm0,.28V5.57h-.14v.14Zm0,.28V5.85h-.14V6Zm0,.28V6.13h-.14v.14Zm0,.28V6.41h-.14v.14Zm0,.27V6.69h-.14v.13Zm0,.28V7h-.14V7.1Zm0,.28V7.24h-.14v.14Zm0,.28V7.52h-.14v.14Zm0,.28V7.8h-.14v.14Zm0,.28V8.08h-.14v.14Zm0,.28V8.36h-.14V8.5Zm0,.27V8.64h-.14v.13Zm0,.28V8.91h-.14v.14Zm0,.28V9.19h-.14v.14Zm0,.28V9.47h-.14v.14Zm0,.28V9.75h-.14v.14Zm0,.28V10h-.14v.14Zm0,.28v-.14h-.14v.14Zm0,.27v-.14h-.14v.14Zm0,.28v-.14h-.14V11Zm0,.28v-.14h-.14v.14Zm0,.28v-.14h-.14v.14Zm0,.28V11.7h-.14v.14Zm0,.28V12h-.14v.14Zm0,.28v-.14h-.14v.14Zm0,.27v-.13h-.14v.13Zm0,.28v-.14h-.14V13Zm0,.28v-.14h-.14v.14Zm0,.28v-.14h-.14v.14Zm0,.28v-.14h-.14v.14Z"/><path class="cls-1" d="M52.54.14V0H52.4V.14Zm0,.28V.28H52.4V.42Zm0,.28V.56H52.4V.7Zm0,.27V.84H52.4V1Zm0,.28V1.11H52.4v.14Zm0,.28V1.39H52.4v.14Zm0,.28V1.67H52.4v.14Zm0,.28V2H52.4v.14Zm0,.28V2.23H52.4v.14Zm0,.28V2.51H52.4v.14Zm0,.27V2.79H52.4v.13Zm0,.28V3.06H52.4V3.2Zm0,.28V3.34H52.4v.14Zm0,.28V3.62H52.4v.14Zm0,.28V3.9H52.4V4Zm0,.28V4.18H52.4v.14Zm0,.28V4.46H52.4V4.6Zm0,.28V4.74H52.4v.14Zm0,.27V5H52.4v.14Zm0,.28V5.29H52.4v.14Zm0,.28V5.57H52.4v.14Zm0,.28V5.85H52.4V6Zm0,.28V6.13H52.4v.14Zm0,.28V6.41H52.4v.14Zm0,.27V6.69H52.4v.13Zm0,.28V7H52.4V7.1Zm0,.28V7.24H52.4v.14Zm0,.28V7.52H52.4v.14Zm0,.28V7.8H52.4v.14Zm0,.28V8.08H52.4v.14Zm0,.28V8.36H52.4V8.5Zm0,.27V8.64H52.4v.13Zm0,.28V8.91H52.4v.14Zm0,.28V9.19H52.4v.14Zm0,.28V9.47H52.4v.14Zm0,.28V9.75H52.4v.14Zm0,.28V10H52.4v.14Zm0,.28v-.14H52.4v.14Zm0,.27v-.14H52.4v.14Zm0,.28v-.14H52.4V11Zm0,.28v-.14H52.4v.14Zm0,.28v-.14H52.4v.14Zm0,.28V11.7H52.4v.14Zm0,.28V12H52.4v.14Zm0,.28v-.14H52.4v.14Zm0,.27v-.13H52.4v.13Zm0,.28v-.14H52.4V13Zm0,.28v-.14H52.4v.14Zm0,.28v-.14H52.4v.14Zm0,.28v-.14H52.4v.14Z"/><path class="cls-1" d="M53.5,2.92V2.79h-.14v.13Zm0,.28V3.06h-.14V3.2Zm0,.28V3.34h-.14v.14Zm0,.28V3.62h-.14v.14Zm0,.28V3.9h-.14V4Zm0,.28V4.18h-.14v.14Zm0,.28V4.46h-.14V4.6Zm0,.28V4.74h-.14v.14Zm0,.27V5h-.14v.14Zm0,.28V5.29h-.14v.14Zm0,.28V5.57h-.14v.14Zm0,.28V5.85h-.14V6Zm0,.28V6.13h-.14v.14Zm0,.28V6.41h-.14v.14Zm0,.27V6.69h-.14v.13Zm0,.28V7h-.14V7.1Zm0,.28V7.24h-.14v.14Zm0,.28V7.52h-.14v.14Zm0,.28V7.8h-.14v.14Zm0,.28V8.08h-.14v.14Zm0,.28V8.36h-.14V8.5Zm0,.27V8.64h-.14v.13Zm0,.28V8.91h-.14v.14Zm0,.28V9.19h-.14v.14Zm0,.28V9.47h-.14v.14Zm0,.28V9.75h-.14v.14Zm0,.28V10h-.14v.14Zm0,.28v-.14h-.14v.14Zm0,.27v-.14h-.14v.14Zm0,.28v-.14h-.14V11Zm0,.28v-.14h-.14v.14Zm0,.28v-.14h-.14v.14Zm0,.28V11.7h-.14v.14Zm0,.28V12h-.14v.14Zm0,.28v-.14h-.14v.14Zm0,.27v-.13h-.14v.13Zm0,.28v-.14h-.14V13Zm0,.28v-.14h-.14v.14Zm0,.28v-.14h-.14v.14Zm0,.28v-.14h-.14v.14Z"/><path class="cls-1" d="M54.44,5.43V5.29H54.3v.14Zm0,.28V5.57H54.3v.14Zm0,.28V5.85H54.3V6Zm0,.28V6.13H54.3v.14Zm0,.28V6.41H54.3v.14Zm0,.27V6.69H54.3v.13Zm0,.28V7H54.3V7.1Zm0,.28V7.24H54.3v.14Zm0,.28V7.52H54.3v.14Zm0,.28V7.8H54.3v.14Zm0,.28V8.08H54.3v.14Zm0,.28V8.36H54.3V8.5Zm0,.27V8.64H54.3v.13Zm0,.28V8.91H54.3v.14Zm0,.28V9.19H54.3v.14Zm0,.28V9.47H54.3v.14Zm0,.28V9.75H54.3v.14Zm0,.28V10H54.3v.14Zm0,.28v-.14H54.3v.14Zm0,.27v-.14H54.3v.14Zm0,.28v-.14H54.3V11Zm0,.28v-.14H54.3v.14Zm0,.28v-.14H54.3v.14Zm0,.28V11.7H54.3v.14Zm0,.28V12H54.3v.14Zm0,.28v-.14H54.3v.14Zm0,.27v-.13H54.3v.13Zm0,.28v-.14H54.3V13Zm0,.28v-.14H54.3v.14Zm0,.28v-.14H54.3v.14Zm0,.28v-.14H54.3v.14Z"/><path class="cls-1" d="M55.4,7.38v0h-.14v0Zm0,.28V7.52h-.14v.14Zm0,.28V7.8h-.14v.14Zm0,.28V8.08h-.14v.14Zm0,.28V8.36h-.14V8.5Zm0,.27V8.64h-.14v.13Zm0,.28V8.91h-.14v.14Zm0,.28V9.19h-.14v.14Zm0,.28V9.47h-.14v.14Zm0,.28V9.75h-.14v.14Zm0,.28V10h-.14v.14Zm0,.28v-.14h-.14v.14Zm0,.27v-.14h-.14v.14Zm0,.28v-.14h-.14V11Zm0,.28v-.14h-.14v.14Zm0,.28v-.14h-.14v.14Zm0,.28V11.7h-.14v.14Zm0,.28V12h-.14v.14Zm0,.28v-.14h-.14v.14Zm0,.27v-.13h-.14v.13Zm0,.28v-.14h-.14V13Zm0,.28v-.14h-.14v.14Zm0,.28v-.14h-.14v.14Zm0,.28v-.14h-.14v.14Z"/><path class="cls-1" d="M56.37,9.05V8.94h-.14v.11Zm0,.28V9.19h-.14v.14Zm0,.28V9.47h-.14v.14Zm0,.28V9.75h-.14v.14Zm0,.28V10h-.14v.14Zm0,.28v-.14h-.14v.14Zm0,.27v-.14h-.14v.14Zm0,.28v-.14h-.14V11Zm0,.28v-.14h-.14v.14Zm0,.28v-.14h-.14v.14Zm0,.28V11.7h-.14v.14Zm0,.28V12h-.14v.14Zm0,.28v-.14h-.14v.14Zm0,.27v-.13h-.14v.13Zm0,.28v-.14h-.14V13Zm0,.28v-.14h-.14v.14Zm0,.28v-.14h-.14v.14Zm0,.28v-.14h-.14v.14Z"/><path class="cls-1" d="M57.33,10.17V10h-.14v.14Zm0,.28v-.14h-.14v.14Zm0,.27v-.14h-.14v.14Zm0,.28v-.14h-.14V11Zm0,.28v-.14h-.14v.14Zm0,.28v-.14h-.14v.14Zm0,.28V11.7h-.14v.14Zm0,.28V12h-.14v.14Zm0,.28v-.14h-.14v.14Zm0,.27v-.13h-.14v.13Zm0,.28v-.14h-.14V13Zm0,.28v-.14h-.14v.14Zm0,.28v-.14h-.14v.14Zm0,.28v-.14h-.14v.14Z"/><path class="cls-1" d="M58.29,10.45v-.14h-.14v.14Zm0,.27v-.14h-.14v.14Zm0,.28v-.14h-.14V11Zm0,.28v-.14h-.14v.14Zm0,.28v-.14h-.14v.14Zm0,.28V11.7h-.14v.14Zm0,.28V12h-.14v.14Zm0,.28v-.14h-.14v.14Zm0,.27v-.13h-.14v.13Zm0,.28v-.14h-.14V13Zm0,.28v-.14h-.14v.14Zm0,.28v-.14h-.14v.14Zm0,.28v-.14h-.14v.14Z"/><path class="cls-1" d="M59.25,9.89V9.75h-.14v.14Zm0,.28V10h-.14v.14Zm0,.28v-.14h-.14v.14Zm0,.27v-.14h-.14v.14Zm0,.28v-.14h-.14V11Zm0,.28v-.14h-.14v.14Zm0,.28v-.14h-.14v.14Zm0,.28V11.7h-.14v.14Zm0,.28V12h-.14v.14Zm0,.28v-.14h-.14v.14Zm0,.27v-.13h-.14v.13Zm0,.28v-.14h-.14V13Zm0,.28v-.14h-.14v.14Zm0,.28v-.14h-.14v.14Zm0,.28v-.14h-.14v.14Z"/><path class="cls-1" d="M60.21,8.5V8.36h-.14V8.5Zm0,.27V8.64h-.14v.13Zm0,.28V8.91h-.14v.14Zm0,.28V9.19h-.14v.14Zm0,.28V9.47h-.14v.14Zm0,.28V9.75h-.14v.14Zm0,.28V10h-.14v.14Zm0,.28v-.14h-.14v.14Zm0,.27v-.14h-.14v.14Zm0,.28v-.14h-.14V11Zm0,.28v-.14h-.14v.14Zm0,.28v-.14h-.14v.14Zm0,.28V11.7h-.14v.14Zm0,.28V12h-.14v.14Zm0,.28v-.14h-.14v.14Zm0,.27v-.13h-.14v.13Zm0,.28v-.14h-.14V13Zm0,.28v-.14h-.14v.14Zm0,.28v-.14h-.14v.14Zm0,.28v-.14h-.14v.14Z"/><path class="cls-1" d="M61.17,6.82V6.69H61v.13Zm0,.28V7H61V7.1Zm0,.28V7.24H61v.14Zm0,.28V7.52H61v.14Zm0,.28V7.8H61v.14Zm0,.28V8.08H61v.14Zm0,.28V8.36H61V8.5Zm0,.27V8.64H61v.13Zm0,.28V8.91H61v.14Zm0,.28V9.19H61v.14Zm0,.28V9.47H61v.14Zm0,.28V9.75H61v.14Zm0,.28V10H61v.14Zm0,.28v-.14H61v.14Zm0,.27v-.14H61v.14Zm0,.28v-.14H61V11Zm0,.28v-.14H61v.14Zm0,.28v-.14H61v.14Zm0,.28V11.7H61v.14Zm0,.28V12H61v.14Zm0,.28v-.14H61v.14Zm0,.27v-.13H61v.13Zm0,.28v-.14H61V13Zm0,.28v-.14H61v.14Zm0,.28v-.14H61v.14Zm0,.28v-.14H61v.14Z"/><path class="cls-1" d="M62.13,5.15V5H62v.14Zm0,.28V5.29H62v.14Zm0,.28V5.57H62v.14Zm0,.28V5.85H62V6Zm0,.28V6.13H62v.14Zm0,.28V6.41H62v.14Zm0,.27V6.69H62v.13Zm0,.28V7H62V7.1Zm0,.28V7.24H62v.14Zm0,.28V7.52H62v.14Zm0,.28V7.8H62v.14Zm0,.28V8.08H62v.14Zm0,.28V8.36H62V8.5Zm0,.27V8.64H62v.13Zm0,.28V8.91H62v.14Zm0,.28V9.19H62v.14Zm0,.28V9.47H62v.14Zm0,.28V9.75H62v.14Zm0,.28V10H62v.14Zm0,.28v-.14H62v.14Zm0,.27v-.14H62v.14Zm0,.28v-.14H62V11Zm0,.28v-.14H62v.14Zm0,.28v-.14H62v.14Zm0,.28V11.7H62v.14Zm0,.28V12H62v.14Zm0,.28v-.14H62v.14Zm0,.27v-.13H62v.13Zm0,.28v-.14H62V13Zm0,.28v-.14H62v.14Zm0,.28v-.14H62v.14Zm0,.28v-.14H62v.14Z"/><path class="cls-1" d="M63.09,3.48v0H63v0Zm0,.28V3.62H63v.14Zm0,.28V3.9H63V4Zm0,.28V4.18H63v.14Zm0,.28V4.46H63V4.6Zm0,.28V4.74H63v.14Zm0,.27V5H63v.14Zm0,.28V5.29H63v.14Zm0,.28V5.57H63v.14Zm0,.28V5.85H63V6Zm0,.28V6.13H63v.14Zm0,.28V6.41H63v.14Zm0,.27V6.69H63v.13Zm0,.28V7H63V7.1Zm0,.28V7.24H63v.14Zm0,.28V7.52H63v.14Zm0,.28V7.8H63v.14Zm0,.28V8.08H63v.14Zm0,.28V8.36H63V8.5Zm0,.27V8.64H63v.13Zm0,.28V8.91H63v.14Zm0,.28V9.19H63v.14Zm0,.28V9.47H63v.14Zm0,.28V9.75H63v.14Zm0,.28V10H63v.14Zm0,.28v-.14H63v.14Zm0,.27v-.14H63v.14Zm0,.28v-.14H63V11Zm0,.28v-.14H63v.14Zm0,.28v-.14H63v.14Zm0,.28V11.7H63v.14Zm0,.28V12H63v.14Zm0,.28v-.14H63v.14Zm0,.27v-.13H63v.13Zm0,.28v-.14H63V13Zm0,.28v-.14H63v.14Zm0,.28v-.14H63v.14Zm0,.28v-.14H63v.14Z"/><path class="cls-1" d="M64.05,2.92V2.79h-.13v.13Zm0,.28V3.06h-.13V3.2Zm0,.28V3.34h-.13v.14Zm0,.28V3.62h-.13v.14Zm0,.28V3.9h-.13V4Zm0,.28V4.18h-.13v.14Zm0,.28V4.46h-.13V4.6Zm0,.28V4.74h-.13v.14Zm0,.27V5h-.13v.14Zm0,.28V5.29h-.13v.14Zm0,.28V5.57h-.13v.14Zm0,.28V5.85h-.13V6Zm0,.28V6.13h-.13v.14Zm0,.28V6.41h-.13v.14Zm0,.27V6.69h-.13v.13Zm0,.28V7h-.13V7.1Zm0,.28V7.24h-.13v.14Zm0,.28V7.52h-.13v.14Zm0,.28V7.8h-.13v.14Zm0,.28V8.08h-.13v.14Zm0,.28V8.36h-.13V8.5Zm0,.27V8.64h-.13v.13Zm0,.28V8.91h-.13v.14Zm0,.28V9.19h-.13v.14Zm0,.28V9.47h-.13v.14Zm0,.28V9.75h-.13v.14Zm0,.28V10h-.13v.14Zm0,.28v-.14h-.13v.14Zm0,.27v-.14h-.13v.14Zm0,.28v-.14h-.13V11Zm0,.28v-.14h-.13v.14Zm0,.28v-.14h-.13v.14Zm0,.28V11.7h-.13v.14Zm0,.28V12h-.13v.14Zm0,.28v-.14h-.13v.14Zm0,.27v-.13h-.13v.13Zm0,.28v-.14h-.13V13Zm0,.28v-.14h-.13v.14Zm0,.28v-.14h-.13v.14Zm0,.28v-.14h-.13v.14Z"/><path class="cls-1" d="M65,3.2V3.07h-.14V3.2Zm0,.28V3.34h-.14v.14Zm0,.28V3.62h-.14v.14ZM65,4V3.9h-.14V4Zm0,.28V4.18h-.14v.14Zm0,.28V4.46h-.14V4.6Zm0,.28V4.74h-.14v.14Zm0,.27V5h-.14v.14Zm0,.28V5.29h-.14v.14Zm0,.28V5.57h-.14v.14ZM65,6V5.85h-.14V6Zm0,.28V6.13h-.14v.14Zm0,.28V6.41h-.14v.14Zm0,.27V6.69h-.14v.13Zm0,.28V7h-.14V7.1Zm0,.28V7.24h-.14v.14Zm0,.28V7.52h-.14v.14Zm0,.28V7.8h-.14v.14Zm0,.28V8.08h-.14v.14Zm0,.28V8.36h-.14V8.5Zm0,.27V8.64h-.14v.13Zm0,.28V8.91h-.14v.14Zm0,.28V9.19h-.14v.14Zm0,.28V9.47h-.14v.14Zm0,.28V9.75h-.14v.14Zm0,.28V10h-.14v.14Zm0,.28v-.14h-.14v.14Zm0,.27v-.14h-.14v.14ZM65,11v-.14h-.14V11Zm0,.28v-.14h-.14v.14Zm0,.28v-.14h-.14v.14Zm0,.28V11.7h-.14v.14Zm0,.28V12h-.14v.14Zm0,.28v-.14h-.14v.14Zm0,.27v-.13h-.14v.13ZM65,13v-.14h-.14V13Zm0,.28v-.14h-.14v.14Zm0,.28v-.14h-.14v.14Zm0,.28v-.14h-.14v.14Z"/><path class="cls-1" d="M66,4.32v-.1h-.14v.1Zm0,.28V4.46h-.14V4.6Zm0,.28V4.74h-.14v.14Zm0,.27V5h-.14v.14Zm0,.28V5.29h-.14v.14Zm0,.28V5.57h-.14v.14ZM66,6V5.85h-.14V6Zm0,.28V6.13h-.14v.14Zm0,.28V6.41h-.14v.14Zm0,.27V6.69h-.14v.13Zm0,.28V7h-.14V7.1Zm0,.28V7.24h-.14v.14Zm0,.28V7.52h-.14v.14Zm0,.28V7.8h-.14v.14Zm0,.28V8.08h-.14v.14Zm0,.28V8.36h-.14V8.5Zm0,.27V8.64h-.14v.13Zm0,.28V8.91h-.14v.14Zm0,.28V9.19h-.14v.14Zm0,.28V9.47h-.14v.14Zm0,.28V9.75h-.14v.14Zm0,.28V10h-.14v.14Zm0,.28v-.14h-.14v.14Zm0,.27v-.14h-.14v.14ZM66,11v-.14h-.14V11Zm0,.28v-.14h-.14v.14Zm0,.28v-.14h-.14v.14Zm0,.28V11.7h-.14v.14Zm0,.28V12h-.14v.14Zm0,.28v-.14h-.14v.14Zm0,.27v-.13h-.14v.13ZM66,13v-.14h-.14V13Zm0,.28v-.14h-.14v.14Zm0,.28v-.14h-.14v.14Zm0,.28v-.14h-.14v.14Z"/><path class="cls-1" d="M66.92,6.27V6.18h-.14v.09Zm0,.28V6.41h-.14v.14Zm0,.27V6.69h-.14v.13Zm0,.28V7h-.14V7.1Zm0,.28V7.24h-.14v.14Zm0,.28V7.52h-.14v.14Zm0,.28V7.8h-.14v.14Zm0,.28V8.08h-.14v.14Zm0,.28V8.36h-.14V8.5Zm0,.27V8.64h-.14v.13Zm0,.28V8.91h-.14v.14Zm0,.28V9.19h-.14v.14Zm0,.28V9.47h-.14v.14Zm0,.28V9.75h-.14v.14Zm0,.28V10h-.14v.14Zm0,.28v-.14h-.14v.14Zm0,.27v-.14h-.14v.14Zm0,.28v-.14h-.14V11Zm0,.28v-.14h-.14v.14Zm0,.28v-.14h-.14v.14Zm0,.28V11.7h-.14v.14Zm0,.28V12h-.14v.14Zm0,.28v-.14h-.14v.14Zm0,.27v-.13h-.14v.13Zm0,.28v-.14h-.14V13Zm0,.28v-.14h-.14v.14Zm0,.28v-.14h-.14v.14Zm0,.28v-.14h-.14v.14Z"/><path class="cls-1" d="M67.88,8.77V8.64h-.14v.13Zm0,.28V8.91h-.14v.14Zm0,.28V9.19h-.14v.14Zm0,.28V9.47h-.14v.14Zm0,.28V9.75h-.14v.14Zm0,.28V10h-.14v.14Zm0,.28v-.14h-.14v.14Zm0,.27v-.14h-.14v.14Zm0,.28v-.14h-.14V11Zm0,.28v-.14h-.14v.14Zm0,.28v-.14h-.14v.14Zm0,.28V11.7h-.14v.14Zm0,.28V12h-.14v.14Zm0,.28v-.14h-.14v.14Zm0,.27v-.13h-.14v.13Zm0,.28v-.14h-.14V13Zm0,.28v-.14h-.14v.14Zm0,.28v-.14h-.14v.14Zm0,.28v-.14h-.14v.14Z"/><path class="cls-1" d="M68.84,10.45v-.14H68.7v.14Zm0,.27v-.14H68.7v.14Zm0,.28v-.14H68.7V11Zm0,.28v-.14H68.7v.14Zm0,.28v-.14H68.7v.14Zm0,.28V11.7H68.7v.14Zm0,.28V12H68.7v.14Zm0,.28v-.14H68.7v.14Zm0,.27v-.13H68.7v.13Zm0,.28v-.14H68.7V13Zm0,.28v-.14H68.7v.14Zm0,.28v-.14H68.7v.14Zm0,.28v-.14H68.7v.14Z"/><path class="cls-1" d="M69.8,10.17v-.12h-.14v.12Zm0,.28v-.14h-.14v.14Zm0,.27v-.14h-.14v.14Zm0,.28v-.14h-.14V11Zm0,.28v-.14h-.14v.14Zm0,.28v-.14h-.14v.14Zm0,.28V11.7h-.14v.14Zm0,.28V12h-.14v.14Zm0,.28v-.14h-.14v.14Zm0,.27v-.13h-.14v.13Zm0,.28v-.14h-.14V13Zm0,.28v-.14h-.14v.14Zm0,.28v-.14h-.14v.14Zm0,.28v-.14h-.14v.14Z"/><path class="cls-1" d="M70.76,9.33v0h-.14v0Zm0,.28V9.47h-.14v.14Zm0,.28V9.75h-.14v.14Zm0,.28V10h-.14v.14Zm0,.28v-.14h-.14v.14Zm0,.27v-.14h-.14v.14Zm0,.28v-.14h-.14V11Zm0,.28v-.14h-.14v.14Zm0,.28v-.14h-.14v.14Zm0,.28V11.7h-.14v.14Zm0,.28V12h-.14v.14Zm0,.28v-.14h-.14v.14Zm0,.27v-.13h-.14v.13Zm0,.28v-.14h-.14V13Zm0,.28v-.14h-.14v.14Zm0,.28v-.14h-.14v.14Zm0,.28v-.14h-.14v.14Z"/><path class="cls-1" d="M71.72,8.22V8.08h-.13v.14Zm0,.28V8.36h-.13V8.5Zm0,.27V8.64h-.13v.13Zm0,.28V8.91h-.13v.14Zm0,.28V9.19h-.13v.14Zm0,.28V9.47h-.13v.14Zm0,.28V9.75h-.13v.14Zm0,.28V10h-.13v.14Zm0,.28v-.14h-.13v.14Zm0,.27v-.14h-.13v.14Zm0,.28v-.14h-.13V11Zm0,.28v-.14h-.13v.14Zm0,.28v-.14h-.13v.14Zm0,.28V11.7h-.13v.14Zm0,.28V12h-.13v.14Zm0,.28v-.14h-.13v.14Zm0,.27v-.13h-.13v.13Zm0,.28v-.14h-.13V13Zm0,.28v-.14h-.13v.14Zm0,.28v-.14h-.13v.14Zm0,.28v-.14h-.13v.14Z"/><path class="cls-1" d="M72.69,6.82V6.69h-.14v.13Zm0,.28V7h-.14V7.1Zm0,.28V7.24h-.14v.14Zm0,.28V7.52h-.14v.14Zm0,.28V7.8h-.14v.14Zm0,.28V8.08h-.14v.14Zm0,.28V8.36h-.14V8.5Zm0,.27V8.64h-.14v.13Zm0,.28V8.91h-.14v.14Zm0,.28V9.19h-.14v.14Zm0,.28V9.47h-.14v.14Zm0,.28V9.75h-.14v.14Zm0,.28V10h-.14v.14Zm0,.28v-.14h-.14v.14Zm0,.27v-.14h-.14v.14Zm0,.28v-.14h-.14V11Zm0,.28v-.14h-.14v.14Zm0,.28v-.14h-.14v.14Zm0,.28V11.7h-.14v.14Zm0,.28V12h-.14v.14Zm0,.28v-.14h-.14v.14Zm0,.27v-.13h-.14v.13Zm0,.28v-.14h-.14V13Zm0,.28v-.14h-.14v.14Zm0,.28v-.14h-.14v.14Zm0,.28v-.14h-.14v.14Z"/><path class="cls-1" d="M73.65,6V5.93h-.14V6Zm0,.28V6.13h-.14v.14Zm0,.28V6.41h-.14v.14Zm0,.27V6.69h-.14v.13Zm0,.28V7h-.14V7.1Zm0,.28V7.24h-.14v.14Zm0,.28V7.52h-.14v.14Zm0,.28V7.8h-.14v.14Zm0,.28V8.08h-.14v.14Zm0,.28V8.36h-.14V8.5Zm0,.27V8.64h-.14v.13Zm0,.28V8.91h-.14v.14Zm0,.28V9.19h-.14v.14Zm0,.28V9.47h-.14v.14Zm0,.28V9.75h-.14v.14Zm0,.28V10h-.14v.14Zm0,.28v-.14h-.14v.14Zm0,.27v-.14h-.14v.14Zm0,.28v-.14h-.14V11Zm0,.28v-.14h-.14v.14Zm0,.28v-.14h-.14v.14Zm0,.28V11.7h-.14v.14Zm0,.28V12h-.14v.14Zm0,.28v-.14h-.14v.14Zm0,.27v-.13h-.14v.13Zm0,.28v-.14h-.14V13Zm0,.28v-.14h-.14v.14Zm0,.28v-.14h-.14v.14Zm0,.28v-.14h-.14v.14Z"/><path class="cls-1" d="M74.61,6V5.85h-.14V6Zm0,.28V6.13h-.14v.14Zm0,.28V6.41h-.14v.14Zm0,.27V6.69h-.14v.13Zm0,.28V7h-.14V7.1Zm0,.28V7.24h-.14v.14Zm0,.28V7.52h-.14v.14Zm0,.28V7.8h-.14v.14Zm0,.28V8.08h-.14v.14Zm0,.28V8.36h-.14V8.5Zm0,.27V8.64h-.14v.13Zm0,.28V8.91h-.14v.14Zm0,.28V9.19h-.14v.14Zm0,.28V9.47h-.14v.14Zm0,.28V9.75h-.14v.14Zm0,.28V10h-.14v.14Zm0,.28v-.14h-.14v.14Zm0,.27v-.14h-.14v.14Zm0,.28v-.14h-.14V11Zm0,.28v-.14h-.14v.14Zm0,.28v-.14h-.14v.14Zm0,.28V11.7h-.14v.14Zm0,.28V12h-.14v.14Zm0,.28v-.14h-.14v.14Zm0,.27v-.13h-.14v.13Zm0,.28v-.14h-.14V13Zm0,.28v-.14h-.14v.14Zm0,.28v-.14h-.14v.14Zm0,.28v-.14h-.14v.14Z"/><path class="cls-1" d="M75.57,6.27V6.2h-.14v.07Zm0,.28V6.41h-.14v.14Zm0,.27V6.69h-.14v.13Zm0,.28V7h-.14V7.1Zm0,.28V7.24h-.14v.14Zm0,.28V7.52h-.14v.14Zm0,.28V7.8h-.14v.14Zm0,.28V8.08h-.14v.14Zm0,.28V8.36h-.14V8.5Zm0,.27V8.64h-.14v.13Zm0,.28V8.91h-.14v.14Zm0,.28V9.19h-.14v.14Zm0,.28V9.47h-.14v.14Zm0,.28V9.75h-.14v.14Zm0,.28V10h-.14v.14Zm0,.28v-.14h-.14v.14Zm0,.27v-.14h-.14v.14Zm0,.28v-.14h-.14V11Zm0,.28v-.14h-.14v.14Zm0,.28v-.14h-.14v.14Zm0,.28V11.7h-.14v.14Zm0,.28V12h-.14v.14Zm0,.28v-.14h-.14v.14Zm0,.27v-.13h-.14v.13Zm0,.28v-.14h-.14V13Zm0,.28v-.14h-.14v.14Zm0,.28v-.14h-.14v.14Zm0,.28v-.14h-.14v.14Z"/><path class="cls-1" d="M76.53,7.94V7.8h-.14v.14Zm0,.28V8.08h-.14v.14Zm0,.28V8.36h-.14V8.5Zm0,.27V8.64h-.14v.13Zm0,.28V8.91h-.14v.14Zm0,.28V9.19h-.14v.14Zm0,.28V9.47h-.14v.14Zm0,.28V9.75h-.14v.14Zm0,.28V10h-.14v.14Zm0,.28v-.14h-.14v.14Zm0,.27v-.14h-.14v.14Zm0,.28v-.14h-.14V11Zm0,.28v-.14h-.14v.14Zm0,.28v-.14h-.14v.14Zm0,.28V11.7h-.14v.14Zm0,.28V12h-.14v.14Zm0,.28v-.14h-.14v.14Zm0,.27v-.13h-.14v.13Zm0,.28v-.14h-.14V13Zm0,.28v-.14h-.14v.14Zm0,.28v-.14h-.14v.14Zm0,.28v-.14h-.14v.14Z"/><path class="cls-1" d="M77.47,10.17v-.12h-.14v.12Zm0,.28v-.14h-.14v.14Zm0,.27v-.14h-.14v.14Zm0,.28v-.14h-.14V11Zm0,.28v-.14h-.14v.14Zm0,.28v-.14h-.14v.14Zm0,.28V11.7h-.14v.14Zm0,.28V12h-.14v.14Zm0,.28v-.14h-.14v.14Zm0,.27v-.13h-.14v.13Zm0,.28v-.14h-.14V13Zm0,.28v-.14h-.14v.14Zm0,.28v-.14h-.14v.14Zm0,.28v-.14h-.14v.14Z"/><path class="cls-1" d="M78.43,12.12v-.07h-.14v.07Zm0,.28v-.14h-.14v.14Zm0,.27v-.13h-.14v.13Zm0,.28v-.14h-.14V13Zm0,.28v-.14h-.14v.14Zm0,.28v-.14h-.14v.14Zm0,.28v-.14h-.14v.14Z"/><path class="cls-1" d="M79.39,12.12v-.07h-.14v.07Zm0,.28v-.14h-.14v.14Zm0,.27v-.13h-.14v.13Zm0,.28v-.14h-.14V13Zm0,.28v-.14h-.14v.14Zm0,.28v-.14h-.14v.14Zm0,.28v-.14h-.14v.14Z"/><path class="cls-1" d="M80.36,11v-.12h-.14V11Zm0,.28v-.14h-.14v.14Zm0,.28v-.14h-.14v.14Zm0,.28V11.7h-.14v.14Zm0,.28V12h-.14v.14Zm0,.28v-.14h-.14v.14Zm0,.27v-.13h-.14v.13Zm0,.28v-.14h-.14V13Zm0,.28v-.14h-.14v.14Zm0,.28v-.14h-.14v.14Zm0,.28v-.14h-.14v.14Z"/><path class="cls-1" d="M81.32,10.72v-.14h-.14v.14Zm0,.28v-.14h-.14V11Zm0,.28v-.14h-.14v.14Zm0,.28v-.14h-.14v.14Zm0,.28V11.7h-.14v.14Zm0,.28V12h-.14v.14Zm0,.28v-.14h-.14v.14Zm0,.27v-.13h-.14v.13Zm0,.28v-.14h-.14V13Zm0,.28v-.14h-.14v.14Zm0,.28v-.14h-.14v.14Zm0,.28v-.14h-.14v.14Z"/><path class="cls-1" d="M82.28,12.12V12h-.14v.14Zm0,.28v-.14h-.14v.14Zm0,.27v-.13h-.14v.13Zm0,.28v-.14h-.14V13Zm0,.28v-.14h-.14v.14Zm0,.28v-.14h-.14v.14Zm0,.28v-.14h-.14v.14Z"/><rect class="cls-2" x="6.27" y="15.08" width="0.29" height="1.86"/><rect class="cls-2" x="7.23" y="15.08" width="0.29" height="4.01"/><rect class="cls-2" x="8.19" y="15.08" width="0.29" height="4.3"/><rect class="cls-2" x="9.13" y="15.08" width="0.29" height="2.17"/><rect class="cls-2" x="10.09" y="15.08" width="0.29" height="1.8"/><rect class="cls-2" x="11.05" y="15.08" width="0.29" height="3.28"/><rect class="cls-2" x="12.02" y="15.08" width="0.29" height="6.48"/><rect class="cls-2" x="12.98" y="15.08" width="0.29" height="9.68"/><rect class="cls-2" x="13.94" y="15.08" width="0.29" height="11.08"/><rect class="cls-2" x="14.9" y="15.08" width="0.29" height="10.68"/><rect class="cls-2" x="15.86" y="15.08" width="0.29" height="9.47"/><rect class="cls-2" x="16.82" y="15.08" width="0.29" height="7.8"/><rect class="cls-2" x="17.78" y="15.08" width="0.29" height="6.04"/><rect class="cls-2" x="18.75" y="15.08" width="0.29" height="4.49"/><rect class="cls-2" x="19.71" y="15.08" width="0.29" height="3.34"/><rect class="cls-2" x="20.65" y="15.08" width="0.29" height="3.01"/><rect class="cls-2" x="21.61" y="15.08" width="0.29" height="3.64"/><rect class="cls-2" x="22.57" y="15.08" width="0.29" height="4.91"/><rect class="cls-2" x="23.53" y="15.08" width="0.29" height="6.58"/><rect class="cls-2" x="24.49" y="15.08" width="0.29" height="8.53"/><rect class="cls-2" x="25.45" y="15.08" width="0.29" height="10.39"/><rect class="cls-2" x="26.41" y="15.08" width="0.29" height="9.03"/><rect class="cls-2" x="27.38" y="15.08" width="0.29" height="6.67"/><rect class="cls-2" x="28.34" y="15.08" width="0.29" height="4.49"/><rect class="cls-2" x="29.3" y="15.08" width="0.29" height="2.95"/><rect class="cls-2" x="30.26" y="15.08" width="0.29" height="3.03"/><rect class="cls-2" x="31.22" y="15.08" width="0.29" height="4.6"/><rect class="cls-2" x="32.16" y="15.08" width="0.29" height="6.73"/><rect class="cls-2" x="33.12" y="15.08" width="0.29" height="8.4"/><rect class="cls-2" x="34.08" y="15.08" width="0.29" height="8.94"/><rect class="cls-2" x="35.04" y="15.08" width="0.29" height="8.84"/><rect class="cls-2" x="36.01" y="15.08" width="0.29" height="8.57"/><rect class="cls-2" x="36.97" y="15.08" width="0.29" height="8.17"/><rect class="cls-2" x="37.93" y="15.08" width="0.29" height="7.71"/><rect class="cls-2" x="38.89" y="15.08" width="0.29" height="7.21"/><rect class="cls-2" x="39.85" y="15.08" width="0.29" height="6.73"/><rect class="cls-2" x="40.81" y="15.08" width="0.29" height="6.31"/><rect class="cls-2" x="41.77" y="15.08" width="0.29" height="5.98"/><rect class="cls-2" x="42.71" y="15.08" width="0.29" height="5.81"/><rect class="cls-2" x="43.68" y="15.08" width="0.29" height="5.85"/><rect class="cls-2" x="44.64" y="15.08" width="0.29" height="6.04"/><rect class="cls-2" x="45.6" y="15.08" width="0.29" height="6.35"/><rect class="cls-2" x="46.56" y="15.08" width="0.29" height="6.83"/><rect class="cls-2" x="47.52" y="15.08" width="0.29" height="7.5"/><rect class="cls-2" x="48.48" y="15.08" width="0.29" height="8.42"/><rect class="cls-2" x="49.44" y="15.08" width="0.29" height="9.7"/><rect class="cls-2" x="50.4" y="15.08" width="0.29" height="11.43"/><rect class="cls-2" x="51.37" y="15.08" width="0.29" height="13.88"/><rect class="cls-2" x="52.33" y="15.08" width="0.29" height="13.83"/><rect class="cls-2" x="53.29" y="15.08" width="0.29" height="11.1"/><rect class="cls-2" x="54.23" y="15.08" width="0.29" height="8.55"/><rect class="cls-2" x="55.19" y="15.08" width="0.29" height="6.44"/><rect class="cls-2" x="56.15" y="15.08" width="0.29" height="4.85"/><rect class="cls-2" x="57.11" y="15.08" width="0.29" height="3.89"/><rect class="cls-2" x="58.07" y="15.08" width="0.29" height="3.57"/><rect class="cls-2" x="59.04" y="15.08" width="0.29" height="4.14"/><rect class="cls-2" x="60" y="15.08" width="0.29" height="5.48"/><rect class="cls-2" x="60.96" y="15.08" width="0.29" height="7.13"/><rect class="cls-2" x="61.92" y="15.08" width="0.29" height="8.86"/><rect class="cls-2" x="62.88" y="15.08" width="0.29" height="10.34"/><rect class="cls-2" x="63.84" y="15.08" width="0.29" height="11.1"/><rect class="cls-2" x="64.8" y="15.08" width="0.29" height="10.72"/><rect class="cls-2" x="65.74" y="15.08" width="0.29" height="9.57"/><rect class="cls-2" x="66.7" y="15.08" width="0.29" height="7.61"/><rect class="cls-2" x="67.66" y="15.08" width="0.29" height="5.18"/><rect class="cls-2" x="68.63" y="15.08" width="0.29" height="3.62"/><rect class="cls-2" x="69.59" y="15.08" width="0.29" height="3.74"/><rect class="cls-2" x="70.55" y="15.08" width="0.29" height="4.49"/><rect class="cls-2" x="71.51" y="15.08" width="0.29" height="5.81"/><rect class="cls-2" x="72.47" y="15.08" width="0.29" height="7.11"/><rect class="cls-2" x="73.43" y="15.08" width="0.29" height="7.86"/><rect class="cls-2" x="74.39" y="15.08" width="0.29" height="8.07"/><rect class="cls-2" x="75.35" y="15.08" width="0.29" height="7.59"/><rect class="cls-2" x="76.32" y="15.08" width="0.29" height="6.04"/><rect class="cls-2" x="77.26" y="15.08" width="0.29" height="3.74"/><rect class="cls-2" x="78.22" y="15.08" width="0.29" height="1.73"/><rect class="cls-2" x="79.18" y="15.08" width="0.29" height="1.73"/><rect class="cls-2" x="80.14" y="15.08" width="0.29" height="2.91"/><rect class="cls-2" x="81.1" y="15.08" width="0.29" height="3.24"/><rect class="cls-2" x="82.06" y="15.08" width="0.29" height="1.92"/><rect class="cls-2" y="14.98" width="88.6" height="0.21"/></g></g></svg>