<svg xmlns="http://www.w3.org/2000/svg" viewBox="0 0 30.09 30.09"><defs><style>.cls-1{fill:#69bffe;}</style></defs><title>资源 12</title><g id="图层_2" data-name="图层 2"><g id="央铋_1" data-name="央铋 1"><path class="cls-1" d="M15.05,30.09h-.2V28.44h.52l0,1.65Zm-.78,0-.59,0,.15-1.64.52,0Zm1.74,0-.11-1.65.52,0L16.59,30ZM13.11,30l-.58-.09.28-1.62.51.07Zm4.05,0-.23-1.63.51-.08.3,1.62ZM12,29.77l-.56-.13.39-1.6c.17.05.34.08.51.12Zm6.35,0L18,28.13l.5-.13.42,1.6Zm-7.48-.24-.55-.17.52-1.57.49.16Zm8.6,0L19,27.86l.49-.16L20,29.26Zm-9.7-.32-.54-.21.64-1.52.48.19Zm10.8-.06-.6-1.54.47-.19.66,1.51ZM8.65,28.67l-.52-.26L8.89,27l.47.23Zm12.94-.08-.72-1.48.46-.23.78,1.45C21.94,28.42,21.77,28.51,21.59,28.59Zm-14-.46-.5-.29L8,26.44c.15.09.29.18.45.26Zm15-.08-.83-1.43.45-.27.88,1.4Zm-16-.53-.48-.34,1-1.32.42.29Zm17-.1-.93-1.35.42-.3,1,1.32Zm-17.9-.59-.45-.37,1.08-1.25a4.12,4.12,0,0,0,.4.33Zm18.84-.1-1.05-1.28.4-.34L25,26.35ZM4.81,26.08l-.42-.41,1.17-1.16.37.36ZM25.4,26l-1.14-1.19.37-.37,1.18,1.15C25.68,25.69,25.54,25.83,25.4,26ZM4,25.25l-.39-.43,1.26-1.07.34.38Zm22.22-.12L25,24q.17-.18.33-.39l1.27,1.06C26.47,24.84,26.34,25,26.21,25.13Zm-23-.76c-.12-.15-.24-.3-.35-.46l1.32-1,.32.42ZM27,24.24l-1.3-1,.31-.42,1.34,1C27.19,23.93,27.07,24.09,27,24.24Zm-24.4-.81c-.11-.16-.21-.32-.31-.48l1.4-.87c.09.14.18.29.28.43Zm25.08-.14-1.38-.9.28-.44,1.41.85C27.84,23,27.74,23.13,27.63,23.29ZM1.94,22.45c-.09-.17-.19-.34-.27-.51l1.46-.76c.08.15.16.3.25.45Zm26.29-.15-1.44-.8L27,21l1.47.74ZM1.41,21.42l-.24-.53,1.52-.65.21.48Zm27.34-.17-1.5-.68c.07-.16.14-.31.2-.47l1.53.62C28.91,20.9,28.83,21.08,28.75,21.25ZM1,20.35C.89,20.17.83,20,.77,19.8l1.56-.52c0,.16.11.32.17.49Zm28.23-.18-1.55-.56c.06-.16.12-.32.17-.49l1.57.5C29.32,19.81,29.26,20,29.19,20.17ZM.59,19.24l-.15-.56,1.6-.4c0,.17.09.34.14.5Zm29-.18L28,18.62c0-.16.09-.33.12-.5l1.61.38C29.65,18.69,29.6,18.88,29.55,19.06ZM.31,18.12c0-.19-.07-.38-.1-.58l1.62-.27c0,.17.06.34.1.51Zm29.5-.19-1.62-.31a4.54,4.54,0,0,0,.09-.51l1.63.25C29.88,17.55,29.85,17.74,29.81,17.93ZM.12,17l-.06-.58,1.64-.15c0,.18,0,.35.06.52ZM30,16.79l-1.64-.2c0-.17,0-.34,0-.51l1.65.12Zm-30-1c0-.19,0-.39,0-.58l1.65,0c0,.17,0,.35,0,.52Zm30.06-.19-1.65-.06c0-.17,0-.34,0-.52v-.32l1.64-.05V15C30.09,15.24,30.08,15.43,30.08,15.62ZM1.65,14.69,0,14.65l0-.58,1.64.1C1.66,14.35,1.66,14.52,1.65,14.69Zm26.76-.49c0-.17,0-.35,0-.52L30,13.52c0,.19,0,.38,0,.57ZM1.72,13.66.08,13.49c0-.19,0-.38.07-.57l1.63.22Zm26.59-.49c0-.17,0-.34-.08-.51l1.62-.29c0,.19.07.38.09.57ZM1.86,12.63.24,12.34c0-.19.07-.38.12-.57l1.6.36C1.93,12.3,1.89,12.47,1.86,12.63Zm26.27-.48-.12-.5,1.59-.42.14.56Zm-26-.52L.49,11.2l.16-.55,1.58.48C2.18,11.29,2.13,11.46,2.09,11.63Zm25.78-.48c-.06-.17-.11-.33-.17-.49l1.56-.54a5.05,5.05,0,0,1,.18.55ZM2.39,10.63.83,10.09C.9,9.91,1,9.72,1,9.54l1.53.61Zm25.13-.46c-.06-.16-.12-.32-.19-.47L28.84,9c.08.18.15.36.22.54ZM2.77,9.67,1.26,9l.24-.53L3,9.2C2.91,9.35,2.84,9.51,2.77,9.67Zm24.34-.45c-.07-.15-.15-.3-.23-.45L28.34,8l.26.52ZM3.22,8.74,1.77,8l.28-.51,1.43.84A4.83,4.83,0,0,0,3.22,8.74Zm23.41-.42-.27-.45L27.75,7l.3.49ZM3.75,7.84,2.36,7c.1-.17.21-.33.32-.49L4,7.41Zm22.33-.39c-.1-.15-.2-.29-.31-.43l1.32-1,.34.47ZM4.34,7,3,6l.36-.46,1.28,1C4.55,6.72,4.44,6.85,4.34,7Zm21.12-.38-.34-.39,1.24-1.09.37.44ZM5,6.19,3.76,5.1a5.22,5.22,0,0,1,.39-.43L5.34,5.81C5.22,5.93,5.11,6.06,5,6.19Zm19.78-.36-.36-.36,1.15-1.18a5.44,5.44,0,0,1,.41.42ZM5.71,5.44,4.56,4.26c.13-.14.28-.27.42-.4l1.1,1.23ZM24,5.11l-.39-.34L24.7,3.51l.44.38ZM6.48,4.75,5.42,3.48c.15-.12.3-.25.45-.36l1,1.3Zm16.75-.31-.41-.3,1-1.34.47.35ZM7.29,4.12l-1-1.35.48-.33.9,1.38Zm15.1-.28L22,3.57l.85-1.41.49.31ZM8.16,3.55,7.31,2.14l.51-.29.79,1.44Zm13.35-.24-.46-.24.74-1.48.52.28ZM9.07,3.05,8.33,1.58l.52-.25.68,1.5Zm11.51-.21c-.16-.07-.31-.14-.48-.2l.63-1.53.53.23ZM10,2.63,9.38,1.1,9.93.89l.56,1.55Zm9.61-.18-.49-.17.5-1.57.56.19ZM11,2.28,10.48.7,11,.54l.44,1.59A4.13,4.13,0,0,0,11,2.28Zm7.65-.15L18.14,2,18.51.4c.19,0,.38.09.57.15ZM12,2,11.6.4l.57-.13.31,1.62Zm5.65-.1-.51-.09L17.37.18l.57.1ZM13,1.8,12.74.17,13.32.1l.18,1.64Zm3.62-.06-.52-.05L16.22.05,16.8.1ZM14,1.69,13.9,0l.58,0,.06,1.65A4.41,4.41,0,0,0,14,1.69Zm1.55,0h-.51V0h.58Z"/></g></g></svg>