<svg xmlns="http://www.w3.org/2000/svg" viewBox="0 0 57.39 37.42"><defs><style>.cls-1{fill:#ff7000;}.cls-2{fill:#00b8de;}</style></defs><title>资源 4</title><g id="图层_2" data-name="图层 2"><g id="Layer_1" data-name="Layer 1"><rect class="cls-1" x="28.62" y="0.34" width="0.15" height="3.27"/><rect class="cls-1" x="28.62" y="33.84" width="0.15" height="3.09"/><path class="cls-1" d="M28.69,3.14A15.57,15.57,0,1,0,44.26,18.71,15.57,15.57,0,0,0,28.69,3.14Zm0,30.61a15,15,0,1,1,15.05-15A15,15,0,0,1,28.69,33.75Z"/><path class="cls-1" d="M14.25,4.37,18.83,9a1.14,1.14,0,0,1,.11-.11L14.36,4.26Zm27.27,9.06,6-2.5-.06-.15-6,2.51Zm-26.7,5.28s0-.05,0-.08H8.34v.16h6.49S14.82,18.74,14.82,18.71ZM43.14,4.37,43,4.26,38.45,8.85l.1.11ZM15.92,13.29l-6-2.51-.06.15,6,2.5S15.9,13.33,15.92,13.29ZM41.46,24.13l6,2.5.06-.14-6-2.5Zm1.1-5.5v.16h6.49v-.16Zm-4.11,9.94L43,33.16l.11-.11-4.59-4.59Zm-24.2,4.48.11.11,4.58-4.59-.11-.11ZM15.87,24l-6,2.5.06.14,6-2.5S15.89,24,15.87,24Z"/><path class="cls-2" d="M1.58,18.71h0A27,27,0,0,1,9.08,0h1.19a.71.71,0,0,0-.15.15A26.16,26.16,0,0,0,2.43,18.71h0a26.12,26.12,0,0,0,7.69,18.56l.15.15H9.08a25.82,25.82,0,0,1-1.81-2.09A27,27,0,0,1,1.58,18.71ZM48.29,0a27,27,0,0,1,7.5,18.71h0a27,27,0,0,1-7.5,18.71h-1.2l.15-.15a26.13,26.13,0,0,0,7.7-18.56h0A26.13,26.13,0,0,0,47.24.15.53.53,0,0,0,47.09,0Z"/><path class="cls-2" d="M0,18.71H0A28.54,28.54,0,0,1,6.92,0H8.65A27.28,27.28,0,0,0,1.26,18.71h0A27.24,27.24,0,0,0,7,35.52a24.58,24.58,0,0,0,1.62,1.9H6.92c-.29-.36-.61-.73-.89-1.11a28.51,28.51,0,0,1-6-17.6ZM50.44,0a28.5,28.5,0,0,1,6.93,18.71h0a28.53,28.53,0,0,1-6.93,18.71H48.71a27.3,27.3,0,0,0,7.4-18.71h0A27.25,27.25,0,0,0,48.71,0Z"/><path class="cls-2" d="M2.86,18.71h0A25.71,25.71,0,0,1,10.42.45c.15-.15.3-.3.47-.45h1.26c-.39.34-.77.68-1.13,1A24.91,24.91,0,0,0,3.71,18.71h0A24.9,24.9,0,0,0,11,36.37c.36.37.74.71,1.13,1.05H10.89c-.17-.15-.32-.3-.47-.45A25.73,25.73,0,0,1,2.86,18.71ZM46.48,0c.17.15.32.3.47.45a25.76,25.76,0,0,1,7.56,18.26h0A25.77,25.77,0,0,1,47,37c-.15.15-.3.3-.47.45H45.22c.38-.34.77-.68,1.13-1.05a24.9,24.9,0,0,0,7.31-17.66h0A24.91,24.91,0,0,0,46.35,1C46,.68,45.6.34,45.22,0Z"/><path class="cls-2" d="M4.13,18.71h0A24.47,24.47,0,0,1,11.34,1.34c.47-.47,1-.91,1.47-1.34h.89a21.74,21.74,0,0,0-2,1.75,23.93,23.93,0,0,0-7,17h0a23.86,23.86,0,0,0,5,14.7,24.94,24.94,0,0,0,2,2.24,22,22,0,0,0,2,1.77h-.89a18.79,18.79,0,0,1-1.47-1.36,26.43,26.43,0,0,1-2.05-2.31,24.47,24.47,0,0,1-5.16-15ZM44.56,0c.51.43,1,.87,1.47,1.34a24.5,24.5,0,0,1,7.2,17.37h0A24.42,24.42,0,0,1,46,36.06a18.79,18.79,0,0,1-1.47,1.36h-.9a20.8,20.8,0,0,0,2-1.77,23.89,23.89,0,0,0,7-16.94h0a24,24,0,0,0-7-17,20.59,20.59,0,0,0-2-1.75Z"/><path class="cls-2" d="M5.37,18.71h0A23.17,23.17,0,0,1,12.21,2.24,22.88,22.88,0,0,1,14.79,0h.49A22.06,22.06,0,0,0,12.4,2.43,23,23,0,0,0,5.67,18.71h0a22.83,22.83,0,0,0,4.84,14.13A22.37,22.37,0,0,0,12.4,35a25.7,25.7,0,0,0,2.88,2.43h-.49a22.88,22.88,0,0,1-2.58-2.24A23.63,23.63,0,0,1,10.27,33a23.26,23.26,0,0,1-4.9-14.3ZM42.58,0a24.79,24.79,0,0,1,2.58,2.24A23.21,23.21,0,0,1,52,18.71h0a23.27,23.27,0,0,1-6.84,16.47,24.79,24.79,0,0,1-2.58,2.24h-.49A24.74,24.74,0,0,0,45,35,23,23,0,0,0,51.7,18.71h0A23,23,0,0,0,45,2.43,21.33,21.33,0,0,0,42.09,0Z"/><path class="cls-2" d="M6.48,18.71h0A22.11,22.11,0,0,1,13,3a20.93,20.93,0,0,1,3.75-3H17a21.48,21.48,0,0,0-3.9,3.11,22,22,0,0,0-6.47,15.6h0a22,22,0,0,0,4.64,13.53,21.31,21.31,0,0,0,1.83,2.07A23.88,23.88,0,0,0,17,37.42h-.25a21.9,21.9,0,0,1-3.75-3,22.79,22.79,0,0,1-1.84-2.08A22.16,22.16,0,0,1,6.48,18.71ZM40.64,0a21.29,21.29,0,0,1,3.75,3,22.15,22.15,0,0,1,6.5,15.71h0A22.17,22.17,0,0,1,40.64,37.42h-.26a23.06,23.06,0,0,0,3.9-3.11,21.94,21.94,0,0,0,6.48-15.6h0a21.94,21.94,0,0,0-6.48-15.6A20.82,20.82,0,0,0,40.38,0Z"/></g></g></svg>