<svg xmlns="http://www.w3.org/2000/svg" xmlns:xlink="http://www.w3.org/1999/xlink" viewBox="0 0 192.44 205.39"><defs><style>.cls-1{isolation:isolate;}.cls-2{mix-blend-mode:screen;}.cls-3{fill:#addff2;}.cls-4{fill:#82cbea;}.cls-5{fill:#6e9eb2;}.cls-6{fill:#6cb0bf;}.cls-7{fill:#54808a;}.cls-8{fill:#7a9fa6;}.cls-9{fill:#37626f;}.cls-10{fill:#a3bec3;}.cls-11{fill:#2b4b54;}.cls-12{fill:#d0dee0;}.cls-13{fill:#fff;}.cls-14{fill:#1e343a;}.cls-15{fill:url(#藉琨靾眄_沭噤桢眚_37);}.cls-16{fill:url(#藉琨靾眄_沭噤桢眚_37-2);}.cls-17{fill:url(#藉琨靾眄_沭噤桢眚_37-3);}.cls-18{fill:url(#藉琨靾眄_沭噤桢眚_37-4);}</style><linearGradient id="藉琨靾眄_沭噤桢眚_37" x1="107.52" y1="159.13" x2="107.52" y2="57.14" gradientUnits="userSpaceOnUse"><stop offset="0" stop-color="#6eb9dd"/><stop offset="0.57" stop-color="#9cd2e9"/><stop offset="1" stop-color="#bae2f1"/></linearGradient><linearGradient id="藉琨靾眄_沭噤桢眚_37-2" x1="107.5" y1="159.13" x2="107.5" y2="57.14" xlink:href="#藉琨靾眄_沭噤桢眚_37"/><linearGradient id="藉琨靾眄_沭噤桢眚_37-3" x1="77.17" y1="159.13" x2="77.17" y2="57.14" xlink:href="#藉琨靾眄_沭噤桢眚_37"/><linearGradient id="藉琨靾眄_沭噤桢眚_37-4" x1="137.2" y1="159.13" x2="137.2" y2="57.14" xlink:href="#藉琨靾眄_沭噤桢眚_37"/></defs><title>资源 2</title><g class="cls-1"><g id="图层_2" data-name="图层 2"><g id="图层_1-2" data-name="图层 1"><g class="cls-2"><polygon class="cls-3" points="160.47 69.41 134.46 43.41 107.25 43.41 107.25 29.43 107.52 29.43 107.52 43.13 134.58 43.13 134.62 43.17 160.66 69.22 160.47 69.41"/><path class="cls-4" d="M107.18,192.44A85.25,85.25,0,0,1,46.9,46.9,85.26,85.26,0,0,1,167.47,167.47,84.74,84.74,0,0,1,107.18,192.44Zm0-169.13a83.88,83.88,0,1,0,83.88,83.87A84,84,0,0,0,107.18,23.31Z"/><path class="cls-5" d="M105.58,184.82c-1.08,0-2.18-.07-3.25-.14v-.27c1.08.07,2.17.11,3.24.13Zm3.25,0v-.28c1.08,0,2.17-.06,3.24-.13l0,.27C111,184.75,109.91,184.79,108.83,184.82Zm-9.74-.4c-1.07-.11-2.16-.25-3.23-.4l0-.27c1.06.15,2.15.29,3.22.4Zm16.23,0,0-.27c1.07-.11,2.15-.25,3.21-.4l0,.27C117.48,184.16,116.39,184.3,115.32,184.41Zm-22.66-.93c-1.06-.2-2.13-.43-3.19-.67l.07-.27c1,.25,2.11.47,3.17.67Zm29.09,0,0-.27c1-.2,2.12-.43,3.17-.67l.06.26C123.88,183,122.81,183.26,121.75,183.47ZM86.32,182c-1-.28-2.08-.6-3.11-.93l.08-.26c1,.33,2.07.64,3.11.93Zm41.76,0-.08-.26c1-.29,2.09-.6,3.11-.94l.08.26C130.17,181.38,129.12,181.69,128.08,182Zm-48-2c-1-.38-2-.78-3-1.2l.11-.25c1,.41,2,.82,3,1.19Zm54.13,0-.09-.25c1-.38,2-.78,3-1.19l.1.25C136.28,179.2,135.27,179.6,134.26,180Zm-60.14-2.5c-1-.46-2-.95-2.91-1.45l.12-.24c1,.5,1.94,1,2.91,1.45Zm66.12,0-.12-.25c1-.46,1.94-.94,2.9-1.44l.12.24C142.19,176.51,141.21,177,140.24,177.46Zm-71.88-3c-.94-.54-1.88-1.11-2.79-1.69l.15-.22c.91.57,1.84,1.14,2.77,1.68Zm77.62,0-.13-.24c.93-.54,1.86-1.1,2.76-1.68l.15.23C147.85,173.34,146.92,173.91,146,174.45Zm5.48-3.49-.15-.22c.88-.61,1.76-1.25,2.62-1.91l.16.22C153.23,169.71,152.35,170.35,151.46,171Zm-88.6,0c-.88-.61-1.77-1.26-2.63-1.91l.17-.22c.85.65,1.74,1.3,2.62,1.91ZM156.64,167l-.18-.21c.83-.68,1.66-1.4,2.45-2.11l.19.2C158.3,165.63,157.47,166.34,156.64,167Zm-99,0c-.83-.69-1.66-1.41-2.46-2.13l.18-.2c.8.72,1.63,1.43,2.46,2.12Zm103.79-4.35-.19-.19c.77-.75,1.53-1.53,2.26-2.32l.2.19C163,161.15,162.24,161.93,161.47,162.68Zm-108.62,0c-.77-.75-1.54-1.53-2.27-2.32l.19-.19c.74.79,1.5,1.57,2.27,2.32ZM165.92,158l-.21-.18c.71-.82,1.41-1.66,2.07-2.5l.22.17C167.33,156.29,166.63,157.13,165.92,158Zm-117.52,0c-.71-.82-1.4-1.66-2.07-2.5l.21-.17c.67.84,1.36,1.68,2.07,2.49ZM170,152.85l-.22-.16c.63-.87,1.25-1.76,1.85-2.66l.23.15C171.23,151.08,170.6,152,170,152.85Zm-125.61,0c-.64-.87-1.26-1.77-1.86-2.67l.23-.15c.59.9,1.22,1.79,1.85,2.66Zm-3.6-5.41c-.56-.92-1.11-1.86-1.63-2.8l.24-.14c.52.94,1.06,1.89,1.62,2.8Zm132.81,0-.23-.14c.56-.93,1.11-1.87,1.63-2.81l.24.13C174.68,145.56,174.14,146.51,173.57,147.44ZM37.62,141.76c-.48-1-.94-1.95-1.38-2.93l.25-.11c.43,1,.9,2,1.38,2.92Zm139.1,0-.25-.12c.48-1,.95-2,1.39-2.93l.25.11C177.67,139.77,177.2,140.77,176.72,141.73ZM35,135.84c-.4-1-.78-2-1.14-3.05l.26-.09c.35,1,.73,2,1.13,3Zm144.39-.05-.25-.11c.39-1,.78-2,1.13-3l.26.09C180.15,133.75,179.77,134.78,179.37,135.79ZM32.84,129.7c-.32-1-.61-2.08-.88-3.13l.26-.07c.27,1,.57,2.09.88,3.12Zm148.67-.07-.26-.08c.31-1,.61-2.08.87-3.12l.27.07C182.12,127.54,181.83,128.6,181.51,129.63ZM31.22,123.41c-.23-1.06-.43-2.13-.61-3.2l.27,0c.18,1.06.38,2.13.6,3.18ZM30.14,117c-.14-1.07-.25-2.16-.34-3.24l.27,0c.09,1.07.2,2.16.34,3.22Zm-.55-6.48c0-1.08-.07-2.17-.07-3.25h.27c0,1.07,0,2.16.07,3.24Zm.27-6.49h-.27c0-1.08.11-2.17.19-3.25l.27,0C30,101.86,29.9,103,29.86,104Zm.53-6.46-.27,0c.13-1.07.29-2.16.46-3.22l.27.05C30.68,95.43,30.52,96.5,30.39,97.57Zm1.06-6.39-.26-.05c.22-1.06.47-2.13.73-3.17l.27.07C31.92,89.07,31.67,90.13,31.45,91.18Zm1.6-6.28-.26-.07c.31-1,.65-2.08,1-3.11l.25.09C33.7,82.83,33.36,83.87,33.05,84.9Zm2.13-6.13-.25-.1c.4-1,.82-2,1.26-3l.25.11C36,76.76,35.58,77.77,35.18,78.77Zm2.64-5.93-.24-.12c.48-1,1-1.94,1.51-2.89l.23.13C38.81,70.9,38.3,71.87,37.82,72.84ZM41,67.15,40.71,67c.56-.92,1.15-1.85,1.75-2.75l.23.15C42.09,65.31,41.51,66.23,41,67.15Zm3.59-5.4-.22-.16c.63-.87,1.29-1.74,2-2.59l.22.17C45.83,60,45.17,60.88,44.54,61.75Zm4-5.08-.2-.18c.7-.81,1.43-1.63,2.17-2.41l.2.18C50,55.05,49.27,55.86,48.56,56.67ZM53,52l-.19-.2c.77-.75,1.56-1.5,2.36-2.23l.19.21C54.56,50.45,53.76,51.19,53,52Zm4.81-4.34-.18-.21c.83-.69,1.69-1.37,2.55-2l.16.21C59.49,46.25,58.63,46.92,57.81,47.61ZM63,43.69l-.16-.23c.88-.61,1.79-1.22,2.7-1.8l.15.23C64.74,42.47,63.84,43.07,63,43.69Zm5.45-3.48L68.28,40c.93-.54,1.89-1.06,2.84-1.56l.13.24C70.3,39.14,69.34,39.67,68.41,40.21Zm5.73-3L74,37c1-.46,2-.91,3-1.33l.11.25C76.1,36.3,75.11,36.74,74.14,37.2Zm6-2.51L80,34.43c1-.37,2-.73,3.07-1.07l.08.26C82.13,34,81.1,34.31,80.09,34.69Zm6.16-2-.07-.26c1-.29,2.1-.56,3.15-.81l.06.26C88.34,32.12,87.29,32.39,86.25,32.68Zm6.31-1.48,0-.27c1-.2,2.13-.38,3.2-.54l0,.27C94.69,30.81,93.61,31,92.56,31.2Zm6.4-.95,0-.27c1.07-.11,2.16-.2,3.24-.27V30C101.12,30.05,100,30.14,99,30.25Z"/><path class="cls-6" d="M64.18,205.39A107.34,107.34,0,0,1,39.1,190l7-8.54a95.55,95.55,0,0,0,22.49,13.83Zm-29.54-19.3a107.67,107.67,0,0,1-18.73-22.7l9.4-5.8A96.37,96.37,0,0,0,42.13,178ZM13,158.29A106.47,106.47,0,0,1,2.59,130.73l10.79-2.42A95.47,95.47,0,0,0,22.66,153ZM1.46,124.93A108.46,108.46,0,0,1,.63,95.52l11,1.19a96.11,96.11,0,0,0-.57,10.47,97.28,97.28,0,0,0,1.32,15.93ZM12.33,91.46,1.42,89.67a107.11,107.11,0,0,1,8.75-28.13l10,4.72A95.8,95.8,0,0,0,12.33,91.46ZM22.57,61.52l-9.73-5.25A107.79,107.79,0,0,1,30.26,32.54l7.94,7.7A96.38,96.38,0,0,0,22.57,61.52ZM42,36.54l-7.5-8.12A107.17,107.17,0,0,1,58.64,11.6l5,9.85A96.24,96.24,0,0,0,42,36.54ZM155.1,23.83a95.87,95.87,0,0,0-24.47-9.9l2.68-10.72a106.26,106.26,0,0,1,27.3,11ZM68.43,19.18,64,9.07A106.11,106.11,0,0,1,92.3,1l1.52,11A95.36,95.36,0,0,0,68.43,19.18Zm57-6.39a97,97,0,0,0-18.28-1.74h0c-2.69,0-5.41.12-8.09.34l-.92-11c3-.24,6-.37,9-.37h0a108.32,108.32,0,0,1,20.37,1.93Z"/><path class="cls-7" d="M107.18,177.44a70.47,70.47,0,0,1-16.34-1.91l2.5-10.46a59.4,59.4,0,0,0,13.84,1.63c1.84,0,3.69-.09,5.5-.26l1,10.71C111.53,177.34,109.35,177.44,107.18,177.44Z"/><path class="cls-8" d="M116.53,176.83l-1.43-10.66a58.71,58.71,0,0,0,18.53-5.68l4.8,9.61A69.36,69.36,0,0,1,116.53,176.83Z"/><path class="cls-7" d="M88.05,174.8A69.55,69.55,0,0,1,67.34,165l6.12-8.83A59.16,59.16,0,0,0,91,164.46Z"/><path class="cls-8" d="M141,168.77l-5.19-9.41a59.6,59.6,0,0,0,15.22-12l7.94,7.24A69.89,69.89,0,0,1,141,168.77Z"/><path class="cls-9" d="M65,163.33a69.86,69.86,0,0,1-15.78-16.59l8.89-6a59.29,59.29,0,0,0,13.37,14.05Z"/><path class="cls-10" d="M160.83,152.43l-8.23-6.92a58.79,58.79,0,0,0,9.88-16.68l10,3.89A69.7,69.7,0,0,1,160.83,152.43Z"/><path class="cls-9" d="M47.66,144.34a69.87,69.87,0,0,1-8.74-21.18l10.48-2.41a59,59,0,0,0,7.39,17.91Z"/><path class="cls-10" d="M173.49,130l-10.17-3.47a59.25,59.25,0,0,0,3.15-19.13v-.13l10.75,0v.15A70,70,0,0,1,173.49,130Z"/><path class="cls-11" d="M38.34,120.34a70.94,70.94,0,0,1-.49-22.88L48.49,99a60.86,60.86,0,0,0-.59,8.44,59,59,0,0,0,1,11Z"/><path class="cls-12" d="M166.41,104.84a58.74,58.74,0,0,0-4-19l10-3.91a69.55,69.55,0,0,1,4.7,22.42Z"/><path class="cls-11" d="M48.88,96.57,38.31,94.62a69.72,69.72,0,0,1,7.81-21.54l9.37,5.28A58.74,58.74,0,0,0,48.88,96.57Z"/><path class="cls-13" d="M161.51,83.63a59.33,59.33,0,0,0-10.58-16.24l7.93-7.25a70,70,0,0,1,12.5,19.18Z"/><path class="cls-14" d="M56.73,76.26,47.59,70.6A70.29,70.29,0,0,1,62.65,53.35l6.83,8.3A59.53,59.53,0,0,0,56.73,76.26Z"/><path class="cls-15" d="M138.65,73.33a46.63,46.63,0,0,0-62.34-.54l-3.66-4.14a52.18,52.18,0,0,1,69.73.6Z"/><path class="cls-16" d="M140.51,74.05a2.77,2.77,0,0,1-1.86-.72,46.63,46.63,0,0,0-62.34-.54,2.76,2.76,0,0,1-3.66-4.14,52.18,52.18,0,0,1,69.73.6,2.76,2.76,0,0,1-1.87,4.8Z"/><path class="cls-17" d="M96.56,158.78a2.32,2.32,0,0,1-.59-.07,52.19,52.19,0,0,1-41-50.95,51.75,51.75,0,0,1,4.4-21A2.76,2.76,0,0,1,64.47,89a46.28,46.28,0,0,0-3.93,18.77,46.89,46.89,0,0,0,36.61,45.55,2.77,2.77,0,0,1-.59,5.47Z"/><path class="cls-18" d="M117.8,158.78a2.77,2.77,0,0,1-.58-5.47,46.88,46.88,0,0,0,36.6-45.55,46.29,46.29,0,0,0-3.61-18,2.77,2.77,0,0,1,5.1-2.14,52.19,52.19,0,0,1-36.91,71.12A2.46,2.46,0,0,1,117.8,158.78Z"/><path class="cls-3" d="M124.16,31.22a3.36,3.36,0,1,1-2.73-3.89A3.37,3.37,0,0,1,124.16,31.22Z"/><path class="cls-3" d="M149,41.59A3.36,3.36,0,1,1,147.81,37,3.35,3.35,0,0,1,149,41.59Z"/><circle class="cls-3" cx="107.39" cy="29.43" r="3.36"/><path class="cls-3" d="M137.05,35.32a3.36,3.36,0,1,1-2-4.31A3.36,3.36,0,0,1,137.05,35.32Z"/><path class="cls-3" d="M159.76,49.85a3.36,3.36,0,1,1-.41-4.73A3.35,3.35,0,0,1,159.76,49.85Z"/><path class="cls-3" d="M168.88,59.84a3.36,3.36,0,1,1,.42-4.73A3.35,3.35,0,0,1,168.88,59.84Z"/><path class="cls-3" d="M176.13,71.27a3.36,3.36,0,1,1,1.23-4.59A3.36,3.36,0,0,1,176.13,71.27Z"/><path class="cls-3" d="M181.29,83.78a3.36,3.36,0,1,1,2-4.31A3.35,3.35,0,0,1,181.29,83.78Z"/><path class="cls-3" d="M184.19,97a3.36,3.36,0,1,1,2.72-3.9A3.36,3.36,0,0,1,184.19,97Z"/><path class="cls-3" d="M184.75,110.52a3.36,3.36,0,1,1,3.36-3.36A3.37,3.37,0,0,1,184.75,110.52Z"/><path class="cls-3" d="M183,123.93a3.36,3.36,0,1,1,3.89-2.73A3.36,3.36,0,0,1,183,123.93Z"/></g></g></g></g></svg>