<svg xmlns="http://www.w3.org/2000/svg" viewBox="0 0 57.41 10.24"><defs><style>.cls-1{fill:#00b8de;}.cls-1,.cls-2{fill-rule:evenodd;}.cls-2{fill:#ff7000;}</style></defs><title>资源 14</title><g id="图层_2" data-name="图层 2"><g id="Layer_1" data-name="Layer 1"><path class="cls-1" d="M8.85,0H41.74l6.52,6.5H4.91V3.92L8.85,0Zm37.2,5.76-5-5h-.78l5,5Zm-1.74,0-5-5h-.76l5,5Zm-1.75,0-5-5H36.8l5,5Z"/><polygon class="cls-1" points="55.16 10.24 36.33 10.24 32.6 6.5 57.41 6.5 57.41 7.99 55.16 10.24"/><polygon class="cls-1" points="34.36 9.69 33.23 9.69 30.96 7.43 32.09 7.43 34.36 9.69"/><polygon class="cls-1" points="32.27 9.69 31.14 9.69 28.88 7.43 30.01 7.43 32.27 9.69"/><polygon class="cls-1" points="30.19 9.69 29.06 9.69 26.79 7.43 27.93 7.43 30.19 9.69"/><polygon class="cls-1" points="28.09 9.69 26.97 9.69 24.71 7.43 25.83 7.43 28.09 9.69"/><polygon class="cls-1" points="26.01 9.69 24.89 9.69 22.63 7.43 23.74 7.43 26.01 9.69"/><polygon class="cls-1" points="23.92 9.69 22.8 9.69 20.54 7.43 21.66 7.43 23.92 9.69"/><polygon class="cls-1" points="21.84 9.69 20.71 9.69 18.46 7.43 19.57 7.43 21.84 9.69"/><polygon class="cls-1" points="19.75 9.69 18.62 9.69 16.36 7.43 17.49 7.43 19.75 9.69"/><polygon class="cls-1" points="17.67 9.69 16.54 9.69 14.27 7.43 15.4 7.43 17.67 9.69"/><polygon class="cls-2" points="15.57 9.69 14.45 9.69 12.19 7.43 13.31 7.43 15.57 9.69"/><polygon class="cls-1" points="48.06 1.52 49.79 3.24 48.06 4.98 48.06 1.52"/><polygon class="cls-1" points="51.21 1.52 52.94 3.24 51.21 4.98 51.21 1.52"/><polygon class="cls-2" points="54.36 1.52 56.09 3.24 54.36 4.98 54.36 1.52"/><polygon class="cls-1" points="4.03 4.56 3.16 5.43 4.03 6.29 4.03 4.56"/><polygon class="cls-1" points="2.44 4.56 1.57 5.43 2.44 6.29 2.44 4.56"/><polygon class="cls-1" points="0.87 4.56 0 5.43 0.87 6.29 0.87 4.56"/></g></g></svg>