<svg xmlns="http://www.w3.org/2000/svg" viewBox="0 0 87.8 92.76"><defs><style>.cls-1{fill:#36a9e1;}.cls-2{fill:#1d71b8;}.cls-3{fill:#f39200;}</style></defs><title>资源 1</title><g id="图层_2" data-name="图层 2"><g id="Layer_1" data-name="Layer 1"><path class="cls-1" d="M40.36,13.61a9.62,9.62,0,0,0-1,.22c-.32.08-.72.16-1.18.29s-1,.28-1.58.47a34.38,34.38,0,0,0-4.13,1.67,33.54,33.54,0,0,0-5,3A33,33,0,0,0,14.94,54.29a32.87,32.87,0,0,0,7.49,13.78,32.76,32.76,0,0,0,14.18,9.19c.59.18,1.12.35,1.58.47l1.19.3c.64.15,1,.21,1,.21l-1.57,7.85L38.49,86c-.2,0-.52-.1-.92-.2l-1.47-.37c-.58-.15-1.23-.37-2-.58A41.11,41.11,0,0,1,11,65.73,42.07,42.07,0,0,1,7.2,56.32,41.09,41.09,0,0,1,29,9.06,42.32,42.32,0,0,1,34.12,7c.73-.24,1.4-.41,2-.59s1.08-.26,1.48-.36c.79-.2,1.23-.27,1.23-.27Z"/><path class="cls-2" d="M52.9,13.54l-.37-.07-1-.15c-.41-.07-.88-.12-1.4-.17l-.79-.08-.81,0c-.55,0-1.1,0-1.61,0s-1,0-1.4,0c-.83,0-1.37.08-1.37.08l-.64-8S44.21,5,45.23,5c.51,0,1.1,0,1.74,0s1.32,0,2,0l1,.06,1,.09c.63.07,1.23.13,1.73.22l1.22.18.46.09Z"/><path class="cls-2" d="M63,17.21l-1.21-.64c-.73-.37-1.72-.84-2.74-1.24a28.75,28.75,0,0,0-2.85-1,9.62,9.62,0,0,0-.95-.27L54.91,14l2-7.77.45.12c.29.06.7.18,1.19.33A37.1,37.1,0,0,1,62,7.9c1.27.49,2.5,1.08,3.41,1.54l1.5.79Z"/><path class="cls-2" d="M71.4,24a32.3,32.3,0,0,0-3.11-3.07l-1.25-1-1.13-.83c-.32-.25-.62-.42-.81-.56l-.32-.21,4.36-6.71.39.26c.24.17.61.39,1,.69l1.4,1,1.55,1.26a40.67,40.67,0,0,1,3.87,3.82Z"/><path class="cls-2" d="M77.19,33.07a35,35,0,0,0-2-3.9l-.42-.7-.44-.66a13.61,13.61,0,0,0-.8-1.16l-.58-.8a2.44,2.44,0,0,0-.24-.3L79,20.6a4,4,0,0,1,.29.37L80,22c.31.41.65.9,1,1.44.18.26.36.54.54.82s.35.58.52.87c.35.58.69,1.17,1,1.74s.58,1.09.78,1.56.4.85.52,1.12.19.43.19.43Z"/><path class="cls-2" d="M79.71,43.53s0-.55-.13-1.37c0-.4-.12-.88-.19-1.38s-.19-1.05-.29-1.58A31.49,31.49,0,0,0,77.93,35l7.55-2.66a40.63,40.63,0,0,1,1.46,5.24c.12.67.26,1.33.36,2l.24,1.73L87.69,43Z"/><path class="cls-2" d="M78.72,54.26l.09-.36c0-.23.16-.56.23-1l.27-1.37c.07-.51.16-1.05.24-1.6s.11-1.09.15-1.6.06-1,.08-1.4c0-.82,0-1.37,0-1.37l8-.08s0,.69,0,1.71c0,.5-.06,1.1-.1,1.74s-.13,1.31-.19,2-.2,1.35-.29,2-.24,1.21-.34,1.71-.22.91-.28,1.2-.12.45-.12.45Z"/><path class="cls-2" d="M74.34,64.1l.2-.32a8.31,8.31,0,0,0,.52-.84A27.65,27.65,0,0,0,76.5,60.3c.48-1,.89-2,1.18-2.76l.46-1.29,7.61,2.5s-.23.63-.57,1.6-.88,2.21-1.47,3.44-1.25,2.41-1.79,3.28c-.25.44-.48.81-.65,1.05l-.26.39Z"/><path class="cls-2" d="M67,72l1.06-.87c.33-.25.67-.59,1.06-.93s.77-.73,1.16-1.12.76-.79,1.1-1.17c.17-.19.34-.37.49-.55l.42-.51.63-.77.22-.3,6.39,4.82-.28.38-.78,1-.52.64-.62.68c-.42.47-.87,1-1.37,1.45s-1,1-1.44,1.39-.9.84-1.3,1.15l-1.32,1.08Z"/><path class="cls-3" d="M.62,53.56l.19,1c.06.33.14.73.23,1.2s.23,1,.37,1.54a47.27,47.27,0,0,0,2.82,8,48.91,48.91,0,0,0,4.21,7.38c.69.93,1.24,1.72,1.68,2.24l.67.82.51.62c.35.4.87,1,1.53,1.7a48.18,48.18,0,0,0,6.1,5.4,46.71,46.71,0,0,0,16.18,7.73,45.25,45.25,0,0,0,6.59,1.2,46.48,46.48,0,0,0,13.16-.4,45.66,45.66,0,0,0,11-3.35,45,45,0,0,0,7.13-4c.83-.53,1.42-1,1.86-1.32L75.5,83l-1.12-1.45-.62.46c-.41.29-1,.77-1.79,1.27a43.13,43.13,0,0,1-6.84,3.8,44,44,0,0,1-10.58,3.22,44.74,44.74,0,0,1-12.65.39,43.42,43.42,0,0,1-6.34-1.16A45.15,45.15,0,0,1,20,82.08a47,47,0,0,1-5.86-5.2l-1.47-1.63-.49-.6s-.24-.28-.65-.79-1-1.26-1.61-2.15a47,47,0,0,1-4-7.09A45.32,45.32,0,0,1,3.18,56.9c-.13-.54-.25-1-.35-1.48s-.16-.83-.22-1.15l-.19-1s0-.26-.11-.76-.2-1.24-.27-2.18A44.36,44.36,0,0,1,2,42.49,45.42,45.42,0,0,1,4.15,31.66,44.82,44.82,0,0,1,9.81,20.33a45,45,0,0,1,8.6-9.28,46.55,46.55,0,0,1,4.74-3.4,46.21,46.21,0,0,1,12-5.18c.92-.24,1.65-.4,2.14-.52L38,1.79,37.65,0l-.79.16c-.52.13-1.27.29-2.22.54A47.26,47.26,0,0,0,22.19,6.1a49.1,49.1,0,0,0-4.93,3.53,46.83,46.83,0,0,0-9,9.66,47,47,0,0,0-5.89,11.8A47.71,47.71,0,0,0,.14,42.35a45.74,45.74,0,0,0,.09,8.14c.07,1,.21,1.75.27,2.27S.62,53.56.62,53.56Z"/></g></g></svg>