<svg xmlns="http://www.w3.org/2000/svg" viewBox="0 0 103.87 103.87"><defs><style>.cls-1,.cls-2{fill:#fff;}.cls-2{opacity:0.5;}</style></defs><title>资源 8</title><g id="图层_2" data-name="图层 2"><g id="图层_1-2" data-name="图层 1"><path class="cls-1" d="M51.93,96.61A44.68,44.68,0,1,1,96.61,51.93,44.72,44.72,0,0,1,51.93,96.61m0-84.14A39.47,39.47,0,1,0,91.4,51.93,39.5,39.5,0,0,0,51.93,12.47m0,85A45.54,45.54,0,1,0,6.4,51.93,45.59,45.59,0,0,0,51.93,97.47Zm0-84.13A38.6,38.6,0,1,1,13.34,51.93,38.63,38.63,0,0,1,51.93,13.34Z"/><path class="cls-2" d="M13,50a39,39,0,0,1,78,0H97A45.1,45.1,0,0,0,6.88,50Z"/><rect class="cls-1" x="51.77" y="99.5" width="0.81" height="4.37" transform="translate(104.36 203.37) rotate(180)"/><rect class="cls-1" x="86.88" y="84.75" width="0.81" height="4.37" transform="translate(210.48 86.69) rotate(135)"/><rect class="cls-1" x="101.28" y="49.5" width="0.81" height="4.37" transform="translate(153.37 -49.99) rotate(90)"/><rect class="cls-1" x="86.53" y="14.4" width="0.81" height="4.37" transform="translate(37.19 -56.62) rotate(45)"/><rect class="cls-1" x="51.28" width="0.81" height="4.37"/><rect class="cls-1" x="16.18" y="14.74" width="0.81" height="4.37" transform="translate(-7.11 16.69) rotate(-45)"/><rect class="cls-1" x="1.78" y="49.99" width="0.81" height="4.37" transform="translate(-49.99 54.37) rotate(-90)"/><rect class="cls-1" x="16.53" y="85.1" width="0.81" height="4.37" transform="translate(-32.82 160.98) rotate(-135)"/><rect class="cls-1" x="64.47" y="98.07" width="0.41" height="2.19" transform="translate(152.82 178.2) rotate(164.99)"/><rect class="cls-1" x="76.26" y="93.17" width="0.41" height="2.19" transform="translate(189.79 137.71) rotate(150.02)"/><rect class="cls-1" x="94.13" y="75.24" width="0.41" height="2.19" transform="matrix(-0.5, 0.87, -0.87, -0.5, 207.63, 32.84)"/><rect class="cls-1" x="99" y="63.43" width="0.41" height="2.19" transform="translate(187.16 -14.65) rotate(104.97)"/><rect class="cls-1" x="98.97" y="38.11" width="0.41" height="2.19" transform="translate(111.43 -66.73) rotate(75.03)"/><rect class="cls-1" x="94.06" y="26.32" width="0.41" height="2.19" transform="matrix(0.5, 0.87, -0.87, 0.5, 70.9, -67.94)"/><rect class="cls-1" x="76.13" y="8.44" width="0.41" height="2.19" transform="translate(15 -36.89) rotate(30)"/><rect class="cls-1" x="64.32" y="3.57" width="0.41" height="2.19" transform="translate(3.39 -16.51) rotate(14.97)"/><rect class="cls-1" x="39" y="3.61" width="0.41" height="2.19" transform="translate(0.12 10.32) rotate(-15.01)"/><rect class="cls-1" x="27.21" y="8.51" width="0.41" height="2.19" transform="translate(-1.13 14.99) rotate(-30)"/><rect class="cls-1" x="9.33" y="26.45" width="0.41" height="2.19" transform="translate(-19.08 22.02) rotate(-60)"/><rect class="cls-1" x="4.46" y="38.25" width="0.41" height="2.19" transform="matrix(0.26, -0.97, 0.97, 0.26, -34.55, 33.66)"/><rect class="cls-1" x="4.5" y="63.57" width="0.41" height="2.19" transform="translate(-56.54 85.96) rotate(-105.01)"/><rect class="cls-1" x="9.4" y="75.37" width="0.41" height="2.19" transform="translate(-51.81 123.01) rotate(-120)"/><rect class="cls-1" x="27.34" y="93.24" width="0.41" height="2.19" transform="translate(4.21 189.81) rotate(-150)"/><rect class="cls-1" x="39.14" y="98.11" width="0.41" height="2.19" transform="translate(51.65 205.22) rotate(-164.99)"/></g></g></svg>