<svg xmlns="http://www.w3.org/2000/svg" viewBox="0 0 27.76 28.04"><defs><style>.cls-1{fill:#375d81;}</style></defs><title>资源 2</title><g id="图层_2" data-name="图层 2"><g id="Layer_1" data-name="Layer 1"><path class="cls-1" d="M13.88,10.17a3.66,3.66,0,1,0,3.66,3.65A3.65,3.65,0,0,0,13.88,10.17Zm0,6a2.4,2.4,0,1,1,2.4-2.4A2.39,2.39,0,0,1,13.88,16.22ZM27.33,16l-2-.65a11,11,0,0,0,.12-1.54c0-.39,0-.77-.06-1.15L27.33,12a.62.62,0,0,0,.4-.77l-1-3.14a.61.61,0,0,0-.77-.4l-1.88.61a11.85,11.85,0,0,0-1.6-2.24L23.6,4.5a.62.62,0,0,0-.14-.85L20.78,1.71a.61.61,0,0,0-.85.13L18.81,3.38a11.48,11.48,0,0,0-2.67-.89V.61A.61.61,0,0,0,15.53,0H12.22a.61.61,0,0,0-.61.61V2.49A11.56,11.56,0,0,0,9,3.38L7.83,1.84A.62.62,0,0,0,7,1.7l-2.67,2a.6.6,0,0,0-.14.85L5.31,6.09A11.9,11.9,0,0,0,3.7,8.33L1.82,7.72a.62.62,0,0,0-.77.39L0,11.26A.61.61,0,0,0,.42,12l2,.64a10.93,10.93,0,0,0-.06,1.15,13,13,0,0,0,.11,1.54L.42,16a.61.61,0,0,0-.39.77l1,3.15a.61.61,0,0,0,.77.39l2.09-.68a11.44,11.44,0,0,0,1.56,2.1l-1.31,1.8a.6.6,0,0,0,.14.85L7,26.34a.62.62,0,0,0,.86-.13l1.33-1.84a11.49,11.49,0,0,0,2.45.79v2.27a.61.61,0,0,0,.61.61h3.31a.61.61,0,0,0,.61-.61V25.16a11.14,11.14,0,0,0,2.45-.79l1.34,1.84a.61.61,0,0,0,.85.13l2.68-1.95a.62.62,0,0,0,.14-.85l-1.31-1.8a12.22,12.22,0,0,0,1.56-2.09l2.08.67a.6.6,0,0,0,.77-.39l1-3.15A.62.62,0,0,0,27.33,16ZM13.88,21.3a7.48,7.48,0,1,1,7.48-7.48A7.48,7.48,0,0,1,13.88,21.3Z"/></g></g></svg>