<svg xmlns="http://www.w3.org/2000/svg" viewBox="0 0 562 532.53"><defs><style>.cls-1{opacity:0.8;}.cls-2{fill:#5fffe8;}</style></defs><title>资源 16</title><g id="图层_2" data-name="图层 2"><g id="央铋_1" data-name="央铋 1"><g class="cls-1"><rect class="cls-2" x="273.04" width="7.06" height="25.24"/><rect class="cls-2" x="250.46" y="1.34" width="7.07" height="25.24" transform="translate(-0.07 26.64) rotate(-6)"/><rect class="cls-2" x="228.14" y="5.04" width="7.07" height="25.24" transform="translate(1.4 48.63) rotate(-12.02)"/><rect class="cls-2" x="206.34" y="11.05" width="7.06" height="25.24" transform="translate(2.96 66.04) rotate(-18.01)"/><polygon class="cls-2" points="197.18 42.01 190.72 44.89 180.45 21.83 186.91 18.95 197.18 42.01"/><polygon class="cls-2" points="178.11 51.5 171.99 55.02 159.36 33.17 165.48 29.63 178.11 51.5"/><rect class="cls-2" x="146.31" y="42.16" width="7.07" height="25.24" transform="translate(-3.59 98.53) rotate(-35.99)"/><rect class="cls-2" x="128.83" y="56.52" width="7.07" height="25.24" transform="translate(-12.23 106.45) rotate(-42.05)"/><polygon class="cls-2" points="128.23 91.06 123.5 96.31 104.74 79.43 109.47 74.18 128.23 91.06"/><rect class="cls-2" x="98.84" y="90.3" width="7.07" height="25.24" transform="translate(-41.05 125.36) rotate(-54.04)"/><rect class="cls-2" x="86.66" y="109.36" width="7.07" height="25.24" transform="translate(-60.55 139) rotate(-59.96)"/><rect class="cls-2" x="76.53" y="129.58" width="7.07" height="25.24" transform="translate(-82.42 157.45) rotate(-65.98)"/><rect class="cls-2" x="68.57" y="150.76" width="7.07" height="25.24" transform="translate(-105.56 181.43) rotate(-71.99)"/><rect class="cls-2" x="62.88" y="172.65" width="7.07" height="25.24" transform="translate(-128.61 211.8) rotate(-78.03)"/><rect class="cls-2" x="59.49" y="195.01" width="7.07" height="25.24" transform="translate(-150.07 248.57) rotate(-83.99)"/><rect class="cls-2" x="49.38" y="226.69" width="25.24" height="7.07"/><rect class="cls-2" x="50.72" y="249.28" width="25.24" height="7.07" transform="translate(-26.08 8) rotate(-6)"/><rect class="cls-2" x="54.42" y="271.59" width="25.24" height="7.07" transform="translate(-55.56 19.86) rotate(-11.96)"/><rect class="cls-2" x="60.43" y="293.4" width="25.24" height="7.07" transform="translate(-88.24 37.14) rotate(-18.01)"/><rect class="cls-2" x="68.68" y="314.46" width="25.24" height="7.07" transform="translate(-122.47 60.69) rotate(-24.04)"/><rect class="cls-2" x="79.09" y="334.54" width="25.24" height="7.07" transform="translate(-156.91 91.31) rotate(-30.04)"/><rect class="cls-2" x="91.54" y="353.42" width="25.24" height="7.07" transform="translate(-189.91 129.38) rotate(-36)"/><polygon class="cls-2" points="125.54 363.36 130.27 368.61 111.51 385.51 106.77 380.25 125.54 363.36"/><polygon class="cls-2" points="453.3 332.19 456.83 326.07 478.69 338.69 475.15 344.82 453.3 332.19"/><rect class="cls-2" x="472.58" y="302.6" width="7.07" height="25.24" transform="translate(-5.23 622.39) rotate(-66.05)"/><rect class="cls-2" x="480.54" y="281.42" width="7.07" height="25.24" transform="matrix(0.31, -0.95, 0.95, 0.31, 55.05, 663.81)"/><rect class="cls-2" x="486.25" y="259.53" width="7.07" height="25.24" transform="translate(122.03 694.9) rotate(-78.04)"/><polygon class="cls-2" points="480.24 251.98 480.98 244.95 506.08 247.6 505.34 254.63 480.24 251.98"/><polygon class="cls-2" points="481.57 230.72 481.56 223.66 506.8 223.66 506.8 230.73 481.57 230.72"/><polygon class="cls-2" points="480.67 209.44 479.92 202.41 505.03 199.78 505.76 206.82 480.67 209.44"/><rect class="cls-2" x="476.53" y="178.76" width="25.24" height="7.07" transform="translate(-27.31 106.31) rotate(-12.07)"/><polygon class="cls-2" points="472.23 167.75 470.04 161.03 494.05 153.23 496.23 159.96 472.23 167.75"/><rect class="cls-2" x="462.26" y="135.89" width="25.24" height="7.07" transform="translate(-15.63 205.43) rotate(-24.03)"/><polygon class="cls-2" points="455.31 128.71 451.77 122.6 473.64 109.98 477.17 116.11 455.31 128.71"/><rect class="cls-2" x="439.4" y="96.93" width="25.24" height="7.07" transform="translate(27.4 285.17) rotate(-36.04)"/><rect class="cls-2" x="425.04" y="79.45" width="25.24" height="7.07" transform="translate(57.01 314.37) rotate(-42.03)"/><polygon class="cls-2" points="415.74 78.85 410.48 74.12 427.37 55.36 432.64 60.1 415.74 78.85"/><polygon class="cls-2" points="399.32 65.28 393.6 61.13 408.44 40.7 414.16 44.87 399.32 65.28"/><rect class="cls-2" x="372.2" y="37.27" width="25.24" height="7.07" transform="translate(157.12 353.71) rotate(-60.01)"/><polygon class="cls-2" points="362.69 43.65 356.23 40.78 366.5 17.71 372.97 20.59 362.69 43.65"/><polygon class="cls-2" points="342.88 35.82 336.15 33.64 343.97 9.63 350.69 11.82 342.88 35.82"/><polygon class="cls-2" points="322.36 30.1 315.45 28.64 320.7 3.94 327.63 5.42 322.36 30.1"/><polygon class="cls-2" points="301.37 26.56 294.33 25.83 296.98 0.72 304.01 1.47 301.37 26.56"/><path class="cls-2" d="M450.6,447.25l-6.12-7.76-4.78-6.08Q432.22,439,424.33,444a258.86,258.86,0,0,1-67.55,30.22q1.16,3.64,2.33,7.29a267.3,267.3,0,0,0,69.55-31.12l11,16.32,2.39-1.53q7.45-4.86,14.6-10.22C519,408.23,562,332.8,562,228.71h-9.72C552.28,329.24,510.76,402.08,450.6,447.25Z"/><path class="cls-2" d="M256.92,506.43q.36-4.64.71-9.27A289.59,289.59,0,0,1,157.4,472.05c1.9-3.81,3.8-7.64,5.7-11.46,45.44,20.76,97,28.39,146.92,22.88q-1.09-8.82-2.18-17.63a268,268,0,0,1-56.49.24l.48-4.2a263,263,0,0,0,68.36-2q1.15,6.45,2.33,12.91c8.09-1.3,16.12-3,24-5L343,455.16a245,245,0,0,0,36.7-12.53q-2.91-6.17-5.83-12.33c-45.09,19.53-96.75,24.32-145.06,14.37q-1.36,5.91-2.72,11.83c-.11.46-.21.92-.32,1.38-.32,1.38-.63,2.75-.95,4.13-44.61-9.2-86.58-30-119.23-62.5l-12.86,12.7a239.22,239.22,0,0,0,53.43,39.85l-6.54,11C64.51,421.78,9.3,343.66,9.3,228.71H0C0,394.83,111.48,486.62,234.7,504.09q-.87,5.45-1.73,10.87-9.85-1.4-19.59-3.41-1.62,7-3.23,14.05C338.44,552,483.86,502.83,548.37,378l-12.76-7.05C481.22,476.19,366.46,525,256.07,517.39,256.35,513.74,256.64,510.08,256.92,506.43Z"/><path class="cls-2" d="M301.21,511.44A309.58,309.58,0,0,0,382,494.73q-1.78-4.56-3.55-9.12a298.74,298.74,0,0,1-78,16.13Z"/><path class="cls-2" d="M73.1,431.56l-4.28,4.23-2.76,2.72a262.71,262.71,0,0,1-54.44-78.78L2,364.45A271.82,271.82,0,0,0,75.87,462l3.52-4.05c1.18-1.36,2.35-2.7,3.52-4.06L85.45,451a277.53,277.53,0,0,0,62.83,39.43q1.32-2.68,2.66-5.35A271.71,271.71,0,0,1,89.4,446.42Q81,439.35,73.1,431.56Z"/></g></g></g></svg>