<svg xmlns="http://www.w3.org/2000/svg" viewBox="0 0 22.1 28.04"><defs><style>.cls-1{fill:#375d81;}</style></defs><title>资源 4</title><g id="图层_2" data-name="图层 2"><g id="Layer_1" data-name="Layer 1"><path class="cls-1" d="M18.4,1.5,15.77,0l-.93.71,1.49,1.5v8.58L15,11.54l-.9-2.06V3.19h-.62V6.12a2.38,2.38,0,1,0-4.75,0V3.19H8.06V9.48l-.9,2.06-1.39-.75V2.21L7.27.71,6.33,0,3.71,1.5,0,12.59v6.22l5.38,5.37L6.56,23l1.65,1.65v2.51l.88.88H13l.88-.88V24.65L15.55,23l1.18,1.18,5.37-5.37V12.59ZM3.58,20.41c-.39,0-.71-2.57-.71-5.73S3.19,9,3.58,9s.71,2.56.71,5.73S4,20.41,3.58,20.41Zm2.29-.67A.76.76,0,0,1,5.12,19a.75.75,0,0,1,1.5,0A.76.76,0,0,1,5.87,19.74Zm0-3A.75.75,0,1,1,6.62,16,.76.76,0,0,1,5.87,16.76Zm0-3A.75.75,0,1,1,6.62,13,.75.75,0,0,1,5.87,13.78Zm8.43-3.09.4.9v6.74l-.4.4ZM8.93,6.12A2.07,2.07,0,0,1,11.05,4a2.07,2.07,0,0,1,2.13,2.13V19.7H8.93Zm0,14.08h4.25v2.55H8.93ZM7.41,11.59l.4-.91v8.05l-.4-.4Zm6.31,12.88-.07.08v2.36H8.46V24.55l-.07-.08L7.17,23.26h7.77Zm2.52-4.73a.76.76,0,0,1-.75-.76.75.75,0,1,1,.75.76Zm0-3a.75.75,0,0,1,0-1.5.75.75,0,1,1,0,1.5Zm0-3A.75.75,0,1,1,17,13,.75.75,0,0,1,16.24,13.78Zm2.29,6.63c-.4,0-.71-2.57-.71-5.73S18.13,9,18.53,9s.71,2.56.71,5.73S18.92,20.41,18.53,20.41ZM12.18,6.74H9.93a.59.59,0,0,0-.6.59v6.8a.6.6,0,0,0,.6.6h2.25a.6.6,0,0,0,.6-.6V7.33A.59.59,0,0,0,12.18,6.74Zm.18,5.63a.47.47,0,0,1-.48.47H10.22a.47.47,0,0,1-.47-.47v-.06a.47.47,0,0,1,.47-.47h1.66a.47.47,0,0,1,.48.47Zm0-1.71a.47.47,0,0,1-.48.48H10.22a.47.47,0,0,1-.47-.48V10.6a.47.47,0,0,1,.47-.47h1.66a.47.47,0,0,1,.48.47Zm0-1.7a.47.47,0,0,1-.48.47H10.22A.47.47,0,0,1,9.75,9V8.9a.47.47,0,0,1,.47-.47h1.66a.47.47,0,0,1,.48.47Z"/></g></g></svg>