<svg xmlns="http://www.w3.org/2000/svg" viewBox="0 0 962 57"><defs><style>.cls-1{fill:#fff;}</style></defs><title>资源 3</title><g id="图层_2" data-name="图层 2"><g id="Layer_1" data-name="Layer 1"><rect class="cls-1" y="24.56" width="2" height="2"/><rect class="cls-1" x="5" y="24.56" width="2" height="2"/><rect class="cls-1" x="10" y="24.56" width="2" height="2"/><rect class="cls-1" x="16" y="24.56" width="2" height="2"/><rect class="cls-1" x="21" y="24.56" width="2" height="2"/><rect class="cls-1" x="26" y="24.56" width="2" height="2"/><rect class="cls-1" x="31" y="24.56" width="2" height="2"/><rect class="cls-1" x="37" y="24.56" width="2" height="2"/><rect class="cls-1" x="42" y="24.56" width="2" height="2"/><rect class="cls-1" x="47" y="24.56" width="2" height="2"/><rect class="cls-1" x="52" y="24.56" width="2" height="2"/><rect class="cls-1" x="58" y="24.56" width="2" height="2"/><rect class="cls-1" x="63" y="24.56" width="2" height="2"/><rect class="cls-1" x="68" y="24.56" width="2" height="2"/><rect class="cls-1" x="73" y="24.56" width="2" height="2"/><rect class="cls-1" x="80" y="24.56" width="2" height="2"/><rect class="cls-1" x="84.44" y="25" width="3" height="2"/><rect class="cls-1" x="90" y="24.56" width="2" height="2"/><rect class="cls-1" x="94" y="24.56" width="2" height="2"/><rect class="cls-1" x="100.44" y="25" width="2" height="6"/><rect class="cls-1" x="105.44" y="22" width="3" height="9"/><rect class="cls-1" x="111" y="24.56" width="2" height="2"/><rect class="cls-1" x="116" y="24.56" width="2" height="2"/><rect class="cls-1" x="122" y="24.56" width="2" height="2"/><rect class="cls-1" x="126.44" y="17" width="3" height="19"/><rect class="cls-1" x="132.44" y="14" width="2" height="27"/><rect class="cls-1" x="137.44" y="10" width="2" height="37"/><rect class="cls-1" x="142.44" y="1" width="2" height="56"/><rect class="cls-1" x="683.44" y="10" width="2" height="37"/><rect class="cls-1" x="689.44" width="2" height="56"/><rect class="cls-1" x="148.44" y="15" width="2" height="21"/><rect class="cls-1" x="153.44" y="20" width="2" height="13"/><rect class="cls-1" x="158" y="24.56" width="2" height="2"/><rect class="cls-1" x="164" y="24.56" width="2" height="2"/><rect class="cls-1" x="169" y="24.56" width="2" height="2"/><rect class="cls-1" x="174" y="24.56" width="2" height="2"/><rect class="cls-1" x="179.44" y="20" width="2" height="12"/><rect class="cls-1" x="185.44" y="16" width="2" height="19"/><rect class="cls-1" x="190" y="24.56" width="2" height="2"/><rect class="cls-1" x="196" y="24.56" width="2" height="2"/><rect class="cls-1" x="201.44" y="25" width="3" height="2"/><rect class="cls-1" x="207" y="24.56" width="2" height="2"/><rect class="cls-1" x="212" y="24.56" width="2" height="2"/><rect class="cls-1" x="217" y="24.56" width="2" height="2"/><rect class="cls-1" x="221.44" y="16" width="2" height="19"/><rect class="cls-1" x="227.44" y="18" width="3" height="12"/><rect class="cls-1" x="233" y="24.56" width="2" height="2"/><rect class="cls-1" x="238" y="24.56" width="2" height="2"/><rect class="cls-1" x="243.44" y="25" width="3" height="2"/><rect class="cls-1" x="249" y="24.56" width="2" height="2"/><rect class="cls-1" x="254" y="24.56" width="2" height="2"/><rect class="cls-1" x="259" y="24.56" width="2" height="2"/><rect class="cls-1" x="263.44" y="26" width="4" height="1"/><rect class="cls-1" x="270" y="24.56" width="2" height="2"/><rect class="cls-1" x="275" y="24.56" width="2" height="2"/><rect class="cls-1" x="280.44" y="25" width="3" height="2"/><rect class="cls-1" x="285.44" y="16" width="3" height="20"/><rect class="cls-1" x="291.44" y="1" width="2" height="45"/><rect class="cls-1" x="296.44" y="14" width="2" height="23"/><rect class="cls-1" x="302" y="24.56" width="2" height="2"/><rect class="cls-1" x="307.44" y="25" width="3" height="2"/><rect class="cls-1" x="313" y="24.56" width="2" height="2"/><rect class="cls-1" x="317" y="24.56" width="2" height="2"/><rect class="cls-1" x="323" y="24.56" width="2" height="2"/><rect class="cls-1" x="328.44" y="25" width="3" height="2"/><rect class="cls-1" x="334" y="24.56" width="2" height="2"/><rect class="cls-1" x="339" y="24.56" width="2" height="2"/><rect class="cls-1" x="344" y="24.56" width="2" height="2"/><rect class="cls-1" x="349.44" y="25" width="3" height="2"/><rect class="cls-1" x="355" y="24.56" width="2" height="2"/><rect class="cls-1" x="360" y="24.56" width="2" height="2"/><rect class="cls-1" x="365" y="24.56" width="2" height="2"/><rect class="cls-1" x="370.44" y="25" width="3" height="2"/><rect class="cls-1" x="376" y="24.56" width="2" height="2"/><rect class="cls-1" x="381.44" y="25" width="3" height="2"/><rect class="cls-1" x="386.44" y="18" width="2" height="9"/><rect class="cls-1" x="391.44" y="18" width="3" height="21"/><rect class="cls-1" x="397.44" y="13" width="2" height="33"/><rect class="cls-1" x="402.44" y="6" width="2" height="29"/><rect class="cls-1" x="407.44" y="18" width="3" height="14"/><rect class="cls-1" x="414" y="24.56" width="2" height="2"/><rect class="cls-1" x="419" y="24.56" width="2" height="2"/><rect class="cls-1" x="424" y="24.56" width="2" height="2"/><rect class="cls-1" x="429" y="24.56" width="2" height="2"/><rect class="cls-1" x="435" y="24.56" width="2" height="2"/><rect class="cls-1" x="440.44" y="25" width="3" height="2"/><rect class="cls-1" x="445" y="24.56" width="2" height="2"/><rect class="cls-1" x="450" y="24.56" width="2" height="2"/><rect class="cls-1" x="456" y="24.56" width="2" height="2"/><rect class="cls-1" x="462" y="24.56" width="2" height="2"/><rect class="cls-1" x="466" y="24.56" width="2" height="2"/><rect class="cls-1" x="471" y="24.56" width="2" height="2"/><rect class="cls-1" x="477" y="24.56" width="2" height="2"/><rect class="cls-1" x="482.44" y="25" width="3" height="2"/><rect class="cls-1" x="487.44" y="25" width="3" height="2"/><rect class="cls-1" x="493" y="24.56" width="2" height="2"/><rect class="cls-1" x="499" y="24.56" width="2" height="2"/><rect class="cls-1" x="504" y="24.56" width="2" height="2"/><rect class="cls-1" x="508.44" y="22" width="3" height="5"/><rect class="cls-1" x="514" y="24.56" width="2" height="2"/><rect class="cls-1" x="519.44" y="21" width="2" height="7"/><rect class="cls-1" x="525" y="24.56" width="2" height="2"/><rect class="cls-1" x="530" y="24.56" width="2" height="2"/><rect class="cls-1" x="535" y="24.56" width="2" height="2"/><rect class="cls-1" x="541" y="24.56" width="2" height="2"/><rect class="cls-1" x="545.44" y="22" width="2" height="14"/><rect class="cls-1" x="550.44" y="1" width="3" height="48"/><rect class="cls-1" x="556.44" y="10" width="2" height="28"/><rect class="cls-1" x="694.44" y="1" width="2" height="48"/><rect class="cls-1" x="699.44" y="10" width="2" height="28"/><rect class="cls-1" x="562" y="24.56" width="2" height="2"/><rect class="cls-1" x="567" y="24.56" width="2" height="2"/><rect class="cls-1" x="572" y="24.56" width="2" height="2"/><rect class="cls-1" x="577" y="24.56" width="2" height="2"/><rect class="cls-1" x="583.44" y="25" width="3" height="2"/><rect class="cls-1" x="588.44" y="25" width="3" height="2"/><rect class="cls-1" x="594" y="24.56" width="2" height="2"/><rect class="cls-1" x="599" y="24.56" width="2" height="2"/><rect class="cls-1" x="605" y="24.56" width="2" height="2"/><rect class="cls-1" x="610" y="24.56" width="2" height="2"/><rect class="cls-1" x="615" y="24.56" width="2" height="2"/><rect class="cls-1" x="620" y="24.56" width="2" height="2"/><rect class="cls-1" x="626" y="24.56" width="2" height="2"/><rect class="cls-1" x="631" y="24.56" width="2" height="2"/><rect class="cls-1" x="636" y="24.56" width="2" height="2"/><rect class="cls-1" x="641" y="24.56" width="2" height="2"/><rect class="cls-1" x="647" y="24.56" width="2" height="2"/><rect class="cls-1" x="652" y="24.56" width="2" height="2"/><rect class="cls-1" x="657" y="24.56" width="2" height="2"/><rect class="cls-1" x="662" y="24.56" width="2" height="2"/><rect class="cls-1" x="668" y="24.56" width="2" height="2"/><rect class="cls-1" x="673" y="24.56" width="2" height="2"/><rect class="cls-1" x="678.44" y="18" width="2" height="16"/><rect class="cls-1" x="683.44" y="25" width="4" height="2"/><rect class="cls-1" x="689.44" y="25" width="3" height="2"/><rect class="cls-1" x="695" y="24.56" width="2" height="2"/><rect class="cls-1" x="700" y="24.56" width="2" height="2"/><rect class="cls-1" x="705.44" y="25" width="3" height="2"/><rect class="cls-1" x="711" y="24.56" width="2" height="2"/><rect class="cls-1" x="716" y="24.56" width="2" height="2"/><rect class="cls-1" x="721" y="24.56" width="2" height="2"/><rect class="cls-1" x="726.44" y="25" width="3" height="2"/><rect class="cls-1" x="732" y="24.56" width="2" height="2"/><rect class="cls-1" x="737" y="24.56" width="2" height="2"/><rect class="cls-1" x="742" y="24.56" width="2" height="2"/><rect class="cls-1" x="747.44" y="25" width="3" height="2"/><rect class="cls-1" x="753" y="24.56" width="2" height="2"/><rect class="cls-1" x="758" y="24.56" width="2" height="2"/><rect class="cls-1" x="763.44" y="22" width="2" height="10"/><rect class="cls-1" x="768.44" y="20" width="3" height="14"/><rect class="cls-1" x="774.44" y="22" width="2" height="9"/><rect class="cls-1" x="779" y="24.56" width="2" height="2"/><rect class="cls-1" x="784.44" y="25" width="3" height="2"/><rect class="cls-1" x="789.44" y="25" width="4" height="2"/><rect class="cls-1" x="796" y="24.56" width="2" height="2"/><rect class="cls-1" x="801" y="24.56" width="2" height="2"/><rect class="cls-1" x="806" y="24.56" width="2" height="2"/><rect class="cls-1" x="812" y="24.56" width="2" height="2"/><rect class="cls-1" x="817" y="24.56" width="2" height="2"/><rect class="cls-1" x="822" y="24.56" width="2" height="2"/><rect class="cls-1" x="827" y="24.56" width="2" height="2"/><rect class="cls-1" x="833" y="24.56" width="2" height="2"/><rect class="cls-1" x="838" y="24.56" width="2" height="2"/><rect class="cls-1" x="843" y="24.56" width="2" height="2"/><rect class="cls-1" x="848" y="24.56" width="2" height="2"/><rect class="cls-1" x="854" y="24.56" width="2" height="2"/><rect class="cls-1" x="859" y="24.56" width="2" height="2"/><rect class="cls-1" x="864" y="24.56" width="2" height="2"/><rect class="cls-1" x="869" y="24.56" width="2" height="2"/><rect class="cls-1" x="875" y="24.56" width="2" height="2"/><rect class="cls-1" x="880.44" y="4" width="2" height="38"/><rect class="cls-1" x="885.44" y="10" width="2" height="25"/><rect class="cls-1" x="890.44" y="13" width="2" height="19"/><rect class="cls-1" x="897.44" y="20" width="2" height="10"/><rect class="cls-1" x="902" y="24.56" width="2" height="2"/><rect class="cls-1" x="907" y="24.56" width="2" height="2"/><rect class="cls-1" x="912" y="24.56" width="2" height="2"/><rect class="cls-1" x="918" y="24.56" width="2" height="2"/><rect class="cls-1" x="923" y="24.56" width="2" height="2"/><rect class="cls-1" x="928" y="24.56" width="2" height="2"/><rect class="cls-1" x="933" y="24.56" width="2" height="2"/><rect class="cls-1" x="939" y="24.56" width="2" height="2"/><rect class="cls-1" x="944.44" y="17" width="2" height="18"/><rect class="cls-1" x="948.44" y="13" width="2" height="24"/><rect class="cls-1" x="954" y="24.56" width="2" height="2"/><rect class="cls-1" x="960" y="24.56" width="2" height="2"/></g></g></svg>