<svg xmlns="http://www.w3.org/2000/svg" viewBox="0 0 438.73 60.5"><defs><style>.cls-1{fill:#96d0ff;}</style></defs><title>资源 5</title><g id="图层_2" data-name="图层 2"><g id="Layer_8" data-name="Layer 8"><polygon class="cls-1" points="20.91 19.49 16.1 19.49 0 35.59 0 55.45 6.19 55.45 6.19 41.78 20.91 27.05 20.91 19.49"/><polygon class="cls-1" points="22.68 25.28 29.88 18.08 28.08 16.29 16.09 16.29 14.07 18.31 22.68 18.31 22.68 25.28"/><polygon class="cls-1" points="64.57 23.16 69.55 18.19 69.55 0 62.85 0 57.87 4.98 64.57 4.98 64.57 23.16"/><polygon class="cls-1" points="63.3 19.49 63.3 6.42 44.05 6.42 8.09 42.37 8.09 55.45 44.05 19.49 63.3 19.49"/><polygon class="cls-1" points="428.96 12.06 410.7 30.32 410.7 36.96 428.96 18.7 438.73 18.7 438.73 12.06 428.96 12.06"/><polygon class="cls-1" points="401.46 49.48 380.64 49.48 375.29 54.83 378.7 58.23 401.46 58.23 424.72 34.98 420.34 30.6 401.46 49.48"/><polygon class="cls-1" points="378.14 49.48 367.96 49.48 367.96 52.02 376.44 60.5 379.3 60.5 373.21 54.41 378.14 49.48"/><polygon class="cls-1" points="52.48 21.36 45.45 21.36 32.59 34.22 37.32 38.95 44.36 38.95 39.62 34.22 52.48 21.36"/><polygon class="cls-1" points="409.25 38.46 64.39 38.46 50.78 24.85 41.54 34.1 55.15 47.71 400.01 47.71 409.25 38.46"/></g></g></svg>