<svg xmlns="http://www.w3.org/2000/svg" xmlns:xlink="http://www.w3.org/1999/xlink" viewBox="0 0 81 81"><defs><style>.cls-1,.cls-2,.cls-3,.cls-4{fill:none;stroke:#00b0ff;stroke-miterlimit:10;}.cls-1{stroke-dasharray:1.99 1.99 1.99 1.99 1.99 1.99;}.cls-3{stroke-dasharray:1.96 1.96 1.96 1.96 1.96 1.96;}.cls-4{stroke-dasharray:2.09 2.09 2.09 2.09 2.09 2.09;}.cls-5{fill:url(#linear-gradient);}.cls-6{fill:url(#linear-gradient-2);}.cls-7{fill:#00b0ff;opacity:0.2;}</style><linearGradient id="linear-gradient" x1="46.2" y1="32.43" x2="20.7" y2="28.43" gradientTransform="translate(77 4) rotate(90)" gradientUnits="userSpaceOnUse"><stop offset="0"/><stop offset="0.1" stop-color="#000e14"/><stop offset="0.3" stop-color="#003349"/><stop offset="0.59" stop-color="#006d9e"/><stop offset="0.89" stop-color="#00b0ff"/></linearGradient><linearGradient id="linear-gradient-2" x1="-5.8" y1="27.81" x2="-31.3" y2="23.81" gradientTransform="translate(8.62 25) rotate(-90)" xlink:href="#linear-gradient"/></defs><title>资源 7</title><g id="图层_2" data-name="图层 2"><g id="Layer_1" data-name="Layer 1"><circle class="cls-1" cx="40.5" cy="40.5" r="40"/><circle class="cls-2" cx="40.5" cy="40.5" r="35"/><circle class="cls-3" cx="40.5" cy="40.5" r="30"/><circle class="cls-2" cx="40.5" cy="40.5" r="25"/><circle class="cls-4" cx="40.5" cy="40.5" r="20"/><circle class="cls-2" cx="40.5" cy="40.5" r="15"/><path class="cls-5" d="M40.69,27.88a12.62,12.62,0,0,1,0,25.24v-3a9.62,9.62,0,1,0,0-19.24Z"/><path class="cls-6" d="M40.31,53.12a12.62,12.62,0,0,1,0-25.24v3a9.62,9.62,0,0,0,0,19.24Z"/><path class="cls-7" d="M34.06,40.5a6.44,6.44,0,1,1,6.44,6.44A6.45,6.45,0,0,1,34.06,40.5Z"/><path class="cls-7" d="M40.5,45.94a5.44,5.44,0,1,1,5.44-5.44A5.45,5.45,0,0,1,40.5,45.94Z"/><path class="cls-7" d="M40.5,44.94a4.44,4.44,0,1,1,4.44-4.44A4.44,4.44,0,0,1,40.5,44.94Z"/><path class="cls-7" d="M40.5,43.94a3.44,3.44,0,1,1,3.44-3.44A3.45,3.45,0,0,1,40.5,43.94Z"/><path class="cls-7" d="M40.5,42.94a2.44,2.44,0,1,1,2.44-2.44A2.45,2.45,0,0,1,40.5,42.94Z"/><path class="cls-7" d="M40.5,41.94a1.44,1.44,0,1,1,1.44-1.44A1.45,1.45,0,0,1,40.5,41.94Z"/><path class="cls-7" d="M40.5,40.94a.44.44,0,1,1,.44-.44A.44.44,0,0,1,40.5,40.94Z"/></g></g></svg>