<svg xmlns="http://www.w3.org/2000/svg" viewBox="0 0 61.73 61.67"><defs><style>.cls-1,.cls-4{fill:#00b3ea;}.cls-2{fill:#1d71b8;}.cls-3{fill:#f39200;}.cls-4{opacity:0.2;}</style></defs><title>资源 4</title><g id="图层_2" data-name="图层 2"><g id="Layer_1" data-name="Layer 1"><path class="cls-1" d="M28.12,2.56a3.19,3.19,0,0,0-.47,0l-1.31.2a14.38,14.38,0,0,0-2,.4l-1.23.31-.66.18-.68.24A28.46,28.46,0,0,0,3.22,24.36,20,20,0,0,0,2.74,27,13,13,0,0,0,2.54,29c-.06,1.15-.09,1.8-.09,1.8H0s0-.71.1-1.95a15.55,15.55,0,0,1,.21-2.23A24.54,24.54,0,0,1,.84,23.8,30.9,30.9,0,0,1,21,1.63l.74-.27.72-.19L23.75.83A14.28,14.28,0,0,1,26,.4L27.38.18a3.14,3.14,0,0,1,.5-.06Z"/><path class="cls-2" d="M39.57,6.69l-.52-.19a11,11,0,0,0-1.49-.44,17.75,17.75,0,0,0-2.36-.52l-1.48-.22c-.52-.08-1.07-.07-1.64-.11A25.72,25.72,0,0,0,16.15,9.8a25,25,0,0,0-6.34,6.35,28,28,0,0,0-3.47,7c-.14.56-.28,1.09-.41,1.6a9.39,9.39,0,0,0-.32,1.46c-.11.92-.31,1.72-.32,2.39l-.11,2.11H3.88L4,28.51c0-.7.22-1.54.34-2.52a10.23,10.23,0,0,1,.34-1.52c.13-.54.28-1.1.43-1.68A29.16,29.16,0,0,1,8.74,15.4a26.55,26.55,0,0,1,6.67-6.66A27,27,0,0,1,32.14,3.91c.6,0,1.18,0,1.73.11l1.54.24a19.36,19.36,0,0,1,2.49.55,10.51,10.51,0,0,1,1.57.46l.54.2Z"/><path class="cls-2" d="M45.63,51.85l1.68-1.27,1.79-1.64,1-1.11.54-.59c.18-.21.34-.45.51-.68A24.41,24.41,0,0,0,55,39.72a26.2,26.2,0,0,0,1.61-8.83A25.93,25.93,0,0,0,51.22,15.2l-.51-.68-.54-.6-1-1.1c-.67-.66-1.29-1.18-1.78-1.64s-1-.73-1.24-.95l-.44-.34.75-1.06.47.35c.29.24.76.54,1.3,1s1.16,1,1.86,1.73c.34.36.69.75,1.06,1.16l.57.63.53.71a25.64,25.64,0,0,1,4,7.21,27.47,27.47,0,0,1,1.65,9.28,27.47,27.47,0,0,1-1.69,9.27,25.94,25.94,0,0,1-4,7.19c-.18.24-.35.49-.54.71l-.57.63-1,1.16-1.88,1.71c-1.12.86-1.77,1.34-1.77,1.34Z"/><path class="cls-2" d="M5.18,30.84s0,.77.1,2.11a29.15,29.15,0,0,0,1,5.46,27.75,27.75,0,0,0,3.44,7,25.15,25.15,0,0,0,6.32,6.37A25.56,25.56,0,0,0,32,56.47c.57,0,1.13,0,1.65-.09l1.47-.23a17,17,0,0,0,2.37-.5A11,11,0,0,0,39,55.21l.52-.19.43,1.23-.54.2a12.14,12.14,0,0,1-1.57.45,17.93,17.93,0,0,1-2.49.54l-1.54.23c-.55.06-1.13.07-1.74.1a26.92,26.92,0,0,1-16.7-4.89,26.36,26.36,0,0,1-6.64-6.69,29,29,0,0,1-3.61-7.4A29.54,29.54,0,0,1,4,33.06l-.11-2.22Z"/><path class="cls-3" d="M37.59,3.25,36.65,3l-2.12-.33A14.65,14.65,0,0,0,32.4,2.5l-1,0L31.48,0l1.05.05a17.46,17.46,0,0,1,2.31.2l2.3.36,1,.26Z"/><path class="cls-3" d="M46.87,7.36a1,1,0,0,0-.22-.15l-.6-.37c-.51-.3-1.16-.73-1.84-1.09l-1.93-.93a3.81,3.81,0,0,0-.65-.28l-.25-.09.9-2.27.28.1a4.83,4.83,0,0,1,.7.3l2.1,1c.74.39,1.45.86,2,1.18l.65.4a2,2,0,0,1,.24.17Z"/><path class="cls-3" d="M54.1,14.49l-.59-.78a13.5,13.5,0,0,0-1.35-1.65c-.54-.57-1-1.18-1.47-1.56L50,9.84,51.62,8l.78.71c.48.42,1,1.08,1.59,1.7a15.79,15.79,0,0,1,1.47,1.79l.63.85Z"/><path class="cls-3" d="M58.35,23.7s-.1-.38-.24-.94-.45-1.29-.7-2c-.14-.37-.26-.74-.41-1.07s-.3-.64-.43-.9l-.42-.88,2.18-1.12s.18.39.46,1l.46,1c.16.37.29.77.45,1.17.27.8.61,1.57.75,2.19l.27,1Z"/><path class="cls-3" d="M59.13,33.82a1.33,1.33,0,0,0,0-.26c0-.17,0-.42,0-.71,0-.58.08-1.36.09-2.14s-.07-1.55-.1-2.14a7.23,7.23,0,0,0-.09-1l2.44-.28s.07.42.09,1.05l.11,2.32c0,.85-.07,1.69-.1,2.32,0,.32,0,.58,0,.77s0,.29,0,.29Z"/><path class="cls-3" d="M56.26,43.56l.42-.88c.12-.26.29-.56.42-.9s.26-.71.4-1.08a15.91,15.91,0,0,0,.67-2c.15-.56.24-.94.24-.94l2.38.59-.27,1a16.55,16.55,0,0,1-.73,2.2c-.15.4-.29.8-.43,1.17s-.32.69-.45,1l-.46,1Z"/><path class="cls-3" d="M50.16,51.67l.72-.66c.41-.41.92-1,1.45-1.57a17.55,17.55,0,0,0,1.33-1.68l.59-.78,2,1.4-.63.84A20.46,20.46,0,0,1,54.18,51c-.57.62-1.13,1.26-1.57,1.71l-.78.71Z"/><path class="cls-3" d="M41.62,57.14a6.51,6.51,0,0,0,.89-.39l1.93-.93,1.83-1.11a6.06,6.06,0,0,0,.81-.54l1.39,2a6.17,6.17,0,0,1-.87.58l-2,1.21-2.1,1a7.9,7.9,0,0,1-1,.43Z"/><path class="cls-3" d="M31.68,59.22l1,0,1-.05c.37,0,.75-.11,1.13-.16.77-.13,1.55-.2,2.12-.35l.94-.24.6,2.37-1,.26c-.61.16-1.46.25-2.29.38-.42.06-.84.14-1.23.18l-1.08,0-1.06.06Z"/><path class="cls-3" d="M21.65,57.7s.36.15.92.32l2.07.54c.75.21,1.54.26,2.11.37l1,.15-.27,2.43-1-.16c-.62-.12-1.47-.17-2.29-.4l-2.25-.59c-.61-.18-1-.34-1-.34Z"/><path class="cls-3" d="M12.78,52.77l.78.58c.48.34,1.07.84,1.74,1.25l1.83,1.11a4.36,4.36,0,0,0,.62.33l.24.12-1.11,2.18-.26-.13a6.91,6.91,0,0,1-.68-.36l-2-1.2c-.72-.45-1.37-1-1.88-1.36l-.85-.64Z"/><path class="cls-3" d="M6.25,45l.5.83.52.85L8,47.6a24.28,24.28,0,0,0,2,2.41l-1.8,1.65A23.1,23.1,0,0,1,6,49l-.74-1-.57-.93-.54-.9Z"/><path class="cls-3" d="M2.85,35.44l.15,1c.11.57.33,1.32.51,2.08a16.2,16.2,0,0,0,.66,2l.33.92-2.26.91-.37-1a16.69,16.69,0,0,1-.71-2.22C1,38.31.72,37.5.6,36.87s-.16-1-.16-1Z"/><path class="cls-4" d="M56.15,30.84A25.28,25.28,0,1,1,30.87,5.56,25.28,25.28,0,0,1,56.15,30.84Z"/></g></g></svg>