<svg xmlns="http://www.w3.org/2000/svg" viewBox="0 0 378.36 378.36"><defs><style>.cls-1{fill:#6cf;}.cls-2{opacity:0.5;}.cls-3{opacity:0.3;}.cls-4{opacity:0.75;}</style></defs><title>资源 3</title><g id="图层_2" data-name="图层 2"><g id="Layer_1" data-name="Layer 1"><path class="cls-1" d="M307.32,292.79a2.14,2.14,0,0,1-3.05.36l-7.72-7a2.16,2.16,0,0,1-.18-3l1.17-1.36c.69-.83,1.68-1.88,2.55-3l3.54-4.54a2.13,2.13,0,0,1,1.49-.86l3.54-.4,3.58-.46a2.09,2.09,0,0,0,1.51-1l1.32-2.06c.83-1.33,2.07-3.18,3.36-5.52.67-1.17,1.38-2.42,2.15-3.75s1.43-2.81,2.19-4.3l1.16-2.27,1.07-2.38c.71-1.6,1.48-3.21,2.15-4.86s1.31-3.32,2-5c.33-.81.63-1.63.89-2.45s.55-1.62.81-2.41c1.13-3.15,1.91-6.18,2.65-8.75.39-1.28.66-2.48.89-3.54s.46-2,.64-2.74l.55-2.39a2.27,2.27,0,0,0-.41-1.76l-2.2-2.87-2.2-2.78a2.19,2.19,0,0,1-.46-1.66l.72-5.71c.17-1.43.23-2.87.33-3.95s.14-1.79.14-1.79a2.14,2.14,0,0,1,2.23-2l10.4.52A2.15,2.15,0,0,1,346,199.6l-.34,4.4c-.07,1.41-.35,3.09-.57,5s-.49,4.14-1,6.51-.81,5-1.48,7.63l-1,4.14c-.3,1.41-.77,2.82-1.15,4.28s-.82,2.92-1.27,4.4-1,3-1.5,4.46c-.25.74-.5,1.5-.76,2.25s-.57,1.49-.86,2.23c-.58,1.49-1.17,3-1.76,4.48a159.61,159.61,0,0,1-17.11,30.8c-.7,1-1.37,1.92-2,2.82l-1.92,2.45c-1.22,1.53-2.23,2.91-3.15,4Z"/><path class="cls-1" d="M199.45,346a2.13,2.13,0,0,1-2.4-1.9l-.53-10.4a2.15,2.15,0,0,1,2-2.24l1.8-.14c1.07-.09,2.51-.16,3.94-.32l5.72-.73a2.28,2.28,0,0,1,1.67.48l2.77,2.2,2.86,2.19a2.28,2.28,0,0,0,1.76.41s.22,0,.63-.13l1.76-.4c1.52-.38,3.71-.81,6.29-1.51l4.16-1.19c.73-.22,1.49-.41,2.26-.66l2.33-.79c1.58-.55,3.23-1.07,4.87-1.69l5-2a147.09,147.09,0,0,0,17.58-8.69l3.16-1.83,2.36-1.52,2.06-1.33a2.17,2.17,0,0,0,1-1.49s.07-.44.16-1.12.19-1.57.31-2.47l.38-3.55a2.11,2.11,0,0,1,.87-1.49s.6-.4,1.43-1.08l3.11-2.46c.56-.45,1.13-.88,1.65-1.31l1.39-1.22,1.36-1.18a2.13,2.13,0,0,1,3,.17l7,7.73a2.16,2.16,0,0,1-.35,3.06l-3.33,2.89c-2.23,1.72-5.28,4.33-9.25,7.06a156.32,156.32,0,0,1-30.84,17.06c-3,1.18-5.95,2.42-9,3.38-1.5.5-3,1-4.46,1.49l-4.41,1.26a151.33,151.33,0,0,1-16.05,3.57c-2.36.48-4.56.68-6.5.95s-3.63.5-5,.57Z"/><path class="cls-1" d="M85.57,307.32a2.13,2.13,0,0,1-.35-3.05l7-7.72a2.16,2.16,0,0,1,3-.18l1.36,1.17c.83.69,1.88,1.68,3,2.55l4.54,3.54a2.11,2.11,0,0,1,.87,1.49l.39,3.54.46,3.58a2.11,2.11,0,0,0,1,1.51l2.07,1.32c1.32.83,3.17,2.07,5.52,3.36l3.75,2.15,4.29,2.19,2.27,1.16,2.38,1.07c1.6.71,3.21,1.48,4.86,2.15l5,2c.81.33,1.63.63,2.45.89l2.42.81c3.15,1.13,6.17,1.91,8.74,2.65,1.28.39,2.48.66,3.54.89l2.75.64,2.39.55a2.29,2.29,0,0,0,1.76-.41l2.86-2.2,2.78-2.2a2.2,2.2,0,0,1,1.67-.46l5.7.72c1.43.17,2.87.23,3.95.33l1.79.14a2.14,2.14,0,0,1,2,2.23l-.52,10.4a2.14,2.14,0,0,1-2.41,1.91l-4.4-.34c-1.4-.07-3.09-.35-5-.57s-4.14-.49-6.5-1-5-.81-7.64-1.48l-4.13-1c-1.42-.3-2.83-.77-4.28-1.15s-2.93-.82-4.41-1.27l-4.45-1.5-2.26-.76c-.75-.27-1.48-.57-2.23-.86L129,334.38a159.91,159.91,0,0,1-30.8-17.11l-2.82-2-2.45-1.92c-1.53-1.22-2.91-2.23-4-3.15Z"/><path class="cls-1" d="M32.38,199.45a2.13,2.13,0,0,1,1.91-2.4l10.39-.53a2.15,2.15,0,0,1,2.24,2s.06.72.14,1.8.16,2.51.32,3.94c.37,2.86.73,5.72.73,5.72a2.32,2.32,0,0,1-.47,1.67s-1.11,1.38-2.21,2.77l-2.19,2.86a2.28,2.28,0,0,0-.41,1.76s0,.22.13.63.23,1,.41,1.76c.37,1.52.8,3.71,1.51,6.29.36,1.29.76,2.68,1.18,4.15.22.74.41,1.5.66,2.27l.8,2.33c.55,1.58,1.06,3.23,1.68,4.87l2,5a147.09,147.09,0,0,0,8.69,17.58c.67,1.15,1.29,2.21,1.83,3.16s1.1,1.71,1.53,2.36l1.32,2.06a2.17,2.17,0,0,0,1.49,1l1.12.16,2.47.31,3.55.38a2.09,2.09,0,0,1,1.49.87s.4.6,1.08,1.43l2.46,3.11c.45.56.88,1.13,1.31,1.65l1.22,1.39,1.18,1.36a2.13,2.13,0,0,1-.17,3L74,293a2.16,2.16,0,0,1-3.06-.35l-2.89-3.33c-1.71-2.23-4.32-5.28-7-9.25a155.81,155.81,0,0,1-17.07-30.84c-1.18-3-2.42-5.95-3.38-9-.5-1.5-1-3-1.49-4.46s-.85-3-1.26-4.41a151.33,151.33,0,0,1-3.57-16.05c-.47-2.36-.68-4.56-.95-6.5s-.49-3.63-.57-5Z"/><path class="cls-1" d="M71,85.57a2.14,2.14,0,0,1,3-.36l7.73,7a2.16,2.16,0,0,1,.17,3l-1.17,1.36c-.69.83-1.68,1.88-2.55,3l-3.54,4.54a2.11,2.11,0,0,1-1.49.87l-3.53.39-3.59.46a2.11,2.11,0,0,0-1.51,1l-1.31,2.07c-.84,1.32-2.08,3.17-3.37,5.52l-2.14,3.75-2.2,4.29-1.16,2.27-1.07,2.38c-.7,1.6-1.48,3.21-2.15,4.86s-1.3,3.33-2,5c-.33.81-.63,1.63-.89,2.45s-.54,1.62-.81,2.42c-1.13,3.15-1.91,6.17-2.65,8.74-.39,1.28-.66,2.48-.89,3.54s-.46,2-.63,2.75l-.55,2.39a2.25,2.25,0,0,0,.4,1.76l2.2,2.86,2.21,2.78a2.29,2.29,0,0,1,.46,1.67s-.37,2.85-.73,5.7c-.17,1.43-.23,2.87-.33,3.95s-.13,1.79-.13,1.79a2.15,2.15,0,0,1-2.24,2l-10.4-.52a2.14,2.14,0,0,1-1.91-2.41l.34-4.4c.07-1.4.35-3.09.57-5s.49-4.14,1-6.5.81-5,1.49-7.64c.3-1.34.62-2.72,1-4.13s.77-2.83,1.16-4.28.81-2.93,1.26-4.41,1-3,1.5-4.45c.25-.75.51-1.5.76-2.26s.58-1.48.86-2.23c.59-1.49,1.17-3,1.76-4.48a159.91,159.91,0,0,1,17.11-30.8l2-2.82L65,92.88c1.22-1.53,2.23-2.91,3.15-4Z"/><path class="cls-1" d="M178.91,32.38a2.13,2.13,0,0,1,2.4,1.9l.53,10.4a2.15,2.15,0,0,1-2,2.24l-1.8.14c-1.07.09-2.51.16-3.94.32l-5.72.73a2.33,2.33,0,0,1-1.67-.47L164,45.43l-2.86-2.19a2.28,2.28,0,0,0-1.76-.41s-.22,0-.63.13l-1.76.41c-1.52.37-3.71.8-6.29,1.51l-4.15,1.18c-.74.22-1.5.41-2.27.66l-2.33.79c-1.58.56-3.23,1.07-4.87,1.69l-4.95,2a146.14,146.14,0,0,0-17.57,8.69l-3.16,1.83L109,63.2l-2.06,1.33a2.21,2.21,0,0,0-1,1.49s-.07.44-.16,1.12-.19,1.57-.3,2.47c-.2,1.77-.39,3.55-.39,3.55a2.06,2.06,0,0,1-.87,1.49s-.6.4-1.43,1.08l-3.11,2.46c-.56.45-1.13.88-1.65,1.31l-1.39,1.22L95.29,81.9a2.14,2.14,0,0,1-3-.17l-7-7.73a2.15,2.15,0,0,1,.34-3.06L89,68.05c2.23-1.72,5.29-4.32,9.26-7A155.42,155.42,0,0,1,129.1,43.93c3-1.18,6-2.42,9-3.38,1.49-.5,3-1,4.45-1.49l4.41-1.26a151.33,151.33,0,0,1,16-3.57c2.36-.47,4.56-.68,6.5-.95s3.63-.49,5-.57Z"/><path class="cls-1" d="M292.79,71a2.14,2.14,0,0,1,.36,3l-7,7.73a2.16,2.16,0,0,1-3,.17l-1.36-1.17c-.83-.69-1.88-1.68-3-2.55l-4.54-3.54a2.13,2.13,0,0,1-.86-1.49l-.4-3.53-.46-3.59a2.11,2.11,0,0,0-1-1.51l-2.06-1.31c-1.32-.84-3.18-2.08-5.52-3.37l-3.75-2.14-4.3-2.2-2.27-1.16-2.38-1.07c-1.6-.71-3.21-1.48-4.86-2.15l-5-2c-.81-.33-1.63-.63-2.45-.89l-2.41-.81c-3.15-1.13-6.18-1.91-8.75-2.65-1.28-.39-2.48-.66-3.54-.89l-2.74-.63-2.39-.55a2.23,2.23,0,0,0-1.76.4l-2.87,2.2-2.78,2.2a2.24,2.24,0,0,1-1.66.47l-5.71-.73c-1.43-.17-2.87-.23-3.95-.33l-1.79-.13a2.15,2.15,0,0,1-2-2.24l.52-10.4a2.15,2.15,0,0,1,2.41-1.91l4.4.34c1.41.07,3.09.35,5,.57s4.14.49,6.51,1,5,.81,7.63,1.48l4.14,1c1.41.3,2.82.77,4.28,1.16s2.92.81,4.4,1.26l4.46,1.5,2.25.76c.75.27,1.49.57,2.23.86L249.41,44a159.61,159.61,0,0,1,30.8,17.11l2.82,2L285.48,65c1.53,1.22,2.91,2.23,4,3.15Z"/><path class="cls-1" d="M346,178.91a2.13,2.13,0,0,1-1.9,2.4l-10.4.53a2.15,2.15,0,0,1-2.24-2s-.05-.72-.14-1.8-.16-2.51-.32-3.94c-.37-2.86-.73-5.72-.73-5.72a2.28,2.28,0,0,1,.48-1.67l2.2-2.77,2.19-2.86a2.28,2.28,0,0,0,.41-1.76,4.2,4.2,0,0,0-.13-.63c-.09-.4-.23-1-.4-1.76-.38-1.52-.81-3.71-1.51-6.29l-1.19-4.15c-.22-.74-.41-1.5-.66-2.27l-.79-2.33c-.55-1.58-1.07-3.23-1.69-4.87s-1.3-3.29-2-4.95a146.14,146.14,0,0,0-8.69-17.57l-1.83-3.16L315.16,109l-1.33-2.06a2.21,2.21,0,0,0-1.49-1l-1.12-.16-2.47-.3-3.55-.39a2.11,2.11,0,0,1-1.49-.87s-.4-.6-1.08-1.43l-2.46-3.11c-.45-.56-.88-1.13-1.31-1.65l-1.22-1.39-1.18-1.35a2.14,2.14,0,0,1,.17-3l7.73-7a2.15,2.15,0,0,1,3.06.34L310.31,89c1.72,2.23,4.33,5.29,7.06,9.26a155.93,155.93,0,0,1,17.06,30.83c1.18,3,2.42,6,3.38,9,.5,1.49,1,3,1.49,4.45s.85,3,1.26,4.41a151.33,151.33,0,0,1,3.57,16c.48,2.36.68,4.56.95,6.5s.5,3.63.57,5Z"/><g class="cls-2"><path class="cls-1" d="M189.18,324.81h-.48l.07-9.95h.91l.06,9.95Zm-1.48,0h-1l.18-10,.95,0Zm3,0-.12-9.94.95,0,.18,10Zm-5.05,0-1,0,.33-9.95.93,0Zm7.06,0-.24-9.95.93,0,.33,9.95Zm-9.08-.07-1,0,.47-9.94.93,0Zm11.1,0-.39-9.94.93,0,.47,9.94Zm-13.13-.09-1-.07.66-9.92.91.05Zm15.15,0-.54-9.93.93-.06.63,9.93Zm-17.17-.12-1-.07.78-9.92.93.07Zm19.17,0-.65-9.93.91-.07.78,9.92Zm-21.19-.16-1-.09.92-9.9.93.08Zm23.23,0-.84-9.91.93-.09.92,9.91Zm-25.24-.18-1-.11,1.08-9.89.92.1Zm27.25,0-1-9.9.92-.09,1.08,9.89Zm-29.27-.21-1-.12,1.23-9.87.92.11Zm31.29,0L203.72,314l.92-.11,1.23,9.87Zm-33.3-.24-1-.14,1.38-9.85.92.12Zm35.31,0-1.29-9.87.94-.12,1.34,9.86Zm-37.31-.27-1-.15,1.5-9.83.93.14Zm39.31,0-1.43-9.84.93-.14,1.5,9.83Zm-41.31-.29-1-.17,1.65-9.81.93.16Zm43.32,0-1.59-9.83.93-.15,1.65,9.81Zm-45.32-.33-1-.18,1.79-9.78.93.16Zm47.3,0-1.7-9.8.91-.16,1.79,9.78Zm-49.3-.35-1-.2,1.94-9.75.93.18Zm51.29,0L213,312.61l.91-.18,1.94,9.76ZM161.59,322l-1-.21,2.1-9.72.9.19Zm55.25,0-2-9.75.9-.19,2.1,9.73Zm-57.23-.41-1-.23,2.27-9.69.89.21Zm59.19,0-2.12-9.72.89-.2,2.25,9.69Zm-61.16-.45-1-.24,2.42-9.65.89.21Zm63.14,0-2.27-9.69.88-.21,2.4,9.66Zm-65.11-.47-1-.26,2.54-9.62.9.24Zm67.09,0L220.31,311l.9-.23,2.54,9.62Zm-69-.49-1-.28,2.69-9.57.9.24Zm71,0-2.63-9.59.92-.26,2.66,9.59Zm-73-.52-.95-.28,2.78-9.55.92.27Zm74.94,0L223.91,310l.92-.27,2.81,9.54ZM149.81,319l-1-.3,3-9.5.89.28Zm78.81,0-2.9-9.52.9-.28,3,9.5Zm-80.75-.59-1-.3,3.07-9.47.91.3Zm82.67,0-3-9.48.88-.29,3.11,9.45Zm-84.6-.62-.95-.32,3.22-9.41.91.3Zm86.54,0-3.19-9.42.9-.31,3.23,9.41ZM144,317.11l-1-.34,3.39-9.36.88.32Zm90.38,0-3.35-9.37.91-.32,3.37,9.36Zm-92.29-.67-1-.36,3.52-9.3.88.33Zm94.19,0-3.47-9.32.88-.33,3.53,9.3Zm-96.1-.7-.93-.37,3.64-9.26.9.35Zm98,0-3.61-9.27.88-.35,3.67,9.25ZM138.32,315l-.95-.38,3.81-9.19.87.35Zm101.76,0-3.77-9.21.89-.36,3.8,9.19Zm-103.64-.77-.93-.39,3.93-9.14.87.37Zm105.5,0L238.05,305l.87-.37,3.94,9.14Zm1.83-.8-4-9.11.84-.37,4.09,9.07Zm-109.2,0-.91-.41,4.05-9.08.88.39Zm111.06-.83-4.16-9,.86-.4,4.2,9Zm-112.9,0-.93-.43,4.21-9,.86.39Zm114.71-.84-4.26-9,.83-.4,4.35,8.94Zm-116.56,0-.9-.44,4.33-8.95.86.41Zm118.39-.87-4.43-8.91.85-.42,4.47,8.88Zm-120.21,0-.91-.45,4.48-8.88.84.42Zm122-.88-4.54-8.86.83-.43,4.61,8.82Zm-123.82,0-.89-.46,4.6-8.82.85.44Zm125.61-.9-4.67-8.78.82-.45,4.74,8.75Zm-127.4,0-.89-.48,4.74-8.75.83.45ZM254.63,308l-4.82-8.7.83-.46,4.86,8.68Zm-131,0-.9-.5,4.89-8.66.81.45Zm132.71-1-4.92-8.64.8-.47,5,8.6Zm-134.49,0-.86-.5,5-8.6.82.47Zm136.24-1-5.07-8.56.81-.48,5.13,8.53Zm-138-.05-.87-.52,5.13-8.52.81.48Zm139.72-1-5.21-8.48.81-.5,5.25,8.46Zm-141.46,0-.87-.54,5.27-8.44.79.49Zm143.17-1-5.33-8.4.79-.5,5.39,8.36Zm-144.89-.05-.86-.55,5.39-8.36.79.5Zm146.58-1-5.43-8.34.77-.51,5.51,8.29ZM115,302.73l-.84-.55,5.5-8.29.8.53Zm150-1-5.55-8.25.76-.52,5.63,8.2Zm-151.66-.08-.82-.56,5.62-8.21.78.53Zm153.33-1.07-5.69-8.16.77-.54,5.75,8.12Zm-155-.08-.81-.57,5.73-8.13.79.55Zm156.65-1.08-5.81-8.08.76-.55,5.87,8ZM110,299.29l-.81-.59,5.87-8,.76.55Zm159.93-1.1-5.92-8,.75-.56,6,7.94Zm-161.56-.09-.81-.61,6-7.94.76.56ZM271.52,297l-6-7.9.74-.57,6.11,7.85Zm-164.8-.09-.79-.62,6.1-7.85.75.57Zm166.38-1.14L267,287.91l.72-.57,6.23,7.76Zm-168-.11-.79-.63,6.24-7.75.73.58Zm169.56-1.16-6.26-7.73.72-.58,6.33,7.66C275.21,294,275,294.26,274.68,294.47Zm-171.13-.1-.79-.65,6.35-7.66.72.59Zm172.7-1.19-6.39-7.62.72-.61,6.44,7.58ZM102,293.08l-.78-.66,6.46-7.57.71.61Zm175.8-1.21-6.5-7.53.71-.62,6.55,7.49Zm-177.35-.11-.76-.67,6.57-7.47.71.62Zm178.87-1.22-6.61-7.44.69-.62,6.67,7.38Zm-180.39-.12-.75-.68,6.69-7.36.69.62Zm181.89-1.23-6.72-7.35.68-.63,6.79,7.28Zm-183.38-.12-.75-.7,6.8-7.26.68.63Zm184.86-1.26-6.83-7.24.68-.65,6.88,7.19Zm-186.35-.13-.72-.69,6.88-7.18.69.65Zm187.8-1.27-6.92-7.15.66-.64,7,7.07Zm-189.25-.13-.73-.71,7-7.06.66.65Zm190.7-1.3-7.05-7,.67-.67,7.09,7Zm-192.14-.12-.71-.72,7.1-7,.66.67Zm193.55-1.31-7.13-6.94.64-.66,7.2,6.86Zm-195-.13-.7-.74,7.21-6.85.65.67ZM288,282.08l-7.24-6.82.64-.68,7.3,6.76ZM90.23,282l-.68-.74,7.31-6.75.64.69Zm199.15-1.36L282,273.88l.63-.69,7.39,6.65Zm-200.51-.13-.69-.75,7.42-6.63.62.69Zm201.87-1.37-7.45-6.6.62-.7,7.49,6.54ZM87.52,279l-.66-.75,7.49-6.55.62.71Zm204.55-1.4-7.55-6.48.61-.72,7.59,6.43Zm-205.88-.12-.66-.77,7.6-6.42.61.71ZM293.38,276l-7.66-6.34.62-.74,7.68,6.32Zm-208.5-.11-.64-.77,7.69-6.32.6.72Zm209.78-1.44-7.73-6.25.59-.74,7.77,6.21ZM83.6,274.33l-.63-.79,7.79-6.19.58.73Zm212.32-1.46-7.82-6.15.57-.74,7.87,6.09Zm-213.58-.13-.62-.8,7.88-6.06.58.73Zm214.82-1.48-7.92-6,.57-.75,8,6Zm-216-.12-.61-.8,8-6,.56.75Zm217.27-1.5-8-5.9.55-.76,8.06,5.85ZM79.9,269.53l-.6-.82,8.06-5.84.55.76ZM299.57,268l-8.1-5.78.55-.77,8.13,5.74Zm-220.86-.11-.58-.82,8.14-5.72.54.76Zm222-1.54-8.19-5.66.54-.78,8.21,5.61Zm-223.19-.11-.57-.83,8.22-5.6.53.77Zm224.32-1.56-8.26-5.55.52-.78,8.31,5.48Zm-225.45-.11-.56-.84,8.3-5.48.52.78ZM303,263l-8.34-5.41.51-.79,8.38,5.35Zm-227.69-.1-.54-.84,8.38-5.36.51.79Zm228.79-1.61L295.66,256l.5-.8,8.46,5.23Zm-229.87-.09-.53-.85,8.46-5.24.49.8Zm230.93-1.63-8.5-5.16.48-.81,8.54,5.1Zm-232-.09-.51-.86,8.54-5.11.48.81Zm233-1.65-8.58-5,.48-.81,8.61,5Zm-234.07-.08-.5-.87,8.61-5,.47.81Zm235.09-1.68-8.66-4.9.47-.83,8.68,4.85ZM71.11,256l-.49-.87,8.69-4.86.46.83Zm237.08-1.69-8.72-4.79.45-.82,8.76,4.71Zm-238.06-.07-.48-.88,8.76-4.73.45.83Zm239-1.73-8.8-4.64.44-.84,8.82,4.59Zm-240-.05-.48-.9L77.54,247l.43.82Zm240.91-1.75-8.87-4.51.43-.84,8.9,4.46Zm-241.84,0-.46-.9,8.9-4.45.42.83ZM311,248.88l-8.93-4.38.41-.85,9,4.32Zm-243.66,0-.44-.9,9-4.32.41.85Zm244.54-1.79-9-4.24.4-.86,9,4.19ZM66.47,247l-.43-.91,9-4.19.4.85Zm246.26-1.82-9.06-4.11.39-.86,9.09,4Zm-247.11,0-.41-.93,9.09-4,.38.85Zm247.94-1.84-9.12-4,.37-.85,9.15,3.9Zm-248.76,0-.4-.92,9.15-3.9.37.85ZM64,241.5l-.39-.93,9.21-3.77.36.86Zm250.34,0-9.17-3.86.36-.86,9.21,3.77Zm-251.1-1.87-.38-.94,9.26-3.63.35.87Zm251.87,0-9.23-3.71.35-.87,9.26,3.63ZM62.5,237.74l-.35-.94,9.31-3.49.33.88Zm253.37,0-9.29-3.55.33-.88,9.32,3.48ZM61.8,235.85l-.35-1,9.37-3.34.32.88Zm254.78,0-9.34-3.43.32-.88,9.37,3.35ZM61.11,234l-.33-1,9.42-3.21.3.88Zm256.16,0-9.4-3.28.31-.89,9.42,3.21ZM60.46,232l-.32-1L69.61,228l.29.89ZM317.92,232l-9.44-3.15.29-.89,9.47,3.07ZM59.84,230.11l-.31-1L69,226.21l.28.89ZM318.55,230l-9.49-3,.28-.89,9.51,2.92ZM59.24,228.17l-.29-1,9.55-2.79.27.9Zm259.9-.07-9.53-2.85.27-.9,9.55,2.78ZM58.67,226.22l-.27-1L68,222.6l.25.92Zm261-.06-9.57-2.71.25-.9,9.59,2.63ZM58.14,224.28l-.26-1,9.63-2.5.23.9Zm262.11-.08-9.62-2.55.24-.92,9.63,2.5ZM57.63,222.31l-.25-1L67.05,219l.23.91Zm263.12-.07-9.65-2.42.23-.9,9.67,2.34Zm-263.6-1.9-.23-1,9.7-2.22.21.92Zm264.08-.06L311.54,218l.21-.91,9.71,2.2ZM56.7,218.37l-.21-1,9.73-2.06.2.92Zm265-.07L312,216.18l.19-.92,9.74,2.05Zm-265.4-1.91-.2-1,9.77-1.91.18.91Zm265.82-.07-9.75-2,.18-.92,9.76,1.91ZM55.89,214.4l-.18-1,9.79-1.77.17.93Zm266.59-.06-9.77-1.84.17-.92,9.79,1.76Zm-267-1.93-.17-1,9.82-1.61.16.92Zm267.31-.07-9.8-1.69.15-.92,9.82,1.61ZM55.2,210.41l-.15-1,9.84-1.48.14.93Zm268-.07-9.83-1.54.14-.92,9.84,1.46ZM54.9,208.42l-.14-1,9.86-1.33.13.93Zm268.57-.08L313.62,207l.13-.93,9.86,1.32ZM54.63,206.41l-.12-1,9.88-1.18.11.93Zm269.11-.08-9.87-1.24.11-.93,9.88,1.17ZM54.39,204.4l-.1-1,9.89-1,.1.93ZM324,204.32l-9.89-1.09.1-.94,9.89,1Zm-269.8-1.94-.09-1,9.91-.89.09.94Zm270-.07-9.91-.95.09-.94,9.91.89ZM54,200.37l-.07-1,9.92-.74.07.94Zm270.36-.07-9.91-.81.07-.94,9.92.74Zm-270.51-2-.06-1,9.93-.59.06.94Zm270.66-.08-9.93-.64.06-.95,9.93.59ZM53.73,196.33l0-1,9.93-.45.05.94Zm270.9-.07-9.93-.51,0-.94,9.94.44Zm-271-1.94,0-1,10-.3,0,.93Zm271.07-.09-9.94-.35,0-.95,9.94.3ZM53.58,192.3v-1l9.94-.15,0,.93Zm271.2-.09-9.95-.21,0-.94,9.95.15ZM53.55,190.27v-1l10,0v.95Zm271.26-.08-9.95-.07V189h9.95v1.17ZM63.5,188.32l-10-.06v-1l9.95.14Zm251.36-.23v-.93l9.95-.17v1ZM63.53,186.44l-10-.21,0-1,9.94.28Zm251.3-.22,0-.94,9.95-.3,0,1ZM63.58,184.57l-9.94-.36,0-1,9.94.43Zm251.19-.23,0-.93,9.94-.45,0,1ZM63.66,182.69l-9.93-.5.05-1,9.93.57Zm251-.22-.06-.93,9.94-.6.05,1ZM63.77,180.82l-9.93-.66.07-1,9.93.72Zm250.81-.22-.07-.94,9.92-.74.07,1ZM63.91,178.94,54,178.15l.09-1L64,178Zm250.53-.21-.09-.94,9.91-.88.09,1ZM64.07,177.08l-9.9-.94.1-1,9.9,1Zm250.2-.22-.1-.94,9.9-1,.1,1Zm-250-1.65-9.89-1.09.11-1,9.88,1.15Zm249.8-.22-.11-.93,9.88-1.18.12,1ZM64.49,173.35l-9.88-1.24.13-1,9.87,1.31Zm249.36-.22-.12-.93,9.86-1.33.13,1ZM64.73,171.49l-9.85-1.39.15-1,9.84,1.47Zm248.87-.22-.14-.93,9.84-1.48.15,1ZM65,169.64l-9.83-1.54.16-1,9.82,1.6Zm248.31-.22-.15-.93,9.81-1.63.17,1Zm-248-1.63-9.8-1.69.17-1,9.79,1.75Zm247.7-.22-.16-.93,9.79-1.76.17,1ZM65.64,165.94l-9.78-1.83.19-1,9.77,1.9Zm247-.21-.18-.93,9.76-1.92.19,1ZM66,164.1l-9.75-2,.2-1,9.74,2Zm246.32-.22-.19-.92,9.73-2.06.2,1ZM66.39,162.26l-9.72-2.12.22-1,9.7,2.2ZM311.93,162l-.21-.91,9.7-2.21.22,1ZM66.8,160.44l-9.69-2.27.24-1L67,159.52Zm244.71-.22-.22-.91L321,157l.23,1ZM67.24,158.61l-9.65-2.41.25-1,9.63,2.48Zm243.83-.21-.24-.91,9.63-2.5.25,1ZM67.71,156.8l-9.62-2.56.27-1L68,155.89Zm242.89-.22-.25-.9,9.59-2.65.27,1ZM68.2,155l-9.57-2.7.28-1,9.55,2.76Zm241.9-.21-.26-.9,9.55-2.8.28,1Zm-241.37-1.6-9.54-2.84.3-1L69,152.29ZM309.57,153l-.27-.89,9.51-2.93.29,1ZM69.28,151.39l-9.49-3,.31-1,9.46,3.07ZM309,151.18l-.29-.89,9.46-3.08.31,1ZM69.86,149.59l-9.45-3.12.33-1,9.42,3.21Zm238.58-.19-.3-.89,9.41-3.22.32,1Zm-238-1.58-9.39-3.28.34-1,9.37,3.35Zm237.37-.2-.31-.88,9.36-3.36.34,1ZM71.1,146l-9.35-3.41.35-1,9.32,3.49Zm236.1-.18-.33-.88,9.32-3.5.35,1ZM71.75,144.28l-9.29-3.56.37-.94,9.27,3.62Zm234.79-.18-.34-.87,9.26-3.64.37.95Zm-234.1-1.57-9.24-3.7.38-.94,9.21,3.76Zm233.41-.17-.35-.87,9.2-3.78.39.94Zm-232.7-1.58L64,137l.4-.94,9.15,3.91Zm232-.15-.36-.86,9.14-3.92.4.93ZM73.89,139.06l-9.12-4,.41-.93,9.09,4Zm230.51-.16-.37-.84,9.09-4.06c.14.32.27.63.41.94ZM74.65,137.34l-9.05-4.11.42-.93,9,4.18Zm229-.13-.39-.85,9-4.19.43.92ZM75.44,135.63l-9-4.25.43-.91,9,4.31Zm227.42-.12-.4-.84,9-4.32.44.91Zm-226.6-1.57-8.93-4.39.45-.9,8.9,4.44Zm225.79-.12-.41-.83,8.89-4.45.45.91ZM77.1,132.25l-8.87-4.51.46-.9,8.84,4.57Zm224.11-.1-.42-.82,8.82-4.59.47.9ZM78,130.59l-8.79-4.65.47-.89,8.77,4.7Zm222.39-.09-.44-.82,8.76-4.73.48.89ZM78.86,128.93l-8.73-4.78.49-.89,8.69,4.85Zm220.61-.07L299,128l8.69-4.84.49.88Zm-219.7-1.57-8.65-4.91.5-.88,8.62,5Zm218.79-.07-.47-.81,8.62-5,.5.88ZM80.71,125.66l-8.58-5,.51-.86,8.55,5.08Zm216.91,0-.48-.82,8.55-5.09.5.86ZM81.67,124l-8.5-5.16.53-.86,8.46,5.22Zm215,0-.49-.8,8.46-5.23.53.86Zm-214-1.55-8.43-5.3.54-.85,8.39,5.35Zm213,0-.5-.8,8.38-5.35.54.85Zm-212-1.55-8.35-5.41.56-.85,8.31,5.47Zm211,0-.51-.78,8.3-5.48.56.85Zm-210-1.53-8.27-5.53.57-.84,8.22,5.59Zm208.93,0-.53-.78,8.22-5.6.57.83ZM85.76,117.74l-8.18-5.66.58-.83L86.3,117Zm206.83,0-.54-.77,8.13-5.72.58.82ZM86.84,116.21l-8.09-5.79.59-.82,8,5.85Zm204.67,0-.55-.77,8.05-5.84.59.82Zm-203.57-1.5-8-5.91.6-.81,8,6Zm202.47,0-.56-.75,8-6,.6.8ZM89.07,113.18l-7.92-6,.62-.81,7.87,6.09Zm200.21,0-.57-.74,7.88-6.08.61.8ZM90.22,111.7l-7.83-6.14.63-.8L90.79,111Zm197.92,0-.58-.74,7.78-6.19.63.79ZM91.39,110.23,83.65,104l.64-.78L92,109.5Zm195.58,0-.59-.72,7.69-6.32.64.79ZM92.58,108.77l-7.65-6.36.66-.78,7.59,6.43Zm193.2,0-.6-.72,7.6-6.42.65.78Zm-192-1.42-7.55-6.49.66-.76,7.5,6.53Zm190.78,0-.61-.7,7.5-6.54.66.77Zm-1.23-1.41-.63-.7,7.41-6.64.67.75ZM95,105.93l-7.45-6.59.67-.75,7.41,6.64Zm187.07-1.4-.63-.68,7.29-6.76.69.75Zm-185.81,0-7.36-6.7.69-.74,7.3,6.75Zm184.54-1.37-.65-.68,7.2-6.86.69.73Zm-183.27,0L90.3,96.34l.69-.73,7.21,6.86Zm182-1.36-.66-.67,7.11-7,.7.72Zm-180.68,0L91.7,94.88l.7-.72,7.1,7Zm179.37-1.33-.67-.67,7-7.07.71.71Zm-178,0-7-7,.72-.71,7,7.07Zm176.72-1.31-.68-.66,6.89-7.17.72.69Zm-175.39,0L94.55,92l.72-.69,6.9,7.17Zm174-1.29-.69-.65,6.79-7.27.73.69Zm-172.67,0L96,90.62l.74-.7,6.78,7.28Zm171.3-1.27-.69-.63,6.66-7.39.76.69Zm-169.93,0-6.73-7.33.75-.68,6.67,7.37Zm1.38-1.26L99,87.88l.76-.67,6.56,7.48Zm167.15,0-.7-.62,6.57-7.48.75.67Zm-1.4-1.24-.72-.61,6.45-7.57.77.65ZM107,94.07l-6.51-7.52.77-.66,6.45,7.57Zm1.42-1.21-6.39-7.62.77-.65,6.34,7.67Zm161.47,0-.71-.6,6.33-7.66.79.65Zm-160-1.19L103.6,84l.8-.64,6.21,7.77Zm158.58,0-.73-.59L274,83.31l.79.63ZM111.35,90.49l-6.17-7.81.8-.62,6.1,7.85Zm155.65,0-.73-.57,6.1-7.86.8.63ZM112.83,89.34l-6-7.9.8-.61,6,8Zm152.69,0-.74-.57,6-7.94.81.61Zm-151.2-1.12-5.93-8,.82-.61,5.86,8Zm149.7,0-.75-.55,5.87-8,.82.61ZM115.83,87.11,110,79l.82-.58,5.76,8.11Zm146.67,0-.75-.54,5.74-8.12.84.59ZM117.36,86l-5.69-8.17.83-.57,5.63,8.2ZM261,86l-.77-.53,5.62-8.21.83.58ZM118.91,85l-5.58-8.24.85-.56,5.5,8.29Zm140.52,0-.78-.52,5.5-8.28.85.56Zm-139-1L115,75.6l.85-.55,5.38,8.37Zm137.4,0-.8-.52L262.46,75l.84.55ZM122,82.92l-5.32-8.41.85-.54,5.26,8.45Zm134.24,0-.79-.5,5.25-8.45.87.55Zm-132.65-1-5.2-8.49.87-.52,5.12,8.52Zm131.06,0-.81-.49L259,72.89l.85.52ZM125.23,81l-5.07-8.56.86-.51,5,8.59Zm127.85,0-.81-.47,5-8.61.88.52ZM126.85,80l-4.95-8.63.88-.5,4.88,8.67Zm124.61,0-.82-.47,4.87-8.67.87.49Zm-123-.89-4.81-8.7.88-.49,4.76,8.74Zm121.35,0-.83-.45,4.74-8.74.89.48Zm-119.7-.85-4.68-8.78.89-.47,4.61,8.82Zm118,0-.83-.44,4.61-8.82.9.48Zm-116.39-.83-4.54-8.84.89-.46,4.49,8.88Zm114.72,0-.83-.42L250.13,68l.91.47Zm-113-.79L129,67.59l.9-.44,4.35,8.94Zm111.38,0L244,76l4.33-9,.92.45Zm-109.7-.76-4.28-9,.91-.42,4.22,9Zm108-.06-.84-.4,4.2-9,.92.44Zm-106.31-.74-4.14-9,.92-.42,4.07,9.08Zm104.61-.06-.85-.38,4.07-9.08.92.42Zm-102.9-.7-4-9.11.93-.4,3.94,9.13Zm101.18-.07-.86-.37,3.94-9.14.93.41Zm-99.47-.67-3.88-9.17.93-.38L141.09,73ZM238,73.32l-.87-.36,3.8-9.2.93.39Zm-96-.65-3.74-9.22.94-.38,3.67,9.25Zm94.28-.07-.88-.35L239,63l.93.38ZM143.7,72l-3.6-9.28,1-.36,3.52,9.3Zm90.79-.07-.88-.34,3.51-9.3,1,.36Zm-89-.6L142,62l.95-.35,3.4,9.35Zm87.26-.07-.88-.32,3.38-9.35,1,.35Zm-85.5-.57-3.32-9.38,1-.33,3.24,9.4ZM231,70.61l-.89-.31,3.23-9.41,1,.33Zm-82-.55-3.18-9.43,1-.32,3.11,9.45ZM229.17,70l-.89-.29,3.09-9.46,1,.32Zm-78.4-.52-3-9.47,1-.31,3,9.5Zm76.61-.06-.89-.28,2.94-9.51,1,.31Zm-74.82-.5-2.9-9.51,1-.29,2.82,9.54Zm73-.06-.9-.27L227.5,59l1,.29Zm-71.23-.47-2.75-9.56,1-.28,2.67,9.59Zm69.43-.06-.9-.25,2.66-9.59,1,.28Zm-67.63-.44-2.6-9.6,1-.26,2.54,9.61ZM222,67.82l-.9-.24L223.59,58l1,.26Zm-64-.42-2.47-9.64,1-.25,2.39,9.66Zm62.19-.05-.91-.23,2.37-9.66,1,.24ZM159.8,67l-2.32-9.68,1-.23,2.24,9.7Zm58.54,0-.91-.22L219.66,57l1,.23Zm-56.72-.37-2.16-9.71,1-.22,2.1,9.72Zm54.9,0-.92-.2,2.08-9.73,1,.22Zm-53.06-.35-2-9.74,1-.2,2,9.75Zm51.23,0-.93-.19,1.94-9.76,1,.2Zm-49.39-.33L163.42,56l1-.18,1.81,9.78Zm47.55,0-.93-.17,1.79-9.79,1,.19Zm-45.71-.3-1.73-9.79,1-.18,1.66,9.81Zm43.86,0-.92-.15,1.64-9.82,1,.18Zm-42-.27-1.58-9.82,1-.16L169.92,65Zm40.16,0-.93-.14,1.5-9.84,1,.16Zm-38.31-.24L169.41,55l1-.14,1.38,9.85Zm36.46,0-.93-.13,1.34-9.85,1,.14Zm-34.6-.22-1.29-9.87,1-.12,1.23,9.87Zm32.74,0-.93-.12,1.2-9.87,1,.12Zm-30.88-.2-1.14-9.88,1-.12,1.08,9.89Zm29,0-.94-.1,1.06-9.89,1,.11Zm-27.15-.17-1-9.9,1-.1.92,9.91Zm25.29,0-.95-.09.92-9.9,1,.09ZM178.3,64l-.85-9.91,1-.08.77,9.92Zm21.55,0-.94-.07.76-9.92,1,.08Zm-19.68-.12-.71-9.93,1-.07.62,9.93Zm17.8,0-.93-.06.61-9.93,1,.07ZM182,63.7l-.55-9.94,1,0,.49,9.94Zm14.07,0-1,0,.47-9.94,1,0Zm-12.2-.08-.4-9.94,1,0,.34,9.94Zm10.32,0-.94,0,.31-9.94,1,0Zm-8.44-.06-.27-9.94,1,0,.19,10Zm6.56,0-.94,0,.18-10,1,0Zm-4.69,0-.12-9.95h1l.06,10Zm2.82,0h-.95l0-10h1Z"/></g><g class="cls-2"><path class="cls-1" d="M189.18,255.36h-.46l0-4.78h.92l0,4.78Zm-1.45,0-1,0,.18-4.78.92,0Zm3,0-.11-4.78.92,0,.18,4.78Zm-5-.07-1-.06.31-4.77.93.05Zm6.95,0-.25-4.77.92-.06.33,4.78Zm-8.93-.12-1-.09.45-4.76.92.08Zm10.92,0-.4-4.77.92-.08.47,4.76Zm-12.9-.18-1-.12.6-4.75.92.11Zm14.88,0-.54-4.76.92-.11.6,4.75Zm-16.85-.24-1-.15.75-4.73.91.14Zm18.82,0L198,250l.91-.14.74,4.73Zm-20.79-.3-1-.18.87-4.7.92.16Zm22.76,0-.83-4.71.91-.16.89,4.7ZM175.89,254l-1-.21,1-4.67.9.19Zm26.66,0-1-4.68.9-.19,1,4.67Zm-28.61-.41-1-.23,1.17-4.64.89.22Zm30.55,0-1.1-4.66.9-.22,1.17,4.64ZM172,253.11l-.95-.27,1.3-4.6.89.25Zm34.41,0-1.24-4.62.88-.25,1.32,4.6Zm-36.32-.53-.95-.29,1.44-4.56.89.27Zm38.23,0L207,248l.88-.27,1.45,4.56ZM168.2,252l-.95-.32,1.59-4.52.87.3Zm42,0-1.52-4.54.87-.3,1.59,4.51Zm-43.92-.64-.93-.36,1.72-4.46.87.33Zm45.79,0-1.65-4.49.86-.33,1.73,4.46Zm-47.65-.7-.92-.38,1.85-4.41.86.35Zm49.51,0-1.79-4.44.84-.34,1.87,4.4Zm-51.35-.76-.91-.41,2-4.34.84.37Zm53.18,0-1.93-4.38.84-.37,2,4.34Zm-55-.81-.91-.44,2.13-4.29.83.41Zm56.79,0-2.06-4.31.83-.41,2.12,4.29ZM159,248.09l-.88-.46,2.24-4.22.82.43Zm60.36,0-2.19-4.25.82-.43,2.24,4.23Zm-62.12-.92-.87-.49,2.37-4.16.81.46Zm63.87,0L218.8,243c.27-.15.54-.3.8-.46l2.38,4.16Zm1.72-1-2.44-4.12.79-.47,2.5,4.08Zm-67.32,0-.85-.52,2.49-4.08.8.48Zm69-1-2.55-4,.76-.5,2.63,4Zm-70.71,0-.84-.54,2.63-4,.77.49Zm72.37-1.08-2.68-4,.76-.52,2.74,3.92Zm-74,0-.82-.57,2.74-3.92.77.52Zm75.67-1.13L225,239l.75-.55,2.85,3.84Zm-77.3,0-.8-.58,2.85-3.84.75.55Zm78.89-1.16-2.9-3.8.72-.57,3,3.75Zm-80.48,0c-.27-.2-.53-.41-.79-.62l3-3.74.72.56Zm82-1.22-3-3.7.71-.59,3.08,3.66Zm-83.61,0-.76-.63,3.08-3.66.71.59Zm85.13-1.26-3.13-3.61.69-.61,3.19,3.57Zm-86.64,0c-.26-.21-.51-.43-.75-.65l3.18-3.57.69.61Zm88.13-1.3-3.25-3.52.68-.63,3.29,3.47Zm-89.62,0c-.24-.22-.49-.44-.72-.67l3.29-3.47.67.63Zm91.06-1.34-3.35-3.42.66-.65,3.39,3.37Zm-92.5,0-.71-.7,3.4-3.37c.21.22.43.43.65.65Zm93.9-1.39-3.45-3.32.64-.66,3.49,3.26C237.28,234.63,237.05,234.88,236.82,235.11Zm-95.3,0-.69-.73,3.5-3.26.63.67Zm96.66-1.43-3.54-3.22.61-.68,3.59,3.16Zm-98,0-.66-.74,3.59-3.17.61.69Zm99.33-1.47-3.63-3.11c.2-.23.39-.47.59-.71l3.68,3.06C239.92,231.66,239.71,231.92,239.49,232.17Zm-100.64,0c-.22-.25-.43-.5-.64-.76l3.68-3c.2.24.4.47.59.71Zm101.91-1.5-3.72-3,.57-.72,3.77,2.94Zm-103.18,0-.62-.78,3.78-2.94.57.73ZM242,229.08l-3.8-2.9.54-.74,3.86,2.83Zm-105.62,0c-.2-.27-.4-.53-.59-.8l3.85-2.83c.19.25.37.5.56.74Zm106.81-1.59-3.91-2.76.53-.76,3.94,2.71Zm-108,0c-.2-.27-.39-.54-.57-.82l3.94-2.71.52.76Zm109.1-1.63-4-2.65.51-.77,4,2.59C244.66,225.27,244.48,225.55,244.29,225.82Zm-110.23,0c-.19-.28-.37-.55-.54-.83l4-2.59c.16.26.33.51.5.77Zm111.31-1.66-4.06-2.53.49-.79,4.09,2.47C245.72,223.59,245.55,223.87,245.37,224.15Zm-112.39,0-.51-.84,4.09-2.48.48.79Zm113.42-1.69L242.27,220l.46-.81,4.17,2.35Zm-114.44,0c-.17-.28-.33-.57-.49-.86l4.17-2.35.45.81Zm-1-1.73-.47-.87,4.24-2.23c.14.28.29.55.43.82Zm116.39,0-4.21-2.29.44-.81,4.24,2.22ZM130.07,219c-.15-.3-.3-.6-.44-.9l4.3-2.08c.13.27.27.55.41.82Zm118.23,0L244,216.79c.14-.28.28-.55.41-.83l4.3,2.09C248.6,218.35,248.45,218.64,248.3,218.94Zm-119.1-1.77c-.14-.3-.28-.6-.41-.9l4.36-2,.38.84Zm120,0-4.33-2c.13-.28.26-.56.38-.84l4.37,2Zm-120.78-1.78-.39-.92,4.42-1.82.36.84Zm121.6-.05-4.4-1.88c.13-.29.25-.57.37-.86l4.42,1.83Zm-122.36-1.79-.36-.93,4.47-1.69c.11.29.22.57.34.86Zm123.12-.05-4.45-1.75.34-.87,4.47,1.69Zm-123.82-1.81q-.18-.46-.33-.93l4.52-1.57.3.87Zm124.53,0L247,210l.3-.87,4.53,1.55Zm-125.18-1.83c-.11-.32-.21-.63-.3-.95l4.56-1.42c.1.3.19.59.29.88Zm125.82-.06-4.54-1.49.28-.88,4.57,1.41C252.31,209.09,252.21,209.41,252.1,209.73Zm-126.41-1.84c-.1-.32-.19-.64-.28-1l4.61-1.28.26.89Zm127-.07-4.59-1.35c.09-.29.17-.59.26-.88l4.61,1.28C252.88,207.19,252.79,207.5,252.69,207.82ZM125.16,206c-.09-.32-.17-.64-.25-1l4.65-1.13c.07.3.15.6.22.89Zm128.06-.06-4.62-1.21c.07-.3.15-.6.22-.89l4.65,1.13C253.39,205.26,253.31,205.58,253.22,205.91ZM124.68,204c-.07-.32-.15-.65-.21-1l4.67-1c.07.3.13.6.2.9Zm129-.07L249,202.91c.07-.3.14-.6.2-.91l4.68,1Zm-129.43-1.88c-.07-.32-.13-.64-.19-1l4.71-.86c.05.3.11.6.17.91ZM254.11,202l-4.69-.92c.06-.3.11-.6.17-.91l4.7.86C254.24,201.37,254.17,201.7,254.11,202Zm-130.2-1.88c-.06-.33-.11-.66-.16-1l4.73-.72.15.91Zm130.55-.07-4.71-.78c.05-.31.09-.61.14-.91l4.73.71C254.57,199.41,254.52,199.74,254.46,200.07Zm-130.85-1.9c0-.33-.09-.65-.13-1l4.75-.58.12.92Zm131.15-.07-4.74-.63.12-.93,4.75.58C254.85,197.44,254.8,197.77,254.76,198.1Zm-131.39-1.9-.09-1,4.76-.43.09.91ZM255,196.13l-4.76-.5.09-.92,4.76.43Zm-131.81-1.91-.06-1,4.77-.3.06.93Zm132-.08-4.77-.34.06-.93,4.78.29C255.22,193.48,255.2,193.81,255.17,194.14Zm-132.1-1.91,0-1,4.78-.15,0,.92Zm132.22-.07-4.78-.21c0-.31,0-.61,0-.92l4.79.14C255.32,191.5,255.31,191.83,255.29,192.16ZM123,190.25c0-.33,0-.66,0-1h4.79c0,.31,0,.61,0,.92Zm132.34-.08-4.78-.06V189h4.79v.13C255.36,189.51,255.35,189.84,255.35,190.17Zm-127.56-1.85-4.78-.06c0-.33,0-.66,0-1l4.78.13C127.81,187.71,127.8,188,127.79,188.32Zm122.77-.2c0-.31,0-.62,0-.92l4.78-.16,0,1Zm-122.71-1.64-4.78-.21c0-.33,0-.66.05-1l4.77.28C127.88,185.86,127.86,186.17,127.85,186.48Zm122.66-.21c0-.3,0-.61,0-.92l4.77-.29c0,.33,0,.66.05,1ZM128,184.64l-4.77-.35c0-.33,0-.66.08-1l4.77.41C128,184,128,184.33,128,184.64Zm122.44-.21c0-.31,0-.61-.08-.92l4.77-.44c0,.33.06.66.08,1ZM128.12,182.8l-4.76-.49c0-.33.07-.66.11-1l4.75.56C128.18,182.19,128.15,182.49,128.12,182.8Zm122.1-.21c0-.3-.06-.61-.1-.91l4.75-.58c0,.33.07.65.11,1ZM128.33,181l-4.74-.64c0-.33.09-.65.14-1l4.73.7C128.42,180.35,128.37,180.66,128.33,181ZM250,180.76c0-.3-.09-.61-.13-.91l4.73-.72c.05.33.09.65.14,1Zm-121.39-1.62-4.72-.77c0-.33.11-.66.16-1l4.71.85Zm121.11-.2c-.05-.31-.1-.61-.16-.91l4.71-.86c.06.32.11.65.17,1Zm-120.79-1.61-4.69-.92c.06-.33.13-.65.2-1l4.68,1C129.05,176.72,129,177,128.93,177.33Zm120.46-.21c-.06-.3-.12-.6-.19-.9l4.68-1c.07.32.14.64.2,1Zm-120.08-1.6-4.66-1.06c.07-.32.15-.64.23-1l4.65,1.13C129.45,174.92,129.38,175.22,129.31,175.52Zm119.69-.2-.21-.9,4.64-1.14c.08.32.16.64.23,1Zm-119.25-1.59-4.63-1.2c.08-.32.17-.64.26-1l4.61,1.27Zm118.81-.2-.24-.89,4.61-1.29c.09.32.17.64.26,1ZM130.24,172l-4.59-1.34c.09-.32.19-.64.28-1l4.57,1.42C130.41,171.36,130.33,171.65,130.24,172Zm117.82-.2c-.08-.29-.17-.59-.26-.88l4.56-1.43c.1.32.2.64.29,1Zm-117.28-1.57-4.55-1.48c.11-.31.21-.63.32-.94l4.53,1.55ZM247.51,170c-.09-.29-.19-.58-.29-.87l4.52-1.57c.11.32.22.63.32.95Zm-116.13-1.56-4.5-1.61c.11-.32.23-.63.35-.94l4.47,1.68C131.6,167.85,131.49,168.14,131.38,168.43Zm115.53-.18c-.1-.29-.21-.58-.32-.87l4.47-1.7c.12.31.24.62.35.94ZM132,166.7l-4.46-1.76c.13-.3.25-.61.38-.92l4.42,1.82C132.26,166.12,132.15,166.41,132,166.7Zm114.22-.18c-.12-.28-.23-.56-.35-.85l4.42-1.83c.13.3.25.61.37.92ZM132.74,165l-4.4-1.89.4-.91,4.37,1.95C133,164.42,132.86,164.7,132.74,165Zm112.81-.16c-.12-.28-.24-.56-.37-.84l4.36-2c.14.3.27.6.4.91Zm-112-1.53-4.34-2c.14-.3.28-.6.43-.9l4.3,2.08C133.76,162.74,133.62,163,133.5,163.3Zm111.3-.15c-.13-.28-.26-.55-.4-.83l4.3-2.1c.15.3.29.6.43.9Zm-110.5-1.52L130,159.48l.45-.88,4.24,2.21ZM244,161.5l-.42-.82,4.24-2.22.45.88ZM135.16,160,131,157.72l.48-.88,4.17,2.35C135.45,159.45,135.3,159.72,135.16,160Zm108-.12-.45-.81,4.17-2.34.48.86Zm-107.08-1.49-4.14-2.4.51-.86,4.1,2.46Zm106.17-.11c-.15-.27-.31-.53-.47-.79l4.1-2.48.5.85ZM137,156.8,133,154.27l.54-.84,4,2.59Zm104.27-.11-.49-.78,4-2.59c.17.28.35.55.53.83ZM138,155.25l-4-2.65c.18-.28.37-.55.56-.83l3.94,2.71Zm102.27-.11-.51-.76,3.93-2.71c.19.27.38.54.56.82Zm-101.22-1.42-3.9-2.76c.19-.28.38-.55.58-.81L139.6,153Zm100.17-.1-.53-.74,3.85-2.83.59.81Zm-99.08-1.39-3.82-2.88c.2-.27.4-.53.61-.79l3.77,2.94Zm98-.09-.57-.73,3.77-2.94.61.78Zm-96.87-1.37-3.73-3,.63-.77,3.69,3.05C141.67,150.29,141.48,150.53,141.28,150.77Zm95.73-.08-.58-.71,3.68-3.06.63.77Zm-94.55-1.34-3.64-3.1.65-.76,3.6,3.16C142.86,148.88,142.66,149.12,142.46,149.35Zm93.37-.08-.6-.69,3.58-3.17.66.75ZM143.68,148l-3.54-3.22c.22-.24.44-.49.67-.73l3.5,3.27Zm90.93-.08-.62-.68,3.49-3.27.67.73Zm-89.67-1.27-3.45-3.32.7-.71,3.4,3.37Zm88.41-.08-.65-.66,3.4-3.37.69.71Zm-87.11-1.24-3.35-3.41.72-.69,3.29,3.46Zm85.81-.07-.67-.63,3.29-3.48.72.69ZM147.58,144l-3.25-3.52.74-.67,3.19,3.57Zm83.13-.07-.69-.62,3.19-3.57.74.66ZM149,142.81l-3.14-3.62.76-.64,3.08,3.66C149.42,142.4,149.18,142.6,149,142.81Zm80.38-.07-.7-.6,3.08-3.66.75.64Zm-79-1.12-3-3.71.78-.62,3,3.75Zm77.56-.07-.72-.58,3-3.75.78.62Zm-76.11-1.08-2.92-3.79.79-.6,2.86,3.84Zm74.66-.07-.74-.55,2.85-3.84.8.6Zm-73.19-1-2.79-3.88.8-.57,2.75,3.92C153.78,139,153.53,139.19,153.28,139.37Zm71.7-.07-.75-.53,2.74-3.92.81.57Zm-70.19-1-2.68-4,.83-.54,2.62,4Zm68.68-.07-.77-.51,2.61-4,.84.56Zm-67.14-.94-2.56-4,.84-.53,2.5,4.08Zm65.59-.07-.78-.49,2.49-4.08.84.52Zm-64-.9-2.44-4.11.86-.5,2.38,4.15Zm62.44-.06-.79-.47,2.37-4.15.86.5Zm-60.84-.85-2.32-4.19c.29-.16.58-.32.88-.47l2.25,4.22Zm59.24-.07c-.27-.15-.54-.3-.82-.44l2.25-4.22.88.47Zm-57.62-.8-2.19-4.25.89-.45,2.12,4.29Zm56-.07c-.27-.14-.54-.28-.82-.41l2.11-4.29.9.45Zm-54.33-.75-2.06-4.31.9-.42,2,4.34Zm52.68-.06q-.42-.21-.84-.39l2-4.36.91.42Zm-51-.7-1.93-4.38.91-.39,1.86,4.4Zm49.33-.07-.86-.37,1.85-4.41.92.39Zm-47.64-.65-1.8-4.43.93-.37,1.73,4.46Zm45.93-.07-.86-.34,1.71-4.46.93.36Zm-44.21-.59-1.66-4.49.93-.34,1.6,4.51Zm42.48-.07-.87-.31L211,126.7l.94.34ZM169.59,131l-1.52-4.53.94-.31,1.46,4.55Zm39-.06-.88-.29,1.44-4.56,1,.31Zm-37.23-.5L170,125.84l1-.28,1.31,4.6Zm35.47-.06-.88-.26,1.3-4.6.95.28Zm-33.7-.45-1.25-4.62,1-.25,1.17,4.64Zm31.92,0-.89-.23,1.16-4.64,1,.25Zm-30.13-.4-1.11-4.66,1-.22,1,4.67Zm28.35-.05-.9-.2,1-4.68,1,.22Zm-26.55-.35-1-4.69,1-.19.9,4.7C177.31,128.93,177,129,176.71,129.06Zm24.74,0c-.3-.07-.6-.12-.9-.18l.88-4.7,1,.19Zm-22.93-.31L177.7,124l1-.17.75,4.73Zm21.12,0c-.3-.06-.61-.11-.91-.15l.74-4.73,1,.16Zm-19.3-.26-.68-4.73,1-.14.62,4.74Zm17.48,0-.92-.12.6-4.75,1,.13Zm-15.65-.21-.54-4.75,1-.1.47,4.76Zm13.82,0-.92-.09.45-4.76,1,.1ZM184,128l-.4-4.76,1-.08.34,4.77Zm10.14,0-.92-.07.31-4.77,1,.07Zm-8.3-.11-.25-4.78,1,0,.19,4.79Zm6.46,0-.92,0,.16-4.78,1,0Zm-4.62-.06-.11-4.79h1l.05,4.78Zm2.78,0h-.93l0-4.78h1Z"/></g><g class="cls-2"><path class="cls-1" d="M189.24,248.75h-.79l.05-3.82h.68Zm5.88-.29-.38-3.81.73-.08.43,3.8Zm-12.55-.08-.78-.09.47-3.8.74.09Zm19.14-.95-.79-3.75.71-.16.85,3.73ZM176,247.28l-.77-.18.9-3.72.71.17Zm32.17-1.62L206.93,242l.7-.24,1.27,3.61Zm-38.59-.22q-.37-.12-.75-.27l1.32-3.59.69.25Zm44.79-2.26-1.63-3.47.67-.31,1.67,3.44Zm-51-.29-.71-.35,1.72-3.42.65.32ZM220.23,240l-2-3.27.62-.38,2,3.24C220.68,239.75,220.46,239.89,220.23,240Zm-62.68-.36-.67-.42L159,236l.62.4Zm68.17-3.44-2.34-3,.57-.45,2.39,3Zm-73.62-.42-.62-.5,2.43-3,.57.46Zm78.65-4-2.66-2.74c.17-.17.34-.35.52-.52l2.71,2.7Zm-83.63-.48-.56-.57,2.74-2.67c.17.18.34.35.52.52Zm88.15-4.44-3-2.43.46-.57,3,2.39Zm-92.61-.53-.49-.62,3-2.36.46.58Zm96.55-4.87L236,219.45l.39-.63,3.24,2ZM138.79,221l-.42-.67,3.26-2,.39.63Zm103.73-5.22L239.1,214c.11-.21.21-.43.32-.65l3.45,1.66C242.75,215.26,242.63,215.49,242.52,215.73Zm-107-.62-.33-.7,3.46-1.62.32.66Zm109.62-5.52-3.6-1.31.25-.7,3.61,1.27ZM133,209l-.26-.73,3.62-1.24.25.7Zm114.11-5.76-3.72-.9c.06-.23.11-.47.17-.71l3.73.85Zm-116-.65c-.06-.26-.12-.52-.17-.77l3.74-.8c.05.24.1.47.16.71Zm117.17-5.92-3.8-.47.08-.73,3.81.43ZM130,196l-.09-.78,3.81-.38.08.74Zm118.74-6-3.82-.05V189l3.83,0v.23C248.75,189.44,248.75,189.71,248.74,190Zm-115.3-.68h-3.82v-.78l3.83,0Zm111.19-5.83-.08-.73,3.8-.43.09.77Zm-110.85-.41-3.81-.42.09-.78,3.8.46Zm109.87-5.76c-.05-.24-.11-.47-.16-.71l3.73-.87c.06.26.11.52.17.77Zm-108.85-.41-3.73-.84.18-.77,3.72.9C134.91,176.41,134.86,176.65,134.8,176.88ZM242,171.28l-.24-.7,3.61-1.28.26.75Zm-105.46-.4-3.62-1.26.27-.75,3.59,1.32Zm103.13-5.4-.32-.66,3.44-1.67.34.7ZM138.9,165.1l-3.45-1.65.34-.72,3.43,1.71C139.11,164.66,139,164.88,138.9,165.1ZM236.67,160l-.39-.62,3.24-2.05c.14.22.28.44.41.66Zm-94.76-.37-3.24-2,.42-.66,3.22,2.07Zm91.19-4.76-.45-.57,3-2.4c.17.2.33.41.49.62Zm-87.58-.34-3-2.38.49-.61,3,2.42ZM229,150.16l-.52-.52,2.7-2.71.55.55Zm-79.31-.3-2.71-2.7.55-.56,2.68,2.74C150,149.51,149.85,149.68,149.68,149.86ZM224.37,146l-.57-.46,2.38-3,.61.5Zm-70-.27-2.4-3,.62-.48,2.35,3Zm65-3.4-.62-.39,2-3.25.66.42Zm-59.9-.23-2-3.24.66-.41,2,3.26Zm54.47-2.85-.67-.32,1.66-3.46.71.35Zm-49-.19-1.67-3.44.7-.34,1.63,3.46Zm43.26-2.26-.7-.25,1.26-3.62.74.27Zm-37.5-.15L169.35,133l.75-.25,1.22,3.62ZM202.14,135l-.72-.17.84-3.73.77.17Zm-25.51-.1-.86-3.73.77-.17.81,3.74Zm19.36-1-.73-.08.42-3.8.78.09Zm-13.2,0-.44-3.81.78-.08.38,3.81Zm7-.37H189v-3.82h.78Z"/></g><polygon class="cls-1" points="194.59 25.74 189.18 31.15 183.77 25.74 194.59 25.74"/><polygon class="cls-1" points="195.44 157.92 189.18 168.22 182.92 157.92 195.44 157.92"/><polygon class="cls-1" points="158.98 199.39 171.03 199.66 165.24 210.23 158.98 199.39"/><polygon class="cls-1" points="213.12 210.23 207.33 199.66 219.38 199.39 213.12 210.23"/><circle class="cls-1" cx="73.61" cy="73.61" r="1.44"/><polygon class="cls-1" points="25.74 183.77 31.15 189.18 25.74 194.59 25.74 183.77"/><path class="cls-1" d="M72.18,304.75a1.44,1.44,0,1,0,1.43-1.43A1.44,1.44,0,0,0,72.18,304.75Z"/><polygon class="cls-1" points="183.77 352.62 189.18 347.21 194.59 352.62 183.77 352.62"/><path class="cls-1" d="M303.32,304.75a1.44,1.44,0,1,0,1.43-1.43A1.44,1.44,0,0,0,303.32,304.75Z"/><polygon class="cls-1" points="352.62 194.59 347.21 189.18 352.62 183.77 352.62 194.59"/><circle class="cls-1" cx="304.75" cy="73.61" r="1.44"/><g class="cls-3"><path class="cls-1" d="M143.21,138.6a67.77,67.77,0,0,1,42.71-17.69,1.92,1.92,0,0,0,1.83-1.91v-6.64a76.59,76.59,0,0,0-51.85,21.51l4.67,4.67A1.91,1.91,0,0,0,143.21,138.6Z"/><path class="cls-1" d="M138.23,238.1l.33-.33a1.88,1.88,0,0,0,.06-2.6,67.79,67.79,0,0,1-17.71-42.73,1.91,1.91,0,0,0-1.91-1.82h-6.64a76.57,76.57,0,0,0,21.51,51.84Z"/><path class="cls-1" d="M187.75,259.36a1.92,1.92,0,0,0-1.83-1.91,67.77,67.77,0,0,1-42.71-17.69,1.91,1.91,0,0,0-2.64.06l-4.67,4.67A76.55,76.55,0,0,0,187.75,266Z"/><path class="cls-1" d="M259.36,190.62a1.91,1.91,0,0,0-1.91,1.82,67.77,67.77,0,0,1-17.69,42.71,1.91,1.91,0,0,0,.06,2.64l4.67,4.67A76.52,76.52,0,0,0,266,190.62Z"/><path class="cls-1" d="M237.79,239.82a1.91,1.91,0,0,0-2.64-.06,67.77,67.77,0,0,1-42.71,17.69,1.91,1.91,0,0,0-1.82,1.91V266a76.52,76.52,0,0,0,51.84-21.51Z"/><path class="cls-1" d="M119,187.75a1.92,1.92,0,0,0,1.91-1.83,67.79,67.79,0,0,1,17.69-42.71,1.91,1.91,0,0,0-.06-2.64l-4.67-4.67a76.59,76.59,0,0,0-21.51,51.85Z"/><path class="cls-1" d="M245.84,134.55a78.45,78.45,0,0,1,22.07,53.2h33.34a1.93,1.93,0,0,0,1.91-2,113.18,113.18,0,0,0-31-74.79,1.93,1.93,0,0,0-1.36-.6,2,2,0,0,0-1.38.56L254.6,125.79Z"/><path class="cls-1" d="M192.44,120.91a67.77,67.77,0,0,1,42.71,17.69,1.91,1.91,0,0,0,2.64-.06l4.67-4.67a76.57,76.57,0,0,0-51.84-21.51V119A1.91,1.91,0,0,0,192.44,120.91Z"/><path class="cls-1" d="M243.81,132.52l23.6-23.6a1.91,1.91,0,0,0,0-2.74,113.18,113.18,0,0,0-74.78-31,1.91,1.91,0,0,0-2,1.91v33.34A78.45,78.45,0,0,1,243.81,132.52Z"/><path class="cls-1" d="M134.55,245.84,111,269.44a1.91,1.91,0,0,0,0,2.74,113.18,113.18,0,0,0,74.79,31,1.93,1.93,0,0,0,2-1.91V267.91A78.45,78.45,0,0,1,134.55,245.84Z"/><path class="cls-1" d="M243.81,245.84a78.45,78.45,0,0,1-53.19,22.07v33.34a1.91,1.91,0,0,0,2,1.91,113.16,113.16,0,0,0,74.78-31,1.91,1.91,0,0,0,0-2.74Z"/><path class="cls-1" d="M239.82,140.57a1.91,1.91,0,0,0-.06,2.64,67.77,67.77,0,0,1,17.69,42.71,1.92,1.92,0,0,0,1.91,1.83H266a76.55,76.55,0,0,0-21.51-51.85Z"/><path class="cls-1" d="M110.45,190.62H77.11a1.91,1.91,0,0,0-1.91,2,113.18,113.18,0,0,0,31,74.78,1.91,1.91,0,0,0,2.74,0l23.6-23.6A78.45,78.45,0,0,1,110.45,190.62Z"/><path class="cls-1" d="M301.25,190.62H267.91a78.45,78.45,0,0,1-22.07,53.19l23.6,23.6a1.91,1.91,0,0,0,2.74,0,113.18,113.18,0,0,0,31-74.78,1.91,1.91,0,0,0-1.91-2Z"/><path class="cls-1" d="M134.55,132.52a78.45,78.45,0,0,1,53.2-22.07V77.11a1.92,1.92,0,0,0-.58-1.37,2,2,0,0,0-1.39-.54,113.18,113.18,0,0,0-74.79,31,1.93,1.93,0,0,0-.6,1.36,2,2,0,0,0,.56,1.38Z"/><path class="cls-1" d="M77.11,187.75h33.34a78.45,78.45,0,0,1,22.07-53.2L108.92,111a1.91,1.91,0,0,0-2.74,0,113.18,113.18,0,0,0-31,74.79,1.92,1.92,0,0,0,.54,1.38A1.89,1.89,0,0,0,77.11,187.75Z"/></g><path class="cls-1" d="M233.8,200.2a.8.8,0,0,1-.6-1,.84.84,0,0,1,1.63.37A.86.86,0,0,1,233.8,200.2Z"/><path class="cls-1" d="M230.21,209.84a.83.83,0,0,1-.38-1.1.87.87,0,0,1,1.13-.38.8.8,0,0,1,.38,1.1A.84.84,0,0,1,230.21,209.84Z"/><path class="cls-1" d="M224.6,218.47a.85.85,0,0,1-.14-1.18.83.83,0,1,1,1.3,1A.81.81,0,0,1,224.6,218.47Z"/><path class="cls-1" d="M217.19,225.61a.83.83,0,0,1,1.3-1,.83.83,0,1,1-1.3,1Z"/><path class="cls-1" d="M208.38,230.92a.83.83,0,0,1,.39-1.1.86.86,0,0,1,1.12.4.82.82,0,0,1-.39,1.11A.85.85,0,0,1,208.38,230.92Z"/><path class="cls-1" d="M198.61,234.16a.87.87,0,0,1,.63-1,.84.84,0,0,1,.37,1.63A.81.81,0,0,1,198.61,234.16Z"/><path class="cls-1" d="M188.37,235.16a.87.87,0,0,1,.83-.86.8.8,0,0,1,.83.8.86.86,0,0,1-.83.87A.79.79,0,0,1,188.37,235.16Z"/><path class="cls-1" d="M178.16,233.8a.81.81,0,0,1,1-.6.83.83,0,0,1,.63,1,.84.84,0,0,1-1,.66A.86.86,0,0,1,178.16,233.8Z"/><path class="cls-1" d="M168.52,230.21a.83.83,0,0,1,1.1-.38A.86.86,0,0,1,170,231a.8.8,0,0,1-1.1.38A.84.84,0,0,1,168.52,230.21Z"/><path class="cls-1" d="M159.89,224.6a.85.85,0,0,1,1.18-.14.83.83,0,1,1-1,1.3A.81.81,0,0,1,159.89,224.6Z"/><path class="cls-1" d="M152.75,217.19a.83.83,0,0,1,1,1.3.83.83,0,1,1-1-1.3Z"/><path class="cls-1" d="M147.44,208.38a.83.83,0,0,1,1.1.39.86.86,0,0,1-.4,1.12.81.81,0,0,1-1.1-.39A.83.83,0,0,1,147.44,208.38Z"/><path class="cls-1" d="M144.2,198.61a.86.86,0,0,1,1,.63.84.84,0,0,1-1.63.37A.81.81,0,0,1,144.2,198.61Z"/><path class="cls-1" d="M143.2,188.37a.89.89,0,0,1,.87.83.82.82,0,0,1-.81.83.86.86,0,0,1-.87-.83A.79.79,0,0,1,143.2,188.37Z"/><path class="cls-1" d="M144.56,178.16a.81.81,0,0,1,.6,1,.82.82,0,0,1-1,.63.84.84,0,0,1-.66-1A.87.87,0,0,1,144.56,178.16Z"/><path class="cls-1" d="M148.15,168.52a.83.83,0,0,1,.38,1.1.87.87,0,0,1-1.13.38.8.8,0,0,1-.38-1.1A.84.84,0,0,1,148.15,168.52Z"/><path class="cls-1" d="M153.76,159.89a.87.87,0,0,1,.15,1.18.84.84,0,1,1-1.31-1A.81.81,0,0,1,153.76,159.89Z"/><path class="cls-1" d="M161.17,152.75a.83.83,0,0,1-1.3,1,.86.86,0,0,1,.11-1.2A.85.85,0,0,1,161.17,152.75Z"/><path class="cls-1" d="M170,147.44a.82.82,0,0,1-.39,1.1.86.86,0,0,1-1.12-.4.81.81,0,0,1,.39-1.1A.83.83,0,0,1,170,147.44Z"/><path class="cls-1" d="M179.75,144.2a.86.86,0,0,1-.62,1,.84.84,0,0,1-.38-1.63A.81.81,0,0,1,179.75,144.2Z"/><path class="cls-1" d="M190,143.2a.9.9,0,0,1-.84.87.82.82,0,0,1-.83-.81.86.86,0,0,1,.83-.87A.8.8,0,0,1,190,143.2Z"/><path class="cls-1" d="M200.2,144.56a.8.8,0,0,1-1,.6.83.83,0,0,1-.63-1,.84.84,0,0,1,1-.66A.86.86,0,0,1,200.2,144.56Z"/><path class="cls-1" d="M209.84,148.15a.83.83,0,0,1-1.1.38.87.87,0,0,1-.38-1.13.8.8,0,0,1,1.1-.38A.84.84,0,0,1,209.84,148.15Z"/><path class="cls-1" d="M218.47,153.76a.87.87,0,0,1-1.18.15.84.84,0,1,1,1-1.31A.81.81,0,0,1,218.47,153.76Z"/><path class="cls-1" d="M225.61,161.17a.83.83,0,0,1-1-1.3.86.86,0,0,1,1.2.11A.85.85,0,0,1,225.61,161.17Z"/><path class="cls-1" d="M230.92,170a.82.82,0,0,1-1.1-.39.86.86,0,0,1,.4-1.12.82.82,0,0,1,1.11.39A.85.85,0,0,1,230.92,170Z"/><path class="cls-1" d="M234.16,179.75a.87.87,0,0,1-1-.62.85.85,0,0,1,.62-1,.84.84,0,0,1,1,.62A.81.81,0,0,1,234.16,179.75Z"/><path class="cls-1" d="M235.16,190a.88.88,0,0,1-.86-.84.8.8,0,0,1,.81-.83.85.85,0,0,1,.86.83A.8.8,0,0,1,235.16,190Z"/><path class="cls-1" d="M189.18,360.47c-94.45,0-171.29-76.84-171.29-171.29S94.73,17.89,189.18,17.89,360.47,94.73,360.47,189.18,283.63,360.47,189.18,360.47Zm0-340.67c-93.39,0-169.38,76-169.38,169.38s76,169.38,169.38,169.38,169.38-76,169.38-169.38S282.58,19.8,189.18,19.8Z"/><g class="cls-4"><path class="cls-1" d="M189.18,378.36C84.87,378.36,0,293.5,0,189.18S84.87,0,189.18,0,378.36,84.87,378.36,189.18,293.5,378.36,189.18,378.36Zm0-371.66C88.56,6.7,6.7,88.56,6.7,189.18S88.56,371.66,189.18,371.66,371.66,289.8,371.66,189.18,289.8,6.7,189.18,6.7Z"/></g><g class="cls-2"><path class="cls-1" d="M314.24,65.35l-.5-.51A176.12,176.12,0,0,0,235,19.21L234.3,19l.37-1.39.69.19a177.38,177.38,0,0,1,79.39,46l.51.51Z"/><path class="cls-1" d="M64.38,65l-1-1,.51-.5a177.51,177.51,0,0,1,79.54-45.75l.69-.19.37,1.39-.69.18a176.12,176.12,0,0,0-78.9,45.38Z"/><path class="cls-1" d="M17.87,235.56l-.18-.69a177.35,177.35,0,0,1,.15-91.76l.18-.69,1.39.37-.19.69a176.24,176.24,0,0,0-.15,91l.19.69Z"/><path class="cls-1" d="M143.69,360.73l-.69-.19a177.43,177.43,0,0,1-79.39-46l-.51-.5,1-1,.5.51a175.94,175.94,0,0,0,78.75,45.63l.69.19Z"/><path class="cls-1" d="M234.26,360.79l-.37-1.39.69-.18a176.12,176.12,0,0,0,78.9-45.38l.51-.51,1,1-.51.51A177.4,177.4,0,0,1,235,360.6Z"/><path class="cls-1" d="M360.34,236l-1.39-.38.19-.69a176,176,0,0,0,.15-91l-.19-.7,1.39-.37.18.7a177.31,177.31,0,0,1-.15,91.75Z"/><path class="cls-1" d="M320,316.38l.42-.42c.26-.24.58-.59.9-.94.64-.71,1.29-1.41,1.29-1.41L319,310.24l1.85-2,3.68,3.31,1.28-1.4.88-1,.38-.46-3.74-3.24,1.75-2.1,3.79,3.18,2.43-2.94-3.86-3.1.88-1.05c.43-.54.83-1.09.83-1.09l3.9,3,2.29-3-4-3,1.65-2.19,4,2.89s.59-.75,1.11-1.54l1.07-1.58-4.07-2.81,1.54-2.27,4.11,2.75,1.07-1.57c.26-.4.53-.79.73-1.09l.31-.51-4.17-2.66,1.43-2.34,4.21,2.6,2-3.25-4.26-2.51s.36-.58.71-1.17l.66-1.2,4.3,2.45,1.83-3.34-4.35-2.36,1.32-2.4,4.38,2.29.29-.52.58-1.18.83-1.71-4.43-2.2,1.2-2.46,4.47,2.13.83-1.71c.43-.85.79-1.73.79-1.73l-4.51-2,1.08-2.51,4.54,2,1.51-3.5-4.58-1.87s.27-.62.53-1.26l.48-1.28,4.6,1.8,1.34-3.57-4.65-1.7,1-2.57,4.67,1.63.21-.55c.11-.34.25-.8.4-1.25l.58-1.81L358,244.15l.84-2.61,4.73,1.46.58-1.81c.14-.45.29-.91.37-1.25s.16-.58.16-.58L359.88,238l.71-2.65-7.6-2s-.36,1.34-1,3.68c-.37,1.16-.82,2.56-1.33,4.17s-1.06,3.45-1.83,5.38-1.49,4.08-2.38,6.29-1.93,4.51-3,6.9-2.32,4.76-3.51,7.22-2.65,4.83-4,7.27l-4.33,7.06c-1.53,2.26-3,4.49-4.51,6.64s-3.07,4.1-4.51,6-2.95,3.59-4.26,5.2-2.63,3-3.76,4.26l-3,3.24L309,309.3l5.57,5.57,1.94-1.93Z"/><path class="cls-1" d="M144.44,366.09l1.84.49,1.86.41,1.12-4.82,2.67.58-1,4.84,3.73.8.94-4.86.41.09.93.16,1.35.22-.86,4.88,3.76.62.76-4.89,2.7.44-.68,4.9,3.78.44.58-4.91,2.73.31-.51,4.93,1.89.21c.95.1,1.9.14,1.9.14l.4-4.93,2.74.18-.33,4.94,3.8.25.22-4.94s.69.06,1.37.05l1.37,0-.14,4.94,3.8.06.05-4.94,2.74,0,0,4.95s.24,0,.6,0l1.3,0,1.91-.06-.14-4.95,2.74-.09.21,4.94,1.91-.06c.47,0,1,0,1.3-.07l.6-.05-.32-4.94,2.73-.23.39,4.93,3.8-.32-.5-4.92,1.36-.11,1.36-.19.58,4.92,3.77-.51-.68-4.9,2.72-.37.75,4.89.59-.08c.36,0,.83-.11,1.29-.21l1.87-.35-.85-4.87,2.69-.5.93,4.86,3.74-.7-1-4.84,2.67-.64,1.1,4.82,3.7-.88-1.2-4.8,2.66-.64-2-7.61-3.72.89-4.26,1c-1.65.37-3.54.68-5.58,1.07a167.82,167.82,0,0,1-60.73,0c-2.05-.33-3.9-.81-5.56-1.15s-3.11-.63-4.28-1l-3.68-1-2.06,7.6,2.65.7Z"/><path class="cls-1" d="M13.64,238.88l1.08,3.65,4.73-1.44.77,2.62-4.71,1.52,1.26,3.59,4.68-1.61.9,2.59-4.65,1.68s.31.9.63,1.8c.15.45.32.89.46,1.22l.22.55,4.62-1.78,1,2.54-4.59,1.85,1.44,3.53,4.55-1.95.52,1.27.58,1.24-4.52,2,1.61,3.45,4.47-2.11,1.17,2.48-4.45,2.18.26.54c.14.33.36.75.59,1.17l.89,1.68,4.39-2.27,1.29,2.42-4.36,2.34.89,1.68.61,1.16a5.85,5.85,0,0,0,.29.52l4.31-2.44,1.4,2.36-4.27,2.5,1.95,3.27,4.22-2.59.7,1.18c.34.59.73,1.16.73,1.16l-4.17,2.65,2.1,3.17,4.12-2.74,1.52,2.28-4.08,2.81s.52.8,1.07,1.58L41,295.73l4-2.89,1.63,2.2-4,2.95L45,301.06l3.91-3,1.73,2.13-3.86,3.09,2.41,2.95L52.94,303l.87,1.06c.22.26.43.53.6.72l.28.32L51,308.36l2.55,2.82,3.67-3.31,1.84,2-3.63,3.37,1.28,1.4L58,316l3.55-3.44,1.93,2L69.06,309l-2.69-2.71c-.87-.85-1.82-2-3-3.23s-2.45-2.63-3.76-4.25a167.73,167.73,0,0,1-17.52-24.95A170,170,0,0,1,29.4,246.12c-.67-2-1.34-3.76-1.85-5.37s-.89-3-1.23-4.21l-1.08-3.66-7.61,2,.78,2.63Z"/><path class="cls-1" d="M58.33,62l-.42.42c-.26.24-.58.59-.9,1l-1.29,1.4,3.63,3.37-1.85,2-3.67-3.31s-.65.7-1.29,1.41l-.88,1-.38.46L55,72.9,53.27,75l-3.79-3.18-2.43,2.93,3.86,3.1-.88,1c-.42.54-.83,1.09-.83,1.09l-3.9-3L43,80l4,3-1.65,2.19-4-2.89s-.59.75-1.11,1.54l-1.07,1.58,4.07,2.81-1.53,2.27-4.12-2.75s-.53.79-1.07,1.57c-.26.4-.53.79-.73,1.09l-.31.51,4.17,2.66-1.43,2.34L34,93.28l-2,3.25L36.26,99s-.36.58-.71,1.17l-.66,1.2L30.59,99l-1.83,3.34,4.35,2.36-1.32,2.4-4.38-2.29-.29.52-.58,1.18-.83,1.71,4.43,2.2-1.2,2.46-4.47-2.13s-.41.86-.83,1.71-.79,1.73-.79,1.73l4.51,2-1.08,2.52-4.54-2-1.5,3.5,4.58,1.87s-.28.63-.53,1.26l-.48,1.29-4.61-1.81-1.34,3.57,4.65,1.71-1,2.56-4.67-1.63-.21.56c-.11.34-.25.79-.4,1.24l-.58,1.82,4.71,1.53-.84,2.61-4.72-1.46-.58,1.81c-.15.45-.29.91-.38,1.25l-.15.58,4.75,1.36-.7,2.65,7.59,2.06s.37-1.34,1-3.69c.37-1.16.82-2.56,1.33-4.17s1.06-3.45,1.83-5.38,1.49-4.08,2.38-6.29,1.93-4.51,3-6.9l3.52-7.21,4-7.28,4.33-7.06,4.51-6.64c1.56-2.08,3.07-4.1,4.51-6s2.95-3.59,4.27-5.2,2.62-3,3.75-4.26l3-3.23,2.7-2.7-5.56-5.57-1.95,1.93Z"/><path class="cls-1" d="M233.92,12.27l-1.84-.49-1.86-.41-1.11,4.82-2.68-.58,1-4.84-3.72-.8-.94,4.86-.42-.09-.93-.16-1.35-.22L221,9.48l-3.76-.62-.76,4.89-2.7-.44.69-4.9L210.65,8l-.58,4.91-2.72-.31.5-4.92L206,7.43c-1-.09-1.9-.14-1.9-.14l-.4,4.93L200.92,12l.33-4.94-3.8-.25-.22,5s-.68-.06-1.37-.06l-1.37,0,.15-5-3.81-.06,0,5-2.74-.05,0-4.95s-.24,0-.59,0l-1.31,0-1.91.07.14,4.94-2.74.09-.21-4.94-1.9.07c-.48,0-1,0-1.31.06l-.59,0,.32,4.94-2.74.23-.39-4.93-3.8.32.5,4.92-1.36.12-1.36.18-.57-4.92-3.78.51.68,4.9-2.72.37-.75-4.89-.59.08c-.35,0-.82.12-1.29.21l-1.87.35.85,4.87-2.69.51L155.1,10l-3.74.71,1,4.84-2.67.63-1.1-4.82-3.7.88,1.2,4.8-2.66.64,2,7.61,3.71-.89,4.26-1c1.66-.37,3.54-.67,5.59-1.07a168.36,168.36,0,0,1,60.72,0c2.06.33,3.91.82,5.56,1.15s3.11.63,4.28,1l3.69,1,2-7.6-2.65-.7Z"/><path class="cls-1" d="M364.72,139.48l-1.07-3.65-4.74,1.45-.77-2.63,4.71-1.52-1.26-3.59-4.67,1.61-.91-2.59,4.65-1.68s-.31-.9-.63-1.8c-.15-.45-.31-.89-.46-1.22l-.22-.55-4.62,1.78-1-2.54,4.59-1.85-1.44-3.53-4.55,2-.52-1.27c-.28-.62-.57-1.24-.57-1.24l4.51-2-1.61-3.45-4.47,2.11-1.16-2.48,4.44-2.18-.25-.54c-.15-.32-.37-.75-.59-1.16l-.9-1.69-4.39,2.28-1.28-2.43,4.36-2.34L349,101l-.61-1.16c-.16-.31-.29-.51-.29-.51l-4.31,2.43-1.4-2.36,4.27-2.5-1.95-3.27-4.22,2.59-.7-1.18c-.34-.59-.73-1.16-.73-1.16l4.18-2.65-2.11-3.17L337,90.83l-1.52-2.28,4.08-2.81s-.52-.8-1.07-1.57l-1.13-1.54-4,2.89-1.62-2.2,4-2.95L333.4,77.3l-3.9,3-1.73-2.13,3.86-3.09-2.41-3-3.8,3.18-.87-1.06c-.21-.27-.43-.53-.59-.73l-.29-.32L327.42,70l-2.55-2.83-3.68,3.31-1.84-2L323,65.09l-1.28-1.41-1.34-1.35-3.56,3.44-1.93-1.94-5.57,5.56L312,72.1c.87.85,1.82,2,3,3.23s2.46,2.63,3.77,4.25A168.4,168.4,0,0,1,349,132.24c.67,2,1.34,3.76,1.85,5.37l1.23,4.21c.69,2.33,1.08,3.67,1.08,3.67l7.61-2-.77-2.63Z"/></g></g></g></svg>