<svg xmlns="http://www.w3.org/2000/svg" viewBox="0 0 189.14 188.96"><defs><style>.cls-1,.cls-16,.cls-17,.cls-18,.cls-19,.cls-20,.cls-21,.cls-22,.cls-23,.cls-24{fill:#068d99;}.cls-2{fill:#0aa3b1;}.cls-10,.cls-11,.cls-12,.cls-13,.cls-14,.cls-15,.cls-3,.cls-7,.cls-8,.cls-9{fill:#d27c1d;}.cls-4{fill:#f49022;}.cls-5{fill:#0cbdcd;}.cls-6{isolation:isolate;}.cls-24,.cls-7{opacity:0.7;}.cls-22,.cls-8{opacity:0.8;}.cls-23,.cls-9{opacity:0.9;}.cls-10,.cls-21{opacity:0.6;}.cls-11,.cls-16{opacity:0.5;}.cls-12,.cls-19{opacity:0.4;}.cls-13,.cls-20{opacity:0.2;}.cls-14,.cls-17{opacity:0.1;}.cls-15,.cls-18{opacity:0.3;}</style></defs><title>资源 4</title><g id="图层_2" data-name="图层 2"><g id="央铋_1" data-name="央铋 1"><path class="cls-1" d="M156.39,45.3a40.15,40.15,0,0,1,6.21,1.21l-.73,1a42.23,42.23,0,0,0-6.1-1.19Z"/><path class="cls-1" d="M156.88,142.89l.64.42-.5.56.82.58q-2.93,3.27-6.08,6.41c-1.25,1.25-2.53,2.47-3.82,3.67l-.62-.77c-3,2.75-6,5.36-9.09,7.8l-.35-.71A148.63,148.63,0,0,0,156.88,142.89Z"/><path class="cls-1" d="M133.59,46.1A75.29,75.29,0,0,1,144.23,44l-.57,1.39c1.43-.17,2.83-.29,4.21-.36l-.49,1.05A67.77,67.77,0,0,0,133,48.44a103.16,103.16,0,0,0-25.3,10.87l-.12-.86a111,111,0,0,1,16.61-8.05l.18-1.29A93.89,93.89,0,0,1,133.59,46.1Z"/><path class="cls-1" d="M62.81,180.67c7.19,3.52,16.37,4.68,27.05,3l-.38,1a52.23,52.23,0,0,1-19.6-.27L69,185.8a37,37,0,0,1-7.17-2.38l1-1.33-.86-.4Z"/><path class="cls-1" d="M175.34,53.28q.57.49,1.11,1a28.85,28.85,0,0,1,2.3,2.53L180,55.69a30.63,30.63,0,0,1,2.81,4.1l-1.32,1.06a33.5,33.5,0,0,1,3.41,8.59l1.38-.91c2,8,1.67,17.48-1.1,28-.26,1-.54,1.92-.83,2.89l-1.33.29a92.58,92.58,0,0,1-3.21,8.9l-1,.1a88.62,88.62,0,0,0,4-11.55c5.07-19.14,1.46-34.22-8.41-42.9Z"/><path class="cls-2" d="M121.06,38.66C157.11,29,178.7,50.35,169.19,86.25s-46.57,73-82.62,82.62A67.63,67.63,0,0,1,74.79,171l1.77-4.09c-23.37,2-38.06-11.84-36.07-35.77l-.67.2c-6.21,1.66-9.93-2-8.29-8.19s8-12.57,14.23-14.24l.66-.15c8.39-19.55,24.16-38,42.24-50.81l-1-2.95C98.32,47.43,109.74,41.7,121.06,38.66ZM88.76,160.6c31.47-8.43,63.82-40.79,72.13-72.13s-10.55-50-42-41.54A92.79,92.79,0,0,0,89.73,61.19l-.9-2.71C71,71.11,55.43,89.33,47.13,108.62c5.37-.8,8.43,2.77,6.92,8.48S47,128.7,41.23,130.87c-1.94,23.61,12.58,37.28,35.65,35.28l1.6-3.7a59,59,0,0,0,10.28-1.85M40,130.61c5.81-1.56,11.79-7.53,13.32-13.31s-1.95-9.23-7.76-7.67-11.78,7.52-13.32,13.31,2,9.23,7.76,7.67"/><path class="cls-3" d="M42.78,107.13c5.68-1.52,9.08,1.84,7.59,7.5s-7.34,11.49-13,13-9.09-1.84-7.58-7.5S37.1,108.65,42.78,107.13Zm-5.37,20.26c5.54-1.48,11.24-7.18,12.7-12.7s-1.85-8.8-7.4-7.31-11.24,7.18-12.7,12.7,1.86,8.8,7.4,7.31"/><path class="cls-4" d="M70.76,63.48,77.4,73.54q-1.07.94-2.07,1.95l-8.7-8.12C68,66,69.34,64.73,70.76,63.48Z"/><path class="cls-4" d="M58,77.78,70.3,81.53c-.52.75-1,1.52-1.46,2.29L55,82.36C55.93,80.82,56.91,79.29,58,77.78Z"/><path class="cls-4" d="M63.88,70.29l9.7,7c-.63.71-1.23,1.44-1.8,2.18l-11.51-4.9C61.41,73.14,62.62,71.69,63.88,70.29Z"/><path class="cls-5" d="M22.74.62C32.4-2,38.18,3.75,35.63,13.37S23.15,32.92,13.5,35.51-1.94,32.38.6,22.76,13.08,3.21,22.74.62ZM13.59,35.15c9.46-2.54,19.18-12.26,21.68-21.68S32.1-1.55,22.64,1,3.46,13.24,1,22.66s3.17,15,12.63,12.49"/><path class="cls-3" d="M152.62,130.5c9.65-2.59,15.44,3.13,12.89,12.75S153,162.8,143.37,165.39s-15.44-3.13-12.89-12.75S143,133.09,152.62,130.5ZM143.47,165c9.46-2.54,19.18-12.26,21.68-21.68s-3.17-15-12.63-12.49-19.19,12.26-21.68,21.68,3.17,15,12.63,12.49"/><path class="cls-1" d="M156.47,172.47a18,18,0,0,1,1.32-3.42h-1a19.68,19.68,0,0,0-1.43,3.71,13.62,13.62,0,0,0-.39,2.05l1.11-.45A13.61,13.61,0,0,1,156.47,172.47Z"/><path class="cls-1" d="M172.75,155.4a21.86,21.86,0,0,0-6.58,3.13l.23.83a20.3,20.3,0,0,1,6.07-2.89c7-1.87,11.15,2.27,9.31,9.22s-9,14.12-16,16c-4.45,1.19-7.76-.06-9.1-2.93l-1.06.83c1.45,3.11,5,4.48,9.87,3.18,7.58-2,15.37-9.82,17.37-17.36S180.33,153.37,172.75,155.4Z"/><path class="cls-4" d="M49.67,33.56a18.67,18.67,0,0,0-3.42,1.32v-1A20,20,0,0,1,50,32.48a14.79,14.79,0,0,1,2-.4l-.45,1.12A13.61,13.61,0,0,0,49.67,33.56Z"/><path class="cls-4" d="M32.59,49.84a22.18,22.18,0,0,1,3.14-6.59l.83.24a20.3,20.3,0,0,0-2.89,6.07c-1.87,7,2.27,11.15,9.21,9.31s14.13-9,16-16c1.19-4.45-.06-7.76-2.93-9.1l.83-1.06c3.11,1.44,4.47,5,3.18,9.87C57.93,50.17,50.14,58,42.59,60S30.57,57.42,32.59,49.84Z"/><path class="cls-5" d="M24.78,58.06a12.46,12.46,0,0,0,.38,1.8L8.79,71.3A21,21,0,0,1,8,67.7Z"/><path class="cls-5" d="M30.1,65.72a10.52,10.52,0,0,0,1.66.61l-11,16.46a18.89,18.89,0,0,1-3.29-1.21Z"/><path class="cls-5" d="M37.2,66.67a19.87,19.87,0,0,0,2.18-.37L34.52,82.64a38.34,38.34,0,0,1-4.35.73Z"/><path class="cls-5" d="M55.45,9.21c13-3.48,22.62.21,26.45,8.62l-7.78,6a14.89,14.89,0,0,1,.72,1.9l1.78-1.24a24.3,24.3,0,0,1-.28,13.09,43.18,43.18,0,0,1-3.25,8.4l-1.56,0c-.46.9-.94,1.8-1.47,2.69l6.68.71A74.47,74.47,0,0,1,67.9,61.38l-9.71-7.06a40.91,40.91,0,0,0,4.74-6.47l6.21.65c.51-.87,1-1.74,1.42-2.61l-1.42,0a37.13,37.13,0,0,0,2.75-7.13,20.77,20.77,0,0,0,.25-11.16l1.61-1.12a16.12,16.12,0,0,0-.69-1.85l-7.22,5.52c-2.16-4.63-7.5-6.65-14.68-4.73a28.75,28.75,0,0,0-3.31,1.13l.63-6.83c-.87.36-1.75.76-2.62,1.19l-.1,6.59c-.78.39-1.56.81-2.32,1.27l-.95-6c-.87.52-1.74,1.08-2.59,1.66l1.47,5.68c-.76.52-1.51,1.07-2.24,1.65l-5.53-11c1.47-1.16,3-2.26,4.49-3.29l1.59,6.1c.88-.6,1.77-1.16,2.67-1.7l-1-6.47Q43.63,14,46,12.81l-.11,7.1c.9-.45,1.81-.86,2.71-1.23l.68-7.35A48.71,48.71,0,0,1,55.45,9.21Z"/><path class="cls-5" d="M13,45.42l14.45.26c-.38.77-.73,1.54-1.05,2.32l-15.5,2C11.55,48.5,12.25,47,13,45.42Z"/><path class="cls-5" d="M33.38,66.65a13.83,13.83,0,0,0,2,.13L27.23,83.55a25.88,25.88,0,0,1-3.91-.25Z"/><path class="cls-5" d="M48.12,62.71l2.1,13.39a57,57,0,0,1-12.53,5.68l3.71-16A32.16,32.16,0,0,0,48.12,62.71Z"/><path class="cls-5" d="M56.44,56.18l8.7,8.12A77.91,77.91,0,0,1,53.46,74L50.18,61.39A42.84,42.84,0,0,0,56.44,56.18Z"/><path class="cls-5" d="M9.77,53.29l15.92-3.23c-.12.38-.23.76-.33,1.13s-.19.75-.26,1.11L8.58,57.77c.15-.73.33-1.47.52-2.22S9.53,54,9.77,53.29Z"/><path class="cls-5" d="M25.71,61.33a9.91,9.91,0,0,0,.84,1.46L11.34,76.53a16.7,16.7,0,0,1-1.68-2.91Z"/><path class="cls-5" d="M24.77,54.25a16.29,16.29,0,0,0-.1,2.07L7.85,65a31.08,31.08,0,0,1,.23-4.13Z"/><path class="cls-5" d="M27.5,63.93A11.71,11.71,0,0,0,28.78,65L15.39,80.41a16.11,16.11,0,0,1-2.54-2.1Z"/><path class="cls-2" d="M114.22,80.83a11.73,11.73,0,0,1,1.8.38l11.43-16.37a20.2,20.2,0,0,0-3.59-.75Z"/><path class="cls-2" d="M121.88,86.15a10.75,10.75,0,0,1,.6,1.65l16.46-11a19,19,0,0,0-1.2-3.3Z"/><path class="cls-2" d="M122.82,93.25a20.29,20.29,0,0,1-.37,2.18l16.34-4.87a38,38,0,0,0,.73-4.35Z"/><path class="cls-2" d="M65.36,111.5c-3.48,13,.21,22.62,8.63,26.44l5.94-7.77a15,15,0,0,0,1.91.72l-1.24,1.77a24.39,24.39,0,0,0,13.09-.27,43.09,43.09,0,0,0,8.39-3.25l0-1.57c.9-.45,1.8-.93,2.69-1.46l.71,6.68a74.53,74.53,0,0,0,12.07-8.85l-7-9.7A41.63,41.63,0,0,1,104,119l.66,6.21c-.87.51-1.75,1-2.62,1.42l0-1.43a37.52,37.52,0,0,1-7.14,2.76,20.94,20.94,0,0,1-11.15.25L82.6,129.8a15.7,15.7,0,0,1-1.85-.7l5.52-7.21c-4.63-2.16-6.65-7.5-4.72-14.68a26.33,26.33,0,0,1,1.12-3.31l-6.82.63c.36-.87.76-1.75,1.19-2.62l6.58-.1c.39-.78.82-1.56,1.27-2.33l-6-.94c.52-.87,1.07-1.74,1.65-2.6l5.69,1.48c.52-.76,1.07-1.51,1.64-2.25l-11-5.52c-1.16,1.47-2.26,3-3.29,4.49l6.11,1.58c-.6.89-1.17,1.78-1.71,2.68l-6.47-1Q70.12,99.68,69,102l7.09-.1q-.68,1.35-1.23,2.7l-7.35.69A50.33,50.33,0,0,0,65.36,111.5Z"/><path class="cls-2" d="M101.57,69.08l.26,14.45c.77-.38,1.54-.74,2.32-1l2-15.5C104.65,67.6,103.1,68.3,101.57,69.08Z"/><path class="cls-2" d="M122.81,89.43a15.28,15.28,0,0,1,.12,2l16.77-8.11a27.28,27.28,0,0,0-.24-3.91Z"/><path class="cls-2" d="M118.86,104.16l13.4,2.1a57.15,57.15,0,0,0,5.67-12.52l-16,3.71A31.58,31.58,0,0,1,118.86,104.16Z"/><path class="cls-2" d="M112.33,112.49l8.12,8.7a77.91,77.91,0,0,0,9.73-11.68l-12.63-3.28A43.44,43.44,0,0,1,112.33,112.49Z"/><path class="cls-2" d="M109.44,65.82l-3.23,15.92,1.14-.33q.56-.15,1.11-.27l5.46-16.51c-.73.15-1.47.32-2.22.52S110.19,65.58,109.44,65.82Z"/><path class="cls-2" d="M117.49,81.76a9.55,9.55,0,0,1,1.46.84l13.73-15.21a17.41,17.41,0,0,0-2.91-1.69Z"/><path class="cls-2" d="M110.4,80.82a18.55,18.55,0,0,1,2.07-.11l8.64-16.81a29.49,29.49,0,0,0-4.13.23Z"/><path class="cls-2" d="M120.08,83.55a8.62,8.62,0,0,1,1,1.28l15.43-13.39a15.67,15.67,0,0,0-2.1-2.54Z"/><path class="cls-2" d="M124.67,86a18,18,0,0,1-.23,9.66,31.26,31.26,0,0,1-2.37,6.15l-2,0a28.51,28.51,0,0,0,2.12-5.51,16.19,16.19,0,0,0,.21-8.67Z"/><path class="cls-2" d="M98.61,63.3l.25,3.75c-.35.19-.7.4-1,.6L97.32,64Z"/><path class="cls-2" d="M103.46,60.83l-.22,4-1,.5,0-3.87Z"/><path class="cls-2" d="M59.14,107.17l4.1-.47c-.14.34-.27.69-.4,1l-4.19.71C58.81,108,59,107.59,59.14,107.17Z"/><path class="cls-2" d="M61.16,113.12l-.24,1-4.39,1.39c.09-.41.19-.82.3-1.24Z"/><path class="cls-2" d="M58.25,109.57l4.19-.71c-.12.35-.23.69-.35,1l-4.27.94C58,110.41,58.1,110,58.25,109.57Z"/><g class="cls-6"><path class="cls-2" d="M116.4,128.39l1.62,2.82-1.21,1-1.4-3Z"/><path class="cls-2" d="M118.43,126.68l1.84,2.62-1.19,1-1.62-2.81Z"/><path class="cls-2" d="M120.42,124.89l2,2.43c-.38.36-.77.71-1.16,1.06l-1.83-2.62Z"/></g><path class="cls-2" d="M94.83,140.88l-.68,4.18-1.27.43.91-4.25C94.14,141.13,94.49,141,94.83,140.88Z"/><path class="cls-2" d="M97,140.08l-.45,4.08-1.28.49.68-4.17Z"/><g class="cls-6"><path class="cls-7" d="M134.05,108.77l3.5.7c-.27.42-.56.84-.83,1.26l-3.35-.92C133.6,109.46,133.83,109.12,134.05,108.77Z"/><path class="cls-8" d="M132.61,110.92l3.35.92c-.3.42-.59.84-.89,1.25l-3.18-1.15C132.13,111.6,132.38,111.26,132.61,110.92Z"/><path class="cls-9" d="M131.09,113l3.18,1.16-.93,1.23-3-1.38C130.58,113.71,130.83,113.37,131.09,113Z"/><path class="cls-3" d="M129.48,115.12l3,1.38-1,1.21-2.84-1.6Z"/><path class="cls-2" d="M127.8,117.17l2.84,1.6c-.34.4-.68.79-1,1.18L127,118.14C127.25,117.82,127.52,117.49,127.8,117.17Z"/><path class="cls-2" d="M137,112.75l.38.12q-1.86,2.64-3.93,5.18l-.33-.17C134.47,116.2,135.77,114.49,137,112.75Z"/></g><path class="cls-2" d="M64.83,137.05l.51.55-3.87,3.87c-.21-.22-.42-.44-.62-.67Z"/><path class="cls-2" d="M63.85,135.84l.46.6-4,3.74c-.19-.23-.38-.47-.56-.72Z"/><path class="cls-2" d="M63,134.54c.13.22.26.43.41.64L59.3,138.8c-.17-.26-.34-.52-.5-.78Z"/><path class="cls-2" d="M61.55,131.67c.09.24.2.48.3.72l-4.25,3.33c-.14-.29-.26-.59-.38-.89Z"/><path class="cls-2" d="M61,130.11c.08.25.16.51.25.76L56.92,134c-.11-.3-.21-.61-.31-.93Z"/><path class="cls-2" d="M62.21,133.15c.11.23.23.46.35.68l-4.17,3.48c-.16-.28-.3-.56-.44-.84Z"/><path class="cls-2" d="M92.68,141.59l-.92,4.25-1.25.37,1.14-4.32Z"/><path class="cls-2" d="M89.54,142.43l1-.25-1.14,4.32-1.24.3Z"/><path class="cls-2" d="M85.42,143.18l1-.14-1.6,4.42-1.19.17Z"/><path class="cls-10" d="M135.41,106.61l3.64.46c-.26.43-.52.86-.79,1.28l-3.49-.7C135,107.31,135.2,107,135.41,106.61Z"/><path class="cls-11" d="M136.67,104.43l3.77.23c-.23.43-.48.86-.73,1.29l-3.63-.47C136.28,105.14,136.48,104.78,136.67,104.43Z"/><path class="cls-12" d="M137.83,102.25h3.9c-.22.43-.44.86-.67,1.29l-3.77-.23C137.47,103,137.66,102.6,137.83,102.25Z"/><path class="cls-13" d="M139.86,97.88l4.1-.47c-.18.43-.36.86-.55,1.29l-4,.23Z"/><path class="cls-2" d="M80.09,77.09l2,2.43-.93.89L79,78.18Z"/><path class="cls-2" d="M82.26,75.07,84.1,77.7l-.95.86L81.1,76.13Z"/><path class="cls-2" d="M86.75,71.27l1.4,3-1,.8-1.62-2.81Z"/><path class="cls-2" d="M72.05,85.75l2.83,1.59c-.27.33-.54.66-.8,1l-3-1.38C71.39,86.55,71.72,86.15,72.05,85.75Z"/><path class="cls-2" d="M89.07,69.49l1.18,3.16-1,.77-1.41-3Z"/><path class="cls-2" d="M91.42,67.8l1,3.32-1,.73-1.18-3.16Z"/><path class="cls-2" d="M68.49,90.36l3.18,1.16-.72,1-3.35-.93C67.9,91.2,68.19,90.78,68.49,90.36Z"/><path class="cls-2" d="M66.85,92.72l3.34.93-.69,1L66,94C66.28,93.56,66.56,93.14,66.85,92.72Z"/><path class="cls-2" d="M96.19,64.7l.49,3.62L95.63,69l-.71-3.47Z"/><path class="cls-2" d="M63.85,97.51l3.63.46c-.2.35-.4.7-.59,1l-3.77-.23C63.36,98.36,63.6,97.93,63.85,97.51Z"/><path class="cls-2" d="M110.68,58l-.91,4.25-1,.35.68-4.17C109.84,58.25,110.26,58.1,110.68,58Z"/><path class="cls-2" d="M116.47,56.42l1.22-.24L116.1,60.6l-1,.19Z"/><path class="cls-2" d="M118.75,56l1.2-.17-1.81,4.45-1,.14Z"/><path class="cls-2" d="M60.32,117.26c0,.32-.09.65-.13,1l-4.46,1.82c.05-.39.1-.79.16-1.19Z"/><path class="cls-2" d="M121,55.71c.39,0,.78-.08,1.16-.1l-2,4.46-.95.09Z"/><path class="cls-2" d="M123.17,55.55l1.14,0L122.08,60l-.93,0Z"/><path class="cls-2" d="M59.94,121.22c0,.32,0,.62,0,.93l-4.48,2.24c0-.37,0-.75,0-1.13Z"/><path class="cls-2" d="M59.92,123.13q0,.45,0,.9l-4.48,2.44c0-.37,0-.73,0-1.1Z"/><path class="cls-2" d="M60,125l.09.86-4.46,2.63c0-.35-.08-.7-.1-1Z"/><path class="cls-2" d="M60.56,128.47c.06.27.12.53.19.8l-4.38,3c-.09-.32-.17-.64-.24-1Z"/><path class="cls-2" d="M134.82,57.23l.89.37-3.32,4.25-.73-.3Z"/><path class="cls-2" d="M136.47,58c.28.14.57.28.84.43l-3.47,4.17-.69-.35Z"/><path class="cls-2" d="M140.84,60.81c.23.2.46.4.68.61l-3.87,3.87-.56-.5Z"/><path class="cls-2" d="M67.09,139.18c.2.16.39.31.6.45l-3.62,4.09c-.25-.18-.49-.36-.73-.56Z"/><path class="cls-2" d="M69.72,140.9l.69.36-3.32,4.25c-.29-.14-.57-.28-.84-.43Z"/><path class="cls-2" d="M146.64,69.42c.1.31.21.62.31.93l-4.39,3c-.08-.26-.16-.51-.25-.76Z"/><path class="cls-2" d="M147.61,73.05q.1.49.18,1l-4.46,2.63c0-.28-.09-.56-.14-.84Z"/><path class="cls-2" d="M148.09,77c0,.36,0,.73,0,1.1l-4.49,2.24c0-.31,0-.61,0-.9Z"/><path class="cls-2" d="M81.48,143.48l.93,0-2,4.46-1.14,0Z"/><path class="cls-2" d="M83.43,143.38l.95-.08-1.81,4.45-1.17.1Z"/><path class="cls-2" d="M87.46,142.86l1-.19L87.09,147l-1.22.24Z"/><path class="cls-14" d="M140.72,95.71l4.19-.7c-.16.43-.32.85-.49,1.27l-4.1.48C140.46,96.41,140.59,96.06,140.72,95.71Z"/><path class="cls-2" d="M99.18,139.16l-.22,4-1.28.56.45-4.08Z"/><path class="cls-2" d="M101.37,138.14l0,3.88-1.29.61.22-4Z"/><path class="cls-2" d="M107.93,134.5l.71,3.47c-.42.26-.84.53-1.27.78l-.49-3.61Z"/><path class="cls-2" d="M110.08,133.1l1,3.31-1.26.84-.72-3.47C109.4,133.56,109.74,133.33,110.08,133.1Z"/><path class="cls-2" d="M112.22,131.61l1.18,3.16-1.26.89-.94-3.32Z"/><path class="cls-2" d="M126.05,119.18l2.64,1.81c-.35.39-.7.78-1.06,1.16l-2.45-2Z"/><path class="cls-2" d="M124.23,121.13l2.45,2c-.36.38-.72.76-1.1,1.13l-2.25-2.23C123.63,121.75,123.93,121.45,124.23,121.13Z"/><path class="cls-2" d="M122.35,123l2.25,2.23-1.13,1.1-2-2.43Z"/><path class="cls-2" d="M78,79.17l2.26,2.23-.9.92-2.45-2C77.24,79.91,77.6,79.54,78,79.17Z"/><path class="cls-2" d="M75.93,81.31l2.45,2-.87,1-2.65-1.81C75.22,82.08,75.57,81.69,75.93,81.31Z"/><path class="cls-2" d="M84.48,73.13l1.62,2.81-1,.84-1.84-2.63Z"/><path class="cls-2" d="M74,83.5l2.64,1.81-.83,1-2.83-1.6C73.26,84.29,73.6,83.89,74,83.5Z"/><path class="cls-2" d="M70.23,88l3,1.37-.77,1-3.18-1.15Z"/><path class="cls-2" d="M93.8,66.2l.71,3.48-1,.68-1-3.32Z"/><path class="cls-2" d="M65.3,95.11l3.49.69-.64,1-3.63-.46C64.77,96,65,95.53,65.3,95.11Z"/><path class="cls-2" d="M101,62l0,3.87-1.06.55-.25-3.75Z"/><path class="cls-2" d="M62.5,99.92l3.77.23-.54,1h-3.9Z"/><path class="cls-2" d="M61.27,102.34h3.89c-.17.35-.34.7-.5,1l-4,.24C60.86,103.2,61.06,102.77,61.27,102.34Z"/><path class="cls-2" d="M105.88,59.76l-.45,4.08-1.05.45.22-4Z"/><path class="cls-2" d="M60.14,104.76l4-.24-.45,1-4.1.47Z"/><path class="cls-2" d="M108.29,58.8,107.61,63l-1,.4L107,59.3Z"/><path class="cls-2" d="M113.05,57.25l-1.14,4.32c-.35.09-.69.19-1,.3l.92-4.25Z"/><path class="cls-2" d="M57.48,111.94l4.27-.94c-.11.34-.21.69-.3,1l-4.33,1.16C57.23,112.77,57.35,112.35,57.48,111.94Z"/><path class="cls-2" d="M114.15,57l1.24-.31L114,61l-1,.24Z"/><path class="cls-2" d="M60.68,115.21c-.06.33-.13.66-.18,1l-4.43,1.6c.07-.4.14-.8.23-1.21Z"/><path class="cls-2" d="M60.07,119.26c0,.32,0,.64-.08.95l-4.48,2c0-.39.06-.77.1-1.16Z"/><path class="cls-2" d="M125.29,55.51l1.11,0L124,60c-.3,0-.6,0-.91,0Z"/><path class="cls-2" d="M127.35,55.6l1.07.1-2.62,4.45-.88-.08Z"/><path class="cls-2" d="M129.34,55.82l1,.17-2.81,4.42-.83-.14Z"/><path class="cls-2" d="M60.23,126.76c0,.28.09.56.14.83l-4.43,2.82c-.06-.34-.12-.68-.17-1Z"/><path class="cls-2" d="M131.25,56.17l1,.23-3,4.38-.8-.2Z"/><path class="cls-2" d="M133.07,56.64c.32.09.63.19.94.3l-3.16,4.32-.76-.25Z"/><path class="cls-2" d="M138,58.78c.27.16.53.33.79.5l-3.62,4.08-.64-.4Z"/><path class="cls-2" d="M139.48,59.74c.26.18.5.36.74.55l-3.75,4-.6-.45Z"/><path class="cls-2" d="M142.09,62c.21.22.42.45.62.68l-4,3.75c-.16-.19-.33-.38-.5-.55Z"/><path class="cls-2" d="M65.91,138.17l.56.5-3.75,4c-.23-.2-.46-.4-.68-.61Z"/><path class="cls-2" d="M68.36,140.09c.21.14.42.28.64.41l-3.47,4.17-.79-.49Z"/><path class="cls-2" d="M143.23,63.27A20.59,20.59,0,0,1,145.61,67l-4.26,3.33a18.24,18.24,0,0,0-2.1-3.29Z"/><path class="cls-2" d="M146,67.74c.14.29.26.58.38.88L142,71.79l-.3-.73Z"/><path class="cls-2" d="M147.19,71.19l.24,1L143,75c-.06-.27-.12-.54-.19-.8Z"/><path class="cls-2" d="M71.17,141.6a21.92,21.92,0,0,0,5.67,1.59l-2.62,4.45a25.07,25.07,0,0,1-6.37-1.78Z"/><path class="cls-2" d="M147.92,75c0,.35.07.7.1,1.06l-4.47,2.44-.09-.87Z"/><path class="cls-2" d="M77.77,143.31l.87.08-2.43,4.47-1.06-.1Z"/><path class="cls-2" d="M79.59,143.45l.91,0L78.27,148l-1.11,0Z"/><path class="cls-2" d="M148.13,79.07a43.62,43.62,0,0,1-1.53,10.65q-.57,2.09-1.29,4.17l-4.19.71q.65-1.86,1.14-3.72a38.83,38.83,0,0,0,1.38-9.57Z"/><path class="cls-15" d="M138.9,100.06l4-.24c-.19.44-.4.86-.61,1.29H138.4C138.57,100.77,138.74,100.42,138.9,100.06Z"/><path class="cls-2" d="M103.57,137l.25,3.74-1.29.68,0-3.87Z"/><path class="cls-2" d="M105.75,135.81l.49,3.61-1.29.74-.25-3.75Z"/><path class="cls-2" d="M114.33,130l1.4,3-1.24.93-1.18-3.15Z"/><path class="cls-3" d="M22.6,113.16A35.19,35.19,0,0,0,25,126.06l-.25.19a35.52,35.52,0,0,1-2.37-13Z"/><path class="cls-3" d="M32.92,136.83c5.7,4.48,13.49,6.59,22.53,6.1l-.12.26c-9.08.5-16.9-1.62-22.63-6.13Z"/><path class="cls-3" d="M63.7,42.71l.08.17A122.4,122.4,0,0,0,31.7,80.71h-.22A122.94,122.94,0,0,1,63.7,42.71Z"/><path class="cls-3" d="M84,130.12l0,1a78.7,78.7,0,0,1-15.54,6.1A57.26,57.26,0,0,1,58.69,139l.49-1.12a55.77,55.77,0,0,0,9.62-1.73A76.89,76.89,0,0,0,84,130.12Z"/><path class="cls-3" d="M97.3,28.54c30.08-8.06,48.09,9.75,40.15,39.7-2.74,10.36-8.24,20.84-15.5,30.44l-.77-.31c7.11-9.42,12.5-19.68,15.19-29.84,7.78-29.35-9.88-46.81-39.36-38.91A87,87,0,0,0,69.71,43l-.26-.8A88.41,88.41,0,0,1,97.3,28.54Z"/><path class="cls-2" d="M95.38,97l.24.27c-.83.82-1.69,1.62-2.55,2.4l-.22-.29C93.7,98.55,94.54,97.76,95.38,97Z"/><path class="cls-2" d="M58.21,38.49l.14.35-.3.24-.15-.36A3.55,3.55,0,0,1,58.21,38.49Z"/><path class="cls-2" d="M70.77,30.51V31l-.32.16,0-.44Z"/><path class="cls-2" d="M68.22,31.9l0,.42-.32.18,0-.42Z"/><path class="cls-2" d="M63.16,35l.1.39-.32.21-.1-.39Z"/><path class="cls-2" d="M75.87,28.1l0,.46-.32.14,0-.46Z"/><path class="cls-2" d="M73.32,29.25v.45l-.32.15V29.4Z"/><path class="cls-2" d="M83.43,25.38l-.13.5L83,26l.12-.49Z"/><path class="cls-2" d="M85.57,24.81l.32-.08-.15.5-.31.08Z"/><path class="cls-2" d="M78.41,27.06l-.07.48-.32.13.06-.48Z"/><path class="cls-2" d="M31.89,68.09l.42,0-.18.32-.43,0Z"/><path class="cls-2" d="M29.22,73.18l.45,0a3.13,3.13,0,0,1-.15.32l-.46,0C29.11,73.39,29.17,73.29,29.22,73.18Z"/><path class="cls-2" d="M33.38,65.56l.42.07-.2.32-.41-.06Z"/><path class="cls-2" d="M53.4,42.35l.2.32-.3.25-.2-.31Z"/><path class="cls-2" d="M40.41,55.69l.33.18-.24.3L40.16,56Z"/><path class="cls-2" d="M88,24.26l.3-.05-.17.51-.3.05Z"/><path class="cls-2" d="M120.63,44.31l0,.27-.52.29c0-.09,0-.18,0-.27Z"/><path class="cls-2" d="M120.35,42.26c0,.08,0,.17,0,.26l-.51.31a2.17,2.17,0,0,1,0-.25Z"/><path class="cls-2" d="M119.38,38.41c0,.08.05.15.07.23L119,39l-.08-.23Z"/><path class="cls-2" d="M119.93,40.29c0,.08,0,.16.06.25l-.51.33-.06-.24Z"/><path class="cls-2" d="M120.44,53.22l0,.3-.52.19c0-.09,0-.19,0-.29Z"/><path class="cls-2" d="M120.81,48.64a2.62,2.62,0,0,0,0,.28l-.52.24c0-.09,0-.18,0-.27Z"/><path class="cls-2" d="M120.79,46.44c0,.09,0,.18,0,.27l-.52.27a2.44,2.44,0,0,0,0-.27Z"/><path class="cls-2" d="M114.72,30.48l.15.17-.45.44-.16-.17Z"/><path class="cls-2" d="M99.39,23.55l.27,0-.3.51-.26,0Z"/><path class="cls-2" d="M97.24,23.42h.28l-.28.52H97Z"/><path class="cls-2" d="M101.46,23.8l.26,0-.31.51-.26,0Z"/><path class="cls-2" d="M95,23.43h.29l-.25.52h-.28Z"/><path class="cls-2" d="M90.4,23.85l.3,0-.2.52-.29,0Z"/><path class="cls-2" d="M28.06,75.72l.47,0-.14.32-.47,0C28,75.93,28,75.83,28.06,75.72Z"/><path class="cls-2" d="M112,28.08l.19.14-.43.46-.18-.14Z"/><path class="cls-2" d="M110.51,27.05l.2.12-.42.48-.19-.12Z"/><path class="cls-2" d="M86.09,105l.15.35-.3.24-.15-.36Z"/><path class="cls-2" d="M83.66,106.75l.13.37-.32.23-.12-.38Z"/><path class="cls-2" d="M88.49,103.08l.17.33-.3.25-.17-.34Z"/><path class="cls-2" d="M81.2,108.45l.1.39-.32.21-.1-.4Z"/><path class="cls-2" d="M73.68,112.91l0,.44-.33.17v-.44Z"/><path class="cls-2" d="M68.63,115.33l0,.47-.33.14,0-.47Z"/><path class="cls-2" d="M66.12,116.37l-.06.47-.33.13.07-.48Z"/><path class="cls-2" d="M78.71,110l.07.41-.32.2-.07-.41Z"/><path class="cls-2" d="M71.16,114.18l0,.45-.32.16v-.45Z"/><path class="cls-2" d="M63.62,117.28l-.09.48-.32.12.1-.49Z"/><path class="cls-2" d="M27,78.25l.47-.07-.12.32-.48.07C26.94,78.47,27,78.36,27,78.25Z"/><path class="cls-2" d="M114.62,70.55l.46,0c0,.11-.11.22-.16.32l-.45,0Z"/><path class="cls-2" d="M115.75,68l.47,0-.14.32-.47,0C115.66,68.25,115.7,68.14,115.75,68Z"/><path class="cls-2" d="M101.69,90.22l.32.19-.26.3-.31-.2Z"/><path class="cls-2" d="M116.76,65.53l.48-.07a3.05,3.05,0,0,1-.13.32l-.47.07Z"/><path class="cls-2" d="M109,80.57l.4.1-.21.31-.39-.09Z"/><path class="cls-2" d="M113.37,73.07h.44c0,.11-.11.21-.16.32h-.45C113.26,73.28,113.31,73.17,113.37,73.07Z"/><path class="cls-2" d="M110.54,78.08l.41.07-.19.32-.42-.07C110.41,78.3,110.47,78.19,110.54,78.08Z"/><path class="cls-2" d="M112,75.58l.43,0-.18.32-.43,0Z"/><path class="cls-2" d="M76.2,111.53l0,.43-.32.18,0-.43Z"/><path class="cls-2" d="M24.26,101.2a2.34,2.34,0,0,1,0,.26l-.51.31c0-.08,0-.17,0-.25Z"/><path class="cls-2" d="M24.66,103.16l.06.24-.51.34-.06-.25Z"/><path class="cls-2" d="M24,99.16a2.45,2.45,0,0,0,0,.27l-.52.29a2.28,2.28,0,0,0,0-.26Z"/><path class="cls-2" d="M61.15,118.07l-.12.49-.31.09.12-.49Z"/><path class="cls-2" d="M24,92.62l0,.29-.51.22c0-.09,0-.19,0-.29Z"/><path class="cls-2" d="M51.33,120l.29,0-.22.51-.29,0Z"/><path class="cls-2" d="M53.64,119.71l.29,0-.19.51-.3,0Z"/><path class="cls-2" d="M58.4,118.81l.3-.08-.14.5-.31.08Z"/><path class="cls-11" d="M29.72,112.94a1.29,1.29,0,0,0,.16.17l-.46.44-.15-.17Z"/><path class="cls-14" d="M25.85,106.82l.09.21-.49.38-.1-.22Z"/><path class="cls-15" d="M27.55,110.09c0,.06.08.12.12.19l-.48.41-.13-.2Z"/><path class="cls-12" d="M28.57,111.57l.14.18-.46.43c-.05-.06-.09-.13-.15-.19Z"/><path class="cls-13" d="M26.63,108.5l.12.21-.49.39a2.12,2.12,0,0,1-.11-.21Z"/><path class="cls-10" d="M31,114.21l.16.15-.43.45-.18-.15Z"/><path class="cls-2" d="M51.07,44.41l.23.29L51,45l-.22-.3Z"/><path class="cls-2" d="M55.78,40.38l.18.33-.31.25-.17-.34Z"/><path class="cls-2" d="M65.68,33.39l.07.41-.32.2-.07-.41Z"/><path class="cls-2" d="M30.5,70.63l.44,0c-.06.1-.11.21-.17.32h-.44C30.38,70.85,30.44,70.74,30.5,70.63Z"/><path class="cls-2" d="M25.33,83.26l.49-.12c0,.1-.06.2-.08.31l-.5.12A2.8,2.8,0,0,1,25.33,83.26Z"/><path class="cls-2" d="M25.17,85.57c0,.1-.05.2-.07.31l-.5.14c0-.1,0-.2.07-.31Z"/><path class="cls-2" d="M92.74,23.57l.29,0-.22.52-.29,0Z"/><path class="cls-2" d="M108.89,26.15l.21.1-.39.49-.21-.11Z"/><path class="cls-2" d="M113.43,29.22l.17.15-.44.46-.17-.15Z"/><path class="cls-2" d="M115.89,31.86a19.5,19.5,0,0,1,1.18,1.68l-.48.41a19.65,19.65,0,0,0-1.16-1.66Z"/><path class="cls-2" d="M117.88,34.93l.11.21-.49.39-.11-.2Z"/><path class="cls-8" d="M33.84,116.38a18.58,18.58,0,0,0,1.8,1l-.39.49c-.63-.32-1.24-.66-1.82-1Z"/><path class="cls-2" d="M118.69,36.62a1.47,1.47,0,0,0,.1.22l-.5.38a1.47,1.47,0,0,0-.1-.22Z"/><path class="cls-9" d="M37.12,118.08c.65.27,1.32.52,2,.74l-.35.5c-.7-.22-1.38-.47-2-.74Z"/><path class="cls-3" d="M40.77,119.28a31.41,31.41,0,0,0,8.59.81l-.24.51a31.76,31.76,0,0,1-8.69-.81Z"/><path class="cls-2" d="M120.69,50.9c0,.1,0,.19,0,.29l-.52.22,0-.29Z"/><path class="cls-2" d="M120.06,55.59l-.06.3-.51.18.06-.3Z"/><path class="cls-2" d="M90.84,101.11l.2.32-.3.25-.2-.31Z"/><path class="cls-2" d="M99.66,92.52l.29.22c-.78.86-1.59,1.72-2.4,2.56l-.27-.25C98.09,94.22,98.88,93.38,99.66,92.52Z"/><path class="cls-2" d="M48.8,46.54l.25.27c-.83.81-1.65,1.62-2.46,2.46L46.32,49C47.13,48.18,48,47.35,48.8,46.54Z"/><path class="cls-2" d="M44.45,51l.3.22-.27.3-.29-.23Z"/><path class="cls-2" d="M42.39,53.32l.31.2-.25.3-.31-.2Z"/><path class="cls-2" d="M38.51,58.11l.36.15-.24.3-.36-.14Z"/><path class="cls-2" d="M60.67,36.69l.12.37-.31.23-.13-.38Z"/><path class="cls-2" d="M36.7,60.56l.38.12-.22.32-.38-.12Z"/><path class="cls-2" d="M35,63.05l.4.09-.21.32-.4-.09Z"/><path class="cls-2" d="M80.93,26.16l-.09.49-.32.11.09-.49Z"/><path class="cls-2" d="M26.11,80.76l.49-.09c0,.11-.07.21-.1.32l-.49.09C26,81,26.08,80.87,26.11,80.76Z"/><path class="cls-2" d="M24.65,88l-.06.3-.51.17.06-.3Z"/><path class="cls-2" d="M24.25,90.32c0,.1,0,.2,0,.3l-.51.19a2.89,2.89,0,0,1,0-.29Z"/><path class="cls-2" d="M23.86,94.87a2.53,2.53,0,0,0,0,.28l-.52.25c0-.1,0-.19,0-.29Z"/><path class="cls-3" d="M103.45,24.19c.74.17,1.45.37,2.15.6l-.36.5c-.69-.22-1.39-.42-2.12-.59Z"/><path class="cls-2" d="M25.19,105c0,.08,0,.16.08.23l-.51.36c0-.07-.05-.15-.07-.23Z"/><path class="cls-2" d="M107.18,25.36l.22.1L107,26l-.22-.09Z"/><path class="cls-7" d="M32.36,115.36l.18.13-.42.47-.19-.14Z"/><path class="cls-2" d="M56,119.32l.3,0-.17.5-.31.06Z"/><path class="cls-2" d="M119.55,58c0,.1,0,.2-.08.31l-.5.14c0-.1,0-.2.07-.3Z"/><path class="cls-2" d="M118.4,60.59l.5-.13c0,.11-.06.21-.09.32l-.5.12A2.12,2.12,0,0,0,118.4,60.59Z"/><path class="cls-2" d="M117.65,63.05l.48-.1c0,.1-.07.21-.11.32l-.48.09C117.57,63.26,117.61,63.15,117.65,63.05Z"/><path class="cls-2" d="M23.86,97.05a2.44,2.44,0,0,0,0,.27l-.52.28c0-.1,0-.19,0-.28Z"/><path class="cls-1" d="M163.71,165.29l.25.27c-.84.81-1.69,1.61-2.56,2.4l-.22-.29C162,166.89,162.88,166.1,163.71,165.29Z"/><path class="cls-1" d="M126.54,106.82l.15.36a3.55,3.55,0,0,0-.31.23l-.15-.35Z"/><path class="cls-1" d="M139.1,98.85l0,.44-.33.17V99Z"/><path class="cls-1" d="M136.55,100.23l0,.43-.32.18,0-.43Z"/><path class="cls-1" d="M131.5,103.32l.09.39a3.53,3.53,0,0,1-.32.21l-.09-.39Z"/><path class="cls-1" d="M144.2,96.43l0,.46-.33.14,0-.46Z"/><path class="cls-1" d="M141.65,97.58V98l-.32.16v-.45Z"/><path class="cls-1" d="M151.76,93.72l-.12.49c-.11,0-.21.07-.32.09l.12-.49Z"/><path class="cls-1" d="M153.91,93.14l.31-.07-.15.5-.3.07Z"/><path class="cls-1" d="M146.74,95.4l-.06.48-.32.12.06-.47Z"/><path class="cls-1" d="M100.22,136.43l.43,0a3.3,3.3,0,0,0-.18.32l-.43,0Z"/><path class="cls-1" d="M97.55,141.51H98l-.15.32-.46,0Z"/><path class="cls-1" d="M101.72,133.9l.41.06-.19.32-.42-.06C101.59,134.11,101.65,134,101.72,133.9Z"/><path class="cls-1" d="M121.74,110.69l.19.31-.29.26-.21-.31Z"/><path class="cls-1" d="M108.74,124l.34.17a3.15,3.15,0,0,0-.24.3l-.34-.17Z"/><path class="cls-1" d="M156.34,92.6l.31-.06-.17.51-.31.06Z"/><path class="cls-1" d="M189,112.65a2.11,2.11,0,0,1,0,.26l-.51.29,0-.26Z"/><path class="cls-1" d="M188.68,110.59a2.34,2.34,0,0,1,0,.26l-.51.31c0-.08,0-.17,0-.25Z"/><path class="cls-1" d="M187.71,106.74a2.25,2.25,0,0,0,.08.24l-.51.35c0-.07-.05-.15-.07-.23Z"/><path class="cls-1" d="M188.26,108.62l.06.25-.51.34-.06-.25Z"/><path class="cls-1" d="M188.78,121.55c0,.1,0,.2,0,.3l-.52.2c0-.1,0-.2,0-.3Z"/><path class="cls-1" d="M189.14,117a2.62,2.62,0,0,1,0,.28l-.51.25v-.28Z"/><path class="cls-1" d="M189.12,114.77v.28l-.51.27c0-.09,0-.18,0-.28Z"/><path class="cls-1" d="M183.05,98.82a1.22,1.22,0,0,1,.15.17l-.45.44-.15-.17Z"/><path class="cls-1" d="M167.72,91.88l.27,0-.29.52-.27,0Z"/><path class="cls-1" d="M165.57,91.75h.28l-.27.52h-.28Z"/><path class="cls-1" d="M169.79,92.14l.27,0-.32.51-.25,0Z"/><path class="cls-1" d="M163.36,91.77h.28l-.25.51h-.28Z"/><path class="cls-1" d="M158.73,92.18l.3,0-.2.52-.29,0Z"/><path class="cls-1" d="M96.4,144.05l.46,0c0,.11-.09.22-.13.32l-.47,0C96.3,144.27,96.35,144.16,96.4,144.05Z"/><path class="cls-1" d="M180.35,96.41l.19.14-.43.46-.18-.13Z"/><path class="cls-1" d="M178.84,95.38l.2.13-.41.47-.2-.12Z"/><path class="cls-1" d="M154.43,173.29l.15.36-.31.23-.15-.35Z"/><path class="cls-1" d="M152,175.08l.12.38-.31.22-.12-.38Z"/><path class="cls-1" d="M156.82,171.41l.18.34-.3.24-.18-.33Z"/><path class="cls-1" d="M149.53,176.78l.1.39-.32.21-.09-.39Z"/><path class="cls-1" d="M142,181.25l0,.44-.32.17,0-.44Z"/><path class="cls-1" d="M137,183.67l0,.46-.32.15,0-.47Z"/><path class="cls-1" d="M134.45,184.7l-.06.48-.32.13.06-.48Z"/><path class="cls-1" d="M147,178.38l.08.41-.33.19-.07-.41Z"/><path class="cls-1" d="M139.49,182.52V183l-.33.15,0-.45Z"/><path class="cls-1" d="M132,185.61l-.1.49-.32.11.1-.49Z"/><path class="cls-1" d="M95.36,146.58l.48-.06a3,3,0,0,0-.12.32l-.49.07C95.28,146.8,95.32,146.69,95.36,146.58Z"/><path class="cls-1" d="M183,138.88h.46l-.15.32h-.46Z"/><path class="cls-1" d="M184.08,136.37l.47,0-.14.32-.46,0C184,136.58,184,136.47,184.08,136.37Z"/><path class="cls-1" d="M170,158.55l.32.2-.26.3-.31-.2Z"/><path class="cls-1" d="M185.09,133.87l.49-.08c-.05.11-.09.22-.13.33l-.48.06Z"/><path class="cls-1" d="M177.3,148.91l.39.09-.21.32-.39-.1Z"/><path class="cls-1" d="M181.71,141.4h.44c-.06.11-.11.22-.17.32h-.44Z"/><path class="cls-1" d="M178.87,146.42l.42.06c-.07.11-.14.22-.2.33l-.41-.07Z"/><path class="cls-1" d="M180.34,143.92l.43,0-.18.32-.43,0C180.22,144.13,180.29,144,180.34,143.92Z"/><path class="cls-1" d="M144.53,179.87l.05.42-.32.18,0-.42Z"/><path class="cls-1" d="M92.6,169.54a2.17,2.17,0,0,0,0,.25l-.52.32a2.34,2.34,0,0,0,0-.26Z"/><path class="cls-1" d="M93,171.5a2,2,0,0,0,0,.24l-.51.34a1.14,1.14,0,0,0-.06-.25Z"/><path class="cls-1" d="M92.33,167.5l0,.26-.52.3,0-.27Z"/><path class="cls-1" d="M129.49,186.4l-.13.5-.31.09.12-.5Z"/><path class="cls-1" d="M92.32,161c0,.09,0,.19,0,.29l-.52.22a2.85,2.85,0,0,1,0-.29Z"/><path class="cls-1" d="M119.66,188.31l.29,0-.22.52-.29,0Z"/><path class="cls-1" d="M122,188.05l.3,0-.2.51-.3,0Z"/><path class="cls-1" d="M126.73,187.14l.31-.08-.14.5-.31.08Z"/><path class="cls-16" d="M98.06,181.28l.15.16-.46.45-.15-.17Z"/><path class="cls-17" d="M94.18,175.15l.1.22-.5.37-.09-.22Z"/><path class="cls-18" d="M95.88,178.42l.12.19-.47.41a2.14,2.14,0,0,1-.13-.19Z"/><path class="cls-19" d="M96.91,179.9l.14.18-.47.43-.14-.18Z"/><path class="cls-20" d="M95,176.83l.11.21-.49.39c0-.06-.07-.13-.11-.2Z"/><path class="cls-21" d="M99.32,182.54l.17.15-.44.46-.18-.16Z"/><path class="cls-1" d="M119.41,112.74l.22.3-.29.26-.23-.29Z"/><path class="cls-1" d="M124.11,108.71l.18.34-.3.24-.18-.33Z"/><path class="cls-1" d="M134,101.72l.07.41-.32.2-.08-.41Z"/><path class="cls-1" d="M98.83,139h.44l-.17.32h-.44Z"/><path class="cls-1" d="M93.66,151.59l.5-.12-.09.31-.5.13Z"/><path class="cls-1" d="M93.51,153.9c0,.1-.05.21-.08.31l-.5.15c0-.1,0-.21.07-.31Z"/><path class="cls-1" d="M161.07,91.91l.3,0-.23.52-.28,0Z"/><path class="cls-1" d="M177.23,94.48l.21.11-.4.48-.2-.1Z"/><path class="cls-1" d="M181.76,97.56l.17.15-.44.45-.17-.15Z"/><path class="cls-1" d="M184.23,100.19c.42.54.81,1.1,1.18,1.68l-.48.41c-.37-.57-.75-1.13-1.17-1.66Z"/><path class="cls-1" d="M186.21,103.27a1.06,1.06,0,0,1,.11.21l-.48.39-.11-.21Z"/><path class="cls-22" d="M102.18,184.72c.57.36,1.17.7,1.79,1l-.39.49c-.63-.32-1.23-.66-1.82-1Z"/><path class="cls-1" d="M187,105a1.47,1.47,0,0,1,.1.22l-.5.37-.09-.22Z"/><path class="cls-23" d="M105.45,186.42c.65.27,1.32.51,2,.73l-.35.51q-1-.33-2-.75Z"/><path class="cls-1" d="M109.1,187.61a31.45,31.45,0,0,0,8.59.81l-.24.52a31.68,31.68,0,0,1-8.68-.82Z"/><path class="cls-1" d="M189,119.23l0,.29-.51.22c0-.09,0-.19,0-.28Z"/><path class="cls-1" d="M188.39,123.93c0,.1,0,.2,0,.3l-.51.17c0-.1,0-.2,0-.3Z"/><path class="cls-1" d="M159.17,169.44l.2.32-.3.26-.19-.32Z"/><path class="cls-1" d="M168,160.85l.3.23c-.79.86-1.59,1.71-2.41,2.55l-.27-.25C166.42,162.55,167.21,161.71,168,160.85Z"/><path class="cls-1" d="M117.14,114.87l.25.27c-.84.81-1.66,1.63-2.47,2.46l-.27-.24Q115.86,116.1,117.14,114.87Z"/><path class="cls-1" d="M112.79,119.34l.29.22c-.09.09-.17.19-.26.29l-.3-.22Z"/><path class="cls-1" d="M110.72,121.65l.32.2-.26.3-.31-.19A3.76,3.76,0,0,0,110.72,121.65Z"/><path class="cls-1" d="M106.85,126.44l.35.15-.24.31-.35-.15Z"/><path class="cls-1" d="M129,105l.12.38-.31.22-.12-.37Z"/><path class="cls-1" d="M105,128.9l.37.12-.22.31-.38-.12Z"/><path class="cls-1" d="M103.32,131.39l.4.09-.21.32-.4-.1C103.19,131.6,103.25,131.49,103.32,131.39Z"/><path class="cls-1" d="M149.26,94.5l-.09.48-.32.11.09-.49Z"/><path class="cls-1" d="M94.45,149.1l.49-.1c0,.11-.08.22-.11.32l-.49.1C94.38,149.31,94.41,149.2,94.45,149.1Z"/><path class="cls-1" d="M93,156.3l-.06.3-.5.17c0-.1,0-.2,0-.3Z"/><path class="cls-1" d="M92.59,158.65c0,.1,0,.2,0,.3l-.52.2c0-.1,0-.2,0-.3Z"/><path class="cls-1" d="M92.19,163.2a2.53,2.53,0,0,1,0,.28l-.51.25v-.28Z"/><path class="cls-1" d="M171.79,92.53c.73.17,1.45.37,2.14.59l-.36.51c-.68-.23-1.39-.43-2.11-.6Z"/><path class="cls-1" d="M93.52,173.37a2.09,2.09,0,0,1,.08.23l-.5.36-.08-.24Z"/><path class="cls-1" d="M175.51,93.7l.22.09-.38.5-.21-.1Z"/><path class="cls-24" d="M100.69,183.69l.18.13-.42.47-.19-.13Z"/><path class="cls-1" d="M124.33,187.66l.3-.06-.17.51-.3,0Z"/><path class="cls-1" d="M187.88,126.34c0,.11,0,.21-.07.31l-.51.15c0-.1,0-.21.08-.31Z"/><path class="cls-1" d="M186.74,128.92l.5-.12-.09.31-.5.12Z"/><path class="cls-1" d="M186,131.38l.49-.1-.11.32-.49.09C185.91,131.59,185.94,131.48,186,131.38Z"/><path class="cls-1" d="M92.19,165.39a2.44,2.44,0,0,1,0,.27l-.51.27a2.53,2.53,0,0,1,0-.28Z"/></g></g></svg>