<svg xmlns="http://www.w3.org/2000/svg" xmlns:xlink="http://www.w3.org/1999/xlink" viewBox="0 0 269.73 181.51"><defs><style>.cls-1{mask:url(#mask);}.cls-10,.cls-2,.cls-4,.cls-6,.cls-8{mix-blend-mode:multiply;}.cls-2{fill:url(#radial-gradient);}.cls-3{mask:url(#mask-2);}.cls-4{fill:url(#radial-gradient-2);}.cls-5{mask:url(#mask-3);}.cls-6{fill:url(#radial-gradient-3);}.cls-7{mask:url(#mask-5);}.cls-8{fill:url(#radial-gradient-5);}.cls-9{mask:url(#mask-8);}.cls-10{fill:url(#radial-gradient-8);}.cls-11{isolation:isolate;}.cls-12,.cls-14{mix-blend-mode:overlay;}.cls-13,.cls-14,.cls-15,.cls-16,.cls-17,.cls-18{fill:#ffec9d;}.cls-15{opacity:0.5;}.cls-16{opacity:0.4;}.cls-17{opacity:0.3;}.cls-18{opacity:0.2;}.cls-19{mask:url(#mask-11);}.cls-20,.cls-22,.cls-24,.cls-26,.cls-28{opacity:0.9;mix-blend-mode:color-dodge;}.cls-20{fill:url(#radial-gradient-11);}.cls-21{mask:url(#mask-13);}.cls-22{fill:url(#radial-gradient-12);}.cls-23{mask:url(#mask-15);}.cls-24{fill:url(#radial-gradient-13);}.cls-25{mask:url(#mask-17);}.cls-26{fill:url(#radial-gradient-14);}.cls-27{mask:url(#mask-19);}.cls-28{fill:url(#radial-gradient-15);}.cls-29{filter:url(#luminosity-noclip-8);}.cls-30{filter:url(#luminosity-noclip-5);}.cls-31{filter:url(#luminosity-noclip-3);}.cls-32{filter:url(#luminosity-noclip-2);}.cls-33{filter:url(#luminosity-noclip);}</style><filter id="luminosity-noclip" x="110.54" y="-7780.3" width="20.09" height="32766" filterUnits="userSpaceOnUse" color-interpolation-filters="sRGB"><feFlood flood-color="#fff" result="bg"/><feBlend in="SourceGraphic" in2="bg"/></filter><mask id="mask" x="110.54" y="-7780.3" width="20.09" height="32766" maskUnits="userSpaceOnUse"><g class="cls-33"/></mask><radialGradient id="radial-gradient" cx="120.58" cy="21.37" r="10.04" gradientTransform="translate(136.34 -100.07) rotate(87.35)" gradientUnits="userSpaceOnUse"><stop offset="0" stop-color="#fff"/><stop offset="0.02" stop-color="#f4f4f4"/><stop offset="0.14" stop-color="#bcbcbc"/><stop offset="0.25" stop-color="#8a8a8a"/><stop offset="0.37" stop-color="#5f5f5f"/><stop offset="0.49" stop-color="#3d3d3d"/><stop offset="0.61" stop-color="#222"/><stop offset="0.74" stop-color="#0f0f0f"/><stop offset="0.87" stop-color="#040404"/><stop offset="1"/></radialGradient><filter id="luminosity-noclip-2" x="107.79" y="-7780.3" width="20.09" height="32766" filterUnits="userSpaceOnUse" color-interpolation-filters="sRGB"><feFlood flood-color="#fff" result="bg"/><feBlend in="SourceGraphic" in2="bg"/></filter><mask id="mask-2" x="107.79" y="-7780.3" width="20.09" height="32766" maskUnits="userSpaceOnUse"><g class="cls-32"/></mask><radialGradient id="radial-gradient-2" cx="117.83" cy="69.76" r="10.04" gradientTransform="translate(182.07 -51.17) rotate(87.35)" xlink:href="#radial-gradient"/><filter id="luminosity-noclip-3" x="174.03" y="-7780.3" width="20.09" height="32766" filterUnits="userSpaceOnUse" color-interpolation-filters="sRGB"><feFlood flood-color="#fff" result="bg"/><feBlend in="SourceGraphic" in2="bg"/></filter><mask id="mask-3" x="174.03" y="-7780.3" width="20.09" height="32766" maskUnits="userSpaceOnUse"><g class="cls-31"/></mask><radialGradient id="radial-gradient-3" cx="184.07" cy="120.9" r="10.04" gradientTransform="translate(296.51 -68.46) rotate(87.4)" xlink:href="#radial-gradient"/><filter id="luminosity-noclip-5" x="196" y="-7780.3" width="20.09" height="32766" filterUnits="userSpaceOnUse" color-interpolation-filters="sRGB"><feFlood flood-color="#fff" result="bg"/><feBlend in="SourceGraphic" in2="bg"/></filter><mask id="mask-5" x="196" y="-7780.3" width="20.09" height="32766" maskUnits="userSpaceOnUse"><g class="cls-30"/></mask><radialGradient id="radial-gradient-5" cx="206.04" cy="157.97" r="10.04" gradientTransform="translate(354.51 -55.02) rotate(87.4)" xlink:href="#radial-gradient"/><filter id="luminosity-noclip-8" x="180.89" y="-7780.3" width="20.09" height="32766" filterUnits="userSpaceOnUse" color-interpolation-filters="sRGB"><feFlood flood-color="#fff" result="bg"/><feBlend in="SourceGraphic" in2="bg"/></filter><mask id="mask-8" x="180.89" y="-7780.3" width="20.09" height="32766" maskUnits="userSpaceOnUse"><g class="cls-29"/></mask><radialGradient id="radial-gradient-8" cx="190.94" cy="10.04" r="10.04" gradientTransform="translate(192.32 -181.15) rotate(87.4)" xlink:href="#radial-gradient"/><mask id="mask-11" x="110.54" y="11.33" width="20.09" height="20.09" maskUnits="userSpaceOnUse"><g class="cls-1"><circle class="cls-2" cx="120.58" cy="21.37" r="10.04" transform="translate(93.65 140.83) rotate(-87.35)"/></g></mask><filter id="luminosity-noclip-11" x="110.54" y="11.33" width="20.09" height="20.09" filterUnits="userSpaceOnUse" color-interpolation-filters="sRGB"><feFlood flood-color="#fff" result="bg"/><feBlend in="SourceGraphic" in2="bg"/></filter><radialGradient id="radial-gradient-11" cx="120.58" cy="21.37" r="10.04" gradientTransform="translate(136.34 -100.07) rotate(87.35)" gradientUnits="userSpaceOnUse"><stop offset="0" stop-color="#fff"/><stop offset="0.02" stop-color="#fef4f9"/><stop offset="0.14" stop-color="#f9bcd7"/><stop offset="0.25" stop-color="#f58ab9"/><stop offset="0.37" stop-color="#f15fa0"/><stop offset="0.49" stop-color="#ee3d8c"/><stop offset="0.61" stop-color="#ec227c"/><stop offset="0.74" stop-color="#ea0f71"/><stop offset="0.87" stop-color="#e9046a"/><stop offset="1" stop-color="#e90068"/></radialGradient><mask id="mask-13" x="180.89" y="0" width="20.09" height="20.09" maskUnits="userSpaceOnUse"><g class="cls-9"><circle class="cls-10" cx="190.94" cy="10.04" r="10.04" transform="translate(172.25 200.33) rotate(-87.4)"/></g></mask><filter id="luminosity-noclip-12" x="180.89" y="0" width="20.09" height="20.09" filterUnits="userSpaceOnUse" color-interpolation-filters="sRGB"><feFlood flood-color="#fff" result="bg"/><feBlend in="SourceGraphic" in2="bg"/></filter><radialGradient id="radial-gradient-12" cx="190.94" cy="10.04" r="10.04" gradientTransform="translate(192.32 -181.15) rotate(87.4)" xlink:href="#radial-gradient-11"/><mask id="mask-15" x="107.79" y="59.72" width="20.09" height="20.09" maskUnits="userSpaceOnUse"><g class="cls-3"><circle class="cls-4" cx="117.83" cy="69.76" r="10.04" transform="translate(42.69 184.24) rotate(-87.35)"/></g></mask><filter id="luminosity-noclip-13" x="107.79" y="59.72" width="20.09" height="20.09" filterUnits="userSpaceOnUse" color-interpolation-filters="sRGB"><feFlood flood-color="#fff" result="bg"/><feBlend in="SourceGraphic" in2="bg"/></filter><radialGradient id="radial-gradient-13" cx="117.83" cy="69.76" r="10.04" gradientTransform="translate(182.07 -51.17) rotate(87.35)" xlink:href="#radial-gradient-11"/><mask id="mask-17" x="174.03" y="110.86" width="20.09" height="20.09" maskUnits="userSpaceOnUse"><g class="cls-5"><circle class="cls-6" cx="184.07" cy="120.9" r="10.04" transform="translate(54.96 299.31) rotate(-87.4)"/></g></mask><filter id="luminosity-noclip-14" x="174.03" y="110.86" width="20.09" height="20.09" filterUnits="userSpaceOnUse" color-interpolation-filters="sRGB"><feFlood flood-color="#fff" result="bg"/><feBlend in="SourceGraphic" in2="bg"/></filter><radialGradient id="radial-gradient-14" cx="184.07" cy="120.9" r="10.04" gradientTransform="translate(296.51 -68.46) rotate(87.4)" xlink:href="#radial-gradient-11"/><mask id="mask-19" x="196" y="147.92" width="20.09" height="20.09" maskUnits="userSpaceOnUse"><g class="cls-7"><circle class="cls-8" cx="206.04" cy="157.97" r="10.04" transform="translate(38.9 356.64) rotate(-87.4)"/></g></mask><filter id="luminosity-noclip-15" x="196" y="147.92" width="20.09" height="20.09" filterUnits="userSpaceOnUse" color-interpolation-filters="sRGB"><feFlood flood-color="#fff" result="bg"/><feBlend in="SourceGraphic" in2="bg"/></filter><radialGradient id="radial-gradient-15" cx="206.04" cy="157.97" r="10.04" gradientTransform="translate(354.51 -55.02) rotate(87.4)" xlink:href="#radial-gradient-11"/></defs><title>资源 13</title><g class="cls-11"><g id="图层_2" data-name="图层 2"><g id="图层_1-2" data-name="图层 1"><g class="cls-12"><polygon class="cls-13" points="74.57 83.46 76.63 83.46 76.63 73.78 82.02 68.48 80.56 67.01 74.57 72.92 74.57 83.46"/><polygon class="cls-13" points="87.87 107.83 107.81 107.83 122.62 92.82 122.62 72.88 107.77 59.78 87.91 59.78 82.37 65.31 83.82 66.77 88.76 61.84 106.99 61.84 120.56 73.81 120.56 91.97 106.95 105.77 88.8 105.77 76.63 92.01 76.63 86.89 74.57 86.89 74.57 92.78 87.87 107.83"/><path class="cls-13" d="M69.77,94.67v-24L85.71,55h24l18.11,15.66V94.73l-18,18.25H85.64Zm54.91-1.21V72.06l-16.17-14H87L72.86,72V93.52l14.19,16.37h21.39Z"/><path class="cls-13" d="M79.64,67a2.69,2.69,0,1,1,2.69,2.69A2.69,2.69,0,0,1,79.64,67Zm1.71,0a1,1,0,1,0,1-1A1,1,0,0,0,81.35,67Z"/><path class="cls-13" d="M72.77,85.18a2.69,2.69,0,1,1,2.69,2.69A2.7,2.7,0,0,1,72.77,85.18Zm1.72,0a1,1,0,1,0,1-1A1,1,0,0,0,74.49,85.18Z"/><path class="cls-13" d="M67.63,106.8A3.38,3.38,0,1,1,71,110.18,3.37,3.37,0,0,1,67.63,106.8Zm1.71,0A1.66,1.66,0,1,0,71,105.14,1.66,1.66,0,0,0,69.34,106.8Z"/><path class="cls-13" d="M115.33,113.67a3.38,3.38,0,1,1,3.38,3.37A3.39,3.39,0,0,1,115.33,113.67Zm1.72,0a1.66,1.66,0,1,0,1.66-1.66A1.65,1.65,0,0,0,117.05,113.67Z"/><path class="cls-13" d="M118.08,55.66A3.38,3.38,0,1,1,121.45,59,3.37,3.37,0,0,1,118.08,55.66Zm1.71,0A1.66,1.66,0,1,0,121.45,54,1.66,1.66,0,0,0,119.79,55.66Z"/><path class="cls-13" d="M68.8,95.11l-.06,0V70.19L85.12,54l.07,0h24.87L128.8,70.19V95.07L110.1,114l0,.05H85.18Zm59.66-.18V70.34L109.93,54.29H85.33L69.08,70.34v24.6l16.26,18.73h24.58Z"/><polygon class="cls-13" points="81.53 122.25 113.19 122.25 118.65 116.74 115.73 113.84 111.47 118.13 83.43 118.13 74.04 107.16 70.91 109.83 81.53 122.25"/><polygon class="cls-13" points="121.43 113.93 137.04 98.18 137.04 66.53 124.52 55.83 121.83 58.96 132.92 68.43 132.92 96.49 118.5 111.03 121.43 113.93"/><polygon class="cls-13" points="67.78 106.19 70.9 103.51 64.96 96.58 64.96 68.34 83.33 50.17 111.57 50.17 118.1 55.75 120.78 52.62 113.09 46.05 81.63 46.05 60.84 66.62 60.84 98.1 67.78 106.19"/></g><g class="cls-12"><path class="cls-13" d="M199.11,101.86a1.29,1.29,0,1,1-1.29,1.29A1.29,1.29,0,0,1,199.11,101.86Zm0,.34a.95.95,0,1,0,.94,1A.95.95,0,0,0,199.11,102.2Z"/><path class="cls-13" d="M202.2,101.86a1.29,1.29,0,1,1-1.29,1.29A1.28,1.28,0,0,1,202.2,101.86Zm0,.34a.95.95,0,1,0,0,1.89.95.95,0,0,0,0-1.89Z"/><path class="cls-13" d="M204.94,101.86a1.29,1.29,0,1,1-1.28,1.29A1.29,1.29,0,0,1,204.94,101.86Zm0,.34a.95.95,0,1,0,.95,1A.95.95,0,0,0,204.94,102.2Z"/><path class="cls-13" d="M207.69,101.86a1.29,1.29,0,1,1-1.29,1.29A1.29,1.29,0,0,1,207.69,101.86Zm0,.34a.95.95,0,1,0,.94,1A.95.95,0,0,0,207.69,102.2Z"/><path class="cls-13" d="M210.43,101.86a1.29,1.29,0,1,1-1.28,1.29A1.29,1.29,0,0,1,210.43,101.86Zm0,.34a.95.95,0,1,0,.95,1A.95.95,0,0,0,210.43,102.2Z"/><path class="cls-13" d="M213.18,101.86a1.29,1.29,0,1,1-1.29,1.29A1.29,1.29,0,0,1,213.18,101.86Zm0,.34a.95.95,0,1,0,.94,1A.95.95,0,0,0,213.18,102.2Z"/><path class="cls-13" d="M215.93,101.86a1.29,1.29,0,1,1-1.29,1.29A1.28,1.28,0,0,1,215.93,101.86Zm0,.34a.95.95,0,1,0,0,1.89.95.95,0,0,0,0-1.89Z"/><path class="cls-13" d="M218.67,101.86a1.29,1.29,0,1,1-1.29,1.29A1.29,1.29,0,0,1,218.67,101.86Zm0,.34a.95.95,0,1,0,1,1A.95.95,0,0,0,218.67,102.2Z"/><path class="cls-13" d="M221.42,101.86a1.29,1.29,0,1,1-1.29,1.29A1.28,1.28,0,0,1,221.42,101.86Zm0,.34a.95.95,0,1,0,0,1.89.95.95,0,0,0,0-1.89Z"/><path class="cls-13" d="M224.16,101.86a1.29,1.29,0,1,1-1.28,1.29A1.29,1.29,0,0,1,224.16,101.86Zm0,.34a.95.95,0,1,0,1,1A.95.95,0,0,0,224.16,102.2Z"/><path class="cls-13" d="M226.91,101.86a1.29,1.29,0,1,1-1.29,1.29A1.29,1.29,0,0,1,226.91,101.86Zm0,.34a.95.95,0,1,0,.94,1A.95.95,0,0,0,226.91,102.2Z"/><rect class="cls-13" x="248.47" y="95.41" width="0.34" height="59.3" transform="translate(-15.6 212.45) rotate(-45)"/><rect class="cls-13" x="210.19" y="64.59" width="0.34" height="44.37" transform="translate(0.26 174.17) rotate(-45)"/><rect class="cls-13" x="246.42" y="95.13" width="0.34" height="61.24" transform="translate(-16.69 211.19) rotate(-45)"/><rect class="cls-13" x="208.11" y="66.26" width="0.34" height="42.37" transform="translate(-0.82 172.89) rotate(-45)"/><rect class="cls-13" x="244.31" y="94.74" width="0.34" height="63.3" transform="translate(-17.76 209.89) rotate(-45)"/><rect class="cls-13" x="206.15" y="68.13" width="0.34" height="40.2" transform="translate(-1.95 171.74) rotate(-45)"/><rect class="cls-13" x="242.28" y="94.53" width="0.34" height="65.15" transform="translate(-18.86 208.67) rotate(-45)"/><rect class="cls-13" x="204.14" y="69.92" width="0.34" height="38.08" transform="translate(-3.06 170.52) rotate(-45)"/><rect class="cls-13" x="240.23" y="94.25" width="0.34" height="67.09" transform="translate(-19.95 207.42) rotate(-45)"/><rect class="cls-13" x="202.16" y="71.69" width="0.34" height="36.07" transform="translate(-4.19 169.35) rotate(-45)"/><rect class="cls-13" x="238.12" y="93.86" width="0.34" height="69.16" transform="translate(-21.02 206.12) rotate(-45)"/><rect class="cls-13" x="200.15" y="73.48" width="0.34" height="33.95" transform="translate(-5.29 168.14) rotate(-45)"/><rect class="cls-13" x="236.11" y="93.68" width="0.34" height="70.98" transform="translate(-22.13 204.91) rotate(-45)"/><rect class="cls-13" x="198.14" y="75.24" width="0.34" height="31.91" transform="translate(-6.4 166.94) rotate(-45)"/><rect class="cls-13" x="234.04" y="93.37" width="0.34" height="72.95" transform="translate(-23.21 203.64) rotate(-45)"/><rect class="cls-13" x="196.1" y="77.02" width="0.34" height="29.76" transform="translate(-7.5 165.7) rotate(-45)"/><rect class="cls-13" x="231.98" y="93.08" width="0.34" height="74.89" transform="translate(-24.3 202.39) rotate(-45)"/><rect class="cls-13" x="194.07" y="78.79" width="0.34" height="27.65" transform="translate(-8.6 164.48) rotate(-45)"/><rect class="cls-13" x="229.93" y="92.82" width="0.34" height="76.8" transform="translate(-25.39 201.14) rotate(-45)"/><rect class="cls-13" x="192.07" y="80.63" width="0.34" height="25.48" transform="translate(-9.71 163.28) rotate(-45)"/><rect class="cls-13" x="228.24" y="91.96" width="0.34" height="80.62" transform="translate(-26.63 200.25) rotate(-45)"/><rect class="cls-13" x="189.98" y="82.46" width="0.34" height="23.14" transform="translate(-10.79 162) rotate(-45)"/></g><g class="cls-12"><polygon class="cls-13" points="178.91 84.15 133.19 84.15 133.14 84.1 116.63 67.68 107.45 67.68 88.78 49.01 89.02 48.76 107.59 67.33 116.77 67.33 116.82 67.38 133.33 83.81 178.57 83.81 178.57 72.21 172.04 65.6 172.04 55.59 177.54 50.19 177.54 44.68 177.88 44.68 177.88 50.33 172.39 55.73 172.39 65.46 178.91 72.07 178.91 84.15"/><polygon class="cls-13" points="126.1 85.34 114.39 73.58 114.39 62.6 108.05 56.35 100.93 56.35 91.18 46.6 91.42 46.36 101.07 56.01 108.19 56.01 114.73 62.46 114.73 73.44 126.35 85.1 126.1 85.34"/><polygon class="cls-13" points="176.16 80.37 165.79 80.37 161.76 76.26 149.46 76.26 145.6 80.03 135.66 80.03 135.66 79.69 145.46 79.69 149.32 75.91 161.91 75.91 165.94 80.03 176.16 80.03 176.16 80.37"/></g><g class="cls-12"><path class="cls-13" d="M133.72,20.43a1.59,1.59,0,0,0-1.6,1.6H104.19L98,15.85H63.4l-6.58,6.66a1.56,1.56,0,1,0,.25.25l6.48-6.57H97.84l6.21,6.18h28.11a1.6,1.6,0,1,0,1.56-1.94Z"/><path class="cls-13" d="M135.44,29a1.6,1.6,0,0,0-1.61,1.6H113.31l-6.89,6.86H90.2l-3.71-3.7a1.61,1.61,0,1,0-1.16.5,1.57,1.57,0,0,0,.9-.28l3.83,3.83h16.5L113.45,31h20.42A1.6,1.6,0,1,0,135.44,29Z"/><path class="cls-13" d="M99.06,22.83a1.61,1.61,0,0,0-1.61,1.6H76.39L68,32.67H44.37a1.62,1.62,0,1,0,0,.34H68.12l8.41-8.24h21a1.6,1.6,0,1,0,1.57-1.94Z"/></g><g class="cls-12"><path class="cls-13" d="M201,81.52a1.6,1.6,0,0,0-1.6,1.6,1.58,1.58,0,0,0,.62,1.26l-3.9,3.89H171.43l-6-5.84h-14a1.62,1.62,0,1,0,0,.35h13.9l6,5.83h25l4.06-4a1.73,1.73,0,0,0,.68.15,1.6,1.6,0,0,0,0-3.2Z"/><path class="cls-13" d="M228.79,72.25a1.6,1.6,0,0,0-1.6,1.6H204.58L197,81.4H182.68a1.57,1.57,0,1,0,0,.35h14.49l7.58-7.55h22.51a1.59,1.59,0,0,0,1.56,1.26,1.61,1.61,0,0,0,0-3.21Z"/><path class="cls-13" d="M186.92,74.31a1.6,1.6,0,0,0-1.6,1.6H174.18l-7.07-7.2H142.87a1.6,1.6,0,1,0-1.6,1.6,1.59,1.59,0,0,0,1.56-1.26H167L174,76.26h11.32a1.6,1.6,0,1,0,1.57-2Z"/></g><g class="cls-12"><path class="cls-13" d="M37.28,18.22a1.6,1.6,0,0,1,1.6,1.6,1.75,1.75,0,0,1-.63,1.34l3.9,4H66.84l6-5.84h14A1.61,1.61,0,1,1,90,19.17a1.65,1.65,0,0,1-1.6,1.66,1.6,1.6,0,0,1-1.57-1.2H73l-6,5.83H42l-4-4.12a1.55,1.55,0,0,1-.68.12,1.62,1.62,0,0,1,0-3.24Z"/><path class="cls-13" d="M79.49,22.48a1.52,1.52,0,0,1,1.6,1.61H103.7l7.58,7.55H125.6A1.52,1.52,0,0,1,127.2,30,1.61,1.61,0,1,1,125.64,32h-14.5l-7.58-7.55H81.05a1.6,1.6,0,1,1-1.56-1.95Z"/><path class="cls-13" d="M85.33,31.21a1.54,1.54,0,0,1-1.61-1.63H72.59l-7.07,7.21H41.28a1.54,1.54,0,0,1-1.6,1.63,1.58,1.58,0,0,1-1.6-1.59,1.6,1.6,0,0,1,3.16-.39H65.38l7.06-7.2H83.76a1.61,1.61,0,1,1,1.57,2Z"/></g><g class="cls-12"><circle class="cls-13" cx="112.75" cy="32.24" r="1.12"/><circle class="cls-13" cx="114.81" cy="56.95" r="1.12"/><polygon class="cls-13" points="135.32 86.21 134.98 86.21 134.98 78.21 126.05 69.12 126.05 65.94 120.84 60.81 111.14 60.81 106.08 55.66 101.79 55.66 96.29 50.51 96.53 50.26 101.93 55.32 106.22 55.32 111.28 60.47 120.98 60.47 126.4 65.8 126.4 68.98 135.32 78.07 135.32 86.21"/><polygon class="cls-13" points="138.07 81.06 137.72 81.06 137.72 67.66 128.04 58.07 113.8 58.07 106.76 51.24 107 50.99 113.94 57.72 128.18 57.72 138.07 67.52 138.07 81.06"/><polygon class="cls-13" points="140.26 68.05 130.17 57.88 130.17 53.67 124.22 47.72 124.46 47.48 130.52 53.53 130.52 57.74 140.5 67.81 140.26 68.05"/><polygon class="cls-13" points="126.62 55.61 121.59 50.59 121.59 44.75 116.5 39.65 116.74 39.41 121.94 44.61 121.94 50.44 126.86 55.37 126.62 55.61"/><polygon class="cls-13" points="122.41 55.35 119.19 52.04 119.19 46.12 110.49 37.42 110.73 37.18 119.53 45.98 119.53 51.9 122.66 55.12 122.41 55.35"/><polygon class="cls-13" points="114.86 57.24 108.82 51.2 101.7 51.2 96.67 46.26 96.92 46.02 101.84 50.86 108.97 50.86 115.11 57 114.86 57.24"/><polygon class="cls-13" points="135.89 75.52 129.14 68.78 129.14 65 126.28 62.22 126.52 61.98 129.49 64.86 129.49 68.63 136.13 75.28 135.89 75.52"/><polygon class="cls-13" points="150.04 70.2 137.38 57.54 137.38 49.56 129.11 41.28 129.35 41.04 137.72 49.41 137.72 57.39 150.29 69.96 150.04 70.2"/><polygon class="cls-13" points="133.43 48.7 127.36 42.62 124.68 42.62 124.68 42.28 127.5 42.28 133.67 48.45 133.43 48.7"/><polygon class="cls-13" points="142.19 74.2 141.84 74.2 141.84 66.37 134.29 58.82 134.29 54.02 129.06 48.88 129.3 48.63 134.63 53.88 134.63 58.68 142.19 66.23 142.19 74.2"/><polygon class="cls-13" points="140.47 52.92 140.13 52.92 140.13 44.75 133.53 38.16 118.43 38.16 113.02 32.75 113.27 32.51 118.58 37.82 133.68 37.82 140.47 44.61 140.47 52.92"/><polygon class="cls-13" points="142.19 51.55 141.84 51.55 141.84 47.44 143.9 45.3 143.9 42.61 137.39 36.18 137.63 35.93 144.24 42.46 144.24 45.44 142.19 47.58 142.19 51.55"/><polygon class="cls-13" points="117.44 51.75 110.61 44.84 110.61 41.66 105.51 36.56 105.75 36.32 110.95 41.52 110.95 44.7 117.68 51.51 117.44 51.75"/><polygon class="cls-13" points="98.25 43.99 97.91 43.99 97.91 37.06 102.13 33.01 108.28 33.01 113.39 38.12 113.15 38.37 108.14 33.35 102.27 33.35 98.25 37.2 98.25 43.99"/><polygon class="cls-13" points="102.18 46.62 100.66 45.09 100.66 38.16 101 38.16 101 44.95 102.42 46.37 102.18 46.62"/><circle class="cls-13" cx="135.06" cy="86.47" r="1.12"/><circle class="cls-13" cx="137.81" cy="80.98" r="1.12"/><circle class="cls-13" cx="141.93" cy="74.11" r="1.12"/><circle class="cls-13" cx="140.21" cy="67.93" r="1.12"/><circle class="cls-13" cx="140.21" cy="53.17" r="1.12"/><circle class="cls-13" cx="141.93" cy="50.77" r="1.12"/><circle class="cls-13" cx="126.48" cy="62.1" r="1.12"/><circle class="cls-13" cx="126.48" cy="55.23" r="1.12"/><circle class="cls-13" cx="125.11" cy="48.37" r="1.12"/><circle class="cls-13" cx="128.89" cy="48.37" r="1.12"/><circle class="cls-13" cx="133" cy="48.37" r="1.12"/><circle class="cls-13" cx="128.89" cy="40.82" r="1.12"/><circle class="cls-13" cx="125.11" cy="42.54" r="1.12"/><circle class="cls-13" cx="122.36" cy="55.23" r="1.12"/><circle class="cls-13" cx="117.22" cy="51.46" r="1.12"/><circle class="cls-13" cx="117.22" cy="40.13" r="1.12"/><circle class="cls-13" cx="96.28" cy="50.09" r="1.12"/><circle class="cls-13" cx="96.28" cy="45.97" r="1.12"/><circle class="cls-13" cx="102.46" cy="46.65" r="1.12"/><circle class="cls-13" cx="100.74" cy="38.42" r="1.12"/><circle class="cls-13" cx="105.55" cy="36.36" r="1.12"/><circle class="cls-13" cx="110.7" cy="37.39" r="1.12"/><circle class="cls-13" cx="113.78" cy="38.42" r="1.12"/><circle class="cls-13" cx="137.81" cy="36.36" r="1.12"/><circle class="cls-13" cx="98" cy="42.88" r="1.12"/><circle class="cls-13" cx="136.09" cy="75.48" r="1.12"/><circle class="cls-13" cx="150.16" cy="69.99" r="1.12"/></g><g class="cls-12"><polygon class="cls-13" points="204.49 177.45 185.7 158.63 176.78 158.63 176.73 158.58 135.32 117.25 135.32 104.47 124.99 94.14 125.23 93.9 135.66 104.33 135.66 117.11 176.92 158.28 185.84 158.28 185.89 158.33 204.73 177.21 204.49 177.45"/><polygon class="cls-13" points="256.13 150.05 210.67 150.05 210.62 150 179.56 118.89 166.14 105.43 144.86 105.43 144.81 105.38 133.5 94.16 133.75 93.92 145 105.09 166.28 105.09 166.33 105.14 179.8 118.65 210.81 149.7 256.13 149.7 256.13 150.05"/><polygon class="cls-13" points="256.13 158.97 212.47 158.97 212.42 158.92 202.6 149.02 188.1 149.02 188.05 148.97 164.68 125.68 153.1 125.68 127.05 99.63 127.29 99.39 153.24 125.33 164.82 125.33 164.87 125.39 188.25 148.67 202.75 148.67 202.8 148.72 212.62 158.63 256.13 158.63 256.13 158.97"/><polygon class="cls-13" points="255.79 144.21 193.51 144.21 193.46 144.16 168.2 118.81 160.65 118.81 151.93 110.23 152.17 109.98 160.79 118.47 168.34 118.47 168.39 118.52 193.65 143.87 255.79 143.87 255.79 144.21"/><polygon class="cls-13" points="214.14 170.42 200.63 156.91 181.93 156.91 156.22 131.21 156.46 130.96 182.07 156.57 200.77 156.57 214.38 170.17 214.14 170.42"/><polygon class="cls-13" points="211.48 180.63 207.05 176.2 207.05 171.22 194.57 158.75 194.82 158.5 207.4 171.08 207.4 176.06 211.72 180.38 211.48 180.63"/><polygon class="cls-13" points="228.67 169.95 218.31 169.95 206.59 158.23 206.83 157.99 218.45 169.61 228.67 169.61 228.67 169.95"/><polygon class="cls-13" points="251.33 128.42 208.95 128.42 208.9 128.37 190.85 110.23 181.33 110.23 168.2 97.19 149.05 97.19 149.05 96.85 168.34 96.85 181.47 109.89 190.99 109.89 191.04 109.94 209.1 128.08 251.33 128.08 251.33 128.42"/><polygon class="cls-13" points="237.22 136.35 224.49 123.62 200.29 123.62 176.73 100.06 176.97 99.82 200.43 123.28 224.63 123.28 237.46 136.11 237.22 136.35"/><polygon class="cls-13" points="247.21 126.02 232.29 126.02 232.24 125.97 221.05 114.7 202.69 114.7 202.64 114.65 187.37 99.42 187.61 99.17 202.83 114.35 221.19 114.35 221.25 114.4 232.44 125.68 247.21 125.68 247.21 126.02"/><polygon class="cls-13" points="206.37 105.77 188.45 105.77 170.64 87.96 170.88 87.72 188.59 105.43 206.37 105.43 206.37 105.77"/><circle class="cls-13" cx="170.76" cy="87.84" r="1.34"/><circle class="cls-13" cx="206.45" cy="105.69" r="1.34"/><circle class="cls-13" cx="187.57" cy="99.17" r="1.34"/><circle class="cls-13" cx="176.25" cy="99.17" r="1.34"/><circle class="cls-13" cx="149.14" cy="96.76" r="1.34"/><circle class="cls-13" cx="125.11" cy="94.02" r="1.34"/><circle class="cls-13" cx="133.69" cy="94.02" r="1.34"/><circle class="cls-13" cx="127.17" cy="99.85" r="1.34"/><circle class="cls-13" cx="151.88" cy="109.8" r="1.34"/><circle class="cls-13" cx="204.74" cy="177.42" r="1.34"/><circle class="cls-13" cx="211.26" cy="180.16" r="1.34"/><circle class="cls-13" cx="194.78" cy="158.54" r="1.34"/><circle class="cls-13" cx="214" cy="170.55" r="1.34"/><circle class="cls-13" cx="206.45" cy="157.85" r="1.34"/><circle class="cls-13" cx="228.76" cy="169.87" r="1.34"/><circle class="cls-13" cx="156.34" cy="131.08" r="1.34"/><circle class="cls-13" cx="256.22" cy="158.88" r="1.34"/><circle class="cls-13" cx="256.22" cy="149.96" r="1.34"/><circle class="cls-13" cx="256.22" cy="144.13" r="1.34"/><circle class="cls-13" cx="237.34" cy="136.23" r="1.34"/><circle class="cls-13" cx="251.41" cy="128.34" r="1.34"/><circle class="cls-13" cx="247.29" cy="125.94" r="1.34"/></g><g class="cls-12"><polygon class="cls-13" points="169.3 47.43 170.67 46.05 170.67 41.59 169.3 42.96 169.3 47.43"/><polygon class="cls-13" points="167.24 49.48 168.61 48.11 168.61 43.65 167.24 45.02 167.24 49.48"/><polygon class="cls-13" points="165.18 51.55 166.55 50.17 166.55 45.71 165.18 47.08 165.18 51.55"/><polygon class="cls-13" points="166.21 69.73 168.6 69.73 168.65 69.69 179.72 58.66 199.23 39.19 203.18 39.19 207.82 34.63 207.57 34.39 203.03 38.85 199.09 38.85 168.46 69.39 166.21 69.39 166.21 69.73"/><polygon class="cls-13" points="163.74 78.31 175.13 78.31 175.13 77.97 163.88 77.97 157.36 71.45 152.07 71.45 147 76.6 136.01 76.6 136.01 76.94 147.15 76.94 152.21 71.79 157.22 71.79 163.74 78.31"/><polygon class="cls-13" points="171.28 74.88 174.79 74.88 174.79 74.54 171.43 74.54 168.77 71.79 161.48 71.79 156.03 66.35 155.79 66.6 161.33 72.14 168.63 72.14 171.28 74.88"/><polygon class="cls-13" points="130.86 81.06 143.88 81.06 146.37 78.66 152.98 78.66 155.78 75.91 155.54 75.66 152.84 78.31 146.23 78.31 143.75 80.72 130.86 80.72 130.86 81.06"/><polygon class="cls-13" points="166.21 63.56 166.55 63.56 166.55 55.56 175.48 46.47 175.48 43.29 180.69 38.16 190.39 38.16 195.46 33.01 199.74 33.01 205.24 27.86 205 27.61 199.6 32.67 195.31 32.67 190.25 37.82 180.55 37.82 175.13 43.15 175.13 46.33 166.21 55.42 166.21 63.56"/><polygon class="cls-13" points="163.46 58.41 163.81 58.41 163.81 45.01 173.49 35.41 187.73 35.41 194.77 28.59 194.53 28.34 187.59 35.07 173.35 35.07 163.46 44.87 163.46 58.41"/><polygon class="cls-13" points="161.27 45.4 171.36 35.23 171.36 31.02 177.31 25.07 177.07 24.82 171.01 30.88 171.01 35.09 161.03 45.16 161.27 45.4"/><polygon class="cls-13" points="174.91 32.96 179.94 27.93 179.94 22.1 185.04 17 184.79 16.76 179.59 21.96 179.59 27.79 174.67 32.72 174.91 32.96"/><polygon class="cls-13" points="179.12 32.7 182.34 29.39 182.34 23.47 191.04 14.77 190.8 14.53 182 23.33 182 29.25 178.87 32.46 179.12 32.7"/><polygon class="cls-13" points="186.67 34.59 192.71 28.55 199.83 28.55 204.86 23.61 204.62 23.36 199.69 28.21 192.57 28.21 186.42 34.35 186.67 34.59"/><polygon class="cls-13" points="202.93 39.19 203.28 39.19 203.28 35.74 207.43 31.68 207.19 31.43 202.93 35.6 202.93 39.19"/><polygon class="cls-13" points="165.65 52.87 172.39 46.12 172.39 42.35 175.25 39.57 175.01 39.32 172.04 42.21 172.04 45.98 165.4 52.63 165.65 52.87"/><path class="cls-13" d="M195.21,20.66A1.38,1.38,0,1,1,196.58,22,1.38,1.38,0,0,1,195.21,20.66Zm.34,0a1,1,0,0,0,2.06,0,1,1,0,0,0-2.06,0Z"/><path class="cls-13" d="M192.81,23.06a1.37,1.37,0,1,1,1.37,1.37A1.37,1.37,0,0,1,192.81,23.06Zm.34,0a1,1,0,1,0,1-1A1,1,0,0,0,193.15,23.06Z"/><path class="cls-13" d="M190.41,25.46a1.37,1.37,0,1,1,1.37,1.37A1.37,1.37,0,0,1,190.41,25.46Zm.34,0a1,1,0,1,0,1-1A1,1,0,0,0,190.75,25.46Z"/><polygon class="cls-13" points="151.49 47.55 164.15 34.88 164.15 26.91 172.42 18.63 172.18 18.39 163.81 26.76 163.81 34.74 151.25 47.3 151.49 47.55"/><polygon class="cls-13" points="168.1 26.05 174.18 19.97 176.85 19.97 176.85 19.63 174.03 19.63 167.86 25.8 168.1 26.05"/><polygon class="cls-13" points="159.35 51.55 159.69 51.55 159.69 43.72 167.24 36.17 167.24 31.37 172.47 26.22 172.23 25.98 166.9 31.22 166.9 36.03 159.35 43.58 159.35 51.55"/><polygon class="cls-13" points="161.06 30.27 161.41 30.27 161.41 22.1 168 15.51 183.1 15.51 188.51 10.1 188.26 9.86 182.96 15.16 167.85 15.16 161.06 21.96 161.06 30.27"/><polygon class="cls-13" points="159.35 28.89 159.69 28.89 159.69 24.79 157.63 22.65 157.63 19.95 164.14 13.53 163.9 13.28 157.29 19.81 157.29 22.78 159.35 24.93 159.35 28.89"/><polygon class="cls-13" points="184.09 29.1 190.92 22.18 190.92 19.01 196.02 13.91 195.78 13.67 190.58 18.87 190.58 22.04 183.85 28.86 184.09 29.1"/><polygon class="cls-13" points="203.28 21.34 203.62 21.34 203.62 14.4 199.4 10.36 193.25 10.36 188.14 15.47 188.38 15.71 193.4 10.7 199.26 10.7 203.28 14.55 203.28 21.34"/><polygon class="cls-13" points="199.35 23.96 200.87 22.44 200.87 15.51 200.53 15.51 200.53 22.3 199.11 23.72 199.35 23.96"/><circle class="cls-13" cx="166.47" cy="63.81" r="1.12"/><circle class="cls-13" cx="163.72" cy="58.32" r="1.12"/><circle class="cls-13" cx="159.6" cy="51.46" r="1.12"/><circle class="cls-13" cx="161.32" cy="45.28" r="1.12"/><circle class="cls-13" cx="161.32" cy="30.52" r="1.12"/><circle class="cls-13" cx="159.6" cy="28.12" r="1.12"/><circle class="cls-13" cx="175.05" cy="39.45" r="1.12"/><circle class="cls-13" cx="175.05" cy="32.58" r="1.12"/><circle class="cls-13" cx="176.42" cy="25.72" r="1.12"/><circle class="cls-13" cx="172.65" cy="25.72" r="1.12"/><circle class="cls-13" cx="168.53" cy="25.72" r="1.12"/><circle class="cls-13" cx="172.65" cy="18.17" r="1.12"/><circle class="cls-13" cx="176.42" cy="19.88" r="1.12"/><circle class="cls-13" cx="179.17" cy="32.58" r="1.12"/><circle class="cls-13" cx="184.31" cy="28.81" r="1.12"/><circle class="cls-13" cx="184.31" cy="17.48" r="1.12"/><circle class="cls-13" cx="207.65" cy="34.64" r="1.12"/><circle class="cls-13" cx="207.65" cy="31.55" r="1.12"/><circle class="cls-13" cx="205.25" cy="27.43" r="1.12"/><circle class="cls-13" cx="205.25" cy="23.32" r="1.12"/><circle class="cls-13" cx="199.07" cy="24" r="1.12"/><circle class="cls-13" cx="200.79" cy="15.76" r="1.12"/><circle class="cls-13" cx="195.98" cy="13.71" r="1.12"/><circle class="cls-13" cx="190.84" cy="14.74" r="1.12"/><circle class="cls-13" cx="187.75" cy="15.76" r="1.12"/><circle class="cls-13" cx="188.78" cy="9.59" r="1.12"/><circle class="cls-13" cx="163.72" cy="13.71" r="1.12"/><circle class="cls-13" cx="203.53" cy="20.23" r="1.12"/><circle class="cls-13" cx="165.44" cy="52.83" r="1.12"/><circle class="cls-13" cx="151.37" cy="47.34" r="1.12"/><circle class="cls-13" cx="166.47" cy="69.31" r="1.12"/><circle class="cls-13" cx="174.7" cy="74.8" r="1.12"/><path class="cls-13" d="M175.82,78.25a1.12,1.12,0,1,0-2.23,0,1.12,1.12,0,0,0,2.23,0Z"/><path class="cls-13" d="M156.94,66.58a1.12,1.12,0,0,0-2.23,0,1.13,1.13,0,0,0,1.1,1.14A1.12,1.12,0,0,0,156.94,66.58Z"/><path class="cls-13" d="M156.94,75.85a1.1,1.1,0,0,0-1.09-1.14,1.12,1.12,0,1,0,1.09,1.14Z"/><path class="cls-13" d="M137,76.88a1.12,1.12,0,0,0-2.23,0A1.1,1.1,0,0,0,135.9,78,1.12,1.12,0,0,0,137,76.88Z"/><path class="cls-13" d="M131.89,81a1.12,1.12,0,1,0-1.14,1.09A1.12,1.12,0,0,0,131.89,81Z"/></g><g class="cls-12"><polygon class="cls-13" points="131.89 18.6 127.67 18.6 118.78 9.67 114.09 9.67 110.03 5.75 110.27 5.5 114.23 9.33 118.92 9.33 127.81 18.25 131.89 18.25 131.89 18.6"/><polygon class="cls-13" points="129.02 30.21 122.97 24.16 122.97 20.73 119.81 17.57 116.12 17.57 108.26 9.79 108.5 9.55 116.26 17.22 119.95 17.22 123.31 20.59 123.31 24.02 129.26 29.97 129.02 30.21"/><polygon class="cls-13" points="131.85 30.64 128.46 27.25 128.46 22.79 122.84 17.26 123.09 17.02 128.8 22.64 128.8 27.11 132.1 30.4 131.85 30.64"/><polygon class="cls-13" points="129.02 41.88 123.31 36.17 123.31 30.68 112.38 19.83 112.62 19.59 123.65 30.54 123.65 36.03 129.26 41.64 129.02 41.88"/><polygon class="cls-13" points="131.25 50.98 125.64 45.37 120.15 45.37 113.75 38.97 113.99 38.73 120.29 45.02 125.78 45.02 131.5 50.74 131.25 50.98"/><polygon class="cls-13" points="127.08 59.78 126.74 59.78 126.74 53.16 122.5 49.01 122.74 48.76 127.08 53.02 127.08 59.78"/><polygon class="cls-13" points="121.64 60.59 114.66 53.6 109.85 53.6 103.67 47.43 99.63 47.43 99.63 47.08 103.82 47.08 109.99 53.26 114.8 53.26 121.89 60.35 121.64 60.59"/><polygon class="cls-13" points="120.58 56.78 115 51.2 112.69 51.2 108.52 47.12 108.76 46.87 112.83 50.86 115.14 50.86 120.83 56.54 120.58 56.78"/><circle class="cls-13" cx="127.08" cy="59.78" r="1.14"/><circle class="cls-13" cx="131.2" cy="50.86" r="1.14"/><circle class="cls-13" cx="113.7" cy="38.85" r="1.14"/><circle class="cls-13" cx="112.67" cy="19.97" r="1.14"/><circle class="cls-13" cx="129.14" cy="41.59" r="1.14"/><circle class="cls-13" cx="131.89" cy="30.27" r="1.14"/><circle class="cls-13" cx="122.97" cy="17.22" r="1.14"/><circle class="cls-13" cx="108.21" cy="9.67" r="1.14"/><circle class="cls-13" cx="110.27" cy="5.55" r="1.14"/><circle class="cls-13" cx="131.89" cy="18.6" r="1.14"/><circle class="cls-13" cx="122.62" cy="49.14" r="1.14"/><circle class="cls-13" cx="108.89" cy="47.08" r="1.14"/><circle class="cls-13" cx="99.63" cy="47.43" r="1.14"/><circle class="cls-13" cx="121.94" cy="60.47" r="1.14"/><circle class="cls-13" cx="120.56" cy="56.35" r="1.14"/></g><g class="cls-12"><path class="cls-13" d="M181.45,73a1.14,1.14,0,0,0-1.15,1.15,1.12,1.12,0,0,0,.24.7l-3.42,3.43h-4.58l-2.83-2.75h-4.33a1.13,1.13,0,0,0-1.09-.81,1.15,1.15,0,1,0,0,2.3,1.16,1.16,0,0,0,1.15-1.15h4.13l2.83,2.75h4.86l3.53-3.53a1.15,1.15,0,1,0,.66-2.09Z"/><path class="cls-13" d="M160.38,74.43V71.87l13.17-13.1L157.67,42.85l-5.83-5.75a1.18,1.18,0,0,0,.21-.66,1.15,1.15,0,0,0-2.3,0,1.16,1.16,0,0,0,1.15,1.15,1.13,1.13,0,0,0,.7-.25l5.83,5.76,15.64,15.67L160,71.72v2.71a1.13,1.13,0,0,0-1,1.13,1.15,1.15,0,0,0,2.3,0A1.16,1.16,0,0,0,160.38,74.43Z"/><path class="cls-13" d="M157.63,74.43v-3h-2.75V66.72L165.21,57l-.23-.25-10.44,9.83v5.22h2.75v2.64a1.14,1.14,0,0,0-1,1.13,1.15,1.15,0,1,0,1.36-1.13Z"/><path class="cls-13" d="M150.9,33.47a1.16,1.16,0,0,0,.91-.45l2,2.08v2.1l9.49,9.49.25-.24-9.39-9.39V35L152,32.71a1,1,0,0,0,.07-.39,1.15,1.15,0,0,0-2.3,0A1.16,1.16,0,0,0,150.9,33.47Z"/><path class="cls-13" d="M157.29,36.54v1.35l7.25,7.34.25-.24-7.16-7.24V36.54a1.19,1.19,0,1,0-.34,0Z"/><path class="cls-13" d="M148.71,64.82v-5l-2.06-2.15V51.44l3.5-3.5a1.11,1.11,0,0,0,.75.29,1.18,1.18,0,1,0-1-.55L146.3,51.3v6.49l2.06,2.15v4.88a1.13,1.13,0,0,0-1,1.13,1.15,1.15,0,1,0,2.3,0A1.16,1.16,0,0,0,148.71,64.82Z"/><path class="cls-13" d="M162.93,54.38l-11.09-11.1a1.18,1.18,0,0,0,.21-.67,1.15,1.15,0,1,0-1.15,1.16,1.21,1.21,0,0,0,.7-.24l10.85,10.85L151.7,65.13a1.15,1.15,0,1,0-.8,2,1.15,1.15,0,0,0,1-1.7Z"/></g><g class="cls-12"><path class="cls-13" d="M123.05,5.1a1,1,0,0,0,.58-.19l1,1h10l8.5,8.45a1,1,0,1,0,.2-.3l-8.55-8.5h-10l-.88-.88a1,1,0,1,0-1.82-.57A1,1,0,0,0,123.05,5.1Z"/><path class="cls-13" d="M130.6,7.56a1,1,0,1,0,0,2,1,1,0,0,0,.76-.35l4.58,4.58h2.59a1,1,0,1,0,0-.34h-2.48l-4.54-4.54a1,1,0,0,0,.06-.35A1,1,0,0,0,130.6,7.56Z"/><path class="cls-13" d="M127.86,3.72a1,1,0,0,0,1-.91h6.06l2.77,2.77a1,1,0,0,0-.19.58,1,1,0,1,0,1-1,1,1,0,0,0-.58.19l-2.53-2.53h6.5L153,13.91a1,1,0,0,0-.44.83,1,1,0,1,0,1-1,.78.78,0,0,0-.22,0L142,2.47H128.82a1,1,0,1,0-1,1.25Z"/><path class="cls-13" d="M153.6,16.48a1,1,0,0,0-1,.74H136.05l-6.15-6.17h-3.09l-6.4-6.34a1,1,0,1,0-.79.39,1,1,0,0,0,.53-.16l6.47,6.4,0,.05h3.09l6.15,6.18H152.6a1,1,0,1,0,1-1.09Z"/><path class="cls-13" d="M148.82,14.05a1,1,0,1,0,1-1,1,1,0,0,0-.35.06l-2.75-2.75h-2.18l-2.76-2.72a1,1,0,0,0,.12-.46,1,1,0,1,0-1,1,1,1,0,0,0,.68-.27l2.82,2.78h2.18l2.59,2.6A1,1,0,0,0,148.82,14.05Z"/></g><path class="cls-14" d="M113.77,28.55H123l6.8-6.86H117.47L97.24,41.59H80.15L27.76,94.3l-13.86,0-7.18,7.3H27.37L55,74.2h9.44l16-16.13H72.56l7.87-7.9h45.62l8.26-8.58H100.47Zm-40.88,33L63,71.45h-10l10.19-10ZM125,43.31v5.15H81.09V43.31Z"/><g class="cls-12"><rect class="cls-15" x="82.81" y="43.99" width="1.37" height="3.78"/><rect class="cls-15" x="84.53" y="43.99" width="1.37" height="3.78"/><rect class="cls-15" x="86.24" y="43.99" width="1.37" height="3.78"/><rect class="cls-15" x="87.96" y="43.99" width="1.37" height="3.78"/><rect class="cls-15" x="89.67" y="43.99" width="1.37" height="3.78"/><rect class="cls-15" x="91.39" y="43.99" width="1.37" height="3.78"/><rect class="cls-15" x="93.11" y="43.99" width="1.37" height="3.78"/><rect class="cls-15" x="94.82" y="43.99" width="1.37" height="3.78"/><rect class="cls-15" x="96.54" y="43.99" width="1.37" height="3.78"/><rect class="cls-15" x="98.25" y="43.99" width="1.37" height="3.78"/><rect class="cls-15" x="99.97" y="43.99" width="1.37" height="3.78"/><rect class="cls-15" x="101.69" y="43.99" width="1.37" height="3.78"/><rect class="cls-15" x="103.4" y="43.99" width="1.37" height="3.78"/><rect class="cls-15" x="105.12" y="43.99" width="1.37" height="3.78"/><rect class="cls-15" x="106.83" y="43.99" width="1.37" height="3.78"/><rect class="cls-15" x="108.55" y="43.99" width="1.37" height="3.78"/><rect class="cls-15" x="110.27" y="43.99" width="1.37" height="3.78"/><rect class="cls-16" x="111.98" y="43.99" width="1.37" height="3.78"/><rect class="cls-17" x="113.7" y="43.99" width="1.37" height="3.78"/><rect class="cls-18" x="115.41" y="43.99" width="1.37" height="3.78"/></g><polygon class="cls-14" points="103.16 149.7 94.72 158.28 74.36 158.28 79.14 153.5 31.76 106.11 6.47 106.11 0 99.25 28.05 99.25 82.41 153.82 93.71 153.82 110.98 136.66 152.66 136.66 148.33 140.78 111.94 140.78 103.16 149.7"/><path class="cls-14" d="M97.38,98.56l2.71-2.74H57.91l-4.71,4.8H40l-1.3-1.37H29.17L35,105.09h2.78l-2.23-2.41H47.45l4.09,4.12H101.7L110,98.56Zm-6,3.44H56.2l3.7-3.78H95.12Z"/><g class="cls-12"><polygon class="cls-13" points="15.2 94.1 21.03 99.94 23.09 99.94 17.26 94.1 15.2 94.1"/><polygon class="cls-13" points="18.63 94.1 24.46 99.94 26.52 99.94 20.69 94.1 18.63 94.1"/><polygon class="cls-13" points="22.06 94.1 27.9 99.94 29.95 99.94 24.12 94.1 22.06 94.1"/><polygon class="cls-13" points="25.49 94.1 31.33 99.94 33.39 99.94 27.55 94.1 25.49 94.1"/><polygon class="cls-13" points="28.93 94.1 34.76 99.94 36.82 99.94 30.98 94.1 28.93 94.1"/></g><g class="cls-12"><polygon class="cls-13" points="70.45 100.97 58.78 100.97 60.84 98.91 72.51 98.91 70.45 100.97"/><polygon class="cls-13" points="83.15 100.97 71.48 100.97 73.54 98.91 85.21 98.91 83.15 100.97"/></g><polygon class="cls-14" points="84.6 162.06 93.48 162.06 79.03 147.64 100.23 147.64 103.4 144.56 61.53 144.56 61.53 135.37 51.92 125.68 51.92 115.64 36.13 99.94 36.13 116.84 51.58 132.2 51.58 142.07 63.59 154.16 76.63 154.16 84.6 162.06"/><polygon class="cls-14" points="31.33 92.73 21.03 92.73 39.91 73.85 49.17 73.85 64.88 58.07 54.67 58.07 83.41 29.24 111.98 29.24 106.58 34.73 85.9 34.73 70.21 50.52 79.03 50.52 50.46 79 45.06 79 31.33 92.73"/><g class="cls-12"><path class="cls-13" d="M176.74,57.61a2.76,2.76,0,0,0-1.53.46l-6.56-6.55a.91.91,0,0,0-.12-1.23c-1-1-2.2-2.86-3.68-2.86h-9.67c-.24-.25-.48-.52-.72-.76-1.57-1.57-3.13-3.16-4.7-4.74a1,1,0,0,0-1.3-.1l-7.08-7.11a2.86,2.86,0,1,0-.25.24l7.09,7.11a.94.94,0,0,0,.08,1.3l4.51,4.52c.41.42,1,1.31,1.57,1.47a7.74,7.74,0,0,0,2,.13h8.48c.75.74,1.49,1.44,2.24,2.19a1,1,0,0,0,1.34.08l6.52,6.52a2.74,2.74,0,1,0,1.8-.67Z"/><path class="cls-13" d="M183.26,50.4a2.73,2.73,0,0,0-2.21,1.12L170.79,41.3l0,0H159l-6.41-6.43a2.79,2.79,0,1,0-.26.23l6.52,6.54H170.6l10.26,10.22a2.74,2.74,0,1,0,2.4-1.41Z"/><path class="cls-13" d="M190.81,39.76a2.75,2.75,0,0,0-2.59,1.83h-1.54a1.35,1.35,0,0,1-.12-.12c-1.62-1.61-3.23-3.26-4.85-4.87a1,1,0,0,0-1.29-.11l-1.7-1.69a2.75,2.75,0,1,0-2,.84,2.73,2.73,0,0,0,1.72-.61l1.71,1.7a.93.93,0,0,0,.08,1.29c1.69,1.67,3.38,3.44,5.07,5.12a3,3,0,0,0,2.27.51h.72a2.75,2.75,0,1,0,2.5-3.89Z"/><path class="cls-13" d="M190.81,30.15a2.73,2.73,0,0,0-2.36,1.35l-1-1a1,1,0,0,0-.1-1.3c-1-.95-1.91-1.91-2.86-2.87-.34-.33-.75-.91-1.23-1a7.78,7.78,0,0,0-2,0,1,1,0,0,0-1,.86h-.86V26a2.76,2.76,0,1,0,0,.46h.88a1,1,0,0,0,1,1h1.38c1.08,1.07,2.16,2.12,3.24,3.2a1,1,0,0,0,1.32.07l1,1a2.74,2.74,0,1,0,2.53-1.67Z"/><path class="cls-13" d="M139.33,13.33a2.73,2.73,0,0,0,1.87-.74l6,6h8.4a1,1,0,0,0,1,1h6.84a5.09,5.09,0,0,0,2.26-.23A8.67,8.67,0,0,0,167.12,18c2-2,3.95-4,5.92-6,.46-.46.92-.87,1.38-1.32h2.43a1,1,0,0,0,1-1h10.2a2.69,2.69,0,1,0,0-.34H177.85a1,1,0,0,0-1-.86,12.35,12.35,0,0,0-3,0c-.58.16-1.14.92-1.53,1.32q-3,2.94-5.9,5.9c-.59.58-1.17,1.24-1.76,1.84H156.6a.94.94,0,0,0-.94.68h-8.31l-5.91-5.91a2.77,2.77,0,0,0,.63-1.75,2.75,2.75,0,1,0-2.74,2.74Zm35.27-2.81.13-.12C174.89,10.24,174.8,10.38,174.6,10.52Z"/><rect class="cls-13" x="159.35" y="24.77" width="5.15" height="7.21"/><path class="cls-13" d="M165.87,24.77V32h.34a3.43,3.43,0,0,0,3.43-3.43v-.34a3.43,3.43,0,0,0-3.43-3.44Z"/><path class="cls-13" d="M154.54,28.21v.34A3.44,3.44,0,0,0,158,32V24.77A3.44,3.44,0,0,0,154.54,28.21Z"/></g><path class="cls-14" d="M104.59,67a.62.62,0,0,0,0-.89.64.64,0,0,0-.89,0l-2.21,2.22-.6-.59,2.22-2.22a.62.62,0,0,0,0-.89.64.64,0,0,0-.89,0L100,66.86a2.91,2.91,0,0,0-3.14-.23l-2.31-2.3a.63.63,0,0,0-.89.88l2.22,2.22-.59.59L93.05,65.8a.63.63,0,0,0-.89.89l2.22,2.22-.59.59-2.22-2.22a.63.63,0,1,0-.88.89l2.21,2.22-.59.59-2.22-2.22a.63.63,0,0,0-.88.89l2.21,2.22-.59.59-2.22-2.22a.63.63,0,0,0-.88.89L90,73.35l-.6.59-2.22-2.22a.63.63,0,1,0-.88.89l2.22,2.22-.6.59L85.66,73.2a.64.64,0,0,0-.89,0,.62.62,0,0,0,0,.89L87,76.31l-.6.59-2.21-2.22a.64.64,0,0,0-.89,0,.62.62,0,0,0,0,.89l2.22,2.22-.59.59L82.7,76.16a.64.64,0,0,0-.89,0,.62.62,0,0,0,0,.89L84,79.27l-.59.59-2.22-2.22a.64.64,0,0,0-.89,0,.62.62,0,0,0,0,.89l2.22,2.22-.59.59-2.22-2.22a.63.63,0,1,0-.89.89l2.22,2.22h0a2.91,2.91,0,0,0-.27,3.82l-2.25,2.24a.63.63,0,0,0,.89.89L81.66,87l.59.59L80,89.77a.63.63,0,1,0,.89.89l2.22-2.22.59.59-2.22,2.22a.63.63,0,0,0,.89.89l2.22-2.22.59.59L83,92.73a.63.63,0,0,0,.89.89L86.1,91.4l.59.59-2.22,2.22a.63.63,0,1,0,.89.89l2.22-2.22.59.59L86,95.69a.63.63,0,0,0,.89.89l2.22-2.22.59.59-2.22,2.22a.63.63,0,1,0,.89.89l2.22-2.22.59.59-2.22,2.22a.62.62,0,0,0,0,.89.64.64,0,0,0,.89,0L92,97.32l.59.59-2.22,2.22a.62.62,0,0,0,0,.89.64.64,0,0,0,.89,0L93.5,98.8l.59.59-2.22,2.22a.61.61,0,0,0,0,.88.62.62,0,0,0,.89,0L95,100.28l.59.59-2.22,2.22a.61.61,0,0,0,0,.88.62.62,0,0,0,.89,0l2.24-2.24a2.93,2.93,0,0,0,3.82-.27h0l1.92,1.92a.63.63,0,0,0,.89-.89l-1.92-1.92.59-.59,1.92,1.92a.62.62,0,0,0,.89,0,.61.61,0,0,0,0-.88l-1.92-1.93.59-.59,1.92,1.92a.62.62,0,0,0,.89,0,.61.61,0,0,0,0-.88l-1.92-1.93.59-.59,1.92,1.92a.62.62,0,0,0,.89,0,.61.61,0,0,0,0-.88l-1.92-1.93.59-.59,1.92,1.92a.62.62,0,0,0,.89,0,.61.61,0,0,0,0-.88l-1.92-1.93.59-.59L109.62,96a.63.63,0,0,0,.89-.89l-1.92-1.93.59-.59,1.92,1.93a.63.63,0,0,0,.89-.89l-1.92-1.92.59-.6L112.58,93a.63.63,0,1,0,.89-.89l-1.92-1.92.59-.6,1.92,1.93a.63.63,0,0,0,.89-.89L113,88.74l.6-.6,1.92,1.93a.63.63,0,1,0,.89-.89l-1.93-1.92.6-.6L117,88.59a.63.63,0,1,0,.89-.89l-2-2a2.91,2.91,0,0,0-.24-3.14l2.25-2.25a.63.63,0,1,0-.89-.88l-2.22,2.21-.59-.59,2.22-2.22a.63.63,0,1,0-.89-.88l-2.22,2.22-.59-.6L115,77.34a.63.63,0,0,0-.89-.88l-2.22,2.22-.59-.6,2.22-2.22a.63.63,0,1,0-.89-.88l-2.22,2.22-.59-.6L112,74.39a.64.64,0,0,0,0-.89.62.62,0,0,0-.89,0l-2.22,2.22-.59-.59,2.22-2.22a.64.64,0,0,0,0-.89.62.62,0,0,0-.89,0l-2.22,2.22-.59-.59L109,71.43a.63.63,0,0,0-.89-.89l-2.22,2.22-.59-.59L107.55,70a.63.63,0,0,0-.89-.89l-2.22,2.22-.59-.59,2.22-2.22a.62.62,0,0,0,0-.89.64.64,0,0,0-.89,0L103,69.8l-.59-.59Z"/><g class="cls-12"><circle class="cls-13" cx="34.85" cy="95.73" r="1.12"/><path class="cls-13" d="M33.73,99.19a1.12,1.12,0,1,1,1.14,1.09A1.12,1.12,0,0,1,33.73,99.19Z"/><polygon class="cls-13" points="45.81 99.25 34.42 99.25 34.42 98.91 45.67 98.91 52.19 92.39 57.48 92.39 62.55 97.53 73.54 97.53 73.54 97.88 62.4 97.88 57.34 92.73 52.34 92.73 45.81 99.25"/><polygon class="cls-13" points="38.27 95.82 34.76 95.82 34.76 95.48 38.12 95.48 40.78 92.73 48.07 92.73 53.52 87.29 53.76 87.53 48.22 93.07 40.92 93.07 38.27 95.82"/><polygon class="cls-13" points="78.69 102 65.67 102 63.18 99.59 56.57 99.59 53.77 96.84 54.01 96.6 56.71 99.25 63.32 99.25 65.8 101.65 78.69 101.65 78.69 102"/><path class="cls-13" d="M52.61,87.52a1.1,1.1,0,0,1,1.09-1.14,1.12,1.12,0,1,1-1.09,1.14Z"/><path class="cls-13" d="M59.13,87.52a1.12,1.12,0,1,1,1.14,1.09A1.12,1.12,0,0,1,59.13,87.52Z"/><path class="cls-13" d="M72.51,85.12a1.12,1.12,0,0,1,2.23-.05,1.1,1.1,0,0,1-1.09,1.14A1.12,1.12,0,0,1,72.51,85.12Z"/><path class="cls-13" d="M62.9,91a1.12,1.12,0,1,1,2.23,0,1.12,1.12,0,0,1-2.23,0Z"/><path class="cls-13" d="M77,89.58a1.12,1.12,0,1,1,1.14,1.09A1.12,1.12,0,0,1,77,89.58Z"/><path class="cls-13" d="M99.28,102.28a1.12,1.12,0,0,1,2.23,0,1.1,1.1,0,0,1-1.09,1.14A1.13,1.13,0,0,1,99.28,102.28Z"/><path class="cls-13" d="M99.28,95.76a1.12,1.12,0,0,1,2.23-.05,1.1,1.1,0,0,1-1.09,1.14A1.13,1.13,0,0,1,99.28,95.76Z"/><path class="cls-13" d="M77,85.12a1.12,1.12,0,1,1,1.14,1.09A1.12,1.12,0,0,1,77,85.12Z"/><path class="cls-13" d="M91.39,80.31a1.12,1.12,0,1,1,1.14,1.09A1.1,1.1,0,0,1,91.39,80.31Z"/><path class="cls-13" d="M94.14,67.27a1.1,1.1,0,0,1,1.09-1.14,1.12,1.12,0,1,1,0,2.23A1.11,1.11,0,0,1,94.14,67.27Z"/><path class="cls-13" d="M89.33,68a1.12,1.12,0,1,1,1.14,1.09A1.12,1.12,0,0,1,89.33,68Z"/><path class="cls-13" d="M52.61,96.78a1.12,1.12,0,0,1,2.23,0,1.12,1.12,0,1,1-2.23,0Z"/><path class="cls-13" d="M72.51,97.81a1.12,1.12,0,0,1,1.1-1.13,1.12,1.12,0,0,1,0,2.23A1.12,1.12,0,0,1,72.51,97.81Z"/><path class="cls-13" d="M77.66,101.93A1.12,1.12,0,1,1,78.8,103,1.11,1.11,0,0,1,77.66,101.93Z"/><polygon class="cls-13" points="60.31 87.57 60.07 87.32 63.98 83.46 70.04 83.46 76.36 77.29 81.02 77.29 90.61 67.7 90.85 67.94 81.17 77.63 76.5 77.63 70.18 83.81 64.12 83.81 60.31 87.57"/><polygon class="cls-13" points="100.68 102.43 92.69 94.45 77.33 94.45 73.82 91.01 63.93 91.01 63.93 90.67 73.96 90.67 77.47 94.1 92.83 94.1 100.92 102.19 100.68 102.43"/><polygon class="cls-13" points="73.77 85.42 73.52 85.17 78.62 80.03 86.17 80.03 90.02 76.16 90.02 72.07 95.13 66.95 95.37 67.2 90.36 72.21 90.36 76.3 86.31 80.37 78.76 80.37 73.77 85.42"/><polygon class="cls-13" points="87.92 85.18 78.69 85.18 78.69 84.84 87.77 84.84 92.3 80.31 92.54 80.55 87.92 85.18"/><polygon class="cls-13" points="100.68 95.91 97.15 92.39 87.52 92.39 84.8 89.64 78 89.64 78 89.3 84.94 89.3 87.66 92.04 97.3 92.04 100.92 95.67 100.68 95.91"/></g><g class="cls-19"><g class="cls-19"><circle class="cls-20" cx="120.58" cy="21.37" r="10.04" transform="translate(93.65 140.83) rotate(-87.35)"/></g></g><g class="cls-21"><g class="cls-21"><circle class="cls-22" cx="190.94" cy="10.04" r="10.04" transform="translate(172.25 200.33) rotate(-87.4)"/></g></g><g class="cls-23"><g class="cls-23"><circle class="cls-24" cx="117.83" cy="69.76" r="10.04" transform="translate(42.69 184.24) rotate(-87.35)"/></g></g><g class="cls-25"><g class="cls-25"><circle class="cls-26" cx="184.07" cy="120.9" r="10.04" transform="translate(54.96 299.31) rotate(-87.4)"/></g></g><g class="cls-27"><g class="cls-27"><circle class="cls-28" cx="206.04" cy="157.97" r="10.04" transform="translate(38.9 356.64) rotate(-87.4)"/></g></g></g></g></g></svg>