<svg xmlns="http://www.w3.org/2000/svg" viewBox="0 0 45.24 49.02"><defs><style>.cls-1{fill:#c2c2c2;}.cls-2{fill:#f5492a;}</style></defs><title>资源 1</title><g id="图层_2" data-name="图层 2"><g id="Layer_1" data-name="Layer 1"><path class="cls-1" d="M22.62,29.63,9.79,22.22V7.41l.07,0L22.62,0,35.45,7.41V22.22l-.08,0ZM10.09,22.05l12.53,7.24,12.53-7.24V7.58L22.62.34,10.09,7.58Z"/><path class="cls-1" d="M12.83,46.58,0,39.18V24.36l.07,0L12.83,17l12.83,7.4V39.18ZM.29,39l12.54,7.23L25.36,39V24.53L12.83,17.3.29,24.53Z"/><path class="cls-1" d="M32.41,46.58l-12.83-7.4V24.36l.07,0L32.41,17l12.83,7.4V39.18ZM19.87,39l12.54,7.23L44.94,39V24.53L32.41,17.3,19.87,24.53Z"/><path class="cls-2" d="M22.62,49a22.67,22.67,0,0,1-7.46-1.24l-.2-.07V30.54L.09,22l0-.21A23.11,23.11,0,0,1,7.59,8.83l.16-.14,14.87,8.59L37.49,8.69l.16.14A23,23,0,0,1,45.1,21.74l0,.21L30.27,30.54V47.71l-.2.07A22.66,22.66,0,0,1,22.62,49Zm-7.07-1.73a22.46,22.46,0,0,0,14.13,0V30.88L22.62,35l-7.07-4.08Zm0-17.09,7.07,4.08,7.06-4.08V22L22.62,18,15.55,22Zm7.66-12.58,7.06,4.08v8.16l14.21-8.21A22.3,22.3,0,0,0,37.41,9.42Zm-22.46,4L15,29.86V21.7L22,17.62,7.82,9.42A22.42,22.42,0,0,0,.75,21.65Z"/></g></g></svg>