<svg xmlns="http://www.w3.org/2000/svg" viewBox="0 0 209.27 210.2"><defs><style>.cls-1,.cls-10{opacity:0.2;}.cls-10,.cls-11,.cls-2,.cls-3,.cls-4,.cls-5,.cls-6,.cls-7,.cls-8,.cls-9{fill:#fff;}.cls-2{opacity:0.5;}.cls-4{opacity:0.9;}.cls-5{opacity:0.8;}.cls-6{opacity:0.7;}.cls-7{opacity:0.6;}.cls-8{opacity:0.4;}.cls-9{opacity:0.3;}.cls-11{opacity:0.1;}</style></defs><title>资源 4</title><g id="图层_2" data-name="图层 2"><g id="图层_1-2" data-name="图层 1"><g class="cls-1"><path class="cls-2" d="M199.17,63.85l-.29-.56c-.19-.37-.47-.93-.88-1.63-.82-1.41-2-3.51-3.65-6-.41-.64-.83-1.32-1.31-2l-1.52-2.14c-1-1.51-2.29-3-3.6-4.7a100.93,100.93,0,0,0-9.68-10.35A104.82,104.82,0,0,0,165.1,26a100.75,100.75,0,0,0-16.48-8.91,102.4,102.4,0,0,0-96,8.17,104.34,104.34,0,0,0-13.3,10.21C37.45,37.26,35.62,39,34,40.7L32.81,42l-.59.63-.56.64-2.13,2.47-.52.6-.47.61-.93,1.18c-.61.78-1.2,1.52-1.75,2.25-1.06,1.5-2,2.86-2.9,4.11l-2.18,3.42c-.32.49-.58,1-.83,1.4l-.68,1.18L18,62.62,10.24,58.4l1.34-2.35.74-1.29c.27-.46.56-1,.91-1.52l2.37-3.71c.92-1.36,2-2.84,3.14-4.46.59-.79,1.24-1.6,1.9-2.45l1-1.28.52-.66.55-.65c.75-.87,1.53-1.76,2.32-2.69l.61-.69.64-.68c.43-.46.86-.92,1.31-1.38,1.74-1.9,3.72-3.74,5.78-5.68A113.67,113.67,0,0,1,47.83,17.82a112.12,112.12,0,0,1,18-9.45A110.7,110.7,0,0,1,86.71,2.09,111.55,111.55,0,0,1,152.11,9,110.26,110.26,0,0,1,170,18.63a114.76,114.76,0,0,1,14.28,11.31A110.35,110.35,0,0,1,194.8,41.19c1.42,1.8,2.78,3.47,3.9,5.11.58.8,1.13,1.58,1.66,2.32s1,1.49,1.43,2.18c1.82,2.74,3.06,5,4,6.55.45.76.75,1.37,1,1.77l.32.62Z"/><path class="cls-3" d="M62.9,40.71l-1.54,1c-.48.32-1,.75-1.71,1.21l-1,.75c-.37.26-.76.53-1.15.85a84.22,84.22,0,0,0-10.78,9.78c-1.8,1.95-3.52,4-5,5.95-.79,1-1.46,2-2.12,2.88l-1,1.36c-.3.44-.57.88-.84,1.3-.53.84-1,1.61-1.46,2.29l-1,1.81-.9,1.58L22.05,64.8,23.1,63l1.22-2.11c.5-.8,1.07-1.69,1.69-2.67.32-.49.63-1,1-1.52l1.12-1.58c.77-1.08,1.56-2.24,2.47-3.36,1.76-2.3,3.76-4.66,5.86-6.93A98.22,98.22,0,0,1,49,33.38c.45-.37.9-.68,1.33-1l1.22-.87c.77-.55,1.43-1,2-1.41L55.34,29Z"/><path class="cls-4" d="M100.66,25.59l-1.16.09c-.74.08-1.78.23-3,.38s-2.72.42-4.28.7L91,27c-.4.07-.8.18-1.2.27l-2.46.58c-.83.17-1.63.43-2.44.65l-2.34.67-4.11,1.4-2.85,1.13L74.8,32l-.28.11-3-6.92.3-.12.87-.35,3.1-1.23L80.3,22l2.56-.73c.87-.24,1.75-.52,2.65-.71l2.67-.62c.44-.1.88-.22,1.31-.3l1.3-.23c1.69-.31,3.27-.61,4.65-.76s2.5-.33,3.3-.41l1.26-.1Z"/><path class="cls-5" d="M135,29.48l-1.1-.38c-.71-.21-1.73-.49-3-.83a87.91,87.91,0,0,0-9.09-2l-.62-.11-.63-.08L119.36,26l-2.42-.31-4.33-.32-4.23-.1V17.72l4.59.11,4.7.35,2.64.33,1.36.17.68.08.68.12A96,96,0,0,1,132.92,21c1.33.38,2.44.68,3.21.91l1.2.4Z"/><path class="cls-6" d="M165,46.57l-.88-.76-1-.88c-.39-.33-.86-.68-1.35-1.07l-1.62-1.26c-.28-.23-.58-.45-.89-.67l-1-.67-2-1.42-2.13-1.35c-1.41-1-2.9-1.74-4.27-2.54-.68-.41-1.38-.73-2-1.07L146.08,34c-.56-.3-1.1-.52-1.57-.74l-1.22-.54-1.06-.48,3-6.91,1.15.51,1.32.6c.51.23,1.1.48,1.71.8l2,1c.7.37,1.46.73,2.2,1.17,1.49.87,3.11,1.73,4.64,2.75l2.31,1.48,2.17,1.53,1,.74c.34.24.67.48,1,.72L166.45,38c.54.42,1,.81,1.47,1.16l1.1.95,1,.83Z"/><path class="cls-7" d="M186,74.05s0-.1-.13-.28l-.39-.76-1.41-2.73-2.16-3.75-1.33-2c-.45-.7-.89-1.42-1.4-2.1-1-1.38-1.94-2.77-2.95-4l-1.42-1.79c-.47-.56-.92-1.07-1.34-1.55-.83-1-1.51-1.77-2-2.29l-.8-.84L176,46.72l.88.91c.57.57,1.31,1.45,2.22,2.48.45.53.94,1.08,1.45,1.69l1.54,2c1.1,1.33,2.14,2.85,3.21,4.34.55.74,1,1.52,1.53,2.28l1.43,2.24c.87,1.49,1.67,2.88,2.36,4.08l1.53,3,.42.83c.1.19.15.3.15.3Z"/><path class="cls-2" d="M194.4,107.56s0-.11,0-.31a7.89,7.89,0,0,0,0-.85c-.06-.74-.14-1.8-.24-3.06,0-.32,0-.65-.08-1s-.09-.69-.13-1c-.1-.72-.2-1.48-.3-2.26s-.24-1.6-.39-2.42-.29-1.65-.44-2.48-.38-1.65-.57-2.46-.35-1.61-.57-2.37l-.63-2.2c-.21-.7-.37-1.37-.59-2l-1-2.9c-.11-.35-.2-.63-.28-.81l-.12-.28,7.05-2.65.12.31c.08.2.18.5.31.88l1.08,3.16c.23.64.41,1.37.64,2.13s.44,1.56.68,2.39.41,1.7.63,2.58.42,1.78.61,2.68.32,1.81.48,2.7S201,97.1,201,98s.21,1.68.32,2.47c0,.39.09.77.14,1.14s.06.73.09,1.07c.11,1.37.2,2.52.26,3.32,0,.4.05.72.05.93v.33Z"/><path class="cls-8" d="M189,141.69l.11-.28c.07-.18.18-.45.29-.8.24-.71.58-1.71,1-2.91.22-.6.4-1.26.6-2s.4-1.43.62-2.2.38-1.56.58-2.37.37-1.64.56-2.46.29-1.67.44-2.48c.07-.41.14-.82.22-1.22l.1-.6c0-.2.05-.4.07-.6.1-.78.2-1.54.29-2.26s.19-1.41.22-2c.1-1.27.18-2.32.23-3.06a10.94,10.94,0,0,0,.06-1.16l7.52.33s0,.46-.07,1.26-.15,2-.25,3.32c0,.69-.15,1.43-.24,2.22s-.2,1.61-.31,2.46c0,.22-.05.43-.08.65s-.08.43-.11.65l-.24,1.33-.48,2.7c-.2.89-.41,1.79-.61,2.67s-.38,1.76-.63,2.59-.46,1.63-.68,2.39-.41,1.48-.64,2.13c-.44,1.31-.81,2.4-1.07,3.16-.12.38-.24.67-.32.88l-.12.3Z"/><path class="cls-9" d="M170.64,171l.8-.84c.25-.28.57-.59.91-1l1.13-1.31,1.34-1.55c.46-.57.92-1.17,1.42-1.8s1-1.25,1.49-1.94,1-1.36,1.45-2.05c.25-.35.5-.69.73-1l.68-1.06,1.32-2.06c.81-1.36,1.53-2.66,2.16-3.75l1.93-3.76,6.78,3.26-2.1,4.09c-.69,1.19-1.47,2.6-2.36,4.08l-1.43,2.24-.73,1.15-.79,1.13L183.78,167c-.52.74-1.1,1.42-1.62,2.1s-1,1.34-1.54,2l-1.45,1.68-1.23,1.42c-.37.43-.72.77-1,1.07l-.87.91Z"/><path class="cls-10" d="M142.28,190.69l1.06-.48c.67-.31,1.64-.73,2.78-1.28l1.82-.94,1-.51a11.48,11.48,0,0,0,1-.56l2.12-1.22,1.08-.63,1.07-.69,2.12-1.36c.7-.46,1.35-1,2-1.41s1.28-.89,1.85-1.34l1.61-1.27,1.36-1.07,1-.87.88-.76,5,5.65-1,.83-1.1.95-1.47,1.17c-.55.42-1.13.88-1.75,1.37s-1.32.95-2,1.46-1.41,1-2.17,1.53l-2.31,1.48-1.15.75-1.19.69-2.3,1.32c-.37.23-.74.42-1.11.61l-1.08.56-2,1c-1.23.61-2.29,1.06-3,1.4l-1.15.52Z"/><path class="cls-11" d="M108.43,197.66l4.23-.12c1.27-.07,2.74-.2,4.32-.32.79-.07,1.6-.2,2.43-.3s1.67-.2,2.5-.34l2.48-.45,1.22-.22c.4-.07.79-.18,1.18-.26l2.22-.52,1-.24,1-.27,2.95-.84,1.1-.37,2.34,7.15-1.2.4-3.21.91-1,.3-1.12.26-2.43.57c-.42.09-.84.2-1.28.28l-1.32.24-2.7.49c-.91.15-1.82.25-2.72.37s-1.78.24-2.64.32c-1.72.13-3.32.27-4.7.36l-4.59.12Z"/><path class="cls-3" d="M189.07,169.06l1.68-2.39c.51-.81,1.15-1.8,1.89-3l.58-.91.58-1,1.25-2.19c.22-.39.46-.78.68-1.2l.65-1.28c.45-.88.92-1.8,1.4-2.76s.91-2,1.38-3.05c.24-.53.49-1.07.72-1.62l.67-1.71c.95-2.29,1.78-4.81,2.64-7.46.38-1.34.76-2.71,1.16-4.12s.67-2.88,1-4.37a100.09,100.09,0,0,0,2.13-19.57c0-.44,0-.87,0-1.31l0-1.33c0-.88-.05-1.77-.07-2.67s-.09-1.79-.16-2.7-.14-1.81-.22-2.73c0-.46-.08-.91-.14-1.37L206.72,99l-.36-2.78c-.16-.92-.33-1.85-.5-2.78-.08-.46-.17-.93-.25-1.4l-.13-.7-.16-.7a101.26,101.26,0,0,0-7.61-22.24A102.35,102.35,0,0,0,184.59,48l-2-2.3-1-1.15-1.05-1.1-2.11-2.2-2.2-2.11-1.1-1c-.37-.35-.76-.67-1.14-1-.77-.67-1.53-1.33-2.3-2s-1.57-1.26-2.36-1.89l-1.19-.93-.59-.46-.61-.43a98.13,98.13,0,0,0-41.56-17.7,99.69,99.69,0,0,0-19.63-1.43l-2.26.06c-.75,0-1.48.1-2.21.15l-2.16.17-1.06.08-1,.13-4,.52-3.79.68c-1.22.2-2.38.51-3.52.76s-2.22.5-3.25.81c-2.07.59-4,1.11-5.65,1.72l-2.4.81c-.75.26-1.43.56-2.08.8-1.28.52-2.39.93-3.26,1.33-1.74.78-2.66,1.21-2.66,1.21l-.74-1.59,2.71-1.23c.89-.4,2-.81,3.32-1.34.66-.25,1.35-.56,2.12-.82l2.43-.83c1.71-.62,3.65-1.14,5.76-1.74,1-.33,2.16-.55,3.31-.83s2.33-.57,3.58-.77l3.85-.69,4.1-.54L97.87,11,99,10.91l2.2-.17c.74-.05,1.49-.14,2.25-.15l2.3-.07a101.32,101.32,0,0,1,41.45,7.7A102.92,102.92,0,0,1,168,30l.62.44.61.47,1.21,1c.8.63,1.62,1.24,2.4,1.91l2.33,2c.39.34.79.66,1.16,1l1.12,1.06L179.65,40l2.15,2.24,1.07,1.12,1,1.17,2,2.35A100.3,100.3,0,0,1,207,90.26l.16.71.13.71c.09.48.18.95.26,1.43l.51,2.83.36,2.82.18,1.4c.07.47.12.94.15,1.4.08.93.15,1.86.22,2.78s.15,1.84.16,2.75.05,1.82.08,2.72l0,1.34c0,.45,0,.89,0,1.34a101.85,101.85,0,0,1-2.17,19.91c-.35,1.52-.67,3-1,4.45s-.8,2.83-1.18,4.2c-.88,2.69-1.72,5.25-2.69,7.59-.23.58-.46,1.16-.68,1.73s-.49,1.11-.73,1.65c-.48,1.08-.95,2.11-1.4,3.11s-1,1.91-1.43,2.8l-.67,1.31c-.22.42-.46.82-.68,1.22l-1.28,2.23-.58,1c-.21.32-.4.63-.59.93l-1.93,3-1.71,2.44Z"/><path class="cls-3" d="M163,59.91l-1.08-1.12c-.17-.19-.37-.39-.59-.62s-.47-.45-.74-.7l-1.84-1.75a75.7,75.7,0,0,0-12.67-9.27,74.58,74.58,0,0,0-20.55-8.19l-1.49-.34-.75-.17-.76-.13-3.07-.54-3.13-.39c-.53-.09-1.06-.1-1.59-.14l-1.59-.12a80.27,80.27,0,0,0-13,.25,76.16,76.16,0,0,0-24.37,6.91,80.59,80.59,0,0,0-10.13,5.88l-2.25,1.6c-.73.54-1.41,1.11-2.11,1.65l-1,.8-1,.85c-.63.56-1.27,1.09-1.87,1.64a77.49,77.49,0,0,0-10.4,11.77c-.54.78-1.06,1.45-1.45,2.08l-1,1.58c-.27.42-.48.75-.63,1s-.2.34-.2.34l-4.49-2.7a2.7,2.7,0,0,1,.22-.36l.67-1L41.28,67c.42-.66,1-1.38,1.55-2.22A82.1,82.1,0,0,1,54,52.15c.64-.59,1.32-1.16,2-1.76l1-.9,1.09-.86c.74-.58,1.48-1.19,2.26-1.76l2.4-1.72a86.4,86.4,0,0,1,10.83-6.28,81.33,81.33,0,0,1,26.09-7.4,85.43,85.43,0,0,1,13.84-.27l1.71.13c.56,0,1.13.06,1.69.15l3.35.42c1.11.18,2.2.38,3.29.57l.81.14.8.19,1.6.36a80.68,80.68,0,0,1,35.54,18.68l2,1.87.79.75.63.66,1.15,1.2Z"/><path class="cls-3" d="M53.74,149.87l-.28-.39c-.18-.26-.47-.63-.79-1.15l-1.22-1.9c-.47-.74-1-1.65-1.53-2.63-.31-.48-.56-1-.85-1.59l-.91-1.75c-.28-.63-.57-1.28-.88-2-.15-.34-.31-.69-.47-1l-.42-1.09-.45-1.13c-.15-.38-.32-.76-.44-1.16l-.84-2.46c-.5-1.71-1-3.5-1.45-5.41a67.41,67.41,0,0,1-.59-26.6,65.62,65.62,0,0,1,4.28-14.4A66.73,66.73,0,0,1,65.29,60.42c.48-.44,1-.81,1.5-1.21L68.29,58l1.56-1.11c.51-.36,1-.75,1.55-1.08,1.07-.66,2.09-1.39,3.19-2l1.6-.93c.54-.3,1.1-.56,1.64-.85A66.71,66.71,0,0,1,90.92,47a65.53,65.53,0,0,1,12.44-2.08l1.45-.12,1.43,0c.94,0,1.86-.09,2.76,0l2.62.06,2.46.19c.39,0,.79,0,1.17.09l1.12.15c.74.1,1.45.17,2.13.27l2,.35c.62.11,1.21.19,1.76.34,1.11.27,2.11.46,3,.69l2.17.61.77.22.56.19.45.16.5-1.54-.46-.15-.57-.2-.79-.22-2.22-.63c-.87-.24-1.9-.43-3-.71-.57-.15-1.18-.23-1.81-.35l-2-.36c-.7-.1-1.43-.17-2.18-.27l-1.16-.15c-.39-.06-.79-.06-1.2-.1l-2.51-.19L109,43.12c-.91,0-1.85,0-2.82,0l-1.46,0-1.49.12a67.13,67.13,0,0,0-12.73,2.13,68,68,0,0,0-13.42,5.2c-.55.29-1.12.56-1.67.87l-1.65,1c-1.12.6-2.16,1.35-3.26,2-.55.33-1.06.74-1.59,1.11l-1.6,1.13L65.79,58c-.52.41-1.05.79-1.54,1.24A68.4,68.4,0,0,0,45.42,84.6,67.11,67.11,0,0,0,41,99.34a69.46,69.46,0,0,0-1,14.42,68.45,68.45,0,0,0,1.64,12.82c.41,2,1,3.8,1.48,5.54.3.87.58,1.71.86,2.52.13.42.3.81.45,1.2s.31.77.46,1.15.29.75.44,1.12l.48,1,.9,2,.93,1.8c.3.57.56,1.13.87,1.63.6,1,1.08,1.92,1.57,2.69l1.25,1.94c.33.54.62.92.81,1.18s.28.4.28.4Z"/><path class="cls-3" d="M57.86,65.83l-2.23,2.6-1.11,1.42c-.4.52-.85,1.06-1.27,1.69l-1.4,2-1.44,2.25a67.63,67.63,0,0,0-10,40,68.31,68.31,0,0,0,2,12.55c.23.9.5,1.75.72,2.57s.49,1.57.73,2.29.45,1.39.69,2,.47,1.17.67,1.67.36,1,.53,1.35.33.7.45,1l.37.81-1.32-1.36c-.2-.21-.41-.44-.61-.69s-.44-.5-.67-.77c-.47-.55-1-1.13-1.48-1.73l-1.39-1.8-.65-.84c-.2-.27-.37-.53-.54-.77l-1.12-1.63-.18-.64c-.12-.43-.25-1.06-.44-1.86s-.44-1.76-.62-2.89-.47-2.39-.61-3.79c-.09-.7-.19-1.43-.28-2.18s-.12-1.54-.19-2.35l-.09-1.22c0-.42,0-.84,0-1.26,0-.85-.05-1.72-.08-2.6a85.66,85.66,0,0,1,.81-11,81.51,81.51,0,0,1,2.48-10.72c.29-.83.56-1.65.83-2.45.07-.2.13-.4.2-.6s.15-.39.23-.58l.45-1.14c.55-1.51,1.22-2.88,1.78-4.17.27-.65.61-1.24.89-1.81l.83-1.62c.54-1,1.06-1.86,1.46-2.58s.76-1.25,1-1.63l.36-.57.42-.34c.28-.21.64-.53,1.12-.89l1.63-1.18c.59-.43,1.21-.89,1.88-1.3l1.9-1.23c.6-.39,1.2-.7,1.69-1Z"/><path class="cls-3" d="M83.24,186.5,82,186.1c-.81-.24-1.94-.73-3.4-1.29A79.28,79.28,0,0,1,67.07,179a82,82,0,0,1-14.4-11.28c-.6-.59-1.17-1.22-1.77-1.83s-1.19-1.22-1.74-1.89l-1.71-2c-.56-.67-1.08-1.37-1.63-2.06l-.83-1-.77-1.08c-.51-.72-1-1.44-1.54-2.17-1-1.51-2-3-2.83-4.55L39.18,150a13.37,13.37,0,0,1-.65-1.17l-1.22-2.38-.31-.59-.27-.61L36.18,144c-.36-.81-.76-1.6-1.06-2.43s-.65-1.63-1-2.44-.56-1.64-.85-2.45c-.6-1.62-1-3.28-1.48-4.88a79.37,79.37,0,0,1-2.6-18.1c0-.67,0-1.33-.06-2s0-1.28,0-1.89c0-1.22,0-2.39.14-3.47s.16-2.11.23-3l.33-2.57c0-.39.09-.75.13-1.1s.12-.66.17-1c.1-.6.19-1.11.27-1.52.14-.83.22-1.27.22-1.27L25,94.8s-.08.47-.24,1.35c-.07.45-.17,1-.28,1.63-.06.33-.13.67-.18,1s-.1.76-.15,1.18c-.1.83-.22,1.76-.34,2.76s-.16,2.1-.25,3.27-.11,2.41-.15,3.72c0,.65,0,1.33,0,2s0,1.39.06,2.11a85.39,85.39,0,0,0,2.78,19.42c.51,1.72,1,3.5,1.59,5.24.31.87.58,1.76.92,2.63s.69,1.75,1,2.62.75,1.74,1.14,2.61l.59,1.3.29.65.33.64,1.31,2.55c.21.43.46.84.7,1.26l.72,1.24c.92,1.69,2,3.27,3,4.88l1.66,2.34.83,1.15c.29.38.59.75.88,1.12.59.74,1.16,1.48,1.75,2.21l1.84,2.1c.59.72,1.23,1.37,1.87,2s1.24,1.33,1.89,2a87.59,87.59,0,0,0,15.45,12.09,84.41,84.41,0,0,0,12.41,6.24c1.56.61,2.78,1.12,3.64,1.38l1.31.44Z"/><path class="cls-3" d="M108.44,203.87l-2,0-2.37-.06c-.93,0-2-.14-3.19-.22a93.87,93.87,0,0,1-19.52-3.66c-1-.29-2-.65-3-1l-1.54-.51c-.51-.18-1-.4-1.54-.6-1-.41-2.09-.8-3.14-1.25L69,195.11a96.39,96.39,0,0,1-12.86-7.36,93.3,93.3,0,0,1-31.28-36.49,90.46,90.46,0,0,1-5.56-14.84c-.17-.62-.36-1.24-.52-1.85s-.29-1.24-.43-1.86c-.28-1.23-.6-2.44-.79-3.67s-.45-2.42-.64-3.61-.31-2.39-.46-3.56c0-.29-.07-.58-.11-.87s0-.59-.07-.88c0-.58-.09-1.15-.13-1.72s-.09-1.14-.13-1.7,0-1.12-.07-1.68c0-1.1-.06-2.19-.08-3.26s0-2.12.06-3.15a90.14,90.14,0,0,1,2.7-19.67c.29-1.17.61-2.19.85-3.09s.45-1.67.67-2.27l.63-1.87-1.24-.43-.64,1.9c-.22.62-.41,1.4-.68,2.31s-.57,2-.86,3.13a92.27,92.27,0,0,0-2.74,19.95c0,1,0,2.11-.06,3.19s.06,2.19.09,3.31c0,.56,0,1.13.06,1.7s.09,1.15.13,1.73.09,1.16.14,1.75c0,.29,0,.58.07.88s.07.59.11.89c.15,1.18.31,2.39.46,3.6s.43,2.43.65,3.67.52,2.47.8,3.72c.15.63.3,1.25.44,1.88s.36,1.25.53,1.88a90.87,90.87,0,0,0,5.64,15,94.51,94.51,0,0,0,31.72,37,98.05,98.05,0,0,0,13,7.47l3.23,1.45c1.07.45,2.14.85,3.18,1.27.53.2,1,.42,1.57.6l1.56.52c1,.34,2,.71,3,1a95.21,95.21,0,0,0,19.79,3.72c1.22.08,2.3.19,3.24.22l2.4,0,2,.05Z"/><path class="cls-3" d="M29.57,76.29s-.19.44-.56,1.26c-.2.41-.4.93-.63,1.54l-.83,2.09a88.72,88.72,0,0,0-3.82,13.41,87.27,87.27,0,0,0-1.58,19.63c0,1.8.2,3.63.33,5.48l.05.7.09.69.18,1.4.18,1.4c.06.47.12.94.21,1.4.35,1.86.64,3.75,1.12,5.61l.32,1.4c.11.47.21.94.36,1.4l.79,2.78a83.78,83.78,0,0,0,4.07,10.73c.74,1.75,1.65,3.39,2.49,5,.42.83.91,1.61,1.36,2.41s.9,1.59,1.4,2.34a88.74,88.74,0,0,0,12.25,15.42,86.44,86.44,0,0,0,10.64,9l1.84,1.3c.52.39,1,.66,1.39.91l1.16.75-2,3.18-1.22-.78c-.39-.26-.9-.55-1.45-.95L55.8,184.5a88.23,88.23,0,0,1-11.1-9.41A91.74,91.74,0,0,1,31.91,159c-.52-.78-1-1.62-1.46-2.44s-1-1.65-1.42-2.52c-.88-1.72-1.82-3.45-2.6-5.27a87.58,87.58,0,0,1-4.25-11.2l-.83-2.9c-.14-.48-.26-1-.37-1.46l-.34-1.46c-.49-1.94-.8-3.91-1.16-5.86-.1-.48-.16-1-.22-1.46s-.12-1-.19-1.46l-.18-1.46-.1-.72-.05-.73c-.14-1.93-.34-3.84-.35-5.72A91.11,91.11,0,0,1,20,93.85a93,93,0,0,1,4-14l.86-2.19c.25-.63.45-1.17.66-1.6l.59-1.32Z"/><path class="cls-9" d="M68.8,199.18l-1.46-.65c-.48-.21-1-.5-1.72-.84l-2.31-1.18a98.79,98.79,0,0,1-13.51-8.68c-1.31-1-2.69-2.07-4-3.27l-2.07-1.79-2-1.94c-1.41-1.28-2.72-2.74-4.11-4.18-.7-.72-1.34-1.5-2-2.27s-1.37-1.53-2-2.36l-1.94-2.47c-.65-.83-1.25-1.72-1.87-2.58l-.94-1.31c-.32-.44-.59-.9-.89-1.35l-1.76-2.75-1.65-2.84c-.27-.48-.56-.95-.82-1.44l-.76-1.47c-.49-1-1-2-1.49-3l-1.38-3a94.09,94.09,0,0,1-4.42-12.48l-.45-1.57c-.13-.53-.25-1.06-.37-1.59-.25-1.05-.49-2.1-.73-3.14s-.39-2.1-.57-3.14c-.1-.52-.19-1-.28-1.56s-.14-1-.21-1.55a98.76,98.76,0,0,1-.49-22.66,96.18,96.18,0,0,1,2.89-15.81c.53-1.86.91-3.34,1.27-4.32s.51-1.51.51-1.51L5.74,76.6l-.57,1.7c-.4,1.1-.83,2.77-1.43,4.87A108,108,0,0,0,.49,101,110.5,110.5,0,0,0,1,126.45c.08.58.15,1.17.23,1.75s.21,1.17.31,1.75c.22,1.17.43,2.35.65,3.54s.54,2.35.82,3.54c.14.6.27,1.19.43,1.79s.33,1.18.5,1.77a105.37,105.37,0,0,0,5,14c.52,1.14,1,2.28,1.55,3.41s1.12,2.23,1.68,3.34l.86,1.66c.29.55.61,1.08.92,1.62.61,1.07,1.23,2.14,1.85,3.2s1.33,2.06,2,3.09c.33.5.65,1,1,1.52L19.86,174c.71,1,1.38,2,2.11,2.91s1.46,1.86,2.19,2.77,1.49,1.79,2.24,2.66,1.48,1.74,2.26,2.56c1.56,1.62,3,3.25,4.63,4.7.77.74,1.54,1.46,2.3,2.18l2.32,2c1.51,1.35,3.06,2.53,4.53,3.68a109.82,109.82,0,0,0,15.21,9.77l2.6,1.33c.76.39,1.4.71,1.94.94l1.64.74Z"/><path class="cls-2" d="M201.91,62.42l-.3-.58c-.2-.39-.49-1-.91-1.68-.85-1.45-2-3.61-3.76-6.22-.42-.65-.85-1.35-1.35-2.06L194,49.67c-1.07-1.55-2.35-3.13-3.7-4.84a104.68,104.68,0,0,0-10-10.66,108.07,108.07,0,0,0-13.54-10.73A105.33,105.33,0,0,0,130.15,8,105.44,105.44,0,0,0,51,22.67a108.51,108.51,0,0,0-13.7,10.52c-1.95,1.84-3.83,3.58-5.48,5.38l-1.25,1.31-.6.65-.57.65-2.2,2.55c-.18.21-.36.41-.53.62l-.49.62-1,1.22c-.63.8-1.24,1.57-1.8,2.32-1.09,1.54-2.11,2.94-3,4.23l-2.25,3.52c-.33.51-.6,1-.86,1.45l-.7,1.21-1.27,2.23L10.24,58.4l1.34-2.35.74-1.29c.27-.46.56-1,.91-1.52l2.37-3.71c.92-1.36,2-2.84,3.14-4.46.59-.79,1.24-1.6,1.9-2.45l1-1.28.52-.66.55-.65c.75-.87,1.53-1.76,2.32-2.69l.61-.69.64-.68c.43-.46.86-.92,1.31-1.38,1.74-1.9,3.72-3.74,5.78-5.68A113.67,113.67,0,0,1,47.83,17.82a112.12,112.12,0,0,1,18-9.45A110.7,110.7,0,0,1,86.71,2.09,111.55,111.55,0,0,1,152.11,9,110.26,110.26,0,0,1,170,18.63a114.76,114.76,0,0,1,14.28,11.31A110.35,110.35,0,0,1,194.8,41.19c1.42,1.8,2.78,3.47,3.9,5.11.58.8,1.13,1.58,1.66,2.32s1,1.49,1.43,2.18c1.82,2.74,3.06,5,4,6.55.45.76.75,1.37,1,1.77l.32.62Z"/><path class="cls-3" d="M108.44,206.26l2.32-.07c.75,0,1.68,0,2.77-.08l3.75-.29c.71,0,1.44-.14,2.22-.24l2.42-.32c.84-.09,1.71-.26,2.62-.42l2.8-.51c1-.2,1.94-.44,3-.67l1.55-.36c.52-.12,1-.29,1.57-.44l3.26-.93,3.36-1.14a97.3,97.3,0,0,0,14.21-6.42,94.82,94.82,0,0,0,27.48-23,95.2,95.2,0,0,0,20.88-69.53,98.66,98.66,0,0,0-2.84-15.33c-.33-1.16-.66-2.3-1-3.41s-.73-2.16-1.09-3.21c-.18-.52-.34-1-.54-1.53s-.39-1-.58-1.48c-.39-1-.75-1.92-1.14-2.82a97.63,97.63,0,0,0-4.52-9.1c-.71-1.22-1.31-2.33-1.9-3.25l-1.5-2.34c-.41-.63-.72-1.13-1-1.44l-.35-.48,2.65-1.84.36.5c.24.32.55.83,1,1.49l1.55,2.42c.61,1,1.24,2.09,2,3.35a99.72,99.72,0,0,1,4.67,9.42c.41.93.78,1.91,1.18,2.91l.6,1.53c.21.52.37,1.06.56,1.59.37,1.08.74,2.19,1.13,3.32s.67,2.33,1,3.53a102.54,102.54,0,0,1,2.94,15.85,99.35,99.35,0,0,1,.14,18,97.95,97.95,0,0,1-50.15,77.68,99,99,0,0,1-14.69,6.63L137.64,205l-3.37,1c-.55.15-1.08.32-1.62.45l-1.6.37c-1.05.24-2.07.49-3.07.7l-2.9.53c-.93.16-1.83.34-2.7.43l-2.51.33c-.8.1-1.56.2-2.28.25l-3.88.3c-1.13,0-2.09.06-2.87.09l-2.39.06Z"/><path class="cls-3" d="M45.91,190l-1.09-.85c-.7-.57-1.69-1.44-3-2.54-.32-.28-.66-.56-1-.87l-1.06-1-2.38-2.26-2.58-2.7c-.23-.24-.45-.48-.69-.72l-.67-.77-1.39-1.6a101.24,101.24,0,0,1-11.29-16.13l-.68-1.18-.63-1.22-1.26-2.46-.32-.62-.29-.64c-.19-.42-.39-.85-.58-1.28q-.59-1.28-1.17-2.58l-1-2.65c-.34-.89-.72-1.77-1-2.69-.61-1.82-1.29-3.62-1.78-5.49A100.36,100.36,0,0,1,8.87,97.87c.16-1.43.42-2.79.65-4.09s.43-2.53.71-3.67.51-2.21.74-3.2.52-1.88.74-2.7l.61-2.16c.18-.63.38-1.15.52-1.58.28-.86.44-1.31.44-1.31L9.65,77.93s-.16.47-.45,1.36c-.15.44-.35,1-.54,1.64s-.4,1.41-.64,2.25S7.51,85,7.26,86s-.49,2.14-.77,3.33-.5,2.46-.74,3.81-.51,2.76-.67,4.25a104.09,104.09,0,0,0,3.27,43.48c.51,1.94,1.21,3.81,1.84,5.7.31,1,.7,1.87,1.05,2.79s.74,1.84,1.1,2.76l1.21,2.68.6,1.32.31.66.32.65c.45.86.88,1.71,1.32,2.56l.65,1.26c.24.41.47.82.7,1.23a105.26,105.26,0,0,0,11.72,16.74l1.45,1.66.7.8.71.75,2.68,2.8,2.47,2.35,1.1,1c.35.32.71.62,1,.91,1.32,1.14,2.35,2.05,3.08,2.63l1.12.89Z"/></g></g></g></svg>