<svg xmlns="http://www.w3.org/2000/svg" viewBox="0 0 80.8 80.8"><defs><style>.cls-1{fill:#00b0ff;}</style></defs><title>资源 3</title><g id="图层_2" data-name="图层 2"><g id="Layer_1" data-name="Layer 1"><path class="cls-1" d="M40.4,80.8A40.44,40.44,0,0,1,0,40.4H0a40.4,40.4,0,0,1,80.8,0h0A40.44,40.44,0,0,1,40.4,80.8Zm-.14-.49a.2.2,0,0,0,.14.09,1.47,1.47,0,0,0,.5-.09Zm3.88-.41h.38a17.89,17.89,0,0,0,3.14-1.07H45.9A10.48,10.48,0,0,1,44.14,79.9Zm-2,0h1a9.62,9.62,0,0,0,2.09-1.07H42.88A6.46,6.46,0,0,1,42.09,79.9Zm-2,0h1.5a4.74,4.74,0,0,0,.88-1.07H39.76A6.24,6.24,0,0,0,40.05,79.9Zm-1.68,0H39.7a9,9,0,0,1-.31-1.07H36.83A6.7,6.7,0,0,0,38.37,79.9Zm-1.48,0h.72a7.89,7.89,0,0,1-1.31-1.07H34.22A14,14,0,0,0,36.89,79.9ZM32,78.83a22.48,22.48,0,0,0,3.57,1.06,14.41,14.41,0,0,1-2.21-1.06Zm16.56,0a20.23,20.23,0,0,1-2,.88,28.44,28.44,0,0,0,3-.88Zm-18.17,0c.67.22,1.34.41,2,.58-.5-.18-1-.37-1.47-.58Zm20.31,0-.49.19.64-.19Zm1-.4h.4a35.65,35.65,0,0,0,4.71-2H55.58A30.76,30.76,0,0,1,51.72,78.43Zm-2.35,0h1.3a29.69,29.69,0,0,0,4.13-2H52.43A23.33,23.33,0,0,1,49.37,78.43Zm-2.95,0h2.09a21.46,21.46,0,0,0,3.27-2H48.47A16.81,16.81,0,0,1,46.42,78.43Zm-3.31,0H45.8a15,15,0,0,0,2.17-2H44A16.77,16.77,0,0,1,43.11,78.43Zm-3.44,0h3a14.8,14.8,0,0,0,.92-2H39.35C39.46,77.21,39.56,77.88,39.67,78.43Zm-3.26,0H39.3c-.13-.58-.24-1.25-.35-2H34.8A13.11,13.11,0,0,0,36.41,78.43Zm-2.92,0h2.42a15.28,15.28,0,0,1-1.52-2H30.72A18.34,18.34,0,0,0,33.49,78.43Zm-2.43,0h1.68a20.7,20.7,0,0,1-2.61-2H27.3A26.19,26.19,0,0,0,31.06,78.43Zm-1.8,0h.83a26.69,26.69,0,0,1-3.51-2h-1.8A33.87,33.87,0,0,0,29.26,78.43Zm-5.92-2a38.26,38.26,0,0,0,4.32,1.82A34.43,34.43,0,0,1,24,76.42Zm34.36,0-.42.22.46-.22Zm.72-.4h.13a39.89,39.89,0,0,0,4.77-2.9h-.53A37.19,37.19,0,0,1,58.42,76Zm-2.21,0H57.6a37.69,37.69,0,0,0,4.52-2.9H60A31.33,31.33,0,0,1,56.21,76Zm-3.27,0h2.53a32.38,32.38,0,0,0,4-2.9H56A27.44,27.44,0,0,1,52.94,76Zm-4.13,0H52.3a27.38,27.38,0,0,0,3.14-2.9h-4.6A23.51,23.51,0,0,1,48.81,76Zm-4.64,0h4.15a23,23,0,0,0,2.09-2.9H45.07C44.79,74.19,44.49,75.16,44.17,76Zm-4.88,0h4.45c.31-.86.61-1.83.89-2.9H39C39.08,74.21,39.18,75.17,39.29,76Zm-4.75,0h4.35c-.12-.87-.23-1.84-.33-2.9H33A24.38,24.38,0,0,0,34.54,76Zm-4.27,0h3.86a26.89,26.89,0,0,1-1.51-2.9h-5A25,25,0,0,0,30.27,76Zm-3.58,0h3a26.26,26.26,0,0,1-2.59-2.9h-4A29.68,29.68,0,0,0,26.69,76Zm-2.63,0H26a29.65,29.65,0,0,1-3.49-2.9H19.76A35.2,35.2,0,0,0,24.06,76Zm-1.52,0h.72a34.58,34.58,0,0,1-4.14-2.9H17.85A38.92,38.92,0,0,0,22.54,76Zm40.76-3.3h.58A40.49,40.49,0,0,0,68.24,69h-.9A39.19,39.19,0,0,1,63.3,72.72Zm-2.81,0h2.16A39,39,0,0,0,66.78,69H64A36.49,36.49,0,0,1,60.49,72.72Zm-4.16,0h3.56A36.09,36.09,0,0,0,63.51,69H59.14A35.42,35.42,0,0,1,56.33,72.72Zm-5.25,0H55.8A33.46,33.46,0,0,0,58.66,69H53A34.36,34.36,0,0,1,51.08,72.72Zm-5.9,0h5.47A37.35,37.35,0,0,0,52.56,69H46C45.75,70.36,45.47,71.59,45.18,72.72Zm-6.25,0h5.81c.29-1.13.56-2.36.82-3.69H38.63Q38.78,71.05,38.93,72.72Zm-6.11,0h5.7c-.11-1.14-.21-2.38-.3-3.69H31.41Q32.07,71,32.82,72.72Zm-5.53,0h5.15c-.5-1.13-1-2.37-1.41-3.69H24.86A33.65,33.65,0,0,0,27.29,72.72Zm-4.62,0h4.14A34.48,34.48,0,0,1,24.41,69h-5A34.41,34.41,0,0,0,22.67,72.72Zm-3.41,0H22.1A36,36,0,0,1,18.87,69H15.33A38,38,0,0,0,19.26,72.72Zm-2,0h1.33A38.19,38.19,0,0,1,14.79,69H13A39.73,39.73,0,0,0,17.3,72.72Zm50.41-4.1h.94a40.65,40.65,0,0,0,3.78-4.39H71.24A39.42,39.42,0,0,1,67.71,68.62Zm-3.34,0h2.79a38,38,0,0,0,3.59-4.39H67.46A39.64,39.64,0,0,1,64.37,68.62Zm-5,0h4.45A39.07,39.07,0,0,0,67,64.23H61.85A41.89,41.89,0,0,1,59.4,68.62Zm-6.26,0h5.79a41,41,0,0,0,2.48-4.39H54.79C54.28,65.78,53.73,67.25,53.14,68.62Zm-7.06,0h6.65a45.7,45.7,0,0,0,1.65-4.39H46.8C46.58,65.78,46.34,67.25,46.08,68.62Zm-7.48,0h7c.25-1.37.49-2.84.71-4.39h-8C38.42,65.81,38.51,67.27,38.6,68.62Zm-7.32,0h6.91c-.09-1.39-.18-2.86-.25-4.39H30.06C30.43,65.79,30.84,67.25,31.28,68.62Zm-6.65,0H30.9c-.44-1.37-.85-2.84-1.22-4.39H22.52A41.54,41.54,0,0,0,24.63,68.62Zm-5.56,0h5.12a42.45,42.45,0,0,1-2.09-4.39H16.21A38.52,38.52,0,0,0,19.07,68.62Zm-4.1,0h3.6a40.64,40.64,0,0,1-2.82-4.39H11.56A38.68,38.68,0,0,0,15,68.62Zm-2.36,0h1.82a39.11,39.11,0,0,1-3.35-4.39H8.89A39,39,0,0,0,12.61,68.62ZM8.29,64.23a40.45,40.45,0,0,0,2.79,3.34,39.28,39.28,0,0,1-2.69-3.34Zm63.22-.4h1.21a40.9,40.9,0,0,0,3.08-5H74.39A40.83,40.83,0,0,1,71.51,63.83Zm-3.81,0H71a41,41,0,0,0,2.91-5H70.22A41.46,41.46,0,0,1,67.7,63.83Zm-5.66,0h5.2a43.15,43.15,0,0,0,2.55-5H64A48.31,48.31,0,0,1,62,63.83Zm-7.13,0H61.6a46.22,46.22,0,0,0,2-5H56.25Q55.67,61.46,54.91,63.83Zm-8.06,0h7.66q.75-2.37,1.34-5H47.43C47.26,60.59,47.07,62.25,46.85,63.83Zm-8.53,0h8.09c.22-1.58.41-3.24.59-5H38.1C38.17,60.61,38.24,62.27,38.32,63.83Zm-8.36,0h8c-.08-1.61-.15-3.28-.21-5H29Q29.41,61.46,30,63.83Zm-7.61,0h7.23c-.37-1.58-.7-3.24-1-5H20.64C21.14,60.59,21.72,62.25,22.35,63.83Zm-6.36,0h5.94q-.95-2.37-1.7-5H13.67A43.64,43.64,0,0,0,16,63.83Zm-4.7,0h4.24a43.51,43.51,0,0,1-2.29-5H8.53A41.41,41.41,0,0,0,11.29,63.83Zm-2.69,0h2.22a41.29,41.29,0,0,1-2.74-5H5.57A39.36,39.36,0,0,0,8.6,63.83Zm-.6,0h.1a41.49,41.49,0,0,1-3-5h-.2A40.9,40.9,0,0,0,8,63.83Zm66.58-5.38H76A39.34,39.34,0,0,0,78.27,53H76.7A40,40,0,0,1,74.58,58.45Zm-4.19,0h3.75A41.4,41.4,0,0,0,76.28,53h-4A43.36,43.36,0,0,1,70.39,58.45Zm-6.22,0H70A45.11,45.11,0,0,0,71.84,53H65.65A52.6,52.6,0,0,1,64.17,58.45Zm-7.83,0h7.41A52.61,52.61,0,0,0,65.24,53H57.33Q56.93,55.84,56.34,58.45Zm-8.87,0H56q.57-2.61,1-5.43h-9Q47.73,55.84,47.47,58.45Zm-9.38,0H47c.17-1.74.31-3.56.43-5.43H37.93C38,54.93,38,56.74,38.09,58.45Zm-9.19,0h8.8c-.06-1.79-.11-3.61-.16-5.43H28.17C28.37,54.9,28.62,56.71,28.9,58.45Zm-8.38,0h8c-.28-1.74-.53-3.55-.73-5.43H19.26Q19.78,55.84,20.52,58.45Zm-7,0h6.6q-.73-2.61-1.26-5.43h-7A46.44,46.44,0,0,0,13.51,58.45Zm-5.17,0h4.74A46.39,46.39,0,0,1,11.39,53H6.3A44,44,0,0,0,8.34,58.45Zm-3,0H7.9a43.92,43.92,0,0,1-2-5.43H3.14A40.43,40.43,0,0,0,5.37,58.45Zm-.66,0h.21A40.3,40.3,0,0,1,2.72,53H2.44A40.61,40.61,0,0,0,4.71,58.45Zm72.12-5.83H78.4a40.22,40.22,0,0,0,1.38-5.73H78.12A43,43,0,0,1,76.83,52.62Zm-4.47,0h4a41.46,41.46,0,0,0,1.3-5.73H73.5A48,48,0,0,1,72.36,52.62Zm-6.63,0H72a46.1,46.1,0,0,0,1.14-5.73H66.63A57.57,57.57,0,0,1,65.73,52.62Zm-8.34,0h7.93a57.56,57.56,0,0,0,.91-5.73H58C57.85,48.85,57.65,50.77,57.39,52.62Zm-9.47,0H57c.26-1.85.46-3.77.6-5.73H48.17C48.12,48.86,48,50.77,47.92,52.62Zm-10,0H47.5c.11-1.86.21-3.77.27-5.73H37.83C37.85,48.88,37.89,50.8,37.92,52.62Zm-9.79,0h9.4c0-1.93-.07-3.85-.09-5.73H27.68C27.79,48.85,27.94,50.77,28.13,52.62Zm-8.94,0h8.54c-.19-1.85-.34-3.77-.45-5.73H18.42C18.59,48.85,18.85,50.77,19.19,52.62Zm-7.49,0h7.08c-.33-1.85-.59-3.77-.77-5.73H10.66A50,50,0,0,0,11.7,52.62Zm-5.51,0h5.1a50,50,0,0,1-1-5.73H4.94A42.88,42.88,0,0,0,6.19,52.62ZM3,52.62H5.77a42.84,42.84,0,0,1-1.23-5.73H1.66A40.16,40.16,0,0,0,3,52.62Zm-.7,0h.28a40.14,40.14,0,0,1-1.34-5.73H.93A38.91,38.91,0,0,0,2.31,52.62Zm75.87-6.13h1.66a39.71,39.71,0,0,0,.46-5.91c-.32,0-.84,0-1.69,0A42.31,42.31,0,0,1,78.18,46.49Zm-4.63,0h4.22a42.3,42.3,0,0,0,.44-5.89H73.93A49.52,49.52,0,0,1,73.55,46.49Zm-6.88,0h6.47a47.5,47.5,0,0,0,.39-5.89H67C67,42.6,66.87,44.57,66.67,46.49Zm-8.65,0h8.25c.19-1.92.3-3.89.3-5.89H58.22C58.22,42.6,58.15,44.57,58,46.49Zm-9.83,0h9.43c.13-1.92.2-3.89.2-5.89H48.27C48.27,42.61,48.24,44.57,48.19,46.49Zm-10.36,0h10c.06-1.93.09-3.89.09-5.89H37.8C37.8,42.64,37.81,44.6,37.83,46.49Zm-10.17,0h9.77c0-2,0-4,0-5.89H27.52C27.52,42.6,27.57,44.57,27.66,46.49Zm-9.28,0h8.88c-.09-1.92-.14-3.89-.15-5.89h-9C18.13,42.6,18.22,44.57,18.38,46.49Zm-7.77,0H18c-.17-1.92-.25-3.89-.26-5.89H10.26A54.17,54.17,0,0,0,10.61,46.49Zm-5.72,0h5.32a54.17,54.17,0,0,1-.35-5.89H4.47A43.9,43.9,0,0,0,4.89,46.49Zm-3.3,0H4.48a45.62,45.62,0,0,1-.41-5.89H1.14A40.82,40.82,0,0,0,1.59,46.49Zm-.73,0h.33a41.07,41.07,0,0,1-.45-5.9H.4A41.1,41.1,0,0,0,.86,46.49ZM37.8,40.2H47.87c0-2,0-4-.09-5.89h-10C37.81,36.2,37.8,38.17,37.8,40.2Zm-10.28,0H37.4c0-1.87,0-3.85,0-5.89H27.66Q27.53,37.21,27.52,40.2Zm20.67-5.89c.05,1.92.08,3.89.08,5.89h9.55q0-3-.2-5.89ZM18.12,40.2h9q0-3,.15-5.89H18.38Q18.14,37.21,18.12,40.2ZM58,34.31q.19,2.89.2,5.89h8.35c0-2-.11-4-.3-5.89ZM10.26,40.2h7.46c0-2,.09-4,.26-5.89H10.61A54.32,54.32,0,0,0,10.26,40.2Zm56.41-5.89q.3,2.89.31,5.89h6.55a47.63,47.63,0,0,0-.39-5.89ZM4.47,40.2H9.86a54.32,54.32,0,0,1,.35-5.89H4.89A44,44,0,0,0,4.47,40.2Zm69.08-5.89a49.66,49.66,0,0,1,.38,5.89h4.28a42.42,42.42,0,0,0-.44-5.89ZM1.14,40.2H4.07a45.75,45.75,0,0,1,.41-5.89H1.59A40.93,40.93,0,0,0,1.14,40.2Zm77-5.89a42.42,42.42,0,0,1,.43,5.89H80.3a39.55,39.55,0,0,0-.46-5.89ZM.4,40.2H.74a40.93,40.93,0,0,1,.45-5.89H.86A40.93,40.93,0,0,0,.4,40.2Zm77.72-6.29h1.66a40.55,40.55,0,0,0-1.38-5.73H76.83A43.3,43.3,0,0,1,78.12,33.91Zm-4.62,0h4.21a41.79,41.79,0,0,0-1.3-5.73h-4A48.4,48.4,0,0,1,73.5,33.91Zm-6.87,0h6.46A46.47,46.47,0,0,0,72,28.18H65.73Q66.32,31,66.63,33.91Zm-8.64,0h8.24q-.32-2.94-.9-5.73H57.39Q57.78,31,58,33.91Zm-9.81,0h9.41Q57.38,31,57,28.18H47.92C48,30,48.12,32,48.18,33.91Zm-10.35,0h9.94c-.06-2-.16-3.87-.27-5.73H37.92C37.89,30,37.85,31.92,37.83,33.91Zm-10.15,0h9.76c0-1.88.05-3.8.09-5.73h-9.4Q27.85,31,27.68,33.91Zm-9.27,0h8.87q.16-2.94.45-5.73H19.19Q18.68,31,18.41,33.91Zm-7.75,0H18q.27-2.94.77-5.73H11.7A50.4,50.4,0,0,0,10.66,33.91Zm-5.72,0h5.31a52.7,52.7,0,0,1,1-5.73H6.19A43.22,43.22,0,0,0,4.94,33.91Zm-3.28,0H4.54a43.18,43.18,0,0,1,1.23-5.73H3A40.48,40.48,0,0,0,1.66,33.91Zm-.73,0h.32a40.46,40.46,0,0,1,1.34-5.73H2.31A39.22,39.22,0,0,0,.93,33.91ZM76.7,27.78h1.57A39.34,39.34,0,0,0,76,22.35H74.58A40.48,40.48,0,0,1,76.7,27.78Zm-4.45,0h4a41.4,41.4,0,0,0-2.14-5.43H70.39A43.93,43.93,0,0,1,72.25,27.78Zm-6.6,0h6.19A45.11,45.11,0,0,0,70,22.35H64.17A53.3,53.3,0,0,1,65.65,27.78Zm-8.32,0h7.91a55.25,55.25,0,0,0-1.48-5.43H56.34C56.73,24.09,57.06,25.91,57.33,27.78Zm-9.43,0h9q-.41-2.82-1-5.43H47.47C47.64,24.09,47.78,25.9,47.9,27.78Zm-10,0h9.54c-.12-1.87-.26-3.68-.43-5.43H38.09C38,24.07,38,25.88,37.93,27.78Zm-9.76,0h9.37c.05-1.82.1-3.64.16-5.43H28.9C28.62,24.09,28.37,25.9,28.17,27.78Zm-8.91,0h8.52c.2-1.87.45-3.69.73-5.43h-8Q19.79,25,19.26,27.78Zm-7.46,0h7.05c.35-1.87.77-3.69,1.26-5.43h-6.6A46.44,46.44,0,0,0,11.8,27.78Zm-5.5,0h5.09a47,47,0,0,1,1.69-5.43H8.34A44,44,0,0,0,6.3,27.78Zm-3.16,0H5.88a42.93,42.93,0,0,1,2-5.43H5.37A40.43,40.43,0,0,0,3.14,27.78Zm-.7,0h.28a40.84,40.84,0,0,1,2.2-5.43H4.71A40.61,40.61,0,0,0,2.44,27.78Zm72-5.83H75.8a40.83,40.83,0,0,0-3.07-5H71.52A42.11,42.11,0,0,1,74.39,22Zm-4.17,0h3.72A39.76,39.76,0,0,0,71,17H67.7A41.46,41.46,0,0,1,70.22,22ZM64,22h5.75a43.15,43.15,0,0,0-2.55-5H62A48.31,48.31,0,0,1,64,22Zm-7.79,0h7.37a46.22,46.22,0,0,0-2-5H54.91Q55.66,19.34,56.25,22Zm-8.82,0h8.43q-.6-2.61-1.35-5H46.85C47.07,18.55,47.26,20.21,47.43,22ZM38.1,22H47c-.18-1.73-.37-3.4-.59-5H38.32C38.24,18.53,38.17,20.19,38.1,22ZM29,22h8.74q.09-2.55.21-5H30Q29.41,19.34,29,22Zm-8.33,0h7.94c.3-1.74.63-3.4,1-5H22.35C21.72,18.55,21.14,20.21,20.64,22Zm-7,0h6.57q.75-2.61,1.7-5H16A43.69,43.69,0,0,0,13.66,22ZM8.53,22h4.71a43.51,43.51,0,0,1,2.29-5H11.29A41.41,41.41,0,0,0,8.53,22Zm-3,0H8.08a41.29,41.29,0,0,1,2.74-5H8.6A39.36,39.36,0,0,0,5.57,22Zm-.65,0h.2a41.49,41.49,0,0,1,3-5H8A38.57,38.57,0,0,0,4.92,22Zm66.32-5.38h1.19a40.5,40.5,0,0,0-3.78-4.39h-.93A40.51,40.51,0,0,1,71.24,16.57Zm-3.78,0h3.29a39.85,39.85,0,0,0-3.58-4.39h-2.8A39.64,39.64,0,0,1,67.46,16.57Zm-5.61,0H67a40,40,0,0,0-3.14-4.39H59.4A41.89,41.89,0,0,1,61.85,16.57Zm-7.06,0h6.62a42,42,0,0,0-2.48-4.39H53.14C53.73,13.55,54.28,15,54.79,16.57Zm-8,0h7.58a46.73,46.73,0,0,0-1.65-4.39H46.08C46.34,13.55,46.58,15,46.8,16.57Zm-8.46,0h8c-.22-1.55-.46-3-.71-4.39h-7C38.51,13.53,38.42,15,38.34,16.57Zm-8.28,0h7.88c.07-1.52.16-3,.25-4.39H31.28C30.84,13.55,30.43,15,30.06,16.57Zm-7.54,0h7.16c.37-1.55.78-3,1.22-4.39H24.63A42.51,42.51,0,0,0,22.52,16.57Zm-6.31,0H22.1a40.49,40.49,0,0,1,2.09-4.39H19.07A39.43,39.43,0,0,0,16.21,16.57Zm-4.65,0h4.19a39.17,39.17,0,0,1,2.82-4.39H15A40.74,40.74,0,0,0,11.56,16.57Zm-2.67,0h2.19a39.11,39.11,0,0,1,3.35-4.39H12.61A40,40,0,0,0,8.89,16.57Zm-.6,0h.1a39.28,39.28,0,0,1,2.69-3.34A40.45,40.45,0,0,0,8.29,16.57Zm59.05-4.79h.9a39.46,39.46,0,0,0-4.36-3.7H63.3A38.19,38.19,0,0,1,67.34,11.78Zm-3.3,0h2.74a38,38,0,0,0-4.13-3.7H60.5A36.55,36.55,0,0,1,64,11.78Zm-4.9,0h4.38a37.29,37.29,0,0,0-3.62-3.7H56.33A34.53,34.53,0,0,1,59.14,11.78Zm-6.17,0h5.69a32.67,32.67,0,0,0-2.86-3.7H51.08A35.48,35.48,0,0,1,53,11.78Zm-7,0h6.56a34.53,34.53,0,0,0-1.91-3.7H45.18C45.47,9.21,45.75,10.45,46,11.78Zm-7.37,0h6.93c-.26-1.33-.53-2.57-.82-3.7H38.93C38.83,9.2,38.73,10.43,38.63,11.78Zm-7.22,0h6.81c.09-1.31.19-2.55.3-3.7h-5.7C32.32,9.21,31.85,10.44,31.41,11.78Zm-6.55,0H31c.44-1.33.91-2.57,1.41-3.7H27.29A32.87,32.87,0,0,0,24.86,11.78Zm-5.49,0h5a33.66,33.66,0,0,1,2.4-3.7H22.66A34.56,34.56,0,0,0,19.37,11.78Zm-4,0h3.54a35.08,35.08,0,0,1,3.23-3.7H19.25A37.93,37.93,0,0,0,15.33,11.78Zm-2.32,0h1.78a38.15,38.15,0,0,1,3.83-3.7H17.29A39.56,39.56,0,0,0,13,11.78Zm49.78-4.1h.54a39.94,39.94,0,0,0-4.78-2.89h-.12A38.28,38.28,0,0,1,62.79,7.68ZM60,7.68h2.08A36.84,36.84,0,0,0,57.6,4.79H56.22A33,33,0,0,1,60,7.68ZM56,7.68h3.46a32.29,32.29,0,0,0-4-2.89H52.94A28.29,28.29,0,0,1,56,7.68Zm-5.13,0h4.6a27.2,27.2,0,0,0-3.13-2.89h-3.5A24.15,24.15,0,0,1,50.84,7.68Zm-5.77,0h5.34a23.86,23.86,0,0,0-2.08-2.89H44.17C44.49,5.65,44.79,6.61,45.07,7.68Zm-6.1,0h5.66c-.28-1.07-.58-2-.89-2.89H39.29C39.18,5.63,39.08,6.6,39,7.68Zm-6,0h5.56c.1-1,.21-2,.33-2.89H34.54A24.21,24.21,0,0,0,33,7.68Zm-5.4,0h5a25.87,25.87,0,0,1,1.51-2.89H30.27A24.83,24.83,0,0,0,27.6,7.68Zm-4.51,0h4A27.07,27.07,0,0,1,29.7,4.79h-3A29.59,29.59,0,0,0,23.09,7.68Zm-3.33,0h2.75A31.36,31.36,0,0,1,26,4.79H24.06A34.37,34.37,0,0,0,19.76,7.68Zm-1.92,0h1.27a36.68,36.68,0,0,1,4.15-2.89h-.72A39.76,39.76,0,0,0,17.84,7.68ZM57.7,4.38h0l-.47-.22Zm-2.12,0h1.26a36.23,36.23,0,0,0-4.71-2h-.41A31.41,31.41,0,0,1,55.58,4.38Zm-3.15,0H54.8a29.16,29.16,0,0,0-4.13-2H49.38A23.59,23.59,0,0,1,52.43,4.38Zm-4,0h3.31a21.87,21.87,0,0,0-3.26-2h-2.1A17.57,17.57,0,0,1,48.47,4.38ZM44,4.38H48a14.45,14.45,0,0,0-2.17-2H43.11A16,16,0,0,1,44,4.38Zm-4.67,0h4.24a14.17,14.17,0,0,0-.92-2h-3C39.56,2.93,39.46,3.6,39.35,4.38Zm-4.55,0H39c.11-.76.22-1.43.35-2H36.4A13.71,13.71,0,0,0,34.8,4.38Zm-4.09,0h3.67a17,17,0,0,1,1.53-2H33.49A18.93,18.93,0,0,0,30.71,4.38Zm-3.41,0h2.83a20.21,20.21,0,0,1,2.61-2H31.05A26.09,26.09,0,0,0,27.3,4.38Zm-2.52,0h1.79a28.71,28.71,0,0,1,3.52-2h-.83A33.3,33.3,0,0,0,24.78,4.38Zm-1.45,0H24a34.43,34.43,0,0,1,3.71-1.82A38.42,38.42,0,0,0,23.33,4.38ZM50.75,2h.14l-.64-.19ZM48.6,2h1a26.24,26.24,0,0,0-3-.87A20.15,20.15,0,0,1,48.6,2ZM45.9,2h1.76A18.65,18.65,0,0,0,44.53.9h-.38A11.58,11.58,0,0,1,45.9,2Zm-3,0h2.36A10.08,10.08,0,0,0,43.15.9H42.09A6.91,6.91,0,0,1,42.88,2ZM39.75,2h2.68A5,5,0,0,0,41.55.9h-1.5A7.51,7.51,0,0,0,39.75,2ZM36.82,2h2.57A9,9,0,0,1,39.7.9H38.37A7.07,7.07,0,0,0,36.82,2Zm-2.6,0H36.3A8.43,8.43,0,0,1,37.61.9h-.72A14.46,14.46,0,0,0,34.22,2ZM32,2H33.4A15.41,15.41,0,0,1,35.61.91,23.24,23.24,0,0,0,32,2ZM30.43,2H31c.49-.21,1-.4,1.48-.58C31.77,1.56,31.09,1.75,30.43,2ZM40.25.5h.65a1.24,1.24,0,0,0-.5-.1A.26.26,0,0,0,40.25.5Zm-.74,0h.36a.43.43,0,0,1,0-.07Z"/></g></g></svg>