<svg xmlns="http://www.w3.org/2000/svg" viewBox="0 0 917.75 660.69"><defs><style>.cls-1{opacity:0.8;}.cls-2{fill:#5fffe8;}</style></defs><title>资源 15</title><g id="图层_2" data-name="图层 2"><g id="央铋_1" data-name="央铋 1"><g class="cls-1"><rect class="cls-2" x="410.96" y="59.4" width="3.41" height="17.66" transform="translate(-1.98 13.29) rotate(-1.84)"/><rect class="cls-2" x="391.62" y="61.48" width="3.41" height="17.66" transform="translate(-5.92 54.41) rotate(-7.85)"/><rect class="cls-2" x="372.6" y="65.58" width="3.41" height="17.65" transform="translate(-6.93 91.85) rotate(-13.86)"/><rect class="cls-2" x="354.11" y="71.65" width="3.4" height="17.66" transform="translate(-6.14 125.98) rotate(-19.91)"/><rect class="cls-2" x="336.36" y="79.61" width="3.4" height="17.66" transform="translate(-4.65 156.68) rotate(-25.92)"/><rect class="cls-2" x="319.54" y="89.39" width="3.4" height="17.65" transform="translate(-3.43 184.42) rotate(-31.87)"/><rect class="cls-2" x="303.84" y="100.86" width="3.4" height="17.66" transform="translate(-2.99 210.66) rotate(-37.87)"/><rect class="cls-2" x="289.42" y="113.92" width="3.4" height="17.66" transform="translate(-3.98 235.6) rotate(-43.79)"/><rect class="cls-2" x="276.44" y="128.42" width="3.4" height="17.66" transform="translate(-6.03 261.52) rotate(-49.88)"/><rect class="cls-2" x="265.05" y="144.19" width="3.41" height="17.66" transform="matrix(0.56, -0.83, 0.83, 0.56, -9.65, 287.82)"/><rect class="cls-2" x="255.37" y="161.07" width="3.4" height="17.65" transform="translate(-13.94 316.53) rotate(-61.88)"/><rect class="cls-2" x="247.51" y="178.86" width="3.4" height="17.66" transform="translate(-18.76 347.44) rotate(-67.79)"/><rect class="cls-2" x="241.55" y="197.38" width="3.41" height="17.66" transform="translate(-22.52 382.44) rotate(-73.84)"/><polygon class="cls-2" points="248.25 225.13 247.65 228.47 230.27 225.37 230.87 222.01 248.25 225.13"/><rect class="cls-2" x="235.58" y="235.77" width="3.41" height="17.66" transform="matrix(0.07, -1, 1, 0.07, -23.97, 463.42)"/><rect class="cls-2" x="228.51" y="262.35" width="17.65" height="3.41" transform="translate(-8.33 7.73) rotate(-1.83)"/><rect class="cls-2" x="230.59" y="281.7" width="17.66" height="3.4" transform="translate(-36.29 35.16) rotate(-7.81)"/><polygon class="cls-2" points="251.68 298.65 252.5 301.95 235.36 306.18 234.54 302.87 251.68 298.65"/><polygon class="cls-2" points="257.31 316.3 258.46 319.5 241.86 325.5 240.7 322.29 257.31 316.3"/><polygon class="cls-2" points="264.75 333.27 266.23 336.33 250.35 344.04 248.85 340.97 264.75 333.27"/><polygon class="cls-2" points="273.92 349.37 275.72 352.25 260.72 361.58 258.92 358.68 273.92 349.37"/><polygon class="cls-2" points="284.73 364.42 286.81 367.11 272.88 377.94 270.78 375.25 284.73 364.42"/><polygon class="cls-2" points="297.05 378.27 299.4 380.71 286.67 392.94 284.31 390.48 297.05 378.27"/><polygon class="cls-2" points="310.75 390.73 313.34 392.93 301.96 406.42 299.36 404.23 310.75 390.73"/><polygon class="cls-2" points="325.68 401.71 328.49 403.62 318.58 418.23 315.75 416.32 325.68 401.71"/><polygon class="cls-2" points="341.67 411.07 344.67 412.67 336.34 428.23 333.33 426.63 341.67 411.07"/><polygon class="cls-2" points="358.55 418.69 361.7 419.97 355.04 436.32 351.88 435.05 358.55 418.69"/><polygon class="cls-2" points="581.08 174.34 579.6 171.28 595.48 163.58 596.98 166.65 581.08 174.34"/><polygon class="cls-2" points="571.9 158.25 570.11 155.36 585.1 146.04 586.91 148.93 571.9 158.25"/><polygon class="cls-2" points="561.1 143.2 559.02 140.51 572.95 129.68 575.05 132.36 561.1 143.2"/><polygon class="cls-2" points="548.78 129.36 546.42 126.91 559.15 114.67 561.52 117.13 548.78 129.36"/><polygon class="cls-2" points="535.08 116.88 532.48 114.69 543.86 101.19 546.47 103.39 535.08 116.88"/><polygon class="cls-2" points="520.15 105.91 517.34 104 527.25 89.39 530.07 91.3 520.15 105.91"/><polygon class="cls-2" points="504.16 96.55 501.17 94.95 509.49 79.38 512.5 80.98 504.16 96.55"/><polygon class="cls-2" points="487.28 88.92 484.13 87.64 490.78 71.29 493.94 72.56 487.28 88.92"/><polygon class="cls-2" points="469.69 83.1 466.43 82.15 471.33 65.19 474.61 66.14 469.69 83.1"/><polygon class="cls-2" points="451.59 79.15 448.25 78.54 451.35 61.16 454.71 61.76 451.59 79.15"/><polygon class="cls-2" points="433.18 77.11 429.79 76.86 431.06 59.25 434.46 59.49 433.18 77.11"/><rect class="cls-2" x="417.01" y="41.63" width="3.38" height="35.07"/><rect class="cls-2" x="396.73" y="42.86" width="3.38" height="35.07" transform="translate(-4.13 41.96) rotate(-6)"/><rect class="cls-2" x="376.68" y="46.22" width="3.38" height="35.07" transform="translate(-4.99 80.07) rotate(-12)"/><rect class="cls-2" x="357.1" y="51.65" width="3.38" height="35.07" transform="matrix(0.95, -0.31, 0.31, 0.95, -3.84, 114.07)"/><rect class="cls-2" x="338.18" y="59.1" width="3.38" height="35.07" transform="translate(-1.84 144.6) rotate(-23.96)"/><rect class="cls-2" x="320.16" y="68.48" width="3.38" height="35.07" transform="translate(0.1 172.41) rotate(-29.99)"/><rect class="cls-2" x="303.21" y="79.69" width="3.38" height="35.07" transform="translate(1.11 197.89) rotate(-36.02)"/><rect class="cls-2" x="287.52" y="92.62" width="3.38" height="35.07" transform="translate(0.41 221.38) rotate(-41.91)"/><rect class="cls-2" x="273.28" y="107.12" width="3.38" height="35.07" transform="translate(-1.71 245.48) rotate(-47.98)"/><rect class="cls-2" x="260.62" y="123.02" width="3.38" height="35.07" transform="matrix(0.59, -0.81, 0.81, 0.59, -5.64, 270.05)"/><rect class="cls-2" x="249.7" y="140.16" width="3.38" height="35.07" transform="translate(-10.87 296.58) rotate(-60)"/><rect class="cls-2" x="240.63" y="158.35" width="3.38" height="35.07" transform="translate(-17.15 325.33) rotate(-65.91)"/><rect class="cls-2" x="233.51" y="177.39" width="3.38" height="35.07" transform="translate(-22.96 358.23) rotate(-71.97)"/><polygon class="cls-2" points="247.62 216.6 246.91 219.91 212.61 212.61 213.31 209.31 247.62 216.6"/><polygon class="cls-2" points="244.72 234.85 244.37 238.22 209.49 234.55 209.84 231.2 244.72 234.85"/><rect class="cls-2" x="224.53" y="237.47" width="3.38" height="35.07" transform="matrix(0, -1, 1, 0, -29.02, 480.97)"/><rect class="cls-2" x="209.92" y="273.61" width="35.07" height="3.38" transform="translate(-27.23 24.98) rotate(-5.93)"/><rect class="cls-2" x="213.28" y="293.66" width="35.07" height="3.38" transform="translate(-55.94 53.94) rotate(-11.9)"/><rect class="cls-2" x="218.7" y="313.24" width="35.07" height="3.38" transform="translate(-85.72 88.37) rotate(-17.99)"/><polygon class="cls-2" points="259.03 325.16 260.39 328.25 228.36 342.52 226.98 339.43 259.03 325.16"/><polygon class="cls-2" points="267.42 341.63 269.1 344.56 238.73 362.1 237.05 359.18 267.42 341.63"/><polygon class="cls-2" points="277.49 357.14 279.47 359.88 251.1 380.49 249.12 377.76 277.49 357.14"/><rect class="cls-2" x="259.68" y="382.81" width="35.07" height="3.38" transform="matrix(0.74, -0.67, 0.67, 0.74, -185.92, 283.52)"/><polygon class="cls-2" points="302.19 384.58 304.7 386.85 281.24 412.92 278.73 410.65 302.19 384.58"/><rect class="cls-2" x="290.08" y="409.71" width="35.07" height="3.38" transform="translate(-206.04 417.32) rotate(-53.87)"/><polygon class="cls-2" points="332.06 406.29 334.99 407.98 317.46 438.36 314.53 436.66 332.06 406.29"/><rect class="cls-2" x="325.41" y="429.7" width="35.07" height="3.38" transform="translate(-190.92 568.14) rotate(-65.88)"/><polygon class="cls-2" points="573.36 165.02 571.68 162.1 602.04 144.55 603.72 147.48 573.36 165.02"/><polygon class="cls-2" points="563.29 149.51 561.31 146.78 589.67 126.16 591.65 128.9 563.29 149.51"/><polygon class="cls-2" points="551.65 135.15 549.4 132.64 575.45 109.16 577.71 111.68 551.65 135.15"/><polygon class="cls-2" points="538.58 122.07 536.08 119.81 559.53 93.74 562.04 96.01 538.58 122.07"/><polygon class="cls-2" points="524.22 110.44 521.49 108.45 542.09 80.07 544.82 82.06 524.22 110.44"/><polygon class="cls-2" points="508.71 100.37 505.79 98.67 523.31 68.3 526.24 69.99 508.71 100.37"/><polygon class="cls-2" points="492.24 91.97 489.16 90.6 503.41 58.55 506.5 59.93 492.24 91.97"/><polygon class="cls-2" points="474.98 85.35 471.77 84.3 482.59 50.94 485.81 51.99 474.98 85.35"/><polygon class="cls-2" points="457.12 80.56 453.82 79.85 461.1 45.55 464.41 46.26 457.12 80.56"/><polygon class="cls-2" points="438.86 77.66 435.51 77.31 439.15 42.43 442.52 42.79 438.86 77.66"/><path class="cls-2" d="M640,253c0,47.16-11.44,86.69-30.63,118.59l-5.33-3.36c-.92,1.52-1.85,3-2.81,4.51l5.25,3.5q-5.4,8.43-11.5,16.11c-1.65-1.32-3.28-2.64-4.93-3.95-1.07,1.35-2.17,2.69-3.28,4l4.83,4.07a204.18,204.18,0,0,1-74.07,55.13c-.91-1.88-1.82-3.75-2.72-5.63-1.54.68-3.08,1.35-4.63,2,.86,1.9,1.72,3.79,2.59,5.69a238.74,238.74,0,0,1-93.11,17.93c0-2.06,0-4.13.05-6.19-1.69,0-3.38,0-5.07-.09-.07,2.06-.13,4.13-.2,6.19a237,237,0,0,1-89.17-19.89q1.37-2.81,2.72-5.63-2.29-1-4.58-2.1-1.43,2.79-2.86,5.57c-34.13-16.11-64.06-41-85.2-74.75l5.27-3.45c-.94-1.5-1.87-3-2.77-4.55L232.5,370A201.11,201.11,0,0,1,220,344.87l5.71-2.6q-1.07-2.58-2.07-5.2l-5.77,2.45c-9.65-25.24-15.07-54.09-15.07-86.56H176.89c0,36.32,6.07,68.59,16.86,96.82l-7.87,3.35q1.2,3.14,2.47,6.19l7.78-3.55a224.64,224.64,0,0,0,14,28.08l-7.3,4.52c1.08,1.83,2.17,3.64,3.3,5.42l7.19-4.7c23.65,37.71,57.13,65.58,95.31,83.62l-3.9,7.59c1.81.85,3.63,1.69,5.46,2.5q1.84-3.84,3.71-7.68a265,265,0,0,0,99.75,22.25l-.27,8.44c2,.06,4,.09,6,.11l.06-8.45a267.22,267.22,0,0,0,104.15-20.06l3.53,7.76c1.84-.77,3.69-1.56,5.52-2.38-1.25-2.55-2.48-5.11-3.72-7.67,31.52-14,60.07-34.55,82.85-61.67l6.58,5.55c1.32-1.58,2.62-3.17,3.9-4.79l-6.71-5.38a216.13,216.13,0,0,0,12.87-18l7.16,4.76c1.13-1.77,2.25-3.56,3.34-5.38l-7.27-4.58c21.46-35.68,34.27-79.9,34.27-132.65Zm-459.65,7.62,19.15-.61c.73,30.13,6.13,57.09,15.22,80.89l-17.83,7.59C187,322.6,181.15,293.31,180.36,260.58Zm18.88,93.77,17.65-8.06a204.67,204.67,0,0,0,12.7,25.5L213,382A221.85,221.85,0,0,1,199.24,354.35Zm16.94,32.86,16.3-10.66c21.47,34.23,51.86,59.53,86.52,75.9l-8.83,17.22C272.51,451.89,239.5,424.4,216.18,387.21Zm99.19,84.84q4.22-8.7,8.42-17.41a240.66,240.66,0,0,0,90.56,20.21q-.32,9.57-.62,19.14A261.36,261.36,0,0,1,315.37,472.05Zm104.12,22,.15-19.16a242.43,242.43,0,0,0,94.55-18.2l8,17.58A263.34,263.34,0,0,1,419.49,494.09Zm108-22q-4.22-8.7-8.42-17.41a207.54,207.54,0,0,0,75.21-56l14.92,12.57C586.7,438,558.54,458.25,527.45,472.05Zm85.43-65.38-15.21-12.21a196.18,196.18,0,0,0,11.68-16.36l16.22,10.8A216.47,216.47,0,0,1,612.88,406.67Zm49.58-146.09c-1.18,48.67-13.58,89.74-33.71,123.19q-8.22-5.19-16.46-10.39c18.52-30.8,29.94-68.6,31-113.41Z"/><path class="cls-2" d="M202.81,253c0-47.16,11.44-86.69,30.63-118.59l5.33,3.36c.92-1.52,1.85-3,2.81-4.52l-5.25-3.49a191.84,191.84,0,0,1,11.5-16.11l4.92,4c1.08-1.36,2.18-2.69,3.28-4l-4.82-4.08a204.46,204.46,0,0,1,74.06-55.13c.92,1.89,1.82,3.76,2.73,5.64,1.54-.68,3.08-1.35,4.63-2q-1.29-2.85-2.59-5.7a238.7,238.7,0,0,1,93.11-17.93c0,2.07,0,4.14,0,6.2q2.53,0,5.07.09c.06-2.07.13-4.13.19-6.2a237,237,0,0,1,89.18,19.89L514.81,60q2.31,1,4.58,2.09,1.44-2.77,2.86-5.57c34.13,16.12,64.07,41,85.21,74.75l-5.27,3.46q1.41,2.25,2.77,4.55l5.35-3.32a201.7,201.7,0,0,1,12.5,25.1l-5.71,2.61c.71,1.71,1.4,3.45,2.07,5.2l5.77-2.45C634.58,191.63,640,220.49,640,253h25.92c0-36.32-6.07-68.6-16.86-96.83l7.87-3.34c-.8-2.09-1.62-4.15-2.47-6.2l-7.78,3.56a224,224,0,0,0-14-28.08l7.3-4.52q-1.62-2.74-3.3-5.43l-7.19,4.71c-23.65-37.72-57.13-65.59-95.31-83.62l3.9-7.59c-1.81-.85-3.63-1.69-5.46-2.5q-1.86,3.84-3.71,7.68A265.06,265.06,0,0,0,429.19,8.55l.27-8.44c-2-.06-4-.1-6-.11,0,2.82,0,5.63-.07,8.45A266.81,266.81,0,0,0,319.21,28.51l-3.53-7.76q-2.78,1.16-5.52,2.37l3.72,7.68c-31.53,14-60.08,34.54-82.85,61.66l-6.58-5.54c-1.32,1.57-2.62,3.17-3.91,4.78l6.71,5.39a220.87,220.87,0,0,0-12.87,18l-7.15-4.77c-1.14,1.78-2.25,3.57-3.34,5.39l7.26,4.58C189.69,156,176.89,200.2,176.89,253Zm459.64-7.62-19.14.61c-.73-30.13-6.13-57.1-15.22-80.89l17.83-7.59C655.8,183.32,661.67,212.61,662.45,245.34Zm-18.88-93.77-17.65,8.05a203.8,203.8,0,0,0-12.69-25.49l16.56-10.25A221.81,221.81,0,0,1,643.57,151.57Zm-16.93-32.86-16.3,10.66c-21.47-34.24-51.87-59.54-86.53-75.9l8.84-17.22C570.3,54,603.32,81.52,626.64,118.71ZM527.45,33.87,519,51.27a240.75,240.75,0,0,0-90.55-20.2q.3-9.57.61-19.14A261.36,261.36,0,0,1,527.45,33.87Zm-104.12-22c-.06,6.39-.1,12.77-.16,19.16a242.57,242.57,0,0,0-94.54,18.21l-8-17.58A263.53,263.53,0,0,1,423.33,11.82Zm-108,22,8.43,17.4a207.6,207.6,0,0,0-75.22,56L233.66,94.68C256.12,67.94,284.27,47.67,315.36,33.87ZM229.94,99.24l15.21,12.22a196.11,196.11,0,0,0-11.69,16.35L217.25,117A211.78,211.78,0,0,1,229.94,99.24Zm-49.58,146.1c1.17-48.67,13.58-89.74,33.7-123.2l16.47,10.39c-18.52,30.81-29.94,68.61-31,113.42Z"/><path class="cls-2" d="M421.41,407.62c-85.28,0-154.66-69.38-154.66-154.66S336.13,98.3,421.41,98.3,576.07,167.68,576.07,253,506.69,407.62,421.41,407.62Zm0-307.63c-84.35,0-153,68.62-153,153s68.62,153,153,153,153-68.63,153-153S505.75,100,421.41,100Zm0,304.25C338,404.24,270.13,336.37,270.13,253S338,101.68,421.41,101.68,572.69,169.54,572.69,253,504.82,404.24,421.41,404.24Zm0-300.87c-82.48,0-149.59,67.11-149.59,149.59s67.11,149.59,149.59,149.59S571,335.44,571,253,503.89,103.37,421.41,103.37Z"/><path class="cls-2" d="M421.41,381.7A128.89,128.89,0,0,1,292.67,253c0-71,57.75-128.73,128.74-128.73S550.15,182,550.15,253,492.39,381.7,421.41,381.7Zm0-255.79A127,127,0,1,0,548.46,253,127.19,127.19,0,0,0,421.41,125.91Zm0,252.41A125.36,125.36,0,1,1,546.77,253,125.5,125.5,0,0,1,421.41,378.32Zm0-249A123.67,123.67,0,1,0,545.07,253,123.8,123.8,0,0,0,421.41,129.3Z"/><path class="cls-2" d="M603.72,566.72c-103.26,0-187.28-84-187.28-187.28s84-187.28,187.28-187.28S791,276.17,791,379.44,707,566.72,603.72,566.72Zm0-371.18c-101.4,0-183.9,82.49-183.9,183.9s82.5,183.9,183.9,183.9,183.9-82.5,183.9-183.9S705.12,195.54,603.72,195.54Z"/><path class="cls-2" d="M603.72,511.2C531.07,511.2,472,452.09,472,379.44s59.11-131.77,131.76-131.77,131.76,59.11,131.76,131.77S676.38,511.2,603.72,511.2Zm0-260.15c-70.79,0-128.38,57.6-128.38,128.39a128.38,128.38,0,1,0,256.76,0C732.1,308.65,674.51,251.05,603.72,251.05Z"/><path class="cls-2" d="M417,660.69c-77.77,0-141-63.28-141-141.05s63.27-141,141-141,141,63.28,141,141.05S494.79,660.69,417,660.69Zm0-280.41c-76.84,0-139.35,62.52-139.35,139.36S340.17,659,417,659s139.36-62.52,139.36-139.36S493.86,380.28,417,380.28Z"/><path class="cls-2" d="M418.7,660.69a99.11,99.11,0,1,1,99.11-99.11A99.22,99.22,0,0,1,418.7,660.69Zm0-196.53a97.42,97.42,0,1,0,97.42,97.42A97.53,97.53,0,0,0,418.7,464.16Z"/><polygon class="cls-2" points="753.5 225.85 541.75 225.85 541.75 223.31 752.45 223.31 824.21 151.55 897.49 151.55 897.49 154.09 825.26 154.09 753.5 225.85"/><polygon class="cls-2" points="200.71 474.44 134.68 474.44 96.15 435.91 5.9 435.91 5.9 433.37 97.2 433.37 135.73 471.9 199.66 471.9 419.5 252.07 421.29 253.85 200.71 474.44"/><polygon class="cls-2" points="308.79 203.22 112.7 203.22 78.04 168.56 31.25 168.56 31.25 166.02 79.09 166.02 113.75 200.68 308.79 200.68 308.79 203.22"/><polygon class="cls-2" points="911.85 537.55 747.73 537.55 689.58 479.39 691.37 477.59 748.78 535.01 911.85 535.01 911.85 537.55"/><path class="cls-2" d="M683.68,477.59a5.9,5.9,0,1,1,5.89,5.9A5.89,5.89,0,0,1,683.68,477.59Z"/><path class="cls-2" d="M538.35,224.7a5.9,5.9,0,1,1,5.9,5.9A5.9,5.9,0,0,1,538.35,224.7Z"/><path class="cls-2" d="M746.74,224.7a5.9,5.9,0,1,1,5.89,5.9A5.9,5.9,0,0,1,746.74,224.7Z"/><path class="cls-2" d="M819.06,154a5.9,5.9,0,1,1,5.89,5.89A5.9,5.9,0,0,1,819.06,154Z"/><path class="cls-2" d="M722.51,517.1a5.9,5.9,0,1,1,5.9,5.89A5.9,5.9,0,0,1,722.51,517.1Z"/><path class="cls-2" d="M742,536.6a5.9,5.9,0,1,1,5.89,5.9A5.89,5.89,0,0,1,742,536.6Z"/><path class="cls-2" d="M891.59,152.74a5.9,5.9,0,1,1,5.89,5.89A5.9,5.9,0,0,1,891.59,152.74Z"/><path class="cls-2" d="M415.51,253a5.9,5.9,0,1,1,5.9,5.89A5.9,5.9,0,0,1,415.51,253Z"/><path class="cls-2" d="M326.14,341.91a5.9,5.9,0,1,1,5.9,5.89A5.9,5.9,0,0,1,326.14,341.91Z"/><path class="cls-2" d="M307.45,360a5.9,5.9,0,1,1,5.89,5.89A5.9,5.9,0,0,1,307.45,360Z"/><path class="cls-2" d="M257.16,411.4a5.9,5.9,0,1,1,5.9,5.9A5.9,5.9,0,0,1,257.16,411.4Z"/><path class="cls-2" d="M239.18,428.23a5.9,5.9,0,1,1,5.89,5.89A5.9,5.9,0,0,1,239.18,428.23Z"/><path class="cls-2" d="M194.39,472.46a5.9,5.9,0,1,1,5.89,5.9A5.89,5.89,0,0,1,194.39,472.46Z"/><path class="cls-2" d="M129.17,472.46a5.9,5.9,0,1,1,5.9,5.9A5.9,5.9,0,0,1,129.17,472.46Z"/><path class="cls-2" d="M90.72,434.43a5.9,5.9,0,1,1,5.9,5.9A5.89,5.89,0,0,1,90.72,434.43Z"/><path class="cls-2" d="M299.64,202a5.9,5.9,0,1,1,5.9,5.9A5.9,5.9,0,0,1,299.64,202Z"/><path class="cls-2" d="M272.24,202a5.9,5.9,0,1,1,5.9,5.9A5.9,5.9,0,0,1,272.24,202Z"/><path class="cls-2" d="M200.82,202a5.9,5.9,0,1,1,5.89,5.9A5.89,5.89,0,0,1,200.82,202Z"/><path class="cls-2" d="M176.89,202a5.9,5.9,0,1,1,5.9,5.9A5.9,5.9,0,0,1,176.89,202Z"/><path class="cls-2" d="M107.59,202a5.9,5.9,0,1,1,5.9,5.9A5.9,5.9,0,0,1,107.59,202Z"/><path class="cls-2" d="M72.66,167.22a5.9,5.9,0,1,1,5.9,5.89A5.9,5.9,0,0,1,72.66,167.22Z"/><path class="cls-2" d="M25.35,167.22a5.9,5.9,0,1,1,5.9,5.89A5.9,5.9,0,0,1,25.35,167.22Z"/><path class="cls-2" d="M0,434.43a5.9,5.9,0,1,1,5.9,5.9A5.89,5.89,0,0,1,0,434.43Z"/><path class="cls-2" d="M906,536.47a5.9,5.9,0,1,1,5.89,5.89A5.9,5.9,0,0,1,906,536.47Z"/></g></g></g></svg>