<svg xmlns="http://www.w3.org/2000/svg" xmlns:xlink="http://www.w3.org/1999/xlink" viewBox="0 0 732.32 614.22"><defs><style>.cls-1,.cls-10,.cls-11,.cls-12,.cls-13,.cls-14,.cls-16,.cls-20,.cls-21,.cls-22,.cls-24,.cls-3,.cls-4,.cls-5,.cls-6,.cls-7,.cls-8,.cls-9{fill:none;}.cls-2{clip-path:url(#clip-path);}.cls-10,.cls-12,.cls-13,.cls-14,.cls-16,.cls-21,.cls-22,.cls-3,.cls-4,.cls-7,.cls-8,.cls-9{stroke:#46d0f0;}.cls-10,.cls-11,.cls-12,.cls-13,.cls-14,.cls-16,.cls-20,.cls-21,.cls-22,.cls-24,.cls-3,.cls-4,.cls-5,.cls-6,.cls-7,.cls-8,.cls-9{stroke-miterlimit:10;}.cls-10,.cls-20,.cls-3,.cls-5,.cls-7,.cls-8,.cls-9{stroke-width:1.26px;}.cls-4{stroke-width:0.63px;}.cls-11,.cls-20,.cls-24,.cls-5,.cls-6{stroke:#ff9e17;}.cls-5{stroke-dasharray:6.28 6.28;}.cls-13,.cls-6{stroke-width:0.94px;}.cls-7{stroke-dasharray:5.95 5.95;}.cls-8{stroke-dasharray:5.97 5.97;}.cls-9{stroke-dasharray:6.66 6.66;}.cls-10{stroke-dasharray:6.28 6.28;}.cls-11,.cls-14{stroke-width:1.25px;}.cls-12{stroke-width:3.77px;}.cls-15,.cls-17,.cls-18,.cls-19{fill:#46d0f0;}.cls-16{stroke-width:8.8px;stroke-dasharray:6.29 6.29;}.cls-17{opacity:0.75;}.cls-18{opacity:0.5;}.cls-19{opacity:0.25;}.cls-21{stroke-width:1.06px;}.cls-22{stroke-width:1.34px;}.cls-23{fill:#ff9e17;}</style><clipPath id="clip-path" transform="translate(0 -173.4)"><rect class="cls-1" x="116.21" width="1000" height="750"/></clipPath></defs><title>资源 1</title><g id="图层_2" data-name="图层 2"><g id="Layer_1" data-name="Layer 1"><g class="cls-2"><path class="cls-3" d="M453.75,420.27c-7.68-15.38-26.61-26.13-42.83-24.38-16.63,1.79-24.82,16.05-17.73,32.26,7.31,16.73,27.74,28.49,45,25.83C455,451.39,461.68,436.12,453.75,420.27Z" transform="translate(0 -173.4)"/><path class="cls-3" d="M585.37,343.15c-21.55-33.73-51-62.07-83.26-83.26L454.84,323.1c12.47,8.51,23.27,19.89,30.3,33.08,7.21,13.55,9.42,27.06,7.06,38.81l126.72,57.5C619.78,417.26,608.47,379.3,585.37,343.15Z" transform="translate(0 -173.4)"/><path class="cls-3" d="M415,528c-58.9-15.92-111.17-61.07-129.2-115.88L166.27,427.66c22.95,108.57,122.14,201.59,239.76,230Z" transform="translate(0 -173.4)"/><path class="cls-4" d="M326.59,516.19C267.43,469.52,238,402.83,253.12,347.12L39.89,288.48C-37.54,416-1.65,599.7,150.26,738.44Z" transform="translate(0 -173.4)"/><path class="cls-5" d="M413.41,635.75C278.2,604.24,165.94,496.37,143.55,371.92L23.19,387.58C35.58,575.22,196.6,745.56,403,786.86Z" transform="translate(0 -173.4)"/><path class="cls-6" d="M637.32,366.39C606.85,322.56,567.43,286.2,525.2,259l-11.77,15.73c37.13,24.15,71.38,56.44,97.15,95.13,27.92,41.91,42.75,86.52,43.59,128.61l39.05,17.72C689.88,466.3,670.72,414.43,637.32,366.39Z" transform="translate(0 -173.4)"/><path class="cls-3" d="M400.75,260.07c-1-.18-2.07-.36-3.1-.52l.61,3.08" transform="translate(0 -173.4)"/><line class="cls-7" x1="399.41" y1="95.07" x2="408.04" y2="138.89"/><path class="cls-3" d="M408.62,315.21l.6,3.08c1,.14,2.07.3,3.11.47" transform="translate(0 -173.4)"/><path class="cls-8" d="M418.19,319.87a133.74,133.74,0,0,1,46,19.94,131.14,131.14,0,0,1,37.62,38.13" transform="translate(0 -173.4)"/><path class="cls-3" d="M503.4,380.49c.54.9,1.06,1.81,1.57,2.72l3.11-.42" transform="translate(0 -173.4)"/><line class="cls-9" x1="514.69" y1="208.5" x2="564.21" y2="201.81"/><path class="cls-3" d="M567.51,374.76l3.11-.42c-.56-.88-1.12-1.77-1.69-2.65" transform="translate(0 -173.4)"/><path class="cls-10" d="M565.44,366.47c-17.64-25.65-41.62-49.3-70.53-68.28-29.3-19.24-60.71-31.74-91.07-37.55" transform="translate(0 -173.4)"/><path class="cls-11" d="M531.06,249.18c-47.55-30.28-98.24-50.09-147.18-59.54l1.36,6.9c47.29,9,96.32,28.1,142.27,57.45,47.13,30.11,86.94,68.36,116.69,110.42l8.27-1.12C621.27,319.76,579.87,280.26,531.06,249.18Z" transform="translate(0 -173.4)"/><path class="cls-12" d="M547.58,712.82l7.54,19.48c-73.3,22.58-164.34,13.79-254.1-34l7.63-18.84C392.87,724.19,478.35,733.05,547.58,712.82Z" transform="translate(0 -173.4)"/><path class="cls-13" d="M169.44,237.57l-11-6.79c.57-.42,1.14-.85,1.72-1.26,42.71-30.75,94.79-45.06,147.39-46.42l4.12,7.45c-50.5,1.6-100.22,15.79-140.58,45.78C170.52,236.74,170,237.16,169.44,237.57Z" transform="translate(0 -173.4)"/><path class="cls-14" d="M684.21,457.23,694.8,459c.3.73.61,1.45.9,2.18,24.87,61.4,29.57,123.31,13.37,177.94l-13.72-10.83c16.4-51.44,12.83-110.24-10.3-168.95C684.77,458.62,684.48,457.92,684.21,457.23Z" transform="translate(0 -173.4)"/><path class="cls-3" d="M390.44,506s-.46-2.68-.84-5.3c-.18-1.31-.36-2.61-.49-3.58s-.19-1.63-.19-1.63l-3.83-1.94-4.41-2.22-5.56-3.21L372,486.3l-3.29-2.15c-2.23-1.51-4.68-2.95-7-4.76l-3.59-2.65c-1.22-.89-2.46-1.78-3.61-2.79L350.9,471l-1.78-1.48-.9-.74-.84-.79c-2.25-2.11-4.53-4.17-6.69-6.27l-6.06-6.33c-1.85-2.12-3.58-4.2-5.24-6.14l-1.22-1.44-1.09-1.46L325,443.62c-2.72-3.46-4.54-6.53-5.94-8.61l-1.58-2.42-.5-.87s-2.63-.1-5.3-.27-5.39-.4-5.39-.4l-1.87-3.38c-1.06-2-2.27-4.78-3.56-7.49-.31-.68-.63-1.36-.94-2s-.51-1.33-.76-2c-.48-1.28-.94-2.47-1.33-3.49-.78-2-1.29-3.39-1.29-3.39l9.27-1.19,4.68-.61L312,411.3l1.55,3.93c.66,1.43,1.41,2.95,2.14,4.47l1.09,2.29c.36.76.72,1.5,1.14,2.2.8,1.41,1.56,2.73,2.2,3.87s1.18,2.09,1.56,2.75l.66,1,2,3,2.28,3.46,3.28,4.37a152.06,152.06,0,0,0,20.63,22.21c1,1,2.15,1.83,3.23,2.75l3.25,2.69,1.61,1.33,1.68,1.23,3.28,2.42c1.09.78,2.12,1.61,3.21,2.31l3.17,2.08c2.08,1.32,4,2.69,5.87,3.71,3.73,2.13,6.81,4,9.07,5.05l3.51,1.77,1.2.61c.38.18.83.43,1.37.68l1.81.79,4.55,2c.83.35,1.68.77,2.56,1.09l2.68,1,5.28,2c1.69.55,3.27,1,4.63,1.41l4.51,1.37-.29,4.71-.58,9.38-4-1.2c-2.42-.76-5.68-1.59-8.88-2.86l-4.72-1.73-2.18-.8-1.92-.83Z" transform="translate(0 -173.4)"/><path class="cls-15" d="M551.39,311.73s.22,1.74.39,3.45.27,3.42.27,3.42l1.15,1.1c.74.71,1.85,1.75,3.22,3.11s3,3,4.9,4.94l3,3.1c.51.55,1.06,1.1,1.59,1.69l1.64,1.79a292.15,292.15,0,0,1,29.66,38.39,255.16,255.16,0,0,1,22.3,42.84c.65,1.54,1.15,3,1.69,4.39s1.05,2.73,1.48,4c.85,2.51,1.62,4.71,2.21,6.53,1.11,3.63,1.74,5.72,1.74,5.72l1.44,1.19,3.12,2.64c2.28,1.94,4.58,3.95,4.58,3.95l.43,1.55c.23,1,.57,2.39,1,4.09.2.84.43,1.77.66,2.74l.63,3.06c.22,1.07.44,2.17.67,3.29s.4,2.26.6,3.4c.39,2.29.79,4.59,1,6.72s.6,4.18.73,5.88c.32,3.45.54,5.76.54,5.76l-8.06-3.2-4.12-1.64s-.22-2.74-.55-6.82c-.25-2.05-.5-4.42-.84-7-.2-1.28-.41-2.6-.61-3.93-.11-.67-.21-1.34-.31-2l-.39-2c-.26-1.36-.52-2.71-.77-4s-.59-2.64-.87-3.9-.57-2.47-.83-3.62-.6-2.24-.86-3.25-.51-1.91-.72-2.72-.45-1.52-.62-2.1l-.55-1.83-.42-1.4-.51-1.67c-.22-.66-.47-1.42-.76-2.27-.59-1.69-1.2-3.73-2.11-6.08l-1.39-3.71c-.46-1.3-1.07-2.67-1.64-4.1-1.1-2.83-2.5-5.89-3.93-9.11-.73-1.6-1.54-3.24-2.34-4.91s-1.66-3.36-2.55-5.08c-3.52-6.8-7.58-14-12.12-21s-9.24-13.67-14-19.85S570.7,341.59,566.55,337l-3-3.29c-1-1-1.9-2-2.76-2.93s-1.67-1.77-2.43-2.55l-2.12-2.13c-2.53-2.57-4-4-4-4l-1.4-1.34c-.88-.85-2.14-2.07-3.71-3.49s-3.34-3.1-5.35-4.83l-3-2.68L535.5,307c-2.12-1.83-4.35-3.55-6.38-5.21s-4-3.11-5.67-4.4l-5.62-4.16,1.55-1.68,3-3.27,4.68,3.44c2.79,2.1,6.5,4.92,10.11,7.86,1.84,1.44,3.61,3,5.29,4.36s3.23,2.74,4.54,3.89,2.44,2.12,3.19,2.81Z" transform="translate(0 -173.4)"/><path class="cls-16" d="M468.66,387.07c-12-23.16-40.55-39.33-65.16-37-25.54,2.44-38.81,24-28.28,49.06,11.07,26.38,43.23,45,70.28,40.46C471.47,435.26,481.18,411.34,468.66,387.07Z" transform="translate(0 -173.4)"/><path class="cls-15" d="M397.9,228.87l3.74,23.76a222.33,222.33,0,0,0-41.58-4L349,223.46A273.45,273.45,0,0,1,397.9,228.87Z" transform="translate(0 -173.4)"/><path class="cls-17" d="M349.78,248.83a176.61,176.61,0,0,0-39.65,6.38L289.37,230a221.33,221.33,0,0,1,47.48-6.46Z" transform="translate(0 -173.4)"/><path class="cls-18" d="M300.74,258.21a137.53,137.53,0,0,0-34.51,17.94l-30.86-22.86a174.72,174.72,0,0,1,42.58-20Z" transform="translate(0 -173.4)"/><path class="cls-19" d="M258.57,282.14a119.15,119.15,0,0,0-25.48,30L192.69,295a149.53,149.53,0,0,1,33-34.84Z" transform="translate(0 -173.4)"/><path class="cls-19" d="M395,180.13,399,206a258.47,258.47,0,0,0-46.71-5L340.2,173.51A317.64,317.64,0,0,1,395,180.13Z" transform="translate(0 -173.4)"/><path class="cls-18" d="M340.73,201.16a207.08,207.08,0,0,0-45.09,6.46l-23-27.93a260.36,260.36,0,0,1,53.89-6.29Z" transform="translate(0 -173.4)"/><path class="cls-17" d="M284.86,210.81a162.69,162.69,0,0,0-40.06,19.44l-34.75-25.74a208.15,208.15,0,0,1,49.5-21.44Z" transform="translate(0 -173.4)"/><path class="cls-15" d="M235.77,236.84a140,140,0,0,0-30.65,33.42l-46.43-19.73A178.18,178.18,0,0,1,198.64,212Z" transform="translate(0 -173.4)"/><path class="cls-20" d="M583.64,569C553,601.59,507,617.18,454.78,614.65L437.26,495.9C462,498.34,485,493,501.71,479.59a62.07,62.07,0,0,0,18.41-24l93.14,60.51A125.43,125.43,0,0,1,583.64,569Z" transform="translate(0 -173.4)"/><polygon class="cls-3" points="389.61 82.11 391.46 89.5 391.88 89.56 390.01 82.16 389.61 82.11"/><path class="cls-20" d="M361.23,253.79l3.42,7.61h-.79l-3.45-7.61Zm-2,7.77-.76,0L354.62,254l.84,0Zm7.84-7.74,3.1,7.59h-.77l-3.18-7.59Zm-13.25,8.06-.77.06-4.11-7.66.82-.05ZM372.85,254l2.79,7.55-.78,0L372,254Zm-24.44,8.34-.76.08-4.46-7.65.82-.09Zm30.29-8,2.47,7.5-.79-.06-2.52-7.5ZM343.07,263l-.74.11-4.79-7.66.82-.11Zm41.5-8.09,2.14,7.45-.78-.08-2.21-7.46Zm-46.77,8.91-.75.13-5.1-7.64.8-.14Zm-5.23,1-.72.16-5.45-7.62.8-.17ZM327.42,266l-.73.18-5.77-7.59.79-.19Zm-5.08,1.34-.72.21L315.51,260l.78-.21Zm-5,1.53-.7.23-6.46-7.51.78-.24Zm-4.95,1.7-.68.25-6.79-7.44.76-.27Zm-4.85,1.88-.68.29-7.1-7.38.74-.3Zm-4.75,2.07-.66.31-7.45-7.3.73-.32Zm-4.64,2.24-.67.35-7.74-7.22.68-.34Zm-4.54,2.43-.64.37-8.09-7.11.68-.37Zm-4.42,2.61-.63.39-8.41-7,.66-.4Zm-4.3,2.79-.61.42-8.74-6.86.65-.43Zm-4.17,3-.58.44L271,281.29l.63-.47Zm-4,3.16-.57.47-9.38-6.57.6-.48Zm-3.89,3.34-.53.49-9.71-6.39.59-.52Zm-3.72,3.52-.53.52-10-6.22.56-.54Zm-3.57,3.71-.49.53-10.32-6,.54-.58Zm-3.41,3.88-.47.57L251,299.92l.51-.6Zm-3.22,4.05-.44.6-10.9-5.59.49-.63Zm-3,4.24-.42.62-11.17-5.36.46-.65ZM253,317.87l-.39.64-11.45-5.1.43-.68Zm-2.65,4.58-.36.67-11.71-4.84.4-.7Zm-2.44,4.75-.33.69-12-4.55.37-.73Zm-2.22,4.91-.29.72-12.21-4.25.33-.76Zm-2,5.08-.27.74L231,334l.29-.78Zm-1.76,5.24-.23.75L229,339.58l.27-.81Zm-1.52,5.38-.2.78-12.85-3.25.22-.83Zm-1.27,5.53-.16.81-13-2.9.18-.85Zm-1,5.67-.12.83-13.22-2.5.15-.88Zm-.75,5.83-.08.85-13.37-2.11.11-.9Zm-.47,6,0,.86L223.34,370l.07-.92Zm-.19,6.08v.88l-13.61-1.25,0-.94Zm.09,6.19,0,.9-13.71-.8,0-1Zm.39,6.31.08.91-13.78-.35-.07-1Zm.68,6.4.13.92-13.83.12-.12-1Zm1,6.48.16.94-13.85.61-.16-1Z" transform="translate(0 -173.4)"/><polygon class="cls-3" points="226.3 236.54 226.41 237.05 240.26 235.97 240.16 235.5 226.3 236.54"/><path class="cls-15" d="M362.83,441a1.24,1.24,0,0,0-.91.6,1.31,1.31,0,0,0,0,1.1,2,2,0,0,0,.85,1,1.59,1.59,0,0,0,2.14-.34,1.3,1.3,0,0,0,0-1.11,2,2,0,0,0-.85-.95A1.91,1.91,0,0,0,362.83,441Z" transform="translate(0 -173.4)"/><path class="cls-15" d="M508.39,406.52h0a2.09,2.09,0,0,1,.43,0h0a2.09,2.09,0,0,1,1.6,1.47h0c.13.68-.36,1.13-1.11,1h0a2.08,2.08,0,0,1-1.6-1.47A.8.8,0,0,1,508.39,406.52Zm.81,4.87h0a1.11,1.11,0,0,1,.51,0h0a2.08,2.08,0,0,1,1.55,1.54h0c.08.68-.45,1.09-1.22.92h0a2.08,2.08,0,0,1-1.53-1.54A.78.78,0,0,1,509.2,411.39Zm.47,4.83h0a1.32,1.32,0,0,1,.61,0h0a2,2,0,0,1,1.46,1.61h0c0,.67-.55,1-1.32.82h0a2,2,0,0,1-1.46-1.61A.79.79,0,0,1,509.67,416.22Zm.12,4.79h0a1.47,1.47,0,0,1,.7.07h0a2,2,0,0,1,1.38,1.68h0c0,.67-.64,1-1.42.73h0a2,2,0,0,1-1.38-1.68A.8.8,0,0,1,509.79,421Zm-142,24.51h0a2,2,0,0,1,1.57.49h0a1.43,1.43,0,0,1,.29,2.09h0a1.7,1.7,0,0,1-2.27-.15h0a1.43,1.43,0,0,1-.29-2.09A1.28,1.28,0,0,1,367.74,445.52Zm141.8-19.78h0a1.5,1.5,0,0,1,.79.1h0a2,2,0,0,1,1.31,1.75h0c-.06.65-.74.94-1.52.63h0a2,2,0,0,1-1.29-1.75A.78.78,0,0,1,509.54,425.74Zm-136.6,24.1h0a1.89,1.89,0,0,1,1.49.42h0a1.5,1.5,0,0,1,.45,2.11h0a1.66,1.66,0,0,1-2.25,0h0a1.52,1.52,0,0,1-.45-2.12A1.26,1.26,0,0,1,372.94,449.84Zm136-19.46h0a1.54,1.54,0,0,1,.89.15h0a1.88,1.88,0,0,1,1.21,1.79h0c-.11.64-.83.88-1.6.54h0a1.93,1.93,0,0,1-1.21-1.81A.82.82,0,0,1,508.93,430.38ZM378.4,453.9h0a1.92,1.92,0,0,1,1.39.35h0a1.58,1.58,0,0,1,.61,2.12h0a1.6,1.6,0,0,1-2.22.14h0a1.57,1.57,0,0,1-.6-2.12A1.25,1.25,0,0,1,378.4,453.9Zm129.56-19h0a1.61,1.61,0,0,1,1,.19h0a1.83,1.83,0,0,1,1.1,1.84h0c-.16.63-.91.82-1.69.43h0a1.85,1.85,0,0,1-1.1-1.85A.82.82,0,0,1,508,434.92ZM384.07,457.69h0a1.86,1.86,0,0,1,1.3.29h0a1.64,1.64,0,0,1,.76,2.11h0a1.52,1.52,0,0,1-2.16.28h0a1.64,1.64,0,0,1-.76-2.12A1.18,1.18,0,0,1,384.07,457.69Zm122.54-18.35h0a1.67,1.67,0,0,1,1.09.23h0a1.77,1.77,0,0,1,1,1.89h0c-.21.61-1,.76-1.77.32h0a1.77,1.77,0,0,1-1-1.9A.82.82,0,0,1,506.61,439.34ZM389.93,461.18h0a1.83,1.83,0,0,1,1.2.24h0a1.71,1.71,0,0,1,.91,2.1h0a1.45,1.45,0,0,1-2.1.42h0a1.74,1.74,0,0,1-.9-2.11A1.2,1.2,0,0,1,389.93,461.18Zm115-17.57h0a1.73,1.73,0,0,1,1.19.29h0a1.71,1.71,0,0,1,.88,1.92h0c-.27.59-1.09.68-1.84.2h0a1.72,1.72,0,0,1-.89-1.92A.9.9,0,0,1,504.9,443.61ZM396,464.36h0a1.78,1.78,0,0,1,1.11.18h0a1.8,1.8,0,0,1,1.05,2.07h0a1.39,1.39,0,0,1-2,.56h0A1.77,1.77,0,0,1,395,465.1,1.17,1.17,0,0,1,396,464.36Zm106.87-16.64h0a1.75,1.75,0,0,1,1.28.34h0a1.63,1.63,0,0,1,.76,1.95h0c-.32.57-1.17.61-1.91.08h0a1.64,1.64,0,0,1-.76-1.95A.9.9,0,0,1,502.82,447.72ZM402.1,467.2h0a1.88,1.88,0,0,1,1,.13h0a1.86,1.86,0,0,1,1.19,2h0a1.34,1.34,0,0,1-1.94.71h0a1.85,1.85,0,0,1-1.19-2.05A1.14,1.14,0,0,1,402.1,467.2Zm98.26-15.57h0a1.79,1.79,0,0,1,1.38.42h0a1.58,1.58,0,0,1,.64,2h0c-.37.53-1.25.52-2,0h0a1.58,1.58,0,0,1-.64-2h0A.92.92,0,0,1,500.36,451.63Zm-92,18.07h0a1.77,1.77,0,0,1,.9.09h0a1.94,1.94,0,0,1,1.32,2h0a1.29,1.29,0,0,1-1.86.84h0a2,2,0,0,1-1.32-2A1.15,1.15,0,0,1,408.34,469.7Zm89.21-14.36h0a1.79,1.79,0,0,1,1.46.48h0a1.5,1.5,0,0,1,.51,2h0c-.41.51-1.32.43-2-.17h0a1.49,1.49,0,0,1-.5-2A.9.9,0,0,1,497.55,455.34Zm-82.91,16.48h0a1.67,1.67,0,0,1,.79.06h0a2,2,0,0,1,1.45,1.94h0a1.25,1.25,0,0,1-1.75,1h0a2,2,0,0,1-1.45-1.94A1.14,1.14,0,0,1,414.64,471.82Zm79.73-13h0a1.89,1.89,0,0,1,1.55.56h0c.67.63.84,1.52.38,2h0a1.55,1.55,0,0,1-2.07-.3h0a1.45,1.45,0,0,1-.37-2A1,1,0,0,1,494.37,458.81ZM421,473.58h0a1.75,1.75,0,0,1,.68,0h0a2,2,0,0,1,1.56,1.88h0a1.2,1.2,0,0,1-1.62,1.09h0a2,2,0,0,1-1.57-1.87A1.13,1.13,0,0,1,421,473.58ZM490.84,462h0a1.93,1.93,0,0,1,1.65.64h0c.64.67.74,1.56.23,2h0a1.64,1.64,0,0,1-2.1-.42h0c-.64-.67-.75-1.57-.23-2A.9.9,0,0,1,490.84,462ZM427.27,475h0a1.46,1.46,0,0,1,.59,0h0a2.09,2.09,0,0,1,1.66,1.79h0A1.17,1.17,0,0,1,428,478h0a2.05,2.05,0,0,1-1.67-1.79A1.11,1.11,0,0,1,427.27,475ZM487,465h0a1.9,1.9,0,0,1,1.72.72h0c.62.7.66,1.58.09,2h0a1.7,1.7,0,0,1-2.12-.55h0c-.61-.7-.65-1.58-.08-2A.91.91,0,0,1,487,465Zm-53.43,10.94h0a1.82,1.82,0,0,1,.47,0h0a2.11,2.11,0,0,1,1.77,1.71h0A1.16,1.16,0,0,1,434.4,479h0a2.13,2.13,0,0,1-1.78-1.72A1.13,1.13,0,0,1,433.54,475.92Zm49.23-8.29h0a2,2,0,0,1,1.81.81h0c.57.73.54,1.6-.07,1.95h0a1.77,1.77,0,0,1-2.13-.69h0c-.59-.73-.54-1.6.06-1.94A.79.79,0,0,1,482.77,467.63Zm-43,8.88h0a1.06,1.06,0,0,1,.36,0h0a2.12,2.12,0,0,1,1.85,1.61h0a1.14,1.14,0,0,1-1.24,1.44h0a2.13,2.13,0,0,1-1.86-1.62A1.12,1.12,0,0,1,439.73,476.51ZM478.26,470h0a2,2,0,0,1,1.88.9h0c.53.75.43,1.61-.22,1.92h0a1.87,1.87,0,0,1-2.14-.82h0c-.53-.76-.43-1.61.22-1.92A1.12,1.12,0,0,1,478.26,470Zm-32.47,6.73h0a.84.84,0,0,1,.28,0h0a2.12,2.12,0,0,1,1.92,1.51h0a1.13,1.13,0,0,1-1.11,1.53h0A2.13,2.13,0,0,1,445,478.2,1.13,1.13,0,0,1,445.79,476.7ZM473.45,472h0a2,2,0,0,1,1.95,1h0c.49.78.33,1.62-.37,1.87h0a1.91,1.91,0,0,1-2.13-.93h0c-.49-.79-.32-1.62.37-1.88h0A.61.61,0,0,1,473.45,472Zm-21.72,4.52h0l.16,0h0a2.11,2.11,0,0,1,2,1.41h0a1.14,1.14,0,0,1-1,1.62h0a2.12,2.12,0,0,1-2-1.42A1.13,1.13,0,0,1,451.73,476.5Zm16.64-2.85h0a2,2,0,0,1,2,1.09h0c.44.79.21,1.61-.52,1.82h0a2,2,0,0,1-2.11-1.07h0c-.44-.8-.21-1.61.52-1.82h0Zm-10.89,2.27h.07a2.08,2.08,0,0,1,2.05,1.3h0a1.11,1.11,0,0,1-.82,1.68h0a2.07,2.07,0,0,1-2-1.29A1.13,1.13,0,0,1,457.48,475.92ZM463,475h0a2.06,2.06,0,0,1,2.07,1.18h0a1.16,1.16,0,0,1-.66,1.77h0a2.1,2.1,0,0,1-2.1-1.19h0c-.39-.82-.09-1.61.68-1.76Z" transform="translate(0 -173.4)"/><path class="cls-15" d="M507.22,401.59a.78.78,0,0,0-.64.49,1.15,1.15,0,0,0,.12.92,2.13,2.13,0,0,0,.82.81c.7.4,1.49.28,1.69-.24a1.16,1.16,0,0,0-.13-.92,2.22,2.22,0,0,0-.82-.82A1.78,1.78,0,0,0,507.22,401.59Z" transform="translate(0 -173.4)"/><path class="cls-15" d="M319.43,280.62a1.1,1.1,0,0,0-.81.35.74.74,0,0,0-.08.75,1.58,1.58,0,0,0,.69.72,1.61,1.61,0,0,0,1.86-.08.74.74,0,0,0,.08-.75,1.64,1.64,0,0,0-.69-.72A2.13,2.13,0,0,0,319.43,280.62Z" transform="translate(0 -173.4)"/><path class="cls-15" d="M315.23,282.43h0a2.05,2.05,0,0,1,1.47.57h0c.51.52.46,1.15-.12,1.41h0a1.89,1.89,0,0,1-2-.47h0c-.51-.51-.46-1.15.11-1.41h0A1.4,1.4,0,0,1,315.23,282.43Zm-4.1,2h0a2,2,0,0,1,1.44.54h0c.53.51.51,1.15,0,1.44h0a1.89,1.89,0,0,1-2-.42h0c-.53-.5-.51-1.15.06-1.43A1.29,1.29,0,0,1,311.13,284.4Zm-4,2.12h0a2,2,0,0,1,1.41.51h0c.56.5.56,1.15,0,1.46h0a1.88,1.88,0,0,1-2-.36h0c-.55-.5-.56-1.16,0-1.46A1.31,1.31,0,0,1,307.13,286.52Zm-3.89,2.28h0a2.07,2.07,0,0,1,1.38.47h0c.57.5.61,1.16.07,1.49h0a1.82,1.82,0,0,1-2-.3h0c-.58-.5-.61-1.16-.08-1.49h0A1.26,1.26,0,0,1,303.24,288.8Zm-3.8,2.43h0a2.06,2.06,0,0,1,1.35.45h0c.61.48.67,1.16.16,1.51h0a1.83,1.83,0,0,1-2-.25h0c-.59-.48-.66-1.16-.13-1.51A1.25,1.25,0,0,1,299.44,291.23Zm-3.66,2.59h0a2.06,2.06,0,0,1,1.32.42h0c.61.47.71,1.16.21,1.53h0a1.78,1.78,0,0,1-2-.19h0c-.63-.48-.72-1.16-.22-1.53A1.28,1.28,0,0,1,295.78,293.82Zm-3.56,2.75h0a2,2,0,0,1,1.29.39h0c.64.46.77,1.16.29,1.55h0a1.79,1.79,0,0,1-2-.13h0c-.64-.46-.77-1.16-.28-1.55A1.26,1.26,0,0,1,292.22,296.57Zm-3.42,2.9h0a2.19,2.19,0,0,1,1.26.36h0c.66.46.82,1.16.36,1.58h0a1.78,1.78,0,0,1-2-.07h0c-.67-.46-.82-1.17-.36-1.58h0A1.48,1.48,0,0,1,288.8,299.47Zm-3.28,3.06h0a2.06,2.06,0,0,1,1.22.34h0c.68.44.86,1.14.42,1.58h0a1.72,1.72,0,0,1-2,0h0c-.69-.44-.88-1.16-.43-1.59h0A1.27,1.27,0,0,1,285.52,302.53Zm-3.14,3.22h0a2,2,0,0,1,1.18.3h0c.7.42.92,1.14.49,1.6h0a1.73,1.73,0,0,1-2,.06h0c-.7-.43-.92-1.15-.49-1.61A1.23,1.23,0,0,1,282.38,305.75Zm-3,3.36h0a2.08,2.08,0,0,1,1.14.28h0c.72.41,1,1.13.57,1.61h0a1.68,1.68,0,0,1-2,.12h0c-.73-.42-1-1.14-.57-1.62h0A1.27,1.27,0,0,1,279.38,309.11Zm-2.84,3.52h0a2.18,2.18,0,0,1,1.1.24h0c.73.41,1,1.13.65,1.63h0a1.66,1.66,0,0,1-2,.18h0c-.75-.39-1-1.12-.65-1.62A1.23,1.23,0,0,1,276.54,312.63Zm-2.67,3.66h0a2.12,2.12,0,0,1,1.05.22h0c.75.39,1.07,1.11.72,1.64h0a1.66,1.66,0,0,1-2,.25h0c-.75-.39-1.07-1.12-.72-1.64A1.3,1.3,0,0,1,273.87,316.29Zm-2.53,3.81h0a2.19,2.19,0,0,1,1,.2h0c.77.37,1.13,1.1.79,1.64h0a1.6,1.6,0,0,1-2,.32h0c-.77-.36-1.12-1.1-.78-1.64A1.2,1.2,0,0,1,271.34,320.1Zm-2.33,4h0a2.11,2.11,0,0,1,1,.18h0c.78.35,1.18,1.08.86,1.64h0a1.55,1.55,0,0,1-2,.38h0c-.79-.34-1.18-1.07-.87-1.64A1.25,1.25,0,0,1,269,324.06Zm-2.16,4.1h0a2,2,0,0,1,.92.16h0c.81.32,1.23,1.05,1,1.64h0a1.55,1.55,0,0,1-2,.46h0c-.81-.33-1.23-1.07-.95-1.65A1.26,1.26,0,0,1,266.85,328.16Zm-2,4.24h0a2.11,2.11,0,0,1,.87.14h0c.82.3,1.28,1,1,1.64h0a1.52,1.52,0,0,1-2,.52h0c-.82-.3-1.28-1-1-1.64A1.25,1.25,0,0,1,264.89,332.4Zm-1.78,4.39h0a2,2,0,0,1,.82.1h0c.84.29,1.33,1,1.1,1.64h0a1.48,1.48,0,0,1-1.93.6h0c-.85-.29-1.33-1-1.09-1.64A1.21,1.21,0,0,1,263.11,336.79Zm-1.57,4.5h0a2.13,2.13,0,0,1,.78.09h0c.85.27,1.37,1,1.16,1.64h0a1.47,1.47,0,0,1-1.91.67h0a1.45,1.45,0,0,1-1.17-1.64h0A1.26,1.26,0,0,1,261.54,341.29Zm-1.36,4.64h0a1.82,1.82,0,0,1,.72.08h0a1.49,1.49,0,0,1,1.25,1.62h0a1.44,1.44,0,0,1-1.88.74h0c-.87-.24-1.43-1-1.25-1.62A1.23,1.23,0,0,1,260.18,345.93ZM259,350.69h0a2.27,2.27,0,0,1,.68.06h0a1.54,1.54,0,0,1,1.32,1.6h0a1.42,1.42,0,0,1-1.85.83h0a1.53,1.53,0,0,1-1.31-1.61A1.2,1.2,0,0,1,259,350.69Zm-.93,4.89h0a2,2,0,0,1,.63,0h0a1.59,1.59,0,0,1,1.4,1.59h0a1.41,1.41,0,0,1-1.82.9h0a1.58,1.58,0,0,1-1.39-1.6h0A1.23,1.23,0,0,1,258.09,355.58Zm-.69,5h0a2.61,2.61,0,0,1,.55,0h0a1.64,1.64,0,0,1,1.48,1.57h0c-.08.71-.87,1.14-1.77,1h0a1.63,1.63,0,0,1-1.47-1.58A1.24,1.24,0,0,1,257.4,360.57Zm-.47,5.1h0a2,2,0,0,1,.49,0h0a1.69,1.69,0,0,1,1.56,1.55h0c-.06.72-.82,1.18-1.73,1.05h0a1.69,1.69,0,0,1-1.55-1.56A1.25,1.25,0,0,1,256.93,365.67Zm-.24,5.22h0a1.31,1.31,0,0,1,.44,0h0a1.73,1.73,0,0,1,1.63,1.52h0c0,.73-.76,1.23-1.68,1.12h0a1.71,1.71,0,0,1-1.61-1.53h0A1.24,1.24,0,0,1,256.69,370.89Zm0,5.31h0a2.54,2.54,0,0,1,.39,0h0a1.76,1.76,0,0,1,1.69,1.5h0c0,.75-.7,1.29-1.62,1.2h0a1.74,1.74,0,0,1-1.69-1.5h0A1.23,1.23,0,0,1,256.69,376.2Zm.25,5.4h.33a1.79,1.79,0,0,1,1.76,1.46h0c.06.76-.65,1.33-1.56,1.28h0a1.8,1.8,0,0,1-1.77-1.47A1.25,1.25,0,0,1,256.94,381.6Zm.51,5.47h.26a1.84,1.84,0,0,1,1.83,1.43h0c.08.77-.59,1.37-1.52,1.34h0a1.81,1.81,0,0,1-1.82-1.43A1.26,1.26,0,0,1,257.45,387.07Zm.74,5.55h.21a1.87,1.87,0,0,1,1.89,1.39h0a1.31,1.31,0,0,1-1.45,1.42h0A1.85,1.85,0,0,1,257,394,1.26,1.26,0,0,1,258.19,392.62Zm1,5.62h.14a1.88,1.88,0,0,1,2,1.35h0c.16.79-.46,1.45-1.39,1.49h0a1.92,1.92,0,0,1-2-1.35h0A1.28,1.28,0,0,1,259.19,398.24Zm1.25,5.67h.1a1.93,1.93,0,0,1,2,1.29h0a1.3,1.3,0,0,1-1.32,1.56h0a1.93,1.93,0,0,1-2-1.31h0A1.29,1.29,0,0,1,260.44,403.91Zm1.51,5.73h0a1.94,1.94,0,0,1,2.07,1.25h0a1.29,1.29,0,0,1-1.24,1.63h0a1.92,1.92,0,0,1-2.07-1.25h0A1.29,1.29,0,0,1,262,409.64Zm1.78,5.75h0a2,2,0,0,1,2.09,1.2h0a1.3,1.3,0,0,1-1.17,1.7h0a2,2,0,0,1-2.13-1.2h0a1.31,1.31,0,0,1,1.17-1.7Zm2,5.78h0a2,2,0,0,1,2.08,1.17h0a1.31,1.31,0,0,1-1.09,1.76h0a2,2,0,0,1-2.19-1.16h0a1.32,1.32,0,0,1,1.1-1.76Zm2.29,5.8h0a2,2,0,0,1,2.09,1.11h0a1.33,1.33,0,0,1-1,1.83h0a2,2,0,0,1-2.24-1.08h0a1.33,1.33,0,0,1,1-1.84Zm2.57,5.8h0a2,2,0,0,1,2.07,1.07h0a1.34,1.34,0,0,1-.94,1.89h0a2,2,0,0,1-2.28-1h0a1.32,1.32,0,0,1,.93-1.89Zm2.83,5.81h0a2.06,2.06,0,0,1,2.06,1h0a1.36,1.36,0,0,1-.84,2h0a2,2,0,0,1-2.33-1h0a1.33,1.33,0,0,1,.84-2A1.19,1.19,0,0,1,273.46,438.58Zm3.1,5.79h0a2.07,2.07,0,0,1,2,1h0a1.38,1.38,0,0,1-.76,2h0a2,2,0,0,1-2.37-.9h0a1.36,1.36,0,0,1,.75-2Zm3.36,5.77h0a2,2,0,0,1,2,.91h0a1.38,1.38,0,0,1-.66,2.07h0a2,2,0,0,1-2.4-.82h0a1.38,1.38,0,0,1,.66-2.06A1.4,1.4,0,0,1,279.92,450.14Zm3.62,5.71h0a2,2,0,0,1,2,.87h0a1.4,1.4,0,0,1-.55,2.12h0a2,2,0,0,1-2.45-.74h0a1.4,1.4,0,0,1,.56-2.11A1.53,1.53,0,0,1,283.54,455.85Zm3.86,5.66h0a2,2,0,0,1,2,.81h0a1.43,1.43,0,0,1-.45,2.18h0a2,2,0,0,1-2.47-.66h0a1.43,1.43,0,0,1,.46-2.17A1.82,1.82,0,0,1,287.4,461.51Zm4.12,5.59h0a2.08,2.08,0,0,1,1.93.77h0a1.46,1.46,0,0,1-.36,2.22h0a2,2,0,0,1-2.49-.57h0a1.46,1.46,0,0,1,.36-2.22A2,2,0,0,1,291.52,467.1Zm4.35,5.51h0a2.06,2.06,0,0,1,1.9.73h0a1.48,1.48,0,0,1-.26,2.26h0a2,2,0,0,1-2.5-.5h0a1.5,1.5,0,0,1,.25-2.26A2.06,2.06,0,0,1,295.87,472.61Zm4.6,5.43h0a2,2,0,0,1,1.86.67h0a1.52,1.52,0,0,1-.15,2.29h0a1.94,1.94,0,0,1-2.52-.4h0a1.53,1.53,0,0,1,.15-2.3A1.79,1.79,0,0,1,300.47,478Zm4.82,5.31h0a2.1,2.1,0,0,1,1.82.62h0a1.57,1.57,0,0,1-.06,2.33h0a1.91,1.91,0,0,1-2.52-.31h0a1.56,1.56,0,0,1,.05-2.33A1.73,1.73,0,0,1,305.29,483.35Zm5,5.21h0a2.07,2.07,0,0,1,1.78.57h0a1.6,1.6,0,0,1,.05,2.36h0a1.89,1.89,0,0,1-2.53-.22h0a1.59,1.59,0,0,1-.05-2.36A1.62,1.62,0,0,1,310.33,488.56Zm5.25,5.07h0a2,2,0,0,1,1.73.53h0a1.66,1.66,0,0,1,.17,2.39h0a1.87,1.87,0,0,1-2.53-.13h0a1.64,1.64,0,0,1-.17-2.39A1.69,1.69,0,0,1,315.58,493.63Zm5.45,4.93h0a2.07,2.07,0,0,1,1.68.49h0a1.66,1.66,0,0,1,.26,2.4h0a1.82,1.82,0,0,1-2.51,0h0a1.67,1.67,0,0,1-.27-2.4A1.52,1.52,0,0,1,321,498.56Zm5.64,4.79h0a2,2,0,0,1,1.63.44h0a1.71,1.71,0,0,1,.37,2.42h0a1.78,1.78,0,0,1-2.5.06h0a1.7,1.7,0,0,1-.37-2.42A1.54,1.54,0,0,1,326.67,503.35Zm5.81,4.63h0a2,2,0,0,1,1.58.4h0a1.75,1.75,0,0,1,.48,2.43h0a1.77,1.77,0,0,1-2.49.16h0a1.74,1.74,0,0,1-.46-2.44A1.41,1.41,0,0,1,332.48,508Zm6,4.45h0a2,2,0,0,1,1.53.35h0a1.8,1.8,0,0,1,.58,2.44h0a1.74,1.74,0,0,1-2.46.26h0a1.8,1.8,0,0,1-.57-2.44A1.42,1.42,0,0,1,338.46,512.43Zm6.15,4.27h0a2,2,0,0,1,1.47.32h0a1.85,1.85,0,0,1,.68,2.44h0a1.72,1.72,0,0,1-2.43.35h0a1.85,1.85,0,0,1-.69-2.45A1.51,1.51,0,0,1,344.61,516.7Zm6.28,4.08h0a1.91,1.91,0,0,1,1.4.27h0a1.9,1.9,0,0,1,.8,2.44h0a1.67,1.67,0,0,1-2.4.44h0a1.9,1.9,0,0,1-.8-2.44A1.48,1.48,0,0,1,350.89,520.78Zm6.4,3.88h0a1.92,1.92,0,0,1,1.36.24h0a1.93,1.93,0,0,1,.88,2.43h0a1.63,1.63,0,0,1-2.36.53h0a1.94,1.94,0,0,1-.88-2.44A1.48,1.48,0,0,1,357.29,524.66Zm6.53,3.66h0a1.85,1.85,0,0,1,1.28.2h0a2,2,0,0,1,1,2.42h0a1.61,1.61,0,0,1-2.32.64h0a2,2,0,0,1-1-2.43A1.43,1.43,0,0,1,363.82,528.32Zm6.62,3.44h0a1.93,1.93,0,0,1,1.23.17h0a2,2,0,0,1,1.09,2.41h0a1.58,1.58,0,0,1-2.26.73h0a2,2,0,0,1-1.09-2.41A1.4,1.4,0,0,1,370.44,531.76Zm6.72,3.22h0a1.91,1.91,0,0,1,1.16.14h0a2.08,2.08,0,0,1,1.19,2.38h0a1.55,1.55,0,0,1-2.22.83h0a2.08,2.08,0,0,1-1.18-2.39A1.45,1.45,0,0,1,377.16,535Zm6.78,3h0a1.86,1.86,0,0,1,1.1.12h0a2.1,2.1,0,0,1,1.28,2.35h0a1.51,1.51,0,0,1-2.15.91h0a2.11,2.11,0,0,1-1.28-2.36A1.42,1.42,0,0,1,383.94,538Zm6.86,2.75h0a1.78,1.78,0,0,1,1,.08h0a2.15,2.15,0,0,1,1.38,2.32h0a1.49,1.49,0,0,1-2.09,1h0a2.13,2.13,0,0,1-1.37-2.32A1.39,1.39,0,0,1,390.8,540.71Zm6.88,2.49h0a1.74,1.74,0,0,1,.95.06h0a2.15,2.15,0,0,1,1.45,2.28h0a1.45,1.45,0,0,1-2,1.1h0a2.15,2.15,0,0,1-1.45-2.28A1.39,1.39,0,0,1,397.68,543.2Zm6.91,2.24h0a1.74,1.74,0,0,1,.9,0h0a2.19,2.19,0,0,1,1.53,2.25h0a1.42,1.42,0,0,1-1.94,1.17h0a2.18,2.18,0,0,1-1.54-2.23A1.38,1.38,0,0,1,404.59,545.44Zm6.93,2h0a1.63,1.63,0,0,1,.82,0h0a2.26,2.26,0,0,1,1.62,2.21h0a1.43,1.43,0,0,1-1.88,1.27h0a2.23,2.23,0,0,1-1.61-2.2A1.37,1.37,0,0,1,411.52,547.43Zm6.92,1.73h0a1.62,1.62,0,0,1,.76,0h0a2.25,2.25,0,0,1,1.69,2.15h0a1.39,1.39,0,0,1-1.79,1.35h0a2.24,2.24,0,0,1-1.69-2.15A1.35,1.35,0,0,1,418.44,549.16Zm6.91,1.45h0a1.46,1.46,0,0,1,.69,0h0a2.24,2.24,0,0,1,1.76,2.09h0a1.37,1.37,0,0,1-1.7,1.43h0a2.26,2.26,0,0,1-1.76-2.1A1.35,1.35,0,0,1,425.35,550.61Z" transform="translate(0 -173.4)"/><path class="cls-15" d="M432.42,551.84a1.3,1.3,0,0,0-.9.79,1.81,1.81,0,0,0,.05,1.35,2.36,2.36,0,0,0,1,1.12,1.51,1.51,0,0,0,2.22-.56,1.77,1.77,0,0,0-.06-1.35,2.3,2.3,0,0,0-1-1.12A1.74,1.74,0,0,0,432.42,551.84Z" transform="translate(0 -173.4)"/><path class="cls-15" d="M437.52,552.46c-1.12-2.69-4-4.38-6.41-3.78s-3.51,3.29-2.4,6,4,4.45,6.46,3.82S438.65,555.17,437.52,552.46Z" transform="translate(0 -173.4)"/><polyline class="cls-21" points="441.93 381.67 443.5 377.56 439.71 375.33"/><polyline class="cls-21" points="432.15 370.87 428.36 368.64 426.71 372.71"/><polyline class="cls-21" points="424.26 378.75 422.61 382.83 426.39 385.07"/><polyline class="cls-21" points="434.21 389.7 438 391.94 439.57 387.83"/><path class="cls-15" d="M507.94,262.61a6.87,6.87,0,0,0-5.41-3c-1.92.06-2.62,1.49-1.55,3.2a6.86,6.86,0,0,0,5.44,3C508.35,265.77,509,264.32,507.94,262.61Z" transform="translate(0 -173.4)"/><polyline class="cls-22" points="504.25 94.06 509.12 96.74 512.67 89.06 507.79 86.38"/><polyline class="cls-22" points="504.78 84.72 499.9 82.04 496.16 89.61 501.04 92.29"/><path class="cls-15" d="M160.49,240.84c-.51-2-3.35-3.66-6.35-3.63s-5.08,1.71-4.59,3.76,3.36,3.7,6.4,3.66S161,242.88,160.49,240.84Z" transform="translate(0 -173.4)"/><polyline class="cls-22" points="163.66 70.94 167.91 67.35 163.07 64.59"/><polyline class="cls-22" points="157.75 61.55 152.91 58.79 148.59 62.29"/><polyline class="cls-22" points="146.28 64.16 141.95 67.66 146.78 70.43"/><polyline class="cls-22" points="152.37 73.63 157.2 76.4 161.46 72.8"/><path class="cls-15" d="M325.2,188.42c1-1.11.12-2.93-2-4.07s-4.66-1.18-5.69-.08-.16,2.93,2,4.08S324.18,189.53,325.2,188.42Z" transform="translate(0 -173.4)"/><polyline class="cls-22" points="324.91 17.82 330.48 17.87 325.71 8.24 320.15 8.16"/><polyline class="cls-22" points="317.81 8.12 312.24 8.03 316.89 17.75 322.46 17.8"/><polygon class="cls-15" points="391.38 119.01 392.05 122.06 396.71 120.65 402.27 123.3 401.56 120.27 396.03 117.63 391.38 119.01"/><polygon class="cls-15" points="390.19 113.61 390.85 116.61 395.49 115.25 401.01 117.88 400.31 114.88 394.81 112.26 390.19 113.61"/><polygon class="cls-15" points="389.02 108.28 389.67 111.25 394.28 109.91 399.76 112.53 399.07 109.57 393.62 106.97 389.02 108.28"/><polygon class="cls-15" points="387.86 103.03 388.51 105.95 393.09 104.65 398.53 107.25 397.86 104.33 392.43 101.75 387.86 103.03"/><polygon class="cls-15" points="168.42 233.22 161.98 233.98 167.78 240.43 164.95 248.03 171.47 247.21 174.23 239.65 168.42 233.22"/><polygon class="cls-15" points="179.85 231.89 173.49 232.63 179.3 239.03 176.6 246.57 183.02 245.76 185.66 238.26 179.85 231.89"/><polygon class="cls-15" points="191.1 230.57 184.84 231.3 190.65 237.65 188.08 245.12 194.41 244.32 196.92 236.89 191.1 230.57"/><polygon class="cls-15" points="202.2 229.27 196.03 229.99 201.84 236.29 199.39 243.69 205.63 242.91 208.01 235.54 202.2 229.27"/><polygon class="cls-15" points="561.04 310.68 557.21 308.15 558.7 312.57 555.06 313.63 558.92 316.18 562.56 315.12 561.04 310.68"/><polygon class="cls-15" points="567.94 315.23 564.09 312.69 565.62 317.14 561.99 318.21 565.87 320.78 569.49 319.7 567.94 315.23"/><polygon class="cls-15" points="680.85 275.62 682.48 279.71 686.74 277.89 693.18 281.53 691.5 277.45 685.09 273.83 680.85 275.62"/><polygon class="cls-15" points="677.96 268.39 679.56 272.41 683.8 270.65 690.18 274.24 688.53 270.23 682.18 266.65 677.96 268.39"/><polygon class="cls-15" points="675.11 261.27 676.69 265.23 680.91 263.52 687.24 267.08 685.62 263.13 679.32 259.59 675.11 261.27"/><polygon class="cls-15" points="672.31 254.27 673.87 258.17 678.07 256.5 684.34 260.03 682.75 256.15 676.5 252.64 672.31 254.27"/><polygon class="cls-15" points="431.36 41.78 434.57 42.69 432.29 39.27 434.27 37.09 431.1 36.18 429.1 38.36 431.36 41.78"/><polygon class="cls-15" points="425.6 40.13 428.82 41.05 426.56 37.63 428.57 35.46 425.38 34.54 423.35 36.72 425.6 40.13"/><polygon class="cls-15" points="419.82 38.49 423.05 39.41 420.81 35.99 422.86 33.82 419.65 32.9 417.59 35.07 419.82 38.49"/><polygon class="cls-15" points="414.02 36.83 417.26 37.76 415.04 34.34 417.12 32.17 413.9 31.25 411.81 33.41 414.02 36.83"/><polygon class="cls-15" points="636.02 204.81 638.75 204.44 635.32 202.33 635.52 199.74 632.8 200.1 632.58 202.7 636.02 204.81"/><polygon class="cls-15" points="631.09 205.49 633.85 205.11 630.4 202.99 630.63 200.39 627.88 200.75 627.64 203.36 631.09 205.49"/><polygon class="cls-15" points="626.13 206.17 628.9 205.79 625.45 203.66 625.7 201.04 622.93 201.41 622.66 204.03 626.13 206.17"/><polygon class="cls-23" points="441.09 540.26 446.84 541.11 442.87 535.27 446.52 530.62 440.82 529.76 437.13 534.41 441.09 540.26"/><polygon class="cls-24" points="430.73 538.73 436.52 539.59 432.57 533.73 436.3 529.08 430.56 528.21 426.8 532.87 430.73 538.73"/><polygon class="cls-24" points="420.31 537.18 426.14 538.05 422.21 532.18 426.01 527.52 420.24 526.65 416.4 531.31 420.31 537.18"/><polygon class="cls-15" points="170.63 114.85 165.27 112.6 166.87 116.87 161.26 118.15 166.67 120.42 172.25 119.13 170.63 114.85"/><polygon class="cls-15" points="180.23 118.89 174.87 116.64 176.51 120.92 170.95 122.22 176.35 124.48 181.88 123.18 180.23 118.89"/><polygon class="cls-15" points="189.81 122.91 184.46 120.67 186.14 124.96 180.63 126.28 186.03 128.54 191.5 127.22 189.81 122.91"/><polygon class="cls-15" points="297.93 130.06 298.02 130.05 298.19 130.04 298.28 130.04 301.15 137.59 300.8 137.61 297.93 130.06"/><polygon class="cls-15" points="315.3 129.08 315.48 129.07 315.56 129.06 318.54 136.52 318.19 136.54 315.21 129.08 315.3 129.08"/><polygon class="cls-15" points="332.18 128.13 332.35 128.12 332.44 128.11 335.51 135.47 335.17 135.49 332.1 128.13 332.18 128.13"/><polygon class="cls-15" points="348.67 127.2 348.84 127.19 348.92 127.19 352.08 134.45 351.75 134.47 348.59 127.2 348.67 127.2"/><polygon class="cls-15" points="364.78 126.29 364.94 126.28 365.02 126.28 368.27 133.45 367.95 133.47 364.7 126.3 364.78 126.29"/><polygon class="cls-15" points="380.52 125.4 380.68 125.39 380.76 125.39 384.1 132.48 383.77 132.5 380.44 125.41 380.52 125.4"/><polygon class="cls-15" points="395.91 124.54 396.07 124.53 396.14 124.52 399.56 131.52 399.24 131.54 395.83 124.54 395.91 124.54"/><polygon class="cls-15" points="301.92 133.6 300.51 129.91 300.69 129.9 302.1 133.59 301.92 133.6"/><polygon class="cls-15" points="304.41 133.45 303 129.77 303.17 129.76 304.59 133.44 304.41 133.45"/><polygon class="cls-15" points="306.9 133.3 305.48 129.63 305.65 129.62 307.07 133.29 306.9 133.3"/><polygon class="cls-15" points="309.38 133.16 307.94 129.49 308.12 129.48 309.55 133.15 309.38 133.16"/><polygon class="cls-15" points="311.85 133.01 310.41 129.35 310.58 129.34 312.02 133 311.85 133.01"/><polygon class="cls-15" points="314.31 132.87 312.86 129.22 313.03 129.21 314.48 132.86 314.31 132.87"/><polygon class="cls-15" points="319.2 132.58 317.74 128.94 317.91 128.93 319.37 132.57 319.2 132.58"/><polygon class="cls-15" points="321.63 132.43 320.17 128.81 320.34 128.79 321.81 132.42 321.63 132.43"/><polygon class="cls-15" points="324.06 132.29 322.59 128.67 322.76 128.66 324.23 132.28 324.06 132.29"/><polygon class="cls-15" points="326.48 132.15 325 128.53 325.17 128.52 326.65 132.14 326.48 132.15"/><polygon class="cls-15" points="328.89 132.01 327.4 128.4 327.57 128.39 329.06 132 328.89 132.01"/><polygon class="cls-15" points="331.29 131.87 329.8 128.26 329.96 128.25 331.46 131.85 331.29 131.87"/><polygon class="cls-15" points="336.07 131.58 334.56 127.99 334.73 127.98 336.24 131.57 336.07 131.58"/><polygon class="cls-15" points="338.45 131.44 336.93 127.86 337.1 127.85 338.62 131.43 338.45 131.44"/><polygon class="cls-15" points="340.82 131.3 339.3 127.73 339.46 127.72 340.99 131.29 340.82 131.3"/><polygon class="cls-15" points="343.18 131.16 341.65 127.59 341.82 127.58 343.35 131.15 343.18 131.16"/><polygon class="cls-15" points="345.53 131.03 344 127.46 344.17 127.45 345.7 131.02 345.53 131.03"/><polygon class="cls-15" points="347.88 130.89 346.34 127.33 346.5 127.32 348.04 130.88 347.88 130.89"/><polygon class="cls-15" points="352.55 130.61 351 127.07 351.16 127.06 352.71 130.6 352.55 130.61"/><polygon class="cls-15" points="354.87 130.47 353.31 126.94 353.48 126.93 355.03 130.47 354.87 130.47"/><polygon class="cls-15" points="357.19 130.34 355.62 126.81 355.78 126.8 357.35 130.33 357.19 130.34"/><polygon class="cls-15" points="359.49 130.2 357.92 126.68 358.08 126.67 359.65 130.19 359.49 130.2"/><polygon class="cls-15" points="361.79 130.07 360.21 126.55 360.38 126.54 361.95 130.06 361.79 130.07"/><polygon class="cls-15" points="364.08 129.93 362.5 126.42 362.66 126.41 364.25 129.92 364.08 129.93"/><polygon class="cls-15" points="368.64 129.66 367.05 126.16 367.21 126.15 368.81 129.65 368.64 129.66"/><polygon class="cls-15" points="370.92 129.53 369.31 126.03 369.48 126.03 371.07 129.52 370.92 129.53"/><polygon class="cls-15" points="373.18 129.4 371.57 125.91 371.73 125.9 373.34 129.39 373.18 129.4"/><polygon class="cls-15" points="375.43 129.26 373.82 125.78 373.98 125.77 375.59 129.25 375.43 129.26"/><polygon class="cls-15" points="377.68 129.13 376.06 125.66 376.22 125.65 377.84 129.12 377.68 129.13"/><polygon class="cls-15" points="379.92 129 378.3 125.53 378.45 125.52 380.08 128.99 379.92 129"/><polygon class="cls-15" points="384.38 128.74 382.74 125.28 382.9 125.27 384.53 128.73 384.38 128.74"/><polygon class="cls-15" points="386.6 128.6 384.95 125.15 385.11 125.14 386.75 128.6 386.6 128.6"/><polygon class="cls-15" points="388.81 128.47 387.16 125.03 387.32 125.02 388.96 128.47 388.81 128.47"/><polygon class="cls-15" points="391.01 128.34 389.36 124.91 389.51 124.9 391.17 128.34 391.01 128.34"/><polygon class="cls-15" points="393.21 128.22 391.55 124.78 391.7 124.77 393.36 128.21 393.21 128.22"/><polygon class="cls-15" points="395.4 128.09 393.73 124.66 393.89 124.65 395.55 128.08 395.4 128.09"/><polygon class="cls-15" points="207.55 223.55 207.33 223.58 206.89 223.63 206.67 223.65 203.73 212.21 204.6 212.12 207.55 223.55"/><polygon class="cls-15" points="163.1 228.6 162.64 228.66 162.41 228.68 159.89 216.86 160.81 216.76 163.34 228.58 163.1 228.6"/><polygon class="cls-15" points="116.27 233.93 115.78 233.98 115.53 234.01 113.49 221.78 114.47 221.68 116.52 233.9 116.27 233.93"/><polygon class="cls-15" points="66.59 239.57 66.07 239.63 65.81 239.66 64.31 227 65.34 226.89 66.85 239.54 66.59 239.57"/><polygon class="cls-15" points="13.79 245.57 13.24 245.64 12.96 245.67 12.07 232.53 13.17 232.42 14.07 245.54 13.79 245.57"/><polygon class="cls-15" points="199.74 218.61 201.16 224.28 200.72 224.33 199.3 218.66 199.74 218.61"/><polygon class="cls-15" points="193.55 219.29 194.94 224.99 194.5 225.04 193.11 219.34 193.55 219.29"/><polygon class="cls-15" points="187.31 219.98 188.68 225.7 188.23 225.75 186.87 220.03 187.31 219.98"/><polygon class="cls-15" points="181.03 220.67 182.36 226.42 181.91 226.47 180.58 220.72 181.03 220.67"/><polygon class="cls-15" points="174.69 221.36 176 227.14 175.54 227.19 174.24 221.41 174.69 221.36"/><polygon class="cls-15" points="168.3 222.07 169.58 227.87 169.12 227.92 167.84 222.12 168.3 222.07"/><polygon class="cls-15" points="155.37 223.49 156.58 229.35 156.11 229.4 154.9 223.54 155.37 223.49"/><polygon class="cls-15" points="148.82 224.21 150 230.09 149.53 230.15 148.35 224.26 148.82 224.21"/><polygon class="cls-15" points="142.22 224.93 143.37 230.85 142.89 230.9 141.75 224.98 142.22 224.93"/><polygon class="cls-15" points="135.56 225.66 136.68 231.61 136.2 231.66 135.09 225.72 135.56 225.66"/><polygon class="cls-15" points="128.85 226.4 129.93 232.38 129.45 232.43 128.37 226.45 128.85 226.4"/><polygon class="cls-15" points="122.08 227.14 123.13 233.15 122.65 233.2 121.6 227.2 122.08 227.14"/><polygon class="cls-15" points="108.38 228.65 109.35 234.71 108.86 234.77 107.89 228.7 108.38 228.65"/><polygon class="cls-15" points="101.44 229.41 102.38 235.51 101.88 235.56 100.94 229.47 101.44 229.41"/><polygon class="cls-15" points="94.44 230.18 95.34 236.31 94.84 236.36 93.94 230.24 94.44 230.18"/><polygon class="cls-15" points="87.38 230.96 88.25 237.11 87.74 237.17 86.88 231.01 87.38 230.96"/><polygon class="cls-15" points="80.27 231.74 81.09 237.93 80.58 237.99 79.76 231.8 80.27 231.74"/><polygon class="cls-15" points="73.09 232.53 73.87 238.75 73.36 238.81 72.58 232.59 73.09 232.53"/><polygon class="cls-15" points="58.54 234.13 59.24 240.41 58.72 240.47 58.02 234.19 58.54 234.13"/><polygon class="cls-15" points="51.17 234.94 51.83 241.25 51.31 241.31 50.65 235 51.17 234.94"/><polygon class="cls-15" points="43.74 235.75 44.36 242.1 43.83 242.16 43.21 235.81 43.74 235.75"/><polygon class="cls-15" points="36.24 236.58 36.82 242.96 36.28 243.02 35.71 236.64 36.24 236.58"/><polygon class="cls-15" points="28.68 237.41 29.21 243.82 28.67 243.88 28.14 237.47 28.68 237.41"/><polygon class="cls-15" points="21.05 238.25 21.54 244.69 20.99 244.76 20.5 238.31 21.05 238.25"/><polygon class="cls-15" points="335.35 246.65 335.17 246.15 348.85 244.04 349.04 244.53 335.35 246.65"/><polygon class="cls-15" points="326.5 222.51 339.98 220.67 340.15 221.14 326.68 222.99 326.5 222.51"/><polygon class="cls-15" points="318.22 199.89 331.48 198.3 331.65 198.75 318.38 200.34 318.22 199.89"/><polygon class="cls-15" points="310.28 178.22 323.33 176.86 323.5 177.29 310.44 178.66 310.28 178.22"/><polygon class="cls-15" points="302.67 157.45 315.52 156.31 315.68 156.72 302.82 157.87 302.67 157.45"/><polygon class="cls-15" points="295.36 137.52 308.02 136.57 308.17 136.97 295.51 137.92 295.36 137.52"/><polygon class="cls-15" points="288.35 118.38 300.82 117.61 300.97 117.99 288.49 118.77 288.35 118.38"/><polygon class="cls-15" points="343.73 240.17 337.04 241.18 336.95 240.94 343.64 239.93 343.73 240.17"/><polygon class="cls-15" points="335.19 236.18 341.86 235.2 341.95 235.44 335.28 236.42 335.19 236.18"/><polygon class="cls-15" points="333.45 231.46 340.1 230.51 340.19 230.75 333.53 231.7 333.45 231.46"/><polygon class="cls-15" points="331.72 226.79 338.35 225.86 338.44 226.1 331.81 227.03 331.72 226.79"/><polygon class="cls-15" points="334.98 216.92 328.39 217.8 328.31 217.57 334.89 216.69 334.98 216.92"/><polygon class="cls-15" points="326.62 213.02 333.19 212.16 333.28 212.39 326.71 213.25 326.62 213.02"/><polygon class="cls-15" points="324.95 208.5 331.5 207.68 331.59 207.9 325.04 208.73 324.95 208.5"/><polygon class="cls-15" points="323.3 204.03 329.82 203.23 329.91 203.45 323.38 204.26 323.3 204.03"/><polygon class="cls-15" points="326.6 194.66 320.12 195.42 320.03 195.2 326.52 194.44 326.6 194.66"/><polygon class="cls-15" points="318.42 190.84 324.89 190.11 324.97 190.33 318.5 191.06 318.42 190.84"/><polygon class="cls-15" points="316.82 186.52 323.27 185.81 323.35 186.03 316.9 186.74 316.82 186.52"/><polygon class="cls-15" points="315.24 182.23 321.66 181.54 321.74 181.76 315.32 182.45 315.24 182.23"/><polygon class="cls-15" points="318.57 173.34 312.19 173.98 312.11 173.77 318.49 173.13 318.57 173.34"/><polygon class="cls-15" points="310.56 169.59 316.93 168.97 317 169.18 310.64 169.8 310.56 169.59"/><polygon class="cls-15" points="309.03 165.45 315.37 164.84 315.45 165.05 309.11 165.66 309.03 165.45"/><polygon class="cls-15" points="307.51 161.34 313.83 160.75 313.91 160.96 307.58 161.55 307.51 161.34"/><polygon class="cls-15" points="310.87 152.88 304.58 153.42 304.51 153.22 310.79 152.68 310.87 152.88"/><polygon class="cls-15" points="303.02 149.21 309.29 148.69 309.37 148.89 303.1 149.41 303.02 149.21"/><polygon class="cls-15" points="301.55 145.24 307.8 144.73 307.88 144.93 301.63 145.44 301.55 145.24"/><polygon class="cls-15" points="300.09 141.29 306.32 140.81 306.4 141 300.17 141.49 300.09 141.29"/><polygon class="cls-15" points="303.48 133.24 297.28 133.69 297.21 133.5 303.4 133.05 303.48 133.24"/><polygon class="cls-15" points="295.79 129.65 301.96 129.22 302.03 129.41 295.86 129.84 295.79 129.65"/><polygon class="cls-15" points="294.37 125.83 300.53 125.42 300.6 125.61 294.44 126.02 294.37 125.83"/><polygon class="cls-15" points="292.97 122.04 299.11 121.64 299.18 121.83 293.04 122.23 292.97 122.04"/><polygon class="cls-15" points="732.32 482.74 731.84 482.94 720.08 463.72 720.55 463.53 732.32 482.74"/><polygon class="cls-15" points="708.1 493.08 696.42 473.26 696.91 473.06 708.59 492.87 708.1 493.08"/><polygon class="cls-15" points="683.21 503.7 671.65 483.25 672.17 483.05 683.73 503.48 683.21 503.7"/><polygon class="cls-15" points="657.11 514.84 645.69 493.73 646.23 493.51 657.66 514.61 657.11 514.84"/><polygon class="cls-15" points="629.7 526.54 618.45 504.71 619.02 504.48 630.28 526.3 629.7 526.54"/><polygon class="cls-15" points="600.89 538.85 589.83 516.26 590.43 516.01 601.49 538.59 600.89 538.85"/><polygon class="cls-15" points="570.55 551.8 559.72 528.4 560.35 528.14 571.18 551.53 570.55 551.8"/><polygon class="cls-15" points="718.75 470.32 724.51 479.8 724.27 479.9 718.51 470.42 718.75 470.32"/><polygon class="cls-15" points="719.57 481.88 713.82 472.34 714.06 472.24 719.81 481.78 719.57 481.88"/><polygon class="cls-15" points="714.83 483.88 709.08 474.27 709.32 474.18 715.07 483.77 714.83 483.88"/><polygon class="cls-15" points="710.04 485.89 704.3 476.23 704.55 476.13 710.29 485.79 710.04 485.89"/><polygon class="cls-15" points="694.86 480.09 700.58 489.87 700.34 489.98 694.62 480.19 694.86 480.09"/><polygon class="cls-15" points="695.41 492.05 689.71 482.2 689.96 482.1 695.66 491.94 695.41 492.05"/><polygon class="cls-15" points="690.44 494.14 684.75 484.23 685 484.13 690.7 494.03 690.44 494.14"/><polygon class="cls-15" points="685.43 496.25 679.74 486.28 680 486.18 685.68 496.14 685.43 496.25"/><polygon class="cls-15" points="669.85 490.33 675.51 500.42 675.25 500.53 669.59 490.44 669.85 490.33"/><polygon class="cls-15" points="670.09 502.7 664.44 492.54 664.71 492.44 670.35 502.59 670.09 502.7"/><polygon class="cls-15" points="664.88 504.89 659.25 494.67 659.51 494.56 665.14 504.78 664.88 504.89"/><polygon class="cls-15" points="659.62 507.11 654 496.82 654.27 496.71 659.89 506.99 659.62 507.11"/><polygon class="cls-15" points="643.62 501.06 649.21 511.49 648.94 511.6 643.35 501.17 643.62 501.06"/><polygon class="cls-15" points="643.52 513.88 637.95 503.38 638.22 503.27 643.8 513.76 643.52 513.88"/><polygon class="cls-15" points="638.05 516.18 632.5 505.62 632.77 505.5 638.33 516.06 638.05 516.18"/><polygon class="cls-15" points="632.53 518.51 626.99 507.87 627.27 507.76 632.81 518.39 632.53 518.51"/><polygon class="cls-15" points="616.09 512.33 621.6 523.11 621.31 523.23 615.8 512.45 616.09 512.33"/><polygon class="cls-15" points="615.62 525.62 610.13 514.77 610.42 514.65 615.9 525.5 615.62 525.62"/><polygon class="cls-15" points="609.86 528.04 604.4 517.11 604.69 517 610.16 527.92 609.86 528.04"/><polygon class="cls-15" points="604.05 530.49 598.61 519.48 598.9 519.36 604.35 530.36 604.05 530.49"/><polygon class="cls-15" points="587.15 524.17 592.56 535.32 592.26 535.45 586.85 524.29 587.15 524.17"/><polygon class="cls-15" points="586.26 537.97 580.88 526.74 581.19 526.61 586.57 537.84 586.26 537.97"/><polygon class="cls-15" points="580.21 540.52 574.85 529.21 575.16 529.08 580.52 540.39 580.21 540.52"/><polygon class="cls-15" points="574.1 543.09 568.76 531.7 569.07 531.57 574.41 542.96 574.1 543.09"/></g></g></g></svg>