<svg xmlns="http://www.w3.org/2000/svg" viewBox="0 0 110.6 110.6"><defs><style>.cls-1{fill:none;stroke:#00b4eb;stroke-miterlimit:10;stroke-width:5px;stroke-dasharray:37.9 9.48;}.cls-2{fill:#00b4eb;}</style></defs><title>资源 4</title><g id="图层_2" data-name="图层 2"><g id="Layer_2" data-name="Layer 2"><circle class="cls-1" cx="55.3" cy="55.3" r="52.8" transform="translate(-22.91 55.3) rotate(-45)"/><path class="cls-2" d="M103.16,53.47H83.89a26.39,26.39,0,0,0-18-25l2.41-7.15a33.94,33.94,0,0,1,23,30.09Z"/><path class="cls-2" d="M103.16,57.13H83.89a26.39,26.39,0,0,1-18,25l2.41,7.15a33.93,33.93,0,0,0,23-30.09Z"/><path class="cls-2" d="M7.44,53.47H26.72a26.38,26.38,0,0,1,18-25l-2.42-7.15a33.94,33.94,0,0,0-23,30.09Z"/><path class="cls-2" d="M7.44,57.13H26.72a26.38,26.38,0,0,0,18,25l-2.42,7.15a33.93,33.93,0,0,1-23-30.09Z"/><rect class="cls-2" x="38.19" y="39.94" width="0.49" height="4.37"/><rect class="cls-2" x="55.38" y="39.94" width="0.49" height="4.37"/><rect class="cls-2" x="39.67" y="41.9" width="0.98" height="2.41"/><rect class="cls-2" x="41.63" y="41.9" width="0.98" height="2.41"/><rect class="cls-2" x="43.59" y="41.9" width="0.98" height="2.41"/><rect class="cls-2" x="45.56" y="41.9" width="0.98" height="2.41"/><rect class="cls-2" x="47.52" y="41.9" width="0.98" height="2.41"/><rect class="cls-2" x="49.49" y="41.9" width="0.98" height="2.41"/><rect class="cls-2" x="51.45" y="41.9" width="0.98" height="2.41"/><rect class="cls-2" x="53.41" y="41.9" width="0.98" height="2.41"/><rect class="cls-2" x="55.87" y="39.94" width="0.49" height="4.37"/><rect class="cls-2" x="73.05" y="39.94" width="0.49" height="4.37"/><rect class="cls-2" x="57.34" y="41.9" width="0.98" height="2.41"/><rect class="cls-2" x="59.3" y="41.9" width="0.98" height="2.41"/><rect class="cls-2" x="61.27" y="41.9" width="0.98" height="2.41"/><rect class="cls-2" x="63.23" y="41.9" width="0.98" height="2.41"/><rect class="cls-2" x="65.2" y="41.9" width="0.98" height="2.41"/><rect class="cls-2" x="67.16" y="41.9" width="0.98" height="2.41"/><rect class="cls-2" x="69.12" y="41.9" width="0.98" height="2.41"/><rect class="cls-2" x="71.09" y="41.9" width="0.98" height="2.41"/><rect class="cls-2" x="73.05" y="64.53" width="0.49" height="4.37"/><rect class="cls-2" x="55.87" y="64.53" width="0.49" height="4.37"/><rect class="cls-2" x="71.09" y="64.53" width="0.98" height="2.41"/><rect class="cls-2" x="69.12" y="64.53" width="0.98" height="2.41"/><rect class="cls-2" x="67.16" y="64.53" width="0.98" height="2.41"/><rect class="cls-2" x="65.2" y="64.53" width="0.98" height="2.41"/><rect class="cls-2" x="63.23" y="64.53" width="0.98" height="2.41"/><rect class="cls-2" x="61.27" y="64.53" width="0.98" height="2.41"/><rect class="cls-2" x="59.31" y="64.53" width="0.98" height="2.41"/><rect class="cls-2" x="57.34" y="64.53" width="0.98" height="2.41"/><rect class="cls-2" x="55.38" y="64.53" width="0.49" height="4.37"/><rect class="cls-2" x="38.19" y="64.53" width="0.49" height="4.37"/><rect class="cls-2" x="53.41" y="64.53" width="0.98" height="2.41"/><rect class="cls-2" x="51.45" y="64.53" width="0.98" height="2.41"/><rect class="cls-2" x="49.49" y="64.53" width="0.98" height="2.41"/><rect class="cls-2" x="47.52" y="64.53" width="0.98" height="2.41"/><rect class="cls-2" x="45.56" y="64.53" width="0.98" height="2.41"/><rect class="cls-2" x="43.59" y="64.53" width="0.98" height="2.41"/><rect class="cls-2" x="41.63" y="64.53" width="0.98" height="2.41"/><rect class="cls-2" x="39.67" y="64.53" width="0.98" height="2.41"/></g></g></svg>