<svg xmlns="http://www.w3.org/2000/svg" viewBox="0 0 151.38 151.37"><defs><style>.cls-1{isolation:isolate;}.cls-2,.cls-5{mix-blend-mode:color-dodge;}.cls-3{fill:#2273aa;}.cls-4{fill:#57cbff;}.cls-5{opacity:0.5;}</style></defs><title>资源 1</title><g class="cls-1"><g id="图层_2" data-name="图层 2"><g id="Layer_1" data-name="Layer 1"><g class="cls-2"><path class="cls-3" d="M136.13,86.55l-16.06-2.76.17-.91c0-.17.07-.37.09-.61s.07-.55.11-.86c.07-.51.15-1.09.18-1.67l0-.64c.06-.7.11-1.37.1-1.89l0-1.57,16.3.12-.05,2c0,.82-.08,1.86-.17,3l0,.48c-.06.85-.17,1.69-.27,2.43-.05.36-.1.69-.13,1s-.09.65-.14.89ZM121,83.13l14.48,2.5.05-.29c.05-.23.1-.51.14-.84s.07-.65.12-1c.1-.73.21-1.55.27-2.38l0-.48c.09-1.09.17-2.11.17-2.91l0-1.16-14.7-.12,0,.78c0,.54,0,1.22-.1,1.94l0,.64c0,.6-.12,1.19-.19,1.72,0,.3-.08.58-.1.83s-.07.49-.11.68Z"/><path class="cls-3" d="M15.24,86.55l-.18-1.06c-.05-.25-.1-.55-.14-.9s-.08-.63-.13-1c-.1-.74-.21-1.58-.27-2.43l0-.51c-.08-1.09-.16-2.12-.16-2.94l-.05-2,16.29-.12,0,1.56c0,.53,0,1.19.11,1.89l.05.65c0,.58.11,1.16.18,1.68,0,.3.08.59.11.85s.06.45.09.62l.16.9Zm-.15-10,0,1.15c0,.8.08,1.82.16,2.89l0,.51c.06.82.17,1.65.26,2.38.05.36.1.7.13,1s.09.62.13.85l.05.28,14.48-2.5V83a6.47,6.47,0,0,1-.11-.68c0-.25-.06-.53-.1-.83C30.08,81,30,80.4,30,79.79l-.05-.64c-.06-.71-.11-1.39-.11-1.94l0-.77Z"/><path class="cls-3" d="M75.56,137.1l-1.09,0L72.64,137l-3.57-.27,1.63-16.21,2.74.2,1.35,0c.69,0,1.33,0,1.9,0h.66c.61,0,1,0,1.12,0l.41,0,0,.41,1,15.85-.39,0s-.65.06-1.59.07l-.71,0C76.69,137.08,76.14,137.1,75.56,137.1ZM70,136l3.12.21,1.42,0c1,0,1.88,0,2.68,0l.73,0c.48,0,.87,0,1.14,0l-.9-14.67-.78,0-.65,0c-.59,0-1.27,0-1.94,0l-3.35-.18Z"/><path class="cls-3" d="M108.35,127.7,99.58,114l.66-.43.26-.16c.18-.11.4-.25.64-.42l1.4-1c.3-.22.62-.48,1-.75l.77-.6a45.27,45.27,0,0,0,13.62-18.92c.53-1.43,1-2.74,1.21-3.68l.47-1.82,15.82,3.92-.2.89-.41,1.43c-.37,1.38-1,3.17-1.65,5a61.68,61.68,0,0,1-18.54,25.76l-.75.59c-.57.45-1.1.88-1.6,1.25l-1.87,1.33c-.35.25-.67.45-.92.61l-.32.2Zm-7.67-13.5,7.91,12.39.1-.06.33-.22c.24-.15.54-.34.88-.58l1.87-1.33c.48-.36,1-.78,1.57-1.22l.75-.59a61,61,0,0,0,18.29-25.42c.68-1.84,1.26-3.6,1.63-5l.43-1.53-14.27-3.53-.3,1.06c-.25,1-.69,2.29-1.23,3.75A46.11,46.11,0,0,1,113,102.49a46.57,46.57,0,0,1-8.19,8.74l-.78.6c-.34.28-.67.54-1,.77l-1.4,1c-.26.19-.49.34-.69.46l-.24.15Z"/><path class="cls-3" d="M41.87,126.94l-.32-.2s-.17-.1-.46-.31l-1.2-.85c-.43-.3-1.1-.78-1.85-1.38l-.32-.26c-.61-.47-1.3-1-2-1.63l-1.28-1.11-1.33-1.26c-.7-.64-1.37-1.35-2.09-2.1l-.66-.71A62.49,62.49,0,0,1,25,110.42a61.44,61.44,0,0,1-7.27-14.27c-.64-1.81-1.09-3.41-1.42-4.57l-.13-.48-.55-2.35,15.91-3.56.57,2.36c.24.87.55,1.94,1,3.17a45.4,45.4,0,0,0,5.33,10.47,46.84,46.84,0,0,0,3.92,4.94l.65.68c.47.5.91,1,1.37,1.38l1,.94.94.82c.47.42.93.77,1.36,1.12l.35.27c.52.42,1,.76,1.34,1l.9.64a1.73,1.73,0,0,0,.29.2l.37.22ZM16.63,89.35l.5,2c.32,1.16.76,2.74,1.4,4.52A60.45,60.45,0,0,0,25.7,110,63.2,63.2,0,0,0,31,116.59l.67.7c.7.74,1.36,1.44,2.05,2.07L35,120.61l1.27,1.1c.68.61,1.35,1.14,2,1.6l.33.26c.73.59,1.38,1.06,1.81,1.36l1.2.85a.35.35,0,0,1,.09.07l8.19-12.21h0l-.89-.63c-.36-.25-.84-.6-1.39-1l-.33-.26c-.43-.34-.91-.71-1.4-1.16l-1-.82-1-.94c-.48-.43-.93-.91-1.41-1.42l-.66-.68a48,48,0,0,1-4-5A45.68,45.68,0,0,1,32.38,91c-.44-1.24-.75-2.33-1-3.21l-.15-.54L31,86.14Z"/><path class="cls-3" d="M82.18,136.76l-1.81-16.19,1-.13a4.41,4.41,0,0,1,.49-.07c.34,0,.73-.08,1.16-.17a42.29,42.29,0,0,0,5-1.11,44.65,44.65,0,0,0,4.83-1.67c.42-.16.78-.33,1.08-.47l.46-.21.94-.42,7,14.73-1.16.52-.57.26c-.42.19-.94.43-1.54.66a56.43,56.43,0,0,1-6.57,2.27,57.81,57.81,0,0,1-6.78,1.52c-.62.12-1.19.19-1.65.25-.23,0-.43,0-.6.07Zm-.93-15.5,1.63,14.61.46-.06.61-.08c.47-.06,1-.12,1.61-.24a61.58,61.58,0,0,0,13.2-3.74c.58-.23,1.08-.46,1.5-.65.21-.1.4-.19.58-.26l.4-.18L95,117.37l-.23.1-.44.21c-.32.15-.69.32-1.13.48a45.42,45.42,0,0,1-10,2.83c-.45.09-.87.14-1.21.18a4.58,4.58,0,0,0-.47.06Z"/><path class="cls-3" d="M67.11,136.48l-.38,0s-.33,0-.89-.14l-2.24-.4c-.66-.14-1.39-.3-2.17-.49l-1-.23-.91-.25c-.87-.24-1.77-.49-2.67-.79l-.53-.18c-1-.33-2-.68-3-1.07l-1.57-.62-1.41-.63c-1-.45-1.64-.75-2.08-1l-1.12-.57,7.48-14.48.93.47c.38.21.95.47,1.51.72l1.28.56.91.36c.62.26,1.26.48,2,.71l.62.21c.57.19,1.16.36,1.72.51l.9.26,1,.23,1.3.29,1.66.29a5,5,0,0,0,.6.1l.42,0Zm-18.85-6.74.41.21c.43.23,1.06.53,2,1l2,.85,1,.39c.92.38,1.94.72,2.92,1.05l.54.18c.87.29,1.76.54,2.63.78l.89.25,1,.22c.77.18,1.49.35,2.14.48l2.23.4.45.08,2.13-14.54-.26,0-1.66-.3c-.42-.08-.86-.18-1.33-.29l-1-.24-.92-.26c-.58-.16-1.18-.32-1.76-.52l-.63-.21c-.67-.23-1.36-.46-2-.72l-2.22-.94c-.57-.25-1.16-.52-1.56-.74l-.21-.11Z"/><path class="cls-3" d="M30.56,75.73,14.27,75.6l.05-2c0-.81.08-1.85.16-2.94l0-.5c.06-.85.17-1.69.27-2.43.05-.36.09-.69.13-1s.09-.65.14-.89l.18-1.06L31.3,67.58l-.16.9c0,.17-.07.38-.09.61s-.07.55-.11.86c-.07.51-.15,1.1-.18,1.67l-.05.66c-.06.7-.11,1.35-.11,1.87Zm-15.47-.92,14.69.11,0-.77c0-.54.05-1.22.11-1.93l.05-.65c0-.6.12-1.2.19-1.73,0-.3.08-.58.1-.83s.07-.49.11-.68v-.1L15.89,65.74l-.05.28c0,.23-.09.52-.13.85s-.08.64-.13,1c-.09.73-.2,1.56-.26,2.39l0,.51c-.08,1.07-.16,2.09-.16,2.88Z"/><path class="cls-3" d="M120.81,75.73l0-1.56c0-.54,0-1.2-.1-1.9l0-.64c0-.58-.11-1.16-.18-1.68,0-.31-.08-.6-.11-.86a6,6,0,0,0-.09-.6l-.17-.91,16.06-2.76.19,1.06c.05.25.1.55.14.9s.08.63.13,1c.1.74.21,1.58.27,2.43l0,.47c.09,1.1.17,2.15.17,3l.05,1.95Zm.19-7.5,0,.11a6.69,6.69,0,0,1,.11.67c0,.25.06.53.1.84.07.52.15,1.12.19,1.72l0,.64c0,.71.11,1.39.1,2l0,.76,14.7-.11,0-1.15c0-.81-.08-1.84-.17-2.93l0-.47c-.06-.83-.17-1.66-.27-2.39,0-.36-.09-.7-.12-1s-.09-.61-.14-.84l-.05-.29Z"/><path class="cls-3" d="M80.68,30.82l-3-.21-1.12,0c-.68,0-1.32,0-1.89,0H74c-.63,0-1.07,0-1.12,0l-.42,0,0-.41-1-15.85.39,0s.64-.06,1.58-.07l.73,0c.82,0,1.77-.05,2.72,0l1.82.05,3.58.27Zm-4.89-1.06.82,0L80,30l1.47-14.62-2.73-.2-1.82-.05c-.95,0-1.87,0-2.66,0l-.74,0c-.48,0-.87,0-1.14,0l.9,14.67c.2,0,.47,0,.78,0h.65C75,29.78,75.4,29.76,75.79,29.76Z"/><path class="cls-3" d="M31.8,65.19,16,61.27l.37-1.44.25-.89c.37-1.37.95-3.16,1.65-5A61.57,61.57,0,0,1,36.79,28.16l.77-.61c.56-.45,1.09-.86,1.58-1.23L41,25c.35-.25.67-.45.92-.62l.32-.2.78-.5L51.8,37.41l-.67.42a3,3,0,0,1-.26.17c-.17.11-.39.24-.63.42l-1.4,1c-.3.22-.63.48-1,.75l-.76.6a45.88,45.88,0,0,0-8,8.57,45.1,45.1,0,0,0-5.57,10.35c-.53,1.42-1,2.73-1.21,3.68ZM16.94,60.68l14.27,3.54.3-1.06c.25-1,.69-2.3,1.23-3.75a46.33,46.33,0,0,1,5.67-10.54,46.93,46.93,0,0,1,8.2-8.73l.76-.6,1-.77,1.4-1c.25-.18.49-.33.68-.45l.24-.15h0l-7.9-12.38-.1.06-.33.21c-.24.16-.55.35-.88.59L39.61,27c-.48.35-1,.77-1.56,1.21l-.76.6a61.46,61.46,0,0,0-10.8,11.5A60.69,60.69,0,0,0,19,54.2c-.69,1.84-1.27,3.6-1.63,4.95Z"/><path class="cls-3" d="M119.8,66.18l-.58-2.39c-.24-.86-.54-1.93-1-3.14a45.66,45.66,0,0,0-5.33-10.48A48.68,48.68,0,0,0,109,45.23q-.33-.33-.66-.69c-.47-.49-.9-.95-1.36-1.36L105,41.42c-.47-.43-.94-.8-1.36-1.13l-.34-.26c-.53-.43-1-.76-1.35-1l-.89-.64-.3-.2-.36-.21.23-.35,8.85-13.19.32.19a5.33,5.33,0,0,1,.46.32l1.2.85c.43.3,1.1.78,1.85,1.38l.33.26c.6.47,1.29,1,2,1.63l1.28,1.1,1.32,1.26c.7.64,1.37,1.35,2.08,2.1l.68.71A63.54,63.54,0,0,1,126.34,41a61,61,0,0,1,7.26,14.27c.65,1.81,1.1,3.41,1.42,4.58l.14.47.55,2.35ZM101.55,37.73h0l.88.63c.36.25.85.59,1.39,1l.33.25c.43.34.92.72,1.4,1.16l2,1.77c.47.43.92.9,1.4,1.4l.66.7a49,49,0,0,1,4,5A45.64,45.64,0,0,1,119,60.38c.45,1.24.75,2.32,1,3.19l.16.57.25,1.08L134.74,62l-.49-2c-.32-1.16-.76-2.74-1.4-4.53a60.19,60.19,0,0,0-7.17-14.08,61.11,61.11,0,0,0-5.26-6.62l-.67-.71c-.7-.74-1.36-1.43-2-2.06l-1.85-1.71-.74-.64c-.68-.61-1.35-1.14-1.94-1.6l-.34-.27c-.73-.58-1.38-1.05-1.81-1.35l-1.21-.86-.09-.06Z"/><path class="cls-3" d="M56,35l-7-14.72,1.16-.53.57-.26c.43-.19,1-.43,1.54-.66A59.06,59.06,0,0,1,58.9,16.6a60.85,60.85,0,0,1,6.77-1.51c.63-.13,1.2-.19,1.66-.25.23,0,.43-.05.6-.08l1.27-.16L71,30.8l-1,.13-.49.06a10.07,10.07,0,0,0-1.16.18,42.29,42.29,0,0,0-5,1.11A44.65,44.65,0,0,0,58.52,34c-.42.16-.78.32-1.08.46s-.33.16-.47.21ZM50.13,20.71,56.43,34l.22-.1.45-.2c.32-.15.69-.32,1.13-.49a46.74,46.74,0,0,1,4.9-1.69,44.56,44.56,0,0,1,5.05-1.13,12.05,12.05,0,0,1,1.22-.18l.47-.06.26,0L68.5,15.5l-.46.06-.61.08c-.45,0-1,.12-1.61.23a60.43,60.43,0,0,0-13.2,3.75c-.58.22-1.08.45-1.49.64l-.59.27Z"/><path class="cls-3" d="M96.72,35.76l-.93-.48c-.38-.21-1-.46-1.51-.71l-1-.47-1.16-.46c-.61-.26-1.25-.47-1.94-.7l-.63-.22c-.58-.19-1.17-.36-1.75-.52L86.9,32l-1-.23-1.3-.29-1.66-.3c-.37-.07-.59-.09-.6-.09l-.42,0,2.36-16.13.38,0s.33,0,.89.14l2.24.4c.66.13,1.39.3,2.17.48l1,.23.91.26c.87.24,1.77.49,2.67.78l.57.2c1,.33,2,.67,2.93,1.06l3,1.25c1,.43,1.63.75,2.08,1l1.12.57Zm-13.9-5.45.26.05,1.66.29,1.34.3,1,.23.88.25c.59.17,1.2.33,1.8.54l.63.21c.67.22,1.36.45,2,.72l1.48.6.74.34c.57.25,1.16.52,1.56.74l.2.1,6.75-13-.41-.21c-.44-.24-1.09-.54-2-1l-2.13-.92-.82-.32c-.91-.38-1.92-.72-2.89-1.05L94.26,18c-.87-.29-1.76-.53-2.63-.77L90.74,17l-1-.23c-.77-.18-1.49-.35-2.14-.48l-2.23-.39L85,15.77Z"/><path class="cls-4" d="M136.13,86.55l-16.06-2.76.17-.91c0-.17.07-.37.09-.61s.07-.55.11-.86c.07-.51.15-1.09.18-1.67l0-.64c0-.68.1-1.32.1-1.84l0-1.62,16.3.12-.05,2c0,.82-.08,1.86-.17,3l0,.48c-.06.85-.17,1.69-.27,2.43-.05.36-.1.69-.13,1s-.09.65-.14.89ZM121,83.13l14.48,2.5.05-.29c.05-.23.1-.51.14-.84s.07-.65.12-1c.1-.73.21-1.55.27-2.38l0-.48c.09-1.09.17-2.11.17-2.91l0-1.16-14.7-.12,0,.78c0,.59,0,1.25-.1,2l0,.63c0,.6-.12,1.19-.19,1.72,0,.3-.08.58-.1.83s-.07.49-.11.68Z"/><path class="cls-4" d="M15.24,86.55l-.18-1.06c-.05-.25-.1-.55-.14-.9s-.08-.63-.13-1c-.1-.74-.21-1.58-.27-2.43l0-.51c-.08-1.09-.16-2.12-.16-2.94l-.05-2,16.29-.12,0,1.56c0,.58,0,1.21.11,1.89l.05.65c0,.58.11,1.16.18,1.68,0,.3.08.59.11.85s.06.45.09.62l.16.9Zm-.15-10,0,1.15c0,.8.08,1.82.16,2.89l0,.51c.06.82.17,1.65.26,2.38.05.36.1.7.13,1s.09.62.13.85l.05.28,14.48-2.5V83a6.47,6.47,0,0,1-.11-.68c0-.25-.06-.53-.1-.83C30.08,81,30,80.4,30,79.79l-.05-.64c-.06-.69-.11-1.34-.11-1.89l0-.82Z"/><path class="cls-4" d="M75.56,137.1l-1.09,0L72.64,137l-3.57-.27,1.63-16.21,2.74.2,1.35,0c.69,0,1.33,0,1.9,0h.66c.61,0,1,0,1.12,0l.41,0,0,.41,1,15.85-.39,0s-.65.06-1.59.07l-.72,0C76.69,137.08,76.13,137.1,75.56,137.1ZM70,136l3.1.21,1.44,0c1,0,1.88,0,2.68,0l.73,0c.48,0,.87,0,1.14,0l-.9-14.67-.78,0-.64,0c-.6,0-1.28,0-2,0l-3.35-.18Z"/><path class="cls-4" d="M108.45,127.56a.5.5,0,0,1-.17-.06l-.09,0L99.58,114l.66-.43.26-.16c.18-.11.4-.25.64-.42l1.4-1c.3-.22.62-.48,1-.75l.77-.6a45.27,45.27,0,0,0,13.62-18.92c.53-1.43,1-2.74,1.21-3.68l.47-1.82,15.82,3.92-.2.89-.41,1.43c-.37,1.38-1,3.17-1.65,5a61.64,61.64,0,0,1-7.59,14.1,60.05,60.05,0,0,1-4.23,5.25l-.6-.54a57.14,57.14,0,0,0,4.18-5.18,61.18,61.18,0,0,0,7.49-13.91c.68-1.84,1.26-3.6,1.63-5l.43-1.53-14.27-3.53-.3,1.06c-.25,1-.69,2.29-1.23,3.75A46.11,46.11,0,0,1,113,102.49a46.57,46.57,0,0,1-8.19,8.74l-.78.6c-.34.28-.67.54-1,.77l-1.4,1c-.26.19-.49.34-.69.46l-.24.15,7.91,12.39.06,0,.44.67C108.7,127.47,108.57,127.56,108.45,127.56Z"/><path class="cls-4" d="M41.87,126.94l-.32-.2s-.17-.1-.46-.31l-1.2-.85c-.43-.3-1.1-.78-1.85-1.38l-.32-.26c-.61-.47-1.3-1-2-1.63l-1.28-1.11-1.33-1.26c-.7-.64-1.37-1.35-2.09-2.1l-.66-.71A62.49,62.49,0,0,1,25,110.42a60.34,60.34,0,0,1-3.51-5.78l.7-.38A60.13,60.13,0,0,0,25.7,110,63.2,63.2,0,0,0,31,116.59l.67.7c.7.74,1.36,1.44,2.05,2.07L35,120.61l1.27,1.1c.68.61,1.35,1.14,2,1.6l.33.26c.73.59,1.38,1.06,1.81,1.36l1.2.85a.35.35,0,0,1,.09.07l8.19-12.21h0l-.89-.63c-.36-.25-.84-.6-1.39-1l-.33-.26c-.43-.34-.91-.71-1.4-1.16l-1-.82-1-.94c-.48-.43-.93-.91-1.41-1.42l-.66-.68a48,48,0,0,1-4-5A45.68,45.68,0,0,1,32.38,91c-.44-1.25-.75-2.33-1-3.21l-.15-.54L31,86.14,16.63,89.35a.24.24,0,0,1,0,.08l-.78.18-.2-.86,15.91-3.56.57,2.36c.24.87.55,1.94,1,3.17a45.4,45.4,0,0,0,5.33,10.47,46.84,46.84,0,0,0,3.92,4.94l.65.68c.47.5.91,1,1.37,1.38l1,.94.94.82c.47.42.93.77,1.36,1.12l.35.27c.52.42,1,.76,1.34,1l.9.64a1.73,1.73,0,0,0,.29.2l.37.22Z"/><path class="cls-4" d="M82.18,136.76l-1.81-16.19,1-.13a4.41,4.41,0,0,1,.49-.07c.34,0,.73-.08,1.16-.17a42.29,42.29,0,0,0,5-1.11,44.65,44.65,0,0,0,4.83-1.67c.42-.16.78-.33,1.08-.47l.46-.21.94-.42,7,14.73-1.16.52-.57.26c-.42.19-.94.43-1.54.66a56.43,56.43,0,0,1-6.57,2.27,57.81,57.81,0,0,1-6.78,1.52c-.62.12-1.19.19-1.65.25-.23,0-.43,0-.6.07Zm-.93-15.5,1.63,14.61.46-.06.61-.08c.47-.06,1-.12,1.61-.24a61.58,61.58,0,0,0,13.2-3.74c.58-.23,1.08-.46,1.5-.65.21-.1.4-.19.58-.26l.4-.18L95,117.37l-.23.1-.44.21c-.32.15-.69.32-1.13.48a45.42,45.42,0,0,1-10,2.83c-.45.09-.87.14-1.21.18a4.58,4.58,0,0,0-.47.06Z"/><path class="cls-4" d="M67.11,136.48l-.38,0s-.33,0-.89-.14l-2.24-.4c-.66-.14-1.39-.3-2.17-.49l-1-.23-.91-.25c-.87-.24-1.77-.49-2.67-.79l-.53-.18c-1-.33-2-.68-3-1.07l-1.57-.62-1.41-.63c-1-.45-1.64-.75-2.08-1l-1.12-.57,7.48-14.48.93.47c.38.21.95.47,1.51.72l1.28.56.91.36c.62.26,1.26.48,2,.71l.62.21c.57.19,1.16.36,1.72.51l.9.26,1,.23,1.3.29,1.66.29a5,5,0,0,0,.6.1l.42,0Zm-18.85-6.74.41.21c.43.23,1.06.53,2,1l2,.85,1,.39c.92.38,1.94.72,2.92,1.05l.54.18c.87.29,1.76.54,2.63.78l.89.25,1,.22c.77.18,1.49.35,2.14.48l2.23.4.45.08,2.13-14.54-.26,0-1.66-.3c-.42-.08-.86-.18-1.33-.29l-1-.24-.92-.26c-.58-.16-1.18-.32-1.76-.52l-.63-.21c-.67-.23-1.36-.46-2-.72l-2.22-.94c-.57-.25-1.16-.52-1.56-.74l-.21-.11Z"/><path class="cls-4" d="M30.56,75.73,14.27,75.6l.05-2c0-.81.08-1.85.16-2.94l0-.5c.06-.85.17-1.69.27-2.43.05-.36.09-.69.13-1s.09-.65.14-.89l.18-1.06L31.3,67.58l-.16.9c0,.17-.07.38-.09.61s-.07.55-.11.86c-.07.51-.15,1.1-.18,1.67l-.05.65c-.06.68-.11,1.32-.11,1.84Zm-15.47-.92,14.69.11,0-.77c0-.59.06-1.25.11-1.94l.05-.64c0-.6.12-1.2.19-1.73,0-.3.08-.58.1-.83s.07-.49.11-.68v-.1L15.89,65.74l-.05.28c0,.23-.09.52-.13.85s-.08.64-.13,1c-.09.73-.2,1.56-.26,2.39l0,.51c-.08,1.07-.16,2.09-.16,2.88Z"/><path class="cls-4" d="M120.81,75.73l0-1.56c0-.58,0-1.22-.1-1.9l0-.64c0-.58-.11-1.16-.18-1.68,0-.31-.08-.6-.11-.86a6,6,0,0,0-.09-.6l-.17-.91,16.06-2.76.19,1.06c.05.25.1.55.14.9s.08.63.13,1c.1.74.21,1.58.27,2.43l0,.47c.09,1.1.17,2.15.17,3l.05,1.95Zm.19-7.5,0,.11a6.69,6.69,0,0,1,.11.67c0,.25.06.53.1.84.07.52.15,1.12.19,1.72l0,.64c0,.69.1,1.35.1,1.9l0,.81,14.7-.11,0-1.15c0-.81-.08-1.84-.17-2.93l0-.47c-.06-.83-.17-1.66-.27-2.39,0-.36-.09-.7-.12-1s-.09-.61-.14-.84l-.05-.29Z"/><path class="cls-4" d="M80.68,30.82l-3-.21-1.1,0c-.68,0-1.32,0-1.89,0H74c-.63,0-1.07,0-1.12,0l-.42,0,0-.41-1-15.85.39,0s.64-.06,1.58-.07l.73,0c.81,0,1.77-.05,2.72,0l1.82.05,3.58.27Zm-4.89-1.06.82,0L80,30l1.47-14.62-2.73-.2-1.82-.05c-.95,0-1.87,0-2.67,0l-.73,0c-.48,0-.87,0-1.14,0l.9,14.67c.2,0,.47,0,.78,0h.64C75,29.78,75.4,29.76,75.79,29.76Z"/><path class="cls-4" d="M31.8,65.19,16,61.27l.36-1.44.26-.89c.37-1.37.95-3.16,1.65-5a62.06,62.06,0,0,1,7.59-14.1,58.16,58.16,0,0,1,4.23-5.24l.6.53a58.21,58.21,0,0,0-4.18,5.18A60.69,60.69,0,0,0,19,54.2c-.69,1.84-1.27,3.6-1.63,4.95l-.43,1.53,14.27,3.54.3-1.06c.25-1,.69-2.3,1.23-3.75a46.33,46.33,0,0,1,5.67-10.54,46.93,46.93,0,0,1,8.2-8.73l.76-.6,1-.77,1.4-1c.25-.18.49-.33.68-.45l.24-.15h0l-7.9-12.38-.06,0-.44-.68.2-.13c.29-.18.4-.25.61-.14l.09.05L51.8,37.41l-.67.42a3,3,0,0,1-.26.17c-.17.11-.39.24-.63.42l-1.4,1c-.3.22-.63.48-1,.75l-.76.6a45.88,45.88,0,0,0-8,8.57,45.1,45.1,0,0,0-5.57,10.35c-.53,1.42-1,2.73-1.21,3.68Z"/><path class="cls-4" d="M119.8,66.18l-.58-2.39c-.24-.86-.54-1.93-1-3.14a45.66,45.66,0,0,0-5.33-10.48A48.68,48.68,0,0,0,109,45.23q-.33-.33-.66-.69c-.47-.49-.9-.95-1.36-1.36L105,41.42c-.47-.43-.94-.8-1.36-1.13l-.34-.26c-.53-.43-1-.76-1.35-1l-.89-.64-.3-.2-.36-.21.23-.35,8.85-13.19.32.19a5.33,5.33,0,0,1,.46.32l1.2.85c.43.3,1.1.78,1.85,1.38l.33.26c.6.47,1.29,1,2,1.63l1.28,1.1,1.32,1.26c.7.64,1.37,1.35,2.08,2.1l.68.71A63.54,63.54,0,0,1,126.34,41a61.42,61.42,0,0,1,3.51,5.77l-.71.38a60.12,60.12,0,0,0-8.72-12.32l-.67-.71c-.7-.74-1.36-1.43-2-2.06l-1.84-1.71-.75-.64c-.68-.61-1.35-1.14-1.94-1.6l-.34-.27c-.73-.58-1.38-1.05-1.81-1.35l-1.21-.86-.09-.06-8.18,12.21h0l.88.63c.36.25.85.59,1.39,1l.33.25c.43.34.92.72,1.4,1.16l2,1.77c.47.43.92.9,1.4,1.4l.66.7a49,49,0,0,1,4,5A45.64,45.64,0,0,1,119,60.38c.45,1.24.75,2.32,1,3.19l.16.57.25,1.08L134.74,62l0-.07.78-.18,0,.08c.13.56.15.6,0,.76l-.08.08Z"/><path class="cls-4" d="M56,35l-7-14.72,1.16-.53.57-.26c.43-.19,1-.43,1.54-.66A59.06,59.06,0,0,1,58.9,16.6a60.85,60.85,0,0,1,6.77-1.51c.63-.13,1.2-.19,1.66-.25.23,0,.43-.05.6-.08l1.27-.16L71,30.8l-1,.13-.49.06a10.07,10.07,0,0,0-1.16.18,42.29,42.29,0,0,0-5,1.11A44.65,44.65,0,0,0,58.52,34c-.42.16-.78.32-1.08.46s-.33.16-.47.21ZM50.13,20.71,56.43,34l.22-.1.45-.2c.32-.15.69-.32,1.13-.49a46.74,46.74,0,0,1,4.9-1.69,44.56,44.56,0,0,1,5.05-1.13,12.05,12.05,0,0,1,1.22-.18l.47-.06.26,0L68.5,15.5l-.46.06-.61.08c-.45,0-1,.12-1.61.23a60.43,60.43,0,0,0-13.2,3.75c-.58.22-1.08.45-1.49.64l-.59.27Z"/><path class="cls-4" d="M96.72,35.76l-.93-.48c-.38-.21-1-.46-1.51-.71l-1-.47-1.16-.46c-.61-.26-1.25-.47-1.94-.7l-.63-.22c-.58-.19-1.17-.36-1.75-.52L86.9,32l-1-.23-1.3-.29-1.66-.3c-.37-.07-.59-.09-.6-.09l-.42,0,2.36-16.13.38,0s.33,0,.89.14l2.24.4c.66.13,1.39.3,2.17.48l1,.23.91.26c.87.24,1.77.49,2.67.78l.57.2c1,.33,2,.67,2.93,1.06l3,1.25c1,.43,1.63.75,2.08,1l1.12.57Zm-13.9-5.45.26.05,1.66.29,1.34.3,1,.23.88.25c.59.17,1.2.33,1.8.54l.63.21c.67.22,1.36.45,2,.72l1.48.6.74.34c.57.25,1.16.52,1.56.74l.2.1,6.75-13-.41-.21c-.44-.24-1.09-.54-2-1l-2.13-.92-.82-.32c-.91-.38-1.92-.72-2.89-1.05L94.26,18c-.87-.29-1.76-.53-2.63-.77L90.74,17l-1-.23c-.77-.18-1.49-.35-2.14-.48l-2.23-.39L85,15.77Z"/></g><g class="cls-5"><path class="cls-3" d="M144,108.16l-18.71-8.63.6-1.3c.09-.18.2-.41.3-.67s.26-.64.4-1c.25-.59.53-1.25.74-1.91l.27-.76c.29-.81.56-1.57.71-2.17l.64-2.15,19.87,5.48-.77,2.62c-.26,1-.69,2.17-1.14,3.45l-.2.57c-.34,1-.74,2-1.1,2.82-.17.4-.33.78-.46,1.13s-.32.75-.45,1Zm-16.58-9.41L143.26,106l0,0c.12-.26.27-.57.41-.94l.47-1.16c.35-.83.74-1.77,1.07-2.72l.2-.58c.44-1.25.86-2.43,1.11-3.36l.32-1.07-16.79-4.63-.18.62c-.17.64-.45,1.43-.75,2.27l-.26.75c-.24.71-.53,1.4-.78,2-.14.34-.28.66-.38.94S127.53,98.57,127.45,98.75Z"/><path class="cls-3" d="M20.79,71.53.26,69.65.4,68c0-.31.06-.7.12-1.14s.11-.77.17-1.2c.12-.92.25-2,.45-3l.12-.61c.24-1.32.48-2.58.74-3.56l.63-2.64,20,5.18-.52,2.16c-.17.63-.32,1.42-.48,2.26l-.14.79c-.15.68-.23,1.39-.31,2-.05.38-.1.74-.15,1.06s-.06.53-.08.73ZM2,68.21l17.34,1.58c0-.2,0-.42.08-.67s.09-.65.14-1c.08-.65.17-1.39.33-2.13l.14-.76c.16-.87.32-1.7.5-2.37l.14-.6L3.81,57.86l-.26,1.07c-.25.94-.48,2.17-.72,3.46L2.72,63c-.2,1-.33,2-.45,2.89,0,.45-.11.87-.16,1.24s-.09.75-.11,1Z"/><path class="cls-3" d="M61.46,150l-.76-.13s-.8-.14-1.93-.42l-.85-.21c-1-.23-2.13-.5-3.26-.86l-2.14-.63-4.47-1.57,7.3-19.27,3.47,1.21,1.58.46c.77.25,1.56.44,2.24.6l.78.19c.46.12.92.22,1.31.29l.37.06.37.58ZM50.13,145.2l3,1.05,1.95.58c1.1.34,2.2.61,3.17.84l.87.21,1.05.24,3.47-17.07L63,130.9l-.74-.18c-.72-.17-1.54-.37-2.35-.63l-1.6-.47-2-.71Z"/><path class="cls-3" d="M97.68,148.09l-6.21-19.66,1.21-.38.37-.12c.24-.07.53-.16.87-.29l2-.74c.42-.16.87-.36,1.36-.57l1.12-.47a56.23,56.23,0,0,0,12.17-7.56,55.36,55.36,0,0,0,9.84-10.45c1.08-1.51,2-2.91,2.59-3.94l.9-1.56.38-.72,18.05,10-.67,1.26-.95,1.58c-.88,1.52-2.15,3.46-3.57,5.46a76.08,76.08,0,0,1-13.53,14.36,77,77,0,0,1-16.74,10.39l-1.07.46c-.83.35-1.6.69-2.32,1l-2.64,1c-.5.19-.94.33-1.3.44l-.44.14Zm-4.2-18.62,5.25,16.61.3-.1c.33-.1.75-.23,1.21-.41l2.64-1c.69-.27,1.45-.6,2.26-1l1.06-.46A74.5,74.5,0,0,0,135.81,119c1.39-2,2.63-3.85,3.49-5.34l.84-1.4-15.25-8.42-.54.9c-.61,1.07-1.56,2.52-2.67,4.07a56.1,56.1,0,0,1-10.13,10.75A57.52,57.52,0,0,1,99,127.33l-1.12.47-1.41.6-2,.73a9.42,9.42,0,0,1-1,.33Z"/><path class="cls-3" d="M19.32,126.13l-.53-.55s-.17-.18-.46-.53l-1.15-1.39c-.42-.5-1.07-1.28-1.77-2.24L15.1,121c-.57-.75-1.21-1.61-1.84-2.57l-1.15-1.71-1.19-1.92c-.63-1-1.2-2-1.8-3.17l-.58-1a79.74,79.74,0,0,1-4.21-9.7A75.52,75.52,0,0,1,.24,81.58C0,79.22,0,77.18,0,75.69v-.61l.11-3.29,20.59.86-.09,2.62,0,.67c0,1.09,0,2.45.16,4a55.67,55.67,0,0,0,3,14,59.7,59.7,0,0,0,3.06,7.06c.18.31.37.66.55,1,.4.72.77,1.41,1.17,2l1.08,1.73.65,1c.42.65.84,1.21,1.24,1.74l.33.44c.49.67.93,1.21,1.27,1.61l.86,1a2.73,2.73,0,0,0,.27.3l.59.61-.63.56ZM1.65,73.46l0,1.64v.57c0,1.47,0,3.48.22,5.79a74.56,74.56,0,0,0,4,18.89A77.32,77.32,0,0,0,10,109.83l.56,1c.59,1.09,1.15,2.12,1.76,3.08l1.17,1.9,1.15,1.7c.6.92,1.23,1.76,1.78,2.49l.32.43c.68.93,1.3,1.68,1.71,2.16l1,1.26,13.11-11.47-.67-.81c-.35-.41-.82-1-1.33-1.68l-.31-.42c-.41-.54-.86-1.14-1.3-1.82l-.86-1.27L27.2,105c-.43-.67-.82-1.38-1.22-2.13l-.56-1a59.42,59.42,0,0,1-3.16-7.29,56.56,56.56,0,0,1-3.07-14.44c-.13-1.62-.15-3-.17-4.13v-.7l0-1.07Z"/><path class="cls-3" d="M75.5,151.37c-2.18,0-4.6-.13-7.2-.38-.79-.05-1.5-.15-2.07-.23l-.72-.1-1.87-.26L66.73,130l1.56.21.61.09c.41.06.87.13,1.39.16a54.65,54.65,0,0,0,6.24.26,57.25,57.25,0,0,0,6.22-.44c.55-.06,1-.14,1.42-.21l.63-.11,1.53-.24L90,150l-1.85.31-.76.12c-.56.1-1.26.22-2.05.3a71.68,71.68,0,0,1-8.54.61Zm-10-2.33.25,0,.75.1c.58.09,1.22.18,2,.23,2.57.24,4.94.37,7.07.37l1.32,0a71.12,71.12,0,0,0,8.38-.6c.75-.08,1.39-.19,2-.28l.78-.13.23,0L85,131.56h0l-.58.09c-.41.08-.93.17-1.52.23a57,57,0,0,1-6.37.45h-1c-2.09,0-4.05-.16-5.33-.28-.57,0-1.1-.11-1.52-.17l-.56-.08h0Z"/><path class="cls-3" d="M46.38,145.42l-.71-.27a11.21,11.21,0,0,1-1-.46l-2.52-1.18c-.75-.37-1.56-.81-2.43-1.27l-1.1-.59-1-.6c-1-.56-2-1.15-2.92-1.78l-.57-.38c-1.08-.72-2.2-1.46-3.2-2.23l-1.66-1.24-1.48-1.2c-1.05-.85-1.72-1.42-2.17-1.84l-1.37-1.24L38.07,115.9,39.25,117c.37.36,1,.85,1.55,1.32l1.47,1.17.82.61c.64.5,1.33,1,2.06,1.44l.69.46c.6.4,1.25.78,1.87,1.14l1,.59,1.11.58c.51.28,1,.53,1.43.75l1.87.88a6.62,6.62,0,0,0,.66.29l.79.3ZM26.45,131l.19.17c.44.41,1.08,1,2.1,1.78l1.94,1.54,1.15.86c1,.75,2,1.44,3.12,2.17l.58.38c.93.62,1.9,1.19,2.84,1.74l1,.59,1.06.57c.86.46,1.65.88,2.38,1.24l2.51,1.18.21.1,6.9-16h0l-1.87-.88c-.48-.23-1-.49-1.5-.78l-1.14-.6c-.35-.22-.68-.4-1-.6-.64-.37-1.3-.76-1.95-1.19l-.69-.46c-.72-.48-1.47-1-2.13-1.5l-2.34-1.81c-.69-.56-1.23-1-1.61-1.37Z"/><path class="cls-3" d="M22.4,61.79,2.53,56.3l.77-2.61c.26-1,.68-2.18,1.14-3.45l.2-.58c.34-1,.74-2,1.1-2.82.17-.4.32-.78.46-1.12s.32-.76.46-1l.68-1.47,18.72,8.63-.61,1.3c-.08.18-.19.41-.29.67l-.41,1c-.24.58-.52,1.23-.74,1.89l-.26.76c-.29.81-.56,1.57-.72,2.18ZM4.52,55.2l16.79,4.63.18-.62c.17-.65.45-1.44.75-2.28l.26-.74c.23-.71.52-1.4.78-2,.14-.34.27-.66.38-.95s.18-.44.27-.62L8.12,45.33l0,0c-.12.26-.27.57-.41.94s-.3.74-.47,1.16c-.35.83-.74,1.77-1.07,2.73l-.21.58C5.5,52,5.09,53.2,4.84,54.13Z"/><path class="cls-3" d="M148.74,95.46l-20-5.18.52-2.15c.17-.63.32-1.42.47-2.25l.15-.8c.14-.69.23-1.4.31-2,0-.39.1-.75.15-1.07s.06-.52.08-.72l.12-1.44,20.53,1.88L151,83.33c0,.32-.06.7-.13,1.13s-.1.77-.16,1.21c-.12.92-.25,2-.46,3l-.1.57c-.25,1.34-.49,2.61-.75,3.6Zm-18-6.33,16.86,4.37.26-1.06c.25-1,.48-2.19.72-3.5l.11-.58c.2-1,.33-2,.44-2.89.06-.45.11-.87.17-1.25s.09-.74.11-1v0l-17.34-1.59c0,.2,0,.43-.08.68s-.09.64-.14,1c-.08.65-.18,1.39-.33,2.13l-.15.78c-.16.87-.31,1.69-.49,2.36Z"/><path class="cls-3" d="M96,24.48l-3.46-1.21L91,22.81c-.77-.25-1.54-.44-2.23-.6L88,22c-.66-.17-1.14-.26-1.32-.29l-.4-.07-.32-.61,4-19.66.76.13s.8.13,1.93.42l.86.21c1,.23,2.12.5,3.25.86l2.9.89,3.71,1.3ZM87.7,20.31l.66.16.76.19c.71.16,1.52.36,2.33.62l1.59.46,2,.72,6.17-16.29-2.88-1-2.12-.62c-1.09-.35-2.18-.61-3.15-.84l-.88-.21-1-.25Z"/><path class="cls-3" d="M27.13,49.73l-18-10,.67-1.26.94-1.59c.88-1.51,2.15-3.45,3.58-5.45A75.5,75.5,0,0,1,27.8,17.1,76.59,76.59,0,0,1,44.54,6.72l1.11-.48c.81-.35,1.57-.68,2.27-1l2.65-1c.5-.19.93-.33,1.29-.44l.44-.14,1.39-.44,6.22,19.66-1.22.38-.36.12c-.24.07-.53.16-.87.29l-2,.73L54.11,25l-1.1.47a56,56,0,0,0-12.17,7.56A55.28,55.28,0,0,0,31,43.51c-1.08,1.51-2,2.92-2.59,4ZM11.24,39.14l15.25,8.41.54-.9c.61-1.06,1.56-2.51,2.66-4.07A57.33,57.33,0,0,1,39.82,31.83,58.35,58.35,0,0,1,52.37,24l1.11-.47,1.43-.6,2-.74c.37-.14.7-.24,1-.33h0L52.65,5.29l-.31.1c-.33.1-.74.23-1.21.41l-2.63,1c-.68.27-1.42.59-2.21.93l-1.11.47A75.2,75.2,0,0,0,28.81,18.34,74.09,74.09,0,0,0,15.57,32.4c-1.4,2-2.64,3.85-3.5,5.33Z"/><path class="cls-3" d="M151.27,79.57l-20.6-.86.09-2.61v-.67c0-1.1,0-2.46-.16-4a56.11,56.11,0,0,0-3-14,58.31,58.31,0,0,0-3.06-7.06l-.56-1c-.39-.73-.76-1.41-1.17-2l-1.19-1.9-.54-.79c-.42-.66-.85-1.22-1.26-1.77l-.31-.4c-.49-.7-1-1.25-1.26-1.61l-.87-1.05a3,3,0,0,0-.26-.31l-.59-.61.63-.55,14.89-13,.53.55s.17.17.46.53l1.15,1.39c.42.49,1.06,1.27,1.77,2.24l.31.41c.56.76,1.21,1.61,1.83,2.57l1.16,1.71,1.19,1.93c.62,1,1.2,2,1.8,3.16l.58,1.06a78.68,78.68,0,0,1,4.2,9.7,75,75,0,0,1,4.1,19.3c.19,2.36.21,4.41.23,5.91v.58Zm-18.94-2.39,17.4.73.05-1.64v-.55c0-1.48,0-3.49-.22-5.81a74,74,0,0,0-4-18.89,75.65,75.65,0,0,0-4.11-9.48l-.57-1c-.59-1.09-1.15-2.12-1.75-3.07l-1.17-1.91-1.15-1.69c-.6-.93-1.23-1.76-1.78-2.5l-.32-.42c-.68-.93-1.3-1.69-1.71-2.17l-1-1.25L118.82,38.94l.67.81c.31.37.8,1,1.32,1.69l.3.39c.41.54.87,1.15,1.32,1.85l.86,1.27.89,1.45c.43.66.81,1.37,1.22,2.13l.56,1a60,60,0,0,1,3.16,7.28,56.29,56.29,0,0,1,3.06,14.44c.14,1.63.16,3,.17,4.14v.7Z"/><path class="cls-3" d="M65.05,21.63,61.34,1.35l1.85-.3L64,.92c.56-.09,1.26-.21,2-.3A73.79,73.79,0,0,1,74.54,0a72.43,72.43,0,0,1,8.54.35c.78.06,1.49.16,2.06.24l.73.1L87.74,1,84.65,21.35l-1.56-.22c-.16,0-.37,0-.61-.08-.41-.06-.87-.13-1.4-.16a54.35,54.35,0,0,0-6.23-.26,52.59,52.59,0,0,0-6.22.44c-.55.05-1,.14-1.42.21-.23,0-.44.08-.63.1Zm-1.84-19L66.34,19.8h0l.59-.1c.42-.07.93-.16,1.52-.22A54.86,54.86,0,0,1,74.82,19h1.05c2.08,0,4,.15,5.33.27.57,0,1.1.11,1.52.18l.56.08h0L85.92,2.33l-.25,0-.76-.1C84.34,2.11,83.7,2,83,2,80.38,1.72,78,1.6,75.88,1.6l-1.32,0a71.07,71.07,0,0,0-8.38.59c-.75.08-1.39.19-2,.29l-.78.13Z"/><path class="cls-3" d="M113.31,35.47l-1.18-1.06c-.38-.37-1-.85-1.55-1.32l-1.22-1-1.07-.79c-.64-.5-1.33-1-2.06-1.44l-.69-.46c-.61-.41-1.27-.79-1.9-1.16l-1-.57-1.11-.58c-.51-.28-1-.54-1.43-.76l-1.87-.87c-.4-.2-.64-.29-.66-.3l-.79-.29L105,6l.72.27s.38.14,1,.45l2.53,1.19c.76.37,1.58.81,2.46,1.28l1.07.57,1,.61c1,.56,1.94,1.14,2.9,1.78l.62.41c1.07.71,2.17,1.44,3.16,2.2l1.66,1.23,1.48,1.2c1,.82,1.7,1.41,2.17,1.85l1.37,1.24ZM98.94,24l0,0,1.87.87c.48.24,1,.5,1.5.79l1.13.59,1,.59c.65.38,1.32.77,2,1.21l.69.45c.72.48,1.46,1,2.13,1.5l1.23.91,1.11.91c.59.48,1.2,1,1.61,1.37l11.72-12.88-.19-.17c-.44-.42-1.12-1-2.09-1.78l-1.45-1.19L119.54,16c-1-.73-2-1.41-3.07-2.14l-.62-.41c-.93-.61-1.9-1.18-2.83-1.73l-1-.59-1-.55c-.86-.47-1.67-.9-2.4-1.26l-2.51-1.18-.22-.1Z"/></g><g class="cls-2"><path class="cls-4" d="M75.6,132.28a56.07,56.07,0,0,1-34.13-11.44l.48-.64a55.78,55.78,0,0,0,72.73-4.69l.57.57A56.29,56.29,0,0,1,75.6,132.28ZM30.16,109.44a56.63,56.63,0,0,1,5.36-73.73l.57.57A55.8,55.8,0,0,0,30.81,109Zm87.72-70.18a55.83,55.83,0,0,0-69.14-12.5l-.39-.7a56.62,56.62,0,0,1,70.13,12.68Z"/></g><g class="cls-2"><path class="cls-4" d="M124.29,107.94,121,105.75a55,55,0,0,0,2.18-56.5l3.51-1.93a59,59,0,0,1-2.35,60.62Z"/></g><g class="cls-2"><path class="cls-3" d="M76.74,119.44l-.11-4.8a38.78,38.78,0,0,0,21.19-6.88l2.73,3.95A43.64,43.64,0,0,1,76.74,119.44Zm-16.58-2.83A43.69,43.69,0,0,1,40.27,101.4l3.89-2.82a38.82,38.82,0,0,0,17.7,13.54ZM112.3,99.67l-4-2.63a39.06,39.06,0,0,0,1.92-39.45l4.25-2.23a43.84,43.84,0,0,1-2.16,44.31ZM33.18,86.15a44.31,44.31,0,0,1-1.26-10.47A43.73,43.73,0,0,1,34.4,61.14l4.53,1.59A39,39,0,0,0,37.85,85ZM46.53,49.83l-3.59-3.18A43.64,43.64,0,0,1,64.21,33.44l1.25,4.63A38.9,38.9,0,0,0,46.53,49.83Zm54.3-3.92A38.74,38.74,0,0,0,80.41,37L81,32.24a43.52,43.52,0,0,1,23,10Z"/></g><g class="cls-2"><path class="cls-4" d="M75.7,112.89h0q-1.06,0-2.13-.06l.23-4c.63,0,1.31,0,1.91.06a33,33,0,0,0,5.79-.51l.69,3.94A37,37,0,0,1,75.7,112.89Zm-6.43-.55A37.4,37.4,0,0,1,61,109.87l1.58-3.67A33.89,33.89,0,0,0,70,108.4Zm17.12-1-1.15-3.83a33.3,33.3,0,0,0,7.07-3.06l2,3.46A37.65,37.65,0,0,1,86.39,111.33Zm-29.27-3.4a37.77,37.77,0,0,1-6.93-5.15l2.74-2.91a33.94,33.94,0,0,0,6.19,4.6Zm40.8-2.41-2.39-3.21a33.41,33.41,0,0,0,5.6-5.29l3.07,2.57A37.92,37.92,0,0,1,97.92,105.52Zm-50.7-5.88a37.43,37.43,0,0,1-4.76-7.2L46,90.64a33.4,33.4,0,0,0,4.25,6.42Zm59.56-3.52-3.34-2.2A33.1,33.1,0,0,0,106.9,87l3.76,1.36A36.74,36.74,0,0,1,106.78,96.12Zm-66-7.65a37.13,37.13,0,0,1-2-8.4l4-.47a32.8,32.8,0,0,0,1.79,7.5Zm71.16-4.21L108,83.34a33.83,33.83,0,0,0,.88-7.66v-.14h4v.14A37.33,37.33,0,0,1,111.9,84.26ZM38.48,75.75v-.07a37.26,37.26,0,0,1,1-8.5l3.9.91a33.29,33.29,0,0,0-.88,7.59Zm70.18-4a33.13,33.13,0,0,0-1.8-7.49l3.75-1.38a36.68,36.68,0,0,1,2,8.39ZM44.45,64.39,40.69,63a36.7,36.7,0,0,1,3.87-7.72L47.9,57.5A33.64,33.64,0,0,0,44.45,64.39Zm60.87-3.72a33.12,33.12,0,0,0-4.27-6.41l3.06-2.59a37.41,37.41,0,0,1,4.77,7.19ZM50.2,54.4l-3.07-2.57a37.53,37.53,0,0,1,6.27-5.94l2.4,3.21A32.69,32.69,0,0,0,50.2,54.4Zm48.2-2.94a33.39,33.39,0,0,0-6.2-4.59l2-3.47a36.69,36.69,0,0,1,6.94,5.14ZM59,47l-2-3.45a36.42,36.42,0,0,1,7.92-3.45l1.16,3.83A33.11,33.11,0,0,0,59,47Zm29.74-1.82A33.38,33.38,0,0,0,81.36,43L82,39a36.83,36.83,0,0,1,8.28,2.45ZM69.83,43l-.7-3.94a37.67,37.67,0,0,1,8.61-.53l-.22,4A33.6,33.6,0,0,0,69.83,43Z"/></g><g class="cls-2"><path class="cls-4" d="M75.69,96.69a21,21,0,1,1,21-21A21,21,0,0,1,75.69,96.69Zm0-41.61A20.61,20.61,0,1,0,96.3,75.68,20.63,20.63,0,0,0,75.69,55.08Z"/></g><g class="cls-2"><path class="cls-4" d="M75.69,108.19a32.51,32.51,0,1,1,32.5-32.51A32.54,32.54,0,0,1,75.69,108.19Zm0-64.61a32.11,32.11,0,1,0,32.1,32.1A32.14,32.14,0,0,0,75.69,43.58Z"/></g><g class="cls-2"><path class="cls-3" d="M75.69,104.19h-.43l.1-6.4h.33l1.08,0,.3,6.39Q76.38,104.19,75.69,104.19Zm-1.32,0c-.61,0-1.21-.07-1.81-.14l.7-6.36c.46,0,.93.08,1.4.11ZM78,104.1l-.51-6.38c.47,0,.93-.09,1.39-.15l.91,6.33C79.18,104,78.57,104.05,78,104.1Zm-6.31-.19c-.6-.09-1.2-.19-1.78-.31l1.29-6.27q.69.15,1.38.24Zm9-.15-1.11-6.31c.46-.08.92-.17,1.37-.28l1.51,6.22C81.85,103.53,81.26,103.65,80.66,103.76ZM69,103.4c-.58-.14-1.17-.3-1.74-.48l1.89-6.11c.44.14.89.26,1.35.37Zm14.31-.24L81.6,97c.45-.12.9-.26,1.34-.41l2.1,6C84.47,102.82,83.89,103,83.31,103.16Zm-16.91-.52c-.57-.19-1.14-.41-1.7-.64l2.47-5.91c.43.18.87.35,1.31.5Zm19.49-.33-2.3-6c.44-.17.87-.35,1.3-.55l2.66,5.82C87,101.86,86.45,102.1,85.89,102.31Zm-22-.68c-.55-.25-1.09-.52-1.62-.8l3-5.64c.41.22.83.42,1.26.62Zm24.5-.41-2.85-5.73q.63-.31,1.23-.66L90,100.37C89.44,100.67,88.91,101,88.37,101.22Zm-26.91-.83c-.52-.3-1-.62-1.54-1l3.54-5.32c.39.25.79.5,1.2.73Zm29.27-.49-3.38-5.43q.6-.37,1.17-.78l3.71,5.21C91.74,99.25,91.24,99.59,90.73,99.9Zm-31.56-1c-.49-.35-1-.71-1.44-1.09l4-5c.36.29.73.58,1.11.85ZM93,98.37l-3.88-5.1c.37-.28.73-.57,1.09-.88l4.19,4.83C93.91,97.62,93.44,98,93,98.37ZM57,97.25c-.45-.4-.9-.81-1.33-1.23l4.49-4.57c.33.33.67.65,1,1Zm38-.63-4.34-4.7c.34-.32.68-.64,1-1l4.63,4.41C95.91,95.79,95.48,96.22,95,96.62ZM55.08,95.38c-.42-.44-.82-.89-1.21-1.35l4.9-4.12c.3.36.61.71.94,1Zm41.86-.69-4.77-4.27c.31-.35.61-.7.9-1.07l5,4C97.73,93.78,97.34,94.24,96.94,94.69ZM53.3,93.33c-.37-.47-.73-1-1.07-1.45l5.26-3.64c.27.38.54.76.83,1.13Zm45.34-.74-5.14-3.8c.27-.38.54-.76.79-1.16l5.38,3.47C99.35,91.61,99,92.11,98.64,92.59ZM51.72,91.13c-.32-.5-.63-1-.93-1.55l5.59-3.12q.34.62.72,1.2Zm48.43-.8L94.66,87q.36-.6.69-1.23L101,88.75C100.76,89.28,100.46,89.82,100.15,90.33ZM50.37,88.79c-.28-.53-.54-1.08-.78-1.63l5.85-2.58c.19.43.39.85.61,1.26Zm51.07-.85-5.78-2.76c.2-.42.39-.85.56-1.28l5.94,2.38C101.94,86.83,101.7,87.39,101.44,87.94Zm-52.2-1.61c-.23-.56-.44-1.13-.63-1.7l6.08-2q.23.66.48,1.32Zm53.25-.9-6-2.19c.16-.44.31-.88.44-1.33l6.14,1.8C102.88,84.29,102.69,84.87,102.49,85.43ZM48.34,83.76c-.17-.57-.32-1.16-.45-1.75l6.24-1.41c.1.46.22.91.35,1.35Zm55-.92-6.2-1.6c.12-.45.22-.91.31-1.37l6.29,1.2C103.57,81.66,103.44,82.26,103.29,82.84ZM47.7,81.13c-.11-.59-.21-1.19-.29-1.79l6.35-.81c.06.46.14.92.23,1.38Zm56.14-.95-6.32-1c.08-.46.13-.92.18-1.39l6.37.6C104,79,103.94,79.59,103.84,80.18ZM47.31,78.44c-.05-.59-.09-1.2-.11-1.8l6.39-.21c0,.47,0,.94.09,1.4Zm56.83-1-6.39-.4c0-.47,0-.94,0-1.41v-.1h6.4v.07C104.2,76.28,104.18,76.89,104.14,77.49Zm-57-1.76v0c0-.58,0-1.17,0-1.75l6.39.39c0,.45,0,.91,0,1.36Zm50.6-.84c0-.47,0-.93-.09-1.4l6.37-.62q.09.88.12,1.8Zm-44.1-1.27L47.3,73c.06-.6.13-1.2.23-1.79l6.32,1C53.78,72.69,53.72,73.16,53.68,73.62Zm43.93-.82c-.06-.47-.13-.93-.23-1.39l6.29-1.23c.11.59.21,1.19.29,1.79ZM54,71.54l-6.29-1.19q.16-.88.39-1.77l6.2,1.59C54.16,70.63,54.06,71.08,54,71.54Zm43.27-.82q-.17-.68-.36-1.35L103,67.55c.17.58.33,1.17.46,1.75ZM54.46,69.5l-6.15-1.79c.17-.57.36-1.15.56-1.72l6,2.18C54.73,68.6,54.59,69.05,54.46,69.5Zm42.21-.8c-.14-.44-.31-.88-.48-1.31l5.93-2.4c.23.56.44,1.13.63,1.7ZM55.14,67.51l-6-2.37c.23-.56.47-1.11.73-1.66l5.78,2.74C55.5,66.65,55.31,67.07,55.14,67.51Zm40.78-.76c-.19-.43-.4-.85-.61-1.26l5.68-3c.27.53.54,1.08.78,1.63ZM56,65.59l-5.69-2.92c.27-.53.57-1.07.88-1.58l5.49,3.28C56.45,64.77,56.23,65.18,56,65.59Zm39-.72c-.23-.41-.47-.81-.73-1.2l5.37-3.48c.33.5.64,1,.94,1.54Zm-37.92-1.1-5.39-3.45c.33-.51.67-1,1-1.49l5.16,3.78C57.58,63,57.31,63.38,57.06,63.77Zm36.8-.68c-.27-.39-.55-.76-.83-1.13l5-4c.38.47.74,1,1.08,1.45Zm-35.58-1-5-4c.37-.47.76-.94,1.16-1.39L59.18,61Q58.72,61.51,58.28,62.06Zm34.3-.64c-.3-.36-.61-.7-.94-1L96.26,56c.42.43.82.88,1.21,1.34Zm-32.92-1L55,56.05c.41-.43.84-.86,1.28-1.27l4.35,4.69Q60.14,60,59.66,60.46Zm31.49-.58c-.33-.33-.68-.64-1-1l4.17-4.85c.46.39.9.8,1.33,1.22Zm-30-.87L57,54.18c.45-.39.92-.78,1.4-1.14l3.89,5.08C61.89,58.4,61.53,58.7,61.18,59Zm28.39-.53c-.36-.29-.73-.58-1.11-.85l3.7-5.22c.49.35,1,.72,1.44,1.09ZM62.83,57.7,59.1,52.5c.48-.35,1-.69,1.5-1L64,56.92C63.59,57.17,63.21,57.43,62.83,57.7Zm25-.46c-.39-.26-.79-.51-1.2-.74L89.87,51c.52.3,1,.62,1.54.95Zm-23.29-.68L61.37,51c.52-.31,1.06-.6,1.59-.86l2.86,5.73Q65.19,56.2,64.59,56.56Zm21.48-.4c-.41-.22-.83-.43-1.26-.62l2.64-5.83c.55.25,1.1.52,1.63.8Zm-19.62-.57-2.68-5.81c.55-.25,1.11-.49,1.67-.71l2.3,6C67.3,55.22,66.88,55.4,66.45,55.59Zm17.72-.33c-.43-.18-.87-.35-1.32-.5l2.08-6c.57.19,1.14.41,1.7.64ZM68.4,54.81l-2.11-6.05c.56-.19,1.14-.38,1.72-.54l1.72,6.17C69.28,54.51,68.84,54.65,68.4,54.81Zm13.79-.26c-.45-.14-.9-.26-1.35-.37L82.32,48c.59.14,1.18.3,1.75.48Zm-11.78-.34L68.89,48c.58-.14,1.17-.26,1.77-.37l1.13,6.3C71.32,54,70.86,54.1,70.41,54.21ZM80.15,54q-.68-.15-1.38-.24l.88-6.34c.6.08,1.2.19,1.79.31Zm-7.68-.22-.92-6.34c.6-.08,1.2-.15,1.8-.2l.52,6.38C73.4,53.69,72.93,53.74,72.47,53.81Zm5.6-.11c-.46-.05-.92-.08-1.39-.1L77,47.2c.6,0,1.21.08,1.8.14Zm-3.5-.1-.32-6.39q.72,0,1.44,0h.36L76,53.58h-.29Z"/></g><g class="cls-2"><path class="cls-4" d="M75.69,95.77A20.09,20.09,0,1,1,95.78,75.68,20.11,20.11,0,0,1,75.69,95.77Zm0-39.38A19.29,19.29,0,1,0,95,75.68,19.31,19.31,0,0,0,75.69,56.39Z"/></g><path class="cls-4" d="M75.69,125.69a50,50,0,1,1,50-50A50.06,50.06,0,0,1,75.69,125.69Zm0-99.61a49.61,49.61,0,1,0,49.61,49.6A49.66,49.66,0,0,0,75.69,26.08Z"/></g></g></g></svg>