<svg xmlns="http://www.w3.org/2000/svg" viewBox="0 0 678.63 664.26"><defs><style>.cls-1{opacity:0.8;}.cls-2{fill:#5fffe8;}</style></defs><title>资源 10</title><g id="图层_2" data-name="图层 2"><g id="央铋_1" data-name="央铋 1"><g class="cls-1"><path class="cls-2" d="M337.35,614.49C181.66,614.49,55,487.83,55,332.13S181.66,49.77,337.35,49.77,619.71,176.44,619.71,332.13,493.05,614.49,337.35,614.49Zm0-558.77C184.93,55.72,61,179.71,61,332.13s124,276.41,276.4,276.41,276.41-124,276.41-276.41S489.77,55.72,337.35,55.72Z"/><rect class="cls-2" x="329.03" width="13.8" height="13.8"/><rect class="cls-2" x="295.04" y="1.93" width="13.81" height="13.8" transform="translate(0.73 31.6) rotate(-6)"/><polygon class="cls-2" points="276.53 19.62 263.03 22.49 260.16 8.98 273.66 6.12 276.53 19.62"/><rect class="cls-2" x="228.6" y="16.36" width="13.8" height="13.8" transform="translate(4.36 74.02) rotate(-18.03)"/><rect class="cls-2" x="196.87" y="28.69" width="13.8" height="13.8" transform="translate(3.14 85.97) rotate(-24)"/><rect class="cls-2" x="166.61" y="44.28" width="13.8" height="13.8" transform="translate(-2.35 93.6) rotate(-30)"/><polygon class="cls-2" points="154.68 71.37 143.52 79.48 135.4 68.33 146.56 60.2 154.68 71.37"/><rect class="cls-2" x="111.78" y="84.48" width="13.8" height="13.8" transform="translate(-30.67 102.89) rotate(-42)"/><rect class="cls-2" x="87.81" y="108.66" width="13.8" height="13.81" transform="translate(-54.54 108.67) rotate(-48.02)"/><rect class="cls-2" x="66.5" y="135.21" width="13.8" height="13.81" transform="translate(-84.71 117.97) rotate(-54)"/><rect class="cls-2" x="48.09" y="163.84" width="13.8" height="13.8" transform="translate(-120.37 132.99) rotate(-60)"/><rect class="cls-2" x="32.77" y="194.24" width="13.8" height="13.81" transform="translate(-160.23 155.61) rotate(-66.01)"/><rect class="cls-2" x="20.7" y="226.07" width="13.8" height="13.8" transform="translate(-202.5 187.24) rotate(-72)"/><rect class="cls-2" x="12.03" y="258.99" width="13.8" height="13.81" transform="translate(-245.1 229.21) rotate(-78.02)"/><rect class="cls-2" x="6.86" y="292.64" width="13.8" height="13.8" transform="translate(-285.58 281.98) rotate(-84.01)"/><rect class="cls-2" x="5.22" y="326.65" width="13.81" height="13.8"/><rect class="cls-2" x="7.15" y="360.63" width="13.81" height="13.8" transform="translate(-38.41 3.49) rotate(-6.01)"/><rect class="cls-2" x="12.62" y="394.23" width="13.81" height="13.8" transform="translate(-83.21 12.89) rotate(-12.03)"/><polygon class="cls-2" points="32.91 425.27 37.18 438.4 24.05 442.67 19.77 429.55 32.91 425.27"/><polygon class="cls-2" points="44.31 456.59 49.93 469.2 37.32 474.81 31.7 462.21 44.31 456.59"/><rect class="cls-2" x="49.5" y="489.07" width="13.81" height="13.8" transform="translate(-240.64 94.81) rotate(-30.03)"/><rect class="cls-2" x="68.16" y="517.53" width="13.81" height="13.8" transform="translate(-293.99 144.35) rotate(-36.01)"/><polygon class="cls-2" points="97.11 541.05 106.36 551.31 96.1 560.54 86.86 550.29 97.11 541.05"/><polygon class="cls-2" points="120.27 565.01 130.53 574.25 121.29 584.5 111.03 575.28 120.27 565.01"/><rect class="cls-2" x="140.43" y="589.17" width="13.81" height="13.8" transform="translate(-421.61 365.17) rotate(-54.03)"/><polygon class="cls-2" points="173.43 605.06 185.39 611.96 178.49 623.91 166.53 617.02 173.43 605.06"/><polygon class="cls-2" points="202.86 620.7 215.48 626.31 209.86 638.92 197.25 633.32 202.86 620.7"/><polygon class="cls-2" points="233.76 633.17 246.89 637.44 242.63 650.56 229.5 646.31 233.76 633.17"/><polygon class="cls-2" points="265.8 642.35 279.3 645.22 276.43 658.72 262.93 655.86 265.8 642.35"/><polygon class="cls-2" points="298.62 648.13 312.35 649.57 310.9 663.3 297.18 661.87 298.62 648.13"/><polygon class="cls-2" points="331.86 650.45 345.67 650.45 345.66 664.25 331.87 664.26 331.86 650.45"/><polygon class="cls-2" points="365.17 649.28 378.9 647.84 380.33 661.56 366.62 663.01 365.17 649.28"/><polygon class="cls-2" points="398.17 644.63 411.67 641.76 414.53 655.26 401.04 658.14 398.17 644.63"/><polygon class="cls-2" points="430.5 636.57 443.63 632.3 447.89 645.42 434.77 649.7 430.5 636.57"/><polygon class="cls-2" points="461.81 625.16 474.42 619.54 480.03 632.15 467.44 637.77 461.81 625.16"/><polygon class="cls-2" points="491.76 610.55 503.71 603.64 510.61 615.6 498.67 622.5 491.76 610.55"/><polygon class="cls-2" points="520.02 592.88 531.18 584.76 539.29 595.93 528.14 604.05 520.02 592.88"/><polygon class="cls-2" points="546.28 572.36 556.53 563.12 565.76 573.38 555.52 582.62 546.28 572.36"/><polygon class="cls-2" points="570.24 549.2 579.47 538.94 589.73 548.18 580.51 558.44 570.24 549.2"/><polygon class="cls-2" points="591.65 523.67 599.76 512.5 610.93 520.62 602.83 531.78 591.65 523.67"/><polygon class="cls-2" points="610.29 496.04 617.18 484.08 629.14 490.99 622.25 502.94 610.29 496.04"/><polygon class="cls-2" points="625.92 466.61 631.53 454 644.14 459.62 638.54 472.22 625.92 466.61"/><rect class="cls-2" x="640.2" y="424.38" width="13.79" height="13.81" transform="translate(37.18 913.7) rotate(-72.03)"/><polygon class="cls-2" points="647.58 403.67 650.44 390.17 663.95 393.05 661.09 406.54 647.58 403.67"/><polygon class="cls-2" points="653.35 370.85 654.79 357.13 668.53 358.57 667.09 372.29 653.35 370.85"/><polygon class="cls-2" points="655.67 337.61 655.67 323.81 669.48 323.81 669.48 337.6 655.67 337.61"/><polygon class="cls-2" points="654.5 304.31 653.06 290.58 666.78 289.14 668.24 302.85 654.5 304.31"/><polygon class="cls-2" points="649.86 271.31 646.98 257.8 660.49 254.94 663.36 268.43 649.86 271.31"/><polygon class="cls-2" points="641.79 238.98 637.51 225.85 650.65 221.58 654.92 234.7 641.79 238.98"/><polygon class="cls-2" points="630.38 207.66 624.76 195.05 637.38 189.44 643 202.03 630.38 207.66"/><polygon class="cls-2" points="615.77 177.71 608.86 165.76 620.82 158.86 627.72 170.8 615.77 177.71"/><polygon class="cls-2" points="598.11 149.46 589.98 138.28 601.15 130.18 609.27 141.34 598.11 149.46"/><polygon class="cls-2" points="577.59 123.2 568.34 112.94 578.6 103.71 587.84 113.95 577.59 123.2"/><polygon class="cls-2" points="554.43 99.23 544.16 90 553.41 79.74 563.66 88.96 554.43 99.23"/><polygon class="cls-2" points="528.89 77.82 517.73 69.7 525.84 58.54 537.01 66.64 528.89 77.82"/><polygon class="cls-2" points="501.26 59.19 489.3 52.29 496.21 40.34 508.16 47.22 501.26 59.19"/><polygon class="cls-2" points="471.83 43.55 459.22 37.94 464.84 25.33 477.44 30.93 471.83 43.55"/><polygon class="cls-2" points="440.94 31.07 427.81 26.81 432.07 13.68 445.19 17.93 440.94 31.07"/><polygon class="cls-2" points="408.9 21.9 395.4 19.03 398.27 5.52 411.76 8.38 408.9 21.9"/><rect class="cls-2" x="363.03" y="1.63" width="13.81" height="13.8" transform="translate(322.89 375.56) rotate(-84.02)"/><path class="cls-2" d="M303.47,115.88l-7.26,1.29c-2.32.36-5.09,1-8.27,1.76l-5.07,1.16c-1.77.51-3.62,1-5.56,1.57a218.69,218.69,0,0,0-25.88,9.12,240.73,240.73,0,0,0-28,14.42,245.86,245.86,0,0,0-25.62,18.3,228.29,228.29,0,0,0-20,18.86c-5.5,5.86-9.81,11-12.66,14.75l-3.36,4.29L160.68,203l-5.91-4.33s.41-.56,1.16-1.62,2-2.53,3.47-4.43c2.95-3.85,7.4-9.18,13.09-15.24a232.13,232.13,0,0,1,20.66-19.49A252,252,0,0,1,219.63,139a246.61,246.61,0,0,1,28.92-14.9,227.74,227.74,0,0,1,26.76-9.43l5.74-1.62,5.24-1.21c3.29-.77,6.16-1.44,8.55-1.81l7.5-1.34Z"/><path class="cls-2" d="M378.92,104.66l-4.64-.83c-2.95-.55-7.23-1-12.34-1.66a254.1,254.1,0,0,0-37.74-.91,229.27,229.27,0,0,0-37.37,5.2c-2.51.59-4.81,1.11-6.86,1.58l-5.21,1.46-4.54,1.3-1.48-4.86,4.65-1.32,5.33-1.49,7-1.61a232.42,232.42,0,0,1,38.19-5.32,258,258,0,0,1,38.55.93c5.22.71,9.6,1.13,12.61,1.7l4.76.84Z"/><path class="cls-2" d="M525.8,176.34l-3-3.53c-2-2.25-4.69-5.49-8.26-9.13a234.06,234.06,0,0,0-27.71-25,247.11,247.11,0,0,0-31.17-20.54c-4.45-2.49-8.29-4.31-10.92-5.7-1.31-.7-2.39-1.16-3.11-1.49l-1.11-.51,1.66-3.56s.4.17,1.13.51,1.83.8,3.17,1.51c2.67,1.41,6.57,3.25,11.09,5.79a253.61,253.61,0,0,1,31.68,20.87A235.81,235.81,0,0,1,517.34,161c3.64,3.69,6.42,7,8.4,9.27l3.1,3.59Z"/><path class="cls-2" d="M525.53,204.58l-3-4.19c-1-1.32-2.08-3-3.44-4.79l-4.73-6a230,230,0,0,0-61.91-53.45l-6.63-3.81-5.25-2.69L436,127.28l2.82-5.83,4.7,2.41,5.4,2.77,6.82,3.92a235.66,235.66,0,0,1,63.66,55l4.86,6.19c1.41,1.87,2.56,3.56,3.54,4.92,2,2.74,3.07,4.31,3.07,4.31Z"/><path class="cls-2" d="M537.8,428.89l2-4.33,2.36-5.21c.89-2.07,1.78-4.49,2.86-7.18a226.74,226.74,0,0,0,12.34-46.27,228.13,228.13,0,0,0,0-67.66,222,222,0,0,0-73.48-133.55,222.05,222.05,0,0,0-102.68-50.76c-5.71-1-10.16-1.91-13.26-2.19l-4.72-.61-.78,6.72,4.58.58c3,.28,7.32,1.18,12.86,2.13a215.33,215.33,0,0,1,99.54,49.21,215.26,215.26,0,0,1,71.26,129.49,221.62,221.62,0,0,1,0,65.62,219.6,219.6,0,0,1-12,44.86c-1,2.6-1.91,4.95-2.77,7s-1.66,3.67-2.28,5.05c-1.25,2.73-1.91,4.19-1.91,4.19Z"/><path class="cls-2" d="M370.62,557s1.29-.13,3.66-.59,5.89-1,10.3-1.91a230.54,230.54,0,0,0,35.78-10.76,224.45,224.45,0,0,0,46.54-24.86,240.93,240.93,0,0,0,23.35-18.54,246.38,246.38,0,0,0,21.3-22.23,224.78,224.78,0,0,0,18.13-24.87c2.84-4.21,5.14-8.71,7.68-13,2.2-4.47,4.65-8.75,6.54-13.21a224.27,224.27,0,0,0,20.58-87.29c.1-4.52.26-8.06.12-10.48s-.09-3.71-.09-3.71l3.23-.1s0,1.31.1,3.77,0,6.05-.13,10.63a223.23,223.23,0,0,1-4.29,37.66,227.85,227.85,0,0,1-16.58,50.88c-1.91,4.52-4.4,8.86-6.64,13.39-2.57,4.34-4.9,8.9-7.78,13.18A229.89,229.89,0,0,1,514,480.21a252,252,0,0,1-21.61,22.54,243.54,243.54,0,0,1-23.69,18.8,227.53,227.53,0,0,1-47.2,25.22,233.93,233.93,0,0,1-36.29,10.9c-4.48,1-8,1.48-10.45,2s-3.71.59-3.71.59Z"/><path class="cls-2" d="M262.43,531.8a25.67,25.67,0,0,0,2.47.93l7.07,2.39c3,1.08,6.83,2,11.12,3.26,2.15.61,4.5,1.06,6.94,1.65s5,1.18,7.74,1.61c21.56,4.37,51.56,5.47,80.43-.23a210,210,0,0,0,74.51-30c4.72-2.87,8.71-6,12.39-8.54,3.49-2.81,6.64-5.13,9.08-7.24l5.64-4.89a22.31,22.31,0,0,0,2-1.78l4,4.35a25.82,25.82,0,0,1-2,1.83l-5.81,5c-2.49,2.16-5.73,4.55-9.32,7.43-3.79,2.62-7.89,5.83-12.73,8.79a216,216,0,0,1-76.59,30.82c-29.69,5.86-60.49,4.72-82.65.24-2.81-.45-5.45-1.06-8-1.66s-4.92-1.07-7.13-1.69c-4.41-1.32-8.32-2.25-11.43-3.36l-7.27-2.46c-1.67-.56-2.54-.95-2.54-.95Z"/><path class="cls-2" d="M114,332.13s.11,4.32.32,11.87a235.25,235.25,0,0,0,3.83,31,225.47,225.47,0,0,0,12.68,42.25,224.77,224.77,0,0,0,58.26,81.88,226.18,226.18,0,0,0,35.73,25.92c5.54,3.33,10.87,5.94,15.54,8.35,4.81,2.12,8.91,4.17,12.45,5.49l8.15,3.2,2.93,1-2.36,6.78-3-1-8.42-3.3c-3.64-1.37-7.88-3.48-12.84-5.68-4.83-2.48-10.33-5.17-16.05-8.61a234.38,234.38,0,0,1-36.87-26.75A231.9,231.9,0,0,1,124.16,420a233.54,233.54,0,0,1-13.09-43.61,240.34,240.34,0,0,1-3.95-32l-.33-12.24Z"/><path class="cls-2" d="M197.7,523.46s3,2.16,8.23,5.78c2.71,1.7,5.93,3.87,9.75,6.17s8.15,4.85,13.09,7.25c19.33,10.34,47.28,20.27,76.31,24.13a234.64,234.64,0,0,0,42.86,2,256.92,256.92,0,0,0,37.17-4.55,256.91,256.91,0,0,0,25.6-6.81l7-2.38a23.49,23.49,0,0,0,2.46-.92l2.17,5.81a26.63,26.63,0,0,1-2.53.93l-7.22,2.45A236.71,236.71,0,0,1,348.22,575a241.46,241.46,0,0,1-44-2c-29.8-4-58.49-14.16-78.33-24.76-5.06-2.47-9.44-5.21-13.43-7.45s-7.22-4.58-10-6.33c-5.42-3.71-8.45-5.93-8.45-5.93Z"/><path class="cls-2" d="M109.64,432.22l3.52,7.77c1.23,2.42,2.74,5.35,4.46,8.71s3.95,7,6.23,11.06a246.72,246.72,0,0,0,18.05,26.12c3.5,4.64,7.55,9.09,11.53,13.7,4.22,4.42,8.43,9,13,13.17a239.08,239.08,0,0,0,28.17,23c4.67,3.47,9.54,6.29,14,9.21,4.64,2.6,8.91,5.3,13.09,7.35,8.22,4.36,15.35,7.44,20.33,9.57L250,565l-2.08,5.54-8.13-3.21c-5.1-2.18-12.4-5.33-20.81-9.79-4.28-2.1-8.65-4.86-13.41-7.53-4.57-3-9.55-5.88-14.33-9.43A244.65,244.65,0,0,1,162.36,517c-4.67-4.29-9-8.95-13.3-13.47-4.09-4.72-8.22-9.28-11.81-14a251.38,251.38,0,0,1-18.47-26.74c-2.34-4.15-4.64-7.86-6.39-11.32s-3.29-6.45-4.56-8.92l-3.6-8Z"/><path class="cls-2" d="M346.07,81.36l-4.52-.12c-2.95-.15-7.27,0-12.78.11A249.23,249.23,0,0,0,223,108.75c-5.31,2.58-10.44,5.71-15.72,8.71-5.11,3.29-10.36,6.5-15.35,10.19a239.36,239.36,0,0,0-28.86,24A251.17,251.17,0,0,0,94.17,269.82a245.81,245.81,0,0,0-7.15,45c-.52,5.49-.41,9.82-.55,12.77s-.11,4.52-.11,4.52h-4.5s0-1.6.1-4.6,0-7.41.56-13a249.75,249.75,0,0,1,7.29-45.84A255.43,255.43,0,0,1,159.9,148.4,242.83,242.83,0,0,1,189.28,124c5.07-3.76,10.42-7,15.62-10.37,5.37-3.07,10.6-6.24,16-8.88A253.86,253.86,0,0,1,328.62,76.85c5.61-.17,10-.26,13-.11l4.6.11Z"/><path class="cls-2" d="M487.62,125.54l-3-2.11c-1.89-1.35-4.57-3.32-7.95-5.42s-7.24-4.71-11.6-7.12c-2.17-1.22-4.37-2.55-6.68-3.79l-7.06-3.61c-4.69-2.5-9.64-4.48-14.15-6.59-4.62-1.86-8.94-3.58-12.67-5l-9.13-3.09c-2.19-.77-3.48-1.1-3.48-1.1l1.23-4s1.31.34,3.55,1.12L426,87.94c3.79,1.43,8.19,3.18,12.89,5.07,4.58,2.14,9.61,4.16,14.38,6.7l7.17,3.67c2.35,1.26,4.59,2.61,6.8,3.85,4.43,2.46,8.37,5,11.78,7.24s6.17,4.14,8.1,5.5l3,2.16Z"/><path class="cls-2" d="M557.18,420.41s.37-.92,1.05-2.65,1.73-4.25,2.8-7.56,2.57-7.26,3.8-11.94q1-3.5,2.08-7.43l1.92-8.33A244.68,244.68,0,0,0,574,342.19a234.14,234.14,0,0,0-31.46-128.41c-2.86-5.22-6-9.7-8.56-13.81-2.79-3.95-5.21-7.41-7.28-10.2L520,181.19l3-2.51,6.87,8.72c2.11,2.84,4.57,6.35,7.4,10.37,2.61,4.17,5.79,8.73,8.7,14a239.11,239.11,0,0,1,32,130.54,248,248,0,0,1-5.24,41c-.68,3-1.34,5.78-2,8.47s-1.45,5.18-2.12,7.54c-1.25,4.77-2.76,8.78-3.86,12.14s-2.15,5.93-2.84,7.69l-1.07,2.7Z"/><path class="cls-2" d="M494.24,519.63l4.28-3.71c2.79-2.29,6.48-5.89,11-10.16A252.43,252.43,0,0,0,538.55,471a241.21,241.21,0,0,0,22.18-39.5c5-11.3,7.59-19.16,7.59-19.16l3.72,1.29s-2.6,8-7.71,19.48a245.11,245.11,0,0,1-22.54,40.13,256.49,256.49,0,0,1-29.54,35.29c-4.55,4.33-8.3,8-11.13,10.32l-4.36,3.77Z"/><path class="cls-2" d="M619.23,571.19a370.15,370.15,0,0,1-94,79.14l2.1,2.69a373.62,373.62,0,0,0,94.31-79.43Z"/><path class="cls-2" d="M53.72,564.37l-2.4,2.4A373.73,373.73,0,0,0,156.46,656l2.32-2.57A369.93,369.93,0,0,1,53.72,564.37Z"/><path class="cls-2" d="M129.79,31.9l-2.25-2.55A373.17,373.17,0,0,0,0,184.17H3.7A369.7,369.7,0,0,1,129.79,31.9Z"/><path class="cls-2" d="M547.12,26.61l-2.36,2.47A369.68,369.68,0,0,1,674.93,184.17h3.7A373.09,373.09,0,0,0,547.12,26.61Z"/></g></g></g></svg>