<svg xmlns="http://www.w3.org/2000/svg" viewBox="0 0 959 22"><defs><style>.cls-1{fill:#fff;}</style></defs><title>资源 2</title><g id="图层_2" data-name="图层 2"><g id="Layer_1" data-name="Layer 1"><rect class="cls-1" y="8" width="959" height="1"/><rect class="cls-1" y="9" width="2" height="6"/><rect class="cls-1" x="32" y="9" width="1" height="6"/><rect class="cls-1" x="63" y="9" width="1" height="6"/><rect class="cls-1" x="94" y="9" width="1" height="6"/><rect class="cls-1" x="125" y="9" width="1" height="6"/><rect class="cls-1" x="156" y="9" width="1" height="6"/><rect class="cls-1" x="186" y="9" width="1" height="6"/><rect class="cls-1" x="216" y="9" width="2" height="6"/><rect class="cls-1" x="248" y="9" width="1" height="6"/><rect class="cls-1" x="278" y="9" width="1" height="6"/><rect class="cls-1" x="310" y="9" width="1" height="6"/><rect class="cls-1" x="340" y="9" width="1" height="6"/><rect class="cls-1" x="372" y="9" width="1" height="6"/><rect class="cls-1" x="402" y="9" width="1" height="6"/><rect class="cls-1" x="434" y="9" width="1" height="6"/><rect class="cls-1" x="463" y="9" width="1" height="6"/><rect class="cls-1" x="494" y="9" width="1" height="6"/><rect class="cls-1" x="524" y="9" width="1" height="6"/><rect class="cls-1" x="556" y="9" width="1" height="6"/><rect class="cls-1" x="586" y="9" width="2" height="6"/><rect class="cls-1" x="618" y="9" width="1" height="6"/><rect class="cls-1" x="649" y="9" width="1" height="6"/><rect class="cls-1" x="680" y="9" width="1" height="6"/><rect class="cls-1" x="711" y="9" width="1" height="6"/><rect class="cls-1" x="741" y="9" width="2" height="6"/><rect class="cls-1" x="773" y="9" width="1" height="6"/><rect class="cls-1" x="802" y="9" width="1" height="6"/><rect class="cls-1" x="834" y="9" width="1" height="6"/><rect class="cls-1" x="864" y="9" width="1" height="6"/><rect class="cls-1" x="896" y="9" width="1" height="6"/><rect class="cls-1" x="926" y="9" width="1" height="6"/><rect class="cls-1" x="958" y="9" width="1" height="6"/><rect class="cls-1" x="17" y="8" width="1" height="14"/><rect class="cls-1" x="48" y="8" width="2" height="14"/><rect class="cls-1" x="79" y="8" width="1" height="14"/><rect class="cls-1" x="110" y="8" width="1" height="14"/><rect class="cls-1" x="141" y="8" width="1" height="14"/><rect class="cls-1" x="172" y="8" width="1" height="14"/><rect class="cls-1" x="202" y="8" width="2" height="14"/><rect class="cls-1" x="233" y="8" width="1" height="14"/><rect class="cls-1" x="265" y="8" width="1" height="14"/><rect class="cls-1" x="295" y="8" width="1" height="14"/><rect class="cls-1" x="327" y="8" width="1" height="14"/><rect class="cls-1" x="357" y="8" width="1" height="14"/><rect class="cls-1" x="389" y="8" width="1" height="14"/><rect class="cls-1" x="419" y="8" width="1" height="14"/><rect class="cls-1" x="450" y="8" width="1" height="14"/><rect class="cls-1" x="480" y="8" width="1" height="14"/><rect class="cls-1" x="510" y="8" width="2" height="14"/><rect class="cls-1" x="541" y="8" width="1" height="14"/><rect class="cls-1" x="572" y="8" width="1" height="14"/><rect class="cls-1" x="603" y="8" width="1" height="14"/><rect class="cls-1" x="634" y="8" width="1" height="14"/><rect class="cls-1" x="665" y="8" width="1" height="14"/><rect class="cls-1" x="696" y="8" width="1" height="14"/><rect class="cls-1" x="727" y="8" width="1" height="14"/><rect class="cls-1" x="758" y="8" width="1" height="14"/><rect class="cls-1" x="790" y="8" width="1" height="14"/><rect class="cls-1" x="819" y="8" width="1" height="14"/><rect class="cls-1" x="851" y="8" width="1" height="14"/><rect class="cls-1" x="881" y="8" width="1" height="14"/><rect class="cls-1" x="913" y="8" width="1" height="14"/><rect class="cls-1" x="943" y="8" width="1" height="14"/><rect class="cls-1" width="958" height="1"/></g></g></svg>