<svg xmlns="http://www.w3.org/2000/svg" viewBox="0 0 182.11 174.25"><defs><style>.cls-1{fill:#068d99;}.cls-10,.cls-11,.cls-12,.cls-13,.cls-14,.cls-15,.cls-2,.cls-7,.cls-8,.cls-9{fill:#d27c1d;}.cls-3{fill:#0aa3b1;}.cls-4{fill:#11b7c6;}.cls-5{fill:#0cbdcd;}.cls-6{fill:#f49022;}.cls-7{opacity:0.8;}.cls-8{opacity:0.6;}.cls-9{opacity:0.4;}.cls-10{opacity:0.2;}.cls-11{opacity:0.1;}.cls-12{opacity:0.9;}.cls-13{opacity:0.7;}.cls-14{opacity:0.5;}.cls-15{opacity:0.3;}</style></defs><title>资源 3</title><g id="图层_2" data-name="图层 2"><g id="央铋_1" data-name="央铋 1"><path class="cls-1" d="M104.11,67.88c15.77-4.22,25.2,5.11,21,20.81S104.79,120.59,89,124.81,63.83,119.7,68,104,88.35,72.1,104.11,67.88ZM91,117.4c11.65-3.12,23.63-15.11,26.71-26.72s-3.9-18.51-15.56-15.38S78.51,90.4,75.44,102,79.34,120.52,91,117.4"/><path class="cls-2" d="M100.24,90.14c4.47-1.2,7.14,1.45,6,5.9A16,16,0,0,1,96,106.28c-4.46,1.19-7.14-1.45-6-5.9A16,16,0,0,1,100.24,90.14Zm-3.72,14a11.84,11.84,0,0,0,7.57-7.58c.88-3.29-1.11-5.24-4.41-4.36a11.83,11.83,0,0,0-7.57,7.57c-.87,3.29,1.11,5.25,4.41,4.37"/><path class="cls-3" d="M85.87,60.26l.44,1.08a138.28,138.28,0,0,0-14.6,12.73q-2.34,2.34-4.54,4.76l-.89-.67q2.25-2.47,4.64-4.87A144.92,144.92,0,0,1,85.87,60.26Z"/><path class="cls-3" d="M87.45,64.07l.38.91A129.7,129.7,0,0,0,70.2,81.09l-.76-.57A132.09,132.09,0,0,1,87.45,64.07Z"/><path class="cls-3" d="M120.62,50.15l-.22.82c-14.52,3.89-29.78,13.06-43,25.8L77,76.33C90.41,63.39,105.89,54.1,120.62,50.15Z"/><path class="cls-3" d="M123.76,38.3a69.42,69.42,0,0,1,15.62-2.44l-.4.85a68.86,68.86,0,0,0-15.44,2.41c-22.91,6.14-47.22,23.18-65,45.58l-.57-.27C76,61.76,100.57,44.51,123.76,38.3Z"/><path class="cls-3" d="M122.94,41.38a67.23,67.23,0,0,1,14.36-2.32l-.73,1.56a66,66,0,0,0-14,2.27,92.18,92.18,0,0,0-15.71,5.87l0-1.37A94.11,94.11,0,0,1,122.94,41.38Z"/><path class="cls-3" d="M121.54,46.68a60.42,60.42,0,0,1,13.2-2.12l-.62,1.32A59.7,59.7,0,0,0,121.2,48a84.14,84.14,0,0,0-14.49,5.43l0-1.16A85.28,85.28,0,0,1,121.54,46.68Z"/><path class="cls-2" d="M161.63,146.15c3.31-.89,6.05-.54,7.93.76l-.45.12-16.6,4.44-.45.13A24.42,24.42,0,0,1,161.63,146.15Z"/><path class="cls-2" d="M163.88,168.32a24.54,24.54,0,0,1-9.56,5.44c-3.32.89-6,.54-7.92-.76l.44-.12,16.6-4.44Z"/><path class="cls-2" d="M151.77,152.14a25.1,25.1,0,0,0-7.38,11.45c-1.08,4.08-.23,7.24,2,9l-.41.11c-2.12-1.78-2.91-4.95-1.84-9a25.58,25.58,0,0,1,7.24-11.42Z"/><path class="cls-2" d="M170,147.25c2.12,1.78,2.91,4.95,1.84,9a25.58,25.58,0,0,1-7.24,11.42l-.42.11a25.26,25.26,0,0,0,7.38-11.46c1.08-4.07.23-7.24-2-8.95Z"/><path class="cls-1" d="M150.57,127.81c8.84-2.37,14.77,1.46,15.12,8.8l-.55.23c-.37-7.1-6.14-10.8-14.7-8.5s-17.33,9.88-21.81,18.28l-.5.06C132.71,138,141.74,130.17,150.57,127.81Z"/><path class="cls-1" d="M162.13,148.16l.51-.06c-4.59,8.65-13.61,16.47-22.43,18.84s-14.75-1.46-15.12-8.78l.56-.23c.38,7.08,6.15,10.77,14.7,8.47S157.65,156.54,162.13,148.16Z"/><path class="cls-1" d="M134.49,118.42l.24,1.6a48.08,48.08,0,0,0-4.45,3l-.6-1.35A50.08,50.08,0,0,1,134.49,118.42Z"/><path class="cls-1" d="M127.36,123.6l.78,1.21a52.21,52.21,0,0,0-4,3.85l-1.1-.89A56.9,56.9,0,0,1,127.36,123.6Z"/><path class="cls-1" d="M142.79,114.59l-.39,1.88a36.23,36.23,0,0,0-5.39,2.28l0-1.7A37.51,37.51,0,0,1,142.79,114.59Z"/><path class="cls-1" d="M159.42,138.47l1.78-.1a43,43,0,0,1-2.14,4.08l-1.62-.21A38.87,38.87,0,0,0,159.42,138.47Z"/><path class="cls-1" d="M146.77,154.72l.75,1.23a44.18,44.18,0,0,1-16.64,9.16,20.81,20.81,0,0,1-10.68.39l1.31-1.95a19.33,19.33,0,0,0,9.88-.35A41,41,0,0,0,146.77,154.72Z"/><path class="cls-1" d="M145.19,113.91a24.28,24.28,0,0,1,5.38-.71l-1,2a22.84,22.84,0,0,0-5,.66Z"/><path class="cls-1" d="M152.67,113.29c8.47.87,13,7.7,11,17.84l-2,.64c1.92-9.38-2.28-15.7-10.12-16.49Z"/><path class="cls-3" d="M125.07,33.34a111.72,111.72,0,0,0-26.17,11L99,45c-1.06.61-2.13,1.23-3.18,1.87l-.12-.67q-4.77,2.88-9.43,6.25l.22.6Q81.31,56.8,76.39,61l-.32-.51q-4.77,4.08-9.31,8.62l.41.4a155.78,155.78,0,0,0-17.7,21l-.62-.18a135.4,135.4,0,0,0-10.08,16.88h.71l.62.25C57,73.6,91.74,43.76,124.65,35c40.13-10.76,64.17,13,53.58,53C172.59,109.21,157.92,131.84,138,150l.36.48c.66-.59,1.31-1.19,1.95-1.79l.37.44q1.78-1.68,3.52-3.42c2-2,4-4.08,5.85-6.16l-.48-.34a148,148,0,0,0,18.92-26.11l.7.07a118.92,118.92,0,0,0,6.21-12.64l-.76.08a98.37,98.37,0,0,0,4.44-12.92,65.93,65.93,0,0,0,2.25-23.88l.81-.47c-.06-.5-.12-1-.19-1.5l-.81.49C179.92,54,176.6,47,171.22,41.65c-9.71-9.61-25-12.5-43.38-8.26l.25-.8C127.09,32.82,126.09,33.07,125.07,33.34Z"/><path class="cls-1" d="M40.21,134.73l-.06,1.13-2.86,1.33c0-.39,0-.79.07-1.18Z"/><path class="cls-1" d="M40.39,132.72c0,.38-.08.77-.11,1.15l-2.85,1.23c0-.4.07-.8.11-1.2Z"/><path class="cls-1" d="M40,121.72l2.73-.66-.06.22-2.74.68A2.17,2.17,0,0,0,40,121.72Z"/><path class="cls-1" d="M39.64,122.93l2.75-.71c0,.19-.11.38-.16.57s-.11.44-.17.65l-2.75.77c0-.23.11-.45.17-.68S39.59,123.13,39.64,122.93Z"/><path class="cls-1" d="M41.83,124.36c-.09.41-.19.82-.28,1.22l-2.78.86c.09-.42.19-.84.29-1.27Z"/><path class="cls-1" d="M41.36,126.49c-.09.4-.17.81-.24,1.21l-2.8,1c.08-.42.16-.84.25-1.25Z"/><path class="cls-1" d="M41,128.6c-.07.39-.14.79-.2,1.18l-2.82,1.05c.06-.41.13-.82.2-1.24Z"/><path class="cls-1" d="M40.63,130.67c-.06.39-.1.78-.15,1.17L37.64,133c0-.4.1-.81.16-1.22Z"/><path class="cls-1" d="M40.12,136.71c0,.37,0,.74,0,1.11l-2.87,1.41c0-.38,0-.77,0-1.16Z"/><path class="cls-1" d="M40.11,138.65l0,1.09-2.87,1.5,0-1.13Z"/><path class="cls-1" d="M171,86.46c-.16.65-.32,1.3-.49,2a90.34,90.34,0,0,1-4.62,13.1l-6.16.46a80.59,80.59,0,0,0,4.17-11.79c.16-.59.3-1.18.44-1.77Z"/><path class="cls-1" d="M155.9,102.68l13.38-.91c-.42,1-.86,1.9-1.31,2.84l-13.11.33C155.22,104.19,155.57,103.43,155.9,102.68Z"/><path class="cls-1" d="M72.82,170.11l1.12,0-1.35,2.86-1.17,0Z"/><path class="cls-1" d="M42.82,152.56c.13.29.25.58.38.86l-2.74,2.13c-.14-.3-.27-.6-.4-.91Z"/><path class="cls-1" d="M42.22,151c.1.3.22.6.33.89L39.78,154l-.36-.93Z"/><path class="cls-1" d="M41.69,149.38c.09.31.18.62.29.93l-2.8,2c-.11-.32-.21-.64-.31-1Z"/><path class="cls-1" d="M40.32,142.41l.12,1-2.86,1.68c0-.36-.09-.73-.13-1.09Z"/><path class="cls-1" d="M40.54,144.23c.05.34.11.68.17,1L37.85,147c-.06-.35-.11-.71-.16-1.06Z"/><path class="cls-1" d="M41.23,147.72c.08.32.16.64.25.95l-2.83,1.92-.26-1Z"/><path class="cls-1" d="M40.85,146c.06.34.13.66.21,1l-2.85,1.84-.21-1Z"/><path class="cls-1" d="M44.26,155.51c.15.27.31.53.47.79l-2.68,2.26c-.17-.27-.33-.56-.48-.84Z"/><path class="cls-1" d="M43.51,154.06l.42.83-2.71,2.19c-.16-.28-.3-.57-.45-.86Z"/><path class="cls-1" d="M57.1,167.14l.87.37-2.08,2.76c-.3-.13-.61-.25-.91-.39Z"/><path class="cls-1" d="M67.15,169.81c.35.05.7.08,1,.11l-1.62,2.87-1.09-.12Z"/><path class="cls-1" d="M60.24,168.33c.31.11.62.2.94.29l-1.94,2.81c-.33-.09-.65-.19-1-.3Z"/><path class="cls-1" d="M61.89,168.82c.33.08.64.17,1,.24L61,171.89c-.34-.07-.68-.16-1-.25Z"/><path class="cls-1" d="M63.6,169.23l1,.2-1.78,2.84c-.35-.06-.7-.13-1-.21Z"/><path class="cls-1" d="M65.35,169.56l1,.16-1.7,2.85-1.07-.16Z"/><path class="cls-1" d="M45.09,156.89l.51.76L43,160l-.52-.8Z"/><path class="cls-1" d="M46,158.22l.55.72-2.6,2.37c-.19-.25-.38-.5-.56-.76Z"/><path class="cls-1" d="M47,159.48l.59.69L45,162.59l-.61-.72Z"/><path class="cls-1" d="M49.11,161.8l.66.62-2.44,2.52c-.24-.21-.46-.42-.69-.64Z"/><path class="cls-1" d="M48,160.68l.63.64-2.5,2.48c-.22-.22-.44-.45-.65-.68Z"/><path class="cls-1" d="M54.19,165.64l.81.46-2.22,2.69-.84-.47Z"/><path class="cls-1" d="M52.83,164.79c.25.17.51.33.77.49l-2.27,2.66c-.28-.17-.55-.34-.81-.52Z"/><path class="cls-1" d="M51.53,163.86c.24.18.48.37.73.54L49.92,167l-.77-.56Z"/><path class="cls-1" d="M50.28,162.87l.71.57L48.59,166c-.24-.19-.49-.39-.72-.6Z"/><path class="cls-1" d="M58.65,167.77c.29.12.59.22.9.33l-2,2.79-.94-.34Z"/><path class="cls-1" d="M55.62,166.42c.27.15.56.28.84.42l-2.15,2.73-.88-.43Z"/><path class="cls-1" d="M40.17,140.55c0,.36,0,.72.08,1.07l-2.87,1.59c0-.37-.05-.74-.07-1.12Z"/><path class="cls-1" d="M69,170l1.07.07-1.53,2.86-1.12-.07Z"/><path class="cls-1" d="M70.89,170.09l1.1,0L70.54,173l-1.14,0Z"/><path class="cls-1" d="M90.69,167.09l-.6,2.71-1.3.39.65-2.72Z"/><path class="cls-1" d="M92.88,166.38l-.5,2.67-1.31.44.56-2.69Z"/><path class="cls-1" d="M78.83,169.7l1.18-.16-1.08,2.82-1.23.17Z"/><path class="cls-1" d="M76.79,169.91,78,169.8l-1.17,2.83-1.22.12Z"/><path class="cls-1" d="M74.79,170.05l1.14-.07-1.26,2.85-1.19.07Z"/><path class="cls-1" d="M88.51,167.73l-.7,2.73-.68.19-.6.16.75-2.75.58-.15Z"/><path class="cls-1" d="M83,169l1.21-.24-.89,2.78-1.26.25Z"/><path class="cls-1" d="M85.13,168.58l1.22-.28-.79,2.76-1.28.3Z"/><path class="cls-1" d="M80.91,169.4l1.19-.2-1,2.8c-.41.08-.82.14-1.24.21Z"/><path class="cls-1" d="M97.31,164.74l-.31,2.6-1.32.52.36-2.62Z"/><path class="cls-1" d="M95.09,165.6l-.41,2.63-1.31.48.46-2.65Z"/><path class="cls-1" d="M99.54,163.81l-.21,2.56-1.33.56.27-2.58Z"/><path class="cls-1" d="M101.77,162.82l-.11,2.51c-.44.21-.88.4-1.33.6l.17-2.54Z"/><path class="cls-1" d="M110.71,158.14l.29,2.3-1.33.77-.23-2.34Z"/><path class="cls-1" d="M106.24,160.61l.1,2.41-1.33.69,0-2.44Z"/><path class="cls-1" d="M108.48,159.4l.19,2.37-1.33.72-.13-2.39Z"/><path class="cls-1" d="M104,161.75v2.46l-1.33.65.06-2.5Z"/><path class="cls-1" d="M146.69,123.87l4.73,2a143.68,143.68,0,0,1-12.69,14.49,139.15,139.15,0,0,1-24.19,19.42l-1-5.36A129,129,0,0,0,146.69,123.87Z"/><path class="cls-1" d="M112.55,157l.37,2.25-.92.56-.33-2.28Z"/><path class="cls-3" d="M52.15,96.28l6.49.33c-.42.79-.83,1.59-1.22,2.38l-6.71.08Q51.4,97.68,52.15,96.28Z"/><path class="cls-3" d="M50.3,99.94l6.76-.2-.38.81-6.83.35Z"/><path class="cls-3" d="M49.45,101.77l6.89-.47c-.12.27-.24.54-.35.81l-7,.61Z"/><path class="cls-3" d="M48.67,103.59l7-.74c-.11.27-.23.54-.33.81l-7.06.88C48.41,104.22,48.54,103.91,48.67,103.59Z"/><path class="cls-3" d="M48,105.41l7.11-1c-.11.27-.21.54-.31.81l-7.16,1.14Z"/><path class="cls-3" d="M47.29,107.21l7.2-1.26c-.1.26-.19.53-.28.8L47,108.16C47.06,107.84,47.17,107.53,47.29,107.21Z"/><path class="cls-3" d="M46.68,109,54,107.48c-.08.27-.17.53-.25.8L46.39,110C46.48,109.64,46.58,109.32,46.68,109Z"/><path class="cls-3" d="M46.13,110.8,53.51,109c-.08.26-.15.52-.22.79l-7.42,1.93C46,111.42,46,111.11,46.13,110.8Z"/><path class="cls-3" d="M53.09,110.52c-.06.26-.13.52-.19.78l-7.48,2.19c.07-.31.15-.62.23-.92Z"/><path class="cls-3" d="M52.74,112c-.06.26-.12.52-.17.78L45,115.23c.06-.3.13-.6.2-.91Z"/><path class="cls-3" d="M52.42,113.5c0,.25-.09.51-.13.76L44.7,117c.06-.29.11-.59.17-.89Z"/><path class="cls-3" d="M52.17,115c0,.25-.08.5-.11.75l-7.62,2.94c0-.29.08-.58.13-.88Z"/><path class="cls-3" d="M52,116.4c0,.25-.06.5-.08.74l-7.65,3.19c0-.29.06-.58.1-.87Z"/><path class="cls-3" d="M51.82,117.82c0,.25,0,.49,0,.73L44.1,122c0-.28,0-.57.07-.86Z"/><path class="cls-3" d="M51.74,119.22c0,.24,0,.48,0,.72L44,123.6c0-.28,0-.56,0-.84Z"/><path class="cls-3" d="M51.7,120.59v.7L44,125.19c0-.27,0-.55,0-.82Z"/><path class="cls-3" d="M51.72,121.93l0,.69-7.67,4.13c0-.27,0-.54,0-.81Z"/><path class="cls-3" d="M51.79,123.25c0,.23,0,.45.07.67l-7.66,4.35c0-.26-.05-.52-.07-.79Z"/><path class="cls-3" d="M51.92,124.53c0,.22.06.45.09.66l-7.63,4.57c0-.26-.07-.51-.1-.77Z"/><path class="cls-3" d="M52.11,125.79l.12.64-7.6,4.78c-.05-.25-.09-.5-.14-.76Z"/><path class="cls-3" d="M52.34,127l.15.62-7.55,5c0-.24-.11-.48-.16-.73Z"/><path class="cls-3" d="M52.64,128.19c0,.21.11.4.18.61L45.32,134c-.07-.24-.14-.47-.2-.71Z"/><path class="cls-3" d="M53,129.34l.21.59-7.43,5.37-.24-.68Z"/><path class="cls-3" d="M53.39,130.45c.07.19.15.38.22.56l-7.35,5.57-.27-.66Z"/><path class="cls-3" d="M53.84,131.52c.08.19.17.37.26.55l-7.28,5.74-.3-.64Z"/><path class="cls-3" d="M54.34,132.55c.09.18.19.36.29.53L47.44,139l-.33-.61Z"/><path class="cls-3" d="M54.9,133.55c.1.17.2.33.31.49l-7.09,6.08-.36-.58Z"/><path class="cls-3" d="M55.5,134.49l.34.48-7,6.24-.39-.56Z"/><path class="cls-3" d="M56.16,135.4l.36.45-6.86,6.39-.42-.53Z"/><path class="cls-3" d="M56.86,136.26c.13.14.25.29.39.43l-6.74,6.53-.45-.5Z"/><path class="cls-3" d="M57.61,137.07l.42.41-6.6,6.67-.49-.48Z"/><path class="cls-3" d="M58.41,137.84l.44.38L52.39,145l-.51-.45Z"/><path class="cls-3" d="M59.26,138.56a19.67,19.67,0,0,0,3.32,2.15l-5.82,7.22a22.75,22.75,0,0,1-3.89-2.52Z"/><path class="cls-3" d="M63.07,141l.55.25L58,148.51l-.64-.3Z"/><path class="cls-3" d="M64.14,141.42l.56.22L59.25,149l-.67-.26Z"/><path class="cls-3" d="M65.23,141.84l.59.2-5.26,7.45-.69-.23Z"/><path class="cls-3" d="M66.37,142.2l.61.17-5.06,7.51-.72-.2Z"/><path class="cls-3" d="M67.54,142.52l.64.14-4.87,7.56-.73-.17Z"/><path class="cls-3" d="M68.75,142.78l.65.11-4.65,7.6-.76-.14Z"/><path class="cls-3" d="M70,143l.66.09-4.43,7.62-.78-.09Z"/><path class="cls-3" d="M71.28,143.13l.67.06-4.21,7.65-.79-.07Z"/><path class="cls-3" d="M72.58,143.23l.7,0-4,7.65q-.41,0-.81,0Z"/><path class="cls-3" d="M73.92,143.27h.71l-3.75,7.66H70Z"/><path class="cls-3" d="M75.29,143.25c.24,0,.48,0,.72,0l-3.52,7.66-.84,0Z"/><path class="cls-3" d="M76.68,143.19l.74-.06-3.28,7.63-.87.07Z"/><path class="cls-3" d="M78.09,143.06l.75-.09-3,7.61-.88.1Z"/><path class="cls-3" d="M79.53,142.88l.76-.11-2.78,7.57-.89.14Z"/><path class="cls-3" d="M81,142.65l.77-.14L79.23,150l-.9.16Z"/><path class="cls-3" d="M82.47,142.36l.78-.17L81,149.67l-.91.2Z"/><path class="cls-3" d="M84,142l.79-.21-2,7.42-.92.23Z"/><path class="cls-3" d="M86.27,141.41l-1.76,7.34-.93.26,1.9-7.38Z"/><path class="cls-3" d="M87.8,140.93l-1.5,7.26-.94.3,1.64-7.3Z"/><path class="cls-3" d="M89.34,140.41l-1.24,7.18-.94.32,1.37-7.22Z"/><path class="cls-3" d="M90.89,139.84l-1,7.07-1,.36,1.11-7.13Z"/><path class="cls-3" d="M92.44,139.21l-.7,7-.95.39.84-7Z"/><path class="cls-3" d="M94,138.55l-.44,6.85-1,.41.58-6.91Z"/><path class="cls-3" d="M95.57,137.82l-.17,6.73-1,.45.3-6.8Z"/><path class="cls-3" d="M97.14,137.05l.1,6.6-1,.48,0-6.67Z"/><path class="cls-3" d="M98.7,136.23l.37,6.46-1,.5-.23-6.53Z"/><path class="cls-3" d="M100.26,135.37l.64,6.3-1,.54-.49-6.38Z"/><path class="cls-3" d="M101.82,134.46l.9,6.15-1,.56-.76-6.23Z"/><path class="cls-3" d="M103.37,133.5l1.17,6-1,.59-1-6.07Z"/><path class="cls-3" d="M104.91,132.51l1.44,5.81-.95.62L104.11,133C104.38,132.86,104.65,132.69,104.91,132.51Z"/><path class="cls-3" d="M106.44,131.47l1.7,5.64-.93.64L105.65,132Z"/><path class="cls-3" d="M108,130.39l2,5.46-.93.66L107.18,131Z"/><path class="cls-3" d="M128.12,110.43l5.41,2-.69.91-5.3-2.17Z"/><path class="cls-3" d="M109.47,129.28l2.21,5.26-.92.69-2.07-5.37Z"/><path class="cls-3" d="M127,111.93l5.21,2.29-.71.91-5.11-2.43Z"/><path class="cls-3" d="M111,128.12l2.47,5.07-.91.71-2.33-5.17Z"/><path class="cls-3" d="M125.82,113.41l5,2.54-.73.9-4.91-2.68Z"/><path class="cls-3" d="M112.44,126.93l2.71,4.86-.89.74-2.59-5Z"/><path class="cls-3" d="M124.62,114.87l4.8,2.79-.75.89-4.7-2.93Z"/><path class="cls-3" d="M113.89,125.71l3,4.65-.89.76-2.84-4.77Z"/><path class="cls-3" d="M123.37,116.31l4.6,3-.77.88-4.48-3.17Z"/><path class="cls-3" d="M115.32,124.45l3.21,4.44c-.28.26-.58.52-.87.77l-3.09-4.55Z"/><path class="cls-3" d="M122.11,117.73l4.37,3.29-.79.86-4.26-3.42Z"/><path class="cls-3" d="M116.73,123.16l3.45,4.22-.85.79L116,123.84Z"/><path class="cls-3" d="M118.12,121.85l3.69,4-.85.81-3.57-4.11Z"/><path class="cls-3" d="M120.81,119.13l4.15,3.52c-.78.83-1.58,1.64-2.39,2.44l-3.8-3.89Q119.81,120.18,120.81,119.13Z"/><path class="cls-3" d="M111.86,49.31a50.09,50.09,0,0,1,11.08-1.67L119.3,55.3a42.54,42.54,0,0,0-9.46,1.43Z"/><path class="cls-3" d="M123.71,47.62h.84l-3.88,7.66H120Z"/><path class="cls-3" d="M125.3,47.64q.4,0,.81,0L122,55.32l-.7,0Z"/><path class="cls-3" d="M126.85,47.71l.79.07-4.33,7.64-.68-.06Z"/><path class="cls-3" d="M128.36,47.86l.78.1-4.55,7.61-.66-.09Z"/><path class="cls-3" d="M129.84,48.06l.76.14-4.77,7.57-.64-.11Z"/><path class="cls-3" d="M131.28,48.33l.73.17-5,7.53-.63-.14Z"/><path class="cls-3" d="M132.67,48.67A29,29,0,0,1,136,49.78l-5.55,7.35a23.22,23.22,0,0,0-2.85-1Z"/><path class="cls-3" d="M136.61,50l.64.3-5.73,7.26-.56-.25Z"/><path class="cls-3" d="M137.83,50.62l.62.33-5.92,7.17-.53-.28Z"/><path class="cls-3" d="M139,51.26l.6.36-6.08,7.07-.5-.3Z"/><path class="cls-3" d="M140.11,52l.57.39-6.23,7c-.16-.12-.32-.22-.49-.33Z"/><path class="cls-3" d="M141.18,52.72a5.56,5.56,0,0,1,.54.42L135.33,60l-.46-.36Z"/><path class="cls-3" d="M142.2,53.53l.51.45-6.53,6.73-.44-.38Z"/><path class="cls-3" d="M143.16,54.4l.49.48L137,61.48l-.41-.41Z"/><path class="cls-3" d="M144.08,55.33l.45.5-6.8,6.46c-.13-.14-.25-.29-.39-.43Z"/><path class="cls-3" d="M144.93,56.31l.42.53-6.92,6.31-.36-.45Z"/><path class="cls-3" d="M145.73,57.34l.39.56-7,6.16c-.11-.16-.22-.33-.34-.48Z"/><path class="cls-3" d="M146.47,58.42l.36.59-7.14,6c-.1-.16-.2-.33-.31-.49Z"/><path class="cls-3" d="M147.15,59.55l.33.62L140.25,66a5.45,5.45,0,0,0-.29-.53Z"/><path class="cls-3" d="M147.77,60.74l.3.64L140.75,67c-.08-.19-.17-.37-.26-.55Z"/><path class="cls-3" d="M148.33,62l.27.66-7.4,5.47c-.07-.19-.14-.38-.22-.57Z"/><path class="cls-3" d="M148.83,63.25l.24.68-7.46,5.28-.21-.59Z"/><path class="cls-3" d="M149.27,64.57c.07.23.14.47.2.71L142,70.36c0-.2-.11-.41-.17-.61Z"/><path class="cls-3" d="M149.64,65.94c.07.24.12.48.18.73l-7.57,4.87-.15-.62Z"/><path class="cls-3" d="M150,67.35c0,.24.09.49.14.75l-7.62,4.66c0-.21-.07-.43-.12-.64Z"/><path class="cls-3" d="M150.21,68.79c0,.26.07.51.1.77L142.67,74c0-.22-.06-.45-.09-.66Z"/><path class="cls-3" d="M150.39,70.28c0,.26.05.52.08.79L142.8,75.3c0-.22,0-.45-.07-.67Z"/><path class="cls-3" d="M150.51,71.8c0,.27,0,.54,0,.81l-7.68,4c0-.23,0-.47,0-.69Z"/><path class="cls-3" d="M150.57,73.36c0,.27,0,.55,0,.83L142.89,78v-.7Z"/><path class="cls-3" d="M150.56,75q0,.42,0,.84l-7.67,3.54c0-.24,0-.48,0-.72Z"/><path class="cls-3" d="M150.49,76.57c0,.28,0,.57-.06.86l-7.66,3.3c0-.24,0-.49,0-.73Z"/><path class="cls-3" d="M150.35,78.22c0,.29-.06.58-.1.87l-7.63,3.06c0-.25.06-.5.08-.74Z"/><path class="cls-3" d="M150.15,79.9c0,.29-.08.59-.13.88l-7.6,2.82c0-.26.08-.51.11-.76Z"/><path class="cls-3" d="M149.89,81.6c0,.3-.11.59-.17.89l-7.55,2.57c0-.26.09-.52.13-.77Z"/><path class="cls-3" d="M149.56,83.32c-.06.3-.13.61-.2.91l-7.5,2.31c.06-.26.11-.52.16-.78Z"/><path class="cls-4" d="M95.52,47.42c21.93-5.88,35.06,7.11,29.28,28.94s-28.33,44.38-50.26,50.26S39.49,119.5,45.28,97.67,73.6,53.29,95.52,47.42ZM75.71,122.23C95.2,117,115.25,97,120.4,77.54s-6.54-31-26-25.74S54.82,77.07,49.68,96.49s6.53,31,26,25.74"/><path class="cls-5" d="M30.32,103.16l.09.19-.54.42-.09-.19Z"/><path class="cls-5" d="M36.81,110.46l.18.11-.45.52-.18-.11Z"/><path class="cls-5" d="M28.49,97.32c0,.07,0,.15,0,.22l-.57.35,0-.23Z"/><path class="cls-5" d="M28.59,97.89a1.74,1.74,0,0,1,.05.22l-.56.36c0-.08,0-.15,0-.23Z"/><path class="cls-5" d="M28.71,98.46c0,.07,0,.14.05.21L28.2,99c0-.08,0-.15-.05-.22Z"/><path class="cls-5" d="M28.84,99a1.74,1.74,0,0,1,.05.22l-.56.37a1.74,1.74,0,0,0,0-.22Z"/><path class="cls-5" d="M29,99.56l.06.21-.56.38c0-.07,0-.14-.05-.21Z"/><path class="cls-5" d="M29.14,100.1l.06.21-.55.39-.07-.22Z"/><path class="cls-5" d="M29.3,100.64c0,.06.05.13.07.2l-.55.39c0-.07-.05-.14-.07-.2Z"/><path class="cls-5" d="M29.48,101.16c0,.06.05.13.07.2l-.55.4a1.72,1.72,0,0,0-.07-.21Z"/><path class="cls-5" d="M29.67,101.67a1.67,1.67,0,0,1,.08.2l-.54.41c0-.07-.06-.14-.08-.2Z"/><path class="cls-5" d="M29.87,102.18l.09.19-.54.42-.09-.2Z"/><path class="cls-5" d="M30.09,102.67l.09.2-.54.42-.09-.2Z"/><path class="cls-5" d="M30.56,103.64l.09.18-.53.43-.1-.18Z"/><path class="cls-5" d="M30.81,104.1c0,.07.07.12.1.18l-.53.44-.1-.18Z"/><path class="cls-5" d="M31.07,104.56l.11.18-.53.44a1.42,1.42,0,0,1-.11-.18Z"/><path class="cls-5" d="M31.35,105l.11.17-.52.45-.12-.17Z"/><path class="cls-5" d="M31.64,105.45l.11.16-.52.46-.12-.17Z"/><path class="cls-5" d="M31.93,105.88l.12.16-.51.46-.13-.17Z"/><path class="cls-5" d="M32.24,106.29l.12.16-.51.47-.12-.16Z"/><path class="cls-5" d="M32.56,106.7l.13.15-.5.48-.14-.16Z"/><path class="cls-5" d="M32.89,107.1l.14.15-.5.48a1.07,1.07,0,0,1-.14-.16Z"/><path class="cls-5" d="M33.24,107.48l.14.15-.5.48a1,1,0,0,1-.14-.15Z"/><path class="cls-5" d="M33.59,107.85l.14.15-.49.49-.14-.15Z"/><path class="cls-5" d="M34,108.22l.14.14-.48.5-.15-.15Z"/><path class="cls-5" d="M34.33,108.58l.16.13-.49.5-.15-.14Z"/><path class="cls-5" d="M34.72,108.92l.15.13-.47.5-.16-.13Z"/><path class="cls-5" d="M35.12,109.25l.16.12-.48.51-.16-.13Z"/><path class="cls-5" d="M35.53,109.57l.16.12-.47.51-.16-.12Z"/><path class="cls-5" d="M35.94,109.88l.17.11-.46.52-.17-.12Z"/><path class="cls-5" d="M36.37,110.17l.17.12-.45.52-.17-.12Z"/><path class="cls-5" d="M37.26,110.74l.18.1-.44.53-.19-.11Z"/><path class="cls-5" d="M37.72,111l.18.1-.44.53-.18-.1Z"/><path class="cls-5" d="M38.19,111.25l.18.09-.43.54-.19-.1Z"/><path class="cls-5" d="M38.66,111.49l.19.09-.42.54-.19-.1Z"/><path class="cls-5" d="M39.15,111.72l.2.08-.42.54-.2-.09Z"/><path class="cls-5" d="M39.65,111.93l.2.08-.41.55-.2-.09Z"/><path class="cls-5" d="M40.15,112.13l.21.08-.41.55-.2-.08Z"/><path class="cls-5" d="M40.67,112.32l.21.07-.4.55-.21-.07Z"/><path class="cls-5" d="M41.19,112.5l.21.07-.39.55-.21-.07Z"/><path class="cls-5" d="M41.72,112.67l.22.06-.39.55-.21-.06Z"/><path class="cls-5" d="M42.27,112.82l.21.06-.37.55-.22-.05Z"/><path class="cls-5" d="M42.81,113,43,113l-.37.56-.22,0Z"/><path class="cls-5" d="M43.38,113.09l.21,0-.35.56-.23,0Z"/><path class="cls-5" d="M43.94,113.21l.22,0-.35.56-.22,0Z"/><path class="cls-5" d="M35,68.57l.47.05-.16.28-.48,0C34.87,68.76,34.93,68.67,35,68.57Z"/><path class="cls-5" d="M112.37,49.82a1.93,1.93,0,0,1,0,.24l-.57.3c0-.08,0-.16,0-.24Z"/><path class="cls-5" d="M98.48,30.65l.21.06-.39.55-.2-.06Z"/><path class="cls-5" d="M74.21,105.86l.06.46a2.61,2.61,0,0,0-.28.17l-.06-.46Z"/><path class="cls-5" d="M71.31,107.47V108l-.28.16,0-.49Z"/><path class="cls-5" d="M98.37,84.44l.38.17-.21.28-.39-.18Z"/><path class="cls-5" d="M99.42,83.05l.4.15-.21.28-.39-.16Z"/><path class="cls-5" d="M28.26,95.55c0,.08,0,.16,0,.23l-.57.33c0-.08,0-.16,0-.24Z"/><path class="cls-5" d="M28.12,92.46v.25l-.57.28v-.25Z"/><path class="cls-5" d="M49,50.44l.28.29-.24.25-.29-.29A3,3,0,0,0,49,50.44Z"/><path class="cls-5" d="M48.4,51.08l.29.28-.24.25-.3-.28A3,3,0,0,0,48.4,51.08Z"/><path class="cls-5" d="M49.69,49.81l.27.3-.25.24-.27-.29Z"/><path class="cls-5" d="M47.77,51.72l.3.28c-.09.08-.17.17-.25.25l-.3-.27Z"/><path class="cls-5" d="M50.34,49.18l.26.31-.25.24-.26-.3Z"/><path class="cls-5" d="M47.14,52.38l.31.26-.24.25-.31-.26Z"/><path class="cls-5" d="M51,48.57l.26.31-.26.24-.26-.31Z"/><path class="cls-5" d="M46.52,53l.32.26-.24.25-.32-.25Z"/><path class="cls-5" d="M51.67,48l.24.33-.26.23-.25-.32Z"/><path class="cls-5" d="M45.91,53.7l.32.24c-.08.09-.16.17-.23.26L45.67,54Z"/><path class="cls-5" d="M52.34,47.35l.23.33-.26.23-.24-.32Z"/><path class="cls-5" d="M45.3,54.36l.33.24c-.08.09-.15.18-.23.26l-.33-.23Z"/><path class="cls-5" d="M53,46.75l.23.34-.26.23L52.75,47Z"/><path class="cls-5" d="M44.7,55l.34.23-.23.26-.34-.23A2.85,2.85,0,0,0,44.7,55Z"/><path class="cls-5" d="M53.69,46.16l.23.35c-.1.07-.18.15-.27.22l-.22-.34Z"/><path class="cls-5" d="M44.11,55.72l.35.22c-.08.08-.15.17-.23.26L43.88,56Z"/><path class="cls-5" d="M54.38,45.58l.21.35-.27.23-.21-.35Z"/><path class="cls-5" d="M43.53,56.4l.35.21-.22.27-.36-.21Z"/><path class="cls-5" d="M55.07,45l.2.37-.27.22-.2-.36Z"/><path class="cls-5" d="M43,57.09l.36.2-.22.27-.36-.2Z"/><path class="cls-5" d="M55.77,44.44l.19.37-.27.22-.2-.37Z"/><path class="cls-5" d="M42.39,57.78l.37.19-.22.27-.37-.18A3,3,0,0,1,42.39,57.78Z"/><path class="cls-5" d="M56.47,43.88l.18.38-.27.21-.19-.37Z"/><path class="cls-5" d="M41.83,58.48l.37.18-.21.27-.38-.18Z"/><path class="cls-5" d="M57.17,43.33l.17.39-.27.21-.18-.38Z"/><path class="cls-5" d="M41.28,59.18l.38.17c-.07.09-.14.19-.21.27l-.39-.16C41.14,59.37,41.2,59.27,41.28,59.18Z"/><path class="cls-5" d="M57.88,42.79l.16.39-.27.21L57.6,43Z"/><path class="cls-5" d="M40.74,59.89l.39.16-.21.27-.39-.16C40.59,60.07,40.67,60,40.74,59.89Z"/><path class="cls-5" d="M58.59,42.26l.15.4-.27.21-.16-.4Z"/><path class="cls-5" d="M40.2,60.6l.4.15-.2.27-.4-.15Z"/><path class="cls-5" d="M59.31,41.74l.14.41a2.83,2.83,0,0,0-.28.2L59,41.94Z"/><path class="cls-5" d="M39.68,61.31l.41.14a2.83,2.83,0,0,0-.2.28l-.41-.14Z"/><path class="cls-5" d="M60,41.23l.14.41a2.83,2.83,0,0,0-.28.2l-.14-.41Z"/><path class="cls-5" d="M39.17,62l.41.14-.2.27L39,62.3Z"/><path class="cls-5" d="M60.75,40.72l.12.42-.28.2-.13-.42Z"/><path class="cls-5" d="M38.66,62.74l.42.13-.19.27L38.47,63Z"/><path class="cls-5" d="M61.47,40.23l.11.43-.28.18-.11-.42Z"/><path class="cls-5" d="M38.17,63.46l.42.12-.19.28L38,63.74Z"/><path class="cls-5" d="M62.2,39.74l.1.44-.28.18-.11-.43Z"/><path class="cls-5" d="M37.68,64.19l.43.1-.18.28-.44-.1C37.56,64.38,37.62,64.28,37.68,64.19Z"/><path class="cls-5" d="M62.93,39.27l.09.44-.28.18-.1-.44Z"/><path class="cls-5" d="M37.2,64.91l.44.1-.18.28L37,65.2Z"/><path class="cls-5" d="M63.66,38.8l.08.45-.28.18L63.37,39A2.29,2.29,0,0,0,63.66,38.8Z"/><path class="cls-5" d="M36.74,65.64l.45.09L37,66l-.45-.08Z"/><path class="cls-5" d="M64.39,38.35l.08.45-.29.17-.08-.44Z"/><path class="cls-5" d="M36.28,66.37l.46.08-.18.28-.45-.07Z"/><path class="cls-5" d="M65.13,37.9l.06.46-.28.17-.07-.45Z"/><path class="cls-5" d="M35.84,67.1l.46.07-.17.28-.46-.06Z"/><path class="cls-5" d="M65.86,37.47l.06.46-.29.17-.06-.46Z"/><path class="cls-5" d="M35.4,67.84l.47,0c-.06.1-.12.19-.17.29l-.47-.05Z"/><path class="cls-5" d="M66.6,37.05l.05.47-.29.16,0-.47Z"/><path class="cls-5" d="M67.34,36.63l0,.48-.28.15,0-.47A2.69,2.69,0,0,0,67.34,36.63Z"/><path class="cls-5" d="M34.57,69.31l.47,0-.16.28-.47,0A2.69,2.69,0,0,1,34.57,69.31Z"/><path class="cls-5" d="M68.08,36.23l0,.48-.29.16,0-.48Z"/><path class="cls-5" d="M34.16,70.05l.48,0-.15.29-.48,0Z"/><path class="cls-5" d="M68.82,35.84l0,.49-.29.15,0-.49Z"/><path class="cls-5" d="M33.77,70.78l.49,0-.15.28h-.49Z"/><path class="cls-5" d="M69.57,35.46V36l-.29.15v-.49Z"/><path class="cls-5" d="M33.39,71.52h.49c-.05.09-.1.19-.14.28h-.49C33.29,71.71,33.34,71.62,33.39,71.52Z"/><path class="cls-5" d="M70.31,35.09v.5l-.28.14v-.49Z"/><path class="cls-5" d="M33,72.26h.5c-.05.09-.1.19-.14.28h-.5Z"/><path class="cls-5" d="M71.05,34.74l0,.49-.28.14v-.5Z"/><path class="cls-5" d="M32.67,73h.49c0,.1-.09.19-.13.29h-.5Z"/><path class="cls-5" d="M71.79,34.39l0,.51-.28.13,0-.51Z"/><path class="cls-5" d="M32.32,73.73l.5,0c0,.1-.09.19-.13.29l-.5,0C32.23,73.93,32.27,73.83,32.32,73.73Z"/><path class="cls-5" d="M72.53,34.06l0,.51-.28.12,0-.51Z"/><path class="cls-5" d="M32,74.47l.51,0-.12.28-.52,0C31.9,74.66,31.94,74.57,32,74.47Z"/><path class="cls-5" d="M73.27,33.73l0,.52-.28.12,0-.51Z"/><path class="cls-5" d="M31.66,75.21l.51,0-.12.28-.51,0A2.52,2.52,0,0,1,31.66,75.21Z"/><path class="cls-5" d="M74,33.42l-.06.52-.28.12,0-.52Z"/><path class="cls-5" d="M31.35,75.94l.52,0-.12.28-.52.06Z"/><path class="cls-5" d="M74.75,33.12l-.07.53-.29.11.07-.52Z"/><path class="cls-5" d="M31.05,76.68l.52-.07c0,.1-.08.19-.11.29l-.52.06C31,76.87,31,76.77,31.05,76.68Z"/><path class="cls-5" d="M75.48,32.83l-.07.53-.29.11.07-.52Z"/><path class="cls-5" d="M30.76,77.41l.53-.08c0,.1-.08.19-.11.29l-.53.08C30.69,77.6,30.72,77.5,30.76,77.41Z"/><path class="cls-5" d="M76.22,32.56l-.09.53-.28.11.08-.53Z"/><path class="cls-5" d="M30.48,78.14l.54-.09-.11.29-.53.08C30.42,78.33,30.45,78.23,30.48,78.14Z"/><path class="cls-5" d="M77,32.3l-.1.53-.28.1.09-.53Z"/><path class="cls-5" d="M30.22,78.87l.53-.09-.09.28-.54.09C30.16,79.06,30.19,79,30.22,78.87Z"/><path class="cls-5" d="M77.68,32.05l-.11.53-.28.1.1-.53Z"/><path class="cls-5" d="M30,79.59l.54-.1c0,.1-.07.19-.1.28l-.54.11C29.91,79.78,29.94,79.69,30,79.59Z"/><path class="cls-5" d="M78.4,31.81l-.11.54-.28.09.11-.54Z"/><path class="cls-5" d="M29.73,80.32l.54-.12-.09.29-.54.11Z"/><path class="cls-5" d="M79.13,31.58l-.12.54-.28.09.12-.54Z"/><path class="cls-5" d="M29.5,81l.55-.12L30,81.2l-.54.12C29.45,81.23,29.48,81.13,29.5,81Z"/><path class="cls-5" d="M79.85,31.37l-.13.54-.28.08.13-.54Z"/><path class="cls-5" d="M29.29,81.76l.54-.13c0,.09,0,.18-.08.27l-.54.14A2.29,2.29,0,0,1,29.29,81.76Z"/><path class="cls-5" d="M80.57,31.17l-.14.54-.28.08.14-.54Z"/><path class="cls-5" d="M29.09,82.47l.55-.14c0,.09-.06.19-.08.28l-.55.14C29,82.66,29.06,82.57,29.09,82.47Z"/><path class="cls-5" d="M81,31.05l.28-.07-.15.55-.28.07Z"/><path class="cls-5" d="M29.45,83a2.68,2.68,0,0,0-.07.27l-.56.15.08-.27Z"/><path class="cls-5" d="M81.72,30.87,82,30.8l-.16.55-.27.07Z"/><path class="cls-5" d="M29.27,83.74l-.06.27-.56.16c0-.09,0-.18.07-.28Z"/><path class="cls-5" d="M82.43,30.7l.28-.06-.17.55-.27.06Z"/><path class="cls-5" d="M29.11,84.43l-.06.27-.56.18.06-.28Z"/><path class="cls-5" d="M83.14,30.54l.28-.06-.18.56L83,31.1Z"/><path class="cls-5" d="M29,85.12a2.61,2.61,0,0,0-.06.27l-.56.19.06-.28Z"/><path class="cls-5" d="M83.84,30.39l.28-.05-.19.56-.27.05Z"/><path class="cls-5" d="M28.81,85.81c0,.1,0,.2,0,.3l-.56.19c0-.1,0-.2.06-.3Z"/><path class="cls-5" d="M84.54,30.27l.27-.06-.19.56-.27.05Z"/><path class="cls-5" d="M28.68,86.52c0,.09,0,.18,0,.27l-.57.2a2.56,2.56,0,0,0,.05-.27Z"/><path class="cls-5" d="M85.24,30.15l.33-.06-.21.56-.33.06Z"/><path class="cls-5" d="M28.57,87.2c0,.09,0,.18,0,.27l-.56.21c0-.09,0-.18,0-.27Z"/><path class="cls-5" d="M86,30l.26,0-.21.57-.27,0Z"/><path class="cls-5" d="M28.47,87.88l0,.26-.57.22a2.34,2.34,0,0,1,0-.26Z"/><path class="cls-5" d="M86.67,29.94l.27,0-.23.57-.26,0Z"/><path class="cls-5" d="M28.38,88.55l0,.26-.57.23,0-.26Z"/><path class="cls-5" d="M87.35,29.86l.27,0-.24.56-.26,0Z"/><path class="cls-5" d="M28.31,89.22l0,.26-.57.23,0-.26Z"/><path class="cls-5" d="M88,29.79l.26,0-.25.56-.25,0Z"/><path class="cls-5" d="M28.24,89.88c0,.08,0,.17,0,.25l-.56.25a2.46,2.46,0,0,1,0-.26Z"/><path class="cls-5" d="M88.7,29.74l.26,0-.26.56-.26,0Z"/><path class="cls-5" d="M28.19,90.53c0,.09,0,.17,0,.26l-.57.25c0-.08,0-.17,0-.26Z"/><path class="cls-5" d="M89.36,29.7l.26,0-.27.57H89.1Z"/><path class="cls-5" d="M28.16,91.18a2.26,2.26,0,0,0,0,.26l-.57.26c0-.09,0-.17,0-.26Z"/><path class="cls-5" d="M90,29.67h.26l-.27.57h-.25Z"/><path class="cls-5" d="M28.13,91.83v.25l-.57.27a2.26,2.26,0,0,1,0-.26Z"/><path class="cls-5" d="M90.67,29.65h.25l-.28.57h-.25Z"/><path class="cls-5" d="M91.31,29.65h.25l-.29.57H91Z"/><path class="cls-5" d="M28.12,93.09v.25l-.57.29v-.25Z"/><path class="cls-5" d="M92,29.66h.25l-.3.57h-.25Z"/><path class="cls-5" d="M28.14,93.72V94l-.57.3c0-.08,0-.16,0-.25Z"/><path class="cls-5" d="M92.58,29.69h.25l-.31.57-.24,0Z"/><path class="cls-5" d="M28.16,94.34a1.94,1.94,0,0,0,0,.24l-.57.3c0-.08,0-.16,0-.24Z"/><path class="cls-5" d="M93.2,29.72l.25,0-.32.57-.23,0Z"/><path class="cls-5" d="M28.2,95a1.64,1.64,0,0,1,0,.23l-.57.32a1.94,1.94,0,0,0,0-.24Z"/><path class="cls-5" d="M93.82,29.78l.24,0-.32.57-.24,0Z"/><path class="cls-5" d="M94.43,29.84l.24,0-.34.56-.22,0Z"/><path class="cls-5" d="M28.32,96.15a1.6,1.6,0,0,1,0,.23l-.56.33,0-.24Z"/><path class="cls-5" d="M95,29.91l.23,0-.33.56-.23,0Z"/><path class="cls-5" d="M28.4,96.74c0,.07,0,.15,0,.22l-.57.34a2.23,2.23,0,0,0,0-.23Z"/><path class="cls-5" d="M95.63,30l.23,0-.35.56-.23,0Z"/><path class="cls-5" d="M96.21,30.11l.23,0-.35.56-.23,0Z"/><path class="cls-5" d="M96.79,30.22l.22.05-.36.56-.22,0Z"/><path class="cls-5" d="M97.36,30.35a1.41,1.41,0,0,1,.22.06l-.37.55L97,30.91Z"/><path class="cls-5" d="M97.92,30.49l.22.06-.38.56-.21-.06Z"/><path class="cls-5" d="M99,30.81l.21.07-.39.55-.21-.07Z"/><path class="cls-5" d="M99.56,31l.2.07-.4.55-.2-.07Z"/><path class="cls-5" d="M100.08,31.18l.2.08-.4.54-.2-.07Z"/><path class="cls-5" d="M100.6,31.39l.19.08-.41.54-.19-.08Z"/><path class="cls-5" d="M101.11,31.6l.19.09-.42.54-.19-.09Z"/><path class="cls-5" d="M101.6,31.83l.19.09-.42.54-.19-.09Z"/><path class="cls-5" d="M102.09,32.07l.19.1-.44.53-.18-.09Z"/><path class="cls-5" d="M102.57,32.32l.18.11-.44.53-.18-.11Z"/><path class="cls-5" d="M103,32.59l.18.1-.45.53-.17-.1Z"/><path class="cls-5" d="M103.49,32.87l.18.1-.45.53-.17-.11Z"/><path class="cls-5" d="M103.94,33.15l.17.12-.45.52-.17-.12Z"/><path class="cls-5" d="M104.39,33.45l.16.12-.46.52-.17-.12Z"/><path class="cls-5" d="M104.81,33.76l.16.13-.46.51-.17-.12Z"/><path class="cls-5" d="M105.22,34.09l.16.13-.47.51-.16-.13Z"/><path class="cls-5" d="M105.63,34.42l.16.14-.49.5-.14-.13Z"/><path class="cls-5" d="M106,34.77l.15.14-.49.49s-.09-.09-.15-.13Z"/><path class="cls-5" d="M106.41,35.13l.15.14-.49.49-.15-.14Z"/><path class="cls-5" d="M106.78,35.5l.15.14-.5.49-.14-.14Z"/><path class="cls-5" d="M107.14,35.87l.14.16-.5.48-.13-.15Z"/><path class="cls-5" d="M107.5,36.26c0,.06.09.11.13.16l-.51.48s-.08-.11-.12-.15Z"/><path class="cls-5" d="M107.84,36.67a1,1,0,0,1,.12.16l-.5.47-.13-.16Z"/><path class="cls-5" d="M108.16,37.08a1.83,1.83,0,0,1,.13.16l-.51.47a1.83,1.83,0,0,1-.13-.16Z"/><path class="cls-5" d="M108.48,37.5a1.77,1.77,0,0,1,.12.17l-.52.46c0-.06-.08-.11-.11-.16Z"/><path class="cls-5" d="M108.78,37.94l.12.16-.52.46a1.63,1.63,0,0,1-.11-.17Z"/><path class="cls-5" d="M109.08,38.38a1,1,0,0,0,.11.17l-.53.45-.11-.17Z"/><path class="cls-5" d="M109.36,38.83a1.62,1.62,0,0,1,.1.18l-.52.45c0-.06-.07-.13-.11-.18Z"/><path class="cls-5" d="M109.63,39.29c0,.07.07.13.1.19l-.53.44a1.45,1.45,0,0,0-.1-.18Z"/><path class="cls-5" d="M109.88,39.77a1.14,1.14,0,0,1,.1.19l-.53.43-.1-.19Z"/><path class="cls-5" d="M110.13,40.25l.09.19-.54.43-.09-.19Z"/><path class="cls-5" d="M110.36,40.74l.09.2-.54.42a1.67,1.67,0,0,1-.08-.2Z"/><path class="cls-5" d="M110.58,41.25l.09.2-.55.41a1.67,1.67,0,0,0-.08-.2Z"/><path class="cls-5" d="M110.79,41.76l.08.2-.55.4a1.54,1.54,0,0,0-.08-.19Z"/><path class="cls-5" d="M111,42.28c0,.07.05.14.07.21l-.55.39a1.18,1.18,0,0,1-.07-.2Z"/><path class="cls-5" d="M111.17,42.81c0,.07,0,.14.07.21l-.55.39a1.72,1.72,0,0,1-.07-.21Z"/><path class="cls-5" d="M111.34,43.35c0,.07,0,.14.07.21l-.56.38-.06-.2Z"/><path class="cls-5" d="M111.5,43.9l.06.21-.56.38-.06-.21Z"/><path class="cls-5" d="M111.65,44.45a1.74,1.74,0,0,0,0,.22l-.56.37,0-.22Z"/><path class="cls-5" d="M111.78,45a2.25,2.25,0,0,0,0,.22l-.57.36c0-.07,0-.15,0-.22Z"/><path class="cls-5" d="M111.89,45.59a1.89,1.89,0,0,1,0,.23l-.56.35c0-.08,0-.15,0-.22Z"/><path class="cls-5" d="M112,46.17l0,.23-.56.35a2.23,2.23,0,0,1,0-.23Z"/><path class="cls-5" d="M44.51,113.31l.23,0-.34.56-.23,0Z"/><path class="cls-5" d="M112.1,46.76l0,.23-.56.34,0-.23Z"/><path class="cls-5" d="M45.09,113.4l.24,0L45,114l-.23,0Z"/><path class="cls-5" d="M112.18,47.36l0,.23-.57.33a1.81,1.81,0,0,0,0-.23Z"/><path class="cls-5" d="M45.68,113.48l.24,0-.33.56-.24,0Z"/><path class="cls-5" d="M112.25,48c0,.08,0,.16,0,.24l-.57.32c0-.08,0-.16,0-.24Z"/><path class="cls-5" d="M46.28,113.55l.24,0-.32.56-.24,0Z"/><path class="cls-5" d="M112.3,48.57c0,.08,0,.17,0,.25l-.57.31c0-.08,0-.16,0-.24Z"/><path class="cls-5" d="M46.88,113.6l.24,0-.31.56h-.24Z"/><path class="cls-5" d="M112.35,49.19a2.18,2.18,0,0,0,0,.25l-.57.3a1.93,1.93,0,0,1,0-.24Z"/><path class="cls-5" d="M47.5,113.64l.23,0-.29.56h-.25Z"/><path class="cls-5" d="M48.11,113.67h.25l-.29.56h-.25Z"/><path class="cls-5" d="M112.39,50.45v.25l-.57.29v-.25Z"/><path class="cls-5" d="M48.74,113.68H49l-.28.57h-.25Z"/><path class="cls-5" d="M112.39,51.09v.25l-.57.28c0-.08,0-.17,0-.25Z"/><path class="cls-5" d="M49.37,113.68h.25l-.28.57h-.25Z"/><path class="cls-5" d="M112.38,51.74V52l-.57.27V52Z"/><path class="cls-5" d="M50,113.67h.25l-.27.56h-.25Z"/><path class="cls-5" d="M112.36,52.39a2.09,2.09,0,0,0,0,.25l-.57.26a2.09,2.09,0,0,1,0-.25Z"/><path class="cls-5" d="M50.65,113.65h.26l-.26.56-.26,0Z"/><path class="cls-5" d="M112.32,53.05a2.11,2.11,0,0,1,0,.25l-.56.25a2.11,2.11,0,0,1,0-.25Z"/><path class="cls-5" d="M51.3,113.61h.26l-.26.56-.26,0Z"/><path class="cls-5" d="M112.27,53.71a2.28,2.28,0,0,1,0,.26l-.57.24,0-.26Z"/><path class="cls-5" d="M52,113.56l.25,0-.24.57-.26,0Z"/><path class="cls-5" d="M112.21,54.38l0,.26-.56.23a2.13,2.13,0,0,1,0-.25Z"/><path class="cls-5" d="M52.62,113.5l.26,0-.24.57-.26,0Z"/><path class="cls-5" d="M112.14,55.05a2.51,2.51,0,0,0,0,.27l-.57.22a2.34,2.34,0,0,0,0-.26Z"/><path class="cls-5" d="M53.28,113.43l.26,0-.22.57-.26,0Z"/><path class="cls-5" d="M112.05,55.73a2.51,2.51,0,0,0,0,.27l-.56.21c0-.08,0-.17,0-.26Z"/><path class="cls-5" d="M54,113.34l.27,0-.22.56-.27,0Z"/><path class="cls-5" d="M112,56.42c0,.09,0,.18,0,.26l-.57.21a2.34,2.34,0,0,0,0-.26Z"/><path class="cls-5" d="M54.63,113.24l.27,0-.21.56-.27,0Z"/><path class="cls-5" d="M111.83,57.1a2.33,2.33,0,0,1,0,.28l-.56.19c0-.09,0-.18,0-.26Z"/><path class="cls-5" d="M55.31,113.13l.27,0-.2.56-.27,0Z"/><path class="cls-5" d="M111.71,57.8l-.06.27-.56.19.06-.27Z"/><path class="cls-5" d="M56,113l.26-.06-.18.56-.28,0Z"/><path class="cls-5" d="M111.57,58.5l-.06.27L111,59l.06-.27Z"/><path class="cls-5" d="M56.68,112.87l.27-.06-.17.56-.28,0Z"/><path class="cls-5" d="M111.42,59.2c0,.09,0,.18-.07.27l-.55.17.06-.27Z"/><path class="cls-5" d="M57.38,112.72l.27-.06-.17.55-.27.06Z"/><path class="cls-5" d="M111.25,59.9a2.29,2.29,0,0,1-.07.28l-.55.16c0-.09.05-.18.07-.27Z"/><path class="cls-5" d="M58.07,112.56l.28-.07-.16.55-.28.07Z"/><path class="cls-5" d="M111.08,60.61c0,.1,0,.19-.08.28l-.55.15a2.68,2.68,0,0,0,.07-.27Z"/><path class="cls-5" d="M58.77,112.38l.28-.07-.15.55-.28.07Z"/><path class="cls-5" d="M110.34,61.47l.55-.15c0,.1-.06.19-.08.29l-.55.14C110.29,61.66,110.31,61.56,110.34,61.47Z"/><path class="cls-5" d="M59.74,112.12l-.14.55-.27.08.14-.55Z"/><path class="cls-5" d="M110.14,62.18l.54-.14a2.29,2.29,0,0,1-.08.28l-.54.13C110.09,62.36,110.11,62.27,110.14,62.18Z"/><path class="cls-5" d="M60.44,111.93l-.12.54-.29.08.14-.54Z"/><path class="cls-5" d="M109.93,62.89l.54-.13c0,.1-.06.19-.08.28l-.55.12Z"/><path class="cls-5" d="M61.15,111.71l-.11.54-.29.09.13-.55Z"/><path class="cls-5" d="M109.7,63.6l.54-.12a1.61,1.61,0,0,1-.09.29l-.54.11Z"/><path class="cls-5" d="M61.87,111.48l-.11.54-.28.09.11-.54Z"/><path class="cls-5" d="M109.47,64.31l.54-.1c0,.09-.07.18-.1.28l-.54.1A2.31,2.31,0,0,0,109.47,64.31Z"/><path class="cls-5" d="M62.59,111.25l-.1.53-.29.1.11-.54Z"/><path class="cls-5" d="M109.23,65l.53-.1c0,.1-.07.19-.1.29l-.53.09C109.16,65.22,109.19,65.12,109.23,65Z"/><path class="cls-5" d="M63.3,111l-.09.53-.28.1.09-.54Z"/><path class="cls-5" d="M109,65.75l.54-.09-.11.29-.53.08C108.9,65.94,108.93,65.84,109,65.75Z"/><path class="cls-5" d="M64,110.73l-.07.53-.3.11.09-.53Z"/><path class="cls-5" d="M108.7,66.47l.52-.08c0,.1-.07.19-.11.29l-.53.07Z"/><path class="cls-5" d="M64.75,110.46l-.08.53-.28.1.07-.52Z"/><path class="cls-5" d="M108.41,67.19l.52-.07a2.49,2.49,0,0,1-.11.29l-.52.06C108.34,67.38,108.38,67.28,108.41,67.19Z"/><path class="cls-5" d="M65.47,110.18l-.06.52-.29.11.07-.52Z"/><path class="cls-5" d="M108.12,67.92l.52-.06-.12.28-.52.06Z"/><path class="cls-5" d="M66.19,109.88l0,.51-.28.12,0-.51Z"/><path class="cls-5" d="M107.81,68.64l.52,0c0,.1-.09.19-.13.29l-.51,0Z"/><path class="cls-5" d="M66.92,109.57l0,.51-.29.13,0-.51Z"/><path class="cls-5" d="M107.5,69.36l.51,0c-.05.1-.09.19-.13.29l-.51,0C107.41,69.56,107.45,69.46,107.5,69.36Z"/><path class="cls-5" d="M67.65,109.25l0,.51-.29.13,0-.51Z"/><path class="cls-5" d="M107.17,70.09l.5,0a2.55,2.55,0,0,1-.13.29l-.51,0Z"/><path class="cls-5" d="M68.37,108.92l0,.5-.29.13,0-.5Z"/><path class="cls-5" d="M106.83,70.82l.5,0-.14.29h-.5C106.74,71,106.78,70.91,106.83,70.82Z"/><path class="cls-5" d="M69.12,108.57v.49l-.31.15,0-.5Z"/><path class="cls-5" d="M106.48,71.55H107c0,.1-.09.19-.14.29h-.5Z"/><path class="cls-5" d="M69.85,108.21v.5l-.3.14v-.49Z"/><path class="cls-5" d="M106.11,72.28h.49l-.14.29H106Z"/><path class="cls-5" d="M70.57,107.85v.49l-.28.14V108Z"/><path class="cls-5" d="M105.74,73l.48,0c0,.09-.09.19-.15.28h-.48Z"/><path class="cls-5" d="M105.36,73.73l.47,0c0,.1-.1.19-.15.29l-.48,0Z"/><path class="cls-5" d="M72,107.09l0,.47-.29.16,0-.48Z"/><path class="cls-5" d="M105,74.46l.48,0-.17.29-.47,0Z"/><path class="cls-5" d="M72.76,106.69l0,.47-.29.16,0-.48Z"/><path class="cls-5" d="M104.55,75.18l.47,0-.16.28-.47-.05A2.54,2.54,0,0,0,104.55,75.18Z"/><path class="cls-5" d="M73.49,106.28l.05.47-.3.16,0-.47Z"/><path class="cls-5" d="M104.14,75.91l.46,0c-.06.09-.11.19-.17.29l-.46-.06Z"/><path class="cls-5" d="M103.71,76.63l.46.06c-.06.1-.12.19-.17.29l-.46-.07Z"/><path class="cls-5" d="M74.94,105.43l.07.46-.29.17-.07-.46Z"/><path class="cls-5" d="M103.27,77.35l.46.07-.18.29-.45-.07C103.15,77.54,103.21,77.45,103.27,77.35Z"/><path class="cls-5" d="M75.66,105l.08.45-.29.17-.07-.45Z"/><path class="cls-5" d="M102.82,78.07l.45.08-.18.29-.45-.09A2.68,2.68,0,0,0,102.82,78.07Z"/><path class="cls-5" d="M76.38,104.54l.09.44-.29.18-.08-.44Z"/><path class="cls-5" d="M102.36,78.79l.45.09-.19.29-.44-.1C102.25,79,102.3,78.88,102.36,78.79Z"/><path class="cls-5" d="M77.1,104.08l.1.44-.29.18-.09-.44Z"/><path class="cls-5" d="M101.9,79.51l.43.1-.18.28-.44-.1Z"/><path class="cls-5" d="M77.81,103.61l.11.43-.28.19-.1-.43Z"/><path class="cls-5" d="M101.42,80.22l.43.11c-.06.1-.13.19-.19.28l-.43-.11A2.75,2.75,0,0,0,101.42,80.22Z"/><path class="cls-5" d="M78.53,103.13l.12.43-.29.19-.11-.43Z"/><path class="cls-5" d="M100.93,80.93l.43.12c-.07.1-.14.19-.2.29l-.42-.13Z"/><path class="cls-5" d="M79.24,102.65l.13.41-.28.2-.13-.42Z"/><path class="cls-5" d="M100.44,81.64l.42.13-.21.28-.41-.13Z"/><path class="cls-5" d="M80,102.15l.14.41-.29.2-.13-.41Z"/><path class="cls-5" d="M99.93,82.35l.41.14-.2.28-.41-.15Z"/><path class="cls-5" d="M80.65,101.64l.15.4-.28.21-.14-.41Z"/><path class="cls-5" d="M81.36,101.13l.15.39-.28.21-.15-.4Z"/><path class="cls-5" d="M98.89,83.75l.4.16-.21.27L98.69,84Z"/><path class="cls-5" d="M82.06,100.6l.16.39-.27.21-.17-.39Z"/><path class="cls-5" d="M82.75,100.07l.18.38-.28.21-.17-.38Z"/><path class="cls-5" d="M97.82,85.13l.38.18-.21.28-.38-.19C97.68,85.31,97.75,85.23,97.82,85.13Z"/><path class="cls-5" d="M83.44,99.53l.19.37-.28.22-.18-.38Z"/><path class="cls-5" d="M97.27,85.82l.38.19-.23.27-.36-.19Z"/><path class="cls-5" d="M84.13,99l.19.36-.27.22-.19-.37Z"/><path class="cls-5" d="M96.72,86.5l.36.2-.22.27-.36-.2Z"/><path class="cls-5" d="M84.81,98.42l.21.36-.28.22-.19-.36Z"/><path class="cls-5" d="M96.15,87.19l.36.2-.23.27-.35-.21Z"/><path class="cls-5" d="M85.49,97.85l.21.35-.27.23-.2-.36Z"/><path class="cls-5" d="M95.58,87.86l.35.21-.23.27-.35-.22C95.43,88,95.5,87.94,95.58,87.86Z"/><path class="cls-5" d="M86.17,97.28l.21.34-.26.23-.22-.35Z"/><path class="cls-5" d="M95,88.53l.34.22c-.08.09-.16.17-.23.26l-.34-.22A2.85,2.85,0,0,1,95,88.53Z"/><path class="cls-5" d="M86.83,96.7l.23.33-.26.23-.23-.34Z"/><path class="cls-5" d="M94.41,89.19l.34.23-.24.27-.33-.24C94.25,89.36,94.33,89.28,94.41,89.19Z"/><path class="cls-5" d="M87.5,96.11l.24.33-.27.23-.23-.33Z"/><path class="cls-5" d="M93.81,89.85l.33.24-.24.26-.32-.25Z"/><path class="cls-5" d="M88.16,95.51l.25.32-.27.24-.24-.32Z"/><path class="cls-5" d="M93.21,90.5l.32.25-.24.26L93,90.75Z"/><path class="cls-5" d="M88.81,94.91l.26.31-.26.24-.26-.31Z"/><path class="cls-5" d="M92.6,91.15l.31.26-.24.25-.31-.26Z"/><path class="cls-5" d="M89.46,94.3l.26.3-.25.24-.26-.3Z"/><path class="cls-5" d="M92,91.79l.3.27-.25.25-.3-.27Z"/><path class="cls-5" d="M90.1,93.68l.27.3-.25.24-.27-.3Z"/><path class="cls-5" d="M90.73,93.06l.29.28-.25.25-.28-.29Z"/><path class="cls-5" d="M91.36,92.43l.29.28L91.4,93l-.28-.28Z"/><path class="cls-5" d="M69.77,53.7,70,55.29a48.08,48.08,0,0,0-4.45,3.05L65,57A48.88,48.88,0,0,1,69.77,53.7Z"/><path class="cls-5" d="M62.63,58.88l.78,1.2a54.1,54.1,0,0,0-4,3.85L58.3,63A56.63,56.63,0,0,1,62.63,58.88Z"/><path class="cls-5" d="M78.06,49.86l-.39,1.89A35.56,35.56,0,0,0,72.28,54l0-1.7A37.51,37.51,0,0,1,78.06,49.86Z"/><path class="cls-5" d="M94.69,73.74l1.78-.1a41.86,41.86,0,0,1-2.14,4.08l-1.62-.21A38.87,38.87,0,0,0,94.69,73.74Z"/><path class="cls-5" d="M82.05,90l.74,1.23a44.18,44.18,0,0,1-16.64,9.16,20.81,20.81,0,0,1-10.68.39l1.31-2a19.33,19.33,0,0,0,9.88-.35A41,41,0,0,0,82.05,90Z"/><path class="cls-5" d="M80.46,49.18a24.28,24.28,0,0,1,5.38-.71l-1,2a22.84,22.84,0,0,0-5,.66Z"/><path class="cls-5" d="M87.94,48.57c8.48.86,13,7.69,11,17.83l-2,.64c1.92-9.37-2.28-15.7-10.12-16.49Z"/><path class="cls-6" d="M71.79,14.76l0,1.68a114.61,114.61,0,0,0-19.57,12l-.54-1.31A119,119,0,0,1,71.79,14.76Z"/><path class="cls-6" d="M20.48,51.61,30.77,55.9A94.9,94.9,0,0,0,15.6,84.13l-14.17,3C5.2,75.24,11.74,63.08,20.48,51.61Zm-7.1,28.66A102.51,102.51,0,0,1,24.84,59l-5.07-1.49A112.87,112.87,0,0,0,7.06,81.14l6.32-.87"/><path class="cls-6" d="M106.4,0a44.77,44.77,0,0,1,13.54,1.89L109.75,16.42A35.66,35.66,0,0,0,99,14.89Z"/><path class="cls-7" d="M122.65,2.85a32.72,32.72,0,0,1,7.24,4L117.64,20.37a25.21,25.21,0,0,0-5.75-3.19Z"/><path class="cls-8" d="M132,8.58c.4.36.79.72,1.18,1.1a30.74,30.74,0,0,1,4.09,5L123.5,26.59a24.17,24.17,0,0,0-4.19-4.87Z"/><path class="cls-9" d="M138.65,17.06a35,35,0,0,1,3.07,8L127,34.79a28,28,0,0,0-2.43-6.33Z"/><path class="cls-10" d="M142.35,28a48.63,48.63,0,0,1,.69,9.5l-14.93,7.19a38.86,38.86,0,0,0-.57-7.54Z"/><path class="cls-11" d="M142.87,40.83a68.14,68.14,0,0,1-1.45,9.49l-14.59,4.54A54.6,54.6,0,0,0,128,47.32Z"/><path class="cls-3" d="M14.93,113c.22.86.46,1.68.74,2.49l-.28.19c-.27-.81-.52-1.64-.73-2.49Z"/><path class="cls-3" d="M18.51,121.45c.44.68.9,1.33,1.4,2l-.26.23c-.5-.63-1-1.29-1.4-2Z"/><path class="cls-3" d="M24.44,127.83c.64.48,1.31.93,2,1.36l-.22.26c-.7-.43-1.37-.88-2-1.36Z"/><path class="cls-3" d="M32.46,131.92c.82.26,1.66.49,2.53.69l-.19.28c-.86-.2-1.71-.43-2.53-.69Z"/><path class="cls-3" d="M28.21,130.18c.74.37,1.49.71,2.27,1l-.2.27c-.79-.32-1.55-.66-2.28-1Z"/><path class="cls-3" d="M21.2,124.91a22.46,22.46,0,0,0,1.71,1.67l-.24.25c-.6-.53-1.18-1.09-1.72-1.67Z"/><path class="cls-3" d="M37.17,133c.89.15,1.8.26,2.74.34l-.16.29c-.94-.08-1.86-.2-2.75-.35Z"/><path class="cls-2" d="M123.86,74.88h.25l-.7,1.37h-.24Z"/><path class="cls-3" d="M14.1,108.17c.09.93.21,1.83.37,2.71l-.28.17c-.16-.88-.29-1.79-.38-2.72Z"/><path class="cls-3" d="M13.89,102.94c0,1,0,2,0,2.9l-.28.15c0-.95-.05-1.92,0-2.92Z"/><path class="cls-3" d="M14.35,97.39c-.14,1-.25,2.07-.33,3.07l-.28.13c.08-1,.18-2,.33-3.09Z"/><path class="cls-2" d="M81,121.14l0,.22c-1.11.69-2.24,1.36-3.37,2l0-.23C78.8,122.49,79.92,121.83,81,121.14Z"/><path class="cls-3" d="M42.26,133.51c1,0,1.93,0,2.93,0l-.13.28c-1,0-2,0-3,0Z"/><path class="cls-2" d="M113.74,91.12l.2.07c-.81,1.09-1.65,2.16-2.51,3.22l-.18-.09C112.1,93.26,112.93,92.19,113.74,91.12Z"/><path class="cls-2" d="M121.66,79l.23,0c-.63,1.13-1.29,2.25-2,3.36l-.23,0C120.38,81.27,121,80.15,121.66,79Z"/><path class="cls-2" d="M118,85.13l.22.05c-.73,1.11-1.48,2.22-2.26,3.31l-.2-.07C116.48,87.33,117.22,86.24,118,85.13Z"/><path class="cls-3" d="M47.69,133.34c1-.09,2-.22,3.09-.37l-.11.28c-1.05.16-2.08.28-3.1.37Z"/><path class="cls-2" d="M74.89,124.66v.24c-1.12.59-2.25,1.16-3.38,1.7v-.25C72.65,125.81,73.77,125.25,74.89,124.66Z"/><path class="cls-3" d="M16.06,88.33l.27-.07c-.06.22-.12.44-.19.66l-.27.06C15.93,88.76,16,88.55,16.06,88.33Z"/><path class="cls-3" d="M15.44,91.6c-.26,1.08-.48,2.15-.67,3.2l-.28.09c.19-1,.42-2.12.68-3.21Z"/><path class="cls-2" d="M80.89,44.21a30.56,30.56,0,0,1,7.27-1.08l-.14.28a30,30,0,0,0-7.2,1.08C64.05,49,46.81,66.23,42.38,82.93S48,109.56,64.77,105.07c13-3.48,26.25-14.6,33.64-27.2l.23,0C91.19,90.61,77.8,101.83,64.7,105.34,47.78,109.88,37.64,99.85,42.11,83S64,48.75,80.89,44.21Z"/><path class="cls-2" d="M56.2,65.18l1.24.73c-1,1.14-1.86,2.32-2.7,3.52L53.27,69C54.18,67.69,55.16,66.41,56.2,65.18Z"/><path class="cls-12" d="M51.69,71.42l1.59.25q-1.11,1.83-2,3.69l-1.75,0A44.26,44.26,0,0,1,51.69,71.42Z"/><path class="cls-7" d="M48.45,77.86l1.83-.23q-.56,1.4-1,2.79l-1.92.46C47.7,79.87,48.05,78.86,48.45,77.86Z"/><path class="cls-13" d="M48.77,82.61a25.74,25.74,0,0,0-.39,2.63l-2,.85a25.17,25.17,0,0,1,.42-2.85Z"/><path class="cls-8" d="M48.32,87.24a12.92,12.92,0,0,0,.1,1.67l-2,1.15a17.36,17.36,0,0,1-.12-1.8Z"/><path class="cls-9" d="M49.92,93.66c.14.24.28.47.43.7L48.52,96c-.16-.24-.32-.49-.46-.75Z"/><path class="cls-10" d="M53.21,97.19l.17.11-1.59,1.83L51.61,99Z"/><path class="cls-11" d="M54.84,98.08l.19.08-1.44,1.91-.21-.09Z"/><path class="cls-14" d="M48.75,90.7a11.65,11.65,0,0,0,.46,1.45l-1.93,1.41A14.41,14.41,0,0,1,46.79,92Z"/><path class="cls-15" d="M51.36,95.62a7.66,7.66,0,0,0,.57.57l-1.7,1.75c-.22-.2-.42-.4-.62-.61Z"/><path class="cls-3" d="M53.4,132.52q1.58-.32,3.21-.72l-.08.28c-1.09.27-2.17.51-3.23.72Z"/><path class="cls-2" d="M65.26,125.64c2.21-.6,3.53.71,2.95,2.91a7.88,7.88,0,0,1-5.06,5.06c-2.21.59-3.53-.71-2.95-2.91A7.88,7.88,0,0,1,65.26,125.64Zm-2,7.7a7.38,7.38,0,0,0,4.72-4.72c.54-2-.69-3.26-2.75-2.71a7.35,7.35,0,0,0-4.71,4.71c-.55,2,.68,3.27,2.74,2.72"/><path class="cls-2" d="M87.08,117.12l.07.2c-1.1.78-2.2,1.54-3.31,2.27l-.06-.21C84.89,118.65,86,117.89,87.08,117.12Z"/><path class="cls-2" d="M93,112.63l.1.18c-1.06.86-2.14,1.7-3.22,2.52l-.08-.19C90.85,114.32,91.91,113.49,93,112.63Z"/><path class="cls-2" d="M109.09,96.92l.17.11c-.89,1-1.8,2.07-2.73,3.08l-.17-.12C107.29,99,108.2,98,109.09,96.92Z"/><path class="cls-2" d="M98.64,107.74l.13.15c-1,.94-2,1.85-3.09,2.75l-.11-.18C96.61,109.57,97.63,108.66,98.64,107.74Z"/><path class="cls-2" d="M104,102.48l.15.13c-1,1-1.93,2-2.92,2.93l-.14-.14C102.11,104.44,103.08,103.47,104,102.48Z"/><path class="cls-5" d="M34.12,33.4l.52.62a60.63,60.63,0,0,0-4.24,4.4L29.71,38A63.57,63.57,0,0,1,34.12,33.4Z"/><path class="cls-5" d="M18.85,57.3,20,57l0,.09c-.16.62-.3,1.22-.42,1.82l-1.12.37c.13-.63.27-1.25.44-1.9Z"/><path class="cls-5" d="M19.33,67.62a15.35,15.35,0,0,0,.83,2.74l-1.09.82a15.76,15.76,0,0,1-.86-2.85Z"/><path class="cls-5" d="M21.55,72.88A11.32,11.32,0,0,0,22.47,74l-1,1a13.36,13.36,0,0,1-.94-1.17Z"/><path class="cls-5" d="M22.94,74.5a11.07,11.07,0,0,0,1.09,1l-.94,1a11.67,11.67,0,0,1-1.13-1Z"/><path class="cls-5" d="M24.59,75.85a11.45,11.45,0,0,0,1.27.75L25,77.67a13.3,13.3,0,0,1-1.31-.78Z"/><path class="cls-5" d="M28.63,77.68A15.6,15.6,0,0,0,30.2,78l-.69,1.12a16,16,0,0,1-1.62-.35Z"/><path class="cls-5" d="M55.29,20.92c15.92-4.26,25.44,5.16,21.25,21S56,74.14,40.07,78.4a28.15,28.15,0,0,1-7.11,1l.55-1.13a26.9,26.9,0,0,0,6.85-1c15.3-4.1,31-19.84,35.08-35.08S70.31,17.92,55,22a40.27,40.27,0,0,0-7.84,3.07l0-1A42.17,42.17,0,0,1,55.29,20.92Z"/><path class="cls-5" d="M43,26.49l.17.88a59,59,0,0,0-4.85,3.47L38,30.09A56,56,0,0,1,43,26.49Z"/><path class="cls-5" d="M26.57,41.89l.8.3a55.92,55.92,0,0,0-3.22,4.91l-.93-.1A56.74,56.74,0,0,1,26.57,41.89Z"/><path class="cls-5" d="M21.08,51.15l1-.06c-.3.67-.58,1.33-.84,2l-1.05.14C20.47,52.53,20.77,51.84,21.08,51.15Z"/><path class="cls-5" d="M19,62.6c0,.6-.05,1.18,0,1.75l-1.13.58c0-.59,0-1.2,0-1.82Z"/><path class="cls-5" d="M20.45,71c.22.45.46.88.72,1.3l-1.05.89a11.51,11.51,0,0,1-.74-1.34Z"/><path class="cls-5" d="M26.49,76.91a13.68,13.68,0,0,0,1.43.56l-.78,1.1A14.61,14.61,0,0,1,25.66,78Z"/><path class="cls-5" d="M31,78.14c.55.07,1.12.11,1.7.13l-.6,1.14c-.6,0-1.18-.07-1.76-.14Z"/><path class="cls-5" d="M47,24.27c8.83-2.36,14.77,1.47,15.11,8.81l-.54.23c-.37-7.11-6.15-10.8-14.71-8.51S29.57,34.69,25.09,43.09l-.5,0C29.18,34.48,38.21,26.64,47,24.27Z"/><path class="cls-5" d="M58.6,44.62l.5,0C54.51,53.21,45.49,61,36.67,63.4S21.92,62,21.56,54.63l.55-.23c.38,7.08,6.15,10.76,14.71,8.47S54.12,53,58.6,44.62Z"/><path class="cls-6" d="M32.48,6.39c11.27-3,18.38,2.84,17,13.26l-6.32,1.7L48.76,19c.78-9.45-6-14.65-16.49-11.84S11,19.9,6.52,30.33l5.12-.54-6.32,1.7C9.67,20.27,21.22,9.41,32.48,6.39Z"/><path class="cls-6" d="M47.88,25.68C43.53,36.9,32,47.76,20.72,50.78s-18.37-2.85-17-13.27l6.32-1.69-5.6,2.33c-.78,9.44,6,14.65,16.48,11.83S42.2,37.27,46.69,26.83l-5.12.54Z"/><path class="cls-6" d="M18,2.51c3.31-.88,6.05-.54,7.92.76l-.45.12L8.87,7.84,8.43,8A24.41,24.41,0,0,1,18,2.51Z"/><path class="cls-6" d="M20.25,24.68a24.26,24.26,0,0,1-9.57,5.44c-3.31.89-6,.54-7.92-.75l.45-.12L19.8,24.8Z"/><path class="cls-6" d="M8.13,8.5A25.26,25.26,0,0,0,.75,20c-1.08,4.07-.23,7.23,2,9L2.31,29C.19,27.24-.59,24.07.48,20A25.47,25.47,0,0,1,7.72,8.61Z"/><path class="cls-6" d="M26.37,3.61c2.11,1.79,2.9,5,1.83,9A25.5,25.5,0,0,1,21,24l-.42.12a25.28,25.28,0,0,0,7.39-11.46c1.07-4.07.23-7.24-2-8.95Z"/></g></g></svg>