<svg xmlns="http://www.w3.org/2000/svg" viewBox="0 0 95.02 84.59"><defs><style>.cls-1{fill:#04cbf5;}.cls-2{fill:#00cbf5;opacity:0.4;}</style></defs><title>资源 1</title><g id="图层_2" data-name="图层 2"><g id="Layer_1" data-name="Layer 1"><polygon class="cls-1" points="19.41 42.3 19.17 42.06 18.39 42.06 16.73 40.39 15.34 40.39 17.25 42.3 15.34 44.2 16.73 44.2 18.39 42.54 19.17 42.54 19.41 42.3"/><polygon class="cls-1" points="78.06 42.3 78.3 42.54 79.07 42.54 80.74 44.2 82.12 44.2 80.22 42.3 82.12 40.39 80.74 40.39 79.07 42.06 78.3 42.06 78.06 42.3"/><polygon class="cls-1" points="18.8 41.58 18.42 41.95 18.05 41.58 18.8 41.58"/><polygon class="cls-1" points="78.67 43.01 79.05 42.64 79.42 43.01 78.67 43.01"/><polygon class="cls-1" points="78.67 41.58 79.05 41.95 79.42 41.58 78.67 41.58"/><polygon class="cls-1" points="18.8 43.01 18.42 42.64 18.05 43.01 18.8 43.01"/><polygon class="cls-1" points="18.24 40.37 17.54 41.07 16.83 40.37 18.24 40.37"/><polygon class="cls-1" points="79.23 44.23 79.93 43.52 80.64 44.23 79.23 44.23"/><polygon class="cls-1" points="79.23 40.37 79.93 41.07 80.64 40.37 79.23 40.37"/><polygon class="cls-1" points="18.24 44.23 17.54 43.52 16.83 44.23 18.24 44.23"/><polygon class="cls-1" points="16.85 42.3 16.07 41.52 16.07 41.7 16.66 42.3 16.07 42.9 16.07 43.08 16.85 42.3"/><polygon class="cls-1" points="80.62 42.3 81.4 43.08 81.4 42.9 80.8 42.3 81.4 41.7 81.4 41.52 80.62 42.3"/><polygon class="cls-1" points="15.99 42.3 15.36 41.66 15.36 41.74 15.92 42.3 15.36 42.86 15.36 42.93 15.99 42.3"/><polygon class="cls-1" points="81.48 42.3 82.11 42.93 82.11 42.86 81.55 42.3 82.11 41.74 82.11 41.66 81.48 42.3"/><polygon class="cls-1" points="16.1 41.9 16.41 42.21 16.39 42.23 16.05 41.9 16.1 41.9"/><polygon class="cls-1" points="81.37 42.7 81.06 42.38 81.08 42.36 81.42 42.7 81.37 42.7"/><polygon class="cls-1" points="81.37 41.9 81.06 42.21 81.08 42.23 81.42 41.9 81.37 41.9"/><polygon class="cls-1" points="16.1 42.7 16.41 42.38 16.39 42.36 16.05 42.7 16.1 42.7"/><polygon class="cls-1" points="16.41 42.21 16.58 42.21 16.6 42.23 16.39 42.23 16.41 42.21"/><polygon class="cls-1" points="81.06 42.38 80.89 42.38 80.86 42.36 81.08 42.36 81.06 42.38"/><polygon class="cls-1" points="81.06 42.21 80.89 42.21 80.86 42.23 81.08 42.23 81.06 42.21"/><polygon class="cls-1" points="16.41 42.38 16.58 42.38 16.6 42.36 16.39 42.36 16.41 42.38"/><polygon class="cls-1" points="30.05 39.75 29.63 40.18 29.63 44.41 30.05 44.84 30.05 39.75"/><polygon class="cls-1" points="67.41 44.84 67.84 44.41 67.84 40.18 67.41 39.75 67.41 44.84"/><polygon class="cls-1" points="30.44 41.24 30.24 41.43 30.24 43.17 30.44 43.36 30.44 41.24"/><polygon class="cls-1" points="67.03 43.36 67.22 43.17 67.22 41.43 67.03 41.24 67.03 43.36"/><polygon class="cls-1" points="29.28 41.2 29.48 41.39 29.48 43.2 29.28 43.39 29.28 41.2"/><polygon class="cls-1" points="68.19 43.39 67.99 43.2 67.99 41.39 68.19 41.2 68.19 43.39"/><polygon class="cls-1" points="20.04 42.3 18.78 41.03 19.36 41.03 20.63 42.3 19.36 43.56 18.78 43.56 20.04 42.3"/><polygon class="cls-1" points="77.42 42.3 78.69 43.56 78.11 43.56 76.84 42.3 78.11 41.03 78.69 41.03 77.42 42.3"/><polygon class="cls-1" points="17.51 40.86 18.29 41.64 18.11 41.64 17.33 40.86 17.51 40.86"/><polygon class="cls-1" points="79.95 43.73 79.18 42.95 79.36 42.95 80.14 43.73 79.95 43.73"/><polygon class="cls-1" points="79.95 40.86 79.18 41.64 79.36 41.64 80.14 40.86 79.95 40.86"/><polygon class="cls-1" points="17.51 43.73 18.29 42.95 18.11 42.95 17.33 43.73 17.51 43.73"/><polygon class="cls-1" points="17.53 33 17.53 31.93 44.1 5.36 44.1 7.43 41.11 10.42 41.11 10.97 17.31 34.77 16.75 34.77 15.55 35.97 14.56 35.97 17.53 33"/><polygon class="cls-1" points="79.94 51.6 79.94 52.66 53.36 79.23 53.37 77.17 56.36 74.17 56.36 73.63 80.16 49.83 80.71 49.83 81.91 48.63 82.91 48.63 79.94 51.6"/><polygon class="cls-1" points="79.94 33 79.94 31.93 53.36 5.36 53.37 7.43 56.36 10.42 56.36 10.97 80.16 34.77 80.71 34.77 81.91 35.97 82.91 35.97 79.94 33"/><polygon class="cls-1" points="17.53 51.6 17.53 52.66 44.1 79.23 44.1 77.17 41.11 74.17 41.11 73.63 17.31 49.83 16.75 49.83 15.55 48.63 14.56 48.63 17.53 51.6"/><polygon class="cls-1" points="27.37 25.94 30.73 25.94 30.72 22.59 27.37 25.94"/><polygon class="cls-1" points="70.1 58.65 66.74 58.65 66.74 62.01 70.1 58.65"/><polygon class="cls-1" points="70.1 25.94 66.74 25.94 66.74 22.59 70.1 25.94"/><polygon class="cls-1" points="27.37 58.65 30.73 58.65 30.72 62.01 27.37 58.65"/><polygon class="cls-1" points="42.62 9.72 42.13 10.21 42.62 10.7 42.62 9.72"/><polygon class="cls-1" points="54.84 74.88 55.34 74.38 54.84 73.89 54.84 74.88"/><polygon class="cls-1" points="54.84 9.72 55.34 10.21 54.84 10.7 54.84 9.72"/><polygon class="cls-1" points="42.62 74.88 42.13 74.38 42.62 73.89 42.62 74.88"/><polygon class="cls-1" points="17.39 29.83 18.57 29.82 18.57 28.64 17.39 29.83"/><polygon class="cls-1" points="80.07 54.77 78.89 54.77 78.89 55.95 80.07 54.77"/><polygon class="cls-1" points="80.07 29.83 78.89 29.82 78.89 28.64 80.07 29.83"/><polygon class="cls-1" points="17.39 54.77 18.57 54.77 18.57 55.95 17.39 54.77"/><polygon class="cls-1" points="17.04 35.11 16.77 34.84 16.5 35.11 17.04 35.11"/><polygon class="cls-1" points="80.42 49.48 80.69 49.75 80.96 49.48 80.42 49.48"/><polygon class="cls-1" points="80.42 35.11 80.69 34.84 80.96 35.11 80.42 35.11"/><polygon class="cls-1" points="17.04 49.48 16.77 49.75 16.5 49.48 17.04 49.48"/><polygon class="cls-1" points="16.64 35.98 16.14 35.48 15.63 35.98 16.64 35.98"/><polygon class="cls-1" points="80.82 48.61 81.33 49.12 81.84 48.61 80.82 48.61"/><polygon class="cls-1" points="80.82 35.98 81.33 35.48 81.84 35.98 80.82 35.98"/><polygon class="cls-1" points="16.64 48.61 16.14 49.12 15.63 48.61 16.64 48.61"/><polygon class="cls-1" points="24.68 30 24.13 29.46 23.59 30 24.68 30"/><polygon class="cls-1" points="72.79 54.59 73.34 55.14 73.88 54.59 72.79 54.59"/><polygon class="cls-1" points="72.79 30 73.34 29.46 73.88 30 72.79 30"/><polygon class="cls-1" points="24.68 54.59 24.13 55.14 23.59 54.59 24.68 54.59"/><polygon class="cls-1" points="24.75 29.38 24.48 29.11 24.21 29.38 24.75 29.38"/><polygon class="cls-1" points="72.72 55.21 72.99 55.48 73.26 55.21 72.72 55.21"/><polygon class="cls-1" points="72.72 29.38 72.99 29.11 73.26 29.38 72.72 29.38"/><polygon class="cls-1" points="24.75 55.21 24.48 55.48 24.21 55.21 24.75 55.21"/><polygon class="cls-1" points="25.05 29.08 24.78 28.81 24.5 29.08 25.05 29.08"/><polygon class="cls-1" points="72.42 55.51 72.69 55.78 72.96 55.51 72.42 55.51"/><polygon class="cls-1" points="72.42 29.08 72.69 28.81 72.96 29.08 72.42 29.08"/><polygon class="cls-1" points="25.05 55.51 24.78 55.78 24.5 55.51 25.05 55.51"/><polygon class="cls-1" points="26.63 30.97 29.93 34.28 29.94 34.85 26.05 30.97 26.63 30.97"/><polygon class="cls-1" points="70.84 53.62 67.53 50.31 67.53 49.74 71.41 53.63 70.84 53.62"/><polygon class="cls-1" points="70.84 30.97 67.53 34.28 67.53 34.85 71.41 30.97 70.84 30.97"/><polygon class="cls-1" points="26.63 53.62 29.93 50.31 29.94 49.74 26.05 53.63 26.63 53.62"/><polygon class="cls-1" points="40.41 12.5 23.66 29.25 23.09 29.25 40.41 11.93 40.41 12.5"/><polygon class="cls-1" points="57.05 72.1 73.81 55.34 74.38 55.34 57.05 72.67 57.05 72.1"/><polygon class="cls-1" points="57.05 12.5 73.81 29.25 74.38 29.25 57.05 11.93 57.05 12.5"/><polygon class="cls-1" points="40.41 72.1 23.66 55.34 23.09 55.34 40.41 72.67 40.41 72.1"/><polygon class="cls-1" points="35.52 18.15 29.13 24.54 28.77 24.54 35.52 17.79 35.52 18.15"/><polygon class="cls-1" points="61.95 66.44 68.34 60.05 68.7 60.05 61.95 66.8 61.95 66.44"/><polygon class="cls-1" points="61.95 18.15 68.34 24.54 68.7 24.54 61.95 17.79 61.95 18.15"/><polygon class="cls-1" points="35.52 66.44 29.13 60.05 28.77 60.05 35.52 66.8 35.52 66.44"/><polygon class="cls-1" points="41.33 10.47 46.45 5.34 46.74 5.34 41.33 10.75 41.33 10.47"/><polygon class="cls-1" points="56.14 74.13 51.02 79.25 50.73 79.25 56.14 73.84 56.14 74.13"/><polygon class="cls-1" points="56.14 10.47 51.02 5.34 50.73 5.34 56.14 10.75 56.14 10.47"/><polygon class="cls-1" points="41.33 74.13 46.45 79.25 46.74 79.25 41.33 73.84 41.33 74.13"/><path class="cls-1" d="M32.51,22.67V21.41l-.29.29V23Zm.64-.64V20.77l-.29.29v1.26Zm-1.91,1.91V22.68l-.3.3v1.26Zm.64-.64V22l-.29.3V23.6Zm3.18-4.45-.29.3v1.26l.3-.3Zm-1.27,2.54V20.13l-.29.29v1.26Zm.64-.64V19.49l-.3.3v1.26Z"/><path class="cls-1" d="M65,61.93v1.26l.29-.3V61.63Zm-.63.64v1.26l.29-.3V62.27Zm1.91-1.92v1.26l.3-.29V60.36Zm-.64.64v1.26l.3-.3V61ZM62.4,65.74l.3-.29V64.19l-.29.29Zm1.28-2.54v1.26l.29-.29V62.91Zm-.64.64V65.1l.29-.29V63.55Z"/><path class="cls-1" d="M65,22.67V21.41l.29.29V23ZM64.32,22V20.77l.29.29v1.26Zm1.91,1.91V22.68l.3.3v1.26Zm-.64-.64V22l.3.3V23.6ZM62.4,18.85l.3.3v1.26l-.29-.3Zm1.28,2.54V20.13l.29.29v1.26ZM63,20.75V19.49l.29.3v1.26Z"/><path class="cls-1" d="M32.51,61.93v1.26l-.29-.3V61.63Zm.64.64v1.26l-.29-.3V62.27Zm-1.91-1.92v1.26l-.3-.29V60.36Zm.64.64v1.26l-.29-.3V61Zm3.18,4.45-.29-.29V64.19l.3.29ZM33.79,63.2v1.26l-.29-.29V62.91Zm.64.64V65.1l-.3-.29V63.55Z"/><polygon class="cls-1" points="35.22 26.58 27.55 26.57 27.14 26.17 35.63 26.17 35.22 26.58"/><polygon class="cls-1" points="62.24 58.02 69.92 58.02 70.33 58.42 61.84 58.42 62.24 58.02"/><polygon class="cls-1" points="62.24 26.58 69.92 26.57 70.33 26.17 61.84 26.17 62.24 26.58"/><polygon class="cls-1" points="35.22 58.02 27.55 58.02 27.14 58.42 35.63 58.42 35.22 58.02"/><polygon class="cls-1" points="32.26 26.92 28.35 26.92 28.14 26.72 32.47 26.72 32.26 26.92"/><polygon class="cls-1" points="65.2 57.67 69.12 57.67 69.32 57.88 65 57.88 65.2 57.67"/><polygon class="cls-1" points="65.2 26.92 69.12 26.92 69.32 26.72 65 26.72 65.2 26.92"/><polygon class="cls-1" points="32.26 57.67 28.35 57.67 28.14 57.88 32.47 57.88 32.26 57.67"/><polygon class="cls-1" points="26.08 34.22 25.35 34.22 25.27 34.04 26.26 34.04 26.08 34.22"/><polygon class="cls-1" points="71.39 50.38 72.12 50.38 72.19 50.55 71.21 50.55 71.39 50.38"/><polygon class="cls-1" points="71.39 34.22 72.12 34.22 72.19 34.04 71.21 34.04 71.39 34.22"/><polygon class="cls-1" points="26.08 50.38 25.35 50.38 25.27 50.55 26.26 50.55 26.08 50.38"/><polygon class="cls-1" points="30.09 17.23 33.45 17.23 33.45 13.88 30.09 17.23"/><polygon class="cls-1" points="67.38 67.36 64.02 67.36 64.02 70.71 67.38 67.36"/><polygon class="cls-1" points="67.38 17.23 64.02 17.23 64.02 13.88 67.38 17.23"/><polygon class="cls-1" points="30.09 67.36 33.45 67.36 33.45 70.71 30.09 67.36"/><polygon class="cls-1" points="38.41 11.6 33.26 16.75 32.16 16.75 38.41 10.5 38.41 11.6"/><polygon class="cls-1" points="59.06 73 64.21 67.84 65.3 67.84 59.06 74.09 59.06 73"/><polygon class="cls-1" points="59.06 11.6 64.21 16.75 65.3 16.75 59.06 10.5 59.06 11.6"/><polygon class="cls-1" points="38.41 73 33.26 67.84 32.16 67.84 38.41 74.09 38.41 73"/><polygon class="cls-1" points="23.89 33.97 23.54 33.62 18.73 33.62 18.38 33.97 16.98 33.97 21.96 28.99 26.94 33.97 23.89 33.97"/><polygon class="cls-1" points="73.57 50.63 73.92 50.98 78.74 50.98 79.09 50.63 80.48 50.63 75.51 55.61 70.53 50.63 73.57 50.63"/><polygon class="cls-1" points="73.57 33.97 73.92 33.62 78.74 33.62 79.09 33.97 80.48 33.97 75.51 28.99 70.53 33.97 73.57 33.97"/><polygon class="cls-1" points="23.89 50.63 23.54 50.98 18.73 50.98 18.38 50.63 16.98 50.63 21.96 55.61 26.94 50.63 23.89 50.63"/><polygon class="cls-1" points="31.2 37.16 27.97 33.93 27.52 33.93 23.83 30.25 24.92 30.25 31.2 36.52 31.2 37.16"/><polygon class="cls-1" points="66.27 47.43 69.49 50.66 69.95 50.66 73.64 54.35 72.55 54.35 66.27 48.07 66.27 47.43"/><polygon class="cls-1" points="66.27 37.16 69.49 33.93 69.95 33.93 73.64 30.25 72.55 30.25 66.27 36.52 66.27 37.16"/><polygon class="cls-1" points="31.2 47.43 27.97 50.66 27.52 50.66 23.83 54.35 24.92 54.35 31.2 48.07 31.2 47.43"/><polygon class="cls-1" points="48.73 2.17 42.06 8.85 39.89 8.85 48.73 0 57.58 8.85 55.4 8.85 48.73 2.17"/><polygon class="cls-1" points="48.73 82.42 55.4 75.75 57.58 75.75 48.73 84.59 39.89 75.75 42.06 75.75 48.73 82.42"/><polygon class="cls-1" points="15.52 33.15 21.54 27.14 21.97 27.14 15.52 33.59 15.52 33.15"/><polygon class="cls-1" points="81.95 51.44 75.93 57.46 75.5 57.46 81.95 51.01 81.95 51.44"/><polygon class="cls-1" points="81.95 33.15 75.93 27.14 75.5 27.14 81.95 33.59 81.95 33.15"/><polygon class="cls-1" points="15.52 51.44 21.54 57.46 21.97 57.46 15.52 51.01 15.52 51.44"/><polygon class="cls-1" points="18.72 28.96 20.45 27.24 20.66 27.24 18.72 29.17 18.72 28.96"/><polygon class="cls-1" points="78.75 55.63 77.02 57.36 76.81 57.36 78.75 55.42 78.75 55.63"/><polygon class="cls-1" points="78.75 28.96 77.02 27.24 76.81 27.24 78.75 29.17 78.75 28.96"/><polygon class="cls-1" points="18.72 55.63 20.45 57.36 20.66 57.36 18.72 55.42 18.72 55.63"/><polygon class="cls-1" points="24.22 24.78 28.86 20.14 29.42 20.14 24.22 25.34 24.22 24.78"/><polygon class="cls-1" points="73.25 59.81 68.6 64.45 68.05 64.45 73.25 59.26 73.25 59.81"/><polygon class="cls-1" points="73.25 24.78 68.6 20.14 68.05 20.14 73.25 25.34 73.25 24.78"/><polygon class="cls-1" points="24.22 59.81 28.86 64.45 29.42 64.45 24.22 59.26 24.22 59.81"/><polygon class="cls-1" points="26.35 22.16 29.23 19.28 29.07 19.66 26.35 22.38 26.35 22.16"/><polygon class="cls-1" points="71.12 62.44 68.24 65.31 68.4 64.94 71.12 62.22 71.12 62.44"/><polygon class="cls-1" points="71.12 22.16 68.24 19.28 68.4 19.66 71.12 22.38 71.12 22.16"/><polygon class="cls-1" points="26.35 62.44 29.23 65.31 29.07 64.94 26.35 62.22 26.35 62.44"/><polygon class="cls-1" points="29.36 19.59 32.24 16.72 32.08 17.09 29.36 19.81 29.36 19.59"/><polygon class="cls-1" points="68.11 65 65.23 67.88 65.39 67.5 68.11 64.78 68.11 65"/><polygon class="cls-1" points="68.11 19.59 65.23 16.72 65.39 17.09 68.11 19.81 68.11 19.59"/><polygon class="cls-1" points="29.36 65 32.24 67.88 32.08 67.5 29.36 64.78 29.36 65"/><polygon class="cls-1" points="16.54 30.79 17.65 29.68 17.79 29.68 16.54 30.93 16.54 30.79"/><polygon class="cls-1" points="80.93 53.8 79.81 54.92 79.68 54.92 80.93 53.67 80.93 53.8"/><polygon class="cls-1" points="80.93 30.79 79.81 29.68 79.68 29.68 80.93 30.93 80.93 30.79"/><polygon class="cls-1" points="16.54 53.8 17.65 54.92 17.79 54.92 16.54 53.67 16.54 53.8"/><polygon class="cls-1" points="16.29 33.34 17.2 32.42 17.29 32.52 16.29 33.52 16.29 33.34"/><polygon class="cls-1" points="81.18 51.26 80.27 52.17 80.17 52.08 81.18 51.07 81.18 51.26"/><polygon class="cls-1" points="81.18 33.34 80.27 32.42 80.17 32.52 81.18 33.52 81.18 33.34"/><polygon class="cls-1" points="16.29 51.26 17.2 52.17 17.29 52.08 16.29 51.07 16.29 51.26"/><polygon class="cls-1" points="15.08 35.03 16.75 33.36 16.82 33.42 15.08 35.16 15.08 35.03"/><polygon class="cls-1" points="82.39 49.57 80.72 51.24 80.65 51.17 82.39 49.44 82.39 49.57"/><polygon class="cls-1" points="82.39 35.03 80.72 33.36 80.65 33.42 82.39 35.16 82.39 35.03"/><polygon class="cls-1" points="15.08 49.57 16.75 51.24 16.82 51.17 15.08 49.44 15.08 49.57"/><polygon class="cls-1" points="17.2 32.42 17.2 31.77 17.29 31.68 17.29 32.52 17.2 32.42"/><polygon class="cls-1" points="80.27 52.17 80.27 52.82 80.17 52.91 80.17 52.08 80.27 52.17"/><polygon class="cls-1" points="80.27 32.42 80.27 31.77 80.17 31.68 80.17 32.52 80.27 32.42"/><polygon class="cls-1" points="17.2 52.17 17.2 52.82 17.29 52.91 17.29 52.08 17.2 52.17"/><polygon class="cls-1" points="16.75 33.36 16.75 32.91 16.82 32.84 16.82 33.42 16.75 33.36"/><polygon class="cls-1" points="80.72 51.24 80.72 51.69 80.65 51.75 80.65 51.17 80.72 51.24"/><polygon class="cls-1" points="80.72 33.36 80.72 32.91 80.65 32.84 80.65 33.42 80.72 33.36"/><polygon class="cls-1" points="16.75 51.24 16.75 51.69 16.82 51.75 16.82 51.17 16.75 51.24"/><polygon class="cls-1" points="14.57 35 16.02 33.55 16.04 33.58 14.57 35.05 14.57 35"/><polygon class="cls-1" points="82.9 49.6 81.45 51.04 81.42 51.02 82.9 49.54 82.9 49.6"/><polygon class="cls-1" points="82.9 35 81.45 33.55 81.42 33.58 82.9 35.05 82.9 35"/><polygon class="cls-1" points="14.57 49.6 16.02 51.04 16.04 51.02 14.57 49.54 14.57 49.6"/><polygon class="cls-1" points="16.02 33.55 16.02 33.37 16.04 33.34 16.04 33.58 16.02 33.55"/><polygon class="cls-1" points="81.45 51.04 81.45 51.22 81.42 51.25 81.42 51.02 81.45 51.04"/><polygon class="cls-1" points="81.45 33.55 81.45 33.37 81.42 33.34 81.42 33.58 81.45 33.55"/><polygon class="cls-1" points="16.02 51.04 16.02 51.22 16.04 51.25 16.04 51.02 16.02 51.04"/><polygon class="cls-1" points="15.38 34.42 15.75 34.05 15.72 34.03 15.32 34.42 15.38 34.42"/><polygon class="cls-1" points="82.09 50.17 81.72 50.54 81.75 50.57 82.14 50.17 82.09 50.17"/><polygon class="cls-1" points="82.09 34.42 81.72 34.05 81.75 34.03 82.14 34.42 82.09 34.42"/><polygon class="cls-1" points="15.38 50.17 15.75 50.54 15.72 50.57 15.32 50.17 15.38 50.17"/><polygon class="cls-1" points="15.75 34.05 16.1 34.05 16.13 34.03 15.72 34.03 15.75 34.05"/><polygon class="cls-1" points="81.72 50.54 81.37 50.54 81.34 50.57 81.75 50.57 81.72 50.54"/><polygon class="cls-1" points="81.72 34.05 81.37 34.05 81.34 34.03 81.75 34.03 81.72 34.05"/><polygon class="cls-1" points="15.75 50.54 16.1 50.54 16.13 50.57 15.72 50.57 15.75 50.54"/><polygon class="cls-1" points="15.1 34.88 15.33 34.66 15.31 34.64 15.07 34.88 15.1 34.88"/><polygon class="cls-1" points="82.37 49.71 82.14 49.94 82.16 49.95 82.4 49.71 82.37 49.71"/><polygon class="cls-1" points="82.37 34.88 82.14 34.66 82.16 34.64 82.4 34.88 82.37 34.88"/><polygon class="cls-1" points="15.1 49.71 15.33 49.94 15.31 49.95 15.07 49.71 15.1 49.71"/><polygon class="cls-1" points="15.33 34.66 15.45 34.66 15.47 34.64 15.31 34.64 15.33 34.66"/><polygon class="cls-1" points="82.14 49.94 82.02 49.94 82 49.95 82.16 49.95 82.14 49.94"/><polygon class="cls-1" points="82.14 34.66 82.02 34.66 82 34.64 82.16 34.64 82.14 34.66"/><polygon class="cls-1" points="15.33 49.94 15.45 49.94 15.47 49.95 15.31 49.95 15.33 49.94"/><polygon class="cls-1" points="15.45 33.96 16.63 32.78 16.58 32.74 15.36 33.96 15.45 33.96"/><polygon class="cls-1" points="82.02 50.63 80.84 51.81 80.89 51.86 82.11 50.63 82.02 50.63"/><polygon class="cls-1" points="82.02 33.96 80.84 32.78 80.89 32.74 82.11 33.96 82.02 33.96"/><polygon class="cls-1" points="15.45 50.63 16.63 51.81 16.58 51.86 15.36 50.63 15.45 50.63"/><polygon class="cls-1" points="16.63 32.78 16.93 32.78 16.98 32.74 16.58 32.74 16.63 32.78"/><polygon class="cls-1" points="80.84 51.81 80.53 51.81 80.49 51.86 80.89 51.86 80.84 51.81"/><polygon class="cls-1" points="80.84 32.78 80.53 32.78 80.49 32.74 80.89 32.74 80.84 32.78"/><polygon class="cls-1" points="16.63 51.81 16.93 51.81 16.98 51.86 16.58 51.86 16.63 51.81"/><polygon class="cls-1" points="18.72 30.08 18.72 28.96 18.87 28.81 18.88 30.23 18.72 30.08"/><polygon class="cls-1" points="78.74 54.51 78.75 55.63 78.59 55.78 78.59 54.36 78.74 54.51"/><polygon class="cls-1" points="78.74 30.08 78.75 28.96 78.59 28.81 78.59 30.23 78.74 30.08"/><polygon class="cls-1" points="18.72 54.51 18.72 55.63 18.87 55.78 18.88 54.36 18.72 54.51"/><polygon class="cls-1" points="19.04 29.76 19.04 28.65 19.19 28.49 19.19 29.91 19.04 29.76"/><polygon class="cls-1" points="78.43 54.83 78.43 55.95 78.27 56.1 78.27 54.68 78.43 54.83"/><polygon class="cls-1" points="78.43 29.76 78.43 28.65 78.27 28.49 78.27 29.91 78.43 29.76"/><polygon class="cls-1" points="19.04 54.83 19.04 55.95 19.19 56.1 19.19 54.68 19.04 54.83"/><polygon class="cls-1" points="19.36 29.44 19.36 28.33 19.51 28.17 19.51 29.59 19.36 29.44"/><polygon class="cls-1" points="78.11 55.15 78.11 56.27 77.95 56.42 77.95 55 78.11 55.15"/><polygon class="cls-1" points="78.11 29.44 78.11 28.33 77.95 28.17 77.95 29.59 78.11 29.44"/><polygon class="cls-1" points="19.36 55.15 19.36 56.27 19.51 56.42 19.51 55 19.36 55.15"/><polygon class="cls-1" points="19.68 29.12 19.68 28.01 19.83 27.85 19.83 29.28 19.68 29.12"/><polygon class="cls-1" points="77.79 55.47 77.79 56.59 77.64 56.74 77.64 55.32 77.79 55.47"/><polygon class="cls-1" points="77.79 29.12 77.79 28.01 77.64 27.85 77.64 29.28 77.79 29.12"/><polygon class="cls-1" points="19.68 55.47 19.68 56.59 19.83 56.74 19.83 55.32 19.68 55.47"/><polygon class="cls-1" points="20 28.8 20 27.69 20.15 27.54 20.15 28.96 20 28.8"/><polygon class="cls-1" points="77.47 55.79 77.47 56.91 77.32 57.06 77.32 55.64 77.47 55.79"/><polygon class="cls-1" points="77.47 28.8 77.47 27.69 77.32 27.54 77.32 28.96 77.47 28.8"/><polygon class="cls-1" points="20 55.79 20 56.91 20.15 57.06 20.15 55.64 20 55.79"/><polygon class="cls-1" points="42.87 10.29 42.87 9.63 43.03 9.47 43.03 10.14 42.87 10.29"/><polygon class="cls-1" points="54.6 74.3 54.59 74.97 54.44 75.12 54.44 74.45 54.6 74.3"/><polygon class="cls-1" points="54.6 10.29 54.59 9.63 54.44 9.47 54.44 10.14 54.6 10.29"/><polygon class="cls-1" points="42.87 74.3 42.87 74.97 43.03 75.12 43.03 74.45 42.87 74.3"/><polygon class="cls-1" points="43.27 9.9 43.27 9.23 43.42 9.07 43.42 9.74 43.27 9.9"/><polygon class="cls-1" points="54.2 74.7 54.2 75.36 54.04 75.52 54.04 74.85 54.2 74.7"/><polygon class="cls-1" points="54.2 9.9 54.2 9.23 54.04 9.07 54.04 9.74 54.2 9.9"/><polygon class="cls-1" points="43.27 74.7 43.27 75.36 43.42 75.52 43.42 74.85 43.27 74.7"/><polygon class="cls-1" points="29.23 19.28 29.9 19.28 29.36 19.81 28.7 19.81 29.23 19.28"/><polygon class="cls-1" points="68.24 65.31 67.57 65.31 68.11 64.78 68.77 64.78 68.24 65.31"/><polygon class="cls-1" points="68.24 19.28 67.57 19.28 68.11 19.81 68.77 19.81 68.24 19.28"/><polygon class="cls-1" points="29.23 65.31 29.9 65.31 29.36 64.78 28.7 64.78 29.23 65.31"/><polygon class="cls-1" points="43.67 9.5 43.67 8.83 43.82 8.68 43.82 9.34 43.67 9.5"/><polygon class="cls-1" points="53.8 75.09 53.8 75.76 53.64 75.92 53.65 75.25 53.8 75.09"/><polygon class="cls-1" points="53.8 9.5 53.8 8.83 53.64 8.68 53.65 9.34 53.8 9.5"/><polygon class="cls-1" points="43.67 75.09 43.67 75.76 43.82 75.92 43.82 75.25 43.67 75.09"/><polygon class="cls-1" points="44.06 9.1 44.06 8.44 44.22 8.28 44.22 8.95 44.06 9.1"/><polygon class="cls-1" points="53.4 75.49 53.4 76.16 53.25 76.31 53.25 75.64 53.4 75.49"/><polygon class="cls-1" points="53.4 9.1 53.4 8.44 53.25 8.28 53.25 8.95 53.4 9.1"/><polygon class="cls-1" points="44.06 75.49 44.06 76.16 44.22 76.31 44.22 75.64 44.06 75.49"/><polygon class="cls-1" points="44.46 8.71 44.46 8.04 44.62 7.88 44.62 8.55 44.46 8.71"/><polygon class="cls-1" points="53.01 75.89 53.01 76.56 52.85 76.71 52.85 76.04 53.01 75.89"/><polygon class="cls-1" points="53.01 8.71 53.01 8.04 52.85 7.88 52.85 8.55 53.01 8.71"/><polygon class="cls-1" points="44.46 75.89 44.46 76.56 44.62 76.71 44.62 76.04 44.46 75.89"/><polygon class="cls-1" points="44.86 8.31 44.86 7.64 45.02 7.49 45.02 8.15 44.86 8.31"/><polygon class="cls-1" points="52.61 76.29 52.61 76.95 52.45 77.11 52.45 76.44 52.61 76.29"/><polygon class="cls-1" points="52.61 8.31 52.61 7.64 52.45 7.49 52.45 8.15 52.61 8.31"/><polygon class="cls-1" points="44.86 76.29 44.86 76.95 45.02 77.11 45.02 76.44 44.86 76.29"/><polygon class="cls-1" points="31.5 35.81 31.01 35.31 31.06 35.26 31.55 35.75 31.5 35.81"/><rect class="cls-1" x="66.15" y="48.71" width="0.08" height="0.7" transform="translate(-15.33 61.01) rotate(-44.89)"/><polygon class="cls-1" points="65.97 35.81 66.46 35.31 66.41 35.26 65.91 35.75 65.97 35.81"/><polygon class="cls-1" points="31.5 48.79 31.01 49.28 31.06 49.34 31.55 48.84 31.5 48.79"/><polygon class="cls-1" points="30.86 25.94 30.86 25.73 31.08 25.73 31.08 25.94 30.86 25.94"/><rect class="cls-1" x="66.39" y="58.65" width="0.22" height="0.22" transform="translate(-0.27 0.31) rotate(-0.26)"/><rect class="cls-1" x="66.39" y="25.73" width="0.22" height="0.22" transform="translate(40.36 92.21) rotate(-89.74)"/><polygon class="cls-1" points="30.86 58.65 30.86 58.87 31.08 58.87 31.08 58.65 30.86 58.65"/><rect class="cls-1" x="31.3" y="25.73" width="0.22" height="0.22"/><rect class="cls-1" x="65.96" y="58.65" width="0.22" height="0.22"/><rect class="cls-1" x="65.96" y="25.73" width="0.22" height="0.22"/><rect class="cls-1" x="31.3" y="58.65" width="0.22" height="0.22"/><rect class="cls-1" x="31.73" y="25.73" width="0.22" height="0.22"/><rect class="cls-1" x="65.52" y="58.65" width="0.22" height="0.22"/><rect class="cls-1" x="65.52" y="25.73" width="0.22" height="0.22"/><rect class="cls-1" x="31.73" y="58.65" width="0.22" height="0.22"/><rect class="cls-1" x="32.16" y="25.73" width="0.22" height="0.22"/><rect class="cls-1" x="65.09" y="58.65" width="0.22" height="0.22"/><rect class="cls-1" x="65.09" y="25.73" width="0.22" height="0.22"/><rect class="cls-1" x="32.16" y="58.65" width="0.22" height="0.22"/><polygon class="cls-1" points="32.6 25.94 32.6 25.73 32.81 25.73 32.81 25.94 32.6 25.94"/><polygon class="cls-1" points="64.87 58.65 64.87 58.87 64.66 58.87 64.65 58.65 64.87 58.65"/><polygon class="cls-1" points="64.87 25.94 64.87 25.73 64.66 25.73 64.65 25.94 64.87 25.94"/><polygon class="cls-1" points="32.6 58.65 32.6 58.87 32.81 58.87 32.81 58.65 32.6 58.65"/><rect class="cls-1" x="33.03" y="25.73" width="0.22" height="0.22"/><rect class="cls-1" x="64.22" y="58.65" width="0.22" height="0.22"/><rect class="cls-1" x="64.22" y="25.73" width="0.22" height="0.22"/><rect class="cls-1" x="33.03" y="58.65" width="0.22" height="0.22"/><rect class="cls-1" x="33.46" y="25.73" width="0.22" height="0.22"/><polygon class="cls-1" points="64 58.65 64 58.87 63.79 58.87 63.79 58.65 64 58.65"/><rect class="cls-1" x="63.79" y="25.73" width="0.22" height="0.22"/><polygon class="cls-1" points="33.46 58.65 33.46 58.87 33.68 58.87 33.68 58.65 33.46 58.65"/><polygon class="cls-1" points="33.9 25.94 33.9 25.73 34.11 25.73 34.11 25.94 33.9 25.94"/><rect class="cls-1" x="63.36" y="58.65" width="0.22" height="0.22" transform="translate(4.41 121.95) rotate(-89.74)"/><rect class="cls-1" x="63.36" y="25.73" width="0.22" height="0.22" transform="translate(-0.12 0.29) rotate(-0.26)"/><polygon class="cls-1" points="33.9 58.65 33.9 58.87 34.11 58.87 34.11 58.65 33.9 58.65"/><rect class="cls-1" x="34.33" y="25.73" width="0.22" height="0.22"/><rect class="cls-1" x="62.92" y="58.65" width="0.22" height="0.22"/><rect class="cls-1" x="62.92" y="25.73" width="0.22" height="0.22"/><rect class="cls-1" x="34.33" y="58.65" width="0.22" height="0.22"/><polygon class="cls-1" points="34.76 25.94 34.76 25.73 34.98 25.73 34.98 25.94 34.76 25.94"/><polygon class="cls-1" points="62.7 58.65 62.71 58.87 62.49 58.87 62.49 58.65 62.7 58.65"/><polygon class="cls-1" points="62.7 25.94 62.71 25.73 62.49 25.73 62.49 25.94 62.7 25.94"/><polygon class="cls-1" points="34.76 58.65 34.76 58.87 34.98 58.87 34.98 58.65 34.76 58.65"/><polygon class="cls-1" points="31.31 36 30.82 35.5 30.87 35.45 31.36 35.94 31.31 36"/><polygon class="cls-1" points="66.16 48.6 66.65 49.09 66.6 49.15 66.1 48.65 66.16 48.6"/><polygon class="cls-1" points="66.16 36 66.65 35.5 66.6 35.45 66.1 35.94 66.16 36"/><polygon class="cls-1" points="31.31 48.6 30.82 49.09 30.87 49.15 31.36 48.65 31.31 48.6"/><polygon class="cls-1" points="31.12 36.18 30.63 35.69 30.68 35.64 31.18 36.13 31.12 36.18"/><rect class="cls-1" x="66.53" y="48.34" width="0.08" height="0.7" transform="translate(-14.93 61.32) rotate(-44.99)"/><rect class="cls-1" x="66.22" y="35.87" width="0.7" height="0.08" transform="translate(-5.91 57.55) rotate(-44.97)"/><polygon class="cls-1" points="31.12 48.41 30.63 48.9 30.68 48.96 31.18 48.47 31.12 48.41"/><polygon class="cls-1" points="25.14 33.8 25.14 36.42 24.83 36.12 24.83 33.49 25.14 33.8"/><polygon class="cls-1" points="72.33 50.79 72.33 48.17 72.64 48.48 72.64 51.1 72.33 50.79"/><polygon class="cls-1" points="72.33 33.8 72.33 36.42 72.64 36.12 72.64 33.49 72.33 33.8"/><polygon class="cls-1" points="25.14 50.79 25.14 48.17 24.83 48.48 24.83 51.1 25.14 50.79"/><polygon class="cls-1" points="25.41 34.18 25.41 35.36 25.27 35.22 25.27 34.04 25.41 34.18"/><polygon class="cls-1" points="72.06 50.41 72.06 49.23 72.19 49.37 72.19 50.55 72.06 50.41"/><polygon class="cls-1" points="72.06 34.18 72.06 35.36 72.19 35.22 72.19 34.04 72.06 34.18"/><polygon class="cls-1" points="25.41 50.41 25.41 49.23 25.27 49.37 25.27 50.55 25.41 50.41"/><polygon class="cls-1" points="24.23 34.24 24.65 34.24 24.72 34.07 24.05 34.07 24.23 34.24"/><polygon class="cls-1" points="73.24 50.35 72.82 50.35 72.75 50.53 73.42 50.53 73.24 50.35"/><polygon class="cls-1" points="73.24 34.24 72.82 34.24 72.75 34.07 73.42 34.07 73.24 34.24"/><polygon class="cls-1" points="24.23 50.35 24.65 50.35 24.72 50.53 24.05 50.53 24.23 50.35"/><polygon class="cls-1" points="24.58 34.2 24.58 35.38 24.72 35.24 24.72 34.06 24.58 34.2"/><polygon class="cls-1" points="72.88 50.39 72.88 49.21 72.75 49.35 72.75 50.53 72.88 50.39"/><polygon class="cls-1" points="72.88 34.2 72.88 35.38 72.75 35.24 72.75 34.06 72.88 34.2"/><polygon class="cls-1" points="24.58 50.39 24.58 49.21 24.72 49.35 24.72 50.53 24.58 50.39"/><polygon class="cls-1" points="18.97 33.85 23.52 33.85 23.38 33.71 18.83 33.71 18.97 33.85"/><polygon class="cls-1" points="78.5 50.75 73.94 50.75 74.08 50.88 78.64 50.88 78.5 50.75"/><polygon class="cls-1" points="78.5 33.85 73.94 33.85 74.08 33.71 78.64 33.71 78.5 33.85"/><polygon class="cls-1" points="18.97 50.75 23.52 50.75 23.38 50.88 18.83 50.88 18.97 50.75"/><polygon class="cls-1" points="17.45 35.5 19.25 33.71 18.83 33.71 17.03 35.5 17.45 35.5"/><polygon class="cls-1" points="80.02 49.09 78.22 50.88 78.64 50.88 80.44 49.09 80.02 49.09"/><polygon class="cls-1" points="80.02 35.5 78.22 33.71 78.64 33.71 80.44 35.5 80.02 35.5"/><polygon class="cls-1" points="17.45 49.09 19.25 50.88 18.83 50.88 17.03 49.09 17.45 49.09"/><polygon class="cls-1" points="16.12 35.63 16.68 35.07 16.55 35.06 15.99 35.63 16.12 35.63"/><polygon class="cls-1" points="81.35 48.97 80.79 49.53 80.92 49.53 81.48 48.97 81.35 48.97"/><polygon class="cls-1" points="81.35 35.63 80.79 35.07 80.92 35.06 81.48 35.63 81.35 35.63"/><polygon class="cls-1" points="16.12 48.97 16.68 49.53 16.55 49.53 15.99 48.97 16.12 48.97"/><polygon class="cls-1" points="23.72 30 25.03 28.69 24.9 28.69 23.59 30 23.72 30"/><polygon class="cls-1" points="73.75 54.59 72.44 55.91 72.57 55.91 73.88 54.59 73.75 54.59"/><polygon class="cls-1" points="73.75 30 72.44 28.69 72.57 28.69 73.88 30 73.75 30"/><polygon class="cls-1" points="23.72 54.59 25.03 55.91 24.9 55.91 23.59 54.59 23.72 54.59"/><polygon class="cls-1" points="23.58 29.92 24.31 29.19 24.24 29.19 23.51 29.92 23.58 29.92"/><polygon class="cls-1" points="73.89 54.67 73.16 55.41 73.23 55.41 73.96 54.67 73.89 54.67"/><polygon class="cls-1" points="73.89 29.92 73.16 29.19 73.23 29.19 73.96 29.92 73.89 29.92"/><polygon class="cls-1" points="23.58 54.67 24.31 55.41 24.24 55.41 23.51 54.67 23.58 54.67"/><polygon class="cls-1" points="38.32 15.32 38.56 15.57 38.48 15.98 38.34 16.11 38.42 15.71 38.18 15.46 37.77 15.54 37.91 15.4 38.32 15.32"/><polygon class="cls-1" points="59.15 69.27 58.9 69.03 58.99 68.62 59.13 68.48 59.04 68.89 59.29 69.13 59.7 69.05 59.56 69.19 59.15 69.27"/><polygon class="cls-1" points="59.15 15.32 58.9 15.57 58.99 15.98 59.13 16.11 59.04 15.71 59.29 15.46 59.7 15.54 59.56 15.4 59.15 15.32"/><polygon class="cls-1" points="38.32 69.27 38.56 69.03 38.48 68.62 38.34 68.48 38.42 68.89 38.18 69.13 37.77 69.05 37.91 69.19 38.32 69.27"/><polygon class="cls-1" points="37.83 15.81 38.08 16.06 37.99 16.46 37.85 16.61 37.94 16.19 37.69 15.95 37.28 16.03 37.42 15.89 37.83 15.81"/><polygon class="cls-1" points="59.64 68.78 59.39 68.54 59.48 68.13 59.61 67.99 59.53 68.4 59.78 68.64 60.19 68.56 60.05 68.7 59.64 68.78"/><polygon class="cls-1" points="59.64 15.81 59.39 16.06 59.48 16.46 59.61 16.61 59.53 16.19 59.78 15.95 60.19 16.03 60.05 15.89 59.64 15.81"/><polygon class="cls-1" points="37.83 68.78 38.08 68.54 37.99 68.13 37.85 67.99 37.94 68.4 37.69 68.64 37.28 68.56 37.42 68.7 37.83 68.78"/><polygon class="cls-1" points="37.34 16.3 37.59 16.55 37.51 16.95 37.37 17.09 37.45 16.68 37.2 16.44 36.79 16.52 36.93 16.38 37.34 16.3"/><polygon class="cls-1" points="60.13 68.3 59.88 68.05 59.96 67.64 60.1 67.5 60.02 67.91 60.27 68.16 60.67 68.07 60.53 68.21 60.13 68.3"/><polygon class="cls-1" points="60.13 16.3 59.88 16.55 59.96 16.95 60.1 17.09 60.02 16.68 60.27 16.44 60.67 16.52 60.53 16.38 60.13 16.3"/><polygon class="cls-1" points="37.34 68.3 37.59 68.05 37.51 67.64 37.37 67.5 37.45 67.91 37.2 68.16 36.79 68.07 36.93 68.21 37.34 68.3"/><path class="cls-1" d="M92.59,40.39a.49.49,0,0,1-1,0,.49.49,0,0,1,1,0Zm-.72,0a.23.23,0,0,0,.23.23.23.23,0,0,0,.24-.23.24.24,0,1,0-.47,0Z"/><path class="cls-1" d="M92.59,42.36a.49.49,0,1,1-.49-.48A.49.49,0,0,1,92.59,42.36Zm-.72,0a.24.24,0,1,0,.23-.24A.23.23,0,0,0,91.87,42.36Z"/><rect class="cls-1" x="92.89" y="42.24" width="2.13" height="0.24"/><path class="cls-1" d="M92.59,44.34a.49.49,0,0,1-1,0,.49.49,0,0,1,1,0Zm-.72,0a.24.24,0,1,0,.23-.24A.23.23,0,0,0,91.87,44.34Z"/><path class="cls-1" d="M91,23.14a.22.22,0,0,0,.21.21.21.21,0,0,0,.2-.21.2.2,0,0,0-.2-.2A.21.21,0,0,0,91,23.14Z"/><path class="cls-1" d="M91,61.58a.21.21,0,0,1,.21-.2.2.2,0,0,1,.2.2.2.2,0,0,1-.2.21A.21.21,0,0,1,91,61.58Z"/><rect class="cls-1" x="90.93" y="34.57" width="0.48" height="2.87"/><rect class="cls-1" x="90.93" y="24.5" width="0.48" height="4.5"/><rect class="cls-1" x="90.93" y="55.6" width="0.48" height="4.5"/><rect class="cls-2" x="90.93" y="46.09" width="0.48" height="2.87"/><polygon class="cls-1" points="91.02 60.92 91.02 43.24 91.83 42.43 92.04 42.63 91.31 43.36 91.31 60.92 91.02 60.92"/><polygon class="cls-1" points="91.83 42.3 91.02 41.48 91.02 23.68 91.31 23.68 91.31 41.37 92.04 42.09 91.83 42.3"/><path class="cls-1" d="M3.21,40.71a.45.45,0,1,1-.45.45A.46.46,0,0,1,3.21,40.71Zm0,.23a.22.22,0,1,0,0,.44.22.22,0,1,0,0-.44Z"/><path class="cls-1" d="M3.21,42.56a.45.45,0,1,1-.45.45A.46.46,0,0,1,3.21,42.56Zm0,.23a.22.22,0,1,0,0,.44.22.22,0,1,0,0-.44Z"/><rect class="cls-1" y="42.9" width="1.99" height="0.23"/><path class="cls-1" d="M3.21,44.41a.45.45,0,1,1-.45.45A.46.46,0,0,1,3.21,44.41Zm0,.23a.22.22,0,0,0-.22.22.22.22,0,0,0,.22.22.22.22,0,0,0,.23-.22A.22.22,0,0,0,3.21,44.64Z"/><path class="cls-1" d="M4.28,25a.19.19,0,0,1-.19.19A.2.2,0,0,1,3.9,25a.19.19,0,0,1,.19-.19A.18.18,0,0,1,4.28,25Z"/><path class="cls-1" d="M4.28,61a.19.19,0,0,0-.19-.2.2.2,0,0,0-.19.2.2.2,0,0,0,.19.19A.19.19,0,0,0,4.28,61Z"/><rect class="cls-1" x="3.87" y="35.71" width="0.45" height="2.69"/><rect class="cls-1" x="3.87" y="26.28" width="0.45" height="4.22"/><rect class="cls-1" x="3.87" y="55.41" width="0.45" height="4.22"/><rect class="cls-2" x="3.87" y="46.5" width="0.45" height="2.69"/><polygon class="cls-1" points="4.24 60.39 3.95 60.39 3.95 43.95 3.27 43.27 3.47 43.07 4.24 43.83 4.24 60.39"/><polygon class="cls-1" points="3.47 42.96 3.27 42.75 3.95 42.08 3.95 25.51 4.24 25.51 4.24 42.19 3.47 42.96"/><rect class="cls-1" x="12.27" y="42.18" width="1.99" height="0.23"/><rect class="cls-1" x="83.21" y="42.18" width="1.99" height="0.23"/><polygon class="cls-1" points="4.17 28.22 4.07 28.12 13.31 18.89 31.2 18.89 31.2 19.03 13.37 19.03 4.17 28.22"/><polygon class="cls-1" points="22.4 20.49 11.88 20.49 11.88 20.34 22.34 20.34 23.78 18.91 23.88 19.01 22.4 20.49"/><polygon class="cls-1" points="31.2 65.7 13.31 65.7 4.07 56.47 4.17 56.37 13.37 65.56 31.2 65.56 31.2 65.7"/><polygon class="cls-1" points="18.31 65.63 18.17 65.63 18.17 61.71 4.07 47.61 4.17 47.51 18.31 61.65 18.31 65.63"/><polygon class="cls-1" points="32.05 66.71 20.62 66.71 9.33 55.42 9.33 52.84 9.47 52.84 9.47 55.36 20.68 66.57 32.05 66.57 32.05 66.71"/><polygon class="cls-1" points="84.16 65.7 66.27 65.7 66.27 65.56 84.1 65.56 91.12 58.55 91.22 58.65 84.16 65.7"/><rect class="cls-1" x="67.58" y="64.09" width="18.02" height="0.14"/><polygon class="cls-1" points="74.11 67.13 65 67.13 65 66.99 74.05 66.99 75.46 65.58 75.56 65.68 74.11 67.13"/><polygon class="cls-1" points="91.12 26.05 84.1 19.03 66.27 19.03 66.27 18.89 84.16 18.89 91.22 25.94 91.12 26.05"/><polygon class="cls-1" points="91.12 29.06 84.33 22.28 78.43 22.28 72.52 16.36 64.8 16.36 64.8 16.22 72.58 16.22 78.49 22.13 84.39 22.13 91.22 28.96 91.12 29.06"/><rect class="cls-1" x="85.31" y="22.64" width="2.13" height="0.14" transform="translate(9.22 67.69) rotate(-44.97)"/></g></g></svg>