<svg xmlns="http://www.w3.org/2000/svg" viewBox="0 0 553.43 554.42"><defs><style>.cls-1{opacity:0.8;}.cls-2{fill:#5fffe8;}</style></defs><title>资源 8</title><g id="图层_2" data-name="图层 2"><g id="央铋_1" data-name="央铋 1"><g class="cls-1"><path class="cls-2" d="M514.54,373s-3.08,1.81-6.3,3.44l-6.41,3.17-1,2.3c-.63,1.48-1.63,3.55-2.91,6s-2.67,5.34-4.34,8.34-3.56,6.16-5.38,9.34a258.55,258.55,0,0,1-16.76,24.08s.06,3.58.14,7.16-.16,7.17-.16,7.17l-3.66,4.22c-2.33,2.68-5.9,6.3-10.12,10.7a263.33,263.33,0,0,1-34.28,28.6,260.2,260.2,0,0,1-38.69,22.29L377,513.21l-6,2.39-5.2,2s-.4.69-1,1.71-1.48,2.32-2.32,3.65l-3.5,5.34-3.52,1.19-9.43,2.7a283.78,283.78,0,0,1-29.08,6.2c-5.37.65-10.72,1.49-15.77,1.89s-9.77.88-13.82.91l-9.78.24c-2.37,0-3.72,0-3.72-.05L269,537.36l-4.79-4.07s-1.07,0-3.09-.2-5-.37-8.72-.67-8.29-1-13.5-1.61c-2.6-.35-5.34-.92-8.24-1.41s-6-1-9.1-1.81c-25.3-5.22-58.1-17.57-86.76-36.85A255.19,255.19,0,0,1,67.28,425c-3.85-5.2-6.85-10.32-9.73-14.7-2.62-4.55-5-8.5-6.75-11.81l-4-7.79c-.92-1.8-1.39-2.77-1.39-2.77l-4.87-2.45c-2.9-1.51-6.93-3.54-10.78-5.8s-7.71-4.62-10.63-6.46c-1.48-.91-2.65-1.71-3.47-2.27l-1.3-.88s-1.3-3.86-3.26-9.65C9.42,354.58,7,346.77,5.35,338.8c-.45-2-.89-4-1.34-5.93s-.7-3.92-1-5.8c-.64-3.76-1.37-7.26-1.69-10.29C.51,310.72,0,306.68,0,306.68s1.14-2,3-4.89,4.28-6.73,6.76-10.4C15,284,20.32,277.21,20.32,277.21H42.8s.07,2.58.18,7.09.52,10.95,1.26,18.64A231.93,231.93,0,0,0,83,408.29l6.11,8.6c1.94,2.47,3.63,4.62,5,6.4s2.49,3.17,3.31,4.06l1.21,1.4s-.1,5.53.07,11.21.69,11.33.69,11.33l.71.75c.46.49,1.15,1.19,2.07,2l7.53,7.18a259.53,259.53,0,0,0,24.71,19.65c2.31,1.71,4.7,3.3,7.1,4.79s4.7,3.06,7,4.45c4.7,2.63,8.95,5.32,12.84,7.19,7.61,4,12.9,6.29,12.9,6.29s1.38-.37,3.44-.95,4.74-1.35,7.44-2.29c5.4-1.81,10.51-3.73,10.51-3.73s12.14,4.47,24.69,7.56l9.24,2.14,8.14,1.45c2.38.46,4.37.77,5.78.91l2.2.28s3.05-2.09,6.09-4.2c1.49-1,3-2.16,4.06-3l1.81-1.4s3.5.32,8.76.61l9,.22c3.3,0,6.81-.15,10.33-.2,7-.32,14-.84,19.25-1.61l6.31-.82,2.38-.42,6.2,3.89c3.17,2,6.41,3.74,6.41,3.74l3.47-.8c2.26-.53,5.61-1.22,9.76-2.48a222.31,222.31,0,0,0,33.76-12.27A232.73,232.73,0,0,0,458.77,424a233.67,233.67,0,0,0,46.62-97.56,245.17,245.17,0,0,0,4.81-35.61c.27-4.33.24-7.75.33-10.07s.1-3.57.1-3.57h22.48s0,1.53-.1,4.21-.07,6.52-.39,11.11a262.21,262.21,0,0,1-4.2,33.45,251.47,251.47,0,0,1-8.58,32.62c-1.45,4.38-2.71,8-3.75,10.47S514.54,373,514.54,373Z"/><path class="cls-2" d="M59.53,290.66s.27,3.58.68,9c.34,2.66.74,5.78,1.16,9.12s1.19,6.85,1.77,10.39c1.4,7,3.11,14,4.68,19.15.69,2.6,1.35,4.74,1.9,6.21s.79,2.33.79,2.33l3.87,2c1.9,1,3.87,1.91,3.87,1.91L79.93,355c.5,1.28,1.08,2.76,1.71,4.35l2.2,4.89c.75,1.66,1.5,3.33,2.21,4.88s1.51,2.95,2.14,4.16c1.25,2.44,2.07,4.07,2.07,4.07s-.61,2.08-1.12,4.17l-1,4.24,1.07,1.87c.64,1.12,1.48,2.64,2.45,4.08l3.73,5.81L89,401.77l-2.74-4.27c-1.82-2.67-4.08-6.7-6.84-11.49a225.41,225.41,0,0,1-25.65-76.52c-.7-5.49-1.34-10.06-1.48-13.3s-.39-5.06-.39-5.06Z"/><path class="cls-2" d="M374.55,523l5.31-2.11,11.45-5.18L402.49,510l5-2.83,4.9.67c2.46.31,4.95.6,4.95.6l7.25-4.63c3.66-2.26,7.11-4.81,7.11-4.81l4.41,6.3s-7.38,5.37-19.18,12.28a274.13,274.13,0,0,1-45.33,21.3,270.07,270.07,0,0,1-48.48,12.7c-6.72,1.25-12.41,1.71-16.36,2.28-2,.28-3.54.34-4.6.44l-1.63.12-.66-7.66s4.46-.25,11.09-1.18c6.65-.75,15.46-2.25,24.19-4.16s17.31-4.36,23.71-6.34l10.58-3.58s1.33-2.13,2.62-4.26Z"/><path class="cls-2" d="M329.82,501.65l-6.52-3.8c-3.22-1.93-6.33-4.07-6.33-4.07l3.48-.62c1.73-.32,3.44-.76,3.44-.76l6.44,3.82c3.29,2,6.65,3.64,6.65,3.64s-1.76.56-3.56,1Z"/><path class="cls-2" d="M340.46,498.88l-6.69-3.48c-3.32-1.82-6.52-3.78-6.52-3.78l3.44-.78c1.72-.37,3.4-.92,3.4-.92l6.61,3.51c3.38,1.79,6.83,3.31,6.83,3.32l-1.1.37c-.65.24-1.53.51-2.42.75Z"/><path class="cls-2" d="M351,495.59l-6.85-3.14c-3.41-1.69-6.69-3.47-6.69-3.47l3.39-1c1.71-.44,3.36-1.06,3.36-1.06l6.77,3.17,4.79,2.13,2.19.87s-1.7.73-3.46,1.28Z"/><path class="cls-2" d="M347.43,485.86l3.34-1.14c1.69-.52,3.31-1.21,3.31-1.21l6.91,2.84,4.9,1.9,2.22.77s-1.67.79-3.4,1.43l-3.44,1.35-7-2.8Z"/><path class="cls-2" d="M420.15,504.78l-2.57-.27c-1.54-.17-3.57-.39-5.64-.72l-8.1-1.31,6.29-3.62.89-.52,7.29-4.67c2.21-1.36,4.7-3.1,7.33-5s5.52-3.82,8.2-6a241.39,241.39,0,0,0,21.05-18l1.95,2a246.49,246.49,0,0,1-19.9,17.12c-2.55,2.07-5.19,4-7.73,5.78s-4.83,3.47-6.88,4.84l-6.91,4.44,5.94.66,6,.56Z"/><path class="cls-2" d="M46.67,417.5l7.88,2.71,5.34,1.73c1.44.47,2.44.74,2.44.74l4.81,6.76-7.91-2.18c-4-1.11-7.91-2.49-7.91-2.49Z"/><path class="cls-2" d="M231.14,498.09l6.31-4.13,6.05-4.17,3.42.45,3.42.43-5.94,4.47c-1.52,1.14-3.05,2.13-4.21,2.92l-1.94,1.3Z"/><path class="cls-2" d="M261.36,491.73l-5.71,4.76c-1.46,1.22-2.93,2.31-4.05,3.15L249.72,501l-7.16-.9,6.09-4.45,5.83-4.47Z"/><path class="cls-2" d="M60.11,419.28l-7.79-2.56c-4-1.3-7.79-2.86-7.79-2.86l-4.29-7.49L48,409.45l5.26,2c1.41.54,2.4.85,2.4.85Z"/><path class="cls-2" d="M53.57,408.8l-7.66-2.94c-3.91-1.48-7.64-3.23-7.64-3.23L34.34,395l7.58,3.45,5.15,2.24c1.38.61,2.36,1,2.36,1Z"/><path class="cls-2" d="M47.54,398,40,394.71c-3.83-1.67-7.48-3.59-7.48-3.59L29,383.25l7.4,3.82,5,2.48c1.35.68,2.32,1.07,2.32,1.07Z"/><path class="cls-2" d="M73.6,437.08l1.25,1.59c.81,1,1.87,2.49,3.34,4.14,2.92,3.29,6.62,7.87,10.76,12,4,4.32,8.24,8.36,11.45,11.39,1.58,1.52,2.92,2.78,3.91,3.6l1.53,1.32-.79.89-1.51-1.31c-1-.82-2.31-2.06-3.88-3.57-3.17-3-7.41-7-11.36-11.29-4.1-4.13-7.79-8.64-10.68-11.92-1.45-1.63-2.54-3.09-3.33-4.08l-1.24-1.58-3.75-.91c-2.26-.56-5.34-1.3-8.28-2.22-6-1.76-12.09-3.8-12.09-3.8S48,430,46.71,428l-4.85-7.56-6.54-11.33,1-.57,6.34,11,6.84,10.69s6.12,2,12.06,3.78c2.95.91,6,1.68,8.25,2.22Z"/><path class="cls-2" d="M269.74,545.78l2.65.07c1.6,0,3.72.16,5.84.06l8.5-.21,0,1.18-8.85.22c-4.43,0-8.85-.15-8.85-.15l-5.17-4.24c-2.55-2.16-5-4.45-5-4.45l-7.09-.54c-4.25-.37-9.89-1.17-15.53-1.91C225,534,214,531.3,214,531.3l.28-1.15,7,1.62c4.18,1,9.88,1.86,15.52,2.92,5.7.72,11.39,1.57,15.68,1.89l7.16.55,1.54,1.4c.93.84,2.17,2,3.44,3Z"/><path class="cls-2" d="M224.66,495.22s-1.87-.39-4.64-1.1l-10.11-2.87L200,487.88l-4.45-1.74L192,487.47c-2.1.78-5,1.87-7.82,2.74-5.72,1.82-11.76,3.5-11.76,3.5l-.5-1.19s1.51-.36,3.79-1l8.2-2.5c2.91-.89,5.81-1.94,8-2.77l3.56-1.36,4.41,1.75,9.9,3.35,10,2.89c2.74.76,4.61,1.13,4.61,1.13s4.68-2.64,9.08-5.35c4.47-2.9,8.66-5.83,8.66-5.83l2.16.39c1.38.25,3.37.44,5.75.76,4.74.71,11.13,1.17,17.52,1.52l9.41.23,8.21-.22c2.4,0,4.39-.23,5.79-.32l2.19-.17.1,1.18a197.37,197.37,0,0,1-25.5.49c-6.37-.34-12.73-.78-17.46-1.49l-5.72-.72-2.15-.39s-4.2,2.92-8.68,5.81S224.66,495.22,224.66,495.22Z"/><path class="cls-2" d="M108.8,455.54l-2.84-2.7c-1.42-1.36-2.82-2.73-2.82-2.73s-.18-3.94-.35-7.87c-.06-1.93-.11-3.86-.15-5.3s0-2.41,0-2.41,1.11,1.22,2.25,2.4l2.27,2.38.65.68,1.49,1.57c.93,1,2.33,2.39,4,4l5.84,5.55,7,6c9.65,8.08,20.09,15.1,20.09,15.1l-1.58,2.36s-9.9-6.69-19.13-14.25c-4.51-3.92-9.08-7.75-12.24-10.93l-3.91-3.73a20.22,20.22,0,0,1-1.45-1.46s0,.72.08,1.78.18,2.45.29,3.85Z"/><path class="cls-2" d="M38.89,181.42s3.08-1.81,6.3-3.44l6.41-3.17,1-2.3c.63-1.48,1.63-3.55,2.91-6s2.66-5.34,4.34-8.34l5.38-9.34A256.39,256.39,0,0,1,82,124.77l-.14-7.16c0-3.57.16-7.16.16-7.16l3.66-4.23c2.33-2.68,5.9-6.3,10.12-10.7a263.46,263.46,0,0,1,34.28-28.6A260.2,260.2,0,0,1,168.8,44.63l7.59-3.42,6-2.39,5.21-2,1-1.7,2.32-3.65c1.74-2.68,3.5-5.35,3.5-5.35l3.52-1.19,9.43-2.69A282.8,282.8,0,0,1,236.41,16c5.37-.64,10.72-1.48,15.77-1.87s9.76-.88,13.82-.92l9.78-.24c2.36,0,3.71,0,3.71,0l4.94,4.07,4.79,4.07s1.07,0,3.09.2L301,22c3.76.3,8.29,1,13.5,1.62,2.6.34,5.34.92,8.24,1.41s6,1,9.1,1.81C357.16,32.05,390,44.4,418.63,63.68a255.19,255.19,0,0,1,67.52,65.71c3.85,5.2,6.85,10.32,9.73,14.71,2.62,4.55,4.95,8.49,6.74,11.8s3.07,6,4,7.8,1.39,2.76,1.39,2.76l4.86,2.45c2.9,1.51,6.94,3.55,10.78,5.8s7.72,4.62,10.64,6.46c1.48.91,2.65,1.7,3.47,2.27l1.29.89s1.31,3.86,3.26,9.65c1.7,5.87,4.08,13.67,5.77,21.64.44,2,.89,4,1.33,5.94s.71,3.91,1.05,5.79c.64,3.76,1.37,7.25,1.69,10.29l1.28,10.1s-1.15,2-3,4.9-4.28,6.72-6.76,10.39c-5.22,7.41-10.56,14.18-10.56,14.18H510.63s-.07-2.58-.18-7.09-.53-10.94-1.26-18.63a231.91,231.91,0,0,0-38.72-105.36l-6.11-8.6-5-6.4c-1.38-1.78-2.48-3.17-3.3-4.06l-1.21-1.4s.1-5.53-.07-11.2-.69-11.34-.69-11.34l-.71-.74c-.46-.5-1.15-1.2-2.07-2.06l-7.54-7.17a258,258,0,0,0-24.7-19.66c-2.31-1.71-4.7-3.3-7.1-4.79s-4.71-3.06-7-4.45c-4.7-2.63-8.95-5.32-12.84-7.19-7.62-4-12.9-6.29-12.9-6.29l-3.44,1c-2.05.57-4.74,1.34-7.45,2.29-5.39,1.81-10.51,3.72-10.51,3.72s-12.13-4.47-24.68-7.56l-9.24-2.14-8.15-1.45c-2.37-.46-4.37-.77-5.77-.91l-2.21-.28-6.08,4.19c-1.49,1-3,2.17-4.06,3L295.79,54s-3.49-.33-8.76-.61l-9-.23c-3.29,0-6.81.14-10.32.2-7,.33-14,.84-19.25,1.61l-6.32.82-2.37.43-6.2-3.91c-3.17-2-6.41-3.73-6.41-3.73l-3.47.8c-2.27.53-5.61,1.22-9.77,2.48a222.49,222.49,0,0,0-33.75,12.28,232.83,232.83,0,0,0-85.5,66.23A233.67,233.67,0,0,0,48,228a245.35,245.35,0,0,0-4.81,35.61c-.27,4.33-.24,7.75-.34,10.07s-.09,3.57-.09,3.57H20.32s0-1.53.1-4.21.06-6.52.39-11.11A260.64,260.64,0,0,1,25,228.44a248.89,248.89,0,0,1,8.58-32.63c1.45-4.37,2.7-8,3.75-10.46S38.89,181.42,38.89,181.42Z"/><path class="cls-2" d="M493.9,263.76s-.27-3.58-.68-8.95c-.34-2.68-.74-5.79-1.16-9.13s-1.19-6.84-1.77-10.39c-1.41-7-3.12-14-4.68-19.15-.7-2.6-1.36-4.73-1.9-6.21s-.79-2.34-.79-2.34l-3.87-2c-1.9-1-3.87-1.91-3.87-1.91s-.68-1.7-1.68-4.24c-.5-1.28-1.08-2.76-1.71-4.35l-2.2-4.89c-.75-1.66-1.51-3.32-2.21-4.88l-2.14-4.16c-1.25-2.44-2.07-4.07-2.07-4.07s.6-2.08,1.12-4.17l1-4.24s-.43-.74-1.07-1.87-1.48-2.64-2.45-4.07l-3.74-5.82,6.41-4.26,2.74,4.27c1.82,2.67,4.07,6.7,6.84,11.5a225.84,225.84,0,0,1,25.65,76.51c.7,5.5,1.33,10.07,1.48,13.3s.39,5.06.39,5.06Z"/><path class="cls-2" d="M178.87,31.42l-5.31,2.11L162.12,38.7l-11.18,5.72-5,2.83-4.9-.67c-2.46-.32-5-.6-5-.6l-7.24,4.63c-3.66,2.26-7.12,4.82-7.12,4.82l-4.4-6.3s7.37-5.38,19.18-12.29a273.74,273.74,0,0,1,45.33-21.3A270,270,0,0,1,230.35,2.85c6.72-1.26,12.41-1.71,16.36-2.29,2-.28,3.54-.33,4.6-.43L252.94,0l.65,7.67s-4.46.24-11.08,1.17c-6.65.75-15.47,2.25-24.19,4.17S201,17.36,194.61,19.35L184,22.92s-1.33,2.14-2.62,4.26Z"/><path class="cls-2" d="M223.61,52.77l6.52,3.8c3.21,1.93,6.32,4.07,6.32,4.07l-3.47.62c-1.73.32-3.44.76-3.44.76l-6.44-3.83c-3.29-2-6.65-3.63-6.65-3.63s1.76-.56,3.56-1Z"/><path class="cls-2" d="M213,55.55,219.66,59c3.32,1.82,6.52,3.78,6.52,3.78l-3.44.79c-1.72.36-3.41.91-3.41.91L212.72,61c-3.38-1.79-6.82-3.32-6.82-3.32L207,57.3c.66-.24,1.53-.51,2.42-.75Z"/><path class="cls-2" d="M202.48,58.83,209.33,62c3.4,1.69,6.69,3.47,6.69,3.47l-3.4,1c-1.71.44-3.36,1.06-3.36,1.06l-6.77-3.17-4.79-2.13-2.18-.87s1.69-.73,3.46-1.28Z"/><path class="cls-2" d="M206,68.57l-3.34,1.12c-1.69.54-3.31,1.22-3.31,1.22l-6.92-2.84-4.89-1.9-2.22-.77s1.67-.79,3.4-1.43l3.44-1.35,7,2.8Z"/><path class="cls-2" d="M133.27,49.64l2.58.27c1.53.17,3.57.39,5.63.72l8.11,1.31-6.29,3.62-.89.52-7.29,4.68c-2.22,1.36-4.7,3.1-7.33,5s-5.53,3.82-8.21,6a242.14,242.14,0,0,0-21,18l-2-2.05a244.46,244.46,0,0,1,19.9-17.12c2.55-2.07,5.19-4,7.72-5.77s4.84-3.48,6.88-4.85L138,55.53l-5.94-.65-6-.57Z"/><path class="cls-2" d="M506.75,136.92l-7.87-2.71-5.35-1.73c-1.43-.47-2.43-.73-2.43-.73L486.29,125l7.91,2.19c4,1.1,7.9,2.49,7.9,2.49Z"/><path class="cls-2" d="M322.29,56.34,316,60.47l-6.06,4.16s-1.7-.23-3.41-.44l-3.42-.44L309,59.29c1.52-1.15,3-2.14,4.21-2.93l1.94-1.3Z"/><path class="cls-2" d="M292.07,62.69l5.71-4.76c1.45-1.22,2.93-2.31,4.05-3.14l1.88-1.4,7.16.91-6.09,4.45-5.84,4.47Z"/><path class="cls-2" d="M493.32,135.14l7.79,2.56c4,1.3,7.78,2.87,7.78,2.87l4.3,7.48L505.45,145l-5.25-2c-1.41-.54-2.41-.86-2.41-.86Z"/><path class="cls-2" d="M499.86,145.62l7.65,2.93c3.91,1.5,7.64,3.24,7.64,3.24l3.94,7.68L511.51,156l-5.15-2.24c-1.38-.61-2.36-1-2.36-1Z"/><path class="cls-2" d="M505.89,156.41l7.51,3.3c3.83,1.67,7.48,3.59,7.48,3.59l3.55,7.87-7.4-3.82-5-2.48c-1.36-.67-2.33-1.07-2.33-1.07Z"/><path class="cls-2" d="M479.83,117.34l-1.25-1.59c-.82-1-1.88-2.49-3.35-4.14-2.91-3.29-6.61-7.86-10.75-12-4-4.32-8.24-8.36-11.45-11.38-1.58-1.53-2.92-2.79-3.91-3.6l-1.53-1.33.78-.89,1.51,1.32c1,.81,2.32,2,3.89,3.56,3.17,3,7.41,7,11.36,11.28,4.1,4.14,7.79,8.66,10.67,11.93,1.46,1.63,2.54,3.1,3.34,4.09l1.24,1.57,3.75.91c2.25.56,5.33,1.3,8.28,2.22,6,1.77,12.08,3.8,12.08,3.8s.9,1.36,2.23,3.42,3.08,4.82,4.85,7.57l6.54,11.32-1,.57-6.34-11-6.85-10.68s-6.11-2-12.06-3.79c-2.94-.91-6-1.68-8.24-2.22Z"/><path class="cls-2" d="M283.69,8.65,281,8.58c-1.6,0-3.72-.16-5.84-.07l-8.5.21,0-1.18s4.42-.12,8.85-.22,8.85.15,8.85.15l5.17,4.24c2.54,2.17,5,4.45,5,4.45l7.09.54c4.25.37,9.89,1.17,15.53,1.91,11.25,1.78,22.32,4.52,22.32,4.52l-.28,1.14-7-1.62c-4.19-1-9.88-1.86-15.53-2.92C311,19,305.28,18.16,301,17.84l-7.15-.55-1.54-1.4c-.93-.84-2.18-2-3.45-3Z"/><path class="cls-2" d="M328.77,59.2s1.87.39,4.64,1.1l10.1,2.88,9.95,3.37,4.45,1.73L361.39,67c2.11-.79,5-1.88,7.83-2.75,5.72-1.82,11.75-3.5,11.75-3.5l.51,1.19s-1.51.36-3.8,1.05l-8.19,2.5c-2.91.89-5.81,1.94-8,2.77L358,69.58l-4.42-1.75-9.89-3.35-10-2.88c-2.74-.77-4.61-1.13-4.61-1.12s-4.68,2.62-9.08,5.34c-4.48,2.89-8.67,5.82-8.67,5.82l-2.16-.39c-1.37-.24-3.36-.44-5.74-.76-4.74-.71-11.13-1.16-17.52-1.52l-9.41-.23-8.21.22c-2.41,0-4.39.23-5.79.33l-2.2.16-.09-1.18a197.37,197.37,0,0,1,25.5-.49c6.36.34,12.73.78,17.45,1.49l5.73.72,2.15.4s4.2-2.93,8.68-5.82S328.77,59.2,328.77,59.2Z"/><path class="cls-2" d="M444.62,98.88l2.84,2.7,2.83,2.73s.18,3.94.35,7.87c.05,1.93.11,3.86.15,5.31s0,2.4,0,2.4-1.1-1.21-2.25-2.4l-2.27-2.38-.64-.68-1.5-1.56c-.92-1-2.32-2.4-4-4l-5.84-5.55-7-6c-9.65-8.07-20.09-15.1-20.09-15.1l1.58-2.35s9.89,6.68,19.13,14.24C432.41,98,437,101.82,440.14,105l3.91,3.73a20.22,20.22,0,0,1,1.45,1.46s0-.71-.08-1.78-.19-2.45-.29-3.85C444.88,101.72,444.62,98.88,444.62,98.88Z"/></g></g></g></svg>