<svg xmlns="http://www.w3.org/2000/svg" viewBox="0 0 367.5 160.81"><defs><style>.cls-1{fill:#00b4eb;}</style></defs><title>资源 1</title><g id="图层_2" data-name="图层 2"><g id="Layer_1" data-name="Layer 1"><polygon class="cls-1" points="227.06 15.05 155.49 15.05 125.92 44.62 15.05 44.62 15.05 50.12 125.92 50.12 132.11 50.12 132.11 48.01 135.5 44.62 158.87 21.24 223.68 21.24 247.05 44.62 250.44 48.01 250.44 50.12 256.63 50.12 367.5 50.12 367.5 44.62 256.63 44.62 227.06 15.05"/><polygon class="cls-1" points="250.44 110.69 250.44 112.81 247.05 116.19 223.68 139.57 158.87 139.57 135.49 116.19 132.11 112.81 132.11 110.69 125.92 110.69 15.05 110.69 15.05 116.19 125.92 116.19 155.49 145.76 227.06 145.76 256.63 116.19 367.5 116.19 367.5 110.69 256.63 110.69 250.44 110.69"/><rect class="cls-1" x="15.05" y="44.62" width="5.94" height="71.57"/><polygon class="cls-1" points="15.05 89.1 15.05 71.72 0 80.41 15.05 89.1"/><polygon class="cls-1" points="182.36 15.05 199.74 15.05 191.05 0 182.36 15.05"/><polygon class="cls-1" points="191.05 160.81 199.74 145.76 182.36 145.76 191.05 160.81"/></g></g></svg>