<svg xmlns="http://www.w3.org/2000/svg" viewBox="0 0 183.24 177.19"><defs><style>.cls-1{fill:#6cf;}.cls-2{opacity:0.5;}</style></defs><title>资源 2</title><g id="图层_2" data-name="图层 2"><g id="Layer_1" data-name="Layer 1"><path class="cls-1" d="M156.91,48.64C127.45.37,56.57-.21,26.56,48.41a2,2,0,0,0,.69,2.78L64.44,72.86a2,2,0,0,0,2.67-.62c11.78-17.69,37.7-17.27,49.12,0a2,2,0,0,0,2.66.63L156.2,51.41a2,2,0,0,0,.94-1.24A2,2,0,0,0,156.91,48.64Zm-8.34-.54a2,2,0,0,1-1,1.33L120.39,65.08a2,2,0,0,1-2.47-.39,35.57,35.57,0,0,0-52.49,0,2,2,0,0,1-2.49.39L35.82,49.24a2,2,0,0,1-1-1.33,2,2,0,0,1,.36-1.6C63.16,8.93,120,8.54,148.22,46.5A2,2,0,0,1,148.57,48.1Z"/><path class="cls-1" d="M157,127.15a2,2,0,0,0-.93-1.25l-37.18-21.66a2,2,0,0,0-2.67.62,29.55,29.55,0,0,1-49.21,0,2,2,0,0,0-2.66-.63L27,125.65a2,2,0,0,0-.94,1.23,2,2,0,0,0,.23,1.54c29.4,48.41,100.36,49.08,130.48.26A2,2,0,0,0,157,127.15Zm-8.89,3.64C120.22,168.33,63.2,168.65,35,130.58a2,2,0,0,1-.35-1.6,2,2,0,0,1,1-1.33l27.26-15.6a2,2,0,0,1,2.48.39,35.55,35.55,0,0,0,52.6,0,2,2,0,0,1,2.49-.39l27.11,15.8a2,2,0,0,1,.6,2.93Z"/><g class="cls-2"><path class="cls-1" d="M128.29,46.7l-4.95,2.85a5.16,5.16,0,0,1-5-.27c-.89-.6-1.8-1.18-2.74-1.72a47.34,47.34,0,0,0-50.52,1.65,5.11,5.11,0,0,1-5,.25l-4.89-2.85a2,2,0,0,1-.31-3.45,58.44,58.44,0,0,1,73.78.09A2,2,0,0,1,128.29,46.7Z"/><path class="cls-1" d="M128.57,134a58.46,58.46,0,0,1-74-.09,2,2,0,0,1,.33-3.45l5-2.84a5.14,5.14,0,0,1,5,.27c.92.63,1.86,1.22,2.83,1.78a47.33,47.33,0,0,0,50.62-1.71,5,5,0,0,1,5-.26l4.89,2.85A2,2,0,0,1,128.57,134Z"/></g><g class="cls-2"><path class="cls-1" d="M25.5,89.1H.5a.5.5,0,0,1-.5-.5.5.5,0,0,1,.5-.5h25a.5.5,0,0,1,.5.5A.5.5,0,0,1,25.5,89.1Z"/><path class="cls-1" d="M147.57,89.1H96.71a.5.5,0,0,1-.5-.5.5.5,0,0,1,.5-.5h50.86a.5.5,0,0,1,.5.5A.5.5,0,0,1,147.57,89.1Zm-61,0H35.67a.51.51,0,0,1-.5-.5.5.5,0,0,1,.5-.5H86.54a.5.5,0,0,1,.5.5A.51.51,0,0,1,86.54,89.1Z"/><path class="cls-1" d="M182.74,89.1h-25a.51.51,0,0,1-.5-.5.5.5,0,0,1,.5-.5h25a.5.5,0,0,1,.5.5A.5.5,0,0,1,182.74,89.1Z"/><rect class="cls-1" x="1.12" y="98.54" width="15" height="0.5" transform="translate(-11.9 1.77) rotate(-6.95)"/><rect class="cls-1" x="167.12" y="78.16" width="15" height="0.5" transform="translate(-8.22 21.75) rotate(-6.96)"/><path class="cls-1" d="M16.07,79.57h0L1.15,77.74a.25.25,0,0,1-.22-.28.26.26,0,0,1,.28-.22L16.1,79.07a.25.25,0,0,1,0,.5Z"/><path class="cls-1" d="M182.07,100h0l-14.89-1.83a.24.24,0,0,1-.22-.28.25.25,0,0,1,.28-.21l14.89,1.82a.25.25,0,0,1,.21.28A.24.24,0,0,1,182.07,100Z"/></g><g class="cls-2"><path class="cls-1" d="M91.62,112.68A24.09,24.09,0,1,1,115.71,88.6,24.1,24.1,0,0,1,91.62,112.68Zm0-47.17A23.09,23.09,0,1,0,114.71,88.6,23.11,23.11,0,0,0,91.62,65.51Z"/></g><path class="cls-1" d="M91.62,172.77A84.18,84.18,0,1,1,175.79,88.6,84.27,84.27,0,0,1,91.62,172.77Zm0-164.85A80.68,80.68,0,1,0,172.3,88.6,80.77,80.77,0,0,0,91.62,7.92Z"/><g class="cls-2"><path class="cls-1" d="M91.94,177.19h-1l0-3.68h1Zm1,0,0-3.67,1,0,.09,3.67Zm-3.06,0-1,0,.12-3.67,1,0Zm5.1-.05-.13-3.67,1-.05.18,3.68Zm-7.14,0-1-.05.2-3.68,1,.05ZM97,177l-.22-3.67,1-.07.26,3.67Zm-11.22,0-1-.07.28-3.67,1,.07Zm13.26-.13-.31-3.66,1-.09.34,3.66Zm-15.29,0-1-.09.37-3.66,1,.09Zm17.32-.16-.39-3.66,1-.11.43,3.66Zm-19.36,0-1-.12.45-3.65,1,.11Zm21.38-.2-.46-3.65,1-.13.52,3.65Zm-23.4,0-1-.14.54-3.64,1,.14Zm25.42-.23-.54-3.64,1-.15.61,3.62Zm-27.44-.06-1-.17.62-3.62,1,.15Zm29.47-.28-.65-3.62,1-.17.68,3.61Zm-31.49-.06-1-.19.7-3.61,1,.18Zm33.49-.32-.72-3.6,1-.2.77,3.6Zm-35.49-.07-1-.21.78-3.6,1,.2Zm37.48-.35-.8-3.59.95-.22.85,3.58Zm-39.48-.09-1-.23.87-3.58,1,.23Zm41.47-.39-.88-3.57c.31-.07.63-.15.94-.24l.93,3.56Zm-43.45-.09-1-.26,1-3.55.94.25Zm45.43-.42-1-3.55.94-.26,1,3.53Zm-47.41-.1-1-.29,1-3.53.94.27Zm49.37-.46-1-3.53.93-.28,1.1,3.51Zm-51.33-.12-1-.3,1.12-3.51.94.29Zm53.29-.5-1.15-3.49.94-.31,1.17,3.48Zm-55.24-.12-1-.32L64,168.94l.93.31Zm57.16-.53-1.21-3.47.92-.33,1.26,3.46Zm-59.1-.13-1-.35,1.27-3.45.92.33Zm61-.57-1.31-3.44.92-.35,1.34,3.43Zm-63-.14L59,171l1.36-3.42c.3.13.61.24.91.36Zm64.86-.6-1.38-3.41.9-.37,1.42,3.39Zm-66.76-.16-.94-.39,1.43-3.39.91.38Zm68.64-.63-1.47-3.37.9-.39,1.5,3.36Zm-70.52-.17-1-.42L56.74,166l.9.4Zm72.37-.65L127,165.81l.88-.41,1.57,3.33ZM54.3,169l-.93-.44L55,165.22l.89.41Zm76.08-.68L128.77,165l.88-.43,1.64,3.29Zm-77.93-.21-.91-.45,1.66-3.28.88.44Zm79.75-.7-1.68-3.27.86-.46,1.72,3.25Zm-81.58-.22-.9-.48,1.74-3.24.87.46Zm83.38-.74-1.76-3.23.86-.47,1.79,3.21Zm-85.18-.23-.89-.5,1.82-3.2.85.48Zm87-.77-1.84-3.18.85-.5,1.87,3.17ZM47,165.18l-.88-.52,1.89-3.16.85.5Zm90.49-.8-1.91-3.14.83-.51,2,3.12Zm-92.24-.25-.87-.54,2-3.12.84.52Zm94-.82-2-3.1.82-.53,2,3.07ZM43.56,163l-.86-.56,2-3.06.82.54Zm97.4-.84-2-3.05.8-.55,2.09,3Zm-99.1-.28-.85-.58,2.11-3c.26.19.53.37.8.55ZM142.64,161l-2.11-3,.79-.57,2.15,3Zm-102.46-.3-.83-.6,2.18-3,.79.58Zm104.12-.9-2.19-3,.78-.59,2.22,2.93Zm-105.77-.31-.82-.62L40,156l.78.59Zm107.39-.92-2.25-2.91.76-.6,2.29,2.88Zm-109-.32-.8-.64,2.3-2.87.77.61Zm110.61-.95-2.33-2.85.76-.62,2.35,2.82ZM35.32,157c-.27-.21-.53-.43-.78-.65l2.36-2.81.75.62Zm113.76-1-2.38-2.79.74-.64,2.42,2.77Zm-115.33-.34L33,155l2.43-2.76.74.64Zm116.87-1L148.17,152l.73-.66,2.48,2.72Zm-118.4-.36-.75-.68L34,151l.72.66Zm119.91-1-2.52-2.68.71-.67,2.55,2.65C152.63,152.85,152.38,153.08,152.13,153.31ZM30.72,153l-.73-.7,2.55-2.65.71.68Zm122.88-1L151,149.28l.69-.69,2.61,2.6Zm-124.34-.37-.72-.73,2.62-2.58.69.7ZM155,150.46l-2.63-2.57.68-.7,2.66,2.53C155.52,150,155.28,150.22,155,150.46Zm-127.21-.39c-.24-.24-.47-.49-.71-.74l2.68-2.52.67.71ZM156.46,149l-2.7-2.5.67-.73,2.71,2.48Zm-130-.39-.68-.76,2.73-2.46.66.73Zm131.41-1.12L155.08,145l.65-.74,2.77,2.42Zm-132.77-.4-.67-.77,2.79-2.39c.22.24.43.49.64.73Zm134.11-1.14-2.81-2.38.63-.75,2.84,2.35Zm-135.44-.41-.65-.78,2.84-2.34.63.76Zm136.74-1.16L157.62,142c.2-.25.41-.5.61-.76l2.88,2.28Zm-138-.41-.64-.8,2.9-2.27.61.77Zm139.3-1.19-2.91-2.26.6-.77,2.93,2.22Zm-140.56-.42-.61-.81,2.94-2.2.59.78ZM163,141.13l-3-2.19c.2-.26.39-.52.58-.79l3,2.15Zm-143-.42c-.2-.28-.4-.55-.59-.83l3-2.13.56.79Zm144.2-1.24-3-2.12.56-.8,3,2.08ZM18.78,139l-.58-.84,3.05-2,.55.8Zm146.54-1.26-3.06-2,.55-.82,3.07,2Zm-147.68-.42c-.19-.28-.37-.57-.56-.86l3.1-2c.17.28.35.55.53.82Zm148.8-1.29-3.1-2c.17-.28.34-.56.52-.83L167,135.2Zm-149.9-.43c-.19-.28-.36-.57-.54-.86l3.14-1.92.51.83Zm151-1.31-3.15-1.9c.17-.28.34-.56.5-.84l3.17,1.86C167.87,133.75,167.69,134,167.52,134.33Zm-152-.42L15,133l3.18-1.85.49.84Zm153.08-1.34-3.19-1.83.49-.86,3.21,1.8Zm-154.1-.43-.5-.88,3.23-1.78c.15.29.31.57.47.86Zm155.1-1.36L166.32,129l.46-.87,3.25,1.72Zm-156.08-.42-.48-.9,3.26-1.7.46.86Zm157-1.39-3.28-1.68.45-.88,3.29,1.65Zm-158-.41c-.16-.31-.31-.61-.46-.92l3.3-1.62.44.87Zm158.89-1.42-3.31-1.6.42-.89,3.33,1.56Zm-159.79-.41-.43-.92,3.33-1.55.42.89Zm160.66-1.45-3.35-1.52c.14-.3.27-.6.4-.9l3.37,1.49Zm-161.52-.4-.41-.93,3.37-1.47.4.9Zm162.35-1.47L169.74,122c.12-.3.25-.6.38-.9l3.39,1.4ZM10,123l-.39-.94,3.4-1.39.38.9Zm163.94-1.51-3.41-1.36.36-.92,3.43,1.33C174.15,120.88,174,121.2,173.9,121.51ZM9.19,121.13c-.12-.32-.25-.63-.37-.95l3.44-1.31c.11.3.23.61.35.91Zm165.45-1.52-3.44-1.3.33-.91,3.46,1.24C174.88,119,174.76,119.29,174.64,119.61ZM8.46,119.22c-.12-.31-.23-.64-.35-1L11.58,117l.33.92Zm166.88-1.55-3.48-1.19.32-.94,3.49,1.17ZM7.78,117.3l-.33-1,3.5-1.15.31.93ZM176,115.73l-3.51-1.13.3-.93,3.51,1.08ZM7.14,115.36l-.3-1,3.51-1.08.3.94Zm169.45-1.58-3.53-1c.1-.31.19-.62.27-.94l3.54,1C176.78,113.12,176.69,113.45,176.59,113.78Zm-170-.38c-.1-.32-.19-.65-.28-1l3.54-1,.27.95Zm170.59-1.59-3.54-1c.08-.31.16-.62.25-.94l3.56.92C177.32,111.15,177.24,111.48,177.14,111.81ZM6,111.44c-.09-.33-.18-.66-.26-1l3.57-.89.24.94Zm171.66-1.61-3.58-.87.23-1,3.59.84ZM5.5,109.46l-.24-1,3.59-.82c.07.32.14.64.22,1Zm172.62-1.62-3.59-.8.21-1,3.6.75C178.27,107.18,178.2,107.51,178.12,107.84ZM5,107.46l-.21-1,3.6-.74.2,1Zm173.5-1.61-3.61-.72c.07-.32.13-.64.19-1l3.61.67C178.67,105.18,178.61,105.51,178.54,105.85ZM4.63,105.47c-.07-.34-.13-.68-.19-1l3.62-.65.18,1Zm174.28-1.63-3.62-.64c.06-.32.11-.64.16-1l3.63.59C179,103.16,179,103.5,178.91,103.84ZM4.27,103.46c-.06-.34-.12-.68-.17-1l3.64-.56.15,1Zm175-1.64-3.64-.54.14-1,3.64.51ZM4,101.44c-.05-.34-.1-.68-.14-1l3.64-.49c0,.32.09.65.14,1ZM179.52,99.8l-3.65-.47.12-1,3.65.42ZM3.68,99.41l-.12-1L7.22,98l.11,1Zm176.07-1.64-3.66-.38c0-.32.07-.65.1-1l3.66.33C179.82,97.09,179.78,97.43,179.75,97.77ZM3.46,97.38c0-.34-.07-.68-.1-1L7,96.05c0,.33,0,.65.09,1Zm176.47-1.64-3.66-.3c0-.32,0-.65.07-1l3.67.25C180,95.06,180,95.4,179.93,95.74ZM3.28,95.35c0-.34,0-.68-.07-1l3.67-.23c0,.32,0,.65.07,1Zm176.8-1.65-3.68-.22c0-.32,0-.64,0-1l3.68.17C180.11,93,180.1,93.36,180.08,93.7ZM3.15,93.31c0-.34,0-.68,0-1l3.68-.15c0,.33,0,.65,0,1Zm177-1.65-3.68-.12,0-1,3.68.09ZM3.07,91.28c0-.34,0-.68,0-1l3.68-.07c0,.33,0,.65,0,1Zm177.14-1.66-3.67,0v-1h3.68C180.22,88.94,180.22,89.28,180.21,89.62ZM3,89.24v-1l3.67,0v1Zm177.19-.9h-3.68c0-.32,0-.65,0-1l3.68-.05C180.21,87.66,180.22,88,180.22,88.34ZM6.71,87.25,3,87.2c0-.35,0-.69,0-1l3.67.11C6.73,86.6,6.72,86.93,6.71,87.25Zm169.8-.86c0-.33,0-.65,0-1l3.68-.14,0,1ZM6.77,85.29l-3.68-.14c0-.34,0-.68.05-1l3.67.19C6.79,84.64,6.78,85,6.77,85.29Zm169.67-.85-.05-1,3.67-.22.05,1ZM6.86,83.34l-3.67-.22.07-1,3.67.26Zm169.46-.86c0-.32,0-.65-.07-1l3.66-.31c0,.34.06.68.08,1ZM7,81.39l-3.66-.31.09-1,3.66.34Zm169.16-.86-.09-1,3.65-.39c0,.34.07.68.11,1Zm-169-1.09-3.66-.39.12-1,3.65.44C7.26,78.79,7.23,79.11,7.19,79.44ZM176,78.58l-.12-1,3.64-.48c.05.34.09.68.13,1ZM7.42,77.49,3.77,77c0-.34.1-.68.14-1l3.64.53C7.51,76.85,7.46,77.17,7.42,77.49Zm168.29-.85-.15-1,3.64-.55.15,1ZM7.7,75.56,4.06,75c.05-.34.11-.68.16-1l3.63.6Zm167.71-.85-.16-1,3.62-.63.17,1ZM8,73.63,4.4,73l.18-1,3.62.68Zm167-.85-.18-1,3.6-.72c.07.33.13.67.2,1ZM8.38,71.71,4.78,71,5,70l3.59.78C8.51,71.07,8.45,71.39,8.38,71.71Zm166.31-.85-.21-1,3.59-.81c.07.33.14.67.22,1ZM8.79,69.79,5.2,69l.24-1L9,68.84C8.94,69.16,8.86,69.47,8.79,69.79ZM174.26,69c-.08-.32-.16-.63-.23-1l3.57-.88.24,1Zm-165-1.06L5.68,67c.08-.33.17-.66.25-1l3.56.94Zm164.53-.84c-.08-.31-.16-.63-.25-.94l3.55-1c.09.33.18.66.26,1Zm-164-1L6.2,65l.27-1,3.54,1Zm163.53-.83c-.09-.31-.18-.63-.28-.94l3.53-1.06c.1.33.19.66.28,1Zm-163-1.06L6.76,63.05l.3-1,3.52,1.09Zm162.42-.81-.3-.94,3.5-1.14.31,1ZM10.87,62.24,7.38,61.1c.1-.33.21-.65.32-1l3.48,1.19Zm161.23-.81c-.1-.31-.21-.62-.31-.92l3.47-1.22.33,1Zm-160.6-1L8,59.15l.34-1,3.46,1.26Zm160-.79-.34-.92,3.44-1.3.35,1ZM12.18,58.53l-3.44-1.3c.12-.32.24-.64.37-1l3.42,1.35C12.41,57.92,12.29,58.23,12.18,58.53Zm158.59-.78-.36-.91,3.4-1.38c.13.32.26.64.38,1Zm-157.88-1-3.4-1.39.38-.94,3.4,1.41ZM170,55.94c-.13-.3-.26-.6-.38-.9L173,53.59c.14.31.27.62.4.94Zm-156.39-1-3.37-1.46.41-.93L14.05,54Zm155.62-.74c-.14-.3-.27-.59-.4-.89l3.34-1.53.42.93Zm-154.81-1-3.35-1.54.44-.93,3.32,1.58C14.73,52.51,14.59,52.8,14.46,53.1Zm154-.72L168,51.5l3.31-1.61.44.92ZM15.3,51.33,12,49.71l.46-.92,3.28,1.66C15.59,50.74,15.44,51,15.3,51.33Zm152.3-.71c-.15-.29-.29-.58-.44-.86l3.27-1.69.46.91Zm-151.42-1-3.27-1.68.48-.91,3.24,1.73Zm150.53-.68-.46-.86,3.22-1.76c.17.3.33.6.49.9Zm-149.61-1-3.22-1.76.49-.9L17.58,47Zm148.67-.66-.48-.85,3.19-1.84c.17.3.34.59.5.89Zm-147.7-1-3.19-1.84c.17-.29.34-.59.52-.88l3.16,1.88C18.39,45.57,18.23,45.85,18.07,46.13Zm146.73-.65-.5-.83,3.14-1.91.53.87Zm-145.73-1-3.14-1.91c.17-.3.35-.59.53-.87l3.12,1.94Zm144.72-.63-.52-.83,3.1-2,.54.86Zm-143.68-1-3.1-2,.56-.86,3.07,2C20.46,42.24,20.28,42.51,20.11,42.79Zm142.63-.62-.54-.81,3.05-2.06.56.85Zm-141.56-1-3.05-2.06.58-.84,3,2.09Zm140.47-.61c-.19-.26-.37-.53-.56-.8l3-2.12.58.84Zm-139.35-1-3-2.13.6-.83,3,2.17ZM160.52,39l-.57-.79,3-2.19.61.83ZM23.45,38,20.5,35.76c.2-.28.41-.55.62-.82L24,37.18C23.84,37.43,23.64,37.69,23.45,38Zm135.91-.57-.59-.78,2.9-2.25.62.81Zm-134.72-1-2.9-2.27.63-.8,2.88,2.3C25,35.88,24.84,36.14,24.64,36.4Zm133.52-.57c-.2-.25-.4-.51-.61-.76l2.85-2.32c.22.26.43.53.64.79Zm-132.3-1L23,32.54l.65-.79,2.83,2.36Zm131.07-.55-.63-.75,2.8-2.39.66.78Zm-129.81-1L24.33,31,25,30.2l2.77,2.42Zm128.54-.53-.64-.74,2.74-2.45.67.77ZM28.41,31.89l-2.74-2.46.69-.75,2.71,2.49C28.84,31.41,28.63,31.65,28.41,31.89Zm126-.52-.66-.72,2.68-2.51.7.75ZM29.73,30.45l-2.68-2.52.7-.74,2.66,2.55C30.18,30,30,30.21,29.73,30.45ZM153,29.94l-.67-.71L155,26.66c.24.24.48.49.71.74ZM31.09,29l-2.62-2.58.72-.72,2.59,2.6Zm120.57-.5-.7-.69,2.57-2.63.73.72ZM32.48,27.66,29.92,25l.73-.7L33.19,27Zm117.78-.49-.72-.67,2.51-2.69.75.7ZM33.9,26.31l-2.5-2.69.75-.69,2.47,2.72Zm114.93-.48c-.25-.21-.49-.43-.73-.65l2.44-2.75.76.68ZM35.35,25l-2.44-2.75.77-.68,2.4,2.79Zm112-.47-.74-.64,2.38-2.8.78.67ZM36.83,23.72l-2.38-2.81c.26-.22.52-.44.79-.65l2.34,2.83Zm109-.46-.76-.62,2.32-2.85.79.64ZM38.33,22.47,36,19.61l.8-.63,2.28,2.89Zm106-.45-.77-.6,2.25-2.91.81.64ZM39.87,21.26l-2.24-2.91.81-.62,2.21,2.94Zm102.93-.43-.78-.59,2.18-3,.82.62ZM41.43,20.09l-2.18-3,.83-.59,2.14,3Zm99.79-.43-.79-.57,2.12-3,.83.59ZM43,19l-2.11-3,.84-.58,2.07,3Zm96.6-.41-.81-.55,2.05-3.06.85.57Zm-95-.69-2-3.06.86-.56,2,3.08Zm93.36-.4-.83-.54,2-3.1.85.56Zm-91.73-.66-2-3.11.86-.54,1.93,3.13Zm90.07-.4-.83-.51,1.9-3.15.87.54Zm-88.41-.63L46,12.61l.87-.52,1.87,3.17Zm86.73-.38-.84-.5,1.82-3.19.89.52Zm-85-.61L47.8,11.58l.88-.5,1.79,3.21ZM133,14.4l-.85-.47,1.75-3.23.9.49Zm-81.63-.57-1.75-3.24.9-.48,1.7,3.26Zm79.91-.37-.87-.45,1.68-3.27.91.47Zm-78.19-.54L51.38,9.65l.91-.46,1.63,3.29Zm76.44-.35-.87-.43,1.6-3.31c.31.14.61.3.92.45ZM54.8,12.05,53.2,8.74l.93-.44,1.55,3.34Zm72.93-.34-.89-.41L128.36,8l.93.42Zm-71.16-.48L55.05,7.88,56,7.46l1.48,3.37Zm69.37-.33-.9-.39,1.45-3.38.94.41Zm-67.59-.46L56.91,7.06l.93-.39,1.41,3.39Zm65.79-.31-.91-.38,1.37-3.41,1,.39Zm-64-.43L58.8,6.28l.94-.37,1.33,3.43Zm62.15-.31L121.4,9l1.29-3.44,1,.37ZM62,9,60.7,5.55l.95-.35L62.9,8.66Zm58.5-.28-.93-.33,1.21-3.48,1,.34ZM63.83,8.33,62.62,4.86c.32-.12.64-.23,1-.33L64.75,8Zm54.79-.27-.93-.31,1.12-3.5,1,.32ZM65.68,7.71l-1.12-3.5,1-.3,1.09,3.51Zm51.07-.25-.94-.29,1-3.52,1,.29Zm-49.2-.32-1-3.53,1-.28,1,3.53Zm47.32-.24-.94-.26,1-3.55,1,.27ZM69.44,6.61l-1-3.56,1-.26.92,3.57ZM113,6.39,112,6.15l.88-3.57,1,.25ZM71.33,6.12l-.87-3.58,1-.23.83,3.58Zm39.75-.2-1-.22.8-3.59,1,.23ZM73.23,5.67l-.78-3.59,1-.21.75,3.6Zm35.94-.18-1-.19.71-3.61,1,.21Zm-34-.22-.71-3.6,1-.2.66,3.62Zm32.1-.16-1-.17.63-3.62,1,.18ZM77.08,4.92l-.63-3.63,1-.16L78,4.76Zm28.25-.14-1-.15L104.91,1l1,.16ZM79,4.61,78.47,1l1-.14L80,4.47Zm24.38-.12-1-.13.46-3.65,1,.13ZM81,4.34,80.49.69l1-.12.41,3.66Zm20.49-.1-1-.11.37-3.65,1,.11ZM82.89,4.12,82.52.46l1-.1L83.86,4ZM99.5,4l-1-.09L98.82.29q.51,0,1,.09Zm-14.66-.1L84.55.28l1-.08.25,3.67Zm12.71-.06-1-.06L96.79.15l1,.06ZM86.8,3.81,86.59.14l1-.05.16,3.67Zm8.8,0-1,0L94.75.05l1,.05Zm-6.85,0L88.63.05l1,0,.09,3.68Zm4.89,0-1,0L92.7,0h1Zm-2.94,0,0-3.68h1l.06,3.68Z"/></g><circle class="cls-1" cx="91.62" cy="88.6" r="2.41"/></g></g></svg>