<svg xmlns="http://www.w3.org/2000/svg" viewBox="0 0 38.04 38.4"><defs><style>.cls-1{fill:#feb113;}.cls-2{fill:#08ade5;}.cls-3{fill:#065977;}.cls-4{fill:#00b3ea;}</style></defs><title>资源 7</title><g id="图层_2" data-name="图层 2"><g id="Layer_1" data-name="Layer 1"><path class="cls-1" d="M5.05,15.41a.65.65,0,1,1,.65.65A.65.65,0,0,1,5.05,15.41Z"/><path class="cls-1" d="M7.82,9.91a.65.65,0,1,1,.65.65A.65.65,0,0,1,7.82,9.91Z"/><path class="cls-1" d="M12.7,6.08a.65.65,0,1,1,.65.64A.65.65,0,0,1,12.7,6.08Z"/><path class="cls-1" d="M18.75,4.78a.65.65,0,1,1,.65.65A.65.65,0,0,1,18.75,4.78Z"/><path class="cls-1" d="M24.73,6.23a.65.65,0,1,1,.65.65A.65.65,0,0,1,24.73,6.23Z"/><path class="cls-1" d="M29.58,10.05a.65.65,0,1,1,.65.65A.66.66,0,0,1,29.58,10.05Z"/><path class="cls-2" d="M36.86,15l-.09-.39c0-.13-.06-.28-.11-.47s-.12-.39-.18-.63a18.08,18.08,0,0,0-1.61-3.71c-.2-.37-.44-.73-.69-1.11s-.52-.75-.83-1.12a17.54,17.54,0,0,0-2.06-2.2,18,18,0,0,0-12-4.63,19.29,19.29,0,0,0-3,.24l-.7.12L15,1.27l-.65.17a6.17,6.17,0,0,0-.61.19A17.73,17.73,0,0,0,10,3.3l-.55.34a4.53,4.53,0,0,0-.4.27l-.33.23-.44-.61.34-.24L9,3l.58-.36A18.2,18.2,0,0,1,13.46.91c.2-.07.42-.13.64-.19s.44-.13.67-.18l.7-.16L16.2.25A19.62,19.62,0,0,1,19.32,0,18.66,18.66,0,0,1,33.94,7.11c.32.39.6.79.87,1.17s.5.78.71,1.16a18.25,18.25,0,0,1,1.68,3.87c.07.24.13.46.18.65s.09.36.12.49.1.41.1.41Z"/><path class="cls-3" d="M9.45,18.77V19c0,.11,0,.29,0,.51a9.11,9.11,0,0,0,.33,1.92l.09.31c0,.11.07.21.1.32s.09.22.13.34.08.23.14.34a9.8,9.8,0,0,0,.78,1.44,10,10,0,0,0,2.75,2.78,9.89,9.89,0,0,0,4.32,1.58l.31,0,.32,0h.95l.32,0c.22,0,.43-.05.65-.07A10.14,10.14,0,0,0,22,28.17c.21-.05.42-.13.63-.2l.31-.12.16-.06.15-.07a10.23,10.23,0,0,0,2.32-1.45,10.37,10.37,0,0,0,1-1,10.57,10.57,0,0,0,.86-1.11,10.1,10.1,0,0,0,.7-1.24,9.34,9.34,0,0,0,.51-1.33,9.73,9.73,0,0,0,.31-1.4,9.48,9.48,0,0,0,0-2.88,9.73,9.73,0,0,0-.31-1.4,9.65,9.65,0,0,0-1.21-2.57,11.86,11.86,0,0,0-.86-1.12,11.57,11.57,0,0,0-1-1A10.23,10.23,0,0,0,23.2,9.82l-.15-.07-.16-.06-.31-.12c-.21-.07-.42-.15-.63-.2a10.14,10.14,0,0,0-1.28-.28c-.22,0-.43-.06-.65-.07L19.7,9h-.95l-.32,0-.31,0a9.89,9.89,0,0,0-4.32,1.58,10,10,0,0,0-2.75,2.78,9.8,9.8,0,0,0-.78,1.44c-.06.11-.09.23-.14.34s-.09.23-.13.34-.07.21-.1.32l-.09.31a9.11,9.11,0,0,0-.33,1.92c0,.22,0,.4,0,.51v.18H8.92v-.19c0-.12,0-.3,0-.54a9.56,9.56,0,0,1,.35-2l.09-.33.12-.34A2.48,2.48,0,0,1,9.63,15c0-.12.09-.24.15-.36a9.49,9.49,0,0,1,.82-1.52,10.37,10.37,0,0,1,2.91-2.93,9.89,9.89,0,0,1,2.1-1.08,9.76,9.76,0,0,1,2.45-.59l.33,0,.33,0h1l.34,0c.22,0,.45,0,.67.07a10.47,10.47,0,0,1,1.35.29c.23.06.45.14.67.22l.33.13.17.06.16.07a10.08,10.08,0,0,1,2.44,1.53,10.37,10.37,0,0,1,1.07,1,9.72,9.72,0,0,1,.91,1.18,10.38,10.38,0,0,1,.74,1.3,13.24,13.24,0,0,1,.54,1.41,12,12,0,0,1,.33,1.47,12.79,12.79,0,0,1,.11,1.52,12.79,12.79,0,0,1-.11,1.52,12,12,0,0,1-.33,1.47,13.24,13.24,0,0,1-.54,1.41,10.38,10.38,0,0,1-.74,1.3,9.72,9.72,0,0,1-.91,1.18,10.61,10.61,0,0,1-3.51,2.56l-.16.07-.17.06-.33.13c-.22.08-.44.16-.67.22a10.47,10.47,0,0,1-1.35.29c-.22,0-.45.06-.67.07l-.34,0h-1l-.33,0-.33,0a9.76,9.76,0,0,1-2.45-.59,10.39,10.39,0,0,1-5-4,9.93,9.93,0,0,1-.82-1.52c-.06-.12-.1-.24-.15-.36a2.48,2.48,0,0,1-.13-.35l-.12-.34-.09-.33a9.56,9.56,0,0,1-.35-2c0-.24,0-.42,0-.54v-.19Z"/><path class="cls-1" d="M21.55,10.93l-.16,0-.44-.1a8.25,8.25,0,0,0-1.37-.17h-.74a5.82,5.82,0,0,0-.64.06,1.71,1.71,0,0,0-.25,0l-.2,0-.17,0-.2-1,.19,0,.22,0,.28,0c.21,0,.46,0,.72-.06h.84a9,9,0,0,1,1.53.19c.21.05.38.08.5.12l.18,0Z"/><path class="cls-1" d="M25.15,13.14,25,13l-.33-.31a7.49,7.49,0,0,0-1.1-.83,8.56,8.56,0,0,0-1.22-.64l-.23-.09L22,11.07,21.81,11l.32-1,.18.06.21.08.27.11a9.48,9.48,0,0,1,1.36.71,11.05,11.05,0,0,1,1.24.94l.37.35.13.14Z"/><path class="cls-1" d="M27.18,16.84v-.05a.68.68,0,0,1,0-.12,1.45,1.45,0,0,1-.06-.19c0-.07,0-.15-.07-.24A7.81,7.81,0,0,0,26.48,15a8.36,8.36,0,0,0-.74-1.16c-.12-.15-.21-.27-.29-.35l-.11-.13.76-.68.13.14.32.4a10.94,10.94,0,0,1,.83,1.3,8.77,8.77,0,0,1,.6,1.42,2.05,2.05,0,0,1,.08.28,1.15,1.15,0,0,1,.06.21c0,.06,0,.11,0,.14v.05Z"/><path class="cls-1" d="M27.08,21.07l.05-.17a.31.31,0,0,1,0-.08l0-.11c0-.07,0-.15.05-.24a8.25,8.25,0,0,0,.17-1.37c0-.13,0-.25,0-.38s0-.24,0-.36,0-.46-.06-.64-.05-.34-.07-.45a.83.83,0,0,1,0-.13.1.1,0,0,1,0,0l1-.21a.18.18,0,0,0,0,.05.93.93,0,0,0,0,.14c0,.13.06.3.08.51s0,.45.07.72,0,.27,0,.41,0,.28,0,.42a9.11,9.11,0,0,1-.19,1.54l-.06.28,0,.11,0,.1-.05.19Z"/><path class="cls-1" d="M24.87,24.69l.12-.12.32-.33a8.48,8.48,0,0,0,.83-1.1,9.06,9.06,0,0,0,.64-1.21c.06-.18.13-.32.16-.42l0-.16,1,.32-.06.18c0,.12-.11.28-.18.48A10.81,10.81,0,0,1,27,23.69a9.08,9.08,0,0,1-.94,1.24l-.35.37-.14.13Z"/><path class="cls-1" d="M21.16,26.71h.05l.12,0,.19-.05a1.35,1.35,0,0,0,.24-.08A7,7,0,0,0,23,26a7.8,7.8,0,0,0,1.16-.74l.36-.28.13-.12.68.77-.15.12c-.09.09-.23.19-.4.33a9.51,9.51,0,0,1-1.3.83,8.64,8.64,0,0,1-1.42.59l-.28.09-.21.06-.14,0H21.4Z"/><path class="cls-1" d="M16.93,26.61l.17.05.44.11a9.43,9.43,0,0,0,1.36.16h.74c.24,0,.46,0,.65-.06a1.9,1.9,0,0,0,.25,0l.19,0,.13,0h0l.21,1h-.05l-.14,0-.22,0-.29,0c-.2,0-.45,0-.72.06h-.83a8.85,8.85,0,0,1-1.53-.19c-.21-.05-.38-.08-.5-.12l-.18-.05Z"/><path class="cls-1" d="M13.33,24.41l.12.13.33.31a8.48,8.48,0,0,0,1.1.83,9.06,9.06,0,0,0,1.21.64l.24.09.1,0,.08,0,.17.05-.32,1-.19-.06-.09,0L16,27.36l-.27-.1a9.7,9.7,0,0,1-1.37-.72,9.81,9.81,0,0,1-1.23-.93l-.38-.35-.13-.14Z"/><path class="cls-3" d="M14.91,36l.19-.77.24.06.29.07.18,0,.22,0,.5.09.62.08.34.05.37,0c.26,0,.53,0,.81,0a16.79,16.79,0,0,0,9.11-2.3,17,17,0,0,0,7.89-10.47,17.3,17.3,0,0,0,.18-7.52,17.5,17.5,0,0,0-1.21-3.71c-.13-.3-.29-.58-.44-.88L34,10.39,33.72,10A18,18,0,0,0,32.6,8.35,16.93,16.93,0,0,0,7.13,6.92c-.17.18-.34.35-.5.53L6.16,8l-.43.55c-.14.18-.27.37-.4.55A16.87,16.87,0,0,0,4,11.28a17.37,17.37,0,0,0-1.37,3.91,17.63,17.63,0,0,0-.35,2.64c0,.31,0,.54,0,.7v.24H0S0,18.5,0,18c0-.23,0-.52.05-.85s.07-.69.12-1.1c0-.2.06-.4.1-.62s.07-.44.12-.67.11-.45.16-.69.13-.48.2-.72a20.1,20.1,0,0,1,1.14-3A19.76,19.76,0,0,1,5.27,5.54l.41-.41.37-.36c.24-.23.46-.42.64-.57s.31-.28.42-.36l.15-.12L8.19,4.9l.33-.26.4-.29.26-.18a.71.71,0,0,1,.14-.1L9.48,4A17.56,17.56,0,0,1,13.2,2.09a18.84,18.84,0,0,1,2.7-.74c.24,0,.49-.09.74-.12l.77-.1.78-.06L19,1a18,18,0,0,1,3.32.27,17.17,17.17,0,0,1,3.31.92,17,17,0,0,1,3.07,1.54,17.92,17.92,0,0,1,2.64,2,18.47,18.47,0,0,1,2.08,2.31,17.88,17.88,0,0,1,1.49,2.35l.29.57c.09.19.18.37.26.55l.12.27c0,.09.07.17.1.26s.14.34.2.51c.12.33.23.64.32.93l.23.81c.11.49.2.88.24,1.14s.08.41.08.41l1.06-.17,0,.19c0,.12,0,.3.07.53s0,.24.05.38,0,.29,0,.45l0,.51c0,.18,0,.37,0,.56,0,.4,0,.82,0,1.28,0,.22,0,.45,0,.69l0,.36c0,.12,0,.24-.05.37s0,.24,0,.37,0,.25-.05.37-.09.51-.14.76l-.18.77c-.06.26-.13.51-.21.76A17.28,17.28,0,0,1,36.15,27a19.65,19.65,0,0,1-1.35,2.34c-.45.65-.86,1.17-1.16,1.53l-.47.54.61.56-.52.54a18.38,18.38,0,0,1-1.47,1.36A19.53,19.53,0,0,1,29.5,35.5,19.05,19.05,0,0,1,26.61,37c-.26.1-.51.21-.77.3l-.78.26-.78.22-.76.19a18.82,18.82,0,0,1-2.79.41l-.6,0H19.6a8.17,8.17,0,0,1-.86,0l-.56,0H18l.12-1.9-.5,0-.51-.06-.59-.08-.59-.1-.27,0-.24-.06ZM31.5,33.1l.32-.28.21-.2.1-.09-.74-.78-.09.09a1.9,1.9,0,0,1-.2.18l-.3.26Zm-1.29,1,.34-.25.33-.26-.66-.84L29.9,33l-.32.24Zm-1.38.9.36-.22.36-.23-.59-.9-.33.22c-.17.11-.35.2-.35.2Zm-1.45.77.12-.05.26-.14.38-.19-.51-.95-.36.19-.24.12-.11.06Zm-1.51.65.39-.16.27-.1.13-.06-.43-1-.11,0-.26.11-.37.14Zm-1.57.51.41-.12.28-.09.12,0-.33-1-.12,0a1.34,1.34,0,0,1-.26.08L24,35.9Zm-1.6.37.13,0,.29-.06.41-.1-.24-1-.39.09-.27,0-.13,0Zm-1.63.23h.13l.29,0,.42-.05-.15-1.06-.39,0-.28,0H21Zm-1.63.09h.84l-.06-1.07h-.79Z"/><path class="cls-2" d="M4.48,18.77H6.53V19c0,.13,0,.31,0,.54a13.72,13.72,0,0,0,.25,1.89,12.14,12.14,0,0,0,.83,2.55,12.39,12.39,0,0,0,1.58,2.64,13.09,13.09,0,0,0,1,1.18,12.8,12.8,0,0,0,3.42,2.44,12.39,12.39,0,0,0,1.77.7l.51.15.18.05.21-.83.53.12c.17,0,.38.08.62.11s.51.07.81.09a11.76,11.76,0,0,0,6.47-1.33,12.37,12.37,0,0,0,1.71-1.1,11.3,11.3,0,0,0,1.09-.95l.28-.29.1-.1-.65-.6.06-.07.16-.19c.15-.16.34-.4.56-.69a11.37,11.37,0,0,0,1.32-2.35c0-.12.09-.23.13-.35s.08-.23.12-.34.14-.46.21-.68.05-.22.07-.33A1.83,1.83,0,0,0,30,20.9l.06-.3a.59.59,0,0,1,0-.14c0-.05,0-.1,0-.14,0-.19,0-.35.06-.5s0-.28,0-.39,0-.19,0-.25v-.09l.15-.23c.09-.14.18-.33.29-.53l.08-.15.07-.14.12-.26.09-.19,0-.08,0-.23c0-.08,0-.17,0-.29s0-.23-.07-.38a11.83,11.83,0,0,0-.67-2.29,1.34,1.34,0,0,0-.07-.18L30.08,14c0-.12-.1-.24-.16-.36s-.24-.49-.39-.73-.3-.49-.46-.74-.35-.5-.54-.74a11.94,11.94,0,0,0-2.87-2.6,11.22,11.22,0,0,0-1.74-.93,12.85,12.85,0,0,0-1.81-.61A12.71,12.71,0,0,0,20.35,7l-.42,0h-.41c-.26,0-.52,0-.77,0l-.37,0L18,7l-.64.08-.56.1-.46.11-.65.18-.23.07.25.75-.11,0-.33.12a9.07,9.07,0,0,0-1.13.5,10.27,10.27,0,0,0-1.49.92,11.53,11.53,0,0,0-1.5,1.33,11.06,11.06,0,0,0-2.07,3.11L9,14.45a1.11,1.11,0,0,0-.07.16l-.12.31c-.07.2-.12.37-.17.51-.09.29-.13.45-.13.45l-.76-.2a.64.64,0,0,0,0,.12l-.08.35c0,.07,0,.15,0,.23s0,.17,0,.26l-.05.28c0,.09,0,.19,0,.29s0,.19,0,.29,0,.19,0,.28,0,.35,0,.5,0,.49,0,.49H2.9v-.23c0-.15,0-.38,0-.68a17.38,17.38,0,0,1,.34-2.54,16.37,16.37,0,0,1,1.31-3.77A16.88,16.88,0,0,1,5.83,9.44c.13-.18.25-.36.39-.54l.41-.52.45-.52c.16-.18.32-.34.49-.52A16.33,16.33,0,0,1,19.21,2.43,16.64,16.64,0,0,1,26.29,4a16.39,16.39,0,0,1,5.83,4.7,18.63,18.63,0,0,1,1.08,1.55l.24.42c.07.13.16.27.23.41s.29.56.42.85a16.37,16.37,0,0,1,1.16,3.57,16.33,16.33,0,0,1-7.78,17.35,16.08,16.08,0,0,1-4.81,1.86,15.87,15.87,0,0,1-4,.35c-.27,0-.54,0-.78,0l-.36,0-.33,0-.59-.08-.49-.09-.21,0-.17,0-.28-.06-.23-.06.24-.93.35.08c.23.06.57.12,1,.19l.73.1.86.07a16.19,16.19,0,0,0,2.06,0,15.22,15.22,0,0,0,5-1.27,15.56,15.56,0,0,0,4.83-3.4,15.43,15.43,0,0,0,4-7.59,14.45,14.45,0,0,0,.29-2.43,15.21,15.21,0,0,0-.28-3.64c0-.22-.09-.41-.13-.58s0-.16,0-.23l-.06-.19L34,14.4l-1.22.36.09.32a.78.78,0,0,1,0,.18,1.08,1.08,0,0,1,0,.21c0,.15.08.33.12.53a14.42,14.42,0,0,1,.26,3.34,15.29,15.29,0,0,1-.26,2.23,14.49,14.49,0,0,1-.72,2.4A14.06,14.06,0,0,1,25,31.64a13.91,13.91,0,0,1-4.58,1.18,15.39,15.39,0,0,1-1.9,0l-.79-.06-.66-.09-.93-.18-.32-.08.22-.87-.2-.05-.42-.13L15,31.26l-.19-.07-.22.63h-.05l-.14,0-.51-.17a15.86,15.86,0,0,1-1.77-.79,13.62,13.62,0,0,1-2.31-1.52A14.68,14.68,0,0,1,7.54,27a15.52,15.52,0,0,1-.94-1.35c-.14-.24-.28-.47-.4-.7L6,24.6a3.78,3.78,0,0,1-.17-.35,14.82,14.82,0,0,1-1-2.69,15,15,0,0,1-.35-2C4.51,19.06,4.48,18.77,4.48,18.77Zm.62-6.48L5,12.51a2,2,0,0,0-.12.25c0,.1-.08.21-.13.33a15.66,15.66,0,0,0-.59,1.82l-.12.51c0,.08,0,.16,0,.25s0,.16,0,.24-.05.32-.08.46,0,.29-.05.42,0,.25,0,.36,0,.19,0,.27l0,.24,3,.21v-.19c0-.07,0-.14,0-.23s0-.18,0-.28,0-.22,0-.34,0-.25.07-.38l0-.19a1.17,1.17,0,0,1,0-.2l.09-.41a13.41,13.41,0,0,1,.48-1.47l.1-.27a1.65,1.65,0,0,0,.09-.21l.08-.17ZM9.25,6.86,9.06,7c-.11.11-.28.24-.46.43l-.31.29c-.11.1-.21.22-.33.34s-.45.49-.68.76a17.34,17.34,0,0,0-1.13,1.54l-.19.3-.14.24-.12.21,2.59,1.46.1-.17a2.19,2.19,0,0,1,.11-.19L8.65,12a12.24,12.24,0,0,1,.92-1.25c.18-.21.36-.43.55-.62l.26-.27.25-.24c.15-.15.29-.26.38-.34l.15-.13Zm6.07-3.14-.23.07c-.15,0-.36.09-.61.18l-.4.13-.44.16-.47.19-.47.21-.47.23-.45.23-.41.24-.18.11-.18.1-.53.35-.19.14L12,8.49l.16-.12.43-.27L12.73,8l.15-.09.33-.19.36-.19c.12-.06.25-.13.38-.18l.38-.17L14.71,7l.36-.14.32-.11.49-.14.18-.05Zm6.82-.22-.23,0-.27,0-.36-.05-.42,0-.46,0c-.33,0-.68,0-1,0h-.51c-.17,0-.34,0-.51,0l-.46,0-.22,0-.2,0-.63.09-.24,0,.5,2.93.19,0,.51-.06.16,0,.18,0,.38,0h.83a7.58,7.58,0,0,1,.83,0l.38,0,.33,0,.29,0,.22,0,.19,0Zm6.27,2.72-.2-.14c-.12-.09-.3-.22-.52-.36l-.35-.22-.41-.24c-.28-.17-.59-.32-.9-.48a16,16,0,0,0-1.77-.73l-.61-.19-.23-.06-.79,2.86.18,0,.49.16a11.32,11.32,0,0,1,1.43.58c.25.13.5.25.73.39l.33.19.28.19.43.28.15.11Zm4.5,5.14-.12-.21c-.08-.13-.18-.33-.32-.55l-.23-.35-.12-.19L32,9.86l-.3-.41L31.36,9c-.1-.14-.22-.27-.33-.4s-.22-.26-.33-.37l-.32-.34-.16-.16-.14-.14c-.19-.18-.35-.34-.46-.43L29.44,7l-2,2.24.14.13c.1.08.22.2.37.35l.12.11.13.13.26.27.27.31.27.32.26.33.23.33.12.16a.86.86,0,0,0,.1.16l.18.29.26.44.1.16Z"/><path class="cls-1" d="M14.89,32.68l.08,0,.25.07.4.11.55.13a14.86,14.86,0,0,0,3.46.32c.36,0,.73,0,1.12-.07l.59-.08c.2,0,.4-.06.6-.1a14.35,14.35,0,0,0,7.25-3.68,14.8,14.8,0,0,0,3.29-4.55,15.66,15.66,0,0,0,.87-2.45,15.91,15.91,0,0,0,.39-2.29,15,15,0,0,0-.09-3.48c0-.21-.07-.39-.1-.55s0-.16,0-.22,0-.13,0-.19l-.08-.33.33.3s0,.12.06.34,0,.26.08.42,0,.35.08.57,0,.21,0,.33,0,.24,0,.37,0,.26,0,.4,0,.28,0,.43c0,.3,0,.62,0,.95,0,.17,0,.34,0,.51s0,.36,0,.54a14.85,14.85,0,0,1-9.77,12.24,15,15,0,0,1-2.56.65,15.38,15.38,0,0,1-2.36.19,15.12,15.12,0,0,1-3.51-.41L15.2,33l-.41-.12-.33-.11Z"/><path class="cls-3" d="M6.3,27.47l0,.21c0,.13,0,.29,0,.46,0,.35,0,.69,0,.69l.68.15.67.11.14.15.3.34c.12.12.23.24.32.32l.14.15.74-.75L9,29.18l-.36-.34-.24-.22-.26-.27-.27-.29-.27-.31c-.35-.41-.68-.86-.92-1.2-.12-.16-.21-.31-.28-.41L6.32,26l-.69.37.1.17c.06.11.13.26.22.4Z"/><path class="cls-3" d="M10.15,31.16s.06.32.14.65c0,.17.08.33.12.45l.06.21.21,0,.47-.06.67-.13.17.1.4.21.4.19.18.09.45-1-.17-.07a4.16,4.16,0,0,1-.45-.19c-.18-.08-.4-.17-.63-.29l-.7-.38-.35-.2-.32-.21c-.22-.13-.41-.27-.58-.39L10,30l-.17-.13-.14-.12-.53.59.15.13.15.14.19.15L10,31l.12.09Z"/><path class="cls-3" d="M3.87,22.7l-.1.18c0,.12-.13.27-.2.43s-.15.31-.2.43L3.29,24l.6.37.41.24.19.1s.12.32.26.62c.06.15.13.31.18.42l.1.19L6,25.44l-.09-.17c-.06-.1-.14-.26-.23-.44l-.15-.31c0-.11-.11-.22-.16-.34s-.21-.5-.31-.76L5,23.23a1.59,1.59,0,0,0-.07-.2l-.12-.38c-.09-.25-.15-.49-.21-.69s-.09-.38-.12-.5l0-.19-.78.11,0,.21c0,.12,0,.29.09.45Z"/><path class="cls-2" d="M2.31,19.55s0,.08,0,.23,0,.37.05.65,0,.3.06.47,0,.35.07.54.07.4.11.62.1.44.15.68a17,17,0,0,0,1.09,3.13,15.49,15.49,0,0,0,.88,1.65c.17.27.34.55.52.81l.28.4.14.19.15.19a17.08,17.08,0,0,0,2.63,2.73,17.86,17.86,0,0,0,2.74,1.85,17.67,17.67,0,0,0,2.14,1l.62.22.22.07-.23.76-.23-.08c-.15,0-.38-.12-.65-.23a18,18,0,0,1-2.24-1A18.5,18.5,0,0,1,8,32.45a17.87,17.87,0,0,1-2.76-2.86L5,29.39l-.15-.2-.29-.41c-.19-.28-.37-.57-.55-.85a16.89,16.89,0,0,1-.91-1.73A17.57,17.57,0,0,1,2,22.93c-.06-.25-.12-.49-.16-.72s-.08-.44-.11-.64-.06-.4-.08-.58,0-.34-.06-.48c0-.3,0-.53-.05-.69a2.18,2.18,0,0,1,0-.24Z"/><path class="cls-2" d="M2.82,24.35l.14.41.18.46.12.29c0,.1.09.2.13.31a17.75,17.75,0,0,0,1.72,3,17,17,0,0,0,2.28,2.6c.17.17.33.31.47.43l.38.33.34.26-1,1.33-.38-.29-.41-.36a6.9,6.9,0,0,1-.52-.47,18.86,18.86,0,0,1-2.5-2.85,19.21,19.21,0,0,1-1.88-3.3,3.23,3.23,0,0,1-.15-.34l-.13-.31-.2-.51c-.1-.29-.15-.45-.15-.45Z"/><polygon class="cls-4" points="21.4 16.32 21.17 16.09 23.98 13.28 24.62 13.92 22.79 14.94 21.4 16.32"/><polygon class="cls-4" points="21.17 20.71 21.4 20.48 24.21 23.29 23.57 23.93 22.55 22.09 21.17 20.71"/><polygon class="cls-4" points="16.78 20.48 17.01 20.71 14.2 23.52 13.56 22.88 15.4 21.86 16.78 20.48"/><polygon class="cls-4" points="17.01 16.09 16.78 16.32 13.97 13.51 14.61 12.87 15.63 14.71 17.01 16.09"/><path class="cls-4" d="M26.07,18.31H19.66a.57.57,0,0,0-.48-.47V11.78H19v6.06a.57.57,0,0,0-.47.47H12.11v.18h6.42A.57.57,0,0,0,19,19V25h.18V19a.57.57,0,0,0,.48-.48h6.41Z"/></g></g></svg>