<svg xmlns="http://www.w3.org/2000/svg" viewBox="0 0 92.59 92.13"><defs><style>.cls-1{isolation:isolate;}.cls-2{fill:#dedede;mix-blend-mode:overlay;}.cls-3{mix-blend-mode:color-dodge;}.cls-4{fill:#9c9c9c;}.cls-5{fill:#595959;}.cls-6{fill:#b3b3b3;}</style></defs><title>资源 6</title><g class="cls-1"><g id="图层_2" data-name="图层 2"><g id="Layer_1" data-name="Layer 1"><path class="cls-2" d="M34.55,82.94a36.94,36.94,0,0,0,8,1.41A37.66,37.66,0,0,0,50.72,84a36.82,36.82,0,0,0,15.09-5.86A37.63,37.63,0,0,0,77,66.45a37.37,37.37,0,0,0,5.2-15.33l2.91.31a42.49,42.49,0,0,0,.23-4.37H81.82A36.69,36.69,0,0,1,67.09,76.48a36.66,36.66,0,0,1-7.34,4.28,36.26,36.26,0,0,1-8.14,2.47,37.82,37.82,0,0,1-8.5.53,36.75,36.75,0,0,1-8.39-1.43Z"/><path class="cls-2" d="M25.65,80.7a38.84,38.84,0,0,0,42.5-2.4,39.4,39.4,0,0,0,6.56-6.15,38.71,38.71,0,0,0,5-7.49,37.8,37.8,0,0,0,3.12-8.43l-4.54-1.1a33.61,33.61,0,0,1-1,3.42L81,59.91a37.86,37.86,0,0,1-5.35,10A38,38,0,0,1,46.55,85.21l-.06-1.43a36.63,36.63,0,0,1-19.8-4.89Z"/><path class="cls-2" d="M62.63,75.23c.66-.41,1.3-.84,1.93-1.3L64,73.21c-.61.45-1.24.87-1.88,1.27Z"/><path class="cls-2" d="M54.65,78.85c.75-.22,1.48-.47,2.2-.75l-.31-.83c-.71.27-1.42.51-2.14.73Z"/><path class="cls-2" d="M46.09,80.24c.78,0,1.55-.08,2.33-.15l-.09-.89c-.75.08-1.51.12-2.27.15Z"/><path class="cls-2" d="M65,73.57c.62-.47,1.23-1,1.81-1.47l-.58-.67c-.57.5-1.16,1-1.76,1.43Z"/><path class="cls-2" d="M53.64,79.14c.74-.2,1.49-.43,2.22-.68l-.29-.84q-1.07.36-2.16.66Z"/><path class="cls-2" d="M36.92,79.25c.75.18,1.5.35,2.27.48l.16-.87q-1.12-.19-2.22-.48Z"/><path class="cls-2" d="M41.27,80a34.59,34.59,0,0,0,6,.14l-.06-.89a33.73,33.73,0,0,1-5.86-.13Z"/><path class="cls-2" d="M59,77.2a32.85,32.85,0,0,0,5.2-3l-.51-.73a32.31,32.31,0,0,1-5.06,2.93Z"/><path class="cls-2" d="M68.57,70.5a32.85,32.85,0,0,0,3.85-4.63l-.73-.5a32.32,32.32,0,0,1-3.75,4.5Z"/><path class="cls-2" d="M54.68,78.84c.75-.22,1.48-.47,2.2-.75l-.31-.83c-.71.27-1.42.51-2.14.73Z"/><path class="cls-2" d="M76,59.07c.28-.72.54-1.46.77-2.2l-.85-.26c-.23.72-.47,1.43-.74,2.14Z"/><path class="cls-2" d="M68.33,70.74c.55-.55,1.09-1.11,1.6-1.69l-.66-.59c-.5.56-1,1.11-1.56,1.64Z"/><path class="cls-2" d="M75.11,80.66A46.12,46.12,0,0,0,80,75.5l1.54,1.26a46.87,46.87,0,0,0,7.48-12.92l-3.52-1.35a42.93,42.93,0,0,1-4.8,9.12,43.46,43.46,0,0,1-6.8,7.72Z"/><path class="cls-2" d="M34.52,86.6A40.9,40.9,0,0,0,44.23,88l-.08,4.16A43.89,43.89,0,0,0,48.59,92l-.14-1.77-1.34.08-.17-3.59a40.2,40.2,0,0,1-12.11-1.28Z"/><path class="cls-2" d="M81.45,73.66a45.9,45.9,0,0,0,2.87-4.43l-1.55-.88A42.36,42.36,0,0,1,80,72.61Z"/><path class="cls-2" d="M75.51,80.3a43.78,43.78,0,0,0,3.67-3.79l-1.34-1.16A44.83,44.83,0,0,1,74.31,79Z"/><path class="cls-2" d="M58,90.24l1.15-.37-.56-1.69-1.1.36Z"/><path class="cls-2" d="M66.27,86.84l1.06-.58-.88-1.55-1,.56Z"/><path class="cls-2" d="M73.68,81.89l.92-.78-1.17-1.34c-.29.25-.58.5-.88.74Z"/><path class="cls-2" d="M70.1,84.54l1-.68-1-1.45c-.31.23-.63.44-1,.66Z"/><path class="cls-2" d="M62.24,88.74l1.1-.47-.72-1.63-1.06.46Z"/><path class="cls-2" d="M53.69,91.3c.39-.07.79-.15,1.18-.24l-.39-1.74c-.37.08-.75.17-1.13.24Z"/><path class="cls-2" d="M44.82,92.13H46l0-1.78H44.83Z"/><path class="cls-2" d="M49.27,91.94l1.2-.13L50.26,90c-.38,0-.77.09-1.15.12Z"/><polygon class="cls-2" points="38.86 81.56 39.21 81.62 39.06 82.54 38.69 82.47 38.86 81.56"/><polygon class="cls-2" points="44.73 82.11 45.09 82.11 45.09 83.04 44.72 83.03 44.73 82.11"/><polygon class="cls-2" points="42.26 82 42.62 82.02 42.56 82.95 42.19 82.92 42.26 82"/><polygon class="cls-2" points="40.72 81.84 41.07 81.88 40.97 82.8 40.6 82.76 40.72 81.84"/><polygon class="cls-2" points="35.31 80.73 35.65 80.83 35.4 81.72 35.05 81.63 35.31 80.73"/><polygon class="cls-2" points="38.43 81.48 38.78 81.55 38.62 82.46 38.25 82.39 38.43 81.48"/><polygon class="cls-2" points="34.48 80.48 34.82 80.59 34.55 81.47 34.2 81.37 34.48 80.48"/><polygon class="cls-2" points="33.72 80.23 34.06 80.34 33.77 81.22 33.42 81.11 33.72 80.23"/><polygon class="cls-2" points="33.84 80.27 34.18 80.38 33.89 81.27 33.54 81.15 33.84 80.27"/><polygon class="cls-2" points="42.08 81.98 42.44 82.01 42.38 82.94 42.01 82.91 42.08 81.98"/><polygon class="cls-2" points="29.86 78.64 30.18 78.8 29.79 79.64 29.45 79.48 29.86 78.64"/><polygon class="cls-2" points="35.57 80.81 35.92 80.9 35.68 81.8 35.32 81.7 35.57 80.81"/><polygon class="cls-2" points="30.03 78.72 30.35 78.88 29.96 79.72 29.63 79.56 30.03 78.72"/><polygon class="cls-2" points="31.55 79.41 31.88 79.54 31.53 80.41 31.19 80.26 31.55 79.41"/><polygon class="cls-2" points="82.81 63.05 82.97 62.66 83.83 63.01 83.66 63.41 82.81 63.05"/><polygon class="cls-2" points="84.94 56.51 85.04 56.09 92.59 57.79 92.48 58.28 84.94 56.51"/><polygon class="cls-2" points="84.19 59.28 84.31 58.88 85.2 59.14 85.07 59.55 84.19 59.28"/><polygon class="cls-2" points="83.61 61 83.75 60.6 84.63 60.91 84.48 61.32 83.61 61"/><polygon class="cls-2" points="80.93 66.88 81.14 66.51 81.95 66.96 81.75 67.33 80.93 66.88"/><polygon class="cls-2" points="82.6 63.51 82.77 63.13 83.63 63.49 83.45 63.89 82.6 63.51"/><polygon class="cls-2" points="80.43 67.76 80.64 67.4 81.45 67.86 81.23 68.23 80.43 67.76"/><polygon class="cls-2" points="79.95 68.57 80.17 68.21 80.96 68.69 80.74 69.06 79.95 68.57"/><polygon class="cls-2" points="80.03 68.44 80.25 68.08 81.05 68.55 80.82 68.92 80.03 68.44"/><polygon class="cls-2" points="84.13 59.48 84.25 59.08 85.14 59.35 85.01 59.76 84.13 59.48"/><polygon class="cls-2" points="77.14 72.56 77.4 72.23 78.14 72.8 77.87 73.14 77.14 72.56"/><polygon class="cls-2" points="81.09 66.6 81.29 66.23 82.11 66.66 81.91 67.04 81.09 66.6"/><polygon class="cls-2" points="77.28 72.39 77.54 72.06 78.27 72.62 78.01 72.96 77.28 72.39"/><polygon class="cls-2" points="78.45 70.82 78.69 70.48 79.45 71.01 79.2 71.36 78.45 70.82"/><path class="cls-2" d="M76.23,63.11q.34-.68.66-1.35l.85.39c-.22.46-.44.93-.68,1.38Z"/><path class="cls-2" d="M70.5,71.17c.33-.35.65-.7,1-1.06l.7.61c-.32.37-.66.73-1,1.09Z"/><path class="cls-2" d="M69.74,72l.57-.58L71,72c-.2.2-.39.4-.59.59Z"/><polygon class="cls-2" points="67.91 73.64 68.3 73.3 68.91 74 68.52 74.35 67.91 73.64"/><path class="cls-2" d="M61.55,78c.54-.29,1.08-.6,1.61-.91l.48.79c-.55.33-1.1.64-1.65.94Z"/><polygon class="cls-2" points="55.08 80.66 55.33 80.58 55.61 81.47 55.34 81.55 55.08 80.66"/><path class="cls-2" d="M74.74,65.72c.27-.42.52-.85.77-1.29l.81.46c-.25.45-.52.89-.79,1.33Z"/><path class="cls-2" d="M71.29,70.31c.32-.36.64-.73.94-1.1l.72.59c-.31.38-.63.76-1,1.12Z"/><path class="cls-2" d="M67.37,74.1l.62-.53.61.71-.64.54Z"/><polygon class="cls-2" points="62.76 77.32 63.21 77.06 63.69 77.85 63.23 78.12 62.76 77.32"/><path class="cls-2" d="M57,80c.57-.2,1.15-.43,1.72-.67l.36.86c-.59.25-1.17.47-1.77.69Z"/><polygon class="cls-2" points="52.16 81.39 52.42 81.34 52.62 82.24 52.35 82.3 52.16 81.39"/><path class="cls-2" d="M19.27,20A37.34,37.34,0,0,0,7.77,49.49,37.1,37.1,0,0,0,12.29,65,37.65,37.65,0,0,0,23,77.22l-1.73,2.36A41.77,41.77,0,0,0,24.91,82l1.78-3.08a36.75,36.75,0,0,1-7-58.42Z"/><path class="cls-2" d="M25.65,13.42A39,39,0,0,0,8.59,33.7a38.82,38.82,0,0,0,3.92,34.54,39.3,39.3,0,0,0,5.75,6.92l3.23-3.38A33.62,33.62,0,0,1,19,69.17L16,71.78A38.06,38.06,0,0,1,7.11,51.24a38.65,38.65,0,0,1,.44-11.31,37.94,37.94,0,0,1,3.73-10.67l1.27.67a36.77,36.77,0,0,1,14.14-14.7Z"/><path class="cls-2" d="M11.9,48.2c0,.78.08,1.55.15,2.32l.89-.09c-.08-.75-.13-1.51-.15-2.26Z"/><path class="cls-2" d="M12.75,39.46q-.27,1.13-.45,2.28l.88.14c.12-.74.26-1.48.43-2.22Z"/><path class="cls-2" d="M15.82,31.35c-.37.69-.71,1.38-1,2.09l.81.36c.31-.68.64-1.36,1-2Z"/><path class="cls-2" d="M12.12,51.12c.09.77.22,1.54.36,2.3l.88-.17c-.15-.74-.26-1.49-.36-2.24Z"/><path class="cls-2" d="M13,38.43c-.2.75-.38,1.51-.53,2.27l.88.17c.14-.74.31-1.48.51-2.21Z"/><path class="cls-2" d="M21.27,23.92c-.54.56-1.06,1.13-1.56,1.72l.68.58c.49-.58,1-1.14,1.52-1.68Z"/><path class="cls-2" d="M18.4,27.29a32.42,32.42,0,0,0-3.13,5.13l.8.39a31.88,31.88,0,0,1,3.05-5Z"/><path class="cls-2" d="M12,44.06a33.62,33.62,0,0,0,0,6L12.9,50a31.86,31.86,0,0,1,0-5.86Z"/><path class="cls-2" d="M13,55.7a33.06,33.06,0,0,0,2.08,5.63l.8-.38a32.45,32.45,0,0,1-2-5.48Z"/><path class="cls-2" d="M12.74,39.49q-.26,1.13-.45,2.28l.88.14c.12-.74.27-1.49.44-2.22Z"/><path class="cls-2" d="M19.2,67.85c.48.61,1,1.2,1.52,1.77l.65-.61c-.51-.55-1-1.13-1.48-1.71Z"/><path class="cls-2" d="M12.93,55.38c.19.75.41,1.49.65,2.22l.85-.28c-.24-.71-.45-1.44-.64-2.17Z"/><path class="cls-2" d="M.94,56.28a45.08,45.08,0,0,0,2,6.84l-1.86.71A47,47,0,0,0,8.56,76.76l2.92-2.38A43.31,43.31,0,0,1,6,65.68a42.7,42.7,0,0,1-3.3-9.76Z"/><path class="cls-2" d="M16.11,18.16a41,41,0,0,0-6,7.72L6.5,23.72q-1.15,1.91-2.11,3.92l1.6.77c.19-.41.39-.81.6-1.21l3.2,1.65A39.62,39.62,0,0,1,17,19Z"/><path class="cls-2" d="M3.83,65.28A45.15,45.15,0,0,0,6.25,70l1.53-.9a43.64,43.64,0,0,1-2.32-4.51Z"/><path class="cls-2" d="M1.05,56.8a46.7,46.7,0,0,0,1.44,5.08l1.68-.58a45.93,45.93,0,0,1-1.38-4.88Z"/><path class="cls-2" d="M1.2,36.7c-.09.39-.18.78-.26,1.18l1.74.36c.08-.38.16-.76.25-1.13Z"/><path class="cls-2" d="M0,45.53c0,.4,0,.8,0,1.2l1.78,0c0-.39,0-.77,0-1.16Z"/><path class="cls-2" d="M.6,54.42c.06.4.13.79.21,1.18l1.75-.33q-.12-.57-.21-1.14Z"/><path class="cls-2" d="M.09,50c0,.4.06.8.1,1.2L2,51c0-.38-.07-.76-.09-1.15Z"/><path class="cls-2" d="M.39,41.09c0,.4-.1.8-.14,1.19L2,42.47c0-.38.08-.76.14-1.15Z"/><path class="cls-2" d="M2.43,32.41c-.13.38-.25.76-.37,1.14l1.7.54c.11-.37.23-.74.36-1.1Z"/><path class="cls-2" d="M6.16,24.31c-.21.34-.4.69-.6,1l1.56.86.57-1Z"/><path class="cls-2" d="M4.1,28.26c-.17.37-.34.74-.49,1.1l1.63.7c.15-.35.31-.7.47-1Z"/><polygon class="cls-2" points="18.3 24.44 18.06 24.72 17.35 24.13 17.59 23.84 18.3 24.44"/><polygon class="cls-2" points="14.88 29.24 14.7 29.55 13.9 29.09 14.08 28.77 14.88 29.24"/><polygon class="cls-2" points="16.21 27.17 16 27.47 15.23 26.95 15.44 26.64 16.21 27.17"/><polygon class="cls-2" points="17.12 25.91 16.9 26.2 16.16 25.65 16.38 25.35 17.12 25.91"/><polygon class="cls-2" points="20.8 21.78 20.54 22.03 19.89 21.37 20.15 21.11 20.8 21.78"/><polygon class="cls-2" points="18.58 24.11 18.35 24.39 17.64 23.78 17.88 23.5 18.58 24.11"/><polygon class="cls-2" points="21.43 21.19 21.16 21.43 20.53 20.75 20.8 20.5 21.43 21.19"/><polygon class="cls-2" points="22.03 20.65 21.76 20.89 21.14 20.2 21.42 19.95 22.03 20.65"/><polygon class="cls-2" points="21.93 20.74 21.66 20.98 21.04 20.29 21.32 20.04 21.93 20.74"/><polygon class="cls-2" points="16.31 27.02 16.11 27.32 15.34 26.8 15.55 26.49 16.31 27.02"/><polygon class="cls-2" points="25.33 18.09 25.04 18.3 24.5 17.54 24.81 17.33 25.33 18.09"/><polygon class="cls-2" points="20.6 21.97 20.34 22.23 19.69 21.57 19.95 21.31 20.6 21.97"/><polygon class="cls-2" points="25.18 18.2 24.88 18.41 24.35 17.65 24.65 17.44 25.18 18.2"/><polygon class="cls-2" points="23.83 19.18 23.54 19.4 22.97 18.67 23.26 18.44 23.83 19.18"/><polygon class="cls-2" points="12.36 71.74 12.62 72.08 11.88 72.64 11.62 72.3 12.36 71.74"/><polygon class="cls-2" points="16.96 76.86 17.27 77.16 12.01 82.84 11.65 82.49 16.96 76.86"/><polygon class="cls-2" points="14.94 74.82 15.22 75.13 14.55 75.77 14.25 75.45 14.94 74.82"/><polygon class="cls-2" points="13.73 73.46 14.01 73.78 13.3 74.39 13.02 74.06 13.73 73.46"/><polygon class="cls-2" points="9.97 68.21 10.19 68.57 9.4 69.06 9.17 68.69 9.97 68.21"/><polygon class="cls-2" points="12.06 71.33 12.31 71.67 11.57 72.23 11.31 71.89 12.06 71.33"/><polygon class="cls-2" points="9.46 67.33 9.67 67.7 8.87 68.17 8.65 67.8 9.46 67.33"/><polygon class="cls-2" points="9 66.52 9.21 66.88 8.39 67.33 8.18 66.96 9 66.52"/><polygon class="cls-2" points="9.08 66.65 9.28 67.02 8.47 67.47 8.26 67.1 9.08 66.65"/><polygon class="cls-2" points="14.79 74.67 15.08 74.98 14.4 75.61 14.11 75.3 14.79 74.67"/><polygon class="cls-2" points="6.94 62.09 7.1 62.48 6.24 62.83 6.08 62.43 6.94 62.09"/><rect class="cls-2" x="9.39" y="68.7" width="0.93" height="0.43" transform="translate(-34.71 15.44) rotate(-31.67)"/><polygon class="cls-2" points="7.02 62.29 7.18 62.68 6.32 63.04 6.16 62.64 7.02 62.29"/><polygon class="cls-2" points="7.79 64.09 7.97 64.47 7.13 64.87 6.95 64.47 7.79 64.09"/><path class="cls-2" d="M15.59,66c.27.42.55.83.84,1.24l-.76.54c-.3-.42-.59-.85-.86-1.28Z"/><path class="cls-2" d="M11.46,57c.14.46.28.92.44,1.37l-.88.3c-.16-.46-.31-.93-.45-1.4Z"/><path class="cls-2" d="M11.17,56q.11.41.21.78l-.89.26c-.08-.27-.15-.53-.22-.8Z"/><polygon class="cls-2" points="10.62 53.56 10.72 54.07 9.81 54.25 9.71 53.73 10.62 53.56"/><path class="cls-2" d="M10,45.86c0,.62,0,1.24,0,1.86l-.93,0c0-.64,0-1.27,0-1.91Z"/><polygon class="cls-2" points="10.97 38.92 10.91 39.18 10 38.98 10.07 38.71 10.97 38.92"/><path class="cls-2" d="M14.06,63.42c.24.44.48.88.74,1.31L14,65.2q-.39-.66-.75-1.35Z"/><path class="cls-2" d="M11.81,58.15c.15.46.31.91.48,1.36l-.86.33c-.18-.46-.35-.93-.5-1.39Z"/><path class="cls-2" d="M10.5,52.87c0,.26.09.53.14.79l-.91.18L9.58,53Z"/><polygon class="cls-2" points="10.02 47.26 10.03 47.78 9.1 47.8 9.09 47.27 10.02 47.26"/><path class="cls-2" d="M10.57,40.85c-.11.61-.2,1.21-.28,1.83l-.92-.12c.08-.63.17-1.25.29-1.87Z"/><polygon class="cls-2" points="11.79 36.03 11.71 36.28 10.82 36 10.91 35.74 11.79 36.03"/><path class="cls-2" d="M81.39,38.23A37.17,37.17,0,0,0,74.25,23.7,37.4,37.4,0,0,0,37.76,10.4,37,37,0,0,0,30,12.85l-1.19-2.68a42,42,0,0,0-3.9,2l1.78,3.08a36.32,36.32,0,0,1,16.19-4.85,37.22,37.22,0,0,1,8.5.47A36.73,36.73,0,0,1,73.12,23.32a36.78,36.78,0,0,1,7.67,15.06Z"/><path class="cls-2" d="M83.9,47.06a38.61,38.61,0,0,0-9-24.9A38.74,38.74,0,0,0,60.58,11.45,38.64,38.64,0,0,0,52,8.84a39.15,39.15,0,0,0-17.84.95l1.31,4.48a33.85,33.85,0,0,1,3.48-.82l-.72-4a39,39,0,0,1,11.31-.36A38.26,38.26,0,0,1,77.38,26.7l-1.22.77a36.62,36.62,0,0,1,5.66,19.59Z"/><path class="cls-2" d="M60.67,17.76c-.68-.37-1.38-.71-2.09-1l-.36.82c.69.3,1.37.63,2,1Z"/><path class="cls-2" d="M67.8,22.87c-.57-.53-1.15-1-1.75-1.53l-.57.69c.59.47,1.16,1,1.71,1.49Z"/><path class="cls-2" d="M73.3,29.6c-.41-.66-.84-1.31-1.29-1.94l-.72.52c.44.62.86,1.24,1.26,1.89Z"/><path class="cls-2" d="M58,16.49c-.71-.3-1.43-.58-2.16-.83l-.29.84c.71.25,1.41.52,2.11.81Z"/><path class="cls-2" d="M68.56,23.61c-.55-.55-1.12-1.08-1.7-1.59l-.59.67c.57.5,1.13,1,1.66,1.55Z"/><path class="cls-2" d="M77,38c-.22-.75-.45-1.48-.71-2.21l-.84.3c.26.71.48,1.43.69,2.15Z"/><path class="cls-2" d="M75.53,33.86a32.82,32.82,0,0,0-2.88-5.27l-.74.49a32.32,32.32,0,0,1,2.81,5.13Z"/><path class="cls-2" d="M64.19,19.92a34.05,34.05,0,0,0-5.2-3l-.38.8a31.86,31.86,0,0,1,5.06,2.93Z"/><path class="cls-2" d="M53.62,15a32.71,32.71,0,0,0-5.92-1l-.07.89a32,32,0,0,1,5.76,1Z"/><path class="cls-2" d="M67.78,22.85c-.57-.53-1.15-1-1.76-1.53l-.56.69c.59.47,1.16,1,1.71,1.49Z"/><path class="cls-2" d="M40,14.25c-.76.12-1.53.27-2.28.44l.19.87c.74-.17,1.48-.31,2.23-.43Z"/><path class="cls-2" d="M54,15.07c-.75-.21-1.5-.39-2.26-.54l-.18.87c.74.15,1.47.32,2.2.52Z"/><path class="cls-2" d="M59.14,4.23a45.75,45.75,0,0,0-6.93-1.68l.32-2a47.26,47.26,0,0,0-14.92,0l.6,3.72A43.49,43.49,0,0,1,58.59,5.92Z"/><path class="cls-2" d="M84.59,36.42a40.93,40.93,0,0,0-3.67-9.09l3.64-2q-1.08-2-2.34-3.78l-1.47,1c.26.37.51.75.75,1.13l-3,1.94a39.79,39.79,0,0,1,4.93,11.13Z"/><path class="cls-2" d="M49.91,2.25A46.38,46.38,0,0,0,44.64,2l0,1.78A42.76,42.76,0,0,1,49.72,4Z"/><path class="cls-2" d="M58.63,4.07a44.59,44.59,0,0,0-5.12-1.29l-.33,1.75A43.68,43.68,0,0,1,58.1,5.76Z"/><path class="cls-2" d="M76,14.26l-.88-.82L73.9,14.77c.29.26.58.52.85.78Z"/><path class="cls-2" d="M68.92,8.81c-.34-.21-.68-.42-1-.62L67,9.72l1,.6Z"/><path class="cls-2" d="M60.93,4.86,59.8,4.45l-.59,1.68,1.09.4Z"/><path class="cls-2" d="M65,6.64l-1.08-.52-.75,1.61,1,.5Z"/><path class="cls-2" d="M72.58,11.36l-1-.72-1.05,1.43.93.7Z"/><path class="cls-2" d="M79.07,17.47c-.27-.3-.53-.6-.81-.9L77,17.78l.78.86Z"/><path class="cls-2" d="M84.23,24.73l-.61-1-1.52.92c.2.33.39.66.58,1Z"/><path class="cls-2" d="M81.83,21l-.71-1-1.43,1.07c.24.31.46.62.69.93Z"/><polygon class="cls-2" points="78.05 35.18 77.93 34.84 78.8 34.52 78.93 34.87 78.05 35.18"/><polygon class="cls-2" points="75.6 29.84 75.42 29.52 76.22 29.06 76.41 29.38 75.6 29.84"/><polygon class="cls-2" points="76.73 32.02 76.58 31.69 77.41 31.28 77.57 31.62 76.73 32.02"/><polygon class="cls-2" points="77.37 33.43 77.23 33.1 78.08 32.73 78.23 33.07 77.37 33.43"/><polygon class="cls-2" points="79.11 38.67 79.02 38.32 79.92 38.09 80.01 38.45 79.11 38.67"/><polygon class="cls-2" points="78.2 35.59 78.08 35.26 78.95 34.94 79.08 35.29 78.2 35.59"/><polygon class="cls-2" points="79.3 39.52 79.22 39.16 80.13 38.96 80.21 39.32 79.3 39.52"/><polygon class="cls-2" points="79.47 40.3 79.39 39.95 80.31 39.76 80.38 40.12 79.47 40.3"/><polygon class="cls-2" points="79.44 40.17 79.37 39.82 80.28 39.63 80.35 39.99 79.44 40.17"/><polygon class="cls-2" points="76.81 32.18 76.66 31.86 77.49 31.45 77.65 31.78 76.81 32.18"/><polygon class="cls-2" points="80.02 44.44 79.99 44.08 80.92 44 80.94 44.37 80.02 44.44"/><polygon class="cls-2" points="79.04 38.4 78.95 38.06 79.85 37.82 79.94 38.17 79.04 38.4"/><polygon class="cls-2" points="80 44.25 79.97 43.89 80.9 43.81 80.93 44.18 80 44.25"/><polygon class="cls-2" points="79.83 42.59 79.78 42.23 80.71 42.11 80.75 42.47 79.83 42.59"/><polygon class="cls-2" points="40.05 6.39 39.63 6.45 39.51 5.53 39.93 5.47 40.05 6.39"/><polygon class="cls-2" points="33.31 7.8 32.91 7.92 30.61 0.54 31.09 0.39 33.31 7.8"/><rect class="cls-2" x="35.57" y="6.2" width="0.43" height="0.93" transform="translate(-0.58 8.22) rotate(-13.01)"/><polygon class="cls-2" points="37.87 6.72 37.46 6.79 37.29 5.88 37.71 5.8 37.87 6.72"/><polygon class="cls-2" points="44.3 6.1 43.88 6.11 43.85 5.18 44.29 5.17 44.3 6.1"/><polygon class="cls-2" points="40.55 6.33 40.13 6.38 40.02 5.46 40.45 5.41 40.55 6.33"/><polygon class="cls-2" points="45.31 6.09 44.89 6.09 44.89 5.16 45.32 5.16 45.31 6.09"/><polygon class="cls-2" points="46.25 6.11 45.83 6.1 45.85 5.17 46.28 5.18 46.25 6.11"/><polygon class="cls-2" points="46.1 6.1 45.68 6.09 45.69 5.16 46.12 5.17 46.1 6.1"/><polygon class="cls-2" points="36.3 7.03 35.88 7.12 35.68 6.22 36.1 6.12 36.3 7.03"/><polygon class="cls-2" points="51.11 6.53 50.7 6.47 50.83 5.55 51.25 5.61 51.11 6.53"/><polygon class="cls-2" points="43.98 6.1 43.56 6.12 43.52 5.19 43.95 5.17 43.98 6.1"/><polygon class="cls-2" points="50.9 6.5 50.48 6.44 50.6 5.52 51.03 5.58 50.9 6.5"/><polygon class="cls-2" points="48.96 6.27 48.54 6.23 48.62 5.31 49.05 5.34 48.96 6.27"/><path class="cls-2" d="M43.38,12.05c-.5,0-1,.06-1.5.11l-.08-.93c.51-.05,1-.08,1.54-.1Z"/><path class="cls-2" d="M53.24,13c-.46-.11-.93-.21-1.4-.3l.18-.92c.48.1,1,.2,1.44.32Z"/><path class="cls-2" d="M54.3,13.24l-.79-.2.23-.91.8.21Z"/><polygon class="cls-2" points="56.67 13.98 56.18 13.81 56.48 12.93 56.98 13.1 56.67 13.98"/><path class="cls-2" d="M63.61,17.32c-.52-.33-1-.64-1.59-.94l.45-.82c.55.31,1.1.63,1.63,1Z"/><polygon class="cls-2" points="69.15 21.6 68.96 21.42 69.59 20.74 69.79 20.93 69.15 21.6"/><path class="cls-2" d="M46.4,12c-.5,0-1,0-1.51,0v-.92c.52,0,1,0,1.55,0Z"/><path class="cls-2" d="M52.1,12.72c-.47-.1-.94-.18-1.42-.26l.15-.92c.49.08,1,.17,1.45.27Z"/><path class="cls-2" d="M57.33,14.22l-.76-.28.31-.87.78.28Z"/><polygon class="cls-2" points="62.42 16.6 61.97 16.35 62.41 15.53 62.88 15.79 62.42 16.6"/><path class="cls-2" d="M67.69,20.29c-.47-.4-1-.79-1.45-1.16l.57-.74c.5.38,1,.78,1.48,1.19Z"/><polygon class="cls-2" points="71.25 23.77 71.07 23.57 71.76 22.94 71.95 23.15 71.25 23.77"/><path class="cls-2" d="M77.25,44.51a32.31,32.31,0,0,0-6-16.19l.27-.19a32.92,32.92,0,0,1,4.15,7.76,33.32,33.32,0,0,1,1.93,8.59Z"/><rect class="cls-2" x="68.45" y="29.48" width="2.38" height="0.05" transform="matrix(0.81, -0.59, 0.59, 0.81, -4.03, 46.62)"/><polygon class="cls-2" points="70.05 30.08 69.99 30 70.97 29.32 71.03 29.41 70.05 30.08"/><polygon class="cls-2" points="70.43 30.65 70.37 30.56 71.37 29.91 71.43 30 70.43 30.65"/><rect class="cls-2" x="70.68" y="30.81" width="1.19" height="0.11" transform="matrix(0.85, -0.53, 0.53, 0.85, -5.54, 42.4)"/><polygon class="cls-2" points="70.13 32.42 70.07 32.33 72.12 31.11 72.18 31.2 70.13 32.42"/><polygon class="cls-2" points="71.49 32.4 71.44 32.31 72.48 31.73 72.53 31.82 71.49 32.4"/><rect class="cls-2" x="71.73" y="32.62" width="1.19" height="0.11" transform="translate(-6.85 38.09) rotate(-28.22)"/><rect class="cls-2" x="72.05" y="33.24" width="1.19" height="0.11" transform="translate(-7.21 36.3) rotate(-26.78)"/><polygon class="cls-2" points="71.36 34.74 71.31 34.65 73.46 33.61 73.51 33.71 71.36 34.74"/><rect class="cls-2" x="72.65" y="34.5" width="1.19" height="0.11" transform="translate(-7.72 32.9) rotate(-24.08)"/><polygon class="cls-2" points="72.99 35.47 72.95 35.38 74.05 34.91 74.09 35.01 72.99 35.47"/><rect class="cls-2" x="73.19" y="35.78" width="1.19" height="0.11" transform="translate(-7.98 29.29) rotate(-21.32)"/><polygon class="cls-2" points="72.38 37.16 72.34 37.06 74.58 36.23 74.61 36.33 72.38 37.16"/><polygon class="cls-2" points="73.73 37.39 73.69 37.29 74.82 36.9 74.85 37 73.73 37.39"/><polygon class="cls-2" points="73.94 38.04 73.91 37.94 75.04 37.57 75.08 37.68 73.94 38.04"/><polygon class="cls-2" points="74.14 38.69 74.11 38.59 75.25 38.25 75.29 38.35 74.14 38.69"/><polygon class="cls-2" points="73.18 39.66 73.15 39.56 75.45 38.93 75.48 39.04 73.18 39.66"/><polygon class="cls-2" points="74.5 40.01 74.48 39.91 75.63 39.62 75.66 39.73 74.5 40.01"/><polygon class="cls-2" points="74.66 40.68 74.63 40.58 75.8 40.31 75.82 40.42 74.66 40.68"/><polygon class="cls-2" points="74.8 41.35 74.78 41.24 75.95 41.01 75.97 41.11 74.8 41.35"/><polygon class="cls-2" points="73.75 42.23 73.73 42.13 76.08 41.7 76.1 41.81 73.75 42.23"/><polygon class="cls-2" points="75.04 42.69 75.02 42.59 76.2 42.4 76.22 42.51 75.04 42.69"/><polygon class="cls-2" points="74.09 44.78 74.08 44.73 76.46 44.52 76.46 44.57 74.09 44.78"/><rect class="cls-2" x="75.2" y="43.88" width="1.19" height="0.11" transform="translate(-4.41 8.7) rotate(-6.38)"/><polygon class="cls-2" points="75.13 43.37 75.12 43.27 76.3 43.11 76.31 43.22 75.13 43.37"/><path class="cls-2" d="M79.45,47.06a35,35,0,0,0-1-8.34,34.09,34.09,0,0,0-3-7.84A34.51,34.51,0,0,0,64.26,18.49l.09-.13a34.51,34.51,0,0,1,15.27,28.7Z"/><path class="cls-2" d="M67.45,20.53c-.59-.5-1.2-1-1.82-1.44l.32-.43.66.5-.23.29c.4.31.79.63,1.18,1Z"/><path class="cls-2" d="M66.72,19.25c.62.48,1.22,1,1.81,1.51l-.36.4-.61-.54.24-.28c-.39-.33-.78-.65-1.18-1Z"/><polygon class="cls-2" points="68.54 21.5 68.72 21.3 69.08 21.64 68.9 21.83 68.54 21.5"/><polygon class="cls-2" points="69.23 22.14 69.41 21.96 69.76 22.31 69.58 22.49 69.23 22.14"/><polygon class="cls-2" points="69.89 22.81 70.08 22.63 70.43 22.99 70.24 23.17 69.89 22.81"/><polygon class="cls-2" points="70.54 23.5 70.74 23.32 71.07 23.69 70.88 23.86 70.54 23.5"/><polygon class="cls-2" points="71.18 24.2 71.37 24.03 71.7 24.41 71.5 24.57 71.18 24.2"/><polygon class="cls-2" points="71.79 24.92 71.99 24.75 72.31 25.14 72.1 25.3 71.79 24.92"/><path class="cls-2" d="M24.06,19.7a34.9,34.9,0,0,0-7,7.14,34.54,34.54,0,0,0-4.63,8.84l-.15,0A34.73,34.73,0,0,1,24,19.57Z"/><path class="cls-2" d="M13,33.48c-.18.42-.35.85-.51,1.28l-.5-.19.17-.45.35.13c.11-.28.23-.56.34-.83Z"/><path class="cls-2" d="M12.2,34c.17-.44.35-.87.54-1.3l.49.22L13,33.4l-.35-.14-.34.84Z"/><polygon class="cls-2" points="13.35 32.69 13.11 32.58 13.24 32.31 13.48 32.42 13.35 32.69"/><polygon class="cls-2" points="13.59 32.18 13.35 32.07 13.48 31.8 13.72 31.92 13.59 32.18"/><rect class="cls-2" x="13.63" y="31.35" width="0.29" height="0.26" transform="translate(-20.55 29.92) rotate(-63.75)"/><rect class="cls-2" x="13.89" y="30.85" width="0.29" height="0.26" transform="translate(-19.93 29.23) rotate(-62.67)"/><polygon class="cls-2" points="14.35 30.68 14.12 30.55 14.26 30.29 14.49 30.42 14.35 30.68"/><polygon class="cls-2" points="14.62 30.18 14.38 30.06 14.53 29.8 14.76 29.93 14.62 30.18"/><path class="cls-2" d="M30,78.06a33.43,33.43,0,0,0,7.33,2.58,34.61,34.61,0,0,0,7.72.87v.17A34.52,34.52,0,0,1,29.88,78.2Z"/><path class="cls-2" d="M43.25,81.77l1.07,0v.53h-.38V82l-.7,0Z"/><path class="cls-2" d="M43.87,82.33l-1.1,0,0-.54.37,0,0,.36.71,0Z"/><polygon class="cls-2" points="42.58 81.73 42.56 81.99 42.33 81.97 42.35 81.71 42.58 81.73"/><polygon class="cls-2" points="42.14 81.7 42.12 81.96 41.89 81.94 41.91 81.68 42.14 81.7"/><polygon class="cls-2" points="41.71 81.66 41.68 81.92 41.45 81.9 41.48 81.64 41.71 81.66"/><polygon class="cls-2" points="41.27 81.61 41.24 81.88 41.01 81.85 41.05 81.59 41.27 81.61"/><polygon class="cls-2" points="40.84 81.56 40.81 81.83 40.58 81.8 40.61 81.54 40.84 81.56"/><rect class="cls-2" x="40.14" y="81.51" width="0.26" height="0.23" transform="translate(-45.94 110.81) rotate(-82.44)"/><path class="cls-2" d="M54.34,75.81l.9-.31.12.33-.91.31Z"/><path class="cls-2" d="M75,49.17c0-.64.06-1.27.06-1.9h.35q0,1-.06,1.92Z"/><path class="cls-2" d="M74,55.2c.17-.61.32-1.23.45-1.85l.34.07c-.13.63-.28,1.25-.45,1.87Z"/><path class="cls-2" d="M73.05,58.11q.35-.88.63-1.8l.34.11c-.2.61-.41,1.22-.64,1.82Z"/><path class="cls-2" d="M66.44,68.32c.44-.45.88-.91,1.29-1.39l.27.23c-.42.48-.86,1-1.31,1.41Z"/><path class="cls-2" d="M64.18,70.39c.49-.4,1-.82,1.43-1.26l.24.26c-.47.44-.95.86-1.44,1.27Z"/><path class="cls-2" d="M59.1,73.79c.56-.29,1.11-.61,1.65-.94l.19.3c-.55.33-1.11.65-1.67.95Z"/><path class="cls-2" d="M68,65.65c.39-.48.76-1,1.12-1.49l.29.21c-.37.51-.74,1-1.14,1.5Z"/><path class="cls-2" d="M66,67.89c.44-.44.86-.89,1.27-1.36l.27.23c-.42.47-.84.93-1.29,1.38Z"/><path class="cls-2" d="M61.39,71.71c.52-.34,1-.7,1.51-1.08l.22.27c-.5.39-1,.75-1.54,1.1Z"/><path class="cls-2" d="M58.82,73.25c.54-.29,1.08-.6,1.61-.92l.19.29c-.54.33-1.08.65-1.64.94Z"/><path class="cls-2" d="M54,74.65l.86-.3.12.33c-.29.11-.58.2-.88.3Z"/><path class="cls-2" d="M73.46,52c.1-.6.18-1.21.24-1.81l.35,0c-.06.62-.14,1.23-.24,1.84Z"/><path class="cls-2" d="M72.83,54.88c.16-.59.3-1.18.43-1.78l.34.07c-.12.61-.27,1.21-.43,1.8Z"/><path class="cls-2" d="M70.71,60.35c.28-.55.54-1.09.78-1.65l.32.14c-.24.56-.51,1.12-.79,1.67Z"/><path class="cls-2" d="M69.24,62.89c.33-.51.65-1,1-1.56l.3.17c-.3.54-.62,1.06-.95,1.58Z"/><path class="cls-2" d="M63.4,69.45c.47-.39.93-.79,1.37-1.21l.24.26c-.45.42-.91.83-1.38,1.22Z"/><path class="cls-2" d="M61.05,71.2c.51-.33,1-.69,1.49-1.06l.21.28Q62,71,61.25,71.5Z"/><path class="cls-2" d="M58.53,72.71c.54-.28,1.07-.59,1.59-.91l.18.31c-.53.32-1.06.62-1.61.91Z"/><path class="cls-2" d="M55.87,74c.56-.23,1.12-.47,1.67-.74l.15.32c-.56.27-1.12.52-1.69.75Z"/><path class="cls-2" d="M73.18,49.05c0-.59.06-1.19.06-1.78h.35q0,.9-.06,1.8Z"/><path class="cls-2" d="M72.86,51.91c.1-.59.17-1.18.23-1.77l.35,0q-.09.9-.24,1.8Z"/><path class="cls-2" d="M71.34,57.45c.22-.56.41-1.12.6-1.69l.33.11c-.18.57-.38,1.14-.6,1.7Z"/><path class="cls-2" d="M68.73,62.56c.32-.5.63-1,.92-1.53l.31.17c-.3.53-.61,1-.94,1.55Z"/><path class="cls-2" d="M67.05,64.89c.37-.46.73-.94,1.07-1.43l.29.2c-.35.5-.71,1-1.09,1.45Z"/><path class="cls-2" d="M65.13,67c.42-.43.83-.87,1.22-1.32l.26.23c-.39.46-.8.9-1.23,1.33Z"/><path class="cls-2" d="M72.57,49q.06-.87.06-1.74H73q0,.88-.06,1.77Z"/><path class="cls-2" d="M72.25,51.81c.1-.58.18-1.15.24-1.73l.34,0c0,.59-.13,1.17-.23,1.76Z"/><path class="cls-2" d="M70.77,57.22c.21-.54.41-1.09.58-1.64l.34.1c-.18.57-.38,1.12-.59,1.67Z"/><path class="cls-2" d="M69.62,59.79c.27-.52.52-1,.75-1.58l.32.14c-.23.54-.49,1.08-.76,1.6Z"/><path class="cls-2" d="M68.22,62.23q.47-.73.9-1.5l.31.17c-.29.52-.6,1-.92,1.52Z"/><path class="cls-2" d="M64.7,66.61c.41-.42.81-.85,1.19-1.29l.26.23c-.39.45-.79.88-1.2,1.3Z"/><path class="cls-2" d="M58,71.63c.51-.27,1-.56,1.52-.86l.18.29c-.5.31-1,.61-1.54.88Z"/><path class="cls-2" d="M55.41,72.82c.54-.22,1.07-.46,1.6-.71l.15.32c-.53.25-1.07.49-1.62.71Z"/><path class="cls-2" d="M53.4,72.9l.81-.28.12.33-.82.29Z"/><path class="cls-2" d="M71.65,51.71c.09-.56.17-1.13.23-1.7l.35,0c-.06.57-.14,1.15-.23,1.72Z"/><path class="cls-2" d="M71.06,54.39c.15-.55.29-1.1.4-1.66l.34.07c-.11.57-.25,1.13-.4,1.69Z"/><path class="cls-2" d="M67.71,61.9c.3-.48.6-1,.88-1.47l.3.17c-.28.51-.58,1-.89,1.49Z"/><path class="cls-2" d="M66.09,64.12c.36-.44.7-.9,1-1.36l.29.2c-.33.47-.68.93-1,1.38Z"/><path class="cls-2" d="M64.26,66.18c.4-.41.79-.82,1.16-1.26l.27.23c-.38.44-.77.86-1.18,1.27Z"/><path class="cls-2" d="M20.8,64.9c.18.26.37.51.57.76l-.28.22c-.2-.25-.39-.51-.58-.77Z"/><path class="cls-2" d="M52.51,76.34c.62-.16,1.23-.34,1.83-.53l.11.33c-.61.2-1.23.38-1.85.54Z"/><path class="cls-2" d="M46.46,77.24c.64,0,1.27-.08,1.9-.15l0,.35q-1,.11-1.92.15Z"/><path class="cls-2" d="M43.41,77.22c.63,0,1.26,0,1.9,0v.35c-.64,0-1.28,0-1.92-.05Z"/><path class="cls-2" d="M31.64,74.11c.57.28,1.15.55,1.73.79l-.13.33c-.6-.25-1.18-.53-1.75-.81Z"/><path class="cls-2" d="M29,72.59c.53.35,1.08.67,1.64,1l-.17.31c-.56-.31-1.12-.63-1.66-1Z"/><path class="cls-2" d="M24.18,68.81c.46.44.93.86,1.41,1.27l-.23.27c-.49-.41-1-.85-1.42-1.29Z"/><path class="cls-2" d="M34.66,74.77q.87.32,1.77.6l-.1.33c-.6-.18-1.2-.38-1.79-.61Z"/><path class="cls-2" d="M31.92,73.56c.55.28,1.12.54,1.69.78l-.14.32c-.58-.24-1.15-.51-1.71-.79Z"/><path class="cls-2" d="M26.86,70.34q.74.59,1.5,1.11l-.2.29c-.51-.36-1-.73-1.51-1.13Z"/><path class="cls-2" d="M24.61,68.36q.66.66,1.38,1.26l-.23.27c-.48-.41-.94-.83-1.4-1.27Z"/><path class="cls-2" d="M21.78,64.18c.18.25.37.49.55.73l-.27.22c-.19-.24-.38-.49-.56-.74Z"/><path class="cls-2" d="M49.33,75.73c.6-.08,1.2-.19,1.8-.32l.07.34c-.6.13-1.21.24-1.82.33Z"/><path class="cls-2" d="M46.41,76c.61,0,1.21-.08,1.82-.14l0,.34c-.62.07-1.23.12-1.85.15Z"/><path class="cls-2" d="M40.55,75.7c.6.09,1.21.17,1.81.22l0,.35c-.61-.06-1.22-.13-1.83-.23Z"/><path class="cls-2" d="M37.68,75.09c.59.16,1.18.29,1.78.41l-.07.34c-.61-.11-1.21-.25-1.8-.41Z"/><path class="cls-2" d="M29.64,71.56c.51.33,1,.64,1.57.93L31,72.8c-.54-.3-1.07-.61-1.59-.94Z"/><path class="cls-2" d="M27.24,69.86c.48.38,1,.74,1.47,1.09l-.2.29c-.51-.36-1-.72-1.48-1.1Z"/><path class="cls-2" d="M25,67.93q.66.63,1.35,1.23l-.23.26c-.46-.4-.92-.81-1.36-1.24Z"/><path class="cls-2" d="M23,65.78c.39.47.8.92,1.22,1.36l-.25.24c-.43-.45-.84-.91-1.24-1.37Z"/><path class="cls-2" d="M52.06,74.56c.58-.15,1.15-.31,1.72-.5l.1.34c-.57.19-1.15.35-1.73.5Z"/><path class="cls-2" d="M49.24,75.13c.59-.09,1.18-.19,1.76-.32l.07.34c-.59.13-1.18.24-1.78.33Z"/><path class="cls-2" d="M43.5,75.39c.6,0,1.2,0,1.79,0v.35c-.6,0-1.2,0-1.8-.05Z"/><path class="cls-2" d="M37.83,74.5c.58.15,1.16.29,1.74.4l-.06.35c-.6-.12-1.18-.26-1.77-.41Z"/><path class="cls-2" d="M35.1,73.62c.55.21,1.12.41,1.69.58l-.1.33c-.58-.17-1.15-.37-1.72-.58Z"/><path class="cls-2" d="M32.46,72.46c.54.27,1.08.52,1.63.76l-.14.32c-.55-.24-1.1-.49-1.64-.76Z"/><path class="cls-2" d="M51.91,74c.56-.14,1.12-.31,1.68-.49l.11.34c-.57.18-1.13.34-1.71.49Z"/><path class="cls-2" d="M49.15,74.52c.58-.08,1.15-.18,1.72-.31l.08.35c-.58.12-1.16.23-1.75.31Z"/><path class="cls-2" d="M43.54,74.78c.58,0,1.17,0,1.75,0v.35c-.59,0-1.18,0-1.77-.05Z"/><path class="cls-2" d="M40.74,74.49q.87.14,1.74.21l0,.35c-.58,0-1.17-.12-1.75-.21Z"/><path class="cls-2" d="M38,73.91c.56.15,1.13.28,1.7.39l-.06.35c-.58-.12-1.16-.25-1.73-.4Z"/><path class="cls-2" d="M32.74,71.92c.52.26,1,.51,1.58.73l-.13.33c-.55-.23-1.08-.48-1.61-.75Z"/><path class="cls-2" d="M25.88,67.05c.42.41.85.8,1.3,1.18L27,68.5c-.45-.39-.89-.79-1.31-1.2Z"/><path class="cls-2" d="M24,65c.37.45.76.88,1.16,1.3l-.25.25c-.41-.43-.8-.87-1.18-1.32Z"/><path class="cls-2" d="M23.26,63.1c.17.24.34.46.52.69L23.5,64,23,63.31Z"/><path class="cls-2" d="M49.06,73.92c.57-.08,1.13-.19,1.69-.31l.07.35c-.57.12-1.14.22-1.71.31Z"/><path class="cls-2" d="M46.32,74.19c.57,0,1.14-.07,1.71-.14l0,.35c-.58.07-1.15.11-1.73.14Z"/><path class="cls-2" d="M38.15,73.32c.55.14,1.1.27,1.66.38l-.07.35c-.56-.11-1.13-.25-1.68-.39Z"/><path class="cls-2" d="M35.53,72.48c.53.2,1.07.38,1.62.55l-.11.33c-.55-.16-1.1-.35-1.64-.55Z"/><path class="cls-2" d="M33,71.37c.51.26,1,.5,1.55.72l-.13.32c-.53-.22-1.06-.46-1.58-.72Z"/><path class="cls-2" d="M20.8,29.63l-.55.78-.29-.2c.18-.26.36-.53.55-.79Z"/><path class="cls-2" d="M19.73,63.33c.33.54.69,1.06,1.07,1.57l-.29.21q-.57-.78-1.08-1.59Z"/><path class="cls-2" d="M17,57.86c.22.59.47,1.18.73,1.76l-.32.14c-.26-.58-.51-1.18-.74-1.78Z"/><path class="cls-2" d="M16.06,54.94c.16.62.34,1.22.54,1.83l-.33.11c-.2-.61-.39-1.23-.55-1.85Z"/><path class="cls-2" d="M15.4,42.79c-.1.63-.17,1.26-.22,1.89l-.35,0c.05-.64.13-1.27.22-1.91Z"/><path class="cls-2" d="M16,39.79q-.24.93-.42,1.86l-.34-.06c.12-.64.26-1.26.42-1.88Z"/><path class="cls-2" d="M18.12,34.05c-.27.57-.54,1.15-.78,1.74L17,35.65c.24-.59.51-1.17.79-1.75Z"/><path class="cls-2" d="M15.71,45.87q0,.93,0,1.86h-.35q0-.95,0-1.89Z"/><path class="cls-2" d="M16,42.88c-.09.62-.16,1.24-.22,1.86l-.34,0c.05-.63.12-1.26.22-1.88Z"/><path class="cls-2" d="M17.49,37.08c-.22.58-.41,1.17-.59,1.77l-.34-.1c.19-.6.38-1.2.6-1.79Z"/><path class="cls-2" d="M18.67,34.32c-.27.56-.53,1.13-.76,1.7l-.33-.13c.24-.58.5-1.16.78-1.72Z"/><path class="cls-2" d="M21.78,30.35c-.18.25-.35.49-.52.75L21,30.9c.17-.26.35-.51.53-.76Z"/><path class="cls-2" d="M19.31,60.12c.27.54.56,1.08.87,1.61l-.31.17c-.31-.53-.6-1.08-.87-1.62Z"/><path class="cls-2" d="M18.13,57.43c.22.57.45,1.13.7,1.68l-.32.15c-.25-.56-.49-1.13-.7-1.71Z"/><path class="cls-2" d="M16.64,51.75c.09.61.2,1.21.34,1.8l-.35.07c-.13-.6-.24-1.2-.34-1.81Z"/><path class="cls-2" d="M16.33,48.83c0,.61.08,1.22.16,1.82l-.35,0c-.07-.61-.13-1.22-.16-1.84Z"/><path class="cls-2" d="M17.19,40.1c-.15.59-.28,1.18-.4,1.78l-.34-.07c.11-.6.25-1.2.4-1.8Z"/><path class="cls-2" d="M18.06,37.29c-.21.57-.4,1.15-.57,1.73l-.34-.1c.18-.59.37-1.17.58-1.75Z"/><path class="cls-2" d="M19.22,34.59c-.27.55-.52,1.1-.75,1.67l-.32-.14c.23-.57.49-1.13.76-1.68Z"/><path class="cls-2" d="M20.65,32c-.32.51-.63,1-.92,1.57l-.31-.16c.3-.54.61-1.08.93-1.6Z"/><path class="cls-2" d="M21.27,62.35c.32.5.66,1,1,1.47L22,64c-.35-.49-.69-1-1-1.5Z"/><path class="cls-2" d="M19.86,59.84c.26.54.55,1.06.85,1.58l-.31.17c-.3-.52-.59-1.05-.86-1.59Z"/><path class="cls-2" d="M17.83,54.47c.15.58.32,1.15.51,1.72L18,56.3c-.19-.57-.36-1.15-.52-1.74Z"/><path class="cls-2" d="M16.94,48.8c0,.6.08,1.19.15,1.78l-.35,0q-.1-.9-.15-1.8Z"/><path class="cls-2" d="M16.93,45.93c0,.59,0,1.19,0,1.78h-.35c0-.6,0-1.21,0-1.81Z"/><path class="cls-2" d="M17.21,43.06c-.09.59-.16,1.19-.21,1.78l-.35,0q.08-.9.21-1.8Z"/><path class="cls-2" d="M21.79,62c.31.49.64,1,1,1.44l-.28.21c-.35-.48-.68-1-1-1.46Z"/><path class="cls-2" d="M20.4,59.57c.26.52.54,1,.83,1.54l-.3.18q-.45-.76-.84-1.56Z"/><path class="cls-2" d="M18.42,54.32c.15.56.32,1.12.5,1.67l-.33.11c-.19-.56-.36-1.12-.51-1.69Z"/><path class="cls-2" d="M17.84,51.57q.14.85.33,1.71l-.34.08q-.2-.87-.33-1.74Z"/><path class="cls-2" d="M17.55,48.77q0,.87.15,1.74l-.35,0c-.07-.58-.12-1.17-.15-1.76Z"/><path class="cls-2" d="M17.81,43.15c-.08.58-.15,1.16-.2,1.74l-.35,0c0-.59.12-1.17.21-1.76Z"/><path class="cls-2" d="M20.32,35.13c-.26.52-.5,1.06-.72,1.59l-.33-.13c.23-.54.47-1.08.73-1.61Z"/><path class="cls-2" d="M21.69,32.67c-.31.5-.61,1-.88,1.52L20.5,34c.28-.52.58-1,.89-1.53Z"/><path class="cls-2" d="M23.26,31.43c-.16.23-.33.46-.49.7l-.29-.2c.16-.24.33-.48.5-.71Z"/><path class="cls-2" d="M21,59.3c.25.51.53,1,.81,1.5l-.3.18c-.29-.5-.57-1-.82-1.52Z"/><path class="cls-2" d="M19.85,56.78c.2.53.42,1.06.65,1.58l-.32.14c-.23-.52-.46-1.06-.66-1.6Z"/><path class="cls-2" d="M18.16,48.74c0,.57.08,1.13.15,1.7l-.35,0c-.07-.57-.12-1.15-.15-1.72Z"/><path class="cls-2" d="M18.15,46c0,.57,0,1.14,0,1.71h-.35c0-.58,0-1.16,0-1.73Z"/><path class="cls-2" d="M18.42,43.25c-.09.56-.15,1.13-.2,1.69l-.35,0c.05-.57.12-1.15.2-1.72Z"/><path class="cls-2" d="M54.34,18.73l-.91-.29.1-.33.92.28Z"/><path class="cls-2" d="M22,28.13c-.4.49-.79,1-1.16,1.5l-.29-.21c.38-.52.77-1,1.18-1.52Z"/><path class="cls-2" d="M26.32,23.84c-.49.4-1,.81-1.44,1.24l-.24-.26c.47-.43,1-.85,1.46-1.25Z"/><path class="cls-2" d="M28.8,22.05c-.53.34-1.05.71-1.56,1.08L27,22.85c.52-.38,1-.75,1.58-1.09Z"/><path class="cls-2" d="M40.16,17.66c-.63.11-1.25.23-1.87.37l-.08-.34c.63-.14,1.26-.27,1.89-.37Z"/><path class="cls-2" d="M43.2,17.32c-.63,0-1.27.1-1.9.18l0-.35q1-.12,1.92-.18Z"/><path class="cls-2" d="M49.3,17.56q-.93-.14-1.89-.21l0-.34c.64,0,1.28.11,1.92.2Z"/><path class="cls-2" d="M37.33,18.91c-.61.16-1.2.34-1.79.54l-.11-.33c.59-.2,1.19-.39,1.8-.55Z"/><path class="cls-2" d="M40.26,18.27q-.93.15-1.83.36l-.08-.34c.61-.14,1.23-.27,1.85-.37Z"/><path class="cls-2" d="M46.23,17.9c-.62,0-1.24,0-1.86,0v-.35c.63,0,1.26,0,1.89,0Z"/><path class="cls-2" d="M49.22,18.17C48.6,18.08,48,18,47.37,18l0-.35c.63.05,1.26.12,1.88.21Z"/><path class="cls-2" d="M54,19.89l-.88-.27.1-.34.88.27Z"/><path class="cls-2" d="M24.89,26.74q-.64.65-1.26,1.32l-.26-.23c.41-.46.84-.9,1.28-1.34Z"/><path class="cls-2" d="M27.09,24.79c-.48.38-.94.78-1.39,1.19l-.24-.26q.69-.62,1.41-1.2Z"/><path class="cls-2" d="M32,21.61c-.54.28-1.07.57-1.6.88l-.18-.3c.53-.31,1.08-.61,1.62-.89Z"/><path class="cls-2" d="M34.7,20.41c-.57.22-1.13.46-1.69.71l-.14-.31c.56-.26,1.12-.5,1.7-.72Z"/><path class="cls-2" d="M43.27,18.54c-.61,0-1.21.09-1.81.17l-.05-.35c.61-.07,1.23-.13,1.84-.17Z"/><path class="cls-2" d="M46.21,18.51c-.61,0-1.22,0-1.83,0v-.35c.61,0,1.23,0,1.84,0Z"/><path class="cls-2" d="M49.13,18.77c-.6-.08-1.2-.15-1.81-.2l0-.35c.61.05,1.22.12,1.83.2Z"/><path class="cls-2" d="M52,19.33c-.59-.15-1.19-.27-1.79-.38l.06-.35c.61.11,1.21.24,1.81.39Z"/><path class="cls-2" d="M23.37,29.3c-.38.46-.74.93-1.09,1.41L22,30.5c.36-.49.73-1,1.11-1.43Z"/><path class="cls-2" d="M25.32,27.18c-.43.42-.84.85-1.24,1.29l-.26-.23c.41-.45.82-.89,1.25-1.31Z"/><path class="cls-2" d="M29.8,23.59q-.75.48-1.47,1l-.21-.28c.49-.36,1-.71,1.49-1Z"/><path class="cls-2" d="M34.91,21c-.55.22-1.1.45-1.64.7l-.15-.32c.55-.25,1.11-.49,1.67-.71Z"/><path class="cls-2" d="M37.64,20.09c-.57.15-1.14.33-1.7.52l-.12-.33c.57-.2,1.15-.37,1.73-.53Z"/><path class="cls-2" d="M40.45,19.47c-.58.1-1.17.22-1.75.35l-.08-.34c.59-.14,1.18-.26,1.78-.35Z"/><path class="cls-2" d="M23.84,29.69c-.37.45-.73.91-1.07,1.38l-.28-.21c.34-.48.71-.94,1.08-1.4Z"/><path class="cls-2" d="M25.75,27.62c-.42.4-.82.83-1.21,1.26l-.26-.23c.39-.44.8-.87,1.22-1.28Z"/><path class="cls-2" d="M30.13,24.1c-.49.32-1,.65-1.44,1l-.2-.28c.47-.36,1-.69,1.45-1Z"/><path class="cls-2" d="M32.57,22.7c-.52.26-1,.55-1.53.84l-.18-.3c.51-.3,1-.59,1.55-.85Z"/><path class="cls-2" d="M35.14,21.55c-.55.21-1.09.44-1.61.68l-.15-.32c.53-.24,1.08-.47,1.63-.68Z"/><path class="cls-2" d="M40.55,20.08q-.86.14-1.71.33l-.08-.34c.58-.13,1.15-.24,1.74-.34Z"/><path class="cls-2" d="M49,20c-.57-.08-1.15-.14-1.73-.19l0-.35c.59,0,1.18.11,1.76.19Z"/><path class="cls-2" d="M51.72,20.52c-.56-.14-1.13-.27-1.71-.37l.07-.34c.58.1,1.15.22,1.73.37Z"/><path class="cls-2" d="M53.4,21.63l-.82-.25.1-.34.83.26Z"/><path class="cls-2" d="M26.18,28.05c-.41.4-.8.81-1.19,1.24l-.26-.24c.39-.43.79-.84,1.2-1.25Z"/><path class="cls-2" d="M28.23,26.22c-.44.36-.88.73-1.3,1.11l-.23-.25c.42-.39.86-.77,1.31-1.13Z"/><path class="cls-2" d="M35.36,22.12c-.54.21-1.06.43-1.58.67l-.14-.32c.52-.24,1-.47,1.59-.67Z"/><path class="cls-2" d="M38,21.26c-.55.15-1.1.32-1.64.51l-.11-.34c.55-.18,1.1-.35,1.66-.5Z"/><path class="cls-2" d="M40.65,20.68c-.56.09-1.12.2-1.67.33l-.08-.34c.56-.13,1.13-.24,1.69-.34Z"/><path class="cls-2" d="M75.07,47.27c0-.32,0-.64,0-1l.35,0c0,.32,0,.65,0,1Z"/><path class="cls-2" d="M56.13,19.37c-.59-.23-1.18-.45-1.79-.64l.11-.34c.61.2,1.22.42,1.81.66Z"/><path class="cls-2" d="M61.56,22.2c-.53-.35-1.07-.69-1.62-1l.17-.3c.56.31,1.1.65,1.64,1Z"/><path class="cls-2" d="M64,24c-.49-.4-1-.79-1.51-1.16l.21-.28q.78.55,1.53,1.17Z"/><path class="cls-2" d="M71.71,33.44c-.3-.56-.61-1.11-.94-1.66l.3-.18c.33.55.65,1.11.94,1.68Z"/><path class="cls-2" d="M73,36.23c-.24-.59-.49-1.17-.76-1.75l.32-.15c.27.58.52,1.17.76,1.77Z"/><path class="cls-2" d="M74.63,42.12c-.11-.63-.24-1.25-.38-1.87l.34-.08q.22.94.39,1.89Z"/><path class="cls-2" d="M69.64,31.14c-.34-.52-.69-1-1.07-1.53l.28-.21c.38.51.74,1,1.09,1.55Z"/><path class="cls-2" d="M71.16,33.73c-.29-.56-.59-1.1-.91-1.63l.3-.18c.32.54.63,1.09.92,1.64Z"/><path class="cls-2" d="M73.37,39.3c-.17-.6-.36-1.19-.56-1.78l.32-.12q.32.9.57,1.8Z"/><path class="cls-2" d="M74,42.22c-.11-.61-.23-1.22-.38-1.82l.34-.08c.15.61.28,1.22.38,1.84Z"/><path class="cls-2" d="M73.85,47.27c0-.31,0-.61,0-.92h.35c0,.31,0,.62,0,.93Z"/><path class="cls-2" d="M58.35,21.73c-.54-.28-1.09-.55-1.64-.79l.14-.32c.56.24,1.12.51,1.66.8Z"/><path class="cls-2" d="M60.88,23.22c-.51-.34-1-.66-1.55-1l.17-.3c.54.3,1.06.63,1.58,1Z"/><path class="cls-2" d="M65.43,26.93c-.43-.44-.87-.85-1.33-1.25l.23-.27c.46.41.91.83,1.35,1.27Z"/><path class="cls-2" d="M67.4,29.11c-.39-.48-.78-.94-1.2-1.38l.26-.24c.42.45.82.92,1.21,1.39Z"/><path class="cls-2" d="M71.84,36.68c-.22-.57-.47-1.13-.73-1.68l.32-.15c.26.56.51,1.13.74,1.7Z"/><path class="cls-2" d="M72.78,39.46c-.17-.58-.35-1.16-.55-1.74l.33-.12c.2.59.39,1.17.56,1.77Z"/><path class="cls-2" d="M73.43,42.33c-.11-.6-.23-1.2-.37-1.79l.34-.08c.14.6.27,1.2.37,1.81Z"/><path class="cls-2" d="M73.78,45.24c0-.6-.1-1.21-.19-1.81l.35,0c.08.61.15,1.22.19,1.84Z"/><path class="cls-2" d="M55.46,21.07q-.84-.33-1.68-.6l.1-.34c.58.19,1.15.4,1.71.62Z"/><path class="cls-2" d="M58.07,22.27c-.53-.28-1.06-.53-1.61-.77l.14-.33c.55.25,1.1.51,1.63.79Z"/><path class="cls-2" d="M62.87,25.43c-.47-.38-.94-.74-1.42-1.09l.2-.28c.49.35,1,.72,1.44,1.1Z"/><path class="cls-2" d="M66.92,29.49q-.56-.69-1.17-1.35L66,27.9c.41.45.8.9,1.19,1.37Z"/><path class="cls-2" d="M68.62,31.81c-.32-.5-.67-1-1-1.46l.27-.21c.37.48.71,1,1,1.48Z"/><path class="cls-2" d="M70.08,34.29c-.28-.53-.57-1-.88-1.56l.3-.18c.31.52.61,1,.89,1.58Z"/><path class="cls-2" d="M55.23,21.64c-.54-.21-1.09-.41-1.64-.59l.11-.34c.56.19,1.11.39,1.66.61Z"/><path class="cls-2" d="M57.79,22.81c-.52-.27-1-.52-1.58-.76l.15-.32c.53.24,1.07.5,1.59.77Z"/><path class="cls-2" d="M62.48,25.9c-.45-.37-.92-.72-1.39-1.06l.2-.28c.48.34,1,.7,1.41,1.07Z"/><path class="cls-2" d="M64.56,27.79c-.41-.41-.83-.81-1.27-1.2l.23-.26c.44.39.88.79,1.29,1.21Z"/><path class="cls-2" d="M66.45,29.88c-.37-.45-.75-.9-1.15-1.32l.26-.24c.4.43.79.88,1.16,1.34Z"/><path class="cls-2" d="M69.53,34.57c-.26-.52-.55-1-.85-1.52l.3-.18c.31.5.59,1,.87,1.54Z"/><path class="cls-2" d="M72.22,42.54c-.1-.58-.21-1.15-.35-1.72l.34-.08c.14.58.26,1.15.36,1.74Z"/><path class="cls-2" d="M72.56,45.33q-.06-.87-.18-1.74l.35-.05c.08.59.14,1.17.18,1.76Z"/><path class="cls-2" d="M72,47.27c0-.29,0-.57,0-.86h.35c0,.29,0,.58,0,.87Z"/><path class="cls-2" d="M57.5,23.35c-.5-.26-1-.51-1.53-.74l.14-.32q.8.36,1.56.75Z"/><path class="cls-2" d="M59.87,24.75c-.47-.32-1-.62-1.45-.9l.17-.3c.51.28,1,.59,1.48.9Z"/><path class="cls-2" d="M66,30.26c-.36-.44-.74-.87-1.12-1.29l.25-.24c.4.43.77.86,1.14,1.31Z"/><path class="cls-2" d="M67.6,32.48c-.31-.47-.64-.94-1-1.4l.28-.21c.35.46.68.94,1,1.42Z"/><path class="cls-2" d="M69,34.85c-.26-.5-.54-1-.83-1.49l.3-.18c.3.49.58,1,.84,1.51Z"/><path class="cls-2" d="M70.19,42.72a25.48,25.48,0,0,0-23-20.89l.23-2.92q-1.16-.09-2.31-.09v3.55a24.85,24.85,0,0,1,16,5.79,25.13,25.13,0,0,1,5.56,6.59,24.69,24.69,0,0,1,3,8.08Z"/><path class="cls-2" d="M72.05,47.27A27,27,0,0,0,58.63,23.94a26.67,26.67,0,0,0-8.76-3.23L49,25.31c.58.11,1.15.23,1.71.38l1-3.89A26.35,26.35,0,0,1,69.09,36.49l-1.3.59A25,25,0,0,1,70,47.27Z"/><path class="cls-2" d="M59.76,31.8c-.27-.26-.55-.51-.83-.76l-.58.68c.27.23.54.47.8.72Z"/><path class="cls-2" d="M62.54,35c-.22-.31-.44-.61-.67-.9l-.71.54c.23.29.44.58.65.87Z"/><path class="cls-2" d="M64.6,38.65c-.15-.34-.31-.68-.48-1l-.8.4c.17.32.32.64.46,1Z"/><path class="cls-2" d="M58.71,30.86c-.29-.24-.59-.48-.88-.7l-.54.71.85.67Z"/><path class="cls-2" d="M62.82,35.43c-.2-.31-.42-.62-.64-.92l-.72.53c.22.29.43.58.63.88Z"/><path class="cls-2" d="M66,42.88c-.08-.37-.17-.73-.26-1.09l-.86.22q.14.52.24,1.05Z"/><path class="cls-2" d="M65.41,40.82a21.41,21.41,0,0,0-1-2.69l-.81.38a19.22,19.22,0,0,1,1,2.58Z"/><path class="cls-2" d="M61.14,33.24a21,21,0,0,0-2-2.06l-.58.67a21.55,21.55,0,0,1,2,2Z"/><path class="cls-2" d="M56.9,29.51a21.53,21.53,0,0,0-2.51-1.45l-.39.8a21.47,21.47,0,0,1,2.41,1.39Z"/><path class="cls-2" d="M62.53,35c-.22-.31-.44-.61-.67-.91l-.7.55c.22.29.43.57.64.87Z"/><path class="cls-2" d="M50.92,26.74l-1.08-.28-.2.87c.35.08.69.17,1,.27Z"/><path class="cls-2" d="M57,29.6c-.31-.21-.63-.41-.95-.61l-.46.76.91.58Z"/><path class="cls-2" d="M64.66,20.44a34.55,34.55,0,0,0-3.31-2.13l1-1.73a35.32,35.32,0,0,0-7.76-3.22l-1,3.63a31.34,31.34,0,0,1,10.06,4.89Z"/><path class="cls-2" d="M73.57,41.57a29.1,29.1,0,0,0-1.48-5L76,35c-.3-.77-.63-1.52-1-2.26l-1.6.78c.11.22.21.44.31.66l-3.27,1.5a27.71,27.71,0,0,1,2,6.1Z"/><path class="cls-2" d="M60.22,17.7c-.87-.44-1.75-.85-2.66-1.22l-.67,1.65c.86.35,1.7.73,2.52,1.15Z"/><path class="cls-2" d="M64.42,20.27c-.79-.57-1.6-1.1-2.44-1.6l-.9,1.54c.79.46,1.56,1,2.31,1.51Z"/><path class="cls-2" d="M72.27,28.2c-.13-.18-.26-.37-.39-.54l-1.44,1.05.37.51Z"/><path class="cls-2" d="M69.14,24.39c-.15-.17-.3-.33-.46-.48l-1.26,1.25.44.45Z"/><path class="cls-2" d="M65.5,21.07l-.53-.4L63.9,22.09l.5.39Z"/><path class="cls-2" d="M67.38,22.66l-.5-.44-1.16,1.34.47.42Z"/><path class="cls-2" d="M70.78,26.23l-.43-.51L69,26.88l.4.48Z"/><path class="cls-2" d="M73.61,30.27l-.35-.57-1.51.94.33.54Z"/><path class="cls-2" d="M75.81,34.68c-.08-.21-.17-.41-.25-.62l-1.64.71c.09.19.17.39.25.58Z"/><path class="cls-2" d="M74.79,32.43l-.3-.59-1.58.82.29.56Z"/><rect class="cls-2" x="67.45" y="41.02" width="0.93" height="0.18" transform="translate(-8.41 19.27) rotate(-15.22)"/><rect class="cls-2" x="66.5" y="38.2" width="0.93" height="0.18" transform="translate(-9.49 28) rotate(-22.1)"/><rect class="cls-2" x="66.94" y="39.36" width="0.93" height="0.18" transform="translate(-9.31 24.81) rotate(-19.53)"/><rect class="cls-2" x="67.19" y="40.11" width="0.93" height="0.18" transform="translate(-8.97 22.26) rotate(-17.54)"/><polygon class="cls-2" points="67.89 43.08 67.85 42.91 68.77 42.73 68.8 42.92 67.89 43.08"/><polygon class="cls-2" points="67.55 41.52 67.5 41.35 68.4 41.12 68.44 41.3 67.55 41.52"/><polygon class="cls-2" points="67.96 43.51 67.93 43.33 68.84 43.17 68.88 43.36 67.96 43.51"/><polygon class="cls-2" points="68.02 43.9 67.99 43.72 68.91 43.58 68.94 43.77 68.02 43.9"/><rect class="cls-2" x="67.99" y="43.59" width="0.93" height="0.18" transform="translate(-5.9 11.03) rotate(-8.83)"/><polygon class="cls-2" points="67.02 39.77 66.97 39.6 67.84 39.3 67.9 39.47 67.02 39.77"/><rect class="cls-2" x="68.22" y="45.76" width="0.93" height="0.18" transform="translate(-2.41 3.83) rotate(-3.14)"/><polygon class="cls-2" points="67.86 42.95 67.82 42.77 68.74 42.59 68.77 42.77 67.86 42.95"/><polygon class="cls-2" points="68.22 45.87 68.21 45.69 69.13 45.63 69.14 45.82 68.22 45.87"/><rect class="cls-2" x="68.14" y="44.82" width="0.93" height="0.18" transform="translate(-3.87 6.56) rotate(-5.32)"/><polygon class="cls-2" points="53.69 19.45 53.48 19.38 53.74 18.49 53.97 18.56 53.69 19.45"/><polygon class="cls-2" points="50.12 18.59 49.9 18.55 51.18 10.92 51.45 10.97 50.12 18.59"/><polygon class="cls-2" points="51.62 18.89 51.41 18.84 51.6 17.93 51.83 17.98 51.62 18.89"/><polygon class="cls-2" points="52.56 19.12 52.35 19.07 52.58 18.17 52.8 18.23 52.56 19.12"/><polygon class="cls-2" points="55.84 20.21 55.63 20.12 55.96 19.26 56.18 19.34 55.84 20.21"/><polygon class="cls-2" points="53.95 19.53 53.73 19.46 54.01 18.57 54.23 18.64 53.95 19.53"/><polygon class="cls-2" points="56.34 20.41 56.13 20.32 56.48 19.46 56.7 19.55 56.34 20.41"/><polygon class="cls-2" points="56.79 20.61 56.59 20.52 56.96 19.66 57.17 19.76 56.79 20.61"/><rect class="cls-2" x="56.34" y="19.99" width="0.93" height="0.23" transform="translate(15.86 64.31) rotate(-66.68)"/><polygon class="cls-2" points="51.73 18.92 51.51 18.87 51.72 17.96 51.94 18.01 51.73 18.92"/><rect class="cls-2" x="58.79" y="21.19" width="0.93" height="0.23" transform="translate(11.95 62.86) rotate(-61.08)"/><rect class="cls-2" x="55.27" y="19.55" width="0.93" height="0.23" transform="translate(17.5 64.74) rotate(-69.12)"/><polygon class="cls-2" points="59.02 21.71 58.83 21.6 59.27 20.78 59.47 20.89 59.02 21.71"/><polygon class="cls-2" points="58.1 21.22 57.9 21.12 58.31 20.29 58.52 20.39 58.1 21.22"/><path class="cls-2" d="M53.17,25.53l-.7-.25.29-.88.73.26Z"/><path class="cls-2" d="M57.56,27.72l-.6-.37.47-.8.63.39Z"/><polygon class="cls-2" points="58.02 28.02 57.68 27.8 58.19 27.02 58.53 27.25 58.02 28.02"/><polygon class="cls-2" points="59.02 28.74 58.81 28.59 59.37 27.84 59.58 28 59.02 28.74"/><path class="cls-2" d="M61.88,31.29l-.64-.65.64-.67c.23.22.46.45.67.68Z"/><rect class="cls-2" x="63.96" y="33.6" width="0.93" height="0.14" transform="translate(-7.66 43.02) rotate(-34.98)"/><path class="cls-2" d="M54.55,26.09l-.68-.29.35-.86.71.31Z"/><path class="cls-2" d="M57.07,27.42c-.21-.13-.41-.25-.62-.36l.46-.81.64.37Z"/><polygon class="cls-2" points="59.3 28.95 58.98 28.71 59.54 27.96 59.87 28.22 59.3 28.95"/><polygon class="cls-2" points="61.4 30.8 61.21 30.62 61.86 29.95 62.05 30.14 61.4 30.8"/><path class="cls-2" d="M63.51,33.2q-.28-.37-.57-.72l.71-.59.6.74Z"/><polygon class="cls-2" points="64.9 35.24 64.83 35.13 65.63 34.64 65.69 34.76 64.9 35.24"/><path class="cls-2" d="M26.39,27.64A27.08,27.08,0,0,0,21.3,60.26L20,61c.37.68.77,1.35,1.2,2l1.48-1a26.71,26.71,0,0,1-4.23-17.76,27.2,27.2,0,0,1,2.63-8.9,26.51,26.51,0,0,1,5.51-7.45Z"/><path class="cls-2" d="M29.78,24a27.72,27.72,0,0,0-11.34,15.2,28.17,28.17,0,0,0-1.15,9.57,27.63,27.63,0,0,0,2.19,9.38l2.15-.92c-.27-.62-.5-1.24-.72-1.87L19,56a27.53,27.53,0,0,1,2.87-23.54l.61.39a26.61,26.61,0,0,1,7.87-8Z"/><path class="cls-2" d="M20.47,42.84c-.08.43-.14.87-.2,1.3l.44.06c.06-.43.12-.86.2-1.28Z"/><path class="cls-2" d="M21.83,38.07q-.24.61-.45,1.23l.42.14c.13-.4.28-.81.44-1.21Z"/><path class="cls-2" d="M24.07,33.7c-.24.37-.47.75-.69,1.13l.39.22c.21-.38.44-.75.67-1.11Z"/><path class="cls-2" d="M20.23,44.48c-.05.43-.09.87-.11,1.31l.44,0c0-.43.06-.86.11-1.29Z"/><path class="cls-2" d="M22.05,37.51q-.26.62-.48,1.23l.42.15c.15-.41.31-.81.47-1.2Z"/><path class="cls-2" d="M27.33,29.65c-.31.31-.61.63-.9,1l.33.3c.29-.32.58-.63.89-.94Z"/><path class="cls-2" d="M25.66,31.5a24.34,24.34,0,0,0-1.95,2.78l.38.23A23.4,23.4,0,0,1,26,31.79Z"/><path class="cls-2" d="M21,40.57a26.8,26.8,0,0,0-.69,3.32l.44.06a24.66,24.66,0,0,1,.68-3.27Z"/><path class="cls-2" d="M20.07,47.12a23.88,23.88,0,0,0,.21,3.38l.44,0a24.8,24.8,0,0,1-.2-3.33Z"/><path class="cls-2" d="M21.82,38.09q-.24.6-.45,1.23l.42.14c.14-.41.29-.81.44-1.21Z"/><path class="cls-2" d="M21.22,54.76c.13.41.27.83.42,1.24l.42-.16c-.15-.4-.29-.81-.42-1.22Z"/><path class="cls-2" d="M20.07,46.92c0,.44,0,.88,0,1.32l.45,0c0-.43,0-.86,0-1.29Z"/><path class="cls-2" d="M14.17,45.75a30,30,0,0,0,0,3.67l-1,.07A32.24,32.24,0,0,0,14.64,57l1.8-.57a30,30,0,0,1-1.38-10.6Z"/><path class="cls-2" d="M24.79,26.73a28.77,28.77,0,0,0-3.35,4l-1.7-1.19c-.44.63-.86,1.27-1.25,1.93l.76.45c.13-.2.25-.4.37-.6l1.52,1a28.15,28.15,0,0,1,4.08-5.08Z"/><path class="cls-2" d="M14.31,50.61c.1.9.24,1.8.41,2.69l.88-.17a26.14,26.14,0,0,1-.4-2.61Z"/><path class="cls-2" d="M14.16,46c0,.91,0,1.82,0,2.72l.89,0a25.83,25.83,0,0,1,0-2.64Z"/><path class="cls-2" d="M16.31,35.86l-.22.58.83.31c.07-.19.14-.37.22-.56Z"/><path class="cls-2" d="M14.94,40.24c0,.2-.09.41-.13.61l.87.18c0-.19.09-.39.13-.58Z"/><path class="cls-2" d="M14.23,44.78c0,.2,0,.41,0,.62l.89.05c0-.2,0-.4,0-.6Z"/><path class="cls-2" d="M14.51,42.5c0,.2-.07.41-.09.61l.88.12q0-.3.09-.6Z"/><path class="cls-2" d="M15.55,38l-.18.59.85.25.18-.58Z"/><path class="cls-2" d="M17.24,33.76l-.27.56.81.37c.08-.18.17-.36.26-.54Z"/><path class="cls-2" d="M19.54,29.79l-.35.51.75.49.33-.5Z"/><path class="cls-2" d="M18.31,31.73l-.3.54.78.43.29-.52Z"/><polygon class="cls-2" points="25.74 29.98 25.61 30.13 25.26 29.82 25.39 29.67 25.74 29.98"/><polygon class="cls-2" points="23.72 32.55 23.61 32.71 23.23 32.45 23.34 32.28 23.72 32.55"/><rect class="cls-2" x="24.18" y="31.15" width="0.2" height="0.47" transform="translate(-15.4 31.73) rotate(-52.77)"/><polygon class="cls-2" points="25.06 30.77 24.94 30.93 24.57 30.63 24.7 30.48 25.06 30.77"/><polygon class="cls-2" points="27.15 28.53 27 28.67 26.68 28.33 26.83 28.19 27.15 28.53"/><rect class="cls-2" x="25.56" y="29.49" width="0.2" height="0.46" transform="translate(-13.59 28.6) rotate(-47.56)"/><rect class="cls-2" x="27.17" y="27.87" width="0.2" height="0.46" transform="translate(-11.82 25.9) rotate(-42.63)"/><polygon class="cls-2" points="27.83 27.9 27.68 28.04 27.37 27.69 27.52 27.55 27.83 27.9"/><polygon class="cls-2" points="27.78 27.95 27.63 28.09 27.32 27.74 27.47 27.6 27.78 27.95"/><polygon class="cls-2" points="24.59 31.37 24.46 31.53 24.09 31.24 24.22 31.08 24.59 31.37"/><polygon class="cls-2" points="29.63 26.44 29.47 26.56 29.19 26.19 29.36 26.07 29.63 26.44"/><polygon class="cls-2" points="27.04 28.64 26.9 28.77 26.57 28.44 26.72 28.3 27.04 28.64"/><rect class="cls-2" x="29.23" y="26.15" width="0.2" height="0.46" transform="matrix(0.8, -0.6, 0.6, 0.8, -9.96, 22.88)"/><rect class="cls-2" x="28.49" y="26.72" width="0.2" height="0.47" transform="translate(-10.59 23.93) rotate(-38.89)"/><polygon class="cls-2" points="17.31 55.29 17.38 55.5 16.93 55.63 16.87 55.42 17.31 55.29"/><polygon class="cls-2" points="18.55 58.71 18.64 58.92 15.1 60.48 15 60.25 18.55 58.71"/><rect class="cls-2" x="17.57" y="57.38" width="0.46" height="0.22" transform="translate(-19.27 10.08) rotate(-20.82)"/><rect class="cls-2" x="17.24" y="56.46" width="0.47" height="0.22" transform="translate(-17.38 8.71) rotate(-18.9)"/><polygon class="cls-2" points="16.77 53.1 16.82 53.31 16.36 53.41 16.32 53.19 16.77 53.1"/><polygon class="cls-2" points="17.24 55.03 17.3 55.24 16.85 55.37 16.79 55.15 17.24 55.03"/><polygon class="cls-2" points="16.67 52.57 16.71 52.79 16.25 52.88 16.21 52.66 16.67 52.57"/><polygon class="cls-2" points="16.58 52.08 16.62 52.3 16.16 52.38 16.12 52.16 16.58 52.08"/><rect class="cls-2" x="16.15" y="52.2" width="0.46" height="0.22" transform="matrix(0.99, -0.17, 0.17, 0.99, -8.5, 3.47)"/><polygon class="cls-2" points="17.94 57.2 18.02 57.41 17.58 57.57 17.5 57.36 17.94 57.2"/><rect class="cls-2" x="15.81" y="49.54" width="0.46" height="0.22" transform="translate(-3.86 1.42) rotate(-4.52)"/><polygon class="cls-2" points="16.81 53.26 16.85 53.48 16.4 53.58 16.35 53.36 16.81 53.26"/><polygon class="cls-2" points="16.28 49.63 16.3 49.86 15.83 49.9 15.81 49.67 16.28 49.63"/><rect class="cls-2" x="15.93" y="50.69" width="0.46" height="0.22" transform="translate(-5.91 2.28) rotate(-6.81)"/><path class="cls-2" d="M19.79,53.05c.07.27.13.54.2.81l-.45.12c-.07-.27-.14-.55-.2-.82Z"/><path class="cls-2" d="M19.15,47.6c0,.26,0,.53,0,.8l-.47,0c0-.27,0-.54,0-.82Z"/><polygon class="cls-2" points="19.15 46.99 19.14 47.44 18.68 47.45 18.68 46.99 19.15 46.99"/><rect class="cls-2" x="18.81" y="45.51" width="0.29" height="0.46" transform="translate(-27.74 62.2) rotate(-86.9)"/><path class="cls-2" d="M19.83,41.38c-.08.33-.15.67-.22,1l-.45-.08c.06-.35.13-.69.21-1Z"/><polygon class="cls-2" points="20.99 37.67 20.93 37.81 20.5 37.64 20.55 37.5 20.99 37.67"/><path class="cls-2" d="M19.48,51.42c0,.27.09.54.14.82l-.46.08c-.05-.27-.1-.55-.14-.83Z"/><path class="cls-2" d="M19.16,48.25c0,.27,0,.53,0,.8l-.46,0c0-.27,0-.54,0-.81Z"/><polygon class="cls-2" points="19.23 45.22 19.2 45.67 18.73 45.65 18.76 45.19 19.23 45.22"/><polygon class="cls-2" points="19.66 42.13 19.61 42.42 19.15 42.33 19.21 42.04 19.66 42.13"/><path class="cls-2" d="M20.6,38.69c-.11.32-.21.65-.31,1l-.45-.14q.15-.49.33-1Z"/><polygon class="cls-2" points="21.66 36.14 21.59 36.27 21.17 36.07 21.23 35.94 21.66 36.14"/><g class="cls-3"><path class="cls-4" d="M45.66,87.17A39.53,39.53,0,1,1,85.19,47.64,39.58,39.58,0,0,1,45.66,87.17Zm0-78.06A38.53,38.53,0,1,0,84.19,47.64,38.58,38.58,0,0,0,45.66,9.11Z"/></g><g class="cls-3"><path class="cls-5" d="M45.66,76.72A29.08,29.08,0,1,1,74.74,47.64,29.11,29.11,0,0,1,45.66,76.72Zm0-55.15A26.08,26.08,0,1,0,71.74,47.64,26.11,26.11,0,0,0,45.66,21.57Z"/></g><g class="cls-3"><path class="cls-6" d="M45.66,66.24a18.6,18.6,0,1,1,18.6-18.6A18.61,18.61,0,0,1,45.66,66.24Zm0-36.69a18.1,18.1,0,1,0,18.1,18.09A18.12,18.12,0,0,0,45.66,29.55Z"/></g></g></g></g></svg>