<svg xmlns="http://www.w3.org/2000/svg" viewBox="0 0 263.8 182.65"><defs><style>.cls-1{isolation:isolate;}.cls-2,.cls-22{fill:#fff;}.cls-3{opacity:0.95;}.cls-4{opacity:0.9;}.cls-5{opacity:0.85;}.cls-22,.cls-6{opacity:0.8;}.cls-7{opacity:0.75;}.cls-8{opacity:0.7;}.cls-9{opacity:0.65;}.cls-10{opacity:0.6;}.cls-11{opacity:0.55;}.cls-12{opacity:0.5;}.cls-13{opacity:0.45;}.cls-14{opacity:0.4;}.cls-15{opacity:0.35;}.cls-16{opacity:0.3;}.cls-17{opacity:0.25;}.cls-18{opacity:0.2;}.cls-19{opacity:0.15;}.cls-20{opacity:0.1;}.cls-21{mix-blend-mode:screen;}</style></defs><title>资源 1</title><g class="cls-1"><g id="图层_2" data-name="图层 2"><g id="图层_1-2" data-name="图层 1"><path class="cls-2" d="M133.49,175q-1.08,0-2.16,0v-.35c1.16,0,2.32,0,3.48,0V175Zm4.83-.14,0-.35c1.15-.06,2.32-.15,3.47-.27l0,.35C140.65,174.67,139.47,174.77,138.32,174.83Zm-10.48-.05c-1.16-.08-2.33-.18-3.48-.31l0-.34c1.16.12,2.32.23,3.47.3Zm17.43-.64,0-.34c1.13-.17,2.29-.35,3.43-.56l.06.34C147.58,173.79,146.42,174,145.27,174.14ZM120.89,174c-1.15-.17-2.31-.37-3.44-.59l.06-.35c1.13.22,2.29.42,3.43.6Zm31.26-1.15-.08-.34c1.12-.25,2.26-.54,3.38-.84l.09.34C154.42,172.33,153.28,172.62,152.15,172.87ZM114,172.69c-1.13-.27-2.26-.57-3.38-.88l.09-.34c1.12.32,2.25.61,3.37.88ZM158.89,171l-.1-.33c1.1-.35,2.21-.73,3.29-1.13l.12.33C161.11,170.31,160,170.69,158.89,171Zm-51.58-.25c-1.11-.37-2.21-.76-3.3-1.16l.12-.33c1.08.41,2.19.79,3.28,1.16Zm58.15-2.15-.13-.32c1.07-.44,2.14-.91,3.19-1.4l.14.32C167.62,167.73,166.54,168.2,165.46,168.64Zm-64.7-.31c-1.06-.45-2.13-.94-3.18-1.43l.15-.32c1,.5,2.11,1,3.17,1.43Zm71.05-2.63-.16-.31c1-.53,2-1.08,3.06-1.66l.17.31C173.87,164.61,172.84,165.17,171.81,165.7Zm-77.36-.37c-1-.54-2-1.11-3-1.7l.18-.3c1,.59,2,1.15,3,1.69Zm83.43-3.09-.18-.29c1-.62,2-1.26,2.91-1.92l.19.29C179.85,161,178.87,161.62,177.88,162.24Zm-89.46-.43c-1-.62-2-1.28-2.9-1.94l.2-.29c1,.67,1.92,1.32,2.89,1.94Zm95.22-3.53-.2-.28c.92-.69,1.84-1.41,2.74-2.15l.22.27C185.5,156.86,184.57,157.58,183.64,158.28ZM82.7,157.8c-.92-.7-1.83-1.44-2.73-2.18l.23-.27c.89.74,1.8,1.47,2.71,2.17Zm106.36-4-.23-.26c.86-.77,1.72-1.57,2.55-2.37l.24.25C190.79,152.28,189.92,153.08,189.06,153.85Zm-111.72-.53c-.86-.77-1.71-1.58-2.54-2.4l.24-.25c.83.82,1.68,1.62,2.53,2.4ZM194.08,149l-.25-.24c.79-.83,1.58-1.7,2.35-2.57l.26.23C195.67,147.28,194.88,148.15,194.08,149Zm-121.72-.57c-.79-.85-1.58-1.72-2.34-2.6l.27-.23c.75.88,1.53,1.75,2.32,2.59Zm126.33-4.68-.27-.22c.72-.9,1.44-1.83,2.12-2.75l.28.2C200.13,141.9,199.42,142.83,198.69,143.74ZM67.8,143.12c-.72-.91-1.43-1.85-2.11-2.79l.28-.2c.68.94,1.39,1.87,2.1,2.77Zm135-5-.29-.19c.65-1,1.28-2,1.89-2.93l.3.19C204.13,136.17,203.49,137.16,202.84,138.12Zm-139.15-.66c-.64-1-1.27-2-1.87-3l.3-.18c.6,1,1.22,2,1.86,2.94Zm142.82-5.28-.31-.17c.57-1,1.12-2,1.64-3.08l.31.16C207.63,130.13,207.07,131.16,206.51,132.18Zm-146.43-.71c-.56-1-1.1-2.06-1.61-3.1l.31-.16c.51,1,1,2.08,1.61,3.09Zm149.58-5.53-.32-.14c.48-1,.94-2.13,1.38-3.2l.32.13C210.6,123.81,210.14,124.89,209.66,125.94ZM57,125.2c-.46-1.06-.92-2.14-1.34-3.23l.32-.12c.43,1.07.88,2.15,1.34,3.21Zm155.3-5.74-.33-.11c.39-1.09.76-2.2,1.1-3.3l.33.1C213,117.25,212.67,118.37,212.28,119.46Zm-157.85-.77c-.38-1.09-.74-2.21-1.08-3.33l.34-.1c.33,1.11.69,2.23,1.07,3.32Zm159.92-5.9-.34-.09c.3-1.11.57-2.25.82-3.38l.34.07C214.92,110.53,214.64,111.67,214.35,112.79ZM52.42,112c-.28-1.13-.55-2.28-.79-3.41l.35-.07c.23,1.13.5,2.27.78,3.39Zm163.43-6-.34-.06c.2-1.13.38-2.29.53-3.44l.35.05C216.23,103.66,216.05,104.83,215.85,106ZM51,105.15c-.19-1.14-.36-2.3-.51-3.46l.35,0c.14,1.15.31,2.31.5,3.45ZM216.78,99l-.35,0c.11-1.15.19-2.32.25-3.48l.35,0C217,96.71,216.89,97.88,216.78,99ZM50.13,98.22c-.1-1.16-.17-2.33-.22-3.49l.35,0c.05,1.16.12,2.33.21,3.48Zm167-6.16h-.35c0-.24,0-.48,0-.72,0-.92,0-1.85,0-2.76h.35c0,.91,0,1.84,0,2.77C217.14,91.57,217.13,91.81,217.13,92.06ZM50.19,91.23h-.35c0-1.15,0-2.33.08-3.49h.35C50.22,88.91,50.19,90.08,50.19,91.23ZM216.55,85.1c-.08-1.16-.19-2.32-.33-3.47l.35,0c.13,1.15.25,2.32.33,3.48ZM50.49,84.28l-.35,0c.1-1.15.22-2.32.37-3.48l.34,0C50.71,82,50.59,83.13,50.49,84.28Zm165.26-6.1c-.18-1.14-.39-2.29-.62-3.42l.34-.07c.23,1.13.44,2.29.62,3.44ZM51.36,77.37,51,77.32c.19-1.15.41-2.3.65-3.44L52,74C51.77,75.09,51.55,76.24,51.36,77.37Zm163-6c-.28-1.12-.58-2.26-.9-3.36l.33-.1c.33,1.11.63,2.25.91,3.38ZM52.81,70.57l-.34-.09c.29-1.13.6-2.26.94-3.37l.33.1C53.41,68.32,53.09,69.44,52.81,70.57Zm159.62-5.9c-.37-1.09-.77-2.19-1.18-3.27l.32-.13c.42,1.09.82,2.19,1.19,3.29ZM54.81,63.9l-.33-.11c.39-1.1.8-2.2,1.22-3.28l.33.13C55.6,61.72,55.19,62.81,54.81,63.9Zm155.12-5.72c-.46-1.07-1-2.13-1.45-3.17l.31-.15c.51,1,1,2.11,1.46,3.18ZM57.37,57.43l-.31-.14c.47-1.06,1-2.13,1.48-3.16l.32.15C58.34,55.32,57.84,56.37,57.37,57.43ZM206.9,51.91c-.55-1-1.13-2-1.72-3l.3-.18c.59,1,1.17,2,1.72,3ZM60.47,51.2,60.16,51c.56-1,1.15-2,1.75-3l.3.18C61.61,49.18,61,50.19,60.47,51.2Zm142.87-5.28c-.62-1-1.28-1.93-2-2.88l.29-.2c.67.95,1.33,1.92,2,2.89ZM64.07,45.25l-.29-.19c.64-1,1.32-1.93,2-2.87l.28.21C65.38,43.33,64.71,44.29,64.07,45.25Zm135.23-5c-.71-.91-1.45-1.82-2.2-2.71l.27-.22c.75.88,1.49,1.8,2.21,2.71ZM68.17,39.63l-.28-.22c.72-.91,1.47-1.81,2.23-2.69l.26.23C69.63,37.82,68.88,38.72,68.17,39.63ZM194.8,34.94c-.78-.85-1.59-1.7-2.41-2.52l-.91-.89.24-.25.92.9c.82.82,1.63,1.67,2.42,2.52ZM72.71,34.36l-.25-.24c.61-.65,1.24-1.3,1.88-1.94l.56-.56.25.25-.56.55C74,33.06,73.32,33.71,72.71,34.36Zm5-4.87-.23-.26c.86-.78,1.75-1.55,2.64-2.29l.22.27C79.42,27.94,78.54,28.71,77.68,29.49Zm111.25-.33c-.86-.78-1.75-1.54-2.64-2.27l.22-.27c.89.74,1.79,1.5,2.66,2.28ZM83,25l-.21-.28c.93-.71,1.88-1.4,2.83-2.07l.2.29C84.9,23.64,84,24.33,83,25Zm100.53-.3c-.93-.7-1.88-1.38-2.82-2l.19-.29c1,.66,1.91,1.34,2.84,2ZM88.74,21.05l-.19-.3c1-.62,2-1.24,3-1.82l.18.31C90.72,19.81,89.72,20.42,88.74,21.05Zm89.09-.26c-1-.62-2-1.22-3-1.79l.17-.3c1,.57,2,1.18,3,1.79ZM94.76,17.55l-.16-.31c1-.54,2.09-1.06,3.13-1.56l.15.32C96.84,16.49,95.79,17,94.76,17.55Zm77-.22c-1-.53-2.08-1-3.13-1.53l.15-.32c1.05.49,2.1,1,3.14,1.54Zm-70.74-2.75-.14-.33c1.07-.45,2.17-.88,3.25-1.29l.13.33C103.21,13.69,102.12,14.13,101.06,14.58Zm64.43-.18c-1.07-.45-2.16-.87-3.24-1.27l.12-.33c1.08.4,2.18.83,3.25,1.27Zm-57.91-2.26-.11-.33c1.11-.36,2.24-.7,3.35-1l.09.34C109.8,11.44,108.68,11.78,107.58,12.14ZM159,12c-1.1-.35-2.23-.69-3.34-1l.09-.34c1.12.31,2.25.64,3.35,1Zm-44.68-1.74-.08-.34c1.13-.27,2.28-.51,3.42-.73l.07.34C116.55,9.75,115.41,10,114.28,10.26Zm38-.1c-1.13-.26-2.28-.5-3.41-.71l.06-.35c1.14.22,2.29.45,3.42.72ZM121.12,9l-.05-.35c1.15-.17,2.32-.32,3.47-.44l0,.34C123.43,8.63,122.27,8.77,121.12,9Zm24.28-.07c-1.14-.17-2.3-.31-3.45-.42l0-.35c1.16.12,2.32.26,3.47.42ZM128,8.21l0-.35c1.16-.08,2.33-.13,3.49-.16v.35C130.37,8.08,129.19,8.13,128,8.21Zm10.44,0c-1.15-.07-2.32-.12-3.48-.14V7.69c1.16,0,2.34.07,3.49.14Z"/><path class="cls-2" d="M133.49,165A73.69,73.69,0,0,1,81.38,39.22,73.69,73.69,0,1,1,185.6,143.43,73.21,73.21,0,0,1,133.49,165Zm0-147a73.35,73.35,0,0,0-51.86,125.2A73.34,73.34,0,1,0,185.35,39.47,72.83,72.83,0,0,0,133.49,18Z"/><path class="cls-2" d="M75.64,33.48c-1.1,1.1-2.16,2.23-3.19,3.37l5.17,4.3c.89-1,1.82-2,2.77-2.92s1.93-1.88,2.92-2.78L79,30.28C77.87,31.31,76.75,32.38,75.64,33.48Z"/><g class="cls-3"><path class="cls-2" d="M66.48,44.4q-1.35,1.92-2.56,3.88l5.83,3.33c.71-1.13,1.46-2.25,2.23-3.35s1.57-2.19,2.39-3.24l-5.13-4.35C68.29,41.88,67.37,43.13,66.48,44.4Z"/></g><g class="cls-4"><path class="cls-2" d="M59.35,56.75c-.66,1.41-1.28,2.84-1.85,4.26l6.33,2.27c.5-1.23,1-2.47,1.61-3.69s1.16-2.42,1.79-3.6L61.42,52.6Q60.34,54.64,59.35,56.75Z"/></g><g class="cls-5"><path class="cls-2" d="M54.47,70.15c-.4,1.51-.76,3-1.08,4.52L60,75.8c.28-1.3.6-2.61,1-3.91S61.69,69.3,62.1,68L55.79,65.7C55.32,67.16,54.87,68.65,54.47,70.15Z"/></g><g class="cls-6"><path class="cls-2" d="M52,84.19c-.13,1.56-.22,3.1-.28,4.64l6.73,0c.05-1.33.13-2.67.25-4s.26-2.68.45-4l-6.62-1.2C52.31,81.1,52.13,82.64,52,84.19Z"/></g><g class="cls-7"><path class="cls-2" d="M52,98.45c.14,1.56.32,3.09.53,4.62l6.62-1.2c-.19-1.32-.34-2.66-.45-4s-.2-2.69-.25-4l-6.73,0C51.77,95.36,51.86,96.9,52,98.45Z"/></g><g class="cls-8"><path class="cls-2" d="M54.47,112.5c.4,1.5.85,3,1.32,4.45l6.31-2.33c-.41-1.27-.79-2.56-1.14-3.86s-.67-2.61-1-3.91L53.39,108C53.71,109.49,54.07,111,54.47,112.5Z"/></g><g class="cls-9"><path class="cls-2" d="M59.35,125.9q1,2.11,2.07,4.15l5.81-3.39c-.63-1.18-1.22-2.38-1.79-3.6s-1.11-2.46-1.61-3.69l-6.33,2.27C58.07,123.06,58.69,124.49,59.35,125.9Z"/></g><g class="cls-10"><path class="cls-2" d="M66.48,138.25c.89,1.27,1.81,2.52,2.76,3.73l5.13-4.35c-.82-1-1.62-2.13-2.39-3.24s-1.52-2.22-2.23-3.35l-5.83,3.33Q65.14,136.34,66.48,138.25Z"/></g><g class="cls-11"><path class="cls-2" d="M75.64,149.17c1.11,1.1,2.23,2.17,3.38,3.2l4.29-5.17c-1-.9-2-1.82-2.92-2.78s-1.88-1.93-2.77-2.92l-5.17,4.3C73.48,146.94,74.54,148.07,75.64,149.17Z"/></g><g class="cls-12"><path class="cls-2" d="M86.57,158.34c1.27.89,2.57,1.74,3.87,2.56l3.34-5.84c-1.14-.71-2.25-1.45-3.36-2.23s-2.19-1.57-3.24-2.39l-4.34,5.13Q84.66,157,86.57,158.34Z"/></g><g class="cls-13"><path class="cls-2" d="M98.92,165.47q2.11,1,4.26,1.85l2.27-6.33c-1.24-.5-2.47-1-3.69-1.61s-2.43-1.17-3.61-1.79l-3.39,5.8C96.12,164.11,97.5,164.81,98.92,165.47Z"/></g><g class="cls-14"><path class="cls-2" d="M112.32,170.34c1.5.41,3,.77,4.51,1.08L118,164.8c-1.31-.28-2.61-.59-3.92-.94s-2.59-.73-3.86-1.14l-2.33,6.3C109.33,169.5,110.81,169.94,112.32,170.34Z"/></g><g class="cls-15"><path class="cls-2" d="M126.36,172.82c1.55.14,3.1.23,4.64.28l0-6.72c-1.33,0-2.67-.13-4-.25s-2.67-.27-4-.45l-1.2,6.61C123.27,172.51,124.81,172.68,126.36,172.82Z"/></g><g class="cls-16"><path class="cls-2" d="M140.62,172.82c1.55-.14,3.09-.31,4.61-.53L144,165.68c-1.33.18-2.66.33-4,.45s-2.68.2-4,.25l0,6.72C137.52,173.05,139.07,173,140.62,172.82Z"/></g><g class="cls-17"><path class="cls-2" d="M154.66,170.34c1.51-.4,3-.84,4.45-1.32l-2.32-6.3q-1.9.61-3.87,1.14c-1.3.35-2.61.66-3.91.94l1.13,6.62C151.65,171.11,153.16,170.75,154.66,170.34Z"/></g><g class="cls-17"><path class="cls-2" d="M168.06,165.47c1.41-.66,2.8-1.36,4.16-2.08l-3.39-5.8c-1.18.62-2.38,1.22-3.61,1.79s-2.45,1.11-3.69,1.61l2.27,6.33Q165.95,166.45,168.06,165.47Z"/></g><g class="cls-18"><path class="cls-2" d="M180.41,158.34q1.92-1.35,3.73-2.77l-4.34-5.13c-1.06.82-2.14,1.62-3.24,2.39s-2.23,1.52-3.36,2.23l3.34,5.84C177.84,160.08,179.14,159.23,180.41,158.34Z"/></g><g class="cls-19"><path class="cls-2" d="M191.33,149.17c1.11-1.1,2.17-2.23,3.2-3.37l-5.17-4.3c-.9,1-1.82,2-2.77,2.92s-1.93,1.88-2.92,2.78l4.29,5.17Q189.69,150.82,191.33,149.17Z"/></g><path class="cls-2" d="M200.5,138.25c.89-1.28,1.75-2.57,2.56-3.88L197.23,131c-.72,1.13-1.46,2.25-2.23,3.35s-1.57,2.19-2.39,3.24l5.13,4.35C198.68,140.77,199.61,139.52,200.5,138.25Z"/><g class="cls-4"><path class="cls-2" d="M207.63,125.9c.66-1.41,1.27-2.84,1.85-4.26l-6.33-2.27c-.5,1.23-1,2.47-1.61,3.69s-1.17,2.42-1.79,3.6l5.81,3.39Q206.64,128,207.63,125.9Z"/></g><g class="cls-6"><path class="cls-2" d="M212.51,112.5c.4-1.51.76-3,1.08-4.52L207,106.85c-.28,1.3-.59,2.61-.94,3.91s-.73,2.59-1.14,3.86l6.31,2.33C211.66,115.49,212.1,114,212.51,112.5Z"/></g><g class="cls-8"><path class="cls-2" d="M215,98.45c.14-1.55.23-3.09.28-4.63l-6.72,0c0,1.33-.13,2.67-.25,4s-.27,2.68-.45,4l6.61,1.2C214.67,101.54,214.85,100,215,98.45Z"/></g><g class="cls-10"><path class="cls-2" d="M215,84.19c-.13-1.55-.31-3.08-.53-4.61l-6.61,1.2c.18,1.32.34,2.66.45,4s.2,2.69.25,4l6.72,0C215.21,87.29,215.12,85.75,215,84.19Z"/></g><g class="cls-12"><path class="cls-2" d="M212.51,70.15c-.41-1.5-.85-3-1.32-4.45L204.88,68c.41,1.27.79,2.56,1.14,3.86s.66,2.61.94,3.91l6.63-1.13C213.27,73.16,212.91,71.66,212.51,70.15Z"/></g><g class="cls-14"><path class="cls-2" d="M207.63,56.75q-1-2.11-2.07-4.15L199.75,56c.62,1.18,1.22,2.38,1.79,3.6s1.11,2.46,1.61,3.69L209.48,61C208.9,59.59,208.29,58.16,207.63,56.75Z"/></g><g class="cls-16"><path class="cls-2" d="M200.5,44.4c-.89-1.27-1.82-2.52-2.76-3.73L192.61,45c.82,1,1.61,2.13,2.39,3.24s1.51,2.22,2.23,3.35l5.83-3.33C202.25,47,201.39,45.68,200.5,44.4Z"/></g><g class="cls-18"><path class="cls-2" d="M191.33,33.48q-1.65-1.65-3.37-3.2l-4.29,5.17c1,.9,2,1.82,2.92,2.78s1.87,1.93,2.77,2.92l5.17-4.3C193.5,35.71,192.44,34.58,191.33,33.48Z"/></g><g class="cls-20"><path class="cls-2" d="M180.41,24.31c-1.27-.89-2.57-1.74-3.87-2.56l-3.34,5.84c1.13.71,2.25,1.45,3.36,2.23s2.18,1.57,3.24,2.39l4.34-5.13Q182.33,25.66,180.41,24.31Z"/></g><path class="cls-2" d="M168.06,17.18c-1.41-.66-2.83-1.27-4.26-1.85l-2.27,6.33c1.24.5,2.47,1,3.69,1.61s2.43,1.17,3.61,1.79l3.39-5.8C170.86,18.54,169.47,17.84,168.06,17.18Z"/><g class="cls-7"><path class="cls-2" d="M154.66,12.31c-1.5-.41-3-.77-4.52-1.08L149,17.85c1.3.28,2.61.59,3.91.94s2.6.73,3.87,1.14l2.32-6.3C157.65,13.15,156.17,12.71,154.66,12.31Z"/></g><g class="cls-12"><path class="cls-2" d="M140.62,9.83c-1.55-.14-3.1-.23-4.64-.28l0,6.72c1.34.05,2.68.13,4,.25s2.68.27,4,.45l1.19-6.61C143.71,10.14,142.17,10,140.62,9.83Z"/></g><g class="cls-17"><path class="cls-2" d="M126.36,9.83c-1.55.14-3.09.31-4.62.53l1.2,6.61c1.33-.18,2.66-.33,4-.45s2.69-.2,4-.25l0-6.72C129.46,9.6,127.91,9.69,126.36,9.83Z"/></g><path class="cls-2" d="M112.32,12.31c-1.51.4-3,.84-4.46,1.32l2.33,6.3c1.27-.41,2.56-.79,3.86-1.14s2.61-.66,3.92-.94l-1.14-6.62C115.33,11.54,113.82,11.9,112.32,12.31Z"/><g class="cls-17"><path class="cls-2" d="M98.92,17.18c-1.42.66-2.8,1.36-4.16,2.08l3.39,5.8c1.18-.62,2.38-1.22,3.61-1.79s2.45-1.11,3.69-1.61l-2.27-6.33C101.75,15.91,100.33,16.52,98.92,17.18Z"/></g><g class="cls-12"><path class="cls-2" d="M86.57,24.31q-1.92,1.35-3.73,2.77l4.34,5.13c1-.82,2.13-1.62,3.24-2.39s2.22-1.52,3.36-2.23l-3.34-5.84C89.14,22.57,87.84,23.42,86.57,24.31Z"/></g><path class="cls-2" d="M144.52,182.65l-.09-.69a91.32,91.32,0,0,0,79.69-79.69l.69.08a92,92,0,0,1-80.29,80.3ZM42.86,80.38l-.7-.08A92,92,0,0,1,122.46,0l.09.69A91.32,91.32,0,0,0,42.86,80.38Z"/><rect class="cls-2" x="84.84" y="41.85" width="0.8" height="4.16" transform="translate(-6.1 73.12) rotate(-44.99)"/><rect class="cls-2" x="74.21" y="55.95" width="0.8" height="4.16" transform="translate(-12.95 93.62) rotate(-59.99)"/><rect class="cls-2" x="67.6" y="72.32" width="0.8" height="4.16" transform="translate(-21.46 120.83) rotate(-75)"/><rect class="cls-2" x="65.45" y="89.85" width="0.8" height="4.16" transform="translate(-26.07 157.78) rotate(-90)"/><rect class="cls-2" x="67.91" y="107.33" width="0.8" height="4.16" transform="translate(-19.69 203.71) rotate(-105)"/><rect class="cls-2" x="74.81" y="123.59" width="0.8" height="4.16" transform="translate(3.98 253.63) rotate(-120)"/><rect class="cls-2" x="85.69" y="137.5" width="0.8" height="4.16" transform="translate(48.27 299.15) rotate(-135)"/><rect class="cls-2" x="99.79" y="148.12" width="0.8" height="4.16" transform="translate(111.87 330.37) rotate(-150)"/><rect class="cls-2" x="116.16" y="154.73" width="0.8" height="4.16" transform="translate(188.56 338.46) rotate(-165)"/><rect class="cls-2" x="133.69" y="156.88" width="0.8" height="4.16" transform="translate(268.18 317.92) rotate(180)"/><rect class="cls-2" x="151.18" y="154.42" width="0.8" height="4.16" transform="translate(338.5 268.42) rotate(165)"/><rect class="cls-2" x="167.43" y="147.52" width="0.8" height="4.16" transform="translate(387.98 195.22) rotate(149.99)"/><rect class="cls-2" x="181.34" y="136.65" width="0.8" height="4.16" transform="translate(408.34 108.26) rotate(134.99)"/><rect class="cls-2" x="191.96" y="122.54" width="0.8" height="4.16" transform="translate(396.47 20.32) rotate(120)"/><rect class="cls-2" x="198.58" y="106.17" width="0.8" height="4.16" transform="translate(355.04 -55.93) rotate(105)"/><rect class="cls-2" x="200.73" y="88.64" width="0.8" height="4.16" transform="translate(291.85 -110.4) rotate(90)"/><rect class="cls-2" x="198.26" y="71.16" width="0.8" height="4.16" transform="translate(217.97 -137.61) rotate(75)"/><rect class="cls-2" x="191.36" y="54.91" width="0.8" height="4.16" transform="translate(145.24 -137.58) rotate(60)"/><rect class="cls-2" x="180.49" y="40.99" width="0.8" height="4.16" transform="translate(83.44 -115.29) rotate(45)"/><rect class="cls-2" x="166.39" y="30.37" width="0.8" height="4.16" transform="translate(38.58 -79.06) rotate(30.01)"/><rect class="cls-2" x="150.01" y="23.76" width="0.8" height="4.16" transform="translate(11.8 -38.02) rotate(14.99)"/><rect class="cls-2" x="132.49" y="21.61" width="0.8" height="4.16"/><rect class="cls-2" x="115" y="24.07" width="0.8" height="4.16" transform="translate(-2.84 30.76) rotate(-15)"/><rect class="cls-2" x="98.75" y="30.97" width="0.8" height="4.16" transform="translate(-3.24 54.01) rotate(-30.01)"/><g class="cls-12"><path class="cls-2" d="M83.1,40.78a.71.71,0,1,1-1,0A.71.71,0,0,1,83.1,40.78Z"/><path class="cls-2" d="M78.89,45.36a.72.72,0,1,1-1,.09A.72.72,0,0,1,78.89,45.36Z"/><path class="cls-2" d="M75.09,50.29a.72.72,0,1,1-.82,1.18.72.72,0,0,1,.82-1.18Z"/><path class="cls-2" d="M71.74,55.54a.72.72,0,1,1-1,.26A.72.72,0,0,1,71.74,55.54Z"/><path class="cls-2" d="M68.85,61.06a.71.71,0,0,1,.35.95.72.72,0,1,1-.35-.95Z"/><path class="cls-2" d="M66.46,66.81A.71.71,0,1,1,66,68.15a.71.71,0,1,1,.49-1.34Z"/><path class="cls-2" d="M64.58,72.74a.72.72,0,1,1-.88.51A.72.72,0,0,1,64.58,72.74Z"/><path class="cls-2" d="M63.22,78.82a.72.72,0,1,1-.83.58A.71.71,0,0,1,63.22,78.82Z"/><path class="cls-2" d="M62.4,85a.71.71,0,0,1,.65.78.72.72,0,0,1-.77.65A.72.72,0,1,1,62.4,85Z"/><circle class="cls-2" cx="62.12" cy="91.93" r="0.72"/><path class="cls-2" d="M62.38,97.43a.72.72,0,1,1-.65.78A.71.71,0,0,1,62.38,97.43Z"/><path class="cls-2" d="M63.18,103.6a.73.73,0,0,1,.83.59.72.72,0,1,1-.83-.59Z"/><path class="cls-2" d="M64.52,109.69a.71.71,0,0,1,.88.5.72.72,0,1,1-1.39.37A.71.71,0,0,1,64.52,109.69Z"/><path class="cls-2" d="M66.38,115.63a.7.7,0,0,1,.92.43.71.71,0,0,1-1.34.49A.71.71,0,0,1,66.38,115.63Z"/><path class="cls-2" d="M68.76,121.38a.72.72,0,0,1,.95.35.72.72,0,0,1-1.3.61A.72.72,0,0,1,68.76,121.38Z"/><path class="cls-2" d="M71.62,126.91a.72.72,0,1,1-.26,1A.72.72,0,0,1,71.62,126.91Z"/><path class="cls-2" d="M75,132.17a.72.72,0,0,1,1,.17.71.71,0,0,1-.18,1,.72.72,0,0,1-1-.17A.73.73,0,0,1,75,132.17Z"/><path class="cls-2" d="M78.74,137.11a.72.72,0,0,1,1,.09.72.72,0,1,1-1.1.92A.72.72,0,0,1,78.74,137.11Z"/><path class="cls-2" d="M82.94,141.71a.72.72,0,0,1,1,0,.71.71,0,0,1,0,1,.72.72,0,0,1-1,0A.71.71,0,0,1,82.94,141.71Z"/><path class="cls-2" d="M87.52,145.92a.71.71,0,0,1,1-.08.71.71,0,0,1,.09,1,.71.71,0,0,1-1,.08A.72.72,0,0,1,87.52,145.92Z"/><path class="cls-2" d="M92.46,149.72a.72.72,0,0,1,1-.17.72.72,0,0,1-.83,1.17A.72.72,0,0,1,92.46,149.72Z"/><path class="cls-2" d="M97.7,153.08a.72.72,0,0,1,1.25.71.72.72,0,0,1-1.25-.71Z"/><path class="cls-2" d="M103.22,156a.72.72,0,1,1,1.3.61.72.72,0,0,1-1.3-.61Z"/><path class="cls-2" d="M109,158.35a.72.72,0,1,1,1.35.49.72.72,0,1,1-1.35-.49Z"/><path class="cls-2" d="M114.91,160.23a.71.71,0,0,1,1.38.37.71.71,0,1,1-1.38-.37Z"/><path class="cls-2" d="M121,161.59a.72.72,0,1,1,.58.83A.71.71,0,0,1,121,161.59Z"/><path class="cls-2" d="M127.15,162.41a.73.73,0,0,1,.78-.65.72.72,0,0,1-.12,1.43A.72.72,0,0,1,127.15,162.41Z"/><path class="cls-2" d="M133.37,162.7a.72.72,0,1,1,.72.71A.72.72,0,0,1,133.37,162.7Z"/><path class="cls-2" d="M139.59,162.43a.72.72,0,0,1,.66-.77.7.7,0,0,1,.77.65.72.72,0,0,1-.65.78A.73.73,0,0,1,139.59,162.43Z"/><path class="cls-2" d="M145.77,161.63a.72.72,0,1,1,.83.58A.71.71,0,0,1,145.77,161.63Z"/><path class="cls-2" d="M151.85,160.29a.71.71,0,1,1,.88.51A.72.72,0,0,1,151.85,160.29Z"/><path class="cls-2" d="M157.79,158.43a.72.72,0,1,1,.92.43A.73.73,0,0,1,157.79,158.43Z"/><path class="cls-2" d="M163.55,156.06a.72.72,0,1,1,1.3-.61.72.72,0,0,1-.35,1A.71.71,0,0,1,163.55,156.06Z"/><path class="cls-2" d="M169.07,153.19a.72.72,0,1,1,1,.26A.72.72,0,0,1,169.07,153.19Z"/><path class="cls-2" d="M174.33,149.85a.7.7,0,0,1,.18-1,.72.72,0,0,1,1,.17.73.73,0,0,1-.18,1A.71.71,0,0,1,174.33,149.85Z"/><path class="cls-2" d="M179.28,146.07a.71.71,0,0,1,.09-1,.72.72,0,0,1,.92,1.1A.71.71,0,0,1,179.28,146.07Z"/><path class="cls-2" d="M183.87,141.87a.71.71,0,0,1,0-1,.72.72,0,0,1,1,0,.71.71,0,0,1,0,1A.72.72,0,0,1,183.87,141.87Z"/><path class="cls-2" d="M188.09,137.29a.72.72,0,0,1-.09-1,.72.72,0,1,1,.09,1Z"/><path class="cls-2" d="M191.89,132.36a.72.72,0,1,1,1-.18A.71.71,0,0,1,191.89,132.36Z"/><path class="cls-2" d="M195.24,127.11a.72.72,0,1,1,1-.26A.72.72,0,0,1,195.24,127.11Z"/><path class="cls-2" d="M198.12,121.59a.72.72,0,0,1,.61-1.3.72.72,0,1,1-.61,1.3Z"/><path class="cls-2" d="M200.52,115.84a.71.71,0,1,1,.91-.43A.7.7,0,0,1,200.52,115.84Z"/><path class="cls-2" d="M202.4,109.91a.72.72,0,1,1,.88-.51A.72.72,0,0,1,202.4,109.91Z"/><path class="cls-2" d="M203.76,103.83a.72.72,0,1,1,.24-1.41.73.73,0,0,1,.59.83A.71.71,0,0,1,203.76,103.83Z"/><path class="cls-2" d="M204.58,97.66a.71.71,0,0,1-.65-.78.71.71,0,1,1,.65.78Z"/><path class="cls-2" d="M204.86,91.44a.72.72,0,1,1,.72-.72A.72.72,0,0,1,204.86,91.44Z"/><path class="cls-2" d="M204.6,85.22a.72.72,0,1,1,.65-.78A.72.72,0,0,1,204.6,85.22Z"/><path class="cls-2" d="M203.8,79.05a.74.74,0,0,1-.84-.59.73.73,0,0,1,.59-.83.71.71,0,0,1,.83.58A.72.72,0,0,1,203.8,79.05Z"/><path class="cls-2" d="M202.46,73a.71.71,0,1,1,.5-.87A.7.7,0,0,1,202.46,73Z"/><path class="cls-2" d="M200.59,67a.71.71,0,0,1-.49-1.34.71.71,0,1,1,.49,1.34Z"/><path class="cls-2" d="M198.22,61.27a.72.72,0,0,1-.95-.35.71.71,0,0,1,.35-1,.72.72,0,1,1,.6,1.3Z"/><path class="cls-2" d="M195.36,55.74a.72.72,0,1,1,.26-1A.71.71,0,0,1,195.36,55.74Z"/><path class="cls-2" d="M192,50.48a.71.71,0,1,1-.82-1.17.71.71,0,0,1,1,.17A.72.72,0,0,1,192,50.48Z"/><path class="cls-2" d="M188.24,45.54a.72.72,0,0,1-1-.09.71.71,0,0,1,.08-1,.71.71,0,0,1,1,.09A.71.71,0,0,1,188.24,45.54Z"/><path class="cls-2" d="M184,40.94a.72.72,0,0,1-1,0,.71.71,0,0,1,0-1,.72.72,0,0,1,1,0A.71.71,0,0,1,184,40.94Z"/><path class="cls-2" d="M179.45,36.73a.72.72,0,1,1-.08-1A.71.71,0,0,1,179.45,36.73Z"/><path class="cls-2" d="M174.52,32.93a.72.72,0,0,1-1,.17.71.71,0,1,1,1-.17Z"/><path class="cls-2" d="M169.27,29.57a.71.71,0,1,1-1.24-.71.72.72,0,0,1,1-.27A.71.71,0,0,1,169.27,29.57Z"/><path class="cls-2" d="M163.76,26.69a.73.73,0,0,1-1,.35.72.72,0,1,1,1-.35Z"/><path class="cls-2" d="M158,24.3a.72.72,0,1,1-1.35-.49.72.72,0,1,1,1.35.49Z"/><path class="cls-2" d="M152.07,22.42a.71.71,0,1,1-.5-.88A.71.71,0,0,1,152.07,22.42Z"/><path class="cls-2" d="M146,21.06a.71.71,0,0,1-.83.58.73.73,0,0,1-.59-.83.72.72,0,0,1,1.42.25Z"/><path class="cls-2" d="M139.82,20.24a.71.71,0,1,1-.65-.78A.71.71,0,0,1,139.82,20.24Z"/><path class="cls-2" d="M133.6,20a.72.72,0,1,1-.71-.71A.71.71,0,0,1,133.6,20Z"/><path class="cls-2" d="M127.38,20.22a.71.71,0,1,1-1.42.12.71.71,0,1,1,1.42-.12Z"/><path class="cls-2" d="M121.21,21a.72.72,0,1,1-.83-.58A.71.71,0,0,1,121.21,21Z"/><path class="cls-2" d="M115.13,22.36a.72.72,0,0,1-1.39.37.72.72,0,0,1,.51-.88A.72.72,0,0,1,115.13,22.36Z"/><path class="cls-2" d="M109.19,24.22a.72.72,0,1,1-.92-.43A.73.73,0,0,1,109.19,24.22Z"/><path class="cls-2" d="M103.43,26.59a.72.72,0,1,1-1.3.61.72.72,0,0,1,1.3-.61Z"/><path class="cls-2" d="M97.9,29.46a.72.72,0,1,1-1-.26A.72.72,0,0,1,97.9,29.46Z"/><path class="cls-2" d="M92.65,32.8a.71.71,0,0,1-.18,1,.71.71,0,1,1,.18-1Z"/><path class="cls-2" d="M87.7,36.58a.71.71,0,0,1-.09,1,.72.72,0,0,1-.92-1.1A.71.71,0,0,1,87.7,36.58Z"/></g><path class="cls-2" d="M133.49,122a30.68,30.68,0,1,1,21.7-9A30.48,30.48,0,0,1,133.49,122Zm0-60.67a30,30,0,1,0,21.2,8.78A29.79,29.79,0,0,0,133.49,61.34Z"/><path class="cls-2" d="M133.49,118a26.69,26.69,0,1,1,18.87-7.82A26.51,26.51,0,0,1,133.49,118Zm0-53a26.34,26.34,0,1,0,18.62,7.71A26.17,26.17,0,0,0,133.49,65Z"/><path class="cls-2" d="M133.49,114.23a22.91,22.91,0,1,1,16.2-6.71A22.75,22.75,0,0,1,133.49,114.23Zm0-45.64a22.74,22.74,0,1,0,16.07,6.66A22.63,22.63,0,0,0,133.49,68.59Z"/><path class="cls-2" d="M133.49,127.17a35.85,35.85,0,1,1,25.34-10.5A35.61,35.61,0,0,1,133.49,127.17Zm0-70.29A34.45,34.45,0,1,0,157.85,67,34.22,34.22,0,0,0,133.49,56.88Z"/><g class="cls-12"><g class="cls-10"><polygon class="cls-2" points="98.9 40.17 100.13 40.06 97.21 35.74 95.98 35.85 98.9 40.17"/><polygon class="cls-2" points="103.09 39.86 104.34 39.79 101.8 35.44 100.55 35.51 103.09 39.86"/><polygon class="cls-2" points="107.36 39.68 108.63 39.65 106.47 35.28 105.2 35.32 107.36 39.68"/><polygon class="cls-2" points="111.7 39.64 112.99 39.65 111.21 35.28 109.92 35.27 111.7 39.64"/><polygon class="cls-2" points="116.1 39.73 117.4 39.78 116.01 35.42 114.71 35.37 116.1 39.73"/><polygon class="cls-2" points="120.53 39.95 121.85 40.04 120.85 35.71 119.54 35.62 120.53 39.95"/><polygon class="cls-2" points="125 40.31 126.32 40.44 125.73 36.14 124.4 36.01 125 40.31"/><polygon class="cls-2" points="129.49 40.81 130.81 40.97 130.61 36.71 129.29 36.55 129.49 40.81"/><polygon class="cls-2" points="133.99 41.43 135.31 41.64 135.51 37.43 134.18 37.23 133.99 41.43"/><polygon class="cls-2" points="138.47 42.19 139.79 42.43 140.39 38.29 139.07 38.05 138.47 42.19"/><polygon class="cls-2" points="142.94 43.07 144.25 43.35 145.25 39.29 143.94 39.01 142.94 43.07"/><polygon class="cls-2" points="147.38 44.08 148.69 44.4 150.07 40.43 148.77 40.11 147.38 44.08"/><polygon class="cls-2" points="151.78 45.21 153.07 45.56 154.85 41.7 153.56 41.34 151.78 45.21"/><polygon class="cls-2" points="156.12 46.46 157.39 46.85 159.56 43.09 158.29 42.7 156.12 46.46"/><polygon class="cls-2" points="160.4 47.83 161.65 48.25 164.19 44.61 162.94 44.19 160.4 47.83"/><polygon class="cls-2" points="164.6 49.31 165.82 49.76 168.74 46.26 167.51 45.8 164.6 49.31"/><polygon class="cls-2" points="168.71 50.89 169.9 51.38 173.19 48.02 171.99 47.53 168.71 50.89"/><polygon class="cls-2" points="172.72 52.58 173.88 53.1 177.52 49.89 176.35 49.37 172.72 52.58"/><polygon class="cls-2" points="176.61 54.37 177.74 54.92 181.72 51.87 180.59 51.32 176.61 54.37"/><polygon class="cls-2" points="180.39 56.26 181.48 56.83 185.79 53.94 184.7 53.37 180.39 56.26"/><polygon class="cls-2" points="184.03 58.23 185.08 58.83 189.72 56.12 188.66 55.52 184.03 58.23"/><polygon class="cls-2" points="187.53 60.29 188.53 60.91 193.48 58.38 192.48 57.77 187.53 60.29"/><polygon class="cls-2" points="190.87 62.43 191.83 63.07 197.07 60.73 196.12 60.09 190.87 62.43"/><polygon class="cls-2" points="194.05 64.64 194.97 65.3 200.49 63.16 199.58 62.5 194.05 64.64"/><polygon class="cls-2" points="197.07 66.91 197.93 67.59 203.72 65.65 202.86 64.97 197.07 66.91"/><polygon class="cls-2" points="199.9 69.25 200.71 69.94 206.75 68.21 205.95 67.52 199.9 69.25"/><polygon class="cls-2" points="202.55 71.64 203.3 72.35 209.58 70.83 208.83 70.12 202.55 71.64"/><polygon class="cls-2" points="205.01 74.07 205.7 74.8 212.19 73.49 211.5 72.77 205.01 74.07"/><polygon class="cls-2" points="207.26 76.55 207.89 77.28 214.59 76.2 213.95 75.47 207.26 76.55"/><polygon class="cls-2" points="209.31 79.06 209.88 79.8 216.75 78.94 216.19 78.2 209.31 79.06"/><polygon class="cls-2" points="211.14 81.59 211.65 82.34 218.69 81.71 218.18 80.96 211.14 81.59"/><polygon class="cls-2" points="212.76 84.15 213.21 84.91 220.39 84.5 219.94 83.74 212.76 84.15"/><polygon class="cls-2" points="214.16 86.72 214.53 87.48 221.84 87.3 221.47 86.54 214.16 86.72"/><polygon class="cls-2" points="215.33 89.3 215.64 90.05 223.05 90.11 222.74 89.34 215.33 89.3"/><polygon class="cls-2" points="216.28 91.87 216.51 92.63 224.01 92.91 223.76 92.15 216.28 91.87"/><polygon class="cls-2" points="216.98 94.43 217.16 95.19 224.71 95.7 224.54 94.94 216.98 94.43"/><polygon class="cls-2" points="217.46 96.99 217.57 97.73 225.16 98.47 225.06 97.72 217.46 96.99"/><polygon class="cls-2" points="217.71 99.51 217.74 100.25 225.36 101.21 225.32 100.47 217.71 99.51"/><polygon class="cls-2" points="217.71 102.01 217.68 102.75 225.3 103.92 225.33 103.19 217.71 102.01"/><polygon class="cls-2" points="217.49 104.48 217.39 105.19 224.98 106.59 225.09 105.87 217.49 104.48"/><polygon class="cls-2" points="217.03 106.9 216.86 107.6 224.41 109.21 224.58 108.51 217.03 106.9"/><polygon class="cls-2" points="216.33 109.27 216.09 109.95 223.58 111.78 223.82 111.09 216.33 109.27"/><polygon class="cls-2" points="215.41 111.58 215.1 112.25 222.51 114.28 222.81 113.61 215.41 111.58"/><polygon class="cls-2" points="214.25 113.83 213.88 114.49 221.18 116.71 221.55 116.06 214.25 113.83"/><polygon class="cls-2" points="212.87 116.02 212.43 116.65 219.61 119.07 220.05 118.43 212.87 116.02"/><polygon class="cls-2" points="211.27 118.12 210.76 118.73 217.8 121.34 218.31 120.73 211.27 118.12"/><polygon class="cls-2" points="209.45 120.15 208.88 120.74 215.76 123.52 216.32 122.94 209.45 120.15"/><polygon class="cls-2" points="207.41 122.1 206.78 122.65 213.48 125.61 214.11 125.05 207.41 122.1"/><polygon class="cls-2" points="205.17 123.95 204.49 124.48 210.98 127.6 211.67 127.07 205.17 123.95"/><polygon class="cls-2" points="202.73 125.7 201.99 126.2 208.27 129.48 209.01 128.98 202.73 125.7"/><polygon class="cls-2" points="200.1 127.36 199.3 127.83 205.34 131.25 206.14 130.78 200.1 127.36"/><polygon class="cls-2" points="197.28 128.9 196.42 129.34 202.21 132.91 203.07 132.47 197.28 128.9"/><polygon class="cls-2" points="194.28 130.34 193.37 130.75 198.9 134.44 199.8 134.03 194.28 130.34"/><polygon class="cls-2" points="191.1 131.67 190.15 132.04 195.39 135.85 196.35 135.47 191.1 131.67"/><polygon class="cls-2" points="187.77 132.88 186.76 133.21 191.72 137.13 192.72 136.79 187.77 132.88"/><polygon class="cls-2" points="184.29 133.96 183.24 134.26 187.87 138.27 188.92 137.97 184.29 133.96"/><polygon class="cls-2" points="180.66 134.93 179.56 135.19 183.88 139.28 184.97 139.02 180.66 134.93"/><polygon class="cls-2" points="176.89 135.76 175.76 135.99 179.74 140.16 180.87 139.93 176.89 135.76"/><polygon class="cls-2" points="173 136.47 171.84 136.66 175.47 140.89 176.64 140.7 173 136.47"/><polygon class="cls-2" points="169 137.05 167.81 137.2 171.09 141.48 172.28 141.33 169 137.05"/><polygon class="cls-2" points="164.9 137.49 163.68 137.6 166.59 141.92 167.81 141.81 164.9 137.49"/><polygon class="cls-2" points="160.71 137.81 159.46 137.88 162 142.22 163.25 142.15 160.71 137.81"/><polygon class="cls-2" points="156.44 137.98 155.17 138.02 157.33 142.38 158.6 142.35 156.44 137.98"/><polygon class="cls-2" points="152.1 138.03 150.81 138.02 152.59 142.38 153.88 142.39 152.1 138.03"/><polygon class="cls-2" points="147.7 137.94 146.4 137.89 147.79 142.25 149.09 142.29 147.7 137.94"/><polygon class="cls-2" points="143.26 137.71 141.95 137.62 142.95 141.96 144.26 142.04 143.26 137.71"/><polygon class="cls-2" points="138.79 137.35 137.48 137.22 138.07 141.53 139.4 141.65 138.79 137.35"/><polygon class="cls-2" points="134.31 136.85 132.99 136.69 133.19 140.95 134.51 141.12 134.31 136.85"/><polygon class="cls-2" points="129.81 136.23 128.49 136.03 128.29 140.23 129.62 140.44 129.81 136.23"/><polygon class="cls-2" points="125.33 135.47 124.01 135.23 123.41 139.37 124.73 139.61 125.33 135.47"/><polygon class="cls-2" points="120.86 134.59 119.54 134.31 118.55 138.37 119.86 138.65 120.86 134.59"/><polygon class="cls-2" points="116.42 133.59 115.12 133.27 113.73 137.24 115.03 137.55 116.42 133.59"/><polygon class="cls-2" points="112.02 132.45 110.73 132.1 108.95 135.97 110.24 136.32 112.02 132.45"/><polygon class="cls-2" points="107.68 131.2 106.41 130.82 104.24 134.57 105.51 134.96 107.68 131.2"/><polygon class="cls-2" points="103.4 129.84 102.15 129.42 99.61 133.05 100.86 133.47 103.4 129.84"/><polygon class="cls-2" points="99.2 128.36 97.98 127.91 95.06 131.41 96.29 131.86 99.2 128.36"/><polygon class="cls-2" points="95.09 126.77 93.9 126.29 90.62 129.65 91.81 130.13 95.09 126.77"/><polygon class="cls-2" points="91.08 125.08 89.92 124.57 86.28 127.78 87.45 128.29 91.08 125.08"/><polygon class="cls-2" points="87.19 123.29 86.06 122.75 82.08 125.8 83.21 126.34 87.19 123.29"/><polygon class="cls-2" points="83.41 121.41 82.32 120.83 78.01 123.72 79.1 124.29 83.41 121.41"/><polygon class="cls-2" points="79.77 119.43 78.72 118.84 74.08 121.55 75.14 122.14 79.77 119.43"/><polygon class="cls-2" points="76.28 117.37 75.27 116.75 70.32 119.28 71.33 119.9 76.28 117.37"/><polygon class="cls-2" points="72.93 115.23 71.97 114.59 66.72 116.93 67.69 117.57 72.93 115.23"/><polygon class="cls-2" points="69.75 113.03 68.83 112.37 63.31 114.51 64.22 115.17 69.75 113.03"/><polygon class="cls-2" points="66.73 110.75 65.87 110.07 60.08 112.01 60.94 112.69 66.73 110.75"/><polygon class="cls-2" points="63.9 108.42 63.09 107.72 57.05 109.45 57.85 110.15 63.9 108.42"/><polygon class="cls-2" points="61.25 106.03 60.5 105.32 54.22 106.83 54.97 107.55 61.25 106.03"/><polygon class="cls-2" points="58.79 103.59 58.1 102.87 51.61 104.17 52.3 104.89 58.79 103.59"/><polygon class="cls-2" points="56.54 101.11 55.91 100.38 49.21 101.46 49.85 102.2 56.54 101.11"/><polygon class="cls-2" points="54.49 98.61 53.92 97.86 47.05 98.72 47.62 99.47 54.49 98.61"/><polygon class="cls-2" points="52.66 96.07 52.15 95.32 45.11 95.95 45.62 96.7 52.66 96.07"/><polygon class="cls-2" points="51.04 93.51 50.6 92.76 43.41 93.16 43.86 93.92 51.04 93.51"/><polygon class="cls-2" points="49.64 90.94 49.27 90.18 41.96 90.36 42.34 91.12 49.64 90.94"/><polygon class="cls-2" points="48.47 88.37 48.16 87.61 40.75 87.56 41.06 88.32 48.47 88.37"/><polygon class="cls-2" points="47.53 85.79 47.28 85.04 39.8 84.76 40.04 85.52 47.53 85.79"/><polygon class="cls-2" points="46.82 83.23 46.64 82.47 39.09 81.97 39.26 82.72 46.82 83.23"/><polygon class="cls-2" points="46.34 80.68 46.23 79.93 38.64 79.2 38.74 79.95 46.34 80.68"/><polygon class="cls-2" points="46.09 78.15 46.06 77.41 38.44 76.45 38.48 77.19 46.09 78.15"/><polygon class="cls-2" points="46.09 75.65 46.12 74.92 38.5 73.74 38.47 74.47 46.09 75.65"/><polygon class="cls-2" points="46.31 73.19 46.42 72.47 38.82 71.07 38.72 71.79 46.31 73.19"/><polygon class="cls-2" points="46.77 70.77 46.95 70.06 39.39 68.45 39.22 69.16 46.77 70.77"/><polygon class="cls-2" points="47.47 68.4 47.71 67.71 40.22 65.89 39.98 66.58 47.47 68.4"/><polygon class="cls-2" points="48.4 66.08 48.7 65.41 41.3 63.39 40.99 64.06 48.4 66.08"/><polygon class="cls-2" points="49.55 63.83 49.92 63.18 42.62 60.95 42.24 61.61 49.55 63.83"/><polygon class="cls-2" points="50.93 61.65 51.37 61.02 44.19 58.6 43.75 59.23 50.93 61.65"/><polygon class="cls-2" points="52.54 59.54 53.04 58.93 46 56.33 45.49 56.93 52.54 59.54"/><polygon class="cls-2" points="54.35 57.51 54.92 56.93 48.05 54.14 47.48 54.73 54.35 57.51"/><polygon class="cls-2" points="56.39 55.57 57.02 55.01 50.32 52.05 49.69 52.61 56.39 55.57"/><polygon class="cls-2" points="58.63 53.72 59.32 53.19 52.82 50.06 52.13 50.59 58.63 53.72"/><polygon class="cls-2" points="61.07 51.96 61.82 51.46 55.54 48.18 54.79 48.69 61.07 51.96"/><polygon class="cls-2" points="63.7 50.31 64.51 49.84 58.46 46.41 57.66 46.88 63.7 50.31"/><polygon class="cls-2" points="66.52 48.76 67.38 48.32 61.59 44.76 60.73 45.2 66.52 48.76"/><polygon class="cls-2" points="69.52 47.32 70.43 46.91 64.91 43.23 63.99 43.63 69.52 47.32"/><polygon class="cls-2" points="72.7 46 73.66 45.62 68.41 41.82 67.45 42.19 72.7 46"/><polygon class="cls-2" points="76.03 44.79 77.03 44.45 72.09 40.54 71.08 40.88 76.03 44.79"/><polygon class="cls-2" points="79.52 43.7 80.56 43.4 75.93 39.39 74.88 39.69 79.52 43.7"/><polygon class="cls-2" points="83.15 42.74 84.24 42.48 79.92 38.38 78.83 38.64 83.15 42.74"/><polygon class="cls-2" points="86.91 41.9 88.04 41.67 84.06 37.51 82.93 37.73 86.91 41.9"/><polygon class="cls-2" points="90.8 41.19 91.96 41 88.33 36.77 87.16 36.96 90.8 41.19"/><polygon class="cls-2" points="94.8 40.62 95.99 40.47 92.71 36.19 91.52 36.33 94.8 40.62"/></g><g class="cls-21"><polygon class="cls-2" points="85.33 20.15 87.05 20 82.94 13.9 81.21 14.05 85.33 20.15"/><polygon class="cls-2" points="91.24 19.71 93 19.61 89.42 13.48 87.65 13.58 91.24 19.71"/><polygon class="cls-2" points="97.27 19.46 99.06 19.42 96.01 13.26 94.22 13.3 97.27 19.46"/><polygon class="cls-2" points="103.39 19.4 105.21 19.41 102.7 13.25 100.89 13.24 103.39 19.4"/><polygon class="cls-2" points="109.6 19.53 111.43 19.6 109.47 13.45 107.64 13.38 109.6 19.53"/><polygon class="cls-2" points="115.86 19.85 117.71 19.97 116.31 13.85 114.46 13.73 115.86 19.85"/><polygon class="cls-2" points="122.17 20.36 124.03 20.54 123.18 14.46 121.32 14.28 122.17 20.36"/><polygon class="cls-2" points="128.5 21.05 130.37 21.29 130.09 15.28 128.22 15.04 128.5 21.05"/><polygon class="cls-2" points="134.84 21.94 136.71 22.23 136.99 16.29 135.12 16 134.84 21.94"/><polygon class="cls-2" points="141.18 23 143.04 23.34 143.88 17.5 142.02 17.16 141.18 23"/><polygon class="cls-2" points="147.49 24.25 149.34 24.64 150.74 18.91 148.89 18.52 147.49 24.25"/><polygon class="cls-2" points="153.75 25.67 155.59 26.12 157.55 20.52 155.71 20.07 153.75 25.67"/><polygon class="cls-2" points="159.96 27.27 161.78 27.76 164.29 22.3 162.47 21.81 159.96 27.27"/><polygon class="cls-2" points="166.09 29.03 167.88 29.58 170.93 24.27 169.14 23.73 166.09 29.03"/><polygon class="cls-2" points="172.12 30.96 173.89 31.55 177.48 26.42 175.71 25.83 172.12 30.96"/><polygon class="cls-2" points="178.05 33.05 179.78 33.69 183.89 28.74 182.16 28.1 178.05 33.05"/><polygon class="cls-2" points="183.85 35.29 185.54 35.97 190.16 31.23 188.48 30.54 183.85 35.29"/><polygon class="cls-2" points="189.5 37.67 191.15 38.4 196.28 33.87 194.64 33.14 189.5 37.67"/><polygon class="cls-2" points="195.01 40.2 196.6 40.97 202.22 36.66 200.62 35.89 195.01 40.2"/><polygon class="cls-2" points="200.33 42.86 201.87 43.66 207.96 39.59 206.42 38.79 200.33 42.86"/><polygon class="cls-2" points="205.47 45.65 206.95 46.49 213.5 42.66 212.01 41.83 205.47 45.65"/><polygon class="cls-2" points="210.41 48.55 211.83 49.42 218.81 45.86 217.39 44.99 210.41 48.55"/><polygon class="cls-2" points="215.13 51.57 216.48 52.47 223.88 49.17 222.53 48.27 215.13 51.57"/><polygon class="cls-2" points="219.62 54.68 220.91 55.62 228.71 52.6 227.42 51.66 219.62 54.68"/><polygon class="cls-2" points="223.87 57.9 225.09 58.85 233.26 56.12 232.05 55.16 223.87 57.9"/><polygon class="cls-2" points="227.87 61.19 229.01 62.17 237.54 59.73 236.41 58.75 227.87 61.19"/><polygon class="cls-2" points="231.61 64.56 232.67 65.57 241.53 63.42 240.47 62.42 231.61 64.56"/><polygon class="cls-2" points="235.08 68 236.05 69.02 245.22 67.19 244.25 66.16 235.08 68"/><polygon class="cls-2" points="238.26 71.5 239.15 72.53 248.6 71 247.71 69.97 238.26 71.5"/><polygon class="cls-2" points="241.15 75.04 241.96 76.09 251.66 74.88 250.85 73.82 241.15 75.04"/><polygon class="cls-2" points="243.74 78.62 244.46 79.68 254.39 78.78 253.67 77.72 243.74 78.62"/><polygon class="cls-2" points="246.02 82.23 246.65 83.29 256.79 82.72 256.16 81.65 246.02 82.23"/><polygon class="cls-2" points="247.99 85.85 248.53 86.92 258.84 86.67 258.31 85.6 247.99 85.85"/><polygon class="cls-2" points="249.65 89.49 250.09 90.56 260.54 90.63 260.1 89.56 249.65 89.49"/><polygon class="cls-2" points="250.98 93.12 251.32 94.19 261.89 94.58 261.55 93.51 250.98 93.12"/><polygon class="cls-2" points="251.98 96.74 252.23 97.81 262.89 98.52 262.64 97.45 251.98 96.74"/><polygon class="cls-2" points="252.66 100.34 252.81 101.4 263.52 102.43 263.38 101.38 252.66 100.34"/><polygon class="cls-2" points="253 103.91 253.05 104.95 263.8 106.3 263.75 105.26 253 103.91"/><polygon class="cls-2" points="253.01 107.43 252.97 108.47 263.71 110.13 263.76 109.1 253.01 107.43"/><polygon class="cls-2" points="252.69 110.91 252.55 111.93 263.27 113.9 263.41 112.88 252.69 110.91"/><polygon class="cls-2" points="252.04 114.33 251.8 115.32 262.46 117.59 262.7 116.6 252.04 114.33"/><polygon class="cls-2" points="251.06 117.67 250.72 118.64 261.3 121.22 261.63 120.24 251.06 117.67"/><polygon class="cls-2" points="249.75 120.94 249.32 121.89 259.77 124.75 260.21 123.8 249.75 120.94"/><polygon class="cls-2" points="248.13 124.11 247.6 125.04 257.9 128.18 258.43 127.26 248.13 124.11"/><polygon class="cls-2" points="246.18 127.2 245.55 128.09 255.69 131.5 256.31 130.61 246.18 127.2"/><polygon class="cls-2" points="243.92 130.17 243.2 131.03 253.13 134.71 253.85 133.85 243.92 130.17"/><polygon class="cls-2" points="241.35 133.03 240.54 133.86 250.25 137.79 251.05 136.97 241.35 133.03"/><polygon class="cls-2" points="238.48 135.78 237.59 136.57 247.04 140.74 247.93 139.95 238.48 135.78"/><polygon class="cls-2" points="235.31 138.39 234.34 139.14 243.51 143.55 244.49 142.8 235.31 138.39"/><polygon class="cls-2" points="231.87 140.87 230.81 141.57 239.68 146.2 240.73 145.49 231.87 140.87"/><polygon class="cls-2" points="228.16 143.2 227.02 143.87 235.55 148.7 236.68 148.04 228.16 143.2"/><polygon class="cls-2" points="224.17 145.39 222.96 146.01 231.13 151.03 232.35 150.41 224.17 145.39"/><polygon class="cls-2" points="219.94 147.42 218.65 147.99 226.45 153.2 227.74 152.63 219.94 147.42"/><polygon class="cls-2" points="215.46 149.29 214.11 149.81 221.51 155.19 222.86 154.66 215.46 149.29"/><polygon class="cls-2" points="210.75 150.99 209.34 151.47 216.32 156.99 217.74 156.51 210.75 150.99"/><polygon class="cls-2" points="205.83 152.53 204.35 152.95 210.9 158.61 212.38 158.18 205.83 152.53"/><polygon class="cls-2" points="200.71 153.89 199.17 154.26 205.26 160.04 206.8 159.66 200.71 153.89"/><polygon class="cls-2" points="195.4 155.07 193.8 155.39 199.42 161.27 201.01 160.95 195.4 155.07"/><polygon class="cls-2" points="189.91 156.07 188.27 156.33 193.4 162.3 195.04 162.04 189.91 156.07"/><polygon class="cls-2" points="184.26 156.88 182.58 157.09 187.21 163.14 188.89 162.92 184.26 156.88"/><polygon class="cls-2" points="178.47 157.51 176.75 157.67 180.86 163.76 182.59 163.61 178.47 157.51"/><polygon class="cls-2" points="172.56 157.95 170.8 158.05 174.38 164.19 176.15 164.09 172.56 157.95"/><polygon class="cls-2" points="166.53 158.2 164.74 158.25 167.79 164.4 169.58 164.36 166.53 158.2"/><polygon class="cls-2" points="160.4 158.26 158.59 158.25 161.1 164.41 162.91 164.43 160.4 158.26"/><polygon class="cls-2" points="154.2 158.13 152.37 158.06 154.33 164.22 156.16 164.28 154.2 158.13"/><polygon class="cls-2" points="147.94 157.81 146.09 157.69 147.49 163.81 149.34 163.93 147.94 157.81"/><polygon class="cls-2" points="141.63 157.31 139.77 157.13 140.62 163.2 142.48 163.38 141.63 157.31"/><polygon class="cls-2" points="135.3 156.61 133.43 156.38 133.72 162.39 135.58 162.62 135.3 156.61"/><polygon class="cls-2" points="128.96 155.73 127.09 155.44 126.81 161.37 128.68 161.66 128.96 155.73"/><polygon class="cls-2" points="122.62 154.66 120.76 154.32 119.92 160.16 121.78 160.5 122.62 154.66"/><polygon class="cls-2" points="116.31 153.42 114.46 153.02 113.06 158.75 114.91 159.14 116.31 153.42"/><polygon class="cls-2" points="110.05 151.99 108.21 151.55 106.25 157.15 108.09 157.59 110.05 151.99"/><polygon class="cls-2" points="103.84 150.4 102.03 149.9 99.51 155.36 101.33 155.86 103.84 150.4"/><polygon class="cls-2" points="97.71 148.63 95.92 148.09 92.87 153.39 94.66 153.93 97.71 148.63"/><polygon class="cls-2" points="91.67 146.7 89.92 146.11 86.33 151.24 88.09 151.83 91.67 146.7"/><polygon class="cls-2" points="85.75 144.62 84.02 143.98 79.91 148.92 81.64 149.56 85.75 144.62"/><polygon class="cls-2" points="79.95 142.38 78.27 141.69 73.63 146.44 75.32 147.12 79.95 142.38"/><polygon class="cls-2" points="74.3 139.99 72.65 139.26 67.52 143.8 69.16 144.52 74.3 139.99"/><polygon class="cls-2" points="68.8 137.46 67.2 136.7 61.58 141.01 63.18 141.77 68.8 137.46"/><polygon class="cls-2" points="63.47 134.8 61.93 134 55.84 138.07 57.38 138.87 63.47 134.8"/><polygon class="cls-2" points="58.33 132.02 56.85 131.18 50.3 135 51.79 135.84 58.33 132.02"/><polygon class="cls-2" points="53.39 129.11 51.98 128.24 44.99 131.8 46.41 132.68 53.39 129.11"/><polygon class="cls-2" points="48.67 126.1 47.32 125.19 39.91 128.49 41.27 129.39 48.67 126.1"/><polygon class="cls-2" points="44.18 122.98 42.89 122.05 35.09 125.07 36.38 126 44.18 122.98"/><polygon class="cls-2" points="39.93 119.77 38.71 118.81 30.54 121.54 31.75 122.5 39.93 119.77"/><polygon class="cls-2" points="35.92 116.47 34.79 115.49 26.26 117.93 27.39 118.92 35.92 116.47"/><polygon class="cls-2" points="32.19 113.1 31.13 112.1 22.27 114.24 23.33 115.24 32.19 113.1"/><polygon class="cls-2" points="28.73 109.66 27.75 108.64 18.58 110.48 19.56 111.5 28.73 109.66"/><polygon class="cls-2" points="25.54 106.17 24.65 105.13 15.2 106.66 16.09 107.69 25.54 106.17"/><polygon class="cls-2" points="22.65 102.63 21.85 101.58 12.14 102.79 12.95 103.84 22.65 102.63"/><polygon class="cls-2" points="20.06 99.05 19.35 97.99 9.41 98.88 10.13 99.94 20.06 99.05"/><polygon class="cls-2" points="17.78 95.44 17.15 94.37 7.01 94.94 7.64 96.01 17.78 95.44"/><polygon class="cls-2" points="15.8 91.81 15.27 90.74 4.96 90.99 5.5 92.06 15.8 91.81"/><polygon class="cls-2" points="14.15 88.17 13.72 87.11 3.26 87.03 3.7 88.11 14.15 88.17"/><polygon class="cls-2" points="12.82 84.54 12.48 83.47 1.91 83.08 2.25 84.15 12.82 84.54"/><polygon class="cls-2" points="11.82 80.92 11.57 79.86 0.91 79.14 1.16 80.21 11.82 80.92"/><polygon class="cls-2" points="11.14 77.32 11 76.27 0.27 75.23 0.42 76.29 11.14 77.32"/><polygon class="cls-2" points="10.8 73.75 10.75 72.71 0 71.36 0.05 72.41 10.8 73.75"/><polygon class="cls-2" points="10.79 70.23 10.84 69.2 0.09 67.53 0.04 68.56 10.79 70.23"/><polygon class="cls-2" points="11.11 66.75 11.25 65.74 0.53 63.77 0.39 64.78 11.11 66.75"/><polygon class="cls-2" points="11.76 63.34 12 62.34 1.34 60.07 1.1 61.06 11.76 63.34"/><polygon class="cls-2" points="12.74 59.99 13.08 59.02 2.5 56.45 2.17 57.42 12.74 59.99"/><polygon class="cls-2" points="14.05 56.73 14.48 55.78 4.03 52.92 3.59 53.87 14.05 56.73"/><polygon class="cls-2" points="15.68 53.55 16.21 52.63 5.89 49.48 5.37 50.41 15.68 53.55"/><polygon class="cls-2" points="17.63 50.47 18.25 49.58 8.11 46.16 7.49 47.05 17.63 50.47"/><polygon class="cls-2" points="19.89 47.49 20.6 46.63 10.67 42.95 9.95 43.81 19.89 47.49"/><polygon class="cls-2" points="22.46 44.63 23.26 43.8 13.55 39.87 12.75 40.7 22.46 44.63"/><polygon class="cls-2" points="25.32 41.89 26.22 41.1 16.77 36.92 15.88 37.71 25.32 41.89"/><polygon class="cls-2" points="28.49 39.27 29.46 38.52 20.29 34.12 19.32 34.87 28.49 39.27"/><polygon class="cls-2" points="31.93 36.8 32.99 36.09 24.12 31.46 23.07 32.17 31.93 36.8"/><polygon class="cls-2" points="35.65 34.46 36.78 33.8 28.25 28.96 27.12 29.63 35.65 34.46"/><polygon class="cls-2" points="39.63 32.28 40.84 31.66 32.67 26.63 31.45 27.25 39.63 32.28"/><polygon class="cls-2" points="43.87 30.25 45.15 29.67 37.35 24.47 36.06 25.04 43.87 30.25"/><polygon class="cls-2" points="48.34 28.38 49.7 27.85 42.29 22.48 40.94 23 48.34 28.38"/><polygon class="cls-2" points="53.05 26.67 54.47 26.2 47.48 20.67 46.06 21.15 53.05 26.67"/><polygon class="cls-2" points="57.97 25.14 59.45 24.71 52.91 19.05 51.42 19.48 57.97 25.14"/><polygon class="cls-2" points="63.09 23.78 64.63 23.41 58.54 17.63 57 18 63.09 23.78"/><polygon class="cls-2" points="68.41 22.6 70 22.28 64.38 16.39 62.78 16.71 68.41 22.6"/><polygon class="cls-2" points="73.89 21.6 75.53 21.33 70.4 15.36 68.76 15.63 73.89 21.6"/><polygon class="cls-2" points="79.54 20.78 81.22 20.57 76.59 14.53 74.91 14.74 79.54 20.78"/></g><path class="cls-22" d="M131.65,144.92a183.92,183.92,0,0,1-37.52-9.49,145.73,145.73,0,0,1-31.92-16.22c-9.53-6.55-17-13.75-22.13-21.39s-7.72-15.28-7.62-22.7a31,31,0,0,1,7.63-19.78c5-6,12.07-10.93,21.14-14.78,9.38-4,20.45-6.56,32.91-7.68a168.41,168.41,0,0,1,38.92,1.21,184,184,0,0,1,37.51,9.5,145.07,145.07,0,0,1,31.92,16.22c9.53,6.55,17,13.74,22.13,21.39s7.72,15.28,7.62,22.7a31.05,31.05,0,0,1-7.63,19.78c-5,6-12.07,10.93-21.14,14.77-9.38,4-20.45,6.57-32.91,7.69A167.78,167.78,0,0,1,131.65,144.92ZM40.3,97.8c21,31.15,79.41,52.77,130.17,48.2s74.95-33.63,53.93-64.78S145,28.44,94.23,33,19.28,66.64,40.3,97.8Z"/><path class="cls-22" d="M131.62,146.72a190.24,190.24,0,0,1-38.73-9.81,150,150,0,0,1-32.95-16.74C50.11,113.41,42.42,106,37.1,98.09s-8-15.78-7.87-23.43A32.09,32.09,0,0,1,37.1,54.23C42.23,48.08,49.57,43,58.93,39c9.68-4.11,21.11-6.78,34-7.93a173.21,173.21,0,0,1,40.18,1.25,190.22,190.22,0,0,1,38.73,9.8,150.48,150.48,0,0,1,32.95,16.75c9.83,6.76,17.52,14.19,22.84,22.08s8,15.77,7.87,23.43a32.09,32.09,0,0,1-7.87,20.42c-5.13,6.16-12.47,11.29-21.83,15.26-9.68,4.1-21.11,6.77-34,7.93A173.76,173.76,0,0,1,131.62,146.72ZM38.41,98c21.45,31.79,81.05,53.86,132.84,49.19s76.49-34.32,55-66.11-81-53.86-132.84-49.2S17,66.18,38.41,98Z"/></g></g></g></g></svg>