<svg xmlns="http://www.w3.org/2000/svg" viewBox="0 0 45.32 277.1"><defs><style>.cls-1{fill:#00b4eb;opacity:0.3;}.cls-2{fill:none;stroke:#00b4eb;stroke-miterlimit:10;}</style></defs><title>资源 1</title><g id="图层_2" data-name="图层 2"><g id="Layer_2" data-name="Layer 2"><polygon class="cls-1" points="31.59 172.65 31.59 58.35 31.59 30.48 15.14 1.87 15.14 66.05 19.57 70.48 27.53 78.44 27.53 145.28 24.04 148.77 12.54 160.27 12.54 238.53 0.5 250.57 0.5 276.6 24.47 276.6 44.82 256.26 44.82 185.87 31.59 172.65"/><polygon class="cls-2" points="31.59 172.65 31.59 58.35 31.59 30.48 15.14 1.87 15.14 66.05 19.57 70.48 27.53 78.44 27.53 145.28 24.04 148.77 12.54 160.27 12.54 238.53 0.5 250.57 0.5 276.6 24.47 276.6 44.82 256.26 44.82 185.87 31.59 172.65"/></g></g></svg>