<svg xmlns="http://www.w3.org/2000/svg" viewBox="0 0 28.85 28.86"><defs><style>.cls-1{fill:#69bffe;}.cls-2{fill:#fff;}</style></defs><title>资源 5</title><g id="图层_2" data-name="图层 2"><g id="央铋_1" data-name="央铋 1"><path class="cls-1" d="M14.43,28.86A13.84,13.84,0,0,1,12,28.65l.07-.4a14.21,14.21,0,0,0,2.69.19v.41Zm2-.15-.06-.41A13.26,13.26,0,0,0,19,27.67l.13.39A14.56,14.56,0,0,1,16.46,28.71Zm-6.07-.43a14,14,0,0,1-2.58-1L8,26.88a13.49,13.49,0,0,0,2.5,1Zm10.32-.86-.18-.37a14.42,14.42,0,0,0,2.31-1.41l.24.33A14.06,14.06,0,0,1,20.71,27.42Zm-14.34-1a15.21,15.21,0,0,1-2.15-1.77l.29-.3A13.75,13.75,0,0,0,6.6,26.05Zm18-1.51-.28-.3a14.31,14.31,0,0,0,1.77-2l.33.24A14,14,0,0,1,24.36,24.89ZM3.11,23.38A14.82,14.82,0,0,1,1.6,21L2,20.85a13.92,13.92,0,0,0,1.46,2.27Zm24-2-.36-.2a13.35,13.35,0,0,0,1.07-2.49l.39.13A14.42,14.42,0,0,1,27.07,21.38ZM.92,19.51A13.87,13.87,0,0,1,.2,16.82l.4-.06a14.22,14.22,0,0,0,.71,2.61ZM28.59,17.2l-.41-.08a14.26,14.26,0,0,0,.26-2.69A13.56,13.56,0,0,0,28.37,13l.41,0a14.33,14.33,0,0,1,.07,1.47A15.11,15.11,0,0,1,28.59,17.2ZM0,15.16c0-.24,0-.49,0-.73a15.57,15.57,0,0,1,.14-2l.41.06a14.68,14.68,0,0,0-.14,2c0,.24,0,.48,0,.71ZM28.11,11.4a13.52,13.52,0,0,0-.83-2.57l.37-.17a13.67,13.67,0,0,1,.86,2.65ZM.87,10.85l-.4-.1a14.1,14.1,0,0,1,1-2.61l.37.18A14.24,14.24,0,0,0,.87,10.85ZM26.54,7.38A13.1,13.1,0,0,0,25,5.19l.31-.28A15.08,15.08,0,0,1,26.9,7.17ZM2.6,6.9l-.34-.22A14.49,14.49,0,0,1,4,4.49l.3.28A14.38,14.38,0,0,0,2.6,6.9ZM23.82,4a14.18,14.18,0,0,0-2.17-1.61l.21-.35A13.91,13.91,0,0,1,24.1,3.72ZM5.46,3.66l-.27-.32a14.77,14.77,0,0,1,2.3-1.56l.2.36A13.5,13.5,0,0,0,5.46,3.66Zm14.75-2A13.7,13.7,0,0,0,17.66.79l.09-.4a13.61,13.61,0,0,1,2.63.9ZM9.15,1.44,9,1.06A13.87,13.87,0,0,1,11.67.27l.08.4A13.86,13.86,0,0,0,9.15,1.44ZM16.06.51a14.86,14.86,0,0,0-1.63-.1c-.35,0-.72,0-1.08,0l0-.41a10.29,10.29,0,0,1,1.11,0,13.52,13.52,0,0,1,1.68.1Z"/><path class="cls-1" d="M14.43,11.44a3,3,0,1,0,3,3A3,3,0,0,0,14.43,11.44Z"/><path class="cls-1" d="M14.43,1.91A12.52,12.52,0,1,0,26.94,14.43,12.53,12.53,0,0,0,14.43,1.91Zm0,23.93A11.42,11.42,0,1,1,25.84,14.43,11.43,11.43,0,0,1,14.43,25.84Z"/><path class="cls-1" d="M14.43,3.56A10.87,10.87,0,1,0,25.29,14.43,10.89,10.89,0,0,0,14.43,3.56Zm0,16.6a5.74,5.74,0,1,1,5.73-5.73A5.74,5.74,0,0,1,14.43,20.16Z"/><path class="cls-2" d="M21.57,20.32l-.84-.7.31-.41.89.65A5.19,5.19,0,0,1,21.57,20.32Zm.69-.94-.93-.59c.09-.15.18-.29.26-.45l1,.53Zm.56-1-1-.47c.08-.15.14-.31.21-.47l1,.41C23,18,22.9,18.18,22.82,18.35Zm.43-1.09-1.05-.33c.05-.16.1-.33.14-.5l1.07.27C23.36,16.89,23.31,17.08,23.25,17.26Zm.28-1.13-1.08-.2c0-.17.06-.34.08-.51l1.09.14A5.62,5.62,0,0,1,23.53,16.13ZM23.67,15l-1.09-.06c0-.16,0-.32,0-.48l1.1,0C23.69,14.61,23.68,14.79,23.67,15Zm-1.1-1.09c0-.17,0-.34-.05-.51l1.09-.14a5.42,5.42,0,0,1,.06.58Zm-.13-1a4.05,4.05,0,0,0-.12-.5l1.07-.28c.05.19.09.38.13.57Zm-.26-1a4.09,4.09,0,0,0-.18-.49L23,11c.07.18.14.37.2.55Zm-.39-1c-.07-.15-.15-.31-.23-.46l1-.53.27.52Zm-.5-.9L21,9.59l.88-.66c.12.16.23.32.34.49Zm-.61-.83c-.11-.13-.22-.26-.34-.38L21.13,8a5.34,5.34,0,0,1,.39.44ZM20,8.44a4.32,4.32,0,0,0-.39-.34l.7-.85.44.38Zm-.8-.65-.42-.29.58-.93c.16.1.33.21.48.32Zm-.87-.55L17.84,7l.46-1,.53.26Zm-.93-.43-.49-.17.34-1,.55.2Zm-1-.31-.51-.11.2-1.08.57.13Zm-1-.18-.52,0,.06-1.1.58.05Z"/></g></g></svg>