<svg xmlns="http://www.w3.org/2000/svg" viewBox="0 0 179.72 173.17"><defs><style>.cls-1{fill:#0cbdcd;}.cls-10,.cls-11,.cls-2,.cls-3,.cls-4,.cls-5,.cls-6,.cls-7,.cls-8,.cls-9{fill:#f49022;}.cls-3{opacity:0.3;}.cls-4{opacity:0.5;}.cls-5{opacity:0.1;}.cls-6{opacity:0.2;}.cls-7{opacity:0.6;}.cls-8{opacity:0.4;}.cls-9{opacity:0.7;}.cls-10{opacity:0.8;}.cls-11{opacity:0.9;}</style></defs><title>资源 7</title><g id="图层_2" data-name="图层 2"><g id="央铋_1" data-name="央铋 1"><path class="cls-1" d="M19.92,107.13a74,74,0,0,0,7.9,18.56l.27-.16a73.47,73.47,0,0,1-7.86-18.48Z"/><path class="cls-1" d="M42.59,143.39a74,74,0,0,0,33,16.65l.07-.31A73.58,73.58,0,0,1,42.8,143.15Z"/><path class="cls-1" d="M113.49,87.73a22.14,22.14,0,1,0-22.13,22.13A22.16,22.16,0,0,0,113.49,87.73Zm-43.81,0a21.68,21.68,0,1,1,21.68,21.68A21.71,21.71,0,0,1,69.68,87.73Z"/><path class="cls-1" d="M45.52,80.88l20.34,2.88a25.59,25.59,0,0,1,.6-2.79L46.7,75.32A44.62,44.62,0,0,0,45.52,80.88Z"/><path class="cls-1" d="M66.45,94.47a25.57,25.57,0,0,1-.59-2.79L45.51,94.56a48.54,48.54,0,0,0,1.18,5.56Z"/><path class="cls-1" d="M65.6,89.14c0-.47,0-.94,0-1.41s0-1,0-1.44L45.1,84.88Q45,86.29,45,87.73c0,1,0,1.89.09,2.83Z"/><path class="cls-1" d="M47.94,103.94a45.57,45.57,0,0,0,2.32,5.19l18.15-9.64a23.42,23.42,0,0,1-1.17-2.6Z"/><path class="cls-1" d="M79.71,110.74a26.4,26.4,0,0,1-2.47-1.43l-11.47,17a46,46,0,0,0,4.92,2.85Z"/><path class="cls-1" d="M58.3,120.18a47.46,47.46,0,0,0,4.22,3.8l12.66-16.17a25.56,25.56,0,0,1-2.12-1.91Z"/><path class="cls-1" d="M82,111.78l-7.69,19.06a46.82,46.82,0,0,0,5.41,1.76l5-19.94A25,25,0,0,1,82,111.78Z"/><path class="cls-1" d="M52.27,112.6a47.31,47.31,0,0,0,3.34,4.6L71.36,104a25.08,25.08,0,0,1-1.67-2.31Z"/><path class="cls-1" d="M100.66,111.78a25.25,25.25,0,0,1-8,1.71L93.36,134a46.16,46.16,0,0,0,15-3.18Z"/><path class="cls-1" d="M90.07,113.49a24,24,0,0,1-2.83-.3l-3.55,20.24a47.62,47.62,0,0,0,5.65.6Z"/><path class="cls-1" d="M124.4,120.19l-14.76-14.28a25.82,25.82,0,0,1-6.65,4.83l9,18.46A46.4,46.4,0,0,0,124.4,120.19Z"/><path class="cls-1" d="M91.36,5.1A82.14,82.14,0,0,0,51.82,15.19l2.39,4.38a77.38,77.38,0,0,0-39.14,54l-.84,0a14.23,14.23,0,1,0,0,28.45l.84,0A77.44,77.44,0,0,0,77,164l-.93,4.94A82.63,82.63,0,1,0,91.36,5.1ZM14.23,101A13.32,13.32,0,1,1,27.54,87.73,13.33,13.33,0,0,1,14.23,101Zm77.13,58.81A72.13,72.13,0,0,1,78,158.61l-.85,4.48A76.5,76.5,0,0,1,16,101.84a14.22,14.22,0,0,0,0-28.23A76.45,76.45,0,0,1,54.65,20.37l2.2,4A72.12,72.12,0,1,1,91.36,159.85Z"/><path class="cls-1" d="M91.36,155.29a67.45,67.45,0,0,1-12.48-1.16l-.26,1.35a69.48,69.48,0,0,0,12.74,1.18A68.51,68.51,0,0,0,110.3,154l-.38-1.31A67.32,67.32,0,0,1,91.36,155.29Z"/><path class="cls-1" d="M108.72,87.73A17.38,17.38,0,0,0,91.36,70.36a17.17,17.17,0,0,0-7.83,1.88l.61,1.22a16,16,0,1,1-6.22,22.93l-1.15.74a17.36,17.36,0,0,0,32-9.4Z"/><path class="cls-1" d="M74.6,83.18A17.47,17.47,0,0,0,74,87.73a16.75,16.75,0,0,0,.21,2.66l1.35-.21a16.53,16.53,0,0,1-.19-2.45,16,16,0,0,1,.56-4.19Z"/><path class="cls-1" d="M61.1,39.86l3,4.6,1.09-.68L62.45,39Z"/><path class="cls-1" d="M58.64,48.43l-3.45-4.26-1.2,1,3.67,4.07Z"/><path class="cls-1" d="M47.8,51.56,52.06,55c.27-.33.55-.66.83-1l-4.06-3.67Z"/><path class="cls-1" d="M60.74,46.76l-3.22-4.43-1.25,1,3.45,4.26C60.05,47.28,60.39,47,60.74,46.76Z"/><path class="cls-1" d="M49.75,49.33,53.82,53l.89-.94-3.87-3.87Z"/><path class="cls-1" d="M56.63,50.19,53,46.12l-1.14,1.09,3.87,3.87Z"/><path class="cls-1" d="M58.64,41.51,61.86,46l1.06-.73-3-4.6C59.5,40.91,59.07,41.21,58.64,41.51Z"/><path class="cls-1" d="M81.4,37.54l1.27-.23-.86-5.41c-.52.08-1,.18-1.55.28Z"/><path class="cls-1" d="M63.65,38.34l2.74,4.75,1.13-.62L65,37.59C64.57,37.83,64.1,38.09,63.65,38.34Z"/><path class="cls-1" d="M77.37,32.84l1.42,5.29c.41-.11.83-.21,1.25-.3L78.9,32.47Z"/><path class="cls-1" d="M74.51,33.64l1.7,5.21,1.23-.36L76,33.2Z"/><path class="cls-1" d="M69,35.71l2.22,5,1.2-.49-2-5.12Z"/><path class="cls-1" d="M66.27,37l2.48,4.88,1.17-.56-2.23-5C67.21,36.49,66.74,36.72,66.27,37Z"/><path class="cls-1" d="M71.71,34.6l2,5.12c.4-.15.81-.3,1.22-.43l-1.7-5.22Z"/><path class="cls-1" d="M40.72,80.41l-5.41-.86q-.12.78-.21,1.56l5.45.58C40.6,81.26,40.66,80.83,40.72,80.41Z"/><path class="cls-1" d="M42.48,72.58l-5.21-1.7c-.15.5-.3,1-.44,1.51l5.29,1.42C42.23,73.4,42.36,73,42.48,72.58Z"/><path class="cls-1" d="M41.76,75.16l-5.29-1.42c-.13.5-.25,1-.37,1.53l5.36,1.14C41.55,76,41.65,75.57,41.76,75.16Z"/><path class="cls-1" d="M35.81,76.63c-.1.51-.2,1-.28,1.55l5.41.86c.07-.43.15-.85.23-1.27Z"/><path class="cls-1" d="M34.77,85.45c0,.53,0,1-.05,1.58H40.2c0-.43,0-.86,0-1.29Z"/><path class="cls-1" d="M40.41,83.07,35,82.5c-.05.52-.09,1-.12,1.57l5.47.28C40.34,83.92,40.37,83.5,40.41,83.07Z"/><path class="cls-1" d="M44.25,56.31l4.6,3c.24-.36.48-.71.73-1.06L45.15,55C44.84,55.44,44.55,55.87,44.25,56.31Z"/><path class="cls-1" d="M46,53.89l4.43,3.22c.26-.35.52-.69.79-1l-4.25-3.45C46.6,53.05,46.28,53.47,46,53.89Z"/><path class="cls-1" d="M38.23,68.08c-.18.49-.36,1-.53,1.48l5.22,1.7c.13-.41.28-.82.43-1.22Z"/><path class="cls-1" d="M41.22,61.4l4.88,2.49c.2-.38.41-.76.62-1.14L42,60C41.72,60.47,41.46,60.94,41.22,61.4Z"/><path class="cls-1" d="M44.34,67.55l-5-2.22c-.21.48-.41,1-.61,1.45l5.12,2C44,68.34,44.17,68,44.34,67.55Z"/><path class="cls-1" d="M45.47,65.12l-4.88-2.48c-.24.47-.46.94-.68,1.42l5,2.23C45.09,65.9,45.28,65.51,45.47,65.12Z"/><path class="cls-1" d="M138.86,68.74l5.12-2c-.19-.49-.4-1-.61-1.46l-5,2.23C138.54,68,138.7,68.34,138.86,68.74Z"/><path class="cls-1" d="M128.89,53,133,49.33l-1.09-1.14L128,52.06C128.3,52.37,128.6,52.68,128.89,53Z"/><path class="cls-1" d="M129.82,54a51.76,51.76,0,0,1,4.05,5.26l4.59-3a56.22,56.22,0,0,0-4.57-6Z"/><path class="cls-1" d="M120.85,46l3.22-4.44c-.43-.3-.86-.6-1.3-.89l-3,4.59C120.15,45.45,120.5,45.7,120.85,46Z"/><path class="cls-1" d="M125.05,49.26l3.67-4.07c-.4-.34-.8-.69-1.2-1l-3.45,4.25Z"/><path class="cls-1" d="M134.62,60.45c.23.37.46.73.68,1.1L140,58.81c-.27-.45-.54-.9-.82-1.34Z"/><path class="cls-1" d="M123,47.55l3.44-4.26-1.25-1L122,46.76Z"/><path class="cls-1" d="M127,51.08l3.87-3.87c-.37-.37-.76-.73-1.14-1.09l-3.67,4.07C126.4,50.48,126.71,50.78,127,51.08Z"/><path class="cls-1" d="M139.8,71.25,145,69.56c-.17-.5-.35-1-.53-1.49l-5.12,2C139.51,70.44,139.66,70.85,139.8,71.25Z"/><path class="cls-1" d="M140.23,72.57c.12.41.25.83.36,1.24l5.3-1.42-.45-1.51Z"/><path class="cls-1" d="M146.25,73.73,141,75.15a51.19,51.19,0,0,1,1.57,12.58c0,1.56-.08,3.12-.22,4.65l5.45.57c.16-1.72.25-3.46.25-5.22A56.7,56.7,0,0,0,146.25,73.73Z"/><path class="cls-1" d="M136,62.75c.21.38.42.75.62,1.14l4.88-2.49c-.24-.47-.49-.93-.75-1.39Z"/><path class="cls-1" d="M34.72,88.42c0,.53,0,1,.05,1.57l5.47-.28c0-.43,0-.86,0-1.29Z"/><path class="cls-1" d="M137.24,65.12c.2.39.38.77.56,1.17l5-2.23c-.22-.48-.45-1-.69-1.43Z"/><path class="cls-1" d="M110.33,40.22l1.2.49,2.23-5c-.49-.21-1-.42-1.46-.61Z"/><path class="cls-1" d="M100,37.31l1.27.23,1.14-5.36-1.55-.29Z"/><path class="cls-1" d="M94.73,36.68l1.28.1.57-5.45c-.52,0-1-.09-1.57-.12Z"/><path class="cls-1" d="M97.39,36.92l1.28.17.86-5.41c-.52-.08-1-.15-1.57-.21Z"/><path class="cls-1" d="M92.05,36.57l1.29,0,.29-5.47-1.58-.05Z"/><path class="cls-1" d="M86.7,36.78l1.28-.1-.28-5.47c-.53,0-1,.07-1.57.12Z"/><path class="cls-1" d="M89.37,36.61l1.29,0V31.09l-1.58.05Z"/><path class="cls-1" d="M112.79,41.28l1.17.56L116.44,37c-.47-.24-.94-.47-1.42-.69Z"/><path class="cls-1" d="M117.53,43.78c.37.22.73.45,1.09.68l3-4.6c-.44-.28-.89-.55-1.35-.82Z"/><path class="cls-1" d="M102.67,37.83l1.26.3,1.41-5.3c-.5-.13-1-.25-1.53-.36Z"/><path class="cls-1" d="M116.33,43.09l2.74-4.75c-.46-.26-.93-.51-1.39-.75l-2.49,4.88Z"/><path class="cls-1" d="M84,37.09l1.28-.17-.58-5.45-1.56.21Z"/><path class="cls-1" d="M105.27,38.49c.41.11.82.24,1.23.36l1.7-5.21c-.5-.16-1-.3-1.52-.44Z"/><path class="cls-1" d="M107.82,39.28l1.22.44,2-5.12-1.48-.53Z"/><path class="cls-1" d="M42.67,58.81l4.74,2.74c.22-.37.45-.73.68-1.09l-4.6-3Z"/><path class="cls-1" d="M112.8,134.17l2.23,5,1.42-.68L114,133.61C113.58,133.81,113.19,134,112.8,134.17Z"/><path class="cls-1" d="M117.53,131.67l2.74,4.74c.45-.27.9-.54,1.34-.82l-3-4.6Z"/><path class="cls-1" d="M115.2,133l2.48,4.88c.47-.24.93-.49,1.39-.75l-2.74-4.75Z"/><path class="cls-1" d="M119.79,130.24l3,4.59c.43-.29.87-.59,1.29-.89l-3.21-4.44Z"/><path class="cls-1" d="M129.75,129.33c.39-.36.77-.72,1.14-1.09L127,124.37l-.93.89Z"/><path class="cls-1" d="M124.08,127l3.44,4.25,1.2-1-3.66-4.07Z"/><path class="cls-1" d="M96,138.67c-.42,0-.85.08-1.28.1l.29,5.47,1.57-.12Z"/><path class="cls-1" d="M101.32,137.91l-1.27.24.85,5.41,1.55-.29Z"/><path class="cls-1" d="M105.35,142.62l-1.42-5.3q-.63.17-1.26.3l1.14,5.36C104.33,142.87,104.84,142.75,105.35,142.62Z"/><path class="cls-1" d="M111.53,134.74l-1.19.5,2,5.11c.49-.19,1-.4,1.46-.61Z"/><path class="cls-1" d="M98.68,138.36l-1.28.17L98,144l1.56-.21Z"/><path class="cls-1" d="M111,140.85l-2-5.12-1.21.44,1.69,5.21Z"/><path class="cls-1" d="M108.2,141.81l-1.69-5.21c-.41.12-.82.25-1.24.36l1.42,5.3Z"/><path class="cls-1" d="M122,128.69l3.22,4.43,1.25-1L123,127.9Z"/><path class="cls-1" d="M128,123.39l3.88,3.87,1.08-1.14-4.07-3.67C128.6,122.77,128.3,123.08,128,123.39Z"/><path class="cls-1" d="M136.75,121.56l-4.43-3.22c-.26.35-.52.69-.79,1l4.26,3.45C136.12,122.4,136.44,122,136.75,121.56Z"/><path class="cls-1" d="M130.66,120.44l-.84,1,4.07,3.67q.53-.6,1-1.2Z"/><path class="cls-1" d="M62.92,130.24l-1.06-.73-3.22,4.43c.43.3.86.6,1.3.89Z"/><path class="cls-1" d="M45.47,110.33c-.19-.39-.38-.78-.56-1.17l-5,2.23c.23.48.45,1,.69,1.43Z"/><path class="cls-1" d="M49.58,117.22c-.25-.35-.49-.7-.73-1.06l-4.6,3c.29.44.59.87.9,1.3Z"/><path class="cls-1" d="M46.1,111.56l-4.88,2.49q.36.7.75,1.38l4.75-2.73C46.51,112.32,46.3,112,46.1,111.56Z"/><path class="cls-1" d="M43.49,118l4.6-3c-.23-.37-.46-.73-.68-1.1l-4.74,2.74C42.94,117.09,43.21,117.54,43.49,118Z"/><path class="cls-1" d="M51.18,119.37l-.79-1L46,121.56c.32.43.64.84,1,1.25Z"/><path class="cls-1" d="M52.89,121.42c-.28-.32-.56-.65-.83-1l-4.26,3.45,1,1.2Z"/><path class="cls-1" d="M40.72,95c-.06-.42-.12-.85-.17-1.28l-5.45.58q.09.78.21,1.56Z"/><path class="cls-1" d="M35.53,97.27c.08.52.18,1,.28,1.55l5.36-1.14c-.08-.42-.16-.84-.23-1.27Z"/><path class="cls-1" d="M41.76,100.3q-.16-.63-.3-1.26l-5.36,1.14c.12.51.24,1,.37,1.53Z"/><path class="cls-1" d="M53.82,122.45l-4.07,3.67c.36.39.72.76,1.09,1.14l3.87-3.87Z"/><path class="cls-1" d="M44.34,107.9c-.17-.4-.33-.79-.49-1.19l-5.12,2c.2.49.4,1,.61,1.46Z"/><path class="cls-1" d="M37.7,105.89c.17.5.35,1,.53,1.48l5.12-2c-.15-.4-.3-.81-.44-1.22Z"/><path class="cls-1" d="M42.12,101.64l-5.29,1.42c.14.5.29,1,.44,1.51l5.21-1.69C42.36,102.46,42.23,102.05,42.12,101.64Z"/><path class="cls-1" d="M74.89,136.17l-1.22-.43-2,5.11,1.48.53Z"/><path class="cls-1" d="M82.67,138.15c-.43-.08-.85-.15-1.27-.24l-1.14,5.36,1.55.29Z"/><path class="cls-1" d="M77.44,137l-1.23-.37-1.7,5.21,1.52.45Z"/><path class="cls-1" d="M80,137.62c-.42-.09-.84-.19-1.25-.3l-1.42,5.3q.76.19,1.53.36Z"/><path class="cls-1" d="M85.32,138.53,84,138.36l-.86,5.41c.52.08,1,.15,1.57.21Z"/><path class="cls-1" d="M55.69,124.37l-3.87,3.87L53,129.33l3.67-4.07C56.31,125,56,124.67,55.69,124.37Z"/><path class="cls-1" d="M88,138.77c-.43,0-.86-.06-1.29-.1l-.57,5.45c.52,0,1,.09,1.57.12Z"/><path class="cls-1" d="M90.66,138.88l-1.29,0-.28,5.47,1.57,0Z"/><path class="cls-1" d="M59.72,127.9l-3.45,4.26,1.25,1,3.22-4.43C60.39,128.43,60.05,128.17,59.72,127.9Z"/><path class="cls-1" d="M58.64,127l-1-.84L54,130.26l1.2,1Z"/><path class="cls-1" d="M72.38,135.24A51.35,51.35,0,0,1,64.09,131l-3,4.59a56.69,56.69,0,0,0,9.31,4.76Z"/><path class="cls-1" d="M40.31,91.1l-5.47.28c0,.53.07,1.05.12,1.57l5.45-.57C40.37,92,40.34,91.53,40.31,91.1Z"/><path class="cls-1" d="M93.34,138.85l-1.29,0v5.48l1.58,0Z"/><path class="cls-1" d="M136,100.13a46.32,46.32,0,0,0-3.55-33.8l-1.66.87a44.28,44.28,0,0,1,3.41,32.42Z"/><path class="cls-1" d="M119.6,95.44l2.37.68a31.71,31.71,0,0,0-2.41-23l-2.17,1.16a29.2,29.2,0,0,1,2.21,21.11Z"/><path class="cls-1" d="M74.37,44.61l3.71,9.21c-1,.41-2,.85-3,1.35L70.7,46.25a46.25,46.25,0,0,0-4.92,2.85l11.48,17a24.93,24.93,0,0,1,2.46-1.42L75.66,56.4c1-.48,1.94-.92,2.93-1.31l3.46,8.58a26.84,26.84,0,0,1,2.71-.89l-2.24-9c1-.27,2.08-.49,3.14-.66l1.59,9.09a26.5,26.5,0,0,1,4.11-.33A25.79,25.79,0,0,1,113,73.75l7.82-4.9c.58.9,1.12,1.83,1.61,2.78l-1.78,1a32.92,32.92,0,0,1,2.51,23.88l2,.56c-.29,1-.61,2.06-1,3.06l-8.69-3.17a25.94,25.94,0,0,1-4.11,7.11l15.74,13.19A46.26,46.26,0,0,0,134.77,104l-9.33-3.4c.38-1,.72-2.09,1-3.15l2.14.61a38.51,38.51,0,0,0-3-28.07l-2,1c-.51-1-1.06-1.94-1.66-2.86l8.43-5.28A46.28,46.28,0,0,0,83.7,42l1.72,9.79c-1.09.18-2.17.41-3.24.68l-2.41-9.64A43.11,43.11,0,0,0,74.37,44.61Z"/><path class="cls-1" d="M126.76,69.35a39.75,39.75,0,0,1,3,29l1.66.47A41.06,41.06,0,0,0,133,87.73a41.64,41.64,0,0,0-4.7-19.19Z"/><path class="cls-1" d="M114.31,76a25.64,25.64,0,0,1,1.94,18.52l2.74.78a28.65,28.65,0,0,0-2.16-20.64Z"/><path class="cls-1" d="M60.41,36.85l-.34.21.34.54.33-.21Z"/><path class="cls-1" d="M74.25,30.67l.18.6.38-.11-.18-.61Z"/><path class="cls-1" d="M71.29,31.64l.21.6.37-.13-.21-.6Z"/><path class="cls-1" d="M68.38,32.77l.24.58.37-.14-.24-.59Z"/><path class="cls-1" d="M65.9,33.88l-.37.17.28.57.36-.16Z"/><path class="cls-1" d="M63.11,35.29l-.34.19.3.56.34-.19Z"/><path class="cls-1" d="M80.7,29.12l-.39.07.11.62.39-.07Z"/><path class="cls-1" d="M86.88,28.33l-.4,0,.06.63.39,0Z"/><path class="cls-1" d="M77.26,29.85l.15.62.38-.1-.15-.62Z"/><path class="cls-1" d="M90,28.18h-.4l0,.63H90Z"/><path class="cls-1" d="M92.72,28.18l0,.63h.39l0-.63Z"/><path class="cls-1" d="M83.78,28.64l-.4.05.09.63.39-.05Z"/><path class="cls-1" d="M44,51.64l.51.38.23-.31-.5-.39Z"/><path class="cls-1" d="M58.15,39.06l-.36-.52-.32.23.36.52Z"/><path class="cls-1" d="M38.25,62.18l-.57-.28-.16.36.57.27C38.14,62.42,38.2,62.3,38.25,62.18Z"/><path class="cls-1" d="M35.87,67.87l-.6-.21c0,.12-.08.24-.13.37l.6.21C35.78,68.11,35.83,68,35.87,67.87Z"/><path class="cls-1" d="M34.91,70.8l-.61-.18c0,.12-.08.25-.11.38l.6.17Z"/><path class="cls-1" d="M33.39,74l.61.15c0-.13.07-.26.1-.38l-.62-.15Z"/><path class="cls-1" d="M39.67,59.44l-.55-.31c-.07.12-.13.24-.2.35l.56.3Z"/><path class="cls-1" d="M37,65l-.59-.24-.15.37.59.23Z"/><path class="cls-1" d="M46,49.21l.48.41.25-.3-.48-.41Z"/><path class="cls-1" d="M53.25,42.81l-.41-.48-.3.25.41.48Z"/><path class="cls-1" d="M55.65,40.87l-.38-.5-.32.24.39.5Z"/><path class="cls-1" d="M40.48,56.78l.54.33.21-.33-.54-.34Z"/><path class="cls-1" d="M42.17,54.16l.53.36a3.62,3.62,0,0,1,.22-.32l-.52-.36Z"/><path class="cls-1" d="M95.83,28.33l0,.63.39,0,0-.63Z"/><path class="cls-1" d="M102,29.12l-.12.62.39.07.12-.62Z"/><path class="cls-1" d="M147.44,67.65l-.6.22c0,.12.09.24.13.37l.6-.21C147.53,67.9,147.48,67.78,147.44,67.65Z"/><path class="cls-1" d="M146.31,64.75l-.58.24.15.36.58-.24Z"/><path class="cls-1" d="M143.6,59.13l-.56.31c.07.11.13.23.19.34l.56-.3Z"/><path class="cls-1" d="M136.5,48.91l-.48.41c.76.88,1.48,1.78,2.19,2.7l.5-.38C138,50.7,137.26,49.79,136.5,48.91Z"/><path class="cls-1" d="M141.49,56.77l.2.34.55-.33-.21-.34Z"/><path class="cls-1" d="M140.31,53.84l-.52.36c.08.1.15.21.23.32l.52-.36A3.71,3.71,0,0,0,140.31,53.84Z"/><path class="cls-1" d="M145.2,62.26,145,61.9l-.57.28c.06.11.11.23.17.35Z"/><path class="cls-1" d="M150.09,82.9l0,.39.64,0c0-.14,0-.27,0-.4Z"/><path class="cls-1" d="M149.76,79.84l.06.38.62-.08c0-.13,0-.26-.05-.39Z"/><path class="cls-1" d="M150.9,86l-.64,0c0,.13,0,.26,0,.39l.64,0C150.9,86.23,150.9,86.1,150.9,86Z"/><path class="cls-1" d="M148.62,73.77l.09.39.62-.15-.1-.38Z"/><path class="cls-1" d="M149.27,76.79c0,.13,0,.26.07.39l.63-.12c0-.13-.05-.26-.08-.39Z"/><path class="cls-1" d="M148.42,70.62l-.61.18c0,.12.07.25.11.37l.61-.17C148.49,70.87,148.45,70.74,148.42,70.62Z"/><path class="cls-1" d="M134.41,46.6,134,47l.27.29.46-.43Z"/><path class="cls-1" d="M110.84,32.11l.37.13.22-.6-.38-.13Z"/><path class="cls-1" d="M107.91,31.16l.37.11.18-.6-.38-.12Z"/><path class="cls-1" d="M113.73,33.21l.36.14.24-.58-.36-.15Z"/><path class="cls-1" d="M105.07,29.75l-.15.62.38.09.15-.61Z"/><path class="cls-1" d="M98.93,28.64l-.08.63.39.05.09-.63Z"/><path class="cls-1" d="M33.45,76.79l-.63-.12c0,.13,0,.26-.07.39l.62.12C33.4,77.05,33.42,76.92,33.45,76.79Z"/><path class="cls-1" d="M130.17,42.58l-.3-.26-.41.49.3.25Z"/><path class="cls-1" d="M122.3,36.85l-.33.54c.11.06.22.14.34.2l.33-.53Z"/><path class="cls-1" d="M132.48,44.67l-.29-.27-.43.46.29.27Z"/><path class="cls-1" d="M127.44,40.37l-.38.5.31.24.39-.5Z"/><path class="cls-1" d="M124.92,38.54l-.36.52.32.23.36-.52Z"/><path class="cls-1" d="M122,138.06l.33.55.33-.21-.33-.54Z"/><path class="cls-1" d="M119.3,139.6l.3.56L120,140l-.3-.56Z"/><path class="cls-1" d="M124.57,136.39l.35.52.33-.23-.36-.52Z"/><path class="cls-1" d="M116.55,141l.27.57.36-.17-.27-.57Z"/><path class="cls-1" d="M127.06,134.58l.39.5.31-.24-.39-.5Z"/><path class="cls-1" d="M129.46,132.64l.41.49c.9-.76,1.77-1.55,2.61-2.35l-.43-.46C131.21,131.12,130.35,131.89,129.46,132.64Z"/><path class="cls-1" d="M108.47,144.79l-.19-.61-.37.11.18.61Z"/><path class="cls-1" d="M102,146.34l.39-.08-.12-.62-.38.07Z"/><path class="cls-1" d="M98.94,146.81l.39-.05-.09-.63-.38.06Z"/><path class="cls-1" d="M113.73,142.24l.24.59.37-.15-.25-.58Z"/><path class="cls-1" d="M105.46,145.6l-.15-.61-.38.09.14.62Z"/><path class="cls-1" d="M134,128.41l.46.44c.81-.85,1.59-1.72,2.35-2.61l-.48-.41C135.52,126.71,134.75,127.58,134,128.41Z"/><path class="cls-1" d="M95.83,147.13l.4,0,0-.63-.39,0Z"/><path class="cls-1" d="M33,79.84l-.62-.09-.06.39.63.09C32.91,80.1,32.94,80,33,79.84Z"/><path class="cls-1" d="M150.76,92.2l-.64,0c0,.13,0,.26,0,.39l.63,0C150.74,92.46,150.75,92.33,150.76,92.2Z"/><path class="cls-1" d="M149.33,101.44l-.62-.15-.09.38.62.15Z"/><path class="cls-1" d="M149.27,98.66l.62.11c0-.13.05-.25.08-.38l-.63-.12C149.32,98.4,149.29,98.53,149.27,98.66Z"/><path class="cls-1" d="M138,123.74l.5.39a3.33,3.33,0,0,0,.24-.32l-.5-.38Z"/><path class="cls-1" d="M48,46.89l.47.43c.79-.84,1.61-1.66,2.45-2.46l-.43-.46Q49.25,45.62,48,46.89Z"/><path class="cls-1" d="M150.91,89.08h-.64c0,.13,0,.26,0,.39l.64,0C150.9,89.35,150.9,89.22,150.91,89.08Z"/><path class="cls-1" d="M150.44,95.3l-.62-.08-.06.39.63.08C150.41,95.56,150.43,95.44,150.44,95.3Z"/><path class="cls-1" d="M144.46,113.27l.57.28.17-.36-.57-.27C144.57,113,144.52,113.15,144.46,113.27Z"/><path class="cls-1" d="M139.8,121.25l.52.36a60,60,0,0,0,3.47-5.64l-.56-.3A58.73,58.73,0,0,1,139.8,121.25Z"/><path class="cls-1" d="M147.81,104.65l.61.18c0-.12.07-.25.11-.38l-.61-.18C147.88,104.4,147.85,104.53,147.81,104.65Z"/><path class="cls-1" d="M145.73,110.46l.58.24.15-.37-.58-.24Z"/><path class="cls-1" d="M146.84,107.58l.6.21c.05-.12.09-.24.13-.37l-.59-.21C146.93,107.33,146.89,107.46,146.84,107.58Z"/><path class="cls-1" d="M110.85,143.34l.21.6.37-.13-.21-.6Z"/><path class="cls-1" d="M33.39,101.44l.09.38.62-.15c0-.12-.07-.25-.1-.38Z"/><path class="cls-1" d="M34.18,104.45l.12.38.61-.18-.12-.38Z"/><path class="cls-1" d="M36.25,110.33l.15.37.59-.24-.15-.37Z"/><path class="cls-1" d="M38.92,116a3.9,3.9,0,0,1,.19.35l.56-.31-.19-.34Z"/><path class="cls-1" d="M37.51,113.19l.17.36.57-.28c0-.12-.11-.24-.16-.35Z"/><path class="cls-1" d="M35.14,107.42c0,.13.09.25.13.37l.6-.21c0-.12-.09-.24-.13-.37Z"/><path class="cls-1" d="M92.72,147.28l.39,0v-.63h-.4Z"/><path class="cls-1" d="M31.81,86.36l.63,0c0-.13,0-.26,0-.39l-.63,0C31.82,86.1,31.81,86.23,31.81,86.36Z"/><path class="cls-1" d="M32.62,82.9,32,82.85l0,.4.63,0Z"/><path class="cls-1" d="M32.59,92.15l-.63,0,0,.4.63-.06Z"/><path class="cls-1" d="M32.9,95.22l-.63.08.06.4.62-.09C32.94,95.48,32.91,95.35,32.9,95.22Z"/><path class="cls-1" d="M33.37,98.27l-.62.12c0,.13,0,.26.07.39l.63-.12C33.42,98.53,33.39,98.4,33.37,98.27Z"/><path class="cls-1" d="M32.44,89.07h-.63c0,.14,0,.27,0,.4l.63,0C32.45,89.33,32.44,89.2,32.44,89.07Z"/><path class="cls-1" d="M80.69,146.34l.12-.63-.39-.07-.11.62Z"/><path class="cls-1" d="M83.78,146.81l.08-.62-.39-.06-.08.63Z"/><path class="cls-1" d="M86.88,147.13l.05-.64-.39,0-.05.63Z"/><path class="cls-1" d="M90,147.28v-.64h-.39l0,.63Z"/><path class="cls-1" d="M42.82,159q.66.45,1.32.87l-.94,1.43a87.17,87.17,0,0,0,10.61,5.88l.73-1.55a86.13,86.13,0,0,0,26.76,7.53l.15-1.26a85.37,85.37,0,0,1-37.89-14Z"/><path class="cls-1" d="M131,11.18a82.4,82.4,0,0,0-8.87-3.92l-.47,1.22a85.28,85.28,0,0,1,8.74,3.87Z"/><path class="cls-1" d="M60.86,8.56A86,86,0,0,1,110.11,5l.29-1.26c-1.84-.41-3.71-.75-5.59-1l.27-1.69A90.52,90.52,0,0,0,79.86.73l.22,1.7A86.71,86.71,0,0,0,60.39,7.34Z"/><path class="cls-1" d="M159,141.56l-1-.82a85.57,85.57,0,0,1-19.37,17.58l.73,1.1a86,86,0,0,0,9.56-7.33l1.13,1.29c1.32-1.17,2.61-2.37,3.87-3.62q3.16-3.13,6-6.53l-1.33-1.09Z"/><path class="cls-1" d="M171.15,49.94l-1.54.73a85.75,85.75,0,0,0-7.74-13l1.41-1c-1.65-2.28-3.42-4.5-5.3-6.64l-1.31,1.1q-1.93-2.21-4-4.29c-.62-.62-1.25-1.21-1.88-1.81l-.9.95a84.28,84.28,0,0,1,25.67,76l1.26.22a85.27,85.27,0,0,0,1.16-11l1.71.09c0-1.21.07-2.43.07-3.64A86.85,86.85,0,0,0,171.15,49.94Z"/><path class="cls-2" d="M50.93,26.11l-.18-.26A74.21,74.21,0,0,0,20.61,66l.3.09A74,74,0,0,1,50.93,26.11Z"/><path class="cls-2" d="M47.94,71.5l19.31,7a27.45,27.45,0,0,1,1.16-2.6L50.26,66.31A47.4,47.4,0,0,0,47.94,71.5Z"/><path class="cls-2" d="M52.28,62.84l17.41,10.9a27.22,27.22,0,0,1,1.68-2.31L55.62,58.24A47.31,47.31,0,0,0,52.28,62.84Z"/><path class="cls-2" d="M75.19,67.64,62.53,51.46a47.46,47.46,0,0,0-4.22,3.8L73.07,69.54A23.77,23.77,0,0,1,75.19,67.64Z"/><path class="cls-2" d="M91.36,18.79a68.43,68.43,0,0,0-33,8.42l.65,1.2a67.54,67.54,0,0,1,90,94.51l1.17.71A68.91,68.91,0,0,0,91.36,18.79Z"/><path class="cls-3" d="M141,100.29l5.3,1.42q.19-.76.36-1.53L141.25,99C141.16,99.46,141.06,99.88,141,100.29Z"/><path class="cls-4" d="M144.48,107.37c.18-.49.36-1,.53-1.48l-5.21-1.7c-.14.41-.28.82-.43,1.22Z"/><path class="cls-5" d="M142,95l5.41.86c.08-.52.15-1,.21-1.57l-5.45-.57C142.11,94.19,142.05,94.62,142,95Z"/><path class="cls-6" d="M147.19,97.27l-5.41-.86c-.08.43-.15.85-.24,1.27l5.36,1.14C147,98.31,147.1,97.79,147.19,97.27Z"/><path class="cls-7" d="M138.37,107.9l5,2.22c.2-.48.41-1,.6-1.45l-5.11-2C138.71,107.1,138.54,107.5,138.37,107.9Z"/><path class="cls-8" d="M140.6,101.64c-.12.41-.24.82-.37,1.23l5.21,1.7c.16-.51.31-1,.45-1.52Z"/><path class="cls-2" d="M133.87,116.16c-.24.36-.48.71-.73,1.06l4.43,3.22c.3-.43.6-.86.89-1.3Z"/><path class="cls-9" d="M142.81,111.39l-5-2.23c-.18.39-.36.78-.55,1.17l4.88,2.48C142.36,112.34,142.59,111.87,142.81,111.39Z"/><path class="cls-10" d="M141.5,114.05l-4.89-2.49c-.2.38-.4.76-.61,1.13l4.74,2.74C141,115,141.25,114.51,141.5,114.05Z"/><path class="cls-11" d="M135.3,113.9c-.22.36-.44.73-.67,1.09l4.59,3c.28-.45.56-.89.82-1.35Z"/><path class="cls-2" d="M116.55,34.46c1,.49,2.08,1,3.09,1.58l.31-.56c-1-.56-2.07-1.09-3.13-1.6Z"/><path class="cls-4" d="M48.31,128.85l.45-.43-.27-.29-.46.43A3.83,3.83,0,0,0,48.31,128.85Z"/><path class="cls-5" d="M40.48,118.67l.21.34.54-.34-.21-.33Z"/><path class="cls-2" d="M65.53,141.4a59.27,59.27,0,0,0,12.11,4.3l.15-.62a58.59,58.59,0,0,1-12-4.25Z"/><path class="cls-11" d="M63.41,139.6q-1.53-.82-3-1.74l-.34.54c1,.61,2,1.2,3,1.76Z"/><path class="cls-9" d="M52.54,132.87l.3.26.41-.49-.3-.25Z"/><path class="cls-10" d="M58.15,136.39c-1-.66-1.89-1.34-2.81-2l-.39.5c.93.72,1.88,1.41,2.84,2.07Z"/><path class="cls-3" d="M44.24,124.13l.5-.39-.24-.31-.5.38Z"/><path class="cls-8" d="M46.21,126.54l.48-.41-.25-.3-.49.41Z"/><path class="cls-6" d="M42.7,120.93l-.53.36c.08.11.15.22.23.32l.52-.36A3.62,3.62,0,0,1,42.7,120.93Z"/><path class="cls-7" d="M50.23,130.78l.29.27.43-.46-.28-.27Z"/><path class="cls-2" d="M14.23,100.74a13,13,0,1,1,13-13A13,13,0,0,1,14.23,100.74Zm0-25.72a12.7,12.7,0,1,0,12.7,12.7A12.72,12.72,0,0,0,14.23,75Z"/></g></g></svg>