<svg xmlns="http://www.w3.org/2000/svg" viewBox="0 0 582.59 549.97"><defs><style>.cls-1{opacity:0.8;}.cls-2{fill:#5fffe8;}</style></defs><title>资源 17</title><g id="图层_2" data-name="图层 2"><g id="央铋_1" data-name="央铋 1"><g class="cls-1"><rect class="cls-2" x="363.15" width="13.21" height="24.48"/><rect class="cls-2" x="327.65" y="4.08" width="13.21" height="24.48" transform="translate(3.91 69.86) rotate(-12)"/><rect class="cls-2" x="293.78" y="15.46" width="13.21" height="24.48" transform="translate(14.69 124.52) rotate(-23.99)"/><rect class="cls-2" x="263.01" y="33.63" width="13.21" height="24.48" transform="translate(24.57 167.32) rotate(-36.02)"/><rect class="cls-2" x="236.7" y="57.8" width="13.21" height="24.48" transform="translate(28.46 203.99) rotate(-48)"/><rect class="cls-2" x="215.98" y="86.91" width="13.21" height="24.48" transform="translate(25.45 242.37) rotate(-60.01)"/><polygon class="cls-2" points="222.06 129.43 217.98 141.99 194.71 134.43 198.78 121.86 222.06 129.43"/><rect class="cls-2" x="194.7" y="154.71" width="13.21" height="24.48" transform="translate(14.24 349.71) rotate(-84)"/><rect class="cls-2" x="189.41" y="196.07" width="24.48" height="13.21" transform="translate(-20.07 22.17) rotate(-6)"/><rect class="cls-2" x="197.18" y="230.94" width="24.48" height="13.21" transform="translate(-63.21 76.43) rotate(-18.02)"/><rect class="cls-2" x="212.04" y="263.44" width="24.48" height="13.21" transform="translate(-105 148.4) rotate(-30.01)"/><rect class="cls-2" x="233.32" y="292.14" width="24.48" height="13.21" transform="translate(-136.84 241.17) rotate(-42.02)"/><rect class="cls-2" x="260.11" y="315.78" width="24.48" height="13.21" transform="translate(-148.54 353.29) rotate(-54.01)"/><rect class="cls-2" x="291.22" y="333.33" width="24.48" height="13.21" transform="translate(-130.48 479.01) rotate(-66.01)"/><rect class="cls-2" x="325.31" y="344.04" width="24.48" height="13.21" transform="translate(-75.52 608.07) rotate(-78.02)"/><rect class="cls-2" x="366.51" y="341.79" width="13.21" height="24.48"/><rect class="cls-2" x="402.01" y="337.7" width="13.21" height="24.48" transform="translate(-63.78 92.51) rotate(-11.99)"/><rect class="cls-2" x="435.87" y="326.33" width="13.21" height="24.48" transform="translate(-99.46 209.25) rotate(-24)"/><rect class="cls-2" x="466.64" y="308.16" width="13.21" height="24.48" transform="matrix(0.81, -0.59, 0.59, 0.81, -97.95, 339.3)"/><rect class="cls-2" x="492.96" y="283.99" width="13.21" height="24.48" transform="translate(-54.9 469.11) rotate(-47.98)"/><rect class="cls-2" x="513.67" y="254.89" width="13.21" height="24.48" transform="translate(28.74 584.03) rotate(-59.99)"/><rect class="cls-2" x="527.88" y="222.11" width="13.21" height="24.48" transform="translate(146.52 670.32) rotate(-72.01)"/><rect class="cls-2" x="534.96" y="187.09" width="13.21" height="24.48" transform="translate(286.77 717.11) rotate(-84)"/><rect class="cls-2" x="528.98" y="156.99" width="24.48" height="13.21" transform="translate(-14.19 57.76) rotate(-6.03)"/><rect class="cls-2" x="521.21" y="122.12" width="24.48" height="13.21" transform="translate(-13.66 171.32) rotate(-18.02)"/><rect class="cls-2" x="506.35" y="89.62" width="24.48" height="13.21" transform="translate(21.41 272.32) rotate(-30.02)"/><rect class="cls-2" x="485.07" y="60.93" width="24.48" height="13.21" transform="translate(82.58 350.15) rotate(-42.01)"/><polygon class="cls-2" points="468.67 57.67 457.98 49.91 472.38 30.11 483.06 37.87 468.67 57.67"/><rect class="cls-2" x="427.17" y="19.73" width="24.48" height="13.21" transform="translate(236.71 417.08) rotate(-66.01)"/><rect class="cls-2" x="393.08" y="9.02" width="24.48" height="13.21" transform="translate(305.88 408.87) rotate(-78.02)"/><path class="cls-2" d="M458,463.18A124.61,124.61,0,1,1,582.59,338.57,124.74,124.74,0,0,1,458,463.18Zm0-246.59a122,122,0,1,0,122,122A122.12,122.12,0,0,0,458,216.59Z"/><path class="cls-2" d="M460.54,372.88a272.57,272.57,0,0,0,4.65-51.09c0-153.94-116.82-230-232.25-228.15q-6.57-6.66-13.89-13a266.7,266.7,0,0,0-47.48,7.46,217.8,217.8,0,0,0-17.07,19.28A225.83,225.83,0,0,0,98.2,136.3,208.91,208.91,0,0,0,75.48,136C38.6,166.83,10.92,210.42,0,266.72Q4.94,278,10.74,288.67a280.76,280.76,0,0,0-1.91,33.12c0,34.4,5.85,64.92,16.2,91.54a240,240,0,0,0-2.25,29.1,216.07,216.07,0,0,0,45.63,59,204.54,204.54,0,0,0,27.05,3.85c69,50.62,166.54,58.22,244.11,22.81a242.66,242.66,0,0,0,28.79,11.23c47.91-26.91,86.94-70.05,106.34-129.43A276.51,276.51,0,0,0,460.54,372.88ZM24.05,321.79c0-284,425.93-284,425.93,0S24.05,605.74,24.05,321.79Z"/><path class="cls-2" d="M237.35,515.23c-107.9,0-195.69-87.78-195.69-195.68s87.79-195.7,195.69-195.7S433,211.64,433,319.55,345.25,515.23,237.35,515.23Zm0-388C131.31,127.23,45,213.51,45,319.55s86.27,192.31,192.31,192.31,192.31-86.27,192.31-192.31S343.39,127.23,237.35,127.23Z"/><polygon class="cls-2" points="386.18 203.83 353.39 171.04 350.82 206.4 386.18 203.83"/><polygon class="cls-2" points="88.52 435.91 121.31 468.7 123.88 433.34 88.52 435.91"/></g></g></g></svg>