<svg xmlns="http://www.w3.org/2000/svg" viewBox="0 0 49.82 48.3"><defs><style>.cls-1,.cls-2{fill:#00b8de;}.cls-1,.cls-4{fill-rule:evenodd;}.cls-3,.cls-4{fill:#ff7000;}</style></defs><title>资源 16</title><g id="图层_2" data-name="图层 2"><g id="Layer_1" data-name="Layer 1"><path class="cls-1" d="M45.35,35.37a23.79,23.79,0,0,1-9,8.78l-1.57-1.56a21.73,21.73,0,0,0,8.76-8.27l1.84,1ZM27.18,44.83v3.36c-.73.07-1.5.11-2.26.11a24.84,24.84,0,0,1-10.76-2.44V42.08A21.44,21.44,0,0,0,24.92,45a21,21,0,0,0,2.26-.12ZM5,31.6H1.39a25,25,0,0,1,.16-16.9h3.6A21.58,21.58,0,0,0,5,31.6ZM26.85,1.88V.33A23.1,23.1,0,0,1,46.35,14.7h1.92a25.3,25.3,0,0,1,1.18,13H47.62a22.06,22.06,0,0,1-.79,3H45.21a21.88,21.88,0,0,0,1.28-7.35A21.58,21.58,0,0,0,26.85,1.88ZM5.75,9.45A23.68,23.68,0,0,1,21,0V2.16A21.55,21.55,0,0,0,7.26,11Z"/><path class="cls-2" d="M24.92,1.55h0A21.83,21.83,0,0,1,46.73,23.38h0A21.83,21.83,0,0,1,24.92,45.19h0A21.82,21.82,0,0,1,3.1,23.38h0A21.82,21.82,0,0,1,24.92,1.55Zm0,.49h0A21.32,21.32,0,0,0,3.59,23.38h0A21.34,21.34,0,0,0,24.92,44.71h0A21.37,21.37,0,0,0,46.25,23.38h0A21.36,21.36,0,0,0,24.92,2Z"/><path class="cls-2" d="M24.92,43.63h0A20.26,20.26,0,0,1,4.66,23.38h0A20.26,20.26,0,0,1,24.92,3.11h0A20.26,20.26,0,0,1,45.16,23.38h-.88A19.38,19.38,0,0,0,24.92,4h0A19.36,19.36,0,0,0,5.55,23.38h0A19.38,19.38,0,0,0,24.92,42.75h0Z"/><path class="cls-3" d="M6.65,22.36A19.32,19.32,0,0,1,7,19.61l1.73.47a15.82,15.82,0,0,0-.31,2.28Zm.88-4.69a18.48,18.48,0,0,1,1-2.57l1.55.9a14.68,14.68,0,0,0-.88,2.13l-1.72-.46Zm2.06-4.31a17.31,17.31,0,0,1,1.7-2.19l1.25,1.25a19.24,19.24,0,0,0-1.4,1.83l-1.55-.89Zm3.13-3.62A17.88,17.88,0,0,1,14.9,8.05l.9,1.54A18.05,18.05,0,0,0,14,11L12.72,9.74ZM16.65,7A18.41,18.41,0,0,1,19.21,6l.46,1.72a14.12,14.12,0,0,0-2.12.88L16.65,7Zm4.51-1.58a18,18,0,0,1,2.75-.36V6.87a15.82,15.82,0,0,0-2.28.31Z"/><path class="cls-2" d="M24.92,5.07h0A18.25,18.25,0,0,1,43.2,23.38h0A18.23,18.23,0,0,1,24.92,41.67h0A18.28,18.28,0,0,1,6.62,23.38H8.39A16.58,16.58,0,0,0,24.92,39.91v0h0v0A16.52,16.52,0,0,0,41.43,23.38h0A16.52,16.52,0,0,0,24.92,6.84h0Z"/><path class="cls-4" d="M10,23.22a14.94,14.94,0,0,1,1.91-7.16l3.78,2.19a10.29,10.29,0,0,0-1.32,5Zm2.09-7.42L15.88,18a10.57,10.57,0,0,1,3.64-3.64l-2.19-3.76a14.59,14.59,0,0,0-5.21,5.23Zm5.49-5.39a14.69,14.69,0,0,1,7.15-1.92v4.36a10.7,10.7,0,0,0-5,1.32l-2.18-3.76Zm7.47-1.92a14.65,14.65,0,0,1,7.14,1.92l-2.17,3.76a10.67,10.67,0,0,0-5-1.32V8.49Zm7.42,2.08-2.17,3.76A10.71,10.71,0,0,1,34,18l3.77-2.17a14.8,14.8,0,0,0-5.23-5.23Zm5.39,5.49a15,15,0,0,1,1.9,7.16H35.45a10.52,10.52,0,0,0-1.33-5l3.77-2.19Zm1.9,7.48a14.93,14.93,0,0,1-1.9,7.13L34.12,28.5a10.52,10.52,0,0,0,1.33-5ZM37.73,31,34,28.78a10.68,10.68,0,0,1-3.63,3.63l2.17,3.78A15.16,15.16,0,0,0,37.73,31Zm-5.51,5.4a14.85,14.85,0,0,1-7.14,1.9V33.9a10.33,10.33,0,0,0,5-1.33l2.17,3.78Zm-7.46,1.9a14.89,14.89,0,0,1-7.15-1.9l2.19-3.78a10.29,10.29,0,0,0,5,1.33v4.35Zm-7.43-2.06,2.19-3.78a10.54,10.54,0,0,1-3.64-3.63L12.12,31a14.94,14.94,0,0,0,5.21,5.24Zm-5.39-5.52A14.82,14.82,0,0,1,10,23.54H14.4a10.28,10.28,0,0,0,1.32,5Z"/></g></g></svg>