<svg xmlns="http://www.w3.org/2000/svg" viewBox="0 0 39.28 39.28"><defs><style>.cls-1,.cls-2{fill:#00b8de;}.cls-2{fill-rule:evenodd;}</style></defs><title>资源 6</title><g id="图层_2" data-name="图层 2"><g id="Layer_1" data-name="Layer 1"><path class="cls-1" d="M0,19.65H0A19.63,19.63,0,0,1,19.65,0h0A19.63,19.63,0,0,1,39.28,19.65h0A19.6,19.6,0,0,1,19.65,39.27h0A19.6,19.6,0,0,1,0,19.65Zm.35,0h0a19.26,19.26,0,0,0,19.3,19.28h0A19.27,19.27,0,0,0,38.94,19.65h0A19.31,19.31,0,0,0,19.65.35h0A19.29,19.29,0,0,0,.35,19.65Z"/><path class="cls-1" d="M.71,19.65h0a19.32,19.32,0,0,1,1.12-6.44c.13-.32.25-.65.39-1A19.07,19.07,0,0,1,4.94,7.72l0-.06H11.7c.3-.2.63-.39.94-.58s.69-.36,1-.52a14.34,14.34,0,0,1,6-1.29h0a14.18,14.18,0,0,1,4.24.64c.22.06.43.13.65.21a14.47,14.47,0,0,1,3,1.54h6.71l.05.06h0c.38.47.73.93,1.06,1.42s.62,1,.9,1.52a18.8,18.8,0,0,1,2.27,9h0a18.81,18.81,0,0,1-1.12,6.43q-.18.5-.39,1a18.55,18.55,0,0,1-2.72,4.53l-.05.06H27.58c-.3.2-.61.39-.94.58a9.11,9.11,0,0,1-1,.51,14.11,14.11,0,0,1-6,1.31h0a14.52,14.52,0,0,1-4.25-.64c-.23-.08-.44-.14-.65-.23a13.61,13.61,0,0,1-3.05-1.53H5l0-.06h0a16.15,16.15,0,0,1-1-1.42A16.77,16.77,0,0,1,3,28.64a18.89,18.89,0,0,1-2.27-9Zm.36,0h0a18.43,18.43,0,0,0,2.22,8.81A13.1,13.1,0,0,0,4.19,30a16.07,16.07,0,0,0,1,1.33H11.8l0,0a14,14,0,0,0,3,1.53c.2.07.41.15.63.21a14.23,14.23,0,0,0,4.15.63h0a13.9,13.9,0,0,0,5.82-1.27c.33-.15.67-.33,1-.51s.64-.38.95-.59h0l.05,0h6.65a18.37,18.37,0,0,0,2.62-4.37c.13-.32.25-.63.38-.94a18.66,18.66,0,0,0,1.1-6.32h0A18.62,18.62,0,0,0,36,10.82c-.28-.51-.58-1-.89-1.48s-.64-.9-1-1.33H27.48l-.05,0a14.44,14.44,0,0,0-3-1.53l-.63-.2a13.83,13.83,0,0,0-4.14-.62h0a14.18,14.18,0,0,0-5.83,1.25c-.34.16-.68.34-1,.51s-.65.39-1,.59h0l0,0H5.15a19.42,19.42,0,0,0-2.62,4.36c-.12.32-.25.64-.36,1A18.37,18.37,0,0,0,1.07,19.65Z"/><path class="cls-2" d="M3.06,19.38a13.91,13.91,0,0,1,.09-1.44H6.93a13.74,13.74,0,0,0-.11,1.44Zm29.29-1.44h3.8c0,.48.07,1,.07,1.44H32.46a13.74,13.74,0,0,0-.11-1.44Zm3.85,2.79c0,.43-.08.86-.14,1.29H32.25a11.36,11.36,0,0,0,.16-1.29ZM7.05,22H3.22c-.06-.43-.1-.86-.14-1.29H6.87A11.43,11.43,0,0,0,7.05,22Zm28.7,1.63c-.1.39-.22.76-.34,1.14h-4a9.25,9.25,0,0,0,.44-1.14ZM7.9,24.79h-4c-.12-.38-.23-.75-.33-1.14H7.46a11.19,11.19,0,0,0,.44,1.14Zm26.76,1.92c-.17.35-.34.69-.53,1H29.6a12.47,12.47,0,0,0,.74-1Zm-25,1H5.15a10.65,10.65,0,0,1-.52-1H8.94c.24.35.49.69.75,1ZM3.29,16.88a15.62,15.62,0,0,1,.35-1.62H7.58a16.8,16.8,0,0,0-.46,1.62ZM31.7,15.26h3.95c.14.54.26,1.08.35,1.62H32.16a12.53,12.53,0,0,0-.46-1.62ZM3.87,14.49a16.25,16.25,0,0,1,.71-1.79H8.86a12.79,12.79,0,0,0-1,1.79ZM30.42,12.7h4.29a16.19,16.19,0,0,1,.7,1.79h-4a12.79,12.79,0,0,0-1-1.79ZM4.81,12.21a16.34,16.34,0,0,1,1.17-2h4.95a13.63,13.63,0,0,0-1.74,2Zm23.54-2H33.3a16.41,16.41,0,0,1,1.18,2H30.09a13.63,13.63,0,0,0-1.74-2ZM6.12,10a15.73,15.73,0,0,1,1-1.29h5.74A13,13,0,0,0,11.16,10ZM26.39,8.74h5.75c.36.41.7.85,1,1.29h-5a13,13,0,0,0-1.73-1.29Zm6.26,21.19c-.16.21-.33.41-.51.61H26.39a9.62,9.62,0,0,0,.91-.61Zm-19.76.61H7.15c-.18-.2-.35-.4-.52-.61H12A9.46,9.46,0,0,0,12.89,30.54Z"/><path class="cls-1" d="M6.73,19.65h0A12.94,12.94,0,0,1,19.65,6.73h0a12.91,12.91,0,0,1,12.9,12.92h0a12.87,12.87,0,0,1-12.9,12.9h0A12.91,12.91,0,0,1,6.73,19.65Zm.18,0h0A12.74,12.74,0,0,0,19.65,32.39h0A12.74,12.74,0,0,0,32.37,19.65h0A12.72,12.72,0,0,0,19.65,6.91h0A12.72,12.72,0,0,0,6.91,19.65Z"/><path class="cls-1" d="M7.56,19.65h0A12.1,12.1,0,0,1,19.65,7.56h0A12.09,12.09,0,0,1,31.72,19.65h0A12.05,12.05,0,0,1,19.65,31.72h0A12.07,12.07,0,0,1,7.56,19.65Zm.09,0h0a12,12,0,0,0,12,12h0a12,12,0,0,0,12-12h0a12,12,0,0,0-12-12h0a12,12,0,0,0-12,12Z"/><path class="cls-2" d="M3.59,9.77h.62v.16H3.59V9.77Zm32.12,0h-.64v.16h.64V9.77Zm2.73,9.75h-1.5v.15h1.5v-.15Zm-2.73,10h-.64v-.15h.64v.15Zm2.48-8.11h-1.3v-.16h1.3v.16ZM38.08,23H36.8v-.16h1.28V23Zm-.39,1.63H36.52v-.16h1.17v.16Zm-.5,1.62H36.12v-.15h1.07v.15ZM36.7,27.9h-1v-.17h1v.17Zm1.49-10h-1.3v.16h1.3v-.16Zm-.11-1.62H36.8v.15h1.28v-.15Zm-.39-1.63H36.52v.17h1.17v-.17ZM37.19,13H36.12v.17h1.07V13ZM36.7,11.4h-1v.15h1V11.4ZM.85,19.52H2.34v.15H.85v-.15Zm2.74,10h.62v-.15H3.59v.15ZM1.1,21.4H2.39v-.16H1.1v.16ZM1.2,23H2.5v-.16H1.2V23Zm.39,1.63H2.76v-.16H1.59v.16Zm.5,1.62H3.16v-.15H2.09v.15ZM2.6,27.9h1v-.17h-1v.17Zm-1.5-10H2.39v.16H1.1v-.16Zm.1-1.62H2.5v.15H1.2v-.15Zm.39-1.63H2.76v.17H1.59v-.17ZM2.09,13H3.16v.17H2.09V13ZM2.6,11.4h1v.15h-1Z"/><path class="cls-2" d="M19.65,3.17a.3.3,0,1,0,0-.6.3.3,0,1,0,0,.6Z"/><path class="cls-2" d="M22.61,2.63A.5.5,0,1,1,22,3,.5.5,0,0,1,22.61,2.63Z"/><path class="cls-2" d="M25.57,3.17a.75.75,0,0,1,.43,1,.74.74,0,0,1-.95.44.74.74,0,1,1,.52-1.39Z"/><path class="cls-2" d="M28.41,4.24a1,1,0,1,1-1.34.35A1,1,0,0,1,28.41,4.24Z"/><path class="cls-2" d="M16.68,2.63a.5.5,0,0,1,.17,1,.52.52,0,0,1-.58-.4A.52.52,0,0,1,16.68,2.63Z"/><path class="cls-2" d="M13.73,3.17a.74.74,0,1,1-.45,1A.74.74,0,0,1,13.73,3.17Z"/><path class="cls-2" d="M10.87,4.24a1,1,0,1,1-.36,1.34A1,1,0,0,1,10.87,4.24Z"/><path class="cls-2" d="M19.65,36.71a.31.31,0,0,0,.3-.3.3.3,0,0,0-.3-.3.31.31,0,0,0-.32.3A.31.31,0,0,0,19.65,36.71Z"/><path class="cls-2" d="M22.61,36.65a.51.51,0,0,0,.4-.58.5.5,0,0,0-1,.18A.51.51,0,0,0,22.61,36.65Z"/><path class="cls-2" d="M25.57,36.11a.74.74,0,1,0-1-.45A.74.74,0,0,0,25.57,36.11Z"/><path class="cls-2" d="M28.41,35a1,1,0,0,0,.37-1.34,1,1,0,0,0-1.35-.35,1,1,0,1,0,1,1.69Z"/><path class="cls-2" d="M16.68,36.65a.5.5,0,0,0,.17-1,.51.51,0,0,0-.58.4A.52.52,0,0,0,16.68,36.65Z"/><path class="cls-2" d="M13.73,36.11a.74.74,0,0,0,.5-1.39.74.74,0,1,0-.5,1.39Z"/><path class="cls-2" d="M10.87,35a1,1,0,1,0,1-1.69,1,1,0,0,0-1.34.35A1,1,0,0,0,10.87,35Z"/></g></g></svg>