<svg xmlns="http://www.w3.org/2000/svg" viewBox="0 0 237.55 173.76"><defs><style>.cls-1{isolation:isolate;}.cls-2,.cls-4{mix-blend-mode:overlay;}.cls-10,.cls-11,.cls-12,.cls-13,.cls-14,.cls-15,.cls-16,.cls-17,.cls-18,.cls-19,.cls-20,.cls-21,.cls-22,.cls-23,.cls-24,.cls-25,.cls-26,.cls-27,.cls-28,.cls-29,.cls-3,.cls-30,.cls-31,.cls-4,.cls-6,.cls-7,.cls-8,.cls-9{fill:#ffec9d;}.cls-19,.cls-5{opacity:0.5;}.cls-6{opacity:0;}.cls-7{opacity:0.04;}.cls-8{opacity:0.08;}.cls-9{opacity:0.12;}.cls-10{opacity:0.15;}.cls-11{opacity:0.19;}.cls-12{opacity:0.23;}.cls-13{opacity:0.27;}.cls-14{opacity:0.31;}.cls-15{opacity:0.35;}.cls-16{opacity:0.38;}.cls-17{opacity:0.42;}.cls-18{opacity:0.46;}.cls-20{opacity:0.54;}.cls-21{opacity:0.58;}.cls-22{opacity:0.62;}.cls-23{opacity:0.65;}.cls-24{opacity:0.69;}.cls-25{opacity:0.73;}.cls-26{opacity:0.77;}.cls-27{opacity:0.81;}.cls-28{opacity:0.85;}.cls-29{opacity:0.88;}.cls-30{opacity:0.92;}.cls-31{opacity:0.96;}</style></defs><title>资源 11</title><g class="cls-1"><g id="图层_2" data-name="图层 2"><g id="图层_1-2" data-name="图层 1"><g class="cls-2"><rect class="cls-3" x="24.93" y="158.39" width="1.54" height="4.1"/><rect class="cls-3" x="26.98" y="158.39" width="1.54" height="4.1"/><rect class="cls-3" x="29.03" y="158.39" width="1.54" height="4.1"/><rect class="cls-3" x="31.08" y="158.39" width="1.54" height="4.1"/><rect class="cls-3" x="33.13" y="158.39" width="1.54" height="4.1"/><rect class="cls-3" x="35.18" y="158.39" width="1.54" height="4.1"/><rect class="cls-3" x="37.23" y="158.39" width="1.54" height="4.1"/><rect class="cls-3" x="39.28" y="158.39" width="1.54" height="4.1"/><rect class="cls-3" x="41.33" y="158.39" width="1.54" height="4.1"/><path class="cls-3" d="M198.09,42l.36-.36,1.81,1.81a4.85,4.85,0,0,0,1.4-2.93h-2.54v-.51h2.57a4.85,4.85,0,0,0-1.26-3.26l-1.62,1.63-.36-.37,1.62-1.62a4.86,4.86,0,0,0-3-1.24v2.29h-.51V35.19a4.9,4.9,0,0,0-2.8,1.07l1.43,1.43-.36.36-1.45-1.44a4.8,4.8,0,0,0-1.4,2.92h2v.52H192a4.86,4.86,0,0,0,.93,2.85l1.58-1.59.37.37L193.2,43.3a4.88,4.88,0,0,0,2.85,1.55V42.61h.51V44.9h.26a4.83,4.83,0,0,0,3.06-1.08Z"/><rect class="cls-3" x="203.22" y="40.05" width="10.25" height="0.51"/><rect class="cls-3" x="196.56" y="23.14" width="0.51" height="10.25"/><rect class="cls-3" x="179.66" y="39.53" width="10.25" height="0.51"/><rect class="cls-3" x="196.05" y="46.71" width="0.51" height="10.25"/><polygon class="cls-3" points="80.37 164.03 58.23 164.03 58.23 163.52 80.16 163.52 87.46 156.34 102.81 156.34 102.81 156.86 87.67 156.86 80.37 164.03"/><polygon class="cls-3" points="73.2 167.62 60.28 167.62 60.28 167.1 72.98 167.1 79.96 159.93 106.39 159.93 106.39 160.44 80.18 160.44 73.2 167.62"/><polygon class="cls-3" points="155.06 158.91 127.48 158.91 124.66 156.08 125.02 155.72 127.7 158.39 155.06 158.39 155.06 158.91"/><polygon class="cls-3" points="169.79 162.6 166.54 159.34 166.9 158.98 169.79 161.87 184.28 147.39 184.64 147.75 169.79 162.6"/><polygon class="cls-3" points="177.85 161.01 177.49 160.65 182.88 155.32 187.23 155.32 193.31 149.25 193.67 149.61 187.45 155.83 183.09 155.83 177.85 161.01"/><polygon class="cls-3" points="175.42 159.15 175.06 158.79 180.06 153.78 183.39 153.78 194.14 143.03 194.5 143.4 183.6 154.29 180.27 154.29 175.42 159.15"/><circle class="cls-3" cx="102.55" cy="156.47" r="1.28"/><circle class="cls-3" cx="106.14" cy="160.06" r="1.28"/><circle class="cls-3" cx="60.03" cy="167.74" r="1.28"/><circle class="cls-3" cx="57.98" cy="163.65" r="1.28"/><circle class="cls-3" cx="13.41" cy="125.22" r="1.28"/><circle class="cls-3" cx="16.48" cy="99.6" r="1.28"/><circle class="cls-3" cx="13.41" cy="103.19" r="1.28"/><circle class="cls-3" cx="12.89" cy="80.65" r="1.28"/><circle class="cls-3" cx="15.97" cy="75.01" r="1.28"/><circle class="cls-3" cx="20.07" cy="104.73" r="1.28"/><circle class="cls-3" cx="105.62" cy="37.61" r="1.28"/><circle class="cls-3" cx="113.31" cy="44.79" r="1.28"/><circle class="cls-3" cx="129.7" cy="42.22" r="1.28"/><circle class="cls-3" cx="124.07" cy="40.17" r="1.28"/><circle class="cls-3" cx="129.7" cy="39.15" r="1.28"/><circle class="cls-3" cx="137.39" cy="35.56" r="1.28"/><circle class="cls-3" cx="144.05" cy="33" r="1.28"/><circle class="cls-3" cx="167.62" cy="30.44" r="1.28"/><circle class="cls-3" cx="125.09" cy="155.96" r="1.28"/><circle class="cls-3" cx="154.81" cy="158.52" r="1.28"/><circle class="cls-3" cx="166.59" cy="159.03" r="1.28"/><circle class="cls-3" cx="184.52" cy="147.76" r="1.28"/><circle class="cls-3" cx="175.3" cy="159.03" r="1.28"/><circle class="cls-3" cx="194.26" cy="143.15" r="1.28"/><circle class="cls-3" cx="197.84" cy="103.7" r="1.28"/><circle class="cls-3" cx="202.45" cy="103.7" r="1.28"/><circle class="cls-3" cx="236.27" cy="143.66" r="1.28"/><circle class="cls-3" cx="232.68" cy="143.66" r="1.28"/><circle class="cls-3" cx="193.23" cy="149.3" r="1.28"/><circle class="cls-3" cx="177.86" cy="161.08" r="1.28"/><polygon class="cls-3" points="232.37 143.59 206.81 118.03 206.81 113.42 196.64 103.33 197 102.97 207.32 113.2 207.32 117.81 232.73 143.23 232.37 143.59"/><polygon class="cls-3" points="235.83 143.97 213.98 122.13 213.98 118.66 209.37 113.92 209.37 110.73 202.37 103.79 202.73 103.42 209.88 110.51 209.88 113.72 214.49 118.46 214.49 121.91 236.19 143.61 235.83 143.97"/><polygon class="cls-3" points="20.32 104.6 19.81 104.6 19.81 92.92 15.71 88.61 15.71 74.89 16.22 74.89 16.22 88.4 20.32 92.71 20.32 104.6"/><polygon class="cls-3" points="13.66 125.09 13.15 125.09 13.15 118.8 16.22 115.76 16.22 100.5 16.74 100.5 16.74 115.98 13.66 119.01 13.66 125.09"/><path class="cls-3" d="M7.21,126.08l11.44,11.44c.17.18.45-.09.27-.27L7.48,125.81c-.18-.17-.45.1-.27.27Z"/><path class="cls-3" d="M7.21,128.64l11.44,11.45c.17.17.45-.1.27-.28L7.48,128.37c-.18-.17-.45.1-.27.27Z"/><path class="cls-3" d="M7.21,131.21l11.44,11.44c.17.17.45-.1.27-.27L7.48,130.93a.19.19,0,0,0-.27.28Z"/><path class="cls-3" d="M7.21,133.77q5.72,5.72,11.44,11.44c.17.17.45-.1.27-.27L7.48,133.5a.19.19,0,1,0-.27.27Z"/><rect class="cls-3" x="13.15" y="80.52" width="0.51" height="22.54"/><polygon class="cls-3" points="124.32 40.56 108.34 40.56 105.58 37.93 105.93 37.55 108.55 40.05 124.32 40.05 124.32 40.56"/><polygon class="cls-3" points="113.1 44.59 112.75 44.22 115 42.1 129.45 42.1 129.45 42.61 115.2 42.61 113.1 44.59"/><polygon class="cls-3" points="137.57 35.87 137.21 35.51 142.41 30.31 167.87 30.31 167.87 30.82 142.62 30.82 137.57 35.87"/><polygon class="cls-3" points="137.88 39.53 129.45 39.53 129.45 39.02 137.67 39.02 143.87 32.82 144.23 33.18 137.88 39.53"/><polygon class="cls-3" points="24.42 68.22 19.3 63.1 19.3 60.54 24.42 65.66 24.42 68.22"/><polygon class="cls-3" points="24.42 64.13 19.3 59 19.3 56.44 24.42 61.56 24.42 64.13"/><polygon class="cls-3" points="24.42 60.03 19.3 54.9 19.3 52.34 24.42 57.47 24.42 60.03"/><polygon class="cls-3" points="24.42 55.93 19.3 50.8 19.3 48.24 24.42 53.37 24.42 55.93"/></g><polygon class="cls-4" points="76.81 35.69 80.4 40.56 71.17 40.56 57.49 40.56 53.99 37.48 41.42 37.48 32.62 45.62 32.62 60.24 26.47 66.31 26.47 80.75 11.1 96.4 11.1 82.81 11.1 66.73 17.25 60.32 17.25 47.93 13.15 43.91 13.15 33.9 41.76 33.9 45.44 30.31 54.76 30.31 60.49 35.87 76.81 35.69"/><polygon class="cls-4" points="170.67 158.61 182.22 170.18 190.93 170.18 190.93 154.29 205.27 139.74 205.27 113.82 194.51 103.19 194.51 120.48 203.22 129.32 203.22 137.9 199.72 141.79 193.47 135.34 181.78 147.31 170.67 158.61"/><path class="cls-4" d="M207.83,55.45V27.24H192.48l-3,3.07H164.1l-4.7-4.61H140.16L126.91,39H116.65l-5.81-5.12H78l4,3.58H97.59l10.85,11.28h10.35l5.38-5.64h10.52l4.87-4.61H151.1l4.19-4.1h18.9l26.47,26.51V76.05l-3.07,3V96.23l4.61-4.53v11l4.61,4.36V85.8l-4.1-3.68V60.49Zm-11.1-9.09a6.49,6.49,0,1,1,6.49-6.48A6.49,6.49,0,0,1,196.73,46.36Z"/><path class="cls-4" d="M167.26,156.86H130.42l-5.22-5.13H79.63l-6.41,6.15H59l-4.53-4.1H41.16L23.4,136.15v-5.73l-6.66-6.92V111.79l4.61-4.71V89.47l-9.41,9.15,0,15-7,7.09v18.55l12.81,12.91v15.91H51.25l5.56,5.63H81L92.71,162h24.71l6.75,7.17h17.7l8.64-8.71h13.93l6.92,6.66H178ZM49.52,163H25.45a2.56,2.56,0,1,1,0-5.12H49.52a2.56,2.56,0,1,1,0,5.12Z"/><polygon class="cls-4" points="126.85 27.79 133.54 34.41 160.65 34.41 168.44 42.1 190.62 42.1 196.05 47.41 196.05 71.02 188.37 78.81 188.37 108.12 208.1 128.04 211.42 124.53 211.42 42 204.76 35.28 204.76 24.16 185.39 24.16 182.59 27.24 163.98 27.24 161.54 24.68 123.76 24.68 126.85 27.79"/><g class="cls-2"><circle class="cls-3" cx="46.07" cy="37.36" r="1.67"/><circle class="cls-3" cx="49.14" cy="74.24" r="1.67"/><polygon class="cls-3" points="79.75 117.92 79.24 117.92 79.24 105.98 65.92 92.41 65.92 87.67 58.13 80.01 43.65 80.01 36.1 72.32 29.7 72.32 21.49 64.63 21.84 64.26 29.9 71.81 36.31 71.81 43.87 79.5 58.34 79.5 66.43 87.46 66.43 92.2 79.75 105.78 79.75 117.92"/><polygon class="cls-3" points="83.85 110.23 83.34 110.23 83.34 90.23 68.89 75.91 47.63 75.91 37.12 65.72 37.47 65.35 47.84 75.4 69.1 75.4 83.85 90.02 83.85 110.23"/><polygon class="cls-3" points="87.13 90.82 72.07 75.63 72.07 69.36 63.18 60.46 63.54 60.1 72.58 69.14 72.58 75.42 87.49 90.46 87.13 90.82"/><polygon class="cls-3" points="66.76 72.25 59.26 64.74 59.26 56.03 51.65 48.42 52.01 48.06 59.77 55.82 59.77 64.53 67.13 71.89 66.76 72.25"/><polygon class="cls-3" points="60.48 71.86 55.67 66.92 55.67 58.08 42.68 45.09 43.05 44.73 56.19 57.87 56.19 66.71 60.85 71.5 60.48 71.86"/><polygon class="cls-3" points="49.22 74.68 40.2 65.66 29.57 65.66 22.06 58.29 22.42 57.92 29.78 65.15 40.41 65.15 49.58 74.32 49.22 74.68"/><polygon class="cls-3" points="80.6 101.96 70.53 91.9 70.53 86.26 66.25 82.11 66.61 81.75 71.04 86.05 71.04 91.69 80.96 101.6 80.6 101.96"/><polygon class="cls-3" points="101.73 94.02 82.83 75.12 82.83 63.21 70.48 50.86 70.84 50.5 83.34 62.99 83.34 74.91 102.09 93.66 101.73 94.02"/><polygon class="cls-3" points="76.93 61.92 67.86 52.85 63.87 52.85 63.87 52.34 68.08 52.34 77.29 61.56 76.93 61.92"/><polygon class="cls-3" points="90 99.99 89.49 99.99 89.49 88.31 78.22 77.04 78.22 69.87 70.41 62.19 70.77 61.83 78.73 69.65 78.73 76.83 90 88.1 90 99.99"/><polygon class="cls-3" points="87.44 68.22 86.92 68.22 86.92 56.03 77.08 46.19 54.54 46.19 46.47 38.12 46.83 37.76 54.75 45.68 77.3 45.68 87.44 55.82 87.44 68.22"/><polygon class="cls-3" points="90 66.17 89.49 66.17 89.49 60.05 92.56 56.85 92.56 52.83 82.84 43.24 83.2 42.87 93.07 52.62 93.07 57.06 90 60.26 90 66.17"/><polygon class="cls-3" points="53.06 66.48 42.87 56.16 42.87 51.42 35.26 43.81 35.62 43.45 43.38 51.21 43.38 55.95 53.42 66.12 53.06 66.48"/><polygon class="cls-3" points="24.42 54.9 23.91 54.9 23.91 44.55 30.21 38.51 39.38 38.51 47.02 46.14 46.65 46.5 39.17 39.02 30.42 39.02 24.42 44.77 24.42 54.9"/><polygon class="cls-3" points="30.28 58.82 28.01 56.55 28.01 46.19 28.52 46.19 28.52 56.34 30.64 58.46 30.28 58.82"/><circle class="cls-3" cx="79.37" cy="118.3" r="1.67"/><circle class="cls-3" cx="83.47" cy="110.11" r="1.67"/><circle class="cls-3" cx="89.61" cy="99.86" r="1.67"/><circle class="cls-3" cx="87.05" cy="90.64" r="1.67"/><circle class="cls-3" cx="87.05" cy="68.61" r="1.67"/><circle class="cls-3" cx="89.61" cy="65.02" r="1.67"/><circle class="cls-3" cx="66.56" cy="81.93" r="1.67"/><circle class="cls-3" cx="66.56" cy="71.68" r="1.67"/><circle class="cls-3" cx="64.51" cy="61.44" r="1.67"/><circle class="cls-3" cx="70.15" cy="61.44" r="1.67"/><circle class="cls-3" cx="76.29" cy="61.44" r="1.67"/><circle class="cls-3" cx="70.15" cy="50.16" r="1.67"/><circle class="cls-3" cx="64.51" cy="52.73" r="1.67"/><circle class="cls-3" cx="60.41" cy="71.68" r="1.67"/><circle class="cls-3" cx="52.73" cy="66.05" r="1.67"/><circle class="cls-3" cx="52.73" cy="49.14" r="1.67"/><circle class="cls-3" cx="21.47" cy="64" r="1.67"/><circle class="cls-3" cx="21.47" cy="57.85" r="1.67"/><circle class="cls-3" cx="30.7" cy="58.87" r="1.67"/><circle class="cls-3" cx="28.14" cy="46.58" r="1.67"/><circle class="cls-3" cx="35.31" cy="43.5" r="1.67"/><circle class="cls-3" cx="42.99" cy="45.04" r="1.67"/><circle class="cls-3" cx="47.6" cy="46.58" r="1.67"/><circle class="cls-3" cx="83.47" cy="43.5" r="1.67"/><circle class="cls-3" cx="24.04" cy="53.24" r="1.67"/><circle class="cls-3" cx="80.9" cy="101.91" r="1.67"/><circle class="cls-3" cx="101.91" cy="93.71" r="1.67"/><g class="cls-5"><path class="cls-6" d="M66.6,77.23a5.77,5.77,0,1,1,5.77-5.76A5.76,5.76,0,0,1,66.6,77.23Z"/><path class="cls-7" d="M66.6,77.09a5.62,5.62,0,1,1,5.62-5.62A5.62,5.62,0,0,1,66.6,77.09Z"/><path class="cls-8" d="M66.6,76.94a5.48,5.48,0,1,1,5.48-5.47A5.47,5.47,0,0,1,66.6,76.94Z"/><path class="cls-9" d="M66.6,76.8a5.33,5.33,0,1,1,5.33-5.33A5.33,5.33,0,0,1,66.6,76.8Z"/><path class="cls-10" d="M66.6,76.66a5.19,5.19,0,1,1,5.19-5.19A5.19,5.19,0,0,1,66.6,76.66Z"/><path class="cls-11" d="M66.6,76.51a5,5,0,1,1,5-5A5,5,0,0,1,66.6,76.51Z"/><path class="cls-12" d="M66.6,76.37a4.9,4.9,0,1,1,4.9-4.9A4.9,4.9,0,0,1,66.6,76.37Z"/><path class="cls-13" d="M66.6,76.22a4.75,4.75,0,1,1,4.75-4.75A4.75,4.75,0,0,1,66.6,76.22Z"/><path class="cls-14" d="M66.6,76.08a4.61,4.61,0,1,1,4.61-4.61A4.62,4.62,0,0,1,66.6,76.08Z"/><path class="cls-15" d="M66.6,75.93a4.46,4.46,0,1,1,4.47-4.46A4.46,4.46,0,0,1,66.6,75.93Z"/><path class="cls-16" d="M66.6,75.79a4.32,4.32,0,1,1,4.32-4.32A4.33,4.33,0,0,1,66.6,75.79Z"/><path class="cls-17" d="M66.6,75.64a4.17,4.17,0,1,1,4.18-4.17A4.17,4.17,0,0,1,66.6,75.64Z"/><path class="cls-18" d="M66.6,75.5a4,4,0,1,1,4-4A4,4,0,0,1,66.6,75.5Z"/><path class="cls-19" d="M66.6,75.35a3.89,3.89,0,1,1,3.89-3.88A3.88,3.88,0,0,1,66.6,75.35Z"/><path class="cls-20" d="M66.6,75.21a3.74,3.74,0,1,1,3.74-3.74A3.75,3.75,0,0,1,66.6,75.21Z"/><path class="cls-21" d="M66.6,75.06a3.6,3.6,0,1,1,3.6-3.59A3.59,3.59,0,0,1,66.6,75.06Z"/><path class="cls-22" d="M66.6,74.92a3.45,3.45,0,1,1,3.45-3.45A3.46,3.46,0,0,1,66.6,74.92Z"/><path class="cls-23" d="M66.6,74.78a3.31,3.31,0,1,1,3.31-3.31A3.31,3.31,0,0,1,66.6,74.78Z"/><path class="cls-24" d="M66.6,74.63a3.16,3.16,0,1,1,3.16-3.16A3.17,3.17,0,0,1,66.6,74.63Z"/><path class="cls-25" d="M66.6,74.49a3,3,0,1,1,3-3A3,3,0,0,1,66.6,74.49Z"/><path class="cls-26" d="M66.6,74.34a2.87,2.87,0,1,1,2.87-2.87A2.87,2.87,0,0,1,66.6,74.34Z"/><path class="cls-27" d="M66.6,74.2a2.73,2.73,0,1,1,2.73-2.73A2.73,2.73,0,0,1,66.6,74.2Z"/><path class="cls-28" d="M66.6,74.05a2.58,2.58,0,1,1,2.59-2.58A2.58,2.58,0,0,1,66.6,74.05Z"/><path class="cls-29" d="M66.6,73.91A2.44,2.44,0,1,1,69,71.47,2.44,2.44,0,0,1,66.6,73.91Z"/><path class="cls-30" d="M66.6,73.76a2.3,2.3,0,1,1,2.3-2.29A2.29,2.29,0,0,1,66.6,73.76Z"/><path class="cls-31" d="M66.6,73.62a2.15,2.15,0,1,1,2.15-2.15A2.15,2.15,0,0,1,66.6,73.62Z"/><path class="cls-3" d="M68.61,71.47a2,2,0,1,1-2-2A2,2,0,0,1,68.61,71.47Z"/></g></g><g class="cls-2"><path class="cls-3" d="M126,64.31l3.9-3.77h6.67l3.62,3.59H151.3a1.76,1.76,0,0,0,.49,1.1,1.71,1.71,0,1,0,0-2.41,1.73,1.73,0,0,0-.44.79H140.42L136.8,60h-7.1l-3.89,3.79L111,63.8a1.67,1.67,0,0,0-.44-.8,1.71,1.71,0,0,0-2.42,2.42,1.71,1.71,0,0,0,2.42,0,1.69,1.69,0,0,0,.49-1.08Z"/><path class="cls-3" d="M144.77,56.26l-10.2,0a1.73,1.73,0,0,0-.47-.88,1.71,1.71,0,1,0,0,2.41,1.74,1.74,0,0,0,.48-1l10,0,4.71,4.79h5.21a1.77,1.77,0,0,0,.39.6,1.71,1.71,0,0,0,2.41-2.42,1.71,1.71,0,0,0-2.41,0,1.69,1.69,0,0,0-.49,1.31h-4.9Z"/><path class="cls-3" d="M163.92,74.6a1.69,1.69,0,0,0-.49,1.31h-10L147.67,70H126.6a1.77,1.77,0,0,0-.47-.88,1.73,1.73,0,1,0,.48,1.42l20.85,0,5.79,5.88h10.29a1.62,1.62,0,0,0,.38.59,1.71,1.71,0,1,0,0-2.41Z"/><path class="cls-3" d="M150.07,48.59a1.52,1.52,0,0,0,.86-.28l1.47,1.47h14.85l12.69,12.61a1.62,1.62,0,0,0-.11.58,1.5,1.5,0,1,0,1.49-1.49,1.46,1.46,0,0,0-1.09.48L167.47,49.27H152.61L151.29,48a1.49,1.49,0,1,0-1.22.64Z"/><path class="cls-3" d="M161.34,52.26a1.5,1.5,0,1,0,1.12,2.47l6.84,6.83h3.88a1.48,1.48,0,1,0,0-.51h-3.7l-6.78-6.78a1.46,1.46,0,0,0,.09-.52A1.49,1.49,0,0,0,161.34,52.26Z"/><path class="cls-3" d="M157.24,46.54a1.49,1.49,0,0,0,1.48-1.37h9.05l4.13,4.14a1.46,1.46,0,0,0-.27.85,1.5,1.5,0,1,0,1.49-1.49,1.46,1.46,0,0,0-.85.27l-3.78-3.77h9.69l16.65,16.57a1.47,1.47,0,0,0-.66,1.23,1.5,1.5,0,1,0,1.5-1.49,1.15,1.15,0,0,0-.33,0L178.4,44.66H158.68a1.49,1.49,0,1,0-1.44,1.88Z"/><path class="cls-3" d="M195.67,65.58a1.48,1.48,0,0,0-1.44,1.11H169.47l-9.18-9.22h-4.61L146.12,48a1.44,1.44,0,0,0,.32-.91,1.49,1.49,0,0,0-3-.14,1.72,1.72,0,0,0-.91.48,1.69,1.69,0,0,0-.3,2l-3.16,3.15-18.8,0-5,5-6.46.1a1.71,1.71,0,0,0-.49-1.12,1.73,1.73,0,0,0-2.42,0,1.71,1.71,0,0,0,0,2.42,1.73,1.73,0,0,0,2.42,0,1.85,1.85,0,0,0,.44-.78l6.73-.12,5-4.94,18.8,0,3.25-3.25a1.7,1.7,0,0,0,2.9-1.35,1.55,1.55,0,0,0,.29-.14l9.66,9.55.07.08h4.61l9.18,9.22h24.92a1.49,1.49,0,1,0,1.49-1.62Z"/><path class="cls-3" d="M190,63.44a1.5,1.5,0,0,0,0-3,1.5,1.5,0,0,0-.52.1l-4.11-4.11h-3.25L178,52.38a1.4,1.4,0,0,0,.17-.68,1.49,1.49,0,1,0-1.49,1.5,1.52,1.52,0,0,0,1-.4L181.94,57h3.25l3.87,3.87a1.49,1.49,0,0,0,1,2.62Z"/></g><g class="cls-2"><polygon class="cls-3" points="79.32 6.14 107.39 34.13 120.74 34.01 120.81 34.08 182.47 95.92 182.32 115.15 197.67 130.51 197.31 130.87 181.81 115.36 181.88 96.2 120.3 34.74 106.98 34.74 106.91 34.67 78.96 6.5 79.32 6.14"/><polygon class="cls-3" points="2.12 46.98 69.96 46.99 70.04 47.07 116.42 93.48 136.51 113.53 168.32 113.47 168.4 113.55 185.23 130.34 184.84 130.73 168.05 114.05 136.29 114.05 136.22 113.97 116.09 93.81 69.79 47.47 2.13 47.48 2.12 46.98"/><polygon class="cls-3" points="2.13 33.39 67.31 33.39 67.38 33.59 81.95 48.52 103.52 48.63 103.59 48.72 138.65 83.32 156.12 83.15 195.14 122.17 194.78 122.54 155.91 83.67 138.57 83.72 138.49 83.64 103.53 48.95 81.86 48.98 81.76 48.92 67.1 34.15 2.14 34.02 2.13 33.39"/><polygon class="cls-3" points="2.57 55.75 95.46 55.83 95.53 55.9 133.32 93.66 144.63 93.62 157.66 106.42 157.31 106.78 144.41 94.14 133.09 94.19 133.02 94.11 95.36 56.23 2.59 56.24 2.57 55.75"/><polygon class="cls-3" points="64.72 16.39 85.01 36.68 112.74 36.88 150.94 75.08 150.58 75.44 112.53 37.39 84.8 37.2 64.36 16.75 64.72 16.39"/><polygon class="cls-3" points="68.7 1.54 75.24 8.07 75.33 15.41 94.06 34.14 93.7 34.51 74.82 15.62 74.73 8.29 68.34 1.9 68.7 1.54"/><polygon class="cls-3" points="43.05 17.32 58.46 17.38 75.95 34.87 75.59 35.23 58.25 17.89 43.02 17.86 43.05 17.32"/><circle class="cls-3" cx="197.72" cy="130.6" r="2.01"/><path class="cls-3" d="M182.9,130.6a2,2,0,1,1,2,2A2,2,0,0,1,182.9,130.6Z"/><path class="cls-3" d="M192.63,121.89a2,2,0,1,1,2,2A2,2,0,0,1,192.63,121.89Z"/><path class="cls-3" d="M155.75,107a2,2,0,1,1,2,2A2,2,0,0,1,155.75,107Z"/><path class="cls-3" d="M76.85,6.1a2,2,0,1,1,2,2A2,2,0,0,1,76.85,6.1Z"/><path class="cls-3" d="M67.11,2a2,2,0,1,1,2,2A2,2,0,0,1,67.11,2Z"/><path class="cls-3" d="M91.71,34.28a2,2,0,1,1,2,2A2,2,0,0,1,91.71,34.28Z"/><path class="cls-3" d="M63,16.35a2,2,0,1,1,2,2A2,2,0,0,1,63,16.35Z"/><path class="cls-3" d="M74.29,35.31a2,2,0,1,1,2,2A2,2,0,0,1,74.29,35.31Z"/><path class="cls-3" d="M41,17.38a2,2,0,1,1,2,2A2,2,0,0,1,41,17.38Z"/><path class="cls-3" d="M149.09,75.27a2,2,0,1,1,2,2A2,2,0,0,1,149.09,75.27Z"/><path class="cls-3" d="M0,33.77a2,2,0,1,1,2,2A2,2,0,0,1,0,33.77Z"/><path class="cls-3" d="M0,47.09a2,2,0,1,1,2,2A2,2,0,0,1,0,47.09Z"/><path class="cls-3" d="M0,55.8a2,2,0,1,1,2,2A2,2,0,0,1,0,55.8Z"/></g></g></g></g></svg>