<svg xmlns="http://www.w3.org/2000/svg" viewBox="0 0 222.29 225.48"><defs><style>.cls-1{fill:#fff;}.cls-2{opacity:0.35;}.cls-3{opacity:0.15;}.cls-4{opacity:0.25;}.cls-5{opacity:0.5;}.cls-6{opacity:0.75;}.cls-7{opacity:0.45;}</style></defs><title>资源 7</title><g id="图层_2" data-name="图层 2"><g id="图层_1-2" data-name="图层 1"><path class="cls-1" d="M115.69,175.22a65.15,65.15,0,0,1-63.13-48.88l-.18-.73H83.92l.17.32a35.36,35.36,0,0,0,63.2,0l.16-.32H179l-.19.73A65.13,65.13,0,0,1,115.69,175.22ZM53.88,126.77a64,64,0,0,0,123.62,0H148.17a36.53,36.53,0,0,1-65,0ZM179,94.47H147.45l-.16-.32a35.37,35.37,0,0,0-63.2,0l-.17.32H52.38l.18-.72a65.2,65.2,0,0,1,126.25,0Zm-30.83-1.16H177.5a64,64,0,0,0-123.62,0H83.21a36.53,36.53,0,0,1,65,0Z"/><path class="cls-1" d="M115.69,138.62A28.58,28.58,0,1,1,144.27,110,28.61,28.61,0,0,1,115.69,138.62Zm0-56A27.42,27.42,0,1,0,143.11,110,27.45,27.45,0,0,0,115.69,82.62Z"/><path class="cls-1" d="M115.69,130.91A20.87,20.87,0,1,1,136.56,110,20.89,20.89,0,0,1,115.69,130.91Zm0-40.58A19.71,19.71,0,1,0,135.39,110,19.73,19.73,0,0,0,115.69,90.33Z"/><g class="cls-2"><path class="cls-1" d="M140.61,178l3.52-1.4A77.53,77.53,0,0,0,153,172a72.34,72.34,0,0,0,22-20.58,72.2,72.2,0,0,0,11.72-27.68,77.1,77.1,0,0,0,1.21-9.91c.06-2.42.1-3.8.1-3.8h-2.91s0,1.33-.09,3.65a75.05,75.05,0,0,1-1.17,9.51,69.18,69.18,0,0,1-11.24,26.57,71.92,71.92,0,0,1-10.24,11.66,70.92,70.92,0,0,1-10.86,8.09,76.26,76.26,0,0,1-8.52,4.37l-3.38,1.35Z"/></g><g class="cls-3"><path class="cls-1" d="M43.64,116.22s0,.34.07,1,.2,1.58.35,2.78a68.07,68.07,0,0,0,2,9.76,72.46,72.46,0,0,0,14,26.6,74.82,74.82,0,0,0,11.68,11.18A72,72,0,0,0,93,178.73c1.14.41,2.06.64,2.68.82l1,.27.76-2.8-.91-.26c-.6-.17-1.48-.4-2.57-.79a68.74,68.74,0,0,1-8.86-3.61,67.71,67.71,0,0,1-11.49-7.14,72,72,0,0,1-11.21-10.73,69.28,69.28,0,0,1-8.54-13A68.5,68.5,0,0,1,48.89,129a66.23,66.23,0,0,1-2-9.37c-.14-1.15-.28-2-.33-2.66s-.07-1-.07-1Z"/></g><path class="cls-1" d="M102,39l-1,.17-2.72.63c-1.18.26-2.57.72-4.19,1.16s-3.4,1.1-5.3,1.9a72.6,72.6,0,0,0-25,16.76A73.81,73.81,0,0,0,53.91,72.4a72.46,72.46,0,0,0-6.13,12.69A75.42,75.42,0,0,0,45,94.67c-.3,1.16-.4,2.11-.53,2.74s-.18,1-.18,1l2.87.46.17-.93c.13-.61.23-1.52.51-2.64a73.65,73.65,0,0,1,2.66-9.19A68.88,68.88,0,0,1,56.4,73.91a71.36,71.36,0,0,1,9.52-12.24,69.77,69.77,0,0,1,24-16.09c1.83-.77,3.56-1.3,5.08-1.83s2.89-.86,4-1.1l2.62-.61.93-.17Z"/><g class="cls-4"><path class="cls-1" d="M108.64,28.93,108,29c-.43,0-1.06.09-1.85.2l-2.86.36-3.68.66A80.94,80.94,0,0,0,63.68,47.38l-2.83,2.45-2.09,2c-.58.54-1,1-1.31,1.31l-.45.47,5.51,5.31.41-.43c.27-.29.66-.7,1.19-1.19L66,55.49l2.56-2.22A73.31,73.31,0,0,1,101.1,37.7l3.34-.59,2.59-.33c.72-.1,1.28-.17,1.67-.18l.6-.05Z"/></g><g class="cls-5"><path class="cls-1" d="M170.72,50a6.31,6.31,0,0,0-.48-.44l-1.41-1.22c-1.19-1.06-3-2.49-5.18-4.12a81.26,81.26,0,0,0-17.54-9.74,83.05,83.05,0,0,0-10.19-3.36,84.3,84.3,0,0,0-9.2-1.77c-2.71-.4-5-.51-6.59-.64l-2.52-.08-.17,7.65,2.28.07c1.44.12,3.51.22,6,.58a80.06,80.06,0,0,1,8.33,1.6,75.43,75.43,0,0,1,9.23,3.05,73.63,73.63,0,0,1,15.89,8.82c2,1.48,3.61,2.77,4.69,3.74l1.28,1.1a5.32,5.32,0,0,1,.44.4Z"/></g><g class="cls-6"><path class="cls-1" d="M197.13,110s0-.91-.07-2.51-.18-3.88-.45-6.61a82.66,82.66,0,0,0-4.67-19.51,84.23,84.23,0,0,0-4.43-9.78c-.83-1.5-1.65-2.94-2.47-4.28s-1.61-2.6-2.43-3.7c-1.55-2.26-3-4-4-5.29L177,56.45l-5.76,5,1.49,1.73c.89,1.14,2.21,2.74,3.61,4.8.75,1,1.42,2.16,2.21,3.35s1.48,2.52,2.23,3.88a76.3,76.3,0,0,1,4,8.85A74.45,74.45,0,0,1,189,101.77c.25,2.47.41,4.54.41,6l.06,2.28Z"/></g><path class="cls-1" d="M193,116.17s0-.38.07-1,.11-1.34.11-2.11l.08-3.07h-3.78L189.4,113c0,.74-.07,1.46-.11,2s-.07.91-.07.91Z"/><g class="cls-2"><path class="cls-1" d="M172.21,163.13s1.07-1.1,2-2.28l1.38-1.6.59-.75-2.95-2.36-.56.71-1.31,1.53c-.94,1.12-2,2.16-2,2.16Z"/></g><g class="cls-2"><path class="cls-1" d="M151.92,178.62l.85-.44,1.83-1.05c1.35-.74,2.62-1.6,2.62-1.6l-2-3.19s-1.22.82-2.5,1.52l-1.74,1-.81.42Z"/></g><path class="cls-1" d="M101.12,186.22l3,.52,3,.39.41-3.75-2.9-.37-2.87-.5Z"/><path class="cls-1" d="M77.2,177.37l.83.48c.49.3,1.17.65,1.86,1l1.88,1a8.49,8.49,0,0,0,.86.41l1.61-3.41s-.34-.14-.82-.39l-1.79-.92c-.65-.33-1.3-.66-1.76-.94l-.79-.46Z"/><path class="cls-1" d="M43.56,138.55l.35.89c.2.54.51,1.24.83,1.94s.63,1.39.87,1.92a7,7,0,0,0,.42.86l3.39-1.66a7.31,7.31,0,0,1-.4-.82l-.83-1.83c-.3-.66-.6-1.33-.79-1.84l-.33-.85Z"/><path class="cls-1" d="M38.22,113.6a8.22,8.22,0,0,0,.05,1c0,.57.1,1.34.16,2.1s.11,1.53.2,2.1.12.95.12.95l3.75-.46-.12-.91c-.08-.54-.14-1.27-.19-2s-.11-1.45-.15-2,0-.91,0-.91Z"/><g class="cls-4"><path class="cls-1" d="M53,64.41l-1.76,2.51L49.56,69.5l3.22,2L54.36,69,56,66.63Z"/></g><path class="cls-1" d="M192.26,129.71s.27-1.21.69-3c.24-.9.38-2,.6-3.12s.38-2.38.53-3.61l.24-1.84c0-.61.09-1.21.13-1.79.08-1.16.2-2.24.19-3.17.05-1.87.08-3.11.08-3.11h2.41s0,1.28-.08,3.2c0,1-.12,2.07-.2,3.27,0,.6-.09,1.22-.14,1.84l-.24,1.9c-.16,1.27-.32,2.54-.55,3.72s-.37,2.29-.62,3.22c-.43,1.87-.72,3.11-.72,3.11Z"/><g class="cls-2"><path class="cls-1" d="M173.28,164.14s.88-.88,2.08-2.3,2.79-3.34,4.25-5.34,2.81-4.1,3.79-5.68l1.55-2.7,2.1,1.16-1.59,2.78c-1,1.63-2.38,3.79-3.9,5.85s-3.11,4.07-4.39,5.5-2.14,2.38-2.14,2.38Z"/></g><g class="cls-2"><path class="cls-1" d="M140.09,185.22l2.94-1,3-1.17c1.08-.44,2.2-1,3.33-1.48,2.24-1.07,4.44-2.23,6-3.18.81-.46,1.48-.85,1.93-1.16l.72-.46,1.29,2-.74.48c-.46.31-1.16.71-2,1.18-1.65,1-3.91,2.18-6.22,3.28-1.17.52-2.33,1.08-3.44,1.53l-3,1.2-3,1Z"/></g><path class="cls-1" d="M100.85,187.66l3.05.54,3.16.4c1.16.14,2.4.2,3.64.3s2.48.09,3.64.14,2.25,0,3.18,0l2.25-.06.86-.06.14,2.4-.87.06-2.32.06c-1,0-2.08.07-3.28,0s-2.48,0-3.75-.15-2.56-.16-3.75-.31l-3.25-.42L100.4,190Z"/><path class="cls-1" d="M65.28,170.91l.67.54,1.77,1.39c.71.59,1.62,1.19,2.57,1.88s2,1.36,3,2,2.1,1.32,3.12,1.89,2,1.12,2.79,1.53l2,1c.49.25.77.37.77.37l-1,2.17s-.3-.12-.8-.37l-2.06-1.06c-.87-.42-1.84-1-2.88-1.58s-2.15-1.23-3.21-1.94-2.16-1.37-3.13-2.09-1.9-1.32-2.64-1.93l-1.83-1.44c-.44-.34-.68-.55-.68-.55Z"/><path class="cls-1" d="M42.19,139.09a81.48,81.48,0,0,0,4.21,9c.62,1.07,1.23,2.15,1.83,3.15s1.21,1.9,1.72,2.68c1,1.54,1.78,2.54,1.78,2.54l-1.94,1.41s-.76-1-1.84-2.61l-1.77-2.76c-.62-1-1.24-2.15-1.89-3.26A83.9,83.9,0,0,1,40,140Z"/><path class="cls-1" d="M37.3,100.08a84.18,84.18,0,0,0-.65,9.91c0,1.24.07,2.48.09,3.64s.16,2.25.22,3.18.14,1.7.22,2.24l.11.84-2.39.3-.11-.87c-.08-.56-.16-1.35-.22-2.31s-.19-2.07-.23-3.27-.06-2.48-.09-3.76a84.29,84.29,0,0,1,.67-10.2Z"/><g class="cls-4"><path class="cls-1" d="M51.8,63.54,50,66.08c-.51.78-1.09,1.7-1.72,2.68s-1.21,2.08-1.83,3.15c-1.19,2.18-2.3,4.41-3,6.12-.39.84-.7,1.56-.89,2.07l-.31.79L40,80l.33-.82c.19-.52.51-1.26.91-2.13.76-1.76,1.9-4,3.12-6.3.65-1.11,1.26-2.23,1.89-3.25L48,64.74c1.11-1.57,1.84-2.62,1.84-2.62Z"/></g><g class="cls-7"><path class="cls-1" d="M168.1,175.05l.66-.51,1.79-1.55,1.27-1.11,1.44-1.37c.51-.49,1.07-1,1.63-1.56l1.73-1.82a82.78,82.78,0,0,0,21.77-45.49c.22-1.73.44-3.31.52-4.73s.22-2.65.22-3.67c.05-2,.08-3.2.08-3.2h-1.16s0,1.15-.08,3.16c0,1-.12,2.22-.22,3.61s-.29,3-.51,4.67a81.75,81.75,0,0,1-21.47,44.86l-1.7,1.79c-.56.55-1.1,1.06-1.61,1.54s-1,.94-1.42,1.35l-1.25,1.09L168,173.64l-.65.51Z"/><path class="cls-1" d="M142.4,192.34l1.16-.39c.75-.26,1.87-.61,3.25-1.17a86.89,86.89,0,0,0,38.86-29.88,85.34,85.34,0,0,0,14.88-34,90.63,90.63,0,0,0,1.54-12.21c.08-3,.12-4.67.12-4.67h-1.16s-.05,1.68-.13,4.61a87.57,87.57,0,0,1-1.51,12,84.56,84.56,0,0,1-14.68,33.52,85.23,85.23,0,0,1-38.34,29.47c-1.36.56-2.46.91-3.2,1.16l-1.15.39Z"/><path class="cls-1" d="M121.27,199.38l1.51-.11c1-.07,2.43-.18,4.26-.44a85.67,85.67,0,0,0,15-3.2,89.53,89.53,0,0,0,38.94-24.3,86.28,86.28,0,0,0,7.94-9.75c1.24-1.67,2.3-3.44,3.4-5.15s2.07-3.48,2.94-5.26a87.11,87.11,0,0,0,7.53-20.23A88.49,88.49,0,0,0,205,115.83c.16-1.84.12-3.29.17-4.27s0-1.52,0-1.52h-1.17s0,.52,0,1.5,0,2.4-.17,4.22a87.71,87.71,0,0,1-2.24,14.91,85.24,85.24,0,0,1-7.44,20c-.85,1.76-1.9,3.45-2.89,5.2s-2.13,3.43-3.36,5.08a85.13,85.13,0,0,1-7.84,9.62,88,88,0,0,1-38.43,24,84.69,84.69,0,0,1-14.75,3.16c-1.81.25-3.23.36-4.21.43l-1.49.11Z"/><path class="cls-1" d="M76.24,193.75l1.91.86c1.23.6,3.1,1.32,5.47,2.25a91,91,0,0,0,20.45,5c2.16.32,4.43.44,6.77.63s4.77.18,7.26.07a90.93,90.93,0,0,0,15.6-1.71A92.44,92.44,0,0,0,207.86,118c.09-1.26.17-2.39.25-3.38s0-1.82.06-2.5c0-1.36.05-2.09.05-2.09h-1.16s0,.72-.05,2.06c0,.67,0,1.5-.07,2.47l-.24,3.35a90.93,90.93,0,0,1-17.53,46.42,91.62,91.62,0,0,1-55.69,35.33,89.57,89.57,0,0,1-15.41,1.68c-2.46.11-4.85,0-7.17-.06s-4.55-.3-6.68-.62A89.28,89.28,0,0,1,84,195.76c-2.34-.91-4.19-1.62-5.4-2.21l-1.88-.85Z"/></g><g class="cls-4"><path class="cls-1" d="M173,38.92l.72.57,2,1.69,1.39,1.21,1.58,1.49c.56.54,1.16,1.1,1.78,1.72l1.89,2a90.61,90.61,0,0,1,23.81,49.78c.25,1.89.48,3.63.57,5.18s.24,2.89.24,4l.09,3.49h1.16s0-1.29-.09-3.54c0-1.13-.13-2.49-.24-4.06s-.33-3.32-.58-5.24A91.91,91.91,0,0,0,183.2,46.79l-1.92-2c-.62-.62-1.24-1.19-1.8-1.74l-1.6-1.51-1.41-1.23-2-1.71-.73-.57Z"/><path class="cls-1" d="M143,26l1.18.4c.77.26,1.91.62,3.32,1.2a88.84,88.84,0,0,1,39.69,30.5,87.7,87.7,0,0,1,15.2,34.71,91.78,91.78,0,0,1,1.56,12.48c.09,3,.13,4.76.13,4.76h1.17s-.05-1.75-.14-4.82a93.12,93.12,0,0,0-1.58-12.64,88.86,88.86,0,0,0-15.4-35.17,90.38,90.38,0,0,0-28.68-25.49,90.26,90.26,0,0,0-11.53-5.42c-1.43-.58-2.58-.94-3.36-1.21l-1.2-.41Z"/><path class="cls-1" d="M121,24.86l1.45.11c.94.06,2.32.17,4.06.42a81.8,81.8,0,0,1,14.25,3,85.2,85.2,0,0,1,37.12,23.18,81.37,81.37,0,0,1,7.58,9.29c1.18,1.59,2.18,3.29,3.24,4.91s2,3.32,2.8,5a86.94,86.94,0,0,1,4.39,10,90.53,90.53,0,0,1,2.79,9.33,84.45,84.45,0,0,1,2.16,14.41c.16,1.75.12,3.14.17,4.08s0,1.44,0,1.44h1.16s0-.51,0-1.46,0-2.36-.16-4.14a86.34,86.34,0,0,0-2.2-14.6A91.33,91.33,0,0,0,197,80.38a89.26,89.26,0,0,0-4.45-10.08c-.84-1.72-1.87-3.38-2.83-5.09s-2.09-3.36-3.29-5a84.71,84.71,0,0,0-7.68-9.42,86.3,86.3,0,0,0-37.63-23.49,83.07,83.07,0,0,0-14.44-3.09c-1.77-.25-3.17-.36-4.12-.42l-1.46-.11Z"/><path class="cls-1" d="M80.59,35.53l1.69-.77c1.09-.53,2.76-1.16,4.86-2a81.16,81.16,0,0,1,18.2-4.42c1.92-.29,3.94-.39,6-.55s4.25-.17,6.47-.06a79.47,79.47,0,0,1,13.89,1.52A82.41,82.41,0,0,1,159.8,40.5,82.34,82.34,0,0,1,194,84.58a81.85,81.85,0,0,1,3.7,18.36c.09,1.12.16,2.13.22,3s.05,1.63.06,2.23c0,1.21.05,1.86.05,1.86h1.16l-.05-1.88c0-.62,0-1.38,0-2.27s-.14-1.91-.23-3a83.22,83.22,0,0,0-16-42.43A83.64,83.64,0,0,0,132,28.12a81.92,81.92,0,0,0-14.09-1.55c-2.25-.1-4.44,0-6.57.06s-4.16.28-6.11.57a82.17,82.17,0,0,0-18.45,4.48c-2.14.84-3.82,1.48-4.93,2l-1.72.78Z"/></g><path class="cls-1" d="M80.71,14.74l-4.93,2a109.4,109.4,0,0,0-12.46,6.39A101.1,101.1,0,0,0,32.48,52c-1.16,1.55-2.13,3.23-3.19,4.84s-1.94,3.32-2.89,5-1.77,3.36-2.54,5-1.59,3.35-2.21,5.06a101.49,101.49,0,0,0-5.61,19,105.51,105.51,0,0,0-1.71,13.9c-.09,3.39-.14,5.32-.14,5.32H17.1s0-1.88.14-5.17a102.77,102.77,0,0,1,1.65-13.5A99.05,99.05,0,0,1,24.34,73c.6-1.65,1.43-3.25,2.15-4.91s1.64-3.25,2.46-4.9,1.82-3.24,2.81-4.83,2-3.19,3.1-4.69a98.62,98.62,0,0,1,30-28,105.27,105.27,0,0,1,12.1-6.2l4.79-1.92Z"/><g class="cls-2"><path class="cls-1" d="M216.79,101.38s0-.48-.11-1.39-.27-2.22-.48-3.9-.6-3.69-1-6c-.22-1.16-.54-2.38-.82-3.67-.16-.64-.29-1.3-.47-2l-.58-2a101.54,101.54,0,0,0-19.7-37.33,104.06,104.06,0,0,0-16.38-15.68A99.32,99.32,0,0,0,160.45,19c-1.28-.68-2.58-1.19-3.77-1.76s-2.36-1-3.46-1.45-2.11-.86-3.08-1.18l-2.65-.9c-1.59-.57-2.88-.9-3.75-1.15l-1.34-.38-.76,2.8,1.3.37c.84.24,2.09.56,3.64,1.12l2.58.87c.93.32,1.92.75,3,1.15s2.2.86,3.36,1.41,2.42,1,3.67,1.7A96.54,96.54,0,0,1,175.5,31.69a101.67,101.67,0,0,1,15.91,15.23A99,99,0,0,1,203.53,65.3a97.28,97.28,0,0,1,7,17.88c.19.68.38,1.34.57,2s.3,1.3.45,1.92c.28,1.25.59,2.43.8,3.55.37,2.26.81,4.21,1,5.85s.39,2.91.47,3.79.1,1.34.1,1.34Z"/></g><g class="cls-5"><path class="cls-1" d="M14.19,110s.05,1.94.14,5.32A105.51,105.51,0,0,0,16,129.26a101.49,101.49,0,0,0,5.61,19c.62,1.71,1.47,3.35,2.21,5.06s1.69,3.35,2.54,5.05,1.87,3.33,2.89,5,2,3.28,3.19,4.83A101.1,101.1,0,0,0,63.32,197a107.77,107.77,0,0,0,12.46,6.39l4.93,2,1-2.73-4.79-1.91a105.62,105.62,0,0,1-12.1-6.21,98.29,98.29,0,0,1-30-28c-1.12-1.5-2.07-3.13-3.1-4.69S29.88,158.54,29,157s-1.71-3.26-2.46-4.91-1.55-3.25-2.15-4.91a99,99,0,0,1-5.45-18.41,102.89,102.89,0,0,1-1.65-13.51c-.09-3.29-.14-5.17-.14-5.17Z"/></g><path class="cls-1" d="M9.32,101.61l-.1,1.31c-.06.79-.15,1.84-.15,2.9L9,110h3.78l.1-4.07c0-1,.09-2,.16-2.8l.09-1.27Z"/><g class="cls-2"><path class="cls-1" d="M37.92,37l-.91.95c-.55.57-1.22,1.39-1.92,2.18s-1.39,1.59-1.89,2.2l-.82,1,2.95,2.36.79-1c.48-.59,1.16-1.35,1.83-2.12s1.31-1.56,1.84-2.1l.88-.92Z"/></g><g class="cls-2"><path class="cls-1" d="M65.83,15.68l-1.17.61-2.52,1.45c-1.85,1-3.61,2.19-3.61,2.19l2,3.19S62.25,22,64,21l2.43-1.39L67.59,19Z"/></g><path class="cls-1" d="M135.73,5.22s-2.08-.39-4.16-.72L127.38,4,127,7.72l4,.51c2,.33,4,.7,4,.7Z"/><g class="cls-2"><path class="cls-1" d="M168.65,17.4l-1.14-.66c-.68-.41-1.62-.89-2.56-1.37l-2.58-1.32a12.52,12.52,0,0,0-1.19-.56l-1.62,3.41a12.15,12.15,0,0,1,1.15.55l2.5,1.27c.9.46,1.81.93,2.46,1.32l1.11.64Z"/></g><path class="cls-1" d="M214.94,70.82l-.48-1.23c-.28-.74-.7-1.71-1.15-2.67s-.87-1.92-1.19-2.64c-.16-.37-.3-.66-.41-.87l-.17-.32-3.39,1.66.16.32c.11.19.24.48.4.83l1.15,2.55c.43.92.84,1.86,1.1,2.57l.47,1.19Z"/><path class="cls-1" d="M222.29,105.15s0-.53-.07-1.32l-.22-2.89c-.07-1.06-.15-2.11-.27-2.89s-.17-1.31-.17-1.31l-3.75.46s.06.51.16,1.27.19,1.77.27,2.78.15,2,.21,2.8.07,1.27.07,1.27Z"/><g class="cls-2"><path class="cls-1" d="M202,172.84s1.24-1.71,2.43-3.46l2.28-3.55-3.22-2-2.2,3.43c-1.15,1.68-2.35,3.33-2.35,3.33Z"/></g><path class="cls-1" d="M10.87,83.12s-.38,1.66-1,4.14C9.59,88.5,9.4,90,9.1,91.54s-.53,3.25-.73,4.94c-.11.84-.22,1.69-.32,2.52s-.13,1.65-.19,2.45c-.11,1.59-.26,3.07-.26,4.34L7.49,110H5.09s0-1.74.11-4.34c0-1.3.15-2.82.26-4.44.07-.81.13-1.65.2-2.51S5.87,97,6,96.18c.21-1.72.43-3.45.75-5.05s.51-3.11.83-4.37l1-4.23Z"/><g class="cls-2"><path class="cls-1" d="M67.87,13l-3.78,1.94-3.78,2.17c-1.38.79-2.78,1.76-4.22,2.66-2.83,1.88-5.58,3.88-7.56,5.49-1,.79-1.84,1.44-2.39,1.94l-.89.77-1.56-1.83.9-.78c.56-.51,1.42-1.18,2.45-2,2-1.64,4.83-3.69,7.72-5.62,1.48-.92,2.91-1.91,4.32-2.72l3.86-2.22,3.87-2Z"/></g><path class="cls-1" d="M158.22,10.54A115.52,115.52,0,0,0,145.41,6L143,5.32c-.81-.21-1.62-.38-2.39-.57-1.56-.34-3-.73-4.26-.92l-4.18-.74L132.5.71l4.28.76c1.28.2,2.76.59,4.35.94.79.19,1.61.36,2.44.58l2.5.71a117.93,117.93,0,0,1,13.1,4.63Z"/><path class="cls-1" d="M218.91,77.53l-1.36-4c-.89-2.39-2.1-5.57-3.55-8.64-.67-1.57-1.47-3.07-2.2-4.49-.36-.71-.72-1.39-1.05-2s-.71-1.23-1-1.79l-1.54-2.66-.63-1,2-1.27.65,1,1.57,2.72c.32.57.68,1.18,1.05,1.83l1.08,2.09c.74,1.45,1.55,3,2.24,4.58,1.48,3.14,2.72,6.4,3.63,8.84l1.39,4.12Z"/><g class="cls-2"><path class="cls-1" d="M207.55,167.19l.63-1,1.54-2.67,1-1.79c.33-.65.69-1.33,1.05-2,.73-1.42,1.53-2.92,2.2-4.48,1.45-3.08,2.66-6.26,3.55-8.65s1.36-4,1.36-4l2.29.73s-.56,1.64-1.39,4.11-2.15,5.7-3.63,8.84c-.69,1.6-1.5,3.14-2.24,4.59-.38.72-.74,1.42-1.08,2.08s-.73,1.26-1.05,1.83l-1.57,2.73-.65,1Z"/></g><path class="cls-1" d="M132.14,217l4.18-.75c1.26-.19,2.7-.57,4.26-.92.77-.18,1.58-.35,2.39-.56l2.44-.7a116.64,116.64,0,0,0,12.81-4.52l.95,2.21a119.05,119.05,0,0,1-13.1,4.62l-2.5.71c-.83.22-1.65.39-2.44.58-1.59.35-3.07.74-4.35.94l-4.28.76Z"/><path class="cls-1" d="M45.25,192.14l.89.76c.55.5,1.39,1.15,2.39,1.94,2,1.61,4.73,3.61,7.56,5.5,1.44.9,2.84,1.86,4.22,2.66l3.78,2.17,3.78,1.94-1.06,2.15-3.87-2-3.86-2.22c-1.41-.81-2.84-1.8-4.32-2.72-2.89-1.93-5.7-4-7.72-5.62-1-.8-1.89-1.47-2.45-2l-.9-.78Z"/><path class="cls-1" d="M7.49,110s0,1.7.11,4.25c0,1.28.15,2.76.26,4.35.06.79.12,1.61.19,2.45s.21,1.67.32,2.51c.2,1.69.42,3.38.73,4.94s.49,3,.81,4.28c.58,2.48,1,4.14,1,4.14l-2.33.6s-.39-1.7-1-4.24c-.32-1.26-.52-2.77-.83-4.37s-.54-3.32-.75-5c-.11-.86-.22-1.72-.32-2.57s-.13-1.69-.2-2.51c-.11-1.62-.26-3.13-.26-4.44-.07-2.6-.11-4.34-.11-4.34Z"/><g class="cls-2"><path class="cls-1" d="M45,22.33l-.88.7-2.42,2.08L40,26.6,38,28.45c-.69.67-1.44,1.36-2.2,2.12L33.48,33A114.21,114.21,0,0,0,14,61.41a113,113,0,0,0-9.91,33c-.3,2.34-.59,4.48-.7,6.39s-.3,3.57-.3,5L3,110H4.17s0-1.55.1-4.27c0-1.36.16-3,.3-4.9s.39-4,.69-6.32A110.75,110.75,0,0,1,34.33,33.81c.8-.85,1.57-1.65,2.31-2.42s1.49-1.44,2.17-2.1l1.92-1.82L42.43,26l2.39-2.06.88-.69Z"/><path class="cls-1" d="M80,0,78.42.52c-1,.35-2.5.82-4.34,1.57L71,3.3c-1.11.46-2.28,1-3.55,1.58l-2,.89-2,1c-1.38.72-2.86,1.42-4.32,2.3A116.55,116.55,0,0,0,22.12,42,114.5,114.5,0,0,0,2.22,87.47,121.49,121.49,0,0,0,.17,103.8C.06,107.77,0,110,0,110H1.16s.06-2.24.17-6.18a120.23,120.23,0,0,1,2-16.16,113.19,113.19,0,0,1,19.7-45A115.39,115.39,0,0,1,59.75,10.11C61.2,9.24,62.66,8.55,64,7.84l2-1L68,5.94c1.25-.56,2.41-1.11,3.51-1.56l3-1.2c1.82-.75,3.3-1.21,4.3-1.56l1.53-.51Z"/></g><path class="cls-1" d="M108.54,224.32l-1.93-.14-2.32-.18c-.91-.09-2-.24-3.13-.38A110.17,110.17,0,0,1,82,219.53a114.29,114.29,0,0,1-49.8-31.09A109.26,109.26,0,0,1,22.07,176c-1.59-2.14-2.93-4.41-4.35-6.59s-2.65-4.46-3.75-6.73a118,118,0,0,1-5.9-13.35,120.79,120.79,0,0,1-3.74-12.52,112,112,0,0,1-2.9-19.33c-.11-1.18-.15-2.23-.16-3.14s0-1.7-.06-2.33L1.16,110H0s0,.68.05,2c0,.64,0,1.42.06,2.35s.05,2,.16,3.18A113.8,113.8,0,0,0,3.2,137.05,120.87,120.87,0,0,0,7,149.7a117.79,117.79,0,0,0,6,13.48c1.11,2.3,2.49,4.51,3.78,6.8,1.44,2.21,2.8,4.5,4.4,6.66a110.51,110.51,0,0,0,10.27,12.59A115.54,115.54,0,0,0,81.7,220.64,110.32,110.32,0,0,0,101,224.77c1.19.15,2.24.3,3.16.39l2.35.18,2,.14Z"/><path class="cls-1" d="M163.22,210.93l-2.29,1c-1.48.72-3.74,1.58-6.59,2.7-1.44.53-3.06,1.05-4.81,1.65s-3.69,1.07-5.74,1.67a115.2,115.2,0,0,1-14.09,2.67c-2.6.39-5.34.52-8.16.75-2.83.07-5.76.22-8.77.08A107.93,107.93,0,0,1,94,219.43,111.3,111.3,0,0,1,4.61,119.66q-.18-2.3-.3-4.08c0-1.19-.06-2.2-.08-3,0-1.64-.06-2.52-.06-2.52H3l.07,2.54c0,.83,0,1.85.07,3.06s.19,2.58.31,4.12A112.19,112.19,0,0,0,25.06,177a113,113,0,0,0,68.68,43.57,109.35,109.35,0,0,0,19,2.08c3,.14,6,0,8.86-.08,2.85-.23,5.62-.37,8.25-.76a113.37,113.37,0,0,0,14.23-2.7c2.07-.6,4-1.11,5.81-1.68s3.4-1.14,4.85-1.67c2.89-1.13,5.16-2,6.66-2.73l2.32-1Z"/><path class="cls-1" d="M115.69,69.93a10.37,10.37,0,1,1,10.37-10.37A10.38,10.38,0,0,1,115.69,69.93Zm0-20.16a9.79,9.79,0,1,0,9.78,9.79A9.8,9.8,0,0,0,115.69,49.77Z"/><path class="cls-1" d="M80,156.1a10.36,10.36,0,1,1,7.33-3A10.29,10.29,0,0,1,80,156.1ZM80,136a9.79,9.79,0,1,0,6.92,2.87A9.73,9.73,0,0,0,80,136Z"/><path class="cls-1" d="M151.38,156.1a10.36,10.36,0,1,1,7.33-3A10.3,10.3,0,0,1,151.38,156.1Zm0-20.15a9.8,9.8,0,1,0,6.92,2.87A9.73,9.73,0,0,0,151.38,136Z"/></g></g></svg>