<svg xmlns="http://www.w3.org/2000/svg" viewBox="0 0 473.3 412.12"><defs><style>.cls-1{opacity:0.8;}.cls-2{fill:#5fffe8;}</style></defs><title>资源 14</title><g id="图层_2" data-name="图层 2"><g id="央铋_1" data-name="央铋 1"><g class="cls-1"><rect class="cls-2" x="226.9" y="75.83" width="1.91" height="9.91" transform="translate(-2.41 7.15) rotate(-1.79)"/><polygon class="cls-2" points="218.62 86.74 216.72 87 215.38 77.19 217.26 76.92 218.62 86.74"/><rect class="cls-2" x="205.36" y="79.31" width="1.91" height="9.91" transform="translate(-14.1 51.35) rotate(-13.72)"/><polygon class="cls-2" points="198.52 92 196.72 92.65 193.36 83.33 195.16 82.67 198.52 92"/><polygon class="cls-2" points="189 96.18 187.28 97.02 182.96 88.09 184.68 87.26 189 96.18"/><rect class="cls-2" x="175.58" y="92.67" width="1.91" height="9.91" transform="translate(-24.93 107.93) rotate(-31.87)"/><rect class="cls-2" x="166.76" y="99.11" width="1.91" height="9.91" transform="translate(-28.57 124.85) rotate(-37.86)"/><polygon class="cls-2" points="163.74 114.31 162.36 115.63 155.5 108.49 156.87 107.16 163.74 114.31"/><polygon class="cls-2" points="156.74 122.01 155.51 123.46 147.93 117.08 149.16 115.61 156.74 122.01"/><polygon class="cls-2" points="150.57 130.38 149.5 131.96 141.3 126.4 142.37 124.82 150.57 130.38"/><polygon class="cls-2" points="145.33 139.36 144.42 141.05 135.69 136.37 136.58 134.68 145.33 139.36"/><polygon class="cls-2" points="141.04 148.85 140.31 150.61 131.14 146.88 131.86 145.1 141.04 148.85"/><polygon class="cls-2" points="137.77 158.72 137.24 160.55 127.72 157.8 128.25 155.96 137.77 158.72"/><polygon class="cls-2" points="135.55 168.88 135.22 170.76 125.46 169.01 125.79 167.13 135.55 168.88"/><rect class="cls-2" x="128.44" y="174.85" width="1.91" height="9.91" transform="translate(-59.32 295.84) rotate(-85.85)"/><polygon class="cls-2" points="134.35 189.62 134.41 191.53 124.5 191.85 124.44 189.94 134.35 189.62"/><rect class="cls-2" x="125.64" y="200.63" width="9.91" height="1.91" transform="translate(-26 19.46) rotate(-7.75)"/><rect class="cls-2" x="127.94" y="211.31" width="9.91" height="1.91" transform="translate(-46.79 37.82) rotate(-13.8)"/><polygon class="cls-2" points="140.64 220.07 141.28 221.86 131.96 225.23 131.31 223.44 140.64 220.07"/><rect class="cls-2" x="135.81" y="231.66" width="9.92" height="1.91" transform="translate(-87.39 84.73) rotate(-25.87)"/><polygon class="cls-2" points="149.97 238.63 150.97 240.25 142.55 245.48 141.54 243.86 149.97 238.63"/><polygon class="cls-2" points="156.03 247.08 157.2 248.59 149.38 254.67 148.2 253.16 156.03 247.08"/><polygon class="cls-2" points="162.95 254.85 164.27 256.23 157.12 263.1 155.8 261.71 162.95 254.85"/><rect class="cls-2" x="163.22" y="265.3" width="9.91" height="1.91" transform="translate(-143.72 222.66) rotate(-49.77)"/><rect class="cls-2" x="172.07" y="271.7" width="9.91" height="1.91" transform="translate(-147.99 266.15) rotate(-55.86)"/><polygon class="cls-2" points="188 273.27 189.68 274.17 185.01 282.91 183.32 282 188 273.27"/><rect class="cls-2" x="191.54" y="281.54" width="9.91" height="1.91" transform="translate(-139.23 358.03) rotate(-67.86)"/><polygon class="cls-2" points="207.35 280.82 209.18 281.35 206.43 290.87 204.59 290.34 207.35 280.82"/><rect class="cls-2" x="212.62" y="287.13" width="9.91" height="1.91" transform="translate(-104.45 451.28) rotate(-79.81)"/><rect class="cls-2" x="223.49" y="288.24" width="9.91" height="1.91" transform="translate(-76.56 496.07) rotate(-85.84)"/><polygon class="cls-2" points="238.25 284.24 240.16 284.18 240.48 294.09 238.57 294.16 238.25 284.24"/><polygon class="cls-2" points="248.6 283.22 250.5 282.95 251.85 292.77 249.95 293.03 248.6 283.22"/><rect class="cls-2" x="259.95" y="280.74" width="1.91" height="9.91" transform="translate(-60.61 70.48) rotate(-13.8)"/><polygon class="cls-2" points="268.7 277.95 270.49 277.3 273.86 286.62 272.06 287.28 268.7 277.95"/><rect class="cls-2" x="280.29" y="272.86" width="1.91" height="9.91" transform="translate(-92.95 150.29) rotate(-25.83)"/><polygon class="cls-2" points="287.26 268.63 288.88 267.62 294.12 276.03 292.49 277.05 287.26 268.63"/><polygon class="cls-2" points="295.71 262.56 297.22 261.39 303.3 269.21 301.8 270.39 295.71 262.56"/><polygon class="cls-2" points="303.48 255.64 304.86 254.32 311.73 261.47 310.35 262.8 303.48 255.64"/><polygon class="cls-2" points="310.49 247.95 311.72 246.49 319.29 252.88 318.06 254.34 310.49 247.95"/><rect class="cls-2" x="320.33" y="236.6" width="1.91" height="9.92" transform="translate(-58.95 371.95) rotate(-55.87)"/><polygon class="cls-2" points="321.9 230.59 322.8 228.91 331.54 233.59 330.64 235.28 321.9 230.59"/><polygon class="cls-2" points="326.19 221.11 326.9 219.34 336.08 223.08 335.37 224.86 326.19 221.11"/><polygon class="cls-2" points="329.45 211.24 329.98 209.41 339.51 212.16 338.97 214 329.45 211.24"/><rect class="cls-2" x="335.76" y="196.06" width="1.91" height="9.91" transform="translate(79.41 496.94) rotate(-79.83)"/><polygon class="cls-2" points="332.81 190.74 332.96 188.84 342.84 189.55 342.71 191.46 332.81 190.74"/><polygon class="cls-2" points="332.88 180.34 332.82 178.43 342.72 178.11 342.79 180.02 332.88 180.34"/><polygon class="cls-2" points="331.85 169.99 331.59 168.1 341.4 166.74 341.67 168.64 331.85 169.99"/><polygon class="cls-2" points="329.74 159.81 329.29 157.95 338.91 155.57 339.37 157.43 329.74 159.81"/><polygon class="cls-2" points="326.58 149.89 325.94 148.1 335.26 144.73 335.92 146.53 326.58 149.89"/><rect class="cls-2" x="321.5" y="136.39" width="9.92" height="1.91" transform="translate(-27.22 156.09) rotate(-25.85)"/><polygon class="cls-2" points="317.26 131.33 316.25 129.71 324.67 124.47 325.68 126.1 317.26 131.33"/><rect class="cls-2" x="309.56" y="118.13" width="9.91" height="1.91" transform="translate(-6.97 217.8) rotate(-37.81)"/><rect class="cls-2" x="302.24" y="110.03" width="9.91" height="1.91" transform="translate(8.81 243.85) rotate(-43.87)"/><rect class="cls-2" x="294.1" y="102.75" width="9.91" height="1.91" transform="translate(26.91 265.34) rotate(-49.83)"/><rect class="cls-2" x="285.24" y="96.35" width="9.91" height="1.92" transform="translate(46.64 282.68) rotate(-55.81)"/><polygon class="cls-2" points="279.22 96.69 277.55 95.79 282.22 87.05 283.91 87.95 279.22 96.69"/><polygon class="cls-2" points="269.75 92.41 267.99 91.69 271.72 82.51 273.49 83.22 269.75 92.41"/><polygon class="cls-2" points="259.88 89.14 258.04 88.6 260.79 79.09 262.64 79.61 259.88 89.14"/><polygon class="cls-2" points="249.71 86.92 247.83 86.58 249.58 76.83 251.47 77.16 249.71 86.92"/><rect class="cls-2" x="233.83" y="79.81" width="9.91" height="1.91" transform="translate(141.28 313.21) rotate(-85.93)"/><rect class="cls-2" x="230.3" y="65.85" width="1.9" height="19.69"/><rect class="cls-2" x="218.91" y="66.55" width="1.9" height="19.69" transform="translate(-6.76 23.31) rotate(-5.98)"/><polygon class="cls-2" points="211.58 87.72 209.72 88.11 205.63 68.84 207.49 68.45 211.58 87.72"/><rect class="cls-2" x="196.66" y="71.48" width="1.9" height="19.69" transform="translate(-15.48 65.29) rotate(-18.07)"/><rect class="cls-2" x="186.04" y="75.66" width="1.9" height="19.69" transform="translate(-18.61 83.32) rotate(-23.96)"/><rect class="cls-2" x="175.92" y="80.93" width="1.89" height="19.69" transform="translate(-21.71 100.15) rotate(-29.87)"/><rect class="cls-2" x="166.41" y="87.23" width="1.89" height="19.69" transform="translate(-25.13 116.62) rotate(-35.91)"/><rect class="cls-2" x="157.6" y="94.49" width="1.89" height="19.69" transform="translate(-29.07 133.03) rotate(-42.04)"/><polygon class="cls-2" points="158.5 118.36 157.23 119.77 142.6 106.59 143.87 105.18 158.5 118.36"/><polygon class="cls-2" points="151.97 126.42 150.86 127.95 134.93 116.38 136.04 114.85 151.97 126.42"/><rect class="cls-2" x="136.36" y="121.18" width="1.9" height="19.69" transform="matrix(0.5, -0.87, 0.87, 0.5, -44.85, 184.31)"/><polygon class="cls-2" points="141.6 144.37 140.83 146.1 122.84 138.1 123.62 136.37 141.6 144.37"/><rect class="cls-2" x="127.28" y="142.08" width="1.9" height="19.69" transform="translate(-55.87 226.97) rotate(-72.01)"/><rect class="cls-2" x="124.42" y="153.12" width="1.9" height="19.69" transform="translate(-60.18 251.56) rotate(-77.95)"/><polygon class="cls-2" points="133.57 174.34 133.38 176.22 113.79 174.16 113.99 172.29 133.57 174.34"/><rect class="cls-2" x="122.23" y="175.81" width="1.9" height="19.69" transform="translate(-62.89 308.21) rotate(-89.81)"/><rect class="cls-2" x="114.04" y="196.1" width="19.69" height="1.9" transform="translate(-19.85 13.98) rotate(-5.98)"/><polygon class="cls-2" points="135.2 205.32 135.59 207.18 116.33 211.27 115.93 209.42 135.2 205.32"/><rect class="cls-2" x="118.96" y="218.35" width="19.69" height="1.9" transform="translate(-61.64 50.74) rotate(-18.06)"/><polygon class="cls-2" points="141.6 225.04 142.37 226.77 124.38 234.78 123.61 233.05 141.6 225.04"/><rect class="cls-2" x="128.41" y="239.09" width="19.69" height="1.89" transform="translate(-101.17 100.74) rotate(-29.87)"/><polygon class="cls-2" points="151.97 243 153.08 244.53 137.15 256.1 136.04 254.57 151.97 243"/><rect class="cls-2" x="141.97" y="257.41" width="19.69" height="1.9" transform="translate(-133.73 167.48) rotate(-41.91)"/><rect class="cls-2" x="150.11" y="265.4" width="19.69" height="1.9" transform="translate(-144.82 206.02) rotate(-47.82)"/><polygon class="cls-2" points="173.9 264.94 175.43 266.05 163.87 281.98 162.33 280.87 173.9 264.94"/><rect class="cls-2" x="168.66" y="278.64" width="19.69" height="1.9" transform="translate(-152.89 294.01) rotate(-59.94)"/><rect class="cls-2" x="178.87" y="283.73" width="19.69" height="1.9" transform="translate(-148.14 341.09) rotate(-65.97)"/><polygon class="cls-2" points="201.54 279.02 203.35 279.61 197.27 298.34 195.46 297.75 201.54 279.02"/><polygon class="cls-2" points="211.57 281.7 213.42 282.11 209.34 301.37 207.48 300.97 211.57 281.7"/><polygon class="cls-2" points="221.83 283.33 223.71 283.53 221.66 303.12 219.77 302.91 221.83 283.33"/><rect class="cls-2" x="223.29" y="292.77" width="19.69" height="1.9" transform="translate(-61.37 525.86) rotate(-89.81)"/><polygon class="cls-2" points="242.55 283.33 244.44 283.14 246.5 302.72 244.61 302.91 242.55 283.33"/><polygon class="cls-2" points="252.81 281.7 254.66 281.32 258.76 300.58 256.9 300.97 252.81 281.7"/><polygon class="cls-2" points="262.83 279.02 264.64 278.44 270.73 297.17 268.92 297.75 262.83 279.02"/><polygon class="cls-2" points="272.52 275.3 274.26 274.54 282.27 292.52 280.53 293.29 272.52 275.3"/><polygon class="cls-2" points="281.77 270.59 283.42 269.65 293.27 286.7 291.62 287.64 281.77 270.59"/><polygon class="cls-2" points="290.47 264.94 292.01 263.83 303.59 279.76 302.05 280.87 290.47 264.94"/><polygon class="cls-2" points="298.54 258.4 299.95 257.14 313.13 271.77 311.72 273.04 298.54 258.4"/><polygon class="cls-2" points="305.88 251.06 307.16 249.66 321.79 262.83 320.51 264.24 305.88 251.06"/><polygon class="cls-2" points="312.41 243 313.53 241.47 329.47 253.04 328.34 254.57 312.41 243"/><polygon class="cls-2" points="318.07 234.29 319.02 232.66 336.08 242.5 335.12 244.14 318.07 234.29"/><polygon class="cls-2" points="322.78 225.05 323.56 223.32 341.54 231.32 340.77 233.06 322.78 225.05"/><polygon class="cls-2" points="326.5 215.36 327.09 213.56 345.82 219.63 345.23 221.44 326.5 215.36"/><polygon class="cls-2" points="329.19 205.33 329.58 203.48 348.85 207.57 348.45 209.43 329.19 205.33"/><polygon class="cls-2" points="330.81 195.08 331.02 193.2 350.6 195.25 350.4 197.13 330.81 195.08"/><polygon class="cls-2" points="331.36 184.72 331.36 182.82 351.05 182.82 351.04 184.72 331.36 184.72"/><rect class="cls-2" x="330.66" y="171.43" width="19.69" height="1.89" transform="translate(-15.73 35.44) rotate(-5.82)"/><polygon class="cls-2" points="329.19 164.1 328.8 162.25 348.06 158.14 348.45 160.01 329.19 164.1"/><polygon class="cls-2" points="326.51 154.08 325.92 152.27 344.64 146.18 345.23 147.99 326.51 154.08"/><polygon class="cls-2" points="322.79 144.38 322.02 142.66 340 134.64 340.77 136.37 322.79 144.38"/><polygon class="cls-2" points="318.07 135.13 317.13 133.49 334.18 123.64 335.13 125.29 318.07 135.13"/><rect class="cls-2" x="309.98" y="118.92" width="19.69" height="1.89" transform="translate(-9.61 210.05) rotate(-35.86)"/><polygon class="cls-2" points="305.89 118.36 304.63 116.95 319.25 103.77 320.52 105.19 305.89 118.36"/><rect class="cls-2" x="294.59" y="102.12" width="19.68" height="1.9" transform="translate(24.05 260.19) rotate(-47.97)"/><rect class="cls-2" x="285.66" y="95.02" width="19.69" height="1.89" transform="translate(44.17 278.63) rotate(-54)"/><polygon class="cls-2" points="281.78 98.83 280.14 97.89 289.98 80.83 291.62 81.78 281.78 98.83"/><polygon class="cls-2" points="272.53 94.12 270.81 93.34 278.8 75.36 280.54 76.13 272.53 94.12"/><polygon class="cls-2" points="262.84 90.4 261.05 89.81 267.12 71.09 268.92 71.68 262.84 90.4"/><rect class="cls-2" x="244.09" y="76.94" width="19.69" height="1.9" transform="translate(124.36 309.75) rotate(-77.85)"/><rect class="cls-2" x="232.81" y="75.25" width="19.69" height="1.9" transform="translate(141.44 309.53) rotate(-83.98)"/><path class="cls-2" d="M349.37,56.64,341,49l-9-6.77-3.45,1.17-3.37,1.22a12.14,12.14,0,0,0-1.69-1.09c-1.08-.67-2.65-1.61-4.52-2.74l-6.39-3.9c-2.33-1.44-5.07-2.5-7.66-3.82l-7.73-3.73-7-2.54-6.84-2.53s-1.09.8-2.19,1.75L279,27.87l-5.56-1.41L267.7,25a63.75,63.75,0,0,0-6.64-1.14l-6.67-1a34.56,34.56,0,0,0-5.85-.66l-5.75-.27s-1.7-2.75-3.39-5.51l-3.65-5.52a10.42,10.42,0,0,0-1.09,0l-2.9.16-8.79.45-4.7.22c-1.49.14-2.87.43-4.05.59l-3.95.61s-3.16-3.3-6.59-6.55l-4.8-4.46L196.66,0l-6.32,1.62c-3.76,1.08-8.93,2-13.76,4-4.88,1.85-9.85,3.47-13.43,5l-5.87,2.83s-1,4.64-1.81,9.16l-1,6.16c-.19,1.75-.31,2.91-.31,2.91l-5.07,3.1-5.83,3.54c-2.3,1.3-4.52,3.31-7.16,5.18C125.45,51,112.89,63.12,102.46,76.88,97,83.6,92.82,91.19,88.57,98.08l-5,10.52c-.76,1.69-1.69,3.25-2.25,4.91s-1.17,3.22-1.72,4.75c-1.11,3-2.13,5.82-3,8.29s-1.27,4.75-1.8,6.55c-.94,3.66-1.47,5.75-1.47,5.75s2.47,2.86,5,5.54c1.23,1.35,2.71,2.7,3.7,3.68l1.73,1.63s-.26,1.71-.64,4.28l-.68,4.39a29.21,29.21,0,0,0-.59,5L81,177.29H96.59L97,170.1l.22-4.95c0-.68,0-1.24.06-1.63a4,4,0,0,1,0-.62l-4-3.16-4-3.34s.59-4,1.17-8c.31-2,1-3.89,1.32-5.36s.63-2.43.63-2.43l-2.67-2.87-2.64-3c-.76-.24,8.54-23.92,9-23.69l3.54-.45,3.49-.38,1.57-3.34,4.24-6.92,2.23-3.71,1-1.72,1.09-1.42,2.22-2.94,5.63.47,5.49.62A26.41,26.41,0,0,1,128.49,89l5.34-5.82c1.11-1.19,2.24-2.57,3.55-3.91l4.38-3.92c1.51-1.39,3.06-2.81,4.63-4.27s3.47-2.58,5.19-3.91l5.18-3.92c1.7-1.3,3.62-2.21,5.34-3.32,3.53-2,6.59-4.34,9.64-5.54l7.09-3.42,2-1a3.4,3.4,0,0,1,.72-.29s.37-2.26.75-4.52.87-4.57.87-4.57l3.37-1.24A53.72,53.72,0,0,1,194,36.87L205.12,34s.41.4,1,1.09l2.21,2.47,3.09,3.61L218.7,40c2.16-.52,4.78-.36,7.54-.56L234.9,39l8.66.49c2.76.2,5.38,0,7.54.56l7.26,1.13,2.76-3.23L264,34.71a3.46,3.46,0,0,1,.69.16l1.94.51,6.92,1.8,4.63,1.15,5,1.87,5.35,1.94,2.77,1c.9.37,1.77.86,2.66,1.28l10.44,5L313,54.71c1.26.78,2.47,1.42,3.46,2.1L319,58.7c1.39,1,2.17,1.64,2.17,1.64l-.38,4.19c-.24,2.06-.47,4.13-.47,4.13l1.62,1.18a41.33,41.33,0,0,1,4,3.49l5.55,5a23.53,23.53,0,0,1,3,3c1,1.07,1.94,2.15,2.91,3.24l3,3.21,1.46,1.56c.41.58.82,1.14,1.22,1.69,1.64,2.19,3.16,4.25,4.47,6a34,34,0,0,1,3.06,4.31l1,1.72,13.92-8.88-.66-1.1c-.46-.69-1-1.77-1.82-2.9l-6.22-8.29A71.69,71.69,0,0,0,350,74l-3.17-3.5s.84-3.46,1.52-7S349.37,56.64,349.37,56.64Z"/><path class="cls-2" d="M180,345.29l-4.7-1.72c-2.8-1.08-6.62-2.3-10.29-3.89l-14.43-6.95s-.29-2.44-.59-4.87l-.48-4.81-3.3-2c-1.93-1.26-4.7-2.66-7.15-4.52l-9.87-7.38-2.25.63a16.94,16.94,0,0,1-2-1.72l-4.34-3.95-6.33-5.73.18-1.14c.11-.57.21-1.15.21-1.15l-7.75-8.55-5.33,4.59s-.51,2.67-1,5.34-.93,5.45-.93,5.45l2.55,2.82,1.76,1.93a5.56,5.56,0,0,0,.86.83l4.18-.61,5.21,4.73-.36,6.25a42.89,42.89,0,0,0,5.05,4.18l5.26,3.93.23,5.25,2.23,1.67a44.43,44.43,0,0,0,5.13,3.36c3.81,2.33,7.63,4.64,7.63,4.64s.31,2.71.63,5.41c.18,1.36.37,2.73.51,3.75s.29,1.65.29,1.65l9.72,4.7,6.7,3.21,3.15,1.19,4.18-3c2-1.55,4.06-3.09,4.06-3.09l9,3.31c4.63,1.33,9.32,2.47,9.32,2.47l2-1.46s10,2.67,10.06,2.37l5.1-4.57,4.52.69,4.63.71a32.84,32.84,0,0,0,5.34.56l14.61.74s.35.48.88,1.17,1.24,1.61,2,2.46l2.94,3.45L251.1,367a59.84,59.84,0,0,0,8.3-.93l3.76-.57,2.62,4.76,2.71,4.76,4.85-.76c2.92-.35,6.68-1.58,10.5-2.47L294.29,369l4.61-1.64,2.39-6.31,2.18-6.24,5.71-2.11,5.5-2.64,1-4.22,8-3.87c3.84-2.23,7.63-4.58,7.62-4.58l.68-5.57,3.88-2.37a20.84,20.84,0,0,0,2.58-1.76l1.14-.85,4.72,1.33,4.82,1.24,2.28-1.7-13.12-16.92-3.44,2.57-3.52,2.65-2,1.49-2.19,1.32L315.4,326l-.52,3.36-10.26,4.94a52.69,52.69,0,0,1-7.23,3L294,338.51l-2,6.45-2.2,6.54s-.3.12-.83.28l-2.25.58L280,354.1l-6.8,1.75a15.16,15.16,0,0,1-2.25.5l-.87.13s-3.28-2.93-6.35-5.89-5.95-6-5.95-6l-3,.46a53.12,53.12,0,0,1-8,.66c-3.31.18-7.18.37-11.32.58-4.14-.1-8.56-.41-13-.6a89.76,89.76,0,0,1-12.88-1.47l-5.91-.9L201,343l-2.5-.65-10.7-2.75-3.83,3C182,344,180,345.29,180,345.29Z"/><path class="cls-2" d="M0,182.15l.61,12.42,3.05,2.65.25,4c.35,2.37.81,5.54,1.27,8.71l2,12.66-3.29-2.31.4,2.52a53.67,53.67,0,0,0,1.2,5.48c1,4,2,7.94,2,7.94l5.11,3L17.67,242c-.35.11,4.55,13.31,4.55,13.31l-2.41,5.12L22.26,267c1.8,3.77,4.2,8.82,6.61,13.86,1.25,2.49,2.38,5.05,3.67,7.33s2.6,4.33,3.68,6.12c2.17,3.58,3.63,6,3.63,6l-1.4,6.08.75,1.2a30.73,30.73,0,0,0,2.1,3.07c1.85,2.47,4.3,5.77,6.75,9.07s4.83,6.67,7,8.89l3.43,3.82.38,7.38,3.12,3.42c1,1,2,2.21,3.23,3.48l4,3.71,11,9.94,3.28-.21c1.64-.11,3.34-.33,3.34-.33L95.05,366l8.61,6.33,10.45,6.42c3.6,2.1,7.07,4.44,10.6,6.15l9.62,4.68,6.84,3.25c1.65.79,2.61,1.19,2.61,1.19l2.72-1.17,11.8,4.35,3-1.47c-.28.89,34.32,9.46,34.46,8.64l3.69,5.1,4.49.67a92.55,92.55,0,0,0,9.9,1.19l14.47.76.23-8.3-4.79-5.46-10.64-.58c-2.66-.24-5.29-.72-7.27-1l-3.31-.49-2.84-6.13-5.14-.81c-3.11-.33-7.11-1.53-11.15-2.51L172.36,384a28.75,28.75,0,0,1-3.6-1.13l-1.34-.48-3.36,1.77-3.42,1.75-9.06-3.33a54.71,54.71,0,0,1-6.11-2.6l-2.72-1.3-5.9,2.24-5.28-2.55c-1.56-.8-3.46-1.6-5.35-2.72l-5.9-3.54-11-6.72c-1.51-.89-2.62-1.86-3.46-2.44l-1.29-1-.84-6.32-9.91-7.48-9.21-8.31L86.45,333l-3.52-3.23c-2-2.06-4.53-4.91-7.11-7.72s-5.11-5.67-7-7.79l-2.88-3.81-4.22-.4-4.28-.46L55,306.43a88.91,88.91,0,0,1-5.93-8.6c-2.25-3.69-4.87-8-7.67-12.63a76.74,76.74,0,0,1-3.87-7.39l-3.74-7.76c-1.19-2.62-2.59-5.16-3.58-7.82l-2.9-7.83-2.67-7.34a55.12,55.12,0,0,1-2.13-6.65l-3.6-14-3.17-1.86c-1.58-.94-3.14-1.92-3.14-1.92s-1.36-8.74-2.7-17.48a95.9,95.9,0,0,1-1.11-12.08c-.17-3.31-.29-5.51-.29-5.51l5-5.19-.22-5.09H4.65Z"/><path class="cls-2" d="M364.53,63.92l1.21,1.32a37,37,0,0,1,3.07,3.6l8.6,11.49c2.82,4.4,5.44,8.91,7.51,12.23a31.2,31.2,0,0,1,2.31,4.13L388,98.3l5.48,1,2.62,5.43c1.76,3.18,3.25,7.78,4.93,12.3l2.44,6.65c.77,2.12,1.14,4.21,1.63,5.95l1.5,5.83-3.54,4.28c.41-.09,2.31,13.28,2.31,13.28l21.2-3s-.31-2-.77-5.07a82.41,82.41,0,0,0-2.16-11.07c-1-4-2-7.95-2.81-10.93-.4-1.49-.68-2.74-1-3.6l-.49-1.32L415,116.4l-4.37-1.53-2.31-6.33c-1.19-3.87-3.77-8.61-6.05-13.49-1.18-2.41-2.3-4.86-3.47-7.09l-3.57-5.9-3.49-5.74,1.48-4.43c.39-1.12.72-2.24.93-3s.37-1.37.37-1.37-2.9-3.87-5.78-7.74l-4-5.32c-1.14-1.4-2-2.27-2-2.26s1-5.5,1.68-11.25,1.22-11.72,1.22-11.71a38,38,0,0,0-3.54-3.48L374,18.35l-4.34-3.91c-1.44-1.18-2.86-2.19-4.05-3.1l-4-3S356.22,9.79,351,11.42s-10.32,3.63-10.32,3.63l-5.85,9a41.11,41.11,0,0,1,5.39,3.7c3.12,2.36,7.35,5.43,11.47,8.64L362.37,46l2,1.79,1.38,1.53,1.21,1.33-1.12,6.72C365.17,60.66,364.53,63.92,364.53,63.92Z"/><path class="cls-2" d="M444.18,189.4s-.19,3.47-.47,8.69c-.64,5.17-1.76,12.06-2.82,18.95l-.42,2.58-.62,2.51c-.43,1.66-.84,3.3-1.25,4.89-.81,3.17-1.58,6.12-2.23,8.65a50.43,50.43,0,0,1-1.79,6.06l-.82,2.26-5.89,2.39-3.08,8.39a47.93,47.93,0,0,1-2.44,5.63l-1.2,2.52s1,2.34,2,4.68l1.93,4.79c.79.43-17.18,30-17.92,29.5,0,0-4.09.45-8.08.74s-7.91.48-7.91.48-.23.29-.63.84a21.12,21.12,0,0,1-1.91,2.28l-7.15,7.87c-1.48,1.62-3.09,3.38-4.8,5.23l-5.85,5.35c-4.09,3.66-8.28,7.78-13.12,11.13l-7,5.24-3.44,2.56-3.56,2.2-12.86,7.79L317.64,360l5.47,12.05,5.19-2.49,5.32-2.58a50.74,50.74,0,0,0,5.95-3.2l10.83-6.58L354,355a8.63,8.63,0,0,0,1.31-.89s3.74.83,7.61,1.55,7.83,1.36,7.83,1.36l5.1-3.84a49.69,49.69,0,0,0,4.91-4.05l5.12.69,5.2.62,6.64-6.07A51,51,0,0,0,402,340l1.9-2.06s-.24-2.67-.47-5.34-.56-5.25-.56-5.25l4.5-5c2.71-3,5.76-7.42,9-11.68l4.69-6.35c1.49-2,2.61-4.11,3.7-5.8l3.5-5.75,7.93,2.13,8,2s.72-1.2,2-3.3,2.7-5.28,4.57-9,3.9-8.2,6.16-12.92c1.92-4.86,3.82-10.13,5.73-15.38.93-2.63,1.94-5.24,2.76-7.86l2.07-7.81c1.29-5.08,2.49-9.82,3.51-13.88.83-4.1,1.27-7.57,1.68-10l.58-3.8s-3.12-5.7-6.35-11c-1.67-2.69-3.59-5.31-4.93-7.24l-2.3-3.19s.32-7,.65-13.95l-.62-13.95L454,158.79c-1.45-1.15-2.89-2.3-4-3.17s-1.91-1.39-1.91-1.39l-1.55-10.38c-.51-3.11-1-6.77-1.75-10.63-1-3.82-2-7.89-3-12-1.8-8.24-5.12-16-7.2-22a73.68,73.68,0,0,0-2.8-7.07l-1.24-2.62L418,95.25s.6,1.25,1.63,3.43,2.07,5.49,3.51,9.37l2.29,6.28,1.23,3.44c.32,1.2.63,2.43,1,3.68,1.28,5,2.64,10.37,4,15.72.83,5.45,1.67,10.91,2.45,16,.19,1.28.37,2.54.55,3.77s.13,2.46.2,3.64c.12,2.37.24,4.6.34,6.67.2,4.12.37,7.57.48,10-.11,2.41-.17,3.79-.17,3.79l4.39,4.09Z"/><path class="cls-2" d="M324.1,290.52,329,292.3c2.47.83,4.91,1.48,4.91,1.48l9.41-8.58,8.56-9.44-6-5.08-6.14,6.73-2.39-.49c-1.45-.33-3.25-.67-5.23-1.25-3.89-1.07-7.6-2.27-7.6-2.27l-4.25,3.89a33.65,33.65,0,0,1-4.6,3.69L310.27,285a42.55,42.55,0,0,1-5.65,3.68l-5,3.07-2,1.25-1.65.76-1.42.67,3.71,7.28,3.19-1.5,3-1.86,4.62,2.45,2.44-1.47a49.43,49.43,0,0,0,5.29-3.37Z"/><path class="cls-2" d="M391.31,173.09l4.31,2.75c.19,0-.16,5.79-.16,5.79l4,3,4,3.17-.28,5.82-1.71,1-1.81,1-1.31,8.51-5.45,2.6s-.17,1.14-.33,2.28a9.85,9.85,0,0,1-.33,1.53l-.18.7L387,212l-1.7,6.59c-.42,1.66-.83,3.31-1.15,4.55a13.2,13.2,0,0,1-.68,2l3.36,4.49-1.1,3,2.7,3.89,2.66,4s-.15.43-.39,1.07a14.39,14.39,0,0,1-1,2.29l-1.58,3.25-3.47.63-1.45,3c-.92,1.77-1.89,4.27-3.28,6.55-2.77,4.56-5.55,9.11-5.55,9.11l-5.85.25-.33.53-1,1.32-3,4-4.37,5.88s.13.43.34,1.08.46,1.53.65,2.36c.43,1.7.84,3.41.84,3.41l-8.41,9.26,3.9,3.86,2.65.33,6.87-7.56,2.53-2.77c.78-.91,1.4-1.84,2-2.6l1.91-2.57-1.4-4.7,3.82-5.09,2.47-.06,2.4-.16,3.58-5.9,3.68-6c1.32-2.22,2.36-4.79,3.6-7.25s2.41-5,3.53-7.31a60.63,60.63,0,0,0,2.59-6.57l2.37-6.47-2.26-3.3-2.29-3.2,3.05-11.87L402,213.8l2.61-1.13,1.15-.54s1.07-7,2.13-14c.72-3.48.58-7.06.8-9.71s.22-4.43.22-4.43l4-2.79,4-2.93a12.49,12.49,0,0,0,0-2.21c-.07-1.34-.16-3.11-.26-4.88-.17-3.56-.35-7.11-.35-7.11l-3.94-1.39c-2-.67-3.93-1.32-3.93-1.32L395,162.56l-4,4Z"/><path class="cls-2" d="M382.6,152.27s-.14-.94-.34-2.33a29.09,29.09,0,0,0-1-5.07c-.94-3.64-1.89-7.28-1.89-7.28l-3.24-1-3.23-.93a13.42,13.42,0,0,0-.41-1.54l-3.3-.75-3.27-.68-.81-2.19,1.76-2.16s-2.6-7.53-2.87-7.41l2.1-3.1L363.28,112l-3.76-.3L357,111.5l-1.19,0L349.29,115a10.83,10.83,0,0,1,.59,1.19l1.49,3.18,2.16,4.47,1.26,2.51c.38.87.64,1.81,1,2.71,1.25,3.66,2.73,7.25,3.64,10l1.15,4.7,3.4.9s.22.86.56,2.15a34.58,34.58,0,0,1,1.13,4.76c.52,3.53,1,7,1,7l-2.76,2.11s.26,1.5.51,3l.12,3-3.5,2.24.48,8.39,3.46,2,13.94.23c.6,0-1.11-24-1.69-23.92Z"/></g></g></g></svg>