<svg xmlns="http://www.w3.org/2000/svg" viewBox="0 0 194.64 245.49"><defs><style>.cls-1{fill:#dadada;}.cls-2{fill:#0263b0;}</style></defs><title>资源 8</title><g id="图层_2" data-name="图层 2"><g id="图层_2-2" data-name="图层 2"><line class="cls-1" x1="179.19" y1="42.19" x2="18.09" y2="203.3"/><line class="cls-1" x1="18.09" y1="42.19" x2="179.19" y2="203.3"/><line class="cls-1" x1="161.59" y1="122.74" x2="35.76" y2="122.74"/><rect class="cls-1" x="35.76" y="122.5" width="125.83" height="0.49"/><line class="cls-1" x1="98.68" x2="98.68" y2="245.49"/><path class="cls-1" d="M51.47,36.55l.69,1.19a95.12,95.12,0,0,1,20.3-8l-.35-1.34A96.89,96.89,0,0,0,51.47,36.55Z"/><path class="cls-1" d="M73.31,215.32a95.43,95.43,0,0,1-19.53-7.38l-.69,1.19A96.25,96.25,0,0,0,73,216.65Z"/><path class="cls-1" d="M31.44,52.67a96.46,96.46,0,0,1,17.34-13l-.69-1.19A97,97,0,0,0,30.46,51.7Z"/><path class="cls-1" d="M49.67,207.31l.69-1.2a95.63,95.63,0,0,1-17.14-12.3l-1,1A97.65,97.65,0,0,0,49.67,207.31Z"/><path class="cls-1" d="M77.08,216.21l-.36,1.34a98.44,98.44,0,0,0,21.08,2.19v-1.38A96.37,96.37,0,0,1,77.08,216.21Z"/><path class="cls-1" d="M101.67,26.57A96.61,96.61,0,0,1,123,30l.36-1.34a98.07,98.07,0,0,0-21.67-3.43Z"/><path class="cls-1" d="M127.05,29.73l-.36,1.33a95.56,95.56,0,0,1,19.63,8.84l.69-1.19A96.36,96.36,0,0,0,127.05,29.73Z"/><path class="cls-1" d="M167,54.52l-.9-.92A98.21,98.21,0,0,0,150.3,40.76L149.61,42a96.31,96.31,0,0,1,15.55,12.63c.31.3.6.61.9.92Z"/><path class="cls-1" d="M76.22,28.81A96.32,96.32,0,0,1,97.8,26.48V25.1a98.22,98.22,0,0,0-21.93,2.38Z"/><path class="cls-1" d="M30.4,191.16c-.31-.3-.62-.59-.92-.9a95.94,95.94,0,0,1-.8-134.87l-1-1a97.31,97.31,0,0,0,.79,136.82l.92.9Z"/><path class="cls-1" d="M168.71,58.32a95.94,95.94,0,0,1-1.64,130l1,1a97.34,97.34,0,0,0,1.65-131.94Z"/><path class="cls-1" d="M122.13,215.12a96.66,96.66,0,0,1-20.46,3.14v1.38a97.59,97.59,0,0,0,20.82-3.19Z"/><path class="cls-1" d="M164.35,191.06a96.14,96.14,0,0,1-16.28,12.81l.69,1.19a97.13,97.13,0,0,0,16.56-13Z"/><path class="cls-1" d="M144.75,205.85a95.46,95.46,0,0,1-18.9,8.19l.36,1.33A96.18,96.18,0,0,0,145.43,207Z"/><path class="cls-2" d="M107.13,138.4H88.89l0-.08L79.77,122.6l0-.08,9.08-15.72h18.24l.05.08,9.07,15.72,0,.08Zm-18.06-.31H107l9-15.49-9-15.49H89.07L80.12,122.6Z"/><path class="cls-1" d="M98,172.31a49.71,49.71,0,1,1,49.71-49.71A49.77,49.77,0,0,1,98,172.31Zm0-99.12a49.41,49.41,0,1,0,49.41,49.41A49.46,49.46,0,0,0,98,73.19Z"/><path class="cls-1" d="M149.56,104.07l4-1.45a58.88,58.88,0,0,0-17.19-24.56l-2.72,3.25A54.49,54.49,0,0,1,149.56,104.07Z"/><path class="cls-1" d="M47.24,141.31A54.08,54.08,0,0,1,44,123.52H39.79a58.46,58.46,0,0,0,3.47,19.24Z"/><path class="cls-1" d="M45.1,98.41l3.83,1.79A54.63,54.63,0,0,1,59.07,85.26l-3-3A58.62,58.62,0,0,0,45.1,98.41Z"/><path class="cls-1" d="M147.31,146.83a54.68,54.68,0,0,1-10.8,14.91l3,3a58.74,58.74,0,0,0,11.65-16.11Z"/><path class="cls-1" d="M48.65,100.82,44.82,99a58.38,58.38,0,0,0-5,23.8H44A54.4,54.4,0,0,1,48.65,100.82Z"/><path class="cls-1" d="M47.47,142l-4,1.45a58.82,58.82,0,0,0,16.93,24.1l2.72-3.25A54.42,54.42,0,0,1,47.47,142Z"/><path class="cls-1" d="M152.87,123.52a54.07,54.07,0,0,1-5.26,22.69l3.84,1.79a58.33,58.33,0,0,0,5.65-24.48Z"/><path class="cls-1" d="M97.32,177.25A54.2,54.2,0,0,1,63.66,164.7l-2.72,3.24a58.4,58.4,0,0,0,36.38,13.54Z"/><path class="cls-1" d="M136,162.22a54.26,54.26,0,0,1-37.57,15.05H98v4.23h.45A58.43,58.43,0,0,0,139,165.21Z"/><path class="cls-1" d="M59.54,84.77A54.25,54.25,0,0,1,97.32,68.42V64.18a58.44,58.44,0,0,0-40.77,17.6Z"/><path class="cls-1" d="M149.78,104.71a54.13,54.13,0,0,1,3.1,18.12h4.23a58.46,58.46,0,0,0-3.35-19.57Z"/><path class="cls-1" d="M98,68.41h.45a54.22,54.22,0,0,1,34.66,12.46l2.72-3.24A58.44,58.44,0,0,0,98.45,64.17H98Z"/><path class="cls-1" d="M103.16,202.4a3.09,3.09,0,0,1-1.59-.43l-1.76-1a2,2,0,0,1-1-1.26,2.09,2.09,0,0,1,.13-1.35,74.78,74.78,0,0,1-42.22-13.2l-3.44,3.44L36.87,172.11a3.15,3.15,0,0,1-.91-2l-.16-2a2,2,0,0,1,.49-1.5,2.09,2.09,0,0,1,1.17-.68A74.8,74.8,0,0,1,24.06,123c0-1.93.08-3.89.22-5.83L19.59,116l6-22.47a3.12,3.12,0,0,1,1.25-1.78l1.69-1.16a2.06,2.06,0,0,1,1.54-.33,2.17,2.17,0,0,1,1.17.67,75.42,75.42,0,0,1,6-10.42L33.82,77l.12-.12L50.27,60.57a3.15,3.15,0,0,1,2-.91l2-.16a2,2,0,0,1,1.5.49,2.09,2.09,0,0,1,.68,1.17A74.48,74.48,0,0,1,85.55,49V44.17h23.26a3.1,3.1,0,0,1,2,.75l1.56,1.33a2,2,0,0,1,.72,1.4,2.18,2.18,0,0,1-.35,1.31,74.86,74.86,0,0,1,17.72,5.53l2.78-4,19.06,13.34a3.19,3.19,0,0,1,1.24,1.79l.51,2a2,2,0,0,1-.22,1.57,2.16,2.16,0,0,1-1,.87,75.28,75.28,0,0,1,14.44,20.49L172,89.3l6,22.47a3.19,3.19,0,0,1-.2,2.17l-.88,1.85a2,2,0,0,1-1.18,1,2.08,2.08,0,0,1-1.35,0c.17,2.09.25,4.17.25,6.2a75.14,75.14,0,0,1-4.28,25.07l4.2,2.42-.08.15-11.55,20a3.18,3.18,0,0,1-1.67,1.39l-1.93.68a2,2,0,0,1-1.58-.08,2.15,2.15,0,0,1-1-1,75.41,75.41,0,0,1-31,21.84l.84,4.78-.17,0-22.74,4A3.39,3.39,0,0,1,103.16,202.4ZM56.72,184.68l.12.08A74.5,74.5,0,0,0,99.26,198h.31l-.17.26a1.77,1.77,0,0,0-.21,1.35,1.63,1.63,0,0,0,.79,1l1.76,1a2.78,2.78,0,0,0,1.91.35l22.57-4-.83-4.72.13,0a75.07,75.07,0,0,0,31.17-22l.2-.24.1.3a1.74,1.74,0,0,0,.89,1,1.68,1.68,0,0,0,1.32.07l1.92-.69a2.79,2.79,0,0,0,1.49-1.23l11.46-19.86-4.15-2.39.05-.13A74.74,74.74,0,0,0,174.28,123c0-2.11-.09-4.28-.28-6.45l0-.31.28.14a1.74,1.74,0,0,0,1.36.1,1.67,1.67,0,0,0,1-.88l.88-1.85a2.85,2.85,0,0,0,.18-1.93l-5.94-22.14L167.08,91l-.06-.13a75,75,0,0,0-14.63-20.72l-.22-.22.3-.07a1.78,1.78,0,0,0,1.11-.8,1.67,1.67,0,0,0,.18-1.3l-.51-2a2.78,2.78,0,0,0-1.11-1.59L133.37,51l-2.75,3.92-.13-.06a74.59,74.59,0,0,0-18.05-5.62l-.3-.05.2-.23a1.7,1.7,0,0,0,.44-1.29,1.66,1.66,0,0,0-.59-1.16l-1.56-1.33a2.82,2.82,0,0,0-1.82-.67H85.89v4.8l-.14,0A74,74,0,0,0,56.43,61.6l-.26.18v-.31a1.81,1.81,0,0,0-.6-1.23,1.64,1.64,0,0,0-1.25-.4l-2,.16a2.8,2.8,0,0,0-1.76.81L34.3,77l3.4,3.4-.08.12a74.28,74.28,0,0,0-6.17,10.74l-.13.28-.17-.26A1.77,1.77,0,0,0,30,90.55a1.69,1.69,0,0,0-1.28.27L27.06,92a2.8,2.8,0,0,0-1.12,1.58L20,115.7,24.65,117v.14c-.16,2-.24,4-.24,6A74.48,74.48,0,0,0,37.9,166l.18.26h-.31a1.77,1.77,0,0,0-1.22.6,1.68,1.68,0,0,0-.41,1.25l.16,2a2.85,2.85,0,0,0,.81,1.76l16.21,16.21ZM99.34,197A73.91,73.91,0,1,1,173.25,123,74,74,0,0,1,99.34,197Zm0-147.48A73.57,73.57,0,1,0,172.91,123,73.65,73.65,0,0,0,99.34,49.47Z"/><path class="cls-1" d="M95.74,194.07a2.63,2.63,0,0,1-.49,0l-20.54-3.62.75-4.28a67.79,67.79,0,0,1-27.79-19.58,1.84,1.84,0,0,1-.86.86,1.77,1.77,0,0,1-1.41.08l-1.73-.61a2.88,2.88,0,0,1-1.5-1.25L31.74,147.57l3.77-2.18a67.21,67.21,0,0,1-3.84-22.47c0-1.82.08-3.68.23-5.56a1.82,1.82,0,0,1-1.22,0,1.8,1.8,0,0,1-1.05-.94l-.79-1.66a2.82,2.82,0,0,1-.18-1.94l5.4-20.15,4.2,1.13a67.4,67.4,0,0,1,13-18.37,1.88,1.88,0,0,1-.93-.78,1.78,1.78,0,0,1-.2-1.41l.46-1.77a2.75,2.75,0,0,1,1.11-1.6l17.08-12,2.5,3.56a67.4,67.4,0,0,1,15.89-5,2,2,0,0,1-.32-1.17,1.85,1.85,0,0,1,.65-1.26l1.39-1.19a2.85,2.85,0,0,1,1.83-.67h20.86v4.35a66.63,66.63,0,0,1,26.08,10.88,1.85,1.85,0,0,1,.61-1,1.79,1.79,0,0,1,1.34-.44l1.83.15a2.8,2.8,0,0,1,1.77.81l14.75,14.75-3.08,3.08a67.74,67.74,0,0,1,5.37,9.35,1.92,1.92,0,0,1,1.06-.6,1.82,1.82,0,0,1,1.37.29l1.51,1a2.79,2.79,0,0,1,1.13,1.59l5.4,20.15-4.21,1.13c.13,1.75.2,3.5.2,5.23a67.08,67.08,0,0,1-12,38.44,1.94,1.94,0,0,1,1.06.61,1.82,1.82,0,0,1,.43,1.35l-.14,1.83a2.92,2.92,0,0,1-.82,1.77l-14.75,14.74-3.08-3.08a67,67,0,0,1-37.85,11.83,1.89,1.89,0,0,1,.11,1.22,1.81,1.81,0,0,1-.85,1.12l-1.58.93A2.8,2.8,0,0,1,95.74,194.07Zm-20.68-3.91,20.24,3.57a2.54,2.54,0,0,0,1.71-.31l1.58-.93a1.49,1.49,0,0,0,.71-.94,1.6,1.6,0,0,0-.19-1.21l-.15-.23h.28a66.87,66.87,0,0,0,38-11.85l.11-.08,3,3L155,166.7a2.48,2.48,0,0,0,.73-1.58l.14-1.83a1.46,1.46,0,0,0-.36-1.12,1.53,1.53,0,0,0-1.1-.53l-.27,0,.15-.22a66.73,66.73,0,0,0,12.11-38.48c0-1.76-.07-3.55-.21-5.33v-.13l.12,0,4-1.09L165,96.49a2.53,2.53,0,0,0-1-1.42l-1.51-1a1.44,1.44,0,0,0-1.15-.25,1.58,1.58,0,0,0-1,.68l-.15.22-.12-.24a67.72,67.72,0,0,0-5.53-9.64l-.07-.1,3-3L142.94,67.13a2.53,2.53,0,0,0-1.57-.73l-1.83-.14a1.47,1.47,0,0,0-1.12.36,1.61,1.61,0,0,0-.54,1.1V68l-.23-.16a66.39,66.39,0,0,0-26.29-11l-.13,0v-4.3H90.67a2.56,2.56,0,0,0-1.63.6l-1.39,1.2a1.45,1.45,0,0,0-.54,1,1.56,1.56,0,0,0,.39,1.15l.19.21-.27,0a66.92,66.92,0,0,0-16.18,5l-.12.06-2.46-3.52L51.82,70.12a2.49,2.49,0,0,0-1,1.42l-.47,1.78a1.51,1.51,0,0,0,.17,1.17,1.56,1.56,0,0,0,1,.71l.27.07-.2.19A67.23,67.23,0,0,0,38.48,94.05l0,.11-4.15-1.11L29,112.9a2.46,2.46,0,0,0,.16,1.73l.79,1.65a1.46,1.46,0,0,0,.87.79A1.57,1.57,0,0,0,32,117l.25-.13,0,.28c-.17,1.94-.25,3.89-.25,5.78a67,67,0,0,0,3.86,22.49l0,.12-.11.06-3.61,2.09,10.28,17.8a2.55,2.55,0,0,0,1.33,1.11l1.73.61a1.48,1.48,0,0,0,1.18-.06,1.6,1.6,0,0,0,.8-.93l.09-.26.17.21a67.54,67.54,0,0,0,27.95,19.73l.12,0Zm24.1-1a66.27,66.27,0,1,1,66.27-66.27A66.34,66.34,0,0,1,99.16,189.19ZM99.16,57a66,66,0,1,0,66,66A66,66,0,0,0,99.16,57Z"/><rect class="cls-1" x="97.62" y="31.5" width="0.76" height="4.3"/><rect class="cls-1" x="93" y="31.62" width="0.76" height="4.3" transform="translate(-1.64 4.94) rotate(-3.01)"/><rect class="cls-1" x="88.38" y="31.98" width="0.76" height="4.3" transform="translate(-3.08 9.48) rotate(-6.01)"/><rect class="cls-1" x="83.8" y="32.59" width="0.76" height="4.3" transform="matrix(0.99, -0.16, 0.16, 0.99, -4.4, 13.6)"/><rect class="cls-1" x="79.25" y="33.43" width="0.76" height="4.3" transform="translate(-5.66 17.33) rotate(-11.99)"/><rect class="cls-1" x="74.75" y="34.51" width="0.76" height="4.3" transform="translate(-6.93 20.68) rotate(-14.99)"/><rect class="cls-1" x="70.31" y="35.82" width="0.76" height="4.3" transform="matrix(0.95, -0.31, 0.31, 0.95, -8.27, 23.7)"/><rect class="cls-1" x="65.95" y="37.37" width="0.76" height="4.3" transform="translate(-9.76 26.39) rotate(-20.99)"/><rect class="cls-1" x="61.67" y="39.14" width="0.76" height="4.3" transform="translate(-11.43 28.82) rotate(-24.01)"/><rect class="cls-1" x="57.5" y="41.13" width="0.76" height="4.3" transform="translate(-13.34 30.99) rotate(-26.99)"/><rect class="cls-1" x="53.43" y="43.34" width="0.76" height="4.3" transform="translate(-15.54 33) rotate(-30)"/><rect class="cls-1" x="49.48" y="45.76" width="0.76" height="4.3" transform="translate(-18.05 34.9) rotate(-33.01)"/><rect class="cls-1" x="45.67" y="48.38" width="0.76" height="4.3" transform="translate(-20.9 36.71) rotate(-35.99)"/><rect class="cls-1" x="42" y="51.2" width="0.76" height="4.3" transform="translate(-24.13 38.55) rotate(-38.99)"/><rect class="cls-1" x="38.48" y="54.2" width="0.76" height="4.3" transform="translate(-27.73 40.48) rotate(-42)"/><rect class="cls-1" x="35.12" y="57.39" width="0.76" height="4.3" transform="translate(-31.7 42.53) rotate(-44.99)"/><rect class="cls-1" x="31.94" y="60.74" width="0.76" height="4.3" transform="translate(-36.05 44.82) rotate(-48)"/><rect class="cls-1" x="28.93" y="64.26" width="0.76" height="4.3" transform="translate(-40.75 47.4) rotate(-51)"/><rect class="cls-1" x="26.11" y="67.93" width="0.76" height="4.3" transform="matrix(0.59, -0.81, 0.81, 0.59, -45.78, 50.32)"/><rect class="cls-1" x="23.49" y="71.75" width="0.76" height="4.3" transform="translate(-51.11 53.68) rotate(-57.01)"/><rect class="cls-1" x="21.07" y="75.69" width="0.76" height="4.3" transform="translate(-56.69 57.5) rotate(-60)"/><rect class="cls-1" x="18.87" y="79.76" width="0.76" height="4.3" transform="translate(-62.48 61.88) rotate(-63.01)"/><rect class="cls-1" x="16.87" y="83.94" width="0.76" height="4.3" transform="translate(-68.41 66.83) rotate(-66)"/><rect class="cls-1" x="15.1" y="88.21" width="0.76" height="4.3" transform="translate(-74.42 72.43) rotate(-68.99)"/><rect class="cls-1" x="13.56" y="92.57" width="0.76" height="4.3" transform="translate(-80.46 78.71) rotate(-72)"/><rect class="cls-1" x="12.24" y="97.01" width="0.76" height="4.3" transform="translate(-86.42 85.68) rotate(-74.99)"/><polygon class="cls-1" points="9.36 103.59 13.57 104.48 13.73 103.74 9.52 102.84 9.36 103.59"/><rect class="cls-1" x="10.32" y="106.06" width="0.76" height="4.3" transform="matrix(0.16, -0.99, 0.99, 0.16, -97.85, 101.85)"/><rect class="cls-1" x="9.72" y="110.65" width="0.76" height="4.3" transform="translate(-103.14 111.04) rotate(-83.99)"/><rect class="cls-1" x="9.35" y="115.26" width="0.76" height="4.3" transform="translate(-108.03 120.98) rotate(-86.99)"/><rect class="cls-1" x="7.46" y="121.66" width="4.3" height="0.76"/><rect class="cls-1" x="7.58" y="126.28" width="4.3" height="0.76" transform="translate(-6.63 0.68) rotate(-3.01)"/><rect class="cls-1" x="7.95" y="130.9" width="4.3" height="0.76" transform="translate(-13.66 1.77) rotate(-6)"/><rect class="cls-1" x="8.55" y="135.49" width="4.3" height="0.76" transform="translate(-21.12 3.35) rotate(-9)"/><rect class="cls-1" x="9.39" y="140.04" width="4.3" height="0.76" transform="translate(-28.95 5.47) rotate(-12.01)"/><rect class="cls-1" x="10.47" y="144.54" width="4.3" height="0.76" transform="translate(-37.09 8.21) rotate(-15.01)"/><rect class="cls-1" x="11.79" y="148.97" width="4.3" height="0.76" transform="translate(-45.47 11.62) rotate(-18)"/><rect class="cls-1" x="13.33" y="153.34" width="4.3" height="0.76" transform="translate(-54.04 15.75) rotate(-20.99)"/><rect class="cls-1" x="15.11" y="157.61" width="4.3" height="0.76" transform="translate(-62.78 20.68) rotate(-24)"/><rect class="cls-1" x="17.1" y="161.79" width="4.3" height="0.76" transform="translate(-71.51 26.4) rotate(-26.99)"/><rect class="cls-1" x="19.31" y="165.85" width="4.3" height="0.76" transform="translate(-80.26 33.01) rotate(-30.01)"/><rect class="cls-1" x="21.72" y="169.8" width="4.3" height="0.76" transform="translate(-88.84 40.46) rotate(-33)"/><rect class="cls-1" x="24.34" y="173.61" width="4.3" height="0.76" transform="translate(-97.22 48.81) rotate(-36)"/><rect class="cls-1" x="27.16" y="177.28" width="4.3" height="0.76" transform="translate(-105.27 58.04) rotate(-39)"/><rect class="cls-1" x="30.17" y="180.8" width="4.3" height="0.76" transform="translate(-112.94 68.17) rotate(-42)"/><rect class="cls-1" x="33.35" y="184.16" width="4.3" height="0.76" transform="translate(-120.09 79.15) rotate(-45)"/><rect class="cls-1" x="36.71" y="187.35" width="4.3" height="0.76" transform="translate(-126.66 91.01) rotate(-48.01)"/><rect class="cls-1" x="40.23" y="190.35" width="4.3" height="0.76" transform="translate(-132.52 103.64) rotate(-51)"/><rect class="cls-1" x="43.9" y="193.17" width="4.3" height="0.76" transform="translate(-137.61 117.05) rotate(-54)"/><rect class="cls-1" x="47.71" y="195.79" width="4.3" height="0.76" transform="translate(-141.81 131.13) rotate(-56.99)"/><rect class="cls-1" x="51.66" y="198.21" width="4.3" height="0.76" transform="translate(-145.08 145.92) rotate(-60.01)"/><rect class="cls-1" x="55.73" y="200.42" width="4.3" height="0.76" transform="translate(-147.31 161.23) rotate(-63.01)"/><rect class="cls-1" x="59.9" y="202.41" width="4.3" height="0.76" transform="translate(-148.44 176.98) rotate(-66)"/><rect class="cls-1" x="64.18" y="204.18" width="4.3" height="0.76" transform="translate(-148.41 193.15) rotate(-68.99)"/><rect class="cls-1" x="68.54" y="205.72" width="4.3" height="0.76" transform="translate(-147.17 209.64) rotate(-72)"/><rect class="cls-1" x="72.98" y="207.04" width="4.3" height="0.76" transform="translate(-144.67 226.32) rotate(-75.01)"/><rect class="cls-1" x="77.48" y="208.12" width="4.3" height="0.76" transform="translate(-140.87 243.05) rotate(-78)"/><rect class="cls-1" x="82.03" y="208.96" width="4.3" height="0.76" transform="translate(-135.76 259.73) rotate(-81)"/><rect class="cls-1" x="86.61" y="209.57" width="4.3" height="0.76" transform="translate(-129.3 276.3) rotate(-84.01)"/><rect class="cls-1" x="91.23" y="209.93" width="4.3" height="0.76" transform="translate(-121.54 292.53) rotate(-86.99)"/><rect class="cls-1" x="97.62" y="208.28" width="0.76" height="4.3"/><rect class="cls-1" x="102.25" y="208.16" width="0.76" height="4.3" transform="translate(-10.89 5.67) rotate(-3.01)"/><rect class="cls-1" x="106.86" y="207.8" width="0.76" height="4.3" transform="translate(-21.35 12.35) rotate(-6)"/><rect class="cls-1" x="111.45" y="207.19" width="0.76" height="4.3" transform="translate(-31.37 20.07) rotate(-9)"/><rect class="cls-1" x="116" y="206.35" width="0.76" height="4.3" transform="translate(-40.78 28.73) rotate(-11.99)"/><rect class="cls-1" x="120.5" y="205.27" width="0.76" height="4.3" transform="translate(-49.58 38.37) rotate(-15.01)"/><rect class="cls-1" x="124.94" y="203.95" width="0.76" height="4.3" transform="translate(-57.55 48.81) rotate(-18)"/><rect class="cls-1" x="129.3" y="202.41" width="0.76" height="4.3" transform="translate(-64.7 60.07) rotate(-21)"/><rect class="cls-1" x="133.58" y="200.64" width="0.76" height="4.3" transform="translate(-70.91 72.03) rotate(-24)"/><rect class="cls-1" x="137.75" y="198.65" width="0.76" height="4.3" transform="translate(-76.1 84.58) rotate(-27)"/><rect class="cls-1" x="141.82" y="196.44" width="0.76" height="4.3" transform="translate(-80.23 97.68) rotate(-29.99)"/><rect class="cls-1" x="145.76" y="194.02" width="0.76" height="4.3" transform="translate(-83.25 111.22) rotate(-32.99)"/><rect class="cls-1" x="149.58" y="191.4" width="0.76" height="4.3" transform="translate(-85.11 125.05) rotate(-35.99)"/><rect class="cls-1" x="153.25" y="188.58" width="0.76" height="4.3" transform="translate(-85.79 139.18) rotate(-39)"/><rect class="cls-1" x="156.77" y="185.58" width="0.76" height="4.3" transform="translate(-85.25 153.39) rotate(-42)"/><rect class="cls-1" x="160.12" y="182.39" width="0.76" height="4.3" transform="translate(-83.48 167.58) rotate(-45.01)"/><rect class="cls-1" x="163.31" y="179.03" width="0.76" height="4.3" transform="translate(-80.49 181.62) rotate(-48.01)"/><rect class="cls-1" x="166.32" y="175.52" width="0.76" height="4.3" transform="translate(-76.28 195.44) rotate(-51.01)"/><rect class="cls-1" x="169.13" y="171.84" width="0.76" height="4.3" transform="translate(-70.89 208.85) rotate(-54)"/><rect class="cls-1" x="171.75" y="168.03" width="0.76" height="4.3" transform="translate(-64.34 221.86) rotate(-57)"/><rect class="cls-1" x="174.17" y="164.08" width="0.76" height="4.3" transform="translate(-56.7 234.25) rotate(-59.99)"/><rect class="cls-1" x="176.38" y="160.02" width="0.76" height="4.3" transform="translate(-47.96 246.08) rotate(-63.01)"/><rect class="cls-1" x="178.37" y="155.84" width="0.76" height="4.3" transform="translate(-38.29 257.01) rotate(-66)"/><rect class="cls-1" x="180.14" y="151.57" width="0.76" height="4.3" transform="translate(-27.68 267.16) rotate(-69)"/><rect class="cls-1" x="181.69" y="147.2" width="0.76" height="4.3" transform="translate(-16.24 276.35) rotate(-72)"/><rect class="cls-1" x="183" y="142.77" width="0.76" height="4.3" transform="matrix(0.26, -0.97, 0.97, 0.26, -4.05, 284.55)"/><rect class="cls-1" x="184.08" y="138.27" width="0.76" height="4.3" transform="translate(8.77 291.67) rotate(-78)"/><rect class="cls-1" x="184.93" y="133.72" width="0.76" height="4.3" transform="matrix(0.16, -0.99, 0.99, 0.16, 22.12, 297.63)"/><rect class="cls-1" x="185.53" y="129.13" width="0.76" height="4.3" transform="translate(35.9 302.43) rotate(-83.99)"/><rect class="cls-1" x="185.89" y="124.52" width="0.76" height="4.3" transform="translate(50.02 306.04) rotate(-86.99)"/><rect class="cls-1" x="184.24" y="121.66" width="4.3" height="0.76"/><rect class="cls-1" x="184.12" y="117.03" width="4.3" height="0.76" transform="translate(-5.9 9.93) rotate(-3.01)"/><rect class="cls-1" x="183.76" y="112.42" width="4.3" height="0.76" transform="translate(-10.76 20.03) rotate(-5.99)"/><rect class="cls-1" x="183.16" y="107.83" width="4.3" height="0.76" transform="translate(-14.65 30.32) rotate(-9)"/><rect class="cls-1" x="182.31" y="103.28" width="4.3" height="0.76" transform="translate(-17.51 40.59) rotate(-11.99)"/><rect class="cls-1" x="181.23" y="98.78" width="4.3" height="0.76" transform="translate(-19.42 50.88) rotate(-15.01)"/><rect class="cls-1" x="179.92" y="94.34" width="4.3" height="0.76" transform="translate(-20.37 60.94) rotate(-18.01)"/><rect class="cls-1" x="178.37" y="89.98" width="4.3" height="0.76" transform="translate(-20.39 70.67) rotate(-20.99)"/><rect class="cls-1" x="176.6" y="85.71" width="4.3" height="0.76" transform="translate(-19.56 80.16) rotate(-24)"/><rect class="cls-1" x="174.61" y="81.53" width="4.3" height="0.76" transform="translate(-17.92 89.16) rotate(-26.99)"/><rect class="cls-1" x="172.4" y="77.46" width="4.3" height="0.76" transform="translate(-15.54 97.71) rotate(-30)"/><rect class="cls-1" x="169.98" y="73.52" width="4.3" height="0.76" transform="translate(-12.48 105.67) rotate(-33)"/><rect class="cls-1" x="167.36" y="69.7" width="4.3" height="0.76" transform="translate(-8.82 113.01) rotate(-35.99)"/><rect class="cls-1" x="164.55" y="66.03" width="4.3" height="0.76" transform="translate(-4.66 119.67) rotate(-38.99)"/><polygon class="cls-1" points="165.03 61.17 161.84 64.05 162.35 64.61 165.54 61.74 165.03 61.17"/><rect class="cls-1" x="158.36" y="59.16" width="4.3" height="0.76" transform="translate(4.91 130.93) rotate(-45)"/><polygon class="cls-1" points="158.31 54.5 155.43 57.7 155.99 58.2 158.87 55.01 158.31 54.5"/><rect class="cls-1" x="151.48" y="52.97" width="4.3" height="0.76" transform="translate(15.5 139.19) rotate(-51.01)"/><rect class="cls-1" x="147.81" y="50.15" width="4.3" height="0.76" transform="translate(20.93 142.14) rotate(-54)"/><rect class="cls-1" x="143.99" y="47.53" width="4.3" height="0.76" transform="matrix(0.54, -0.84, 0.84, 0.54, 26.36, 144.37)"/><rect class="cls-1" x="140.05" y="45.11" width="4.3" height="0.76" transform="translate(31.7 145.89) rotate(-60)"/><rect class="cls-1" x="135.98" y="42.9" width="4.3" height="0.76" transform="translate(36.88 146.73) rotate(-63.01)"/><rect class="cls-1" x="131.81" y="40.91" width="4.3" height="0.76" transform="translate(41.74 146.86) rotate(-66)"/><rect class="cls-1" x="127.53" y="39.14" width="4.3" height="0.76" transform="translate(46.3 146.41) rotate(-68.99)"/><rect class="cls-1" x="123.17" y="37.59" width="4.3" height="0.76" transform="translate(50.47 145.42) rotate(-72)"/><rect class="cls-1" x="118.73" y="36.28" width="4.3" height="0.76" transform="translate(54.17 143.93) rotate(-74.99)"/><rect class="cls-1" x="114.23" y="35.2" width="4.3" height="0.76" transform="translate(57.39 142.02) rotate(-78)"/><rect class="cls-1" x="109.68" y="34.36" width="4.3" height="0.76" transform="translate(60.03 139.76) rotate(-81)"/><rect class="cls-1" x="105.09" y="33.75" width="4.3" height="0.76" transform="translate(62.1 137.22) rotate(-84.01)"/><rect class="cls-1" x="100.48" y="33.39" width="4.3" height="0.76" transform="translate(63.53 134.49) rotate(-86.99)"/></g></g></svg>