<svg xmlns="http://www.w3.org/2000/svg" viewBox="0 0 679.77 609.18"><defs><style>.cls-1{fill:#0b8af2;}.cls-2{fill:#47b4ff;opacity:0.3;}.cls-3{fill:#ff1c00;}.cls-4,.cls-5{fill:none;stroke-miterlimit:10;}.cls-4{stroke:#0af;}.cls-5{stroke:#cfcfcf;}</style></defs><title>资源 1</title><g id="图层_2" data-name="图层 2"><g id="Layer_1" data-name="Layer 1"><path class="cls-1" d="M324,240.24A60.51,60.51,0,1,1,319,325.66,60.56,60.56,0,0,1,324,240.24Zm79.65,89.41A59.24,59.24,0,1,0,320,324.82,59.32,59.32,0,0,0,403.63,329.65Z"/><path class="cls-1" d="M588.47,274l56.77-2.75,0,.64a282.24,282.24,0,0,1-31.36,143.44l-.3.56L563.18,389.6l.29-.56a225.34,225.34,0,0,0,25-114.46ZM644,272.53l-54.24,2.63a226.56,226.56,0,0,1-24.9,113.9l48.18,25.07A281,281,0,0,0,644,272.53Z"/><path class="cls-1" d="M195.3,60.4l.51-.38A282.26,282.26,0,0,1,332.26,5.8l.63-.07,6.45,56.49-.63.07a225.27,225.27,0,0,0-108.88,43.25l-.51.38ZM331.77,7.14A280.91,280.91,0,0,0,197.08,60.65l32.5,43.5A226.52,226.52,0,0,1,337.94,61.1Z"/><path class="cls-1" d="M510.41,0l.56.29A321.74,321.74,0,0,1,634.68,113l.34.53-.54.35L414.79,253.93l-.34-.54a59.7,59.7,0,0,0-23-20.92l-.57-.3ZM633.26,113.13A320.28,320.28,0,0,0,511,1.71L392.62,231.63a61,61,0,0,1,22.55,20.55Z"/><path class="cls-1" d="M393.9,7.93l.63.07A279.91,279.91,0,0,1,530.17,61l.51.38L400.15,237.9l-.51-.38a59.74,59.74,0,0,0-28.95-11.3l-.63-.07Zm135,53.69A278.59,278.59,0,0,0,395,9.33L371.46,225a61,61,0,0,1,28.42,11.1Z"/><path class="cls-1" d="M410.26,247.63l121.23-97.35.39.5a215.63,215.63,0,0,1,45,102.77l.09.63-.63.09-153.16,23-.1-.63a59.72,59.72,0,0,0-12.47-28.46Zm121-95.56L412,247.83a61.07,61.07,0,0,1,12.25,27.94l151.29-22.66A214.45,214.45,0,0,0,531.29,152.07Z"/><path class="cls-1" d="M351.16,444.15l.63.05a159.75,159.75,0,0,0,81.65-15.38l.57-.27,10.38,21.5-.57.27A183.54,183.54,0,0,1,349.92,468l-.63-.05Zm82.26-13.91a161.08,161.08,0,0,1-81.1,15.27l-1.67,21.29a182.44,182.44,0,0,0,92.05-17.34Z"/><path class="cls-1" d="M252.18,398.62l.46.44a159.68,159.68,0,0,0,72.43,40.7l.61.16-5.87,23.15-.61-.16a183.71,183.71,0,0,1-83.3-46.81l-.46-.44Zm72,42.22a161,161,0,0,1-71.94-40.43l-15,15.23a182.38,182.38,0,0,0,81.66,45.88Z"/><path class="cls-1" d="M181.86,302.41l23.77-2.3.06.64A159.73,159.73,0,0,0,235,378.49l.37.51L216,393l-.37-.52A183.73,183.73,0,0,1,181.92,303Zm22.64-.91-21.26,2.05a182.53,182.53,0,0,0,33.06,87.64l17.32-12.48A161,161,0,0,1,204.5,301.5Z"/><path class="cls-1" d="M213.6,181.21l19.69,13.53-.36.52a159.77,159.77,0,0,0-27.51,78.4l0,.63-23.81-1.76.05-.63a183.76,183.76,0,0,1,31.63-90.17Zm17.93,13.85L213.93,183a182.43,182.43,0,0,0-31,88.39l21.29,1.57A161.08,161.08,0,0,1,231.53,195.06Z"/><path class="cls-2" d="M235.07,354.88l17-9.24.3.56a127.72,127.72,0,0,0,45.85,48l.54.33-10,16.55-.54-.33a147,147,0,0,1-52.83-55.34Z"/><path class="cls-2" d="M220.63,255.61l19,3.86-.13.62a127.66,127.66,0,0,0,4.25,66.27l.2.6-18.33,6.23-.2-.61a147.05,147.05,0,0,1-4.89-76.35Z"/><path class="cls-2" d="M266.75,175.85h0c2-1.77,4.06-3.51,6.14-5.17l.5-.39,12.05,15.15-.49.39a128.25,128.25,0,0,0-39.35,53.49l-.23.6-18-7,.23-.59A147.69,147.69,0,0,1,266.75,175.85Z"/><path class="cls-2" d="M293.11,157.2l.56-.31A147.21,147.21,0,0,1,368,138.81l.63,0-.5,19.36-.64,0A127.67,127.67,0,0,0,303,173.86l-.55.3Z"/><path class="cls-1" d="M331.53,248.71a49.16,49.16,0,1,1-4,69.4A49.21,49.21,0,0,1,331.53,248.71Zm62.31,70A44.52,44.52,0,1,0,331,315,44.57,44.57,0,0,0,393.84,318.66Z"/><polygon class="cls-1" points="379.85 330.3 394.97 319.94 407.01 306.11 411.2 317.94 390.83 336.09 379.85 330.3"/><polygon class="cls-1" points="409.11 269.79 398.74 254.67 384.92 242.63 396.75 238.44 414.9 258.81 409.11 269.79"/><polygon class="cls-1" points="348.59 240.53 333.47 250.9 321.44 264.72 317.24 252.89 337.61 234.75 348.59 240.53"/><polygon class="cls-1" points="319.34 301.05 329.7 316.17 343.53 328.21 331.7 332.4 313.55 312.03 319.34 301.05"/><path class="cls-1" d="M362.1,322.14a36.79,36.79,0,1,0-34.6-38.84A36.83,36.83,0,0,0,362.1,322.14Zm-23.29-44.48a2.81,2.81,0,0,1,.71.15A25.93,25.93,0,0,1,359.62,260a2.24,2.24,0,0,1-.07-.73c.12-2.12,3-3.68,6.46-3.48s6.15,2.08,6,4.2a2.46,2.46,0,0,1-.16.76,26,26,0,0,1,17.78,20.06,2.25,2.25,0,0,1,.78-.08c2.12.12,3.68,3,3.48,6.47s-2.08,6.14-4.21,6a2.61,2.61,0,0,1-.78-.18,25.94,25.94,0,0,1-20,17.82,2.66,2.66,0,0,1,.08.75c-.12,2.12-3,3.68-6.47,3.48s-6.14-2.08-6-4.2a2.64,2.64,0,0,1,.16-.74,25.94,25.94,0,0,1-17.85-20.07,2.35,2.35,0,0,1-.7.07c-2.12-.12-3.68-3-3.48-6.47S336.69,277.54,338.81,277.66Z"/><path class="cls-1" d="M351.75,271.41a18.76,18.76,0,1,1-1.53,26.48A18.78,18.78,0,0,1,351.75,271.41Zm23.41,26.28A16.44,16.44,0,1,0,352,296.35,16.47,16.47,0,0,0,375.16,297.69Z"/><path class="cls-1" d="M284.68,196l.23-.21a93.47,93.47,0,0,1,18.89-12.6A159.73,159.73,0,0,1,339.52,170a129.47,129.47,0,0,1,27.11-3.9h4.64a21.66,21.66,0,0,1,2.51.12l1,.07,3,.22-.07.95-2.95-.23c-.3,0-.65,0-1-.07-.74-.06-1.57-.12-2.44-.11h-4.63a128.26,128.26,0,0,0-26.9,3.88,158.25,158.25,0,0,0-35.5,13.13,92.84,92.84,0,0,0-18.7,12.47A122.3,122.3,0,0,0,270.12,213a118.88,118.88,0,0,0-23.93,59.61,125.16,125.16,0,0,0-.55,18.33A119.93,119.93,0,0,0,250,318l.62,2c.7,2.26,1.25,4,1.75,5.32l.79,2.12,21.32-8.17.16.47s.36,1,1.16,2.86a87.25,87.25,0,0,0,3.8,8,95.7,95.7,0,0,0,19.11,24.87,93.58,93.58,0,0,0,16.79,12.58,96,96,0,0,0,71.91,10.41,93.14,93.14,0,0,0,24-9.57c.65-.33,1.27-.72,1.88-1.1l.87-.53c.32-.21.66-.41,1-.61.58-.35,1.15-.69,1.69-1.07l1.43-1c1.25-.85,2.54-1.73,3.72-2.68l1-.73c.52-.39,1-.78,1.53-1.19l3.57-3,3-3c.81-.86,1.62-1.81,2.41-2.73l1.38-1.61c.47-.65,1-1.33,1.48-2,.67-.89,1.33-1.79,2-2.69l3.16-4.91,2.86-5A139.88,139.88,0,0,0,453,315.13a116.89,116.89,0,0,0,6.57-31.31,33.58,33.58,0,0,0,.12-3.76c0-.39,0-.76,0-1.13V277l-.38-4.35,1-.08.38,4.38v2c0,.36,0,.73,0,1.11a34.91,34.91,0,0,1-.12,3.84,118.24,118.24,0,0,1-6.62,31.56,141.71,141.71,0,0,1-8.68,20.06l-2.88,5-3.19,4.95c-.66.93-1.33,1.83-2,2.73l-1.5,2-1.4,1.63c-.79.93-1.61,1.89-2.45,2.79l-3,3-3.6,3.06c-.51.42-1,.82-1.57,1.22l-.94.71c-1.2,1-2.51,1.87-3.77,2.73l-1.42,1c-.56.4-1.15.76-1.75,1.11-.33.2-.66.4-1,.61s-.59.35-.87.53c-.62.39-1.26.79-1.93,1.13a101.34,101.34,0,0,1-11.71,5.64,98.85,98.85,0,0,1-12.5,4,97.08,97.08,0,0,1-72.62-10.5,95.49,95.49,0,0,1-17-12.71,97,97,0,0,1-19.3-25.12,86.78,86.78,0,0,1-3.83-8c-.51-1.15-.84-2-1-2.46l-21.31,8.17-1.12-3c-.51-1.3-1.07-3.1-1.77-5.37l-.62-2a120.53,120.53,0,0,1-4.44-27.3,127.08,127.08,0,0,1,.55-18.47,120.33,120.33,0,0,1,4-20.24,119,119,0,0,1,20.13-39.85A120.39,120.39,0,0,1,284.68,196Z"/><path class="cls-1" d="M257,331.56l16.3-7c.31.71.63,1.42,1,2.13l-16.14,7.39C257.77,333.23,257.4,332.4,257,331.56Zm2.9,6.23,15.86-8c.34.69.7,1.38,1.07,2.07l-15.67,8.35Q260.55,339,259.94,337.79Zm3.26,6,15.36-8.9c.39.67.79,1.34,1.19,2l-15.15,9.26C264.12,345.39,263.66,344.61,263.2,343.82Zm3.62,5.84,14.8-9.8c.43.65.87,1.29,1.31,1.93l-14.58,10.13C267.83,351.17,267.32,350.42,266.82,349.66Zm3.94,5.6L285,344.62c.47.62.94,1.24,1.42,1.85l-14,11C271.87,356.72,271.31,356,270.76,355.26Zm4.27,5.37,13.57-11.46c.5.59,1,1.18,1.52,1.76L276.83,362.7Q275.92,361.68,275,360.63Zm17.46-7.11c.53.56,1.07,1.11,1.61,1.66l-12.58,12.53q-1-1-1.92-2Zm4.12,4.1c.57.54,1.14,1.06,1.72,1.58l-11.85,13.21c-.68-.6-1.35-1.22-2-1.84Zm4.36,3.86c.59.5,1.2,1,1.8,1.47l-11,13.89c-.71-.56-1.42-1.14-2.12-1.73Zm4.58,3.59c.62.46,1.24.91,1.88,1.36L297.22,381c-.75-.53-1.49-1.07-2.23-1.61Zm4.76,3.31c.65.43,1.31.84,2,1.25L303,384.74c-.77-.48-1.55-1-2.32-1.48Zm5,3,2,1.13-8.41,15.63c-.81-.44-1.62-.88-2.42-1.34Zm5.15,2.73,2.1,1-7.47,16.1c-.83-.38-1.66-.78-2.49-1.19Zm5.31,2.42c.71.31,1.42.6,2.14.88L321.39,394c-.85-.33-1.71-.68-2.56-1Zm5.43,2.11c.73.26,1.46.5,2.2.75l-5.52,16.87c-.87-.28-1.74-.58-2.6-.89Zm5.54,1.77c.74.22,1.49.42,2.24.62l-4.5,17.17c-.89-.23-1.77-.47-2.65-.73ZM462.55,274.56l17.65-2c.1.9.19,1.81.27,2.71l-17.69,1.58C462.71,276.11,462.64,275.34,462.55,274.56ZM342.35,381.89c.76.17,1.52.34,2.29.49l-3.51,17.4c-.9-.18-1.79-.37-2.68-.57ZM463,280.38l17.72-1q.08,1.37.12,2.73l-17.74.58C463.11,281.93,463.08,281.16,463,280.38ZM348.08,383l2.3.35-2.49,17.58c-.91-.13-1.81-.27-2.71-.42ZM463.19,286.2l17.76,0c0,.91,0,1.82,0,2.73l-17.75-.43C463.18,287.76,463.19,287,463.19,286.2ZM353.83,383.78c.78.09,1.55.16,2.32.22l-1.43,17.7c-.91-.08-1.82-.16-2.73-.26ZM463,292l17.72,1.05c-.05.91-.12,1.82-.19,2.73l-17.7-1.46C462.92,293.57,463,292.8,463,292Zm-103.38,92.2c.78,0,1.55.07,2.33.08l-.41,17.75c-.91,0-1.83-.05-2.74-.09ZM462.51,297.8l17.62,2.1c-.1.91-.22,1.82-.35,2.72l-17.58-2.51C462.31,299.34,462.41,298.58,462.51,297.8Zm-97.05,86.52c.77,0,1.55,0,2.33-.05l.62,17.74-2.73.07Zm96.19-80.77,17.48,3.14c-.17.9-.34,1.8-.52,2.69l-17.4-3.54C461.37,305.08,461.51,304.31,461.65,303.55Zm-90.38,80.53c.77-.05,1.55-.12,2.32-.19l1.66,17.68c-.91.08-1.82.16-2.73.22Zm5.78-.58c.77-.1,1.54-.2,2.31-.32l2.69,17.55-2.71.38Zm83.41-74.27,17.25,4.18c-.22.89-.44,1.78-.68,2.66l-17.15-4.59C460.08,310.73,460.27,310,460.46,309.23Zm-77.67,73.36,2.27-.46,3.73,17.36c-.89.19-1.79.37-2.69.54Zm76.13-67.77,17,5.23c-.27.88-.55,1.75-.84,2.62L458.21,317C458.46,316.3,458.69,315.56,458.92,314.82Zm-70.46,66.52c.75-.19,1.5-.39,2.24-.6l4.74,17.12c-.88.24-1.77.47-2.65.69Zm68.59-61,16.61,6.24c-.32.86-.65,1.72-1,2.57l-16.46-6.65C456.49,321.76,456.77,321,457.05,320.32Zm-63,59.44,2.21-.73L402,395.84c-.86.29-1.73.58-2.59.85Zm60.8-54.08,16.2,7.25c-.37.84-.76,1.67-1.15,2.51l-16-7.65C454.2,327.09,454.52,326.39,454.84,325.68Zm-55.32,52.17c.72-.27,1.44-.56,2.15-.85l6.73,16.43c-.85.35-1.71.69-2.56,1Zm52.78-46.93L468,339.13c-.42.81-.86,1.63-1.31,2.43L451.2,333C451.58,332.28,451.94,331.6,452.3,330.92Zm-47.42,44.7,2.11-1,7.68,16c-.83.4-1.66.78-2.49,1.16ZM449.46,336l15.2,9.17q-.71,1.17-1.44,2.34l-15-9.53Q448.86,337,449.46,336ZM410.1,373.08c.69-.36,1.38-.73,2.06-1.11l8.6,15.53c-.8.44-1.6.88-2.41,1.3Zm36.21-32.22,14.63,10.05c-.52.76-1,1.5-1.58,2.25L445,342.76Zm-31.14,29.37c.66-.4,1.33-.81,2-1.23l9.52,15c-.78.49-1.55,1-2.33,1.44Zm27.71-24.68,14,10.9c-.56.72-1.13,1.44-1.71,2.15l-13.75-11.23C441.92,346.77,442.4,346.16,442.88,345.55Zm-3.71,4.5,13.36,11.68q-.9,1-1.83,2l-13.09-12C438.14,351.21,438.65,350.63,439.17,350.05Zm-19.11,17c.64-.44,1.28-.88,1.91-1.34l10.38,14.4c-.74.54-1.49,1.07-2.25,1.58Zm15.14-12.75,12.68,12.42c-.63.65-1.28,1.29-1.93,1.93L433.54,356C434.1,355.44,434.65,354.89,435.2,354.33Zm-10.44,9.32c.61-.47,1.22-.95,1.82-1.45L437.79,376c-.71.58-1.43,1.15-2.15,1.71ZM431,358.4l12,13.09-1.36,1.23-.69.61L429.26,360l.71-.63Z"/><path class="cls-1" d="M547.09,528.69s-3.6-.85-7.12-1.75-7-1.86-7-1.86l-9.29,6.31s3.41,1.08,6.9,2.12,7,2,7,2-.34,3.63-.77,7.32-.91,7.41-.91,7.41l10-6.79s.35-3.75.63-7.44S547.09,528.69,547.09,528.69Z"/><path class="cls-1" d="M562.88,515.92s-3.63-.59-7.19-1.24c-1.78-.32-3.55-.66-4.9-1l-2.23-.47-4.4,3.49c-2.17,1.78-4.46,3.41-4.46,3.41l2.21.56c1.34.35,3.09.76,4.86,1.14,3.53.79,7.14,1.52,7.14,1.52s-.09,3.66-.26,7.39c-.07,1.86-.17,3.73-.28,5.1l-.17,2.31s2.46-1.77,4.8-3.68l4.73-3.76s0-.92.09-2.31.08-3.24.09-5.11C562.93,519.59,562.88,515.92,562.88,515.92Z"/><path class="cls-1" d="M577.82,502.17l-2.26-.21c-1.35-.12-3.18-.33-5-.57-3.65-.46-7.22-1-7.22-1l-4.12,3.83L555,507.9s3.56.65,7.18,1.25c1.83.32,3.6.54,5,.73l2.26.3.1,2.31c0,1.38.14,3.27.14,5.09,0,3.67,0,7.4,0,7.4l4.58-3.94,4.43-4.11s-.11-3.73-.29-7.4c-.09-1.83-.2-3.65-.32-5S577.82,502.17,577.82,502.17Z"/><path class="cls-1" d="M591.83,487.46s-3.7-.12-7.33-.32-7.22-.45-7.22-.45L577,487c-.2.23-.5.56-.87.93-.75.74-1.74,1.74-2.73,2.73l-4,4s3.57.4,7.21.73,7.32.62,7.32.62.37,3.62.67,7.3.55,7.44.55,7.44l4.26-4.29,2.93-2.95c.4-.4.72-.75.94-1l.35-.39s-.38-3.74-.83-7.41S591.83,487.46,591.83,487.46Z"/><path class="cls-1" d="M604.79,471.83s-3.67.14-7.28.21c-1.8,0-3.63,0-5,0l-2.28,0-3.62,4.29c-1.78,2.18-3.7,4.23-3.7,4.23l2.27.11c1.39.08,3.18.13,5,.16,3.61.08,7.3.08,7.3.08s.63,3.61,1.2,7.3c.29,1.84.57,3.7.73,5.06s.28,2.29.28,2.29,2.07-2.21,4-4.55l3.9-4.62s-.15-.91-.37-2.28-.54-3.18-.91-5C605.57,475.42,604.79,471.83,604.79,471.83Z"/><path class="cls-1" d="M616.73,455.4s-3.61.42-7.29.67-7.26.48-7.26.48l-1,1.43c-.63.85-1.4,2-2.27,3.12l-3.45,4.43s3.61-.06,7.28-.19c1.84-.06,3.68-.15,5-.25l2.28-.15.55,2.24c.35,1.37.75,3.15,1.12,4.95.78,3.59,1.49,7.25,1.49,7.25l3.71-4.77c.94-1.19,1.78-2.45,2.45-3.36l1.1-1.54s-.86-3.64-1.77-7.2S616.73,455.4,616.73,455.4Z"/><path class="cls-1" d="M627.52,438.19s-3.66.62-7.26,1.15-7.16,1-7.16,1l-.25.41c-.15.27-.38.64-.67,1.08l-2.12,3.22-3.08,4.7s3.57-.32,7.2-.72,7.29-.86,7.29-.86,1.09,3.47,2.12,7,2,7.18,2,7.18l3.32-5.06,2.28-3.48c.31-.47.56-.87.73-1.15l.27-.45s-1.13-3.59-2.3-7.1S627.52,438.19,627.52,438.19Z"/><path class="cls-1" d="M637.09,420.28s-3.58.87-7.11,1.66c-1.77.39-3.52.78-4.88,1l-2.24.42-2.7,4.93c-.68,1.22-1.33,2.47-1.87,3.37l-.9,1.51s3.63-.51,7.16-1.18,7.17-1.38,7.17-1.38,1.34,3.41,2.64,6.9,2.47,7,2.47,7l1-1.62c.57-1,1.28-2.32,2-3.64l2.9-5.3-.82-2.17c-.48-1.28-1.19-3-1.91-4.74C638.56,423.64,637.09,420.28,637.09,420.28Z"/><path class="cls-1" d="M645.47,401.79l-2.17.69c-1.31.4-3,.95-4.81,1.44-3.53,1-7,1.91-7,1.91l-2.3,5.13-2.5,5s3.53-.77,7.1-1.64c1.81-.42,3.53-.9,4.85-1.26l2.2-.6s.4.83,1,2.08,1.4,3,2.12,4.63c1.47,3.36,2.89,6.81,2.89,6.81l2.69-5.41c1.25-2.76,2.49-5.52,2.49-5.52s-1.56-3.39-3.16-6.7c-.78-1.64-1.65-3.3-2.29-4.54Z"/><path class="cls-1" d="M652.63,382.78s-3.46,1.33-6.89,2.57-6.84,2.4-6.84,2.4-.92,2.65-2,5.24l-2.1,5.21s3.45-1,6.93-2.14l4.81-1.56,2.18-.74,1.1,2,2.37,4.45c1.72,3.27,3.4,6.63,3.4,6.63l2.26-5.61c1.17-2.79,2.17-5.65,2.17-5.65s-1.81-3.29-3.65-6.48S652.63,382.78,652.63,382.78Z"/><path class="cls-1" d="M658.43,363.32s-3.35,1.56-6.67,3l-4.55,2c-1.23.53-2.09.87-2.09.87l-1.7,5.35-1.16,3.69c-.3,1-.55,1.66-.55,1.66l2.12-.79,4.63-1.81c3.37-1.34,6.78-2.78,6.78-2.78s2,3.07,3.93,6.23l2.67,4.38,1.19,2s.26-.71.59-1.8.8-2.52,1.25-4l1.82-5.77s-.47-.78-1.25-2-1.81-2.72-2.84-4.27C660.52,366.31,658.43,363.32,658.43,363.32Z"/><path class="cls-1" d="M662.94,343.52s-3.21,1.78-6.4,3.48c-1.58.85-3.26,1.66-4.47,2.27l-2,1-1.28,5.47c-.29,1.37-.65,2.73-.94,3.74l-.47,1.69,2.08-.92c1.23-.57,2.94-1.31,4.55-2.11,3.25-1.57,6.53-3.23,6.53-3.23s2.21,2.94,4.39,6c1.11,1.52,2.11,3,2.9,4.18l1.3,1.92.5-1.82c.31-1.09.7-2.56,1-4l1.37-5.89-1.37-1.87c-.84-1.12-1.89-2.59-3.06-4.06C665.25,346.36,662.94,343.52,662.94,343.52Z"/><path class="cls-1" d="M666.15,323.47s-3,2-6.19,3.89-6.26,3.7-6.26,3.7l-.27,1.74c-.17,1-.33,2.44-.62,3.81-.53,2.76-1.07,5.52-1.07,5.52s3.19-1.69,6.4-3.47,6.34-3.65,6.34-3.65,2.46,2.79,4.74,5.65,4.61,5.8,4.61,5.8l1.14-5.93c.31-1.48.49-3,.68-4.11l.28-1.86s-2.4-2.86-4.83-5.63S666.15,323.47,666.15,323.47Z"/><path class="cls-1" d="M668,303.24s-3,2.2-6,4.29-6,4.12-6,4.12L656,313.4l-.44,3.84-.64,5.58s3.05-1.9,6.11-3.89,6.13-4.06,6.13-4.06,2.53,2.61,5.05,5.32,5,5.49,5,5.49l.68-6c.18-1.51.35-3,.47-4.13s.16-1.89.16-1.89-2.62-2.69-5.24-5.29S668,303.24,668,303.24Z"/><path class="cls-1" d="M668.52,282.94s-2.81,2.39-5.62,4.68L659,290.73l-1.81,1.39s-.11,2.81-.21,5.61c0,1.41-.1,2.81-.14,3.86s-.12,1.75-.12,1.75l1.86-1.31,4-3c2.9-2.18,5.8-4.46,5.8-4.46s2.72,2.44,5.44,5l3.74,3.52,1.64,1.62s0-.75.13-1.88.1-2.65.16-4.16l.22-6-1.7-1.56-3.87-3.38C671.34,285.27,668.52,282.94,668.52,282.94Z"/><path class="cls-1" d="M667.68,262.65s-2.62,2.57-5.25,5-5.44,4.87-5.44,4.87.11,2.81.23,5.61c.08,1.41,0,2.81,0,3.86v1.76s2.81-2.28,5.61-4.66,5.44-4.84,5.44-4.84,2.91,2.26,5.82,4.61,5.63,4.77,5.63,4.77v-1.89c0-1.13,0-2.64,0-4.15l-.24-6s-2.9-2.33-5.81-4.56S667.68,262.65,667.68,262.65Z"/><path class="cls-1" d="M665.53,242.46,664,244.15l-3.46,3.69c-2.52,2.66-5.06,5.22-5.06,5.22l.21,1.74c.13,1,.29,2.44.37,3.84l.44,5.6s2.63-2.46,5.25-5l3.6-3.55L667,254l1.92,1.3,4.11,2.91c3,2.15,6,4.39,6,4.39s-.23-3-.47-6c-.1-1.51-.27-3-.41-4.14s-.21-1.88-.21-1.88-3.08-2.12-6.15-4.16l-4.23-2.75Z"/><path class="cls-1" d="M662,222.45s-2.3,2.9-4.62,5.71-4.65,5.53-4.65,5.53.15.69.3,1.73.37,2.43.59,3.82l.87,5.55s2.43-2.63,4.86-5.36,4.83-5.52,4.83-5.52,3.14,1.85,6.29,3.8,6.31,4,6.31,4l-.93-6c-.23-1.49-.46-3-.64-4.1s-.32-1.87-.32-1.87-3.24-1.91-6.46-3.73S662,222.45,662,222.45Z"/><path class="cls-1" d="M657.14,202.74s-2.07,3-4.17,6-4.32,5.84-4.32,5.84.65,2.73,1.29,5.47c.32,1.36.67,2.72.87,3.76s.34,1.72.34,1.72,2.36-2.81,4.53-5.67,4.41-5.83,4.41-5.83,3.27,1.64,6.57,3.37,6.53,3.55,6.53,3.55l-.37-1.85c-.21-1.12-.59-2.58-.93-4.06-.7-2.94-1.39-5.88-1.39-5.88s-3.25-1.72-6.65-3.3S657.14,202.74,657.14,202.74Z"/><path class="cls-1" d="M651,183.38l-1.15,2c-.7,1.18-1.6,2.73-2.6,4.29-2,3.11-4,6.13-4,6.13l1.72,5.34,1.5,5.41s2.11-2.94,4.18-6c1.06-1.52,2-3,2.77-4.18s1.23-1.92,1.23-1.92l2.13.88c1.27.55,3,1.26,4.67,2,3.34,1.51,6.71,3.12,6.71,3.12s-.82-2.91-1.63-5.83l-1.84-5.76s-3.43-1.47-6.83-2.86c-1.68-.7-3.44-1.35-4.74-1.84Z"/><path class="cls-1" d="M643.6,164.47s-1.69,3.31-3.41,6.52-3.47,6.36-3.47,6.36,1.09,2.59,2,5.24l1.92,5.28s1.88-3.07,3.72-6.22l2.53-4.38,1.12-2,2.16.76,4.75,1.72c3.46,1.28,7,2.65,7,2.65l-2.07-5.69c-.53-1.41-1-2.85-1.45-3.89l-.72-1.75s-3.54-1.24-7-2.38S643.6,164.47,643.6,164.47Z"/><polygon class="cls-1" points="97.12 143.35 91.52 140.38 90.93 141.5 96.53 144.46 97.12 143.35"/><polygon class="cls-1" points="194.62 535.93 193.58 535.22 190 540.45 191.06 541.17 194.62 535.93"/><polygon class="cls-1" points="137.76 495.34 142.41 491.02 141.56 490.11 136.89 494.39 137.76 495.34"/><polygon class="cls-1" points="80.28 181.06 74.33 178.89 73.89 180.09 79.86 182.24 80.28 181.06"/><polygon class="cls-1" points="67.48 344.14 61.26 345.36 61.51 346.62 67.73 345.38 67.48 344.14"/><polygon class="cls-1" points="292.38 585.76 293.63 586.05 295.07 579.88 293.87 579.6 292.38 585.76"/><polygon class="cls-1" points="85.32 168.24 79.47 165.79 78.98 166.97 84.84 169.39 85.32 168.24"/><polygon class="cls-1" points="266.54 578.4 268.54 572.39 267.35 571.99 265.33 578 266.54 578.4"/><polygon class="cls-1" points="471.61 568.25 470.43 568.69 472.65 574.63 473.86 574.18 471.61 568.25"/><polygon class="cls-1" points="445.35 576.86 444.13 577.19 445.8 583.31 447.04 582.97 445.35 576.86"/><polygon class="cls-1" points="90.93 155.66 85.21 152.94 84.66 154.1 90.4 156.79 90.93 155.66"/><polygon class="cls-1" points="458.57 572.85 457.38 573.24 459.32 579.28 460.55 578.88 458.57 572.85"/><polygon class="cls-3" points="417.54 585.29 417.37 585.32 420.77 604.58 422.11 604.34 419.37 589.29 419.55 589.25 418.41 583.02 417.18 583.24 417.54 585.29"/><polygon class="cls-1" points="89.38 426.32 95.02 423.43 94.44 422.31 88.79 425.18 89.38 426.32"/><polygon class="cls-1" points="103.38 450.77 108.73 447.37 108.06 446.31 102.7 449.69 103.38 450.77"/><polygon class="cls-1" points="96.1 438.71 101.6 435.55 100.98 434.47 95.46 437.59 96.1 438.71"/><polygon class="cls-1" points="178.56 532.23 179.58 533 183.38 527.92 182.37 527.16 178.56 532.23"/><polygon class="cls-1" points="88.46 409.83 82.68 412.45 83.21 413.61 88.98 410.98 88.46 409.83"/><polygon class="cls-1" points="168.49 524.31 172.52 519.4 171.55 518.61 167.5 523.49 168.49 524.31"/><polygon class="cls-1" points="241.67 562.01 239.1 567.8 240.27 568.32 242.81 562.51 241.67 562.01"/><polygon class="cls-3" points="279.91 578.2 279.82 578.17 274.43 596.97 275.71 597.33 279.91 582.51 280 582.54 281.72 576.43 280.52 576.09 279.91 578.2"/><polygon class="cls-1" points="254.4 567.29 252.09 573.2 253.29 573.66 255.56 567.74 254.4 567.29"/><polygon class="cls-1" points="229.21 556.15 226.37 561.82 227.52 562.39 230.32 556.7 229.21 556.15"/><polygon class="cls-3" points="218.12 550.33 217.02 549.72 215.94 551.67 215.83 551.61 206.32 568.69 207.49 569.34 214.95 555.82 215.05 555.88 218.12 550.33"/><polygon class="cls-1" points="206.21 543.4 205.15 542.75 201.81 548.14 202.91 548.81 206.21 543.4"/><polygon class="cls-1" points="322.19 584.94 320.96 584.76 320.04 591.03 321.31 591.22 322.19 584.94"/><polygon class="cls-1" points="63.39 316.83 57.08 317.48 57.21 318.75 63.52 318.08 63.39 316.83"/><polygon class="cls-1" points="308.57 582.72 307.35 582.48 306.15 588.71 307.42 588.95 308.57 582.72"/><polygon class="cls-1" points="123.81 468.96 118.78 472.82 119.56 473.83 124.58 469.96 123.81 468.96"/><polygon class="cls-1" points="61.8 289.27 55.45 289.33 55.47 290.62 61.81 290.52 61.8 289.27"/><polygon class="cls-1" points="70.46 357.62 64.3 359.14 64.61 360.38 70.76 358.85 70.46 357.62"/><polygon class="cls-3" points="162.06 510.41 161.13 509.56 159.62 511.22 159.57 511.18 146.42 525.65 147.41 526.55 157.77 515.08 157.81 515.11 162.06 510.41"/><polygon class="cls-3" points="111.21 462.49 116.4 458.84 115.68 457.82 113.84 459.1 113.83 459.09 97.78 470.25 98.55 471.34 111.2 462.48 111.21 462.49"/><polygon class="cls-1" points="74.05 370.97 67.97 372.76 68.33 373.99 74.41 372.18 74.05 370.97"/><polygon class="cls-1" points="431.95 580.24 430.72 580.52 432.11 586.71 433.36 586.43 431.95 580.24"/><polygon class="cls-1" points="335.9 586.54 334.65 586.42 334.02 592.73 335.3 592.85 335.9 586.54"/><polygon class="cls-1" points="78.26 384.14 72.26 386.21 72.68 387.42 78.67 385.33 78.26 384.14"/><polygon class="cls-1" points="404.77 585.17 403.52 585.33 404.35 591.62 405.61 591.45 404.77 585.17"/><polygon class="cls-1" points="68.74 220.76 62.55 219.4 62.28 220.66 68.48 221.98 68.74 220.76"/><polygon class="cls-1" points="391.05 586.69 389.79 586.8 390.33 593.12 391.6 593.01 391.05 586.69"/><polygon class="cls-1" points="71.99 207.36 65.86 205.72 65.53 206.96 71.67 208.56 71.99 207.36"/><polygon class="cls-1" points="128.42 484.78 133.26 480.69 132.45 479.73 127.59 483.81 128.42 484.78"/><polygon class="cls-1" points="147.56 505.45 152.01 500.94 151.12 500.05 146.65 504.55 147.56 505.45"/><polygon class="cls-1" points="61.9 276.71 61.94 275.46 55.6 275.25 55.56 276.53 61.9 276.71"/><rect class="cls-1" x="359.65" y="590.4" width="6.34" height="1.27" transform="translate(-229.79 951.28) rotate(-89.75)"/><polygon class="cls-1" points="64.1 247.96 57.81 247.17 57.65 248.44 63.95 249.2 64.1 247.96"/><polygon class="cls-1" points="377.27 587.59 376.01 587.64 376.25 593.98 377.53 593.93 377.27 587.59"/><polygon class="cls-1" points="66.11 234.3 59.86 233.24 59.65 234.49 65.91 235.54 66.11 234.3"/><polygon class="cls-3" points="63.14 332.11 65.31 331.77 65.12 330.52 58.85 331.47 58.89 331.73 43.66 334.02 43.86 335.35 63.18 332.37 63.14 332.11"/><polygon class="cls-3" points="349.25 593.84 349.36 593.85 349.66 587.51 348.41 587.45 348.3 589.59 348.2 589.59 347.15 609.11 348.5 609.18 349.25 593.84"/><polygon class="cls-3" points="60.47 262.77 62.61 262.93 62.71 261.68 56.39 261.18 56.36 261.53 41.05 260.3 40.94 261.66 60.44 263.1 60.47 262.77"/><polygon class="cls-3" points="101.49 131.38 103.24 132.41 103.88 131.32 98.42 128.1 98.26 128.37 85.15 120.6 84.47 121.75 101.33 131.66 101.49 131.38"/><polygon class="cls-3" points="81.46 399.1 83.53 398.27 83.06 397.1 77.17 399.45 77.21 399.55 62.86 405.24 63.36 406.5 81.5 399.2 81.46 399.1"/><polygon class="cls-3" points="73.46 194.69 75.46 195.31 75.83 194.12 69.79 192.21 69.68 192.54 55.09 187.92 54.69 189.22 73.36 195 73.46 194.69"/><polygon class="cls-3" points="486.66 568.99 486.94 568.87 484.42 563.05 483.26 563.54 484.06 565.4 483.78 565.52 491.46 583.5 492.7 582.97 486.66 568.99"/><path class="cls-1" d="M175,151.15l1.06.7-1.88,2.8c-.41.64-.92,1.39-1.49,2.23-1,1.53-2.34,3.44-3.74,5.69a253.14,253.14,0,0,0-15.88,29.91A232.75,232.75,0,0,0,138.43,238a229.41,229.41,0,0,0,3.4,108.66,230,230,0,0,0,17.41,44.53c.62,1.14,1.22,2.28,1.82,3.4,1,1.91,2,3.71,3,5.44l4.66,7.8c.94,1.53,1.91,3,2.84,4.35.53.79,1,1.56,1.53,2.32l2,2.95c.39.59.8,1.15,1.2,1.68l.68.92c.94,1.26,1.8,2.44,2.58,3.5,1.2,1.65,2.24,3.07,3.08,4.1l2.53,3.11L159.9,451l1.14,1.4c.34.4.73.88,1.17,1.43.85,1.07,1.91,2.39,3.22,3.84l7.16,8c2.77,2.85,6.06,6.17,9.76,9.85l8.94,8.16c.69.6,1.41,1.2,2.14,1.8l8.07,6.67,7.49,5.59a252.93,252.93,0,0,0,33.77,20.92c2.55,1.42,5.22,2.67,7.79,3.88l1.3.61c.94.43,1.89.88,2.83,1.33,2.05,1,4.18,2,6.31,2.82,1.07.43,2.14.88,3.19,1.33,2,.82,4,1.67,6,2.4l3,1.11c2,.75,4.07,1.5,6.08,2.21a266.56,266.56,0,0,0,33.49,9l7.17,1.37,6.49,1c3,.5,5.71.79,8.12,1l2.49.28,1.49.16c.88.1,1.69.19,2.43.25l4.72.34,2.2-32.26,3,.21c1.1.11,2.54.15,4.38.2l2.29.07,1.6.05c1,0,2.05.08,3.16.07l6.72-.06c.66,0,1.33,0,2,0l3.29-.16c.8,0,1.63-.08,2.47-.12,1.49-.06,3-.12,4.59-.29a227.52,227.52,0,0,0,33.38-5,230.9,230.9,0,0,0,36.87-11.64A234.81,234.81,0,0,0,486,481.3a229.5,229.5,0,0,0,27.28-19.83c.68-.59,1.36-1.17,2-1.73,1.18-1,2.28-1.93,3.31-2.9l4.71-4.36c1.89-1.79,3.59-3.51,5.09-5l2.29-2.3,6.14-6.65.93.86L531.67,446c-.74.73-1.5,1.49-2.31,2.31-1.51,1.52-3.22,3.24-5.12,5.06l-4.71,4.36c-1,1-2.17,1.93-3.36,2.94-.67.56-1.34,1.13-2,1.72a230.79,230.79,0,0,1-27.44,19.95,235.88,235.88,0,0,1-34.62,17.67,230.57,230.57,0,0,1-70.62,16.71c-1.58.17-3.14.23-4.65.29-.83,0-1.65.07-2.45.12l-3.3.16c-.7,0-1.38,0-2.05,0l-6.72.06c-1.14,0-2.21,0-3.22-.07l-1.59-.05-2.29-.07c-1.86-.05-3.32-.09-4.45-.2L349,516.9l-2.2,32.26-6-.42c-.76-.06-1.59-.16-2.48-.26l-1.49-.16-2.49-.28c-2.42-.26-5.16-.55-8.18-1.06l-6.51-1-7.2-1.38a266.94,266.94,0,0,1-33.65-9.06c-2-.71-4.06-1.46-6.11-2.22l-3-1.11c-2-.74-4.07-1.6-6-2.43l-3.17-1.31c-2.17-.85-4.31-1.87-6.38-2.86l-2.82-1.32-1.3-.61c-2.6-1.22-5.29-2.48-7.86-3.91a254.72,254.72,0,0,1-33.92-21l-7.52-5.62-8.1-6.68c-.74-.61-1.47-1.22-2.18-1.83l-9-8.2c-3.73-3.69-7-7-9.81-9.9l-7.18-8c-1.33-1.48-2.41-2.82-3.27-3.89-.43-.54-.81-1-1.16-1.42l-1.95-2.4,25.19-20.28-1.73-2.12c-.86-1.06-1.91-2.49-3.12-4.15q-1.15-1.59-2.57-3.5c-.22-.31-.45-.6-.67-.91-.42-.55-.85-1.12-1.25-1.74l-2-3q-.74-1.12-1.53-2.31c-.93-1.39-1.9-2.83-2.86-4.39l-4.67-7.82c-1-1.76-2-3.57-3-5.49l-1.82-3.4A230.74,230.74,0,0,1,140.61,347a230.49,230.49,0,0,1-3.42-109.25A234.63,234.63,0,0,1,151.92,192a254.26,254.26,0,0,1,16-30.07c1.42-2.27,2.72-4.19,3.77-5.73.57-.84,1.07-1.57,1.48-2.22Z"/><path class="cls-1" d="M153.8,136.06l15.48,11.06-.54.75-15.55-11Zm-3.61,5.22L166,151.87l-.68,1-15.83-10.55Zm-3.6,5.49,16,10.2-.66,1L145.9,147.86Zm-3.45,5.56,16.3,9.81-.63,1.05-16.34-9.75ZM139.83,158l16.54,9.4-.59,1-16.6-9.29Zm-3.18,5.77,16.79,8.93-.57,1.08L136,164.9Zm-3,5.82,17,8.51-.55,1.09-17-8.44Zm-2.87,5.91L148,183.55l-.53,1.12-17.25-8Zm-2.72,6,17.43,7.63-.49,1.13-17.45-7.58Zm-2.56,6,17.61,7.19-.46,1.14L125,188.71Zm-2.41,6.11,17.79,6.74-.43,1.14-17.82-6.65Zm-2.25,6.17,18,6.29-.41,1.16-18-6.22Zm-2.1,6.24,18.11,5.8-.38,1.18-18.13-5.75Zm-1.93,6.27L135,217.65l-.34,1.18-18.27-5.29ZM115,218.6l18.37,4.93-.3,1.17-18.41-4.82ZM113.39,225l18.5,4.43-.28,1.19-18.52-4.35Zm-1.45,6.41,18.61,4-.26,1.2-18.62-3.88Zm-1.29,6.45,18.7,3.48-.22,1.21-18.72-3.41Zm-1.12,6.45,18.77,3.06-.18,1.17-18.8-2.9Zm-1,6.53,18.85,2.55-.16,1.21-18.86-2.47Zm-.8,6.54,18.92,2-.13,1.22-18.92-2Zm-.62,6.52,19,1.61-.1,1.21-19-1.49Zm-.47,6.58,19,1.1-.07,1.23-19-1Zm-.3,6.57,19,.63,0,1.2-19-.5Zm-.13,6.58,19,.15V285l-19-.08Zm0,6.58,19-.33,0,1.21-19,.44Zm.2,6.57,19-.79.05,1.18-19,1Zm.37,6.58,19-1.28.09,1.21-19,1.39Zm.54,6.58,18.94-1.79.12,1.22-18.93,1.87Zm.7,6.54L127,314.21l.15,1.22-18.88,2.34ZM109,323l18.83-2.74.18,1.22-18.82,2.81Zm1,6.5,18.75-3.21.21,1.19-18.73,3.34Zm1.2,6.5,18.66-3.73.24,1.21-18.64,3.8Zm1.37,6.46,18.55-4.22.28,1.2-18.53,4.29Zm1.54,6.4,18.44-4.68.3,1.19-18.42,4.77Zm1.7,6.38,18.31-5.16.34,1.2-18.3,5.21Zm1.86,6.32L135.84,356l.37,1.18-18.15,5.68Zm2,6.28,18-6.08.4,1.17-18,6.15Zm2.18,6.22,17.87-6.53.43,1.16-17.84,6.6Zm2.35,6.17,17.69-7,.45,1.13-17.65,7.09Zm2.51,6.12,17.5-7.46.48,1.14-17.47,7.52Zm2.66,6,17.3-7.9.52,1.13-17.28,8Zm2.82,6L149.29,390l.55,1.12-17.05,8.42Zm3,5.89,16.87-8.78.58,1.1-16.85,8.84Zm3.12,5.83,16.64-9.22.6,1.08-16.61,9.27Zm3.26,5.7,16.4-9.62.62,1.05-16.35,9.71Zm3.39,5.62,16.18-10,.63,1-16.09,10.15ZM148.5,427l15.91-10.43.67,1-15.84,10.53Zm3.68,5.45,15.66-10.81.67,1L153,433.52Z"/><path class="cls-3" d="M369.73,524.32l1.2,0,.51,19-1.33,0Zm6.08-.21,1.21-.06,1,19-1.33.07Zm6.08-.37,1.22-.09,1.48,19-1.31.1Zm6.08-.52,1.21-.13,2,18.92-1.31.14Zm6.07-.68,1.21-.16,2.44,18.87-1.31.16Zm6-.84,1.19-.18,2.93,18.79-1.31.21Zm6-1,1.22-.22,3.41,18.72-1.29.23Zm6-1.14,1.22-.25L417.16,538l-1.26.26Zm6-1.29,1.19-.27,4.38,18.5-1.28.31Zm5.93-1.45,1.19-.3L430,534.93l-1.28.33Zm5.9-1.59,1.16-.34,5.33,18.26-1.29.37Zm5.85-1.75,1.16-.37,5.78,18.13-1.26.39Zm5.8-1.9,1.14-.39,6.25,18-1.26.44Zm5.75-2,1.14-.43,6.7,17.81-1.24.46Zm5.69-2.19,1.14-.46,7.14,17.63L460,525ZM458.6,505l1.12-.49,7.6,17.44-1.21.52Zm5.58-2.49,1.1-.51,8.06,17.23-1.21.56Zm5.51-2.62,1.09-.54,8.5,17-1.19.59Zm5.45-2.77,1.07-.57,8.93,16.8L484,514Zm5.36-2.9,1.07-.6,9.36,16.56-1.15.64Zm5.29-3.05,1.06-.63,9.77,16.32-1.12.67ZM491,488l1-.66,10.19,16.07-1.12.7Zm5.13-3.32,1-.68,10.61,15.8-1.1.73ZM543.05,444l14.21,12.65-.87,1-14.16-12.71Zm-41.86,37.3,1-.71,11,15.52-1.08.76Zm37.74-32.79,13.9,13-.9.95L538.1,449.37Zm-32.77,29.21,1-.73,11.39,15.24-1.06.78Zm28.55-24.8,13.56,13.34-.93.94-13.48-13.42ZM511,474l1-.75,11.78,14.93-1,.82Zm19.35-16.81,13.22,13.67-1,.92L529.5,458Zm-14.58,13,1-.78L528.9,484l-1,.84Zm10.14-8.81,12.86,14-1,.89L525,462.17Zm-5.47,4.87.93-.8,12.5,14.33-1,.86Z"/><path class="cls-1" d="M196.38,440.78l.59.63a229.07,229.07,0,0,0,135.5,70.5l.85.12-3.83,27.31-.85-.12a256.6,256.6,0,0,1-151.84-79l-.59-.63Zm135,72.72A230.78,230.78,0,0,1,196.3,443.22l-17.64,16.45A254.89,254.89,0,0,0,328,537.39Z"/><path class="cls-1" d="M307.36,418.32l4.65,1.8c.5.18,1.05.4,1.62.62,1.1.43,2.35.92,3.72,1.39l9.07,2.79,6.5,1.52c2.56.67,5.25,1.1,8.1,1.55l1.5.24c2.82.53,5.7.78,8.74,1l1.64.14a76,76,0,0,0,7.83.39c1,0,2,0,2.95.06l2.72.05,8.07-.39a41.81,41.81,0,0,0,4.23-.37l6.16-.73a35.08,35.08,0,0,0,3.48-.56l1.43-.27,4.71-.89c1.5-.25,2.92-.63,4.3-1l4.2-1.11c.46-.13.91-.25,1.37-.36.83-.22,1.62-.42,2.36-.68l8.75-3c2.2-.89,3.7-1.53,4.29-1.78l-5.88-14,3.64-1.54a22.22,22.22,0,0,0,2.41-1.12l6.47-3.3c1.5-.83,3.1-1.81,4.79-2.84,1.05-.64,2.14-1.31,3.27-2,.92-.57,1.82-1.22,2.77-1.9.53-.39,1.07-.78,1.63-1.17s1.09-.78,1.65-1.17c1-.69,2-1.4,3-2.2l4.69-3.88.87-.72c.51-.41,1-.84,1.53-1.3l2.33-2.19a128.82,128.82,0,0,0,30.53-44,128.55,128.55,0,0,0,7.06-22.4c.68-2.89,1.12-5.65,1.51-8.08l.18-1.17c.26-1.81.44-3.49.6-5,.09-.79.17-1.53.25-2.22l.39-6.3.64,0-.4,6.32c-.08.7-.16,1.44-.25,2.23-.16,1.49-.34,3.18-.6,5l-.19,1.17c-.39,2.44-.83,5.21-1.51,8.12A128.93,128.93,0,0,1,471,359.42a130.87,130.87,0,0,1-17.66,20.49l-2.34,2.2c-.51.47-1,.9-1.56,1.33l-.86.7-4.7,3.89c-1,.81-2,1.53-3,2.23-.56.39-1.11.77-1.65,1.17l-1.63,1.16c-1,.69-1.86,1.34-2.81,1.93-1.13.67-2.22,1.34-3.27,2-1.7,1-3.3,2-4.82,2.86l-6.48,3.3a19.06,19.06,0,0,1-2.46,1.14l-3.05,1.3,5.88,14-.29.12s-1.7.75-4.61,1.92l-8.76,3c-.77.26-1.57.46-2.41.68l-1.37.36L399,426.32a43.45,43.45,0,0,1-4.36,1l-4.7.9c-.48.08-.95.17-1.43.27a35.82,35.82,0,0,1-3.54.56l-6.14.73a43,43,0,0,1-4.29.37l-8.08.39-2.74,0-2.95-.06a77,77,0,0,1-7.88-.4l-1.63-.14c-3.06-.27-5.95-.52-8.8-1.06l-1.49-.24a82.42,82.42,0,0,1-8.15-1.56l-6.52-1.52-9.1-2.79c-1.39-.49-2.64-1-3.75-1.41l-1.62-.62-4.65-1.8Z"/><path class="cls-3" d="M496.92,290.47l8.87.34A142,142,0,0,1,426.1,412.9l-3.88-8a133.11,133.11,0,0,0,30.33-20.34A131.65,131.65,0,0,0,496.92,290.47Z"/><path class="cls-1" d="M407.06,411.11l2.86,8.4a140.47,140.47,0,0,1-110.69-8.21c1.37-2.79.73-1.53,4.08-7.89A131.68,131.68,0,0,0,407.06,411.11Z"/><rect class="cls-1" x="488.77" y="445.34" width="36.94" height="1.27" transform="translate(-168.16 450.35) rotate(-41.69)"/><rect class="cls-1" x="481.35" y="433.84" width="31.3" height="1.27" transform="translate(-163.11 440.63) rotate(-41.69)"/><rect class="cls-1" x="473.94" y="422.35" width="25.66" height="1.27" transform="translate(-158.05 430.91) rotate(-41.69)"/><rect class="cls-1" x="466.52" y="410.85" width="20.01" height="1.27" transform="translate(-153 421.19) rotate(-41.69)"/><rect class="cls-1" x="459.1" y="399.36" width="14.37" height="1.27" transform="translate(-147.95 411.46) rotate(-41.69)"/><rect class="cls-1" x="278.1" y="202.52" width="25.34" height="0.87" transform="translate(-61.35 244.81) rotate(-41.69)"/><rect class="cls-1" x="287.06" y="210.4" width="21.47" height="0.87" transform="translate(-64.81 251.48) rotate(-41.69)"/><rect class="cls-1" x="296.01" y="218.29" width="17.6" height="0.87" transform="translate(-68.28 258.14) rotate(-41.69)"/><rect class="cls-1" x="304.97" y="226.17" width="13.73" height="0.87" transform="translate(-71.74 264.81) rotate(-41.69)"/><rect class="cls-1" x="313.93" y="234.05" width="9.86" height="0.87" transform="translate(-75.21 271.48) rotate(-41.69)"/><path class="cls-1" d="M575.37,54.23l.5.44c17.06,15.21,32.37,33.19,46.79,55l.35.53L598.6,126.32l-.35-.53c-13-19.61-26.78-35.78-42.15-49.45l-.44-.4,1.6-2,5.36-.62,3.64-4.62,1.78-.21,3.24-4.09-.51-4.32Zm45.89,55.57C607.13,88.57,592.17,71,575.53,56.07l-3.44,4.35.51,4.32-3.89,4.92-1.78.21-3.64,4.61-5.36.63-.54.68c15.14,13.54,28.74,29.5,41.57,48.77Z"/><path class="cls-1" d="M514.48,11.41l.56.31c21.42,11.52,39.5,24,55.28,38l.44.4-4.22,5.35.5,4.32-3.88,4.92-1.78.21-3.65,4.61-5.35.63-1.33,1.68-.5-.45C536.46,58.88,520.32,47.79,501.2,37.5l-.56-.3ZM569,50.29c-15.46-13.71-33.15-25.88-54-37.16L502.35,36.68C521.1,46.81,537,57.73,550.89,70l.82-1,5.35-.63,3.65-4.61,1.78-.21,3.23-4.09-.51-4.32Z"/><polyline class="cls-4" points="81.26 477.86 81.26 483.36 75.76 483.36"/><polyline class="cls-4" points="39.54 483.36 34.04 483.36 34.04 477.86"/><polyline class="cls-4" points="34.04 464.82 34.04 459.32 39.54 459.32"/><polyline class="cls-4" points="75.76 459.32 81.26 459.32 81.26 464.82"/><polyline class="cls-4" points="47.72 388.76 47.72 394.26 42.22 394.26"/><polyline class="cls-4" points="6 394.26 0.5 394.26 0.5 388.76"/><polyline class="cls-4" points="0.5 375.73 0.5 370.23 6 370.23"/><polyline class="cls-4" points="42.22 370.23 47.72 370.23 47.72 375.73"/><polyline class="cls-4" points="215.76 598.94 215.76 604.44 210.26 604.44"/><polyline class="cls-4" points="174.05 604.44 168.55 604.44 168.55 598.94"/><polyline class="cls-4" points="168.55 585.91 168.55 580.41 174.05 580.41"/><polyline class="cls-4" points="210.26 580.41 215.76 580.41 215.76 585.91"/><polyline class="cls-5" points="324.84 136.22 324.84 141.76 319.3 141.76"/><polyline class="cls-5" points="179.98 141.76 174.44 141.76 174.44 136.22"/><polyline class="cls-5" points="174.44 118.79 174.44 113.25 179.98 113.25"/><polyline class="cls-5" points="319.3 113.25 324.84 113.25 324.84 118.79"/></g></g></svg>