<svg xmlns="http://www.w3.org/2000/svg" viewBox="0 0 134.42 136.84"><defs><style>.cls-1{opacity:0.3;}.cls-2{fill:#6cf;}</style></defs><title>资源 4</title><g id="图层_2" data-name="图层 2"><g id="Layer_1" data-name="Layer 1"><g class="cls-1"><path class="cls-2" d="M80,31.49H69.36l-1.9-1.9H67l-1.9,1.9H54.41l-4.66-8.08L63.27,0h7.89L84.68,23.41Zm-9.83-2h8.68l3.51-6.08L70,2H64.42L52.06,23.41l3.51,6.08h8.67l1.9-1.9h2.15Z"/></g><path class="cls-2" d="M67.69,6h-1L56.68,23.41l1.2,2.08h4.7l.56-.55v-.79l.55-.56h7l.56.56v.79l.55.55h4.71l1.2-2.08ZM72,20.59H62.45l-1.61,1.62,6.37-11,6.37,11Z"/><g class="cls-1"><path class="cls-2" d="M31,116.42h-27L0,109.58,13.52,86.17h9.33l5.32,9.23L27.48,98l.24.42,2.6.7,5.32,9.23Zm-25.88-2H29.83l3.51-6.08L29,100.83l-2.59-.7-1.08-1.86.7-2.59-4.34-7.51h-7L2.31,109.58Z"/></g><path class="cls-2" d="M6.93,109.58l.48.84H27.52l1.2-2.08-2.36-4.08-.75-.2-.69.39-.76-.2-3.51-6.09.2-.76.68-.4.21-.75-2.36-4.08H17Zm10.5-11,4.76,8.25,2.2.59H11.64l6.38-11Z"/><g class="cls-1"><path class="cls-2" d="M103.44,116.42l-4.66-8.08,5.33-9.23,2.59-.7L107,98l-.7-2.59,5.33-9.23h9.33l13.51,23.41-3.94,6.84Zm-2.35-8.08,3.51,6.08h24.73l2.79-4.84L119.75,88.17h-7l-4.33,7.51.69,2.59L108,100.13l-2.59.7Z"/></g><path class="cls-2" d="M127,110.42l.48-.84L117.44,92.17H115l-2.35,4.08.2.75.69.4.2.76-3.52,6.09-.76.2-.68-.39-.76.2-2.35,4.08,1.2,2.08Zm-14.78-3.59L117,98.58l-.59-2.2,6.37,11H110Z"/><path class="cls-2" d="M126.63,91.26l-1-.26A60.55,60.55,0,0,0,82.88,16.88l.25-1a61.52,61.52,0,0,1,43.5,75.35Z"/><path class="cls-2" d="M7.79,91.26a61.55,61.55,0,0,1,43.5-75.35l.26,1A60.52,60.52,0,0,0,8.76,91Z"/><path class="cls-2" d="M67.21,136.84a61.44,61.44,0,0,1-43.49-18l.71-.71a60.48,60.48,0,0,0,85.57,0l.7.71a61.44,61.44,0,0,1-43.49,18Z"/><path class="cls-2" d="M68.75,43.25a1.54,1.54,0,1,1-3.07,0,1.54,1.54,0,0,1,3.07,0Z"/><path class="cls-2" d="M39.3,58.48a1.53,1.53,0,0,1,.56,2.1,1.54,1.54,0,1,1-.56-2.1Z"/><path class="cls-2" d="M37.76,91.6a1.54,1.54,0,0,1,1.54,2.66,1.54,1.54,0,0,1-1.54-2.66Z"/><path class="cls-2" d="M65.68,109.48A1.54,1.54,0,1,1,67.21,111,1.53,1.53,0,0,1,65.68,109.48Z"/><path class="cls-2" d="M95.12,94.26a1.55,1.55,0,0,1-.56-2.1,1.53,1.53,0,1,1,.56,2.1Z"/><path class="cls-2" d="M96.66,61.14a1.54,1.54,0,1,1,.56-2.1A1.55,1.55,0,0,1,96.66,61.14Z"/><path class="cls-2" d="M74.41,96.87a.47.47,0,0,1-.63-.3L73,94.2a.49.49,0,0,1,.24-.63l1.11-.41,1.06-.51a.44.44,0,0,1,.37,0s.37.19.74.33l.75.29a.45.45,0,0,0,.39,0,12.93,12.93,0,0,0,1.56-1.07,14.1,14.1,0,0,0,1.49-1.26,16.88,16.88,0,0,0,1.55-1.6c.51-.55.92-1.2,1.36-1.76s.72-1.17,1-1.65l.83-1.71a.42.42,0,0,0,0-.39L85,83.09l-.43-.68a.4.4,0,0,1,0-.36,3.24,3.24,0,0,0,.12-.35c0-.21.12-.5.2-.79s.14-.56.2-.78a2.42,2.42,0,0,0,.06-.36.47.47,0,0,1,.56-.34l2.47.4a.51.51,0,0,1,.41.59,6.67,6.67,0,0,1-.21,1,18.5,18.5,0,0,1-.74,2.47,21.51,21.51,0,0,1-3.93,6.7,22.15,22.15,0,0,1-6,4.9A21.77,21.77,0,0,1,74.41,96.87Z"/><path class="cls-2" d="M49.94,89.55a.49.49,0,0,1,.1-.7l2-1.47a.47.47,0,0,1,.66.05l.22.29a5.18,5.18,0,0,0,.52.62l.79.87a.44.44,0,0,1,.12.35l-.08.79c0,.41,0,.82,0,.82a.48.48,0,0,0,.15.36,3.16,3.16,0,0,0,.4.34l1.11.82c.45.34,1,.65,1.64,1s1.32.66,2,1,1.41.56,2.1.73,1.33.38,1.89.46l1.36.2a3.24,3.24,0,0,0,.52.06.46.46,0,0,0,.36-.16s.28-.3.55-.61l.51-.61a.37.37,0,0,1,.33-.15s2.36-.09,2.35-.16a.46.46,0,0,1,.5.42l.37,2.48a.51.51,0,0,1-.43.57,22.29,22.29,0,0,1-11.14-1.49,21.48,21.48,0,0,1-6.51-4.26,22.61,22.61,0,0,1-1.77-1.86C50.14,89.84,49.94,89.55,49.94,89.55Z"/><path class="cls-2" d="M49.33,64a.52.52,0,0,1,.71-.11l2,1.47a.47.47,0,0,1,.15.64,1.35,1.35,0,0,0-.21.3l-.42.69-.42.7L51,68a.38.38,0,0,1-.29.21l-.79.17-.81.2a.4.4,0,0,0-.29.26s-.28.71-.63,1.79c-.14.55-.33,1.19-.47,1.88s-.26,1.45-.3,2.21a21.49,21.49,0,0,0,.1,4.17c.09.56.16,1,.21,1.36a4.82,4.82,0,0,0,.12.51.47.47,0,0,0,.25.3l.75.33.73.3a.49.49,0,0,1,.27.26l.4,1.1a5.5,5.5,0,0,0,.31.75l.16.33a.47.47,0,0,1-.26.61l-2.23,1.12a.5.5,0,0,1-.67-.24l-.42-.88c-.19-.59-.56-1.4-.83-2.44a21.38,21.38,0,0,1-.76-7.73,21.88,21.88,0,0,1,2-7.51,17.92,17.92,0,0,1,1.24-2.25l.38-.62Z"/><path class="cls-2" d="M73.44,55.53a.5.5,0,0,1,.34.63L73,58.54a.5.5,0,0,1-.57.35L71.3,58.6a4.72,4.72,0,0,0-.79-.17l-.36,0a.42.42,0,0,1-.3-.22l-.4-.71c-.21-.36-.44-.69-.44-.69a.46.46,0,0,0-.34-.19l-.52,0a9.49,9.49,0,0,0-1.37,0,19.71,19.71,0,0,0-4.14.53,15.51,15.51,0,0,0-2.13.63l-1,.36c-.29.12-.57.27-.83.39a11.47,11.47,0,0,0-1.67.89.47.47,0,0,0-.21.33l-.09.8c0,.39-.05.81-.05.81a.39.39,0,0,1-.16.33l-.94.71-.87.79a.49.49,0,0,1-.67-.07l-1.76-1.78a.48.48,0,0,1,0-.7l.72-.65a25.44,25.44,0,0,1,2-1.57,22.06,22.06,0,0,1,7.13-3.1A22.34,22.34,0,0,1,70,54.81l1.44.22c.42.07.78.19,1.09.26Z"/><path class="cls-2" d="M88.94,75.86a.48.48,0,0,1-.48.51H86a.5.5,0,0,1-.52-.43l-.06-1.18a5.62,5.62,0,0,0-.1-.8l0-.37a.38.38,0,0,1,.12-.34l.55-.61c.28-.31.51-.62.51-.62a.41.41,0,0,0,.08-.38l-.13-.51A7.68,7.68,0,0,0,86,69.82a13.62,13.62,0,0,0-.73-1.8l-.47-1c-.17-.33-.39-.65-.58-1a18.52,18.52,0,0,0-2.52-3.32,10.45,10.45,0,0,0-1-1l-.39-.35a.45.45,0,0,0-.37-.11s-.39.06-.8.17l-.79.21a.41.41,0,0,1-.36-.05l-.29-.23A5.38,5.38,0,0,0,77,61l-1-.61a.47.47,0,0,1-.16-.64L77,57.51a.51.51,0,0,1,.69-.21l.84.5c.26.17.59.35.95.6l1.16.87a21.77,21.77,0,0,1,7.95,13.06,18.82,18.82,0,0,1,.32,2.55C88.92,75.5,88.94,75.86,88.94,75.86Z"/></g></g></svg>