<svg xmlns="http://www.w3.org/2000/svg" viewBox="0 0 30.67 28.05"><defs><style>.cls-1{fill:#375d81;}</style></defs><title>资源 15</title><g id="图层_2" data-name="图层 2"><g id="Layer_1" data-name="Layer 1"><path class="cls-1" d="M19,15.39a3.66,3.66,0,0,0-2.1-3.31,3.58,3.58,0,0,0-3.13,0,3.66,3.66,0,0,0-2.1,3.31,2.64,2.64,0,0,0,0,.29,3.65,3.65,0,0,0,3.65,3.37,3.61,3.61,0,0,0,2.07-.65A3.66,3.66,0,0,0,19,15.68,2.64,2.64,0,0,0,19,15.39Zm-3.66-4.84A4.75,4.75,0,0,1,17.4,11l4.52-9.54a15.39,15.39,0,0,0-13.17,0L13.27,11A4.73,4.73,0,0,1,15.34,10.55Zm-4.82,5.23L0,16.64A15.36,15.36,0,0,0,6.59,28l6-8.68A4.83,4.83,0,0,1,10.52,15.78Zm9.63,0a4.83,4.83,0,0,1-2.07,3.58l6,8.69a15.4,15.4,0,0,0,6.59-11.41Z"/></g></g></svg>