<svg xmlns="http://www.w3.org/2000/svg" viewBox="0 0 349.4 124.67"><defs><style>.cls-1{fill:#abc8e2;}.cls-2{fill:#0b1623;}.cls-3{fill:#1b303f;}.cls-4{fill:#375d81;}</style></defs><title>资源 20</title><g id="图层_2" data-name="图层 2"><g id="Layer_1" data-name="Layer 1"><path class="cls-1" d="M334,94V25.46L326.56,18H159.45L147.59,6.14,63.27,5.92V5.24l84.6.22,11.87,11.87H326.85l7.85,7.85V94ZM63.27,5.92Z"/><polygon class="cls-1" points="63.27 117.55 63.27 116.87 334.22 116.87 343.84 107.26 343.84 55.47 344.51 55.47 344.51 107.54 334.5 117.55 63.27 117.55 63.27 117.55"/><path class="cls-2" d="M344.18,60.35a4.89,4.89,0,1,1,4.88-4.88,4.89,4.89,0,0,1-4.88,4.88Z"/><path class="cls-1" d="M344.18,50.24A5.23,5.23,0,1,1,339,55.47a5.23,5.23,0,0,1,5.23-5.23m0,.68a4.55,4.55,0,1,0,4.54,4.55,4.55,4.55,0,0,0-4.54-4.55Z"/><path class="cls-3" d="M344.18,52.17a3.3,3.3,0,1,0,3.3,3.3,3.31,3.31,0,0,0-3.3-3.3Z"/><path class="cls-2" d="M334.36,98.88A4.89,4.89,0,1,1,339.25,94a4.89,4.89,0,0,1-4.89,4.88Z"/><path class="cls-1" d="M334.36,88.77A5.23,5.23,0,1,1,329.14,94a5.23,5.23,0,0,1,5.22-5.23m0,.68A4.55,4.55,0,1,0,338.91,94a4.56,4.56,0,0,0-4.55-4.55Z"/><path class="cls-3" d="M334.36,90.7a3.3,3.3,0,1,0,3.3,3.3,3.3,3.3,0,0,0-3.3-3.3Z"/><polygon class="cls-1" points="153.42 5.78 161.91 14.27 199.86 14.27 191.37 5.78 153.42 5.78"/><polygon class="cls-4" points="195.45 5.78 203.94 14.27 241.89 14.27 233.4 5.78 195.45 5.78"/><polygon class="cls-3" points="237.48 5.78 245.98 14.27 283.92 14.27 275.43 5.78 237.48 5.78"/><polygon class="cls-1" points="117.65 49.08 117.65 48.94 139 48.94 139 49.08 117.65 49.08 117.65 49.08"/><path class="cls-1" d="M129.49,44.6l-5-5h-9.88v-.14h9.94l5,5H139v.14Zm-14.83-5Z"/><path class="cls-2" d="M140.15,44.53A1.15,1.15,0,1,1,139,43.38,1.15,1.15,0,0,1,140.15,44.53Z"/><path class="cls-1" d="M137.79,44.53A1.22,1.22,0,0,1,139,43.31h0a1.22,1.22,0,0,1,1.22,1.22h0A1.22,1.22,0,0,1,139,45.75h0a1.22,1.22,0,0,1-1.21-1.22Zm.13,0A1.08,1.08,0,0,0,139,45.61h0a1.08,1.08,0,0,0,1.08-1.08h0A1.08,1.08,0,0,0,139,43.45h0a1.08,1.08,0,0,0-1.08,1.08Z"/><path class="cls-2" d="M140.15,49A1.15,1.15,0,1,1,139,47.86,1.15,1.15,0,0,1,140.15,49Z"/><path class="cls-1" d="M137.79,49A1.22,1.22,0,0,1,139,47.79h0A1.22,1.22,0,0,1,140.22,49h0A1.22,1.22,0,0,1,139,50.23h0A1.22,1.22,0,0,1,137.79,49Zm.13,0A1.08,1.08,0,0,0,139,50.09h0A1.08,1.08,0,0,0,140.08,49h0A1.08,1.08,0,0,0,139,47.93h0A1.08,1.08,0,0,0,137.92,49Z"/><polygon class="cls-1" points="119.01 58.51 119.01 58.37 124.54 58.37 129.49 53.42 139 53.42 139 53.56 129.54 53.56 124.6 58.51 119.01 58.51 119.01 58.51"/><path class="cls-2" d="M140.15,53.49A1.15,1.15,0,1,0,139,54.64,1.15,1.15,0,0,0,140.15,53.49Z"/><path class="cls-1" d="M137.79,53.49A1.22,1.22,0,0,1,139,52.27h0a1.22,1.22,0,0,1,1.22,1.22h0A1.22,1.22,0,0,1,139,54.71h0a1.22,1.22,0,0,1-1.21-1.22Zm.13,0A1.08,1.08,0,0,0,139,54.57h0a1.08,1.08,0,0,0,1.08-1.08h0A1.08,1.08,0,0,0,139,52.41h0a1.08,1.08,0,0,0-1.08,1.08Z"/><path class="cls-4" d="M32.62,110.45l-.85-.55-3,4.55.93.59c.31.2.62.4.94.59L33.47,111C33.18,110.81,32.9,110.62,32.62,110.45Z"/><path class="cls-3" d="M38.82,113.82l-.91-.43-.9-.46c-.3-.15-.61-.3-.9-.46l-.89-.48c-.29-.16-.58-.34-.87-.51l-2.71,4.7c.31.19.63.37,1,.55l1,.53,1,.5c.32.17.65.35,1,.51l1,.47,1,.45,2.21-5C39.43,114.1,39.12,114,38.82,113.82Z"/><path class="cls-4" d="M41.6,115l-2,5,1,.4,1.95-5.06Z"/><path class="cls-1" d="M59.23,119.09l-1-.08-1-.08-.57,5.39,1.1.09,1.1.09,1.11.08.28-5.42C59.9,119.15,59.57,119.11,59.23,119.09Z"/><path class="cls-4" d="M40.66,114.66l-2.12,5,1,.41,2-5Z"/><path class="cls-1" d="M43.48,115.77l-1.86,5.09,1.05.36,1.76-5.13Z"/><path class="cls-3" d="M55.22,118.67c-.34,0-.67-.08-1-.14l-1-.17-1-.18-1-.2-1-.23-1-.22-1-.25-1.4,5.23,1.07.28L49,123l1.07.25,1.08.21,1.09.2,1.09.19c.36.06.73.1,1.09.15l1.1.14.66-5.38Z"/><path class="cls-1" d="M46.35,116.72l-1-.31-1.68,5.16,1.06.34c.35.11.7.2,1.06.3L47.32,117Z"/><path class="cls-3" d="M5.5,64.42c0-.33,0-.67,0-1s0-.67,0-1L0,62.5c0,.37,0,.74,0,1.1s0,.74,0,1.11.06.73.08,1.1l5.41-.38C5.56,65.09,5.52,64.76,5.5,64.42Z"/><path class="cls-4" d="M7.39,76.37c-.08-.33-.17-.65-.25-1s-.15-.65-.23-1-.16-.66-.23-1-.13-.66-.19-1-.12-.66-.18-1l-.18-1c0-.34-.09-.67-.14-1L.62,70.2c.06.37.1.73.16,1.09S.91,72,1,72.38s.13.73.19,1.09.14.72.22,1.08.16.72.25,1.08.16.72.25,1.08l.27,1.06c.1.36.2.71.31,1.07l5.21-1.5C7.58,77,7.48,76.7,7.39,76.37Z"/><path class="cls-1" d="M5.74,67.44c0-.33,0-.67-.08-1l-5.41.47c0,.36.06.73.1,1.1s.09.73.13,1.1l5.39-.67C5.83,68.11,5.77,67.78,5.74,67.44Z"/><path class="cls-3" d="M16.48,95.39c-.2-.27-.39-.55-.59-.83s-.4-.54-.58-.82-.36-.56-.55-.84l-.54-.85-.54-.86-.5-.87c-.17-.29-.34-.58-.5-.88s-.33-.59-.49-.88-.3-.6-.46-.9l-.46-.9c-.14-.3-.29-.61-.43-.92s-.28-.61-.41-.92-.29-.61-.42-.92-.25-.62-.37-.93-.25-.63-.37-.94S9,81.5,8.9,81.19s-.21-.64-.32-1l-.33-1c-.1-.32-.21-.64-.31-1L2.76,79.9c.1.35.22.7.33,1l.36,1c.12.34.23.7.35,1s.27.69.4,1,.27.69.41,1,.26.69.41,1,.3.67.45,1,.3.67.46,1,.31.67.47,1,.33.65.5,1,.33.66.51,1,.35.65.52,1l.55,1c.19.32.36.64.55,1s.39.63.59.94l.6.93c.2.31.38.62.59.93l.64.89c.21.31.42.61.64.91s.43.59.65.89l4.33-3.27Z"/><path class="cls-1" d="M105.57,100.84l4,3.7c.25-.27.51-.53.76-.81l-4-3.63Z"/><path class="cls-1" d="M104.87,101.57l3.9,3.77c.26-.26.51-.53.76-.8l-4-3.7C105.34,101.09,105.11,101.33,104.87,101.57Z"/><path class="cls-3" d="M114.35,88.56l-.48.88-.51.88c-.16.29-.33.59-.5.87s-.36.57-.53.86-.37.57-.55.85-.36.57-.55.85-.39.55-.58.82-.39.55-.59.82-.39.55-.59.82-.42.53-.62.79l-.63.8-.64.78-.66.76L111,102.9l.72-.84.71-.85c.23-.28.45-.58.68-.87s.46-.57.68-.87.43-.59.65-.89.43-.6.64-.9.43-.59.64-.9.4-.62.6-.93.4-.61.59-.93.4-.62.59-.93.37-.64.55-1,.37-.63.55-1,.36-.64.53-1Z"/><path class="cls-4" d="M79.21,117l-1,.28-1,.25-1,.23-1,.23,1.13,5.3c.36-.07.72-.16,1.08-.25l1.08-.25,1.06-.27,1.07-.3Z"/><path class="cls-3" d="M74.3,118.18l-1,.18-1,.18-1,.13-1,.13-1,.13-1,.08-1,.08c-.34,0-.67.06-1,.07s-.67,0-1,0l-1,0-1,0h0l-1,0-1,0-.19,5.42,1.1,0c.37,0,.74,0,1.11,0h0c.37,0,.73,0,1.1,0s.74,0,1.1,0l1.11,0,1.1-.08,1.1-.09,1.1-.08,1.1-.14c.36,0,.73-.09,1.09-.15s.73-.09,1.09-.15.73-.13,1.09-.19l1.09-.19Z"/><path class="cls-4" d="M120.68,68.44c0,.34-.08.67-.13,1s-.08.66-.14,1-.12.66-.17,1l-.18,1c-.07.33-.13.67-.2,1s-.15.66-.22,1-.15.66-.23,1-.17.66-.26,1-.18.65-.27,1-.18.65-.28,1-.2.64-.31,1-.21.64-.32,1-.21.64-.32,1-.25.62-.37.94-.24.62-.37.94-.24.63-.38.94-.27.61-.41.91l-.42.93c-.14.3-.28.61-.43.91s-.3.6-.46.9l4.83,2.46.51-1c.16-.33.31-.67.47-1l.45-1c.15-.34.31-.67.46-1s.27-.68.41-1,.27-.69.4-1,.27-.68.4-1,.24-.7.36-1,.24-.7.35-1,.23-.7.34-1,.2-.71.3-1.06.21-.71.3-1.07.19-.71.28-1.06.17-.72.25-1.08.17-.72.25-1.08l.21-1.08c.07-.36.13-.73.19-1.09s.14-.72.2-1.09.1-.72.15-1.09.1-.73.14-1.09Z"/><path class="cls-4" d="M105.61,14.38l-.84-.72-3.55,4.09.76.66c.25.22.49.46.74.69l3.7-4Z"/><path class="cls-1" d="M100.45,17.09l3.49-4.15-.85-.71-3.41,4.21Z"/><path class="cls-4" d="M108.78,17.46c-.26-.27-.51-.54-.77-.8l-.79-.76-3.77,3.89.73.7h0c.24.24.46.49.7.73l.69.73,4-3.69Z"/><path class="cls-1" d="M126.52,60.29l-5.42.1c0,.33,0,.67,0,1s0,.67,0,1l0,1c0,.34,0,.68,0,1s-.05.67-.07,1,0,.67-.08,1,0,.67-.08,1l5.39.57c0-.37.06-.74.09-1.1s.06-.73.08-1.1.07-.73.09-1.1,0-.74,0-1.11l0-1.1c0-.37,0-.73,0-1.1S126.52,60.66,126.52,60.29Z"/><path class="cls-1" d="M115.1,25.11c-.22-.3-.43-.6-.65-.89l-4.38,3.18c.2.27.39.55.58.82s.4.55.59.83l4.49-3C115.53,25.71,115.31,25.42,115.1,25.11Z"/><path class="cls-3" d="M113.12,22.46c-.23-.3-.45-.59-.68-.87l-.7-.86L111,19.9c-.24-.28-.47-.56-.72-.83l-4,3.62c.23.25.44.51.66.77s.45.5.66.76l.65.78.62.79c.21.27.42.53.62.8l4.33-3.27C113.58,23,113.35,22.74,113.12,22.46Z"/><path class="cls-1" d="M116.12,37.87l4.95-2.21-.45-1L115.7,37C115.85,37.25,116,37.56,116.12,37.87Z"/><path class="cls-4" d="M117.51,28.81c-.19-.32-.39-.63-.58-.94l-.6-.93-4.55,2.95c.18.29.37.57.55.85s.36.57.53.86.34.58.5.87l4.7-2.71C117.88,29.44,117.7,29.12,117.51,28.81Z"/><path class="cls-3" d="M119.64,32.67c-.16-.33-.33-.66-.5-1l-.53-1-4.74,2.63.48.89c.16.29.31.59.46.89s.32.6.46.9l4.88-2.37Z"/><path class="cls-4" d="M.35,54.78c0,.37-.06.74-.1,1.1s0,.74-.08,1.1-.06.74-.08,1.11,0,.73,0,1.1,0,.73,0,1.1S0,61,0,61.4H5.42c0-.34,0-.68,0-1s0-.68,0-1,0-.68,0-1,.06-.67.08-1,0-.67.08-1,0-.68.08-1Z"/><path class="cls-4" d="M6.9,32.67c-.17.33-.34.66-.5,1s-.32.66-.47,1-.31.67-.46,1-.31.67-.45,1-.27.68-.41,1-.28.68-.41,1-.27.68-.4,1-.23.7-.35,1l-.36,1,5.16,1.68.33-1c.1-.31.21-.64.32-1s.24-.63.37-.94.24-.63.37-.94.24-.63.37-.94.28-.61.42-.92.27-.62.41-.92.29-.61.43-.91.31-.61.46-.9Z"/><path class="cls-3" d="M2.76,42.9c-.11.35-.2.7-.3,1.06s-.21.7-.31,1.06l-.27,1.07c-.09.35-.17.72-.25,1.07s-.17.72-.25,1.08-.14.72-.22,1.08S1,50.05,1,50.41s-.14.72-.19,1.09-.1.73-.16,1.09-.09.73-.14,1.1l5.39.66.12-1c0-.34.09-.67.14-1l.18-1c.06-.33.11-.66.18-1s.13-.66.19-1,.16-.66.23-1,.15-.65.23-1,.17-.65.25-1l.28-1,.27-1Z"/><path class="cls-4" d="M49.28,5.26,48,0,46.9.28l1.4,5.23Z"/><path class="cls-3" d="M45.84.58l-1.07.3-1.05.34L45.4,6.37l1-.3,1-.28Z"/><path class="cls-3" d="M27,9.58l-.9.64-.89.65c-.3.22-.58.45-.87.68l3.34,4.27c.26-.21.52-.42.79-.62s.54-.4.82-.6L30.1,14Z"/><path class="cls-3" d="M23.46,12.23l-.85.7-.84.73,3.56,4.09.76-.66.78-.65Z"/><path class="cls-4" d="M30.68,7.16l-.93.59-.93.59c-.31.2-.63.39-.93.6l3,4.49c.28-.19.57-.36.85-.54l.85-.55.86-.53Z"/><path class="cls-4" d="M42.68,1.57c-.35.12-.7.23-1,.36s-.69.26-1,.4l-1,.4-1,.41-1,.46-1,.45-1,.47,2.37,4.87L38.83,9l.91-.41c.31-.14.62-.29.93-.42l.93-.37.94-.37L43.48,7l1-.32Z"/><path class="cls-3" d="M34.55,5l-1,.5c-.33.17-.65.35-1,.53l-1,.55,2.71,4.69c.29-.17.58-.34.88-.5l.88-.49.9-.46Z"/><path class="cls-4" d="M7.5,59.45c0-.33,0-.65,0-1h0l11.41.6h0c0,.26,0,.52,0,.79h0L7.5,59.45Zm0,0,11.42.41c0-.26,0-.52,0-.77h0L7.54,58.47c0,.33,0,.66,0,1Z"/><path class="cls-4" d="M9.11,47.89c.08-.32.16-.63.25-1h0l11,3h0c-.07.26-.13.51-.2.76h0L9.11,47.89Zm0,0,11.07,2.77.18-.74h0l-11-3-.24.93Z"/><path class="cls-4" d="M8.89,48.84c.07-.32.14-.64.22-1h0l11.08,2.76h0l-.18.76h0L8.89,48.84Zm0,0L20,51.41l.18-.75h0L9.12,47.89c-.08.32-.15.64-.23,1Z"/><path class="cls-4" d="M8.67,49.79c.06-.32.14-.63.23-1h0L20,51.4h0c-.06.25-.13.5-.19.76h0L8.67,49.79Zm0,0,11.17,2.38c.05-.25.12-.5.17-.74h0L8.9,48.84c-.07.32-.15.63-.23.94Z"/><path class="cls-4" d="M8.48,50.75c.06-.32.12-.64.19-1h0l11.18,2.38h0c-.05.25-.09.5-.15.76h0L8.48,50.75Zm0,0,11.2,2.19.15-.76h0L8.68,49.79c-.06.32-.13.64-.19,1Z"/><path class="cls-4" d="M9.62,46c.09-.31.17-.63.27-.94h0l10.92,3.34h0c-.07.25-.14.5-.22.75h0L9.62,46Zm0,0,11,3.16c.07-.25.13-.5.21-.74h0L9.9,45.08c-.1.31-.18.62-.27.92Z"/><path class="cls-4" d="M8.31,51.71c0-.33.11-.65.18-1h0L19.7,52.92h0l-.15.77h0l-11.25-2Zm0,0,11.25,2c0-.25.09-.51.13-.76h0L8.49,50.75c-.06.32-.11.64-.18,1Z"/><path class="cls-4" d="M9.88,45.07c.1-.31.2-.61.31-.93h0L21,47.66h0c-.08.25-.15.5-.24.75h0L9.88,45.07Zm0,0L20.8,48.41c.07-.25.15-.49.23-.73h0L10.19,44.15l-.3.92Z"/><path class="cls-4" d="M7.76,55.56c0-.32.08-.64.13-1h0L19.23,56h0c0,.26-.07.51-.1.77h0L7.76,55.56Zm0,0,11.36,1.2c0-.26.07-.51.1-.77h0L7.89,54.6c0,.32-.09.64-.13,1Z"/><path class="cls-4" d="M7.48,60.42c0-.32,0-.65,0-1h0l11.42.4h0q0,.38,0,.78h0L7.48,60.42Zm0,0,11.43.2c0-.26,0-.51,0-.76h0L7.51,59.45c0,.32,0,.65,0,1Z"/><path class="cls-4" d="M7.53,58.47c0-.32,0-.64.08-1h0l11.4.79h0c0,.26-.05.51-.07.78h0L7.53,58.47Zm0,0,11.41.6c0-.25,0-.51.05-.76h0L7.61,57.5c0,.33-.05.65-.07,1Z"/><path class="cls-4" d="M7.45,61.4c0-.33,0-.65,0-1h0l11.43.19h0l0,.78H7.45Zm0,0H18.89c0-.26,0-.51,0-.77h0L7.49,60.42c0,.33,0,.65,0,1Z"/><path class="cls-4" d="M7.6,57.5c0-.32.05-.64.08-1h0l11.39,1h0c0,.26,0,.51-.07.78h0L7.6,57.5Zm0,0L19,58.3l.06-.77h0l-11.37-1c0,.33-.05.65-.08,1Z"/><path class="cls-4" d="M8,53.63c.05-.32.09-.65.14-1h0l11.29,1.78h0c-.05.26-.07.52-.11.78h0L8,53.63Zm0,0,11.31,1.6c0-.25.06-.51.1-.76h0L8.15,52.67c-.05.32-.09.64-.14.95Z"/><path class="cls-4" d="M7.88,54.59c0-.32.08-.64.13-1H8l11.32,1.59h0c0,.26-.06.51-.1.78h0L7.88,54.59Zm0,0L19.22,56c0-.26.06-.51.1-.76h0L8,53.63l-.12,1Z"/><path class="cls-4" d="M8.14,52.66c0-.32.11-.64.17-1h0l11.26,2h0c0,.26-.1.51-.14.77h0L8.14,52.66Zm0,0,11.28,1.79c0-.25.09-.5.14-.75h0l-11.24-2-.18.95Z"/><path class="cls-4" d="M7.68,56.53c0-.32,0-.65.08-1h0l11.37,1.2h0c0,.25,0,.51-.07.78h0l-11.39-1Zm0,0,11.38,1,.06-.77h0L7.77,55.56c0,.32,0,.65-.09,1Z"/><path class="cls-4" d="M9.35,47c.08-.32.18-.63.28-.94h0l11,3.14h0c-.07.25-.15.49-.22.75h0l-11-3Zm0,0,11,3c.06-.25.13-.49.2-.74h0L9.63,46l-.27.93Z"/><path class="cls-4" d="M7.46,61.39H18.9c0,.25,0,.51,0,.78h0l-11.43.19c0-.33,0-.65,0-1Zm0,1,11.43-.19c0-.26,0-.51,0-.77H7.46c0,.32,0,.64,0,1Z"/><path class="cls-4" d="M35.37,13.06l.85-.49h0l5.4,9.75h0l-.69.38h0l-5.56-9.65Zm0,0,5.56,9.65c.22-.14.44-.26.66-.39h0l-5.38-9.74-.84.48Z"/><path class="cls-4" d="M38.8,11.22c.29-.15.59-.28.89-.42h0l4.69,10.06h0l-.71.35h0l-4.87-10Zm0,0,4.86,10,.69-.35h0l-4.67-10-.88.41Z"/><path class="cls-4" d="M34.52,13.54l.86-.48h0l5.56,9.65h0l-.68.4h0l-5.74-9.58Zm0,0,5.74,9.56.66-.4h0l-5.56-9.64-.84.48Z"/><path class="cls-4" d="M32.87,14.59l.83-.53h0l5.92,9.47h0L39,24h0l-6.08-9.37Zm0,0L39,24l.65-.42h0l-5.9-9.46-.82.52Z"/><path class="cls-4" d="M33.7,14.06c.27-.17.54-.35.83-.51h0l5.75,9.56h0c-.22.13-.43.28-.66.42h0L33.7,14.06Zm0,0,5.9,9.47.65-.42h0l-5.73-9.55c-.28.16-.55.34-.82.5Z"/><path class="cls-4" d="M36.21,12.57l.87-.46h0l5.22,9.82h0l-.68.39h0l-5.4-9.76Zm0,0,5.39,9.75.67-.39h0l-5.21-9.81-.85.45Z"/><path class="cls-4" d="M32.06,15.11c.26-.18.54-.35.82-.52h0L39,24h0l-.65.44h0l-6.25-9.29Zm0,0,6.25,9.27L39,24h0L32.88,14.6l-.82.52Z"/><path class="cls-4" d="M37.93,11.66c.29-.15.58-.3.88-.44h0l4.87,10h0c-.23.12-.46.24-.7.35h0l-5-9.91Zm0,0,5,9.89.69-.35h0l-4.86-10c-.3.14-.58.3-.87.44Z"/><path class="cls-4" d="M39.68,10.8c.3-.14.59-.26.9-.39h0l4.51,10.12h0l-.73.32h0L39.68,10.8Zm0,0,4.68,10.05.7-.32h0L40.58,10.41l-.89.39Z"/><path class="cls-4" d="M37.07,12.11c.28-.16.58-.3.87-.45h0L43,21.57h0l-.69.36h0l-5.22-9.83Zm0,0,5.21,9.82c.22-.13.46-.24.68-.36h0l-5-9.9-.86.44Z"/><path class="cls-4" d="M40.57,10.4l.9-.4h0L45.8,20.21h0l-.72.32h0L40.57,10.4Zm0,0,4.5,10.13.71-.32h0L41.46,10l-.88.39Z"/><path class="cls-4" d="M28.91,17.42c.26-.2.51-.41.78-.6h0l6.75,9h0l-.62.48h0l-6.9-8.84Zm0,0,6.89,8.83.61-.48h0l-6.73-8.94-.77.59Z"/><path class="cls-4" d="M30.47,16.24l.8-.56h0l6.42,9.16h0L37,25.3h0l-6.57-9.06Zm0,0L37,25.29l.63-.45h0l-6.4-9.15-.79.55Z"/><path class="cls-4" d="M29.68,16.82c.26-.2.52-.39.8-.58h0l6.57,9.05h0l-.62.48h0l-6.75-9Zm0,0,6.74,9,.61-.48h0l-6.56-9-.79.57Z"/><path class="cls-4" d="M31.26,15.68l.8-.56h0l6.26,9.27h0l-.65.45h0l-6.41-9.17Zm0,0,6.41,9.16.62-.45h0l-6.24-9.27c-.27.19-.52.38-.79.56Z"/><path class="cls-4" d="M54.54,6.26l1-.13h0L57,16.94h0l-.78.13h0L54.54,6.26Zm0,0,1.7,10.81.77-.13h0L55.51,6.14l-1,.12Z"/><path class="cls-4" d="M55.51,6.12l1-.11h0l1.33,10.83h0L57,17h0L55.51,6.12Zm0,0L57,16.94l.77-.1h0L56.47,6l-1,.12Z"/><path class="cls-4" d="M41.46,10c.3-.13.6-.24.91-.36h0L46.52,19.9h0l-.72.31h0L41.46,10Zm0,0,4.32,10.21.71-.31h0L42.37,9.65l-.9.35Z"/><path class="cls-4" d="M52.62,6.6l1-.17h0l1.9,10.79h0l-.78.13h0L52.62,6.6Zm0,0,2.08,10.74.77-.14h0L53.58,6.44l-.95.17Z"/><path class="cls-4" d="M51.67,6.79q.46-.11,1-.18h0l2.09,10.75h0l-.78.17h0L51.67,6.79Zm0,0L54,17.53l.75-.17h0L52.63,6.61l-1,.18Z"/><path class="cls-4" d="M53.58,6.43l1-.17h0l1.71,10.82h0l-.78.13h0L53.58,6.43Zm0,0,1.89,10.78.77-.13h0L54.54,6.27c-.32.05-.64.12-.95.16Z"/><path class="cls-4" d="M59.38,5.72c.33,0,.65,0,1-.06h0l.57,10.87h0l-.79.05h0L59.38,5.72Zm0,0,.75,10.86q.39,0,.78-.06h0L60.35,5.66c-.32,0-.64.06-1,.07Z"/><path class="cls-4" d="M60.35,5.65c.33,0,.65,0,1,0h0l.38,10.85h0l-.79,0h0L60.35,5.65Zm0,0,.56,10.87.78-.05h0L61.33,5.63l-1,0Z"/><path class="cls-4" d="M57.44,5.88c.32,0,.65-.06,1-.08h0l.95,10.85h0l-.79.09h0L57.44,5.88Zm0,0,1.13,10.86c.26,0,.51-.07.77-.09h0L58.41,5.81l-1,.07Z"/><path class="cls-4" d="M58.41,5.8l1-.07h0l.76,10.86h0l-.79,0h0L58.41,5.8Zm0,0,.94,10.85.77-.06h0L59.38,5.74l-1,.06Z"/><path class="cls-4" d="M56.47,6c.33,0,.65-.09,1-.12h0l1.14,10.87h0l-.78.1h0L56.47,6Zm0,0L57.8,16.84l.77-.1h0L57.44,5.89l-1,.12Z"/><path class="cls-4" d="M50.72,7l1-.22h0L54,17.54h0l-.77.18h0L50.72,7Zm0,0,2.46,10.7c.25-.07.5-.12.75-.18h0L51.67,6.8,50.73,7Z"/><path class="cls-4" d="M45.1,8.62c.31-.11.61-.22.93-.31h0L49.44,18.8h0l-.75.25h0L45.1,8.62Zm0,0,3.58,10.43.74-.25h0L46,8.32c-.31.09-.62.2-.92.3Z"/><path class="cls-4" d="M46,8.3,47,8h0l3.22,10.54h0l-.75.25h0L46,8.3Zm0,0,3.4,10.49.74-.25h0L47,8,46,8.31Z"/><path class="cls-4" d="M43.27,9.28c.3-.12.6-.24.92-.35h0L48,19.33h0l-.73.29h0l-4-10.34Zm0,0,3.95,10.33.72-.29h0L44.18,8.94c-.3.11-.6.24-.9.34Z"/><path class="cls-4" d="M42.36,9.64l.92-.35h0l4,10.32h0l-.74.28h0L42.36,9.64Zm0,0L46.51,19.9l.72-.29h0l-4-10.32-.9.35Z"/><path class="cls-4" d="M44.18,8.93l.93-.31h0L48.7,19.05h0l-.74.27h0L44.18,8.93Zm0,0L48,19.32l.73-.27h0L45.11,8.63l-.92.3Z"/><path class="cls-4" d="M47,8l.95-.26h0l3,10.58h0l-.75.23h0L47,8Zm0,0,3.21,10.54.74-.23h0l-3-10.57L47,8Z"/><path class="cls-4" d="M48.83,7.47l1-.24h0L52.44,17.9h0l-.76.2h0L48.83,7.47Zm0,0,2.84,10.63.75-.22h0L49.77,7.24l-.94.24Z"/><path class="cls-4" d="M49.77,7.23l1-.22h0l2.47,10.7h0l-.77.18h0L49.77,7.23Zm0,0,2.65,10.66.75-.18h0L50.72,7l-.94.21Z"/><path class="cls-4" d="M47.89,7.74l.94-.26h0l2.85,10.63h0l-.76.21h0l-3-10.59Zm0,0,3,10.58.75-.21h0L48.83,7.49l-.93.25Z"/><path class="cls-4" d="M61.33,5.62l1,0h0l.19,10.86h-.8L61.33,5.62Zm0,0,.37,10.85.78,0h0L62.3,5.61l-1,0Z"/><path class="cls-4" d="M73.41,17.45,75.83,7c.32.07.63.14,1,.23h0L74.19,17.63h0l-.77-.19Zm0,0,.76.17h0l2.6-10.38-1-.22h0L73.42,17.45Z"/><path class="cls-4" d="M62.3,5.6c.33,0,.65,0,1,0h0V16.44h-.8L62.3,5.6Zm0,0,.18,10.86.78,0h0V5.59Z"/><path class="cls-4" d="M74.18,17.63l2.6-10.4,1,.25h0L75,17.81h0l-.77-.19Zm0,0,.76.17h0L77.72,7.49l-.94-.25h0L74.19,17.63Z"/><path class="cls-4" d="M80.19,19.5l4-9.86c.29.12.6.23.9.37h0l-4.15,9.78h0l-.74-.3Zm0,0,.73.28h0L85.08,10l-.89-.36h0l-4,9.85Z"/><path class="cls-4" d="M72.64,17.29l2.24-10.5,1,.23h0L73.42,17.46h0l-.78-.17Zm0,0,.76.16h0L75.83,7l-.94-.22h0L72.65,17.29Z"/><path class="cls-4" d="M75.7,18l3-10.28c.31.09.63.17.94.27h0L76.48,18.23h0L75.7,18Zm0,0,.75.21h0L79.59,8l-.93-.27h0L75.71,18Z"/><path class="cls-4" d="M71.87,17.15l2-10.55c.32.06.64.12,1,.2h0L72.65,17.29h0c-.26-.05-.52-.09-.78-.15Zm0,0,.77.13h0L74.88,6.8l-.95-.19h0L71.87,17.15Z"/><path class="cls-4" d="M77.22,18.44,80.52,8.3l.93.32h0L78,18.7h0l-.75-.27Zm0,0,.74.25h0L81.44,8.63l-.91-.32h0l-3.3,10.13Z"/><path class="cls-4" d="M78.72,19l3.65-10c.31.11.61.23.91.36h0l-3.81,9.92h0L78.72,19Zm0,0,.73.25h0l3.81-9.91-.9-.35h0L78.73,19Z"/><path class="cls-4" d="M79.46,19.21l3.82-9.93.91.37h0l-4,9.85h0l-.74-.3Zm0,0,.73.28h0l4-9.84-.9-.36h0l-3.81,9.92Z"/><path class="cls-4" d="M78,18.7,81.45,8.62c.3.1.61.2.92.32h0L78.73,19h0L78,18.7Zm0,0,.74.26h0l3.64-10-.91-.32h0L78,18.69Z"/><path class="cls-4" d="M71.09,17,73,6.43l1,.18h0L71.88,17.15h0L71.09,17Zm0,0,.77.14h0l2-10.54-1-.17h0L71.1,17Z"/><path class="cls-4" d="M76.46,18.23,79.6,8l.93.31h0L77.24,18.45h0l-.77-.22Zm0,0c.25.07.5.13.75.21h0l3.3-10.12L79.6,8h0L76.47,18.23Z"/><path class="cls-4" d="M75,17.81,77.72,7.47l.94.28h0L75.72,18h0L75,17.81Zm0,0,.75.21h0l3-10.26-.93-.27h0L75,17.8Z"/><path class="cls-4" d="M65.62,16.47l.57-10.82,1,.08h0L66.42,16.5h0l-.79,0Zm0,0c.26,0,.52,0,.77,0h0l.77-10.76-1-.08h0l-.57,10.81Z"/><path class="cls-4" d="M66.4,16.5l.77-10.78,1,.08h0L67.2,16.56h0l-.79-.07Zm0,0,.78.06h0l1-10.75-1-.08h0L66.41,16.5Z"/><path class="cls-4" d="M64.84,16.45l.38-10.83c.32,0,.65,0,1,0h0l-.57,10.81h0l-.79,0Zm0,0c.26,0,.52,0,.78,0h0l.57-10.81c-.32,0-.65,0-1,0h0l-.39,10.82Z"/><path class="cls-4" d="M64.05,16.43l.2-10.83,1,0h0l-.38,10.82h0l-.79,0Zm0,0,.78,0h0l.38-10.82-1,0h0l-.19,10.81Z"/><path class="cls-4" d="M63.27,16.44V5.57c.33,0,.65,0,1,0h0l-.19,10.84h0l.2-10.82-1,0h0V16.43h0Z"/><path class="cls-4" d="M67.19,16.56l1-10.76,1,.08h0L68,16.62h0l-.79-.07Zm0,0,.77.06h0L69.11,5.89c-.32,0-.65,0-1-.09h0L67.2,16.56Z"/><path class="cls-4" d="M69.53,16.79,71,6.12l1,.14h0L70.33,16.9h0c-.26,0-.52-.06-.79-.11Zm0,0,.77.1h0L72,6.27l-1-.14h0L69.54,16.79Z"/><path class="cls-4" d="M68.75,16.7,70.08,6l1,.13h0L69.55,16.8h0l-.79-.1Zm0,0,.77.1h0L71,6.14l-1-.13h0L68.76,16.69Z"/><path class="cls-4" d="M70.31,16.89,72,6.26l1,.18h0L71.11,17h0l-.79-.13Zm0,0c.26,0,.52.07.77.12h0L73,6.44,72,6.27h0L70.32,16.89Z"/><path class="cls-4" d="M68,16.62,69.11,5.88c.32,0,.64.08,1,.13h0L68.77,16.7h0L68,16.62Zm0,0,.77.07h0L70.07,6l-.95-.13h0L68,16.62Z"/><path class="cls-4" d="M83.8,21.09l4.81-9.43c.29.15.59.29.87.45h0l-5,9.35h0l-.71-.37Zm0,0,.7.35h0l5-9.32-.86-.45h0l-4.81,9.42Z"/><path class="cls-4" d="M91.17,25.68l6.46-8.26c.26.2.52.4.77.61h0l-6.6,8.14h0l-.62-.5Zm0,0,.62.48h0L98.39,18l-.75-.6h0l-6.46,8.25Z"/><path class="cls-4" d="M88.59,23.84l5.9-8.73.8.58h0l-6,8.6h0c-.21-.15-.44-.29-.66-.45Zm0,0,.66.44h0l6-8.59-.79-.57h0L88.6,23.84Z"/><path class="cls-4" d="M89.25,24.28l6-8.6c.26.18.53.37.79.57h0l-6.17,8.5h0l-.65-.47Zm0,0,.64.46h0l6.17-8.49-.78-.56h0l-6,8.59Z"/><path class="cls-4" d="M89.9,24.74l6.18-8.5c.26.19.53.38.79.59h0l-6.32,8.38h0l-.64-.47Zm0,0,.64.45h0l6.32-8.36-.78-.58h0L89.9,24.74Z"/><path class="cls-4" d="M90.54,25.2l6.33-8.38c.26.19.51.4.77.61h0l-6.46,8.26h0l-.63-.49Zm0,0,.62.47h0l6.45-8.24-.75-.6h0L90.55,25.2Z"/><path class="cls-4" d="M84.5,21.45l5-9.34c.29.15.57.3.86.47h0l-5.12,9.24h0c-.23-.13-.47-.24-.71-.37Zm0,0,.7.35h0l5.12-9.21-.85-.48h0l-5,9.34Z"/><path class="cls-4" d="M80.93,19.79,85.09,10l.89.41h0L81.67,20.1h0l-.73-.31Zm0,0,.72.31h0L86,10.41l-.88-.4h0l-4.15,9.77Z"/><path class="cls-4" d="M83.09,20.74l4.66-9.52c.29.14.57.29.87.45h0L83.81,21.1h0l-.72-.36Zm0,0,.71.34h0l4.8-9.41-.86-.44h0L83.1,20.74Z"/><path class="cls-4" d="M81.66,20.09,86,10.4c.29.13.59.26.89.41h0l-4.48,9.61h0l-.72-.34Zm0,0,.72.32h0l4.48-9.6-.88-.4h0l-4.32,9.68Z"/><path class="cls-4" d="M82.37,20.42l4.5-9.62c.29.14.59.27.88.43h0L83.1,20.75h0l-.72-.33Zm0,0c.24.11.48.21.71.33h0l4.65-9.51-.87-.42h0l-4.49,9.6Z"/><path class="cls-4" d="M86.58,22.59l5.44-9c.29.17.56.35.83.53h0L87.27,23h0c-.23-.14-.46-.26-.69-.41Zm0,0,.68.4h0l5.58-8.92L92,13.55h0l-5.44,9Z"/><path class="cls-4" d="M87.93,23.42h0L87.26,23h0l5.59-8.93c.28.17.55.35.82.54h0l-5.73,8.83ZM87.27,23c.23.13.44.28.66.42h0l5.73-8.81-.81-.53h0L87.27,23Z"/><path class="cls-4" d="M87.93,23.42l5.74-8.83c.27.17.56.34.82.53h0L88.6,23.85h0l-.67-.43Zm0,0,.66.43h0l5.88-8.72c-.26-.18-.54-.34-.81-.52h0l-5.73,8.81Z"/><path class="cls-4" d="M85.89,22.2l5.29-9.14.85.49h0L86.59,22.6h0l-.69-.4Zm0,0c.23.12.46.26.68.39h0l5.44-9-.84-.49h0L85.9,22.2Z"/><path class="cls-4" d="M85.21,21.81l5.13-9.24.84.5h0l-5.27,9.14h0l-.69-.4Zm0,0,.68.38h0l5.27-9.12-.83-.49h0l-5.12,9.23Z"/><path class="cls-4" d="M25.21,20.58c.24-.22.47-.45.72-.67h0l7.53,8.36h0l-.58.54h0l-7.67-8.24Zm0,0,7.66,8.23.56-.54h0l-7.51-8.34-.71.65Z"/><path class="cls-4" d="M23.13,22.63c.22-.24.44-.47.68-.71h0l8,8h0l-.54.56h0l-8.11-7.84Zm0,0,8.1,7.83c.17-.19.35-.38.53-.56h0l-8-8c-.23.23-.45.47-.67.7Z"/><path class="cls-4" d="M26.66,19.28c.25-.21.49-.43.75-.64h0l7.21,8.6h0l-.59.51h0l-7.37-8.48Zm0,0L34,27.75l.58-.5h0l-7.2-8.6c-.25.21-.49.43-.74.63Z"/><path class="cls-4" d="M23.8,21.92c.23-.23.47-.44.72-.67h0l7.81,8.09h0l-.56.56h0l-8-8Zm0,0,8,8,.55-.54h0l-7.8-8.09-.71.66Z"/><path class="cls-4" d="M24.51,21.25c.23-.22.46-.45.71-.67h0l7.67,8.23h0c-.18.18-.38.35-.57.53h0l-7.81-8.1Zm0,0,7.8,8.09.56-.53h0l-7.66-8.22-.7.66Z"/><path class="cls-4" d="M27.4,18.64l.76-.62h0l7.05,8.72h0l-.6.5h0L27.4,18.64Zm0,0,7.21,8.6c.19-.16.38-.34.58-.5h0l-7-8.71-.75.61Z"/><path class="cls-4" d="M28.15,18l.77-.6h0l6.9,8.83h0l-.62.48h0L28.15,18Zm0,0,7,8.71.61-.48h0l-6.89-8.82-.76.59Z"/><path class="cls-4" d="M25.93,19.91l.74-.63h0L34,27.75h0l-.59.52h0l-7.52-8.37Zm0,0,7.52,8.36.57-.52h0l-7.35-8.46-.74.62Z"/><path class="cls-4" d="M22.46,23.33c.22-.23.44-.47.68-.7h0l8.11,7.83h0L30.7,31h0l-8.24-7.7Zm0,0L30.7,31c.17-.19.35-.37.53-.56h0l-8.09-7.82-.67.69Z"/><path class="cls-4" d="M18.69,27.8c.2-.26.41-.51.61-.76h0l8.91,7h0l-.49.61h0l-9-6.82Zm0,0,9,6.81L28.2,34h0l-8.89-7c-.2.26-.41.51-.61.76Z"/><path class="cls-4" d="M19.3,27c.2-.26.39-.52.61-.77h0l8.78,7.12h0l-.48.61h0L19.3,27Zm0,0,8.9,7,.47-.61h0l-8.77-7.11c-.21.25-.4.51-.6.76Z"/><path class="cls-4" d="M21.79,24.05c.22-.25.44-.48.68-.72h0L30.71,31h0l-.53.58h0l-8.39-7.56Zm0,0,8.38,7.55.51-.57h0l-8.22-7.69-.67.71Z"/><path class="cls-4" d="M19.9,26.27q.3-.37.63-.75h0l8.65,7.26h0c-.17.19-.32.4-.49.61h0L19.9,26.27Zm0,0,8.77,7.12.48-.61h0l-8.63-7.25-.62.74Z"/><path class="cls-4" d="M21.15,24.78l.65-.73h0l8.39,7.55h0l-.52.59h0l-8.52-7.42Zm0,0,8.51,7.41.51-.58h0L21.8,24.06c-.21.24-.42.49-.64.72Z"/><path class="cls-4" d="M20.52,25.52l.64-.74h0l8.52,7.41h0l-.51.59h0l-8.65-7.27Zm0,0,8.64,7.26c.16-.2.33-.39.5-.59h0l-8.51-7.4-.63.73Z"/><path class="cls-4" d="M97.54,31.61h0L97,31h0l7.75-7,.63.74h0l-7.85,6.83ZM97,31l.52.59h0l7.84-6.81-.62-.73h0L97,31Z"/><path class="cls-4" d="M98.06,32.21h0l-.52-.62h0l7.86-6.82c.22.25.43.49.64.75h0l-8,6.69Zm-.52-.61.52.6h0l8-6.67-.63-.74h0L97.54,31.6Z"/><path class="cls-4" d="M98.58,32.81h0c-.17-.2-.35-.39-.52-.61h0l8-6.68c.21.25.42.5.62.76h0l-8.07,6.54Zm-.52-.6.52.59h0l8.06-6.52-.61-.75h0l-8,6.68Z"/><path class="cls-4" d="M97,31h0c-.18-.19-.37-.38-.55-.58h0l7.63-7.1c.22.23.45.47.67.72h0L97,31Zm-.54-.58L97,31h0l7.73-7c-.21-.25-.44-.48-.65-.72h0l-7.62,7.1Z"/><path class="cls-4" d="M96.47,30.44h0l-.55-.58h0l7.51-7.24.67.71h0l-7.62,7.11Zm-.55-.57c.19.18.37.38.55.56h0l7.61-7.09-.66-.7h0l-7.5,7.23Z"/><path class="cls-4" d="M100,34.69h0l-.48-.64h0l8.3-6.24c.2.25.39.52.58.79h0L100,34.69Zm-.48-.64.48.63h0l8.38-6.08-.57-.79h0l-8.29,6.24Z"/><path class="cls-4" d="M100.5,35.33h0l-.46-.66h0l8.4-6.09c.19.26.38.53.56.81h0l-8.49,5.94Zm-.46-.65c.16.21.31.43.46.65h0L109,29.39l-.55-.79h0L100,34.68Z"/><path class="cls-4" d="M101,36h0l-.46-.66h0l8.5-5.94c.19.26.39.52.57.8h0L101,36Zm-.46-.65c.15.21.31.42.46.64h0l8.59-5.78L109,29.4h0l-8.49,5.93Z"/><path class="cls-4" d="M99.07,33.43h0c-.17-.21-.32-.42-.49-.64h0l8.08-6.53.6.78h0l-8.18,6.39Zm-.49-.62c.17.2.32.41.49.62h0l8.17-6.38-.59-.77h0l-8.07,6.53Z"/><path class="cls-4" d="M95.92,29.87h0l-.56-.56h0l7.4-7.38c.23.22.44.47.67.71h0l-7.5,7.23Zm-.56-.56.56.55h0l7.49-7.22c-.23-.23-.44-.48-.66-.7h0l-7.39,7.37Z"/><path class="cls-4" d="M91.79,26.17,98.4,18q.38.3.75.63h0l-6.72,8h0l-.63-.49Zm0,0,.62.48h0l6.72-8L98.4,18h0l-6.6,8.14Z"/><path class="cls-4" d="M93,27.18h0c-.21-.17-.4-.35-.6-.53h0l6.73-8c.25.21.49.42.74.65h0L93,27.18Zm-.59-.53c.2.17.39.35.59.51h0l6.86-7.87-.73-.64h0l-6.72,8Z"/><path class="cls-4" d="M94.21,28.22h0l-.6-.53h0l7-7.77c.24.21.48.44.72.67h0l-7.12,7.63Zm-.59-.53c.2.17.4.34.59.52h0l7.12-7.62c-.24-.22-.47-.45-.71-.66h0l-7,7.76Z"/><path class="cls-4" d="M94.78,28.77h0l-.57-.56h0l7.13-7.63.7.68h0l-7.25,7.51Zm-.56-.56.56.54h0L102,21.26l-.69-.67h0l-7.12,7.62Z"/><path class="cls-4" d="M93,27.17l6.87-7.89c.24.21.49.42.73.65h0l-7,7.77h0L93,27.17Zm0,0,.6.51h0l7-7.75-.72-.64h0L93,27.17Z"/><path class="cls-4" d="M95.36,29.31h0l-.57-.56h0L102,21.25c.23.23.48.44.71.68h0l-7.39,7.39Zm-.57-.55.57.54h0l7.38-7.37-.7-.67h0l-7.25,7.5Z"/><path class="cls-4" d="M99.56,34.06h0l-.49-.63h0L107.25,27c.2.25.41.5.6.77h0l-8.29,6.25Zm-.49-.63.49.62h0l8.28-6.24c-.19-.26-.4-.51-.59-.76h0l-8.18,6.38Z"/><path class="cls-4" d="M7.48,62.36l11.43-.2h0c0,.26,0,.52,0,.78h0L7.5,63.34c0-.32,0-.65,0-1Zm0,0c0,.32,0,.65,0,1h0l11.42-.39c0-.25,0-.51,0-.76h0l-11.42.19Z"/><path class="cls-4" d="M100,88.11h0l.47-.64h0l8.49,6c-.19.27-.37.53-.57.8h0L100,88.11Zm8.39,6.09.56-.79h0l-8.48-5.94c-.15.21-.3.43-.46.64h0l8.38,6.09Z"/><path class="cls-4" d="M94.21,94.58h0l.58-.55h0l7.25,7.52-.72.68h0l-7.11-7.64Zm7.11,7.63.71-.67h0L94.79,94l-.57.55h0l7.1,7.63Z"/><path class="cls-4" d="M93.61,95.1h0l.6-.52h0l7.12,7.64c-.24.23-.47.45-.72.67h0l-7-7.78Zm7,7.77.71-.66h0l-7.11-7.63-.58.52h0l7,7.77Z"/><path class="cls-4" d="M94.78,94h0l.58-.54h0l7.38,7.39c-.23.23-.47.45-.71.67h0L94.78,94Zm7.25,7.5.7-.66h0l-7.37-7.38-.57.54h0l7.24,7.5Z"/><path class="cls-4" d="M95.35,93.49h0l.57-.56h0l7.5,7.24c-.23.24-.45.48-.69.71h0l-7.38-7.38Zm7.38,7.37.68-.7h0l-7.49-7.23-.55.55h0l7.36,7.38Z"/><path class="cls-4" d="M95.91,92.93h0l.56-.57h0l7.62,7.11c-.22.24-.45.47-.68.7h0l-7.5-7.23Zm7.5,7.23c.22-.24.45-.47.67-.7h0l-7.61-7.1c-.18.19-.36.38-.55.56h0l7.49,7.24Z"/><path class="cls-4" d="M92.41,96.14h0l.61-.52h0l6.86,7.91c-.24.21-.48.43-.74.64h0l-6.73-8Zm6.73,8c.25-.2.49-.42.73-.62h0L93,95.62c-.2.17-.39.35-.59.51h0l6.71,8Z"/><path class="cls-4" d="M93,95.62h0l.61-.51h0l7,7.78c-.24.22-.49.42-.75.64h0L93,95.62Zm6.87,7.89c.24-.22.49-.43.73-.63h0l-7-7.78-.59.52h0l6.85,7.89Z"/><path class="cls-4" d="M91.79,96.63h0l.63-.49h0l6.73,8-.76.62h0l-6.6-8.15Zm6.6,8.14c.25-.21.5-.42.75-.61h0l-6.72-8c-.2.17-.41.32-.62.48h0l6.59,8.15Z"/><path class="cls-4" d="M96.46,92.35h0c.18-.19.37-.38.55-.58h0l7.74,7-.67.71h0l-7.62-7.11Zm7.62,7.1.66-.7h0l-7.73-7c-.17.19-.36.38-.54.57h0l7.61,7.1Z"/><path class="cls-4" d="M97,91.78h0l.54-.59h0L105.39,98c-.21.25-.42.5-.65.74h0l-7.74-7Zm7.74,7c.22-.24.43-.49.64-.73h0l-7.84-6.82-.52.59h0l7.72,7Z"/><path class="cls-4" d="M98.05,90.59h0l.53-.6h0l8.07,6.54c-.21.25-.41.51-.63.76h0l-8-6.69Zm8,6.68c.21-.25.41-.5.62-.74h0L98.58,90l-.52.59h0l8,6.69Z"/><path class="cls-4" d="M97.53,91.19h0l.53-.6h0l8,6.69c-.21.25-.43.5-.65.74h0l-7.85-6.82ZM105.38,98l.64-.72h0l-8-6.69-.51.59h0L105.38,98Z"/><path class="cls-4" d="M99.06,89.37h0l.5-.63h0L107.85,95c-.19.26-.4.51-.61.77h0l-8.18-6.39Zm8.18,6.38.6-.76h0l-8.28-6.25c-.16.21-.32.42-.49.62h0l8.17,6.39Z"/><path class="cls-4" d="M98.57,90h0c.17-.2.32-.42.5-.62h0l8.18,6.4-.61.77h0L98.57,90Zm8.07,6.52.6-.75h0l-8.17-6.39c-.16.2-.32.41-.49.61h0l8.06,6.53Z"/><path class="cls-4" d="M99.55,88.74h0l.49-.63h0l8.39,6.11c-.2.26-.38.52-.59.78h0l-8.29-6.25ZM107.84,95c.2-.26.38-.52.58-.77h0L100,88.11l-.48.63h0L107.84,95Z"/><path class="cls-4" d="M103.05,39.35h0l-.39-.7h0l9-5.16c.16.28.33.56.48.85h0l-9,5Zm-.39-.7.39.69h0l9-5c-.15-.29-.32-.57-.47-.84h0l-9,5.15Z"/><path class="cls-4" d="M103.44,40h0c-.13-.23-.27-.46-.39-.7h0l9-5c.15.29.31.57.46.87h0L103.44,40Zm-.38-.7c.12.23.26.46.38.69h0l9.11-4.84c-.15-.29-.31-.57-.46-.85h0l-9,5Z"/><path class="cls-4" d="M101.82,37.31h0l-.43-.68h0L110.08,31c.18.27.35.54.52.82h0l-8.77,5.49Zm-.42-.68c.15.22.29.44.43.66h0l8.77-5.47c-.18-.27-.35-.54-.52-.81h0l-8.68,5.62Z"/><path class="cls-4" d="M102.65,38.66h0c-.14-.23-.27-.46-.4-.69h0l8.87-5.33c.17.28.33.56.49.86h0l-9,5.16Zm-.39-.69.4.68h0l8.94-5.16-.48-.84h0L102.26,38Z"/><path class="cls-4" d="M103.81,40.74h0l-.36-.72h0l9.12-4.84c.16.28.3.57.44.87h0l-9.19,4.69Zm-.36-.71.36.7h0L113,36.06l-.43-.86h0L103.45,40Z"/><path class="cls-4" d="M105.77,45.08h0l-.29-.75h0L115,40.48c.12.3.24.61.35.92h0l-9.61,3.69Zm-.29-.74c.1.24.19.49.29.74h0l9.61-3.69c-.12-.3-.24-.6-.35-.9h0l-9.55,3.85Z"/><path class="cls-4" d="M105.48,44.34h0l-.3-.74h0l9.5-4c.13.3.24.6.36.91h0l-9.55,3.86Zm-.31-.73c.11.24.21.48.31.73h0L115,40.49l-.35-.9h0l-9.5,4Z"/><path class="cls-4" d="M105.17,43.61h0c-.1-.24-.22-.48-.32-.73h0l9.43-4.19c.13.3.27.59.4.9h0l-9.5,4Zm-.32-.73c.11.24.22.48.32.72h0l9.49-4c-.13-.3-.27-.59-.4-.88h0l-9.41,4.18Z"/><path class="cls-4" d="M104.52,42.16h0c-.12-.24-.23-.48-.35-.73h0l9.29-4.52c.14.29.28.59.41.89h0l-9.34,4.36Zm-.35-.71c.12.23.23.47.35.7h0l9.33-4.34c-.13-.3-.27-.59-.4-.88h0l-9.28,4.52Z"/><path class="cls-4" d="M104.84,42.89h0c-.1-.24-.21-.49-.32-.73h0l9.36-4.36c.13.3.27.59.39.9h0l-9.42,4.19Zm-.32-.73c.11.24.22.48.32.72h0l9.42-4.18c-.14-.3-.27-.6-.4-.89h0l-9.34,4.35Z"/><path class="cls-4" d="M104.17,41.45h0l-.36-.71h0L113,36.05c.14.29.3.58.44.88h0l-9.28,4.53Zm-.36-.71.36.7h0l9.27-4.51c-.14-.3-.3-.58-.44-.87h0l-9.19,4.68Z"/><path class="cls-4" d="M102.25,38h0l-.43-.68h0l8.79-5.49c.17.28.35.55.51.84h0L102.25,38Zm-.42-.67c.14.22.29.44.42.66h0l8.86-5.31c-.16-.28-.34-.55-.5-.82h0l-8.78,5.47Z"/><path class="cls-4" d="M101.4,36.64h0L101,36h0l8.61-5.8c.18.27.35.55.52.83h0l-8.68,5.63ZM101,36c.15.21.29.43.44.65h0L110.07,31c-.18-.27-.34-.55-.51-.81h0L101,36Z"/><path class="cls-4" d="M107.64,51.15h0l-.18-.78h0l10-2.48c.08.31.15.63.22,1h0l-10,2.31Zm-.17-.78c.07.26.12.52.18.77h0l10-2.3c-.08-.32-.14-.63-.21-.94h0l-10,2.47Z"/><path class="cls-4" d="M108.64,57.43h0c0-.27,0-.53-.06-.8h0l10.21-1.07c0,.32.06.65.07,1h0l-10.22.89Zm-.06-.8c0,.26,0,.53.07.79h0l10.21-.89c0-.32,0-.65-.08-1h0l-10.2,1.06Z"/><path class="cls-4" d="M108.58,56.63h0c0-.27-.07-.53-.09-.8h0l10.19-1.25c0,.33.09.65.11,1h0l-10.2,1.07Zm-.1-.79c0,.27.07.52.1.79h0l10.2-1.07c0-.32-.09-.64-.12-1h0l-10.18,1.24Z"/><path class="cls-4" d="M108.71,58.22h0l-.06-.8h0l10.23-.89c0,.32,0,.65.07,1h0l-10.23.72Zm-.06-.79.06.78h0l10.22-.71c0-.32,0-.64-.07-1h0l-10.21.89Z"/><path class="cls-4" d="M108.38,55.06h0c0-.27-.07-.53-.11-.8h0l10.15-1.6c0,.32.09.65.13,1h0l-10.16,1.42Zm-.11-.79c0,.26.08.52.11.78h0l10.15-1.42c0-.32-.08-.65-.12-1h0l-10.14,1.6Z"/><path class="cls-4" d="M108.48,55.85h0c0-.27-.07-.53-.09-.8h0l10.17-1.42c0,.32.08.64.11,1h0l-10.18,1.25Zm-.1-.79c0,.25.07.52.1.78h0l10.17-1.24c0-.33-.07-.65-.11-1h0l-10.16,1.42Z"/><path class="cls-4" d="M108.81,60.6h0c0-.26,0-.53,0-.8h0l10.26-.35c0,.32,0,.65,0,1h0l-10.25.18Zm0-.79c0,.26,0,.52,0,.78h0l10.24-.17c0-.32,0-.65,0-1h0l-10.24.35Z"/><path class="cls-4" d="M108.79,59.81h0c0-.27,0-.53,0-.8h0L119,58.47c0,.33,0,.65,0,1h0l-10.25.36Zm0-.8c0,.26,0,.53,0,.79h0L119,59.45c0-.33,0-.65,0-1h0L108.77,59Z"/><path class="cls-4" d="M108.77,59h0c0-.26,0-.53-.06-.8h0L119,57.5c0,.33,0,.65.06,1h0L108.77,59Zm-.06-.79c0,.26.05.52.06.78h0L119,58.48c0-.33-.06-.65-.07-1h0l-10.23.71Z"/><path class="cls-4" d="M108.26,54.27h0c-.05-.26-.1-.52-.14-.79h0l10.12-1.78c.06.32.12.64.16,1h0l-10.14,1.61Zm-.13-.78c.05.25.1.51.14.77h0l10.13-1.59c-.05-.33-.12-.64-.17-1h0l-10.1,1.78Z"/><path class="cls-4" d="M106.82,48.08h0c-.08-.25-.17-.5-.25-.76h0l9.8-3.18c.1.31.2.62.29.94h0l-9.84,3Zm-.24-.76c.08.25.17.5.25.75h0l9.82-3c-.09-.32-.2-.62-.29-.93h0l-9.78,3.17Z"/><path class="cls-4" d="M107,48.84h0l-.21-.77h0l9.85-3c.09.31.17.63.26,1h0L107,48.85Zm-.21-.76c.08.25.14.5.22.76h0L116.92,46c-.09-.31-.18-.62-.26-.93h0l-9.83,3Z"/><path class="cls-4" d="M108.12,53.49h0c-.05-.26-.1-.53-.14-.79h0l10.09-2c.06.32.11.64.16,1h0l-10.11,1.78ZM108,52.7c.05.26.09.52.14.78h0l10.1-1.77c-.06-.32-.11-.64-.17-1h0L108,52.7Z"/><path class="cls-4" d="M106.57,47.33h0c-.09-.25-.17-.51-.25-.76h0l9.73-3.35c.11.31.21.61.31.93h0l-9.79,3.18Zm-.25-.76.26.75h0l9.77-3.17-.3-.92h0l-9.73,3.34Z"/><path class="cls-4" d="M106.32,46.57h0c-.09-.25-.17-.51-.25-.76h0l9.68-3.52c.11.3.21.61.31.93h0l-9.73,3.35Zm-.26-.75c.09.25.18.5.26.75h0L116,43.23c-.11-.31-.2-.62-.3-.92h0l-9.68,3.51Z"/><path class="cls-4" d="M107.26,49.61h0l-.21-.77h0L116.93,46c.09.31.18.62.26.94h0l-9.93,2.67Zm-.21-.77c.07.25.15.51.21.76h0L117.18,47c-.08-.32-.17-.62-.25-.93h0l-9.88,2.82Z"/><path class="cls-4" d="M107.82,51.93h0c0-.26-.11-.52-.17-.78h0l10-2.31c.07.32.15.63.21,1h0l-10.05,2.13Zm-.17-.78.18.77h0l10-2.13c-.07-.32-.15-.63-.21-.94h0l-10,2.3Z"/><path class="cls-4" d="M107.47,50.38h0c-.07-.26-.14-.52-.2-.78h0L117.2,47c.08.31.16.62.24.95h0l-10,2.48Zm-.2-.77c.06.25.13.5.2.76h0l10-2.48-.24-.94h0l-9.92,2.66Z"/><path class="cls-4" d="M108,52.71h0c0-.26-.11-.52-.16-.79h0l10.06-2.13c.07.31.13.64.18,1h0l-10.08,2Zm-.15-.79c.06.26.11.52.16.78h0l10.07-2c-.07-.32-.13-.64-.19-1h0l-10,2.12Z"/><path class="cls-4" d="M106.06,45.82h0c-.09-.25-.19-.5-.29-.75h0l9.63-3.69c.11.3.24.6.35.92h0l-9.68,3.52Zm-.29-.74c.1.25.2.49.29.73h0l9.67-3.51c-.12-.3-.24-.6-.35-.9h0l-9.61,3.68Z"/><path class="cls-4" d="M100.49,87.47h0c.15-.22.31-.43.47-.65h0l8.59,5.81c-.18.27-.37.52-.57.79h0l-8.49-5.94ZM109,93.4l.56-.78h0L101,86.82c-.15.21-.3.43-.46.64h0L109,93.4Z"/><path class="cls-4" d="M107.82,70.87h0c.05-.27.1-.52.16-.79h0l10.09,2c-.06.32-.12.64-.2,1h0l-10.05-2.14Zm10,2.13c.07-.32.13-.64.2-1h0l-10.07-2c0,.26-.1.51-.16.77h0l10,2.14Z"/><path class="cls-4" d="M107.64,71.65h0l.18-.78h0L117.88,73c-.07.32-.15.64-.23,1h0l-10-2.31Zm10,2.3c.07-.32.15-.63.22-.94h0l-10-2.14-.18.77h0l10,2.31Z"/><path class="cls-4" d="M108.26,68.53h0c0-.26.07-.52.12-.79h0l10.17,1.43c0,.33-.09.65-.15,1h0l-10.14-1.6Zm10.14,1.6c0-.32.09-.65.14-1h0l-10.16-1.43c0,.26-.07.51-.11.77h0l10.13,1.62Z"/><path class="cls-4" d="M108.12,69.31h0c0-.26.09-.52.14-.79h0l10.15,1.62q-.07.48-.18,1h0l-10.11-1.78Zm10.11,1.78c0-.33.12-.64.17-1h0l-10.13-1.61c0,.26-.09.52-.14.78h0l10.1,1.79Z"/><path class="cls-4" d="M107.46,72.42h0q.09-.37.18-.78h0l10,2.32c-.07.32-.14.64-.23,1h0l-10-2.49Zm10,2.48c.08-.32.14-.64.22-.94h0l-10-2.32c-.06.26-.11.51-.18.77h0l10,2.49Z"/><path class="cls-4" d="M108,70.09h0c0-.26.09-.53.14-.79h0l10.12,1.79c-.06.32-.11.64-.18,1h0l-10.08-2Zm10.07,2c.07-.32.12-.64.18-1h0l-10.1-1.78c0,.25-.09.51-.14.77h0l10.06,2Z"/><path class="cls-4" d="M107.26,73.19h0c.07-.26.14-.51.22-.77h0l10,2.49c-.08.32-.16.63-.25.95h0l-9.93-2.66Zm9.92,2.65c.09-.31.17-.63.25-.93h0l-10-2.49c-.06.25-.13.5-.2.76h0l9.91,2.66Z"/><path class="cls-4" d="M106.57,75.47h0c.08-.25.17-.5.26-.76h0l9.84,3c-.1.31-.2.62-.31.93h0l-9.79-3.18Zm9.78,3.17c.1-.31.21-.61.31-.92h0l-9.83-3c-.08.25-.17.5-.25.75h0l9.77,3.18Z"/><path class="cls-4" d="M106.32,76.22h0c.09-.24.17-.49.26-.75h0l9.79,3.19c-.09.31-.2.61-.32.92h0l-9.72-3.35ZM116,79.56c.11-.3.21-.61.32-.91h0l-9.78-3.18c-.08.25-.17.5-.25.74h0L116,79.56Z"/><path class="cls-4" d="M107,74h0l.23-.77h0l9.93,2.67c-.08.31-.17.62-.27.94h0L107,74Zm9.88,2.83.27-.93h0l-9.92-2.67c-.07.26-.15.51-.22.76h0l9.87,2.84Z"/><path class="cls-4" d="M106.82,74.72h0c.07-.25.14-.51.22-.77h0l9.89,2.84c-.09.31-.17.63-.27.94h0l-9.84-3Zm9.83,3c.1-.31.18-.63.27-.93h0L107.05,74c-.07.25-.14.51-.22.76h0l9.82,3Z"/><path class="cls-4" d="M108.38,67.74h0c0-.26.07-.52.11-.79h0l10.19,1.26c0,.32-.08.64-.13,1h0l-10.16-1.43Zm10.15,1.42c0-.32.09-.64.13-1h0L108.48,67c0,.26-.06.52-.1.78h0l10.15,1.43Z"/><path class="cls-4" d="M108.81,62.2h0l0-.8H119.1c0,.32,0,.65,0,1h0l-10.25-.18Zm10.25.17c0-.33,0-.65,0-1H108.84c0,.26,0,.52,0,.78h0l10.24.19Z"/><path class="cls-4" d="M108.79,63h0c0-.26,0-.52,0-.8h0l10.26.19c0,.32,0,.65,0,1h0L108.79,63Zm10.24.35c0-.32,0-.65,0-1h0l-10.24-.19c0,.26,0,.53,0,.79h0l10.23.36Z"/><path class="cls-4" d="M108.77,63.79h0c0-.26,0-.53,0-.8h0l10.26.36c0,.33,0,.65,0,1h0l-10.24-.53Zm10.24.53c0-.33,0-.65,0-1h0L108.8,63c0,.27,0,.53,0,.79h0l10.24.55Z"/><path class="cls-4" d="M108.82,61.4c0-.27,0-.53,0-.8h0l10.26-.17c0,.33,0,.65,0,1H108.82Zm0,0h10.25c0-.33,0-.65,0-1h0l-10.24.18c0,.26,0,.52,0,.78Z"/><path class="cls-4" d="M106.06,77h0c.09-.25.17-.5.27-.76h0l9.73,3.36c-.1.31-.2.62-.32.93h0L106.06,77Zm9.67,3.52c.11-.31.2-.62.31-.92h0l-9.72-3.35c-.08.25-.16.5-.25.74h0l9.66,3.53Z"/><path class="cls-4" d="M108.48,67h0c0-.27.07-.53.11-.8h0l10.21,1.08c0,.33-.08.64-.13,1h0L108.48,67Zm10.17,1.25c0-.33.1-.65.13-1h0l-10.2-1.08c0,.26-.06.52-.1.78h0l10.17,1.26Z"/><path class="cls-4" d="M108.7,64.58h0c0-.26,0-.53.07-.8h0l10.25.55c0,.32,0,.64-.08,1h0l-10.24-.72Zm10.23.71c0-.33.06-.65.08-1h0l-10.24-.54c0,.26,0,.52-.06.79h0l10.22.72Z"/><path class="cls-4" d="M108.58,66.16h0c0-.26,0-.53.08-.8h0l10.22.9c0,.32-.05.65-.09,1h0l-10.2-1.08Zm10.2,1.07c0-.32,0-.65.08-1h0l-10.21-.9c0,.26,0,.52-.07.78h0l10.2,1.08Z"/><path class="cls-4" d="M108.64,65.37h0c0-.27,0-.53.07-.81h0l10.24.73c0,.32,0,.65-.09,1h0l-10.22-.9Zm10.22.89c0-.32,0-.65.08-1h0l-10.23-.73c0,.26,0,.53-.06.79h0l10.21.9Z"/><path class="cls-4" d="M105.76,77.71h0l.3-.75h0l9.68,3.53c-.11.31-.24.61-.36.92h0l-9.62-3.7Zm9.62,3.69c.11-.31.24-.61.35-.9h0L106.06,77c-.09.25-.19.49-.29.73h0l9.61,3.7Z"/><path class="cls-4" d="M101,86.82h0c.15-.22.29-.44.45-.66h0l8.68,5.65c-.18.27-.34.55-.53.82h0l-8.6-5.8Zm8.59,5.79c.18-.27.35-.55.53-.81h0l-8.67-5.64c-.14.22-.29.44-.44.65h0l8.58,5.8Z"/><path class="cls-4" d="M101.39,86.16h0l.44-.67h0l8.78,5.5-.54.82h0l-8.68-5.64Zm8.68,5.63c.18-.27.35-.55.53-.81h0l-8.77-5.49c-.14.22-.28.44-.43.66h0l8.67,5.64Z"/><path class="cls-4" d="M101.82,85.5h0c.14-.22.29-.44.43-.67h0l8.87,5.34c-.16.28-.34.55-.52.83h0l-8.78-5.48ZM110.6,91l.51-.82h0l-8.85-5.33c-.14.23-.29.44-.43.67h0L110.6,91Z"/><path class="cls-4" d="M104.16,81.35h0l.36-.72h0L113.87,85c-.14.29-.28.59-.43.88h0l-9.28-4.52Zm9.28,4.52.42-.88h0l-9.34-4.36c-.11.24-.23.47-.35.71h0l9.27,4.53Z"/><path class="cls-4" d="M104.51,80.63h0l.33-.72h0l9.43,4.2c-.13.3-.27.59-.41.89h0l-9.35-4.36ZM113.85,85c.14-.29.27-.59.41-.88h0l-9.41-4.19c-.11.24-.21.48-.33.71h0L113.85,85Z"/><path class="cls-4" d="M104.84,79.91h0c.12-.24.23-.48.34-.73h0l9.5,4c-.13.3-.27.59-.41.89h0l-9.42-4.19Zm9.42,4.19c.13-.3.27-.59.4-.88h0l-9.49-4c-.1.24-.21.48-.32.72h0l9.41,4.2Z"/><path class="cls-4" d="M105.47,78.45h0c.1-.24.19-.49.3-.74h0l9.62,3.7c-.12.3-.24.61-.37.91h0l-9.55-3.86ZM115,82.3l.36-.89h0l-9.61-3.7c-.09.25-.19.49-.29.73h0L115,82.3Z"/><path class="cls-4" d="M105.17,79.19h0l.32-.74h0L115,82.31c-.12.3-.23.6-.37.91h0l-9.49-4Zm9.49,4,.36-.9h0l-9.54-3.86-.3.73h0l9.48,4Z"/><path class="cls-4" d="M102.65,84.14h0c.13-.23.26-.46.4-.69h0l9,5c-.16.29-.33.57-.5.85h0l-8.95-5.17Zm8.95,5.16.49-.84h0l-9-5-.4.68h0l8.94,5.17Z"/><path class="cls-4" d="M103.05,83.45h0c.13-.23.27-.45.4-.69h0l9.12,4.85c-.15.29-.31.58-.47.86h0l-9-5Zm9,5c.16-.28.32-.56.47-.84h0l-9.1-4.85-.39.68h0l9,5Z"/><path class="cls-4" d="M103.8,82.05h0c.12-.23.24-.47.37-.7h0l9.28,4.53q-.21.43-.45.87h0l-9.2-4.69ZM113,86.73c.15-.29.31-.57.45-.86h0l-9.27-4.52-.36.7h0L113,86.73Z"/><path class="cls-4" d="M102.25,84.83h0c.13-.23.26-.46.4-.69h0l9,5.17c-.16.29-.32.57-.5.85h0l-8.86-5.32Zm8.86,5.31c.17-.27.33-.56.49-.83h0l-8.94-5.17-.4.68h0l8.85,5.32Z"/><path class="cls-4" d="M103.44,82.76h0c.13-.23.25-.47.38-.71h0l9.2,4.7c-.15.29-.29.58-.46.87h0l-9.11-4.85Zm9.11,4.84.45-.86h0l-9.19-4.69-.36.7h0l9.1,4.85Z"/><path class="cls-4" d="M8.14,70.12l11.29-1.79h0c0,.25.1.51.13.77h0l-11.25,2c-.06-.32-.12-.64-.17-1Zm0,0c0,.32.11.63.16,1h0l11.25-2c0-.25-.1-.5-.14-.75h0L8.15,70.13Z"/><path class="cls-4" d="M8,69.16l11.31-1.59h0c0,.26.06.51.1.78h0L8.14,70.13c-.05-.32-.09-.65-.13-1Zm0,0c0,.32.08.65.12,1h0l11.28-1.78c0-.25-.07-.51-.1-.76h0L8,69.16Z"/><path class="cls-4" d="M7.88,68.19,19.23,66.8h0c0,.26.07.52.1.78h0L8,69.16l-.12-1Zm0,0,.12,1H8l11.31-1.59c0-.25-.07-.5-.1-.76h0L7.89,68.2Z"/><path class="cls-4" d="M8.31,71.08l11.25-2h0c.05.25.09.51.13.77h0L8.48,72.05c-.06-.32-.12-.64-.17-1Zm0,0c0,.32.11.65.16,1h0l11.21-2.17c0-.25-.09-.51-.13-.76h0l-11.24,2Z"/><path class="cls-4" d="M8.48,72,19.7,69.86h0c.05.26.09.51.14.77h0L8.67,73c-.07-.32-.13-.63-.19-1Zm0,0,.18.95h0l11.17-2.36c-.05-.25-.1-.51-.14-.76h0L8.49,72Z"/><path class="cls-4" d="M7.76,67.22,19.13,66h0c0,.25.06.5.09.77h0L7.88,68.2c0-.33-.09-.64-.12-1Zm0,0c0,.32.08.64.11,1h0L19.22,66.8c0-.25-.07-.5-.1-.76h0L7.77,67.23Z"/><path class="cls-4" d="M7.51,63.33l11.42-.39h0c0,.26,0,.52,0,.79h0l-11.42.59c0-.33,0-.65,0-1Zm0,0c0,.33,0,.65,0,1h0L19,63.72c0-.26,0-.51,0-.77h0l-11.42.39Z"/><path class="cls-4" d="M7.54,64.31,19,63.71h0c0,.26,0,.51.05.78h0L7.6,65.29c0-.33-.06-.65-.06-1Zm0,0c0,.32,0,.64.07,1h0L19,64.49c0-.26,0-.51-.05-.77h0l-11.41.6Z"/><path class="cls-4" d="M8.67,73l11.17-2.37h0c.06.25.12.5.17.76h0L8.89,74c-.08-.32-.16-.63-.22-1Zm0,0c.07.32.15.63.21.94h0L20,71.38c-.05-.25-.12-.49-.17-.75h0L8.68,73Z"/><path class="cls-4" d="M7.68,66.25l11.39-1h0c0,.26,0,.52.05.78h0L7.76,67.23c0-.32-.06-.65-.08-1Zm0,0c0,.32,0,.65.07,1h0L19.12,66l-.06-.77h0l-11.37,1Z"/><path class="cls-4" d="M10.81,42.3c.11-.31.23-.6.36-.91h0L21.8,45.47h0c-.09.24-.19.48-.28.73h0L10.81,42.3Zm0,0L21.52,46.2l.27-.72h0L11.17,41.4l-.36.89Z"/><path class="cls-4" d="M10.49,43.22c.11-.3.21-.61.32-.92h0l10.72,3.9h0c-.09.24-.17.48-.26.73h0L10.49,43.22Zm0,0,10.78,3.72c.08-.25.15-.49.24-.73h0L10.82,42.3c-.11.31-.21.62-.32.92Z"/><path class="cls-4" d="M10.18,44.15c.1-.31.21-.62.32-.93h0l10.78,3.71h0c-.08.25-.17.49-.26.74h0L10.18,44.15Zm0,0L21,47.67l.24-.73h0L10.51,43.23c-.11.3-.22.61-.32.91Z"/><path class="cls-4" d="M11.16,41.39c.11-.3.23-.6.36-.91h0l10.57,4.27h0c-.09.24-.19.48-.29.73h0l-10.64-4.1Zm0,0L21.8,45.48c.09-.25.18-.48.28-.72h0L11.53,40.49l-.36.9Z"/><path class="cls-4" d="M18.12,28.59c.19-.26.38-.53.58-.79h0l9,6.81h0l-.46.64h0l-9.16-6.67Zm0,0,9.15,6.66c.15-.21.29-.42.45-.63h0l-9-6.81c-.19.26-.38.53-.57.78Z"/><path class="cls-4" d="M17,30.18c.18-.27.38-.53.57-.8h0l9.28,6.5h0l-.44.64h0L17,30.18Zm0,0,9.39,6.34.44-.64h0l-9.27-6.49c-.18.27-.38.53-.56.79Z"/><path class="cls-4" d="M17.55,29.38c.19-.26.38-.53.58-.79h0l9.16,6.66h0l-.46.64h0l-9.28-6.51Zm0,0,9.27,6.5.45-.63h0L18.13,28.6c-.19.26-.38.53-.57.78Z"/><path class="cls-4" d="M16.46,31c.18-.27.35-.55.54-.82h0l9.4,6.34h0c-.14.22-.27.44-.42.65h0L16.46,31Zm0,0L26,37.17l.42-.64h0L17,30.19c-.18.26-.35.54-.53.81Z"/><path class="cls-4" d="M11.88,39.58c.13-.3.27-.59.41-.89h0l10.4,4.63h0c-.1.24-.21.47-.32.71h0L11.88,39.58Zm0,0L22.36,44c.1-.24.21-.47.31-.7h0L12.29,38.7c-.13.3-.27.59-.4.88Z"/><path class="cls-4" d="M13.1,36.92q.21-.44.45-.87h0l10.13,5.16h0l-.36.7h0l-10.22-5Zm0,0,10.22,5c.11-.23.23-.46.35-.69h0L13.55,36.06l-.45.86Z"/><path class="cls-4" d="M15.94,31.82c.17-.28.35-.55.53-.82h0L26,37.17h0l-.43.66h0l-9.62-6Zm0,0,9.61,6c.13-.22.27-.43.41-.65h0L16.48,31l-.53.8Z"/><path class="cls-4" d="M12.68,37.8c.14-.29.27-.59.42-.88h0l10.22,5h0c-.11.24-.21.48-.33.71h0L12.68,37.8Zm0,0L23,42.62c.1-.24.2-.48.31-.71h0l-10.2-5c-.14.29-.28.59-.42.87Z"/><path class="cls-4" d="M12.28,38.69c.13-.29.26-.59.41-.89h0L23,42.61h0l-.33.71h0l-10.4-4.64Zm0,0,10.39,4.63.31-.7h0l-10.3-4.81c-.13.29-.26.59-.4.88Z"/><path class="cls-4" d="M11.52,40.49c.12-.31.23-.61.37-.91h0L22.37,44h0c-.1.23-.19.48-.3.72h0L11.52,40.49Zm0,0,10.55,4.27c.1-.23.18-.48.28-.71h0L11.89,39.58c-.13.3-.24.61-.36.9Z"/><path class="cls-4" d="M13.54,36.06c.15-.29.29-.59.45-.87h0l10,5.33h0l-.37.7h0L13.54,36.06Zm0,0,10.12,5.17.35-.69h0L14,35.19c-.16.29-.3.58-.45.86Z"/><path class="cls-4" d="M14.94,33.49c.16-.28.31-.57.49-.85h0l9.74,5.85h0l-.4.68h0l-9.83-5.69Zm0,0,9.83,5.68.38-.67h0l-9.72-5.85c-.16.28-.32.56-.49.84Z"/><path class="cls-4" d="M15.42,32.64l.53-.82h0l9.61,6h0l-.41.67h0l-9.74-5.86Zm0,0,9.73,5.85.39-.66h0l-9.6-6c-.17.28-.35.55-.52.82Z"/><path class="cls-4" d="M14.45,34.33c.16-.28.32-.56.5-.84h0l9.83,5.67h0l-.39.68h0l-9.94-5.52Zm0,0,9.92,5.51c.12-.22.26-.44.39-.67h0L15,33.5l-.49.83Z"/><path class="cls-4" d="M14,35.19c.16-.29.31-.57.48-.86h0l9.93,5.51h0c-.12.23-.23.46-.36.7h0L14,35.19Zm0,0,10,5.33.36-.68h0l-9.92-5.5-.47.85Z"/><path class="cls-4" d="M15.94,91l9.62-6h0c.13.22.27.43.41.66h0l-9.52,6.17c-.18-.27-.35-.54-.52-.83Zm0,0,.52.81h0L26,85.62c-.14-.22-.28-.43-.41-.65h0L16,91Z"/><path class="cls-4" d="M15.42,90.14l9.74-5.85h0c.13.22.26.44.39.68h0l-9.62,6c-.18-.27-.35-.54-.52-.83Zm0,0c.17.28.35.55.51.82h0l9.61-6c-.13-.21-.26-.44-.39-.66h0l-9.73,5.84Z"/><path class="cls-4" d="M16.46,91.78,26,85.61h0l.41.66h0L17,92.61c-.18-.27-.35-.55-.53-.83Zm0,0,.52.82h0l9.4-6.33c-.14-.22-.28-.43-.41-.65h0l-9.51,6.16Z"/><path class="cls-4" d="M17.55,93.39l9.28-6.49h0c.14.21.3.42.45.64h0L18.12,94.2c-.2-.27-.38-.53-.57-.81Zm0,0,.56.8h0l9.16-6.65-.45-.63h0l-9.27,6.48Z"/><path class="cls-4" d="M14.94,89.29l9.83-5.67h0c.13.22.26.45.38.68h0l-9.74,5.85c-.17-.28-.32-.57-.48-.86Zm0,0c.16.28.32.56.47.84h0l9.73-5.84-.38-.67h0L15,89.3Z"/><path class="cls-4" d="M17,92.6l9.4-6.34h0c.15.21.29.43.44.65h0L17.55,93.4c-.18-.26-.38-.52-.56-.8Zm0,0c.18.27.38.53.55.79h0l9.28-6.48-.44-.64h0L17,92.6Z"/><path class="cls-4" d="M14.45,88.45l9.94-5.51h0c.13.22.26.44.39.68h0L14.94,89.3c-.17-.28-.33-.56-.49-.85Zm0,0c.16.29.33.56.48.84h0l9.83-5.67c-.13-.22-.26-.44-.38-.66h0l-9.93,5.49Z"/><path class="cls-4" d="M13.1,85.86l10.22-5h0c.11.23.23.46.35.7h0L13.54,86.74c-.15-.29-.3-.58-.44-.88Zm0,0,.43.87h0l10.13-5.16c-.12-.22-.24-.45-.35-.68h0l-10.21,5Z"/><path class="cls-4" d="M12.68,85,23,80.17h0c.11.24.21.48.31.71h0l-10.22,5c-.15-.29-.28-.59-.42-.89Zm0,0c.14.3.28.59.41.88h0l10.22-5c-.12-.23-.22-.46-.32-.7h0L12.69,85Z"/><path class="cls-4" d="M13.54,86.73l10.13-5.16h0c.12.23.24.46.35.7h0L14,87.6c-.15-.28-.29-.57-.44-.87Zm0,0c.15.29.29.58.44.86h0l10-5.32-.35-.69h0L13.55,86.73Z"/><path class="cls-4" d="M14,87.59l10-5.33h0c.13.23.24.46.36.7h0l-9.94,5.5c-.16-.29-.31-.57-.46-.87Zm0,0,.45.85h0L24.38,83c-.12-.22-.23-.45-.35-.68h0L14,87.6Z"/><path class="cls-4" d="M12.28,84.09l10.4-4.63h0c.1.24.21.47.32.72h0L12.68,85c-.14-.3-.27-.59-.4-.9Zm0,0c.13.3.27.6.39.89h0L23,80.18c-.11-.24-.22-.47-.32-.7h0L12.29,84.09Z"/><path class="cls-4" d="M21.79,98.73l8.39-7.56h0l.51.6h0l-8.25,7.68-.66-.72Zm0,0,.65.71h0l8.24-7.67-.51-.58h0L21.8,98.73Z"/><path class="cls-4" d="M18.12,94.19l9.16-6.66h0l.45.65h0l-9,6.8c-.2-.26-.38-.52-.57-.79Zm0,0c.19.26.37.53.56.78h0l9-6.8-.45-.62h0l-9.15,6.64Z"/><path class="cls-4" d="M21.15,98l8.52-7.4h0l.51.6h0l-8.4,7.55c-.22-.24-.43-.49-.64-.75Zm0,0,.63.74h0l8.39-7.55c-.17-.19-.34-.38-.5-.58h0L21.16,98Z"/><path class="cls-4" d="M23.12,100.15l8.11-7.83h0l.54.57h0l-8,8c-.23-.23-.45-.47-.68-.71Zm0,0c.23.23.45.47.67.7h0l8-8c-.18-.18-.36-.37-.53-.56h0l-8.11,7.82Z"/><path class="cls-4" d="M22.45,99.44l8.25-7.68h0l.53.57h0l-8.12,7.83c-.22-.24-.45-.47-.67-.72Zm0,0,.66.71h0l8.11-7.82c-.18-.19-.36-.37-.53-.56h0l-8.24,7.67Z"/><path class="cls-4" d="M19.29,95.74l8.91-7h0l.48.62h0l-8.8,7.12-.6-.78Zm0,0c.2.26.4.51.59.77h0l8.79-7.11-.47-.6h0L19.3,95.74Z"/><path class="cls-4" d="M18.69,95l9-6.81h0l.47.62h0l-8.92,7-.6-.78Zm0,0,.59.76h0l8.91-6.95-.47-.61h0l-9,6.8Z"/><path class="cls-4" d="M20.51,97.26,29.16,90h0l.51.6h0L21.15,98c-.21-.24-.43-.48-.64-.74Zm0,0,.63.73h0l8.52-7.39c-.17-.2-.34-.38-.5-.58h0l-8.65,7.24Z"/><path class="cls-4" d="M19.89,96.51l8.79-7.12h0l.48.62h0l-8.66,7.26-.62-.76Zm0,0c.21.25.42.5.61.75h0L29.16,90l-.47-.6h0l-8.79,7.1Z"/><path class="cls-4" d="M10.19,78.64,21,75.11h0l.24.74h0L10.49,79.57c-.1-.31-.21-.61-.3-.93Zm0,0c.1.31.21.61.31.92h0l10.78-3.7c-.09-.25-.17-.49-.25-.73h0L10.19,78.64Z"/><path class="cls-4" d="M10.81,80.48l10.72-3.9h0c.08.24.18.48.27.73h0L11.16,81.4c-.12-.3-.24-.6-.35-.92Zm0,0,.34.9h0L21.8,77.32q-.15-.36-.27-.72h0L10.82,80.49Z"/><path class="cls-4" d="M10.5,79.56l10.78-3.71h0l.24.74h0l-10.72,3.9c-.12-.3-.21-.61-.31-.93Zm0,0,.3.91h0l10.71-3.89-.24-.73h0L10.51,79.57Z"/><path class="cls-4" d="M11.88,83.2l10.49-4.45h0c.1.24.2.48.31.72h0L12.28,84.1c-.13-.3-.28-.59-.4-.9Zm0,0c.13.29.27.59.39.88h0l10.4-4.62c-.11-.23-.21-.47-.31-.7h0L11.89,83.21Z"/><path class="cls-4" d="M11.52,82.3,22.08,78h0c.1.24.19.49.28.73h0L11.88,83.21c-.13-.3-.24-.6-.36-.91Zm0,0c.12.3.23.61.35.9h0l10.48-4.44c-.09-.24-.18-.48-.28-.72h0L11.53,82.3Z"/><path class="cls-4" d="M11.16,81.39,21.8,77.31h0c.09.24.19.48.28.73h0L11.52,82.31c-.13-.31-.25-.61-.36-.92Zm0,0c.12.31.24.61.35.91h0L22.08,78c-.1-.24-.19-.48-.28-.72h0L11.17,81.39Z"/><path class="cls-4" d="M9.62,76.77l11-3.14h0l.21.76h0L9.88,77.72c-.09-.31-.17-.63-.26-1Zm0,0c.09.31.17.62.26.93h0L20.8,74.38c-.08-.24-.14-.49-.21-.74h0l-11,3.14Z"/><path class="cls-4" d="M9.35,75.84l11-3h0c.06.25.14.49.2.75h0l-11,3.14c-.09-.31-.19-.62-.27-.94Zm0,0c.09.32.18.63.26.93h0l11-3.13c-.06-.25-.14-.49-.2-.74h0l-11,2.94Z"/><path class="cls-4" d="M9.11,74.89l11.08-2.76h0l.18.77h0l-11,2.94c-.08-.31-.17-.62-.24-1Zm0,0c.08.31.16.63.23.94h0l11-3c-.07-.25-.13-.5-.19-.74h0L9.12,74.9Z"/><path class="cls-4" d="M8.89,73.94,20,71.37h0c0,.25.11.5.16.76h0L9.1,74.9q-.11-.47-.21-1Zm0,0,.21.94h0l11.08-2.75L20,71.39h0L8.9,74Z"/><path class="cls-4" d="M9.89,77.71,20.8,74.37h0c.08.24.15.49.23.75h0L10.18,78.64c-.1-.3-.2-.61-.29-.93Zm0,0c.09.32.19.62.28.93h0L21,75.12c-.08-.24-.15-.49-.23-.73h0L9.9,77.71Z"/><path class="cls-4" d="M7.61,65.28l11.4-.8h0c0,.26,0,.51.05.78h0l-11.39,1c0-.32-.06-.65-.07-1Zm0,0c0,.32,0,.64.07,1h0l11.38-1L19,64.5h0l-11.39.79Z"/><path class="cls-4" d="M87.93,99.38h0l.67-.43h0l5.89,8.74-.83.53h0l-5.73-8.83Zm5.73,8.82.82-.52h0L88.6,99l-.66.42h0l5.72,8.83Z"/><path class="cls-4" d="M86.58,100.2h0l.69-.39h0l5.58,8.93-.84.52h0l-5.43-9Zm5.43,9,.83-.51h0l-5.57-8.92-.68.39h0l5.42,9Z"/><path class="cls-4" d="M87.26,99.8h0c.23-.13.45-.28.68-.42h0l5.73,8.84-.83.52h0L87.26,99.8Zm5.58,8.92.82-.51h0l-5.73-8.83-.66.42h0l5.57,8.92Z"/><path class="cls-4" d="M88.59,99h0l.67-.44h0l6,8.62c-.26.18-.52.38-.8.56h0L88.59,99Zm5.89,8.72c.27-.18.53-.38.79-.55h0l-6-8.61L88.6,99h0l5.88,8.72Z"/><path class="cls-4" d="M89.89,98.05h0l.66-.45h0L96.86,106l-.79.57h0l-6.18-8.5Zm6.18,8.49.78-.56h0l-6.3-8.38-.64.45h0l6.16,8.49Z"/><path class="cls-4" d="M89.25,98.51h0L89.9,98h0l6.17,8.51c-.26.2-.52.38-.8.57h0l-6-8.61Zm6,8.6.79-.56h0l-6.16-8.5-.64.46h0l6,8.6Z"/><path class="cls-4" d="M83.09,102.05h0l.72-.34h0l4.8,9.43c-.29.15-.58.31-.88.45h0l-4.64-9.53Zm4.64,9.52.87-.44h0l-4.79-9.42-.71.34h0l4.63,9.52Z"/><path class="cls-4" d="M83.8,101.71h0l.71-.36h0l5,9.35-.88.44h0l-4.8-9.42Zm4.8,9.41.87-.43h0l-5-9.34-.7.36h0l4.79,9.41Z"/><path class="cls-4" d="M84.5,101.34h0c.24-.13.47-.24.72-.36h0l5.11,9.24-.86.47h0l-5-9.35Zm5,9.34.85-.46h0L85.21,101l-.69.35h0l5,9.34Z"/><path class="cls-4" d="M85.2,101h0c.23-.13.45-.27.69-.39h0l5.28,9.15c-.28.16-.57.33-.86.48h0L85.2,101Zm5.12,9.22.85-.48h0L85.9,100.6l-.68.38h0l5.1,9.23Z"/><path class="cls-4" d="M82.37,102.38h0l.73-.32h0l4.64,9.53-.89.41h0l-4.48-9.61Zm4.48,9.6.88-.41h0l-4.63-9.52c-.24.12-.48.22-.72.33h0l4.47,9.6Z"/><path class="cls-4" d="M85.89,100.6h0l.7-.39h0l5.43,9c-.28.17-.56.32-.86.49h0l-5.27-9.14Zm5.28,9.13c.28-.17.57-.32.84-.48h0l-5.43-9-.67.4h0l5.26,9.13Z"/><path class="cls-4" d="M91.17,97.12h0c.21-.16.41-.33.63-.49h0l6.59,8.16-.77.59h0l-6.45-8.25Zm6.45,8.25.77-.6h0L91.8,96.63l-.62.48h0l6.44,8.26Z"/><path class="cls-4" d="M90.54,97.59h0l.64-.48h0l6.45,8.27-.78.6h0l-6.31-8.39ZM96.85,106l.77-.6h0l-6.44-8.25-.63.47h0l6.3,8.38Z"/><path class="cls-4" d="M79.45,103.59h0l.74-.29h0l4,9.87-.92.35h0l-3.81-9.92Zm3.82,9.91.9-.35h0l-4-9.85-.73.29h0l3.8,9.91Z"/><path class="cls-4" d="M71.08,105.78h0l.78-.13h0l2,10.55-1,.17h0l-1.87-10.58ZM73,116.35l1-.16h0l-2-10.54-.77.13h0L73,116.35Z"/><path class="cls-4" d="M69.53,106h0l.79-.1h0L72,116.54c-.32,0-.65.09-1,.12h0L69.53,106ZM71,116.66l1-.13h0L70.32,105.9l-.78.1h0L71,116.66Z"/><path class="cls-4" d="M70.31,105.9h0l.79-.11h0L73,116.36l-1,.17h0L70.31,105.9ZM72,116.52l1-.16h0l-1.86-10.57-.77.11h0L72,116.52Z"/><path class="cls-4" d="M72.63,105.5h0l.78-.15h0l2.4,10.45c-.31.07-.63.15-1,.21h0l-2.23-10.5ZM74.87,116l.94-.21h0l-2.4-10.44-.76.17h0L74.87,116Z"/><path class="cls-4" d="M81.65,102.7h0l.73-.32h0L86.86,112l-.9.4h0l-4.31-9.69ZM86,112.38l.89-.39h0l-4.47-9.61-.72.32h0l4.3,9.68Z"/><path class="cls-4" d="M67.18,106.23h0l.79,0h0l1.12,10.75-1,.07h0l-.94-10.76ZM68.13,117l1-.07h0L68,106.18l-.77.06h0L68.13,117Z"/><path class="cls-4" d="M68.75,106.1h0l.79-.1h0L71,116.67l-1,.12h0L68.75,106.1Zm1.32,10.68,1-.12h0L69.54,106l-.78.1h0l1.31,10.68Z"/><path class="cls-4" d="M66.4,106.29h0l.79,0h0L68.13,117l-1,.07h0l-.75-10.77Zm.76,10.76,1-.06h0l-.93-10.75-.78.05h0l.75,10.76Z"/><path class="cls-4" d="M65.61,106.32h0l.79,0h0l.75,10.78-1,.07h0l-.57-10.82Zm.58,10.81,1-.07h0l-.74-10.76-.78,0h0l.56,10.8Z"/><path class="cls-4" d="M68,106.17h0l.79-.07h0l1.31,10.7c-.33,0-.64.09-1,.12h0L68,106.17ZM69.1,116.9l1-.11h0l-1.3-10.69-.78.08h0L69.1,116.9Z"/><path class="cls-4" d="M73.41,105.34h0l.78-.17h0l2.58,10.41-1,.21h0l-2.4-10.44Zm2.41,10.43.94-.21h0l-2.58-10.39-.76.17h0l2.4,10.43Z"/><path class="cls-4" d="M71.86,105.64h0l.78-.13h0L74.87,116l-1,.19h0l-2-10.55Zm2.06,10.54,1-.18h0l-2.23-10.49-.76.14h0l2,10.53Z"/><path class="cls-4" d="M78.71,103.84h0l.76-.25h0l3.8,9.93c-.3.12-.6.24-.92.35h0l-3.64-10Zm3.65,10,.9-.34h0l-3.8-9.92-.74.26h0l3.64,10Z"/><path class="cls-4" d="M80.92,103h0l.74-.3h0L86,112.39c-.3.13-.59.28-.9.4h0L80.92,103Zm4.16,9.77c.3-.12.59-.27.88-.39h0l-4.3-9.68-.72.3h0l4.14,9.77Z"/><path class="cls-4" d="M74.17,105.16h0L75,105h0l2.77,10.34c-.32.09-.63.17-1,.24h0l-2.59-10.4Zm2.6,10.39.94-.23h0L75,105l-.76.18h0l2.58,10.38Z"/><path class="cls-4" d="M78,104.1h0l.75-.25h0l3.64,10c-.3.11-.61.2-.93.31h0L78,104.1Zm3.48,10.07.91-.31h0l-3.63-10-.74.25h0l3.46,10.07Z"/><path class="cls-4" d="M80.19,103.29h0l.74-.29h0l4.15,9.8-.91.35h0l-4-9.86Zm4,9.85.9-.35h0L80.93,103l-.73.29h0l4,9.84Z"/><path class="cls-4" d="M74.94,105h0l.77-.2h0l2.94,10.28-.94.26h0L74.94,105Zm2.77,10.32.93-.26h0l-2.93-10.27c-.25.07-.5.15-.76.21h0l2.76,10.32Z"/><path class="cls-4" d="M77.21,104.35h0l.75-.25h0l3.47,10.09-.93.31h0l-3.3-10.14Zm3.3,10.13.92-.31h0L78,104.1l-.74.25h0l3.28,10.13Z"/><path class="cls-4" d="M75.7,104.78h0l.76-.21h0l3.12,10.23-1,.26h0L75.7,104.78Zm3,10.26.93-.26h0l-3.11-10.21-.75.21h0L78.65,115Z"/><path class="cls-4" d="M76.46,104.56h0l.77-.21h0l3.29,10.15c-.31.1-.62.21-.94.3h0l-3.12-10.23Zm3.13,10.22.92-.29h0l-3.29-10.14-.75.22h0l3.12,10.21Z"/><path class="cls-4" d="M64.83,106.34h.8l.56,10.82c-.33,0-.65,0-1,0h0l-.38-10.82Zm.38,10.82c.33,0,.65,0,1,0h0l-.56-10.81h-.78l.37,10.82Z"/><path class="cls-4" d="M36.2,110.21l5.4-9.75h0l.68.4h0l-5.23,9.82-.86-.47Zm0,0,.85.47h0l5.22-9.81c-.22-.12-.44-.26-.67-.38h0l-5.4,9.72Z"/><path class="cls-4" d="M23.8,100.85l8-8h0l.55.56h0l-7.83,8.1c-.23-.23-.47-.45-.7-.69Zm0,0c.22.23.47.45.69.68h0l7.82-8.09-.55-.54h0l-8,7.95Z"/><path class="cls-4" d="M24.5,101.53l7.81-8.1h0l.57.55h0l-7.68,8.23-.71-.68Zm0,0,.7.67h0L32.88,94l-.56-.53h0l-7.81,8.08Z"/><path class="cls-4" d="M64.05,106.36h.79l.37,10.83-1,0h0l-.18-10.83Zm.19,10.82,1,0h0l-.37-10.82c-.26,0-.52,0-.78,0h0l.18,10.81Z"/><path class="cls-4" d="M49.76,115.55l2.66-10.66h0l.76.19h0l-2.48,10.7c-.32-.07-.63-.14-1-.23Zm0,0,1,.22h0l2.47-10.69-.75-.18h0l-2.67,10.65Z"/><path class="cls-4" d="M50.71,115.77l2.47-10.69h0l.77.18h0L51.66,116l-.95-.23Zm0,0,.95.22h0l2.28-10.73-.75-.17h0l-2.48,10.68Z"/><path class="cls-4" d="M48.81,115.31l2.85-10.63h0l.76.22h0l-2.67,10.67-.95-.25Zm0,0,.94.25h0l2.66-10.65-.75-.21h0L48.82,115.3Z"/><path class="cls-4" d="M53.57,116.35l1.9-10.78h0l.78.14h0l-1.72,10.82c-.33,0-.65-.11-1-.18Zm0,0,1,.17h0l1.72-10.8-.77-.14h0l-1.9,10.77Z"/><path class="cls-4" d="M25.21,102.2,32.88,94h0l.56.55h0l-7.53,8.35c-.24-.22-.48-.44-.71-.67Zm0,0,.7.66h0l7.52-8.34L32.88,94h0l-7.66,8.21Z"/><path class="cls-4" d="M52.61,116.18l2.09-10.75h0c.26.06.52.1.78.15h0l-1.91,10.79c-.32-.06-.65-.11-1-.18Zm0,0,1,.17h0l1.91-10.77-.77-.14h0l-2.09,10.74Z"/><path class="cls-4" d="M44.17,113.85,48,103.46h0l.74.29h0l-3.61,10.43c-.3-.1-.61-.2-.92-.32Zm0,0,.92.31h0l3.6-10.42-.73-.27h0l-3.79,10.38Z"/><path class="cls-4" d="M45.09,114.16l3.59-10.43h0l.75.26h0L46,114.49c-.31-.11-.62-.21-.93-.33Zm0,0,.91.32h0L49.43,104l-.74-.25h0L45.1,114.16Z"/><path class="cls-4" d="M47.88,115l3-10.58h0l.76.22h0l-2.86,10.64-.94-.28Zm0,0,.92.27h0l2.86-10.63-.75-.21h0l-3,10.57Z"/><path class="cls-4" d="M46.94,114.78l3.22-10.55h0c.25.08.5.15.75.24h0l-3,10.58c-.31-.09-.63-.17-.94-.27Zm0,0c.31.1.62.18.93.27h0l3-10.57-.74-.23h0L47,114.77Z"/><path class="cls-4" d="M46,114.48,49.42,104h0l.75.26h0l-3.24,10.55-.93-.31Zm0,0,.92.31h0l3.23-10.54-.74-.25h0L46,114.47Z"/><path class="cls-4" d="M57.43,116.91l1.14-10.86h0l.78.1h0L58.4,117c-.32,0-.65,0-1-.08Zm0,0c.33,0,.65,0,1,.09h0l1-10.84-.77-.1h0L57.43,116.9Z"/><path class="cls-4" d="M59.37,117.06l.76-10.86h0l.78.07h0l-.57,10.88-1-.08Zm0,0,1,.08h0l.58-10.87-.78-.05h0l-.76,10.84Z"/><path class="cls-4" d="M60.34,117.14l.57-10.88h0l.79.06h0l-.39,10.86-1,0Zm0,0c.32,0,.65,0,1,0h0l.39-10.84-.78,0h0l-.57,10.86Z"/><path class="cls-4" d="M61.31,117.16l.38-10.85h0l.79,0h0l-.2,10.86-1,0Zm0,0c.32,0,.65,0,1,0h0l.19-10.85-.77,0h0l-.39,10.84Z"/><path class="cls-4" d="M62.29,117.19l.19-10.86h0l.79,0h0v10.87c-.33,0-.65,0-1,0Zm0,0,1,0h0V106.36l-.78,0h0l-.2,10.84Z"/><path class="cls-4" d="M63.26,117.21V106.34l.59,0h0l-.59,0h0v10.86h0l1,0h0l-.18-10.83h-.19a1.33,1.33,0,0,1,.2,0h0l.18,10.83c-.32,0-.64,0-1,0h0Z"/><path class="cls-4" d="M43.26,113.5l4-10.33h0l.73.29h0l-3.79,10.4-.91-.36Zm0,0,.9.35h0L48,103.47l-.72-.29h0l-4,10.32Z"/><path class="cls-4" d="M56.46,116.78l1.33-10.84h0l.78.11h0l-1.15,10.86c-.32,0-.64-.08-1-.13Zm0,0c.32,0,.64.09,1,.13h0l1.14-10.86-.77-.1h0l-1.33,10.83Z"/><path class="cls-4" d="M55.49,116.66,57,105.84h0c.26,0,.52.06.78.11h0l-1.33,10.84-1-.13Zm0,0,1,.13h0L57.8,106l-.77-.1h0l-1.53,10.8Z"/><path class="cls-4" d="M54.53,116.52l1.71-10.81h0l.78.15h0L55.5,116.67l-1-.15Zm0,0,1,.14h0L57,105.85l-.77-.13h0l-1.71,10.8Z"/><path class="cls-4" d="M58.4,117l1-10.84h0l.78.07h0l-.77,10.87-1-.09Zm0,0,1,.08h0l.77-10.85-.78-.06h0L58.4,117Z"/><path class="cls-4" d="M51.66,116l2.28-10.74h0l.77.18h0l-2.1,10.76c-.32-.06-.64-.12-1-.2Zm0,0,1,.19h0l2.1-10.74-.76-.18h0L51.66,116Z"/><path class="cls-4" d="M30.46,106.54,37,97.49h0l.63.46h0l-6.42,9.16c-.27-.19-.54-.37-.8-.57Zm0,0c.26.19.53.37.78.56h0L37.67,98,37,97.5h0l-6.57,9Z"/><path class="cls-4" d="M29.67,106,36.42,97h0l.62.49h0l-6.59,9c-.26-.2-.53-.38-.79-.59Zm0,0c.26.2.53.38.78.58h0l6.58-9L36.43,97h0L29.68,106Z"/><path class="cls-4" d="M32.05,107.66l6.25-9.27h0l.65.45h0l-6.09,9.36c-.27-.17-.55-.34-.82-.54Zm0,0,.81.53h0L39,98.84c-.22-.14-.43-.29-.64-.44h0l-6.25,9.26Z"/><path class="cls-4" d="M31.25,107.1l6.42-9.16h0l.64.46h0l-6.27,9.27c-.27-.18-.53-.37-.8-.57Zm0,0,.79.57h0l6.26-9.27L37.68,98h0l-6.42,9.15Z"/><path class="cls-4" d="M42.35,113.14l4.15-10.25h0l.73.3h0l-4,10.33-.91-.37Zm0,0,.9.36h0l4-10.32-.72-.28h0l-4.15,10.24Z"/><path class="cls-4" d="M26.65,103.5,34,95h0l.59.51h0l-7.23,8.61-.74-.65Zm0,0,.73.64h0l7.22-8.6L34,95h0l-7.37,8.46Z"/><path class="cls-4" d="M32.87,108.19,39,98.83h0l.65.43h0l-5.92,9.47c-.28-.18-.55-.35-.82-.54Zm0,0,.81.53h0l5.91-9.46c-.21-.14-.43-.27-.64-.42h0l-6.08,9.35Z"/><path class="cls-4" d="M28.14,104.76,35.2,96h0l.61.5h0l-6.91,8.83-.77-.61Zm0,0,.76.6h0l6.9-8.82-.61-.48h0l-7.05,8.7Z"/><path class="cls-4" d="M25.92,102.86l7.52-8.35h0L34,95h0l-7.37,8.48c-.25-.21-.5-.42-.74-.65Zm0,0,.72.64h0L34,95l-.57-.52h0l-7.52,8.34Z"/><path class="cls-4" d="M27.39,104.14l7.22-8.6h0l.59.52h0l-7.07,8.72c-.25-.21-.5-.41-.75-.63Zm0,0,.74.62h0l7.06-8.71c-.2-.16-.39-.33-.58-.5h0l-7.22,8.59Z"/><path class="cls-4" d="M28.91,105.36l6.9-8.83h0l.61.49h0l-6.76,9c-.26-.19-.51-.4-.76-.61Zm0,0c.25.2.5.41.75.6h0L36.42,97l-.61-.48h0l-6.89,8.82Z"/><path class="cls-4" d="M41.45,112.78l4.33-10.21h0l.72.32h0l-4.15,10.26c-.3-.12-.61-.23-.91-.37Zm0,0,.89.36h0L46.5,102.9l-.71-.32h0l-4.33,10.2Z"/><path class="cls-4" d="M38.79,111.56l4.87-10h0c.24.11.46.24.7.36h0L39.68,112l-.89-.43Zm0,0c.29.14.59.27.87.42h0l4.69-10-.69-.36h0l-4.87,10Z"/><path class="cls-4" d="M40.56,112.38l4.51-10.13h0c.24.1.47.21.72.33h0l-4.35,10.21-.89-.41Zm0,0,.88.41h0l4.34-10.2-.71-.32h0l-4.51,10.11Z"/><path class="cls-4" d="M37.92,111.12l5-9.91h0l.7.37h0l-4.89,10c-.29-.14-.57-.29-.87-.45Zm0,0,.86.45h0l4.88-10-.69-.35h0l-5,9.88Z"/><path class="cls-4" d="M33.69,108.72l5.91-9.47h0l.66.43h0l-5.75,9.56c-.28-.16-.56-.34-.83-.52Zm0,0,.81.52h0l5.75-9.55-.65-.41h0l-5.91,9.44Z"/><path class="cls-4" d="M39.67,112l4.69-10h0c.23.12.47.22.71.33h0l-4.52,10.14-.89-.41Zm0,0,.88.41h0l4.51-10.12-.7-.32h0l-4.69,10Z"/><path class="cls-4" d="M34.51,109.24l5.75-9.57h0l.67.41h0l-5.58,9.65-.85-.49Zm0,0,.84.49h0l5.57-9.64-.66-.39h0l-5.75,9.54Z"/><path class="cls-4" d="M35.36,109.72l5.57-9.64h0c.22.14.45.26.68.4h0l-5.42,9.75-.84-.5Zm0,0,.83.49h0l5.41-9.74c-.23-.12-.45-.25-.67-.38h0l-5.57,9.63Z"/><path class="cls-4" d="M37.06,110.67l5.22-9.82h0l.69.37h0l-5,9.91-.87-.46Zm0,0,.85.45h0l5-9.9c-.23-.11-.46-.23-.68-.36h0l-5.22,9.81Z"/></g></g></svg>