<svg xmlns="http://www.w3.org/2000/svg" viewBox="0 0 110.6 110.6"><defs><style>.cls-1{fill:none;stroke:#00b4eb;stroke-miterlimit:10;stroke-width:5px;stroke-dasharray:37.9 9.48;}.cls-2{fill:#00b4eb;}</style></defs><title>资源 3</title><g id="图层_2" data-name="图层 2"><g id="Layer_2" data-name="Layer 2"><circle class="cls-1" cx="55.3" cy="55.3" r="52.8" transform="translate(-22.91 55.3) rotate(-45)"/><path class="cls-2" d="M103.16,53.47H83.89a26.39,26.39,0,0,0-18-25l2.41-7.15a33.94,33.94,0,0,1,23,30.09Z"/><path class="cls-2" d="M103.16,57.13H83.89a26.39,26.39,0,0,1-18,25l2.41,7.15a33.93,33.93,0,0,0,23-30.09Z"/><path class="cls-2" d="M7.44,53.47H26.72a26.38,26.38,0,0,1,18-25l-2.42-7.15a33.94,33.94,0,0,0-23,30.09Z"/><path class="cls-2" d="M7.44,57.13H26.72a26.38,26.38,0,0,0,18,25l-2.42,7.15a33.93,33.93,0,0,1-23-30.09Z"/></g></g></svg>