<svg xmlns="http://www.w3.org/2000/svg" viewBox="0 0 43.15 48.37"><defs><style>.cls-1{fill:#f5492a;}.cls-2{fill:#c2c2c2;}</style></defs><title>资源 2</title><g id="图层_2" data-name="图层 2"><g id="Layer_1" data-name="Layer 1"><rect class="cls-1" x="4.05" y="6.57" width="19.03" height="0.59" transform="translate(-1.62 7.7) rotate(-30)"/><rect class="cls-1" x="6.8" y="11.94" width="1.18" height="21.32" transform="translate(-10.31 6.73) rotate(-30)"/><path class="cls-2" d="M19.05,48.37l-8.52-4.92,5.37-9.29L2.53,11l19-11,19,11L27.25,34.16l5.37,9.29L24.1,48.37,21.57,44Zm2.52-5.56,2.75,4.75,7.49-4.33-5.24-9.07L39.82,11.21,21.58.68,3.33,11.21,16.58,34.16l-5.24,9.07,7.49,4.33Z"/><polygon class="cls-2" points="13.72 29.79 13.42 29.28 21.57 24.57 29.73 29.28 29.43 29.79 21.57 25.25 13.72 29.79"/><path class="cls-2" d="M19.05,48.37l-19-11v-22H26.74l5.37-9.29L40.62,11,38.1,15.37h5v9.84H32.42ZM.59,37,18.83,47.56,32.08,24.62H42.56V16H37.08l2.74-4.75-7.5-4.32L27.08,16H.59Z"/><polygon class="cls-2" points="29.43 29.79 21.28 25.08 21.28 15.67 21.87 15.67 21.87 24.74 29.73 29.28 29.43 29.79"/><path class="cls-2" d="M24.1,48.37,10.73,25.21H0V15.37H5.05L2.53,11,11,6.08l5.37,9.29H43.15v22l-.15.08ZM.59,24.62H11.07L24.32,47.56,42.56,37V16H16.07L10.83,6.89l-7.5,4.32L6.07,16H.59Z"/><polygon class="cls-2" points="13.72 29.79 13.42 29.28 21.28 24.74 21.28 15.67 21.87 15.67 21.87 25.08 13.72 29.79"/></g></g></svg>