<svg xmlns="http://www.w3.org/2000/svg" viewBox="0 0 570.47 461.33"><defs><style>.cls-1{fill:#c5ef0c;}.cls-10,.cls-11,.cls-12,.cls-13,.cls-14,.cls-15,.cls-16,.cls-17,.cls-18,.cls-19,.cls-2,.cls-20,.cls-21,.cls-22,.cls-3,.cls-4,.cls-5,.cls-6,.cls-7,.cls-8,.cls-9{fill:none;stroke:#c5ef0c;stroke-miterlimit:10;}.cls-2{stroke-width:2px;}.cls-10,.cls-3,.cls-5,.cls-6,.cls-7,.cls-8,.cls-9{stroke-width:1.38px;}.cls-3{stroke-dasharray:11.5 11.5;}.cls-4{stroke-width:2.77px;}.cls-5{stroke-dasharray:11.26 11.26;}.cls-6{stroke-dasharray:11.32 11.32;}.cls-7{stroke-dasharray:11.33 11.33;}.cls-8{stroke-dasharray:10.36 10.36;}.cls-9{stroke-dasharray:11.45 11.45;}.cls-10{stroke-dasharray:9.93 9.93;}.cls-11{stroke-width:0.88px;}.cls-12,.cls-18,.cls-19,.cls-20,.cls-21,.cls-22{stroke-width:1.76px;}.cls-13,.cls-14,.cls-15,.cls-16,.cls-17,.cls-18,.cls-19,.cls-20,.cls-21,.cls-22{stroke-linecap:round;}.cls-13,.cls-14,.cls-15,.cls-16,.cls-17{stroke-width:2.64px;}.cls-14{stroke-dasharray:0 6.25;}.cls-15{stroke-dasharray:0 6.22;}.cls-16{stroke-dasharray:0 5.99;}.cls-17{stroke-dasharray:0 6.21;}.cls-19{stroke-dasharray:0 5.22;}.cls-20{stroke-dasharray:0 5.67;}.cls-21{stroke-dasharray:0 5.49;}.cls-22{stroke-dasharray:0 5.53;}</style></defs><title>资源 2</title><g id="图层_2" data-name="图层 2"><g id="Layer_1" data-name="Layer 1"><path class="cls-1" d="M287.5,66.29c26.37,4.63,53.5,15.77,77.77,32,25.57,17.1,47.6,39.65,62.22,64.83,38.71,66.66,17.21,139.94-67.89,145.48a160.8,160.8,0,0,1-48.05-4.51l0-1a159.82,159.82,0,0,0,47.71,4.5c84.58-5.43,106.09-78.16,67.67-144.46C398.45,114,341.65,76.17,287.59,66.68Z"/><path class="cls-1" d="M256.69,63.8l.22.41c-53.24,1.1-94.28,33.78-91.78,87.08,2.37,50.5,42.66,106.33,106.24,137.21l-.27.93c-64-31.11-104.51-87.35-106.81-138.18C161.87,97.68,203.19,64.88,256.69,63.8Z"/><path class="cls-1" d="M195.81,204.11l4.44-1.83c13.34,22.15,34.41,42.84,59.26,57.92a190.89,190.89,0,0,0,20.11,10.69c2.7,1.22,5.4,2.4,8.14,3.48,2.06.82,1.81.62,1.49,2.64-.16,1.05-1.12,3.08.14,3.58,3.22,1.27,6.45,2.36,9.69,3.45a161.26,161.26,0,0,0,22.06,5.57c30.23,5.54,58.44,1.68,78.41-10.83.33-.2,4.45-2.7,4.31-2.87l-3.43-4.23c-.69-.85,1.57-1.73,2-2.05a50.35,50.35,0,0,0,5.75-4.79,68.44,68.44,0,0,0,16.07-23.33,72.19,72.19,0,0,0,4.56-35.71l4.19,1.67a120.72,120.72,0,0,0-13.73-42.33c-7-13.16-16.58-25.64-27.5-37l-2.4.85a188.4,188.4,0,0,0-41-32,195.46,195.46,0,0,0-24.21-11.85,9.05,9.05,0,0,1,.28-1.46c.17-.76-.06-.67-1.34-1.17-4.12-1.62-8.28-3.08-12.43-4.38-19.66-6.16-39.63-8.62-57.79-7-.83.08-9.48,1-9.24,1.32l1.61,2.13c.31.41-2.84.76-3.38.88a94.8,94.8,0,0,0-23.48,8.44c-13.28,7.08-22.83,17.56-29.5,30.54l3.22,1.17c1.47.54,1.19.28,1.7-.74a68.31,68.31,0,0,1,5.88-9.83A62.5,62.5,0,0,1,218.74,87.8c12.53-7.31,27.69-11.66,44.39-12.12a149.25,149.25,0,0,1,56.06,9.85,189,189,0,0,1,42.32,22.54c33,23.27,58.82,59.69,62.53,93.08,2,18-1.42,34.29-10.62,48.36-9.86,15.08-27.64,25.51-49.11,29.31-49.94,8.84-111.57-17.72-148.54-63.23-16.21-19.94-25.25-41.32-28-61.38A78.63,78.63,0,0,1,190,124.76c.18-.66,3.12-8.84,3.21-8.8L187,113.72l-2.22-.81a81.63,81.63,0,0,0-6.71,41C180,170.24,185.68,187.06,195.81,204.11Z"/><polygon class="cls-2" points="365.65 335.83 367.43 331.55 371.93 335.29 373.6 340.11 370.45 340.39 367.28 340.68 365.65 335.83"/><polygon class="cls-2" points="403.11 328.15 403.56 323.45 408.24 326.12 410.8 330.54 408.24 331.57 405.66 332.61 403.11 328.15"/><polygon class="cls-2" points="432.32 311.73 431.57 306.97 436.02 308.54 439.16 312.31 437.31 313.92 435.46 315.55 432.32 311.73"/><polygon class="cls-2" points="452.15 288.94 450.43 284.43 454.38 284.99 457.78 288 456.68 289.99 455.57 292 452.15 288.94"/><polygon class="cls-2" points="462.73 262.29 460.31 258.22 463.6 257.95 467 260.19 466.58 262.36 466.16 264.56 462.73 262.29"/><polygon class="cls-2" points="464.98 233.96 462.11 230.44 464.66 229.52 467.88 231.04 468.06 233.26 468.23 235.5 464.98 233.96"/><polygon class="cls-2" points="460.2 205.64 457.08 202.73 458.91 201.32 461.84 202.21 462.49 204.36 463.15 206.53 460.2 205.64"/><polygon class="cls-2" points="449.75 178.53 446.55 176.21 447.7 174.49 450.27 174.83 451.3 176.85 452.33 178.88 449.75 178.53"/><polygon class="cls-2" points="434.89 153.41 431.73 151.65 432.26 149.72 434.44 149.61 435.75 151.45 437.08 153.3 434.89 153.41"/><polygon class="cls-2" points="416.69 130.73 413.64 129.48 413.62 127.44 415.4 126.97 416.93 128.6 418.47 130.24 416.69 130.73"/><polygon class="cls-2" points="396 110.75 393.13 109.98 392.61 107.9 394 107.13 395.69 108.54 397.38 109.97 396 110.75"/><polygon class="cls-2" points="373.51 93.62 370.86 93.29 369.89 91.22 370.89 90.21 372.69 91.4 374.5 92.59 373.51 93.62"/><polygon class="cls-2" points="349.76 79.43 347.35 79.49 345.98 77.49 346.6 76.28 348.48 77.24 350.36 78.2 349.76 79.43"/><polygon class="cls-2" points="325.18 68.25 323.05 68.68 321.32 66.78 321.56 65.41 323.48 66.14 325.41 66.86 325.18 68.25"/><polygon class="cls-2" points="300.17 60.17 298.35 60.96 296.27 59.2 296.12 57.7 298.07 58.18 300.01 58.67 300.17 60.17"/><polygon class="cls-2" points="275.08 55.34 273.6 56.46 271.2 54.89 270.66 53.3 272.6 53.52 274.53 53.75 275.08 55.34"/><polygon class="cls-2" points="250.31 53.94 249.22 55.39 246.51 54.05 245.57 52.4 247.47 52.35 249.35 52.3 250.31 53.94"/><polygon class="cls-2" points="226.31 56.24 225.66 57.99 222.68 56.95 221.31 55.28 223.13 54.93 224.94 54.59 226.31 56.24"/><polygon class="cls-2" points="203.66 62.52 203.51 64.56 200.3 63.88 198.49 62.26 200.17 61.59 201.84 60.92 203.66 62.52"/><polygon class="cls-2" points="183.09 73.14 183.53 75.43 180.13 75.21 177.86 73.7 179.35 72.67 180.82 71.66 183.09 73.14"/><polygon class="cls-2" points="165.54 88.42 166.65 90.9 163.16 91.23 160.43 89.94 161.63 88.53 162.83 87.14 165.54 88.42"/><polygon class="cls-2" points="152.21 108.6 154.06 111.18 150.61 112.18 147.44 111.22 148.26 109.43 149.08 107.65 152.21 108.6"/><polygon class="cls-2" points="144.51 133.69 147.16 136.23 143.92 138.01 140.38 137.54 140.7 135.37 141.01 133.22 144.51 133.69"/><polygon class="cls-2" points="143.99 163.33 147.44 165.64 144.65 168.29 140.89 168.48 140.57 165.98 140.26 163.5 143.99 163.33"/><polygon class="cls-2" points="152.14 196.54 156.33 198.38 154.26 201.92 150.49 202.94 149.43 200.22 148.38 197.53 152.14 196.54"/><polygon class="cls-2" points="170.04 231.57 174.78 232.66 173.73 237.03 170.23 239.02 168.38 236.25 166.55 233.51 170.04 231.57"/><polygon class="cls-2" points="197.88 265.86 202.85 265.93 203.05 270.92 200.17 273.92 197.57 271.35 194.99 268.8 197.88 265.86"/><polygon class="cls-2" points="234.53 296.23 239.3 295.09 240.87 300.39 238.94 304.29 235.75 302.19 232.56 300.09 234.53 296.23"/><polygon class="cls-2" points="277.34 319.47 281.46 317.09 284.31 322.26 283.57 326.84 280.06 325.43 276.55 324.02 277.34 319.47"/><polygon class="cls-2" points="322.47 333.06 325.54 329.58 329.42 334.21 329.94 339.11 326.44 338.53 322.94 337.96 322.47 333.06"/><path class="cls-3" d="M170.77,48c-3.1-4.61-.1-9,6.53-9.83s14.28,2.05,17.5,6.49.7,9-5.94,10.06S173.92,52.69,170.77,48Z"/><path class="cls-4" d="M174.78,47.42c-2.11-3.1-.13-6.07,4.35-6.65s9.7,1.37,11.87,4.4.4,6.1-4.07,6.76S176.92,50.57,174.78,47.42Z"/><polygon class="cls-1" points="188.39 44.89 183.62 50.2 177.52 43.63 188.39 44.89"/><path class="cls-5" d="M107.55,109.43c-7.84-4.12-9.53-11.56-4-16.51,5.37-4.8,15.63-5.48,23.09-1.64s9.68,11,4.69,16.07C126.18,112.58,115.44,113.57,107.55,109.43Z"/><path class="cls-4" d="M110.81,106.33c-5.25-2.74-6.46-7.74-2.77-11.09s10.57-3.77,15.65-1.15,6.52,7.48,3.09,10.89S116.08,109.09,110.81,106.33Z"/><polygon class="cls-1" points="124.44 98.12 117.1 105.85 110.68 97.05 124.44 98.12"/><path class="cls-6" d="M232.6,363.19c-8.89,11.14-24.5,11.05-34.28-.39-9.55-11.17-9.35-28.36-.1-38.24,8.87-9.49,23.14-9,32.36,1C240,335.74,241.13,352.51,232.6,363.19Z"/><path class="cls-4" d="M226.82,356.69c-6,7.32-16.38,7.21-22.91-.34s-6.46-19-.29-25.72c6-6.57,15.76-6.27,22,.61S232.66,349.57,226.82,356.69Z"/><polygon class="cls-1" points="223.84 336.45 216.45 356.42 204.79 337.94 223.84 336.45"/><path class="cls-7" d="M409.8,395.92c2.95,15.78-4.74,27.19-17.37,24.78s-24.7-17.72-26.64-33.47c-1.85-15,6.25-24.79,18-22.41S407,380.84,409.8,395.92Z"/><path class="cls-4" d="M402.71,394.52c1.86,10.57-3.38,18.07-11.79,16.45s-16.5-11.76-17.91-22.31c-1.37-10.23,4.06-17,12.06-15.37S400.9,384.27,402.71,394.52Z"/><polygon class="cls-1" points="393.88 383.97 392.55 405.2 377.33 386.02 393.88 383.97"/><path class="cls-8" d="M501.25,312c9.05,10.31,12.23,23.08,6.75,28.38-5.64,5.44-18,.74-27.17-10.34-8.94-10.77-11.21-23.16-5.43-27.84S492.45,302,501.25,312Z"/><path class="cls-4" d="M498.06,314.82c6.1,7,8.14,15.58,4.41,19.08s-12,.44-18.19-6.91-7.67-15.62-3.8-18.84S492.08,307.94,498.06,314.82Z"/><polygon class="cls-1" points="494.94 315.35 496.75 330.96 482.23 316.34 494.94 315.35"/><path class="cls-9" d="M426.92,114.51c5.62.15,13.22,4.46,17.11,9.75s2.66,9.86-3.12,9.82-13.79-4.64-17.61-10.16S421.25,114.37,426.92,114.51Z"/><path class="cls-4" d="M429.12,117.58c3.81.09,9,3,11.6,6.63s1.72,6.62-2.16,6.58-9.24-3.11-11.83-6.81S425.28,117.5,429.12,117.58Z"/><polygon class="cls-1" points="436.6 122.15 436.68 128.79 427.74 121.46 436.6 122.15"/><path class="cls-10" d="M344.36,59.21c3-2.12,9.73-.92,15.11,2.68s7.6,8.46,4.73,10.76-9.92,1.16-15.5-2.67S341.29,61.37,344.36,59.21Z"/><path class="cls-4" d="M347.54,61.36c2-1.46,6.58-.65,10.23,1.81s5.11,5.72,3.15,7.26-6.67.75-10.42-1.8S345.48,62.83,347.54,61.36Z"/><polygon class="cls-1" points="357.43 64.54 356.13 69.59 348.84 63.55 357.43 64.54"/><path class="cls-1" d="M448.86,128.7,450,129c1.28,3.78.14,6.75-3.11,7.9a273.55,273.55,0,0,1,21.26,28,239.56,239.56,0,0,1,19.05,34.54l-1.24-.29a237.78,237.78,0,0,0-18.85-34.3,270.1,270.1,0,0,0-21.2-28l-.58-.67.53-.17C449,135,450.06,132.27,448.86,128.7Z"/><path class="cls-1" d="M96.76,103c1.59,4.57,6.3,8.54,12.6,10.55l1,.33-.3.77a124.84,124.84,0,0,0-7.55,33.86c-1.57,18.75.6,38.84,6.87,59.61l-1.88.47c-6.26-21-8.38-41.25-6.72-60.16a125.78,125.78,0,0,1,7.66-33.93c-6.64-2.2-11.61-6.43-13.28-11.28Z"/><path class="cls-1" d="M227.86,202.82A175,175,0,0,0,248,223.57c8.32,7.17,18,13.66,30.32,20.4,10.79,5.92,22.53,9.59,32.56,12.39a10.55,10.55,0,0,1,4.92,2.25c2.24,1.54,4.65,3.17,7.12,4.69.58.35,1.21.79,1.87,1.24a19.84,19.84,0,0,0,4.6,2.64,12.93,12.93,0,0,0,3.5.34c.59,0,1.15,0,1.67,0,13.11,1,25.72-.44,36.36-4,2.26-.76,4.9-1.69,7.41-2.81,1.39-.61,1.74-1.41,2.38-2.85l.15-.34a46.17,46.17,0,0,0,2.84-7.57,4.8,4.8,0,0,1,2.56-3.37c4.08-2.45,7.35-6.22,10-9.52a48.43,48.43,0,0,0,5.48-8.16A66.55,66.55,0,0,0,408.34,205l.5.25a66.79,66.79,0,0,1-6.63,24,48.93,48.93,0,0,1-5.49,8.21c-2.63,3.33-5.91,7.12-10,9.6a4.52,4.52,0,0,0-2.43,3.2,46.55,46.55,0,0,1-2.86,7.63l-.15.35c-.65,1.46-1,2.34-2.53,3-2.53,1.12-5.17,2.06-7.44,2.83-10.7,3.62-23.38,5.06-36.57,4.08-.5,0-1.05,0-1.63-.05a12.93,12.93,0,0,1-3.68-.36,20.42,20.42,0,0,1-4.82-2.75c-.65-.45-1.27-.87-1.83-1.22-2.49-1.53-4.92-3.17-7.17-4.72a10,10,0,0,0-4.67-2.14c-10.1-2.81-21.91-6.5-32.77-12.47C265.73,237.7,256,231.17,247.67,224a176,176,0,0,1-20.25-20.86Z"/><path class="cls-1" d="M281.88,81.68c2.73.27,5.48.63,8.22,1.09.36.06.74.1,1.14.15a14.52,14.52,0,0,1,2.53.47A17.6,17.6,0,0,1,297,85c.44.25.85.5,1.23.7,1.67.89,3.31,1.83,4.83,2.71a9.42,9.42,0,0,0,3.19,1.36,149.86,149.86,0,0,1,22.52,8.35,171.43,171.43,0,0,1,22.31,12.61A189.93,189.93,0,0,1,368.18,124l-.24.15a188.51,188.51,0,0,0-17.05-13.22,169,169,0,0,0-22.23-12.57A150.68,150.68,0,0,0,306.25,90a10,10,0,0,1-3.37-1.43c-1.51-.88-3.14-1.82-4.8-2.7-.39-.21-.81-.45-1.25-.71a17.43,17.43,0,0,0-3.08-1.55,13.85,13.85,0,0,0-2.42-.44c-.41,0-.8-.1-1.16-.16A112.44,112.44,0,0,0,263,81.74c-1.86.16-4.07.35-6.26.65a4.06,4.06,0,0,0-2.41,1.15l-.18.15a28.77,28.77,0,0,0-3.84,3.53,4.67,4.67,0,0,1-2.88,1.52,49.92,49.92,0,0,0-11.13,4.34,58.09,58.09,0,0,0-7.51,4.32A64.62,64.62,0,0,0,213.38,113l-.44-.22a64.91,64.91,0,0,1,15.53-15.62A59.46,59.46,0,0,1,236,92.79a51,51,0,0,1,11.2-4.35A4.48,4.48,0,0,0,250,87a29.08,29.08,0,0,1,3.86-3.55l.18-.14a4.29,4.29,0,0,1,2.57-1.21c2.2-.3,4.41-.5,6.28-.65A107.45,107.45,0,0,1,281.88,81.68Z"/><path class="cls-1" d="M325.78,263.22a116.55,116.55,0,0,0,18.67.95c13.37-.43,25-3.28,34.71-8.05l-2-7.68c-9.62,5.15-21.45,8.23-35.19,8.59a114.19,114.19,0,0,1-25.13-2.22Z"/><path class="cls-1" d="M296.1,85.71a130.66,130.66,0,0,0-13.19-2,105.37,105.37,0,0,0-27.6.78l.18,4a97.65,97.65,0,0,1,28.62-1.29,123.65,123.65,0,0,1,18,3Z"/><path class="cls-1" d="M201.73,116.25l17.43,6.8a48.92,48.92,0,0,0-2.85,8.8l-18.49-5.2A58.91,58.91,0,0,1,201.73,116.25ZM197,130.1l18.76,4.65A56.35,56.35,0,0,0,215,145l-19.46-2.64A66.76,66.76,0,0,1,197,130.1Zm-1.39,16.14,19.59,2c.12,1.75.33,3.55.6,5.34.29,1.94.68,3.91,1.14,5.86l-19.78.35c-.47-2.36-.84-4.75-1.1-7.1C195.81,150.52,195.66,148.35,195.6,146.24Zm22.23,16.66a87,87,0,0,0,4.35,11.76l-19.31,3.79A100.1,100.1,0,0,1,198.09,164Zm6,15.33a103.47,103.47,0,0,0,7,11.88L213,197.63a125.89,125.89,0,0,1-8.19-14.77Z"/><path class="cls-1" d="M379.59,128.59c3.2,3.2,6.27,6.55,9.13,9.95l-12.05,2.87c-2.37-2.91-4.93-5.78-7.6-8.52Zm11.76,13.17c2.87,3.61,5.57,7.37,8,11.16l-14,.72c-2-3.22-4.2-6.41-6.56-9.49Zm10.18,14.63c1.13,1.87,2.22,3.79,3.24,5.69s2.15,4.14,3.11,6.21l-15.68-1.64c-.76-1.75-1.58-3.51-2.46-5.24s-1.69-3.24-2.6-4.83Zm-8.07,13.33,16,2.23a103.35,103.35,0,0,1,4.34,12.44l-17.1-4.31A82.05,82.05,0,0,0,393.46,169.72Zm4,13.49,17.37,4.95a84,84,0,0,1,2,12.63l-18.12-7.19A66.81,66.81,0,0,0,397.43,183.21Z"/><polygon class="cls-1" points="214.81 222.18 215.5 222.75 99.92 346.75 75.83 348.63 32.53 393.05 31.7 392.07 75.45 347.35 99.5 345.48 214.81 222.18"/><polygon class="cls-11" points="0.59 406.5 24.17 383.1 40.2 402.19 16.87 426.86 0.59 406.5"/><polygon class="cls-1" points="422.75 180.63 486.06 182.61 498.55 190.57 519.49 191.09 519.9 191.66 498.72 191.13 486.22 183.16 423.07 181.21 422.75 180.63"/><polygon class="cls-11" points="533.56 197.1 523.72 196.91 515.76 185.96 525.46 186.24 533.56 197.1"/><path class="cls-1" d="M479,336.73l3.27,3.42c-14.79,21.72-36.83,38-65.73,47l-2.28-4.84C442.61,373.59,464.33,357.85,479,336.73Z"/><path class="cls-1" d="M246,358.67c36.34,19.21,74,29.71,110.28,30.86l1.09,5.23c-37.13-1.09-75.62-11.8-112.79-31.5Z"/><path class="cls-1" d="M344.72,53.74l.53.67c-6.73.13-9.73,4.12-7,9.63a18.34,18.34,0,0,0,3.29,4.47l-.78.16a18.94,18.94,0,0,1-3.48-4.74C334.39,58.09,337.59,53.86,344.72,53.74Z"/><path class="cls-1" d="M267.25,37.83a265.18,265.18,0,0,1,70.18,19.43l-.16.55a263,263,0,0,0-69.8-19.32c-23.87-3-47.41-2.15-68.6,2.87l-.65-.7C219.55,35.64,243.24,34.78,267.25,37.83Z"/><path class="cls-1" d="M185.57,34.25c9.63,2.28,17.28,8.27,18.28,14.42a7.77,7.77,0,0,1-.65,4.7L202,53a7.31,7.31,0,0,0,.63-4.44c-.92-5.8-8.14-11.46-17.24-13.62Z"/><path class="cls-11" d="M268.19,40.58c1.73.22,3.48.46,5.21.72l.9,3c-3.81-.56-7.69-1-11.46-1.38l-1.21-3.07C263.79,40.07,266,40.31,268.19,40.58ZM277.65,42c3.91.65,7.88,1.42,11.79,2.28l.49,2.91c-3.81-.84-7.68-1.58-11.49-2.21ZM257.4,39.5l1.32,3.09c-3.81-.28-7.64-.45-11.38-.51l-1.64-3.14C249.55,39,253.48,39.2,257.4,39.5Zm36.29,5.72c3.91.92,7.87,2,11.78,3.1l.07,2.79c-3.81-1.1-7.67-2.11-11.48-3ZM241.5,38.9l1.77,3.15c-3.78,0-7.56.16-11.25.41l-2.1-3.19C233.73,39,237.62,38.91,241.5,38.9Zm68.21,10.68c3.8,1.18,7.66,2.46,11.45,3.82l-.33,2.66c-3.7-1.33-7.45-2.58-11.16-3.72Zm-83.92-10L228,42.77c-3.71.34-7.43.8-11,1.37l-2.57-3.2C218.13,40.37,222,39.91,225.79,39.58Z"/><path class="cls-1" d="M355.87,323.88l-2.16-7.51a147.8,147.8,0,0,0,14.92-1l2.83,7.38c-2.22.28-4.5.5-6.79.68C361.78,323.69,358.82,323.83,355.87,323.88Zm17.92-9.19a120,120,0,0,0,13.61-3L391,318.8A122.4,122.4,0,0,1,376.84,322Zm-40.35,8-1.17-7.54c5.34.65,10.68,1,15.88,1.16l1.91,7.54C344.62,323.77,339,323.39,333.44,322.72ZM392,310.32a101.55,101.55,0,0,0,12-4.8l4.31,6.63a104.39,104.39,0,0,1-12.49,5.14Zm-81.91,8.11L310,311c5.48,1.37,11,2.5,16.43,3.34l.88,7.52C321.64,321,315.85,319.86,310.11,318.43ZM408,303.48a89.36,89.36,0,0,0,10-6.26l4.8,6.1A89.68,89.68,0,0,1,412.5,310ZM286.55,311l1-7.07c5.46,2.07,11,3.91,16.52,5.47l-.19,7.33C298.1,315.13,292.27,313.2,286.55,311Z"/><polygon class="cls-11" points="522.04 179.9 536.97 191.8 540.02 203.95 527.32 203.77 511.97 191.18 509.73 179.48 522.04 179.9"/><path class="cls-1" d="M122.76,213.4l11.54,18.42-13,19.91-25.93.51L84.26,232.17,98.6,213.28Zm-13.82,31c7.67-.12,14-5.79,14.26-12.52s-5.49-11.8-12.83-11.8-13.9,5.3-14.46,12C95.34,238.94,101.2,244.53,108.94,244.42Z"/><path class="cls-1" d="M387.09,78.87l6.76,5.45-.6,4.8-7.56-.76-6.82-5.6.81-4.68Zm1.24,7.93c2.27.23,3.22-1,2.14-2.83a8.82,8.82,0,0,0-6-3.63c-2.24-.24-3.23,1-2.19,2.78A8.74,8.74,0,0,0,388.33,86.8Z"/><polygon class="cls-1" points="356.84 416.98 358.83 416.69 366.87 444.37 381.93 458.07 434.87 448.61 438.77 432.39 428.7 406.55 430.49 406.29 441.06 433.25 436.77 451.41 382.02 461.33 365.18 445.95 356.84 416.98"/><polygon class="cls-1" points="170.2 333.92 172.05 335.21 160.03 355.64 163.18 374.33 217.42 413.54 233.53 408.13 243.23 384.94 245.22 386.33 235.16 410.65 217.14 416.76 161.04 376.1 157.58 355.19 170.2 333.92"/><polygon class="cls-1" points="513.49 308.69 530.09 322.94 537.46 338.35 525.05 376.33 511.65 375.04 493.54 358.26 494.1 356.85 511.41 372.86 523.39 374.02 535.54 337.36 528.96 323.53 513.03 309.84 513.49 308.69"/><path class="cls-12" d="M393.1,179.78c3,13.24,1.75,25.69-3.49,36.11h0l-43.38-31,0,0a23.46,23.46,0,0,0,3.42-16.38h0l43.43,11.27Z"/><line class="cls-13" x1="538.74" y1="217.57" x2="538.74" y2="217.57"/><path class="cls-14" d="M541.49,223.19c18.33,38.29,28.26,78.66,27.63,117.67"/><line class="cls-13" x1="569.04" y1="343.98" x2="569.04" y2="343.98"/><line class="cls-15" x1="563.98" y1="340.36" x2="475.34" y2="277.09"/><line class="cls-13" x1="472.81" y1="275.28" x2="472.81" y2="275.28"/><path class="cls-16" d="M474.09,269.44c4-21.24,1.73-44.46-6.43-67.76"/><line class="cls-13" x1="466.64" y1="198.86" x2="466.64" y2="198.86"/><line class="cls-17" x1="472.65" y1="200.42" x2="535.73" y2="216.79"/><path class="cls-11" d="M147.89,95.25,11.21,42h0A267.2,267.2,0,0,1,87.64.57l.24-.08,91.66,65.43-.11.07A97.76,97.76,0,0,0,147.9,95.25Z"/><line class="cls-18" x1="266.75" y1="141.59" x2="266.75" y2="141.59"/><line class="cls-19" x1="261.89" y1="139.7" x2="225.44" y2="125.49"/><line class="cls-18" x1="223.01" y1="124.54" x2="223.01" y2="124.54"/><path class="cls-20" d="M225.53,119.46a45.72,45.72,0,0,1,8.91-11"/><line class="cls-18" x1="236.6" y1="106.66" x2="236.6" y2="106.66"/><line class="cls-18" x1="236.6" y1="106.66" x2="236.6" y2="106.66"/><line class="cls-21" x1="241.07" y1="109.85" x2="270.14" y2="130.6"/><line class="cls-18" x1="272.37" y1="132.19" x2="272.37" y2="132.19"/><path class="cls-22" d="M268.94,136.52a21.91,21.91,0,0,0-1.26,2.46"/><line class="cls-18" x1="266.74" y1="141.59" x2="266.75" y2="141.59"/></g></g></svg>