<svg xmlns="http://www.w3.org/2000/svg" viewBox="0 0 174.38 171.23"><defs><style>.cls-1,.cls-10,.cls-3,.cls-4,.cls-5,.cls-6,.cls-7,.cls-8,.cls-9{fill:#f49022;}.cls-2{fill:#0cbdcd;}.cls-3{opacity:0.3;}.cls-4{opacity:0.4;}.cls-5{opacity:0.9;}.cls-6{opacity:0.7;}.cls-7{opacity:0.5;}.cls-8{opacity:0.2;}.cls-9{opacity:0.6;}.cls-10{opacity:0.1;}</style></defs><title>资源 5</title><g id="图层_2" data-name="图层 2"><g id="央铋_1" data-name="央铋 1"><path class="cls-1" d="M174.38,86.85A87.21,87.21,0,0,0,104.46,1.37a1.39,1.39,0,1,0-1.38,1.41A1.36,1.36,0,0,0,104.32,2a86.75,86.75,0,0,1,69.43,84.86,85.74,85.74,0,0,1-18,52.89,1.42,1.42,0,1,0,.49.4A86.33,86.33,0,0,0,174.38,86.85Zm-71.3-84.7a.76.76,0,1,1,.75-.76A.76.76,0,0,1,103.08,2.15Zm52,139.59a.76.76,0,1,1,.75-.75A.76.76,0,0,1,155.12,141.74Z"/><path class="cls-1" d="M168.25,86.85A81.28,81.28,0,0,0,164.69,63l-2.42.75a78.65,78.65,0,0,1-26.67,84.93l1.56,2a81.91,81.91,0,0,0,22.64-27.76A80.25,80.25,0,0,0,168.25,86.85Z"/><path class="cls-2" d="M136.54,86.85A49.35,49.35,0,1,0,87.19,136.2,49.41,49.41,0,0,0,136.54,86.85ZM87.19,134.94a48.09,48.09,0,1,1,48.08-48.09A48.14,48.14,0,0,1,87.19,134.94Z"/><path class="cls-2" d="M87.19,43.58A43.24,43.24,0,0,0,54.38,58.64l.71.62a42.33,42.33,0,1,1,62.85,56.68l.69.65a43.27,43.27,0,0,0-31.44-73Z"/><path class="cls-2" d="M89.19,106.25A19.53,19.53,0,0,0,106.6,88.72l-.32,0a19.2,19.2,0,0,1-17.13,17.24Z"/><path class="cls-2" d="M67.8,88.86a19.52,19.52,0,0,0,3.31,9l.27-.18a19.2,19.2,0,0,1-3.27-8.87Z"/><path class="cls-2" d="M85.12,106.24l0-.32A19,19,0,0,1,72.34,99l-.25.2A19.38,19.38,0,0,0,85.12,106.24Z"/><path class="cls-2" d="M85.45,100.21l-.53-.09a13.48,13.48,0,0,1-11-11l-.09-.53H70.32l.11.73a17,17,0,0,0,14.29,14.29l.73.11Zm-1.27,2A15.78,15.78,0,0,1,71.81,89.86h1a14.72,14.72,0,0,0,11.4,11.41Z"/><path class="cls-2" d="M88.93,73.5l.53.09a13.45,13.45,0,0,1,11,11l.09.53h3.51l-.11-.72a17,17,0,0,0-14.29-14.3L88.93,70Zm1.27-2a15.78,15.78,0,0,1,12.38,12.37h-1A14.74,14.74,0,0,0,90.2,72.44Z"/><path class="cls-2" d="M84.84,65.29a2.34,2.34,0,0,0,2,2.32V77.67A9.21,9.21,0,0,0,78,86.54H68a2.35,2.35,0,1,0,0,.63H78A9.22,9.22,0,0,0,86.87,96v10a2.35,2.35,0,1,0,.64,0V99.37a12.53,12.53,0,0,0,12.2-12.2h6.72a2.36,2.36,0,1,0,0-.63H96.38a9.2,9.2,0,0,0-8.87-8.87V67.61a2.35,2.35,0,1,0-2.67-2.32ZM65.63,88.57a1.72,1.72,0,1,1,1.71-1.72A1.72,1.72,0,0,1,65.63,88.57ZM88.9,108.42a1.71,1.71,0,1,1-1.71-1.72A1.72,1.72,0,0,1,88.9,108.42Zm-1.39-9.68V96a9.21,9.21,0,0,0,8.87-8.87h2.7A11.91,11.91,0,0,1,87.51,98.74Zm21.24-13.6A1.72,1.72,0,1,1,107,86.85,1.72,1.72,0,0,1,108.75,85.14Zm-13,1.71a8.56,8.56,0,1,1-8.56-8.56A8.57,8.57,0,0,1,95.75,86.85ZM87.19,63.57a1.72,1.72,0,1,1-1.71,1.72A1.72,1.72,0,0,1,87.19,63.57Z"/><path class="cls-2" d="M108.75,83.71h.09A21.94,21.94,0,0,0,90.33,65.2v.09a3.1,3.1,0,0,1,0,.54,21.3,21.3,0,0,1,17.93,17.93A3.29,3.29,0,0,1,108.75,83.71Z"/><path class="cls-2" d="M84.05,108.42a3.31,3.31,0,0,1,0-.55A21.28,21.28,0,0,1,66.17,89.94a3.29,3.29,0,0,1-.54,0h-.09a21.94,21.94,0,0,0,18.52,18.52A.28.28,0,0,1,84.05,108.42Z"/><path class="cls-2" d="M108.75,90a3.29,3.29,0,0,1-.54,0,21.28,21.28,0,0,1-17.93,17.93,3.31,3.31,0,0,1,0,.55v.09A21.94,21.94,0,0,0,108.84,90Z"/><path class="cls-1" d="M65.54,83.72h.09a3.29,3.29,0,0,1,.54.05A21.3,21.3,0,0,1,84.1,65.83a3.1,3.1,0,0,1,0-.54.28.28,0,0,1,0-.09A21.94,21.94,0,0,0,65.54,83.72Z"/><path class="cls-2" d="M77.44,71.78,80.25,76c.33-.21.66-.4,1-.58L79,70.87A15.27,15.27,0,0,0,77.44,71.78Z"/><path class="cls-2" d="M80.78,70.08l1.88,4.7c.36-.14.72-.25,1.1-.36l-1.25-4.91C81.93,69.67,81.35,69.86,80.78,70.08Z"/><path class="cls-1" d="M78.15,77.67A10.36,10.36,0,0,1,79,76.9l-3.13-4a17.28,17.28,0,0,0-1.35,1.22Z"/><path class="cls-2" d="M75.66,81.09l-4.48-2.36a14.47,14.47,0,0,0-.74,1.66l4.75,1.75C75.33,81.78,75.49,81.43,75.66,81.09Z"/><path class="cls-1" d="M72.15,77.05l4.28,2.7c.21-.32.44-.63.68-.93l-3.89-3.24A17.24,17.24,0,0,0,72.15,77.05Z"/><path class="cls-2" d="M69.45,84l5,.72a10.8,10.8,0,0,1,.24-1.13l-4.88-1.38C69.68,82.81,69.55,83.41,69.45,84Z"/><path class="cls-2" d="M97.27,94.89l3.89,3.24a17.4,17.4,0,0,0,1.07-1.48L98,94A10.72,10.72,0,0,1,97.27,94.89Z"/><path class="cls-2" d="M95.38,96.81l3.13,4c.47-.39.93-.79,1.36-1.22L96.24,96C96,96.31,95.68,96.56,95.38,96.81Z"/><path class="cls-2" d="M90.62,99.28l1.25,4.91a16.63,16.63,0,0,0,1.73-.56l-1.88-4.7C91.36,99.06,91,99.18,90.62,99.28Z"/><path class="cls-2" d="M93.13,98.3l2.24,4.54a17.43,17.43,0,0,0,1.57-.92l-2.81-4.21C93.81,97.92,93.47,98.12,93.13,98.3Z"/><path class="cls-2" d="M104.93,89.69l-5-.72a10.8,10.8,0,0,1-.24,1.13l4.88,1.38C104.7,90.89,104.83,90.29,104.93,89.69Z"/><path class="cls-2" d="M98.72,92.62,103.2,95a14.62,14.62,0,0,0,.74-1.67l-4.75-1.75C99.05,91.92,98.89,92.27,98.72,92.62Z"/><path class="cls-2" d="M79.52,68.56l-.16.07.51,1.16.13-.06Z"/><path class="cls-2" d="M76.9,69.9,77.57,71l.12-.06-.64-1.1Z"/><path class="cls-2" d="M76.08,72l-.75-1-.14.11.78,1Z"/><path class="cls-2" d="M82.81,67.51l-.16,0,.3,1.23.13,0Z"/><path class="cls-2" d="M71.31,75l1,.74.08-.1-1-.78Z"/><path class="cls-2" d="M68.2,81.13l1.22.35,0-.13L68.25,81S68.22,81.08,68.2,81.13Z"/><path class="cls-2" d="M68.65,79.82l1.19.44a.69.69,0,0,1,0-.13l-1.18-.47Z"/><path class="cls-2" d="M69.18,78.55l1.16.52.06-.13-1.14-.55S69.21,78.49,69.18,78.55Z"/><path class="cls-2" d="M72.18,73.91l1,.82.09-.1-.94-.85Z"/><path class="cls-2" d="M73.61,72.41l.88.92a.94.94,0,0,1,.1-.1l-.85-.93A1.5,1.5,0,0,0,73.61,72.41Z"/><path class="cls-2" d="M70.52,76.12l1.07.68a.83.83,0,0,1,.08-.12L70.61,76Z"/><path class="cls-2" d="M69.81,77.31l1.11.6a.75.75,0,0,0,.07-.12l-1.1-.63A1.09,1.09,0,0,1,69.81,77.31Z"/><path class="cls-2" d="M106,80.49c0-.06,0-.11,0-.17l-1.2.43a1.12,1.12,0,0,1,0,.13Z"/><path class="cls-2" d="M102.36,76.16l.08.11,1-.71a.71.71,0,0,0-.1-.14Z"/><path class="cls-2" d="M106.53,82.49l0-.17-1.23.3,0,.13Z"/><path class="cls-2" d="M106.18,81.15a1,1,0,0,0,0-.17l-1.21.39a.65.65,0,0,1,0,.13Z"/><path class="cls-2" d="M106.38,81.81a1,1,0,0,1,0-.16l-1.22.34,0,.13Z"/><path class="cls-2" d="M102.72,76.69l.08.12,1.07-.68-.1-.14Z"/><path class="cls-2" d="M104.9,77.93l-.08-.15-1.12.59.06.12Z"/><path class="cls-2" d="M103.39,77.8l.08.12,1.11-.6-.09-.15Z"/><path class="cls-2" d="M105.13,78.4,104,79l.06.13,1.15-.52Z"/><path class="cls-2" d="M105.48,79.19l-.06-.16-1.16.51s0,.09,0,.13Z"/><path class="cls-2" d="M100.27,73.68a.47.47,0,0,0,.1.1l.9-.88-.12-.12Z"/><path class="cls-2" d="M106.88,84.53a1.11,1.11,0,0,0,0-.17l-1.25.17s0,.09,0,.14Z"/><path class="cls-2" d="M94.38,69.74l.13.05L95,68.63l-.16-.07Z"/><path class="cls-2" d="M94.22,68.31l-.44,1.19.13,0,.47-1.18Z"/><path class="cls-2" d="M95.56,70.28l.12.07.59-1.12-.15-.08Z"/><path class="cls-2" d="M95,70l.12.06.55-1.14-.15-.07Z"/><path class="cls-2" d="M96.13,70.58l.12.07.63-1.1-.15-.08Z"/><path class="cls-2" d="M93.57,68.07l-.4,1.21.13,0,.43-1.19Z"/><path class="cls-2" d="M92.91,67.86l-.35,1.22.13,0,.38-1.2Z"/><path class="cls-2" d="M100.72,74.15l.09.1.94-.85-.12-.12Z"/><path class="cls-2" d="M99.8,73.24l.1.09.88-.91-.13-.12Z"/><path class="cls-2" d="M99.32,72.81l.1.09.84-1-.13-.11Z"/><path class="cls-2" d="M101.15,74.63l.09.11,1-.82-.11-.13Z"/><path class="cls-2" d="M101.57,75.12l.09.11,1-.78-.1-.13Z"/><path class="cls-2" d="M102,75.63a.44.44,0,0,0,.08.11l1-.75-.11-.13Z"/><path class="cls-2" d="M97.48,69.9l-.15-.09-.63,1.1.11.07Z"/><path class="cls-2" d="M98.31,72l.11.09.77-1-.13-.1Z"/><path class="cls-2" d="M98.82,72.39l.11.09.81-1-.14-.1Z"/><path class="cls-2" d="M72.31,98l-1,.74.1.14,1-.78Z"/><path class="cls-3" d="M88.3,96.36l.2,1.89q.39,0,.78-.12l-.38-1.86A5.4,5.4,0,0,1,88.3,96.36Z"/><path class="cls-4" d="M89.46,96.15,89.88,98c.38-.1.76-.21,1.13-.34l-.65-1.78C90.06,96,89.76,96.08,89.46,96.15Z"/><path class="cls-5" d="M94.15,93.42l1.36,1.32A11.62,11.62,0,0,0,97,92.85l-1.63-1A10.38,10.38,0,0,1,94.15,93.42Z"/><path class="cls-1" d="M95.62,91.39l1.66.93a11.64,11.64,0,0,0,1-2.59l-1.85-.45A9.18,9.18,0,0,1,95.62,91.39Z"/><path class="cls-6" d="M92.5,94.82l1,1.59a11.54,11.54,0,0,0,1.55-1.24l-1.32-1.36A9.45,9.45,0,0,1,92.5,94.82Z"/><path class="cls-7" d="M90.88,95.69l.71,1.76A11.07,11.07,0,0,0,93,96.74l-1-1.62A11,11,0,0,1,90.88,95.69Z"/><path class="cls-8" d="M87.62,96.42v1.89h.27l-.15-1.9Z"/><path class="cls-2" d="M74.44,65.13l-.1.07.16.27.1-.06Z"/><path class="cls-2" d="M75.6,64.49l-.11.06.15.28.1,0Z"/><path class="cls-2" d="M75.21,64.7a.6.6,0,0,0-.11.06l.15.27.11-.06Z"/><path class="cls-2" d="M74.82,64.91l-.1.07.16.27.1-.06Z"/><path class="cls-2" d="M76.39,64.1l-.12.05.14.28.11-.05Z"/><path class="cls-2" d="M76,64.29l-.11.06.14.28.11,0Z"/><path class="cls-2" d="M78.41,63.58l.11,0-.1-.29-.12,0Z"/><path class="cls-2" d="M76.79,63.92l-.11,0,.13.28.11,0Z"/><path class="cls-2" d="M78,63.4l-.11,0,.12.3.11,0Z"/><path class="cls-2" d="M77.08,63.78l.13.29.1,0-.12-.29Z"/><path class="cls-2" d="M77.59,63.56l-.11,0,.13.29.1,0Z"/><path class="cls-2" d="M72.23,66.59l-.1.07.19.26.1-.07Z"/><path class="cls-2" d="M71.54,67.13l-.1.08.2.25.09-.08Z"/><path class="cls-2" d="M78.82,63.43l.11,0-.1-.3-.12,0Z"/><path class="cls-2" d="M71.88,66.86l-.09.08.19.25.1-.08Z"/><path class="cls-2" d="M70.85,67.69l-.09.08L71,68l.09-.07Z"/><path class="cls-2" d="M71.19,67.41l-.1.08.21.24.09-.08Z"/><path class="cls-2" d="M72.6,66.34l-.11.07.19.25.1-.06Z"/><path class="cls-2" d="M73.32,65.83l-.1.07.17.26.1-.06Z"/><path class="cls-2" d="M73.69,65.6l-.1.06.17.27.1-.07Z"/><path class="cls-2" d="M74.06,65.36l-.1.07.16.26.1-.06Z"/><path class="cls-2" d="M73,66.08l-.1.07.19.26.09-.07Z"/><path class="cls-2" d="M86.15,61.68H86l0,.31h.12Z"/><path class="cls-2" d="M70.52,68l-.09.08.21.24.09-.08Z"/><path class="cls-2" d="M85.71,61.71h-.12l0,.32h.12Z"/><path class="cls-2" d="M85.27,61.74h-.12l0,.31h.12Z"/><path class="cls-2" d="M84.4,61.82h-.12l0,.32.12,0Z"/><path class="cls-2" d="M83.88,62.2H84l0-.32-.12,0Z"/><path class="cls-2" d="M84.84,61.77h-.13l0,.32h.12Z"/><path class="cls-2" d="M86.59,61.67h-.12V62h.12Z"/><path class="cls-2" d="M87.35,61.66V62h.12v-.31Z"/><path class="cls-2" d="M87.79,61.67V62h.12v-.31Z"/><path class="cls-2" d="M87,61.66h-.12V62H87Z"/><path class="cls-2" d="M80.06,63l.11,0-.08-.31-.12,0Z"/><path class="cls-2" d="M80.48,62.9l.11,0-.08-.31-.12,0Z"/><path class="cls-2" d="M80.9,62.78l.11,0-.07-.3-.12,0Z"/><path class="cls-2" d="M79.65,63.15l.11,0-.1-.3-.11,0Z"/><path class="cls-2" d="M79.23,63.29l.12,0-.1-.3-.12,0Z"/><path class="cls-2" d="M81.32,62.68l.12,0-.07-.31-.12,0Z"/><path class="cls-2" d="M82.17,62.49l.12,0-.07-.31-.12,0Z"/><path class="cls-2" d="M81.75,62.58l.11,0-.07-.31-.12,0Z"/><path class="cls-2" d="M82.6,62.41l.11,0,0-.32-.12,0Z"/><path class="cls-2" d="M83,62.33l.12,0,0-.31L83,62Z"/><path class="cls-2" d="M83.45,62.26l.12,0,0-.31H83.4Z"/><path class="cls-2" d="M63.87,78.18l-.29-.11,0,.12.3.11Z"/><path class="cls-2" d="M63.45,79.42l-.31-.09,0,.12.3.09Z"/><path class="cls-2" d="M63.59,79l-.3-.1s0,.08,0,.12l.3.09A.76.76,0,0,1,63.59,79Z"/><path class="cls-2" d="M63.21,80.26l-.31-.08,0,.12.3.08S63.2,80.3,63.21,80.26Z"/><path class="cls-2" d="M70.19,68.28l-.09.08.22.23.08-.08Z"/><path class="cls-2" d="M62.75,80.72l.31.08,0-.12-.31-.08Z"/><path class="cls-2" d="M63.73,78.6l-.3-.11a.56.56,0,0,0,0,.12l.3.1A.36.36,0,0,1,63.73,78.6Z"/><path class="cls-2" d="M64.54,76.57l-.28-.13a.39.39,0,0,1-.06.11l.3.13S64.53,76.61,64.54,76.57Z"/><path class="cls-2" d="M64.36,77l-.28-.13L64,77l.3.12S64.35,77,64.36,77Z"/><path class="cls-2" d="M64,77.78l-.3-.12s0,.08,0,.12l.29.11A.54.54,0,0,1,64,77.78Z"/><path class="cls-2" d="M64.19,77.37l-.29-.12s0,.08,0,.12l.29.11S64.18,77.41,64.19,77.37Z"/><path class="cls-2" d="M88.34,62v-.31h-.12l0,.32Z"/><path class="cls-2" d="M62.66,81.16l.3.07,0-.12L62.68,81A.59.59,0,0,0,62.66,81.16Z"/><path class="cls-2" d="M62.14,84.21l.31,0s0-.08,0-.12l-.31,0S62.14,84.16,62.14,84.21Z"/><path class="cls-2" d="M64.72,76.18,64.44,76a1.17,1.17,0,0,0,0,.11l.29.13Z"/><path class="cls-2" d="M62.1,84.65l.31,0a.41.41,0,0,0,0-.11l-.31,0A.57.57,0,0,0,62.1,84.65Z"/><path class="cls-2" d="M62.07,85.09l.31,0s0-.08,0-.12l-.31,0Z"/><path class="cls-2" d="M62.25,83.33l.31,0s0-.08,0-.11l-.32-.06S62.25,83.29,62.25,83.33Z"/><path class="cls-2" d="M62.19,83.77l.32,0s0-.08,0-.12l-.31,0S62.2,83.73,62.19,83.77Z"/><path class="cls-2" d="M62.47,82l.31.06,0-.12-.31-.06A.5.5,0,0,0,62.47,82Z"/><path class="cls-2" d="M62.31,82.89l.31,0,0-.12-.31,0A.5.5,0,0,1,62.31,82.89Z"/><path class="cls-2" d="M62.55,81.59l.31.06,0-.11-.31-.08Z"/><path class="cls-2" d="M62.39,82.46l.31.05,0-.12-.31-.06S62.4,82.41,62.39,82.46Z"/><path class="cls-2" d="M63.32,79.84l-.3-.09,0,.12.3.09Z"/><path class="cls-2" d="M68.57,70.38l-.23-.21-.09.09.24.21Z"/><path class="cls-2" d="M68.29,70.71l-.24-.21-.08.09.24.21Z"/><path class="cls-2" d="M68,71l-.24-.21-.08.1.25.2Z"/><path class="cls-2" d="M67.73,71.38l-.25-.2a.61.61,0,0,1-.07.1l.25.19Z"/><path class="cls-2" d="M68.86,70.05l-.23-.21a.34.34,0,0,0-.08.09l.23.21Z"/><path class="cls-2" d="M69.16,69.74l-.22-.22-.09.09.23.21Z"/><path class="cls-2" d="M64.92,75.78l-.28-.14-.06.11.28.14Z"/><path class="cls-2" d="M69.77,69.11l-.22-.23-.09.09.23.22A.6.6,0,0,0,69.77,69.11Z"/><path class="cls-2" d="M69.87,68.58l-.09.09.22.22.09-.08Z"/><path class="cls-2" d="M69.46,69.42l-.22-.22-.08.09.22.22Z"/><path class="cls-2" d="M67.46,71.72l-.25-.19-.07.09.25.2A.86.86,0,0,1,67.46,71.72Z"/><path class="cls-2" d="M65.75,74.25l-.27-.16-.06.11.28.15A.93.93,0,0,1,65.75,74.25Z"/><path class="cls-2" d="M65.54,74.63l-.28-.16-.06.11.28.15A.53.53,0,0,1,65.54,74.63Z"/><path class="cls-2" d="M65.12,75.4l-.28-.15-.06.11.28.14Z"/><path class="cls-2" d="M65.32,75,65,74.85A.61.61,0,0,0,65,75l.27.14Z"/><path class="cls-2" d="M66,73.87l-.27-.16-.07.1.27.17Z"/><path class="cls-2" d="M66.94,72.42l-.25-.18-.08.1.26.18A.36.36,0,0,0,66.94,72.42Z"/><path class="cls-2" d="M67.2,72.07l-.26-.19a.61.61,0,0,1-.07.1l.26.19A.36.36,0,0,1,67.2,72.07Z"/><path class="cls-2" d="M66.69,72.78l-.26-.18a.86.86,0,0,0-.07.1l.26.18Z"/><path class="cls-2" d="M66.45,73.14,66.18,73l-.06.11.26.17A.61.61,0,0,1,66.45,73.14Z"/><path class="cls-2" d="M66.21,73.51,66,73.34a.61.61,0,0,0-.07.1l.27.17Z"/><path class="cls-2" d="M109.52,75.2l-.06-.1-.28.14.06.11Z"/><path class="cls-2" d="M109.72,75.59a.54.54,0,0,1,0-.11l-.29.15a.47.47,0,0,1,.05.1Z"/><path class="cls-2" d="M108.88,74.06l-.06-.11-.27.16.06.1Z"/><path class="cls-2" d="M109.32,74.81l-.06-.1-.28.15.06.1Z"/><path class="cls-2" d="M109,74.33l-.28.16a.53.53,0,0,1,.06.1l.28-.15Z"/><path class="cls-2" d="M109.91,76a.54.54,0,0,0,0-.11l-.28.14,0,.1Z"/><path class="cls-2" d="M110.77,78s0-.07,0-.11l-.3.11,0,.11Z"/><path class="cls-2" d="M110.61,77.58s0-.07,0-.11l-.29.12,0,.11Z"/><path class="cls-2" d="M110.28,76.78l0-.11-.29.13,0,.1Z"/><path class="cls-2" d="M110.92,78.4l0-.11-.3.11,0,.11Z"/><path class="cls-2" d="M110.1,76.38a.54.54,0,0,1,0-.11l-.29.13,0,.11Z"/><path class="cls-2" d="M110.45,77.18a.76.76,0,0,1,0-.11l-.29.12a.49.49,0,0,0,0,.11Z"/><path class="cls-2" d="M106.58,71.28a.61.61,0,0,0,.07.1l.24-.2-.07-.09Z"/><path class="cls-2" d="M106.84,71.62l.07.09.26-.19-.08-.09Z"/><path class="cls-2" d="M106,70.62l.08.09.24-.2-.08-.1Z"/><path class="cls-2" d="M106.3,71l.08.09.24-.2-.08-.09Z"/><path class="cls-2" d="M107.11,72l.07.1.25-.19a.61.61,0,0,0-.07-.1Z"/><path class="cls-2" d="M107.86,73l.06.1.26-.17-.06-.11Z"/><path class="cls-2" d="M108.09,73.38l.06.1.27-.17-.07-.1Z"/><path class="cls-2" d="M108.32,73.75l.07.1.27-.17-.07-.1Z"/><path class="cls-2" d="M107.61,72.67l.07.09.26-.18a.86.86,0,0,1-.07-.1Z"/><path class="cls-2" d="M107.36,72.31a.36.36,0,0,0,.07.1l.26-.18a.61.61,0,0,1-.07-.1Z"/><path class="cls-2" d="M111.34,80.87s0,.08,0,.11l.31-.07a.35.35,0,0,0,0-.11Z"/><path class="cls-2" d="M112,85.13a.45.45,0,0,1,0,.11h.32v-.12Z"/><path class="cls-2" d="M111.83,83.41s0,.08,0,.12l.31,0s0-.08,0-.12Z"/><path class="cls-2" d="M111.88,83.84s0,.08,0,.12l.32,0a.49.49,0,0,1,0-.12Z"/><path class="cls-2" d="M111.94,84.27a.37.37,0,0,0,0,.11l.31,0a.49.49,0,0,0,0-.12Z"/><path class="cls-2" d="M112,85.56v.11h.32a.49.49,0,0,1,0-.12Z"/><path class="cls-2" d="M112,84.7a.37.37,0,0,0,0,.11l.31,0v-.12Z"/><path class="cls-2" d="M112.39,86.85h-.32a.49.49,0,0,1,0,.12h.32S112.39,86.89,112.39,86.85Z"/><path class="cls-2" d="M111.06,78.82a.56.56,0,0,0,0-.12l-.29.11,0,.1Z"/><path class="cls-2" d="M112.06,86.42v.12h.32a.49.49,0,0,0,0-.12Z"/><path class="cls-2" d="M112.05,86v.11h.32a.49.49,0,0,0,0-.12Z"/><path class="cls-2" d="M69.69,104.52l-.08-.09-.23.22.09.09Z"/><path class="cls-2" d="M105.74,70.3l.07.08.24-.2-.08-.1Z"/><path class="cls-2" d="M111.23,80.45l0,.11.31-.07,0-.12Z"/><path class="cls-2" d="M111.11,80l0,.11.3-.08,0-.12Z"/><path class="cls-2" d="M111.33,79.65l0-.12-.31.09s0,.08,0,.12Z"/><path class="cls-2" d="M111.2,79.23l0-.11-.3.09a.76.76,0,0,1,0,.11Z"/><path class="cls-2" d="M111.43,81.29l0,.12.31-.07,0-.12Z"/><path class="cls-2" d="M111.61,82.14a.36.36,0,0,1,0,.11l.32-.06a.36.36,0,0,1,0-.11Z"/><path class="cls-2" d="M111.69,82.56l0,.11.31,0a.52.52,0,0,0,0-.11Z"/><path class="cls-2" d="M111.77,83l0,.11.31,0,0-.12Z"/><path class="cls-2" d="M111.53,81.71l0,.11.31-.06,0-.11Z"/><path class="cls-2" d="M89.2,62.06l0-.31h-.12l0,.31Z"/><path class="cls-2" d="M93.44,62.44l-.08.31.11,0,.08-.31Z"/><path class="cls-2" d="M91.29,62l-.06.31.12,0,.06-.31Z"/><path class="cls-2" d="M90.42,61.87l0,.32h.12l0-.31Z"/><path class="cls-2" d="M90,61.82l0,.31.11,0,0-.32Z"/><path class="cls-2" d="M93,62.34l-.07.31.11,0,.08-.31Z"/><path class="cls-2" d="M89.54,61.77l0,.32h.12l0-.32Z"/><path class="cls-2" d="M105.45,70a.6.6,0,0,0,.08.08l.23-.21-.08-.09Z"/><path class="cls-2" d="M88.77,62l0-.32h-.12l0,.31Z"/><path class="cls-2" d="M92.58,62.24l-.07.31.12,0,.07-.31Z"/><path class="cls-2" d="M92.15,62.15l-.06.31.12,0,.06-.31Z"/><path class="cls-2" d="M91.72,62.07l-.06.32.12,0,.06-.31Z"/><path class="cls-2" d="M90.85,61.93l0,.31.12,0,0-.32Z"/><path class="cls-2" d="M105.15,69.66l.08.09.23-.22-.08-.09Z"/><path class="cls-2" d="M104.85,69.35l.08.09.23-.22-.09-.09Z"/><path class="cls-2" d="M104.63,69.13l.22-.23-.09-.08-.22.23Z"/><path class="cls-2" d="M62,85.53l.32,0v-.12l-.32,0Z"/><path class="cls-2" d="M104.77,104.44l.22.22a.3.3,0,0,0,.08-.08l-.22-.23Z"/><path class="cls-2" d="M99.37,108.53l-.1.06.15.28.1-.06Z"/><path class="cls-2" d="M99.75,108.32l-.1.06.15.27.1-.06Z"/><path class="cls-2" d="M100.48,107.87l-.1.06.17.27.1-.07Z"/><path class="cls-2" d="M96.65,109.86l-.11,0,.11.3.11,0Z"/><path class="cls-2" d="M100.12,108.1l-.1.06.16.27.1-.06Z"/><path class="cls-2" d="M98.64,109.28l.11,0-.14-.29-.11.06Z"/><path class="cls-2" d="M97.05,109.69l-.11,0,.12.29.11,0Z"/><path class="cls-2" d="M97.44,109.51l-.11,0,.13.29.11,0Z"/><path class="cls-2" d="M98,109.62l-.13-.29-.11,0,.13.29Z"/><path class="cls-2" d="M98.25,109.48l.11,0-.14-.29-.1.06Z"/><path class="cls-2" d="M99,108.75l-.1,0,.15.28.1,0Z"/><path class="cls-2" d="M102.94,106.1a.22.22,0,0,0-.09.07l.19.25.09-.08Z"/><path class="cls-2" d="M103.71,105.85l.09-.08-.21-.24-.09.08Z"/><path class="cls-2" d="M103.47,106.06l-.2-.24-.09.07.2.25Z"/><path class="cls-2" d="M104,105.57l.09-.08-.21-.24-.09.08Z"/><path class="cls-2" d="M104.36,105.27l.09-.09-.22-.23-.08.08Z"/><path class="cls-2" d="M104.68,105l.08-.09-.22-.22-.08.08Z"/><path class="cls-2" d="M101.91,106.89l-.09.07.18.26.1-.07Z"/><path class="cls-2" d="M101.56,107.14l-.09.07.17.26.1-.07Z"/><path class="cls-2" d="M102.6,106.36a.36.36,0,0,0-.09.08l.19.25.09-.08Z"/><path class="cls-2" d="M62,86h.32v-.12H62Z"/><path class="cls-2" d="M102.26,106.63l-.09.07.18.26.1-.07Z"/><path class="cls-2" d="M90.38,111.52h-.12l0,.32.12,0Z"/><path class="cls-2" d="M91.67,111.32l-.12,0,0,.31.12,0Z"/><path class="cls-2" d="M90.81,111.46l-.12,0,0,.31h.12Z"/><path class="cls-2" d="M91.24,111.4l-.12,0,0,.31.12,0Z"/><path class="cls-2" d="M94.61,110.6l-.11,0,.09.31.11,0Z"/><path class="cls-2" d="M95,110.46l-.11,0,.09.3.12,0Z"/><path class="cls-2" d="M96.24,110l-.1,0,.1.3.12,0Z"/><path class="cls-2" d="M95.43,110.32l-.11,0,.1.3.12,0Z"/><path class="cls-2" d="M94.2,110.72l-.12,0,.08.31.12,0Z"/><path class="cls-2" d="M92.09,111.24l-.11,0,0,.32.12,0Z"/><path class="cls-2" d="M95.84,110.18l-.11,0,.11.3.11,0Z"/><path class="cls-2" d="M92.89,111.39l.12,0-.07-.31-.11,0Z"/><path class="cls-2" d="M92.46,111.49l.12,0-.06-.31-.12,0Z"/><path class="cls-2" d="M93.32,111.29l.12,0-.08-.3-.11,0Z"/><path class="cls-2" d="M93.78,110.84l-.11,0,.07.31.12,0Z"/><path class="cls-2" d="M100.84,107.63l-.09.06.17.27.1-.06Z"/><path class="cls-2" d="M111.2,93.36l.3.09,0-.12-.31-.08Z"/><path class="cls-2" d="M111.93,91.63l-.32-.06a.36.36,0,0,1,0,.11l.32.07Z"/><path class="cls-2" d="M111.39,93.87l0-.12-.31-.08,0,.11Z"/><path class="cls-2" d="M111.84,92.06l-.31-.07a.52.52,0,0,0,0,.11l.3.08Z"/><path class="cls-2" d="M111.74,92.48l-.31-.07a.5.5,0,0,1,0,.12l.3.07A.53.53,0,0,0,111.74,92.48Z"/><path class="cls-2" d="M111.64,92.91l-.3-.08,0,.12.31.08S111.63,93,111.64,92.91Z"/><path class="cls-2" d="M110.39,95.82l.29.12,0-.11-.3-.12S110.4,95.79,110.39,95.82Z"/><path class="cls-2" d="M111,94.19l.3.1s0-.08,0-.12l-.31-.09A.35.35,0,0,1,111,94.19Z"/><path class="cls-2" d="M110.55,95.42l.29.11,0-.11-.3-.11A.49.49,0,0,0,110.55,95.42Z"/><path class="cls-2" d="M110.69,95l.3.11,0-.11-.29-.11A.49.49,0,0,0,110.69,95Z"/><path class="cls-2" d="M110.83,94.6l.29.11a.56.56,0,0,0,0-.12l-.3-.1Z"/><path class="cls-2" d="M112.25,89.47l-.31,0s0,.07,0,.11l.31,0S112.24,89.51,112.25,89.47Z"/><path class="cls-2" d="M112.35,88.16H112a.41.41,0,0,0,0,.11l.31,0Z"/><path class="cls-2" d="M112.32,88.6l-.32,0v.11l.31,0A.49.49,0,0,1,112.32,88.6Z"/><path class="cls-2" d="M112.37,87.29h-.31a.49.49,0,0,1,0,.12h.32Z"/><path class="cls-2" d="M112.29,89,112,89s0,.07,0,.11l.32,0A.49.49,0,0,1,112.29,89Z"/><path class="cls-2" d="M112.36,87.73h-.31s0,.07,0,.11l.32,0Z"/><path class="cls-2" d="M110.23,96.22l.29.12a1.17,1.17,0,0,0,0-.11l-.29-.12A1.17,1.17,0,0,1,110.23,96.22Z"/><path class="cls-2" d="M112,91.2l-.31-.06,0,.12.31.06A.5.5,0,0,0,112,91.2Z"/><path class="cls-2" d="M112.08,90.77l-.31,0a.52.52,0,0,0,0,.11l.31.06A.5.5,0,0,1,112.08,90.77Z"/><path class="cls-2" d="M112.14,90.34l-.31,0a.5.5,0,0,0,0,.12l.31,0S112.13,90.38,112.14,90.34Z"/><path class="cls-2" d="M112.2,89.9l-.32,0a.49.49,0,0,0,0,.12l.31,0A.5.5,0,0,1,112.2,89.9Z"/><path class="cls-2" d="M107.87,101.22l-.26-.18-.07.09.26.19Z"/><path class="cls-2" d="M107.09,102.28l-.25-.2-.07.09.25.2Z"/><path class="cls-2" d="M107.36,101.93l-.25-.19-.07.09.25.2A.86.86,0,0,1,107.36,101.93Z"/><path class="cls-2" d="M105.38,104.26l-.23-.22-.08.09.22.22Z"/><path class="cls-2" d="M107.62,101.58l-.26-.19a.86.86,0,0,0-.07.1l.26.19A.36.36,0,0,1,107.62,101.58Z"/><path class="cls-2" d="M108.12,100.86l-.26-.18a.86.86,0,0,1-.07.1l.26.18A.36.36,0,0,0,108.12,100.86Z"/><path class="cls-2" d="M106.82,102.62l-.24-.2-.08.09.25.2Z"/><path class="cls-2" d="M105.68,103.94l-.23-.21a.6.6,0,0,0-.08.08l.22.22Z"/><path class="cls-2" d="M106,103.62l-.23-.21-.08.09.23.21Z"/><path class="cls-2" d="M106.54,103l-.23-.2a.6.6,0,0,0-.08.08l.24.21Z"/><path class="cls-2" d="M106.26,103.29l-.24-.21-.07.09.23.21Z"/><path class="cls-2" d="M109.56,97.72l-.3-.15a24.61,24.61,0,0,1-1.54,2.69l.79.52a24.12,24.12,0,0,0,1.6-2.8l-.26-.12a0,0,0,0,0,0,0l-.28-.14S109.57,97.71,109.56,97.72Z"/><path class="cls-2" d="M109.71,97.41l.29.14a1.17,1.17,0,0,1,0-.11l-.29-.14A.54.54,0,0,1,109.71,97.41Z"/><path class="cls-2" d="M109.89,97l.29.14a.37.37,0,0,1,0-.11l-.29-.13Z"/><path class="cls-2" d="M110.07,96.62l.29.13a.54.54,0,0,1,0-.11l-.29-.12A.47.47,0,0,0,110.07,96.62Z"/><path class="cls-2" d="M101.21,107.39l-.1.07.18.27.09-.07Z"/><path class="cls-2" d="M64.53,97.85a.6.6,0,0,0,.06.11l.28-.14a.47.47,0,0,1-.05-.1Z"/><path class="cls-2" d="M64.93,98.64l.06.11.28-.15-.06-.11Z"/><path class="cls-2" d="M64.73,98.24l.06.11.28-.14L65,98.1Z"/><path class="cls-2" d="M68.47,103.69l.08.1.24-.22-.08-.09Z"/><path class="cls-2" d="M65.36,99.41l.07.11.27-.16-.06-.1Z"/><path class="cls-2" d="M63.81,96.23l0,.12.29-.12a.49.49,0,0,0,0-.11Z"/><path class="cls-2" d="M65.58,99.79a.6.6,0,0,1,.06.11l.28-.16-.06-.11Z"/><path class="cls-2" d="M64.34,97.45l0,.11.29-.13-.05-.11Z"/><path class="cls-2" d="M63.65,95.82l.05.12.29-.12s0-.07,0-.11Z"/><path class="cls-2" d="M64.16,97.05l0,.11L64.5,97a1.17,1.17,0,0,1,0-.11Z"/><path class="cls-2" d="M64,96.64l.05.12.29-.13,0-.1Z"/><path class="cls-2" d="M68.18,103.36l.08.09.24-.21a.73.73,0,0,1-.08-.09Z"/><path class="cls-2" d="M67.07,102a.86.86,0,0,1,.07.1l.25-.19a.61.61,0,0,0-.07-.1Z"/><path class="cls-2" d="M67.34,102.34l.08.09.24-.19-.07-.09Z"/><path class="cls-2" d="M67.61,102.68l.08.1.24-.2-.07-.09Z"/><path class="cls-2" d="M67.89,103l.08.1.24-.2a.86.86,0,0,0-.07-.1Z"/><path class="cls-2" d="M63.49,95.41a1.17,1.17,0,0,0,0,.11l.29-.1a.56.56,0,0,0,0-.12Z"/><path class="cls-2" d="M66.29,100.91l.07.1.27-.17-.07-.1Z"/><path class="cls-2" d="M65.82,100.17l.06.1.27-.16-.06-.11Z"/><path class="cls-2" d="M66.81,101.63a.36.36,0,0,0,.07.1l.25-.18-.06-.1Z"/><path class="cls-2" d="M66.06,100.54l.06.1.27-.17a.36.36,0,0,1-.07-.1Z"/><path class="cls-2" d="M66.55,101.27a.86.86,0,0,0,.07.1l.26-.18a.86.86,0,0,1-.07-.1Z"/><path class="cls-2" d="M65.14,99l.06.1.28-.15-.06-.1Z"/><path class="cls-2" d="M62.42,89a.49.49,0,0,1,0-.12l-.32,0v.13Z"/><path class="cls-2" d="M62.38,88.6s0-.08,0-.12l-.31,0a.62.62,0,0,0,0,.13Z"/><path class="cls-2" d="M62.51,89.91s0-.08,0-.12l-.31,0s0,.08,0,.13Z"/><path class="cls-2" d="M62.45,89.47s0-.07,0-.11l-.32,0s0,.09,0,.13Z"/><path class="cls-2" d="M62.35,88.17a.49.49,0,0,0,0-.12H62v.13Z"/><path class="cls-2" d="M62.56,90.34s0-.08,0-.12l-.32,0s0,.08,0,.13Z"/><path class="cls-2" d="M62,86.85h.31s0-.07,0-.11H62Z"/><path class="cls-2" d="M62,86.42h.31a.49.49,0,0,0,0-.12H62Z"/><path class="cls-2" d="M62.34,87.73a.49.49,0,0,1,0-.12H62v.12Z"/><path class="cls-2" d="M62.33,87.29a.49.49,0,0,1,0-.12H62a.62.62,0,0,1,0,.13Z"/><path class="cls-2" d="M63,93.72l0,.12.3-.08,0-.12Z"/><path class="cls-2" d="M63.18,93.34a.56.56,0,0,1,0-.12l-.3.08,0,.12Z"/><path class="cls-2" d="M63.35,95a.56.56,0,0,1,0,.12l.3-.11a.76.76,0,0,0,0-.11Z"/><path class="cls-2" d="M63.06,92.91s0-.08,0-.11l-.31.07,0,.12Z"/><path class="cls-2" d="M63.08,94.15l0,.12.3-.09,0-.12Z"/><path class="cls-2" d="M62.62,90.77a.43.43,0,0,0,0-.11l-.31,0,0,.12Z"/><path class="cls-2" d="M63.21,94.57l0,.12.3-.1a.36.36,0,0,0,0-.11Z"/><path class="cls-2" d="M62.7,91.2l0-.11-.31,0a.5.5,0,0,0,0,.12Z"/><path class="cls-2" d="M63,92.49a.5.5,0,0,0,0-.12l-.31.07a.53.53,0,0,0,0,.12Z"/><path class="cls-2" d="M62.78,91.63s0-.07,0-.11l-.31,0a.5.5,0,0,0,0,.12Z"/><path class="cls-2" d="M62.87,92.06l0-.11-.31.06a.5.5,0,0,1,0,.12Z"/><path class="cls-2" d="M70.89,105.62l-.22.23.1.09.21-.24Z"/><path class="cls-2" d="M71.55,106.18l-.2.24.09.08.21-.25Z"/><path class="cls-2" d="M68.77,104a.6.6,0,0,1,.08.08l.24-.21L69,103.8Z"/><path class="cls-2" d="M71,106.14l.09.08.21-.24a.34.34,0,0,1-.09-.08Z"/><path class="cls-2" d="M72.23,106.72,72,107l.1.07.19-.25Z"/><path class="cls-2" d="M71.89,106.45l-.2.25.1.07.19-.25A.35.35,0,0,0,71.89,106.45Z"/><path class="cls-2" d="M69.92,104.74l-.22.22.09.09.22-.23Z"/><path class="cls-2" d="M72.59,107l-.19.26.1.07.19-.26Z"/><path class="cls-2" d="M69.07,104.33l.09.1.23-.23a.3.3,0,0,1-.08-.08Z"/><path class="cls-2" d="M70.56,105.33l-.22.23.1.09.21-.24A.73.73,0,0,1,70.56,105.33Z"/><path class="cls-2" d="M70.24,105l-.22.22.09.09.21-.23A.6.6,0,0,0,70.24,105Z"/><path class="cls-2" d="M75.15,108.62l-.15.27.11.06.15-.27Z"/><path class="cls-2" d="M75.54,108.82l-.16.28.11.06.15-.28Z"/><path class="cls-2" d="M76.42,109.28l-.11-.06-.14.28.11.06Z"/><path class="cls-2" d="M75.89,109.36l.14-.28-.1-.06-.15.28Z"/><path class="cls-2" d="M74.78,108.4l-.16.27.1.06.16-.27Z"/><path class="cls-2" d="M73.3,107.48l-.18.26.1.07.18-.26Z"/><path class="cls-2" d="M72.94,107.23l-.18.25.1.08.18-.26Z"/><path class="cls-2" d="M74.4,108.18l-.17.27.11.06.16-.27Z"/><path class="cls-2" d="M73.66,107.72l-.17.26.1.06.17-.26Z"/><path class="cls-2" d="M74,108l-.17.27.1.06.17-.26Z"/><path class="cls-2" d="M94,62.59l-.1,0-.08.31.09,0-.09.33a24.69,24.69,0,0,1,10.52,6.07l.66-.68A25.49,25.49,0,0,0,94,62.31Z"/><path class="cls-2" d="M90.06,112.17l-.11-.94a25.25,25.25,0,0,1-2.76.16A24.46,24.46,0,0,1,76.59,109l-.41.85a25.27,25.27,0,0,0,11,2.51A24.71,24.71,0,0,0,90.06,112.17Z"/><path class="cls-2" d="M63.91,99.11a26.43,26.43,0,0,1-2.44-6.68l-2.18.39a27.9,27.9,0,0,0,2.7,7.4Z"/><path class="cls-2" d="M67,103.67a26.8,26.8,0,0,1-2-2.79L63,102a27.52,27.52,0,0,0,2.3,3.17Z"/><path class="cls-2" d="M75.54,110.45a27.52,27.52,0,0,1-3-1.73l-1.31,1.79a28.44,28.44,0,0,0,3.39,2Z"/><path class="cls-2" d="M59.29,80.89l2.18.39a26.43,26.43,0,0,1,2.44-6.68L62,73.49A27.77,27.77,0,0,0,59.29,80.89Z"/><path class="cls-2" d="M86.14,115.37v-2.23a25.88,25.88,0,0,1-3.43-.36L82.24,115A29.62,29.62,0,0,0,86.14,115.37Z"/><path class="cls-2" d="M69.66,64.36l1.42,1.7a26.52,26.52,0,0,1,6.15-3.56l-.75-2.09A28.37,28.37,0,0,0,69.66,64.36Z"/><path class="cls-2" d="M58.66,86.85a28.34,28.34,0,0,0,.27,3.94l2.19-.38a25.4,25.4,0,0,1,0-7.11l-2.19-.39A28.55,28.55,0,0,0,58.66,86.85Z"/><path class="cls-2" d="M111.61,77.07a26.05,26.05,0,0,1,1.9,9.78c0,.57,0,1.14-.06,1.7l2.21.23c0-.63.07-1.28.07-1.93a28.59,28.59,0,0,0-2.08-10.69Z"/><path class="cls-2" d="M79.16,61.79a26.15,26.15,0,0,1,7-1.23V58.34a28.45,28.45,0,0,0-7.77,1.37Z"/><path class="cls-2" d="M80.24,114.53l.46-2.17a25.69,25.69,0,0,1-3.28-1.08l-.91,2A28,28,0,0,0,80.24,114.53Z"/><path class="cls-2" d="M115.45,90.82l-2.21-.23a26.82,26.82,0,0,1-.72,3.39l2.12.69A30.21,30.21,0,0,0,115.45,90.82Z"/><path class="cls-2" d="M88.21,58.34v2.22a26.34,26.34,0,0,1,22.56,14.63l2-.9A28.59,28.59,0,0,0,88.21,58.34Z"/><path class="cls-2" d="M63,71.71l1.92,1.11a26.51,26.51,0,0,1,4.57-5.44l-1.43-1.7A28.44,28.44,0,0,0,63,71.71Z"/><path class="cls-2" d="M70.9,107.5a26.56,26.56,0,0,1-2.56-2.31l-1.65,1.49a27.76,27.76,0,0,0,2.91,2.62Z"/><path class="cls-2" d="M107.69,106.69,106,105.2a27,27,0,0,1-2.58,2.32l1.31,1.8A31.65,31.65,0,0,0,107.69,106.69Z"/><path class="cls-2" d="M111.37,102l-1.92-1.12a26.83,26.83,0,0,1-2,2.81l1.65,1.48A28.86,28.86,0,0,0,111.37,102Z"/><path class="cls-2" d="M99.71,112.49a28.64,28.64,0,0,0,3.4-2l-1.3-1.79a26.23,26.23,0,0,1-3,1.73Z"/><path class="cls-2" d="M94.11,114.54a28,28,0,0,0,3.73-1.22l-.91-2a25.84,25.84,0,0,1-3.29,1.08Z"/><path class="cls-2" d="M114,96.62l-2.11-.68a27.13,27.13,0,0,1-1.41,3.16l1.92,1.11A28.21,28.21,0,0,0,114,96.62Z"/><path class="cls-2" d="M91.64,112.79a26,26,0,0,1-3.44.35v2.23a29.44,29.44,0,0,0,3.9-.41Z"/><path class="cls-6" d="M60,98l-7.61,3.11a37.79,37.79,0,0,0,12.41,16l4.91-6.61A29.58,29.58,0,0,1,60,98Z"/><path class="cls-5" d="M57.79,86.85a29.46,29.46,0,0,1,1.4-8.95l-7.84-2.5a37.55,37.55,0,0,0,.15,23.37l7.81-2.61A29.3,29.3,0,0,1,57.79,86.85Z"/><path class="cls-9" d="M66.85,118.5a37.33,37.33,0,0,0,16.05,5.73l.94-8.17a29.26,29.26,0,0,1-12.54-4.49Z"/><path class="cls-3" d="M107,108.6l5.53,6.09a37.9,37.9,0,0,0,4.92-5.44l-6.6-4.9A29.86,29.86,0,0,1,107,108.6Z"/><path class="cls-4" d="M98.33,114.05l3.12,7.62a38,38,0,0,0,9.13-5.36l-5.12-6.45A29.12,29.12,0,0,1,98.33,114.05Z"/><path class="cls-10" d="M122.19,100.68l-7.66-3c-.07.19-.15.38-.23.57l7.59,3.18Z"/><path class="cls-1" d="M73.72,60.73,70,53.41A37.91,37.91,0,0,0,52.19,73l7.66,3A29.53,29.53,0,0,1,73.72,60.73Z"/><path class="cls-8" d="M120.84,103.67,113.48,100a31.17,31.17,0,0,1-1.57,2.76l6.92,4.45A39.62,39.62,0,0,0,120.84,103.67Z"/><path class="cls-7" d="M87.19,116.25c-.47,0-.93,0-1.4,0l-.39,8.23c.59,0,1.19,0,1.79,0a37.53,37.53,0,0,0,11.91-1.93l-2.61-7.81A29.19,29.19,0,0,1,87.19,116.25Z"/><path class="cls-2" d="M38,53.17l3.13,2.15c.59-.86,1.2-1.69,1.84-2.52l-3-2.31C39.29,51.36,38.64,52.26,38,53.17Z"/><path class="cls-2" d="M48.71,46.44c.75-.72,1.52-1.41,2.31-2.08l-2.46-2.89c-.84.72-1.67,1.46-2.47,2.22Z"/><path class="cls-2" d="M36.84,62.73l-3.42-1.64c-.48,1-.93,2-1.35,3l3.51,1.45C36,64.62,36.4,63.67,36.84,62.73Z"/><path class="cls-2" d="M27.56,86.85a60.32,60.32,0,0,0,.52,7.89l3.77-.5a56,56,0,0,1,1.07-20.52l-3.69-.89A59.46,59.46,0,0,0,27.56,86.85Z"/><path class="cls-1" d="M145.15,72.83l-3.69.9a55.87,55.87,0,0,1,1.21,6.9l3.78-.43A60.07,60.07,0,0,0,145.15,72.83Z"/><path class="cls-2" d="M140.43,64.91c.54,1.3,1,2.63,1.48,4l.6-.2c-.45-1.36-.95-2.71-1.5-4l1.31-.54A59.71,59.71,0,0,0,139,57.41l-1.23.69a56.07,56.07,0,0,0-5-7.39l1.11-.88a60,60,0,0,0-5-5.56l-1,1A57.64,57.64,0,0,0,121,39.59l.87-1.2a59.23,59.23,0,0,0-30.12-11l-.13,1.69c-1.37-.09-2.75-.15-4.13-.15-1.6,0-3.19.07-4.76.2l-.13-1.74c-1.12.08-2.22.2-3.32.35l.24,1.74a56.6,56.6,0,0,0-8.68,1.88l-.51-1.72c-1.07.31-2.12.66-3.16,1l.6,1.7A57.39,57.39,0,0,0,59.71,36l-.88-1.63c-1,.53-1.93,1.09-2.87,1.67l1,1.59c-1.23.76-2.43,1.58-3.62,2.44l.38.51c1.16-.85,2.36-1.66,3.57-2.41l.69,1.1c.88-.54,1.78-1.06,2.69-1.56L60,36.59A56.8,56.8,0,0,1,68,33l.45,1.28c1-.35,2-.67,3-1L71,32a57.73,57.73,0,0,1,8.58-1.86l.19,1.4c1-.13,2.06-.25,3.1-.33l-.11-1.41c1.56-.13,3.13-.19,4.71-.19,1.37,0,2.73.05,4.08.14l-.11,1.46a55.57,55.57,0,0,1,28.2,10.29l1-1.36a57.12,57.12,0,0,1,6.78,5.64L126.23,47a56.54,56.54,0,0,1,4.7,5.2l1.36-1.09a56.65,56.65,0,0,1,5,7.32l-1.52.86a57.35,57.35,0,0,1,3.08,6.3Z"/><path class="cls-2" d="M130.35,128c.29-.3.57-.6.85-.91l-2.8-2.56c-.26.29-.53.57-.8.86Z"/><path class="cls-2" d="M43,120.9a55.76,55.76,0,0,1-9.35-18.28L30,103.69a59.35,59.35,0,0,0,10,19.53Z"/><path class="cls-2" d="M142.32,109.58l-3.51-1.45c-.15.36-.31.72-.46,1.07l3.48,1.52C142,110.34,142.16,110,142.32,109.58Z"/><path class="cls-2" d="M94.57,142.2a56.37,56.37,0,0,1-20.51-1.08l-.89,3.69a59.46,59.46,0,0,0,14,1.67,60.44,60.44,0,0,0,7.89-.52Z"/><path class="cls-2" d="M146.77,89.35l-3.8-.16-.06,1.17,3.79.23C146.72,90.18,146.75,89.77,146.77,89.35Z"/><path class="cls-2" d="M136.84,119.84c.23-.35.46-.69.68-1l-3.2-2-.64,1Z"/><path class="cls-2" d="M145.43,99.66l-3.71-.82c-.08.38-.17.76-.26,1.14l3.69.89C145.25,100.47,145.34,100.07,145.43,99.66Z"/><path class="cls-2" d="M120.31,131.77l2.25,3.06,1-.75-2.31-3Z"/><path class="cls-2" d="M104,144.06l1.19-.37-1.15-3.62-1.11.34Z"/><path class="cls-2" d="M65.91,138.47a56.13,56.13,0,0,1-17.2-11.2L46.09,130a59.87,59.87,0,0,0,18.38,12Z"/><path class="cls-2" d="M113.7,140.26l1.11-.57-1.76-3.37-1,.53Z"/><path class="cls-2" d="M26.72,55.18l2,1a66.56,66.56,0,0,1,8.19-12.11l-1.67-1.45A68.32,68.32,0,0,0,26.72,55.18Z"/><path class="cls-1" d="M67.18,23.89l-.65-2.12A67.78,67.78,0,0,0,52.69,28l1.14,1.9A65.65,65.65,0,0,1,67.18,23.89Z"/><path class="cls-1" d="M85.31,20.82l0-2.22a67.67,67.67,0,0,0-15,2.1l.58,2.14A65.24,65.24,0,0,1,85.31,20.82Z"/><path class="cls-2" d="M18.91,86.85c0,1.75.06,3.48.2,5.19l2.2-.19c-.12-1.65-.19-3.32-.19-5a66.42,66.42,0,0,1,.71-9.62l-2.19-.34A68.18,68.18,0,0,0,18.91,86.85Z"/><path class="cls-2" d="M20.3,73.07l2.18.43A65.64,65.64,0,0,1,27,59.59l-2-.93A67.74,67.74,0,0,0,20.3,73.07Z"/><path class="cls-2" d="M37.8,39.75l1.62,1.51a67.18,67.18,0,0,1,11.19-9.4L49.41,30A68.15,68.15,0,0,0,37.8,39.75Z"/><path class="cls-2" d="M19.51,95.9a68.13,68.13,0,0,0,3.66,14.71l2.07-.79a65.31,65.31,0,0,1-3.53-14.2Z"/><path class="cls-2" d="M34,126a66,66,0,0,1-7.33-12.65l-2,.87a68.26,68.26,0,0,0,7.59,13.11Z"/><path class="cls-2" d="M147.18,119.52l1.89,1a69.5,69.5,0,0,0,7.54-21.72l-2.12-.37c.18-1.06.34-2.12.47-3.19L152.75,95A65.6,65.6,0,0,1,143,122.17l1.89,1.24Q146.1,121.51,147.18,119.52Z"/><path class="cls-2" d="M115.73,24.78l-1,2q2.52,1.16,4.91,2.52l1.15-1.95Q118.32,26,115.73,24.78Z"/><path class="cls-1" d="M92.87,18.81c-1.24-.1-2.47-.17-3.72-.21l0,2.22c1.16,0,2.32.1,3.48.19Z"/><path class="cls-2" d="M138.14,132.32l-1.68-1.5a66.72,66.72,0,0,1-17.11,13.73l1.08,2c1-.56,2-1.15,3-1.76l1.13,1.83a71.27,71.27,0,0,0,10.13-7.71l-1.44-1.6c.76-.7,1.52-1.42,2.25-2.16C136.39,134.22,137.28,133.28,138.14,132.32Z"/><path class="cls-2" d="M57.71,146a66.51,66.51,0,0,1-21.38-17l-1.72,1.4a68.56,68.56,0,0,0,22.11,17.57Z"/><path class="cls-2" d="M127.39,29l-1.24,1.77-.29-.21-1.29,1.85a66.13,66.13,0,0,1,28.21,46.53l2.21-.27a66.83,66.83,0,0,0-1.16-6.79l2.11-.46a69.5,69.5,0,0,0-2-7.12l-2,.68a67.64,67.64,0,0,0-11.65-21.1l1.68-1.35q-1.42-1.74-2.95-3.4l-1.58,1.46c-.63-.69-1.28-1.36-1.94-2a69.26,69.26,0,0,0-5.35-4.82l1.36-1.67q-1.08-.88-2.19-1.71L128,32.09c-.45-.34-.91-.66-1.36-1l1.27-1.75Z"/><path class="cls-2" d="M104.34,18.51l-.53,2.1c-.79-.2-1.59-.39-2.39-.55l-.53,2.16A66.15,66.15,0,0,1,112,25.64l.9-2.07a66.7,66.7,0,0,0-8-2.67l.56-2.09Z"/><path class="cls-2" d="M14.07,104.45c-.11-.45-.21-.9-.31-1.35l-9,2c.11.5.23,1,.35,1.52Z"/><path class="cls-2" d="M13,99.31c-.08-.46-.15-.92-.22-1.38L3.71,99.29c.07.52.16,1,.24,1.54Z"/><path class="cls-2" d="M13.5,101.89c-.1-.45-.18-.91-.27-1.37l-9,1.68c.1.51.19,1,.29,1.53Z"/><path class="cls-2" d="M12.13,91.49c0-.47-.05-.93-.07-1.39l-9.18.39c0,.52.05,1,.09,1.56Z"/><path class="cls-2" d="M2.83,89.11,12,88.86c0-.46,0-.92,0-1.39l-9.18.08C2.82,88.07,2.82,88.59,2.83,89.11Z"/><path class="cls-2" d="M2.81,86.16l9.18.08c0-.46,0-.93,0-1.39L2.83,84.6C2.82,85.12,2.82,85.64,2.81,86.16Z"/><path class="cls-2" d="M14.73,107c-.13-.44-.25-.89-.37-1.34L5.45,108c.13.51.26,1,.4,1.51Z"/><path class="cls-2" d="M12.33,94.1l-.12-1.38-9.15.71c0,.52.08,1,.13,1.56Z"/><path class="cls-2" d="M12.63,96.71c-.06-.46-.11-.92-.16-1.38l-9.13,1c.05.51.11,1,.18,1.55Z"/><path class="cls-2" d="M20.51,121.61l-.63-1.24-8.26,4.12c.23.47.47.93.71,1.39Z"/><path class="cls-2" d="M15.47,109.51c-.14-.44-.27-.88-.4-1.33l-8.84,2.61c.15.5.3,1,.46,1.49Z"/><path class="cls-2" d="M23.11,126.17c-.25-.39-.48-.79-.72-1.19l-8,4.69.8,1.33Z"/><path class="cls-2" d="M2.89,83.22l9.17.39c0-.46,0-.92.07-1.38L3,81.66C2.93,82.18,2.91,82.7,2.89,83.22Z"/><path class="cls-2" d="M24.52,128.38l-.76-1.16-7.79,5,.86,1.3Z"/><path class="cls-2" d="M21.77,123.92c-.23-.41-.46-.81-.68-1.22L13,127.1l.75,1.37Z"/><path class="cls-2" d="M16.31,112c-.15-.44-.31-.87-.45-1.32l-8.75,2.93.51,1.47Z"/><path class="cls-2" d="M17.23,114.46c-.17-.43-.33-.87-.5-1.3L8.1,116.38c.18.49.36,1,.56,1.46Z"/><path class="cls-2" d="M18.25,116.88c-.19-.43-.37-.85-.55-1.28l-8.53,3.53c.2.48.4,1,.61,1.43Z"/><path class="cls-2" d="M19.33,119.27,18.75,118l-8.4,3.82c.22.47.43.94.66,1.41Z"/><path class="cls-2" d="M3.7,74.42l9.09,1.35c.06-.45.14-.91.22-1.37L4,72.88C3.86,73.39,3.78,73.91,3.7,74.42Z"/><path class="cls-2" d="M21.7,49.76l-7.94-4.5c-.26.45-.51.9-.76,1.36L21,51C21.25,50.57,21.47,50.16,21.7,49.76Z"/><path class="cls-2" d="M23,47.5l-7.78-4.78c-.28.45-.54.89-.81,1.34l7.88,4.63C22.56,48.29,22.8,47.89,23,47.5Z"/><path class="cls-2" d="M18.19,56.81,9.8,53.16c-.21.48-.41,1-.61,1.44l8.46,3.49C17.82,57.66,18,57.23,18.19,56.81Z"/><path class="cls-2" d="M24.46,45.29l-7.62-5L16,41.55l7.7,4.9Z"/><path class="cls-2" d="M20.45,52.07l-8.1-4.22-.49.93c-.07.15-.15.3-.22.46l8.18,4.07C20,52.89,20.24,52.48,20.45,52.07Z"/><path class="cls-2" d="M29.16,39l-7-5.82c-.33.4-.65.81-1,1.22l7.16,5.68C28.58,39.69,28.86,39.33,29.16,39Z"/><path class="cls-2" d="M3.06,80.28l9.15.71.12-1.38-9.14-.88C3.14,79.24,3.1,79.76,3.06,80.28Z"/><path class="cls-2" d="M27.52,41l-7.24-5.56c-.32.41-.64.82-1,1.24l7.35,5.43Z"/><path class="cls-2" d="M26,130.54c-.27-.37-.53-.75-.8-1.13l-7.6,5.22c.29.43.59.85.9,1.27Z"/><path class="cls-2" d="M26,43.13l-7.43-5.31-.9,1.28,7.53,5.16C25.41,43.88,25.68,43.5,26,43.13Z"/><path class="cls-2" d="M30.88,37,24,30.91l-1,1.18L30,38C30.26,37.67,30.57,37.33,30.88,37Z"/><path class="cls-2" d="M17.18,59.24,8.67,55.88c-.19.48-.38,1-.56,1.46l8.58,3.2C16.85,60.1,17,59.67,17.18,59.24Z"/><path class="cls-2" d="M13.47,71.82,4.48,70c-.1.51-.2,1-.29,1.54l9,1.66C13.3,72.73,13.38,72.27,13.47,71.82Z"/><path class="cls-2" d="M3.33,77.35l9.13,1c0-.46.11-.92.17-1.38L3.52,75.8C3.45,76.31,3.39,76.83,3.33,77.35Z"/><path class="cls-2" d="M13.73,70.61c.1-.45.2-.91.31-1.36L5.11,67.11c-.12.5-.23,1-.34,1.52Z"/><path class="cls-2" d="M16.26,61.7,7.63,58.64c-.17.49-.35,1-.51,1.47L15.81,63Z"/><path class="cls-2" d="M14.7,66.71,5.86,64.26c-.14.5-.28,1-.41,1.5l8.89,2.29C14.45,67.6,14.57,67.16,14.7,66.71Z"/><path class="cls-2" d="M15.44,64.19,6.7,61.43c-.16.5-.32,1-.46,1.49L15,65.52C15.16,65.08,15.3,64.63,15.44,64.19Z"/><path class="cls-2" d="M19.28,54.42,11,50.48c-.23.47-.44.94-.66,1.42l8.32,3.78C18.88,55.26,19.08,54.84,19.28,54.42Z"/><path class="cls-2" d="M82,171.08l1.56.08L84,162l-1.38-.07Z"/><path class="cls-2" d="M79.06,170.85l1.56.14.71-9.16L80,161.71Z"/><path class="cls-2" d="M84.94,171.21l1.56,0,.07-9.18-1.38,0Z"/><path class="cls-2" d="M67.06,159.32l-2.47,8.88,1.51.39,2.3-8.91C68,159.57,67.51,159.44,67.06,159.32Z"/><path class="cls-2" d="M69.6,160l-2.15,8.95,1.52.35,2-9Z"/><path class="cls-2" d="M76.14,170.52l1.54.19,1-9.13-1.38-.17Z"/><path class="cls-2" d="M72.16,160.55l-1.84,9,1.54.29,1.67-9Z"/><path class="cls-2" d="M90.44,162l.39,9.17,1.56-.08-.57-9.17Z"/><path class="cls-2" d="M73.22,170.09l1.54.24,1.35-9.09L74.74,161Z"/><path class="cls-2" d="M87.81,162.05l.08,9.18q.78,0,1.56,0L89.2,162Z"/><path class="cls-2" d="M93.06,161.83l.71,9.15,1.56-.13-.89-9.14Z"/><path class="cls-2" d="M27.58,132.65l-.84-1.11L19.32,137c.31.41.62.83.94,1.24Z"/><path class="cls-2" d="M40.41,28l-5.72-7.19-1.2,1,5.84,7.08Z"/><path class="cls-2" d="M38.38,29.64l-6-7c-.4.34-.78.68-1.17,1l6.08,6.87C37.67,30.25,38,29.94,38.38,29.64Z"/><path class="cls-2" d="M34.5,33.18l-6.42-6.53c-.37.36-.74.72-1.1,1.1l6.53,6.41Z"/><path class="cls-2" d="M95.67,161.58l1,9.13,1.54-.19-1.2-9.1Z"/><path class="cls-2" d="M36.41,31.38l-6.19-6.76c-.38.35-.77.7-1.14,1.06l6.31,6.65C35.73,32,36.06,31.69,36.41,31.38Z"/><path class="cls-2" d="M32.65,35.05,26,28.75c-.36.37-.71.75-1.06,1.14l6.74,6.17C32,35.72,32.34,35.39,32.65,35.05Z"/><path class="cls-2" d="M41.65,27l-2.78-3.65.76,1a78.66,78.66,0,0,1,81.22-8.48l.54-1.14-2,4.15.19.09,4-8.29-.2-.1-1.42,3A81.13,81.13,0,0,0,38.1,22.34l-2-2.64-.29.23,5.59,7.28Z"/><path class="cls-2" d="M38.41,144c-.36-.3-.7-.61-1-.91L31.25,150l1.17,1Z"/><path class="cls-2" d="M44.65,148.83c-.39-.26-.77-.52-1.14-.79l-5.36,7.5c.42.31.85.61,1.27.9Z"/><path class="cls-2" d="M36.44,142.3l-1-1L29.07,148l1.15,1.06Z"/><path class="cls-2" d="M42.51,147.31l-1.11-.84-5.62,7.32,1.24.94Z"/><path class="cls-2" d="M40.43,145.71l-1.08-.87L33.48,152l1.21,1Z"/><path class="cls-2" d="M29.21,134.7l-.87-1.08-7.22,5.74,1,1.21Z"/><path class="cls-2" d="M30.92,136.69c-.3-.35-.61-.69-.91-1.05l-7,6c.33.4.68.78,1,1.17Z"/><path class="cls-2" d="M28.08,147.07l6.46-6.58c-.33-.32-.66-.65-1-1L27,146l.54.55C27.7,146.71,27.89,146.89,28.08,147.07Z"/><path class="cls-2" d="M32.69,138.63l-.94-1L25,143.83c.35.39.7.77,1.06,1.15Z"/><path class="cls-2" d="M62.06,157.73,59,166.43l1.48.5,2.92-8.74Z"/><path class="cls-2" d="M54.78,154.71l-4,8.33,1.41.66L56,155.3Z"/><path class="cls-2" d="M57.17,155.8l-3.68,8.46,1.43.62,3.53-8.53Z"/><path class="cls-2" d="M45.67,149.52l-5.1,7.7c.43.29.87.57,1.31.85l4.95-7.79C46.44,150,46.05,149.78,45.67,149.52Z"/><path class="cls-2" d="M64.54,158.57l-2.77,8.79,1.49.45L65.87,159Z"/><path class="cls-2" d="M59.59,156.81l-3.38,8.58,1.46.56,3.22-8.64Z"/><path class="cls-2" d="M47.88,150.94l-4.83,7.87,1.34.8,4.68-8Z"/><path class="cls-2" d="M52.44,153.53l-4.26,8.19,1.38.71,4.12-8.27C53.26,154,52.85,153.75,52.44,153.53Z"/><path class="cls-2" d="M50.14,152.28l-4.55,8,1.36.76,4.4-8.12Z"/><path class="cls-2" d="M121.31,153.9l4.17,8.18.72-.38L122,153.56Z"/><path class="cls-2" d="M123.05,153l4.38,8.07.72-.4-4.46-8Z"/><path class="cls-2" d="M124.77,152l4.58,8,.72-.42-4.67-7.91Z"/><path class="cls-2" d="M128.12,150l5,7.7c.23-.15.46-.29.69-.45l-5.08-7.65Z"/><path class="cls-2" d="M126.46,151l4.79,7.83.7-.43-4.87-7.78Z"/><path class="cls-2" d="M119.54,154.77l3.95,8.29.74-.36-4-8.25Z"/><path class="cls-2" d="M114.12,157.1l3.28,8.57.77-.3-3.37-8.54Z"/><path class="cls-2" d="M108.52,159l2.6,8.8.79-.24-2.69-8.77Z"/><path class="cls-2" d="M106.9,159.45l1.2,4.43-.33-1.22a77.33,77.33,0,0,1-8.93,1.86l-.48-3.29-.09,0,1.35,9.08h.08L99,165.78l.19,1.25a80.56,80.56,0,0,0,9.21-1.93l.87,3.21.49-.14-2.46-8.84Z"/><path class="cls-2" d="M117.76,155.59l3.73,8.39.74-.34-3.81-8.35Z"/><path class="cls-2" d="M112.27,157.78l3.06,8.66.77-.29L113,157.53Z"/><path class="cls-2" d="M116,156.37l3.51,8.48.75-.32-3.59-8.45Z"/><path class="cls-2" d="M129.76,148.85l5.19,7.57c.23-.15.46-.3.68-.46l-5.27-7.52Z"/><path class="cls-2" d="M110.4,158.41l2.84,8.73.78-.26-2.92-8.7Z"/><path class="cls-2" d="M132.94,146.54l5.59,7.28.65-.5-5.66-7.23C133.33,146.25,133.13,146.39,132.94,146.54Z"/><path class="cls-2" d="M131.37,147.72l5.39,7.43.66-.49L132,147.29C131.76,147.43,131.56,147.57,131.37,147.72Z"/><path class="cls-2" d="M153.89,52.09c.12.21.22.43.33.65l8.18-4.16c-.12-.25-.24-.49-.37-.73Z"/><path class="cls-2" d="M157.86,61.09c.09.23.17.46.25.69l8.65-3.06-.27-.77Z"/><path class="cls-2" d="M154.78,53.85c.11.21.21.44.31.66l8.29-3.95c-.12-.25-.23-.5-.35-.74Z"/><path class="cls-2" d="M152,48.65l.36.63,8-4.58c-.14-.24-.28-.48-.41-.72Z"/><path class="cls-2" d="M151,47l.39.62,7.82-4.79c-.14-.24-.28-.47-.43-.7Z"/><path class="cls-2" d="M157.16,59.25l.27.68L166,56.65l-.29-.77Z"/><path class="cls-2" d="M156.42,57.43c.09.22.18.45.28.67l8.48-3.51c-.1-.25-.2-.5-.31-.75Z"/><path class="cls-2" d="M155.62,55.63c.11.22.2.44.3.66l8.39-3.73-.33-.75Z"/><path class="cls-2" d="M153,50.36l.35.64,8.06-4.38L161,45.9Z"/><path class="cls-2" d="M143.92,37.49l.47.55,7-5.95-.54-.63Z"/><path class="cls-2" d="M149.89,45.31l.39.61,7.7-5-.44-.69Z"/><path class="cls-2" d="M145.19,39l.46.57,7.14-5.78-.52-.63Z"/><path class="cls-2" d="M141.26,34.59c.17.17.33.35.5.53l6.66-6.32c-.18-.2-.37-.39-.56-.59Z"/><path class="cls-2" d="M148.77,43.69c.15.19.28.4.42.6l7.57-5.2-.47-.67Z"/><path class="cls-2" d="M147.62,42.09c.15.19.29.39.43.59l7.43-5.39-.48-.66Z"/><path class="cls-2" d="M146.43,40.52l.44.58,7.29-5.58-.5-.65Z"/><path class="cls-2" d="M142.61,36l.49.54,6.82-6.13c-.18-.21-.36-.41-.55-.61Z"/><path class="cls-2" d="M130.83,25.6l.59.43,5.41-7.42-.67-.48Z"/><path class="cls-2" d="M139.87,33.19c.17.17.35.34.52.52l6.49-6.49-.58-.58Z"/><path class="cls-2" d="M127.57,23.4l.61.4,5-7.7-.69-.44Z"/><path class="cls-2" d="M129.21,24.48l.61.41,5.2-7.56c-.22-.16-.45-.31-.68-.46Z"/><path class="cls-2" d="M125.89,22.36l.63.38,4.8-7.82-.7-.43Z"/><path class="cls-2" d="M120.71,19.52l.66.33,4.17-8.18-.73-.37Z"/><path class="cls-2" d="M122.47,20.42l.64.35,4.39-8.07-.73-.38Z"/><path class="cls-2" d="M124.19,21.37l.64.36,4.59-7.94-.71-.41Z"/><path class="cls-2" d="M135.5,29.22l.56.47,6-7-.62-.53Z"/><path class="cls-2" d="M138.45,31.83l.53.5,6.32-6.65-.6-.57Z"/><path class="cls-2" d="M137,30.51l.55.48,6.14-6.82-.61-.54Z"/><path class="cls-2" d="M134,28l.58.45,5.77-7.13-.63-.51Z"/><path class="cls-2" d="M132.42,26.77l.58.44,5.59-7.28c-.21-.17-.43-.33-.65-.49Z"/><path class="cls-2" d="M167.47,60.81c-.08-.26-.16-.52-.25-.78L158.52,63c.07.23.15.46.22.7Z"/><path class="cls-1" d="M38.63,157.52a1.35,1.35,0,0,0-.92.36A86.65,86.65,0,0,1,3.47,64.81H3.6a1.4,1.4,0,1,0-.73-.21,87.28,87.28,0,0,0,34.47,93.78,1.31,1.31,0,0,0-.11.52,1.4,1.4,0,1,0,1.4-1.39ZM3.6,62.67a.76.76,0,1,1-.76.76A.76.76,0,0,1,3.6,62.67Zm35,97a.76.76,0,1,1,.75-.76A.76.76,0,0,1,38.63,159.67Z"/></g></g></svg>