<svg xmlns="http://www.w3.org/2000/svg" viewBox="0 0 53.69 53.72"><defs><style>.cls-1{isolation:isolate;}.cls-2{mix-blend-mode:screen;}.cls-3{fill:#fff;}</style></defs><title>资源 21</title><g class="cls-1"><g id="图层_2" data-name="图层 2"><g id="Elements"><g class="cls-2"><path class="cls-3" d="M49.73,23.26A22.94,22.94,0,0,0,36,5.6l1.58-3.68A27,27,0,0,1,53.69,22.66Z"/></g><g class="cls-2"><path class="cls-3" d="M34.1,4.87c-.47-.16-1-.29-1.43-.42s-1-.22-1.45-.32L32,.2c.57.11,1.13.23,1.7.38s1.12.3,1.67.48Z"/></g><g class="cls-2"><path class="cls-3" d="M51.31,38.49l-3.6-1.74a20.61,20.61,0,0,0,1-2.34A21.1,21.1,0,0,0,49.4,32l3.89.91a25.79,25.79,0,0,1-.83,2.85A28.54,28.54,0,0,1,51.31,38.49Z"/></g><g class="cls-2"><path class="cls-3" d="M15.9,6.6,14,3.1A26.85,26.85,0,0,1,23.29,0l.55,4A23.25,23.25,0,0,0,15.9,6.6Z"/></g><g class="cls-2"><path class="cls-3" d="M6.57,16.18,3,14.34c.24-.47.5-.94.77-1.4s.56-.9.86-1.34L8,13.84c-.25.37-.5.76-.73,1.15S6.78,15.77,6.57,16.18Z"/></g><g class="cls-2"><path class="cls-3" d="M10,47.69A27,27,0,0,1,.89,19.87l3.87,1A23.13,23.13,0,0,0,4,26.74a22.9,22.9,0,0,0,8.49,17.85Z"/></g><g class="cls-2"><path class="cls-3" d="M25.79,53.72a27.48,27.48,0,0,1-6.23-1,26.85,26.85,0,0,1-5.83-2.44l2-3.49a22.54,22.54,0,0,0,5,2.08,22.83,22.83,0,0,0,5.31.87Z"/></g><g class="cls-2"><path class="cls-3" d="M27,52.25A25.52,25.52,0,0,1,1.56,28.48,25.49,25.49,0,0,1,43.76,7.53,25.31,25.31,0,0,1,52.44,25h0a25.49,25.49,0,0,1-23.7,27.17C28.14,52.23,27.55,52.25,27,52.25Zm.08-50q-.86,0-1.71.06A24.5,24.5,0,0,0,10.9,45.21,24.5,24.5,0,0,0,51.44,25.08h0A24.51,24.51,0,0,0,27,2.24Z"/></g></g></g></g></svg>