<svg xmlns="http://www.w3.org/2000/svg" viewBox="0 0 48.84 49.03"><defs><style>.cls-1{isolation:isolate;}.cls-2{mix-blend-mode:screen;}.cls-3{fill:#fff;}</style></defs><title>资源 20</title><g class="cls-1"><g id="图层_2" data-name="图层 2"><g id="Elements"><g class="cls-2"><path class="cls-3" d="M25.49,49A22.74,22.74,0,1,1,48.22,26.3,22.76,22.76,0,0,1,25.49,49Zm0-44.47A21.74,21.74,0,1,0,47.22,26.3,21.76,21.76,0,0,0,25.49,4.56Z"/></g><g class="cls-2"><path class="cls-3" d="M3,23.58l-3-.36A25.78,25.78,0,0,1,4.29,11.81l2.48,1.7a21.92,21.92,0,0,0-2.5,4.8A22.81,22.81,0,0,0,3,23.58Z"/></g><g class="cls-2"><path class="cls-3" d="M47.38,29.78l-4-.63a18.15,18.15,0,0,0,.22-2.85,18,18,0,0,0-1.36-6.9L46,17.88a22.12,22.12,0,0,1,1.65,8.42A22.57,22.57,0,0,1,47.38,29.78Z"/></g><g class="cls-2"><path class="cls-3" d="M44.38,14.17A22.44,22.44,0,0,0,27.9,4l.43-4A26.41,26.41,0,0,1,47.74,12Z"/></g><g class="cls-2"><path class="cls-3" d="M19.76,7.68l-.9-2.86A21.73,21.73,0,0,1,26,3.8l-.07,3h-.42A18.89,18.89,0,0,0,19.76,7.68Z"/></g><g class="cls-2"><path class="cls-3" d="M25.49,49A22.74,22.74,0,1,1,48.22,26.3,22.76,22.76,0,0,1,25.49,49Zm0-44.47A21.74,21.74,0,1,0,47.22,26.3,21.76,21.76,0,0,0,25.49,4.56Z"/></g><g class="cls-2"><path class="cls-3" d="M25.49,49A22.74,22.74,0,1,1,48.22,26.3,22.76,22.76,0,0,1,25.49,49Zm0-44.47A21.74,21.74,0,1,0,47.22,26.3,21.76,21.76,0,0,0,25.49,4.56Z"/></g><g class="cls-2"><path class="cls-3" d="M25.49,49A22.74,22.74,0,1,1,48.22,26.3,22.76,22.76,0,0,1,25.49,49Zm0-44.47A21.74,21.74,0,1,0,47.22,26.3,21.76,21.76,0,0,0,25.49,4.56Z"/></g><g class="cls-2"><path class="cls-3" d="M25.49,49A22.74,22.74,0,1,1,48.22,26.3,22.76,22.76,0,0,1,25.49,49Zm0-44.47A21.74,21.74,0,1,0,47.22,26.3,21.76,21.76,0,0,0,25.49,4.56Z"/></g><g class="cls-2"><path class="cls-3" d="M2.1,35.72c-.3-.74-.56-1.5-.79-2.27S.89,31.89.74,31.11l2.94-.57c.13.69.3,1.38.5,2.06s.44,1.35.7,2Z"/></g><g class="cls-2"><path class="cls-3" d="M45.61,41.49l-2.4-1.81a22.26,22.26,0,0,0,2.85-5l2.78,1.13a25.19,25.19,0,0,1-1.43,3A26.39,26.39,0,0,1,45.61,41.49Z"/></g><g class="cls-2"><path class="cls-3" d="M25.49,48.09A21.93,21.93,0,0,1,6.9,37.68l3.41-2.09A17.82,17.82,0,0,0,31.74,43l1.41,3.74A21.81,21.81,0,0,1,25.49,48.09Z"/></g></g></g></g></svg>