<svg xmlns="http://www.w3.org/2000/svg" viewBox="0 0 108.49 108.49"><defs><style>.cls-1{fill:#00b3ea;}.cls-2{fill:#065977;}.cls-3{fill:#feb113;}</style></defs><title>资源 4</title><g id="图层_2" data-name="图层 2"><g id="Layer_1" data-name="Layer 1"><path class="cls-1" d="M0,0V4.36A104.13,104.13,0,0,1,104.13,108.49h4.36A108.49,108.49,0,0,0,0,0Z"/><path class="cls-2" d="M36.16,92.34a39.39,39.39,0,0,1,3.43,16.15H97.05A96.69,96.69,0,0,0,88.63,68.9Z"/><path class="cls-1" d="M13.55,71.28A39.72,39.72,0,0,1,36.16,92.34L88.63,68.9c0-.06,0-.11-.07-.17A97.36,97.36,0,0,0,33.22,17.28Z"/><path class="cls-2" d="M0,11.44V68.9a39.52,39.52,0,0,1,13.55,2.38l19.67-54A96.73,96.73,0,0,0,0,11.44Z"/><path class="cls-3" d="M0,4.36V9.41a99.08,99.08,0,0,1,99.08,99.08h5A104.13,104.13,0,0,0,0,4.36Z"/><path class="cls-3" d="M0,68.9v3.25a36.34,36.34,0,0,1,36.34,36.34h3.25A39.6,39.6,0,0,0,0,68.9Z"/><path class="cls-1" d="M0,83.13v25.36H25.36A25.36,25.36,0,0,0,0,83.13Z"/><path class="cls-2" d="M0,92.45v16H16A16,16,0,0,0,0,92.45Z"/></g></g></svg>