<svg xmlns="http://www.w3.org/2000/svg" viewBox="0 0 543.96 686.1"><defs><style>.cls-1{opacity:0.8;}.cls-2{fill:#5fffe8;}</style></defs><title>资源 5</title><g id="图层_2" data-name="图层 2"><g id="央铋_1" data-name="央铋 1"><g class="cls-1"><path class="cls-2" d="M518,339c0,133.39-108.52,241.91-241.91,241.91S34.16,472.34,34.16,339,142.69,97,276.08,97,518,205.56,518,339ZM36.9,339c0,131.88,107.29,239.18,239.18,239.18S515.25,470.83,515.25,339,408,99.77,276.08,99.77,36.9,207.06,36.9,339Z"/><path class="cls-2" d="M456.48,339c0,99.48-80.93,180.4-180.4,180.4S95.67,438.43,95.67,339,176.6,158.54,276.08,158.54,456.48,239.47,456.48,339ZM98.4,339c0,98,79.71,177.67,177.68,177.67S453.75,436.92,453.75,339s-79.7-177.68-177.67-177.68S98.4,241,98.4,339Z"/><path class="cls-2" d="M430.52,339c0,85.15-69.28,154.44-154.44,154.44S121.64,424.1,121.64,339s69.28-154.44,154.44-154.44S430.52,253.79,430.52,339Zm-306.15,0c0,83.65,68,151.7,151.71,151.7s151.71-68,151.71-151.7S359.73,187.24,276.08,187.24,124.37,255.3,124.37,339Z"/><path class="cls-2" d="M125.69,199.86A205.36,205.36,0,0,0,83,270.06l2.49,1.08a202.73,202.73,0,0,1,43-70.37Z"/><path class="cls-2" d="M276.08,133.94A204.23,204.23,0,0,0,230,139.23l.75,2.62a201,201,0,0,1,101.35,2.78l.84-2.61A204.08,204.08,0,0,0,276.08,133.94Z"/><path class="cls-2" d="M122.34,474.34l2.16-1.67a202.66,202.66,0,0,1-38-63.49l-2.38,1.47A205.15,205.15,0,0,0,122.34,474.34Z"/><path class="cls-2" d="M71.12,341.23a204,204,0,0,0,13,69.42l2.38-1.47a200.84,200.84,0,0,1-12.62-67.95Z"/><path class="cls-2" d="M276.08,544a203.76,203.76,0,0,0,85.57-18.73l-1-2.56a201.57,201.57,0,0,1-131,13.12l-.81,2.61A204.37,204.37,0,0,0,276.08,544Z"/><path class="cls-2" d="M447.22,226.29,445,227.85A201.77,201.77,0,0,1,458,427.4l2.93.25a204.5,204.5,0,0,0-13.66-201.36Z"/><rect class="cls-2" x="274.56" width="3.03" height="68.33"/><rect class="cls-2" x="274.56" y="610.93" width="3.03" height="75.17"/><rect class="cls-2" y="337.43" width="54.66" height="3.03"/><rect class="cls-2" x="13.82" y="421.27" width="54.67" height="3.03" transform="translate(-142.3 39.66) rotate(-20.03)"/><rect class="cls-2" x="55.48" y="495.32" width="54.66" height="3.04" transform="translate(-299.66 169.08) rotate(-39.94)"/><rect class="cls-2" x="119.95" y="550.67" width="54.67" height="3.04" transform="translate(-404.56 403.63) rotate(-60)"/><rect class="cls-2" x="199.47" y="580.62" width="54.67" height="3.03" transform="translate(-385.93 704.09) rotate(-79.97)"/><rect class="cls-2" x="310.25" y="555.75" width="3.03" height="54.67" transform="translate(-96.52 63) rotate(-10)"/><rect class="cls-2" x="390.42" y="527.58" width="3.04" height="54.66" transform="translate(-224.98 270.39) rotate(-30.01)"/><rect class="cls-2" x="456.12" y="473.69" width="3.03" height="54.67" transform="translate(-220.33 529.54) rotate(-50)"/><polygon class="cls-2" points="526.1 438.69 474.73 420 475.77 417.14 527.14 435.85 526.1 438.69"/><rect class="cls-2" x="489.29" y="342.89" width="54.67" height="3.04"/><rect class="cls-2" x="475.47" y="259.05" width="54.67" height="3.04" transform="translate(-58.84 188.03) rotate(-20.04)"/><polygon class="cls-2" points="441.18 205.25 439.23 202.92 481.1 167.79 483.06 170.1 441.18 205.25"/><rect class="cls-2" x="369.33" y="129.65" width="54.67" height="3.04" transform="translate(84.82 409.2) rotate(-60.02)"/><rect class="cls-2" x="289.81" y="99.71" width="54.67" height="3.04" transform="translate(162.24 395.9) rotate(-79.97)"/><rect class="cls-2" x="230.67" y="72.95" width="3.04" height="54.67" transform="translate(-13.89 41.84) rotate(-10)"/><polygon class="cls-2" points="164.37 152.87 137.04 105.53 139.67 104.01 167 151.36 164.37 152.87"/><rect class="cls-2" x="84.81" y="155" width="3.04" height="54.67" transform="translate(-108.84 131.26) rotate(-50)"/><rect class="cls-2" x="41.5" y="228.11" width="3.04" height="54.67" transform="translate(-211.73 208.51) rotate(-70)"/><path class="cls-2" d="M276.08,364A25.06,25.06,0,1,1,301.13,339,25.05,25.05,0,0,1,276.08,364Z"/><path class="cls-2" d="M152.12,315.3l16,3.63a109.87,109.87,0,0,1,87.68-87.86L252.66,215A126.29,126.29,0,0,0,152.12,315.3Z"/><path class="cls-2" d="M149.88,339c0,.22,0,.45,0,.68h16.4c0-.23,0-.46,0-.68a109.14,109.14,0,0,1,1.83-20l-16-3.63A126.26,126.26,0,0,0,149.88,339Z"/><path class="cls-2" d="M179.13,419.72l11.77-11.53a109.33,109.33,0,0,1-24.6-68.56H149.9A125.77,125.77,0,0,0,179.13,419.72Z"/><path class="cls-2" d="M283,448.49l2.86,16.22a126.09,126.09,0,0,0,91.66-50.81l-12.21-11A109.6,109.6,0,0,1,283,448.49Z"/><path class="cls-2" d="M385.87,339a109.16,109.16,0,0,1-20.53,63.91l12.21,11A125.49,125.49,0,0,0,402.27,339c0-1.07,0-2.13-.08-3.19l-16.36,1.34C385.83,337.72,385.87,338.33,385.87,339Z"/><path class="cls-2" d="M276.08,212.75l-.68,0v16.4l.68,0A109.76,109.76,0,0,1,385.64,332.74l16.21-3.59A126.18,126.18,0,0,0,276.08,212.75Z"/><path class="cls-2" d="M199.15,417.23l-10.76,12.45a125.72,125.72,0,0,0,87.69,35.47c.41,0,.82,0,1.24,0l-1.6-16.38A109.28,109.28,0,0,1,199.15,417.23Z"/><path class="cls-2" d="M341.74,273.29l6.17-6.18a101.9,101.9,0,0,0-14.44-12l-5.1,7.11A93.3,93.3,0,0,1,341.74,273.29Z"/><path class="cls-2" d="M183.22,339a92.43,92.43,0,0,1,8.85-39.55l-8.18-3.1a101.53,101.53,0,0,0,4,93.06l7.39-4.7A92.33,92.33,0,0,1,183.22,339Z"/><path class="cls-2" d="M276.08,431.8a92.34,92.34,0,0,1-43.16-10.66l-4.34,7.58a101.49,101.49,0,0,0,99.66-2.59l-4.88-7.27A92.48,92.48,0,0,1,276.08,431.8Z"/><path class="cls-2" d="M323.36,418.86l4.88,7.27a101.81,101.81,0,0,0,10.12-6.95l-6.45-6.1A93.49,93.49,0,0,1,323.36,418.86Z"/><path class="cls-2" d="M206.52,277.46l-7.21-5a102.22,102.22,0,0,0-15.42,23.86l8.18,3.1A93.58,93.58,0,0,1,206.52,277.46Z"/><path class="cls-2" d="M276.08,399.23A60.29,60.29,0,1,1,336.36,339,60.35,60.35,0,0,1,276.08,399.23Zm0-117.53A57.25,57.25,0,1,0,333.33,339,57.31,57.31,0,0,0,276.08,281.7Z"/><polygon class="cls-2" points="90.89 348.74 90.89 328.81 78.93 338.78 90.89 348.74"/><polygon class="cls-2" points="105.4 411.5 98.59 392.76 90.76 406.22 105.4 411.5"/><polygon class="cls-2" points="140.51 465.49 127.69 450.22 124.94 465.54 140.51 465.49"/><polygon class="cls-2" points="191.96 504.23 174.71 494.26 177.35 509.6 191.96 504.23"/><polygon class="cls-2" points="253.57 523.02 233.93 519.57 241.68 533.08 253.57 523.02"/><polygon class="cls-2" points="317.89 519.62 298.26 523.08 310.14 533.13 317.89 519.62"/><polygon class="cls-2" points="377.15 494.43 359.89 504.4 374.51 509.77 377.15 494.43"/><polygon class="cls-2" points="424.24 450.48 411.42 465.75 426.99 465.81 424.24 450.48"/><polygon class="cls-2" points="453.45 393.09 446.63 411.81 461.28 406.54 453.45 393.09"/><polygon class="cls-2" points="461.27 329.16 461.27 349.09 473.23 339.12 461.27 329.16"/><polygon class="cls-2" points="446.75 266.4 453.57 285.14 461.4 271.68 446.75 266.4"/><polygon class="cls-2" points="411.65 212.41 424.46 227.68 427.21 212.35 411.65 212.41"/><polygon class="cls-2" points="360.19 173.67 377.45 183.64 374.8 168.29 360.19 173.67"/><polygon class="cls-2" points="298.58 154.87 318.22 158.34 310.48 144.82 298.58 154.87"/><polygon class="cls-2" points="234.28 158.27 253.9 154.81 242.01 144.76 234.28 158.27"/><polygon class="cls-2" points="175 183.47 192.26 173.5 177.65 168.13 175 183.47"/><polygon class="cls-2" points="127.92 227.42 140.73 212.15 125.16 212.09 127.92 227.42"/><polygon class="cls-2" points="98.7 284.81 105.53 266.09 90.87 271.36 98.7 284.81"/></g></g></g></svg>