<svg xmlns="http://www.w3.org/2000/svg" viewBox="0 0 44.51 47.5"><defs><style>.cls-1{isolation:isolate;}.cls-2{mix-blend-mode:screen;}.cls-3{fill:#fff;}</style></defs><title>资源 17</title><g class="cls-1"><g id="图层_2" data-name="图层 2"><g id="Elements"><g class="cls-2"><rect class="cls-3" x="35.48" y="24.25" width="9.03" height="1.5"/></g><g class="cls-2"><rect class="cls-3" x="34.79" y="18.95" width="9.03" height="1.5" transform="translate(-3.76 10.85) rotate(-15.01)"/></g><g class="cls-2"><rect class="cls-3" x="32.74" y="14.01" width="9.03" height="1.5" transform="translate(-2.39 20.61) rotate(-30)"/></g><g class="cls-2"><rect class="cls-3" x="29.48" y="9.76" width="9.03" height="1.5" transform="translate(2.52 27.12) rotate(-45)"/></g><g class="cls-2"><rect class="cls-3" x="25.24" y="6.51" width="9.03" height="1.5" transform="translate(8.59 29.4) rotate(-60)"/></g><g class="cls-2"><rect class="cls-3" x="20.3" y="4.46" width="9.03" height="1.5" transform="matrix(0.26, -0.97, 0.97, 0.26, 13.37, 27.84)"/></g><g class="cls-2"><rect class="cls-3" x="18.76" width="1.5" height="9.03"/></g><g class="cls-2"><rect class="cls-3" x="14.5" y="8.56" width="1.5" height="1.03" transform="translate(-1.83 4.25) rotate(-14.99)"/></g><g class="cls-2"><rect class="cls-3" x="10.4" y="9.75" width="1.5" height="1.53" transform="translate(-3.76 6.98) rotate(-29.99)"/></g><g class="cls-2"><rect class="cls-3" x="6.76" y="11.98" width="1.5" height="2.02" transform="translate(-6.99 9.11) rotate(-45)"/></g><g class="cls-2"><rect class="cls-3" x="3.84" y="15.12" width="1.5" height="2.53" transform="translate(-11.89 12.17) rotate(-60)"/></g><g class="cls-2"><rect class="cls-3" x="1.87" y="18.96" width="1.5" height="3.03" transform="translate(-17.83 17.71) rotate(-74.99)"/></g><g class="cls-2"><rect class="cls-3" x="0.01" y="24.25" width="3.53" height="1.5"/></g><g class="cls-2"><rect class="cls-3" x="0.13" y="28.9" width="4.03" height="1.5" transform="matrix(0.97, -0.26, 0.26, 0.97, -7.59, 1.56)"/></g><g class="cls-2"><rect class="cls-3" x="1.47" y="33.36" width="4.52" height="1.5" transform="matrix(0.87, -0.5, 0.5, 0.87, -16.56, 6.44)"/></g><g class="cls-2"><rect class="cls-3" x="3.94" y="37.32" width="5.02" height="1.5" transform="translate(-25.03 15.71) rotate(-45)"/></g><g class="cls-2"><rect class="cls-3" x="7.39" y="40.47" width="5.53" height="1.5" transform="translate(-30.63 29.4) rotate(-60)"/></g><g class="cls-2"><rect class="cls-3" x="11.58" y="42.59" width="6.03" height="1.5" transform="translate(-31.04 46.22) rotate(-74.99)"/></g><g class="cls-2"><rect class="cls-3" x="18.76" y="40.97" width="1.5" height="6.53"/></g><g class="cls-2"><rect class="cls-3" x="23.81" y="40.31" width="1.5" height="7.03" transform="translate(-10.5 7.85) rotate(-15)"/></g><g class="cls-2"><rect class="cls-3" x="28.63" y="38.33" width="1.5" height="7.53" transform="matrix(0.87, -0.5, 0.5, 0.87, -17.11, 20.33)"/></g><g class="cls-2"><rect class="cls-3" x="32.89" y="35.12" width="1.5" height="8.02" transform="translate(-17.81 35.25) rotate(-45)"/></g><g class="cls-2"><rect class="cls-3" x="36.18" y="30.91" width="1.5" height="8.28" transform="translate(-11.89 49.51) rotate(-60)"/></g><g class="cls-2"><rect class="cls-3" x="38.31" y="25.97" width="1.5" height="8.53" transform="translate(-0.25 60.14) rotate(-75)"/></g></g></g></g></svg>