<svg xmlns="http://www.w3.org/2000/svg" viewBox="0 0 25.61 28.05"><defs><style>.cls-1{fill:#375d81;}</style></defs><title>资源 17</title><g id="图层_2" data-name="图层 2"><g id="Layer_1" data-name="Layer 1"><path class="cls-1" d="M23,2.1a6.92,6.92,0,0,1-1.93,1A22.3,22.3,0,0,1,17.91,4c-1.14.24-2.22.4-3.12.5a19.79,19.79,0,0,1-2,.14c-.38,0-1.09,0-2-.14s-2-.26-3.11-.5a22.3,22.3,0,0,1-3.18-.86,7.07,7.07,0,0,1-1.93-1L0,0,.11,3a27.87,27.87,0,0,0,2.82,11.9,34.51,34.51,0,0,0,5.31,7.25,42,42,0,0,1,3.29,4.05l1.27,1.88.37-.54.91-1.34a40.53,40.53,0,0,1,3.29-4.05,34.51,34.51,0,0,0,5.31-7.25A27.87,27.87,0,0,0,25.5,3l.11-3ZM24.67,3a27.19,27.19,0,0,1-2.76,11.66,33.68,33.68,0,0,1-5.21,7.12,40.39,40.39,0,0,0-3.34,4.12l-.56.81-.55-.81a41.67,41.67,0,0,0-3.33-4.12A33.36,33.36,0,0,1,3.7,14.61,27.19,27.19,0,0,1,.94,3l0-1.28L2,2.57A7.64,7.64,0,0,0,4.18,3.7a23.29,23.29,0,0,0,3.32.9c1.17.24,2.28.41,3.2.51s1.66.15,2.1.15,1.18,0,2.11-.15,2-.27,3.21-.51a23.88,23.88,0,0,0,3.31-.9A7.64,7.64,0,0,0,23.6,2.57l1.12-.9Zm-23.11,0C2.06,16.29,8.73,19.6,12.8,25.6c4.08-6,10.74-9.31,11.24-22.67-2.45,2-9.19,2.84-11.24,2.84S4,4.92,1.56,2.93Zm.86,2.54A12.09,12.09,0,0,0,3.9,6.77c1,.74,2.44,1.59,4.05,2.56a13,13,0,0,1,3.64,3.05,7.26,7.26,0,0,1,1.05,1.79,11.42,11.42,0,0,0-1.47-1.3c-1-.74-2.44-1.59-4.06-2.56A13,13,0,0,1,3.48,7.26,7.54,7.54,0,0,1,2.42,5.47ZM4,8.21a9.73,9.73,0,0,0,1.18,1c.78.59,2,1.28,3.25,2.05a10.61,10.61,0,0,1,2.91,2.44,6.3,6.3,0,0,1,.84,1.43,10.4,10.4,0,0,0-1.18-1,35,35,0,0,0-3.25-2.05,10.4,10.4,0,0,1-2.9-2.44A6.55,6.55,0,0,1,4,8.21Zm1.25,2.2a8.11,8.11,0,0,0,.94.83c.62.47,1.57,1,2.6,1.64a8.49,8.49,0,0,1,2.33,1.95A4.89,4.89,0,0,1,11.77,16a6.32,6.32,0,0,0-.94-.83,27.33,27.33,0,0,0-2.6-1.64,8.5,8.5,0,0,1-2.33-2A5,5,0,0,1,5.23,10.41Zm5.38,6.19c-.4-.3-1-.65-1.66-1.05A5.24,5.24,0,0,1,7.46,14.3,2.81,2.81,0,0,1,7,13.57a5,5,0,0,0,.6.53c.4.3,1,.65,1.66,1.05a5.11,5.11,0,0,1,1.49,1.25,2.81,2.81,0,0,1,.43.73A5,5,0,0,0,10.61,16.6Zm.1-.65c-.5-.38-1.25-.81-2.08-1.31a6.44,6.44,0,0,1-1.86-1.56,3.68,3.68,0,0,1-.54-.92,6.1,6.1,0,0,0,.75.67c.5.38,1.25.81,2.08,1.31a6.58,6.58,0,0,1,1.86,1.56,4.1,4.1,0,0,1,.54.92A6.1,6.1,0,0,0,10.71,16Zm2.09,3.82-1.49-2.53L12.8,14.7l1.5,2.54Zm5.35-5.47a5.24,5.24,0,0,1-1.49,1.25C16,16,15.4,16.3,15,16.6a5,5,0,0,0-.6.53,2.81,2.81,0,0,1,.43-.73,5.24,5.24,0,0,1,1.49-1.25c.66-.4,1.26-.75,1.66-1.05a5,5,0,0,0,.6-.53A2.81,2.81,0,0,1,18.15,14.3Zm.69-1.22A6.44,6.44,0,0,1,17,14.64c-.83.5-1.58.93-2.08,1.31a6.1,6.1,0,0,0-.75.67,4.1,4.1,0,0,1,.54-.92,6.58,6.58,0,0,1,1.86-1.56c.83-.5,1.58-.93,2.08-1.31a6.1,6.1,0,0,0,.75-.67A4.1,4.1,0,0,1,18.84,13.08Zm.87-1.53a8.5,8.5,0,0,1-2.33,2,28.68,28.68,0,0,0-2.6,1.64,6.32,6.32,0,0,0-.94.83,4.89,4.89,0,0,1,.67-1.15,8.34,8.34,0,0,1,2.33-1.95c1-.62,2-1.17,2.6-1.64a8.11,8.11,0,0,0,.94-.83A5,5,0,0,1,19.71,11.55Zm1.07-1.9a10.4,10.4,0,0,1-2.9,2.44,36.46,36.46,0,0,0-3.25,2.05,9.36,9.36,0,0,0-1.18,1,6.3,6.3,0,0,1,.84-1.43A10.61,10.61,0,0,1,17.2,11.3c1.3-.77,2.47-1.46,3.25-2.05a8.82,8.82,0,0,0,1.18-1A6.08,6.08,0,0,1,20.78,9.65ZM14,12.38a13,13,0,0,1,3.64-3.05c1.61-1,3.09-1.82,4.05-2.56a12.09,12.09,0,0,0,1.48-1.3,7.54,7.54,0,0,1-1.06,1.79,13,13,0,0,1-3.63,3.05c-1.62,1-3.09,1.82-4.06,2.56A13.16,13.16,0,0,0,13,14.17,8,8,0,0,1,14,12.38Z"/></g></g></svg>