<svg xmlns="http://www.w3.org/2000/svg" viewBox="0 0 39.17 39.14"><defs><style>.cls-1,.cls-2{fill:#00b8de;}.cls-2,.cls-3{fill-rule:evenodd;}.cls-3,.cls-4{fill:#ff7000;}</style></defs><title>资源 3</title><g id="图层_2" data-name="图层 2"><g id="Layer_1" data-name="Layer 1"><path class="cls-1" d="M29,3.7h0l.25-.45.07-.11c.38.25.77.49,1.11.73s.74.53,1.09.81A18.8,18.8,0,0,1,36,9.85l-.53.31a19,19,0,0,0-4.33-5c-.35-.28-.7-.53-1-.77A10.13,10.13,0,0,0,29,3.7Zm9.67,16.1v.07c0,.45,0,.9-.07,1.32s-.1.91-.17,1.36a19.23,19.23,0,0,1-2.2,6.36l-.56-.32a18.52,18.52,0,0,0,2.13-6.14c.07-.42.14-.87.18-1.29s.07-.87.07-1.33v0ZM28.94,36.21h0c-.39.2-.77.41-1.15.59a9.23,9.23,0,0,1-1.23.52,18.85,18.85,0,0,1-6.73,1.33V38a19,19,0,0,0,6.52-1.26l1.16-.52c.38-.17.73-.35,1.11-.56l0,0,.31.56Zm-18.78-.77h0l-.24.45L9.85,36a10.56,10.56,0,0,1-1.12-.7c-.39-.28-.73-.52-1.08-.8a19.93,19.93,0,0,1-4.51-5.17L3.7,29A18.5,18.5,0,0,0,8,34c.35.24.7.53,1.05.77s.7.49,1.08.7ZM.49,19.38v-.07c0-.46,0-.91.07-1.36s.1-.91.17-1.37a18.86,18.86,0,0,1,2.2-6.35l.56.31a17.75,17.75,0,0,0-2.16,6.15c-.07.42-.11.84-.14,1.29s-.07.91-.07,1.33v.07ZM10.23,2.93l0,0,1.16-.6,1.22-.52A19.51,19.51,0,0,1,19.38.49v.63a18.32,18.32,0,0,0-6.53,1.25c-.39.18-.77.32-1.15.53a9.75,9.75,0,0,0-1.12.56l0,0Z"/><path class="cls-2" d="M19.8,0a19.53,19.53,0,0,1,9.39,2.51L27,6.35A15,15,0,0,0,19.8,4.43Z"/><path class="cls-2" d="M2.51,29.15A19.46,19.46,0,0,1,0,19.8H4.43a15,15,0,0,0,1.92,7.12Z"/><path class="cls-3" d="M19.38,39.14A19.34,19.34,0,0,1,10,36.62l2.21-3.84a15,15,0,0,0,7.19,1.92Z"/><path class="cls-2" d="M36.45,29.54a19.6,19.6,0,0,1-6.88,6.87l-2.23-3.83a15.31,15.31,0,0,0,5.27-5.28Z"/><path class="cls-3" d="M36.66,10a19.27,19.27,0,0,1,2.51,9.39H34.74a15.18,15.18,0,0,0-1.92-7.2Z"/><path class="cls-3" d="M2.72,9.6A19.71,19.71,0,0,1,9.6,2.72l2.24,3.84a15.34,15.34,0,0,0-5.28,5.28Z"/><path class="cls-4" d="M3,19.38A16.68,16.68,0,0,1,5.1,11.49l.56.28A15.55,15.55,0,0,0,3.6,19.38ZM11.49,5.1A16.68,16.68,0,0,1,19.38,3V3.6a15.55,15.55,0,0,0-7.61,2.06l-.28-.56Zm16.58.21a16,16,0,0,1,3.25,2.55,18,18,0,0,1,2.55,3.24l-.56.32a15.23,15.23,0,0,0-2.45-3.15,15,15,0,0,0-3.1-2.4l.31-.56Zm8.1,14.49a16.65,16.65,0,0,1-2.09,7.85l-.56-.31a15.83,15.83,0,0,0,2-7.54ZM27.69,34a16.81,16.81,0,0,1-7.89,2.1v-.63a15.84,15.84,0,0,0,7.57-2l.32.56ZM11.1,33.83a17.43,17.43,0,0,1-3.24-2.55A16.18,16.18,0,0,1,5.31,28l.56-.32a15.34,15.34,0,0,0,2.4,3.11,15.19,15.19,0,0,0,3.15,2.44l-.32.56Z"/><path class="cls-1" d="M4.89,19.59h0a14.78,14.78,0,0,1,14.7-14.7h0a14.72,14.72,0,0,1,14.66,14.7h0A14.65,14.65,0,0,1,19.59,34.21h0A14.72,14.72,0,0,1,4.89,19.59Zm.49,0h0A14.17,14.17,0,0,0,19.59,33.76h0A14.19,14.19,0,0,0,33.8,19.59h0A14.19,14.19,0,0,0,19.59,5.38h0A14.17,14.17,0,0,0,5.38,19.59Z"/></g></g></svg>