<svg xmlns="http://www.w3.org/2000/svg" viewBox="0 0 351.65 350.77"><defs><style>.cls-1{opacity:0.8;}.cls-2{opacity:0.2;}.cls-3{fill:#5fffe8;}.cls-4{opacity:0.7;}.cls-5{opacity:0.4;}.cls-6{opacity:0.5;}</style></defs><title>资源 3</title><g id="图层_2" data-name="图层 2"><g id="央铋_1" data-name="央铋 1"><g class="cls-1"><g class="cls-2"><path class="cls-3" d="M300.16,50.59A175.07,175.07,0,0,0,193.62,0l-2,20.15A155.6,155.6,0,0,1,327.34,210.39l19.79,4.26A175.7,175.7,0,0,0,300.16,50.59Z"/></g><g class="cls-4"><path class="cls-3" d="M300.16,299.27a177.92,177.92,0,0,0,18.45-21.68l-16.75-11.41a155.59,155.59,0,0,1-251,1.42l-16.5,11.74a178.19,178.19,0,0,0,17.16,19.93A175.83,175.83,0,0,0,300.16,299.27Z"/></g><g class="cls-5"><path class="cls-3" d="M50.83,267.6A155.56,155.56,0,0,1,22.94,146L3.45,140.18A175.81,175.81,0,0,0,34.33,279.34Z"/></g><g class="cls-1"><path class="cls-3" d="M216.08,59l8.48-22.5A147,147,0,0,0,97.15,51L108.56,72.3A122.91,122.91,0,0,1,216.08,59Z"/></g><g class="cls-6"><path class="cls-3" d="M279.59,278.7a146.8,146.8,0,0,0-55-242.21L216.08,59A122.74,122.74,0,1,1,108.56,72.3L97.15,51A146.76,146.76,0,1,0,279.59,278.7Z"/></g></g></g></g></svg>