<svg xmlns="http://www.w3.org/2000/svg" viewBox="0 0 225.33 42.46"><defs><style>.cls-1{fill:#1d71b8;}.cls-2{fill:#f39200;opacity:0.5;}.cls-3{fill:#36a9e1;}</style></defs><title>资源 5</title><g id="图层_2" data-name="图层 2"><g id="Layer_1" data-name="Layer 1"><polygon class="cls-1" points="199.73 3.96 165.2 38.5 171.05 38.5 205.57 3.96 199.73 3.96"/><polygon class="cls-1" points="170.87 3.96 136.34 38.5 142.19 38.5 176.72 3.96 170.87 3.96"/><polygon class="cls-1" points="16.98 3.96 5.08 15.87 5.08 21.72 22.83 3.96 16.98 3.96"/><polygon class="cls-1" points="5.08 3.96 5.08 12.1 13.21 3.96 5.08 3.96"/><polygon class="cls-1" points="190.11 3.96 155.58 38.5 161.43 38.5 195.96 3.96 190.11 3.96"/><polygon class="cls-1" points="180.49 3.96 145.96 38.5 151.81 38.5 186.34 3.96 180.49 3.96"/><polygon class="cls-1" points="161.25 3.96 126.72 38.5 132.57 38.5 167.1 3.96 161.25 3.96"/><polygon class="cls-1" points="132.4 3.96 97.87 38.5 103.72 38.5 138.25 3.96 132.4 3.96"/><polygon class="cls-1" points="21.37 28.44 27.22 28.44 17.16 38.5 11.31 38.5 21.37 28.44"/><polygon class="cls-1" points="51.69 3.96 41.09 14.56 35.24 14.56 45.84 3.96 51.69 3.96"/><polygon class="cls-1" points="151.64 3.96 117.11 38.5 122.96 38.5 157.48 3.96 151.64 3.96"/><polygon class="cls-1" points="122.78 3.96 88.25 38.5 94.1 38.5 128.63 3.96 122.78 3.96"/><polygon class="cls-1" points="142.02 3.96 107.49 38.5 113.34 38.5 147.87 3.96 142.02 3.96"/><polygon class="cls-1" points="15.71 28.44 17.6 28.44 7.54 38.5 5.08 38.5 5.08 35.11 15.71 24.48 15.71 28.44"/><polygon class="cls-1" points="42.07 3.96 31.47 14.56 25.62 14.56 36.22 3.96 42.07 3.96"/><polygon class="cls-1" points="5.08 25.49 15.71 14.86 15.71 20.71 5.08 31.34 5.08 25.49"/><polygon class="cls-1" points="32.45 3.96 21.85 14.56 16 14.56 26.6 3.96 32.45 3.96"/><polygon class="cls-1" points="79.08 28.44 84.93 28.44 74.87 38.5 69.02 38.5 79.08 28.44"/><polygon class="cls-1" points="95.38 17.98 95.38 14.56 92.95 14.56 103.55 3.96 109.4 3.96 95.38 17.98"/><polygon class="cls-1" points="220.25 12.29 194.05 38.5 199.9 38.5 220.25 18.14 220.25 12.29"/><polygon class="cls-1" points="30.99 28.44 36.83 28.44 26.78 38.5 20.93 38.5 30.99 28.44"/><polygon class="cls-1" points="61.3 3.96 50.71 14.56 44.86 14.56 55.46 3.96 61.3 3.96"/><polygon class="cls-1" points="220.25 3.96 218.96 3.96 184.43 38.5 190.28 38.5 220.25 8.52 220.25 3.96"/><polygon class="cls-1" points="69.46 28.44 75.31 28.44 65.25 38.5 59.4 38.5 69.46 28.44"/><polygon class="cls-1" points="99.78 3.96 89.18 14.56 83.33 14.56 93.93 3.96 99.78 3.96"/><polygon class="cls-1" points="50.22 28.44 56.07 28.44 46.01 38.5 40.16 38.5 50.22 28.44"/><polygon class="cls-1" points="80.54 3.96 69.94 14.56 64.09 14.56 74.69 3.96 80.54 3.96"/><polygon class="cls-1" points="220.25 21.91 203.67 38.5 209.52 38.5 220.25 27.77 220.25 21.91"/><polygon class="cls-1" points="59.84 28.44 65.69 28.44 55.63 38.5 49.78 38.5 59.84 28.44"/><polygon class="cls-1" points="90.16 3.96 79.56 14.56 73.71 14.56 84.31 3.96 90.16 3.96"/><polygon class="cls-1" points="40.6 28.44 46.45 28.44 36.39 38.5 30.55 38.5 40.6 28.44"/><polygon class="cls-1" points="70.92 3.96 60.32 14.56 54.48 14.56 65.07 3.96 70.92 3.96"/><polygon class="cls-1" points="209.34 3.96 174.82 38.5 180.66 38.5 215.19 3.96 209.34 3.96"/><polygon class="cls-1" points="220.25 31.54 213.29 38.5 220.25 38.5 220.25 31.54"/><polygon class="cls-1" points="88.7 28.44 94.54 28.44 84.49 38.5 78.64 38.5 88.7 28.44"/><polygon class="cls-1" points="119.01 3.96 95.38 27.6 95.38 21.76 113.17 3.96 119.01 3.96"/><polygon class="cls-2" points="16 14.56 15.71 14.86 15.71 14.56 16 14.56"/><polygon class="cls-2" points="94.54 28.44 95.38 27.6 95.38 28.44 94.54 28.44"/><polygon class="cls-3" points="10.15 2.05 10.15 0 3.31 0 0 0 0 2.05 0 40.41 0 42.46 3.31 42.46 10.15 42.46 10.15 40.41 2.56 40.41 2.56 2.05 10.15 2.05"/><polygon class="cls-3" points="215.17 40.41 215.17 42.46 222.01 42.46 225.33 42.46 225.33 40.41 225.33 2.05 225.33 0 222.01 0 215.17 0 215.17 2.05 222.76 2.05 222.76 40.41 215.17 40.41"/></g></g></svg>