<svg xmlns="http://www.w3.org/2000/svg" viewBox="0 0 364.06 244.03"><defs><style>.cls-1{isolation:isolate;}.cls-2{mix-blend-mode:screen;}.cls-3,.cls-4{fill:#fff;}.cls-3,.cls-5{opacity:0.5;}.cls-3{mix-blend-mode:multiply;}.cls-6{opacity:0.35;}.cls-7{opacity:0.3;}.cls-8{opacity:0.8;}.cls-9{opacity:0.2;}.cls-10{opacity:0.45;}.cls-11{opacity:0.15;}</style></defs><title>资源 10</title><g class="cls-1"><g id="图层_2" data-name="图层 2"><g id="图层_1-2" data-name="图层 1"><g class="cls-2"><path class="cls-3" d="M214.07,219.36a5.44,5.44,0,1,1,5.44-5.44A5.44,5.44,0,0,1,214.07,219.36Z"/><path class="cls-3" d="M214.07,218.6a4.69,4.69,0,1,1,4.68-4.68A4.69,4.69,0,0,1,214.07,218.6Z"/><path class="cls-3" d="M214.07,217.93a4,4,0,1,1,4-4A4,4,0,0,1,214.07,217.93Z"/><path class="cls-3" d="M214.07,217.13a3.21,3.21,0,1,1,3.21-3.21A3.21,3.21,0,0,1,214.07,217.13Z"/><path class="cls-4" d="M214.07,216.31a2.39,2.39,0,1,1,2.39-2.39A2.39,2.39,0,0,1,214.07,216.31Z"/><g class="cls-5"><path class="cls-3" d="M254.43,155.94a5.45,5.45,0,1,1,5.44-5.45A5.44,5.44,0,0,1,254.43,155.94Z"/><path class="cls-3" d="M254.43,155.18a4.69,4.69,0,1,1,4.68-4.69A4.68,4.68,0,0,1,254.43,155.18Z"/><path class="cls-3" d="M254.43,154.5a4,4,0,1,1,4-4A4,4,0,0,1,254.43,154.5Z"/><path class="cls-3" d="M254.43,153.7a3.21,3.21,0,1,1,3.21-3.21A3.21,3.21,0,0,1,254.43,153.7Z"/><path class="cls-4" d="M254.43,152.88a2.39,2.39,0,1,1,2.39-2.39A2.39,2.39,0,0,1,254.43,152.88Z"/></g><g class="cls-5"><path class="cls-3" d="M191,85.66A7.69,7.69,0,1,1,198.71,78,7.69,7.69,0,0,1,191,85.66Z"/><path class="cls-3" d="M191,84.59A6.62,6.62,0,1,1,197.64,78,6.63,6.63,0,0,1,191,84.59Z"/><path class="cls-3" d="M191,83.63A5.67,5.67,0,1,1,196.69,78,5.66,5.66,0,0,1,191,83.63Z"/><path class="cls-3" d="M191,82.5A4.54,4.54,0,1,1,195.56,78,4.53,4.53,0,0,1,191,82.5Z"/><path class="cls-4" d="M191,81.34A3.38,3.38,0,1,1,194.4,78,3.38,3.38,0,0,1,191,81.34Z"/></g><g class="cls-6"><path class="cls-3" d="M226.57,42.83a7.69,7.69,0,1,1,7.69-7.69A7.69,7.69,0,0,1,226.57,42.83Z"/><path class="cls-3" d="M226.57,41.76a6.62,6.62,0,1,1,6.62-6.62A6.62,6.62,0,0,1,226.57,41.76Z"/><path class="cls-3" d="M226.57,40.81a5.67,5.67,0,1,1,5.67-5.67A5.67,5.67,0,0,1,226.57,40.81Z"/><path class="cls-3" d="M226.57,39.68a4.54,4.54,0,1,1,4.53-4.54A4.53,4.53,0,0,1,226.57,39.68Z"/><path class="cls-4" d="M226.57,38.52A3.38,3.38,0,1,1,230,35.14,3.38,3.38,0,0,1,226.57,38.52Z"/></g><g class="cls-6"><path class="cls-3" d="M306.13,124.5a7.69,7.69,0,1,1,7.69-7.69A7.69,7.69,0,0,1,306.13,124.5Z"/><circle class="cls-3" cx="306.13" cy="116.81" r="6.62" transform="translate(142.26 400.54) rotate(-80.88)"/><circle class="cls-3" cx="306.13" cy="116.81" r="5.67"/><path class="cls-3" d="M306.13,121.34a4.54,4.54,0,1,1,4.53-4.53A4.53,4.53,0,0,1,306.13,121.34Z"/><path class="cls-4" d="M306.13,120.18a3.38,3.38,0,1,1,3.37-3.37A3.37,3.37,0,0,1,306.13,120.18Z"/></g><g class="cls-6"><path class="cls-3" d="M282.05,149.19a4.81,4.81,0,1,1,4.8-4.81A4.8,4.8,0,0,1,282.05,149.19Z"/><path class="cls-3" d="M282.05,148.52a4.14,4.14,0,1,1,4.14-4.14A4.13,4.13,0,0,1,282.05,148.52Z"/><path class="cls-3" d="M282.05,147.92a3.54,3.54,0,1,1,3.54-3.54A3.54,3.54,0,0,1,282.05,147.92Z"/><path class="cls-3" d="M282.05,147.21a2.83,2.83,0,1,1,2.83-2.83A2.83,2.83,0,0,1,282.05,147.21Z"/><path class="cls-4" d="M282.05,146.49a2.11,2.11,0,1,1,2.11-2.11A2.11,2.11,0,0,1,282.05,146.49Z"/></g><g class="cls-6"><path class="cls-3" d="M226.57,112a4.8,4.8,0,1,1,4.8-4.8A4.8,4.8,0,0,1,226.57,112Z"/><path class="cls-3" d="M226.57,111.32a4.13,4.13,0,1,1,4.13-4.13A4.13,4.13,0,0,1,226.57,111.32Z"/><path class="cls-3" d="M226.57,110.73a3.54,3.54,0,1,1,3.54-3.54A3.55,3.55,0,0,1,226.57,110.73Z"/><path class="cls-3" d="M226.57,110a2.83,2.83,0,1,1,2.83-2.83A2.83,2.83,0,0,1,226.57,110Z"/><path class="cls-4" d="M226.57,109.3a2.11,2.11,0,1,1,2.11-2.11A2.12,2.12,0,0,1,226.57,109.3Z"/></g><g class="cls-6"><path class="cls-3" d="M164.18,133.19a7.38,7.38,0,1,1,7.37-7.38A7.37,7.37,0,0,1,164.18,133.19Z"/><path class="cls-3" d="M164.18,132.16a6.35,6.35,0,1,1,6.34-6.35A6.35,6.35,0,0,1,164.18,132.16Z"/><path class="cls-3" d="M164.18,131.25a5.44,5.44,0,1,1,5.43-5.44A5.44,5.44,0,0,1,164.18,131.25Z"/><path class="cls-3" d="M164.18,130.16a4.35,4.35,0,1,1,4.35-4.35A4.35,4.35,0,0,1,164.18,130.16Z"/><path class="cls-4" d="M164.18,129.05a3.24,3.24,0,1,1,3.24-3.24A3.24,3.24,0,0,1,164.18,129.05Z"/></g><g class="cls-6"><path class="cls-3" d="M114.87,99.61a7.37,7.37,0,1,1,7.38-7.37A7.37,7.37,0,0,1,114.87,99.61Z"/><path class="cls-3" d="M114.87,98.59a6.35,6.35,0,1,1,6.35-6.35A6.35,6.35,0,0,1,114.87,98.59Z"/><path class="cls-3" d="M114.87,97.67a5.44,5.44,0,1,1,5.44-5.43A5.43,5.43,0,0,1,114.87,97.67Z"/><path class="cls-3" d="M114.87,96.59a4.35,4.35,0,1,1,4.35-4.35A4.34,4.34,0,0,1,114.87,96.59Z"/><path class="cls-4" d="M114.87,95.48a3.24,3.24,0,1,1,3.24-3.24A3.24,3.24,0,0,1,114.87,95.48Z"/></g><g class="cls-6"><path class="cls-3" d="M262.2,82a7.37,7.37,0,1,1,7.37-7.37A7.38,7.38,0,0,1,262.2,82Z"/><path class="cls-3" d="M262.2,80.94a6.35,6.35,0,1,1,6.34-6.35A6.35,6.35,0,0,1,262.2,80.94Z"/><path class="cls-3" d="M262.2,80a5.44,5.44,0,1,1,5.43-5.44A5.45,5.45,0,0,1,262.2,80Z"/><circle class="cls-3" cx="262.2" cy="74.59" r="4.35" transform="translate(92.33 287.79) rotate(-67.33)"/><path class="cls-4" d="M262.2,77.83a3.24,3.24,0,1,1,3.24-3.24A3.24,3.24,0,0,1,262.2,77.83Z"/></g><g class="cls-7"><polygon class="cls-4" points="146.33 113.57 146.4 113.25 158.93 52.95 159.39 53.1 203.7 68.19 248.21 4.29 292.9 46 362.53 54.67 362.42 55.51 292.53 46.8 248.35 5.57 204.03 69.2 159.57 54.06 147.29 113.1 270.43 174.21 341.23 129.52 341.68 130.23 270.48 175.18 270.27 175.07 146.33 113.57"/></g><path class="cls-4" d="M131.76,218.76l18-64.16.08,0,50.81-27.09,21.76,8.93,25.7-45h.12l54.93-3.17,0,.42-54.81,3.16-25.56,44.74L311.61,173l-.12.21-39.42,66.25-.19-.23L207.77,162.1l14.47-25.33-21.53-8.83-50.55,26.95-18,64Zm90.87-81.82-14.35,25.11L272,238.74l39-65.53Z"/><polygon class="cls-4" points="118.09 70.89 118.85 70.13 179.7 9.6 179.84 9.67 236.99 38.91 237.01 38.96 350.43 207.36 350.08 207.6 236.69 39.24 179.78 10.12 119.91 69.67 159.34 53.23 159.43 53.4 200.77 127.39 248.15 91.46 248.41 91.8 200.63 128.02 200.51 127.81 159.16 53.77 118.09 70.89"/><path class="cls-4" d="M109.65,168.37l.16-.38,57.5,25.12L203.7,68.52l.12,0L292.66,46.2l.11.41L204,68.87,167.7,193.28l105.6,46.14L186.93,232l-.05-.11-19.76-38.1.07-.25Zm57.93,25.32v0l19.63,37.86,83.58,7.2Z"/><polygon class="cls-4" points="43.58 158.02 43.65 157.84 77.27 65.14 77.27 124.33 200.45 127.48 179.58 10.13 109.8 32.18 109.67 31.77 179.91 9.58 179.95 9.82 200.95 127.92 76.84 124.74 76.84 67.55 44.11 157.81 187.16 231.59 186.97 231.97 43.58 158.02"/><polygon class="cls-4" points="5.52 113.16 77 66.13 77.07 66.13 119.12 70.08 119.18 70.16 146.99 113.22 146.63 113.45 118.88 70.48 77.11 66.56 5.75 113.51 5.52 113.16"/><polygon class="cls-4" points="108.36 32.86 109.51 31.63 109.82 31.92 108.66 33.15 108.36 32.86"/><path class="cls-4" d="M80.44,62.7l2.32-2.49.31.29L80.75,63Zm4.65-5,2.33-2.48.3.29L85.4,58Zm4.65-5,2.33-2.48.31.28L90.05,53Zm4.66-5,2.32-2.49.31.29-2.32,2.49Zm4.65-5,2.33-2.49.3.29L99.36,43.1Zm4.66-5L106,35.35l.31.29L104,38.12Z"/><polygon class="cls-4" points="76.78 66.6 78.11 65.18 78.42 65.47 77.43 66.52 78.63 67.32 78.4 67.67 76.78 66.6"/><path class="cls-4" d="M81.33,69.61l.23-.35,2.93,1.94-.23.36Zm5.86,3.89.23-.35,2.93,1.94-.23.35ZM93,77.38l.24-.35L96.21,79l-.24.36Zm5.86,3.89.24-.35,2.93,1.94-.24.35Zm5.86,3.88.23-.35,2.93,1.94-.23.35ZM110.62,89l.23-.36,2.93,1.95-.23.35Zm5.86,3.88.23-.35,2.93,1.94-.23.35Zm5.85,3.89.24-.36,2.93,2-.24.35Zm5.86,3.88.24-.35,2.93,1.94-.24.35Zm5.86,3.88.23-.35,2.93,2-.23.35Zm5.86,3.89.23-.35,2.93,1.94-.23.35Z"/><polygon class="cls-4" points="145.59 113.16 146.72 112.98 145.77 112.34 146 111.99 147.86 113.22 145.66 113.58 145.59 113.16"/><path class="cls-4" d="M82.08,123.34l3.17-.51.07.42-3.18.51Zm6.35-1,3.17-.51.07.42-3.18.51Zm6.35-1L98,120.8l.07.41-3.17.51Zm6.35-1,3.18-.51.06.42-3.17.51Zm6.35-1,3.18-.51.06.42-3.17.51Zm6.35-1,3.18-.51.06.42-3.17.51Zm6.35-1,3.18-.51.07.42-3.18.51Zm6.35-1,3.18-.51.07.42-3.18.51Zm6.36-1,3.17-.51.07.41-3.18.51Zm6.35-1,3.17-.51.07.42-3.18.51Z"/><polygon class="cls-4" points="76.89 124.17 78.9 123.85 78.97 124.27 77.64 124.48 78.44 125.56 78.1 125.81 76.89 124.17"/><path class="cls-4" d="M80.12,128.57l.34-.25,2,2.75-.34.26Zm4,5.51.34-.25,2,2.75-.34.25Zm4,5.51.34-.25,2,2.75-.34.25Zm4,5.51.34-.25,2,2.75-.34.25Zm4,5.51.35-.25,2,2.75-.34.25Zm4.05,5.51.34-.25,2,2.75-.34.25Zm4,5.51.35-.25,2,2.75-.34.25Z"/><polygon class="cls-4" points="108.48 167.14 108.82 166.89 109.73 168.13 111.19 167.64 111.32 168.04 109.57 168.62 108.48 167.14"/><path class="cls-4" d="M114.39,166.57l3.2-1.06.13.4-3.2,1.07Zm6.4-2.13,3.2-1.06.14.4-3.21,1.06Zm6.41-2.13,3.2-1.06.13.4-3.2,1.06Zm6.4-2.13,3.2-1.07.14.4-3.21,1.07Zm6.41-2.13,3.2-1.07.13.4-3.2,1.07Zm6.4-2.13,3.2-1.07.14.4-3.21,1.07Zm6.57-.47L153,155l3.35.42,0,.41Zm6.7.83,0-.42,3.35.41-.05.42Zm6.7.82.05-.42,3.35.42-.05.42Zm6.7.83,0-.42,3.35.41,0,.42Zm6.7.82.05-.42,3.35.42-.05.42Zm6.7.83.05-.42,3.35.41,0,.42Zm6.7.82,0-.42,3.35.42-.05.42Zm6.7.83.05-.42,3.35.41-.05.42Z"/><polygon class="cls-4" points="206.58 162.05 206.63 161.63 208.83 161.91 207.05 163.23 206.8 162.89 207.73 162.2 206.58 162.05"/><path class="cls-4" d="M135.72,215.56l2.74-2,.25.34-2.74,2Zm5.47-4.05,2.73-2,.26.34-2.74,2Zm5.47-4,2.73-2,.25.34-2.73,2Zm5.46-4.06,2.74-2,.25.34-2.73,2Zm5.47-4.05,2.74-2,.25.34-2.74,2Zm5.47-4,2.73-2,.25.34-2.73,2Zm5.47-4.05,2.73-2,.25.34-2.73,2ZM174,187.2l2.74-2,.25.34-2.74,2Zm5.47-4,2.73-2,.26.34-2.74,2Zm5.47-4.06,2.73-2,.25.34-2.73,2ZM190.4,175l2.73-2,.25.34-2.73,2Zm5.46-4,2.74-2,.25.34-2.74,2Zm5.47-4.05,2.73-2,.25.34-2.73,2Z"/><polygon class="cls-4" points="131.27 218.86 132.99 217.58 133.24 217.92 132.25 218.66 133.45 218.95 133.35 219.36 131.27 218.86"/><path class="cls-4" d="M136.81,220.19l.1-.41,3.46.82-.1.41Zm6.93,1.65.1-.41,3.46.83-.1.41Zm6.92,1.66.1-.41,3.46.83-.1.41Zm6.92,1.65.1-.41,3.46.83-.1.41Zm6.93,1.66.09-.41,3.47.83-.1.41Zm6.92,1.66.1-.41,3.46.82-.1.41Zm6.92,1.65.1-.41,3.46.83-.1.41Z"/><polygon class="cls-4" points="185.28 231.78 185.37 231.37 186.93 231.74 188.25 230.84 188.48 231.19 187.01 232.19 185.28 231.78"/><path class="cls-4" d="M191,228.94l2.78-1.89.24.34-2.78,1.9Zm5.55-3.79,2.78-1.9.24.35-2.78,1.9Zm5.56-3.79,2.77-1.9.24.35-2.78,1.9Zm5.55-3.79,2.78-1.9.23.35-2.77,1.89Zm5.55-3.8,2.78-1.89.23.35-2.77,1.89Zm5.55-3.79,2.78-1.9.24.35-2.78,1.9Zm5.56-3.79,2.77-1.9.24.35-2.78,1.9Zm5.55-3.79,2.77-1.9.24.35-2.77,1.9Zm5.55-3.8,2.78-1.89.24.35L235.68,199Zm5.55-3.79,2.78-1.89.24.34-2.78,1.9Zm5.56-3.79,2.77-1.9.24.35-2.78,1.9Zm5.55-3.79,2.77-1.9.24.35-2.77,1.9Zm5.55-3.79,2.78-1.9.23.35-2.77,1.89Zm5.55-3.8,2.78-1.89.24.35L263.44,180Z"/><rect class="cls-4" x="268.73" y="175.34" width="1.69" height="0.42" transform="translate(-52.04 182.54) rotate(-34.32)"/><g class="cls-5"><line class="cls-4" x1="5.75" y1="113.51" x2="6.3" y2="114.15"/><path class="cls-4" d="M7.27,115.59l.32-.27,1.13,1.3-.32.28Zm2.26,2.61.32-.28L11,119.23l-.32.27Zm2.26,2.61.32-.28,1.13,1.3-.32.28Zm2.26,2.61.32-.28,1.12,1.3-.32.28ZM16.3,126l.32-.27,1.13,1.3-.32.28Zm2.26,2.61.32-.28L20,129.66l-.32.27Zm2.26,2.61.32-.28,1.13,1.3-.32.28Zm2.25,2.61.32-.28,1.13,1.3-.32.28Zm2.26,2.6.32-.27,1.13,1.3-.32.28Zm2.26,2.61.32-.28L29,140.09l-.32.27Zm2.26,2.61.32-.28,1.13,1.31L31,143Zm2.26,2.61.32-.28,1.13,1.3-.32.28Zm2.25,2.6.32-.27,1.13,1.3-.32.28Zm2.26,2.61.32-.28,1.13,1.31-.32.28Zm2.26,2.61.32-.28,1.13,1.31-.32.27Zm2.26,2.61.32-.28,1.12,1.3-.32.28Z"/><polygon class="cls-4" points="43.39 157.31 43.71 157.04 44.12 157.5 44.54 157.06 44.85 157.36 44.1 158.13 43.39 157.31"/><path class="cls-4" d="M45.72,155.85l1.18-1.21.3.3L46,156.15Zm2.36-2.41,1.18-1.21.3.29-1.18,1.21ZM50.43,151l1.18-1.21.31.3-1.18,1.2Zm2.36-2.42L54,147.39l.3.3-1.18,1.21Zm2.36-2.42,1.17-1.2.31.29-1.18,1.21Zm2.35-2.41,1.18-1.21.3.29-1.18,1.21Zm2.36-2.42L61,140.14l.31.3-1.18,1.21Zm2.35-2.42,1.18-1.2.3.29-1.17,1.21Zm2.36-2.41,1.17-1.21.31.29-1.18,1.21Zm2.35-2.42,1.18-1.21.3.3-1.17,1.2Zm2.36-2.42,1.18-1.21.3.3L69.58,132Zm2.35-2.41,1.18-1.21.31.29-1.18,1.21ZM74,126.85l1.18-1.21.3.29-1.18,1.21Zm2.35-2.42.4-.4.87-.75.27.33-.85.72-.38.4Zm2.55-2.24,1.28-1.1.27.32-1.28,1.1Zm2.56-2.2,1.28-1.1.28.33-1.28,1.09ZM84,117.8l1.28-1.1.27.32-1.28,1.1Zm2.56-2.2,1.28-1.09.28.32-1.29,1.09Zm2.57-2.19,1.28-1.1.27.32-1.28,1.1Zm2.56-2.2L93,110.12l.28.32L92,111.54ZM94.27,109l1.29-1.1.27.32-1.28,1.1Zm2.57-2.2,1.28-1.09.27.32-1.28,1.1Zm2.56-2.19,1.28-1.1.28.32L99.68,105Zm2.57-2.19,1.28-1.1.27.32-1.28,1.1Zm2.56-2.2,1.28-1.1.28.33-1.29,1.09Zm2.56-2.19,1.29-1.1.27.32-1.28,1.1Zm2.57-2.2,1.28-1.09.27.32-1.28,1.09Zm2.56-2.19,1.29-1.1.27.32L112.5,94Zm2.57-2.2,1.28-1.09.27.32-1.28,1.1Zm2.56-2.19,1.28-1.1.28.32-1.28,1.1Zm2.57-2.19L121.2,86l.27.32-1.28,1.1Zm2.56-2.2,1.28-1.1.28.33-1.29,1.09ZM125,82.69l1.29-1.1.27.32L125.32,83Zm2.57-2.2,1.28-1.09.27.32-1.28,1.09Zm2.56-2.19,1.28-1.1.28.32-1.28,1.1Zm2.57-2.2L134,75l.27.32L133,76.42Zm2.56-2.19,1.28-1.1.28.32-1.29,1.1Zm2.57-2.19,1.28-1.1.27.32L138.14,72Zm2.56-2.2,1.28-1.1.28.32-1.29,1.1Zm2.56-2.2,1.29-1.09.27.32-1.28,1.1Zm2.57-2.19,1.28-1.1.27.32-1.28,1.1Zm2.56-2.19,1.28-1.1.28.32-1.28,1.1Zm2.57-2.2,1.28-1.1.27.33L151,61.06Zm2.56-2.19,1.28-1.1.28.32-1.29,1.1Zm2.56-2.2,1.29-1.09.27.32-1.28,1.09Z"/><polygon class="cls-4" points="158.38 54.16 159.12 53.52 160.02 53.91 159.85 54.3 159.19 54.02 158.65 54.48 158.38 54.16"/><path class="cls-4" d="M161.39,55l.17-.39,1.54.66-.16.39Zm3.09,1.32.16-.39,1.55.66-.17.39Zm3.08,1.31.17-.39,1.54.66-.16.39Zm3.09,1.32.17-.39,1.54.66-.17.38Zm3.09,1.31.16-.39,1.54.66-.16.39Zm3.08,1.32.17-.39,1.54.66-.17.38Zm3.09,1.31.16-.39,1.55.66-.17.39ZM183,64.16l.17-.39,1.54.65-.16.39Zm3.09,1.31.16-.39,1.55.66-.17.39Zm3.08,1.32.17-.39,1.54.65-.16.39Zm3.09,1.31.16-.39,1.55.66-.17.39Zm3.08,1.31.17-.38,1.54.65-.16.39Zm3.09,1.32.17-.39,1.54.66-.17.39ZM201.51,72l.16-.39,1.54.66-.16.39Zm3.08,1.32.17-.39,1.54.66-.17.39Zm3.09,1.31.16-.38,1.54.65-.16.39ZM210.76,76l.17-.39,1.54.66-.17.39Zm3.09,1.31.16-.39,1.54.66-.16.39Zm3.08,1.32.17-.39,1.54.66-.16.38ZM220,79.93l.16-.39,1.55.66-.17.39Zm3.08,1.32.17-.39,1.54.65-.16.39Zm3.09,1.31.17-.39,1.54.66-.17.39Zm3.09,1.32.16-.39,1.54.65-.16.39Zm3.08,1.31.17-.39,1.54.66-.17.39Zm3.09,1.32.16-.39,1.54.65-.16.39Zm3.08,1.31.17-.39,1.54.66-.16.39Zm3.09,1.32.16-.39,1.55.65-.17.39Zm3.08,1.31.17-.39,1.54.66-.16.39Zm3.09,1.31.16-.38,1.55.64-.16.39Zm3.1,1.29.16-.39,1.55.64-.16.39Zm3.1,1.28.16-.39,1.55.64-.16.39Zm3.1,1.28.16-.4,1.55.64-.16.39Zm3.1,1.27.16-.39,1.55.64-.16.39Zm3.1,1.28.16-.39,1.55.64-.16.39Zm3.1,1.28.16-.39,1.56.64-.17.39Zm3.1,1.28.17-.39,1.55.63-.17.4Zm3.1,1.27.17-.39,1.55.64-.16.39Zm3.11,1.28.16-.39,1.55.64-.16.39Zm3.1,1.28.16-.39,1.55.64-.16.39Zm3.1,1.28.16-.39,1.55.64-.16.39Zm3.1,1.28.16-.4,1.55.64-.16.4Zm3.1,1.27.16-.39,1.55.64-.16.39Zm3.1,1.28.16-.39,1.55.64-.16.39Zm3.1,1.28.16-.39,1.55.64-.16.39Zm3.1,1.28.17-.39,1.55.63-.17.4Zm3.1,1.27.17-.39,1.55.64-.17.39Zm3.11,1.28.16-.39,1.55.64-.16.39Zm3.1,1.28.16-.39,1.55.64-.16.39Zm3.1,1.28.16-.39,1.55.64-.16.39Zm3.1,1.28.16-.4,1.55.64-.16.39Zm3.1,1.27.16-.39,1.55.64-.16.39Zm3.1,1.28.16-.39,1.55.64-.16.39Zm3.1,1.28.16-.39,1.55.64-.16.39Zm3.1,1.28.16-.39L327,124l-.16.39Zm3.1,1.28.16-.4,1.55.64-.16.39Zm3.1,1.27.16-.39,1.56.64-.17.39Zm3.1,1.28.17-.39,1.55.64-.17.39Zm3.11,1.28.16-.39,1.55.64-.16.39Z"/><polygon class="cls-4" points="340.82 130.11 340.98 129.72 341.54 129.95 341.7 129.36 342.11 129.47 341.82 130.52 340.82 130.11"/><path class="cls-4" d="M342.15,127.74l.45-1.63.41.12-.45,1.62Zm.9-3.25.46-1.63.4.12-.45,1.62Zm.91-3.25.45-1.62.4.11-.45,1.62Zm.9-3.25.45-1.62.41.11-.45,1.62Zm.9-3.25.45-1.62.41.11-.45,1.63Zm.9-3.25.45-1.62.41.11-.45,1.63Zm.9-3.24.46-1.63.4.11-.45,1.63Zm.91-3.25.45-1.63.4.12-.45,1.62Zm.9-3.25.45-1.63.41.11-.46,1.63Zm.9-3.25.45-1.63.41.12-.45,1.62Zm.9-3.25.45-1.63.41.12-.45,1.62Zm.9-3.25.46-1.62.4.11-.45,1.62Zm.91-3.25.45-1.62.4.11-.45,1.62Zm.9-3.25.45-1.62.41.11-.46,1.63Zm.9-3.25.45-1.62.41.11-.45,1.63Zm.9-3.24.45-1.63.41.11-.45,1.63Zm.9-3.25.45-1.63.41.11L357,75.87Zm.91-3.25.45-1.63.4.12-.45,1.62Zm.9-3.25.45-1.63.4.12-.45,1.62Zm.9-3.25.45-1.62.41.11-.45,1.62Zm.9-3.25.45-1.62.41.11-.45,1.62Zm.9-3.25.45-1.62L362,58l-.45,1.63Z"/><polygon class="cls-4" points="361.58 55.73 362.76 55.08 362.4 56.38 361.99 56.26 362.08 55.94 361.79 56.1 361.58 55.73"/><path class="cls-4" d="M305.31,86.84l1.48-.82.21.37-1.48.82Zm3-1.64,1.48-.82.2.37-1.48.82Zm3-1.64,1.48-.82.2.37-1.48.82Zm3-1.63,1.48-.82.2.37-1.48.82Zm3-1.64,1.48-.82.2.37-1.48.82Zm3-1.64,1.48-.82.21.37-1.48.82Zm3-1.64,1.48-.81.21.36-1.48.82Zm3-1.63,1.48-.82.21.37-1.48.82Zm3-1.64,1.48-.82.2.37-1.48.82Zm3-1.64,1.48-.82.2.37-1.48.82Zm3-1.64,1.48-.81.2.37-1.48.81Zm3-1.63,1.48-.82.21.37-1.49.82Zm3-1.64,1.48-.82.21.37-1.48.82Zm3-1.64,1.48-.82.21.37-1.48.82Zm3-1.63,1.48-.82.21.37-1.48.82Zm3-1.64,1.48-.82.2.37-1.48.82Zm3-1.64,1.48-.82.2.37L352.9,61Zm3-1.64,1.48-.81.2.37-1.48.81Zm3-1.63,1.48-.82.21.37-1.49.82Z"/><polygon class="cls-4" points="302.97 88.13 303.83 87.66 304.04 88.03 303.42 88.37 303.48 89.07 303.06 89.11 302.97 88.13"/><path class="cls-4" d="M303.22,90.78l.42,0,.15,1.67-.42,0Zm.3,3.34.42,0,.16,1.67-.42,0Zm.31,3.33.42,0,.15,1.67-.42,0Zm.31,3.34.42,0,.15,1.67-.42,0Zm.3,3.33.42,0,.16,1.66-.42,0Zm.31,3.34.42,0,.15,1.67-.42,0Zm.3,3.34.42,0,.16,1.67-.42,0Zm.31,3.33.42,0,.15,1.67-.41,0Zm.31,3.34.42,0,.15,1.67-.42,0Zm.3,3.33.42,0,.16,1.67-.42,0Zm.31,3.34.42,0,.15,1.67-.42,0Zm.31,3.34.42,0,.15,1.67-.42,0Zm.3,3.33.42,0,.16,1.66-.42,0Zm.31,3.34.42,0,.15,1.67-.42,0Zm.31,3.34.42,0,.15,1.67-.42,0Zm.3,3.33.42,0,.15,1.67-.42,0Zm.31,3.34.42,0,.15,1.67-.42,0Zm.31,3.33.41,0,.16,1.67-.42,0Zm.3,3.34.42,0,.15,1.67-.42,0Zm.31,3.34.42,0,.15,1.67-.42,0Zm.3,3.33.42,0,.16,1.66-.42,0Zm.31,3.34.42,0,.15,1.67-.42,0Zm.31,3.34.42,0,.15,1.67-.42,0Zm.3,3.33.42,0,.16,1.67-.42,0Zm.31,3.34.42,0,.15,1.67-.42,0Zm1,3.15.28-.31,1.26,1.1-.29.32Zm2.51,2.22.28-.32,1.26,1.11-.28.31Zm2.52,2.21.28-.32,1.25,1.11-.28.32Zm2.51,2.21.28-.32,1.26,1.11-.28.32Zm2.52,2.21.28-.31,1.26,1.1-.28.32Zm2.51,2.22.28-.32,1.26,1.11-.28.31Zm2.52,2.21L327,187l1.26,1.11-.28.32Zm2.51,2.21.28-.31,1.26,1.1-.28.32Zm2.52,2.22.28-.32,1.26,1.11-.28.31Zm2.51,2.21.28-.32,1.26,1.11-.28.32Zm2.52,2.21.28-.32,1.26,1.11-.28.32Zm2.52,2.22.28-.32,1.25,1.1-.28.32Zm2.51,2.21.28-.32,1.26,1.11-.28.31Zm2.51,2.21.29-.32,1.25,1.11-.28.32Zm2.52,2.21.28-.31,1.26,1.1-.28.32Z"/><polygon class="cls-4" points="349.22 207.72 349.69 207.53 349.31 207.2 349.59 206.88 350.48 207.66 349.38 208.12 349.22 207.72"/><path class="cls-4" d="M275.54,238.27l1.53-.64.17.39-1.54.64Zm3.07-1.27,1.53-.64.16.39-1.53.64Zm3.07-1.28,1.53-.63.17.39-1.54.63Zm3.07-1.27,1.53-.64.17.39-1.54.64Zm3.07-1.27,1.53-.64.17.39-1.54.64Zm3.07-1.28,1.53-.63.17.39-1.54.64Zm3.07-1.27,1.53-.63.17.39-1.54.63Zm3.07-1.27,1.53-.64.17.39-1.54.64Zm3.07-1.27,1.53-.64.17.39-1.54.64Zm3.07-1.28,1.53-.63.16.39-1.53.63Zm3.07-1.27,1.53-.63.17.39-1.54.63Zm3.07-1.27,1.53-.64.17.39-1.54.64Zm3.07-1.27,1.53-.64.17.39-1.54.64Zm3.07-1.28,1.53-.63.16.39-1.53.63Zm3.07-1.27,1.53-.63.17.39-1.54.63Zm3.07-1.27,1.53-.64.17.39-1.54.64Zm3.07-1.27,1.53-.64.17.39-1.54.64Zm3.07-1.28,1.53-.63.16.39-1.53.63Zm3.07-1.27,1.53-.64.17.39-1.54.64Zm3.07-1.27,1.53-.64.17.39-1.54.64Zm3.07-1.27,1.53-.64.17.39-1.54.64Zm3.07-1.28,1.53-.63.16.39-1.53.63Zm3.07-1.27,1.53-.64.16.39-1.53.64Zm3.07-1.27,1.53-.64.17.39-1.54.64Z"/><rect class="cls-4" x="273.27" y="239.05" width="0.84" height="0.42" transform="translate(-70.66 122.76) rotate(-22.47)"/></g><g class="cls-8"><path class="cls-4" d="M5.6,113.54l.07-.41,71.22,11,33-92.93.17.7,9,38.48,82.08,57.44,0,.08L209,162.53l61,12.13,33.18-86.3-10.71-42-56.08-7,.08-.25L248.08,4.86l.4.14L237,39.06,292.83,46l0,.14,10.77,42.24,0,.06-33.33,86.7-.18,0-61.45-12.2,0-.14-7.87-34.71L118.69,70.61l0-.08-8.89-37.86L77.31,124.16l.17,0-.08.07,73.76,30.82-1,0-107.3,2.44.39-.38,33.33-32.68Zm71.48,11L43.92,157.09l105.24-2.39Z"/></g><g class="cls-7"><polygon class="cls-4" points="145.38 113.18 145.8 113.14 149.36 154.59 270.56 238.38 269.8 174.34 349.06 206.87 341.95 130.05 310.76 172.82 310.59 172.68 158.86 53.59 158.93 53.43 179.44 9.93 248.52 4.78 248.56 4.8 362.85 54.88 362.68 55.27 248.44 5.21 179.72 10.33 159.38 53.46 310.68 172.22 342.27 128.9 342.32 129.45 349.55 207.53 349.23 207.39 270.23 174.97 271 239.19 270.66 238.96 148.96 154.82 148.95 154.72 145.38 113.18"/></g><g class="cls-9"><polygon class="cls-4" points="42.62 157.88 43.1 157.19 130.29 217.67 108.49 167.19 186.78 231.46 207.22 162.22 146.04 112.97 203.59 68.06 203.79 68.1 303.19 88.55 303.28 88.65 341.22 129.59 340.6 130.16 302.75 89.33 203.81 68.97 147.4 112.98 208.19 161.92 208.11 162.19 187.24 232.92 186.74 232.52 110.65 170.06 132.24 220.05 42.62 157.88"/></g><g class="cls-10"><path class="cls-4" d="M4.82,112.92h.84l141.15-.59v.42l-140.29.59,103.17,54.21,96.67-5.68-2.8-94.27.38.36,77.76,76.13,5.46-1.29-39.65-51,.13-.13L292.54,46l.14.24,49.6,83.91-.28.07-54.1,12.79,23,29.64-.32.28-29-28.43-74.78,17.68v0l-.21,0-97,5.7,0,0Zm276.4,31.27L204,68.62l2.77,93.17Zm11.23-97.46L248.07,91.78l39.54,50.9,54-12.77Zm-5,96.42-5.39,1.28,26.63,26.06Z"/></g><path class="cls-4" d="M187.07,239.1a7.33,7.33,0,1,1,7.32-7.32A7.33,7.33,0,0,1,187.07,239.1Z"/><path class="cls-4" d="M311.3,178a4.93,4.93,0,1,1,4.93-4.93A4.93,4.93,0,0,1,311.3,178Z"/><circle class="cls-4" cx="167.35" cy="193.74" r="3.17"/><path class="cls-4" d="M270.46,176.28a1.59,1.59,0,1,1,1.58-1.59A1.59,1.59,0,0,1,270.46,176.28Z"/><path class="cls-4" d="M341.45,135.51a5.64,5.64,0,1,1,5.64-5.63A5.63,5.63,0,0,1,341.45,135.51Z"/><path class="cls-4" d="M272,244A4.93,4.93,0,1,1,277,239.1,4.93,4.93,0,0,1,272,244Z"/><path class="cls-4" d="M200.7,130.87a3.17,3.17,0,1,1,3.17-3.17A3.17,3.17,0,0,1,200.7,130.87Z"/><path class="cls-4" d="M292.71,53.73A7.33,7.33,0,1,1,300,46.4,7.33,7.33,0,0,1,292.71,53.73Z"/><path class="cls-4" d="M159.25,58.43a4.93,4.93,0,1,1,4.93-4.93A4.93,4.93,0,0,1,159.25,58.43Z"/><circle class="cls-4" cx="146.81" cy="113.33" r="3.17"/><path class="cls-4" d="M236.84,40.66a1.59,1.59,0,1,1,1.58-1.58A1.58,1.58,0,0,1,236.84,40.66Z"/><path class="cls-4" d="M179.74,15.49a5.64,5.64,0,1,1,5.64-5.63A5.63,5.63,0,0,1,179.74,15.49Z"/><path class="cls-4" d="M77.05,71.27A4.93,4.93,0,1,1,82,66.34,4.92,4.92,0,0,1,77.05,71.27Z"/><path class="cls-4" d="M109.73,35.14A3.17,3.17,0,1,1,112.9,32,3.17,3.17,0,0,1,109.73,35.14Z"/><path class="cls-4" d="M109.73,175.5a7.32,7.32,0,1,1,7.33-7.32A7.32,7.32,0,0,1,109.73,175.5Z"/><path class="cls-4" d="M248.28,96.56a4.93,4.93,0,1,1,4.93-4.93A4.93,4.93,0,0,1,248.28,96.56Z"/><path class="cls-4" d="M303.21,91.63a3.17,3.17,0,1,1,3.17-3.17A3.17,3.17,0,0,1,303.21,91.63Z"/><path class="cls-4" d="M362.48,56.67a1.59,1.59,0,1,1,1.58-1.58A1.59,1.59,0,0,1,362.48,56.67Z"/><path class="cls-4" d="M132,224.45a5.64,5.64,0,1,1,5.63-5.63A5.64,5.64,0,0,1,132,224.45Z"/><path class="cls-4" d="M248.28,9.86a4.93,4.93,0,1,1,4.93-4.93A4.93,4.93,0,0,1,248.28,9.86Z"/><path class="cls-4" d="M350.26,210.65a3.17,3.17,0,1,1,3.16-3.17A3.17,3.17,0,0,1,350.26,210.65Z"/><path class="cls-4" d="M208,169.4a7.33,7.33,0,1,1,7.32-7.33A7.33,7.33,0,0,1,208,169.4Z"/><circle class="cls-4" cx="43.85" cy="157.92" r="4.93"/><circle class="cls-4" cx="203.87" cy="68.69" r="3.17"/><path class="cls-4" d="M119,71.86a1.59,1.59,0,1,1,1.58-1.58A1.58,1.58,0,0,1,119,71.86Z"/><path class="cls-4" d="M5.63,119a5.64,5.64,0,1,1,5.64-5.64A5.63,5.63,0,0,1,5.63,119Z"/><path class="cls-4" d="M77.05,129.46A4.93,4.93,0,1,1,82,124.53,4.92,4.92,0,0,1,77.05,129.46Z"/><path class="cls-4" d="M150,157.92a3.17,3.17,0,1,1,3.17-3.17A3.17,3.17,0,0,1,150,157.92Z"/><g class="cls-11"><circle class="cls-3" cx="236.84" cy="196.91" r="23.75"/><circle class="cls-3" cx="236.84" cy="196.91" r="20.44" transform="translate(-69.87 225.15) rotate(-45)"/><circle class="cls-3" cx="236.84" cy="196.91" r="17.5"/><path class="cls-3" d="M236.84,210.91a14,14,0,1,1,14-14A14,14,0,0,1,236.84,210.91Z"/><path class="cls-4" d="M236.84,207.34a10.43,10.43,0,1,1,10.43-10.43A10.43,10.43,0,0,1,236.84,207.34Z"/></g><g class="cls-11"><path class="cls-3" d="M145.38,98.34a23.75,23.75,0,1,1,23.75-23.75A23.75,23.75,0,0,1,145.38,98.34Z"/><circle class="cls-3" cx="145.38" cy="74.59" r="20.44" transform="translate(48.52 206.18) rotate(-80.81)"/><circle class="cls-3" cx="145.38" cy="74.59" r="17.5"/><path class="cls-3" d="M145.38,88.59a14,14,0,1,1,14-14A14,14,0,0,1,145.38,88.59Z"/><path class="cls-4" d="M145.38,85a10.43,10.43,0,1,1,10.43-10.43A10.43,10.43,0,0,1,145.38,85Z"/></g><g class="cls-11"><path class="cls-3" d="M309.5,206.66a23.75,23.75,0,1,1,23.75-23.75A23.74,23.74,0,0,1,309.5,206.66Z"/><path class="cls-3" d="M309.5,203.35a20.44,20.44,0,1,1,20.44-20.44A20.44,20.44,0,0,1,309.5,203.35Z"/><path class="cls-3" d="M309.5,200.41A17.5,17.5,0,1,1,327,182.91,17.5,17.5,0,0,1,309.5,200.41Z"/><path class="cls-3" d="M309.5,196.91a14,14,0,1,1,14-14A14,14,0,0,1,309.5,196.91Z"/><path class="cls-4" d="M309.5,193.34a10.43,10.43,0,1,1,10.43-10.43A10.42,10.42,0,0,1,309.5,193.34Z"/></g></g></g></g></g></svg>