<svg xmlns="http://www.w3.org/2000/svg" viewBox="0 0 145.89 136.91"><defs><style>.cls-1,.cls-2{fill:#00b8de;}.cls-2,.cls-3,.cls-4,.cls-5{fill-rule:evenodd;}.cls-3{fill:#007d98;}.cls-4{fill:#009dbe;}.cls-5{fill:#ff7000;}</style></defs><title>资源 19</title><g id="图层_2" data-name="图层 2"><g id="Layer_1" data-name="Layer 1"><path class="cls-1" d="M14.37,38.08c.51-1,1.05-1.95,1.58-2.9s1.26-2.08,1.92-3.09a66.25,66.25,0,0,1,12-13.55l-3.31-5.77-.22-.38.32-.28h0c.88-.73,1.73-1.39,2.64-2.09S31.05,8.73,32,8.1A73,73,0,0,1,47.29.16L47.7,0l.22.38,3.34,5.77c.82-.29,1.64-.57,2.52-.82s2-.6,3-.85A66.33,66.33,0,0,1,73,2.49h0a64.2,64.2,0,0,1,11.34,1c.57.09,1.17.19,1.8.31a64.1,64.1,0,0,1,8.54,2.37L97.94.38,98.17,0l.44.16h0c1.07.41,2.11.82,3.12,1.26s2,.91,3.09,1.42a73.17,73.17,0,0,1,14.43,9.27l.35.28-.22.38-3.31,5.77c.79.69,1.58,1.38,2.33,2.11s1.74,1.7,2.56,2.55a67.36,67.36,0,0,1,10.56,14.88h7.75l.16.32h0c.57,1.26,1.1,2.55,1.64,3.91s1,2.64,1.39,4a72.55,72.55,0,0,1,3.43,22.16h0a72.12,72.12,0,0,1-1.67,15.6c-.19.82-.38,1.64-.6,2.43a70.48,70.48,0,0,1-4.19,12l-.16.32h-7.75c-.51,1-1,2-1.61,2.9s-1.26,2.08-1.92,3.09a66.1,66.1,0,0,1-11.92,13.55l3.31,5.77.22.38-.35.28h0c-.85.73-1.73,1.39-2.61,2.08s-1.8,1.3-2.71,1.93a74.67,74.67,0,0,1-15.32,7.94l-.44.16-.23-.38-3.31-5.74c-.82.29-1.67.54-2.52.82-1,.29-2,.57-3,.82a66.75,66.75,0,0,1-16.17,2h0a67.27,67.27,0,0,1-11.38-1c-.57-.09-1.17-.19-1.8-.32a65.37,65.37,0,0,1-8.51-2.33l-3.34,5.74-.22.38-.41-.16h0c-1.08-.38-2.12-.82-3.16-1.26s-2.05-.91-3.05-1.39a71.13,71.13,0,0,1-14.47-9.3l-.35-.28.25-.38,3.31-5.77c-.79-.66-1.57-1.38-2.36-2.11s-1.71-1.67-2.53-2.55A64.79,64.79,0,0,1,14.37,98.83H6.59l-.13-.32h0C5.86,97.25,5.33,96,4.82,94.6s-1-2.64-1.42-4A73.73,73.73,0,0,1,0,68.47H0v0H0A73.12,73.12,0,0,1,1.67,52.83c.16-.82.38-1.63.57-2.42a74.26,74.26,0,0,1,4.22-12l.13-.32h7.78Zm2.49-2.36c-.59,1-1.16,2.08-1.7,3.12l-.16.28H7.28a72.51,72.51,0,0,0-4,11.54c-.22.82-.41,1.61-.57,2.39A71.29,71.29,0,0,0,1,68.44H1v0H1A72.52,72.52,0,0,0,4.41,90.28c.44,1.33.89,2.65,1.39,3.94s1,2.37,1.48,3.57H15l.16.28A66.21,66.21,0,0,0,25.69,113c.82.85,1.64,1.7,2.52,2.52s1.74,1.61,2.62,2.37h0l.35.28-.22.38-3.31,5.74a69.3,69.3,0,0,0,13.9,8.85c1,.51,2,.95,3,1.39s1.8.76,2.68,1.11l3.34-5.74.23-.38.4.13a61.14,61.14,0,0,0,8.8,2.45c.54.1,1.13.23,1.76.32a65.52,65.52,0,0,0,11.2,1h0a65,65,0,0,0,15.92-2c1-.25,2-.5,2.93-.79s1.92-.63,2.9-1h0l.41-.13.22.38,3.31,5.74A72.18,72.18,0,0,0,113.33,128c.88-.63,1.79-1.26,2.68-1.93s1.48-1.16,2.24-1.76l-3.31-5.74-.22-.38.31-.28a64.43,64.43,0,0,0,12.07-13.65c.67-1,1.3-2,1.9-3s1.16-2.08,1.73-3.12l.13-.28h7.75a70.54,70.54,0,0,0,4-11.54l.57-2.4a73.12,73.12,0,0,0,1.64-15.38h0a71.3,71.3,0,0,0-3.37-21.81c-.41-1.36-.88-2.68-1.39-4s-.94-2.36-1.45-3.53h-7.75l-.13-.31a65.18,65.18,0,0,0-10.56-14.91c-.79-.85-1.64-1.71-2.49-2.49S116,19.83,115,19h0l-.35-.28.26-.38,3.31-5.74a71.66,71.66,0,0,0-13.91-8.86c-1-.47-2-.94-3-1.38-.89-.38-1.8-.76-2.68-1.11L95.33,7l-.22.41-.41-.16a69.48,69.48,0,0,0-8.8-2.46c-.57-.09-1.13-.22-1.76-.31A65.76,65.76,0,0,0,73,3.53h0A64.18,64.18,0,0,0,57,5.52c-1,.25-2,.5-3,.82s-1.89.6-2.87.94h0l-.4.16L50.56,7,47.22,1.29A73.59,73.59,0,0,0,32.56,9c-.91.6-1.79,1.23-2.68,1.9S28.37,12,27.65,12.64L31,18.38l.22.38-.35.28A64.7,64.7,0,0,0,18.76,32.69C18.09,33.67,17.46,34.68,16.86,35.72Z"/><path class="cls-1" d="M10.94,68.47h0a62,62,0,0,1,62-62h0a62,62,0,0,1,62,62h0a62,62,0,0,1-62,62h0a62,62,0,0,1-62-62Zm.5,0h0A61.51,61.51,0,0,0,73,129.94h0a61.46,61.46,0,0,0,61.47-61.47h0A61.46,61.46,0,0,0,73,7h0a61.51,61.51,0,0,0-61.51,61.5Z"/><path class="cls-1" d="M108.79,106.64h0c-1.33,1.23-2.68,2.4-4.13,3.5a46,46,0,0,1-4.48,3.06A52,52,0,0,1,73,120.86h0a51.94,51.94,0,0,1-19.61-3.81c-1-.41-2-.82-2.93-1.29a51.83,51.83,0,0,1-13.31-9.12l-.25-.22H109l-.22.22ZM104.5,110c1.36-1,2.65-2.12,3.88-3.28H37.51a51.33,51.33,0,0,0,13,8.86c.95.47,1.93.88,2.9,1.29A52.22,52.22,0,0,0,73,120.58h0a51.93,51.93,0,0,0,27.11-7.6Q102.37,111.57,104.5,110Z"/><path class="cls-1" d="M75.15,16.11h0c1.83.09,3.63.25,5.4.5a50.35,50.35,0,0,1,5.2,1,52.25,52.25,0,0,1,23,12.61l.22.22H75V16.11Zm5.39.76c-1.73-.26-3.5-.41-5.26-.51V30.23h33.1A51.94,51.94,0,0,0,85.71,17.91,45.49,45.49,0,0,0,80.54,16.87Z"/><path class="cls-1" d="M37.1,30.26v0C38.33,29.07,39.66,28,41,26.92A46.55,46.55,0,0,1,45.21,24a52.29,52.29,0,0,1,25.5-7.91h.12V30.48h-34l.25-.22Zm4-3.12c-1.26,1-2.46,2-3.66,3.09h33.1V16.36a52,52,0,0,0-25.25,7.85C43.88,25.12,42.49,26.1,41.14,27.14Z"/><path class="cls-1" d="M3.94,68.34c0-1.29,0-2.55.13-3.81H6.59c-.07,1.26-.1,2.52-.1,3.81ZM4.1,64c.06-1.16.19-2.36.31-3.56H7c-.16,1.2-.26,2.4-.35,3.56Zm.41-4.32c.12-1.1.31-2.2.5-3.3H7.6c-.22,1.1-.38,2.2-.54,3.3Zm.69-4.31c.19-1,.41-2,.66-3H8.48c-.25,1-.47,2-.69,3Zm1-4.39.09-.37c.19-.76.41-1.49.63-2.24H9.61l-.06.19c-.25.78-.5,1.61-.72,2.42ZM7.5,46.56c.22-.66.48-1.35.73-2.05h2.71c-.25.7-.51,1.39-.76,2.05ZM9.24,42a10.65,10.65,0,0,1,.56-1.32h2.78c-.22.44-.41.88-.6,1.32Z"/><path class="cls-1" d="M15.57,68.47h0A57,57,0,0,1,19,49c.37-1,.75-2,1.16-2.93A57,57,0,0,1,28.4,32.34l.07-.09H117.4l.09.09h0c1.13,1.39,2.18,2.81,3.18,4.29s1.9,3,2.75,4.6a57.07,57.07,0,0,1,6.87,27.24h0A56.91,56.91,0,0,1,126.88,88c-.34,1-.72,2-1.13,2.93a57.92,57.92,0,0,1-8.26,13.68l-.06.1h-89l-.07-.1h0c-1.1-1.35-2.17-2.8-3.15-4.28a53.67,53.67,0,0,1-2.78-4.61,57,57,0,0,1-6.87-27.2Zm.51,0h0a56.9,56.9,0,0,0,6.81,27q1.27,2.33,2.74,4.54a51.08,51.08,0,0,0,3.09,4.17h88.45a57.06,57.06,0,0,0,8.11-13.47c.41-1,.78-1.92,1.13-2.9a56.82,56.82,0,0,0,3.37-19.32h0a56.51,56.51,0,0,0-6.81-27q-1.27-2.31-2.74-4.54c-.94-1.41-2-2.83-3.06-4.16H28.72a55.79,55.79,0,0,0-8.1,13.46c-.41,1-.79,2-1.17,2.94A56.56,56.56,0,0,0,16.08,68.47Z"/><rect class="cls-1" x="72.54" y="117.8" width="0.79" height="10.34"/><polygon class="cls-2" points="31.08 110.87 30.52 110.33 34.2 106.64 34.74 107.21 31.08 110.87"/><polygon class="cls-2" points="33.35 113.01 32.75 112.48 36.25 108.63 36.82 109.14 33.35 113.01"/><polygon class="cls-2" points="35.72 115.03 35.12 114.53 38.4 110.49 38.99 111 35.72 115.03"/><polygon class="cls-2" points="38.21 116.89 37.58 116.45 40.63 112.22 41.27 112.7 38.21 116.89"/><polygon class="cls-2" points="40.79 118.66 40.16 118.22 43 113.86 43.63 114.31 40.79 118.66"/><polygon class="cls-2" points="43.47 120.26 42.81 119.89 45.39 115.38 46.09 115.76 43.47 120.26"/><polygon class="cls-2" points="46.21 121.75 45.52 121.4 47.88 116.77 48.58 117.11 46.21 121.75"/><polygon class="cls-2" points="49.05 123.07 48.33 122.75 50.47 117.99 51.16 118.31 49.05 123.07"/><polygon class="cls-2" points="51.95 124.24 51.23 123.95 53.09 119.1 53.81 119.38 51.95 124.24"/><polygon class="cls-2" points="54.88 125.28 54.16 125.02 55.77 120.08 56.49 120.33 54.88 125.28"/><polygon class="cls-2" points="57.88 126.13 57.12 125.94 58.48 120.89 59.23 121.11 57.88 126.13"/><polygon class="cls-2" points="60.94 126.82 60.18 126.66 61.25 121.59 62.01 121.75 60.94 126.82"/><polygon class="cls-2" points="63.99 127.39 63.24 127.26 64.06 122.12 64.81 122.25 63.99 127.39"/><polygon class="cls-2" points="67.08 127.77 66.33 127.7 66.86 122.53 67.65 122.6 67.08 127.77"/><polygon class="cls-2" points="70.2 127.99 69.42 127.96 69.7 122.75 70.49 122.82 70.2 127.99"/><polygon class="cls-2" points="76.44 127.96 75.66 127.99 75.41 122.82 76.16 122.75 76.44 127.96"/><polygon class="cls-2" points="79.57 127.7 78.78 127.77 78.24 122.6 79 122.53 79.57 127.7"/><polygon class="cls-2" points="82.66 127.26 81.87 127.39 81.08 122.25 81.84 122.12 82.66 127.26"/><polygon class="cls-2" points="85.71 126.66 84.96 126.82 83.85 121.75 84.64 121.59 85.71 126.66"/><polygon class="cls-2" points="88.74 125.94 87.98 126.13 86.63 121.11 87.38 120.89 88.74 125.94"/><polygon class="cls-2" points="91.73 125.02 90.98 125.28 89.37 120.33 90.13 120.08 91.73 125.02"/><polygon class="cls-2" points="94.67 123.95 93.94 124.24 92.08 119.38 92.81 119.1 94.67 123.95"/><polygon class="cls-2" points="97.53 122.75 96.81 123.07 94.7 118.31 95.42 117.99 97.53 122.75"/><polygon class="cls-2" points="100.34 121.4 99.65 121.75 97.28 117.11 97.98 116.77 100.34 121.4"/><polygon class="cls-2" points="103.08 119.89 102.39 120.26 99.81 115.76 100.47 115.38 103.08 119.89"/><polygon class="cls-2" points="105.73 118.22 105.07 118.66 102.23 114.31 102.89 113.86 105.73 118.22"/><polygon class="cls-2" points="108.28 116.45 107.65 116.89 104.6 112.7 105.23 112.22 108.28 116.45"/><polygon class="cls-2" points="110.74 114.53 110.14 115.03 106.87 110.97 107.47 110.49 110.74 114.53"/><polygon class="cls-2" points="113.11 112.48 112.54 113.01 109.04 109.14 109.64 108.63 113.11 112.48"/><rect class="cls-1" x="72.54" y="8.86" width="0.79" height="10.34"/><polygon class="cls-2" points="69.42 8.95 70.2 8.92 70.49 14.12 69.7 14.15 69.42 8.95"/><polygon class="cls-2" points="66.33 9.24 67.08 9.14 67.65 14.31 66.86 14.41 66.33 9.24"/><polygon class="cls-2" points="63.24 9.65 63.99 9.52 64.81 14.66 64.06 14.79 63.24 9.65"/><polygon class="cls-2" points="60.18 10.25 60.94 10.09 62.01 15.16 61.25 15.32 60.18 10.25"/><polygon class="cls-2" points="57.12 11 57.88 10.78 59.23 15.82 58.48 16.02 57.12 11"/><polygon class="cls-2" points="54.16 11.88 54.88 11.66 56.49 16.61 55.77 16.83 54.16 11.88"/><polygon class="cls-2" points="51.23 12.96 51.95 12.67 53.81 17.53 53.09 17.81 51.23 12.96"/><polygon class="cls-2" points="48.33 14.15 49.05 13.84 51.16 18.6 50.47 18.91 48.33 14.15"/><polygon class="cls-2" points="45.52 15.54 46.21 15.16 48.58 19.8 47.88 20.18 45.52 15.54"/><polygon class="cls-2" points="42.81 17.02 43.47 16.64 46.09 21.15 45.39 21.53 42.81 17.02"/><polygon class="cls-2" points="40.16 18.69 40.79 18.25 43.63 22.64 42.97 23.05 40.16 18.69"/><polygon class="cls-2" points="37.58 20.46 38.21 20.02 41.27 24.21 40.63 24.68 37.58 20.46"/><polygon class="cls-2" points="35.12 22.38 35.72 21.91 38.99 25.94 38.4 26.42 35.12 22.38"/><polygon class="cls-2" points="32.75 24.43 33.35 23.89 36.82 27.77 36.25 28.28 32.75 24.43"/><polygon class="cls-2" points="30.52 26.61 31.08 26.04 34.74 29.73 34.2 30.26 30.52 26.61"/><polygon class="cls-2" points="114.81 26.04 115.35 26.57 111.69 30.26 111.12 29.73 114.81 26.04"/><polygon class="cls-2" points="112.54 23.89 113.11 24.43 109.64 28.28 109.04 27.77 112.54 23.89"/><polygon class="cls-2" points="110.14 21.88 110.74 22.38 107.47 26.42 106.87 25.94 110.14 21.88"/><polygon class="cls-2" points="107.65 20.02 108.28 20.46 105.23 24.68 104.6 24.21 107.65 20.02"/><polygon class="cls-2" points="105.07 18.25 105.73 18.69 102.89 23.05 102.23 22.64 105.07 18.25"/><polygon class="cls-2" points="102.39 16.64 103.08 17.02 100.47 21.53 99.81 21.15 102.39 16.64"/><polygon class="cls-2" points="99.65 15.16 100.34 15.54 97.98 20.18 97.28 19.8 99.65 15.16"/><polygon class="cls-2" points="96.81 13.84 97.53 14.15 95.42 18.91 94.7 18.6 96.81 13.84"/><polygon class="cls-2" points="93.94 12.67 94.67 12.96 92.81 17.81 92.08 17.53 93.94 12.67"/><polygon class="cls-2" points="90.98 11.66 91.73 11.88 90.13 16.83 89.37 16.61 90.98 11.66"/><polygon class="cls-2" points="87.98 10.78 88.74 11 87.38 16.02 86.63 15.82 87.98 10.78"/><polygon class="cls-2" points="84.96 10.09 85.71 10.25 84.64 15.32 83.85 15.16 84.96 10.09"/><rect class="cls-1" x="79.25" y="11.75" width="5.2" height="0.8" transform="translate(56.91 91.05) rotate(-80.91)"/><polygon class="cls-2" points="78.78 9.14 79.57 9.24 79 14.41 78.24 14.31 78.78 9.14"/><polygon class="cls-2" points="75.66 8.92 76.44 8.95 76.16 14.15 75.41 14.12 75.66 8.92"/><rect class="cls-1" x="16.42" y="68.28" width="5.8" height="0.35"/><polygon class="cls-2" points="16.52 65.35 19.32 65.48 19.29 65.82 16.52 65.67 16.52 65.35"/><polygon class="cls-2" points="16.77 62.39 19.54 62.7 19.51 63.02 16.74 62.73 16.77 62.39"/><polygon class="cls-2" points="17.15 59.49 19.92 59.9 19.86 60.24 17.12 59.8 17.15 59.49"/><polygon class="cls-2" points="17.72 56.59 20.43 57.15 20.36 57.47 17.62 56.9 17.72 56.59"/><polygon class="cls-2" points="18.41 53.72 21.09 54.44 21.03 54.76 18.32 54.03 18.41 53.72"/><polygon class="cls-2" points="19.26 50.88 21.91 51.73 21.81 52.05 19.13 51.2 19.26 50.88"/><polygon class="cls-2" points="20.24 48.11 22.85 49.08 22.73 49.4 20.11 48.39 20.24 48.11"/><polygon class="cls-2" points="21.37 45.36 23.93 46.5 23.8 46.81 21.25 45.68 21.37 45.36"/><polygon class="cls-2" points="22.66 42.72 25.16 43.98 25 44.26 22.51 43 22.66 42.72"/><polygon class="cls-2" points="24.08 40.13 26.51 41.52 26.32 41.8 23.89 40.41 24.08 40.13"/><polygon class="cls-2" points="25.63 37.61 27.96 39.12 27.8 39.41 25.44 37.89 25.63 37.61"/><polygon class="cls-2" points="27.3 35.18 29.57 36.82 29.38 37.1 27.11 35.43 27.3 35.18"/><polygon class="cls-2" points="16.52 71.24 19.29 71.09 19.32 71.43 16.52 71.56 16.52 71.24"/><polygon class="cls-2" points="16.74 74.18 19.51 73.89 19.54 74.21 16.77 74.52 16.74 74.18"/><polygon class="cls-2" points="17.12 77.11 19.86 76.67 19.92 77.01 17.15 77.45 17.12 77.11"/><polygon class="cls-2" points="17.62 80.01 20.36 79.44 20.43 79.75 17.72 80.35 17.62 80.01"/><polygon class="cls-2" points="18.32 82.91 21.03 82.18 21.09 82.5 18.41 83.22 18.32 82.91"/><polygon class="cls-2" points="19.13 85.71 21.81 84.86 21.91 85.18 19.26 86.03 19.13 85.71"/><polygon class="cls-2" points="20.11 88.52 22.73 87.51 22.85 87.83 20.24 88.83 20.11 88.52"/><polygon class="cls-2" points="21.25 91.23 23.8 90.1 23.93 90.41 21.37 91.55 21.25 91.23"/><polygon class="cls-2" points="22.51 93.91 25 92.65 25.16 92.93 22.66 94.19 22.51 93.91"/><polygon class="cls-2" points="23.89 96.53 26.32 95.11 26.51 95.39 24.08 96.81 23.89 96.53"/><polygon class="cls-2" points="25.44 99.05 27.8 97.5 27.96 97.79 25.63 99.3 25.44 99.05"/><polygon class="cls-2" points="27.11 101.47 29.38 99.84 29.57 100.09 27.3 101.73 27.11 101.47"/><rect class="cls-1" x="123.67" y="68.28" width="5.77" height="0.35"/><polygon class="cls-2" points="129.34 65.35 126.57 65.48 126.57 65.82 129.37 65.67 129.34 65.35"/><polygon class="cls-2" points="129.12 62.39 126.32 62.7 126.38 63.02 129.15 62.73 129.12 62.39"/><polygon class="cls-2" points="128.71 59.49 125.97 59.9 126 60.24 128.78 59.8 128.71 59.49"/><polygon class="cls-2" points="128.18 56.59 125.43 57.15 125.5 57.47 128.24 56.9 128.18 56.59"/><polygon class="cls-2" points="127.48 53.72 124.77 54.44 124.87 54.76 127.55 54.03 127.48 53.72"/><polygon class="cls-2" points="126.63 50.88 123.98 51.73 124.08 52.05 126.73 51.2 126.63 50.88"/><polygon class="cls-2" points="125.62 48.11 123.04 49.08 123.13 49.4 125.75 48.39 125.62 48.11"/><polygon class="cls-2" points="124.49 45.36 121.94 46.5 122.06 46.81 124.64 45.68 124.49 45.36"/><polygon class="cls-2" points="123.23 42.72 120.74 43.98 120.86 44.26 123.35 43 123.23 42.72"/><polygon class="cls-2" points="121.81 40.13 119.38 41.52 119.54 41.8 121.97 40.41 121.81 40.13"/><polygon class="cls-2" points="120.26 37.61 117.9 39.12 118.09 39.41 120.42 37.89 120.26 37.61"/><polygon class="cls-2" points="118.56 35.18 116.32 36.82 116.51 37.1 118.78 35.43 118.56 35.18"/><polygon class="cls-2" points="129.37 71.24 126.57 71.09 126.57 71.43 129.34 71.56 129.37 71.24"/><polygon class="cls-2" points="129.15 74.18 126.38 73.89 126.32 74.21 129.12 74.52 129.15 74.18"/><polygon class="cls-2" points="128.78 77.11 126 76.67 125.97 77.01 128.71 77.45 128.78 77.11"/><polygon class="cls-2" points="128.24 80.01 125.5 79.44 125.43 79.75 128.18 80.35 128.24 80.01"/><polygon class="cls-2" points="127.58 82.91 124.87 82.18 124.77 82.5 127.48 83.22 127.58 82.91"/><polygon class="cls-2" points="126.73 85.71 124.08 84.86 123.98 85.18 126.63 86.03 126.73 85.71"/><polygon class="cls-2" points="125.75 88.52 123.13 87.51 123.04 87.83 125.62 88.83 125.75 88.52"/><polygon class="cls-2" points="124.64 91.23 122.06 90.1 121.94 90.41 124.49 91.55 124.64 91.23"/><polygon class="cls-2" points="123.35 93.91 120.86 92.65 120.74 92.93 123.23 94.19 123.35 93.91"/><polygon class="cls-2" points="121.97 96.53 119.54 95.11 119.38 95.39 121.81 96.81 121.97 96.53"/><polygon class="cls-2" points="120.42 99.05 118.09 97.5 117.9 97.79 120.26 99.3 120.42 99.05"/><polygon class="cls-2" points="118.75 101.47 116.51 99.84 116.32 100.09 118.56 101.73 118.75 101.47"/><polygon class="cls-2" points="49.37 127.83 47.1 132.9 43.44 128.24 49.37 127.83"/><polygon class="cls-2" points="43.28 125.06 40.51 129.85 37.35 124.83 43.28 125.06"/><polygon class="cls-2" points="37.55 121.65 34.27 126.13 31.68 120.8 37.55 121.65"/><polygon class="cls-2" points="33.29 18.35 30.04 13.84 35.91 13.02 33.29 18.35"/><polygon class="cls-2" points="38.74 14.47 35.97 9.65 41.9 9.46 38.74 14.47"/><polygon class="cls-2" points="44.58 11.19 42.34 6.12 48.23 6.53 44.58 11.19"/><polygon class="cls-2" points="96.53 9.08 98.77 4 102.42 8.67 96.53 9.08"/><polygon class="cls-2" points="102.58 11.85 105.38 7.03 108.51 12.07 102.58 11.85"/><polygon class="cls-2" points="108.35 15.26 111.63 10.78 114.21 16.11 108.35 15.26"/><polygon class="cls-2" points="112.57 118.56 115.85 123.07 109.99 123.89 112.57 118.56"/><polygon class="cls-2" points="107.12 122.44 109.89 127.23 103.97 127.45 107.12 122.44"/><polygon class="cls-2" points="101.29 125.72 103.56 130.79 97.63 130.38 101.29 125.72"/><polygon class="cls-2" points="137.73 69.73 141.38 69.73 139.56 80.8 137.73 69.73"/><polygon class="cls-2" points="137.73 67.18 141.38 67.18 139.56 56.14 137.73 67.18"/><path class="cls-1" d="M3.94,68.56c0,1.3,0,2.56.13,3.85H6.59c-.07-1.29-.1-2.55-.1-3.85Zm.16,4.35c.06,1.2.19,2.37.31,3.57H7c-.16-1.2-.26-2.4-.35-3.57Zm.41,4.32c.12,1.11.31,2.21.5,3.31H7.6c-.22-1.1-.38-2.2-.54-3.31Zm.69,4.32c.19,1,.41,2,.66,3H8.48c-.25-1-.47-2-.69-3Zm1,4.38.09.38c.19.76.41,1.52.63,2.24H9.61l-.06-.19c-.25-.79-.5-1.61-.72-2.43ZM7.5,90.35c.22.69.48,1.35.73,2.05h2.71c-.25-.7-.51-1.36-.76-2.05Zm1.74,4.57a10.65,10.65,0,0,0,.56,1.32h2.78c-.22-.44-.41-.88-.6-1.32Z"/><path class="cls-3" d="M27.87,69h2A42.92,42.92,0,0,0,35.37,89.5l-1.73,1A44.62,44.62,0,0,1,27.87,69Z"/><path class="cls-4" d="M24.78,69h2.58a45.35,45.35,0,0,0,5.83,21.72l-2.27,1.29A48.1,48.1,0,0,1,24.78,69Z"/><path class="cls-5" d="M28,93.72A51.51,51.51,0,0,1,21.44,69h2.27A49.21,49.21,0,0,0,30,92.59Z"/><path class="cls-3" d="M112.26,90.47l-1.74-1A43.24,43.24,0,0,0,116,69h2A44.7,44.7,0,0,1,112.26,90.47Z"/><path class="cls-5" d="M114.94,92.05l-2.24-1.32A45.58,45.58,0,0,0,118.5,69h2.61A48.13,48.13,0,0,1,114.94,92.05Z"/><path class="cls-2" d="M124.46,69a51.21,51.21,0,0,1-6.62,24.68l-2-1.13A49,49,0,0,0,122.16,69Z"/><path class="cls-3" d="M118,67.87h-2a43,43,0,0,0-5.46-20.43l1.74-1A44.74,44.74,0,0,1,118,67.87Z"/><path class="cls-4" d="M121.11,67.87H118.5a45.55,45.55,0,0,0-5.8-21.69l2.24-1.29A47.67,47.67,0,0,1,121.11,67.87Z"/><path class="cls-5" d="M117.84,43.19a51.21,51.21,0,0,1,6.62,24.68h-2.3a48.79,48.79,0,0,0-6.31-23.52Z"/><path class="cls-2" d="M38.17,33.61H35a48.89,48.89,0,0,0-6.4,8.6l2,1.14a49.85,49.85,0,0,1,7.56-9.71Z"/><path class="cls-5" d="M43.6,33.61H39.72l-.85.78a48.86,48.86,0,0,0-7.35,9.49l2.24,1.29a46.27,46.27,0,0,1,7-9A35.54,35.54,0,0,1,43.6,33.61Z"/><path class="cls-3" d="M47.7,33.61H44.39c-1.14.94-2.24,1.92-3.31,3a45.66,45.66,0,0,0-6.88,8.83l1.74,1A43,43,0,0,1,47.7,33.61Z"/><path class="cls-5" d="M101.48,33.61H98.2a42.51,42.51,0,0,1,11.72,12.82l1.74-1a46,46,0,0,0-6.87-8.83A37.52,37.52,0,0,0,101.48,33.61Z"/><path class="cls-4" d="M106.17,33.61h-3.91a31.39,31.39,0,0,1,2.9,2.64,43.6,43.6,0,0,1,6.94,8.92l2.27-1.29A47.87,47.87,0,0,0,107,34.39C106.71,34.14,106.46,33.86,106.17,33.61Z"/><path class="cls-2" d="M110.87,33.61h-3.18l.06,0a49.7,49.7,0,0,1,7.53,9.71l2-1.14A51.64,51.64,0,0,0,110.87,33.61Z"/><path class="cls-2" d="M107.69,103.33h3.18a52.91,52.91,0,0,0,6.4-8.6l-2-1.17a49.12,49.12,0,0,1-7.53,9.71Z"/><path class="cls-4" d="M102.26,103.33h3.91l.82-.81a48.86,48.86,0,0,0,7.38-9.46l-2.27-1.33a44.4,44.4,0,0,1-6.94,9C104.25,101.6,103.27,102.48,102.26,103.33Z"/><path class="cls-5" d="M98.2,103.33h3.28a37.86,37.86,0,0,0,3.31-3,45.09,45.09,0,0,0,6.87-8.83l-1.74-1A42.89,42.89,0,0,1,98.2,103.33Z"/><path class="cls-5" d="M44.39,103.33H47.7A43.42,43.42,0,0,1,35.94,90.47l-1.74,1a43.91,43.91,0,0,0,6.88,8.83Q42.69,101.92,44.39,103.33Z"/><path class="cls-4" d="M39.72,103.33H43.6c-1-.85-2-1.73-2.87-2.64a46,46,0,0,1-7-9l-2.24,1.33a49.9,49.9,0,0,0,7.35,9.46C39.15,102.8,39.44,103.05,39.72,103.33Z"/><path class="cls-2" d="M35,103.33h3.15l0-.06a48,48,0,0,1-7.53-9.71l-2,1.17A51.22,51.22,0,0,0,35,103.33Z"/><path class="cls-5" d="M33.64,46.43l1.73,1a42.71,42.71,0,0,0-5.49,20.43h-2A44.66,44.66,0,0,1,33.64,46.43Z"/><path class="cls-4" d="M30.92,44.86l2.27,1.32a45.23,45.23,0,0,0-5.83,21.69H24.78A48.19,48.19,0,0,1,30.92,44.86Z"/><path class="cls-2" d="M21.44,67.87A51.51,51.51,0,0,1,28,43.19l2,1.16a49,49,0,0,0-6.3,23.52Z"/><path class="cls-1" d="M95.8,45.58a32.31,32.31,0,1,0,9.49,22.89A32.3,32.3,0,0,0,95.8,45.58Zm8.42,22.54h-1.74A29.35,29.35,0,0,0,98.7,54l1.48-.88A31,31,0,0,1,104.22,68.12ZM95,46.34a32,32,0,0,1,4.83,6.21l-1.48.85a30.9,30.9,0,0,0-4.54-5.83A29,29,0,0,0,88,43l.89-1.51A30.22,30.22,0,0,1,95,46.34ZM73.26,37.17a31.16,31.16,0,0,1,15,4l-.85,1.51A29.31,29.31,0,0,0,73.26,38.9Zm-.63,0V38.9a29.15,29.15,0,0,0-14.18,3.81l-.89-1.51A31.27,31.27,0,0,1,72.63,37.17ZM50.82,46.34A31.61,31.61,0,0,1,57,41.52L57.88,43a27.68,27.68,0,0,0-5.83,4.54,29,29,0,0,0-4.54,5.83L46,52.55A32,32,0,0,1,50.82,46.34Zm-5.14,6.75,1.51.88a29.49,29.49,0,0,0-3.81,14.15H41.67A30.85,30.85,0,0,1,45.68,53.09Zm-4,15.7h1.71A29.7,29.7,0,0,0,47.19,83l-1.51.85A30.85,30.85,0,0,1,41.67,68.79Zm9.15,21.78A32.77,32.77,0,0,1,46,84.39l1.52-.88a29.28,29.28,0,0,0,2.08,3.09,27.54,27.54,0,0,0,2.46,2.74,28,28,0,0,0,5.83,4.54L57,95.39A31.61,31.61,0,0,1,50.82,90.57Zm21.81,9.17a31.27,31.27,0,0,1-15.07-4l.89-1.49A29.47,29.47,0,0,0,72.63,98ZM43.57,68.47A29.36,29.36,0,1,1,73,97.82,29.37,29.37,0,0,1,43.57,68.47ZM73.26,99.74V98a29.63,29.63,0,0,0,14.19-3.79l.85,1.49A31.16,31.16,0,0,1,73.26,99.74ZM95,90.57a31.35,31.35,0,0,1-6.17,4.82L88,93.88a29.35,29.35,0,0,0,5.87-4.54,31.22,31.22,0,0,0,4.54-5.83l1.48.85A32,32,0,0,1,95,90.57Zm5.14-6.75L98.7,83a29.56,29.56,0,0,0,3.78-14.18h1.74A31,31,0,0,1,100.18,83.82Z"/></g></g></svg>