<svg xmlns="http://www.w3.org/2000/svg" viewBox="0 0 38.04 38.04"><defs><style>.cls-1{fill:#feb113;}.cls-2{fill:#08ade5;}.cls-3{fill:#065977;}</style></defs><title>资源 10</title><g id="图层_2" data-name="图层 2"><g id="Layer_1" data-name="Layer 1"><path class="cls-1" d="M3.78,15.74l0,.14c0,.09,0,.22-.07.37s-.06.33-.08.52-.06.4-.08.61,0,.41,0,.6,0,.37,0,.53,0,.51,0,.51H.49v-.61c0-.18,0-.4,0-.63s0-.47.06-.71.06-.49.09-.72.07-.44.1-.62.06-.33.08-.44l0-.16Z"/><path class="cls-1" d="M5.32,11.58,5.08,12,5,12.27l-.12.25c-.08.18-.17.36-.24.56s-.15.38-.22.56-.13.36-.18.5-.09.27-.11.36a1,1,0,0,1,0,.14l-2.82-.83,0-.16c0-.11.08-.25.14-.43s.12-.38.2-.59L1.89,12c.09-.23.19-.45.29-.66l.13-.3c0-.09.1-.18.14-.27l.28-.54Z"/><path class="cls-1" d="M8,8l-.35.38-.36.39c-.12.15-.26.3-.38.46a14.51,14.51,0,0,0-1,1.34L3.43,9A18,18,0,0,1,4.57,7.42c.15-.2.31-.38.46-.55s.29-.34.42-.47L5.87,6Z"/><path class="cls-1" d="M11.5,5.37l-.45.25-.45.28-.5.34-.49.36-.42.32-.28.24-.11.1L6.87,5,7,4.92l.34-.28.5-.39.58-.42c.2-.15.41-.28.6-.4s.37-.25.53-.34l.54-.3Z"/><path class="cls-1" d="M15.65,3.8l-.5.12-.51.14-.29.09-.29.09c-.4.13-.78.29-1.07.4l-.47.21L11.29,2.18s.22-.11.56-.25.8-.33,1.27-.48l.35-.11.34-.1.6-.17L15,.93Z"/><path class="cls-1" d="M20.06,3.47h-.14l-.37,0H19l-.6,0c-.21,0-.42,0-.61,0l-.53,0-.51.07L16.35.68,17,.6l.62,0L18.3.5h1.35l.44,0h.17Z"/><path class="cls-1" d="M24.4,4.39l-.13,0-.36-.12-.24-.08-.27-.08-.58-.16-.59-.14-.52-.09c-.31-.06-.51-.08-.51-.08L21.61.67s.24,0,.6.1c.18,0,.4.06.62.11l.71.16.69.19.32.1.28.09.43.15.16.05Z"/><path class="cls-1" d="M28.3,6.49l-.42-.3-.44-.29c-.17-.1-.34-.22-.52-.32-.71-.42-1.46-.76-1.46-.76l1.21-2.68a18.47,18.47,0,0,1,1.75.91l.61.37.52.35.5.36Z"/><path class="cls-1" d="M31.45,9.61l-.32-.41-.34-.4-.41-.45L30,7.91l-.39-.36L29.3,7.3l-.11-.09L31.11,5l.13.11.33.29.45.44c.17.15.34.34.51.51s.33.36.48.54.29.33.4.48l.38.48Z"/><path class="cls-1" d="M33.59,13.48,33.4,13c0-.14-.13-.3-.21-.48l-.13-.27L32.93,12c-.19-.37-.4-.72-.55-1l-.28-.44,2.47-1.6s.14.2.33.52.43.74.65,1.18l.17.33.15.32c.09.21.18.4.25.57l.23.58Z"/><path class="cls-1" d="M34.56,17.81v-.14a3.39,3.39,0,0,0,0-.37c0-.16,0-.34-.06-.53s-.07-.39-.1-.6l-.06-.3a2.46,2.46,0,0,0-.07-.29c0-.19-.08-.37-.12-.52s-.14-.49-.14-.49l2.82-.84s.07.23.17.59c0,.18.09.39.15.61s0,.23.08.35l.06.36c0,.24.09.48.12.71s.06.44.08.62,0,.34,0,.45l0,.16Z"/><path class="cls-1" d="M34.28,22.23l0-.14c0-.09,0-.22.06-.37.06-.31.11-.72.16-1.12s.07-.83.07-1.14c0-.15,0-.28,0-.37V19h2.94a.67.67,0,0,1,0,.16c0,.11,0,.26,0,.45,0,.36,0,.85-.08,1.34s-.11,1-.19,1.34c0,.18-.06.33-.08.43a.83.83,0,0,1,0,.17Z"/><path class="cls-1" d="M32.76,26.39l.23-.46a4.36,4.36,0,0,0,.23-.48c.08-.17.17-.36.24-.55A14.54,14.54,0,0,0,34,23.34l2.83.81A17.54,17.54,0,0,1,36.19,26c-.09.23-.19.45-.29.66a6.18,6.18,0,0,1-.27.57l-.28.55Z"/><path class="cls-1" d="M30.13,30l.35-.38c.11-.11.23-.25.35-.39L31,29l.19-.24c.13-.16.26-.32.37-.48l.31-.43.2-.31.08-.12L34.66,29l-.09.14-.24.37c-.11.15-.23.33-.37.51s-.29.38-.43.58l-.23.28-.23.27c-.16.17-.29.34-.42.47l-.42.44Z"/><path class="cls-2" d="M4,19v.27c0,.18,0,.45,0,.79a13.86,13.86,0,0,0,.5,3c0,.15.09.31.14.47l.17.5a5.27,5.27,0,0,0,.19.51,4.93,4.93,0,0,0,.22.53,13.9,13.9,0,0,0,1.2,2.22,15.14,15.14,0,0,0,4.23,4.27,15.84,15.84,0,0,0,3.07,1.58,15.32,15.32,0,0,0,3.59.86l.47,0,.48,0h1.46l.49,0c.33,0,.66-.06,1-.1a17.52,17.52,0,0,0,2-.43c.33-.09.65-.21,1-.32l.48-.18.25-.1.23-.11a15.09,15.09,0,0,0,3.57-2.22,15.65,15.65,0,0,0,1.55-1.5,14.68,14.68,0,0,0,1.32-1.71,15.61,15.61,0,0,0,1.08-1.91,15,15,0,0,0,.79-2.05,14.63,14.63,0,0,0,.48-2.16A16.32,16.32,0,0,0,34.08,19a16.44,16.44,0,0,0-.17-2.21,14.22,14.22,0,0,0-.48-2.15,14.6,14.6,0,0,0-.79-2.06,15.61,15.61,0,0,0-1.08-1.91A14.68,14.68,0,0,0,30.24,9a16.87,16.87,0,0,0-1.55-1.5,15.09,15.09,0,0,0-3.57-2.22l-.23-.11-.25-.09-.48-.19c-.32-.11-.64-.23-1-.32a15.53,15.53,0,0,0-2-.42c-.33,0-.66-.09-1-.11l-.49,0H18.27l-.48,0-.47,0a14.85,14.85,0,0,0-3.59.87,15,15,0,0,0-7.3,5.84A13.9,13.9,0,0,0,5.23,13a4.93,4.93,0,0,0-.22.53,5.27,5.27,0,0,0-.19.51l-.17.5L4.51,15A13.69,13.69,0,0,0,4,18c0,.35,0,.61,0,.79V19H3.81v-.27c0-.18,0-.45,0-.8a14.33,14.33,0,0,1,.51-3c0-.15.09-.31.14-.48s.11-.33.17-.5.12-.34.19-.52.14-.36.22-.54A14.61,14.61,0,0,1,6.3,10.69a15.19,15.19,0,0,1,4.27-4.32,15.58,15.58,0,0,1,3.1-1.59,15.29,15.29,0,0,1,3.63-.87,3.91,3.91,0,0,1,.48-.05l.48,0,.49,0h.49l.5,0,.5,0c.33,0,.66.07,1,.11a14,14,0,0,1,2,.43c.33.09.66.21,1,.32l.48.19L25,5l.24.1a15.39,15.39,0,0,1,3.6,2.25,14.82,14.82,0,0,1,1.56,1.51,16.48,16.48,0,0,1,1.35,1.74,15.73,15.73,0,0,1,1.08,1.92,15.39,15.39,0,0,1,.8,2.08,14.63,14.63,0,0,1,.49,2.18,15.62,15.62,0,0,1,0,4.46,14.63,14.63,0,0,1-.49,2.18,15.39,15.39,0,0,1-.8,2.08,15.86,15.86,0,0,1-1.08,1.93,17.45,17.45,0,0,1-1.35,1.73,14.82,14.82,0,0,1-1.56,1.51,15.39,15.39,0,0,1-3.6,2.25L25,33l-.25.09-.48.19c-.33.11-.66.23-1,.32a14,14,0,0,1-2,.43c-.33,0-.66.09-1,.11l-.5,0H18.26l-.48,0-.48,0a15.3,15.3,0,0,1-3.63-.88,15.18,15.18,0,0,1-7.37-5.9,14.69,14.69,0,0,1-1.22-2.24c-.08-.18-.15-.36-.22-.54a4.6,4.6,0,0,1-.19-.52c-.06-.17-.12-.34-.17-.5s-.1-.32-.14-.48a14.22,14.22,0,0,1-.51-3c0-.35,0-.62,0-.8V19Z"/><path class="cls-2" d="M.16,19s0,.12,0,.34,0,.55,0,1a18.73,18.73,0,0,0,.63,3.7c.06.19.12.39.17.6l.21.62c.07.22.16.43.24.65s.18.44.28.66a18.24,18.24,0,0,0,1.51,2.78,18.89,18.89,0,0,0,9.14,7.32,18.74,18.74,0,0,0,4.5,1.08l.6.06.6,0,.6,0h.61l.61,0,.61,0c.41,0,.83-.08,1.24-.14a18,18,0,0,0,2.48-.53c.41-.11.82-.26,1.22-.4l.61-.23.3-.12.3-.14a18.67,18.67,0,0,0,4.47-2.79,20,20,0,0,0,1.93-1.87,19.12,19.12,0,0,0,1.66-2.14,18.11,18.11,0,0,0,1.35-2.39,19.66,19.66,0,0,0,1-2.58,19.27,19.27,0,0,0,.6-2.71,19.14,19.14,0,0,0,0-5.52,19.59,19.59,0,0,0-.6-2.71,19.66,19.66,0,0,0-1-2.58,18,18,0,0,0-1.35-2.38,18.36,18.36,0,0,0-1.66-2.15,20,20,0,0,0-1.93-1.87,18.67,18.67,0,0,0-4.47-2.79l-.3-.14-.3-.12-.61-.23c-.4-.14-.81-.28-1.22-.4A19.57,19.57,0,0,0,21.76.36C21.35.3,20.93.25,20.52.22l-.61,0-.61,0h-.61l-.6,0-.6,0c-.2,0-.4,0-.6.06A18.75,18.75,0,0,0,8.54,3.34,19,19,0,0,0,3.25,8.68a18.73,18.73,0,0,0-1.51,2.78c-.1.22-.19.45-.28.66s-.17.44-.24.65L1,13.39C1,13.6.9,13.8.84,14A18.69,18.69,0,0,0,.21,17.7c0,.43,0,.76,0,1s0,.34,0,.34H0s0-.12,0-.34,0-.56,0-1A18.46,18.46,0,0,1,.69,14c.06-.2.11-.4.17-.61l.21-.62c.07-.22.16-.43.25-.65s.17-.45.27-.67A19.43,19.43,0,0,1,3.11,8.6,19.2,19.2,0,0,1,8.45,3.21a19.43,19.43,0,0,1,3.88-2A19.69,19.69,0,0,1,16.87.12l.6,0,.61,0h1.84l.62,0c.41,0,.83.09,1.24.14a19.53,19.53,0,0,1,2.5.54c.42.11.83.26,1.24.4l.61.24.3.12.3.13a18.82,18.82,0,0,1,4.51,2.82,19.2,19.2,0,0,1,1.95,1.88A20.92,20.92,0,0,1,34.87,8.5a18.92,18.92,0,0,1,1.36,2.41,20.85,20.85,0,0,1,1,2.6,19.58,19.58,0,0,1,.61,2.73A21.53,21.53,0,0,1,38,19a21.53,21.53,0,0,1-.2,2.78,19.26,19.26,0,0,1-.61,2.73,20.85,20.85,0,0,1-1,2.6,18.92,18.92,0,0,1-1.36,2.41,19.91,19.91,0,0,1-1.68,2.17,20.46,20.46,0,0,1-1.95,1.89,19.1,19.1,0,0,1-4.51,2.81l-.3.13-.3.12-.61.24c-.41.14-.82.29-1.24.4a19.53,19.53,0,0,1-2.5.54c-.41,0-.83.11-1.24.14l-.62,0-.62,0h-.61l-.61,0-.61,0c-.2,0-.4,0-.6-.06a19.19,19.19,0,0,1-4.54-1.09,19.17,19.17,0,0,1-9.22-7.38,20,20,0,0,1-1.52-2.8c-.1-.23-.18-.46-.27-.67s-.18-.44-.25-.66L.86,24.7c-.06-.21-.11-.41-.17-.61a18.38,18.38,0,0,1-.64-3.73c0-.44,0-.77,0-1S0,19,0,19Z"/><path class="cls-3" d="M16.48,9.21l.22-.05c.13,0,.31-.08.49-.11l.26,0,.23,0,.23,0-.46-4.21h.09l.2,0,.29,0,.45,6.61-.27,0-.59.09-.16,0-.15,0a1.56,1.56,0,0,0-.27.06l-.26.07L14.86,5.27l.56-.16Z"/><path class="cls-3" d="M29,17.88a1.17,1.17,0,0,1,0,.23c0,.13,0,.31,0,.49s0,.37,0,.5v.23l4.23.13s0,.14,0,.29l0,.29-6.61-.47V19.5a1.15,1.15,0,0,0,0-.2,2.44,2.44,0,0,0,0-.28c0-.1,0-.21,0-.32s0-.21,0-.32,0-.1,0-.14l0-.13,0-.27,6.55-1,.08.58Z"/><path class="cls-3" d="M18.75,29.08h-.23L18,29,17.53,29l-.16,0H17.3l-.71,4.17-.29,0L16,33l1.38-6.49.08,0,.19,0c.16,0,.37.06.59.09l.31,0h.56l.08,6.63h-.58Z"/><path class="cls-2" d="M17,4.8l.46,3.28-.14,0-.3.05a3.51,3.51,0,0,0-.43.09L15.87,5s.28-.07.57-.11l.39-.07Z"/><path class="cls-2" d="M33.3,19H30l0-.44c0-.11,0-.22,0-.31v-.13l3.3-.27a1.41,1.41,0,0,1,0,.18c0,.11,0,.25,0,.4S33.3,19,33.3,19Z"/><path class="cls-2" d="M17,33.18l.46-3.28.44.06.44,0-.19,3.31-.58,0Z"/><path class="cls-3" d="M11.88,6.12,13,8.05l-.17.1c-.11.06-.27.14-.45.26L12,8.6l-.32.23c-.22.15-.44.34-.67.51s-.44.37-.64.56a3.5,3.5,0,0,1-.28.27l-.24.26c-.15.15-.26.29-.35.38L9.41,11l.58.49-.06.07-.16.2L9.52,12c-.09.13-.2.27-.3.43A11.58,11.58,0,0,0,7.94,15a12.19,12.19,0,0,0-.64,2.75c0,.38-.06.7-.06.93s0,.35,0,.35H4.28l0-.67c0-.22,0-.48,0-.78,0-.14,0-.3.06-.47s0-.34.07-.52a14.2,14.2,0,0,1,.63-2.44,14.56,14.56,0,0,1,1.21-2.61A15.07,15.07,0,0,1,8,9.21,14.41,14.41,0,0,1,9.85,7.48a15.32,15.32,0,0,1,1.45-1l.43-.25Zm-6,11.41a.37.37,0,0,0-.41.34.38.38,0,0,0,.35.41.39.39,0,0,0,.4-.34A.4.4,0,0,0,5.84,17.53Zm.21-1.3a.39.39,0,0,0-.28.05.39.39,0,0,0-.16.25.36.36,0,0,0,.3.43.38.38,0,0,0,.44-.29.39.39,0,0,0-.06-.28A.4.4,0,0,0,6.05,16.23ZM6.39,15a.41.41,0,0,0-.29,0,.42.42,0,0,0-.18.23.37.37,0,0,0,.26.46.38.38,0,0,0,.46-.25.38.38,0,0,0,0-.28A.37.37,0,0,0,6.39,15Zm.47-1.24a.38.38,0,0,0-.28.7.38.38,0,0,0,.48-.21A.39.39,0,0,0,6.86,13.72Zm.58-1.18a.38.38,0,0,0-.51.16.37.37,0,0,0,.17.5.37.37,0,1,0,.34-.66Zm.71-1.11a.37.37,0,0,0-.53.1.38.38,0,1,0,.53-.1Z"/><path class="cls-3" d="M32.6,13.27l-2,.86L30.49,14c-.06-.12-.12-.28-.22-.48s-.21-.42-.35-.65-.13-.24-.21-.36l-.23-.36a11.4,11.4,0,0,0-1-1.26l-.19-.22-.16-.17L28,10.31l-.54.52-.07-.07-.18-.18L27,10.3l-.4-.35a11.61,11.61,0,0,0-2.36-1.53,12.31,12.31,0,0,0-2.67-.92c-.19,0-.36-.07-.51-.1l-.41-.06-.35,0,.08-.75.23-2.19.67.08.76.14.47.1.25.06.26.08c.17,0,.36.09.55.16l.58.2.61.24.61.27a15,15,0,0,1,2.47,1.48A15.35,15.35,0,0,1,29.93,9.1a14.31,14.31,0,0,1,1.52,2c.21.31.37.61.52.86l.35.69ZM21.88,6.07a.38.38,0,1,0-.44.29A.39.39,0,0,0,21.88,6.07Zm1.27.34a.37.37,0,0,0-.25-.47.38.38,0,1,0-.21.72A.38.38,0,0,0,23.15,6.41Zm1.23.48a.38.38,0,0,0-.2-.5.37.37,0,0,0-.49.21.37.37,0,0,0,.69.29Zm1.18.59a.37.37,0,1,0-.66-.35.38.38,0,0,0,.15.5A.39.39,0,0,0,25.56,7.48Zm1.11.71a.38.38,0,0,0-.1-.53.37.37,0,1,0-.41.62A.37.37,0,0,0,26.67,8.19Zm1,.81a.37.37,0,0,0-.05-.53.36.36,0,0,0-.53.06.37.37,0,0,0,.06.52A.38.38,0,0,0,27.71,9Z"/><path class="cls-3" d="M22.3,33.39l-.48-2.14L22,31.2c.12,0,.3-.08.5-.13A12.65,12.65,0,0,0,24,30.53l.4-.18.37-.18c.24-.12.46-.25.64-.36l.45-.28.16-.1-.42-.63.29-.2c.09-.07.21-.14.33-.24l.19-.16.11-.08.11-.09A11.86,11.86,0,0,0,28.55,26l.22-.31c.08-.11.14-.22.21-.33s.26-.43.38-.63l.32-.62c.09-.2.18-.39.25-.57s.14-.34.19-.49l.13-.39a1.22,1.22,0,0,0,.07-.25l0-.08.72.2,2.12.61,0,.17c0,.11-.09.27-.15.48s-.08.21-.12.33l-.15.39c-.11.29-.25.59-.4.93A16.63,16.63,0,0,1,31,27.56a15.3,15.3,0,0,1-1.89,2.17,16.18,16.18,0,0,1-2.27,1.77,15,15,0,0,1-2.24,1.15l-.49.19L23.7,33c-.28.1-.53.17-.74.23l-.28.07-.2.05Zm9-9.29a.37.37,0,1,0,.26-.7.4.4,0,0,0-.48.22A.38.38,0,0,0,31.28,24.1Zm-.57,1.19a.37.37,0,0,0,.51-.16.37.37,0,0,0-.17-.5.37.37,0,1,0-.34.66ZM30,26.42a.37.37,0,0,0,.52-.11A.37.37,0,0,0,30.6,26a.36.36,0,0,0-.17-.23.4.4,0,0,0-.28,0,.34.34,0,0,0-.23.16A.37.37,0,0,0,30,26.42Zm-.79,1.06a.38.38,0,0,0,.53-.06.37.37,0,0,0-.07-.53.38.38,0,0,0-.52.06A.38.38,0,0,0,29.24,27.48Zm-.89,1a.36.36,0,0,0,.53,0,.37.37,0,0,0,0-.53.37.37,0,0,0-.52.54Zm-1,.88a.35.35,0,0,0,.53,0,.36.36,0,0,0,0-.52.37.37,0,0,0-.53,0,.3.3,0,0,0-.12.25A.35.35,0,0,0,27.37,29.33Z"/><path class="cls-2" d="M7.07,32a.7.7,0,0,0,1,0l.23.19.3.24c.2.15.4.31.61.45.41.3.84.57,1.27.83A16.36,16.36,0,0,0,13.21,35a17,17,0,0,0,17.07-3.24c.14-.11.26-.24.39-.36l.38-.36L31,31l-.38.36c-.12.12-.25.25-.38.36a16.9,16.9,0,0,1-16.93,3.21,16.12,16.12,0,0,1-2.73-1.27c-.43-.26-.86-.53-1.26-.82-.21-.14-.41-.3-.61-.45l-.3-.23-.22-.19a.72.72,0,0,0,.13-.5A.77.77,0,0,0,8.05,31a.73.73,0,0,0-1,0A.71.71,0,0,0,7.07,32Z"/><path class="cls-2" d="M23.88,17.58a.16.16,0,0,0-.05-.11.17.17,0,0,0-.12,0v-.16l0-.17c0-.12,0-.24-.07-.35a4.12,4.12,0,0,0-.24-.67,4,4,0,0,0-2-1.94A3.84,3.84,0,0,0,20,13.79h-.24v0H20a4,4,0,0,1,2.52,1.12,4.06,4.06,0,0,1,.81,1.15,3.71,3.71,0,0,1,.24.66c0,.11.05.23.07.34l0,.18v.15a.17.17,0,0,0-.1.06.15.15,0,0,0,0,.11.17.17,0,0,0,.17.16A.16.16,0,0,0,23.88,17.58Z"/><rect class="cls-2" x="6.63" y="24.26" width="6.41" height="0.72" transform="translate(-11.62 9.04) rotate(-32.24)"/><path class="cls-1" d="M21.4,19.65l0-.1c0-.05,0-.11,0-.18V19l3.94.2v.34a1.1,1.1,0,0,0,0,.18c0,.13,0,.25-.05.37l0,.16a1.15,1.15,0,0,0,0,.14l-.06.25Z"/><path class="cls-1" d="M21.06,20.42l.05-.09s.07-.11.11-.19A1.32,1.32,0,0,0,21.3,20l0-.1,3.72,1.3s0,.1-.08.24a5.19,5.19,0,0,1-.23.51,3.43,3.43,0,0,1-.27.48l-.13.22Z"/><path class="cls-1" d="M20.48,21l.08-.06.16-.15a2.06,2.06,0,0,0,.15-.16l.06-.07L24,23.05l-.16.19a4.5,4.5,0,0,1-.38.41c-.14.14-.29.27-.41.37l-.2.15Z"/><path class="cls-1" d="M19.73,21.43l.09,0,.1,0,.1-.05a.75.75,0,0,0,.2-.1l.08-.05,2.12,3.33-.22.13a3.18,3.18,0,0,1-.49.26l-.27.13-.24.09-.24.08Z"/><path class="cls-1" d="M18.92,21.56h.29l.22,0h.09l.9,3.84-.07,0-.18,0-.55.08-.55,0h-.35Z"/><path class="cls-1" d="M18.07,21.4l.09,0,.21.06.18,0,.08,0-.21,3.94-.31,0-.32-.05-.17,0-.15,0a4.54,4.54,0,0,1-.54-.15l-.23-.08Z"/><path class="cls-1" d="M17.33,21l.08.06.18.12a1.75,1.75,0,0,0,.27.15l-1.68,3.57L16,24.77a3.65,3.65,0,0,1-.48-.28,4.93,4.93,0,0,1-.45-.31l-.2-.16Z"/><path class="cls-1" d="M16.78,20.34l0,.08.13.18c0,.06.1.11.14.16l0,0,0,0L14.4,23.65l-.05,0-.12-.13c-.1-.12-.24-.26-.36-.42s-.25-.32-.33-.45l-.13-.21Z"/><path class="cls-1" d="M16.46,19.55l0,.1a1.08,1.08,0,0,0,.06.2,1.56,1.56,0,0,0,.08.21l0,.08L13.14,21.9s-.05-.09-.11-.23a4.64,4.64,0,0,1-.21-.52c-.07-.19-.12-.38-.16-.53s-.06-.25-.06-.25Z"/><path class="cls-1" d="M16.43,18.67v.1c0,.08,0,.19,0,.29v0h0v.09a.34.34,0,0,1,0,.1.45.45,0,0,0,0,.1l-3.92.48v-.07s0-.1,0-.18,0-.16,0-.25V19h0v-.17c0-.1,0-.21,0-.29v-.23Z"/><path class="cls-1" d="M16.67,17.9l0,.09a1.38,1.38,0,0,0-.08.2,1.08,1.08,0,0,0-.06.2l0,.1-3.86-.82s0-.1.06-.25.09-.34.16-.53a5.58,5.58,0,0,1,.21-.52l.11-.23Z"/><path class="cls-1" d="M17.17,17.21l0,0,0,.05a1.27,1.27,0,0,0-.14.17,1.55,1.55,0,0,0-.13.17l0,.09-3.37-2.06.13-.21c.08-.13.21-.29.33-.45s.26-.3.36-.42l.12-.13.05,0Z"/><path class="cls-1" d="M17.86,16.73a1.75,1.75,0,0,0-.27.15l-.18.12-.08.06-2.51-3,.2-.15a4.86,4.86,0,0,1,.45-.32,5.28,5.28,0,0,1,.48-.28l.23-.11Z"/><path class="cls-1" d="M18.68,16.5h-.1l-.21,0-.21.06-.09,0-1.37-3.7.23-.08.54-.15a5,5,0,0,1,.55-.1l.25,0Z"/><path class="cls-3" d="M16.71,19v0Z"/><path class="cls-3" d="M19,21.26H19C18.89,21.25,19,21.26,19,21.26Z"/><path class="cls-3" d="M18.94,16.79h0Z"/><path class="cls-3" d="M21.18,19V19h0v-.1a.25.25,0,0,0,0-.08v-.11s0-.07,0-.11l0-.13a2.32,2.32,0,0,0-.29-.63,2.24,2.24,0,0,0-.63-.64,2.71,2.71,0,0,0-.45-.23l-.13,0-.13,0-.06,0h-.06l-.1,0h-.34a2.64,2.64,0,0,0-.29,0A2,2,0,0,0,18,17a2.46,2.46,0,0,0-.53.33,2.83,2.83,0,0,0-.43.48,2.18,2.18,0,0,0-.27.58,1.24,1.24,0,0,0,0,.16l0,0v0a.13.13,0,0,1,0,.06s0,0,0,.06V19h0v.15a.88.88,0,0,0,0,.16,1.83,1.83,0,0,0,.07.32,2.24,2.24,0,0,0,.27.59,2.76,2.76,0,0,0,.43.47,2.46,2.46,0,0,0,.53.33.84.84,0,0,0,.14.06l.15.05.14,0a.27.27,0,0,0,.12,0,2,2,0,0,0,.36,0h.25a2.35,2.35,0,0,0,1-.36,2,2,0,0,0,.63-.64,2.41,2.41,0,0,0,.29-.62l0-.13a.34.34,0,0,0,0-.09s0-.06,0-.08a.15.15,0,0,1,0-.06V19.2c0-.08,0-.14,0-.18h0Zm-.23.24v.06s0,0,0,.06a.2.2,0,0,1,0,.07l0,.12a2.11,2.11,0,0,1-.25.57,2.2,2.2,0,0,1-.57.57,2,2,0,0,1-.9.33H19a1.28,1.28,0,0,1-.35,0h-.09l-.14,0a.93.93,0,0,1-.13,0l-.12-.05a1.84,1.84,0,0,1-.48-.3,2,2,0,0,1-.39-.43,2.32,2.32,0,0,1-.25-.53c0-.1-.05-.19-.06-.29a.77.77,0,0,1,0-.15V19h0v-.3a.06.06,0,0,0,0,0,.11.11,0,0,0,0-.05v-.06a.83.83,0,0,0,0-.15,2.32,2.32,0,0,1,.25-.53,2.27,2.27,0,0,1,.39-.43,2.15,2.15,0,0,1,.48-.3,1.93,1.93,0,0,1,.52-.15,2.46,2.46,0,0,1,.26,0h.33l.08,0h0l.06,0,.12,0,.11,0a1.83,1.83,0,0,1,.42.21,2.37,2.37,0,0,1,.57.57,2.42,2.42,0,0,1,.25.57l0,.12s0,.07,0,.11v.09a.22.22,0,0,1,0,.08A.42.42,0,0,0,21,19v.24Z"/><path class="cls-3" d="M25.65,19.43v.06a.51.51,0,0,1,0,.1c0,.12,0,.25-.05.39l0,.21,0,.12a.3.3,0,0,1,0,.1c0,.13-.06.26-.1.4a6.57,6.57,0,0,1-.85,1.9,7,7,0,0,1-1.89,1.9,6.79,6.79,0,0,1-3,1.09l-.42,0H19c.15,0-.21,0-.18,0H18.5l-.44-.05-.27,0-.26-.05-.44-.11-.44-.14-.43-.17a7,7,0,0,1-1.59-1,6.72,6.72,0,0,1-1.28-1.43A7,7,0,0,1,12.51,21a6.45,6.45,0,0,1-.21-1,3.86,3.86,0,0,1-.06-.49v-.46h0c0-.08,0,.15,0-.19v-.41c0-.1,0-.21,0-.31s0-.2,0-.3l0-.16,0-.12c0-.16.08-.32.12-.48a7,7,0,0,1,.84-1.77,6.72,6.72,0,0,1,1.28-1.43,6.93,6.93,0,0,1,1.59-1A6.59,6.59,0,0,1,18,12.37a6.52,6.52,0,0,1,.88-.07h.7l.53.07.13,0,.12,0,.2.05.4.11.38.13a6.54,6.54,0,0,1,1.37.7,7,7,0,0,1,1.89,1.91,6.53,6.53,0,0,1,.85,1.89c0,.14.07.27.1.4s0,.24.06.36,0,.21.05.3,0,.18,0,.26c0,.31,0,.47,0,.47h.21s0-.17,0-.48c0-.08,0-.17,0-.27s0-.2-.05-.32,0-.24-.06-.36-.07-.27-.1-.42a7,7,0,0,0-2.83-3.91,7,7,0,0,0-1.42-.73L21,12.39l-.41-.11-.21,0-.13,0-.13,0-.54-.07h-.73a6.82,6.82,0,0,0-.9.07,6.82,6.82,0,0,0-3.45,1.55A6.86,6.86,0,0,0,12.31,17c-.05.17-.09.33-.13.5l0,.12,0,.16c0,.1,0,.21,0,.32l0,.32v.16l0,.25c0,.37,0,.11,0,.2h0v.48a4,4,0,0,0,.06.5,5.76,5.76,0,0,0,.22,1,6.86,6.86,0,0,0,2.18,3.3,7.05,7.05,0,0,0,1.64,1l.45.18a3.36,3.36,0,0,0,.45.14c.15.05.3.08.45.12l.27.05.29,0,.29,0h1l.44,0a7.07,7.07,0,0,0,3.07-1.12,7,7,0,0,0,1.94-2,6.86,6.86,0,0,0,.89-1.95c0-.15.07-.28.1-.41v-.11l0-.12,0-.22c0-.15,0-.28.05-.41a.51.51,0,0,0,0-.1v-.3h-.21Z"/><path class="cls-2" d="M17.31,19h0v.09h0V19Z"/><path class="cls-2" d="M19,20.66h0c-.07,0,.11,0,.09,0H19Z"/><path class="cls-2" d="M20.27,19.28h-.08a1,1,0,0,0,0-.25,1.22,1.22,0,0,0-.16-.6l.07-.05.22-.18,0,0a.49.49,0,0,0-.08-.12,1.53,1.53,0,0,0-.13-.15L20,17.8l0,0,0,0a1.88,1.88,0,0,0-.37-.22l-.13-.05h-.05l-.12.26a.69.69,0,0,1-.05.13l-.2,0a.83.83,0,0,0-.22,0c0-.06,0-.12,0-.17s-.08-.27-.08-.27h-.05l-.14,0-.09,0-.1,0a1,1,0,0,0-.2.11,1.27,1.27,0,0,0-.19.13l-.08.07-.06.06-.1.11,0,0s.08.09.2.2a1.29,1.29,0,0,0,.17.15,1.14,1.14,0,0,0-.15.34l-.23,0-.28,0v.08h0v0a1.41,1.41,0,0,1,0,.2v.18s0,.08,0,.12a.43.43,0,0,0,0,.11l0,.11a1,1,0,0,0,.08.18.81.81,0,0,0,.06.13l0,0,.26-.11.19-.11a1.2,1.2,0,0,0,.26.29c0,.07-.07.13-.09.18l-.09.19,0,.07.05,0,.12.06.09.05.1,0,.05,0h.05l.11,0h.44l.14,0h.05v-.07c0-.05,0-.12,0-.21a.71.71,0,0,0,0-.14,1.28,1.28,0,0,0,.4-.15l.08.09a2.26,2.26,0,0,0,.2.21l0,0,0,0a.34.34,0,0,1,.06-.06,1.33,1.33,0,0,0,.27-.33,1.44,1.44,0,0,0,.18-.38l0-.14v0h0Z"/></g></g></svg>