<svg xmlns="http://www.w3.org/2000/svg" viewBox="0 0 28.99 28.99"><defs><style>.cls-1{fill:#fff;}.cls-2{fill:#69bffe;}</style></defs><title>资源 6</title><g id="图层_2" data-name="图层 2"><g id="央铋_1" data-name="央铋 1"><path class="cls-1" d="M14.5,29A14.5,14.5,0,1,1,29,14.5,14.51,14.51,0,0,1,14.5,29ZM14.5.55a13.95,13.95,0,1,0,13.94,14A14,14,0,0,0,14.5.55Z"/><path class="cls-1" d="M14.5,25A10.55,10.55,0,1,1,25,14.5,10.56,10.56,0,0,1,14.5,25Zm0-20.81A10.27,10.27,0,1,0,24.77,14.5,10.27,10.27,0,0,0,14.5,4.23Z"/><path class="cls-2" d="M5.62,10.21l-1-.48A10.9,10.9,0,0,1,13,3.64l.15,1.09A9.81,9.81,0,0,0,5.62,10.21Z"/><path class="cls-2" d="M14.5,25.45a11,11,0,0,1-11-10.95h1.1a9.86,9.86,0,0,0,9.86,9.85Z"/><path class="cls-2" d="M19.6,24.2l-.52-1c.34-.18.67-.38,1-.59l.62.91C20.34,23.77,20,24,19.6,24.2Z"/><path class="cls-2" d="M22.32,22.17l-.79-.77a9.81,9.81,0,0,0,2.82-6.9h1.1A10.9,10.9,0,0,1,22.32,22.17Z"/><path class="cls-2" d="M23,9.53a9.68,9.68,0,0,0-1.68-2.14l.76-.79A11,11,0,0,1,24,9Z"/><path class="cls-2" d="M18.05,5.3a9.8,9.8,0,0,0-3.55-.66V3.54a11,11,0,0,1,3.94.73Z"/></g></g></svg>