<svg xmlns="http://www.w3.org/2000/svg" viewBox="0 0 20.87 180.13"><defs><style>.cls-1{fill:#feb113;}.cls-2{fill:#00b3ea;}</style></defs><title>资源 1</title><g id="图层_2" data-name="图层 2"><g id="Layer_1" data-name="Layer 1"><polygon class="cls-1" points="6.44 174.38 20.72 174.38 20.86 180.13 6.44 180.13 6.44 174.38"/><polygon class="cls-1" points="6.44 161.93 20.41 161.93 20.55 167.68 6.44 167.68 6.44 161.93"/><polygon class="cls-1" points="6.44 149.47 20.1 149.47 20.25 155.22 6.44 155.22 6.44 149.47"/><polygon class="cls-1" points="6.44 137.02 19.79 137.02 19.94 142.76 6.44 142.76 6.44 137.02"/><polygon class="cls-1" points="6.44 124.56 19.49 124.56 19.63 130.31 6.44 130.31 6.44 124.56"/><polygon class="cls-1" points="6.44 112.1 19.18 112.1 19.32 117.85 6.44 117.85 6.44 112.1"/><polygon class="cls-1" points="6.44 99.64 18.87 99.64 19.01 105.39 6.44 105.39 6.44 99.64"/><polygon class="cls-1" points="6.44 87.19 18.57 87.19 18.71 92.94 6.44 92.94 6.44 87.19"/><polygon class="cls-1" points="6.44 74.73 18.26 74.73 18.4 80.48 6.44 80.48 6.44 74.73"/><polygon class="cls-1" points="6.44 62.27 17.95 62.27 18.09 68.03 6.44 68.03 6.44 62.27"/><polygon class="cls-1" points="6.44 49.82 17.64 49.82 17.79 55.57 6.44 55.57 6.44 49.82"/><polygon class="cls-1" points="6.44 37.37 17.33 37.37 17.48 43.12 6.44 43.12 6.44 37.37"/><polygon class="cls-1" points="6.44 24.91 17.02 24.91 17.16 30.66 6.44 30.66 6.44 24.91"/><polygon class="cls-1" points="6.44 12.45 16.72 12.45 16.86 18.2 6.44 18.2 6.44 12.45"/><polygon class="cls-1" points="6.44 0 16.41 0 16.55 5.75 6.44 5.75 6.44 0"/><rect class="cls-2" width="3.26" height="180.13"/></g></g></svg>