<svg xmlns="http://www.w3.org/2000/svg" viewBox="0 0 90.31 86.68"><defs><style>.cls-1{fill:#fff;}</style></defs><title>资源 23</title><g id="图层_2" data-name="图层 2"><g id="Elements"><path class="cls-1" d="M45.19,86.68a43.28,43.28,0,1,1,18.36-4.14A43.16,43.16,0,0,1,45.19,86.68ZM45.13,1.27A42.19,42.19,0,0,0,30.88,83.16,42.18,42.18,0,0,0,83.32,25.5,42.27,42.27,0,0,0,45.13,1.27Z"/><path class="cls-1" d="M45.18,72.15a28.71,28.71,0,0,1-27-38.38h0a28.63,28.63,0,1,1,27,38.38Zm-26-38A27.66,27.66,0,1,0,54.52,17.45,27.7,27.7,0,0,0,19.13,34.11Z"/><path class="cls-1" d="M19.75,80.8A45.15,45.15,0,0,1,33,0l1.35,4.81A40.16,40.16,0,0,0,22.56,76.66Z"/><path class="cls-1" d="M90.23,46.12l-5-.3A40.1,40.1,0,0,0,77,19l4-3.05a45.21,45.21,0,0,1,9.31,30.21Z"/><path class="cls-1" d="M60.79,85.83l-1.73-4.69a40.18,40.18,0,0,0,23.78-23.8l4.69,1.72A45.16,45.16,0,0,1,60.79,85.83Z"/><rect class="cls-1" x="44.66" y="7.21" width="1" height="3.02"/><rect class="cls-1" x="14.56" y="24.59" width="1" height="3.02" transform="translate(-15.07 26.08) rotate(-59.99)"/><rect class="cls-1" x="11.09" y="32.97" width="1" height="3.02" transform="translate(-24.72 36.75) rotate(-75.01)"/><rect class="cls-1" x="8.89" y="42.97" width="3.02" height="1"/><rect class="cls-1" x="10.08" y="51.97" width="3.02" height="1" transform="translate(-13.23 4.81) rotate(-15.05)"/><rect class="cls-1" x="13.55" y="60.35" width="3.02" height="1" transform="translate(-28.4 15.68) rotate(-29.99)"/><rect class="cls-1" x="44.66" y="76.72" width="1" height="3.02"/><rect class="cls-1" x="74.76" y="59.34" width="1" height="3.02" transform="translate(-15.07 95.59) rotate(-59.99)"/><rect class="cls-1" x="78.23" y="50.96" width="1" height="3.02" transform="translate(7.67 114.93) rotate(-75)"/><rect class="cls-1" x="78.4" y="42.97" width="3.02" height="1"/><rect class="cls-1" x="77.22" y="33.98" width="3.02" height="1" transform="translate(-6.23 21.47) rotate(-14.95)"/><rect class="cls-1" x="73.75" y="25.6" width="3.02" height="1" transform="translate(-2.97 41.12) rotate(-29.99)"/></g></g></svg>