<svg xmlns="http://www.w3.org/2000/svg" viewBox="0 0 80 80"><defs><style>.cls-1{fill:#00b0ff;}</style></defs><title>资源 5</title><g id="图层_2" data-name="图层 2"><g id="Layer_1" data-name="Layer 1"><polygon class="cls-1" points="37.42 79.72 37.03 79.69 42.58 0.28 42.98 0.31 37.42 79.72"/><polygon class="cls-1" points="27.23 77.7 26.86 77.57 52.77 2.3 53.15 2.43 27.23 77.7"/><rect class="cls-1" x="0.2" y="39.8" width="79.6" height="0.4" transform="translate(-15.53 50.78) rotate(-55.99)"/><rect class="cls-1" x="0.2" y="39.8" width="79.6" height="0.4" transform="translate(-16.43 36.08) rotate(-41.02)"/><path class="cls-1" d="M4.32,57.63l-.18-.36L69.38,25.45c6.41-3.12,6.42-3.13,6.52-3.05l0,.33-22.49,11Z"/><rect class="cls-1" x="0.2" y="39.8" width="79.6" height="0.4" transform="translate(-6.88 8.34) rotate(-10.97)"/><polygon class="cls-1" points="79.69 42.98 0.28 37.42 0.31 37.03 79.72 42.58 79.69 42.98"/><rect class="cls-1" x="39.8" y="0.2" width="0.4" height="79.6" transform="translate(-10.84 64.8) rotate(-71)"/><rect class="cls-1" x="39.8" y="0.2" width="0.4" height="79.6" transform="translate(-15.53 50.79) rotate(-56)"/><path class="cls-1" d="M66,70.17c0-.07-3.78-4.36-9.43-10.85L13.74,10.09l.3-.26L63.71,67c2.64,3,2.64,3,2.58,3.15Z"/><polygon class="cls-1" points="57.27 75.86 22.38 4.32 22.73 4.14 57.63 75.69 57.27 75.86"/><rect class="cls-1" x="39.8" y="0.2" width="0.4" height="79.6" transform="translate(-6.9 8.37) rotate(-11)"/><path class="cls-1" d="M40,80A40,40,0,1,1,80,40,40,40,0,0,1,40,80ZM40,.4A39.6,39.6,0,1,0,79.6,40,39.64,39.64,0,0,0,40,.4Zm0,79.11A39.51,39.51,0,1,1,79.51,40,39.55,39.55,0,0,1,40,79.51ZM40,.89A39.11,39.11,0,1,0,79.11,40,39.15,39.15,0,0,0,40,.89Zm0,77.16A38.05,38.05,0,1,1,78.05,40,38.09,38.09,0,0,1,40,78.05Zm0-75.7A37.65,37.65,0,1,0,77.65,40,37.69,37.69,0,0,0,40,2.35Zm0,73.31A35.66,35.66,0,1,1,75.66,40,35.7,35.7,0,0,1,40,75.66ZM40,4.74A35.26,35.26,0,1,0,75.26,40,35.3,35.3,0,0,0,40,4.74ZM40,72.4A32.4,32.4,0,1,1,72.4,40,32.44,32.44,0,0,1,40,72.4ZM40,8A32,32,0,1,0,72,40,32,32,0,0,0,40,8Zm0,60.34A28.34,28.34,0,1,1,68.34,40,28.37,28.37,0,0,1,40,68.34Zm0-56.28A27.95,27.95,0,1,0,68,40,28,28,0,0,0,40,12.06Zm0,51.53A23.59,23.59,0,1,1,63.59,40,23.61,23.61,0,0,1,40,63.59ZM40,16.8A23.2,23.2,0,1,0,63.2,40,23.22,23.22,0,0,0,40,16.8Zm0,41.47A18.27,18.27,0,1,1,58.27,40,18.3,18.3,0,0,1,40,58.27Zm0-36.14A17.87,17.87,0,1,0,57.87,40,17.89,17.89,0,0,0,40,22.13ZM40,52.5A12.5,12.5,0,1,1,52.5,40,12.52,12.52,0,0,1,40,52.5Zm0-24.6A12.1,12.1,0,1,0,52.1,40,12.12,12.12,0,0,0,40,27.9Zm0,18.53A6.43,6.43,0,1,1,46.43,40,6.44,6.44,0,0,1,40,46.43ZM40,34a6,6,0,1,0,6,6A6,6,0,0,0,40,34Z"/></g></g></svg>