<svg xmlns="http://www.w3.org/2000/svg" viewBox="0 0 63.86 63.83"><defs><style>.cls-1,.cls-3{fill:#00b3ea;}.cls-1{opacity:0.2;}.cls-2{fill:#f39200;}.cls-4{fill:#1d71b8;}</style></defs><title>资源 3</title><g id="图层_2" data-name="图层 2"><g id="Layer_1" data-name="Layer 1"><path class="cls-1" d="M53.1,31.92A21.17,21.17,0,1,1,31.93,10.75,21.16,21.16,0,0,1,53.1,31.92Z"/><path class="cls-2" d="M10.1,31.92s0,.53.09,1.54c0,.25,0,.53.05.84s.1.63.16,1,.09.75.18,1.16.22.83.34,1.28a20.94,20.94,0,0,0,2.76,6.13,22.08,22.08,0,0,0,6.13,6.2,22.55,22.55,0,0,0,9.64,3.53c.46.07.92,0,1.39.09a13.28,13.28,0,0,0,1.41,0,22.42,22.42,0,0,0,8.51-1.86,23.54,23.54,0,0,0,5.18-3.22A24.1,24.1,0,0,0,50.11,44a23.92,23.92,0,0,0,2.7-5.74,24.46,24.46,0,0,0,.94-6.32,24.47,24.47,0,0,0-.94-6.33,23.92,23.92,0,0,0-2.7-5.74,24.1,24.1,0,0,0-4.17-4.66A23.54,23.54,0,0,0,40.76,12a21,21,0,0,0-5.65-1.61,19.85,19.85,0,0,0-2.86-.25,13.28,13.28,0,0,0-1.41,0c-.47,0-.93,0-1.39.09a22.55,22.55,0,0,0-9.64,3.53A22.08,22.08,0,0,0,13.68,20a20.94,20.94,0,0,0-2.76,6.13c-.12.45-.23.88-.34,1.28s-.12.8-.18,1.16-.11.69-.16,1,0,.59-.05.84c-.06,1-.09,1.55-.09,1.55H8.74s0-.57.08-1.64c0-.27,0-.57.06-.89s.11-.68.17-1.06.1-.8.19-1.23.23-.89.36-1.37a22.56,22.56,0,0,1,2.93-6.51A23.13,23.13,0,0,1,29.3,8.88a14.32,14.32,0,0,1,1.47-.09,12.53,12.53,0,0,1,1.5,0,22.13,22.13,0,0,1,3,.26,22.54,22.54,0,0,1,6,1.72,24.75,24.75,0,0,1,5.5,3.43,25.26,25.26,0,0,1,4.43,5,25.34,25.34,0,0,1,2.87,6.09,25.84,25.84,0,0,1,1,6.73,25.77,25.77,0,0,1-1,6.72,25.34,25.34,0,0,1-2.87,6.09,25.26,25.26,0,0,1-4.43,5,24.75,24.75,0,0,1-5.5,3.43,22.54,22.54,0,0,1-6,1.72,22.13,22.13,0,0,1-3,.26,12.53,12.53,0,0,1-1.5-.05A14.32,14.32,0,0,1,29.3,55,23.13,23.13,0,0,1,12.53,44.61,22.44,22.44,0,0,1,9.6,38.1c-.13-.48-.25-.94-.36-1.37s-.13-.85-.19-1.23-.12-.73-.17-1.06,0-.62-.06-.89c-.05-1.07-.08-1.63-.08-1.63Z"/><path class="cls-3" d="M7.74,28.85s0,.19-.08.47,0,.67-.06,1.06l-.08,1.54H3.19s0-.91.09-1.81c0-.45,0-.91.07-1.24s.09-.56.09-.56Z"/><path class="cls-3" d="M8.81,24.13c-.09,0-.81,3-.81,3l-4.25-.85s0-.23.13-.56.2-.76.31-1.2.22-.88.32-1.2.19-.54.19-.54Z"/><path class="cls-3" d="M10.8,19.73c-.08,0-1.38,2.74-1.38,2.74l-4-1.68S7,17.51,7.05,17.56Z"/><path class="cls-3" d="M13.63,15.81c-.07-.06-1.9,2.41-1.9,2.41L8.14,15.79l1.08-1.46a12.57,12.57,0,0,1,1.16-1.39Z"/><path class="cls-3" d="M17.17,12.51l-.38.29a7.15,7.15,0,0,0-.82.67l-1.14,1-3-3.09,1.34-1.22a8.79,8.79,0,0,1,.95-.8l.45-.34Z"/><path class="cls-3" d="M21.29,10l-.43.21a7.17,7.17,0,0,0-.94.49l-1.31.8L16.24,7.85l1.55-.94a8.5,8.5,0,0,1,1.09-.58l.51-.25Z"/><path class="cls-3" d="M25.82,8.31l-.46.12a6.93,6.93,0,0,0-1,.3l-1.44.52-1.6-4L23,4.61a8.79,8.79,0,0,1,1.19-.35l.55-.14Z"/><path class="cls-3" d="M30.6,7.58l-.48,0a7,7,0,0,0-1.05.09l-1.52.23-.78-4.26,1.79-.27a8.58,8.58,0,0,1,1.24-.11l.57,0Z"/><path class="cls-3" d="M35.43,7.79,35,7.72a5.29,5.29,0,0,0-1.05-.11l-1.54-.08.08-4.33,1.81.09a8.15,8.15,0,0,1,1.23.13l.56.08Z"/><path class="cls-3" d="M40.12,9l-.45-.16a5.9,5.9,0,0,0-1-.32l-1.49-.38.93-4.23,1.75.45a8,8,0,0,1,1.19.37l.53.19Z"/><path class="cls-3" d="M44.49,11l-.41-.25a7.59,7.59,0,0,0-.92-.51l-1.39-.67,1.75-4,1.63.78A9.46,9.46,0,0,1,46.24,7l.49.29Z"/><path class="cls-3" d="M48.37,13.91,48,13.59a8.7,8.7,0,0,0-.8-.69L46,12l2.5-3.54,1.45,1.08c.37.26.68.6.94.81l.42.39Z"/><path class="cls-3" d="M51.6,17.51s-.45-.62-.93-1.22l-1-1.14,3.15-3L54,13.51c.57.7,1.1,1.44,1.1,1.44Z"/><path class="cls-3" d="M54.06,21.67s-.33-.69-.67-1.38L52.59,19l3.67-2.3.94,1.55L58,19.85Z"/><path class="cls-3" d="M55.64,26.24l-.38-1.49-.52-1.45,4-1.53s.33.85.61,1.71l.46,1.75Z"/><path class="cls-3" d="M56.29,31l-.08-1.54L56,28l4.27-.69s.13.89.27,1.79.09,1.81.09,1.81Z"/><path class="cls-3" d="M56,35.86l.22-1.52.08-1.54,4.33.16s0,.9-.09,1.8-.27,1.79-.27,1.79Z"/><path class="cls-3" d="M54.74,40.53l.52-1.45.38-1.49,4.22,1-.46,1.75c-.28.86-.61,1.71-.61,1.71Z"/><path class="cls-3" d="M52.59,44.86l.8-1.32c.34-.69.67-1.38.67-1.38L58,44l-.79,1.63-.94,1.55Z"/><path class="cls-3" d="M49.63,48.68l1-1.14c.48-.6.93-1.22.93-1.22l3.49,2.56s-.53.74-1.1,1.44l-1.21,1.34Z"/><path class="cls-3" d="M46,51.85l1.23-.92a7.4,7.4,0,0,0,.8-.69l.36-.32,2.92,3.2-.42.38c-.26.21-.57.55-.94.81l-1.45,1.08Z"/><path class="cls-3" d="M41.77,54.24l1.39-.67a7.59,7.59,0,0,0,.92-.51l.41-.25,2.24,3.71-.49.29a9.46,9.46,0,0,1-1.09.61l-1.63.78Z"/><path class="cls-3" d="M37.18,55.74l1.49-.38a6,6,0,0,0,1-.31l.45-.17L41.58,59l-.53.19a8,8,0,0,1-1.19.37L38.11,60Z"/><path class="cls-3" d="M32.37,56.3l1.54-.08A5.29,5.29,0,0,0,35,56.11l.47-.07.62,4.29-.56.08a8.15,8.15,0,0,1-1.23.13l-1.81.09Z"/><path class="cls-3" d="M27.55,55.91l1.52.23a7,7,0,0,0,1.05.09l.48,0-.23,4.33-.57,0a8.58,8.58,0,0,1-1.24-.11l-1.79-.27Z"/><path class="cls-3" d="M22.9,54.58l1.44.53a8.22,8.22,0,0,0,1,.29l.46.12-1.08,4.2-.55-.15A8.79,8.79,0,0,1,23,59.22l-1.7-.62Z"/><path class="cls-3" d="M18.61,52.35l1.31.8a7.34,7.34,0,0,0,.94.5l.43.2-1.9,3.9-.51-.25a8.5,8.5,0,0,1-1.09-.58L16.24,56Z"/><path class="cls-3" d="M14.83,49.32l1.14,1a7.15,7.15,0,0,0,.82.67l.38.29-2.63,3.45-.45-.34a7.77,7.77,0,0,1-.95-.8L11.8,52.41Z"/><path class="cls-3" d="M11.73,45.61s1.83,2.47,1.9,2.42l-3.25,2.86A12.57,12.57,0,0,1,9.22,49.5L8.14,48.05Z"/><path class="cls-3" d="M9.42,41.36s1.3,2.78,1.38,2.74L7.05,46.27C7,46.32,5.42,43,5.42,43Z"/><path class="cls-3" d="M8,36.73s.72,3,.81,3L4.7,41.08s-.07-.21-.19-.53-.2-.77-.32-1.21-.22-.87-.31-1.2-.13-.56-.13-.56Z"/><path class="cls-3" d="M7.52,31.92l.08,1.53c0,.39,0,.77.06,1.06s.08.47.08.47l-4.3.54s0-.22-.09-.56-.05-.79-.07-1.24c0-.9-.09-1.8-.09-1.8Z"/><path class="cls-4" d="M40.74,1.24S39.85,1,38.28.62L35.39.18C34.28.09,33,0,31.63,0a34.06,34.06,0,0,0-9.31,1.47,31.87,31.87,0,0,0-9.58,5,32.45,32.45,0,0,0-7.41,7.83,33,33,0,0,0-4,8.54A33.65,33.65,0,0,0,.12,29.38L0,31.92H1.94l.11-2.38a31.54,31.54,0,0,1,1.14-6.17,31.05,31.05,0,0,1,3.75-8,30.42,30.42,0,0,1,16-12,32.38,32.38,0,0,1,8.75-1.37c1.29,0,2.49.08,3.54.17l2.7.41,2.32.59Z"/><path class="cls-4" d="M51.12,57.39l.53-.39.63-.49.8-.72a23.65,23.65,0,0,0,2.09-2l1.2-1.33c.42-.47.79-1,1.22-1.57a31.79,31.79,0,0,0,0-37.91c-.43-.55-.8-1.1-1.22-1.57l-1.2-1.33a23.65,23.65,0,0,0-2.09-2l-.8-.72-.63-.48-.53-.4L50,8l.49.38.6.45.75.68a23.84,23.84,0,0,1,2,1.9l1.13,1.25c.39.44.74,1,1.14,1.47a29.86,29.86,0,0,1,0,35.61c-.4.51-.75,1-1.14,1.47l-1.13,1.25a22.29,22.29,0,0,1-2,1.9l-.75.68-.6.45-.5.38Z"/><path class="cls-4" d="M0,31.92s0,.92.12,2.53A33.65,33.65,0,0,0,1.33,41a33,33,0,0,0,4,8.54,32.39,32.39,0,0,0,17,12.81,34.41,34.41,0,0,0,9.31,1.46c1.38,0,2.65-.09,3.76-.18l2.88-.44c1.58-.38,2.47-.62,2.47-.62l-.54-1.86-2.31.58-2.7.41c-1,.09-2.25.16-3.54.17a32,32,0,0,1-8.75-1.37,30.45,30.45,0,0,1-9-4.67,30.83,30.83,0,0,1-7-7.36,31.05,31.05,0,0,1-3.75-8,31.54,31.54,0,0,1-1.14-6.17l-.11-2.37Z"/></g></g></svg>