<svg xmlns="http://www.w3.org/2000/svg" viewBox="0 0 694.15 752.59"><defs><style>.cls-1{isolation:isolate;}.cls-2,.cls-3,.cls-4,.cls-5,.cls-6{fill:none;stroke:#6cc2ff;stroke-miterlimit:10;}.cls-2{stroke-width:0.27px;}.cls-2,.cls-3,.cls-4,.cls-5,.cls-6,.cls-8{mix-blend-mode:color-dodge;}.cls-3{stroke-width:1.09px;}.cls-4{stroke-width:0.54px;}.cls-6{stroke-width:2px;}.cls-7{opacity:0.1;}.cls-8{fill:#15edff;}</style></defs><title>资源 2</title><g class="cls-1"><g id="图层_2" data-name="图层 2"><g id="图层_6_复制_3" data-name="图层 6_复制_3"><path class="cls-2" d="M367.83,505c-.11-6.47-.6-31.94-.68-35.62l-6.74-.08c.11-3.12.23-6.25.34-9.37-1.08,0-2.17-.1-3.26-.18-1.32,19.64-2.39,35.24-3.06,44.88,4,.12,9.38.42,13.4.37"/><path class="cls-2" d="M207.75,319.43c19.82,6.8,41.33,14.24,63.93,22.11-1.34,4.59-3,10.74-4.05,15.4l12.18,2.46a104.09,104.09,0,0,1,12.56-33.3L223.58,285a182.66,182.66,0,0,0-15.83,34.48"/><path class="cls-2" d="M523,416.5q-2,7.25-4.58,14.22l-9.87-3.66,4.33-13.43L523,416.5"/><path class="cls-2" d="M514.69,416l-19.19-5.38c-10.19-2.84-14.86-4.14-25-6.94l-2,6.43-1.86-.63-.79,2.24c16.74,6.08,29.75,10.85,44.92,16.45L514.69,416"/><path class="cls-2" d="M500.34,353.44c-20.48,2.94-38.23,5.54-47,6.83a101.83,101.83,0,0,1,1,17.35c11.59.26,27.46.64,47.44,1.19-.19-15.7-.2-16.31-1.45-25.37"/><path class="cls-2" d="M228.89,292.26l60,35.9c1.29-2.19,2.67-4.31,4.12-6.37L236.19,281q-3.87,5.46-7.3,11.24"/><path class="cls-2" d="M240.92,487c8.06-7.31,51.61-46.84,59.63-54.14h0Q270.75,460,240.92,487h0"/><path class="cls-2" d="M428,454.31c-4.27,3-10.09,6.74-14.56,9.38l-4.5-8.18a110.77,110.77,0,0,0,13.4-8.63c3.26,4.29,3.26,4.29,5.66,7.43"/><path class="cls-2" d="M464.78,409.12l-16.1-5.45c-.22.64-.44,1.28-.68,1.91l16,5.79.79-2.25"/><path class="cls-2" d="M420.21,528c-3.88-11.1-6.61-18.89-11.65-33.17l-.06,0c4.31,12.23,7.68,21.84,11.64,33.18l.07,0"/><path class="cls-2" d="M370.91,535.82c-.17-11.75-.37-23.83-.58-35.92-3.77-.1-8.79-.09-12.55-.35-.88,12.65-1.49,21.24-2.54,35.83q7.89.57,15.67.44"/><path class="cls-2" d="M496.47,341l-4.09,1,2.08,10.33,4.15-.68L496.47,341"/><path class="cls-2" d="M450.39,269.36c-6,7.29-22.33,27-27.25,33a101.91,101.91,0,0,1,25.1,30.69c6.88-3.66,19.69-10.48,37.78-20.06-7-12.05-15.75-27.06-35.63-43.63"/><path class="cls-2" d="M450,272.24l-2.54,3.07c9.85,8.79,22.11,19.72,33.72,41.3l3.52-1.87c-6.83-11.74-15.33-26.36-34.7-42.5"/><path class="cls-2" d="M373.43,471.48c-.37-4.88-.4-5.21-.68-8.81-1.92.14-3.86.23-5.8.26l.18,8.83,6.3-.28"/><path class="cls-2" d="M367.15,474.13c-.09-4.85-.09-4.85-.17-8.48-1.86,0-3.73,0-5.61-.07-.19,5.12-.19,5.12-.31,8.47l6.09.08"/><path class="cls-2" d="M419.32,221.8l-11.55,31.88,5.52,2.12,12.92-31.37-6.89-2.63"/><path class="cls-2" d="M248,481.89q27.21-24.67,54.4-49.38c-1.79-1.95-3.49-4-5.11-6.07L239,471.17q4.27,5.54,9,10.72"/><path class="cls-2" d="M492.58,331.63c-12.24,4.15-23.16,7.85-42.77,14.56q1.57,4.63,2.73,9.42c6.28-1.53,23-5.59,43.91-10.6-1.13-4-2.55-9.41-3.87-13.38"/><path class="cls-2" d="M493.64,337.17c11.07-3.19,21.25-6.1,31.14-8.92-.8-2.76-1.66-5.51-2.58-8.22-9.85,3.3-18.67,6.26-34.9,11.75,1.19,4,2.86,9.28,3.86,13.32l4.31-1-1.83-6.9"/><path class="cls-2" d="M460.05,443l-6.58-4.66c-2.1,2.7-4.86,6.35-7.09,8.95l6.08,5.28c2.31-2.85,5.42-6.62,7.59-9.57"/><path class="cls-2" d="M440.36,440.31l7.25,6.29c2.39-2.94,5.61-6.84,7.84-9.89l-15.51-11a108.11,108.11,0,0,1-10.78,12.86l6.74,6.52,4.46-4.82"/><path class="cls-2" d="M474.13,496.55l-6.19-7.45-6.51,5.15c-8.57-11.42-16.83-22.37-29.25-38.74-4.19,2.91-9.92,6.62-14.31,9.21-2.5-4.51-2.5-4.51-4.18-7.61l-3.76,1.95c10.85,21.74,20.28,40.78,29.67,59.95a175.37,175.37,0,0,0,34.53-22.46"/><path class="cls-2" d="M465.37,491.73c-6.86-8.23-12.89-15.43-12.95-15.51,10.8-9.72,11-9.9,16-15.64l-15.22-13.26-4.68,5.05c-3.28-3.2-3.88-3.78-5.78-5.62-3.79,3.59-9,8.19-13.07,11.48,7.14,9.42,16.92,22.32,29.17,38.64l6.49-5.14"/><path class="cls-2" d="M432.61,460.38c-1.72-2.25-3.43-4.51-5.15-6.77-3.79,2.64-9,6-12.94,8.34q2.06,3.72,4.09,7.45c4.29-2.56,9.91-6.15,14-9"/><path class="cls-2" d="M443.28,447.74,437,441.68c-3.51,3.33-8.36,7.59-12.11,10.64l5.25,6.92c4.06-3.31,9.31-7.91,13.11-11.5"/><path class="cls-2" d="M455.18,448.88,449,443.47l-4.48,4.83,5.92,5.75,4.79-5.17"/><path class="cls-2" d="M447,447c-4.07-3.52-4.07-3.52-7-6.05l-4.3,4.64,6.63,6.42,4.64-5"/><path class="cls-2" d="M291.7,520.61c10.36-19.57,19.6-37.06,33.64-63.75-9.22-5.3-11.69-6.73-21.81-14.85-15.42,17.82-35.41,40.89-47.19,54.47a187.91,187.91,0,0,0,35.36,24.13"/><path class="cls-2" d="M289.27,519.25c12.46-24.13,23.37-45.36,30.33-58.92l-.94-.49c-10.62,20.18-21,39.9-30.93,58.61l1.54.8"/><path class="cls-2" d="M336,213.34c2.7,14.79,4.64,25.47,8.89,49,14.83-2.14,15.41-2.22,28.91-2.15.92-24.62,1.1-29.5,1.84-49.81A182.84,182.84,0,0,0,336,213.34"/><path class="cls-2" d="M333.63,218.13c4.51,21.43,9.12,43.58,9.32,44.51l3.23-.64c-3.71-20.61-6.46-35.71-8.11-44.75-1.48.27-3,.57-4.44.88"/><path class="cls-2" d="M524.37,349.33c-9.53,1.52-19.12,3.06-28.5,4.59l.4,2.63c12.54-1.8,22.46-3.19,28.58-4.05-.15-1.06-.31-2.12-.48-3.17"/><path class="cls-2" d="M525.35,333.68c-13.34,3.15-16.33,3.86-31.58,7.49L496,352.39c10.79-1.75,22.47-3.63,32.05-5.16q-1.12-6.84-2.73-13.55"/><path class="cls-2" d="M522.56,328.83c-9.44,2.69-17.82,5.08-30.42,8.71l1.79,6.75c5.69-1.36,16.29-3.89,30.78-7.31-.65-2.74-1.37-5.45-2.15-8.15"/><path class="cls-2" d="M206,341.46c7.41,1.46,30,5.91,64.61,12.88,1.06-4.53,2.58-10.55,3.95-15-16.82-5.85-37.37-13-62.3-21.55A176.92,176.92,0,0,0,206,341.46"/><path class="cls-2" d="M251.34,375h14.51l.07-4.73-14.49-.63-.09,5.36"/><path class="cls-2" d="M504.1,455.11l-8.56-5.24c-9.7,14.61-10.08,15.19-17.41,23.69l7.54,6.63a179.61,179.61,0,0,0,18.43-25.08"/><path class="cls-2" d="M498.05,454.43c-6.25-3.81-9.39-5.73-17.28-10.51-8.19,12.34-8.51,12.82-14.69,20,5.58,4.88,10.7,9.36,15.21,13.32,10.42-12.85,11-13.61,16.76-22.81"/><path class="cls-2" d="M486.5,480.65l-6.75-5.95c-10.83,11.42-10.83,11.42-17.06,16.62l5.76,6.92a162,162,0,0,0,18.05-17.59"/><path class="cls-2" d="M482.32,471.4c-2.37-2.08-8.64-7.58-16-14-10.71,11.3-10.71,11.3-16.87,16.45,5.47,6.54,7.52,9,13.61,16.3,12.95-11.66,13.2-11.88,19.25-18.75"/><path class="cls-2" d="M258.21,410.18c-15,5.13-26.23,9-45.75,15.72a183.54,183.54,0,0,0,14.69,31.92l45.18-26c-7-13.14-7.13-13.39-11.91-27l-3.61,1.11,1.4,4.24"/><path class="cls-2" d="M213.89,428.13c14.12-4.87,24.34-8.38,44.24-15.21l-1.36-4.09-44.71,13.74c.58,1.86,1.19,3.72,1.83,5.56"/><polyline class="cls-2" points="471.26 405.17 469.38 404.65 467.42 410.96 469.27 411.59 471.26 405.17"/><path class="cls-2" d="M475.74,381.08l-19.39-1.62c-.08.86-.16,1.72-.26,2.59l17.34,1.9c-.86,5.52-2.27,12.84-3.55,18.27l1.94.53c2.66-11.35,3.07-13.1,3.92-21.67"/><path class="cls-2" d="M469.8,403.27l-17.41-4.79q-.79,2.91-1.77,5.73l17.1,5.79,2.08-6.73"/><path class="cls-2" d="M470.64,387.35l-16.77-1.85c-.09.78-.19,1.55-.29,2.32A97.65,97.65,0,0,1,451,400.55q8.13,2.22,16.26,4.47c1.23-5.26,2.61-12.33,3.43-17.67"/><path class="cls-2" d="M362.88,442.29c.38-11,.38-11,.64-18.81l3.56,0,0-1c-1.6,0-3.74,0-5.34-.14q-.63,9.9-1.27,19.8l2.44.13"/><path class="cls-2" d="M361.38,465.57c.5-14.39.5-14.39.84-24.38l-2.26-.12q-.78,12.17-1.58,24.33c1,.07,2,.13,3,.17"/><path class="cls-2" d="M417.4,389.58,416,394l-3-1.08,1.35-4.2,3.12.84"/><path class="cls-2" d="M417.78,378.44l3,.32L421,377c15.75,1.25,15.75,1.25,31,2.49l.33-5.8,5.93.13a102.09,102.09,0,0,0-1-17.46c-10.11,1.5-22.69,3.37-43.09,6.45a62.07,62.07,0,0,1-1.58,24.56l3.34.9c.69-2.94,1.46-6.89,1.91-9.87"/><path class="cls-2" d="M457.19,375.35l-6.16-.13-.35,6,6.14.5c.19-2.14.31-4.28.37-6.4"/><path class="cls-2" d="M288.26,328.5l4.5,2.7c1.21-1.88,2.77-4.43,4.06-6.27l-4.26-3.06q-2.28,3.21-4.3,6.63"/><path class="cls-2" d="M453.77,403.68a94.6,94.6,0,0,1-11.9,22.57l-4.49-3.15c5-7.66,7.33-11.16,11.22-21.27l5.17,1.85m-21.39,33.89a96.57,96.57,0,0,1-10.81,9.5l-3.33-4.35c3.16-2.57,7.25-6.15,10.2-9l3.94,3.81"/><path class="cls-2" d="M446.81,403c-11-3.69-14.72-4.94-26.23-8.78l1-3.28-2.6-.7-1.36,4.24c11.18,4,16.21,5.78,28.58,10.23l.6-1.71"/><path class="cls-2" d="M453.07,406.72l-5.54-1.86-.67,1.89,5.5,2c.24-.67.48-1.33.71-2"/><path class="cls-2" d="M425.94,381.07l-3.09-.32c-.47,3.06-1.24,7.11-2,10.12l3,.81c.74-3.16,1.56-7.4,2.05-10.61"/><path class="cls-2" d="M371.41,441.18q-.69-8.52-1.37-17l-3.2.14c.12,4.56.34,14,.41,17.07l4.16-.18"/><path class="cls-2" d="M365.55,444.78q-.23-9.37-.44-18.76l-3.55,0-.63,18.75,4.62,0"/><path class="cls-2" d="M371.18,466c-1-13-1.05-13.24-1.79-22.5l-3.94.18c.05,1.83.51,22.46.51,22.55,1.75,0,3.49-.1,5.22-.23"/><path class="cls-2" d="M364.45,466.4c-.27-12.68-.51-22.71-.51-22.8l-4-.05q-.39,11.4-.79,22.79c1.78.07,3.56.09,5.32.06"/><path class="cls-2" d="M278.77,400.8c12.28-3.78,30.62-9.39,38.37-11.75-1.69-6.23-2.71-10.58-2.51-18.6-21.49-1-21.49-1-40.17-1.77a95.45,95.45,0,0,0,4.31,32.12"/><path class="cls-2" d="M452.84,345.49l-2.25.77c.84,2.81,2,6.55,2.73,9.4l2.31-.57c-.78-3.25-1.71-6.46-2.79-9.6"/><path class="cls-2" d="M411.78,409.41l-2.66-1.86c-3.54,4.58-3.54,4.58-5.58,6.66l2.35,2.24c4.1-4.53,4.1-4.53,5.89-7"/><path class="cls-2" d="M437.51,421.91c-7-5-15-10.56-27.23-19.09-3.89,5-3.89,5-6.13,7.32,10.07,9.66,13.1,12.58,23.93,23,6.57-7.24,6.57-7.24,9.43-11.24"/><path class="cls-2" d="M440.56,424.88l-5-3.53c-6.37,8.22-6.37,8.22-10,11.95l4.42,4.27a107.75,107.75,0,0,0,10.63-12.69"/><path class="cls-2" d="M390.58,452.88c-1.29-4.54-3-10.61-4.29-15.15-7.59,1.78-8.05,1.88-13.23,2.41.47,4.7,1.08,11,1.54,15.66,9.56-1.26,9.94-1.31,16-2.92"/><path class="cls-2" d="M452.77,384c-15.87-1.29-15.87-1.29-31.13-2.51l-.18,1.73c15.88,1.68,15.88,1.68,31.06,3.31l.25-2.53"/><path class="cls-2" d="M456.4,382.71l-5.7-.47-.25,2.44,5.69.62c.1-.87.18-1.73.26-2.59"/><path class="cls-2" d="M450.55,395.78c-14.17-3.86-25.74-7-31.38-8.51L418,391.12c15.55,5.19,15.55,5.19,30.83,10.32l1.74-5.66"/><path class="cls-2" d="M456,398.86l-5.49-1.5-1.61,5.2,5.4,1.81q.93-2.72,1.7-5.51"/><path class="cls-2" d="M449,384.33l-28.66-3.06c-.45,2.9-1.19,6.74-1.86,9.59,13.8,3.73,14.06,3.8,27.79,7.54,1-4.18,2.08-9.82,2.73-14.07"/><path class="cls-2" d="M459.31,385.21c.12-.85.22-1.69.32-2.53l-6-.65c-.73,4.68-1.92,10.89-3,15.5l5.84,1.6a107.28,107.28,0,0,0,2.87-13.92"/><path class="cls-2" d="M456.73,692c-34.75,8.52-36.83,9-61.55,11.76.13-1.82.17-2.31.24-5.13,35.13-4.87,37.23-5.16,60.76-11.64.36,2.63.42,3.1.55,5m-91.17,13.38-26.65-.71c.38-1.82.49-2.31.95-5.11l26.32.69c-.28,2.69-.33,3.18-.62,5.13"/><path class="cls-2" d="M676.93,364.32c-1,38.66-1.33,43.4-9.06,84.07-5.53-1.8-6-1.94-10.11-3.21,3.07-16.12,6.29-37.8,8-54.12,2.81.38,6.55.89,9.35,1.3.23-8.43.87-19.67.75-28.11l1,.07M694,366.48c-1,37.12-2.28,83.32-28,145.37a31.48,31.48,0,0,0-3.64-2.71C673.69,478.6,690.74,432.45,690,365.6a28.54,28.54,0,0,1,4,.88"/><path class="cls-2" d="M187.45,210.93l1.36,1.19c-14.26,17.15-22.12,26.59-33.82,48.36,4.43,2.29,5.44,2.8,10.7,5.53l5.34-9.5-6.91-4c3.24-5,7.4-11.79,10.84-16.66l6.55,4.55c6.28-8.14,15-18.71,21.89-26.36-4.76-4.49-8.1-7.62-10.05-9.45l-5.9,6.33"/><path class="cls-2" d="M153.76,648.27l1.44-1.57-18.68-17.65-.85.84c-25.68-28-27.78-30.3-42.7-51.29l.94-.72C86.61,566.5,77,551.25,70.34,539.47c1.94-1.2,2.52-1.55,5.2-3.14-13.41-27.46-24-49.15-34.14-88.73l-1.82.59c-3.11-15.22-6.84-35.61-8.91-51-1.08.23-2.51.55-3.59.81-.63-9.85-1.8-23-2-32.84,1.08-.17,2.51-.38,3.59-.53l.22-21.7a43.56,43.56,0,0,0-5.71.72c.07,50.85.27,185.9,130.59,304.62"/><path class="cls-2" d="M346.31,542.62c-20.55-3.76-20.95-3.83-31.87-7.27.91-2.85,2.14-6.63,3.05-9.48a184.78,184.78,0,0,0,30.23,6.9c-.42,3-1,6.89-1.41,9.85m-56.58-28.21-4.57,8.84,4.57-8.84"/><path class="cls-2" d="M193.29,344.27l4.08.8c1.71-7.23,4.15-16.84,6.34-23.94l7,2.42a172.89,172.89,0,0,1,15-32.6l-10-5.92c-8.89,16.48-16.57,30.72-22.44,59.24"/><path class="cls-2" d="M220.66,275.35l9.56,6.81a177,177,0,0,1,107.27-70.53q-1.2-5.74-2.42-11.47c-37.24,9.45-76.88,25.1-114.41,75.19"/><path class="cls-2" d="M159.82,270.37l6-10.71c7.62,4.42,11.16,6.48,19.89,11.59l-7.6,13.88c-6.64-3.31-10.65-5.32-18.55-9.22l2.32-4.47-2.07-1.07m17.83-28.86c7.08-9.17,16.93-21.09,24.68-29.71,6.48,6.13,9.28,8.79,16.65,15.81-7,7.88-16.06,18.71-22.49,27.09-8-5.61-12-8.45-18.84-13.19"/><path class="cls-2" d="M252.44,662.14l-16.83-8.07q4-7.64,8.09-15.27l16,7.65c-3.79,8.27-4.81,10.49-7.22,15.69m-64-38-.41-.32c1.95-2.53,9.14-11.83,10.56-13.68l.4.3-10.55,13.7m-6.74-5.3c-24.77-21.63-24.77-21.63-35.95-33.94,30.93-28.34,30.93-28.34,54.32-49.49,4.63,4.72,10.7,11.12,15.53,15.63-17.78,19.21-17.78,19.21-32.87,35.63l6.68,6-5.09,5.86,8.27,6.92c-3.24,4-9.24,11.4-10.89,13.42M158.17,472.71c-3.8-9.08-8.64-21.3-11.82-30.62l.13,0c9.93,28,16.71,45.41,40.43,77.73l-6.21,4.79c-16.63-23.38-16.95-23.83-29.51-48.61l7-3.25M133.45,285.46c4.07-10.79,9.92-25,14.77-35.49l11.71,5.75c-9.32,20.43-15.48,33.93-21.71,62.5l2.2.44c-3.53,21.75-6.08,37.46-4.57,66l-7.79.56c-.88-36.39,0-55.39,12.57-97.49l-7.18-2.31"/><path class="cls-2" d="M151.58,268.53q6.19,3,12.38,6.09l2.37-4.58q-6.12-3.18-12.26-6.33l-2.49,4.82"/><path class="cls-2" d="M190.1,606.7l10.67-13.81-6.06-4.77c-3.27,4-9.34,11.51-11,13.55l6.39,5"/><polyline class="cls-2" points="323.72 661.61 323.9 660.54 313.21 658.84 312.99 659.89 323.72 661.61"/><path class="cls-2" d="M141.64,331.43l2.26.45c6.1-24.77,9.17-37.2,22.09-63.59l-2.06-1c-10.59,23.19-15.9,34.83-22.29,64.16"/><polyline class="cls-2" points="164.97 271.32 166.99 272.32 169.24 267.98 167.24 266.94 164.97 271.32"/><path class="cls-2" d="M166.53,110.8a7,7,0,0,1,2.06,1.47c-.39-.33-.91-.77-1.32-1.08,7.58-5,17.54-11.88,25.31-16.55a4.19,4.19,0,0,0-.67-.42c-7.63,5-18,11.32-25.38,16.58"/><path class="cls-2" d="M216,284.56l3.5,2.07c2.53-3.91,5.77-9.22,8.46-13l-3.31-2.35c-2.61,4-6.21,9.22-8.65,13.31"/><path class="cls-2" d="M164.41,253.08l7.25,4.19c3.28-5.08,7.5-12,11-16.91l-6.87-4.77c-3.43,5.24-8.18,12.11-11.38,17.49"/><path class="cls-2" d="M219.67,285.55l10.2,6.05q3.8-6.42,8.09-12.45l-9.67-6.88c-2.59,4-6.19,9.2-8.62,13.28"/><path class="cls-2" d="M188.87,271.08c4.2,2.46,14,8.22,28,16.49,2.43-3.76,5.55-8.86,8.13-12.51-5.26-3.74-15.05-10.69-26.51-18.76-2.9,4.43-6.91,10.24-9.62,14.78"/><path class="cls-2" d="M244.64,482.12h0c-3.92,3.47-9.72,8.75-12.67,11.51l12.67-11.51"/><path class="cls-2" d="M232.49,632.83q4.14-7.77,8.25-15.56c-27.88-15.81-29-16.43-45.61-28.88q-5.37,7-10.75,14c27.05,19.06,28.67,20.2,48.11,30.48"/><path class="cls-2" d="M312.49,537.54l3-9.32A178.17,178.17,0,0,1,288.19,517c-1.35,2.61-3.14,6.09-4.49,8.69,17.65,8.2,18.34,8.52,28.79,11.9"/><path class="cls-2" d="M636.12,315.26l3.55,20.62c-11.8,1.23-11.8,1.23-31.55,3.44l-.23-1.67c18.56-2.2,19.29-2.29,31.31-3.62-5-27.68-5.55-30.57-12-50.59-9.84,3.05-9.84,3.05-30,9.38l-1-2.76c-5.89,1.95-16.84,5.58-36,12.13l.8,2.34-9.54,3.14c-7.31-19.08-7.59-19.82-13.21-30.44C561.52,265,573.15,259,598.58,246c4.27,8.78,9.85,20.54,13.58,29.56,11.16-4,18.53-6.67,29.07-10.3-4.33-10-10.22-23.32-15.15-33.06l6.28-3.06c14.35,29.63,20.29,41.89,29.72,81.75-6.49,1-12.62,2-26,4.4m-65.54,83.08c-1.57,9.45-4,22-6.28,31.32l-9.68-2.83c4.76-20.15,10.69-45.23,5.52-83l10-1.33.19,1.4-7.13.9c1.9,20.1,2.86,30.19.27,52.61l7.14,1m-4.37,122.2c-15.41,19.79-16.66,21.4-28.74,33.44l-2.29-2.45c29.55-31.18,62-70.9,73.22-147.86,16.85,2.55,27,4.08,41.63,6.56L651.68,393c3.61.4,8.43,1,12,1.39-1.6,14.88-4.52,34.63-7.32,49.33-7.89-2.32-19.82-5.82-45-12.39-11.31,41.29-18.31,56.75-41.59,91.93l-3.59-2.73m-7.06-74.94c-8.95,21.64-21.2,51.28-56.91,84-1.43-1.63-3.35-3.79-4.79-5.42,17.24-16.76,22.87-22.61,37.72-45.43l-2.44-1.53c9.5-17.05,11-19.67,17-35.19l9.43,3.59"/><path class="cls-2" d="M666,391.1l-4.5-.57c-1.7,15.81-4.81,36.82-7.78,52.44l4.38,1.33c3-15.86,6.18-37.16,7.9-53.2"/><path class="cls-2" d="M566.18,431.4l-10.52-3.08-5.32,16.5q5.13,1.94,10.25,3.9l5.59-17.32"/><path class="cls-3" d="M529.37,711.42l-15,6.92-.53-1.75,14.89-6.89.61,1.72c.16.47,74-29.84,139-117.21L667.16,593l3.21-4.53c1.09,1,2.53,2.39,3.58,3.43-33.09,43.65-66.73,83-143.51,122.77-.32-1-.74-2.29-1.07-3.27M341.49,752.05l-12.62-1c.3-1.62.69-3.78,1-5.41l12.45,1c-.23,1.63-.55,3.8-.8,5.43M39.19,550.56C23.62,518.69,15.8,502.69,5.92,464.14l4.36-1.29c4,14,9.78,32.55,14.74,46.24l-1.65.72c5.23,11.92,12.32,27.77,18.24,39.36l-2.42,1.39M.52,282.67C12.67,242,33,174,103.43,105.83c.73.59,1.71,1.38,2.43,2-37.92,39.53-71.45,78.86-97.7,159.93,3.73.77,4.86,1,10.68,2.35l-4.16,15c-5.08-.94-9.46-1.76-14.16-2.41M193.65,41.36C247.77,16.23,309.18-7.42,411.78,3.12c-.2,2.7-.4,5.5-1.14,13.09l-5-.59c.14-1.82.34-4.25.48-6.08-9.64-.68-22.47-1.92-32.13-2.18,0,1.84.08,4.29.1,6.13-10.37.16-24.2.15-34.55.81-.37-3.13-.83-7-1.31-10.4-32.66,3.64-82,9.14-142.95,40-.5-.75-1.15-1.76-1.66-2.5"/><path class="cls-2" d="M454.52,687.79c-34.93,8.58-37,9.1-61.87,11.85,0-1.51,0-3.53,0-5,47.45-6.59,59-9.61,103.14-26.87l.49,1.62c-12.55,4.9-29.42,11.15-42.27,15.23.15,1,.37,2.24.51,3.21m-91.64,13.49-26.79-.7c.23-1.51.53-3.52.74-5l26.44.68c-.11,1.52-.26,3.54-.39,5"/><path class="cls-2" d="M78.72,535.05c3.51-2,3.51-2,6-3.45C68.91,499.32,61,483.11,51,444.07c-4.46,1.35-4.46,1.35-6.48,2,10.11,35.1,15.19,52.72,34.22,89"/><path class="cls-2" d="M627.4,562.46l-1.13-1.08C603.34,590.72,571.94,630.9,501,667l.54,1.56c33-17.74,78.14-42,125.84-106.08"/><path class="cls-2" d="M49,291.89C65.23,245,83.08,201.75,137.36,147.28c1.87,1.59,4,3.38,7.62,6.65-23.53,24.55-59.09,61.65-82.64,131l-.7-.19-3,9.32c-4.61-1.06-5.57-1.28-9.66-2.12M218.23,89.47c30.12-14,67.61-31.41,129.25-36.13.32,2.36.65,4.8,1.18,9.4-32,3.58-71.89,8-125.3,35.09-1.59-2.65-3.39-5.66-5.13-8.36"/><path class="cls-2" d="M280.14,541.92q3.57-6.9,7.14-13.8l-7.14,13.8"/><path class="cls-2" d="M344.5,543.92l.31-2.17c-20.57-3.76-21-3.83-31.91-7.28l-.68,2.09c19.84,5.46,20.61,5.67,32.28,7.36"/><polyline class="cls-2" points="192.62 588.02 197.36 582.18 189.54 575.63 184.6 581.31 192.62 588.02"/><path class="cls-2" d="M196,592.26l1.11-1.45c22.32,15.71,24.14,17,40.51,25.65l-.85,1.61,14.54,7,7-15.36c25.3,10,25.79,10.22,39.86,13.89q4.5-16.56,9-33.11c-22.07-6.67-24.38-7.37-40.31-14.65q-9.64,19.88-19.3,39.72c-26-13.7-27.06-14.24-47.6-29.15l-4.32,5.6.36.28"/><polyline class="cls-2" points="198.32 594.69 203.13 588.46 197.19 583.79 192.24 589.9 198.32 594.69"/><path class="cls-2" d="M240.21,622.15l.92-1.75c-26.8-15.19-27.85-15.78-43.84-27.74l-1.2,1.56c24.81,17.46,26.29,18.5,44.12,27.93"/><path class="cls-2" d="M310,554.21q2.68-8.28,5.38-16.58c-19.73-7.18-20.11-7.31-30.34-12.53l-8,15.48c20.21,9.4,21,9.77,33,13.63"/><path class="cls-2" d="M314.63,538l.6-1.86c-16.93-6.16-17.25-6.28-26-10.75l-.89,1.73c16.13,7.5,16.76,7.79,26.32,10.88"/><polyline class="cls-2" points="329.31 647.19 330.05 642.58 319.46 640.9 318.56 645.48 329.31 647.19"/><path class="cls-2" d="M242.8,665.78l-24.24-11.41c2.1-3.87,3.48-6.42,6-11l23.45,11c-2.79,6.19-3.37,7.48-5.18,11.42m103.35,48.87c-79.44-11.09-137.27-29.29-215.21-93.58l.19-.21,12.46,10.55c1.57-1.86,1.7-2,3.73-4.46,35,26.15,93.54,69.93,200.12,81.84-.57,2.84-.71,3.52-1.29,5.86m-239-149.81-6.68-8.24,9.78-7.82c25.52,30,26,30.57,55.26,56-2.35,2.89-5,6.16-7.3,9l7.14,5.62,7.09-9.12.45.35c-5,6.49-5,6.49-7.69,9.92l-7.63-6,.64-.77c-28.34-24.78-30-26.26-50.3-49.53l-.76.64"/><path class="cls-2" d="M176.76,624.9,183.7,616l-6.78-5.34-7.14,8.76,7,5.5"/><path class="cls-2" d="M148.75,631.74l-18.22-17.22.2-.2,18.21,17.21-.19.21M89,564.62c-7.12-11.1-16.53-26-23-37.47,1.89-1.17,2.46-1.51,5.07-3.06,6.59,11.22,15.47,26.14,22.7,37-2.31,1.71-2.86,2.12-4.78,3.57"/><path class="cls-2" d="M245.34,665c2-4.53,2.7-6.05,4.61-10.41l-2.86-1.2c-2.53,5.62-3.06,6.79-4.7,10.37l3,1.24"/><path class="cls-2" d="M250.52,657.91l-22.23-10.46c4.1-7.65,4.1-7.65,6.67-12.49l16.75,8-.74,1.6,4.61,2-5.06,11.31m-71.18-41.49-.44-.33,8.68-11.2.41.31-8.65,11.22m-7-5.5c-28.13-24.59-28.67-25.06-52.37-53.07l5.16-4.12,14.81,17.51,5.57-5.08c22.9,23.36,22.9,23.36,35.77,33.77-3.83,4.72-5.94,7.32-8.94,11"/><path class="cls-2" d="M179.45,616.76c5.34-6.88,8.51-11,9.36-12.08L182,599.33l-9.65,11.86,7.08,5.57"/><path class="cls-2" d="M239.65,654l1.14-2.58c32,11.76,49.6,18.24,87.35,23.78.64-3.71,1.49-8.66,2.12-12.38l-12.7-2-.38,1.89c-39.92-8.8-40.69-9-75.27-22.37-1.65,3.7-3.85,8.63-5.51,12.33l3.25,1.36"/><path class="cls-2" d="M223.58,655.13c2.08-3.82,3.45-6.34,5.9-10.91-31.19-17.7-32.41-18.4-51-32.34l-7.6,9.8c29.63,20.91,31.41,22.16,52.71,33.45"/><path class="cls-2" d="M228.41,645.71c4-7.43,4-7.43,6.48-12.12-27.88-15.82-29-16.44-45.6-28.89l-8.4,10.88c26.72,18.83,28.31,20,47.52,30.13"/><path class="cls-2" d="M159.6,640.67,147,630l3.92-4.36,12.41,10.5c-2.23,2.68-2.32,2.79-3.76,4.49m14.07-17c-28.06-24.54-30.35-26.55-50.83-50.07l.77-.65c24.88,27.6,26.91,29.85,50.7,49.94l-.64.78"/><path class="cls-2" d="M147.2,625.57q1.83-2,3.64-4.06l-17.12-16.17c-.91.9-2.12,2.1-3,3l-.84.83,17.34,16.39"/><path class="cls-2" d="M356.21,715.41c-47.4-6.59-119-16.56-203.58-83.25,2.87-3.47,4.91-5.94,10.41-12.66l7.76,6.1c-3.43,4.4-6.05,7.77-7.81,10,30.84,21.78,33.36,23.56,56,35.56,1.53-2.74,3.25-5.84,6.13-11.11l24.65,11.61c-.69,1.52-1.62,3.53-2.32,5l3.36,1.41c-2,4.28-2.48,5.43-4.39,9.48,35.31,13,54.76,20.21,102.58,26.67.3-1.54.7-3.58,1-5.12l7.21.77c-.28,1.65-.67,3.85-1,5.5M104.6,575.06c-24.21-31.39-25.66-33.27-42.82-63.39l2.47-1.41c7.34,12.49,17.42,29,25.55,41l4.55-3.36,9.94,13.23.66-.53,6.79,8.38-7.14,6.08"/><path class="cls-2" d="M97.85,566l.3-.23c5.21,6.9,12,16.23,17.47,22.89l4.32-3.69c-21.08-27.33-22.34-29-37.28-55.19-3.17,1.83-3.58,2.06-5.2,3,5.92,10.08,13.9,23.48,20.39,33.2"/><path class="cls-2" d="M244.52,668.93c.61-1.35,1.43-3.15,2-4.5l-3-1.24c-.62,1.34-1.44,3.14-2.07,4.48l3,1.26"/><path class="cls-2" d="M213.51,665.74c1.37-2.46,2.93-5.26,5.51-10-29.9-17-31.07-17.66-48.91-31-3.08,4-5.45,7-7,9,28.35,20,30,21.22,50.43,32"/><path class="cls-2" d="M151,617.86l-4,4.48,10.76,9.1c2.46-3,4.21-5.11,8.93-10.88-24.32-21.26-26.3-23-44.05-43.38l-6.14,5.21c9.94,11,23.74,25.23,34.49,35.47"/><path class="cls-2" d="M134.33,607.26l-.27.27,16.18,15.28c2.07-2.32,3.43-3.84,4-4.55-10.91-10.4-24.94-24.82-35-36l-4.33,3.7c5.79,6.42,13.33,15.15,19.39,21.32"/><polyline class="cls-2" points="58.15 300.31 61.01 300.87 64.89 286.88 62.07 286.2 58.15 300.31"/><polyline class="cls-2" points="65.51 289.88 68.53 290.6 69.13 288.62 68.6 288.49 71.26 280.18 68.8 279.52 65.51 289.88"/><polyline class="cls-2" points="62.14 299.91 62.95 300.07 67.24 284.62 66.44 284.43 62.14 299.91"/><polyline class="cls-2" points="62.91 287.31 63.71 287.49 67.04 277 66.25 276.8 62.91 287.31"/><path class="cls-2" d="M123.84,395l7.68-.56c-.89-37,0-56.28,12.77-99L137,293.06c-10.55,36.62-14.69,56.1-13.16,101.94"/><path class="cls-2" d="M117.48,570.85l9.69-7.75-9.35-12.44-10,7.33,9.66,12.86"/><path class="cls-2" d="M128.32,564.31l5.33-4.25-2.44-3.15,6.13-4.77-6.46-8.71c-7.87,5.73-7.87,5.73-11.79,8.6l9.23,12.28"/><polyline class="cls-2" points="119.59 573.71 120.22 573.21 110.81 560.67 110.16 561.15 119.59 573.71"/><path class="cls-2" d="M635.65,551.93l-3.07,4.33c-4.75-4.08-5-4.33-8.53-7.22l11.89-17.64,2.42,1.78c4.79-8.32,11.36-19.31,15.76-27.83L658,507.7l-12.75,23,2.88,2.11-10.25,16c4.13,3.46,4.56,3.82,7.22,6.18l-2.26,3.28c-3.12-2.8-3.68-3.31-7.17-6.27M399.59,662.6c-14.79,1.93-34.63,3.77-49.53,4.54l.09-7.67c13.24-.71,30.9-2.09,44.06-3.74l.18,1.37,4.33-.71.87,6.21"/><path class="cls-2" d="M368,657.77l.08-6.8c-7.21-.19-16.84-.21-24-.72l-.65,6.77c7.38.25,17.22.82,24.6.75"/><path class="cls-2" d="M650.36,497.09l2.87,1.5c11.85-32.14,12.07-32.75,16.29-50.73-5.2-1.69-5.62-1.82-9.5-3-2.07,7.51-4.54,17.62-6.91,25l2.51,1c-5.14,14-12.7,32.5-18.93,46.08l3.53,2.16,10.14-22.05"/><path class="cls-2" d="M515.76,658.53l-14.44,6.68c-2.14-6.09-2.32-6.58-3.95-11l14-6.48c2.87,7,3,7.23,4.41,10.83m-99.45,14.6c-15.9,2.08-37.22,4-53.24,4.86.17-7.54.23-10.36.36-20.19,15.11-.81,35.22-2.62,50.22-4.61,1.36,9.94,1.61,11.73,2.66,19.94m-81.94-7.26h0c.27-2.68.63-6.24.89-8.92-.27,2.67-.62,6.25-.89,8.92m-7.8.57L322,666l.17-1.21,12.22,1.12c-1.08,10.51-1.8,17.43-3,27.06l3.78.26-.14,1.2-12.07-1c1.09-7.58,1.92-13.56,3.6-27"/><path class="cls-2" d="M342.7,689.07c.68-6.29.85-7.79,1.64-15.78l26.12.66c.16-7.51.22-10.32.35-20.1-8.41-.23-19.64-.26-28-.85-1,10-2.23,22.48-3.84,35.81l3.76.26"/><path class="cls-2" d="M491.72,660.2c-2-5.76-2.2-6.24-3.75-10.45-28.17,11-43.7,17.11-76.16,22.79l-.6-4.84-22.48,3c.4,7,.5,8.93.81,16.14,47-6.56,58.47-9.55,102.18-26.68"/><path class="cls-2" d="M396.46,670.65h0c-9.16.55-21.36,1.57-30.53,1.72h0c9.16-.49,21.4-.83,30.53-1.72"/><path class="cls-2" d="M366.8,689c.24-6.47.29-8.08.48-15.21h-.15c-.18,6.82-.21,8.24-.44,14.15l-24.39-.63-.12,1.07,24.62.62"/><path class="cls-2" d="M369.71,686.75c.23-6.27.29-7.76.49-15.74l-26-.66c-.77,7.75-.91,9.14-1.63,15.7l27.12.7"/><polyline class="cls-2" points="335.97 663.24 336.13 662.06 326.29 660.82 326.09 662 335.97 663.24"/><path class="cls-2" d="M620.54,553.83c-4.56-3.92-4.84-4.16-8.18-6.93C579.48,589,557,611.78,503,643.64c2.94,6.31,3.11,6.69,4.61,10,47.36-28.38,73.53-48.53,113-99.83"/><path class="cls-2" d="M515.81,649.62c-2.34-5.18-2.54-5.61-4.32-9.39l-12.63,6.56c2.55,6.16,2.65,6.41,3.91,9.6l13-6.77"/><path class="cls-2" d="M634,535.44,622.19,552.9c-5.83-4.79-11.33-9.31-23.38-18.72-8.41-6.52-10.67-8.27-21.34-16.4,25.66-38.84,33.35-55.83,45.69-101,13.39,3.52,31.73,8.34,49.46,13.61-2.2,8-4.83,18.76-7.36,26.67-7.84-3-10-3.87-19.88-7.53-10.42,28.55-15.66,42.89-32.93,70.75,9.58,6.63,13,9,21.5,15.17m-148.18,102c-30.91,13.73-43.71,19.42-85.66,27.77l-.87-6.15c33.48-7.12,46-9.78,84-27.24l2.51,5.62"/><path class="cls-2" d="M658.36,440.83l-4.51-1.36c-2.19,8-4.81,18.68-7.32,26.55l4.4,1.74c2.24-8.07,5.53-18.76,7.43-26.93"/><path class="cls-2" d="M482.84,647.16l1.58,4.26,12.45-5.77c-2.69-6.37-4.31-10.21-8.84-20.45-28.21,12.53-39.89,17.72-78.18,25.34,1.22,8.85,1.44,10.44,2.38,17.76,27.47-5.83,42.61-9,70.61-21.14"/><path class="cls-2" d="M490.27,653.87,488.45,649c-30.14,11.8-46.75,18.3-81.48,24.39l.66,5.25c32.16-6.82,49.88-10.57,82.64-24.73"/><path class="cls-2" d="M493.06,627.67c4.11,8.31,6.6,13.33,10.74,22.06,47.63-28.56,73.95-48.84,113.6-100.47-5.87-4.81-11.41-9.37-23.54-18.84-18.08,23.2-21.34,27.38-40.79,46.29l-.83-1-4.15,3.8.81,1c-25.24,21-35.69,29.68-71.39,48.25l2.53,5.66,13-6.77"/><path class="cls-2" d="M511.86,641.49c-3.52-7.4-5.46-11.47-11.17-23l-13.55,7.05c3.9,8.84,6.25,14.18,10.15,23.47l14.57-7.56"/><path class="cls-2" d="M650,550.26l-3.23,4.54c-3.07-2.85-3.71-3.44-7.23-6.53l3.14-4.42c4.1,3.51,4.63,4,7.32,6.41M507.84,671.9l-14.95,6.91c-.44-1.4-1-3.27-1.5-4.67l14.77-6.83c.51,1.38,1.19,3.21,1.68,4.59M320.7,709l-12.49-1c.24-1.5.57-3.5.8-5l12.34,1c-.19,1.5-.44,3.51-.65,5"/><path class="cls-2" d="M495.23,670.12c-44.48,17.38-56.07,20.4-103.36,26.94,0-1.39-.06-3.25-.1-4.64,47-6.54,58.41-9.52,102.07-26.62.42,1.3,1,3,1.39,4.32m-132.8,28.57-26.5-.69c.18-1.39.43-3.24.6-4.63l26.17.67c-.08,1.4-.18,3.26-.27,4.65"/><path class="cls-2" d="M501.59,662.52l-12.71,5.88c-.44-1.3-1-3-1.47-4.32l12.54-5.8c.49,1.27,1.15,3,1.64,4.24M342.5,694.05l-10.62-.86c.21-1.39.49-3.24.69-4.63l10.48.85c-.16,1.39-.38,3.25-.55,4.64"/><path class="cls-2" d="M502.8,664.37c-48.54,19-61.19,22.27-112.8,29.43-.06-1.66-.13-3.86-.19-5.51,51.19-7.14,63.66-10.4,111.25-29,.53,1.53,1.23,3.58,1.74,5.12M357.86,695.58l-28.92-.74c.2-1.65.46-3.86.65-5.51l28.53.73c-.08,1.65-.18,3.87-.26,5.52"/><path class="cls-2" d="M622.76,565.14c-2.71-2.51-3.27-3-6.38-5.75-31.87,40.82-53.64,62.85-106,93.7.56,1.28,1.31,3,1.86,4.25L499,664.21c.45,1.21,1,2.82,1.49,4,32-17.24,75.94-40.86,122.3-103.11"/><path class="cls-2" d="M518.86,653.11c-.56-1.3-1.32-3-1.89-4.33l-13.34,6.91c.52,1.33,1.21,3.1,1.71,4.43l13.52-7"/><path class="cls-2" d="M407.66,648c-12.43,1.45-29.05,3-41.55,3.52l.05-6.58,12.47-.44c-.2-5.49-.48-12.82-.69-18.31,7.93-.77,18.53-1.66,26.42-2.83,1.68,12.29,2,14.5,3.3,24.64m-67,.83-.18,1.93.18-1.93m0,0-10.75-1,.6-4.61,10.58,1-.43,4.64"/><path class="cls-2" d="M368.83,651.69l.06-6.89c-7.86-.21-18.36-.23-26.2-.78l-.64,6.87c8,.26,18.74.88,26.78.8"/><polyline class="cls-2" points="334.31 645.92 334.95 640.95 325.53 639.77 324.74 644.72 334.31 645.92"/><path class="cls-2" d="M334.15,689.82c1.1-7.7,1.94-13.76,3.64-27.38l-4.65-.48c-1.35,9.62-1.4,10-2.11,14.88l-1.9-.22c-1.21,7.84-1.26,8.15-2,12.45l7,.75"/><path class="cls-2" d="M330.21,674.49l-.42,2.78,1.94.22c1.22-8.41,1.34-9.29,2.16-15.21L323.36,661c-.63,3.71-1.48,8.67-2.12,12.38l9,1.15"/><path class="cls-2" d="M330.58,698.4c.25-1.5.57-3.49.81-5l-7-.75c-.27,1.49-.62,3.48-.89,5l7.1.76"/><path class="cls-2" d="M332.57,689.49c.22-1.4.5-3.27.71-4.67l-6-.64c-.24,1.39-.55,3.26-.79,4.66l6.11.65"/><path class="cls-2" d="M490.1,592c-1.21-2.26-2.82-5.28-4-7.55-27.76,14.23-27.76,14.23-57,23.94.66,2.49,1.55,5.81,2.22,8.3,30.61-10.2,30.61-10.2,58.8-24.69"/><path class="cls-2" d="M493.64,523.57l-7.38-9c-14.62,11.26-22.68,17.46-40.52,26.34L443.83,537c-6.56,2.93-15.36,6.77-22.09,9.3q2.61,7.56,5.21,15.15c24.09-9.53,39.06-16,66.69-37.86"/><path class="cls-2" d="M405.73,624c-.38-2.46-.89-5.76-1.26-8.23l-1.41.24c-1.1-7.43-1.9-12.67-3.14-20.75l-2,.33c1.5,10.35,1.5,10.35,4.11,29l3.72-.62"/><path class="cls-2" d="M436.6,613.6c-.67-2.51-1.57-5.86-2.24-8.38-8.83,2.19-20.6,5.12-29.54,6.81.39,2.58.92,6,1.31,8.59,9.18-2,21.42-4.55,30.47-7"/><polyline class="cls-2" points="411.43 647.2 411.23 645.79 406.79 646.52 406.97 647.93 411.43 647.2"/><path class="cls-2" d="M551.48,578.56l-.79-1c-26.1,21.7-26.6,22.12-54.42,39l-.94-1.8-14.72,7.74,1.35,3c28.13-15.19,39.78-21.48,69.52-47"/><path class="cls-2" d="M412.71,647.37c-1.65-11.38-2.1-14.44-4.06-27.43l-4.16.69c1.87,13.71,2.21,16.18,3.69,27.49l4.53-.75"/><path class="cls-2" d="M442.75,640.32c-2.93-11.31-3.53-13.66-6.78-25.88-9.43,2.34-22,5.46-31.58,7.27,2.26,15,2.35,15.64,3.92,26.53,10.37-2.2,24.21-5.14,34.44-7.92"/><path class="cls-2" d="M428.43,548.23c-3-8.63-4.61-13.31-7.56-21.76l-.07,0,3.74,10.74-9.33,3,3.21,11.22,10-3.21"/><path class="cls-2" d="M370.23,546.19c0-2.75-.09-6.41-.13-9.16q-7.25.11-14.6-.41c-.2,2.74-.46,6.4-.66,9.14,4.61.14,10.77.49,15.39.43"/><path class="cls-2" d="M375.84,573.61l-9.51.34c-.07-7.18-.28-24.71-.33-28.46,19.61-1.09,28.57-1.58,50.33-7.58q1.69,5.9,3.38,11.79c-7.41,1.84-17.34,4.19-24.85,5.57,2.53,16.44,4.51,29.45,7.12,47.25-7.36.87-17.16,2.15-24.55,2.65-.45-9.38-.8-16.64-1.59-31.56m-28.59-.2L332,571.78c1.57-10.73,3.56-24.41,4.1-28.18L349.38,545c-.39,5.34-1.12,15.27-2.13,28.39"/><path class="cls-2" d="M370.85,571.64c-.08-7.33-.29-25.21-.34-29-5.09-.13-11.88-.13-17-.48-.4,5.44-1.15,15.57-2.17,29,5.84.18,13.63.62,19.47.55"/><path class="cls-2" d="M412.62,538.66c-17.14,4.28-25,6.23-45.55,6.86l0-1.95c17.56-1,25.57-1.42,45-6.78l.53,1.87M352,545.1l-12-1.29.28-1.93,11.92,1.27-.15,2"/><path class="cls-2" d="M366.39,545.6l0-2.06c-4.7-.11-11-.12-15.69-.44l-.15,2c4.76.15,11.11.51,15.87.45"/><path class="cls-2" d="M429.76,559.3q-2.68-7.83-5.38-15.65l-10.66,3.43Q416,555,418.25,563l11.51-3.69"/><path class="cls-2" d="M433.45,570.16c-1.94-5.72-1.94-5.72-3.2-9.39L420.06,564q1.35,4.77,2.69,9.56l10.7-3.44"/><path class="cls-2" d="M401.41,598.45c-1-6.68-1.61-10.36-3.05-19.46l1.2-.2-1.74-10.54c6.92-1.48,16.16-3.45,23-5.32q-2.15-7.59-4.31-15.16c-7.15,1.79-16.73,4.05-24,5.38,2.45,15.88,4.36,28.43,6.88,45.63l2-.33"/><path class="cls-2" d="M429,571.61q-1.61-5.72-3.22-11.42c-7.63,1.9-17.82,4.44-25.54,5.91q1,5.85,1.94,11.71c8.07-1.72,18.85-4,26.82-6.2"/><path class="cls-2" d="M216.35,547.05l20.7-23.83-4.8-4.28-21.41,23.2,5.51,4.91"/><path class="cls-2" d="M186.21,582.34c15.26-17.62,15.26-17.62,33.92-39l-6-5.34c-19,20.49-19,20.49-35.07,38l7.13,6.37"/><path class="cls-2" d="M227,554.33l19-24.69-4.41-3.46C231.24,539,231.24,539,222,550.39l5,3.94"/><path class="cls-2" d="M198,585c12.43-15.4,12.43-15.4,28.63-35.36l-6.36-5.31c-16.34,18.75-16.34,18.75-29.84,34.34L198,585"/><path class="cls-2" d="M247.48,619.64q10.05-20.65,20.08-41.31c-22.74-11.94-23.63-12.41-41.57-25.41-16,20.74-16,20.74-28,36.41,24.41,17.24,25.87,18.27,49.5,30.31"/><path class="cls-2" d="M197.88,592.78c13.27-17.29,13.27-17.29,31.76-41.27l-5.28-4.14C206,570,206,570,191.6,587.84l6.28,4.94"/><path class="cls-2" d="M195.16,99.55c1.21,1.39,1.29,1.48,2.2,2.63l20-11.11c-1.38-2-1.4-2-2-2.74L195.16,99.55"/><path class="cls-2" d="M219.9,100.6c1.1,1.8,2.55,4.19,3.63,6l4.43-2.31c-1.06-1.82-2.47-4.24-3.53-6l-4.53,2.36"/><path class="cls-2" d="M196.58,99c.56.72,1.31,1.69,1.86,2.42l21.55-12c-.5-.76-1.16-1.77-1.67-2.52L196.58,99"/><path class="cls-2" d="M197,102.35c1.08,1.47,2.51,3.45,3.57,4.93L216,98.56c.73,1.17,1.7,2.72,2.42,3.89l5.08-2.66c-1.72-2.87-3.67-6.13-5.55-9.05L197,102.35"/><path class="cls-2" d="M134.73,144.1c1.65,1.16,1.75,1.23,3,2.21C149.63,135.66,166,122,178.66,112.23c-1.8-1.86-1.8-1.86-2.54-2.55-12.77,9.89-29.37,23.63-41.39,34.42"/><path class="cls-2" d="M144.69,155.47l1.72,1.55c7.47-6.68,17.34-15.71,25.13-22L170,133.3c-7.67,6.57-18,15.23-25.32,22.17"/><path class="cls-2" d="M134.87,145.5c.74.59,1.71,1.37,2.44,2,12.33-11,29.26-25.18,42.36-35.27-.62-.68-1.44-1.59-2.07-2.26-13.18,10.21-30.32,24.41-42.73,35.56"/><path class="cls-2" d="M138.72,147.53c1.85,1.56,3.95,3.34,7.54,6.57,7.12-6.37,16.53-15,24-21-.86-.94-2-2.2-2.88-3.13l12.93-9.74c-1.09-1.28-2.56-3-3.67-4.26-11.69,9.06-26.88,21.65-37.87,31.54"/><path class="cls-2" d="M168.12,385l10.54-.7c1.79,17,2.78,26.39,8,43.25,10.63-3.3,12.26-3.81,24.59-7.61a160.37,160.37,0,0,1-7.22-42.77c-13.68.4-24.19.73-36.27,1.13l.32,6.7"/><path class="cls-2" d="M179.72,437.52l11.62-4-2.24-6.77c-2.91.89-9.82,3-11.74,3.64l2.36,7.15"/><path class="cls-2" d="M136.9,414.26l8.08-1.41c2.18,10.39,5.35,24.2,8.23,34.43l.14,0c-6.27-23.32-9.73-36.17-11.35-61.23l-8.32.6c.87,8.31,1.92,19.4,3.22,27.66"/><path class="cls-2" d="M126.66,395.22c-9.62.92-9.62.92-20.36,2l.52,5.41c-13.54,1.67-13.54,1.67-20.87,2.59L88.4,423.1c27.58-5.16,34.5-6.36,48.29-8.74-1-7.71-2.4-18-3-25.73l-7.5.55.46,6"/><path class="cls-2" d="M178.37,433.07l10.13-3.14c-4.46-16.54-6.91-25.65-8.07-43.42l-10.59.7c1.9,18.05,2.95,28,8.53,45.86"/><path class="cls-2" d="M187.31,218.92c-7.78-6.35-17.62-14.22-29.23-23.39-20.5,26.5-21.73,28.09-36.45,54.09,21.69,10.8,28.37,14.25,35.43,17.9,13.12-22.53,19.71-33.84,38.28-54.73l-1.55-1.34-6.48,7.47"/><path class="cls-2" d="M106.29,290.79c21.07,6.46,27.46,8.53,34.24,10.71,3.83-10.15,9.33-23.55,13.9-33.4-6.43-3.16-12.49-6.15-32.22-15.49-5.16,11.28-11.6,26.55-15.92,38.18"/><path class="cls-2" d="M116.9,251.54c21.86,10.36,28.58,13.66,35.69,17.17l2.47-4.75c-7.05-3.64-13.71-7.08-35.34-17.85l-2.82,5.43"/><path class="cls-2" d="M108.94,241.55l9.74,4.78c16.8-28.81,17.45-29.94,35.47-52.62l-.43-.34,7.18-8.26-7.81-6.57c-18.61,22.34-28.87,34.64-44.15,63"/><path class="cls-2" d="M121,246.07l3.93,2c15.56-26.69,16.16-27.73,32.84-48.73l-3.42-2.7c-18.76,24.24-19.88,25.7-33.35,49.48"/><polyline class="cls-2" points="117.8 247.77 122.38 249.93 125.32 244.26 120.78 242.02 117.8 247.77"/><path class="cls-2" d="M63.58,300l7.77,1.58,3.54-12.77-7.67-1.9L63.58,300"/><path class="cls-2" d="M65.15,288.61c2.7.66,6.3,1.55,9,2.23l.61-2-9-2.27-.62,2"/><path class="cls-2" d="M88.69,290.83c-9-2.44-10-2.69-16.56-4.41l-.56,1.84c9.19,2.35,15.91,4.09,31.78,8.42l2.73-8.63L91,283.5l-2.35,7.33"/><path class="cls-4" d="M110.46,397.64c11.76-1.22,11.76-1.22,19-1.91l-.43-5.64c-9,.65-9,.65-19,1.47l.46,6.08"/><path class="cls-2" d="M668.17,311.73c-2.69.39-6.29.92-9,1.33,5.41,32,6.1,36.07,6.91,62.16,2.75.14,6.42.33,9.17.49-1.94-35.71-2.06-37.85-7.1-64"/><path class="cls-2" d="M676.74,370.28c-3-.18-7.08-.39-10.11-.54-.23,8.82-.18,20.61-.77,29.42,3,.4,7,1,10.07,1.4.25-9.09.93-21.2.81-30.28"/><path class="cls-2" d="M666.6,372.54l4.54.19c-1.92-35.11-2-37.22-7-62.91-6.93,1.1-13.49,2.14-27.75,4.69l3.79,22.06L651,335.51c3.12,33.49,3.31,35.5,2,62.16,3.87.44,9,1,12.88,1.49.21-8,.81-18.63.7-26.62"/><path class="cls-2" d="M667.38,372.53l-4.74-.19c-.21,8.32-.17,19.44-.72,27.74l4.72.6c.22-8.44.86-19.7.74-28.15"/><path class="cls-2" d="M303.21,97.87l1.82,7.84c12.26-2.08,28.68-4.54,41.05-5.78l-.73-8c-12.69,1.43-29.58,3.65-42.14,5.93"/><path class="cls-2" d="M540.5,558.51l-3.19-3.6,4.59-4.39-2.43-2.61-8.08,7.58,5.45,6.37,3.66-3.35"/><path class="cls-2" d="M552.34,576c-8.47-9.73-9.36-10.75-16.55-18.9l-4,3.67C541,571.61,541.91,572.74,548,580l4.34-4"/><polyline class="cls-2" points="552.92 578.32 551.6 576.79 547.59 580.46 548.88 582.01 552.92 578.32"/><path class="cls-2" d="M533,562.8l-5.2-6.08c-21.82,18.17-22.24,18.52-45.51,32.66l3.77,7.09c25-15.32,25.44-15.61,46.94-33.67"/><path class="cls-2" d="M549.55,577.05c-7.8-9.3-8.8-10.49-15.6-18.48-24.85,20.69-25.33,21.08-51.83,37.18,6.41,12.15,7.08,13.42,11.29,21.54,29.86-18.31,30.43-18.66,56.14-40.24"/><path class="cls-2" d="M552.77,574.48l-1.38-1.65C523.86,595.73,523.33,596.17,494,614l1,1.93c30.74-18.85,31.33-19.21,57.8-41.43"/><path class="cls-2" d="M34.78,415c1-.25,2.47-.57,3.53-.79-.62-9.61-1.77-22.4-2-32-1.06.14-2.47.35-3.53.52.57,9.69,1,22.64,2,32.29"/><path class="cls-2" d="M77.8,408.26l11.79-1.52L89,400.79l-11.8,1.3.59,6.17"/><path class="cls-2" d="M92.42,403.51c8.21-1,12-1.5,20-2.48l-.5-5.16c-11.24,1.16-13,1.34-20,2.1l.53,5.54"/><path class="cls-2" d="M78.3,403l11.54-1.27-.53-7c10.91-.91,12.59-1.05,21-1.72l-.51-12.11c-13,.5-19,.73-32.61,1.36L78.3,403"/><path class="cls-2" d="M88.13,399.43c10-1.07,12.07-1.29,20.18-2.13l-.48-6.28c-13.11,1.06-13.11,1.06-20.21,1.66l.51,6.75"/><path class="cls-2" d="M619.31,171.18c-2.57,1.55-7.54,4.93-24.84,18.33,4.44,5.92,10.56,13.68,14.76,19.79,7.61-4.89,21.77-14,26.49-16.06-4.91-6.63-11.24-15.63-16.41-22.06"/><path class="cls-2" d="M566.56,207.55l-7.5,5.94c4.35,5.79,10.33,13.37,14.44,19.33l8-5.3c-4.46-6-10.22-14.16-14.92-20"/><path class="cls-2" d="M450.74,107.61c-9.57,31.29-9.76,31.88-33.8,108.27l7.73,2.59L420.86,229l7.12,2.72c36.82-89.52,36.82-89.52,47.25-115.3-7.34-2.67-17-6.48-24.49-8.83"/><path class="cls-2" d="M169.63,112.6c.41.32,1,.76,1.34,1.1,7.69-5.06,17.78-12,25.67-16.79-.35-.37-.83-.85-1.21-1.18-7.75,5-18.26,11.52-25.8,16.87"/><path class="cls-2" d="M172.1,109.88c1.28,1.23,1.36,1.3,2.32,2.32,6.8-4.48,15.73-10.67,22.7-14.86-1.46-1.81-1.46-1.81-2.07-2.48-6.9,4.49-16.24,10.25-23,15"/><path class="cls-2" d="M174.31,114.82c.62.67,1.44,1.56,2.05,2.24,7.63-5,17.65-12,25.48-16.68-.55-.72-1.27-1.68-1.83-2.39-7.72,5-18.19,11.49-25.7,16.83"/><path class="cls-2" d="M175.38,115.55c1.22,1.39,2.82,3.25,4,4.66,7.42-4.89,17.16-11.65,24.77-16.23-1.07-1.49-2.49-3.47-3.58-5-7.58,4.94-17.84,11.28-25.21,16.52"/><path class="cls-2" d="M369.51,60.17c.09,9.48.12,16.26,0,33.66l13.43.6c-1.52,30.11-2,37.74-3.16,56.18l-10.92-.48c-.17,9.83-.33,18.35-.38,20.73,6,.38,14.05.68,20,1.32,2.35-21.43,7.85-71.61,10.93-110-9-.63-21-1.78-30-2"/><path class="cls-2" d="M367.3,59.73l.1,6.17c9.52.62,22.25,1.12,31.74,2.15.15-1.84.34-4.28.48-6.12-9.7-.69-22.61-1.93-32.32-2.2"/><path class="cls-2" d="M372.55,94.35c-.16,29.67-.31,37.79-.65,55.58l10.78.47c1.16-18.35,1.69-26.73,3.12-55.45l-13.25-.6"/><path class="cls-2" d="M247.42,480.6h0L235.6,491.32l11.82-10.72"/><path class="cls-2" d="M574,519.34l-3.69-2.8c-16.13,20.72-17.1,22-29.49,34.31l3.17,3.41c18.37-19.38,19.47-20.55,30-34.92"/><path class="cls-2" d="M590.25,531.53c-9.76-7.54-11-8.51-19.48-14.95-18.29,23.49-19.38,24.89-33.43,38.89,9.44,10.23,10.43,11.3,16.68,18.18,22.18-23.38,23.5-24.78,36.23-42.12"/><path class="cls-2" d="M593,535.22l-2.6-2c-19,24.36-20.12,25.82-34.7,40.34l1.38,1.52-5.26,5,.82.95c22.82-22.95,24.19-24.32,40.36-45.8"/><polyline class="cls-2" points="544.8 553.85 541.43 550.22 536.69 554.74 539.98 558.45 544.8 553.85"/><path class="cls-2" d="M557.07,569.69c-7.92-8.68-9.35-10.24-16.53-18l-5,4.75c8.53,9.68,10.07,11.43,16.11,18.39l5.4-5.15"/><polyline class="cls-2" points="559.16 573.36 557.79 571.85 552.62 576.79 553.95 578.33 559.16 573.36"/><path class="cls-2" d="M626.11,285.29c-10,3.1-10,3.1-30.46,9.54,7.45,25.25,7.9,26.76,10.83,45.57,18.87-2.24,19.6-2.32,31.82-3.68-5.32-29.32-5.64-31.08-12.19-51.43"/><path class="cls-2" d="M393.07,203q-.92,5.91-1.85,11.82a190.45,190.45,0,0,1,27.51,6.36c2.26-7.45,2.26-7.45,3.58-11.41-8.69-2.32-20.39-5.09-29.24-6.77"/><path class="cls-2" d="M416.29,209.52q-1.77,5.68-3.56,11.36,3.9,1.22,7.72,2.58c.55-1.52,1.28-3.55,1.83-5.06.66-1.84,1.55-4.29,2.22-6.13l-8.21-2.75"/><path class="cls-2" d="M209.4,113.15c4.86,7.31,8.42,12.7,16.8,25.83-6.57,4.29-15.47,9.81-21.86,14.37-7.86-10.28-12.29-16-19-24.43l-4.51,3.29c3.66,4.46,6.82,8.32,12.87,15.91L185,154.78c2.67,3.14,6.23,7.34,8.89,10.5,25.8-18.93,27.34-20.07,47.52-31.22-7.5-13.17-11-19.27-17-29.4l-15,8.49"/><path class="cls-2" d="M200,110.12c1.34,2,3.12,4.59,4.45,6.57l15-8.47c-1.23-2-2.86-4.74-4.1-6.76L200,110.12"/><path class="cls-2" d="M203.55,104c.75,1.08,1.75,2.51,2.49,3.59l14.47-8.18-2.3-3.7L203.55,104"/><path class="cls-2" d="M166.36,131.54l1.63,1.81,9.53-7.31,3.65,4.39,4.58-3.34c-1.53-1.89-3.57-4.42-5.11-6.31l-14.28,10.76"/><path class="cls-2" d="M164.19,130.16c1,1.06,2.28,2.47,3.24,3.53l14.36-10.82-3-3.67-14.55,11"/><path class="cls-2" d="M187.12,130.17c4.85,6.12,8.41,10.64,16.81,21.65,5.8-3.84,13.42-9.14,19.38-12.73-6.16-9.62-9.63-15-14.89-22.89-6.4,4.17-15.08,9.54-21.3,14"/><path class="cls-2" d="M183,121.74l4.62,5.7c6.59-4.35,15.26-10.37,22-14.45-1.23-1.81-2.86-4.23-4.09-6-6.78,4.42-16,10.09-22.56,14.78"/><path class="cls-2" d="M179.12,121.47l2.74,3.3c6.77-4.46,15.66-10.63,22.61-14.82-.73-1-1.7-2.45-2.44-3.49-6.88,4.48-16.21,10.25-22.91,15"/><polyline class="cls-2" points="552.71 310.75 551.73 311.07 554.9 321.17 555.89 320.89 552.71 310.75"/><path class="cls-2" d="M563.69,307.88l-10.23,3.37,3,9.46,10.38-2.89-3.12-9.94"/><path class="cls-2" d="M555,311.59c-13.41,4.43-22.79,7.56-37.19,12.39.88,2.58,1.69,5.19,2.45,7.82,12.39-3.53,23-6.55,37.73-10.68l-3-9.53"/><polyline class="cls-2" points="325.47 655.81 326.77 647.81 314.72 645.9 313.14 653.84 325.47 655.81"/><path class="cls-2" d="M325.89,663.77c.44-2.61,1-6.1,1.44-8.71l-11.67-1.86c-.52,2.6-1.22,6.06-1.75,8.66l12,1.91"/><polyline class="cls-2" points="328.61 646.22 328.93 644.2 317.63 642.4 317.23 644.41 328.61 646.22"/><polyline class="cls-2" points="346.91 657.8 347.67 649.88 335.79 648.79 334.75 656.68 346.91 657.8"/><path class="cls-2" d="M343.25,661.35c.24-2.41.56-5.61.79-8l-10.7-1c-.32,2.39-.75,5.59-1.08,8l11,1"/><polyline class="cls-2" points="333.84 652.85 334.79 645.66 325.83 644.53 324.67 651.7 333.84 652.85"/><path class="cls-2" d="M334.25,665.51c.35-2.64.83-6.16,1.19-8.79l-9.74-1.22c-.43,2.62-1,6.12-1.45,8.75l10,1.26"/><polyline class="cls-2" points="348.08 647.63 348.26 645.74 337.7 644.77 337.46 646.66 348.08 647.63"/><polyline class="cls-2" points="333.54 648.07 333.81 646 324.23 644.8 323.9 646.86 333.54 648.07"/><path class="cls-2" d="M486.58,512.42c-6.4-7.75-7.76-9.4-14.53-17.56a170,170,0,0,1-33.57,21.83c5.21,10.64,5.31,10.84,10,20.49,15.25-8.26,23.65-12.81,38.09-24.76"/><path class="cls-2" d="M485,517l-2.85-3.47c-14.73,11.34-22.84,17.59-40.81,26.53l2,4c16.7-9,25.89-14,41.7-27.09"/><path class="cls-2" d="M287.65,522.85c1.29-2.43,3-5.68,4.29-8.11a167.73,167.73,0,0,1-31.58-21.55l-6,6.93c15.73,12.58,16,12.82,33.29,22.73"/><path class="cls-2" d="M289.87,527.43c1.24-2.41,2.9-5.62,4.15-8-.5-.25-1-.5-1.47-.76l-4.23,8,1.55.81"/><path class="cls-2" d="M281,545q4.14-8,8.26-15.94l-1.62-.84,1-1.82c-17.82-10.29-18.16-10.49-33.88-23.12-7.3,8.37-7.3,8.37-13.11,15.11C255.82,529.75,263.67,536,281,545"/><polyline class="cls-2" points="285.43 527.24 286.39 525.37 284.76 524.52 283.78 526.38 285.43 527.24"/><path class="cls-2" d="M329,207.56l2.28,10.81c1.46-.31,2.93-.6,4.4-.87q-1-5.44-2-10.87l-4.69.93"/><path class="cls-2" d="M86,529l1.57-.9C81.93,516.54,74.47,501,69.5,489.08l-1.65.72C73.06,501.68,80.13,517.49,86,529"/><path class="cls-2" d="M105.85,564l4.26-3.14c-7-10.65-16.25-25-22.62-36l-3.08,1.77-1-1.77L82,525.7c6.86,11.68,16.29,27.12,23.89,38.34"/><path class="cls-2" d="M101.51,514.41l6.3-3.49c6,10.19,14.24,23.65,20.88,33.44l9-6.57c-15.42-23.31-23.16-35-34.78-63.72-10.16,4.17-10.16,4.17-16.92,7,4.44,10.1,10.46,23.54,15.49,33.36"/><path class="cls-2" d="M108.68,556.43l8.71-6.4c-6.17-9.33-14.25-21.89-19.84-31.59l-9.37,5.33c5.92,9.94,14,23.1,20.5,32.66"/><path class="cls-2" d="M101.74,517.24l-5.35,3c5.87,9.85,13.86,22.9,20.33,32.38,4.9-3.59,10.61-7.75,10.65-7.78-6.35-9.61-14.61-22.57-20.33-32.57l-6.13,3.4.83,1.55"/><path class="cls-2" d="M112.51,562.06l.66-.49c-7.25-11-16.75-25.76-23.32-37.17l-.71.41c6.75,11.33,15.94,26.35,23.37,37.25"/><path class="cls-2" d="M558.47,327.59l-1,.22,3.17,15.79c-13.72,2.12-24.3,3.79-39,6.14.19,1.13.36,2.27.52,3.41,16.16-2.26,25.53-3.55,40.1-5.52-1.1-6-2.43-14.08-3.81-20"/><path class="cls-2" d="M565.59,325.34l-10.86,2.5c1.2,6.09,2.95,14.18,3.86,20.32l11-1.47c-1.17-6.41-2.58-15-4-21.35"/><path class="cls-2" d="M558.92,326.49c-15.09,3.49-24.12,5.6-40.29,9.42q1.61,6.7,2.72,13.56c13.8-2.2,24.91-4,40.88-6.44l-3.31-16.54"/><polyline class="cls-2" points="553.67 317.07 552.71 317.35 555.33 327.3 556.31 327.07 553.67 317.07"/><path class="cls-2" d="M566,315.33l-10.36,2.89,2.52,9.58,10.49-2.41L566,315.33"/><path class="cls-2" d="M559.68,317.86c-15.26,4.29-24.39,6.87-40.72,11.52.81,2.83,1.57,5.69,2.26,8.56,16.47-3.88,24.73-5.82,41.21-9.64l-2.75-10.44"/><path class="cls-2" d="M72.16,493.79l3.16-1.36c-4.41-12.63-10-29.6-13.55-42.49l-3.29.95c3.75,13,9.08,30.2,13.68,42.9"/><path class="cls-2" d="M74.9,493c4.13-1.76,5.84-2.48,10-4.25-4-11.52-9.12-27-12.38-38.76-5.93,1.66-6.84,1.91-10.45,2.94C65.62,465,70.6,481.09,74.9,493"/><path class="cls-2" d="M84,489.39c1.66-.69,3.87-1.62,5.53-2.3-3.9-11.14-8.82-26.1-12-37.47l-5.75,1.58c3.34,11.55,8.09,26.89,12.19,38.19"/><path class="cls-2" d="M72,493.09l.73-.32c-4.55-13-10.28-30.47-14-43.75l-.76.22c3.84,13.27,9.28,30.87,14,43.85"/><path class="cls-2" d="M87.12,525.91,90,524.28c-5-10.22-11.57-23.89-16-34.38l-3,1.3c4.61,10.51,10.87,24.49,16.09,34.71"/><polyline class="cls-2" points="84.87 525.62 87.78 523.95 86.88 522.29 83.96 523.94 84.87 525.62"/><path class="cls-2" d="M89.85,528c5.17-2.92,6.24-3.52,10.77-6-5.39-11-12.47-25.74-17.2-37.05C76,488,76,488,72.08,489.69c5.1,11.59,12,27,17.77,38.3"/><path class="cls-2" d="M100.9,519.78l5.67-3.16c-5-10.18-11.54-23.82-15.92-34.29l-6,2.5c4.65,10.58,10.95,24.66,16.22,34.95"/><path class="cls-2" d="M90.62,530.17l.73-.41c-5.66-11.57-13.1-27.06-18.06-38.94l-.77.33c5.19,11.81,12.22,27.53,18.1,39"/><path class="cls-2" d="M88.44,525.68c5.51-3.14,5.62-3.2,9.65-5.48l-.86-1.59L87.55,524l.89,1.64"/><path class="cls-2" d="M101.91,519.24l5.35-3-.83-1.55-5.37,3,.85,1.58"/><polyline class="cls-2" points="90.52 525.07 91.22 524.68 90.26 522.91 89.57 523.3 90.52 525.07"/><path class="cls-2" d="M593.57,435c-9.36-2.84-16.59-5-30.12-9L558,443c12.14,4.64,19,7.29,29.35,11.35L593.57,435"/><path class="cls-2" d="M609,343c-9.35,1.14-18.62,2.29-37.53,4.77l-1.91.26.21,1.47c7.45-.94,23-2.88,39.47-4.76L609,343"/><path class="cls-2" d="M488.62,590.11c-3.4-6.37-6.08-11.4-12.71-23.6,24.77-15.22,25.24-15.51,46.57-33.44-3.43-3.91-6.14-7-11.48-13.06-18.12,15.1-40.66,33.9-82.06,48.71,1.74,5.15,3.92,11.55,6.83,20.25l-13.61,4.36c2.51,9.15,3.87,14.12,6,22.16C459.65,605,459.65,605,488.62,590.11"/><path class="cls-2" d="M407.71,613.37c-1.3-8.44-1.78-11.52-3.23-20.62l-1.29.22c1.32,8.62,2,13,3.12,20.63l1.4-.23"/><path class="cls-2" d="M436.34,607.82c-2-7.31-3.1-11.47-5.28-19.36-7.45,1.85-17.39,4.33-24.94,5.76,1.25,7.8,2.07,13,3.12,19.85,8.16-1.74,19.05-4.05,27.1-6.25"/><path class="cls-2" d="M443.09,587.43c-1.85-5.53-3.91-11.67-6.92-20.52L423.49,571c2.08,7.42,3.33,11.89,5.81,20.87l13.79-4.42"/><path class="cls-2" d="M405.66,597.71c-.87-5.4-1.76-10.93-3.13-19.25l-1.19.21c1.14,7.22,1.8,11.35,3,19.26l1.3-.22"/><path class="cls-2" d="M538.48,547.23c-3.87-4.15-7.87-8.43-16.39-17.4L515,536.45c5.34,6.12,9,10.27,15.66,18.09l7.79-7.31"/><path class="cls-2" d="M532.23,555.23c-3.94-4.59-7.34-8.55-15.3-17.67-19.53,16.27-19.9,16.59-40.73,29.25,3.7,6.81,6.48,11.93,11.12,20.64,23.89-14.66,24.34-14.94,44.91-32.22"/><path class="cls-2" d="M596.88,292.64c-6,2-17.21,5.71-36.83,12.4l.83,2.39,1.78-.58c12.75-4.18,22.14-7.23,35.2-11.38l-1-2.83"/><path class="cls-2" d="M598.74,293.63c-8.75,2.78-19.75,6.3-39.65,12.82l3.37,10.77c2.44,9.92,5.39,23.23,7.13,33.3,14.31-1.88,26.23-3.42,41.42-5.26-5.36-29.45-5.69-31.21-12.27-51.63"/><polyline class="cls-2" points="564.24 305.57 562.39 306.18 565.47 316 567.35 315.48 564.24 305.57"/><path class="cls-2" d="M568.89,323.57l-2.07.47c1.31,6.66,3.22,15.52,4.22,22.23l2.11-.28c-1.23-6.74-2.72-15.75-4.26-22.42"/><path class="cls-2" d="M568.34,314.14,571,324.2c1.22,6.18,3,14.39,3.92,20.61-1.7-9.25-4.24-21.55-6.57-30.67"/><polyline class="cls-2" points="564 315.85 562.23 316.34 564.7 325.73 566.5 325.32 564 315.85"/><path class="cls-2" d="M605.55,208.44l-6.29,4.08,8.29,12.76c-5.68,3.31-11.54,6.72-21.31,12.5L595,253c11.06-5.62,18.37-9.32,28.82-14.46-5.32-9.12-12.42-21.27-18.23-30.07"/><path class="cls-2" d="M521.57,126.39c-4.25,6.49-8.27,12.62-17,26,23.05,16.23,24.43,17.2,39.39,31,4.17-4.33,10.47-10.88,16.57-17.16,8.26,8.44,19.08,19.91,26.77,28.88l5.72-4.45c-18.59-21.2-36.15-41.22-71.43-64.26"/><path class="cls-2" d="M601.58,213.75c-5.39,3.51-10.47,6.84-19.33,12.71l7.13,11c6.51-3.85,12.66-7.48,20-11.72l-7.77-12"/><path class="cls-2" d="M560.33,161c-4.82,5-10.29,10.61-19,19.64,8.68,8.86,20,20.9,28.11,30.31,6.7-5.3,13.62-10.77,21.48-16.9C582,183.9,569.88,170.57,560.33,161"/><path class="cls-2" d="M595.51,188.83l-5.89,4.58c4.56,6.08,10.85,14.05,15.16,20.32l6.27-4.07c-4.64-6.26-10.64-14.76-15.54-20.83"/><path class="cls-2" d="M589.23,192.69c-4.63,3.62-11.63,9.1-21.43,16.85,4.65,6.18,11,14.29,15.43,20.65,7.77-5.13,14.48-9.56,22.8-15-5-6.77-11.51-16-16.8-22.52"/><path class="cls-2" d="M693.31,339.79l.52,15.57c-3.6-.5-6.52-.87-14.07-1.39l-.52-15c5.9.18,9.73.32,14.07.78M637.67,562.52,626.43,580c-1.11-1.06-2.6-2.46-3.73-3.5l11.09-17.23c1.17,1,2.73,2.28,3.88,3.28"/><path class="cls-2" d="M689,371.3c-3.16-.44-5.73-.77-12.36-1.22-.9,34-1.62,43-8.61,79.8,4.47,1.51,5,1.71,8,2.81-9.49,34.42-9.68,35.08-16.9,52.57,1.13.67,2.62,1.59,3.73,2.29,10.7-29,26.88-72.8,26.14-136.25"/><path class="cls-2" d="M639.68,546.11c-3.07-2.43-3.63-2.87-7.06-5.42l-9.64,15c3.89,3.25,4.29,3.59,6.79,5.81l9.91-15.38"/><path class="cls-2" d="M676.56,451.53c-3.54-1.3-4.18-1.54-8.11-2.86-9.55,34.67-9.55,34.67-16.68,51.94,4.28,2.31,4.83,2.6,7.65,4.23,12.46-33.78,12.7-34.42,17.14-53.31"/><path class="cls-2" d="M155.05,154.39l-3.86-3.55C127.6,175.45,92,212.64,68.36,282.11l.47.13c12.17-32.08,26-68.45,67.07-114.89,4.62,3.68,9,7.17,18.51,15.13,21-21.61,22.28-22.91,36.91-34.68-4-4.72-7.86-9.17-12.41-14.32-7.22,6.19-16.95,14.37-23.86,20.91"/><polyline class="cls-2" points="65.75 284.22 66.24 284.34 68.67 276.75 68.19 276.62 65.75 284.22"/><path class="cls-2" d="M148.82,155.25l3.68,3.38c6.76-6,15.69-14.22,22.74-19.93l-3.3-3.71c-7,6-16.42,13.92-23.12,20.26"/><path class="cls-2" d="M65.59,279.85l7.93,2.21c12-31.72,12.24-32.32,21-49,6.37,3,7.7,3.65,14.69,7.05,14.63-25.07,22-37.65,42.66-60.87-6.6-5.49-11.8-9.82-18.67-15.27C111.11,190.48,86,220.55,65.59,279.85"/><path class="cls-2" d="M76.85,280.39c7.88,2.26,8.7,2.5,16.6,4.84,12-31.72,12.22-32.32,21-49-8.24-4-9.3-4.51-15.46-7.43-15.15,31.41-15.74,32.64-22.16,51.61"/><path class="cls-2" d="M66.94,284l8.48,2.15,2.51-7.84-8.41-2.35-2.58,8"/><path class="cls-2" d="M72.66,283.82c8.2,2.14,9.25,2.42,17.69,4.71l2.5-7.83c-8.94-2.64-10.55-3.12-17.55-5.12l-2.64,8.24"/><path class="cls-2" d="M174.54,134.94c3.76,4.28,7,8,13.23,15.27l8.56-6.56c-4.13-5.17-8-10-12.69-15.69l-9.1,7"/><path class="cls-2" d="M168.38,133.87c1,1.17,2.44,2.73,3.48,3.91l8.58-6.58c-1-1.21-2.33-2.82-3.34-4l-8.72,6.69"/><path class="cls-2" d="M653.53,398.46c-3.52-.38-8.21-.88-11.73-1.24.91-35.43,1-37.55-2.16-64.86-13.66,1.42-13.66,1.42-36.51,4,2.68,28.45,4,42.73.33,74.46,19.49,2.95,31.26,4.73,48.16,7.6l1.91-19.93"/><path class="cls-2" d="M571.69,342.8l-7.45.94c2,21,3,31.53.28,54.95l7.46,1c1.82-22,2.74-33.05-.29-56.89"/><path class="cls-2" d="M648.55,335.52l-10.27,1c2.75,29.52,3,32.61,1.9,57.11,3.1.32,7.23.75,10.33,1.09.83-31.68.89-34.27-2-59.21"/><path class="cls-2" d="M383.46,630.88l-11.63.42c0-21.41,0-21.41,0-29.31l10.38-.37c.44,9.34.44,9.34,1.28,29.26m-35-.27-9.87-.91c2.82-23.08,2.82-23.08,3.53-29.12l8.82.8c-.56,6.75-.56,6.75-2.48,29.23m-14.22-31.15c-8-1.48-18.7-3.4-26.62-5.32,1.26-4.7,3.88-14.47,7.76-29.1,7,1.5,16.27,3.53,23.31,4.64-.78,5.34-2.42,16.44-4.45,29.78"/><path class="cls-2" d="M381.87,644.52l-13,.45c0-5.72.06-13.36.08-19.08l12.17-.44c.22,5.72.52,13.35.72,19.07m-39-.32-11-1c.73-5.69,1.68-13.28,2.4-19l10.33.94c-.51,5.71-1.19,13.33-1.71,19"/><path class="cls-2" d="M368,644.32c0-5.72.07-13.36.09-19.09-7.33-.19-17.12-.21-24.44-.72-.5,5.71-1.19,13.32-1.71,19,7.82.26,18.24.86,26.06.78"/><path class="cls-2" d="M338.7,642.81c.76-6,1.77-13.95,2.52-19.93l-9-1.12c-.93,6-2.17,13.9-3.11,19.86l9.57,1.19"/><path class="cls-2" d="M367.81,601.41c0-7.64-.09-15.64-.23-29.57-5.35-.13-12.5-.14-17.85-.51-.44,5.68-1.25,16.24-2.33,29.49,6.12.19,14.28.66,20.41.59"/><polyline class="cls-2" points="339.69 597.42 339.7 597.28 331.25 596.22 331.23 596.36 339.69 597.42"/><path class="cls-2" d="M326.42,688.11c1.07-5.79,1.3-7,2.18-12-33.36-6.1-50.11-9.16-83.23-22.67-2.8,6.36-3.23,7.33-5,11.21,31.49,11.6,48.83,18,86,23.46"/><path class="cls-2" d="M324.81,674.82l.42-2.38c-30.16-5.51-45.3-8.28-75.24-20.49l-1,2.23c27.75,10.21,43,15.83,75.8,20.64"/><path class="cls-2" d="M325.72,698.63c.26-1.3.6-3,.85-4.35l-8-1c.27-1.29.62-3,.87-4.28-30.9-5.66-46.42-8.51-77.1-21-1.65,3.63-2.1,4.61-3.72,8.05,31.93,11.78,46.51,17.16,87.12,22.65"/><path class="cls-2" d="M323.52,693.52c.3-1.51.69-3.52,1-5-33.42-6.11-50.19-9.18-83.37-22.73-.63,1.41-1.48,3.3-2.12,4.71,30.94,11.4,48,17.68,84.51,23.06"/><path class="cls-2" d="M327.58,684.08c1-6.37,1-6.37,1.73-11l-7.79-1c-1.28,7.16-1.28,7.16-2,10.94l8.05,1"/><polyline class="cls-2" points="331.05 677.31 331.44 674.76 323.19 673.7 322.75 676.24 331.05 677.31"/><path class="cls-2" d="M326.13,698.38c.28-1.52.64-3.54.91-5.06l-9.34-1.21c-.31,1.51-.71,3.53-1,5l9.45,1.22"/><path class="cls-2" d="M329.05,691.28c.28-1.64.65-3.82.92-5.46l-9.24-1.2c-.32,1.64-.73,3.82-1.05,5.45l9.37,1.21"/><path class="cls-2" d="M198,376.05l6.9,0a162.88,162.88,0,0,1,1.52-23c.41-2.94.89-5.86,1.45-8.74L201.12,343c-2.77,18.29-2.93,19.39-3.1,33.08"/><path class="cls-2" d="M200.69,343.92l7.16,1.41a171.1,171.1,0,0,1,5.94-22.49l-6.9-2.36c-2,7-4.62,16.34-6.2,23.44"/><path class="cls-2" d="M539,474.14c-13-8-22.16-13.72-36.48-22.48a189,189,0,0,1-19.43,26.43c3.95,3.48,12.16,10.71,22.72,20.08-5.32,5.6-12.45,13-18.08,18.3,3,3.4,5,5.64,8.34,9.39,19.61-19.08,26-25.74,42.93-51.72"/><path class="cls-2" d="M538.78,473.53l-2.8-1.74C521.9,493,516.63,500.89,493.45,523l2.19,2.47c19.71-19.17,26.15-25.85,43.14-52"/><path class="cls-2" d="M499.14,518.64l-7.78-8.76-6.11,5.29,7.44,9.06,6.45-5.59"/><polyline class="cls-2" points="500.37 522.93 498.45 520.76 492.44 525.97 494.28 528.21 500.37 522.93"/><polyline class="cls-2" points="490.31 512.73 487.48 509.55 481.68 514.58 484.39 517.87 490.31 512.73"/><path class="cls-2" d="M35.06,365.94l1.67-.11c3-38.06,3.18-40.34,10.47-72.18l-1.61-.21c-8,37.44-8.45,39.68-10.53,72.5"/><polyline class="cls-2" points="37.39 385.81 39.03 385.62 39.22 366.6 37.58 366.71 37.39 385.81"/><path class="cls-2" d="M38.16,366.48c3.1-.17,3.42-.19,5.82-.27L43.81,385l4-.33c.74-34.9.75-35.57,3.44-54.08l3.2.27c1.88-10,4.25-23.4,6.66-33.3-4.53-.85-8.44-1.58-12.63-2.15-7.81,36.71-8.28,38.9-10.31,71.09"/><path class="cls-2" d="M36.56,384.1c3.58-.38,3.88-.41,6.59-.65l.2-21.22c-4.45.18-4.53.18-6.58.3l-.21,21.57"/><path class="cls-2" d="M48.13,458l1.61-.53c-2.73-13.37-6-31.28-7.83-44.81l-1.64.33c2,13.56,5,31.61,7.86,45"/><path class="cls-2" d="M55.82,455.73l4.38-1.3c-3-14.61-6.59-34.2-8.59-49-1.34.22-3.12.5-4.46.73,2.17,14.93,5.48,34.8,8.67,49.55"/><path class="cls-2" d="M48.8,457c3.4-1.08,3.47-1.1,5.9-1.83-2.8-13.61-6.14-31.85-8-45.62-4.14.71-4.14.71-6,1.07,2,14,5.12,32.57,8.11,46.38"/><path class="cls-2" d="M52.72,332.29l3.06.28c2.06-11,4.66-25.64,7.29-36.49l-3-.59c-2.34,11-5.6,25.68-7.36,36.8"/><path class="cls-2" d="M55,332.26l.78.07C57.81,321.4,60.4,306.77,63,296l-.77-.15c-2.32,10.91-5.55,25.44-7.29,36.45"/><path class="cls-2" d="M77.11,446.79,87.35,444c-2.37-11.48-5.21-26.86-6.79-38.47L70.1,407c1.76,12,4.43,28,7,39.84"/><path class="cls-2" d="M57.1,329.28c2.33.22,5.44.53,7.77.77,1.75-9.36,4-21.88,6.21-31.13l-7.6-1.55c-2,9.55-4.85,22.26-6.38,31.91"/><path class="cls-2" d="M65.63,332.92l6,.64c-3.48,33.23-3.48,33.23-3.17,50.37l10.72-.53c.6-29.9.91-44.9,9.07-78.9-7.7-1.69-9.53-2.09-16.23-3.5-2,9.55-4.85,22.28-6.37,31.92"/><path class="cls-2" d="M37.11,411.31l1.72-.34c-.58-9-1.66-21-1.85-30.05l-1.73.21c.53,9.05.94,21.16,1.86,30.18"/><path class="cls-2" d="M46.64,413.45l4.11-.67c-.56-8.61-1.6-20.09-1.79-28.72l-4.12.34c.52,8.72.91,20.36,1.8,29.05"/><path class="cls-2" d="M37.2,415c3.44-.64,3.8-.7,6.47-1.15-.61-9.4-1.74-21.92-1.94-31.33-4.3.39-4.47.41-6.5.64.57,9.55,1,22.32,2,31.84"/><path class="cls-2" d="M69.34,405.79l11.76-1.57L80.5,398l-11.79,1.35.63,6.44"/><path class="cls-2" d="M70.53,403.6l11-1.26-1.06-19.89-11,.55,1.09,20.6"/><path class="cls-2" d="M50.16,384.84l3.39-.25c.76-36.12.77-36.81,3.55-56l-3.35-.29c-3.93,37.27-3.93,37.27-3.59,56.51"/><path class="cls-2" d="M55.34,453.56l3.34-1c-2.8-13.6-6.14-31.82-8-45.57l-3.41.53c2,13.86,5.1,32.31,8.07,46"/><path class="cls-2" d="M51.27,386.61l3-.2c.77-37,.79-37.69,3.63-57.31l-3-.27c-4,38.12-4,38.12-3.66,57.78"/><path class="cls-2" d="M53.85,383.25l.74-.05c.74-35.21.75-35.88,3.46-54.56l-.73-.06c-3.8,36.06-3.8,36.06-3.47,54.67"/><path class="cls-2" d="M57.81,455.3c6.42-1.83,6.67-1.9,11.45-3.23-2.75-13.39-6.06-31.35-7.89-44.91-6.94,1-7.67,1.1-11.71,1.71,2.05,14,5.15,32.61,8.15,46.43"/><path class="cls-2" d="M72.23,454.52l6.83-1.88c-2.89-14-6.36-32.84-8.28-47l-7,1c2.12,14.45,5.34,33.68,8.44,47.95"/><path class="cls-2" d="M62.52,453.62l.76-.22C60.44,439.55,57,421,55.14,407l-.78.12c2,14,5.16,32.65,8.16,46.5"/><path class="cls-2" d="M53.4,387.66l8.9-.55c.75-36.58.77-37.28,3.57-56.69-2.63-.27-6.15-.62-8.79-.87-4,38.33-4,38.33-3.68,58.11"/><path class="cls-2" d="M59.32,386.24l6.78-.37c.74-36.41.76-37.11,3.55-56.43-2-.21-4.7-.51-6.71-.71-4,37.94-4,37.94-3.62,57.51"/><path class="cls-2" d="M50.31,411.32l3.53-.55c-.59-9-1.68-21.1-1.88-30.16l-3.55.26c.54,9.14,1,21.35,1.9,30.45"/><path class="cls-2" d="M53.31,408.63c5.92-.89,6.4-1,11-1.61l-.58-6.08c-2.46.3-5.75.71-8.21,1L54.4,380.54l-2.84.19c.5,8.37.89,19.56,1.75,27.9"/><path class="cls-2" d="M63.28,409l6.7-.92-.63-6.49-6.7.8.63,6.61"/><path class="cls-2" d="M51.11,408.44l.71-.11c-.53-8.12-1.5-18.93-1.69-27.06l-.71.05c.49,8.14.86,19,1.69,27.12"/><path class="cls-2" d="M52.69,404.86l8.64-1.09-1.17-22-8.66.54,1.19,22.57"/><path class="cls-2" d="M65.29,403.05l6.79-.82-1.21-22.55-6.8.37,1.22,23"/><path class="cls-2" d="M146.18,442.26l6.73-2.12c-2.37-8.81-5.3-20.63-7.07-29.58l-6.94,1.22c1.93,9.2,4.74,21.43,7.28,30.48"/><path class="cls-2" d="M98.17,460.53c29.45-9.62,35.83-11.62,51.24-16.44-2.89-10.76-6.47-25.19-8.63-36.12-13.15,2.28-25.56,4.43-52.85,9.56,2.71,13,6.66,30.23,10.24,43"/><path class="cls-2" d="M320.56,149.72c-1.34-6.13-2.31-10.55-4-18.09-10.73,2.71-25,6.6-35.51,10,3,8.09,9.2,24.92,21,57.91,8.2-2.57,19.2-5.79,27.55-7.8q-1.83-8.61-3.67-17.21c9.29-1.58,21.73-3.45,31.11-4.4-1.1-14.33-1.1-14.33-2-25.31-10.39,1.17-24.24,3-34.53,4.88"/><path class="cls-2" d="M310.61,133.78c.94,4.24,2.24,10.05,4.2,19.07,10.88-1.85,25.43-4,36.41-5.14-.67-8.36-1-12-1.57-19.43-11.75,1.32-27.4,3.39-39,5.5"/><path class="cls-2" d="M323,170.62c1.82,8.49,1.82,8.49,3.42,16,8-1.36,18.66-3,26.72-3.79-.22-2.95-.68-9.08-1.22-16.29-8.71,1-20.3,2.52-28.92,4.09"/><path class="cls-2" d="M396,705.85a15.7,15.7,0,0,0,.37-2.37c-9.25.53-21.57,1.55-30.84,1.69a16,16,0,0,1-.52,2.36c9.3-.48,21.72-.8,31-1.68"/><path class="cls-2" d="M395.58,708.46c.13-1.75.17-2.22.23-4.93-8.44.49-19.68,1.43-28.13,1.55-.26,2.6-.31,3.06-.59,4.94,8.54-.44,20-.75,28.49-1.56"/><path class="cls-2" d="M396.84,702.94c0-1.41,0-3.3,0-4.71-8.25.48-19.23,1.4-27.49,1.53-.1,1.41-.24,3.3-.36,4.71,8.35-.43,19.52-.74,27.85-1.53"/><path class="cls-2" d="M396.43,685.47c-.29-6.65-.38-8.49-.82-16.42-8.49.51-19.79,1.46-28.29,1.6-.18,7.18-.23,9.11-.51,16.48,8.88-.47,20.76-.8,29.62-1.66"/><path class="cls-2" d="M395.16,695c0-1.34-.06-3.12-.09-4.46-8.38.49-19.53,1.43-27.92,1.56-.08,1.34-.17,3.12-.26,4.46,8.48-.44,19.81-.75,28.27-1.56"/><path class="cls-2" d="M398.36,694.43c-.06-1.59-.12-3.71-.18-5.3-9.14.54-21.32,1.56-30.48,1.7-.07,1.6-.17,3.73-.25,5.32,9.27-.49,21.66-.83,30.91-1.72"/><path class="cls-2" d="M195.55,527.71q20.58-18.71,41.19-37.4c-3.28-3.88-7.77-8.95-10.88-13,3.69-2.87,10.73-8.27,14.2-10.9-27.34,21-42.06,32.3-58.3,44.8,4.12,5,9.47,11.68,13.79,16.46"/><path class="cls-2" d="M185.78,515.05c-12.08,9.48-22.51,17.67-53.95,42.78l15.28,18.06c32.46-29.74,32.46-29.74,57-51.94-4.14-4.92-9.83-11.35-13.76-16.43l-6.52,5,1.95,2.51"/><path class="cls-2" d="M143.84,576.26l5.35-4.9-13.94-16.47-5.66,4.51,14.25,16.86"/><path class="cls-2" d="M136.26,557.24c32.73-26.12,40.09-31.89,53.44-42.37l-1.94-2.49c-11.76,9-22.87,17.53-53.92,41.75l2.42,3.11"/><path class="cls-2" d="M133.22,561.59l6.38-5.08-2.51-3.22-6.43,5,2.56,3.29"/><path class="cls-2" d="M665.9,505a11.45,11.45,0,0,0-1-1.19L654.3,526.72a29.64,29.64,0,0,0-3.2-2.77l-12,21.61c2.41,2.23,3.32,3.18,3.95,4.43,7.35-13.24,16.55-31.24,22.87-45"/><path class="cls-2" d="M668,503.42a32.45,32.45,0,0,0-3.72-2.76l-11.59,25.16a34.19,34.19,0,0,1,3.56,3.08L668,503.42"/><polyline class="cls-2" points="641.25 516.74 638.44 514.99 626.56 536.39 629.25 538.36 641.25 516.74"/><polyline class="cls-2" points="649.9 496.04 646.91 494.47 636.34 517.47 639.22 519.26 649.9 496.04"/><path class="cls-2" d="M653.54,523.52c-1.12-.84-2.63-1.93-3.78-2.74l-13,23.3c1.09.9,2.54,2.11,3.61,3l13.12-23.6"/><path class="cls-2" d="M662.54,503.1c-1.21-.76-2.82-1.76-4-2.49L647,525.67c1.17.84,2.73,2,3.89,2.82l11.7-25.39"/><path class="cls-2" d="M652.52,521c-3.35-2.27-4-2.68-7.7-5.06l-12.66,22.79c4.12,3.1,4.65,3.49,7.36,5.66l13-23.39"/><path class="cls-2" d="M662.51,498.78c-3.49-2-4.12-2.36-8-4.43l-11,23.87c4.32,2.76,4.87,3.12,7.71,5.06l11.28-24.5"/><path class="cls-2" d="M506.88,673.42a52.65,52.65,0,0,0-1.37-5.14l-14.87,6.87c.7,2.74.82,3.23,1.18,5.23l15.06-7"/><path class="cls-2" d="M496.81,681.82h0c-13.53,5.28-31.71,12-45.55,16.38,13.79-4.55,32.09-10.94,45.55-16.38"/><path class="cls-2" d="M494.58,680.39c-.36-1.93-.46-2.45-1.22-5.42-14,5.46-32.74,12.41-47,16.94.4,2.94.47,3.47.61,5.62,14.43-4.77,33.57-11.44,47.65-17.14"/><path class="cls-2" d="M506.69,668.61c-.3-.9-.68-2.11-1-3L491.93,672c.26.92.62,2.14.87,3.06l13.89-6.42"/><path class="cls-2" d="M490.79,674.56c-.25-.86-.57-2-.82-2.88-11.72,4.58-27.46,10.41-39.45,14.22.15.89.34,2.09.48,3,12-4,28-9.57,39.79-14.33"/><path class="cls-2" d="M127.13,612l.78-.78c-24.16-26.35-25.61-27.93-39.36-47.27l-.87.67c21.58,28.59,22.88,30.31,39.45,47.38"/><path class="cls-2" d="M132.77,610.46l.19-.18c-6.23-6.79-14.71-15.67-20.63-22.72L116.4,584c-5.55-7.2-13.15-16.67-18.39-24.1-2.19,1.61-2.71,2-4.52,3.37,21.49,28.46,22.78,30.16,39.28,47.15"/><path class="cls-2" d="M127.38,607.85l3.6-3.59c-5.78-6.29-13.65-14.54-19.16-21.07L108,586.5c5.79,6.43,13.33,15.17,19.39,21.35"/><path class="cls-2" d="M117.82,586.14l.32-.28c-5.79-7.51-13.72-17.38-19.18-25.13l-.34.24c5.72,7.58,13.16,17.84,19.2,25.17"/><path class="cls-2" d="M132.68,609.93l.29-.3c-6.43-7-15.21-16.19-21.35-23.48l-.31.28c6.37,7.08,14.69,16.7,21.37,23.5"/><path class="cls-2" d="M188.29,437.36l26.82-9.27c-.64-1.84-1.25-3.68-1.83-5.54-12.32,3.81-15.45,4.77-27.11,8.39l2.12,6.42"/><path class="cls-2" d="M674.88,267.91c-2.37.19-5.94.68-18.29,4,10,34,15,51,18.1,90.35,6,.06,15.11.16,19.21,1.19-4.1-37.33-6.16-56.07-19-95.51"/><path class="cls-2" d="M247,643.51l4.09-9.23c13.17,5,30.94,11.12,44.45,15.13l2.07-7.41c-32.07-9.72-32.07-9.72-47.91-16.72-3.91,8.52-5,10.81-7.44,16.17l4.74,2.06"/><path class="cls-2" d="M318.92,661.33l.24-1.15-24.26-5.3c.7-2.46,1.63-5.75,2.32-8.21-13-3.94-30.15-9.68-42.81-14.57L250.48,641c33.63,12.74,34.94,13.23,68.44,20.34"/><path class="cls-2" d="M296.23,643.36l.57-2,24.51,5.35,1-5-24.13-5.27c1-3.59,2.32-8.38,3.3-12-31.06-9.4-31.06-9.4-46.4-16.17l-8.15,17.88c31.31,12.42,31.91,12.65,49.32,17.21"/><polyline class="cls-2" points="251.62 642.85 252.37 641.17 247.6 639.11 246.83 640.77 251.62 642.85"/><path class="cls-2" d="M316.14,662.75l.36-1.77c-37.25-8.2-38-8.36-70.22-20.87l-.74,1.65c34.69,13.15,36,13.66,70.6,21"/><polyline class="cls-2" points="317.99 652.09 319.42 644.95 296.72 639.99 294.75 647.01 317.99 652.09"/><path class="cls-2" d="M314.43,661.44c.56-2.73,1.3-6.38,1.85-9.12l-25.8-5.64-2.53,9,26.48,5.79"/><polyline class="cls-2" points="318.2 645.41 318.59 643.45 295.39 638.39 294.85 640.32 318.2 645.41"/><path class="cls-2" d="M316.29,639.64c.64-3.32,1.51-7.74,2.15-11l-21-4.59-3,10.86,21.88,4.78"/><path class="cls-2" d="M166,185.91c17.26,15.77,22.58,20.79,26.87,24.82l13.83-13.35c-2.47-2.68-10-10.83-25-26.62L166,185.91"/><path class="cls-2" d="M159.6,192.36c16.34,13.91,21.41,18.36,25.49,21.93l6-6.44c-6.56-6.18-14.86-13.84-24.67-22.8l-6.82,7.31"/><path class="cls-2" d="M157.07,191.43l.41.34,7.24-7.77,3.35,3.06,15.1-14.56-3.48-3.66c-6.89,6.68-16.1,15.56-22.62,22.59"/><polyline class="cls-2" points="160.65 190.64 163.92 193.42 170.66 186.19 167.5 183.3 160.65 190.64"/><path class="cls-2" d="M149.75,199.1c19.32,15.29,25.31,20.17,30.12,24.1l6.67-7.7c-7.77-6.81-17.6-15.27-29.21-25.13l-7.58,8.73"/><polyline class="cls-2" points="152.63 196.94 153.08 197.29 160.64 188.59 160.2 188.22 152.63 196.94"/><polyline class="cls-2" points="152.53 196.12 156.3 199.09 163.61 190.67 159.95 187.57 152.53 196.12"/><path class="cls-2" d="M636.2,512l-2.59-1.56c-4.69,8.43-10.76,19.77-15.84,28l2.45,1.8c4.86-8.43,11.53-19.57,16-28.21"/><path class="cls-2" d="M656,466.89l-2.62-1.05c-5.31,14.52-13.14,33.62-19.58,47.68l2.44,1.46c6.49-14.18,14.41-33.44,19.76-48.09"/><path class="cls-2" d="M636.1,511.77l-3.76-2.23c6-13.09,13.28-30.86,18.22-44.38-7.15-2.76-9.14-3.52-18.13-6.86-9.51,26-14.28,39.11-30,64.52,8.73,6,11.86,8.23,19.6,13.84,4.29-7.44,10.17-17.27,14.1-24.89"/><path class="cls-2" d="M652.88,470.84l-4.09-1.62c-5,13.69-12.38,31.71-18.46,45l3.82,2.26c6.15-13.45,13.66-31.71,18.73-45.6"/></g><g id="图层_10" data-name="图层 10"><path class="cls-5" d="M343,261.08c-3.82-18.35-7.74-37-9.44-45.11a170.59,170.59,0,0,0-103.35,68l60,43a96.55,96.55,0,0,1,61-39q-2.48-13.76-4.94-27.5l-3.28.66"/><path class="cls-5" d="M504.59,375.38c-12.32-.33-27.87-.74-49.88-1.24q-.09,3.19-.37,6.42l21,1.76c-1.74,13.45-1.88,14.55-4.25,23.44,8.92,2.46,19,5.27,27.77,7.71,3.42-14.55,5.3-22.56,5.75-38.09"/><path class="cls-5" d="M315.7,531.41q6.75-20.92,21.17-66c-11.05-4-11.26-4.08-17-7-12.16,23.69-20.46,39.82-31.74,61.65a180.69,180.69,0,0,0,27.57,11.38"/><path class="cls-5" d="M471.38,407.69c-4.92,11.94-7.16,17.39-15.74,29.83l-15.36-10.84a106.76,106.76,0,0,0,13.4-25.4l17.7,6.41m-35.1,38.17c-3.84,3.62-9.13,8.28-13.23,11.61l-5.61-7.38a106.53,106.53,0,0,0,12.17-10.69l6.67,6.46"/><path class="cls-6" d="M424.2,526.34a175.67,175.67,0,0,1-55.61,9.93c-.17-11.52-.36-23.37-.57-35.22,13.27-.74,25.81-1.45,44.51-8,4.33,12.26,7.71,21.9,11.67,33.26m-82.79,8.26-.51-.07c1.84-12.81,2.81-19.64,5-34.86l9.87,1c-.87,12.4-1.46,20.83-2.5,35.13q-5.88-.42-11.81-1.24"/><path class="cls-6" d="M445.82,234.82q-8.52,14.43-17,28.86c11.87,7.6,12.1,7.74,17.94,12.54l2.57-3.11c9.17,8.18,23,20.53,35.11,43L480.86,318c6,12.45,6.25,12.93,8.78,20.29,11.53-3.9,24.26-8.18,31.75-10.69a171.82,171.82,0,0,0-75.57-92.77"/><path class="cls-5" d="M265.58,372.48H249.7c.71,15.52,1,21.33,6.25,40.09q13.73-4.2,27.45-8.4a107.59,107.59,0,0,1-4.87-36.3c-3.6-.17-9.85-.45-12.87-.57l-.08,5.19"/><path class="cls-5" d="M406.33,249.09C413,227.83,413,227.83,416.43,217a172.31,172.31,0,0,0-24.82-5.74q-5.28,33.5-10.6,67c10.62,2.08,11.73,2.3,19.32,4.89,5-13.66,5-13.66,11.63-32.12l-5.63-1.88"/><path class="cls-6" d="M200.12,347.87a191.91,191.91,0,0,0-1.8,27.14c15.45,0,30.54-.07,54-.06l.09-5.85,15.81.68c.44-5.58,1.26-13,2.12-18.56-17.5-3.52-41.1-8.25-68.53-13.66q-1,5.1-1.7,10.31"/><path class="cls-6" d="M400.39,459.92a103.5,103.5,0,0,1-27,5.65c-1.16-14.68-1.18-15-2-25.43l1.42-.12,1.6,16.27c9.94-1.31,10.33-1.36,16.6-3-1.33-4.72-3.11-11-4.45-15.75l5.21-1.64,8.64,24.05m-49.11,4.93a104.43,104.43,0,0,1-34.35-11l11.82-22.55c7.22,3.43,16.21,7.7,31.31,8.85l-1.65,25.43c-2.37-.16-4.74-.41-7.13-.74"/><path class="cls-5" d="M557.25,425.12l-5.09,15.77c-13.16-5-21.59-8.14-36.08-13.52q2.31-6.31,4.15-12.87c14.49,4.11,23.84,6.79,37,10.62"/><path class="cls-5" d="M166.2,259.62c7.55,4.38,11.05,6.42,19.71,11.49,3.19-4.93,7.28-11.61,10.67-16.4-7.91-5.57-11.93-8.38-18.67-13.08-3.53,5.39-8.41,12.46-11.71,18"/><path class="cls-5" d="M67.26,280.27C78.89,249.58,96.48,203.2,147,153.84l1.58,1.43C126.07,178.81,92,214.39,69.39,280.84l-2.13-.57M222.72,99.68C247.92,88,286,70.25,343.69,65.81c1,8.71,1.63,14.93,3.12,30.9C335.5,98,320.45,100,309.25,102l1.63,7c-48,12.1-81,25.47-127.67,64.91L180,170.48c-6.42,6.23-15,14.52-21.1,21.08-2.14-1.81-5-4.22-7.15-6C171.82,164.86,173,163.62,187,152.36c2.36,2.78,5.51,6.5,7.86,9.29,21.42-15.72,24.18-17.74,42-27.6-6.64-11.65-9.75-17-15.07-26l4.42-2.32c-1.05-1.82-2.46-4.24-3.53-6"/><path class="cls-5" d="M406.23,625.12c-2.8-20-2.8-20-4.08-28.78-7,.82-16.29,2-23.31,2.51.44,9.28.44,9.28,1.28,29.07,7.84-.77,18.32-1.65,26.11-2.8"/><path class="cls-5" d="M86.37,441.6l-10.31,2.79c3.33,11.49,8,26.74,12.14,38,7.31-3,8.63-3.57,16.32-6.73,8.75,19.88,16.31,37,33.54,61.46l-8.71,6.33,5.8,7.81c29-22.59,36-28,47.74-37C170.6,497,167.3,492.33,155.74,469.53c-12.24,5.67-19.63,9.1-43,20.24-10-23.92-16-38.35-22.13-71.46l1.8-.33-2.27-16.53-10.64,1.37c1.72,11.69,4.32,27.24,6.83,38.78"/><path class="cls-5" d="M488.87,624.69l-1.3-2.89,14.18-7.46c-5-9.61-5.89-11.34-10.45-20-27.53,14.12-27.53,14.12-56.54,23.74,3.14,11.87,3.71,14,6.22,23.77-9.45,2.34-22.06,5.46-31.62,7.27l.18,1.27c31.61-6.72,43.44-9.23,79.33-25.72"/><path class="cls-5" d="M223.61,547.56l17.79-22,4,3.13-17.23,22.44c20.06,14.15,21.26,15,40.68,24.87,1.57-3.26,6.36-13.17,12.95-26.88-18.05-9.47-26.28-13.79-44.9-29.34l-19.57,22.53,6.28,5.24"/><path class="cls-5" d="M89.8,284.62c4.61,1.39,10.76,3.24,15.37,4.65,4.81-12.72,11.71-29.51,17.45-41.85l-4.35-2,2.83-5.45-10-4.92C96.52,265.2,96,266.38,89.8,284.62"/><path class="cls-5" d="M103.62,289c-13.81-3.76-21.08-5.71-32.67-8.66l-4,14.29c6.47,1.36,9.15,1.93,18.09,3.9C78.16,331.3,74.69,347.73,75,386.47c12.23-.56,17.3-.78,34-1.41l.53,12.6c13.2-1.06,13.2-1.06,21.29-1.64-.93-38.84,0-59.13,13.43-104.06-7.47-2.41-14.52-4.68-37.74-11.81L103.62,289"/><path class="cls-5" d="M348.76,165q.63,8.37,1.25,16.74c-8.26.94-19.27,2.4-27.45,3.9,1.13,5.28,2.29,10.74,4.13,19.44l4.9-1c1.24,6.75,1.24,6.75,2.08,11.35a173,173,0,0,1,37.46-2.75c.62-17.51,1.18-33.71,1.66-48.15-7.21,0-16.84,0-24,.44"/><path class="cls-5" d="M432.55,590.45c-1.93-7-3.28-11.85-5.86-21-8,2-18.7,4.66-26.8,6.2,1.67,10.18,2.83,17.35,3.5,21.58,8.78-1.88,20.5-4.37,29.16-6.74"/><path class="cls-5" d="M623.66,233.8c-9.47,4.68-16.33,8.08-31.64,15.87,4.9,10.11,11.32,23.64,15.61,34,12.84-4.63,21.33-7.68,33.46-11.86-5-11.52-11.77-26.83-17.43-38"/><path class="cls-5" d="M608.86,337.13c-6.19.72-19.07,2.19-40.82,4.92,2.13,22.46,3.19,33.73.3,58.78,8.3,1.13,23.76,3.22,40.82,5.76,2.25-26.87,3.38-40.35-.3-69.46"/><path class="cls-5" d="M321.39,629.94c-.69,3.54-1.6,8.25-2.3,11.78l11.13,1.77c.91-5.74,2.11-13.39,3-19.13l8.65,1.08c3-24.44,3-24.44,3.75-30.84l-8.37-1.05,0-.14c-8.48-1.56-19.81-3.6-28.19-5.63-.6,2.24-.6,2.24-10.12,37.27l22.43,4.89"/><path class="cls-5" d="M379.55,600.85l-11.13.4c0-8.37-.09-17.15-.24-32.41l9.74-.35c.61,11.52,1.05,20.09,1.63,32.36m-42.93-1.26-8.47-1.06c.59-3.89,2.39-15.74,4.77-31.92l15.69,1.67c-.48,6.22-1.37,17.8-2.55,32.32l-9.46-.86,0-.15"/><path class="cls-5" d="M490.55,509.85l2.89,3.25c5.11-5,11.88-11.65,16.69-16.9-6.14-5.45-10.57-9.38-21-18.54a176.54,176.54,0,0,1-19.59,19.09c6.66,8,8.53,10.29,15.07,18.22l5.91-5.12"/><path class="cls-5" d="M156,474.69l7.42-3.47c-4-9.67-9.19-22.69-12.59-32.62L143,441.06c3.61,10.19,8.69,23.7,13,33.63"/><path class="cls-5" d="M234.78,495.27l13.45-12.21c-3-3.59-7.19-8.28-10.07-12-8.3,6.42-8.3,6.42-14.4,11.06,3.29,4,7.57,9.33,11,13.15"/><path class="cls-5" d="M205.46,471q11.55-6.67,23.11-13.34a166.9,166.9,0,0,1-13.31-28.92L190,437.48c7.06,18,7.8,19.84,15.42,33.54"/></g><g id="图层_8" data-name="图层 8" class="cls-7"><path class="cls-8" d="M517,375.67c-1.09,15.66-1.69,24.29-6,39.91-4.74-1.34-10.63-3-19.59-5.5,3.15-13.37,4.88-20.73,5.28-35l20.35.58m-41.28,70.52c-7.9,11.92-8.55,12.89-14.77,20.11L445.63,453c2.32-2.86,5.46-6.65,7.63-9.62q-3.3-2.35-6.62-4.69c6.5-9.88,9.46-14.39,14.48-27.43,17.08,6.2,30.36,11.06,45.83,16.78-6.65,16.14-7.05,17.1-13.86,28.77-6.29-3.83-9.44-5.76-17.38-10.57"/><path class="cls-8" d="M419.31,495.68c-13.69,4.23-26.63,8.23-48.19,8.63-.12-6.43-.61-31.74-.68-35.4l6.63-.3c-.39-5.14-.42-5.49-.72-9.29a107.86,107.86,0,0,0,28-5.85c2.58,7.24,8,22.31,15,42.21M280.93,521.31c13.78-26.68,25.84-50.15,33.54-65.14-12.85,25-21.63,42.08-33.54,65.14m33.54-65.14-1.05-.54,4.44-8.44a108.34,108.34,0,0,0,35.59,11.38c2.47.35,4.93.6,7.38.77-1.3,19.52-2.37,35-3,44.61l-10.67-1.13c-1.54,10.93-4.19,29.59-5.36,37.75a193.38,193.38,0,0,1-31.71-7.23q7.14-22.11,22.37-69.77c-11.42-4.14-12.1-4.39-17.95-7.4"/><path class="cls-8" d="M212.71,423.18l41.91-12.88c-3.29-12.17-4.8-17.73-5.54-32.68-15.16.41-30.73.84-43.85,1.22a166.09,166.09,0,0,0,7.48,44.34"/><path class="cls-8" d="M415.53,219.36Q410,237,404.41,254.73l6.2,2.07q6.31-17.43,12.62-34.86c-2.54-.91-5.1-1.77-7.7-2.58"/><path class="cls-8" d="M289.92,321.36l4.46,3.21c-1.28,2-3.05,4.54-4.25,6.55l-4.7-2.82a98.69,98.69,0,0,0-11.93,31.62c10.31,2.07,14.36,2.88,23.81,4.8,10.52-45,45.38-56.6,59.87-59.5q-2.16-12.06-4.34-24.13a99.57,99.57,0,0,0-62.92,40.27"/><path class="cls-8" d="M452.7,402.21c-3.93,9.56-5.72,13.92-12.59,23.88-7.49-5.26-16-11.23-29-20.31a67.62,67.62,0,0,0,8.18-15.52c13.06,4.66,18.94,6.76,33.39,11.95M422.35,453a106.84,106.84,0,0,1-13.25,8.54c-8.62-15.61-11.44-20.68-20.05-36.19,7.19-4.29,9.16-5.66,15.56-11.77,10.71,10.28,13.94,13.38,25.46,24.49-3.32,3.14-7.9,7.17-11.44,10.05l3.72,4.88"/><path class="cls-8" d="M176.89,284.82l7.39-13.49c4.57,2.68,15.27,9,30.47,18-9.22,17.08-17.18,31.83-23.17,60.27-9.43-1.94-31.5-6.48-54.48-11,6-24.41,9-36.66,21.77-62.67,8.65,4.28,9.55,4.73,18,9m23.52-71.26C230,185.13,249.62,170.29,294.32,152c4.35,11.45,9.87,26,20.24,53.78-35.35,14.81-61.56,31-90.95,69.92-5.73-4.07-16.38-11.64-28.87-20.42,6.28-8.13,15-18.69,21.86-26.32-6.46-6.16-10.69-10.18-16.19-15.37"/><path class="cls-8" d="M281.05,552.91c-3.35,7-8.5,17.68-14.65,30.4,23.7,10.15,26.74,11.45,46.39,16.86,1.37-5.08,4.2-15.67,8.4-31.51,7.55,1.63,17.62,3.83,25.25,5,1.63-11.11,3.69-25.27,4.25-29.17-21.14-3.86-21.54-3.94-32.78-7.48-3,9.32-3,9.32-5.34,16.46-21.29-7.76-21.7-7.9-32.73-13.54l-1,1.93c-12.54-7.08-26.75-15.1-42.73-28.87l-5.84,6.72c16.87,13.5,26.16,20.93,50.78,33.17"/><path class="cls-8" d="M509.23,524.31l-5.07-5.74-6.43,5.57-1.94-2.37c-20.33,15.65-33.41,25.11-66,37.48q1.73,5.09,3.47,10.17c20.28-8,45.53-18,76-45.11"/><path class="cls-8" d="M416.58,535.5c-17.63,4.4-25.68,6.4-46.84,7,0-2.76-.09-6.44-.13-9.2a167.67,167.67,0,0,0,53.06-9.47l3.69,10.61-9.22,3-.56-2m-62.3,6.61-12.39-1.31,1.3-9.11.48.07q5.65.78,11.28,1.18c-.2,2.75-.47,6.42-.67,9.17"/><path class="cls-8" d="M466.07,201.4c-7.23,12.26-12,20.28-18.74,31.8a169.05,169.05,0,0,1,74.34,91.27c11.82-4,21.35-7.15,35-11.68-9.18-24-28.29-73.88-90.64-111.39"/><path class="cls-8" d="M151.3,443.47c13.54-4.26,27.57-8.62,28.16-8.8-4.89-18.16-7.59-28.16-8.86-47.67-10.59.71-18.41,1.24-29.39,2,2.24,21.42,3.48,33.22,10.09,54.45"/><path class="cls-8" d="M585.77,225.63l-7.31,4.85c-4-5.32-9.06-12.55-13.22-17.7l6.87-5.45c-7.23-8.23-17.09-19-24.84-26.78-13.25,13.83-13.25,13.83-19,19.78,17.51,17.86,25.49,26,41.34,50.81q11.79-7,23.58-14l-7.45-11.46"/><path class="cls-8" d="M344,92.15l.76,8.27c-12.8,1.44-29.84,3.68-42.5,6,4.54,19.71,6.46,28.29,7.28,32,11.47-1.95,26.83-4.24,38.41-5.41.68,8.33.82,10.06,1.54,19.12,7.57-.24,17.67-.75,25.25-.63.35-18.82.54-29.19.7-60.12-9.43.16-22,.16-31.44.77"/><path class="cls-8" d="M246.69,484.08l.74-.67q-4.67-5.13-8.9-10.61l-.8.61c2.68,3.21,6.15,7.57,9,10.67"/><path class="cls-8" d="M520.3,532.14c5.53,5.83,9.38,9.89,16.17,17.17,29.84-31.49,62.62-71.6,73.94-149.32-5.78-.86-17.81-2.64-38.2-5.39-1.58,9.55-4.05,22.23-6.33,31.63,11.76,3.46,18.42,5.45,28.46,8.49l-5.93,18.34c-8.81-3.45-15.2-5.94-27.73-10.73-9,21.85-21.42,51.79-57.47,84.81,3.06,3.48,5.71,6.48,10.13,11.54l7-6.54"/><path class="cls-8" d="M369,624.11c0-21.29,0-21.29,0-29.15-6.23-.16-14.54-.17-20.75-.6-.55,6.7-.55,6.7-2.46,29.06,7,.23,16.26.77,23.24.69"/><path class="cls-8" d="M112.15,497.79c27.57-13.14,33.86-16.06,47.63-22.45-4-9.56-9.08-22.42-12.43-32.22-13.33,4.18-23,7.2-48.12,15.44-3.23-12-7.21-28.16-9.62-40.38l-2,.37c6.47,31,9.43,45.19,24.53,79.24"/></g></g></g></svg>