<svg xmlns="http://www.w3.org/2000/svg" viewBox="0 0 663.86 690.18"><defs><style>.cls-1{fill:none;stroke:#ff7300;stroke-miterlimit:10;}.cls-2{fill:#ff7300;}</style></defs><title>资源 1</title><g id="图层_2" data-name="图层 2"><g id="Layer_1" data-name="Layer 1"><path class="cls-1" d="M371.91,272.23A80.69,80.69,0,0,0,335,257.88L360.65,51.3a289.57,289.57,0,0,1,132.07,51.35Z"/><path class="cls-1" d="M302.82,436.14a98.23,98.23,0,0,1-17.6-5.71,101.06,101.06,0,0,1-42-33.79L76.14,516.37A307.16,307.16,0,0,0,257.42,636.66Z"/><path class="cls-1" d="M440.51,401.44A129.68,129.68,0,0,1,427,421.54a132.32,132.32,0,0,1-57.7,40.63l79.12,222A368.56,368.56,0,0,0,647.1,514.8Z"/><path class="cls-1" d="M357.2,263.92c-12.42-5.39-45.83-6.6-58.38-2.29L215.41,18.24c63.9-33.76,192.31-12.93,244.26,9.61Z"/><path class="cls-1" d="M178.74,403.74a159.33,159.33,0,0,1-12.35-42.21l46.52-6.85a112.32,112.32,0,0,0,8.7,29.76Z"/><path class="cls-1" d="M165.53,354.69A160.61,160.61,0,0,1,167,310.8l46.33,8a113.81,113.81,0,0,0-1.06,31.05Z"/><path class="cls-1" d="M168.34,304.05a161,161,0,0,1,15.08-41.24l41.54,22A113.63,113.63,0,0,0,214.29,314Z"/><path class="cls-1" d="M186.78,256.8a159,159,0,0,1,27.28-34.48l32.5,34a112.27,112.27,0,0,0-19.24,24.32Z"/><path class="cls-1" d="M219.13,217.67A161.59,161.59,0,0,1,234.18,206,159.32,159.32,0,0,1,252,195.32l21.45,41.83a114.15,114.15,0,0,0-12.63,7.55,116.77,116.77,0,0,0-10.68,8.3Z"/><path class="cls-2" d="M131.57,511.56l12.15-11.17-1.61-1.77c-1.3-1.37-3.06-3.46-5.09-5.88l-.11-.12c-1.64-1.87-3.37-4.09-5.21-6.44l-1.8-2.29c-.83-1-1.63-2.16-2.41-3.24l-1.34-1.86c-1.24-1.68-2.55-3.48-3.77-5.36-5.09-7.28-9.57-15.24-12.54-20.5l-3.65-7c-.37-.7-.65-1.29-.86-1.74l-.2-.42-14.85,7.2-1.91-4c-.78-1.65-1.85-3.91-3-6.58l-2.09-4.9c-.47-1.15-.93-2.34-1.39-3.57-.25-.66-.5-1.33-.77-2-1.25-3.13-2.41-6.57-3.53-9.9l-.79-2.33c-.47-1.37-.88-2.77-1.27-4.12-.22-.74-.43-1.47-.65-2.19s-.39-1.31-.58-2c-.41-1.39-.84-2.82-1.17-4.22-.28-1.09-.55-2.17-.82-3.22-.72-2.78-1.39-5.41-1.85-7.78-1.44-6.38-2.14-10.78-2.15-10.83l-.09-.59,16.25-2.87-.41-2.35c-.3-1.53-.58-3.65-.91-6.1L83,369.62a232.26,232.26,0,0,1-1.94-24c0-.79,0-1.56-.06-2.34,0-1.38-.09-2.81-.06-4.2l0-6.31c0-1.32.08-2.61.14-3.86,0-.69.06-1.38.09-2.05.08-2.21.17-3.85.3-5.31.08-.95.15-1.87.22-2.73.15-2.05.28-3.82.47-5.18l.26-2.36L66,309.39l.41-3.62,1.15-7.93c1-6,2.6-14.89,5-23.79,2.18-8.32,4.81-16.77,7.23-23.2l.59-1.62c.34-.94.66-1.81,1-2.62L84,240l15.25,6.32.06-.16c.18-.47.49-1.17.89-2.05l.91-2.07c.63-1.44,1.41-3.23,2.33-5.17,3-6.5,7.13-14.24,11.29-21.24a234.8,234.8,0,0,1,13.36-20l1.65-2.18c1.24-1.66,2.31-3.08,3.19-4.13l1.5-1.85L121.67,177l2.28-2.83,5.23-6.06c4.51-5,10.51-11.43,17-17.38s13.31-11.77,18.55-15.7c1.81-1.45,3.5-2.66,4.86-3.64l1.55-1.13,3-2.15,9.85,14-1,.7-9.14-13-2,1.42c-.45.34-1,.71-1.56,1.13-1.34,1-3,2.18-4.82,3.62-5.22,3.92-11.95,9.61-18.47,15.63S134.58,164,130.1,168.94l-5.21,6-1.5,1.86,12.8,10.43-2.27,2.81c-.87,1-1.93,2.44-3.17,4.08-.51.69-1.06,1.42-1.64,2.18a232.86,232.86,0,0,0-13.28,19.91c-4.14,7-8.24,14.66-11.24,21.14-.92,1.92-1.7,3.7-2.32,5.13-.34.78-.64,1.48-.92,2.08-.38.85-.68,1.53-.86,2l-.52,1.31L84.72,241.6l-2.2,5.46c-.31.79-.62,1.66-1,2.59L81,251.28c-2.41,6.39-5,14.8-7.2,23.08-2.38,8.85-4,17.75-5,23.67l-1.15,7.9-.27,2.39,16.4,1.9-.4,3.58c-.18,1.33-.31,3.09-.46,5.12-.07.86-.14,1.78-.22,2.75-.13,1.44-.22,3.05-.3,5.24q0,1-.09,2.07c0,1.24-.11,2.52-.14,3.82l0,6.3c0,1.37,0,2.79.07,4.15,0,.78,0,1.57.06,2.35a227,227,0,0,0,1.93,23.85l.23,1.77c.33,2.43.6,4.53.9,6l.62,3.58-16.26,2.86c.24,1.4.91,5.18,2,10.18.46,2.35,1.13,5,1.84,7.72l.83,3.24c.32,1.37.73,2.73,1.16,4.16q.28,1,.57,1.95c.22.72.44,1.46.65,2.2.39,1.34.8,2.72,1.26,4.06l.79,2.34c1.11,3.31,2.27,6.74,3.51,9.84.27.69.52,1.37.78,2,.46,1.21.9,2.4,1.37,3.52l2.09,4.91c1.09,2.64,2.15,4.88,2.92,6.52l1.39,2.93,14.85-7.2.73,1.54c.2.43.47,1,.83,1.69l3.65,7c2.94,5.22,7.41,13.15,12.48,20.4,1.21,1.87,2.51,3.65,3.73,5.32l1.36,1.86c.8,1.12,1.56,2.18,2.37,3.2l1.8,2.3c1.83,2.34,3.56,4.54,5.18,6.39l.11.14c2,2.4,3.77,4.48,5.06,5.83l2.44,2.67L133.3,511.64l1.63,1.79c.85.9,2,2,3.28,3.37l2.28,2.33c1.5,1.54,3.25,3.19,5.11,4.93,1,.93,2,1.88,3,2.87l8.4,7.31,1.36,1.12c6.32,5.33,13,10.13,19.34,14.53l6.68,4.35c.89.59,1.59,1,2,1.29l8.67-14,3.1,1.85,1.26.76c1.5.9,3.36,2,5.56,3.19l4.64,2.55,8,4,2.88,1.32,2.12,1c1.26.58,2.52,1.16,3.8,1.71,7.28,3.12,15.46,6.16,22.43,8.35,1.55.54,3,.94,4.26,1.3l6.19,1.78-.34,1.18-6.19-1.78c-1.28-.36-2.73-.78-4.3-1.32-7-2.19-15.22-5.25-22.53-8.38-1.29-.56-2.56-1.14-3.83-1.72-.71-.33-1.41-.66-2.12-1l-5.7-2.74-5.27-2.67-4.65-2.55c-2.22-1.18-4.1-2.31-5.61-3.22l-1.26-.75-2.06-1.24-8.66,14-.52-.29s-1-.57-2.6-1.64l-6.68-4.36c-6.36-4.42-13.1-9.25-19.44-14.6l-2.55-2.08-7.26-6.38c-1.05-1-2.06-2-3-2.89-1.86-1.75-3.62-3.4-5.14-5l-2.29-2.33c-1.31-1.33-2.44-2.48-3.3-3.39Z"/><path class="cls-2" d="M355.71,157.48l3.06-18.11c3.36.56,6.75,1.23,10.07,2l-4,17.93C361.84,158.59,358.76,158,355.71,157.48Zm14.82,3.13,4.55-17.79c1.24.32,2.48.65,3.71,1l-4.88,17.7C372.79,161.2,371.66,160.9,370.53,160.61ZM507.59,352.78c.09-1.16.17-2.32.24-3.49l18.34,1.13c-.08,1.27-.17,2.55-.27,3.83Zm.51-9.3c.09-3.1.1-6.24,0-9.34l18.36-.39c.08,3.4.06,6.85,0,10.26ZM390.51,167l6.56-17.15c3.18,1.21,6.37,2.53,9.49,3.91l-7.43,16.79C396.3,169.26,393.4,168.07,390.51,167Zm13.9,6,8-16.54c1.16.55,2.3,1.12,3.45,1.7l-8.29,16.39C406.5,174,405.46,173.46,404.41,173ZM506.93,316.69c-.14-1.15-.29-2.31-.44-3.46l18.2-2.48c.17,1.27.33,2.55.48,3.82Zm-1.32-9.23c-.52-3-1.12-6.13-1.79-9.15l17.94-4c.73,3.32,1.39,6.71,2,10.07ZM422.74,183.12l9.82-15.52c2.88,1.82,5.75,3.73,8.53,5.7l-10.6,15C428,186.52,425.36,184.77,422.74,183.12Zm12.45,8.61,11.07-14.66c1,.77,2,1.55,3,2.34L438,193.86C437,193.14,436.12,192.43,435.19,191.73Zm64,89.71q-.53-1.67-1.11-3.33l17.37-6c.41,1.22.82,2.43,1.22,3.65Zm-3.1-8.81c-1.1-2.88-2.29-5.79-3.54-8.62l16.8-7.41c1.38,3.11,2.69,6.31,3.9,9.49ZM451.2,205.3,463.84,192c2.48,2.35,4.92,4.79,7.26,7.24L457.8,211.9C455.67,209.66,453.45,207.44,451.2,205.3Zm10.56,10.89L475.45,204c.86,1,1.7,1.92,2.54,2.89l-13.93,12C463.3,217.93,462.53,217.06,461.76,216.19Zm23,32.19c-.57-1-1.15-2-1.74-3l15.83-9.3c.66,1.11,1.3,2.22,1.93,3.35Zm-4.78-8c-1.28-2-2.65-4.1-4-6.06-.4-.57-.79-1.14-1.19-1.7l15-10.59c.46.66.93,1.32,1.38,2,1.48,2.15,2.94,4.36,4.32,6.55Z"/><path class="cls-2" d="M159,452.41c-.46-.66-.91-1.33-1.36-2l15.26-10.22c1.73,2.59,3.54,5.14,5.39,7.62l-14.71,11C162.05,456.72,160.51,454.57,159,452.41Zm8.5,11.47,14.36-11.45c.72.91,1.46,1.81,2.21,2.71L170,466.88C169.15,465.89,168.33,464.89,167.53,463.88Zm-19.79-29.94c-.61-1.13-1.21-2.26-1.79-3.41l16.33-8.4c.53,1,1.07,2.07,1.63,3.09Zm-4.64-9.16c-1.46-3.08-2.87-6.23-4.17-9.37l17-7c1.19,2.85,2.47,5.72,3.8,8.53ZM183,481.07l12.94-13c2.2,2.19,4.48,4.34,6.78,6.4l-12.25,13.68C187.9,485.85,185.39,483.48,183,481.07Zm12.31,11.24,11.82-14.06c.89.75,1.79,1.49,2.7,2.23l-11.54,14.28C197.25,494,196.26,493.14,195.27,492.31Zm-62.87-95c-.38-1.23-.74-2.45-1.1-3.68L149,388.57c.32,1.11.65,2.23,1,3.34Zm-2.77-9.86c-.85-3.31-1.61-6.68-2.28-10l18-3.61c.61,3,1.3,6.09,2.07,9.09Zm84.15,118.64L223.9,490.8c2.58,1.7,5.24,3.37,7.91,4.94l-9.33,15.82C219.54,509.83,216.61,508,213.78,506.12Zm14.27,8.61,8.83-16.1c1,.56,2.05,1.11,3.08,1.65l-8.52,16.27C230.31,516,229.18,515.35,228.05,514.73ZM124.48,358.45c-.13-1.28-.25-2.55-.35-3.82l18.3-1.52c.1,1.16.2,2.32.32,3.48Zm-.78-10.22c-.17-3.41-.26-6.86-.26-10.26l18.37,0c0,3.08.08,6.22.23,9.31ZM248.88,524.65l6.94-17c2.87,1.17,5.81,2.28,8.73,3.3l-6.08,17.34C255.26,527.16,252,525.94,248.88,524.65Zm15.68,5.66,5.52-17.52c1.11.35,2.23.69,3.35,1l-5.2,17.62C267,531.07,265.78,530.69,264.56,530.31ZM124.38,318.75c.13-1.27.26-2.55.41-3.82L143,317.06c-.13,1.15-.26,2.31-.37,3.47Zm1.25-10.18c.5-3.37,1.1-6.77,1.77-10.1l18,3.62c-.6,3-1.15,6.13-1.6,9.2Z"/><path class="cls-2" d="M381.35,572.81l-5.47-3.63-2.29-8.43,6-5.38-2.45-9a214.62,214.62,0,0,1-262.53-251l-9-1.66-3.9-6.66-8.61-1.58-4.2,2.25L85.09,287c-17.09,80.92,7,168.62,71.42,229.45,62.43,59,148,78.74,225.85,60.13Z"/><path class="cls-2" d="M93.55,269.47l5.87-2.92,8.44,2.23,1.66,7.91,9,2.39a213.42,213.42,0,0,1,50.36-88.51c79.7-84.36,212.09-89.74,298.37-13.38l5.91-7,7.72,0,5.67-6.67.16-4.76,2.52-3c-98.53-88.84-251-83.17-342.6,13.77a243.78,243.78,0,0,0-56.9,98.91Z"/><path class="cls-2" d="M252.6,484l9.78-19.75a142.27,142.27,0,0,0,26.53,10l-5.64,21.3A163.27,163.27,0,0,1,252.6,484Zm40.9,13.88,4.27-21.62A141.5,141.5,0,0,0,326,478.88l.13,22A163.22,163.22,0,0,1,293.5,497.83Zm43.11,2.69-1.55-22A141.05,141.05,0,0,0,363,473.7l5.94,21.22A162.14,162.14,0,0,1,336.61,500.52Zm42.33-8.76L371.63,471a140.73,140.73,0,0,0,25.65-12.05l11.33,18.9A162.08,162.08,0,0,1,378.94,491.76Zm26-37.76a142.29,142.29,0,0,0,21.62-18.33L442.42,451a164.26,164.26,0,0,1-25,21.19Zm27.7-25.07a140.18,140.18,0,0,0,16-23.36L468,416.11a161.24,161.24,0,0,1-18.52,27.05Zm20.08-31.47A141.25,141.25,0,0,0,462,370.68l21.44,5.09a163.68,163.68,0,0,1-10.73,31Z"/><path class="cls-2" d="M376.18,308.5l-.25-.46a10,10,0,0,0-.76-1.22c-.72-1-1.66-2.55-2.91-4.28l-2.2-2.67-1.2-1.46L367.47,297c-1-.93-1.88-2-2.94-2.9l-3.28-2.72a14,14,0,0,0-1.71-1.27l-1.76-1.19-1.72-1.18c-.58-.37-1.2-.67-1.78-1l-3.38-1.86-3.17-1.36a29,29,0,0,0-2.71-1.09l-2.14-.68-1.87-.59,3.85-13.74-.46-.14a8.49,8.49,0,0,0-1.32-.35l-4.78-1a74.07,74.07,0,0,0-14.73-1.19c-.67,0-1.35,0-2,0l-2,.18-3.87.37a26.15,26.15,0,0,0-3.59.57l-3.2.63a38.73,38.73,0,0,0-4.72,1.24l-1.77.54,4.39,13.58-1.58.47c-1,.35-2.35,1-4,1.65a50.27,50.27,0,0,0-5.48,2.76,21.25,21.25,0,0,0-2.94,1.82l-3,2-2.76,2.28-1.36,1.1c-.46.36-.83.8-1.24,1.19a49.8,49.8,0,0,0-4.23,4.45c-1.12,1.4-2.15,2.5-2.74,3.37l-.92,1.37-4.59-3.2L270.73,303a48,48,0,0,0-2.94,5l-.91,1.65c-.28.59-.53,1.21-.81,1.85-.54,1.27-1.11,2.61-1.71,4a70.78,70.78,0,0,0-3.91,18.43c-.09,1.51,0,3-.06,4.35a27.35,27.35,0,0,0,.1,3.89c.24,2.4.37,4.41.59,5.8s.43,2.17.43,2.17l5.5-1s.1.5.27,1.38a24.43,24.43,0,0,0,.88,3.61l.73,2.38a19.38,19.38,0,0,0,.9,2.62l1.15,2.74c.19.47.38.94.58,1.41s.48.91.71,1.37a61.31,61.31,0,0,0,6,9.54L280.6,377a7.81,7.81,0,0,0,.94,1.06l-9.21,8.48,1.32,1.33c.86.83,2,2.11,3.54,3.46s3.36,2.9,5.42,4.42l3.27,2.22,1.68,1.14,1.79,1,3.57,2a15.67,15.67,0,0,0,1.8.87l1.8.77,3.4,1.45c1.1.39,2.17.7,3.15,1a47.93,47.93,0,0,0,4.75,1.39l1.84.39,2.68-12.23,1.82.39a18.81,18.81,0,0,0,2.1.38l2.76.3a61.89,61.89,0,0,0,14.88-.31l4-.79c.65-.14,1.31-.22,1.93-.41l1.85-.57,3.5-1.07,3-1.27c.93-.4,1.82-.71,2.55-1.09l1.88-1,1.64-.88L363,404.73l.83-.45a22.56,22.56,0,0,0,2.27-1.41,70.82,70.82,0,0,0,7.7-5.61l2.37-2c.8-.71,1.56-1.51,2.37-2.29a56.58,56.58,0,0,0,4.85-5.19l2.4-2.89c.84-.95,1.48-2.07,2.24-3.12l2.19-3.24c.71-1.1,1.3-2.28,1.95-3.43l1.88-3.46,1.56-3.59c.5-1.2,1-2.37,1.48-3.56l1.15-3.59c.37-1.17.75-2.33,1.07-3.47s.49-2.3.73-3.41.45-2.19.67-3.23.27-2.08.4-3.05c.22-2,.42-3.77.56-5.36s0-3,0-4.15c0-2.3,0-3.61,0-3.61l-17.64.78-9.18.41s0,.86,0,2.36v2.71c-.11,1-.24,2.21-.38,3.48a15.68,15.68,0,0,1-.25,2c-.14.67-.29,1.37-.45,2.09s-.29,1.46-.45,2.21-.47,1.49-.72,2.25-.47,1.54-.72,2.33-.66,1.52-1,2.3-.66,1.56-1,2.34l-1.24,2.24a50.3,50.3,0,0,1-12,14.41,43.67,43.67,0,0,1-5,3.65,9.89,9.89,0,0,1-1.47.93l-.54.28-1.39.75-1.58.86c-.62.33-1.37.57-2.15.92L342,385l-3,.89-1.55.49c-.53.16-1.09.22-1.64.34l-3.35.67a52.42,52.42,0,0,1-12.59.25l-2.33-.24a12.26,12.26,0,0,1-1.77-.33l-1.54-.33-1.28-.26a30.8,30.8,0,0,1-3.3-1c-.67-.22-1.42-.43-2.19-.69l-2.36-1-1.25-.53a7.64,7.64,0,0,1-1.26-.6l-2.49-1.37-1.25-.68-1.16-.81-2.29-1.54c-1.44-1.06-2.66-2.21-3.79-3.08s-1.85-1.86-2.46-2.43l-.93-.92a5.8,5.8,0,0,1-.79-.9l-2-2.43a52.82,52.82,0,0,1-5.07-8.06c-.2-.39-.44-.75-.6-1.15s-.33-.8-.49-1.19l-1-2.31a13.47,13.47,0,0,1-.76-2.21l-.62-2a18.93,18.93,0,0,1-.74-3.05c-.15-.74-.23-1.17-.23-1.17s-.12-.61-.34-1.67-.25-2.63-.46-4.49a21.1,21.1,0,0,1-.07-3c0-1.07,0-2.2,0-3.37a53.22,53.22,0,0,1,1.05-7.2,54.75,54.75,0,0,1,2-7l1.33-3.08c.21-.49.39-1,.61-1.43l.71-1.26a33.61,33.61,0,0,1,2.27-3.89l1-1.41.78-1.16c.51-.76,1.43-1.73,2.49-3.06l.86-1,1-1,2.35-2.34,2.93-2.38.77-.65.87-.56,1.77-1.19A50,50,0,0,1,316.32,289a48.89,48.89,0,0,1,22.58,1.19,49.7,49.7,0,0,1,31.43,27c.54,1.35,1.08,2.63,1.61,3.85s.76,2.46,1.1,3.59a19.17,19.17,0,0,1,.77,3.22c.21,1,.39,1.92.56,2.75.34,3.39.53,5.33.53,5.33l.38,0,8.8-.39,18.27-.81s-.22-2.31-.54-5.76a27.45,27.45,0,0,0-.34-2.79l-.6-3.08c-.22-1.06-.44-2.16-.67-3.28s-.62-2.22-.94-3.34a81.89,81.89,0,0,0-4.52-11.93L392,299.33Z"/><path class="cls-2" d="M270.24,446.83l4.06-8,2.18,1.1-2.92,5.76,5.78,2.7,1.56.62,1,.37c.62.23,1.26.49,1.91.74,1.2.48,2.44,1,3.68,1.38l5.75,1.82c1.17.37,2.29.64,3.38.89.59.14,1.15.27,1.68.42l3.73.89,1.5-7.57,6.2,1.1c.93.17,2,.28,3.09.39l2,.22,3.67.35,6.73.29,6.6-.15c1,0,1.8-.12,2.55-.19l1.08-.1,2.58-.23.74,7.68,1.82-.17c.35,0,.77-.11,1.21-.18l6-.94c1.18-.21,2.41-.5,3.72-.8.7-.16,1.41-.33,2.12-.48l1-.24c.64-.14,1.27-.28,1.89-.45l2.82-.85,1.91-.57c1.11-.33,2.16-.64,3.08-1L368,450.3l-2.82-7.18,2.48-.93a22.57,22.57,0,0,0,2.16-.93l1.15-.52,1.59-.73c1-.44,2-.92,3.13-1.45l6.55-3.56,4.36-2.79a41.66,41.66,0,0,0,3.55-2.41l5.09-3.8,4.74,6.08c.7-.54,1.73-1.38,2.93-2.47l4-3.5c.89-.79,1.77-1.7,2.7-2.66.5-.52,1-1,1.52-1.56a74.38,74.38,0,0,0,5.75-6.38c.6-.73,1.17-1.41,1.7-2a27.78,27.78,0,0,0,2-2.58l.33-.46-6.22-4.55,3.68-5.12,4.2-6.91c.27-.49.56-1.05.84-1.61.17-.34.34-.68.52-1,.33-.66.67-1.33,1-2,.59-1.14,1.15-2.23,1.64-3.3l2-4.78a34,34,0,0,0,1.3-3.31l.86-2.55,7.28,2.56,1.24-3.7c.31-.9.57-1.95.85-3.06.16-.64.33-1.3.51-2l.87-3.38c.08-.31.16-.62.23-.93l1.34-7.42c.16-.79.24-1.56.32-2.31l.69-6.55c0-.05,0-.09,0-.14l-7.65-.49.28-8.75c0-.5,0-1.06-.06-1.65l-.05-1c0-.69-.06-1.41-.08-2.14-.05-1.25-.1-2.53-.18-3.81-.14-1-.26-2.14-.38-3.22a68.93,68.93,0,0,0-1.13-7.68l-1-5.06,2.4-.46,1,5a72.08,72.08,0,0,1,1.16,7.92c.12,1.08.25,2.17.38,3.27.09,1.37.14,2.67.19,3.94q0,1.1.09,2.13l0,1c0,.61.06,1.2.07,1.78l-.21,6.44,7.66.49v1.14a13.05,13.05,0,0,1-.12,1.57l-.69,6.52a24.31,24.31,0,0,1-.35,2.53l-1.34,7.44c-.09.38-.18.72-.26,1.06l-.87,3.39c-.19.67-.35,1.31-.5,1.94-.29,1.16-.57,2.26-.91,3.25l-2,6-7.28-2.56-.05.15a34.24,34.24,0,0,1-1.36,3.47l-2,4.88c-.54,1.16-1.14,2.32-1.72,3.44-.34.65-.68,1.31-1,2l-.51,1c-.3.58-.6,1.16-.91,1.73l-4.28,7-2.32,3.23,6.23,4.55-1.74,2.42a30.86,30.86,0,0,1-2.15,2.77c-.51.59-1.07,1.26-1.66,2a76.49,76.49,0,0,1-5.92,6.58c-.49.48-1,1-1.47,1.5-.92,1-1.87,1.93-2.84,2.8l-4,3.48a44.8,44.8,0,0,1-4.08,3.35l-.95.66-4.73-6-3.13,2.33a44.61,44.61,0,0,1-3.74,2.55l-4.43,2.83-6.68,3.63c-1.16.56-2.23,1.05-3.22,1.5-.56.25-1.09.49-1.59.73s-.79.35-1.14.52a25.59,25.59,0,0,1-2.38,1l-.1,0,2.81,7.18-6,2.25c-1,.34-2.07.66-3.22,1l-1.9.56-2.86.86c-.68.19-1.35.34-2,.49l-1,.24c-.72.15-1.42.31-2.11.48-1.28.29-2.6.6-3.88.82l-6,.95c-.48.08-.93.15-1.35.2l-4.27.39-.74-7.68h-.19l-1,.1c-.75.07-1.68.16-2.72.2l-6.69.15-7.66-.33-3-.33-2-.21c-1.17-.12-2.28-.23-3.29-.43l-3.82-.67-1.5,7.57-2.58-.46-3.7-.89-1.63-.4c-1.08-.26-2.31-.55-3.56-1l-5.76-1.82c-1.33-.44-2.6-.94-3.83-1.43l-1.89-.74-1-.37-1.67-.66Z"/><path class="cls-2" d="M221.1,33.46l-5.37-16.19q2.76-.93,5.55-1.8l5.09,16.29Q223.73,32.59,221.1,33.46ZM235.67,29l-4.6-16.43c1.88-.53,3.75-1,5.64-1.53L241,27.57C239.23,28,237.44,28.51,235.67,29Zm14.76-3.75-3.8-16.63c1.89-.44,3.79-.85,5.7-1.25l3.51,16.7Q253.13,24.65,250.43,25.26Zm14.92-3-3-16.8c1.92-.34,3.83-.67,5.76-1l2.7,16.85Q268.08,21.75,265.35,22.23Zm15-2.32L278.21,3q2.9-.37,5.79-.7l1.9,17C284.06,19.45,282.23,19.68,280.4,19.91Zm15.15-1.59-1.39-17q2.91-.24,5.82-.42l1.09,17C299.22,18,297.38,18.17,295.55,18.32Zm15.2-.87L310.18.39c1.94-.07,3.88-.11,5.83-.15l.28,17.07C314.44,17.34,312.59,17.38,310.75,17.45ZM326,17.29,326.22.23c1.93,0,3.88.07,5.82.13l-.52,17.06C329.67,17.36,327.83,17.32,326,17.29Zm15.2.57,1.15-17c1.95.12,3.84.25,5.73.4l-1.32,17c-1.79-.14-3.59-.26-5.4-.37Zm15.22,1.27,1.83-17q2.91.31,5.8.67l-2.12,16.94Q359.17,19.44,356.4,19.13Zm15.11,2,2.63-16.86c1.92.3,3.84.61,5.76,1L377,22Q374.25,21.56,371.51,21.12Zm15,2.7L389.93,7.1q2.86.59,5.71,1.22L391.93,25Q389.23,24.38,386.51,23.82Z"/><path class="cls-2" d="M438.86,589.56l-5.92-12.92q2.1-1,4.18-2l6.14,12.82C441.79,588.2,440.33,588.89,438.86,589.56Zm12-5.83-6.5-12.64c1.37-.7,2.73-1.42,4.1-2.14l6.7,12.53Q453,582.62,450.87,583.73Zm11.73-6.36L455.55,565c1.33-.76,2.67-1.54,4-2.33l7.25,12.23C465.4,575.75,464,576.57,462.6,577.37ZM474,570.49l-7.59-12,2.3-1.47,1.59-1,7.79,11.88-1.68,1.1Zm3-19q1.89-1.32,3.77-2.67l8.3,11.54c-1.31.94-2.63,1.88-4,2.8ZM487.3,544c1.23-.94,2.44-1.88,3.65-2.83l8.81,11.15q-1.9,1.5-3.83,3Zm9.93-7.94c1.18-1,2.35-2,3.51-3l9.3,10.75q-1.83,1.59-3.7,3.15Zm9.54-8.36c1.14-1,2.26-2.1,3.38-3.16l9.78,10.32c-1.17,1.11-2.36,2.21-3.55,3.31Zm9.17-8.8q1.62-1.64,3.23-3.3l10.23,9.86c-1.12,1.17-2.25,2.32-3.39,3.47Zm8.75-9.2c1-1.14,2.06-2.29,3.08-3.44l10.67,9.38q-1.61,1.83-3.24,3.62Zm8.32-9.59c1-1.18,2-2.38,2.92-3.58L547,505.39q-1.51,1.89-3.06,3.76Zm7.88-10c.93-1.23,1.84-2.47,2.75-3.71l11.49,8.37c-1,1.31-1.92,2.6-2.89,3.9Z"/><path class="cls-2" d="M181.75,369.28a145.76,145.76,0,0,1-3.17-24.11l1.22-.06A145.48,145.48,0,0,0,182.94,369Z"/><path class="cls-2" d="M195.54,322.83a131.07,131.07,0,0,1,4.11-20.56l1.18.34A129.69,129.69,0,0,0,196.75,323Z"/><path class="cls-2" d="M201.67,281.3a137.15,137.15,0,0,1,10.69-19l1,.68a135.87,135.87,0,0,0-10.6,18.87Z"/><path class="cls-2" d="M177.47,370.21a151.28,151.28,0,0,1-3.27-24.83l1.23-.06A149.91,149.91,0,0,0,178.66,370Z"/><path class="cls-2" d="M198,279.61A141.8,141.8,0,0,1,209,260l1,.69a139.79,139.79,0,0,0-10.91,19.43Z"/><path class="cls-2" d="M219.77,239.9a144.28,144.28,0,0,1,17.15-15.61l.75,1a143.45,143.45,0,0,0-17,15.47Z"/><path class="cls-2" d="M441.61,657.84,434,637.14l2.23-.83L444,657Zm4.74-1.78-7.87-20.58,2.21-.86,8,20.53Zm4.72-1.84-8.18-20.47,2.18-.88,8.35,20.39C452.64,653.59,451.86,653.9,451.07,654.22Zm4.69-1.92L447.27,632l2.17-.92,8.66,20.26Zm4.66-2-8.8-20.2c.73-.32,1.45-.63,2.17-1l9,20.14C462,649.64,461.2,650,460.42,650.31Zm4.63-2L456,628.18l2.15-1,9.26,20Zm4.62-2.13-9.43-19.93,2.15-1L471.94,645Zm4.54-2.19-9.69-19.79,2.12-1.06,9.85,19.72Zm4.55-2.27-10-19.63,2.12-1.09L481,640.52Zm4.5-2.33L473,619.86l2.11-1.12,10.42,19.42Zm4.46-2.4-10.59-19.33,2.09-1.15,10.7,19.27Zm4.42-2.46-10.87-19.17,2.06-1.17,11,19.08C493.61,633.65,492.87,634.07,492.14,634.48Zm4.37-2.52-11.12-19,2-1.19,11.29,18.92Zm4.37-2.6-11.43-18.84,2-1.24L503,628Zm4.31-2.66L493.48,608l2-1.27,11.84,18.59Zm4.26-2.71L497.5,605.47l2-1.29,12.11,18.42Zm4.23-2.79-12.22-18.34,2-1.31,12.38,18.23Zm-8.32-21,1.95-1.35,12.65,18-2.08,1.44Zm3.88-2.72,1.92-1.37L524.07,614,522,615.45Zm3.83-2.76,1.89-1.41L528.14,611l-2,1.5Zm3.78-2.82,1.89-1.45,13.43,17.48-2,1.52ZM520.6,589l1.87-1.47,13.69,17.28-2,1.55Zm3.71-2.94,1.85-1.5,13.94,17.07-2,1.59Zm3.67-3,1.81-1.51L544,598.41c-.64.55-1.29,1.09-1.94,1.63ZM531.6,580c.6-.51,1.2-1,1.79-1.54l14.46,16.63-1.92,1.66Zm3.58-3.1,1.76-1.57,14.71,16.42-1.9,1.68Zm3.51-3.15,1.76-1.61,14.94,16.2-1.85,1.7Zm3.49-3.22,1.73-1.62,15.18,16-1.85,1.73Zm3.44-3.26,1.69-1.65,15.42,15.75-1.82,1.77ZM549,564l1.68-1.68,15.65,15.51-1.78,1.79Zm3.33-3.36c.54-.56,1.09-1.12,1.63-1.69l15.9,15.27L568.09,576Zm3.26-3.39,1.61-1.72,16.13,15-1.73,1.84Zm3.22-3.45,1.59-1.74,16.34,14.79-1.7,1.86Zm3.16-3.49,1.56-1.76,16.57,14.53L578.41,565Zm3.11-3.54,1.55-1.8,16.76,14.31-1.64,1.9Zm3.06-3.59c.51-.6,1-1.21,1.52-1.82l17,14c-.53.65-1.06,1.29-1.6,1.93Zm3-3.65c.5-.6,1-1.21,1.48-1.83l17.19,13.79c-.52.66-1,1.32-1.59,2Zm3-3.67,1.45-1.86,17.4,13.53c-.51.67-1,1.33-1.55,2Zm2.89-3.72c.48-.62.95-1.25,1.43-1.88L596,543.52l-1.52,2Zm2.84-3.77c.47-.63.94-1.27,1.4-1.91l17.79,13c-.49.68-1,1.35-1.49,2Zm2.79-3.82c.46-.63.91-1.27,1.36-1.91l18,12.73c-.49.69-1,1.38-1.48,2.06Zm2.72-3.85,1.34-1.93,18.18,12.45c-.47.7-1,1.39-1.44,2.08Zm2.66-3.88,1.32-2L607.67,527c-.46.7-.93,1.39-1.4,2.09Zm2.61-3.94c.43-.66.86-1.32,1.28-2l18.56,11.9-1.38,2.13Zm2.55-4,1.26-2,18.72,11.62c-.44.72-.89,1.43-1.34,2.14Zm2.49-4c.41-.67.82-1.34,1.22-2l18.91,11.33-1.31,2.17Zm2.44-4.06c.4-.67.79-1.35,1.18-2l19.07,11.06c-.42.73-.85,1.46-1.28,2.19Zm2.37-4.08,1.15-2.05,19.23,10.77c-.41.74-.83,1.47-1.25,2.21Zm2.3-4.11,1.13-2.08,19.39,10.48-1.21,2.22Zm2.24-4.16,1.11-2.1,19.53,10.2c-.38.75-.78,1.49-1.17,2.23Zm2.18-4.18,1.08-2.12,19.69,9.9c-.38.75-.76,1.49-1.13,2.24Zm2.13-4.22c.35-.71.69-1.42,1-2.14l19.84,9.61-1.11,2.25Zm2.06-4.26,1-2.14,20,9.3c-.35.76-.71,1.52-1.07,2.28Zm2-4.28,1-2.16,20.11,9c-.34.77-.69,1.53-1,2.3Zm1.94-4.33.93-2.16,20.26,8.69-1,2.34Zm1.85-4.33c.31-.73.62-1.46.92-2.19l20.37,8.4-1,2.32ZM619,458.5c.3-.72.59-1.45.87-2.18l20.51,8.08c-.31.79-.63,1.58-1,2.37Zm1.73-4.37c.28-.74.57-1.48.85-2.23l20.62,7.79-.9,2.35Zm1.67-4.44c.28-.73.55-1.47.81-2.21l20.74,7.46-.87,2.38Zm1.61-4.46c.26-.74.52-1.48.77-2.22l20.85,7.16c-.28.8-.55,1.6-.84,2.4Zm1.54-4.47c.25-.74.5-1.49.74-2.23l21,6.85c-.27.8-.53,1.6-.8,2.41Zm1.47-4.49c.24-.75.47-1.5.71-2.25l21,6.54c-.25.81-.5,1.61-.76,2.42Zm1.4-4.51c.23-.76.46-1.51.68-2.27l21.14,6.23-.72,2.43Zm1.34-4.55c.22-.75.43-1.51.64-2.26l21.23,5.9c-.22.82-.45,1.64-.69,2.45Zm1.27-4.56c.2-.75.41-1.51.6-2.27L652.9,426c-.21.82-.43,1.64-.65,2.46Zm1.2-4.55.57-2.31,21.4,5.28c-.2.82-.4,1.63-.61,2.44Zm1.13-4.61c.18-.76.37-1.53.54-2.3l21.48,5c-.19.82-.39,1.64-.58,2.46Zm1.07-4.61.51-2.31,21.54,4.64-.54,2.47Zm1-4.63.48-2.31,21.61,4.31-.51,2.49Zm.93-4.63c.15-.78.3-1.55.44-2.33l21.67,4c-.15.82-.3,1.65-.46,2.48Zm.86-4.66c.14-.78.27-1.55.4-2.33l21.73,3.67c-.14.83-.28,1.66-.43,2.49Zm.79-4.66c.13-.78.25-1.57.37-2.35l21.78,3.36-.39,2.49Zm.72-4.68.33-2.35,21.83,3c-.11.83-.23,1.66-.35,2.5Zm.65-4.69.3-2.35,21.87,2.7c-.1.83-.21,1.67-.32,2.5Zm.58-4.71c.09-.78.18-1.56.26-2.34l21.91,2.37c-.09.84-.18,1.68-.28,2.52Zm.51-4.71c.08-.78.16-1.57.23-2.35l21.94,2-.24,2.53Zm.44-4.72c.07-.78.13-1.56.19-2.35l22,1.73-.21,2.53Zm.37-4.71c.06-.79.11-1.57.16-2.36l22,1.4c0,.84-.11,1.69-.17,2.53Zm.3-4.72.12-2.37,22,1.08c0,.84-.09,1.68-.14,2.52Zm.23-4.74.09-2.35,22,.72c0,.85-.06,1.7-.09,2.55Z"/><path class="cls-2" d="M61.87,465.38l-.56-1.14,24.23-11.78.52,1.07Zm-1.68-3.49-.54-1.15,24.4-11.42.5,1.08Zm-1.62-3.48-.52-1.15,24.53-11.13.49,1.08ZM57,454.91l-.53-1.19L81.17,443l.46,1.05Zm-1.54-3.55L55,450.23l24.79-10.54.48,1.13ZM54,447.82l-.48-1.17,24.94-10.17.45,1.1Zm-1.45-3.6-.46-1.17,25.09-9.79.43,1.1Zm-1.39-3.58-.44-1.18L75.91,430l.42,1.1Zm-1.34-3.59-.44-1.23,25.35-9.1.39,1.07Zm-1.3-3.65-.42-1.2,25.46-8.79.39,1.11Zm-1.25-3.63-.4-1.2,25.57-8.49.37,1.13Zm-1.19-3.65-.39-1.21,25.67-8.16.36,1.12Zm-1.15-3.66-.38-1.25,25.79-7.77.33,1.09Zm-1.12-3.72-.35-1.21,25.88-7.46.34,1.14Zm-1-3.69-.34-1.22,26-7.13.31,1.14Zm-1-3.71-.32-1.22,26.07-6.81.3,1.15Zm-.95-3.72-.32-1.26L66.63,400l.28,1.11Zm-.92-3.77-.29-1.24,26.25-6.05.27,1.14ZM39,400.11l-.27-1.24,26.32-5.73.25,1.14Zm-.81-3.76-.25-1.21,26.38-5.47.25,1.2Zm-.76-3.76-.24-1.26,26.46-5.05.22,1.15Zm-.71-3.79-.22-1.24L63,382.84l.21,1.16ZM36.06,385l-.21-1.26,26.58-4.37.2,1.17Zm-.61-3.8L35.26,380l26.63-4,.18,1.17Zm-.56-3.81-.18-1.25,26.69-3.68.16,1.17Zm-.51-3.81-.16-1.26L61,369l.15,1.17Zm-.47-3.82-.14-1.26,26.78-3,.13,1.17ZM33.5,366l-.12-1.27,26.81-2.6.11,1.17Zm-.36-3.83L33,360.85l26.85-2.25.1,1.18Zm-.31-3.84L32.74,357l26.87-1.9.09,1.18Zm-.26-3.84-.07-1.26,26.89-1.54.07,1.18Zm-.21-3.85,0-1.27,26.91-1.15.05,1.17Zm-.15-3.81-.05-1.31,26.93-.78,0,1.13Zm-.11-3.85,0-1.28L59,341.17l0,1.17ZM32,339.07V337.8L59,337.69v1.17Zm0-3.82v-1.31l26.94.27v1.14Zm0-3.86,0-1.26,26.93.56,0,1.19Zm.1-3.86,0-1.26,26.92,1,0,1.18Zm.14-3.83.06-1.29,26.91,1.34-.06,1.15Zm.2-3.84.08-1.27,26.88,1.66-.07,1.17Zm.25-3.83.09-1.29,26.86,2.05-.08,1.14Zm.3-3.84.11-1.28L60,313.31l-.1,1.15Zm.35-3.81.13-1.32,26.79,2.8L60.23,311Zm.4-3.84.15-1.29,26.75,3.13-.13,1.15Zm.45-3.81.17-1.31,26.7,3.52L61,304.06Zm.51-3.83.18-1.28,26.66,3.86-.17,1.14Zm.55-3.8.19-1.27L62.13,296,62,297.17Zm.6-3.79.21-1.24,26.56,4.49-.2,1.16Zm.65-3.77.24-1.3,26.48,4.93-.2,1.1Zm.71-3.78.24-1.27L64,285.72l-.22,1.13ZM38,278l.26-1.25,26.35,5.59-.23,1.14Zm.81-3.76.27-1.23L65.4,278.9l-.26,1.15Zm.85-3.73.29-1.26,26.19,6.3-.26,1.12Zm.9-3.74.31-1.25L67,272.15l-.28,1.11Zm.95-3.72.33-1.23,26,7-.3,1.13Zm1-3.69.35-1.25,25.92,7.33-.31,1.1Zm1.05-3.69.37-1.25,25.81,7.68-.32,1.09ZM44.7,252l.37-1.22,25.73,8-.34,1.11Zm1.15-3.67.4-1.24,25.6,8.38-.35,1.08ZM47,244.64l.41-1.22L73,252.11l-.37,1.1ZM48.28,241l.43-1.22,25.38,9-.38,1.08Zm1.3-3.62.44-1.22,25.26,9.36-.39,1.08Z"/><path class="cls-2" d="M60.28,465.56l-3.53-7.68-2.3-5.41a296,296,0,0,1-10.6-29.7,284.47,284.47,0,0,1-7.33-30.66c-.37-1.8-.64-3.52-.88-5l-.82-5.2c-.15-.84-.24-1.57-.31-2.17q-.06-.4-.09-.72l-.1-.74-5.21-3.44c-3.52-2.33-8-5.58-11.85-8.45C13,363.16,9,359.87,5.72,357.22c-1.64-1.34-2.93-2.44-3.82-3.22L.29,352.6l-.17-4.7c-.1-2-.1-4.73-.11-7.86,0-1.2,0-2.48,0-3.82C.11,324.89.89,312,2.16,300.85a351.2,351.2,0,0,1,6-35c.39-1.63.76-3.16,1.09-4.57.64-2.69,1.2-5,1.71-6.8L12.19,250l3.67-1.91c2-1.07,4.82-2.43,7.61-3.73,2.43-1.15,5.2-2.42,7.61-3.5l3.21-1.4,1.09-3.07c.26-.69.53-1.48.83-2.35.62-1.79,1.4-4,2.39-6.43,2.76-7.34,6.9-16.8,11.34-25.93,4.68-9.27,9.69-18.29,13.76-24.78,1.33-2.26,2.64-4.24,3.69-5.83.49-.75.94-1.42,1.32-2L71,165.53l22.73,15.34-.71,1L71.35,167.29l-1.58,2.43c-.38.6-.83,1.28-1.33,2-1,1.57-2.34,3.54-3.66,5.79C60.72,184,55.73,193,51.07,202.23c-4.42,9.09-8.54,18.51-11.3,25.83-1,2.41-1.75,4.61-2.36,6.38-.31.88-.59,1.68-.84,2.37l-1.27,3.58L31.6,242c-2.41,1.07-5.17,2.34-7.59,3.48-2.78,1.29-5.54,2.65-7.57,3.71l-3.18,1.65-1.11,4c-.5,1.76-1.05,4.07-1.69,6.75-.34,1.42-.7,2.95-1.1,4.57A353,353,0,0,0,3.41,301c-1.26,11.11-2,24-2.15,35.23,0,1.33,0,2.61,0,3.82,0,3.11,0,5.79.11,7.81L1.53,352l1.2,1c.88.77,2.16,1.86,3.73,3.15,3.28,2.68,7.3,6,11.55,9.13,3.87,2.87,8.3,6.11,11.8,8.42l5.69,3.76.17,1.31c0,.2.06.45.09.73.07.58.16,1.29.3,2.12l.83,5.2c.23,1.51.5,3.21.87,5a284.61,284.61,0,0,0,7.3,30.54A293.73,293.73,0,0,0,55.62,452l3.12,7.2L61.42,465Z"/><path class="cls-2" d="M187.63,415.89l-.58-1.08L302.16,352.9a32.2,32.2,0,0,0,13.76-41.44L202.71,68.79l1.11-.52L317,311a33.44,33.44,0,0,1-14.29,43Z"/><rect class="cls-2" x="321.42" y="177.91" width="1.22" height="124.48" transform="translate(-16.99 24.65) rotate(-4.27)"/><rect class="cls-2" x="539.57" y="283.71" width="1.22" height="169.81" transform="translate(99.74 852.02) rotate(-81.97)"/><path class="cls-2" d="M418.44,689.92a.44.44,0,0,1-.08-.2l-.27-1a.61.61,0,0,1,1.19-.3l.26,1a.61.61,0,0,1-.44.75A.64.64,0,0,1,418.44,689.92Zm-1.78-7a.56.56,0,0,1-.09-.19l-.3-1.19a.61.61,0,0,1,.44-.74.62.62,0,0,1,.75.44l.3,1.19a.61.61,0,0,1-.44.74A.6.6,0,0,1,416.66,682.94Zm-1.82-7.11a.72.72,0,0,1-.09-.2l-.3-1.19a.61.61,0,0,1,1.19-.3l.3,1.19a.6.6,0,0,1-.44.74A.61.61,0,0,1,414.84,675.83ZM413,668.71a.61.61,0,0,1-.09-.2l-.3-1.18a.61.61,0,1,1,1.19-.31l.3,1.19a.61.61,0,0,1-.44.75A.64.64,0,0,1,413,668.71Zm-1.81-7.12a.66.66,0,0,1-.09-.19l-.31-1.19a.61.61,0,1,1,1.19-.31l.3,1.19a.61.61,0,0,1-1.09.5Zm-1.82-7.12a.56.56,0,0,1-.09-.19l-.31-1.19a.61.61,0,0,1,1.19-.3l.31,1.19a.62.62,0,0,1-.45.74A.61.61,0,0,1,409.39,654.47Zm-1.82-7.11a.72.72,0,0,1-.09-.2l-.3-1.19a.6.6,0,0,1,.44-.74.61.61,0,0,1,.74.44l.31,1.19a.62.62,0,0,1-.45.74A.6.6,0,0,1,407.57,647.36Zm-1.82-7.12a.72.72,0,0,1-.09-.2l-.3-1.18a.61.61,0,1,1,1.18-.31l.31,1.19a.61.61,0,0,1-.45.74A.6.6,0,0,1,405.75,640.24Zm-1.82-7.12a.61.61,0,0,1-.09-.2l-.3-1.18A.61.61,0,0,1,404,631a.63.63,0,0,1,.75.45l.3,1.18a.63.63,0,0,1-.44.75A.62.62,0,0,1,403.93,633.12ZM402.11,626a.66.66,0,0,1-.09-.19l-.3-1.19a.6.6,0,0,1,.44-.74.61.61,0,0,1,.75.44l.3,1.18a.63.63,0,0,1-.44.75A.62.62,0,0,1,402.11,626Zm-1.82-7.12a.56.56,0,0,1-.09-.19l-.3-1.19a.6.6,0,0,1,.44-.74.61.61,0,0,1,.75.44l.3,1.19a.61.61,0,0,1-.44.74A.6.6,0,0,1,400.29,618.88Zm-1.82-7.11a.5.5,0,0,1-.08-.2l-.31-1.19a.61.61,0,0,1,1.19-.3l.3,1.19a.6.6,0,0,1-.44.74A.61.61,0,0,1,398.47,611.77Zm-1.81-7.12a.46.46,0,0,1-.09-.2l-.31-1.18a.61.61,0,1,1,1.19-.31l.3,1.19a.61.61,0,0,1-.44.75A.62.62,0,0,1,396.66,604.65Zm-1.82-7.12a.48.48,0,0,1-.09-.19l-.31-1.19a.63.63,0,0,1,.45-.75.62.62,0,0,1,.74.45l.3,1.18a.61.61,0,0,1-1.09.5ZM393,590.41a.66.66,0,0,1-.09-.19l-.31-1.19a.61.61,0,0,1,1.19-.3l.31,1.18a.62.62,0,0,1-.45.75A.61.61,0,0,1,393,590.41Zm-1.82-7.11a.72.72,0,0,1-.09-.2l-.3-1.19a.61.61,0,1,1,1.18-.3l.3,1.19a.61.61,0,0,1-1.09.5Zm-1.82-7.12a.61.61,0,0,1-.09-.2l-.3-1.18a.61.61,0,1,1,1.18-.31l.31,1.19a.61.61,0,0,1-1.1.5Zm-1.82-7.12a.61.61,0,0,1-.09-.2l-.3-1.18a.61.61,0,1,1,1.19-.3l.3,1.18a.63.63,0,0,1-.44.75A.62.62,0,0,1,387.56,569.06Zm-1.82-7.12a.66.66,0,0,1-.09-.19l-.3-1.19a.6.6,0,0,1,.44-.74.61.61,0,0,1,.75.44l.3,1.18a.61.61,0,0,1-1.1.5Zm-1.82-7.12a.56.56,0,0,1-.09-.19l-.3-1.19a.61.61,0,0,1,1.19-.3l.3,1.19a.61.61,0,0,1-.44.74A.6.6,0,0,1,383.92,554.82Zm-1.82-7.11a.72.72,0,0,1-.09-.2l-.3-1.18a.61.61,0,1,1,1.19-.31l.3,1.19a.6.6,0,0,1-.44.74A.62.62,0,0,1,382.1,547.71Zm-1.81-7.12a.61.61,0,0,1-.09-.2l-.31-1.18a.63.63,0,0,1,.44-.75.62.62,0,0,1,.75.44l.3,1.19a.61.61,0,0,1-.44.75A.63.63,0,0,1,380.29,540.59Zm-1.82-7.12a.66.66,0,0,1-.09-.19l-.31-1.19a.63.63,0,0,1,.44-.75.62.62,0,0,1,.75.45l.3,1.18a.61.61,0,0,1-1.09.5Zm-1.82-7.12a.56.56,0,0,1-.09-.19l-.3-1.19a.61.61,0,1,1,1.18-.3l.31,1.18a.62.62,0,0,1-.45.75A.61.61,0,0,1,376.65,526.35Zm-1.82-7.11a.72.72,0,0,1-.09-.2l-.3-1.19a.61.61,0,1,1,1.18-.3l.31,1.19a.62.62,0,0,1-.45.74A.6.6,0,0,1,374.83,519.24ZM373,512.12a.72.72,0,0,1-.09-.2l-.3-1.18a.61.61,0,1,1,1.18-.31l.31,1.19a.61.61,0,0,1-1.1.5Z"/><path class="cls-2" d="M457.93,359.46a3.22,3.22,0,1,0-4.48-.83A3.22,3.22,0,0,0,457.93,359.46Z"/><path class="cls-2" d="M450.5,687.22a3.22,3.22,0,1,0-4.48-.83A3.22,3.22,0,0,0,450.5,687.22Z"/><path class="cls-2" d="M259.25,639.32a3.22,3.22,0,1,0-4.48-.83A3.23,3.23,0,0,0,259.25,639.32Z"/><path class="cls-2" d="M437.09,317.79a3.22,3.22,0,1,0-4.48-.82A3.2,3.2,0,0,0,437.09,317.79Z"/><path class="cls-2" d="M190.14,417.26a3.22,3.22,0,1,0-4.48-.83A3.22,3.22,0,0,0,190.14,417.26Z"/><path class="cls-2" d="M355.65,54.74a6.32,6.32,0,1,1,8.79,1.62A6.34,6.34,0,0,1,355.65,54.74Zm8.75-6a4.3,4.3,0,1,0-1.11,6A4.3,4.3,0,0,0,364.4,48.72Z"/><path class="cls-2" d="M306,440.72a5.35,5.35,0,1,0-7.43-1.38A5.35,5.35,0,0,0,306,440.72Z"/><polygon class="cls-2" points="365.4 600.61 362.27 588.71 376.11 591.92 386.59 582.33 389.72 594.23 379.24 603.82 365.4 600.61"/><polygon class="cls-2" points="372.26 626.75 369.13 614.84 382.97 618.05 393.45 608.46 396.58 620.36 386.1 629.95 372.26 626.75"/><polygon class="cls-2" points="379.12 652.88 375.99 640.97 389.83 644.18 400.31 634.59 403.44 646.5 392.96 656.09 379.12 652.88"/><polygon class="cls-2" points="385.98 679.01 382.85 667.11 396.69 670.31 407.17 660.72 410.29 672.63 399.81 682.22 385.98 679.01"/><polygon class="cls-2" points="217.13 104.62 221.33 113.62 209.88 113.08 202.95 122.21 198.75 113.21 205.68 104.08 217.13 104.62"/><polygon class="cls-2" points="210.21 89.81 214.41 98.81 202.96 98.26 196.03 107.39 191.82 98.39 198.76 89.26 210.21 89.81"/><polygon class="cls-2" points="203.29 74.99 207.49 83.99 196.04 83.45 189.11 92.58 184.91 83.58 191.84 74.45 203.29 74.99"/><polygon class="cls-2" points="196.37 60.18 200.57 69.17 189.12 68.63 182.19 77.76 177.99 68.76 184.92 59.63 196.37 60.18"/><polygon class="cls-2" points="189.45 45.36 193.65 54.36 182.2 53.81 175.27 62.95 171.06 53.95 178 44.81 189.45 45.36"/><polygon class="cls-2" points="528.93 369.29 534.17 370.03 530.59 374.99 532.66 380.75 527.41 380.01 525.35 374.25 528.93 369.29"/><polygon class="cls-2" points="520.29 368.07 525.53 368.81 521.96 373.77 524.02 379.53 518.77 378.79 516.71 373.03 520.29 368.07"/><polygon class="cls-2" points="511.65 366.84 516.9 367.59 513.32 372.55 515.38 378.31 510.13 377.56 508.07 371.8 511.65 366.84"/><polygon class="cls-2" points="503.01 365.62 508.26 366.36 504.68 371.32 506.74 377.08 501.49 376.34 499.43 370.58 503.01 365.62"/><polygon class="cls-2" points="494.37 364.4 499.62 365.14 496.04 370.1 498.1 375.86 492.86 375.12 490.79 369.36 494.37 364.4"/></g></g></svg>