<svg xmlns="http://www.w3.org/2000/svg" viewBox="0 0 20.91 15.83"><defs><style>.cls-1{fill:#ff7000;}.cls-2{fill:#00b8de;}.cls-3{fill:#00517d;}</style></defs><title>资源 10</title><g id="图层_2" data-name="图层 2"><g id="Layer_1" data-name="Layer 1"><polygon class="cls-1" points="5.24 14.45 6.16 14.91 4.87 15.57 1.84 15.57 0.55 14.91 1.47 14.45 1.37 14.22 0 14.91 1.79 15.83 4.92 15.83 6.71 14.91 5.34 14.22 5.24 14.45"/><polygon class="cls-2" points="5.24 13.28 6.16 13.75 4.87 14.41 1.84 14.41 0.55 13.75 1.47 13.28 1.37 13.05 0 13.75 1.79 14.66 4.92 14.66 6.71 13.75 5.34 13.05 5.24 13.28"/><polygon class="cls-2" points="5.24 12.11 6.16 12.58 4.87 13.24 1.84 13.24 0.55 12.58 1.47 12.11 1.37 11.88 0 12.58 1.79 13.49 4.92 13.49 6.71 12.58 5.34 11.88 5.24 12.11"/><polygon class="cls-2" points="5.24 10.95 6.16 11.41 4.87 12.07 1.84 12.07 0.55 11.41 1.47 10.95 1.37 10.72 0 11.41 1.79 12.33 4.92 12.33 6.71 11.41 5.34 10.72 5.24 10.95"/><polygon class="cls-2" points="5.24 9.78 6.16 10.25 4.87 10.91 1.84 10.91 0.55 10.25 1.47 9.78 1.37 9.55 0 10.25 1.79 11.16 4.92 11.16 6.71 10.25 5.34 9.55 5.24 9.78"/><polygon class="cls-3" points="5.24 8.61 6.16 9.08 4.87 9.74 1.84 9.74 0.55 9.08 1.47 8.61 1.37 8.38 0 9.08 1.79 9.99 4.92 9.99 6.71 9.08 5.34 8.38 5.24 8.61"/><polygon class="cls-3" points="5.24 7.45 6.16 7.92 4.87 8.57 1.84 8.57 0.55 7.92 1.47 7.45 1.37 7.22 0 7.92 1.79 8.83 4.92 8.83 6.71 7.92 5.34 7.22 5.24 7.45"/><polygon class="cls-3" points="5.24 6.28 6.16 6.75 4.87 7.41 1.84 7.41 0.55 6.75 1.47 6.28 1.37 6.05 0 6.75 1.79 7.66 4.92 7.66 6.71 6.75 5.34 6.05 5.24 6.28"/><polygon class="cls-3" points="5.24 5.11 6.16 5.58 4.87 6.24 1.84 6.24 0.55 5.58 1.47 5.11 1.37 4.88 0 5.58 1.79 6.49 4.92 6.49 6.71 5.58 5.34 4.88 5.24 5.11"/><polygon class="cls-3" points="5.24 3.95 6.16 4.42 4.87 5.07 1.84 5.07 0.55 4.42 1.47 3.95 1.37 3.72 0 4.42 1.79 5.33 4.92 5.33 6.71 4.42 5.34 3.72 5.24 3.95"/><polygon class="cls-3" points="5.24 2.78 6.16 3.25 4.87 3.91 1.84 3.91 0.55 3.25 1.47 2.78 1.37 2.55 0 3.25 1.79 4.16 4.92 4.16 6.71 3.25 5.34 2.55 5.24 2.78"/><polygon class="cls-3" points="5.24 1.61 6.16 2.08 4.87 2.74 1.84 2.74 0.55 2.08 1.47 1.61 1.37 1.38 0 2.08 1.79 2.99 4.92 2.99 6.71 2.08 5.34 1.38 5.24 1.61"/><polygon class="cls-3" points="1.81 1.7 1.86 1.58 0.55 0.91 1.84 0.25 4.87 0.25 6.16 0.91 4.87 1.57 1.81 1.57 1.81 1.7 1.86 1.58 1.81 1.7 1.81 1.82 4.92 1.82 6.71 0.91 4.92 0 1.79 0 0 0.91 1.79 1.82 1.81 1.82 1.81 1.7"/><polygon class="cls-1" points="12.34 14.45 13.26 14.91 11.97 15.57 8.94 15.57 7.65 14.91 8.57 14.45 8.47 14.22 7.1 14.91 8.89 15.83 12.02 15.83 13.81 14.91 12.44 14.22 12.34 14.45"/><polygon class="cls-2" points="12.34 13.28 13.26 13.75 11.97 14.41 8.94 14.41 7.65 13.75 8.57 13.28 8.47 13.05 7.1 13.75 8.89 14.66 12.02 14.66 13.81 13.75 12.44 13.05 12.34 13.28"/><polygon class="cls-2" points="12.34 12.11 13.26 12.58 11.97 13.24 8.94 13.24 7.65 12.58 8.57 12.11 8.47 11.88 7.1 12.58 8.89 13.49 12.02 13.49 13.81 12.58 12.44 11.88 12.34 12.11"/><polygon class="cls-2" points="12.34 10.95 13.26 11.41 11.97 12.07 8.94 12.07 7.65 11.41 8.57 10.95 8.47 10.72 7.1 11.41 8.89 12.33 12.02 12.33 13.81 11.41 12.44 10.72 12.34 10.95"/><polygon class="cls-2" points="12.34 9.78 13.26 10.25 11.97 10.91 8.94 10.91 7.65 10.25 8.57 9.78 8.47 9.55 7.1 10.25 8.89 11.16 12.02 11.16 13.81 10.25 12.44 9.55 12.34 9.78"/><polygon class="cls-2" points="12.34 8.61 13.26 9.08 11.97 9.74 8.94 9.74 7.65 9.08 8.57 8.61 8.47 8.38 7.1 9.08 8.89 9.99 12.02 9.99 13.81 9.08 12.44 8.38 12.34 8.61"/><polygon class="cls-2" points="12.34 7.45 13.26 7.92 11.97 8.57 8.94 8.57 7.65 7.92 8.57 7.45 8.47 7.22 7.1 7.92 8.89 8.83 12.02 8.83 13.81 7.92 12.44 7.22 12.34 7.45"/><polygon class="cls-2" points="12.34 6.28 13.26 6.75 11.97 7.41 8.94 7.41 7.65 6.75 8.57 6.28 8.47 6.05 7.1 6.75 8.89 7.66 12.02 7.66 13.81 6.75 12.44 6.05 12.34 6.28"/><polygon class="cls-2" points="12.34 5.11 13.26 5.58 11.97 6.24 8.94 6.24 7.65 5.58 8.57 5.11 8.47 4.88 7.1 5.58 8.89 6.49 12.02 6.49 13.81 5.58 12.44 4.88 12.34 5.11"/><polygon class="cls-2" points="12.34 3.95 13.26 4.42 11.97 5.07 8.94 5.07 7.65 4.42 8.57 3.95 8.47 3.72 7.1 4.42 8.89 5.33 12.02 5.33 13.81 4.42 12.44 3.72 12.34 3.95"/><polygon class="cls-3" points="12.34 2.78 13.26 3.25 11.97 3.91 8.94 3.91 7.65 3.25 8.57 2.78 8.47 2.55 7.1 3.25 8.89 4.16 12.02 4.16 13.81 3.25 12.44 2.55 12.34 2.78"/><polygon class="cls-3" points="12.34 1.61 13.26 2.08 11.97 2.74 8.94 2.74 7.65 2.08 8.57 1.61 8.47 1.38 7.1 2.08 8.89 2.99 12.02 2.99 13.81 2.08 12.44 1.38 12.34 1.61"/><polygon class="cls-3" points="8.91 1.7 8.96 1.58 7.65 0.91 8.94 0.25 11.97 0.25 13.26 0.91 11.97 1.57 8.91 1.57 8.91 1.7 8.96 1.58 8.91 1.7 8.91 1.82 12.02 1.82 13.81 0.91 12.02 0 8.89 0 7.1 0.91 8.89 1.82 8.91 1.82 8.91 1.7"/><polygon class="cls-1" points="19.45 14.45 20.36 14.91 19.07 15.57 16.04 15.57 14.75 14.91 15.67 14.45 15.57 14.22 14.2 14.91 15.99 15.83 19.12 15.83 20.91 14.91 19.54 14.22 19.45 14.45"/><polygon class="cls-2" points="19.45 13.28 20.36 13.75 19.07 14.41 16.04 14.41 14.75 13.75 15.67 13.28 15.57 13.05 14.2 13.75 15.99 14.66 19.12 14.66 20.91 13.75 19.54 13.05 19.45 13.28"/><polygon class="cls-2" points="19.45 12.11 20.36 12.58 19.07 13.24 16.04 13.24 14.75 12.58 15.67 12.11 15.57 11.88 14.2 12.58 15.99 13.49 19.12 13.49 20.91 12.58 19.54 11.88 19.45 12.11"/><polygon class="cls-2" points="19.45 10.95 20.36 11.41 19.07 12.07 16.04 12.07 14.75 11.41 15.67 10.95 15.57 10.72 14.2 11.41 15.99 12.33 19.12 12.33 20.91 11.41 19.54 10.72 19.45 10.95"/><polygon class="cls-2" points="19.45 9.78 20.36 10.25 19.07 10.91 16.04 10.91 14.75 10.25 15.67 9.78 15.57 9.55 14.2 10.25 15.99 11.16 19.12 11.16 20.91 10.25 19.54 9.55 19.45 9.78"/><polygon class="cls-2" points="19.45 8.61 20.36 9.08 19.07 9.74 16.04 9.74 14.75 9.08 15.67 8.61 15.57 8.38 14.2 9.08 15.99 9.99 19.12 9.99 20.91 9.08 19.54 8.38 19.45 8.61"/><polygon class="cls-2" points="19.45 7.45 20.36 7.92 19.07 8.57 16.04 8.57 14.75 7.92 15.67 7.45 15.57 7.22 14.2 7.92 15.99 8.83 19.12 8.83 20.91 7.92 19.54 7.22 19.45 7.45"/><polygon class="cls-2" points="19.45 6.28 20.36 6.75 19.07 7.41 16.04 7.41 14.75 6.75 15.67 6.28 15.57 6.05 14.2 6.75 15.99 7.66 19.12 7.66 20.91 6.75 19.54 6.05 19.45 6.28"/><polygon class="cls-3" points="19.45 5.11 20.36 5.58 19.07 6.24 16.04 6.24 14.75 5.58 15.67 5.11 15.57 4.88 14.2 5.58 15.99 6.49 19.12 6.49 20.91 5.58 19.54 4.88 19.45 5.11"/><polygon class="cls-3" points="19.45 3.95 20.36 4.42 19.07 5.07 16.04 5.07 14.75 4.42 15.67 3.95 15.57 3.72 14.2 4.42 15.99 5.33 19.12 5.33 20.91 4.42 19.54 3.72 19.45 3.95"/><polygon class="cls-3" points="19.45 2.78 20.36 3.25 19.07 3.91 16.04 3.91 14.75 3.25 15.67 2.78 15.57 2.55 14.2 3.25 15.99 4.16 19.12 4.16 20.91 3.25 19.54 2.55 19.45 2.78"/><polygon class="cls-3" points="19.45 1.61 20.36 2.08 19.07 2.74 16.04 2.74 14.75 2.08 15.67 1.61 15.57 1.38 14.2 2.08 15.99 2.99 19.12 2.99 20.91 2.08 19.54 1.38 19.45 1.61"/><polygon class="cls-3" points="16.02 1.7 16.07 1.58 14.75 0.91 16.04 0.25 19.07 0.25 20.36 0.91 19.07 1.57 16.02 1.57 16.02 1.7 16.07 1.58 16.02 1.7 16.02 1.82 19.12 1.82 20.91 0.91 19.12 0 15.99 0 14.2 0.91 15.99 1.82 16.02 1.82 16.02 1.7"/></g></g></svg>