<svg xmlns="http://www.w3.org/2000/svg" viewBox="0 0 80 80"><defs><style>.cls-1{fill:#00b0ff;}</style></defs><title>g4670</title><g id="图层_2" data-name="图层 2"><g id="Layer_1" data-name="Layer 1"><g id="g4670"><g id="g4672"><g id="path4674"><path class="cls-1" d="M38,80c-.32,0-1,0-1-11.91,0-7.53.29-17.52.82-28.15s1.22-20.59,2-28.09C41,0,41.65,0,42,.05l0,.4h0c-.9.63-2.63,16.65-3.76,39.47s-1,38.94-.15,39.66a.06.06,0,0,0-.05,0Z"/></g><g id="path4676"><path class="cls-1" d="M30.54,78.87c-2.48-.61-3.79-5.25-3.69-13.06s1.53-17.68,4-28C36.21,16,44.35-.11,49.46,1.13l-.09.39C44.57.36,36.46,16.66,31.29,37.88c-2.51,10.32-3.95,20.24-4,27.93-.1,7.51,1.14,12.12,3.38,12.67Z"/></g><g id="path4678"><path class="cls-1" d="M22.78,76.1c-3.87-1.84-5.7-7.35-5.14-15.5s3.39-17.84,8-27.46S36,15.18,41.94,9.66,53.35,2.05,57.22,3.9l-.17.36c-3.72-1.78-9,.25-14.84,5.69S30.54,23.74,26,33.31,18.59,52.58,18,60.62,19.24,74,23,75.75Z"/></g><g id="path4680"><path class="cls-1" d="M14.76,71c-9.17-7.46-5.31-27.45,8.61-44.56S56.07,1.51,65.24,9L65,9.28C56,2,37.46,9.78,23.68,26.72S6,63.4,15,70.72Z"/></g><g id="path4682"><path class="cls-1" d="M7.07,62.71c-8-11.57.3-31.17,18.45-43.7S65,5.72,72.93,17.29l-.33.22C64.74,6.12,43.73,6.94,25.75,19.34S-.46,51.09,7.4,62.49Z"/></g><g id="path4684"><path class="cls-1" d="M1.43,50.6C-2.64,35.81,11.36,19,32.62,13.17S74.5,14.6,78.57,29.4l-.38.1c-4-14.58-24.4-21.73-45.46-15.95S-2.19,35.91,1.81,50.5Z"/></g><g id="path4686"><path class="cls-1" d="M79.81,43.94l-.4,0c1.51-15.3-14.94-29.49-36.67-31.64S2.1,20.81.59,36.1l-.4,0C1.73,20.55,20.83,9.69,42.78,11.86S81.34,28.42,79.81,43.94Z"/></g><g id="path4688"><path class="cls-1" d="M76,57.51l-.35-.17c6.37-13.1-4.41-31.53-24-41.09C42,11.62,31.88,9.74,23,11S7.48,16.33,4.39,22.66L4,22.49C7.18,16,13.88,11.8,22.91,10.56s19.23.66,28.83,5.34C71.57,25.55,82.43,44.22,76,57.51Z"/></g><g id="path4690"><path class="cls-1" d="M68.94,67.61l-.28-.28c8.8-9.22,3.11-29-12.69-44.07S20.15,3.44,11.34,12.67l-.28-.28C20,3,40.28,7.75,56.24,23S77.9,58.22,68.94,67.61Z"/></g><g id="path4692"><path class="cls-1" d="M61,74.08l-.21-.34C69.32,68.46,67,49,55.56,30.44S27.84,1,19.26,6.26l-.21-.34C27.82.53,44.35,11.44,55.9,30.23S69.71,68.69,61,74.08Z"/></g><g id="path4694"><path class="cls-1" d="M53,77.81l-.13-.37c6.33-2.18,5.69-20.75-1.43-41.4S33.41.38,27.09,2.56L27,2.19C33.5-.06,44.66,15.06,51.85,35.91S59.58,75.56,53,77.81Z"/></g><g id="path4696"><path class="cls-1" d="M45.45,79.63l-.06-.4c2.48-.34,3-16.47-.27-39.93a222.08,222.08,0,0,0-5.38-27.65C36.86,1.3,35.09.71,34.61.77l-.06-.4c2-.27,4.12,5.93,5.57,11.18a222.52,222.52,0,0,1,5.4,27.69C48.19,58.72,48.9,79.15,45.45,79.63Z"/></g></g><g id="g4698"><g id="path4700"><path class="cls-1" d="M40,79.5c-8,0-16-2.08-22.24-6.25l.23-.33c12.34,8.26,31.68,8.26,44,0l.23.33C56,77.42,48,79.5,40,79.5Z"/></g><g id="path4702"><path class="cls-1" d="M39.93,78.05a47.21,47.21,0,0,1-18.08-3.51A32.86,32.86,0,0,1,9.33,65.68l.31-.25A32.35,32.35,0,0,0,22,74.17c16.75,7,38.44,3.09,48.35-8.74l.31.25C64,73.62,52.12,78.05,39.93,78.05Z"/></g><g id="path4704"><path class="cls-1" d="M40,75.66a52.21,52.21,0,0,1-12.31-1.45C16.48,71.49,7.87,65.39,4,57.48l.36-.17c3.79,7.8,12.31,13.82,23.37,16.51,19.65,4.77,41.13-2.63,47.87-16.51l.36.17C70.56,68.63,55.76,75.66,40,75.66Z"/></g><g id="path4706"><path class="cls-1" d="M40,72.4a55.41,55.41,0,0,1-6.27-.35C16.87,70.13,3.7,60.81,1,48.85l.39-.09c2.67,11.8,15.7,21,32.42,22.89,21.3,2.42,41.41-7.85,44.82-22.89l.39.09C75.89,62.59,59.06,72.4,40,72.4Z"/></g><g id="path4708"><path class="cls-1" d="M40,68.34C17.94,68.34,0,55.63,0,40H.4C.4,55.41,18.16,68,40,68S79.6,55.41,79.6,40H80C80,55.63,62.06,68.34,40,68.34Z"/></g><g id="path4710"><path class="cls-1" d="M40,63.6c-19,0-35.87-9.82-39-23.55a20,20,0,0,1,0-8.9l.39.09a19.45,19.45,0,0,0,0,8.72C4.46,53.52,21.11,63.2,40,63.2a57,57,0,0,0,6.23-.35c12.4-1.41,23.16-7,28.79-14.91a20.46,20.46,0,0,0,3.63-16.7l.39-.09a20.8,20.8,0,0,1-3.7,17c-5.69,8-16.56,13.66-29.06,15.08A55.44,55.44,0,0,1,40,63.6Z"/></g><g id="path4712"><path class="cls-1" d="M40,58.27c-15.8,0-30.6-7-36-18.18A19.74,19.74,0,0,1,4,22.52l.36.17a19.32,19.32,0,0,0,0,17.22C11.12,53.79,32.6,61.2,52.25,56.42,63.44,53.71,72,47.59,75.75,39.66a19.08,19.08,0,0,0-.13-17l.36-.17a19.48,19.48,0,0,1,.13,17.31c-3.79,8-12.45,14.23-23.76,17A52.28,52.28,0,0,1,40,58.27Z"/></g><g id="path4714"><path class="cls-1" d="M40.07,52.49C27.88,52.49,16,48.07,9.33,40.13s-6.66-17.85,0-25.81l.31.25c-6.54,7.81-6.54,17.5,0,25.3C19.55,51.71,41.24,55.63,58,48.62c8.91-3.73,15-10,16.77-17.21,1.41-5.79-.15-11.77-4.4-16.84l.31-.25c4.33,5.17,5.92,11.27,4.48,17.19-1.78,7.33-8,13.7-17,17.47A47,47,0,0,1,40.07,52.49Z"/></g><g id="path4716"><path class="cls-1" d="M40,46.41c-8,0-16-2.07-22.23-6.24S7.77,30.11,7.61,23.88c-.16-6.06,3-11.83,8.88-16.23.41-.3.84-.61,1.27-.9l.23.33c-.43.29-.86.59-1.26.89C11,12.29,7.85,17.94,8,23.88c.16,6.09,3.71,11.76,10,16,12.83,8.59,33.15,8.19,45.28-.89C69.05,34.62,72.15,29,72,23c-.17-6.09-3.71-11.76-10-16l.23-.33C68.62,11,72.23,16.8,72.39,23c.16,6.07-3,11.83-8.88,16.23C57.16,44,48.58,46.41,40,46.41Z"/></g><g id="path4718"><path class="cls-1" d="M40,40.2c-15.63,0-28.34-9-28.34-20.1S24.37,0,40,0,68.34,9,68.34,20.1,55.63,40.2,40,40.2ZM40,.4C24.59.4,12.06,9.24,12.06,20.1S24.59,39.8,40,39.8,67.94,31,67.94,20.1,55.41.4,40,.4Z"/></g><g id="path4720"><path class="cls-1" d="M40,34c-13,0-23.59-7.51-23.59-16.74S27,.49,40,.49,63.59,8,63.59,17.23,53,34,40,34ZM40,.89C27.21.89,16.8,8.22,16.8,17.23S27.21,33.58,40,33.58s23.2-7.34,23.2-16.35S52.79.89,40,.89Z"/></g><g id="path4722"><path class="cls-1" d="M40,27.9c-10.07,0-18.27-5.82-18.27-13S29.93,2,40,2s18.27,5.82,18.27,13S50.07,27.9,40,27.9ZM40,2.35C30.15,2.35,22.13,8,22.13,14.92S30.15,27.5,40,27.5s17.87-5.64,17.87-12.58S49.85,2.35,40,2.35Z"/></g><g id="path4724"><path class="cls-1" d="M40,22.13c-6.89,0-12.5-4-12.5-8.9S33.11,4.34,40,4.34s12.5,4,12.5,8.89S46.89,22.13,40,22.13ZM40,4.74c-6.67,0-12.1,3.81-12.1,8.49s5.43,8.5,12.1,8.5,12.1-3.81,12.1-8.5S46.67,4.74,40,4.74Z"/></g><g id="path4726"><path class="cls-1" d="M40,16.8c-3.54,0-6.43-2.06-6.43-4.6S36.46,7.6,40,7.6s6.43,2.07,6.43,4.6S43.54,16.8,40,16.8ZM40,8c-3.32,0-6,1.88-6,4.2s2.71,4.21,6,4.21,6-1.89,6-4.21S43.32,8,40,8Z"/></g></g><path class="cls-1" d="M40,80A40,40,0,1,1,80,40,40,40,0,0,1,40,80ZM40,.4A39.6,39.6,0,1,0,79.6,40,39.64,39.64,0,0,0,40,.4Z"/></g></g></g></svg>