<svg xmlns="http://www.w3.org/2000/svg" xmlns:xlink="http://www.w3.org/1999/xlink" viewBox="0 0 94 94"><defs><style>.cls-1,.cls-2{fill:none;stroke:#00b0ff;stroke-miterlimit:10;}.cls-1{stroke-width:2px;}.cls-2{stroke-dasharray:2 2 2;}.cls-3{fill:url(#linear-gradient);}.cls-4{fill:url(#linear-gradient-2);}.cls-5,.cls-6{fill:#00b0ff;}.cls-5{opacity:0.2;}.cls-6{opacity:0.7;}</style><linearGradient id="linear-gradient" x1="-48.6" y1="-38.29" x2="-74.1" y2="-42.29" gradientTransform="translate(55.68 -19.7) rotate(-113.39)" gradientUnits="userSpaceOnUse"><stop offset="0"/><stop offset="0.1" stop-color="#000e14"/><stop offset="0.3" stop-color="#003349"/><stop offset="0.59" stop-color="#006d9e"/><stop offset="0.89" stop-color="#00b0ff"/></linearGradient><linearGradient id="linear-gradient-2" x1="-92.67" y1="113.56" x2="-118.17" y2="109.56" gradientTransform="translate(196.01 94.65) rotate(66.61)" xlink:href="#linear-gradient"/></defs><title>资源 8</title><g id="图层_2" data-name="图层 2"><g id="Layer_1" data-name="Layer 1"><path class="cls-1" d="M31.54,10.68A40,40,0,1,1,10.7,63.28,40,40,0,0,1,31.54,10.68Z"/><path class="cls-2" d="M79.54,33.5a35,35,0,1,1-46-18.23A35,35,0,0,1,79.54,33.5Z"/><path class="cls-1" d="M75,35.49A30,30,0,1,1,35.51,19.86,30,30,0,0,1,75,35.49Z"/><path class="cls-2" d="M70.36,37.47a25,25,0,1,1-32.87-13A25,25,0,0,1,70.36,37.47Z"/><path class="cls-1" d="M65.77,39.46A20,20,0,1,1,39.47,29,20,20,0,0,1,65.77,39.46Z"/><path class="cls-2" d="M61.18,41.44a15,15,0,1,1-19.72-7.81A15,15,0,0,1,61.18,41.44Z"/><path class="cls-3" d="M52.25,59.06a12.62,12.62,0,0,1-10-23.17l1.19,2.75A9.62,9.62,0,1,0,51.06,56.3Z"/><path class="cls-4" d="M42.58,35.74a12.62,12.62,0,0,1,10,23.17l-1.19-2.76a9.62,9.62,0,0,0-7.64-17.66Z"/><path class="cls-5" d="M53.32,44.84a6.43,6.43,0,1,1-8.46-3.35A6.45,6.45,0,0,1,53.32,44.84Z"/><path class="cls-5" d="M45.26,42.41a5.44,5.44,0,1,1-2.84,7.15A5.43,5.43,0,0,1,45.26,42.41Z"/><path class="cls-5" d="M45.65,43.33a4.43,4.43,0,1,1-2.31,5.83A4.45,4.45,0,0,1,45.65,43.33Z"/><path class="cls-5" d="M46.05,44.25a3.43,3.43,0,1,1-1.79,4.51A3.43,3.43,0,0,1,46.05,44.25Z"/><path class="cls-5" d="M46.45,45.16a2.43,2.43,0,1,1-1.27,3.21A2.44,2.44,0,0,1,46.45,45.16Z"/><path class="cls-5" d="M46.84,46.08A1.44,1.44,0,1,1,46.1,48,1.44,1.44,0,0,1,46.84,46.08Z"/><path class="cls-5" d="M47.24,47a.42.42,0,0,1,.57.23.43.43,0,0,1-.22.57.45.45,0,0,1-.58-.23A.44.44,0,0,1,47.24,47Z"/><rect class="cls-6" x="47" width="1" height="94"/><rect class="cls-6" y="47" width="94" height="1"/></g></g></svg>