<svg xmlns="http://www.w3.org/2000/svg" viewBox="0 0 305.65 308.55"><defs><style>.cls-1{opacity:0.8;}.cls-2{fill:#5fffe8;}</style></defs><title>资源 7</title><g id="图层_2" data-name="图层 2"><g id="央铋_1" data-name="央铋 1"><g class="cls-1"><path class="cls-2" d="M142,35.62a14.57,14.57,0,0,0-1.72.12l-4.84.75c-2.08.35-4.64.61-7.5,1.22l-9.56,2.46c-3.46,1-7.09,2.54-11,3.91-3.81,1.63-7.71,3.62-11.76,5.6-7.77,4.59-16,9.82-22.93,16.52-7.32,6.31-13.3,14-18.62,21.26-2.32,3.88-4.73,7.54-6.67,11.19-1.72,3.77-3.63,7.21-4.93,10.58s-2.38,6.5-3.39,9.26c-.8,2.82-1.38,5.32-1.92,7.36s-1,3.64-1.2,4.75l-.26,1.71-3.32-.62.26-1.75c.22-1.13.7-2.76,1.22-4.84s1.19-4.61,2-7.52l3.46-9.45c1.3-3.45,3.26-6.95,5-10.79s4.44-7.47,6.76-11.45c1.38-1.85,2.78-3.72,4.19-5.63a59.76,59.76,0,0,1,4.48-5.63C63,71.08,66.19,67.28,70,64.12c1.84-1.63,3.59-3.37,5.5-4.9s3.91-2.93,5.85-4.38l2.9-2.17,3.06-1.86,6-3.65c4-2.22,8.14-4,11.92-5.87l11.19-4.1,9.75-2.5a25,25,0,0,1,4.11-.83l3.52-.54,4.94-.76c1.14-.18,1.75-.24,1.75-.24s5.08-6.74,11.5-13.53c3.17-3.25,6.61-6.21,9.31-8.53l4.61-3.8s.91,0,2.48.17l6.51,1c2.68.46,5.85.79,9.16,1.55l10.33,2.66,2.63.69,2.54.91,4.93,1.8a82.11,82.11,0,0,1,8.64,3.45l8.17,3.94.51,1.36c.32.86.77,2.08,1.22,3.66.92,3.1,2,7.18,3,11.16.45,2,.9,3.92,1.23,5.79s.5,3.67.71,5.19l.55,5,1.33,1a40.23,40.23,0,0,1,3.45,2.7l4.59,4.17a55,55,0,0,1,5.1,5c3.21,3.62,6.67,7,8.69,10.07l3.62,4.85-2.76,1.94-3.65-4.86c-2-3.07-5.55-6.45-8.75-10.12-3.38-3.5-7.15-6.61-9.8-9.12l-4.87-3.64-.5-4.91A88.16,88.16,0,0,0,223,40.92c-.89-3.94-2-8-2.87-11.07s-1.74-4.9-1.74-4.9l-7.57-3.64c-2.25-1.15-5.09-2-8-3.12s-6.07-2.42-9.36-3.14l-9.57-2.46c-3.05-.82-6-1-8.47-1.49l-6-.91c-1.45-.24-2.29-.28-2.29-.29S159.54,16,153.34,22.16c-3.14,3.28-6,6.74-8,9.25S142,35.62,142,35.62Z"/><path class="cls-2" d="M255.82,124.18a18.29,18.29,0,0,0-1-3.21c-.73-2-1.77-4.87-3-8.3l-2.56-5.32a50.25,50.25,0,0,0-3-5.86l-3.66-6c-1.2-2.09-2.86-3.91-4.27-5.91-2.72-4.08-6.34-7.42-9.31-10.91-1.65-1.58-3.34-3-4.88-4.46a44.21,44.21,0,0,0-4.48-3.84c-3-2.17-5.36-4.06-7.11-5.28l-2.88-1.74s-.57-5.45-1.69-11.19c-1.23-5.4-3-11.09-3-11.09l3-1.21s.39,1.33,1,3.32,1.32,4.49,1.8,7.29c1.07,5.45,1.67,10.61,1.67,10.61l.76.46a17.69,17.69,0,0,1,2.12,1.36l7.21,5.39c1.5,1.11,2.9,2.59,4.51,4s3.34,2.85,4.9,4.59c3.08,3.49,6.63,7,9.43,11.12,3.16,3.86,5.58,8.2,8,12.17a62.33,62.33,0,0,1,3,6c.91,1.93,1.84,3.72,2.59,5.42,1.28,3.5,2.34,6.41,3.08,8.45a20.75,20.75,0,0,1,1,3.26Z"/><path class="cls-2" d="M259.42,60.63,257.06,58a73.75,73.75,0,0,0-5.35-5.58l-8.33-7.56s-.13-1.19-.41-3-.66-4.21-1.12-6.66c-.91-4.9-2.13-10-2.13-10l-7.32-4.49c-4.29-2.85-10.51-5.79-16.73-8.72-3-1.6-6.39-2.53-9.38-3.71s-5.83-2.22-8.31-2.9l-8.32-2.17.8-3.28,8.74,2.28c2.6.76,5.55,1.93,8.74,3.07a91.92,91.92,0,0,1,9.83,4l9.56,4.61c3,1.53,5.64,3.3,8,4.66L240.89,22a14.71,14.71,0,0,1,1.52,1l.52.38s1.25,5.12,2.19,10c.48,2.47.89,4.9,1.17,6.71s.36,3.11.36,3.11,3.71,3.36,7.42,6.74A60.91,60.91,0,0,1,258.85,55c1.27,1.38,2.11,2.32,2.11,2.32l3,.26c1.79.2,4.31.39,6.68.81,4.72.81,9.64,1.92,9.64,1.92l1.5,2a58.81,58.81,0,0,1,3.76,5.44c2.84,4.71,6.89,10.83,9.85,17.55A147.16,147.16,0,0,1,303,103.93a49.46,49.46,0,0,1,2,6.34c.41,1.55.64,2.44.64,2.44l-3.26.88-.61-2.32a45.29,45.29,0,0,0-1.87-6c-1.81-4.9-4-11.56-7.22-17.74-1.58-3.12-2.88-6.37-4.65-9.12l-4.63-7.64a49.42,49.42,0,0,0-3.48-5.25l-1.43-1.92s-4.88-1.08-9.57-1.86c-2.31-.42-4.71-.7-6.53-.84Z"/><path class="cls-2" d="M259.6,75.8l.51-3.31s4,.53,8.14,1.27A55.23,55.23,0,0,1,273.88,75l2.52.66,1.85,3,2.12,3.51a37.75,37.75,0,0,1,2.53,4.67c1.64,3.53,3.81,7.55,5.61,12.07.84,2.28,1.71,4.65,2.6,7a65.39,65.39,0,0,1,2.4,7.37c.65,2.52,1.29,5,1.93,7.51.31,1.24.62,2.47.93,3.68s.41,2.46.6,3.66c.68,4.82,1.6,9.29,1.8,13.17.39,7.77.64,12.94.64,12.94H296s-.24-5-.61-12.41a150.51,150.51,0,0,0-5-26.9c-.33-1.2-.61-2.42-1-3.6s-.84-2.33-1.26-3.48c-.84-2.31-1.67-4.57-2.48-6.76a49.31,49.31,0,0,0-2.67-6.18l-2.62-5.44a67.56,67.56,0,0,0-4.35-7.89l-1.78-2.94s-3.67-1-7.28-1.73C263.25,76.28,259.6,75.8,259.6,75.8Z"/><path class="cls-2" d="M110.46,32.63l-7.28,2.67c-2.14.91-4.56,2.16-7.19,3.4l-4,1.94c-1.36.69-2.64,1.57-4,2.35-2.64,1.64-5.34,3.17-7.75,4.78l-6.37,4.77A40.65,40.65,0,0,0,69.46,56l-1.57,1.43s-6.09-.56-12.61-.65c-6.21.13-12.85.77-12.85.77s-.37.42-1,1.14a37.15,37.15,0,0,0-2.62,3.07c-2,2.69-4.69,6.26-7.36,9.84C29,75.39,26.73,79.25,25,82.11a30.73,30.73,0,0,0-2,3.54L22.34,87l-3-1.55s.27-.53.72-1.47a35.71,35.71,0,0,1,2.11-3.77c1.88-3,4.22-7.2,6.92-11.12l7.86-10.48,4-4.42,4.13-.36c2.49-.16,5.59-.48,8.9-.41,6.58.06,12.71.57,12.71.57l1.58-1.43c1-.89,2.61-2,4.45-3.41l6.38-4.73,7.77-4.73a70.08,70.08,0,0,1,8-4.25c2.64-1.22,5-2.5,7.19-3.36l7.28-2.67Z"/><path class="cls-2" d="M72,107.44l-2.63.19a55.63,55.63,0,0,0-5.69.75c-4.1.68-8.39,1.69-8.39,1.69a42.37,42.37,0,0,0-2.7,6.57c-.67,2-1.72,4.3-2.41,6.88s-1.37,5.35-2.08,8.1-.89,5.63-1.36,8.26c-.18,1.32-.45,2.59-.55,3.81s-.11,2.38-.16,3.45c-.23,4.28-.38,7.13-.38,7.13H42.29l.4-7.52c.05-1.13.11-2.36.17-3.66s.41-2.62.62-4c.51-2.77.69-5.8,1.49-8.71s1.49-5.83,2.19-8.56c.9-2.66,1.88-5.12,2.63-7.24a34.33,34.33,0,0,1,2-5l.9-1.86s4.63-1.13,9-1.89c2.2-.39,4.61-.57,6.27-.74l2.82-.21Z"/><path class="cls-2" d="M163.63,272.93a14.67,14.67,0,0,0,1.73-.12l4.84-.75c2.07-.35,4.63-.61,7.5-1.22l9.56-2.46c3.45-1,7.08-2.55,11-3.91,3.8-1.63,7.71-3.62,11.76-5.6,7.76-4.59,16-9.82,22.93-16.52,7.32-6.31,13.29-14,18.61-21.26,2.32-3.88,4.74-7.54,6.67-11.19,1.73-3.76,3.63-7.21,4.94-10.58l3.39-9.26c.79-2.83,1.38-5.32,1.92-7.36s1-3.64,1.19-4.74l.26-1.72,3.32.62-.26,1.75c-.22,1.13-.69,2.76-1.21,4.84s-1.2,4.61-2,7.51c-1,2.82-2.19,6-3.46,9.46s-3.25,7-5,10.79c-1.92,3.77-4.44,7.46-6.76,11.44l-4.2,5.64a58.18,58.18,0,0,1-4.48,5.63c-3.28,3.56-6.44,7.35-10.22,10.51-1.85,1.63-3.59,3.37-5.5,4.9l-5.86,4.38-2.9,2.17-3,1.86-6,3.65c-4,2.22-8.14,4-11.93,5.88l-11.18,4.08-9.75,2.51a26,26,0,0,1-4.11.83l-3.53.54-4.94.76-1.74.25a177.3,177.3,0,0,1-11.51,13.52c-3.17,3.25-6.61,6.21-9.3,8.53l-4.61,3.8s-.91,0-2.49-.18-3.81-.56-6.5-1-5.85-.79-9.16-1.56l-10.34-2.64-2.62-.7-2.55-.92-4.93-1.79a77.7,77.7,0,0,1-8.63-3.46L84.38,286s-.19-.5-.51-1.37-.78-2.07-1.22-3.65c-.93-3.1-2-7.18-3-11.16-.46-2-.9-3.92-1.23-5.79s-.51-3.67-.72-5.19c-.33-3-.54-4.94-.54-4.94l-1.33-1c-.82-.68-2.13-1.46-3.46-2.71L67.83,246A56.39,56.39,0,0,1,62.72,241C59.51,237.4,56.06,234,54,231l-3.62-4.85,2.76-1.95L56.83,229c2,3.07,5.55,6.46,8.75,10.12,3.37,3.5,7.14,6.61,9.79,9.12l4.88,3.63s.19,2,.49,4.92a88.16,88.16,0,0,0,1.92,10.82c.89,3.94,2,8,2.87,11.08s1.74,4.89,1.74,4.89l7.58,3.64c2.24,1.14,5.08,2,8,3.12s6.06,2.43,9.36,3.14l9.56,2.46c3,.82,6,1,8.48,1.49l6,.91a22.37,22.37,0,0,0,2.29.28s7.54-6.06,13.73-12.25c3.14-3.29,6-6.75,8-9.25Z"/><path class="cls-2" d="M49.83,184.37a20.56,20.56,0,0,0,1,3.2l3,8.31,2.57,5.32a50.14,50.14,0,0,0,3,5.86l3.67,6c1.19,2.09,2.86,3.91,4.26,5.91,2.72,4.08,6.34,7.42,9.31,10.9,1.65,1.59,3.34,3,4.88,4.46A43.36,43.36,0,0,0,86,238.21c3,2.16,5.36,4.06,7.1,5.29L96,245.23s.57,5.45,1.69,11.19c1.23,5.4,3,11.09,3,11.09l-3,1.21s-.4-1.33-1-3.32a73.85,73.85,0,0,1-1.81-7.29c-1.06-5.45-1.66-10.61-1.66-10.61s-.27-.15-.77-.46a20,20,0,0,1-2.12-1.36l-7.21-5.39c-1.5-1.11-2.89-2.59-4.5-4s-3.35-2.86-4.91-4.59c-3.07-3.49-6.63-7-9.42-11.12-3.17-3.85-5.58-8.2-8-12.17a62.33,62.33,0,0,1-3-6c-.9-1.94-1.84-3.72-2.59-5.43-1.27-3.49-2.33-6.4-3.08-8.44a19.54,19.54,0,0,1-1-3.26Z"/><path class="cls-2" d="M46.24,247.92l2.36,2.6A70,70,0,0,0,54,256.1l8.32,7.55s.14,1.21.41,3,.67,4.21,1.13,6.66c.9,4.9,2.12,10,2.12,10l7.32,4.49c4.3,2.85,10.52,5.79,16.73,8.72a93.67,93.67,0,0,0,9.39,3.71c3,1.07,5.83,2.22,8.31,2.9l8.32,2.16-.8,3.29-8.75-2.28c-2.59-.76-5.54-1.93-8.73-3.07a91.23,91.23,0,0,1-9.84-4l-9.55-4.62c-3-1.53-5.65-3.29-8-4.66l-5.57-3.42a14.94,14.94,0,0,1-1.52-1l-.52-.39s-1.26-5.11-2.19-10c-.48-2.47-.89-4.91-1.18-6.71s-.35-3.11-.35-3.11l-7.42-6.74a59.52,59.52,0,0,1-4.79-4.95l-2.11-2.32-3-.26c-1.79-.2-4.31-.39-6.67-.81-4.73-.81-9.64-1.92-9.64-1.92s-.55-.73-1.5-2a57,57,0,0,1-3.77-5.45c-2.83-4.7-6.88-10.82-9.84-17.54a147.16,147.16,0,0,1-7.65-18.63,49.79,49.79,0,0,1-2-6.34c-.41-1.55-.64-2.44-.64-2.44L3.26,195s.23.84.61,2.31a48.56,48.56,0,0,0,1.87,6c1.81,4.9,4,11.56,7.22,17.75,1.58,3.1,2.89,6.36,4.66,9.11l4.62,7.64a48.22,48.22,0,0,0,3.49,5.25L27.15,245s4.88,1.07,9.57,1.85a61.53,61.53,0,0,0,6.53.85Z"/><path class="cls-2" d="M46.06,232.75l-.52,3.3s-4-.51-8.14-1.26c-2.1-.34-4.15-.79-5.62-1.19l-2.52-.66-1.86-3.05-2.12-3.51a38.18,38.18,0,0,1-2.53-4.66c-1.64-3.53-3.81-7.54-5.61-12.07l-2.59-7.05a61.43,61.43,0,0,1-2.4-7.36l-1.94-7.51L9.28,184c-.24-1.23-.4-2.45-.6-3.65-.67-4.82-1.6-9.3-1.79-13.18l-.65-12.94H9.62s.25,5,.62,12.42a149.78,149.78,0,0,0,5,26.9c.33,1.2.6,2.42,1,3.6s.85,2.33,1.26,3.48q1.27,3.47,2.48,6.77a51.36,51.36,0,0,0,2.67,6.17l2.62,5.44a69.09,69.09,0,0,0,4.35,7.89l1.78,2.93s3.67,1,7.28,1.74C42.4,232.27,46.06,232.75,46.06,232.75Z"/><path class="cls-2" d="M195.19,275.91l7.29-2.66c2.13-.91,4.55-2.16,7.18-3.39l4-1.95c1.36-.69,2.65-1.57,4-2.35,2.63-1.64,5.33-3.17,7.75-4.78L231.8,256a41.93,41.93,0,0,0,4.39-3.5l1.58-1.43s6.08.56,12.61.65c6.21-.14,12.84-.77,12.84-.77l1-1.14a39,39,0,0,0,2.63-3.07c2-2.69,4.68-6.26,7.35-9.84,2.44-3.75,4.7-7.62,6.44-10.47a30,30,0,0,0,2-3.54l.67-1.38,3,1.55-.72,1.47a33.11,33.11,0,0,1-2.11,3.76c-1.88,3-4.22,7.21-6.92,11.13l-7.85,10.48-4,4.42-4.12.36c-2.5.16-5.6.47-8.9.41-6.59-.06-12.71-.57-12.71-.57s-.58.51-1.58,1.43-2.61,2-4.46,3.41l-6.37,4.73-7.78,4.73a67.66,67.66,0,0,1-8,4.24c-2.63,1.23-5,2.5-7.19,3.37l-7.27,2.67Z"/><path class="cls-2" d="M233.62,201.11l2.63-.2a52.92,52.92,0,0,0,5.7-.74c4.09-.68,8.39-1.68,8.39-1.68a44.11,44.11,0,0,0,2.69-6.58c.67-2,1.72-4.3,2.41-6.88s1.37-5.35,2.09-8.11.88-5.62,1.35-8.25c.18-1.32.46-2.59.56-3.81s.11-2.38.15-3.45c.23-4.29.39-7.14.39-7.14h3.38l-.4,7.54c0,1.12-.1,2.35-.17,3.65s-.4,2.62-.62,4c-.51,2.77-.68,5.8-1.48,8.71l-2.2,8.56c-.9,2.67-1.87,5.12-2.62,7.24a34.19,34.19,0,0,1-2.05,5l-.9,1.86s-4.62,1.13-9,1.89c-2.2.39-4.61.56-6.28.73l-2.82.22Z"/></g></g></g></svg>