<svg xmlns="http://www.w3.org/2000/svg" viewBox="0 0 114.81 114.57"><defs><style>.cls-1,.cls-3,.cls-4{fill:none;stroke:#00b4eb;stroke-miterlimit:10;}.cls-2{fill:#00b4eb;}.cls-3,.cls-4{stroke-width:3px;}.cls-3{stroke-dasharray:0.3 3;}</style></defs><title>资源 2</title><g id="图层_2" data-name="图层 2"><g id="Layer_2" data-name="Layer 2"><circle class="cls-1" cx="57.46" cy="57.46" r="37.97" transform="translate(-17.92 27.1) rotate(-23.06)"/><path class="cls-2" d="M57.46,19.49H55l-.24,0h-2.1l-.71.1H50.5l-.11,0h0c-.39.07-.78.15-1.16.24h0l-.09,0H49l-.09,0h0l-.1,0h0a38,38,0,0,0-8.53,3.13h-.1l0,0H38.88l-.31.17h-.06l-.06,0H37.2l0,0h0l0,0h0a38.06,38.06,0,0,0-6.64,5.35l2.13,2.11A34.73,34.73,0,0,1,57.46,22.49v-3ZM22.27,43.17a37.59,37.59,0,0,0-2.71,12h0v.06h0v0h0c0,.08,0,.16,0,.24h0v0h0v0h0v0h0v0h0v0h0v0h0v.12h0v0h0v0h0v0h0v0h0v.06h0v0h0v0h0v0h0v0h0v0h0v.06h0v0h0v0h0v0h0v0h0v0h0v0h0v0h0a1.93,1.93,0,0,0,0,.24h0v0h0v0h0v0h0v0h0v0h0v0h0v0h0v0h0v0h0v0h0v0h0v0h0v0h0v0h0v0h0v0h0v0h0v0h0a37.89,37.89,0,0,0,2.23,10.68h0a1.07,1.07,0,0,1,.07.19H22v0h0c.16.42.33.84.51,1.25l2.76-1.18a35.1,35.1,0,0,1-.25-26.92l-2.78-1.13ZM33.08,82.53,31,84.68A37.93,37.93,0,0,0,51.26,94.93h.17L52,95h.41l.35,0h.53l.2,0h4.72l0-3h-.65a34.79,34.79,0,0,1-24.38-9.9ZM90.11,70a35.23,35.23,0,0,1-18.6,19.47l1.21,2.75a38.35,38.35,0,0,0,6.67-3.78h0l.27-.19H80l0,0h.38l.17-.13h0l0,0h.17l0,0h0l0,0h0A38.13,38.13,0,0,0,92.91,71.1L90.11,70ZM83.43,29.76,81.37,32a34.64,34.64,0,0,1,11,24.54l3-.08c0-.46,0-.93-.06-1.39h0q0-.72-.12-1.44h0c0-.08,0-.16,0-.24h0l0-.12h0V53.1h0c-.05-.47-.11-.93-.18-1.39h0v0h0v0h0v0h0v-.06h0v0h0v0h0v0h0v0h0v0h0v0h0v0h0v0h0v0h0v0h0v0h0v0h0c-.06-.31-.11-.62-.17-.92h0v0h0v0h0v0h0v0h0v0h0v0h0v0h0v0h0v0h0v0h0v0h0v0h0v0h0v0h0v0h0v0h0v0h0v0h0v0h0c0-.19-.08-.38-.13-.57h0V48.6h0v0h0v0h0v0h-.23v0h0v0h0v0h0v0h0v0h0l0-.11h0l0-.11h0v0H94v0h-.36v-.05h0v0h0l0-.08h0v0h0v0h0v0h0v0h0v0H93.2v0h0v0h0v0h0v0h0v0h0v0h0c-.06-.18-.13-.35-.19-.52h0v0h0v0h0v0h0v0h-.07v0h0v0h0v0h0v0h0v0h0v0h0l0-.08h0l-.33-.75h0l0-.1h0v0h0l0,0h0v0h0v0H92v0h0v0h-.08v0h0v0h0l0,0h0c-.13-.28-.27-.55-.4-.82h0v0h0l0,0h0l0,0h0v0h0v0h0v0h0v0h0v0h0v0h0v0h0v0h0v0h0l0,0h0v0h0c-.15-.29-.31-.57-.47-.86h0v0h0l0,0h0v0h0v0h0v0h0v0h0v0h-.22v0h0v0h0c-.11-.18-.22-.35-.32-.53h0v0h-.63v0h0v0h0v0h0l0,0h0v0h0v0h-.65l0,0h0a38.84,38.84,0,0,0-5-5.67Zm-26-10.27v3A35,35,0,0,1,69.72,24.7l1-2.81a37.68,37.68,0,0,0-10-2.26h0l-.36,0H57.46Z"/><circle class="cls-3" cx="57.46" cy="57.46" r="46.09"/><circle class="cls-4" cx="57.46" cy="57.46" r="54.46" transform="translate(-18.05 27.43) rotate(-23.31)"/><path class="cls-2" d="M57.46,0c-1.76,0-3.53.08-5.27.24l.27,3c.93-.09,1.86-.15,2.8-.19h2.2V0ZM36.82,3.82c-1.63.63-3.25,1.34-4.83,2.12l1.34,2.69c1-.48,1.94-.93,2.93-1.35h0c.54-.23,1.09-.45,1.64-.66l-1.08-2.8ZM19,14.81c-1.3,1.17-2.56,2.42-3.75,3.71l2.21,2c.78-.84,1.58-1.66,2.41-2.45h0l0,0h0l0,0h0l0,0h0l0,0h0l0,0h0l0,0h0l0,0h0l0,0h0l0,0h0l0,0h0l0,0h0l0,0h0l0,0h0l0,0h0v0h0l0,0h0l0,0h0l0,0h0l0,0h0l0,0h0l.14-.12h0L21,17l-2-2.23ZM6.2,31.47C5.4,33,4.67,34.65,4,36.28l2.79,1.11c.09-.24.18-.46.28-.69h0v0h0l.06-.14h0v0h.06v0h0v0h0v0h0v0h0c0-.06.05-.11.07-.17h0q.42-1,.87-1.92h0v0h0v0h0v0h0v0h0v0h0l0-.07h0v0h0v0h0v0h0c.15-.32.31-.64.47-1L6.2,31.47ZM.29,51.61C.12,53.35,0,55.12,0,56.87l3,0c0-.3,0-.6,0-.9H3v0H3v0H3v0H3v0H3v0H3v0H3v0H3v-.08H3v0H3v0H3c0-1,.09-2,.18-2.95h0v0h0v0h0v0h0v0h0c0-.14,0-.29,0-.44l-3-.3Zm4.6,20.13L2,72.52c.46,1.69,1,3.38,1.62,5l2.81-1c-.37-1-.71-2-1-3h0v0h0v0h0v0h0v0h0v0h0l0-.08H5.27v0h0v0h0v0h0v0h0v0h0c-.11-.38-.22-.75-.32-1.13Zm8.63,17.91-2.41,1.78c1,1.41,2.14,2.79,3.31,4.1l2.24-2c-1.1-1.25-2.15-2.54-3.14-3.89ZM28,103.28l-1.63,2.52c1.48,1,3,1.84,4.56,2.65l1.39-2.66-.21-.11h-.44c-.88-.48-1.75-1-2.6-1.5h-.2l-.87-.55Zm18.41,7.52-.61,2.94c1.72.35,3.47.63,5.21.83l.33-3q-.95-.1-1.89-.24H48l-.15,0h0c-.47-.08-.94-.17-1.4-.27Zm24.78-.62-.3.07h-.06l-.15,0h-.14l-.09,0h-.15l-.07,0h-.41l-.11,0h-.11l-.12,0h-.13l-.11,0h-.12l-.15,0h-.1l-.19,0h0l-.53.11h0l-.16,0h-.07l-.16,0h-.61l-.86.15.49,3c1.73-.28,3.47-.65,5.16-1.09l-.75-2.9Zm18-8.46-.21.15H88.8l-.11.07h-.08c-1.15.8-2.33,1.56-3.53,2.27h0l-.07,0L86.53,107c1.51-.89,3-1.86,4.42-2.88l-1.75-2.44ZM103,87.38c-.32.49-.64,1-1,1.44h0v0h-.09c-.57.81-1.17,1.6-1.78,2.37h0l0,0h0l2.34,1.88c1.09-1.37,2.14-2.81,3.1-4.27L103,87.38Zm7.71-18.33c-.07.33-.14.67-.22,1h0v0h0v0h0v0h0v0h0v0h0v0h0v0h0v0h0v0h0v0h0v0h0v0h0v0h0v0h0v0h0v0h0c-.29,1.16-.61,2.31-1,3.45l2.86.9c.53-1.67,1-3.38,1.36-5.1l-2.94-.63Zm3.58-20.34-3,.46c.06.35.11.7.15,1.06h0v0h0v0h0v0h0v0h0v0h0v0h0c.15,1.2.27,2.41.34,3.63l3-.18c-.1-1.75-.29-3.52-.55-5.25ZM107.33,28.9l-2.6,1.49h.06l0,0h0v0h0v0h0v0h0v0h0v0h0v0h0c.75,1.33,1.45,2.69,2.08,4.09l2.73-1.25c-.73-1.59-1.54-3.17-2.41-4.69Zm-13.58-16-1.9,2.32.31.26h.08l.14.12h.29l0,0H93l0,0h0l0,0h.2c.74.65,1.47,1.32,2.17,2h.14l2.1-2.15c-1.25-1.22-2.57-2.4-3.93-3.51ZM75.34,2.84l-.93,2.85q2.39.78,4.67,1.77l1.19-2.75C78.66,4,77,3.38,75.34,2.84ZM57.46,0V3h.39c.62,0,1.23,0,1.84,0l.12-3C59,0,58.24,0,57.46,0Z"/></g></g></svg>