<svg xmlns="http://www.w3.org/2000/svg" viewBox="0 0 31.44 28.04"><defs><style>.cls-1{fill:#375d81;}</style></defs><title>资源 13</title><g id="图层_2" data-name="图层 2"><g id="Layer_1" data-name="Layer 1"><path class="cls-1" d="M30.87,23.38,18.41,1.8A3.17,3.17,0,0,0,15.72,0,3.17,3.17,0,0,0,13,1.8L.57,23.38A3.88,3.88,0,0,0,0,25.29a2.7,2.7,0,0,0,.35,1.33A3.16,3.16,0,0,0,3.26,28H28.19a3.17,3.17,0,0,0,2.9-1.42,2.7,2.7,0,0,0,.35-1.33A3.88,3.88,0,0,0,30.87,23.38Zm-.23,3a2.65,2.65,0,0,1-2.46,1.16H3.26A2.65,2.65,0,0,1,.8,26.36a2.16,2.16,0,0,1-.28-1.07A3.39,3.39,0,0,1,1,23.64L13.48,2.06A2.66,2.66,0,0,1,15.72.52,2.67,2.67,0,0,1,18,2.06L30.42,23.64a3.29,3.29,0,0,1,.5,1.65A2.06,2.06,0,0,1,30.64,26.36ZM17.55,2.3c-1-1.74-2.65-1.74-3.66,0L1.43,23.88c-1,1.75-.18,3.17,1.83,3.17H28.18c2,0,2.84-1.42,1.83-3.17ZM17,23.49H14.47V20.92H17Zm-.25-3.9h-2L14.39,6.78h2.67Z"/></g></g></svg>