<svg xmlns="http://www.w3.org/2000/svg" viewBox="0 0 78.72 79.07"><defs><style>.cls-1{fill:#04cbf5;}.cls-2{opacity:0.4;}.cls-3{fill:#00cbf5;}</style></defs><title>资源 1</title><g id="图层_2" data-name="图层 2"><g id="Layer_1" data-name="Layer 1"><path class="cls-1" d="M1.9,62.1V62h1Zm0-.38v-.09h1Zm1-.37h-1v-.1h1ZM1.9,61v-.1h1Zm1-.38h-1V60.5h1Zm-1-.38v-.09h1Zm0-.38v-.09h1Zm1-.37h-1v-.1h1Zm-1-.38V59h1Zm1-.38h-1v-.09h1Zm-1-.38v-.09h1Zm0-.37v-.1h1Zm1-.38h-1v-.1h1Zm-1-.38V57.1h1Zm1-.38h-1v-.09h1Zm-1-.38v-.09h1Zm0-.37V56h1Zm1-.38h-1v-.1h1Zm-1-.38v-.09h1Zm1-.38h-1v-.09h1Zm-1-.37v-.1h1Zm0-.38v-.1h1Zm1-.38h-1v-.1h1Zm-1-.38v-.09h1Zm1-.37h-1v-.1h1Zm-1-.38v-.1h1Zm0-.38v-.1h1Zm1-.38h-1v-.1h1Zm-1-.38v-.09h1Zm1-.38h-1v-.09h1Zm-1-.37v-.1h1Zm0-.38v-.1h1Zm1-.38h-1v-.09h1Zm-1-.38v-.09h1Zm1-.38h-1v-.09h1Zm-1-.37v-.1h1Zm0-.38v-.09h1Zm1-.38h-1V48h1Zm-1-.38v-.09h1Z"/><path class="cls-1" d="M18.53,77.18,18.29,77l.94-1.64.25.15Zm-.65-.37-.24-.15L18.58,75l.24.14Zm-.66-.38L17,76.29l.94-1.64.25.14Zm-.65-.38-.24-.14.94-1.64.24.14Zm-.66-.38-.24-.14,1-1.64.24.15Zm-.65-.38L15,75.15,16,73.52l.25.14Zm-.65-.37-.25-.14,1-1.64.24.14ZM14,74.54l-.24-.14.94-1.64.25.14Zm-.65-.38L13.05,74,14,72.38l.24.14Zm-.65-.38-.25-.14L13.34,72l.25.15ZM12,73.41l-.25-.15.95-1.63.25.14ZM11.34,73l-.25-.14L12,71.25l.25.14Zm-.66-.38-.25-.14,1-1.64.25.14ZM10,72.27l-.25-.14,1-1.64.24.14Zm-.66-.38-.24-.14.94-1.64.24.14Zm-.65-.38-.25-.14.95-1.63.24.14Zm-.66-.37L7.82,71l.94-1.64L9,69.5Zm-.65-.38-.25-.14L8.11,69l.24.14Zm-.66-.38-.24-.14.94-1.64.25.15Z"/><polygon class="cls-1" points="19.01 71.7 6.42 64.43 6.42 50.03 6.89 50.03 6.89 64.16 19.01 71.15 31.24 64.09 31.47 64.5 19.01 71.7"/><g class="cls-2"><path class="cls-3" d="M21.42,42.06l-.12,0a.23.23,0,0,1-.08-.32l5.86-10.16a.23.23,0,0,1,.32-.08.24.24,0,0,1,.09.32L21.62,41.94A.22.22,0,0,1,21.42,42.06Z"/></g><g class="cls-2"><path class="cls-3" d="M23.84,43.45l-.12,0a.24.24,0,0,1-.09-.32L29.49,33a.24.24,0,0,1,.33-.09.23.23,0,0,1,.08.32L24,43.33A.22.22,0,0,1,23.84,43.45Z"/></g><g class="cls-2"><path class="cls-3" d="M26.25,44.85a.27.27,0,0,1-.12,0,.24.24,0,0,1-.08-.33l5.86-10.15a.24.24,0,0,1,.32-.09.25.25,0,0,1,.09.33L26.46,44.73A.27.27,0,0,1,26.25,44.85Z"/></g><g class="cls-2"><path class="cls-3" d="M28.67,46.24l-.12,0a.23.23,0,0,1-.09-.32l5.86-10.16a.24.24,0,0,1,.33-.08.23.23,0,0,1,.08.32L28.87,46.13A.23.23,0,0,1,28.67,46.24Z"/></g><g class="cls-2"><path class="cls-3" d="M31.08,47.64a.27.27,0,0,1-.12,0,.24.24,0,0,1-.08-.33l5.86-10.15a.24.24,0,0,1,.32-.09.24.24,0,0,1,.09.33L31.29,47.52A.27.27,0,0,1,31.08,47.64Z"/></g><g class="cls-2"><path class="cls-3" d="M57.3,42.06a.25.25,0,0,1-.21-.12L51.23,31.79a.22.22,0,0,1,.09-.32.23.23,0,0,1,.32.08L57.5,41.71a.23.23,0,0,1-.09.32A.2.2,0,0,1,57.3,42.06Z"/></g><g class="cls-2"><path class="cls-3" d="M54.88,43.45a.22.22,0,0,1-.2-.12L48.81,33.18a.24.24,0,0,1,.09-.32.22.22,0,0,1,.32.09L55.09,43.1a.24.24,0,0,1-.09.32Z"/></g><g class="cls-2"><path class="cls-3" d="M52.47,44.85a.27.27,0,0,1-.21-.12L46.4,34.58a.24.24,0,1,1,.41-.24l5.86,10.15a.24.24,0,0,1-.09.33A.2.2,0,0,1,52.47,44.85Z"/></g><g class="cls-2"><path class="cls-3" d="M50.05,46.24a.23.23,0,0,1-.2-.11L44,36a.24.24,0,0,1,.09-.32.23.23,0,0,1,.32.08l5.87,10.16a.24.24,0,0,1-.09.32Z"/></g><g class="cls-2"><path class="cls-3" d="M47.64,47.64a.27.27,0,0,1-.21-.12L41.57,37.37a.24.24,0,0,1,.08-.33.24.24,0,0,1,.33.09l5.86,10.15a.24.24,0,0,1-.09.33A.2.2,0,0,1,47.64,47.64Z"/></g><g class="cls-2"><path class="cls-3" d="M45.22,51.82H33.5a.24.24,0,0,1-.24-.24.23.23,0,0,1,.24-.23H45.22a.23.23,0,0,1,.24.23A.24.24,0,0,1,45.22,51.82Z"/></g><g class="cls-2"><path class="cls-3" d="M45.22,54.61H33.5a.24.24,0,0,1-.24-.24.23.23,0,0,1,.24-.23H45.22a.23.23,0,0,1,.24.23A.24.24,0,0,1,45.22,54.61Z"/></g><g class="cls-2"><path class="cls-3" d="M45.22,57.4H33.5a.24.24,0,0,1,0-.48H45.22a.23.23,0,0,1,.24.23A.24.24,0,0,1,45.22,57.4Z"/></g><g class="cls-2"><path class="cls-3" d="M45.22,60.18H33.5a.23.23,0,0,1-.24-.23.24.24,0,0,1,.24-.24H45.22a.24.24,0,0,1,.24.24A.23.23,0,0,1,45.22,60.18Z"/></g><g class="cls-2"><path class="cls-3" d="M45.22,63H33.5a.23.23,0,0,1-.24-.23.24.24,0,0,1,.24-.24H45.22a.24.24,0,0,1,.24.24A.23.23,0,0,1,45.22,63Z"/></g><path class="cls-1" d="M59.71,79.07a.27.27,0,0,1-.12,0L44,70h-9.3L19.12,79a.24.24,0,0,1-.23,0L.12,68.2A.24.24,0,0,1,0,68V46.33a.24.24,0,0,1,.12-.21l15.58-9,4.65-8v-18a.24.24,0,0,1,.12-.2L39.24,0a.25.25,0,0,1,.24,0L58.25,10.87a.24.24,0,0,1,.12.2v18l4.65,8,15.58,9a.24.24,0,0,1,.12.21V68a.24.24,0,0,1-.12.2L59.83,79A.27.27,0,0,1,59.71,79.07Zm-25.07-9.5h9.43a.21.21,0,0,1,.12,0l15.52,9,18.54-10.7V46.46l-15.52-9a.24.24,0,0,1-.09-.08l-4.72-8.17a.27.27,0,0,1,0-.12V11.21L39.36.51,20.82,11.21V29.13a.27.27,0,0,1,0,.12l-4.71,8.17a.24.24,0,0,1-.09.08l-15.52,9v21.4L19,78.56l15.51-9A.27.27,0,0,1,34.64,69.57Z"/><g class="cls-2"><rect class="cls-1" x="71.51" y="50.14" width="0.94" height="13.4"/></g><g class="cls-2"><rect class="cls-1" x="7.94" y="50.03" width="0.47" height="15.19"/></g><path class="cls-1" d="M39.36,39.19l-15-8.64V13.27l15-8.64,15,8.64V30.55ZM25.34,30l14,8.1,14-8.1V13.82l-14-8.1-14,8.1Z"/><path class="cls-1" d="M19,74.44,4,65.8V48.52l15-8.64,15,8.64V65.8ZM5,65.26l14,8.09,14-8.09V49.07L19,41,5,49.07Z"/><path class="cls-1" d="M59.71,74.44l-15-8.64V48.52l15-8.64,15,8.64V65.8Zm-14-9.18,14,8.09,14-8.09V49.07l-14-8.1-14,8.1Z"/><path class="cls-1" d="M19,40.9a.5.5,0,0,1-.24-.06.47.47,0,0,1-.17-.65L24.46,30a.48.48,0,0,1,.65-.18.49.49,0,0,1,.17.65L19.42,40.66A.47.47,0,0,1,19,40.9Z"/><path class="cls-1" d="M59.71,40.9a.47.47,0,0,1-.41-.24L53.44,30.51a.47.47,0,1,1,.82-.47l5.86,10.15a.48.48,0,0,1-.17.65A.53.53,0,0,1,59.71,40.9Z"/><path class="cls-1" d="M45.22,66H33.5a.48.48,0,1,1,0-1H45.22a.48.48,0,0,1,0,1Z"/><path class="cls-1" d="M45.22,66H33.5a.48.48,0,1,1,0-1H45.22a.48.48,0,0,1,0,1Z"/><path class="cls-1" d="M33.5,49.27a.42.42,0,0,1-.24-.07.47.47,0,0,1-.17-.64L39,38.4a.48.48,0,0,1,.82.48L33.91,49A.49.49,0,0,1,33.5,49.27Z"/><path class="cls-1" d="M45.22,49.27a.49.49,0,0,1-.41-.24L39,38.88a.48.48,0,0,1,.82-.48l5.86,10.16a.47.47,0,0,1-.17.64A.44.44,0,0,1,45.22,49.27Z"/><path class="cls-1" d="M45.22,49.27H33.5a.49.49,0,0,1-.48-.48.48.48,0,0,1,.48-.47H45.22a.48.48,0,0,1,0,1Z"/></g></g></svg>