<svg xmlns="http://www.w3.org/2000/svg" viewBox="0 0 236.69 236.56"><defs><style>.cls-1{isolation:isolate;}.cls-2{fill:#2273aa;}.cls-3{fill:#263650;}.cls-4{fill:#e74e4e;}.cls-5,.cls-7,.cls-8,.cls-9{mix-blend-mode:color-dodge;}.cls-6{fill:#57cbff;}.cls-7{opacity:0.5;}.cls-8{opacity:0.8;}.cls-9{opacity:0.2;}</style></defs><title>资源 4</title><g class="cls-1"><g id="图层_2" data-name="图层 2"><g id="Layer_1" data-name="Layer 1"><path class="cls-2" d="M126.79,78.41a1.79,1.79,0,1,1-1.79-1.8A1.79,1.79,0,0,1,126.79,78.41Z"/><path class="cls-3" d="M112.11,80.78a1.8,1.8,0,1,1-1.79-1.8A1.8,1.8,0,0,1,112.11,80.78Z"/><path class="cls-3" d="M99.35,87.37a1.79,1.79,0,1,1-1.79-1.79A1.8,1.8,0,0,1,99.35,87.37Z"/><path class="cls-3" d="M89.29,97.43a1.79,1.79,0,1,1-1.79-1.79A1.79,1.79,0,0,1,89.29,97.43Z"/><path class="cls-3" d="M82.7,110.19a1.8,1.8,0,1,1-1.79-1.8A1.79,1.79,0,0,1,82.7,110.19Z"/><path class="cls-3" d="M80.33,124.87a1.8,1.8,0,1,1-1.79-1.79A1.8,1.8,0,0,1,80.33,124.87Z"/><path class="cls-3" d="M82.7,139.56a1.8,1.8,0,1,1-1.79-1.79A1.79,1.79,0,0,1,82.7,139.56Z"/><path class="cls-3" d="M89.29,152.31a1.79,1.79,0,1,1-1.79-1.79A1.8,1.8,0,0,1,89.29,152.31Z"/><path class="cls-4" d="M99.35,162.37a1.79,1.79,0,1,1-1.79-1.79A1.8,1.8,0,0,1,99.35,162.37Z"/><path class="cls-3" d="M112.11,169a1.8,1.8,0,1,1-1.79-1.8A1.79,1.79,0,0,1,112.11,169Z"/><path class="cls-3" d="M126.79,171.34a1.79,1.79,0,1,1-1.79-1.8A1.79,1.79,0,0,1,126.79,171.34Z"/><path class="cls-3" d="M141.48,169a1.79,1.79,0,1,1-1.79-1.8A1.79,1.79,0,0,1,141.48,169Z"/><path class="cls-3" d="M154.24,162.37a1.8,1.8,0,1,1-1.8-1.79A1.8,1.8,0,0,1,154.24,162.37Z"/><path class="cls-3" d="M164.29,152.31a1.79,1.79,0,1,1-1.79-1.79A1.8,1.8,0,0,1,164.29,152.31Z"/><path class="cls-3" d="M170.89,139.56a1.79,1.79,0,1,1-1.79-1.79A1.79,1.79,0,0,1,170.89,139.56Z"/><path class="cls-3" d="M173.26,124.87a1.8,1.8,0,1,1-1.79-1.79A1.8,1.8,0,0,1,173.26,124.87Z"/><path class="cls-3" d="M170.89,110.19a1.79,1.79,0,1,1-1.79-1.8A1.79,1.79,0,0,1,170.89,110.19Z"/><path class="cls-3" d="M164.29,97.43a1.79,1.79,0,1,1-1.79-1.79A1.79,1.79,0,0,1,164.29,97.43Z"/><path class="cls-3" d="M154.24,87.37a1.8,1.8,0,1,1-1.8-1.79A1.8,1.8,0,0,1,154.24,87.37Z"/><path class="cls-2" d="M141.48,80.78a1.79,1.79,0,1,1-1.79-1.8A1.79,1.79,0,0,1,141.48,80.78Z"/><path class="cls-2" d="M126.79,78.41a1.79,1.79,0,1,1-1.79-1.8A1.79,1.79,0,0,1,126.79,78.41Z"/><g class="cls-5"><path class="cls-2" d="M126.79,78.41a1.79,1.79,0,1,1-1.79-1.8A1.79,1.79,0,0,1,126.79,78.41Z"/><path class="cls-6" d="M112.11,80.78a1.8,1.8,0,1,1-1.79-1.8A1.8,1.8,0,0,1,112.11,80.78Z"/><path class="cls-6" d="M99.35,87.37a1.79,1.79,0,1,1-1.79-1.79A1.8,1.8,0,0,1,99.35,87.37Z"/><path class="cls-6" d="M89.29,97.43a1.79,1.79,0,1,1-1.79-1.79A1.79,1.79,0,0,1,89.29,97.43Z"/><path class="cls-6" d="M82.7,110.19a1.8,1.8,0,1,1-1.79-1.8A1.79,1.79,0,0,1,82.7,110.19Z"/><path class="cls-6" d="M80.33,124.87a1.8,1.8,0,1,1-1.79-1.79A1.8,1.8,0,0,1,80.33,124.87Z"/><path class="cls-6" d="M82.7,139.56a1.8,1.8,0,1,1-1.79-1.79A1.79,1.79,0,0,1,82.7,139.56Z"/><path class="cls-6" d="M89.29,152.31a1.79,1.79,0,1,1-1.79-1.79A1.8,1.8,0,0,1,89.29,152.31Z"/><path class="cls-4" d="M99.35,162.37a1.79,1.79,0,1,1-1.79-1.79A1.8,1.8,0,0,1,99.35,162.37Z"/><path class="cls-4" d="M112.11,169a1.8,1.8,0,1,1-1.79-1.8A1.79,1.79,0,0,1,112.11,169Z"/><path class="cls-4" d="M126.79,171.34a1.79,1.79,0,1,1-1.79-1.8A1.79,1.79,0,0,1,126.79,171.34Z"/><path class="cls-4" d="M141.48,169a1.79,1.79,0,1,1-1.79-1.8A1.79,1.79,0,0,1,141.48,169Z"/><path class="cls-4" d="M154.24,162.37a1.8,1.8,0,1,1-1.8-1.79A1.8,1.8,0,0,1,154.24,162.37Z"/><path class="cls-4" d="M164.29,152.31a1.79,1.79,0,1,1-1.79-1.79A1.8,1.8,0,0,1,164.29,152.31Z"/><path class="cls-4" d="M170.89,139.56a1.79,1.79,0,1,1-1.79-1.79A1.79,1.79,0,0,1,170.89,139.56Z"/><path class="cls-4" d="M173.26,124.87a1.8,1.8,0,1,1-1.79-1.79A1.8,1.8,0,0,1,173.26,124.87Z"/><path class="cls-4" d="M170.89,110.19a1.79,1.79,0,1,1-1.79-1.8A1.79,1.79,0,0,1,170.89,110.19Z"/><path class="cls-4" d="M164.29,97.43a1.79,1.79,0,1,1-1.79-1.79A1.79,1.79,0,0,1,164.29,97.43Z"/><path class="cls-4" d="M154.24,87.37a1.8,1.8,0,1,1-1.8-1.79A1.8,1.8,0,0,1,154.24,87.37Z"/><path class="cls-4" d="M141.48,80.78a1.79,1.79,0,1,1-1.79-1.8A1.79,1.79,0,0,1,141.48,80.78Z"/><path class="cls-4" d="M126.79,78.41a1.79,1.79,0,1,1-1.79-1.8A1.79,1.79,0,0,1,126.79,78.41Z"/></g><g class="cls-7"><path class="cls-2" d="M125,194.81a70.1,70.1,0,0,1-15.51-1.73l2.68-11.82A58.59,58.59,0,0,0,125,182.68a57.78,57.78,0,0,0,28.92-7.74L160,185.43A69.84,69.84,0,0,1,125,194.81Zm-34.93-9.34a69.77,69.77,0,0,1-31.89-39.92L69.76,142a57.72,57.72,0,0,0,26.38,33Zm86.21-13-8.89-8.25a57.6,57.6,0,0,0,15.42-39.31v-.14h12.13v.14A69.73,69.73,0,0,1,176.28,172.43ZM55.07,125v-.08a69.66,69.66,0,0,1,18.6-47.49l8.9,8.23a57.6,57.6,0,0,0-15.38,39.26Zm125.15-17.24a57.74,57.74,0,0,0-26.41-33l6.05-10.51a69.77,69.77,0,0,1,31.94,39.88ZM96,74.84,89.93,64.35A69.92,69.92,0,0,1,125,54.94h0a70.05,70.05,0,0,1,15.44,1.71l-2.67,11.82A58.66,58.66,0,0,0,125,67.06h0A57.73,57.73,0,0,0,96,74.84Z"/></g><g class="cls-8"><path class="cls-2" d="M.13,131,0,125.33H.29l26.36-.17.1,4.6-.28,0Zm.45-5.11.11,4.51,25.48-1.19-.08-3.48Z"/><path class="cls-2" d="M49.19,62.19l-20.48-17,3.72-4.3L52.2,58.72ZM29.52,45.08,49.13,61.4l2.28-2.63L32.48,41.66Z"/><path class="cls-2" d="M31.8,93.41,6.58,84.81l.92-2.69c.44-1.2.92-2.39.92-2.39l.11-.26L33.38,89.1l-.12.27s-.38.95-.72,1.87Zm-24.5-9,24.15,8.24L32,91.05c.32-.86.5-1.35.62-1.63L8.85,80.2c-.17.41-.5,1.26-.82,2.11Z"/><path class="cls-2" d="M26.65,124h-.28L0,123.65l.1-4c0-1.17.12-2.52.22-3.81,0-.44.08-.9.11-1.37.07-1,.15-2,.25-3,.1-.72.19-1.42.28-2.12.27-2.22.54-4.31.88-6l.71-3.93.28.07,25.83,5.27L28.1,108c-.25,1.18-.44,2.65-.63,4.21-.09.71-.18,1.43-.28,2.15s-.13,1.43-.18,2.13c0,.44-.06.87-.1,1.29-.09,1.11-.17,2.1-.17,3ZM.59,123.09l25.51.28.07-2.65c0-.88.08-1.89.18-3,0-.42.06-.85.1-1.28.05-.71.1-1.43.18-2.16s.19-1.45.28-2.15c.19-1.57.38-3.06.64-4.26l.46-2.59L3,100.16l-.6,3.36c-.34,1.65-.6,3.74-.88,5.94l-.27,2.12c-.1,1-.18,2-.25,2.94,0,.47-.07.93-.11,1.38-.1,1.28-.21,2.62-.22,3.77Z"/><path class="cls-2" d="M38.13,78.72,14.65,66.12l.25-.48c.08-.16.2-.39.36-.68l1.34-2.32c.19-.33.39-.67.59-1,.39-.69.84-1.48,1.35-2.26l2.34-3.66c.53-.83,1.11-1.63,1.66-2.41.29-.39.57-.78.83-1.17l.08-.1c.77-1.09,1.5-2.13,2.19-3l2.46-3.13L48.79,62.7l-2,2.52c-.51.62-1,1.38-1.6,2.18l-.17.23-.72,1c-.42.57-.85,1.18-1.24,1.79l-1.86,2.91c-.38.58-.7,1.15-1,1.7-.18.31-.34.61-.51.88l-1,1.84c-.13.21-.22.38-.28.5ZM15.41,65.89l22.48,12a4,4,0,0,1,.26-.46l1.05-1.84c.17-.27.33-.56.5-.87.3-.53.64-1.14,1-1.73l1.85-2.9c.4-.63.84-1.24,1.26-1.82l.72-1,.16-.24c.57-.81,1.11-1.57,1.63-2.2L48,62.79,28.19,46.71,26.08,49.4c-.68.83-1.4,1.85-2.17,2.94l-.07.1L23,53.61c-.56.77-1.13,1.57-1.65,2.39L19,59.66c-.5.77-.92,1.51-1.32,2.23l-.6,1-1.33,2.32C15.6,65.52,15.48,65.74,15.41,65.89Z"/><path class="cls-2" d="M29.25,102.38,3.32,96.22,3.38,96s.56-2.55,1.3-5l1-3.38.61-1.81.27.09,25.06,8.2-.51,1.47-.76,2.67c-.59,1.91-1,3.88-1,3.9ZM4,95.8l24.82,5.89c.13-.62.5-2.16,1-3.66l.76-2.68.32-.94L6.62,86.48,6.2,87.73l-1,3.39C4.63,93.07,4.16,95.08,4,95.8Z"/><path class="cls-2" d="M33.58,88.6,8.84,78.68l.1-.26c.17-.43,1-2.62,2-4.74l.51-1.14c.35-.77.68-1.49,1-2.08l.86-1.68.25.12L37.12,80.7l-.71,1.38c-.2.41-.43.92-.67,1.46l-.48,1.07c-.86,1.8-1.57,3.69-1.58,3.72Zm-24-10.24,23.68,9.49c.23-.59.82-2.06,1.49-3.48.17-.35.33-.71.48-1.06.25-.55.48-1.06.68-1.48l.45-.88L13.54,69.54l-.6,1.17c-.28.58-.6,1.3-.95,2.07l-.52,1.13C10.61,75.75,9.86,77.63,9.57,78.36Z"/><path class="cls-2" d="M52.08,58.85,32.38,40.91l3.91-4.11,19,18.72Zm-18.89-18L52.05,58.06l2.4-2.53L36.3,37.61Z"/><path class="cls-2" d="M115.71,27,113.3.42,119,0l1.35,26.61Zm-1.8-26,2.32,25.41,3.48-.26L118.42.61Z"/><path class="cls-2" d="M81.35,36.71,69.59,12.8l1-.49c.28-.14.63-.3,1-.46l.6-.28,2.59-1.17L85.51,34.77l-2.09.95-.5.22c-.28.12-.54.24-.75.35Zm-11-23.65L81.61,35.94l.3-.15c.22-.12.49-.24.78-.37l.49-.22,1.58-.71L74.45,11.16l-2.07.93q-.3.15-.6.27l-1,.46Z"/><path class="cls-2" d="M56.11,54.68,37.49,35.62l2.89-2.76c.52-.5,1.14-1,1.79-1.59l1.06-.92L44,29.7c.83-.72,1.69-1.47,2.61-2.16L50,24.85l3.1-2.22c.32-.22.62-.44.89-.64.52-.36,1-.68,1.32-.91l1.09-.71L71.09,42.6l-.93.6c-.26.16-.58.4-1,.67l-.76.54L66,46.15,63.3,48.28c-.69.51-1.33,1.08-2,1.62-.22.2-.44.4-.67.58l-.9.79c-.49.42-1,.81-1.33,1.19Zm-17.81-19L56.12,53.88,58,52.05c.4-.39.86-.79,1.36-1.21l.9-.78.67-.58c.63-.56,1.29-1.13,2-1.65l3.19-2.48,2-1.4.76-.54c.38-.28.72-.52,1-.69l.43-.28L56.23,21.16l-.62.4c-.35.22-.79.53-1.3.9l-.89.63L50.33,25.3,46.92,28c-.9.68-1.75,1.42-2.58,2.14l-.74.64-1.06.93c-.65.55-1.25,1.08-1.77,1.57Z"/><path class="cls-2" d="M96.21,30.8,88.51,5.29,92.9,4c.38-.11.78-.22,1.19-.32l2-.45L97.36,3c1-.22,2-.45,2.94-.66l2.33-.41c2.11-.38,4.11-.74,5.74-.91L112.32.5,115.06,27l-3.18.4c-1.17.1-2.59.36-4.08.63l-2.27.4c-.68.14-1.37.3-2,.46l-1.29.3-1.55.35c-.3.07-.6.16-.88.24Zm-7-25.12L96.59,30.1l3-.85.91-.26,1.55-.35,1.29-.29,2.07-.47c.78-.13,1.54-.26,2.28-.4,1.51-.27,2.93-.53,4.12-.64l2.62-.33L111.82,1.14l-3.39.42c-1.62.16-3.6.52-5.7.9l-2.32.41c-1,.2-2,.43-2.92.65l-1.32.3-2,.45c-.4.1-.79.22-1.16.32Z"/><path class="cls-2" d="M73.21,41.26l-14-22.69.22-.15s.55-.37,1.39-.85l3.63-2.08,1.07-.61,3.15-1.62L80.75,37l-2.53,1.29-.81.46-2.89,1.67c-.65.35-1.06.64-1.07.64ZM60,18.74,73.38,40.45c.19-.12.48-.3.86-.51l2.89-1.66.82-.47,2-1L68.44,14,65.8,15.38l-1.06.6-3.63,2.09C60.61,18.35,60.22,18.59,60,18.74Z"/><path class="cls-2" d="M86,34.56l-10.5-24.5.25-.12s.6-.28,1.5-.62L80.55,8c1.2-.49,2.41-.9,3.33-1.21l1.79-.6L94.1,31.49,92.63,32c-.73.24-1.69.56-2.6.95l-2.6,1a10.66,10.66,0,0,0-1.15.48ZM76.25,10.34l10,23.45c.21-.09.53-.23.92-.37l2.59-1c.93-.39,1.9-.72,2.64-1l.93-.31L85.31,6.93l-1.25.42c-.91.3-2.11.71-3.3,1.2l-3.29,1.3C76.93,10.05,76.5,10.23,76.25,10.34Z"/></g><g class="cls-5"><path class="cls-2" d="M125,206.81a81.94,81.94,0,1,1,81.94-81.94A82,82,0,0,1,125,206.81Zm0-151.87a69.94,69.94,0,1,0,69.94,69.93A70,70,0,0,0,125,54.94Z"/></g><g class="cls-5"><path class="cls-2" d="M125,218.06a93.19,93.19,0,1,1,93.19-93.19A93.29,93.29,0,0,1,125,218.06Zm0-185.57a92.39,92.39,0,1,0,92.38,92.38A92.48,92.48,0,0,0,125,32.49Z"/></g><g class="cls-9"><path class="cls-2" d="M125,32.09a92.79,92.79,0,1,0,92.78,92.78A92.79,92.79,0,0,0,125,32.09Zm61.65,154.43a87.19,87.19,0,1,1,25.53-61.65A86.58,86.58,0,0,1,186.65,186.52Z"/></g><g class="cls-7"><path class="cls-2" d="M236.23,134.83l-18.44-1.57.12-1.59c0-.25,0-.53.06-.84.05-.54.1-1.16.11-1.76l.11-4.23,18.5.07-.13,5c0,.76-.07,1.52-.12,2.19,0,.34-.06.66-.08.95Zm-17.58-2.3L235.49,134l.08-1c0-.28,0-.61.07-1,.05-.65.12-1.4.12-2.13l.11-4.14-16.9-.07-.09,3.44c0,.63-.06,1.27-.11,1.82,0,.3-.05.57-.06.82Z"/><path class="cls-2" d="M125,236.56l-.07-18.5,4.22-.11c.62,0,1.23-.06,1.77-.11l.85-.06,1.58-.12L135,236.1l-1.81.14c-.3,0-.62,0-1,.07-.67.05-1.43.12-2.19.13Zm.73-17.72.07,16.9,4.13-.1c.74,0,1.49-.08,2.15-.13l1-.07,1-.08-1.43-16.84-.8.06-.83.06c-.55.05-1.18.1-1.82.11Z"/><path class="cls-2" d="M199.56,208l-12.41-13.72,1.17-1.08,1.91-1.81c.51-.47,1-1,1.39-1.4l.44-.47,1.1-1.15,13.48,12.67-1.74,1.83c-.51.54-1.1,1.16-1.73,1.74Zm-11.27-13.66,11.34,12.54,3-2.85c.62-.58,1.19-1.18,1.7-1.71l1.19-1.24-12.32-11.58-.55.57-.44.46c-.42.45-.9,1-1.43,1.44Z"/><path class="cls-2" d="M222.72,179l-.34-.18L206.51,170l.91-1.68c.15-.32.33-.67.54-1.07.37-.71.81-1.55,1.26-2.52l1.32-2.92c.13-.28.26-.56.38-.86l.56-1.42.44-1.1c.24-.62.49-1.24.72-1.88l1.06-3.13a90.54,90.54,0,0,0,2.94-11.79l.41-2.24c.08-.43.12-.82.16-1.17,0-.2,0-.38.07-.55l.24-1.91L235.89,138l-.28,2.21c0,.2-.05.41-.08.63-.05.43-.11.92-.21,1.45l-.47,2.67a109.28,109.28,0,0,1-3.54,14.15L230,162.88c-.29.82-.61,1.62-.92,2.4-.16.4-.31.79-.46,1.18l-.68,1.7c-.15.37-.31.73-.47,1.07l-1.57,3.47c-.57,1.22-1.13,2.29-1.58,3.16-.21.42-.41.8-.58,1.13-.45.91-.77,1.47-.86,1.62Zm-15.11-9.22,14.81,8.14c.15-.27.37-.68.65-1.24.16-.33.36-.72.58-1.14.45-.86,1-1.93,1.57-3.13l1.56-3.46c.16-.34.31-.69.46-1l.67-1.69c.15-.39.31-.78.46-1.18.31-.78.63-1.57.92-2.37l1.26-3.73a107.65,107.65,0,0,0,3.51-14l.48-2.67c.09-.51.15-1,.2-1.41,0-.23,0-.44.08-.64l.18-1.4-16.78-2-.15,1.12-.06.54c0,.37-.09.78-.18,1.22l-.4,2.24a91.85,91.85,0,0,1-3,11.9l-1.06,3.14c-.24.66-.49,1.29-.74,1.92-.15.36-.29.73-.43,1.09l-.57,1.43c-.12.31-.26.61-.39.89L210,165.11c-.46,1-.91,1.83-1.28,2.55l-.54,1.05Z"/><path class="cls-2" d="M136.91,235.92l-2-18.39,1.91-.24.8-.1c.87-.11,1.94-.24,3.15-.49l2.66-.47c.59-.11,1.19-.25,1.81-.4l1.11-.25c1.43-.3,2.87-.71,4.39-1.15l1.89-.53,3.12-1.05.56-.19,1-.34,1.47-.58,1.08-.43c.59-.22,1.16-.45,1.7-.68l2.44-1.1c1.15-.49,2.11-1,2.88-1.39l.73-.37,1.71-.87L178,223.21l-2,1-.78.4c-.95.49-2.14,1.11-3.55,1.72l-2.92,1.31c-.7.3-1.43.59-2.19.88l-1.14.45-1.76.7c-.4.15-.8.28-1.2.42l-.64.22-3.75,1.26-1.91.54c-1.87.54-3.8,1.09-5.64,1.48l-1.22.28c-.78.18-1.54.36-2.28.5l-3.15.56c-1.5.3-2.82.46-3.88.59l-.88.11Zm-1.14-17.7L137.61,235l1.4-.18.89-.11c1-.13,2.35-.29,3.83-.58l3.16-.57c.72-.14,1.47-.31,2.24-.49l1.23-.29c1.82-.37,3.65-.9,5.59-1.46l1.89-.54,3.73-1.25.64-.22c.4-.13.79-.26,1.17-.41l1.75-.69,1.15-.45q1.13-.43,2.16-.87l2.91-1.32c1.4-.6,2.57-1.2,3.51-1.69l.79-.4,1.25-.64-8-14.91-1,.52-.72.37c-.78.41-1.76.91-2.92,1.41l-2.45,1.1c-.56.24-1.13.47-1.73.7l-1.07.42-1.48.59-1,.35-.55.18-3.15,1.06-1.9.54c-1.47.42-3,.86-4.45,1.16l-1.09.25c-.63.15-1.24.29-1.84.41l-2.66.47c-1.23.25-2.32.38-3.2.49l-.8.1Z"/><path class="cls-2" d="M208,199.58l-13.8-12.34,1.83-2.11c.64-.7,1.35-1.6,2.09-2.56.4-.51.81-1,1.23-1.56,1.16-1.56,2.3-3.2,3.06-4.29l1.5-2.35,15.63,9.92L217.79,187c-1,1.44-2.31,3.32-3.67,5.14-.45.56-.88,1.12-1.3,1.66-1,1.23-1.86,2.38-2.67,3.28Zm-12.68-12.41,12.6,11.27,1.61-1.86c.8-.87,1.69-2,2.63-3.23l1.31-1.66c1.35-1.8,2.65-3.68,3.64-5.1l1.32-2.06-14.27-9.05-1.08,1.69c-.77,1.1-1.92,2.75-3.1,4.33-.43.53-.84,1.06-1.23,1.57-.75,1-1.47,1.88-2.12,2.59Z"/><path class="cls-2" d="M182.8,220.46l-9.64-15.79,2.35-1.51.68-.44c.44-.28.9-.56,1.36-.9l2.31-1.64c.68-.46,1.32-1,1.93-1.45L184,197c1.1-.91,1.81-1.55,1.81-1.55l.31-.27,12.1,14-.9.77-.43.37c-.33.29-.71.63-1.16,1l-2.59,2c-.77.61-1.57,1.24-2.42,1.82l-2.74,2c-.58.42-1.17.79-1.69,1.12l-.77.5Zm-8.55-15.54,8.81,14.43,2.06-1.32.79-.51c.53-.33,1.08-.68,1.65-1.09l2.74-2c.84-.58,1.63-1.2,2.39-1.8l2.58-2c.44-.35.81-.68,1.13-1l.44-.38.29-.25-11-12.79c-.31.28-.85.74-1.53,1.31l-2.26,1.77c-.63.5-1.28,1-2,1.48l-2.3,1.64c-.48.35-1,.66-1.4.93l-.67.43Z"/><path class="cls-2" d="M125,236.56l-5-.12c-.76,0-1.52-.08-2.19-.13-.34,0-.66-.06-.94-.07l-1.83-.14,1.56-18.44,1.59.12.85.06c.54,0,1.15.1,1.75.11l4.24.11Zm-9.06-1.2,1,.08,1,.07c.66.05,1.4.12,2.14.13l4.14.1.06-16.9-3.44-.09c-.63,0-1.26-.06-1.81-.11l-.83-.06-.81-.06Z"/><path class="cls-2" d="M13.78,134.83,13.64,133c0-.3-.05-.62-.07-1-.06-.67-.12-1.43-.13-2.19l-.13-5,18.51-.07.11,4.23c0,.6.05,1.22.1,1.76,0,.3,0,.59.06.85l.12,1.58Zm.36-9.12.1,4.13c0,.75.07,1.49.12,2.15,0,.35.06.67.08,1l.07,1,16.85-1.43-.06-.8c0-.26,0-.53-.07-.83-.05-.56-.1-1.19-.1-1.82L31,125.64Z"/><path class="cls-2" d="M48.82,206.51,47,204.77c-.54-.51-1.15-1.1-1.74-1.73l-3.39-3.61L55.59,187l1.07,1.17,1.82,1.91c.46.51,1,1,1.4,1.39l.46.45L61.49,193Zm-5.84-7,2.86,3c.57.62,1.17,1.19,1.7,1.7l1.25,1.19,11.58-12.31-.58-.56-.46-.43c-.45-.43-1-.91-1.44-1.44l-2.37-2.48Z"/><path class="cls-2" d="M111.85,235.77l-2.2-.28-.64-.09c-.44-.05-.92-.11-1.45-.2l-2.66-.48a106.59,106.59,0,0,1-14.16-3.54L87,229.92c-.82-.3-1.62-.62-2.4-.93l-1.18-.46-1.7-.68c-.37-.15-.73-.31-1.08-.47l-3.45-1.56c-1.22-.58-2.3-1.14-3.16-1.59l-1.14-.58c-1-.51-1.6-.85-1.63-.86l-.33-.2,8.91-16.21.7.4,1,.51,1.08.55c.71.37,1.55.8,2.51,1.26L88,210.41l.86.39,1.42.55,1.1.44c.61.24,1.24.49,1.88.72l3.14,1.06a90.62,90.62,0,0,0,11.78,3l2.24.4c.43.08.82.12,1.17.16l.56.08,1.9.24ZM72,222.29l1.24.65,1.15.59c.85.44,1.92,1,3.13,1.56L81,226.65l1.05.46,1.69.67,1.18.47c.78.31,1.57.62,2.38.91L91,230.42a107.94,107.94,0,0,0,14,3.51l2.67.48c.51.09,1,.15,1.41.2l.64.08,1.4.18,2-16.78-1.12-.14-.55-.07c-.36,0-.77-.09-1.21-.18l-2.23-.39a92.89,92.89,0,0,1-11.9-3L93,213.27c-.66-.24-1.29-.49-1.92-.74L90,212.1l-1.43-.56-.89-.4-2.92-1.32c-1-.46-1.82-.9-2.54-1.27L81.16,208l-1-.52Z"/><path class="cls-2" d="M26.67,177.86l-1-2c-.12-.24-.26-.5-.4-.79-.49-1-1.1-2.13-1.71-3.54l-1.32-2.91c-.3-.72-.59-1.45-.89-2.21l-1.13-2.89c-.15-.39-.29-.8-.42-1.2l-.22-.64L18.3,158c-.18-.65-.37-1.28-.55-1.92-.53-1.86-1.09-3.79-1.47-5.63-.09-.41-.19-.82-.28-1.22-.18-.78-.36-1.54-.5-2.28l-.57-3.15c-.29-1.5-.45-2.82-.59-3.88,0-.32-.07-.61-.11-.88L14,136.78l18.39-2,.25,1.91c0,.24.07.51.1.81.11.86.24,1.94.48,3.14l.47,2.66c.11.58.25,1.18.4,1.8.09.36.18.74.26,1.12.29,1.43.71,2.87,1.14,4.39l.54,1.89L37,155.6c.06.19.13.37.19.56s.21.65.33,1l.59,1.47c.14.37.28.72.42,1.08.23.59.45,1.16.68,1.7l1.11,2.45c.49,1.14,1,2.1,1.39,2.88l.37.72.87,1.71ZM14.85,137.49l.17,1.4c0,.26.08.56.12.88.13,1,.29,2.35.58,3.83l.56,3.16c.14.72.32,1.47.5,2.24.09.4.19.82.28,1.23.38,1.82.9,3.65,1.46,5.58.18.63.37,1.27.54,1.9l1.25,3.73c.08.21.15.43.23.65.13.39.26.78.4,1.16l1.14,2.89c.29.75.58,1.48.88,2.17l1.31,2.92c.6,1.39,1.2,2.55,1.69,3.5.15.28.28.55.4.79l.65,1.25,14.9-8-.51-1c-.12-.22-.24-.46-.37-.72-.41-.78-.92-1.76-1.41-2.92l-1.11-2.45c-.24-.56-.46-1.13-.7-1.73-.13-.35-.27-.71-.42-1.07l-.58-1.48c-.13-.32-.24-.66-.35-1s-.12-.38-.19-.56l-1.06-3.14c-.18-.66-.36-1.28-.54-1.91-.42-1.47-.86-3-1.15-4.45-.09-.37-.17-.73-.26-1.1-.15-.63-.29-1.24-.4-1.84l-.47-2.65c-.25-1.22-.39-2.32-.49-3.19,0-.3-.07-.57-.1-.81l-.15-1.13Z"/><path class="cls-2" d="M65.58,219.43l-2.74-1.76c-1.45-1-3.33-2.32-5.15-3.68L56,212.68c-1.23-1-2.38-1.85-3.27-2.66l-2.46-2.13,12.33-13.8,2.12,1.84c.69.64,1.6,1.34,2.55,2.08q.78.6,1.56,1.23c1.55,1.15,3.14,2.26,4.29,3.06l2.35,1.5ZM51.44,207.82l1.85,1.6c.87.8,2,1.69,3.23,2.63l1.66,1.31c1.8,1.34,3.67,2.65,5.1,3.64l2.06,1.32,9.06-14.27L72.7,203c-1.17-.82-2.75-1.93-4.33-3.1l-1.55-1.23c-1-.75-1.9-1.46-2.61-2.12l-1.51-1.31Z"/><path class="cls-2" d="M40.73,198.13l-.78-.9c-.11-.13-.23-.28-.37-.43-.28-.33-.62-.71-1-1.16l-2-2.6c-.61-.77-1.24-1.56-1.82-2.41L32.8,187.9c-.42-.58-.79-1.17-1.12-1.69l-.5-.78-1.77-2.76L45.2,173l1.52,2.35c.14.21.28.44.43.69.28.44.57.9.9,1.35l1.65,2.31c.46.68,1,1.32,1.45,1.94l1.77,2.25c.68.81,1.21,1.42,1.43,1.67h.88Zm-10.2-15.2L31.85,185c.16.24.33.51.5.79.34.53.69,1.08,1.1,1.64l1.95,2.74c.57.83,1.18,1.62,1.78,2.37l2,2.6c.35.44.67.82,1,1.13l.38.44.25.29,12.78-11-1.3-1.54-1.76-2.25c-.5-.63-1-1.28-1.49-2l-1.63-2.3c-.35-.47-.66-1-.93-1.4-.15-.23-.29-.46-.44-.67L45,174.12Z"/><path class="cls-2" d="M31.82,124.91l-18.51-.08.13-5c0-.76.07-1.51.13-2.18,0-.34,0-.66.07-1l.14-1.83,18.43,1.56-.12,1.59c0,.25,0,.54-.06.84-.05.55-.1,1.16-.1,1.76ZM14.14,124l16.9.06.09-3.44c0-.63.05-1.26.1-1.82,0-.29.05-.57.07-.82l.06-.8-16.85-1.43-.07,1c0,.29,0,.62-.08,1,0,.66-.11,1.4-.12,2.14Z"/><path class="cls-2" d="M116.61,32.09l-1.56-18.44,1.82-.14.95-.07c.67-.06,1.43-.12,2.19-.13l4.95-.13L125,31.69l-4.22.11c-.61,0-1.23.05-1.77.1l-.85.07Zm-.7-17.71,1.43,16.85.8-.06.83-.07c.56-.05,1.19-.1,1.83-.1l3.43-.09L124.17,14l-4.14.11c-.74,0-1.49.07-2.14.12l-1,.08Z"/><path class="cls-2" d="M56.84,61.37,43.36,48.69l1.74-1.83c.52-.54,1.1-1.15,1.73-1.73l3.61-3.4L62.85,55.46l-1.17,1.07-1.9,1.82c-.52.47-1,1-1.41,1.41-.15.16-.3.31-.43.46ZM44.5,48.66,56.81,60.24l.55-.58.43-.45c.43-.45.91-1,1.44-1.45l2.48-2.36L50.38,42.85l-3,2.86c-.62.57-1.19,1.17-1.7,1.7Z"/><path class="cls-2" d="M32.48,113.94l-18.37-2.22.28-2.2c0-.2,0-.41.08-.64,0-.43.11-.92.21-1.45l.47-2.67a109.68,109.68,0,0,1,3.54-14.15L20,86.87c.3-.83.61-1.63.93-2.41.15-.4.31-.79.46-1.17L22,81.58c.15-.37.31-.72.47-1.07l1.57-3.46c.58-1.22,1.13-2.3,1.58-3.16l.58-1.13c.46-.92.77-1.48.86-1.62l.2-.34.34.18L43.5,79.71l-.41.7-.51,1c-.15.31-.33.67-.54,1.07-.37.71-.81,1.55-1.26,2.52L39.46,87.9c-.13.28-.26.56-.38.85l-.56,1.42c-.14.36-.28.73-.43,1.1-.25.62-.5,1.24-.73,1.88L36.3,96.29a90.83,90.83,0,0,0-2.94,11.78l-.4,2.24c-.08.43-.13.82-.17,1.17,0,.2,0,.39-.07.56ZM15,111l16.79,2,.14-1.12c0-.17,0-.35.07-.54,0-.37.09-.78.17-1.22l.4-2.24a91.75,91.75,0,0,1,3-11.89l1.07-3.15c.23-.66.48-1.29.73-1.91l.44-1.1.56-1.43c.13-.3.26-.6.39-.88l1.32-2.93c.47-1,.92-1.85,1.28-2.55.21-.4.39-.75.54-1.06l.53-1L27.59,71.87c-.15.27-.38.69-.65,1.24l-.59,1.15c-.44.85-1,1.92-1.57,3.12l-1.56,3.46c-.15.34-.31.69-.46,1l-.67,1.7-.46,1.17c-.31.78-.63,1.57-.92,2.38l-1.25,3.69a111,111,0,0,0-3.52,14.08l-.47,2.67c-.1.51-.15,1-.21,1.41,0,.23,0,.44-.08.65Z"/><path class="cls-2" d="M80.75,42.85,72,26.54l2-1,.79-.4c1-.49,2.13-1.1,3.55-1.71l2.91-1.32c.71-.3,1.45-.59,2.21-.89l2.88-1.13c.4-.16.81-.29,1.22-.43l4.37-1.47,1.91-.54c1.87-.54,3.8-1.1,5.64-1.48l1.22-.28c.78-.18,1.54-.36,2.28-.5l3.16-.57c1.49-.29,2.81-.46,3.87-.59l.88-.11,2.21-.28,2,18.39-1.9.25-.81.1c-.86.11-1.94.24-3.15.48l-2.66.48c-.58.1-1.18.25-1.8.39l-1.11.26c-1.43.29-2.87.7-4.39,1.14l-1.9.54-3.12,1-.55.19c-.33.11-.65.21-1,.33L91.28,38c-.37.16-.74.3-1.1.44l-1.68.67-2.44,1.11c-1.14.49-2.1,1-2.88,1.38l-.73.38Zm-7.65-16,8,14.9,1-.52c.22-.1.46-.23.73-.37.78-.4,1.76-.91,2.92-1.4l2.44-1.11c.55-.24,1.13-.46,1.71-.69l1.1-.43,1.47-.58c.33-.13.67-.24,1-.35l.54-.19,3.15-1.06,1.91-.54c1.47-.42,3-.86,4.44-1.15l1.1-.26c.63-.15,1.24-.29,1.84-.4l2.65-.47c1.23-.25,2.33-.39,3.2-.49l.8-.1,1.13-.15-1.84-16.8-1.4.18-.89.11c-1,.13-2.35.29-3.82.58l-3.16.57c-.73.13-1.48.31-2.24.49l-1.24.28c-1.81.38-3.65.91-5.59,1.47l-1.89.54L87.8,20.4c-.4.13-.79.26-1.18.41L83.75,22c-.76.29-1.49.58-2.19.88l-2.91,1.31c-1.4.6-2.56,1.21-3.51,1.69l-.78.4Z"/><path class="cls-2" d="M46.07,75.37,30.44,65.46l1.77-2.75c1-1.44,2.3-3.31,3.67-5.15.45-.56.88-1.12,1.31-1.66,1-1.23,1.85-2.38,2.66-3.27L42,50.17,55.78,62.5,54,64.62c-.64.69-1.34,1.59-2.08,2.55-.4.51-.81,1-1.24,1.56-1.08,1.46-2.1,2.92-3.06,4.29ZM31.55,65.21l14.28,9.06,1.08-1.69c1-1.39,2-2.86,3.09-4.34q.64-.8,1.23-1.56c.76-1,1.47-1.89,2.12-2.59l1.31-1.52L42.06,51.31l-1.61,1.85c-.8.88-1.69,2-2.63,3.23-.43.55-.86,1.11-1.3,1.66-1.36,1.82-2.66,3.68-3.65,5.1Z"/><path class="cls-2" d="M65.67,56.72,51.75,40.6l.89-.78c.14-.11.28-.23.43-.37.33-.28.71-.62,1.17-1l2.59-2c.77-.61,1.57-1.24,2.42-1.82L62,32.67c.58-.42,1.17-.8,1.68-1.12l.78-.5,2.76-1.77,9.65,15.79-2.36,1.52L73.8,47c-.44.28-.89.57-1.35.9l-2.31,1.65c-.68.46-1.33,1-2,1.46L66,52.79c-.72.59-1.28,1.08-1.58,1.35Zm-12.8-16L63.92,53.47c.3-.27.78-.68,1.54-1.3L67.7,50.4c.63-.5,1.28-1,2-1.49L72,47.28c.48-.35,1-.66,1.4-.93.24-.15.46-.29.67-.44l1.71-1.09L66.94,30.4l-2.06,1.32-.79.51c-.53.33-1.08.68-1.64,1.09l-2.75,2c-.83.57-1.61,1.19-2.37,1.78l-2.6,2.05c-.44.35-.82.68-1.13.95s-.31.27-.44.38Z"/><path class="cls-2" d="M133.39,32.09,131.8,32,131,31.9c-.54,0-1.15-.1-1.76-.1L125,31.69,125,13.18l5,.13c.76,0,1.52.07,2.19.13l.95.07,1.82.14Zm-7.62-1.18,3.44.09c.63,0,1.26.05,1.82.1l.82.07.81.06,1.43-16.85-1-.07-1-.08c-.65-.05-1.4-.11-2.13-.12L125.84,14Z"/><path class="cls-2" d="M218.19,124.9l-.11-4.22c0-.61-.06-1.23-.11-1.77,0-.3-.05-.59-.06-.85l-.12-1.58,18.44-1.56.13,1.82c0,.3,0,.61.08,1,.05.67.11,1.42.12,2.18l.13,5Zm.46-7.69.06.8c0,.26,0,.54.06.83,0,.56.1,1.19.11,1.83l.09,3.43,16.9-.06-.11-4.14c0-.74-.07-1.48-.12-2.14,0-.35-.06-.68-.07-1l-.08-1Z"/><path class="cls-2" d="M194.42,62.72l-1.08-1.17-1.82-1.9c-.47-.52-1-1-1.41-1.41l-.45-.43-1.15-1.1,12.67-13.48L203,45c.54.52,1.15,1.1,1.74,1.74l3.4,3.6Zm-4.79-6,.58.56.45.42c.45.43,1,.91,1.45,1.44l2.37,2.48L207,50.25l-2.86-3c-.57-.62-1.17-1.19-1.7-1.7l-1.25-1.19Z"/><path class="cls-2" d="M170.17,43.37l-1.69-.91-1.06-.55c-.73-.38-1.56-.81-2.52-1.26L162,39.33c-.28-.13-.56-.26-.86-.38l-1.42-.56L158.6,38c-.62-.25-1.24-.5-1.88-.73l-3.13-1.06a92.19,92.19,0,0,0-11.79-2.94l-2.24-.4c-.43-.08-.82-.13-1.17-.17l-.56-.07-1.9-.24L138.15,14l2.21.28.62.08c.44.05.93.11,1.46.21l2.67.47a109.68,109.68,0,0,1,14.15,3.54L163,19.83c.82.3,1.62.62,2.41.93l1.17.46,1.7.67,1.08.48,3.45,1.56c1.22.57,2.29,1.13,3.15,1.57l1.15.59c.95.48,1.52.8,1.62.87l.34.19-.18.35ZM136.82,31.66l1.12.14.54.07c.37,0,.78.09,1.22.17l2.24.4a92.18,92.18,0,0,1,11.89,3L157,36.48c.66.23,1.29.48,1.92.73l1.09.44,1.43.56.9.39,2.91,1.32c1,.47,1.86.92,2.56,1.28l1.05.54,1,.53L178,27.46c-.27-.15-.69-.38-1.25-.65l-1.16-.6c-.85-.44-1.91-1-3.11-1.55L169,23.1c-.34-.16-.69-.32-1-.47L166.3,22l-1.18-.46c-.78-.31-1.57-.62-2.38-.91L159,19.32a108.77,108.77,0,0,0-14-3.51l-2.67-.47c-.51-.1-1-.15-1.41-.21l-.64-.08-1.4-.17Z"/><path class="cls-2" d="M217.66,115l-.25-1.9c0-.24-.06-.52-.1-.81-.1-.87-.24-1.94-.48-3.15l-.47-2.66c-.11-.58-.25-1.19-.4-1.8-.09-.36-.17-.73-.26-1.11-.29-1.43-.7-2.87-1.14-4.39-.18-.63-.36-1.26-.53-1.9L213,94.14c-.07-.18-.13-.37-.2-.56s-.21-.64-.33-1l-.58-1.47c-.15-.36-.29-.72-.43-1.08-.23-.58-.45-1.15-.68-1.7l-1.11-2.44c-.49-1.15-1-2.11-1.39-2.89l-.37-.72-.87-1.7,16.32-8.73,1,2c.12.24.26.49.4.78.49.95,1.1,2.13,1.71,3.55l1.32,2.91c.3.71.59,1.44.88,2.19l.45,1.15.7,1.76c.15.39.28.79.42,1.2l.21.64,1.26,3.74.55,1.92c.54,1.87,1.09,3.8,1.47,5.63.1.41.19.82.28,1.23.19.78.37,1.53.5,2.27l.57,3.16c.29,1.5.46,2.81.59,3.87,0,.32.07.62.11.89l.28,2.21Zm-9.57-34,.52,1,.36.72c.41.78.92,1.76,1.42,2.93l1.1,2.44c.24.56.47,1.14.7,1.73l.42,1.08.58,1.47c.13.33.24.66.35,1l.19.55L214.79,97c.18.65.36,1.28.54,1.9.42,1.47.86,3,1.16,4.45.08.37.16.73.25,1.09.15.63.29,1.25.41,1.85l.47,2.65c.24,1.23.38,2.32.49,3.2,0,.29.06.56.1.8l.14,1.13,16.81-1.84-.18-1.4c0-.27-.08-.57-.12-.89-.13-1-.29-2.35-.58-3.82l-.56-3.16c-.14-.73-.31-1.47-.49-2.24-.1-.41-.2-.82-.29-1.24-.38-1.81-.9-3.64-1.46-5.58l-.54-1.9-1.25-3.72c-.08-.22-.15-.43-.22-.65-.13-.39-.26-.79-.41-1.16l-.69-1.76q-.23-.58-.45-1.14c-.29-.75-.58-1.48-.87-2.17l-1.32-2.91c-.6-1.4-1.2-2.57-1.69-3.51-.15-.28-.28-.54-.4-.78L223,73Z"/><path class="cls-2" d="M187.37,55.65l-2.12-1.83c-.69-.64-1.59-1.34-2.55-2.09l-1.56-1.22c-1.46-1.09-2.92-2.11-4.29-3.07l-2.35-1.5,9.92-15.62,2.75,1.76c1.43,1,3.31,2.31,5.14,3.67.56.45,1.11.88,1.66,1.3,1.22,1,2.38,1.86,3.27,2.68l2.47,2.13ZM175.61,45.7l1.69,1.08c1.39,1,2.85,2,4.33,3.09q.8.65,1.56,1.23c1,.76,1.89,1.47,2.6,2.12l1.51,1.31,11.27-12.6-1.86-1.61c-.87-.8-2-1.69-3.24-2.64l-1.65-1.29c-1.81-1.36-3.68-2.66-5.1-3.65l-2.06-1.32Z"/><path class="cls-2" d="M204.8,76.72l-1.51-2.36-.44-.68c-.28-.45-.56-.9-.9-1.36L200.31,70c-.47-.69-1-1.33-1.47-2l-1.75-2.23c-.91-1.09-1.55-1.81-1.55-1.81l-.27-.3,14-12.1.78.9.37.43c.28.32.62.71,1,1.16l2,2.59c.6.77,1.23,1.57,1.81,2.42l2,2.73c.42.58.79,1.17,1.12,1.69.17.27.33.53.49.77l1.77,2.76Zm-8.4-12.93c.27.32.74.85,1.31,1.54l1.76,2.23c.5.64,1,1.29,1.49,2l1.64,2.29c.35.48.66,1,.93,1.4l.43.67,1.09,1.71,14.43-8.81-1.32-2.07c-.17-.24-.33-.51-.51-.78-.34-.54-.69-1.09-1.09-1.65l-1.95-2.75c-.57-.83-1.19-1.61-1.79-2.37l-2-2.6c-.35-.43-.69-.81-1-1.13l-.38-.44-.25-.28Z"/></g><g class="cls-5"><path class="cls-2" d="M121.76,206.51l-.82,0,.28-5.59.76,0Zm12.31-.43-.61-5.57.75-.08.68,5.56ZM108.71,205l-.81-.17,1.17-5.48.75.16ZM147,203.59l-1.5-5.4.74-.21,1.55,5.38Zm-50.92-2.28-.77-.3,2-5.22.71.28ZM159.32,199,157,194l.69-.32,2.4,5.05Zm-75.14-3.37-.71-.42,2.85-4.82.66.39Zm86.58-3.1-3.14-4.63.63-.43,3.18,4.6Zm-97.4-4.38-.63-.52,3.58-4.3.6.49ZM181,184.36l-3.83-4.08.55-.52,3.88,4C181.41,184,181.21,184.18,181,184.36ZM63.88,179.09c-.19-.2-.37-.41-.55-.62l4.23-3.67.5.57Zm126-4.48-4.44-3.41.46-.61,4.48,3.37ZM56,168.6l-.44-.7,4.76-3,.4.65Zm141-5-4.92-2.67.36-.67,5,2.6ZM49.84,157l-.31-.75,5.16-2.15.3.7Zm152.42-5.45L197,149.7l.24-.73,5.32,1.77Zm-156.59-7c-.07-.27-.13-.54-.19-.8l5.45-1.29.18.75Zm159.86-5.73-5.52-.95c0-.24.08-.5.12-.75l5.53.89C205.62,138.24,205.57,138.51,205.53,138.78Zm-162-7.25-.06-.82,5.59-.4,0,.77ZM206.7,125.7l-5.6-.06v-.94h5.6v.15C206.71,125.15,206.71,125.42,206.7,125.7ZM49.13,118.83l-5.58-.44c0-.27,0-.55.07-.82l5.57.49Zm151.1-5.57-.12-.76,5.53-.9.12.81ZM51.07,106.74l-5.44-1.33c.06-.27.13-.53.2-.8L51.25,106Zm146.33-5.39c-.07-.25-.16-.49-.24-.73l5.31-1.79c.09.26.18.53.26.79ZM54.93,95.11l-5.15-2.19c.1-.25.21-.5.32-.76l5.14,2.25C55.13,94.64,55,94.88,54.93,95.11ZM192.69,90l-.35-.67,4.95-2.62.38.73ZM60.62,84.26l-4.73-3,.44-.69,4.71,3Zm125.61-4.6-.46-.62,4.47-3.38.49.66ZM68,74.47l-4.2-3.71.55-.62,4.16,3.76Zm110.2-4c-.19-.17-.37-.35-.55-.53l3.87-4,.59.58ZM76.8,66l-3.55-4.33.64-.52,3.51,4.37Zm92-3.38-.63-.44,3.18-4.6L172,58ZM86.86,59l-2.81-4.85.71-.4,2.76,4.87Zm71.34-2.63-.68-.33L159.9,51c.26.11.51.23.76.36ZM97.9,53.73l-2-5.23.78-.29,1.93,5.25Zm48.89-1.8-.74-.22,1.55-5.38.79.23Zm-37.13-1.62-1.13-5.49.81-.15,1.07,5.49Zm25.15-.92-.76-.09.66-5.56.81.1Zm-13-.56-.23-5.59.82,0,.18,5.6Z"/></g><g class="cls-5"><path class="cls-2" d="M125,190.61a65.74,65.74,0,1,1,65.74-65.74A65.81,65.81,0,0,1,125,190.61Zm0-129.88a64.14,64.14,0,1,0,64.14,64.14A64.22,64.22,0,0,0,125,60.73Z"/></g><path class="cls-2" d="M8.73,64.65l.07,0s0,0,0,.07l-.6,1.18,1.07.54.53-1s0,0,.06,0l.07,0s.05,0,0,.06l-.54,1,1.1.56.63-1.23a0,0,0,0,1,.06,0l.07,0s0,0,0,.06l-.68,1.33s0,0-.07,0L8,66S8,66,8,66l.66-1.29S8.7,64.63,8.73,64.65Z"/><path class="cls-2" d="M9.46,63.26l2.41,1.29.61-1.13s0,0,.06,0l.07,0s0,0,0,.06L12,64.74s0,0-.07,0L9.38,63.4s0,0,0-.06l0-.07S9.42,63.24,9.46,63.26Z"/><path class="cls-2" d="M11.46,59.64l.06,0s0,0,0,.06l-.65,1.16,1,.59.58-1s0,0,.06,0l.07,0s0,0,0,.07l-.58,1,1.07.61L13.84,61s0,0,.07,0L14,61s0,0,0,.07l-.74,1.29s0,0-.07,0L10.7,61s0,0,0-.07l.72-1.25S11.42,59.62,11.46,59.64Z"/><path class="cls-2" d="M12.5,57.64a.84.84,0,0,1,1.1-.42s.05,0,0,.06v.07s0,0-.06,0a.7.7,0,0,0-.92.35A.74.74,0,0,0,13,58.84l.89.53A.76.76,0,0,0,15,59.13a.71.71,0,0,0-.15-1s0,0,0-.07l.06,0S15,58,15,58a.85.85,0,0,1,.16,1.18.91.91,0,0,1-1.38.29L12.89,59A.91.91,0,0,1,12.5,57.64Z"/><path class="cls-2" d="M14.61,54.42l.06,0s0,0,0,.07l-.41.65,2.32,1.45s0,0,0,.07l0,.06s0,0-.07,0L14.2,55.31l-.41.65s0,0-.07,0l-.06,0s0,0,0-.06l.91-1.44S14.57,54.4,14.61,54.42Z"/><path class="cls-2" d="M16.93,52.3a.72.72,0,0,1,.33,1,.56.56,0,0,1,.45-.05l1,.17s.05,0,0,0l0,.06s0,.06-.08,0l-.92-.17a.54.54,0,0,0-.64.24l-.32.49,1,.69s0,0,0,.06l0,.06s0,0-.08,0L15.3,53.36s0,0,0-.07l.56-.85A.72.72,0,0,1,16.93,52.3Zm-.95.26-.49.73,1.09.72.49-.74a.55.55,0,0,0-.23-.82C16.49,52.21,16.18,52.25,16,52.56Z"/><path class="cls-2" d="M17.48,49.92a.9.9,0,0,1,1.39-.19l.84.58a.91.91,0,0,1,.3,1.37.9.9,0,0,1-1.39.19l-.84-.58A.91.91,0,0,1,17.48,49.92Zm.15.1a.75.75,0,0,0,.25,1.14l.83.58a.79.79,0,1,0,.9-1.29l-.83-.59A.75.75,0,0,0,17.63,50Z"/><path class="cls-2" d="M20,46.55l2.3,1.69s0,0,0,.07l0,.06s0,0-.06,0l-2.45-.24c-.22,0-.46-.08-.61-.09h0c.13.1.36.24.57.39l1.57,1.16s0,0,0,.07l0,.06s0,0-.07,0L18.94,48s0,0,0-.07l0,0a0,0,0,0,1,.05,0l2.38.23c.26,0,.51.08.68.09h0c-.15-.11-.39-.26-.62-.43l-1.52-1.12s0,0,0-.06l0-.06S20,46.52,20,46.55Z"/><path class="cls-2" d="M20.93,45.28l0-.06s0,0,.07,0L23.32,47s0,0,0,.06l-.05.06s0,0-.07,0l-2.28-1.74S20.91,45.31,20.93,45.28Z"/><path class="cls-2" d="M22.41,43.29A.86.86,0,0,1,23.56,43s0,0,0,.07l0,.06s0,.05-.06,0a.7.7,0,0,0-1,.23.73.73,0,0,0,.17,1.13l.81.65a.75.75,0,0,0,1.15-.09.71.71,0,0,0,0-1s0-.06,0-.07l.06,0s.05,0,.07,0a.86.86,0,0,1,0,1.2.91.91,0,0,1-1.4.1l-.81-.63A.91.91,0,0,1,22.41,43.29Z"/><path class="cls-2" d="M27.38,38.84A.78.78,0,0,1,27.55,40l-.54.63.83.72s0,.05,0,.07l0,.06s0,0-.08,0l-2.16-1.88s0,0,0-.07l.62-.72A.79.79,0,0,1,27.38,38.84Zm-.11.13a.63.63,0,0,0-1,0l-.54.62,1.1,1,.54-.62A.63.63,0,0,0,27.27,39Z"/><path class="cls-2" d="M28.12,36.57a.91.91,0,0,1,1.41,0l.75.69a.9.9,0,0,1,.13,1.39.91.91,0,0,1-1.41,0L28.24,38A.91.91,0,0,1,28.12,36.57Zm.14.12a.75.75,0,0,0,.09,1.16l.76.68a.74.74,0,0,0,1.16,0,.73.73,0,0,0-.1-1.15l-.75-.69A.74.74,0,0,0,28.26,36.69Z"/><path class="cls-2" d="M31.69,33l1.61,2.46a0,0,0,0,1,0,.07l0,.06a0,0,0,0,1-.07,0l-2-1.15c-.11-.06-.22-.14-.33-.21h0a3.71,3.71,0,0,1,.23.32l1.21,1.9s0,0,0,.08l0,0a0,0,0,0,1-.07,0L29.67,35s0,0,0,0l.06-.07a0,0,0,0,1,.07,0l2,1.2c.11.06.25.17.34.22h0L31.87,36l-1.21-1.9s0-.05,0-.08l0-.05a0,0,0,0,1,.07,0l2,1.14.33.21h0L32.84,35l-1.27-1.93s0,0,0-.08l.05-.06S31.67,32.92,31.69,33Z"/><path class="cls-2" d="M33.71,31l0,.05s0,0,0,.07l-.94.93.84.85L34.5,32s0,0,.06,0l0,.06s0,0,0,.07l-.83.82.87.88,1-1a0,0,0,0,1,.07,0l0,.06s0,0,0,.07l-1.06,1s0,0-.07,0l-2-2s0,0,0-.07l1-1S33.68,30.92,33.71,31Z"/><path class="cls-2" d="M36.56,29.32a.72.72,0,0,1,.1,1,.61.61,0,0,1,.45.05l.92.41s0,0,0,.05l0,0s-.06,0-.09,0l-.86-.37a.53.53,0,0,0-.67.08L36,31l.86.91s0,0,0,.07l-.05.05s0,0-.07,0l-2-2.08s0,0,0-.07l.74-.69A.71.71,0,0,1,36.56,29.32Zm-1,0-.65.6.9.95.64-.6a.55.55,0,0,0,0-.86C36.15,29.13,35.84,29.1,35.58,29.35Z"/><path class="cls-2" d="M39.54,25.46a.84.84,0,0,1,1.18-.05s0,0,0,.07l0,.06s0,0-.07,0a.7.7,0,0,0-1,0,.75.75,0,0,0,0,1.16l.68.79a.75.75,0,0,0,1.15.13.7.7,0,0,0,.17-1s0-.06,0-.07l.07,0a0,0,0,0,1,.06,0,.86.86,0,0,1-.22,1.18.9.9,0,0,1-1.39-.16l-.67-.78A.91.91,0,0,1,39.54,25.46Z"/><path class="cls-2" d="M42,23.42a.92.92,0,0,1,1.39.2l.64.79a1,1,0,1,1-1.46,1.21l-.65-.79A.91.91,0,0,1,42,23.42Zm.12.15A.75.75,0,0,0,42,24.73l.65.79a.74.74,0,0,0,1.15.15.73.73,0,0,0,.07-1.15l-.65-.79A.73.73,0,0,0,42.09,23.57Z"/><path class="cls-2" d="M45.37,20.87l1.76,2.26s0,.05,0,.07l-.06.05s0,0-.06,0l-2.29-.9c-.22-.09-.43-.2-.56-.26h0c.1.13.28.32.44.53l1.2,1.54s0,0,0,.07l-.06.05s0,0-.07,0L43.91,22s0-.05,0-.07l.05,0s0,0,.06,0l2.23.88c.24.09.47.21.63.27h0c-.11-.15-.3-.35-.48-.59L45.24,21s0,0,0-.06l0,0S45.34,20.84,45.37,20.87Z"/><path class="cls-2" d="M47.81,19.05l0,.06s0,.05,0,.07l-.61.46,1.62,2.2s0,.05,0,.07l-.06,0s0,0-.07,0l-1.63-2.2-.61.46a0,0,0,0,1-.07,0l-.05-.06s0-.06,0-.08l1.37-1S47.79,19,47.81,19.05Z"/><path class="cls-2" d="M50.75,17.92a.71.71,0,0,1,0,1,.6.6,0,0,1,.43.11l.86.53s0,0,0,.06l0,0c-.05,0-.07,0-.1,0l-.8-.49a.52.52,0,0,0-.67,0l-.48.34.72,1s0,.05,0,.07l-.06,0s0,0-.07,0L48.85,18.3s0-.05,0-.07l.83-.58A.7.7,0,0,1,50.75,17.92Zm-1-.11-.71.5.75,1.07.72-.51a.55.55,0,0,0,.09-.85C50.37,17.67,50.07,17.6,49.77,17.81Z"/><path class="cls-2" d="M52.14,15.9a.9.9,0,0,1,1.36.33l.57.85a1,1,0,1,1-1.58,1.06l-.57-.85A.9.9,0,0,1,52.14,15.9Zm.1.15a.75.75,0,0,0-.19,1.15l.57.85a.75.75,0,0,0,1.13.27.74.74,0,0,0,.18-1.15l-.56-.85A.75.75,0,0,0,52.24,16.05Z"/><path class="cls-2" d="M54.33,14.6l1.47,2.31,1.08-.68s0,0,.06,0l0,.06s0,.05,0,.07l-1.19.75s0,0-.06,0l-1.54-2.42s0-.06,0-.07l.07,0S54.31,14.56,54.33,14.6Z"/></g></g></g></svg>