<svg xmlns="http://www.w3.org/2000/svg" viewBox="0 0 293.31 230.99"><defs><style>.cls-1{fill:#1d71b8;opacity:0.5;}.cls-2{fill:#36a9e1;}.cls-3{fill:#f39200;}</style></defs><title>资源 3</title><g id="图层_2" data-name="图层 2"><g id="Layer_1" data-name="Layer 1"><polygon class="cls-1" points="292.21 30.26 292.21 47.52 286.62 47.52 286.62 229.89 267.05 229.89 267.05 153.35 251.21 126.13 251.21 102.79 273.08 102.79 273.08 62.52 251.21 62.52 251.21 29.98 228.4 29.98 219.09 21.24 176.54 21.24 160.77 29.98 39.03 29.98 3.12 1.1 47.78 1.1 47.78 10.79 167.82 10.79 167.82 1.1 251.21 1.1 292.21 30.26"/><path class="cls-2" d="M287.71,231H266V153.65l-15.84-27.22V101.7H272V63.62H250.11V31.07H228l-9.3-8.73H176.83l-15.77,8.73H38.64L0,0H48.88V9.69H166.72V0h84.84l41.75,29.7V48.61h-5.6Zm-19.57-2.2h17.38V46.42h5.6V30.83L250.86,2.2H168.92v9.69H46.68V2.2H6.23L39.42,28.88H160.49l15.77-8.74h43.26l9.31,8.74H252.3V61.42h21.88v42.47H252.3v21.94l15.84,27.23Z"/><rect class="cls-3" x="265.74" y="65.29" width="4.25" height="34.74"/><rect class="cls-3" x="259.43" y="65.29" width="4.25" height="34.74"/><rect class="cls-3" x="253.12" y="65.29" width="4.25" height="34.74"/><rect class="cls-3" x="246.81" y="65.29" width="4.25" height="34.74"/></g></g></svg>