<svg xmlns="http://www.w3.org/2000/svg" viewBox="0 0 49.36 50.11"><defs><style>.cls-1{isolation:isolate;}.cls-10,.cls-11,.cls-12,.cls-13,.cls-14,.cls-2,.cls-3,.cls-4,.cls-5,.cls-6,.cls-7,.cls-8,.cls-9{fill:#fff;mix-blend-mode:screen;}.cls-3{opacity:0.3;}.cls-4{opacity:0.4;}.cls-5{opacity:0.45;}.cls-6{opacity:0.5;}.cls-7{opacity:0.55;}.cls-8{opacity:0.6;}.cls-9{opacity:0.65;}.cls-10{opacity:0.7;}.cls-11{opacity:0.75;}.cls-12{opacity:0.8;}.cls-13{opacity:0.85;}.cls-14{opacity:0.9;}</style></defs><title>资源 14</title><g class="cls-1"><g id="图层_2" data-name="图层 2"><g id="Elements"><circle class="cls-2" cx="24.24" cy="3" r="3"/><path class="cls-3" d="M16.13,4.46a1.25,1.25,0,1,1-1.65-.64A1.25,1.25,0,0,1,16.13,4.46Z"/><path class="cls-4" d="M8.26,9.5a1.38,1.38,0,0,1-1.84,2.05A1.38,1.38,0,0,1,8.26,9.5Z"/><path class="cls-5" d="M3.08,17.29a1.5,1.5,0,1,1-1.89,1A1.5,1.5,0,0,1,3.08,17.29Z"/><path class="cls-6" d="M1.46,26.5A1.63,1.63,0,1,1,0,28.29,1.63,1.63,0,0,1,1.46,26.5Z"/><path class="cls-7" d="M3.67,35.6A1.75,1.75,0,1,1,3,38,1.75,1.75,0,0,1,3.67,35.6Z"/><path class="cls-8" d="M9.36,43a1.87,1.87,0,1,1,.41,2.62A1.88,1.88,0,0,1,9.36,43Z"/><path class="cls-9" d="M17.56,47.57a2,2,0,1,1,1.54,2.37A2,2,0,0,1,17.56,47.57Z"/><path class="cls-10" d="M26.89,48.43a2.13,2.13,0,1,1,2.52,1.64A2.13,2.13,0,0,1,26.89,48.43Z"/><path class="cls-11" d="M35.79,45.46a2.25,2.25,0,1,1,3.14.5A2.24,2.24,0,0,1,35.79,45.46Z"/><path class="cls-12" d="M42.75,39.17A2.37,2.37,0,1,1,46,38.3,2.38,2.38,0,0,1,42.75,39.17Z"/><path class="cls-13" d="M46.6,30.61a2.5,2.5,0,1,1,2.75-2.23A2.52,2.52,0,0,1,46.6,30.61Z"/><path class="cls-14" d="M46.68,21.21a2.62,2.62,0,1,1,1.69-3.31A2.62,2.62,0,0,1,46.68,21.21Z"/><path class="cls-2" d="M43,12.57a2.75,2.75,0,1,1,.21-3.89A2.75,2.75,0,0,1,43,12.57Z"/><path class="cls-2" d="M36.12,6.14a2.87,2.87,0,1,1-1.46-3.8A2.88,2.88,0,0,1,36.12,6.14Z"/></g></g></g></svg>