<svg xmlns="http://www.w3.org/2000/svg" viewBox="0 0 90.3 88.68"><defs><style>.cls-1{fill:#fff;}</style></defs><title>资源 26</title><g id="图层_2" data-name="图层 2"><g id="Elements"><path class="cls-1" d="M45.15,88.14A43.18,43.18,0,1,1,88.33,45,43.23,43.23,0,0,1,45.15,88.14Zm0-85.36A42.18,42.18,0,1,0,87.33,45,42.23,42.23,0,0,0,45.15,2.78Z"/><path class="cls-1" d="M33.88,88.68A45.15,45.15,0,0,1,19,8.18l2.9,4.07A40.15,40.15,0,0,0,35.13,83.84Z"/><path class="cls-1" d="M83.66,33.6A40.15,40.15,0,0,0,66.78,11.13l2.69-4.21a45.15,45.15,0,0,1,19,25.27Z"/><path class="cls-1" d="M74.2,79.52,71,75.69A40.12,40.12,0,0,0,85.3,45.25l5,0A45.14,45.14,0,0,1,74.2,79.52Z"/><path class="cls-1" d="M57.16,6.64l-1.22-.36A40.54,40.54,0,0,0,48.87,5l.46-5a44.71,44.71,0,0,1,8,1.47c.46.12.92.26,1.37.4Z"/></g></g></svg>