<svg xmlns="http://www.w3.org/2000/svg" viewBox="0 0 14.16 28.04"><defs><style>.cls-1{fill:#375d81;}</style></defs><title>资源 6</title><g id="图层_2" data-name="图层 2"><g id="Layer_1" data-name="Layer 1"><path class="cls-1" d="M6.92,4.26v0c0-.14,0-.28,0-.41a15,15,0,0,1,.2-2.48c.1-.62.2-.93.21-1.1a.2.2,0,0,0,0-.09.14.14,0,0,0,0-.08L7.19,0a.17.17,0,0,0-.1,0h0V.23H7L6.86.18h0a13.76,13.76,0,0,0-1.35,4,17.91,17.91,0,0,0-.3,3.44A31.81,31.81,0,0,0,5.9,14a54.84,54.84,0,0,1,1.34,9.65h0c0,.15,0,.28,0,.42a15.25,15.25,0,0,1-.2,2.48c-.1.62-.2.93-.21,1.1a.24.24,0,0,0,0,.1.09.09,0,0,0,0,.05.1.1,0,0,0,.06.05l0,0,.07,0h0v-.24h0l.18.06h0c0-.06.27-.52.54-1.17a13.54,13.54,0,0,0,.82-2.86A18.8,18.8,0,0,0,9,20.24a31.74,31.74,0,0,0-.69-6.34A55,55,0,0,1,6.92,4.26Zm.16,23.39h0ZM1.19,14.16h0v0a1.85,1.85,0,0,1,0-.24,8.48,8.48,0,0,1,.12-1.43c.06-.37.11-.52.12-.66a.26.26,0,0,0,0-.07h0s0,0,0-.07,0,0,0,0a.1.1,0,0,0-.05,0h0l-.09,0v.23H1.13L1,11.7a8.42,8.42,0,0,0-.8,2.38,10.47,10.47,0,0,0-.17,2,19.15,19.15,0,0,0,.4,3.73,31.5,31.5,0,0,1,.78,5.62h0a2,2,0,0,1,0,.24,8.52,8.52,0,0,1-.12,1.44c-.05.36-.1.52-.11.66a.39.39,0,0,0,0,.09s0,0,0,0A.22.22,0,0,0,1,28a.09.09,0,0,0,.06,0h0a.15.15,0,0,0,.09,0h0v-.22h.05l.16.07h0a8.16,8.16,0,0,0,.8-2.37,11.16,11.16,0,0,0,.17-2A18.44,18.44,0,0,0,2,19.75,32.17,32.17,0,0,1,1.19,14.16Zm12.57,5.59A31.22,31.22,0,0,1,13,14.16h0v0a1.85,1.85,0,0,1,0-.24,9.91,9.91,0,0,1,.11-1.43c.07-.37.12-.52.13-.66s0,0,0-.07h0a.13.13,0,0,0,0-.07l0,0-.06,0-.09,0v.23h-.05l-.16-.07a8.08,8.08,0,0,0-.8,2.38,10.42,10.42,0,0,0-.18,2,18.46,18.46,0,0,0,.41,3.73A32.45,32.45,0,0,1,13,25.46h0c0,.08,0,.17,0,.24a8.52,8.52,0,0,1-.12,1.44c-.06.36-.11.52-.12.66a.2.2,0,0,0,0,.09,0,0,0,0,0,0,0,.09.09,0,0,0,0,0l.08.06H13v-.22H13l.16.07h0A7.84,7.84,0,0,0,14,25.5a10.33,10.33,0,0,0,.17-2A19.13,19.13,0,0,0,13.76,19.75Z"/></g></g></svg>