<svg xmlns="http://www.w3.org/2000/svg" viewBox="0 0 1019.06 877.39"><defs><style>.cls-1,.cls-10,.cls-100,.cls-101,.cls-11,.cls-12,.cls-13,.cls-14,.cls-15,.cls-16,.cls-17,.cls-18,.cls-19,.cls-2,.cls-20,.cls-21,.cls-22,.cls-23,.cls-24,.cls-25,.cls-26,.cls-27,.cls-28,.cls-29,.cls-3,.cls-30,.cls-31,.cls-32,.cls-33,.cls-34,.cls-35,.cls-36,.cls-37,.cls-38,.cls-39,.cls-4,.cls-40,.cls-41,.cls-42,.cls-43,.cls-44,.cls-45,.cls-46,.cls-47,.cls-48,.cls-49,.cls-5,.cls-50,.cls-51,.cls-52,.cls-53,.cls-54,.cls-55,.cls-56,.cls-57,.cls-58,.cls-59,.cls-6,.cls-60,.cls-61,.cls-62,.cls-63,.cls-64,.cls-65,.cls-66,.cls-67,.cls-68,.cls-69,.cls-7,.cls-70,.cls-71,.cls-72,.cls-73,.cls-74,.cls-75,.cls-76,.cls-77,.cls-78,.cls-79,.cls-8,.cls-80,.cls-81,.cls-82,.cls-83,.cls-84,.cls-85,.cls-86,.cls-87,.cls-88,.cls-89,.cls-9,.cls-90,.cls-91,.cls-92,.cls-93,.cls-94,.cls-95,.cls-96,.cls-97,.cls-98,.cls-99{fill:none;stroke:#314f0a;stroke-miterlimit:10;stroke-width:0.4px;}.cls-1{opacity:0.02;}.cls-2{opacity:0.11;}.cls-3{opacity:0.86;}.cls-4{opacity:0.3;}.cls-5{opacity:0.07;}.cls-6{opacity:0.7;}.cls-7{opacity:0.66;}.cls-8{opacity:0.08;}.cls-9{opacity:0.19;}.cls-10{opacity:0.01;}.cls-11{opacity:0.57;}.cls-12{opacity:0.71;}.cls-13{opacity:0.06;}.cls-14{opacity:0.98;}.cls-15{opacity:0.75;}.cls-16{opacity:0.28;}.cls-17{opacity:0.32;}.cls-18{opacity:0.18;}.cls-19{opacity:0.91;}.cls-20{opacity:0.59;}.cls-21{opacity:0.31;}.cls-22{opacity:0.62;}.cls-23{opacity:0.15;}.cls-24{opacity:0.04;}.cls-25{opacity:0.03;}.cls-26{opacity:0.56;}.cls-27{opacity:0.77;}.cls-28{opacity:0.5;}.cls-29{opacity:0.83;}.cls-30{opacity:0.65;}.cls-31{opacity:0.4;}.cls-32{opacity:0.54;}.cls-33{opacity:0.36;}.cls-34{opacity:0.79;}.cls-35{opacity:0.37;}.cls-36{opacity:0.33;}.cls-37{opacity:0.74;}.cls-38{opacity:0.12;}.cls-39{opacity:0.35;}.cls-40{opacity:0.51;}.cls-41{opacity:0.41;}.cls-42{opacity:0.25;}.cls-43{opacity:0.42;}.cls-44{opacity:0.68;}.cls-45{opacity:0.05;}.cls-46{opacity:0.78;}.cls-47{opacity:0.46;}.cls-48{opacity:0.48;}.cls-49{opacity:0.17;}.cls-50{opacity:0.8;}.cls-51{opacity:0.94;}.cls-52{opacity:0.1;}.cls-53{opacity:0.6;}.cls-54{opacity:0.69;}.cls-55{opacity:0.23;}.cls-56{opacity:0.73;}.cls-57{opacity:0.47;}.cls-58{opacity:0.34;}.cls-59{opacity:0.84;}.cls-60{opacity:0.76;}.cls-61{opacity:0.24;}.cls-62{opacity:0.39;}.cls-63{opacity:0.93;}.cls-64{opacity:0.38;}.cls-65{opacity:0.85;}.cls-66{opacity:0.2;}.cls-67{opacity:0.81;}.cls-68{opacity:0.43;}.cls-69{opacity:0.82;}.cls-70{opacity:0.49;}.cls-71{opacity:0.53;}.cls-72{opacity:0.29;}.cls-74{opacity:0.14;}.cls-75{opacity:0.99;}.cls-76{opacity:0.9;}.cls-77{opacity:0.44;}.cls-78{opacity:0.88;}.cls-79{opacity:0.45;}.cls-80{opacity:0.87;}.cls-81{opacity:0.67;}.cls-82{opacity:0.21;}.cls-83{opacity:0.13;}.cls-84{opacity:0.63;}.cls-85{opacity:0.61;}.cls-86{opacity:0.58;}.cls-87{opacity:0.64;}.cls-88{opacity:0.26;}.cls-89{opacity:0.72;}.cls-90{opacity:0.89;}.cls-91{opacity:0.52;}.cls-92{opacity:0.96;}.cls-93{opacity:0.55;}.cls-94{opacity:0.95;}.cls-95{opacity:0.22;}.cls-96{opacity:0.92;}.cls-97{opacity:0.16;}.cls-98{opacity:0.27;}.cls-99{opacity:0.09;}.cls-100{opacity:0.97;}.cls-101{opacity:0;}</style></defs><title>资源 1</title><g id="图层_2" data-name="图层 2"><g id="Layer_1" data-name="Layer 1"><polygon class="cls-1" points="973.59 13.3 996.23 0.23 1018.86 13.3 1018.86 39.44 996.23 52.51 973.59 39.44 973.59 13.3"/><polygon class="cls-1" points="928.32 13.3 950.95 0.23 973.59 13.3 973.59 39.44 950.95 52.51 928.32 39.44 928.32 13.3"/><polygon class="cls-2" points="950.95 52.51 973.59 39.44 996.23 52.51 996.23 78.65 973.59 91.72 950.95 78.65 950.95 52.51"/><polygon class="cls-3" points="905.68 52.51 928.32 39.44 950.95 52.51 950.95 78.65 928.32 91.72 905.68 78.65 905.68 52.51"/><polygon class="cls-4" points="973.59 91.85 996.23 78.78 1018.86 91.85 1018.86 117.98 996.23 131.05 973.59 117.98 973.59 91.85"/><polygon class="cls-5" points="928.32 91.85 950.95 78.78 973.59 91.85 973.59 117.98 950.95 131.05 928.32 117.98 928.32 91.85"/><polygon class="cls-6" points="950.95 131.05 973.59 117.98 996.23 131.05 996.23 157.19 973.59 170.26 950.95 157.19 950.95 131.05"/><polygon class="cls-7" points="905.68 131.05 928.32 117.98 950.95 131.05 950.95 157.19 928.32 170.26 905.68 157.19 905.68 131.05"/><polygon class="cls-8" points="973.59 170.39 996.23 157.32 1018.86 170.39 1018.86 196.53 996.23 209.6 973.59 196.53 973.59 170.39"/><polygon class="cls-9" points="928.32 170.39 950.95 157.32 973.59 170.39 973.59 196.53 950.95 209.6 928.32 196.53 928.32 170.39"/><polygon class="cls-10" points="950.95 209.6 973.59 196.53 996.23 209.6 996.23 235.74 973.59 248.81 950.95 235.74 950.95 209.6"/><polygon class="cls-11" points="905.68 209.6 928.32 196.53 950.95 209.6 950.95 235.74 928.32 248.81 905.68 235.74 905.68 209.6"/><polygon class="cls-12" points="973.59 248.93 996.23 235.86 1018.86 248.93 1018.86 275.07 996.23 288.14 973.59 275.07 973.59 248.93"/><polygon class="cls-13" points="928.32 248.93 950.95 235.86 973.59 248.93 973.59 275.07 950.95 288.14 928.32 275.07 928.32 248.93"/><polygon class="cls-14" points="950.95 288.14 973.59 275.07 996.23 288.14 996.23 314.28 973.59 327.35 950.95 314.28 950.95 288.14"/><polygon class="cls-15" points="905.68 288.14 928.32 275.07 950.95 288.14 950.95 314.28 928.32 327.35 905.68 314.28 905.68 288.14"/><polygon class="cls-16" points="973.59 327.48 996.23 314.41 1018.86 327.48 1018.86 353.62 996.23 366.69 973.59 353.62 973.59 327.48"/><polygon class="cls-17" points="928.32 327.48 950.95 314.41 973.59 327.48 973.59 353.62 950.95 366.69 928.32 353.62 928.32 327.48"/><polygon class="cls-18" points="950.95 366.69 973.59 353.62 996.23 366.69 996.23 392.82 973.59 405.89 950.95 392.82 950.95 366.69"/><polygon class="cls-19" points="905.68 366.69 928.32 353.62 950.95 366.69 950.95 392.82 928.32 405.89 905.68 392.82 905.68 366.69"/><polygon class="cls-20" points="973.59 406.02 996.23 392.95 1018.86 406.02 1018.86 432.16 996.23 445.23 973.59 432.16 973.59 406.02"/><polygon class="cls-4" points="928.32 406.02 950.95 392.95 973.59 406.02 973.59 432.16 950.95 445.23 928.32 432.16 928.32 406.02"/><polygon class="cls-21" points="950.95 445.23 973.59 432.16 996.23 445.23 996.23 471.37 973.59 484.44 950.95 471.37 950.95 445.23"/><polygon class="cls-22" points="905.68 445.23 928.32 432.16 950.95 445.23 950.95 471.37 928.32 484.44 905.68 471.37 905.68 445.23"/><polygon class="cls-8" points="973.59 484.56 996.23 471.5 1018.86 484.56 1018.86 510.7 996.23 523.77 973.59 510.7 973.59 484.56"/><polygon class="cls-23" points="928.32 484.56 950.95 471.5 973.59 484.56 973.59 510.7 950.95 523.77 928.32 510.7 928.32 484.56"/><polygon class="cls-3" points="950.95 523.77 973.59 510.7 996.23 523.77 996.23 549.91 973.59 562.98 950.95 549.91 950.95 523.77"/><polygon class="cls-24" points="905.68 523.77 928.32 510.7 950.95 523.77 950.95 549.91 928.32 562.98 905.68 549.91 905.68 523.77"/><polygon class="cls-25" points="973.59 563.11 996.23 550.04 1018.86 563.11 1018.86 589.25 996.23 602.32 973.59 589.25 973.59 563.11"/><polygon class="cls-26" points="928.32 563.11 950.95 550.04 973.59 563.11 973.59 589.25 950.95 602.32 928.32 589.25 928.32 563.11"/><polygon class="cls-27" points="950.95 602.32 973.59 589.25 996.23 602.32 996.23 628.46 973.59 641.52 950.95 628.46 950.95 602.32"/><polygon class="cls-28" points="905.68 602.32 928.32 589.25 950.95 602.32 950.95 628.46 928.32 641.52 905.68 628.46 905.68 602.32"/><polygon class="cls-29" points="973.59 641.65 996.23 628.58 1018.86 641.65 1018.86 667.79 996.23 680.86 973.59 667.79 973.59 641.65"/><polygon class="cls-21" points="928.32 641.65 950.95 628.58 973.59 641.65 973.59 667.79 950.95 680.86 928.32 667.79 928.32 641.65"/><polygon class="cls-30" points="950.95 680.86 973.59 667.79 996.23 680.86 996.23 707 973.59 720.07 950.95 707 950.95 680.86"/><polygon class="cls-31" points="905.68 680.86 928.32 667.79 950.95 680.86 950.95 707 928.32 720.07 905.68 707 905.68 680.86"/><polygon class="cls-6" points="973.59 720.2 996.23 707.13 1018.86 720.2 1018.86 746.34 996.23 759.4 973.59 746.34 973.59 720.2"/><polygon class="cls-32" points="928.32 720.2 950.95 707.13 973.59 720.2 973.59 746.34 950.95 759.4 928.32 746.34 928.32 720.2"/><polygon class="cls-27" points="950.95 759.4 973.59 746.34 996.23 759.4 996.23 785.54 973.59 798.61 950.95 785.54 950.95 759.4"/><polygon class="cls-22" points="905.68 759.4 928.32 746.34 950.95 759.4 950.95 785.54 928.32 798.61 905.68 785.54 905.68 759.4"/><polygon class="cls-31" points="973.59 798.74 996.23 785.67 1018.86 798.74 1018.86 824.88 996.23 837.95 973.59 824.88 973.59 798.74"/><polygon class="cls-1" points="928.32 798.74 950.95 785.67 973.59 798.74 973.59 824.88 950.95 837.95 928.32 824.88 928.32 798.74"/><polygon class="cls-1" points="950.95 837.95 973.59 824.88 996.23 837.95 996.23 864.09 973.59 877.16 950.95 864.09 950.95 837.95"/><polygon class="cls-3" points="905.68 837.95 928.32 824.88 950.95 837.95 950.95 864.09 928.32 877.16 905.68 864.09 905.68 837.95"/><polygon class="cls-33" points="883.04 13.3 905.68 0.23 928.32 13.3 928.32 39.44 905.68 52.51 883.04 39.44 883.04 13.3"/><polygon class="cls-34" points="837.77 13.3 860.4 0.23 883.04 13.3 883.04 39.44 860.4 52.51 837.77 39.44 837.77 13.3"/><polygon class="cls-15" points="860.4 52.51 883.04 39.44 905.68 52.51 905.68 78.65 883.04 91.72 860.4 78.65 860.4 52.51"/><polygon class="cls-13" points="815.13 52.51 837.77 39.44 860.4 52.51 860.4 78.65 837.77 91.72 815.13 78.65 815.13 52.51"/><polygon class="cls-12" points="883.04 91.85 905.68 78.78 928.32 91.85 928.32 117.98 905.68 131.05 883.04 117.98 883.04 91.85"/><polygon class="cls-30" points="837.77 91.85 860.4 78.78 883.04 91.85 883.04 117.98 860.4 131.05 837.77 117.98 837.77 91.85"/><polygon class="cls-35" points="860.4 131.05 883.04 117.98 905.68 131.05 905.68 157.19 883.04 170.26 860.4 157.19 860.4 131.05"/><polygon class="cls-36" points="815.13 131.05 837.77 117.98 860.4 131.05 860.4 157.19 837.77 170.26 815.13 157.19 815.13 131.05"/><polygon class="cls-37" points="883.04 170.39 905.68 157.32 928.32 170.39 928.32 196.53 905.68 209.6 883.04 196.53 883.04 170.39"/><polygon class="cls-38" points="837.77 170.39 860.4 157.32 883.04 170.39 883.04 196.53 860.4 209.6 837.77 196.53 837.77 170.39"/><polygon class="cls-39" points="860.4 209.6 883.04 196.53 905.68 209.6 905.68 235.74 883.04 248.81 860.4 235.74 860.4 209.6"/><polygon class="cls-40" points="815.13 209.6 837.77 196.53 860.4 209.6 860.4 235.74 837.77 248.81 815.13 235.74 815.13 209.6"/><polygon class="cls-41" points="883.04 248.93 905.68 235.86 928.32 248.93 928.32 275.07 905.68 288.14 883.04 275.07 883.04 248.93"/><polygon class="cls-42" points="837.77 248.93 860.4 235.86 883.04 248.93 883.04 275.07 860.4 288.14 837.77 275.07 837.77 248.93"/><polygon class="cls-43" points="860.4 288.14 883.04 275.07 905.68 288.14 905.68 314.28 883.04 327.35 860.4 314.28 860.4 288.14"/><polygon class="cls-32" points="815.13 288.14 837.77 275.07 860.4 288.14 860.4 314.28 837.77 327.35 815.13 314.28 815.13 288.14"/><polygon class="cls-38" points="883.04 327.48 905.68 314.41 928.32 327.48 928.32 353.62 905.68 366.69 883.04 353.62 883.04 327.48"/><polygon class="cls-35" points="837.77 327.48 860.4 314.41 883.04 327.48 883.04 353.62 860.4 366.69 837.77 353.62 837.77 327.48"/><polygon class="cls-40" points="860.4 366.69 883.04 353.62 905.68 366.69 905.68 392.82 883.04 405.89 860.4 392.82 860.4 366.69"/><polygon class="cls-20" points="815.13 366.69 837.77 353.62 860.4 366.69 860.4 392.82 837.77 405.89 815.13 392.82 815.13 366.69"/><polygon class="cls-44" points="883.04 406.02 905.68 392.95 928.32 406.02 928.32 432.16 905.68 445.23 883.04 432.16 883.04 406.02"/><polygon class="cls-45" points="837.77 406.02 860.4 392.95 883.04 406.02 883.04 432.16 860.4 445.23 837.77 432.16 837.77 406.02"/><polygon class="cls-10" points="860.4 445.23 883.04 432.16 905.68 445.23 905.68 471.37 883.04 484.44 860.4 471.37 860.4 445.23"/><polygon class="cls-16" points="815.13 445.23 837.77 432.16 860.4 445.23 860.4 471.37 837.77 484.44 815.13 471.37 815.13 445.23"/><polygon class="cls-36" points="883.04 484.56 905.68 471.5 928.32 484.56 928.32 510.7 905.68 523.77 883.04 510.7 883.04 484.56"/><polygon class="cls-34" points="837.77 484.56 860.4 471.5 883.04 484.56 883.04 510.7 860.4 523.77 837.77 510.7 837.77 484.56"/><polygon class="cls-46" points="860.4 523.77 883.04 510.7 905.68 523.77 905.68 549.91 883.04 562.98 860.4 549.91 860.4 523.77"/><polygon class="cls-47" points="815.13 523.77 837.77 510.7 860.4 523.77 860.4 549.91 837.77 562.98 815.13 549.91 815.13 523.77"/><polygon class="cls-48" points="883.04 563.11 905.68 550.04 928.32 563.11 928.32 589.25 905.68 602.32 883.04 589.25 883.04 563.11"/><polygon class="cls-45" points="837.77 563.11 860.4 550.04 883.04 563.11 883.04 589.25 860.4 602.32 837.77 589.25 837.77 563.11"/><polygon class="cls-49" points="860.4 602.32 883.04 589.25 905.68 602.32 905.68 628.46 883.04 641.52 860.4 628.46 860.4 602.32"/><polygon class="cls-50" points="815.13 602.32 837.77 589.25 860.4 602.32 860.4 628.46 837.77 641.52 815.13 628.46 815.13 602.32"/><polygon class="cls-51" points="883.04 641.65 905.68 628.58 928.32 641.65 928.32 667.79 905.68 680.86 883.04 667.79 883.04 641.65"/><polygon class="cls-52" points="837.77 641.65 860.4 628.58 883.04 641.65 883.04 667.79 860.4 680.86 837.77 667.79 837.77 641.65"/><polygon class="cls-19" points="860.4 680.86 883.04 667.79 905.68 680.86 905.68 707 883.04 720.07 860.4 707 860.4 680.86"/><polygon class="cls-53" points="815.13 680.86 837.77 667.79 860.4 680.86 860.4 707 837.77 720.07 815.13 707 815.13 680.86"/><polygon class="cls-54" points="883.04 720.2 905.68 707.13 928.32 720.2 928.32 746.34 905.68 759.4 883.04 746.34 883.04 720.2"/><polygon class="cls-55" points="837.77 720.2 860.4 707.13 883.04 720.2 883.04 746.34 860.4 759.4 837.77 746.34 837.77 720.2"/><polygon class="cls-28" points="860.4 759.4 883.04 746.34 905.68 759.4 905.68 785.54 883.04 798.61 860.4 785.54 860.4 759.4"/><polygon class="cls-4" points="815.13 759.4 837.77 746.34 860.4 759.4 860.4 785.54 837.77 798.61 815.13 785.54 815.13 759.4"/><polygon class="cls-14" points="883.04 798.74 905.68 785.67 928.32 798.74 928.32 824.88 905.68 837.95 883.04 824.88 883.04 798.74"/><polygon class="cls-13" points="837.77 798.74 860.4 785.67 883.04 798.74 883.04 824.88 860.4 837.95 837.77 824.88 837.77 798.74"/><polygon class="cls-32" points="860.4 837.95 883.04 824.88 905.68 837.95 905.68 864.09 883.04 877.16 860.4 864.09 860.4 837.95"/><polygon class="cls-46" points="815.13 837.95 837.77 824.88 860.4 837.95 860.4 864.09 837.77 877.16 815.13 864.09 815.13 837.95"/><polygon class="cls-56" points="792.49 13.3 815.13 0.23 837.77 13.3 837.77 39.44 815.13 52.51 792.49 39.44 792.49 13.3"/><polygon class="cls-42" points="747.22 13.3 769.86 0.23 792.49 13.3 792.49 39.44 769.86 52.51 747.22 39.44 747.22 13.3"/><polygon class="cls-22" points="769.86 52.51 792.49 39.44 815.13 52.51 815.13 78.65 792.49 91.72 769.86 78.65 769.86 52.51"/><polygon class="cls-39" points="724.58 52.51 747.22 39.44 769.86 52.51 769.86 78.65 747.22 91.72 724.58 78.65 724.58 52.51"/><polygon class="cls-15" points="792.49 91.85 815.13 78.78 837.77 91.85 837.77 117.98 815.13 131.05 792.49 117.98 792.49 91.85"/><polygon class="cls-57" points="747.22 91.85 769.86 78.78 792.49 91.85 792.49 117.98 769.86 131.05 747.22 117.98 747.22 91.85"/><polygon class="cls-22" points="769.86 131.05 792.49 117.98 815.13 131.05 815.13 157.19 792.49 170.26 769.86 157.19 769.86 131.05"/><polygon class="cls-58" points="724.58 131.05 747.22 117.98 769.86 131.05 769.86 157.19 747.22 170.26 724.58 157.19 724.58 131.05"/><polygon class="cls-29" points="792.49 170.39 815.13 157.32 837.77 170.39 837.77 196.53 815.13 209.6 792.49 196.53 792.49 170.39"/><polygon class="cls-8" points="747.22 170.39 769.86 157.32 792.49 170.39 792.49 196.53 769.86 209.6 747.22 196.53 747.22 170.39"/><polygon class="cls-52" points="769.86 209.6 792.49 196.53 815.13 209.6 815.13 235.74 792.49 248.81 769.86 235.74 769.86 209.6"/><polygon class="cls-59" points="724.58 209.6 747.22 196.53 769.86 209.6 769.86 235.74 747.22 248.81 724.58 235.74 724.58 209.6"/><polygon class="cls-54" points="792.49 248.93 815.13 235.86 837.77 248.93 837.77 275.07 815.13 288.14 792.49 275.07 792.49 248.93"/><polygon class="cls-60" points="747.22 248.93 769.86 235.86 792.49 248.93 792.49 275.07 769.86 288.14 747.22 275.07 747.22 248.93"/><polygon class="cls-61" points="769.86 288.14 792.49 275.07 815.13 288.14 815.13 314.28 792.49 327.35 769.86 314.28 769.86 288.14"/><polygon class="cls-37" points="724.58 288.14 747.22 275.07 769.86 288.14 769.86 314.28 747.22 327.35 724.58 314.28 724.58 288.14"/><polygon class="cls-11" points="792.49 327.48 815.13 314.41 837.77 327.48 837.77 353.62 815.13 366.69 792.49 353.62 792.49 327.48"/><polygon class="cls-22" points="747.22 327.48 769.86 314.41 792.49 327.48 792.49 353.62 769.86 366.69 747.22 353.62 747.22 327.48"/><polygon class="cls-27" points="769.86 366.69 792.49 353.62 815.13 366.69 815.13 392.82 792.49 405.89 769.86 392.82 769.86 366.69"/><polygon class="cls-48" points="724.58 366.69 747.22 353.62 769.86 366.69 769.86 392.82 747.22 405.89 724.58 392.82 724.58 366.69"/><polygon class="cls-3" points="792.49 406.02 815.13 392.95 837.77 406.02 837.77 432.16 815.13 445.23 792.49 432.16 792.49 406.02"/><polygon class="cls-62" points="747.22 406.02 769.86 392.95 792.49 406.02 792.49 432.16 769.86 445.23 747.22 432.16 747.22 406.02"/><polygon class="cls-16" points="769.86 445.23 792.49 432.16 815.13 445.23 815.13 471.37 792.49 484.44 769.86 471.37 769.86 445.23"/><polygon class="cls-63" points="724.58 445.23 747.22 432.16 769.86 445.23 769.86 471.37 747.22 484.44 724.58 471.37 724.58 445.23"/><polygon class="cls-6" points="792.49 484.56 815.13 471.5 837.77 484.56 837.77 510.7 815.13 523.77 792.49 510.7 792.49 484.56"/><polygon class="cls-36" points="747.22 484.56 769.86 471.5 792.49 484.56 792.49 510.7 769.86 523.77 747.22 510.7 747.22 484.56"/><polygon class="cls-45" points="769.86 523.77 792.49 510.7 815.13 523.77 815.13 549.91 792.49 562.98 769.86 549.91 769.86 523.77"/><polygon class="cls-64" points="724.58 523.77 747.22 510.7 769.86 523.77 769.86 549.91 747.22 562.98 724.58 549.91 724.58 523.77"/><polygon class="cls-65" points="792.49 563.11 815.13 550.04 837.77 563.11 837.77 589.25 815.13 602.32 792.49 589.25 792.49 563.11"/><polygon class="cls-66" points="747.22 563.11 769.86 550.04 792.49 563.11 792.49 589.25 769.86 602.32 747.22 589.25 747.22 563.11"/><polygon class="cls-60" points="769.86 602.32 792.49 589.25 815.13 602.32 815.13 628.46 792.49 641.52 769.86 628.46 769.86 602.32"/><polygon class="cls-67" points="724.58 602.32 747.22 589.25 769.86 602.32 769.86 628.46 747.22 641.52 724.58 628.46 724.58 602.32"/><polygon class="cls-22" points="792.49 641.65 815.13 628.58 837.77 641.65 837.77 667.79 815.13 680.86 792.49 667.79 792.49 641.65"/><polygon class="cls-61" points="747.22 641.65 769.86 628.58 792.49 641.65 792.49 667.79 769.86 680.86 747.22 667.79 747.22 641.65"/><polygon class="cls-20" points="769.86 680.86 792.49 667.79 815.13 680.86 815.13 707 792.49 720.07 769.86 707 769.86 680.86"/><polygon class="cls-68" points="724.58 680.86 747.22 667.79 769.86 680.86 769.86 707 747.22 720.07 724.58 707 724.58 680.86"/><polygon class="cls-69" points="792.49 720.2 815.13 707.13 837.77 720.2 837.77 746.34 815.13 759.4 792.49 746.34 792.49 720.2"/><polygon class="cls-12" points="747.22 720.2 769.86 707.13 792.49 720.2 792.49 746.34 769.86 759.4 747.22 746.34 747.22 720.2"/><polygon class="cls-67" points="769.86 759.4 792.49 746.34 815.13 759.4 815.13 785.54 792.49 798.61 769.86 785.54 769.86 759.4"/><polygon class="cls-70" points="724.58 759.4 747.22 746.34 769.86 759.4 769.86 785.54 747.22 798.61 724.58 785.54 724.58 759.4"/><polygon class="cls-55" points="792.49 798.74 815.13 785.67 837.77 798.74 837.77 824.88 815.13 837.95 792.49 824.88 792.49 798.74"/><polygon class="cls-71" points="747.22 798.74 769.86 785.67 792.49 798.74 792.49 824.88 769.86 837.95 747.22 824.88 747.22 798.74"/><polygon class="cls-20" points="769.86 837.95 792.49 824.88 815.13 837.95 815.13 864.09 792.49 877.16 769.86 864.09 769.86 837.95"/><polygon class="cls-2" points="724.58 837.95 747.22 824.88 769.86 837.95 769.86 864.09 747.22 877.16 724.58 864.09 724.58 837.95"/><polygon class="cls-64" points="701.95 13.3 724.58 0.23 747.22 13.3 747.22 39.44 724.58 52.51 701.95 39.44 701.95 13.3"/><polygon class="cls-72" points="656.67 13.3 679.31 0.23 701.95 13.3 701.95 39.44 679.31 52.51 656.67 39.44 656.67 13.3"/><polygon class="cls-31" points="679.31 52.51 701.95 39.44 724.58 52.51 724.58 78.65 701.95 91.72 679.31 78.65 679.31 52.51"/><polygon class="cls-4" points="634.04 52.51 656.67 39.44 679.31 52.51 679.31 78.65 656.67 91.72 634.04 78.65 634.04 52.51"/><polygon class="cls-73" points="701.95 91.85 724.58 78.78 747.22 91.85 747.22 117.98 724.58 131.05 701.95 117.98 701.95 91.85"/><polygon class="cls-29" points="656.67 91.85 679.31 78.78 701.95 91.85 701.95 117.98 679.31 131.05 656.67 117.98 656.67 91.85"/><polygon class="cls-44" points="679.31 131.05 701.95 117.98 724.58 131.05 724.58 157.19 701.95 170.26 679.31 157.19 679.31 131.05"/><polygon class="cls-45" points="634.04 131.05 656.67 117.98 679.31 131.05 679.31 157.19 656.67 170.26 634.04 157.19 634.04 131.05"/><polygon class="cls-74" points="701.95 170.39 724.58 157.32 747.22 170.39 747.22 196.53 724.58 209.6 701.95 196.53 701.95 170.39"/><polygon class="cls-60" points="656.67 170.39 679.31 157.32 701.95 170.39 701.95 196.53 679.31 209.6 656.67 196.53 656.67 170.39"/><polygon class="cls-67" points="679.31 209.6 701.95 196.53 724.58 209.6 724.58 235.74 701.95 248.81 679.31 235.74 679.31 209.6"/><polygon class="cls-75" points="634.04 209.6 656.67 196.53 679.31 209.6 679.31 235.74 656.67 248.81 634.04 235.74 634.04 209.6"/><polygon class="cls-12" points="701.95 248.93 724.58 235.86 747.22 248.93 747.22 275.07 724.58 288.14 701.95 275.07 701.95 248.93"/><polygon class="cls-10" points="656.67 248.93 679.31 235.86 701.95 248.93 701.95 275.07 679.31 288.14 656.67 275.07 656.67 248.93"/><polygon class="cls-42" points="679.31 288.14 701.95 275.07 724.58 288.14 724.58 314.28 701.95 327.35 679.31 314.28 679.31 288.14"/><polygon class="cls-76" points="634.04 288.14 656.67 275.07 679.31 288.14 679.31 314.28 656.67 327.35 634.04 314.28 634.04 288.14"/><polygon class="cls-19" points="701.95 327.48 724.58 314.41 747.22 327.48 747.22 353.62 724.58 366.69 701.95 353.62 701.95 327.48"/><polygon class="cls-42" points="656.67 327.48 679.31 314.41 701.95 327.48 701.95 353.62 679.31 366.69 656.67 353.62 656.67 327.48"/><polygon class="cls-25" points="679.31 366.69 701.95 353.62 724.58 366.69 724.58 392.82 701.95 405.89 679.31 392.82 679.31 366.69"/><polygon class="cls-77" points="634.04 366.69 656.67 353.62 679.31 366.69 679.31 392.82 656.67 405.89 634.04 392.82 634.04 366.69"/><polygon class="cls-42" points="701.95 406.02 724.58 392.95 747.22 406.02 747.22 432.16 724.58 445.23 701.95 432.16 701.95 406.02"/><polygon class="cls-78" points="656.67 406.02 679.31 392.95 701.95 406.02 701.95 432.16 679.31 445.23 656.67 432.16 656.67 406.02"/><polygon class="cls-77" points="679.31 445.23 701.95 432.16 724.58 445.23 724.58 471.37 701.95 484.44 679.31 471.37 679.31 445.23"/><polygon class="cls-19" points="634.04 445.23 656.67 432.16 679.31 445.23 679.31 471.37 656.67 484.44 634.04 471.37 634.04 445.23"/><polygon class="cls-41" points="701.95 484.56 724.58 471.5 747.22 484.56 747.22 510.7 724.58 523.77 701.95 510.7 701.95 484.56"/><polygon class="cls-79" points="656.67 484.56 679.31 471.5 701.95 484.56 701.95 510.7 679.31 523.77 656.67 510.7 656.67 484.56"/><polygon class="cls-42" points="679.31 523.77 701.95 510.7 724.58 523.77 724.58 549.91 701.95 562.98 679.31 549.91 679.31 523.77"/><polygon class="cls-71" points="634.04 523.77 656.67 510.7 679.31 523.77 679.31 549.91 656.67 562.98 634.04 549.91 634.04 523.77"/><polygon class="cls-7" points="701.95 563.11 724.58 550.04 747.22 563.11 747.22 589.25 724.58 602.32 701.95 589.25 701.95 563.11"/><polygon class="cls-80" points="656.67 563.11 679.31 550.04 701.95 563.11 701.95 589.25 679.31 602.32 656.67 589.25 656.67 563.11"/><polygon class="cls-81" points="679.31 602.32 701.95 589.25 724.58 602.32 724.58 628.46 701.95 641.52 679.31 628.46 679.31 602.32"/><polygon class="cls-82" points="634.04 602.32 656.67 589.25 679.31 602.32 679.31 628.46 656.67 641.52 634.04 628.46 634.04 602.32"/><polygon class="cls-83" points="701.95 641.65 724.58 628.58 747.22 641.65 747.22 667.79 724.58 680.86 701.95 667.79 701.95 641.65"/><polygon class="cls-63" points="656.67 641.65 679.31 628.58 701.95 641.65 701.95 667.79 679.31 680.86 656.67 667.79 656.67 641.65"/><polygon class="cls-84" points="679.31 680.86 701.95 667.79 724.58 680.86 724.58 707 701.95 720.07 679.31 707 679.31 680.86"/><polygon class="cls-47" points="634.04 680.86 656.67 667.79 679.31 680.86 679.31 707 656.67 720.07 634.04 707 634.04 680.86"/><polygon class="cls-84" points="701.95 720.2 724.58 707.13 747.22 720.2 747.22 746.34 724.58 759.4 701.95 746.34 701.95 720.2"/><polygon class="cls-39" points="656.67 720.2 679.31 707.13 701.95 720.2 701.95 746.34 679.31 759.4 656.67 746.34 656.67 720.2"/><polygon class="cls-81" points="679.31 759.4 701.95 746.34 724.58 759.4 724.58 785.54 701.95 798.61 679.31 785.54 679.31 759.4"/><polygon class="cls-76" points="634.04 759.4 656.67 746.34 679.31 759.4 679.31 785.54 656.67 798.61 634.04 785.54 634.04 759.4"/><polygon class="cls-72" points="701.95 798.74 724.58 785.67 747.22 798.74 747.22 824.88 724.58 837.95 701.95 824.88 701.95 798.74"/><polygon class="cls-24" points="656.67 798.74 679.31 785.67 701.95 798.74 701.95 824.88 679.31 837.95 656.67 824.88 656.67 798.74"/><polygon class="cls-5" points="679.31 837.95 701.95 824.88 724.58 837.95 724.58 864.09 701.95 877.16 679.31 864.09 679.31 837.95"/><polygon class="cls-69" points="634.04 837.95 656.67 824.88 679.31 837.95 679.31 864.09 656.67 877.16 634.04 864.09 634.04 837.95"/><polygon class="cls-85" points="611.4 13.3 634.04 0.23 656.67 13.3 656.67 39.44 634.04 52.51 611.4 39.44 611.4 13.3"/><polygon class="cls-58" points="566.13 13.3 588.76 0.23 611.4 13.3 611.4 39.44 588.76 52.51 566.13 39.44 566.13 13.3"/><polygon class="cls-28" points="588.76 52.51 611.4 39.44 634.04 52.51 634.04 78.65 611.4 91.72 588.76 78.65 588.76 52.51"/><polygon class="cls-53" points="543.49 52.51 566.13 39.44 588.76 52.51 588.76 78.65 566.13 91.72 543.49 78.65 543.49 52.51"/><polygon class="cls-38" points="611.4 91.85 634.04 78.78 656.67 91.85 656.67 117.98 634.04 131.05 611.4 117.98 611.4 91.85"/><polygon class="cls-22" points="566.13 91.85 588.76 78.78 611.4 91.85 611.4 117.98 588.76 131.05 566.13 117.98 566.13 91.85"/><polygon class="cls-86" points="588.76 131.05 611.4 117.98 634.04 131.05 634.04 157.19 611.4 170.26 588.76 157.19 588.76 131.05"/><polygon class="cls-39" points="543.49 131.05 566.13 117.98 588.76 131.05 588.76 157.19 566.13 170.26 543.49 157.19 543.49 131.05"/><polygon class="cls-87" points="611.4 170.39 634.04 157.32 656.67 170.39 656.67 196.53 634.04 209.6 611.4 196.53 611.4 170.39"/><polygon class="cls-27" points="566.13 170.39 588.76 157.32 611.4 170.39 611.4 196.53 588.76 209.6 566.13 196.53 566.13 170.39"/><polygon class="cls-16" points="588.76 209.6 611.4 196.53 634.04 209.6 634.04 235.74 611.4 248.81 588.76 235.74 588.76 209.6"/><polygon class="cls-26" points="543.49 209.6 566.13 196.53 588.76 209.6 588.76 235.74 566.13 248.81 543.49 235.74 543.49 209.6"/><polygon class="cls-88" points="611.4 248.93 634.04 235.86 656.67 248.93 656.67 275.07 634.04 288.14 611.4 275.07 611.4 248.93"/><polygon class="cls-89" points="566.13 248.93 588.76 235.86 611.4 248.93 611.4 275.07 588.76 288.14 566.13 275.07 566.13 248.93"/><polygon class="cls-75" points="588.76 288.14 611.4 275.07 634.04 288.14 634.04 314.28 611.4 327.35 588.76 314.28 588.76 288.14"/><polygon class="cls-41" points="543.49 288.14 566.13 275.07 588.76 288.14 588.76 314.28 566.13 327.35 543.49 314.28 543.49 288.14"/><polygon class="cls-14" points="611.4 327.48 634.04 314.41 656.67 327.48 656.67 353.62 634.04 366.69 611.4 353.62 611.4 327.48"/><polygon class="cls-62" points="566.13 327.48 588.76 314.41 611.4 327.48 611.4 353.62 588.76 366.69 566.13 353.62 566.13 327.48"/><polygon class="cls-54" points="588.76 366.69 611.4 353.62 634.04 366.69 634.04 392.82 611.4 405.89 588.76 392.82 588.76 366.69"/><polygon class="cls-45" points="543.49 366.69 566.13 353.62 588.76 366.69 588.76 392.82 566.13 405.89 543.49 392.82 543.49 366.69"/><polygon class="cls-43" points="611.4 406.02 634.04 392.95 656.67 406.02 656.67 432.16 634.04 445.23 611.4 432.16 611.4 406.02"/><polygon class="cls-90" points="566.13 406.02 588.76 392.95 611.4 406.02 611.4 432.16 588.76 445.23 566.13 432.16 566.13 406.02"/><polygon class="cls-86" points="588.76 445.23 611.4 432.16 634.04 445.23 634.04 471.37 611.4 484.44 588.76 471.37 588.76 445.23"/><polygon class="cls-45" points="543.49 445.23 566.13 432.16 588.76 445.23 588.76 471.37 566.13 484.44 543.49 471.37 543.49 445.23"/><polygon class="cls-69" points="611.4 484.56 634.04 471.5 656.67 484.56 656.67 510.7 634.04 523.77 611.4 510.7 611.4 484.56"/><polygon class="cls-27" points="566.13 484.56 588.76 471.5 611.4 484.56 611.4 510.7 588.76 523.77 566.13 510.7 566.13 484.56"/><polygon class="cls-50" points="588.76 523.77 611.4 510.7 634.04 523.77 634.04 549.91 611.4 562.98 588.76 549.91 588.76 523.77"/><polygon class="cls-39" points="543.49 523.77 566.13 510.7 588.76 523.77 588.76 549.91 566.13 562.98 543.49 549.91 543.49 523.77"/><polygon class="cls-6" points="611.4 563.11 634.04 550.04 656.67 563.11 656.67 589.25 634.04 602.32 611.4 589.25 611.4 563.11"/><polygon class="cls-90" points="566.13 563.11 588.76 550.04 611.4 563.11 611.4 589.25 588.76 602.32 566.13 589.25 566.13 563.11"/><polygon class="cls-89" points="588.76 602.32 611.4 589.25 634.04 602.32 634.04 628.46 611.4 641.52 588.76 628.46 588.76 602.32"/><polygon class="cls-49" points="543.49 602.32 566.13 589.25 588.76 602.32 588.76 628.46 566.13 641.52 543.49 628.46 543.49 602.32"/><polygon class="cls-90" points="611.4 641.65 634.04 628.58 656.67 641.65 656.67 667.79 634.04 680.86 611.4 667.79 611.4 641.65"/><polygon class="cls-12" points="566.13 641.65 588.76 628.58 611.4 641.65 611.4 667.79 588.76 680.86 566.13 667.79 566.13 641.65"/><polygon class="cls-57" points="588.76 680.86 611.4 667.79 634.04 680.86 634.04 707 611.4 720.07 588.76 707 588.76 680.86"/><polygon class="cls-82" points="543.49 680.86 566.13 667.79 588.76 680.86 588.76 707 566.13 720.07 543.49 707 543.49 680.86"/><polygon class="cls-12" points="611.4 720.2 634.04 707.13 656.67 720.2 656.67 746.34 634.04 759.4 611.4 746.34 611.4 720.2"/><polygon class="cls-32" points="566.13 720.2 588.76 707.13 611.4 720.2 611.4 746.34 588.76 759.4 566.13 746.34 566.13 720.2"/><polygon class="cls-62" points="588.76 759.4 611.4 746.34 634.04 759.4 634.04 785.54 611.4 798.61 588.76 785.54 588.76 759.4"/><polygon class="cls-62" points="543.49 759.4 566.13 746.34 588.76 759.4 588.76 785.54 566.13 798.61 543.49 785.54 543.49 759.4"/><polygon class="cls-85" points="611.4 798.74 634.04 785.67 656.67 798.74 656.67 824.88 634.04 837.95 611.4 824.88 611.4 798.74"/><polygon class="cls-88" points="566.13 798.74 588.76 785.67 611.4 798.74 611.4 824.88 588.76 837.95 566.13 824.88 566.13 798.74"/><polygon class="cls-42" points="588.76 837.95 611.4 824.88 634.04 837.95 634.04 864.09 611.4 877.16 588.76 864.09 588.76 837.95"/><polygon class="cls-89" points="543.49 837.95 566.13 824.88 588.76 837.95 588.76 864.09 566.13 877.16 543.49 864.09 543.49 837.95"/><polygon class="cls-91" points="520.85 13.3 543.49 0.23 566.13 13.3 566.13 39.44 543.49 52.51 520.85 39.44 520.85 13.3"/><polygon class="cls-58" points="475.58 13.3 498.21 0.23 520.85 13.3 520.85 39.44 498.21 52.51 475.58 39.44 475.58 13.3"/><polygon class="cls-87" points="498.21 52.51 520.85 39.44 543.49 52.51 543.49 78.65 520.85 91.72 498.21 78.65 498.21 52.51"/><polygon class="cls-92" points="452.94 52.51 475.58 39.44 498.21 52.51 498.21 78.65 475.58 91.72 452.94 78.65 452.94 52.51"/><polygon class="cls-47" points="520.85 91.85 543.49 78.78 566.13 91.85 566.13 117.98 543.49 131.05 520.85 117.98 520.85 91.85"/><polygon class="cls-45" points="475.58 91.85 498.21 78.78 520.85 91.85 520.85 117.98 498.21 131.05 475.58 117.98 475.58 91.85"/><polygon class="cls-61" points="498.21 131.05 520.85 117.98 543.49 131.05 543.49 157.19 520.85 170.26 498.21 157.19 498.21 131.05"/><polygon class="cls-45" points="452.94 131.05 475.58 117.98 498.21 131.05 498.21 157.19 475.58 170.26 452.94 157.19 452.94 131.05"/><polygon class="cls-27" points="520.85 170.39 543.49 157.32 566.13 170.39 566.13 196.53 543.49 209.6 520.85 196.53 520.85 170.39"/><polygon class="cls-90" points="475.58 170.39 498.21 157.32 520.85 170.39 520.85 196.53 498.21 209.6 475.58 196.53 475.58 170.39"/><polygon class="cls-50" points="498.21 209.6 520.85 196.53 543.49 209.6 543.49 235.74 520.85 248.81 498.21 235.74 498.21 209.6"/><polygon class="cls-30" points="452.94 209.6 475.58 196.53 498.21 209.6 498.21 235.74 475.58 248.81 452.94 235.74 452.94 209.6"/><polygon class="cls-22" points="520.85 248.93 543.49 235.86 566.13 248.93 566.13 275.07 543.49 288.14 520.85 275.07 520.85 248.93"/><polygon class="cls-9" points="475.58 248.93 498.21 235.86 520.85 248.93 520.85 275.07 498.21 288.14 475.58 275.07 475.58 248.93"/><polygon class="cls-59" points="498.21 288.14 520.85 275.07 543.49 288.14 543.49 314.28 520.85 327.35 498.21 314.28 498.21 288.14"/><polygon class="cls-16" points="452.94 288.14 475.58 275.07 498.21 288.14 498.21 314.28 475.58 327.35 452.94 314.28 452.94 288.14"/><polygon class="cls-76" points="520.85 327.48 543.49 314.41 566.13 327.48 566.13 353.62 543.49 366.69 520.85 353.62 520.85 327.48"/><polygon class="cls-61" points="475.58 327.48 498.21 314.41 520.85 327.48 520.85 353.62 498.21 366.69 475.58 353.62 475.58 327.48"/><polygon class="cls-3" points="498.21 366.69 520.85 353.62 543.49 366.69 543.49 392.82 520.85 405.89 498.21 392.82 498.21 366.69"/><polygon class="cls-53" points="452.94 366.69 475.58 353.62 498.21 366.69 498.21 392.82 475.58 405.89 452.94 392.82 452.94 366.69"/><polygon class="cls-93" points="520.85 406.02 543.49 392.95 566.13 406.02 566.13 432.16 543.49 445.23 520.85 432.16 520.85 406.02"/><polygon class="cls-87" points="475.58 406.02 498.21 392.95 520.85 406.02 520.85 432.16 498.21 445.23 475.58 432.16 475.58 406.02"/><polygon class="cls-9" points="498.21 445.23 520.85 432.16 543.49 445.23 543.49 471.37 520.85 484.44 498.21 471.37 498.21 445.23"/><polygon class="cls-86" points="452.94 445.23 475.58 432.16 498.21 445.23 498.21 471.37 475.58 484.44 452.94 471.37 452.94 445.23"/><polygon class="cls-70" points="520.85 484.56 543.49 471.5 566.13 484.56 566.13 510.7 543.49 523.77 520.85 510.7 520.85 484.56"/><polygon class="cls-21" points="475.58 484.56 498.21 471.5 520.85 484.56 520.85 510.7 498.21 523.77 475.58 510.7 475.58 484.56"/><polygon class="cls-78" points="498.21 523.77 520.85 510.7 543.49 523.77 543.49 549.91 520.85 562.98 498.21 549.91 498.21 523.77"/><polygon class="cls-19" points="452.94 523.77 475.58 510.7 498.21 523.77 498.21 549.91 475.58 562.98 452.94 549.91 452.94 523.77"/><polygon class="cls-86" points="520.85 563.11 543.49 550.04 566.13 563.11 566.13 589.25 543.49 602.32 520.85 589.25 520.85 563.11"/><polygon class="cls-45" points="475.58 563.11 498.21 550.04 520.85 563.11 520.85 589.25 498.21 602.32 475.58 589.25 475.58 563.11"/><polygon class="cls-78" points="498.21 602.32 520.85 589.25 543.49 602.32 543.49 628.46 520.85 641.52 498.21 628.46 498.21 602.32"/><polygon class="cls-78" points="452.94 602.32 475.58 589.25 498.21 602.32 498.21 628.46 475.58 641.52 452.94 628.46 452.94 602.32"/><polygon class="cls-33" points="520.85 641.65 543.49 628.58 566.13 641.65 566.13 667.79 543.49 680.86 520.85 667.79 520.85 641.65"/><polygon class="cls-80" points="475.58 641.65 498.21 628.58 520.85 641.65 520.85 667.79 498.21 680.86 475.58 667.79 475.58 641.65"/><polygon class="cls-55" points="498.21 680.86 520.85 667.79 543.49 680.86 543.49 707 520.85 720.07 498.21 707 498.21 680.86"/><polygon class="cls-18" points="452.94 680.86 475.58 667.79 498.21 680.86 498.21 707 475.58 720.07 452.94 707 452.94 680.86"/><polygon class="cls-68" points="520.85 720.2 543.49 707.13 566.13 720.2 566.13 746.34 543.49 759.4 520.85 746.34 520.85 720.2"/><polygon class="cls-65" points="475.58 720.2 498.21 707.13 520.85 720.2 520.85 746.34 498.21 759.4 475.58 746.34 475.58 720.2"/><polygon class="cls-75" points="498.21 759.4 520.85 746.34 543.49 759.4 543.49 785.54 520.85 798.61 498.21 785.54 498.21 759.4"/><polygon class="cls-39" points="452.94 759.4 475.58 746.34 498.21 759.4 498.21 785.54 475.58 798.61 452.94 785.54 452.94 759.4"/><polygon class="cls-77" points="520.85 798.74 543.49 785.67 566.13 798.74 566.13 824.88 543.49 837.95 520.85 824.88 520.85 798.74"/><polygon class="cls-69" points="475.58 798.74 498.21 785.67 520.85 798.74 520.85 824.88 498.21 837.95 475.58 824.88 475.58 798.74"/><polygon class="cls-66" points="498.21 837.95 520.85 824.88 543.49 837.95 543.49 864.09 520.85 877.16 498.21 864.09 498.21 837.95"/><polygon class="cls-56" points="452.94 837.95 475.58 824.88 498.21 837.95 498.21 864.09 475.58 877.16 452.94 864.09 452.94 837.95"/><polygon class="cls-23" points="430.3 13.3 452.94 0.23 475.58 13.3 475.58 39.44 452.94 52.51 430.3 39.44 430.3 13.3"/><polygon class="cls-5" points="385.03 13.3 407.67 0.23 430.3 13.3 430.3 39.44 407.67 52.51 385.03 39.44 385.03 13.3"/><polygon class="cls-70" points="407.67 52.51 430.3 39.44 452.94 52.51 452.94 78.65 430.3 91.72 407.67 78.65 407.67 52.51"/><polygon class="cls-77" points="362.39 52.51 385.03 39.44 407.67 52.51 407.67 78.65 385.03 91.72 362.39 78.65 362.39 52.51"/><polygon class="cls-15" points="430.3 91.85 452.94 78.78 475.58 91.85 475.58 117.98 452.94 131.05 430.3 117.98 430.3 91.85"/><polygon class="cls-16" points="385.03 91.85 407.67 78.78 430.3 91.85 430.3 117.98 407.67 131.05 385.03 117.98 385.03 91.85"/><polygon class="cls-78" points="407.67 131.05 430.3 117.98 452.94 131.05 452.94 157.19 430.3 170.26 407.67 157.19 407.67 131.05"/><polygon class="cls-63" points="362.39 131.05 385.03 117.98 407.67 131.05 407.67 157.19 385.03 170.26 362.39 157.19 362.39 131.05"/><polygon class="cls-8" points="430.3 170.39 452.94 157.32 475.58 170.39 475.58 196.53 452.94 209.6 430.3 196.53 430.3 170.39"/><polygon class="cls-82" points="385.03 170.39 407.67 157.32 430.3 170.39 430.3 196.53 407.67 209.6 385.03 196.53 385.03 170.39"/><polygon class="cls-94" points="407.67 209.6 430.3 196.53 452.94 209.6 452.94 235.74 430.3 248.81 407.67 235.74 407.67 209.6"/><polygon class="cls-64" points="362.39 209.6 385.03 196.53 407.67 209.6 407.67 235.74 385.03 248.81 362.39 235.74 362.39 209.6"/><polygon class="cls-69" points="430.3 248.93 452.94 235.86 475.58 248.93 475.58 275.07 452.94 288.14 430.3 275.07 430.3 248.93"/><polygon class="cls-52" points="385.03 248.93 407.67 235.86 430.3 248.93 430.3 275.07 407.67 288.14 385.03 275.07 385.03 248.93"/><polygon class="cls-3" points="407.67 288.14 430.3 275.07 452.94 288.14 452.94 314.28 430.3 327.35 407.67 314.28 407.67 288.14"/><polygon class="cls-8" points="362.39 288.14 385.03 275.07 407.67 288.14 407.67 314.28 385.03 327.35 362.39 314.28 362.39 288.14"/><polygon class="cls-85" points="430.3 327.48 452.94 314.41 475.58 327.48 475.58 353.62 452.94 366.69 430.3 353.62 430.3 327.48"/><polygon class="cls-73" points="385.03 327.48 407.67 314.41 430.3 327.48 430.3 353.62 407.67 366.69 385.03 353.62 385.03 327.48"/><polygon class="cls-16" points="407.67 366.69 430.3 353.62 452.94 366.69 452.94 392.82 430.3 405.89 407.67 392.82 407.67 366.69"/><polygon class="cls-17" points="362.39 366.69 385.03 353.62 407.67 366.69 407.67 392.82 385.03 405.89 362.39 392.82 362.39 366.69"/><polygon class="cls-95" points="430.3 406.02 452.94 392.95 475.58 406.02 475.58 432.16 452.94 445.23 430.3 432.16 430.3 406.02"/><polygon class="cls-92" points="385.03 406.02 407.67 392.95 430.3 406.02 430.3 432.16 407.67 445.23 385.03 432.16 385.03 406.02"/><polygon class="cls-96" points="407.67 445.23 430.3 432.16 452.94 445.23 452.94 471.37 430.3 484.44 407.67 471.37 407.67 445.23"/><polygon class="cls-97" points="362.39 445.23 385.03 432.16 407.67 445.23 407.67 471.37 385.03 484.44 362.39 471.37 362.39 445.23"/><polygon class="cls-25" points="430.3 484.56 452.94 471.5 475.58 484.56 475.58 510.7 452.94 523.77 430.3 510.7 430.3 484.56"/><polygon class="cls-59" points="385.03 484.56 407.67 471.5 430.3 484.56 430.3 510.7 407.67 523.77 385.03 510.7 385.03 484.56"/><polygon class="cls-19" points="407.67 523.77 430.3 510.7 452.94 523.77 452.94 549.91 430.3 562.98 407.67 549.91 407.67 523.77"/><polygon class="cls-98" points="362.39 523.77 385.03 510.7 407.67 523.77 407.67 549.91 385.03 562.98 362.39 549.91 362.39 523.77"/><polygon class="cls-6" points="430.3 563.11 452.94 550.04 475.58 563.11 475.58 589.25 452.94 602.32 430.3 589.25 430.3 563.11"/><polygon class="cls-23" points="385.03 563.11 407.67 550.04 430.3 563.11 430.3 589.25 407.67 602.32 385.03 589.25 385.03 563.11"/><polygon class="cls-82" points="407.67 602.32 430.3 589.25 452.94 602.32 452.94 628.46 430.3 641.52 407.67 628.46 407.67 602.32"/><polygon class="cls-9" points="362.39 602.32 385.03 589.25 407.67 602.32 407.67 628.46 385.03 641.52 362.39 628.46 362.39 602.32"/><polygon class="cls-3" points="430.3 641.65 452.94 628.58 475.58 641.65 475.58 667.79 452.94 680.86 430.3 667.79 430.3 641.65"/><polygon class="cls-15" points="385.03 641.65 407.67 628.58 430.3 641.65 430.3 667.79 407.67 680.86 385.03 667.79 385.03 641.65"/><polygon class="cls-56" points="407.67 680.86 430.3 667.79 452.94 680.86 452.94 707 430.3 720.07 407.67 707 407.67 680.86"/><polygon class="cls-67" points="362.39 680.86 385.03 667.79 407.67 680.86 407.67 707 385.03 720.07 362.39 707 362.39 680.86"/><polygon class="cls-37" points="430.3 720.2 452.94 707.13 475.58 720.2 475.58 746.34 452.94 759.4 430.3 746.34 430.3 720.2"/><polygon class="cls-27" points="385.03 720.2 407.67 707.13 430.3 720.2 430.3 746.34 407.67 759.4 385.03 746.34 385.03 720.2"/><polygon class="cls-6" points="407.67 759.4 430.3 746.34 452.94 759.4 452.94 785.54 430.3 798.61 407.67 785.54 407.67 759.4"/><polygon class="cls-67" points="362.39 759.4 385.03 746.34 407.67 759.4 407.67 785.54 385.03 798.61 362.39 785.54 362.39 759.4"/><polygon class="cls-22" points="430.3 798.74 452.94 785.67 475.58 798.74 475.58 824.88 452.94 837.95 430.3 824.88 430.3 798.74"/><polygon class="cls-72" points="385.03 798.74 407.67 785.67 430.3 798.74 430.3 824.88 407.67 837.95 385.03 824.88 385.03 798.74"/><polygon class="cls-9" points="407.67 837.95 430.3 824.88 452.94 837.95 452.94 864.09 430.3 877.16 407.67 864.09 407.67 837.95"/><polygon class="cls-92" points="362.39 837.95 385.03 824.88 407.67 837.95 407.67 864.09 385.03 877.16 362.39 864.09 362.39 837.95"/><polygon class="cls-71" points="339.75 13.3 362.39 0.23 385.03 13.3 385.03 39.44 362.39 52.51 339.75 39.44 339.75 13.3"/><polygon class="cls-61" points="294.48 13.3 317.12 0.23 339.75 13.3 339.75 39.44 317.12 52.51 294.48 39.44 294.48 13.3"/><polygon class="cls-45" points="317.12 52.51 339.75 39.44 362.39 52.51 362.39 78.65 339.75 91.72 317.12 78.65 317.12 52.51"/><polygon class="cls-37" points="271.85 52.51 294.48 39.44 317.12 52.51 317.12 78.65 294.48 91.72 271.85 78.65 271.85 52.51"/><polygon class="cls-66" points="339.75 91.85 362.39 78.78 385.03 91.85 385.03 117.98 362.39 131.05 339.75 117.98 339.75 91.85"/><polygon class="cls-51" points="294.48 91.85 317.12 78.78 339.75 91.85 339.75 117.98 317.12 131.05 294.48 117.98 294.48 91.85"/><polygon class="cls-85" points="317.12 131.05 339.75 117.98 362.39 131.05 362.39 157.19 339.75 170.26 317.12 157.19 317.12 131.05"/><polygon class="cls-37" points="271.85 131.05 294.48 117.98 317.12 131.05 317.12 157.19 294.48 170.26 271.85 157.19 271.85 131.05"/><polygon class="cls-32" points="339.75 170.39 362.39 157.32 385.03 170.39 385.03 196.53 362.39 209.6 339.75 196.53 339.75 170.39"/><polygon class="cls-74" points="294.48 170.39 317.12 157.32 339.75 170.39 339.75 196.53 317.12 209.6 294.48 196.53 294.48 170.39"/><polygon class="cls-9" points="317.12 209.6 339.75 196.53 362.39 209.6 362.39 235.74 339.75 248.81 317.12 235.74 317.12 209.6"/><polygon class="cls-17" points="271.85 209.6 294.48 196.53 317.12 209.6 317.12 235.74 294.48 248.81 271.85 235.74 271.85 209.6"/><polygon class="cls-91" points="339.75 248.93 362.39 235.86 385.03 248.93 385.03 275.07 362.39 288.14 339.75 275.07 339.75 248.93"/><polygon class="cls-72" points="294.48 248.93 317.12 235.86 339.75 248.93 339.75 275.07 317.12 288.14 294.48 275.07 294.48 248.93"/><polygon class="cls-67" points="317.12 288.14 339.75 275.07 362.39 288.14 362.39 314.28 339.75 327.35 317.12 314.28 317.12 288.14"/><polygon class="cls-32" points="271.85 288.14 294.48 275.07 317.12 288.14 317.12 314.28 294.48 327.35 271.85 314.28 271.85 288.14"/><polygon class="cls-48" points="339.75 327.48 362.39 314.41 385.03 327.48 385.03 353.62 362.39 366.69 339.75 353.62 339.75 327.48"/><polygon class="cls-41" points="294.48 327.48 317.12 314.41 339.75 327.48 339.75 353.62 317.12 366.69 294.48 353.62 294.48 327.48"/><polygon class="cls-52" points="317.12 366.69 339.75 353.62 362.39 366.69 362.39 392.82 339.75 405.89 317.12 392.82 317.12 366.69"/><polygon class="cls-43" points="271.85 366.69 294.48 353.62 317.12 366.69 317.12 392.82 294.48 405.89 271.85 392.82 271.85 366.69"/><polygon class="cls-19" points="339.75 406.02 362.39 392.95 385.03 406.02 385.03 432.16 362.39 445.23 339.75 432.16 339.75 406.02"/><polygon class="cls-7" points="294.48 406.02 317.12 392.95 339.75 406.02 339.75 432.16 317.12 445.23 294.48 432.16 294.48 406.02"/><polygon class="cls-37" points="317.12 445.23 339.75 432.16 362.39 445.23 362.39 471.37 339.75 484.44 317.12 471.37 317.12 445.23"/><polygon class="cls-73" points="271.85 445.23 294.48 432.16 317.12 445.23 317.12 471.37 294.48 484.44 271.85 471.37 271.85 445.23"/><polygon class="cls-62" points="339.75 484.56 362.39 471.5 385.03 484.56 385.03 510.7 362.39 523.77 339.75 510.7 339.75 484.56"/><polygon class="cls-71" points="294.48 484.56 317.12 471.5 339.75 484.56 339.75 510.7 317.12 523.77 294.48 510.7 294.48 484.56"/><polygon class="cls-33" points="317.12 523.77 339.75 510.7 362.39 523.77 362.39 549.91 339.75 562.98 317.12 549.91 317.12 523.77"/><polygon class="cls-26" points="271.85 523.77 294.48 510.7 317.12 523.77 317.12 549.91 294.48 562.98 271.85 549.91 271.85 523.77"/><polygon class="cls-56" points="339.75 563.11 362.39 550.04 385.03 563.11 385.03 589.25 362.39 602.32 339.75 589.25 339.75 563.11"/><polygon class="cls-5" points="294.48 563.11 317.12 550.04 339.75 563.11 339.75 589.25 317.12 602.32 294.48 589.25 294.48 563.11"/><polygon class="cls-92" points="317.12 602.32 339.75 589.25 362.39 602.32 362.39 628.46 339.75 641.52 317.12 628.46 317.12 602.32"/><polygon class="cls-3" points="271.85 602.32 294.48 589.25 317.12 602.32 317.12 628.46 294.48 641.52 271.85 628.46 271.85 602.32"/><polygon class="cls-87" points="339.75 641.65 362.39 628.58 385.03 641.65 385.03 667.79 362.39 680.86 339.75 667.79 339.75 641.65"/><polygon class="cls-91" points="294.48 641.65 317.12 628.58 339.75 641.65 339.75 667.79 317.12 680.86 294.48 667.79 294.48 641.65"/><polygon class="cls-23" points="317.12 680.86 339.75 667.79 362.39 680.86 362.39 707 339.75 720.07 317.12 707 317.12 680.86"/><polygon class="cls-75" points="271.85 680.86 294.48 667.79 317.12 680.86 317.12 707 294.48 720.07 271.85 707 271.85 680.86"/><polygon class="cls-61" points="339.75 720.2 362.39 707.13 385.03 720.2 385.03 746.34 362.39 759.4 339.75 746.34 339.75 720.2"/><polygon class="cls-43" points="294.48 720.2 317.12 707.13 339.75 720.2 339.75 746.34 317.12 759.4 294.48 746.34 294.48 720.2"/><polygon class="cls-42" points="317.12 759.4 339.75 746.34 362.39 759.4 362.39 785.54 339.75 798.61 317.12 785.54 317.12 759.4"/><polygon class="cls-41" points="271.85 759.4 294.48 746.34 317.12 759.4 317.12 785.54 294.48 798.61 271.85 785.54 271.85 759.4"/><polygon class="cls-72" points="339.75 798.74 362.39 785.67 385.03 798.74 385.03 824.88 362.39 837.95 339.75 824.88 339.75 798.74"/><polygon class="cls-25" points="294.48 798.74 317.12 785.67 339.75 798.74 339.75 824.88 317.12 837.95 294.48 824.88 294.48 798.74"/><polygon class="cls-58" points="317.12 837.95 339.75 824.88 362.39 837.95 362.39 864.09 339.75 877.16 317.12 864.09 317.12 837.95"/><polygon class="cls-17" points="271.85 837.95 294.48 824.88 317.12 837.95 317.12 864.09 294.48 877.16 271.85 864.09 271.85 837.95"/><polygon class="cls-9" points="249.21 13.3 271.85 0.23 294.48 13.3 294.48 39.44 271.85 52.51 249.21 39.44 249.21 13.3"/><polygon class="cls-33" points="203.93 13.3 226.57 0.23 249.21 13.3 249.21 39.44 226.57 52.51 203.93 39.44 203.93 13.3"/><polygon class="cls-77" points="226.57 52.51 249.21 39.44 271.85 52.51 271.85 78.65 249.21 91.72 226.57 78.65 226.57 52.51"/><polygon class="cls-60" points="181.3 52.51 203.93 39.44 226.57 52.51 226.57 78.65 203.93 91.72 181.3 78.65 181.3 52.51"/><polygon class="cls-99" points="249.21 91.85 271.85 78.78 294.48 91.85 294.48 117.98 271.85 131.05 249.21 117.98 249.21 91.85"/><polygon class="cls-16" points="203.93 91.85 226.57 78.78 249.21 91.85 249.21 117.98 226.57 131.05 203.93 117.98 203.93 91.85"/><polygon class="cls-100" points="226.57 131.05 249.21 117.98 271.85 131.05 271.85 157.19 249.21 170.26 226.57 157.19 226.57 131.05"/><polygon class="cls-45" points="181.3 131.05 203.93 117.98 226.57 131.05 226.57 157.19 203.93 170.26 181.3 157.19 181.3 131.05"/><polygon class="cls-22" points="249.21 170.39 271.85 157.32 294.48 170.39 294.48 196.53 271.85 209.6 249.21 196.53 249.21 170.39"/><polygon class="cls-13" points="203.93 170.39 226.57 157.32 249.21 170.39 249.21 196.53 226.57 209.6 203.93 196.53 203.93 170.39"/><polygon class="cls-96" points="226.57 209.6 249.21 196.53 271.85 209.6 271.85 235.74 249.21 248.81 226.57 235.74 226.57 209.6"/><polygon class="cls-74" points="181.3 209.6 203.93 196.53 226.57 209.6 226.57 235.74 203.93 248.81 181.3 235.74 181.3 209.6"/><polygon class="cls-80" points="249.21 248.93 271.85 235.86 294.48 248.93 294.48 275.07 271.85 288.14 249.21 275.07 249.21 248.93"/><polygon class="cls-17" points="203.93 248.93 226.57 235.86 249.21 248.93 249.21 275.07 226.57 288.14 203.93 275.07 203.93 248.93"/><polygon class="cls-64" points="226.57 288.14 249.21 275.07 271.85 288.14 271.85 314.28 249.21 327.35 226.57 314.28 226.57 288.14"/><polygon class="cls-5" points="181.3 288.14 203.93 275.07 226.57 288.14 226.57 314.28 203.93 327.35 181.3 314.28 181.3 288.14"/><polygon class="cls-59" points="249.21 327.48 271.85 314.41 294.48 327.48 294.48 353.62 271.85 366.69 249.21 353.62 249.21 327.48"/><polygon class="cls-54" points="203.93 327.48 226.57 314.41 249.21 327.48 249.21 353.62 226.57 366.69 203.93 353.62 203.93 327.48"/><polygon class="cls-51" points="226.57 366.69 249.21 353.62 271.85 366.69 271.85 392.82 249.21 405.89 226.57 392.82 226.57 366.69"/><polygon class="cls-73" points="181.3 366.69 203.93 353.62 226.57 366.69 226.57 392.82 203.93 405.89 181.3 392.82 181.3 366.69"/><polygon class="cls-80" points="249.21 406.02 271.85 392.95 294.48 406.02 294.48 432.16 271.85 445.23 249.21 432.16 249.21 406.02"/><polygon class="cls-26" points="203.93 406.02 226.57 392.95 249.21 406.02 249.21 432.16 226.57 445.23 203.93 432.16 203.93 406.02"/><polygon class="cls-61" points="226.57 445.23 249.21 432.16 271.85 445.23 271.85 471.37 249.21 484.44 226.57 471.37 226.57 445.23"/><polygon class="cls-87" points="181.3 445.23 203.93 432.16 226.57 445.23 226.57 471.37 203.93 484.44 181.3 471.37 181.3 445.23"/><polygon class="cls-14" points="249.21 484.56 271.85 471.5 294.48 484.56 294.48 510.7 271.85 523.77 249.21 510.7 249.21 484.56"/><polygon class="cls-93" points="203.93 484.56 226.57 471.5 249.21 484.56 249.21 510.7 226.57 523.77 203.93 510.7 203.93 484.56"/><polygon class="cls-39" points="226.57 523.77 249.21 510.7 271.85 523.77 271.85 549.91 249.21 562.98 226.57 549.91 226.57 523.77"/><polygon class="cls-58" points="181.3 523.77 203.93 510.7 226.57 523.77 226.57 549.91 203.93 562.98 181.3 549.91 181.3 523.77"/><polygon class="cls-93" points="249.21 563.11 271.85 550.04 294.48 563.11 294.48 589.25 271.85 602.32 249.21 589.25 249.21 563.11"/><polygon class="cls-46" points="203.93 563.11 226.57 550.04 249.21 563.11 249.21 589.25 226.57 602.32 203.93 589.25 203.93 563.11"/><polygon class="cls-47" points="226.57 602.32 249.21 589.25 271.85 602.32 271.85 628.46 249.21 641.52 226.57 628.46 226.57 602.32"/><polygon class="cls-59" points="181.3 602.32 203.93 589.25 226.57 602.32 226.57 628.46 203.93 641.52 181.3 628.46 181.3 602.32"/><polygon class="cls-20" points="249.21 641.65 271.85 628.58 294.48 641.65 294.48 667.79 271.85 680.86 249.21 667.79 249.21 641.65"/><polygon class="cls-10" points="203.93 641.65 226.57 628.58 249.21 641.65 249.21 667.79 226.57 680.86 203.93 667.79 203.93 641.65"/><polygon class="cls-54" points="226.57 680.86 249.21 667.79 271.85 680.86 271.85 707 249.21 720.07 226.57 707 226.57 680.86"/><polygon class="cls-96" points="181.3 680.86 203.93 667.79 226.57 680.86 226.57 707 203.93 720.07 181.3 707 181.3 680.86"/><polygon class="cls-58" points="249.21 720.2 271.85 707.13 294.48 720.2 294.48 746.34 271.85 759.4 249.21 746.34 249.21 720.2"/><polygon class="cls-19" points="203.93 720.2 226.57 707.13 249.21 720.2 249.21 746.34 226.57 759.4 203.93 746.34 203.93 720.2"/><polygon class="cls-13" points="226.57 759.4 249.21 746.34 271.85 759.4 271.85 785.54 249.21 798.61 226.57 785.54 226.57 759.4"/><polygon class="cls-27" points="181.3 759.4 203.93 746.34 226.57 759.4 226.57 785.54 203.93 798.61 181.3 785.54 181.3 759.4"/><polygon class="cls-52" points="249.21 798.74 271.85 785.67 294.48 798.74 294.48 824.88 271.85 837.95 249.21 824.88 249.21 798.74"/><polygon class="cls-5" points="203.93 798.74 226.57 785.67 249.21 798.74 249.21 824.88 226.57 837.95 203.93 824.88 203.93 798.74"/><polygon class="cls-92" points="226.57 837.95 249.21 824.88 271.85 837.95 271.85 864.09 249.21 877.16 226.57 864.09 226.57 837.95"/><polygon class="cls-12" points="181.3 837.95 203.93 824.88 226.57 837.95 226.57 864.09 203.93 877.16 181.3 864.09 181.3 837.95"/><polygon class="cls-99" points="158.66 13.3 181.3 0.23 203.93 13.3 203.93 39.44 181.3 52.51 158.66 39.44 158.66 13.3"/><polygon class="cls-69" points="113.39 13.3 136.02 0.23 158.66 13.3 158.66 39.44 136.02 52.51 113.39 39.44 113.39 13.3"/><polygon class="cls-59" points="136.02 52.51 158.66 39.44 181.3 52.51 181.3 78.65 158.66 91.72 136.02 78.65 136.02 52.51"/><polygon class="cls-85" points="90.75 52.51 113.39 39.44 136.02 52.51 136.02 78.65 113.39 91.72 90.75 78.65 90.75 52.51"/><polygon class="cls-89" points="158.66 91.85 181.3 78.78 203.93 91.85 203.93 117.98 181.3 131.05 158.66 117.98 158.66 91.85"/><polygon class="cls-50" points="113.39 91.85 136.02 78.78 158.66 91.85 158.66 117.98 136.02 131.05 113.39 117.98 113.39 91.85"/><polygon class="cls-94" points="136.02 131.05 158.66 117.98 181.3 131.05 181.3 157.19 158.66 170.26 136.02 157.19 136.02 131.05"/><polygon class="cls-62" points="90.75 131.05 113.39 117.98 136.02 131.05 136.02 157.19 113.39 170.26 90.75 157.19 90.75 131.05"/><polygon class="cls-12" points="158.66 170.39 181.3 157.32 203.93 170.39 203.93 196.53 181.3 209.6 158.66 196.53 158.66 170.39"/><polygon class="cls-39" points="113.39 170.39 136.02 157.32 158.66 170.39 158.66 196.53 136.02 209.6 113.39 196.53 113.39 170.39"/><polygon class="cls-30" points="136.02 209.6 158.66 196.53 181.3 209.6 181.3 235.74 158.66 248.81 136.02 235.74 136.02 209.6"/><polygon class="cls-63" points="90.75 209.6 113.39 196.53 136.02 209.6 136.02 235.74 113.39 248.81 90.75 235.74 90.75 209.6"/><polygon class="cls-25" points="158.66 248.93 181.3 235.86 203.93 248.93 203.93 275.07 181.3 288.14 158.66 275.07 158.66 248.93"/><polygon class="cls-12" points="113.39 248.93 136.02 235.86 158.66 248.93 158.66 275.07 136.02 288.14 113.39 275.07 113.39 248.93"/><polygon class="cls-39" points="136.02 288.14 158.66 275.07 181.3 288.14 181.3 314.28 158.66 327.35 136.02 314.28 136.02 288.14"/><polygon class="cls-58" points="90.75 288.14 113.39 275.07 136.02 288.14 136.02 314.28 113.39 327.35 90.75 314.28 90.75 288.14"/><polygon class="cls-20" points="158.66 327.48 181.3 314.41 203.93 327.48 203.93 353.62 181.3 366.69 158.66 353.62 158.66 327.48"/><polygon class="cls-55" points="113.39 327.48 136.02 314.41 158.66 327.48 158.66 353.62 136.02 366.69 113.39 353.62 113.39 327.48"/><polygon class="cls-22" points="136.02 366.69 158.66 353.62 181.3 366.69 181.3 392.82 158.66 405.89 136.02 392.82 136.02 366.69"/><polygon class="cls-65" points="90.75 366.69 113.39 353.62 136.02 366.69 136.02 392.82 113.39 405.89 90.75 392.82 90.75 366.69"/><polygon class="cls-21" points="158.66 406.02 181.3 392.95 203.93 406.02 203.93 432.16 181.3 445.23 158.66 432.16 158.66 406.02"/><polygon class="cls-63" points="113.39 406.02 136.02 392.95 158.66 406.02 158.66 432.16 136.02 445.23 113.39 432.16 113.39 406.02"/><polygon class="cls-52" points="136.02 445.23 158.66 432.16 181.3 445.23 181.3 471.37 158.66 484.44 136.02 471.37 136.02 445.23"/><polygon class="cls-29" points="90.75 445.23 113.39 432.16 136.02 445.23 136.02 471.37 113.39 484.44 90.75 471.37 90.75 445.23"/><polygon class="cls-26" points="158.66 484.56 181.3 471.5 203.93 484.56 203.93 510.7 181.3 523.77 158.66 510.7 158.66 484.56"/><polygon class="cls-59" points="113.39 484.56 136.02 471.5 158.66 484.56 158.66 510.7 136.02 523.77 113.39 510.7 113.39 484.56"/><polygon class="cls-52" points="136.02 523.77 158.66 510.7 181.3 523.77 181.3 549.91 158.66 562.98 136.02 549.91 136.02 523.77"/><polygon class="cls-32" points="90.75 523.77 113.39 510.7 136.02 523.77 136.02 549.91 113.39 562.98 90.75 549.91 90.75 523.77"/><polygon class="cls-39" points="158.66 563.11 181.3 550.04 203.93 563.11 203.93 589.25 181.3 602.32 158.66 589.25 158.66 563.11"/><polygon class="cls-2" points="113.39 563.11 136.02 550.04 158.66 563.11 158.66 589.25 136.02 602.32 113.39 589.25 113.39 563.11"/><polygon class="cls-5" points="136.02 602.32 158.66 589.25 181.3 602.32 181.3 628.46 158.66 641.52 136.02 628.46 136.02 602.32"/><polygon class="cls-83" points="90.75 602.32 113.39 589.25 136.02 602.32 136.02 628.46 113.39 641.52 90.75 628.46 90.75 602.32"/><polygon class="cls-99" points="158.66 641.65 181.3 628.58 203.93 641.65 203.93 667.79 181.3 680.86 158.66 667.79 158.66 641.65"/><polygon class="cls-28" points="113.39 641.65 136.02 628.58 158.66 641.65 158.66 667.79 136.02 680.86 113.39 667.79 113.39 641.65"/><polygon class="cls-79" points="136.02 680.86 158.66 667.79 181.3 680.86 181.3 707 158.66 720.07 136.02 707 136.02 680.86"/><polygon class="cls-57" points="90.75 680.86 113.39 667.79 136.02 680.86 136.02 707 113.39 720.07 90.75 707 90.75 680.86"/><polygon class="cls-66" points="158.66 720.2 181.3 707.13 203.93 720.2 203.93 746.34 181.3 759.4 158.66 746.34 158.66 720.2"/><polygon class="cls-76" points="113.39 720.2 136.02 707.13 158.66 720.2 158.66 746.34 136.02 759.4 113.39 746.34 113.39 720.2"/><polygon class="cls-33" points="136.02 759.4 158.66 746.34 181.3 759.4 181.3 785.54 158.66 798.61 136.02 785.54 136.02 759.4"/><polygon class="cls-84" points="90.75 759.4 113.39 746.34 136.02 759.4 136.02 785.54 113.39 798.61 90.75 785.54 90.75 759.4"/><polygon class="cls-67" points="158.66 798.74 181.3 785.67 203.93 798.74 203.93 824.88 181.3 837.95 158.66 824.88 158.66 798.74"/><polygon class="cls-29" points="113.39 798.74 136.02 785.67 158.66 798.74 158.66 824.88 136.02 837.95 113.39 824.88 113.39 798.74"/><polygon class="cls-29" points="136.02 837.95 158.66 824.88 181.3 837.95 181.3 864.09 158.66 877.16 136.02 864.09 136.02 837.95"/><polygon class="cls-45" points="90.75 837.95 113.39 824.88 136.02 837.95 136.02 864.09 113.39 877.16 90.75 864.09 90.75 837.95"/><polygon class="cls-63" points="68.11 13.3 90.75 0.23 113.39 13.3 113.39 39.44 90.75 52.51 68.11 39.44 68.11 13.3"/><polygon class="cls-85" points="22.84 13.3 45.48 0.23 68.11 13.3 68.11 39.44 45.48 52.51 22.84 39.44 22.84 13.3"/><polygon class="cls-74" points="45.48 52.51 68.11 39.44 90.75 52.51 90.75 78.65 68.11 91.72 45.48 78.65 45.48 52.51"/><polygon class="cls-46" points="0.2 52.51 22.84 39.44 45.48 52.51 45.48 78.65 22.84 91.72 0.2 78.65 0.2 52.51"/><polygon class="cls-97" points="68.11 91.85 90.75 78.78 113.39 91.85 113.39 117.98 90.75 131.05 68.11 117.98 68.11 91.85"/><polygon class="cls-97" points="22.84 91.85 45.48 78.78 68.11 91.85 68.11 117.98 45.48 131.05 22.84 117.98 22.84 91.85"/><polygon class="cls-11" points="45.48 131.05 68.11 117.98 90.75 131.05 90.75 157.19 68.11 170.26 45.48 157.19 45.48 131.05"/><polygon class="cls-80" points="0.2 131.05 22.84 117.98 45.48 131.05 45.48 157.19 22.84 170.26 0.2 157.19 0.2 131.05"/><polygon class="cls-14" points="68.11 170.39 90.75 157.32 113.39 170.39 113.39 196.53 90.75 209.6 68.11 196.53 68.11 170.39"/><polygon class="cls-21" points="22.84 170.39 45.48 157.32 68.11 170.39 68.11 196.53 45.48 209.6 22.84 196.53 22.84 170.39"/><polygon class="cls-89" points="45.48 209.6 68.11 196.53 90.75 209.6 90.75 235.74 68.11 248.81 45.48 235.74 45.48 209.6"/><polygon class="cls-26" points="0.2 209.6 22.84 196.53 45.48 209.6 45.48 235.74 22.84 248.81 0.2 235.74 0.2 209.6"/><polygon class="cls-60" points="68.11 248.93 90.75 235.86 113.39 248.93 113.39 275.07 90.75 288.14 68.11 275.07 68.11 248.93"/><polygon class="cls-101" points="22.84 248.93 45.48 235.86 68.11 248.93 68.11 275.07 45.48 288.14 22.84 275.07 22.84 248.93"/><polygon class="cls-78" points="45.48 288.14 68.11 275.07 90.75 288.14 90.75 314.28 68.11 327.35 45.48 314.28 45.48 288.14"/><polygon class="cls-69" points="0.2 288.14 22.84 275.07 45.48 288.14 45.48 314.28 22.84 327.35 0.2 314.28 0.2 288.14"/><polygon class="cls-63" points="68.11 327.48 90.75 314.41 113.39 327.48 113.39 353.62 90.75 366.69 68.11 353.62 68.11 327.48"/><polygon class="cls-33" points="22.84 327.48 45.48 314.41 68.11 327.48 68.11 353.62 45.48 366.69 22.84 353.62 22.84 327.48"/><polygon class="cls-38" points="45.48 366.69 68.11 353.62 90.75 366.69 90.75 392.82 68.11 405.89 45.48 392.82 45.48 366.69"/><polygon class="cls-44" points="0.2 366.69 22.84 353.62 45.48 366.69 45.48 392.82 22.84 405.89 0.2 392.82 0.2 366.69"/><polygon class="cls-42" points="68.11 406.02 90.75 392.95 113.39 406.02 113.39 432.16 90.75 445.23 68.11 432.16 68.11 406.02"/><polygon class="cls-27" points="22.84 406.02 45.48 392.95 68.11 406.02 68.11 432.16 45.48 445.23 22.84 432.16 22.84 406.02"/><polygon class="cls-37" points="45.48 445.23 68.11 432.16 90.75 445.23 90.75 471.37 68.11 484.44 45.48 471.37 45.48 445.23"/><polygon class="cls-5" points="0.2 445.23 22.84 432.16 45.48 445.23 45.48 471.37 22.84 484.44 0.2 471.37 0.2 445.23"/><polygon class="cls-79" points="68.11 484.56 90.75 471.5 113.39 484.56 113.39 510.7 90.75 523.77 68.11 510.7 68.11 484.56"/><polygon class="cls-26" points="22.84 484.56 45.48 471.5 68.11 484.56 68.11 510.7 45.48 523.77 22.84 510.7 22.84 484.56"/><polygon class="cls-15" points="45.48 523.77 68.11 510.7 90.75 523.77 90.75 549.91 68.11 562.98 45.48 549.91 45.48 523.77"/><polygon class="cls-22" points="0.2 523.77 22.84 510.7 45.48 523.77 45.48 549.91 22.84 562.98 0.2 549.91 0.2 523.77"/><polygon class="cls-68" points="68.11 563.11 90.75 550.04 113.39 563.11 113.39 589.25 90.75 602.32 68.11 589.25 68.11 563.11"/><polygon class="cls-65" points="22.84 563.11 45.48 550.04 68.11 563.11 68.11 589.25 45.48 602.32 22.84 589.25 22.84 563.11"/><polygon class="cls-11" points="45.48 602.32 68.11 589.25 90.75 602.32 90.75 628.46 68.11 641.52 45.48 628.46 45.48 602.32"/><polygon class="cls-40" points="0.2 602.32 22.84 589.25 45.48 602.32 45.48 628.46 22.84 641.52 0.2 628.46 0.2 602.32"/><polygon class="cls-8" points="68.11 641.65 90.75 628.58 113.39 641.65 113.39 667.79 90.75 680.86 68.11 667.79 68.11 641.65"/><polygon class="cls-52" points="22.84 641.65 45.48 628.58 68.11 641.65 68.11 667.79 45.48 680.86 22.84 667.79 22.84 641.65"/><polygon class="cls-32" points="45.48 680.86 68.11 667.79 90.75 680.86 90.75 707 68.11 720.07 45.48 707 45.48 680.86"/><polygon class="cls-29" points="0.2 680.86 22.84 667.79 45.48 680.86 45.48 707 22.84 720.07 0.2 707 0.2 680.86"/><polygon class="cls-6" points="68.11 720.2 90.75 707.13 113.39 720.2 113.39 746.34 90.75 759.4 68.11 746.34 68.11 720.2"/><polygon class="cls-9" points="22.84 720.2 45.48 707.13 68.11 720.2 68.11 746.34 45.48 759.4 22.84 746.34 22.84 720.2"/><polygon class="cls-64" points="45.48 759.4 68.11 746.34 90.75 759.4 90.75 785.54 68.11 798.61 45.48 785.54 45.48 759.4"/><polygon class="cls-99" points="0.2 759.4 22.84 746.34 45.48 759.4 45.48 785.54 22.84 798.61 0.2 785.54 0.2 759.4"/><polygon class="cls-98" points="68.11 798.74 90.75 785.67 113.39 798.74 113.39 824.88 90.75 837.95 68.11 824.88 68.11 798.74"/><polygon class="cls-75" points="22.84 798.74 45.48 785.67 68.11 798.74 68.11 824.88 45.48 837.95 22.84 824.88 22.84 798.74"/><polygon class="cls-34" points="45.48 837.95 68.11 824.88 90.75 837.95 90.75 864.09 68.11 877.16 45.48 864.09 45.48 837.95"/><polygon class="cls-15" points="0.2 837.95 22.84 824.88 45.48 837.95 45.48 864.09 22.84 877.16 0.2 864.09 0.2 837.95"/></g></g></svg>