<svg xmlns="http://www.w3.org/2000/svg" viewBox="0 0 972 44"><defs><style>.cls-1{fill:#fff;}</style></defs><title>资源 1</title><g id="图层_2" data-name="图层 2"><g id="Layer_1" data-name="Layer 1"><rect class="cls-1" x="969" y="20" width="3" height="11"/><rect class="cls-1" x="909" y="20" width="3" height="11"/><rect class="cls-1" x="885" y="17" width="3" height="16"/><rect class="cls-1" x="837" y="20" width="4" height="11"/><rect class="cls-1" x="813" y="20" width="4" height="11"/><rect class="cls-1" x="754" y="20" width="4" height="11"/><rect class="cls-1" x="718" y="20" width="3" height="11"/><rect class="cls-1" x="705" y="20" width="3" height="11"/><rect class="cls-1" x="645" y="20" width="4" height="11"/><rect class="cls-1" x="610" y="20" width="3" height="11"/><rect class="cls-1" x="598" y="20" width="3" height="11"/><rect class="cls-1" x="526" y="20" width="3" height="11"/><rect class="cls-1" x="466" y="20" width="3" height="11"/><rect class="cls-1" x="453" y="20" width="4" height="11"/><rect class="cls-1" x="419" y="20" width="3" height="11"/><rect class="cls-1" x="406" y="20" width="3" height="11"/><rect class="cls-1" x="346" y="20" width="3" height="11"/><rect class="cls-1" x="335" y="20" width="3" height="11"/><rect class="cls-1" x="323" y="20" width="3" height="11"/><rect class="cls-1" x="299" y="20" width="3" height="11"/><rect class="cls-1" x="286" y="20" width="3" height="11"/><rect class="cls-1" x="263" y="20" width="3" height="11"/><rect class="cls-1" x="251" y="20" width="4" height="11"/><rect class="cls-1" x="191" y="20" width="4" height="11"/><rect class="cls-1" x="179" y="20" width="3" height="11"/><rect class="cls-1" x="896" y="22" width="5" height="5"/><rect class="cls-1" x="825" y="22" width="3" height="5"/><rect class="cls-1" x="742" y="22" width="3" height="5"/><rect class="cls-1" x="729" y="22" width="4" height="5"/><rect class="cls-1" x="634" y="22" width="4" height="5"/><rect class="cls-1" x="622" y="22" width="3" height="5"/><rect class="cls-1" x="538" y="22" width="3" height="5"/><rect class="cls-1" x="443" y="22" width="3" height="5"/><rect class="cls-1" x="430" y="22" width="4" height="5"/><rect class="cls-1" x="275" y="22" width="3" height="5"/><rect class="cls-1" x="167" y="22" width="3" height="5"/><rect class="cls-1" x="155" y="22" width="3" height="5"/><rect class="cls-1" x="143" y="22" width="4" height="5"/><rect class="cls-1" x="132" y="20" width="3" height="11"/><rect class="cls-1" x="119" y="20" width="3" height="11"/><rect class="cls-1" x="922" y="17" width="3" height="18"/><rect class="cls-1" x="849" y="17" width="3" height="18"/><rect class="cls-1" x="765" y="17" width="3" height="18"/><rect class="cls-1" x="658" y="17" width="3" height="18"/><rect class="cls-1" x="550" y="17" width="3" height="18"/><rect class="cls-1" x="478" y="17" width="4" height="18"/><rect class="cls-1" x="359" y="17" width="3" height="18"/><rect class="cls-1" x="203" y="17" width="3" height="18"/><rect class="cls-1" x="72" y="17" width="3" height="18"/><rect class="cls-1" x="59" y="20" width="4" height="11"/><rect class="cls-1" x="47" y="20" width="4" height="11"/><rect class="cls-1" x="35" y="20" width="3" height="11"/><rect class="cls-1" x="956" y="13" width="4" height="22"/><rect class="cls-1" x="802" y="13" width="3" height="22"/><rect class="cls-1" x="694" y="13" width="4" height="22"/><rect class="cls-1" x="586" y="13" width="3" height="22"/><rect class="cls-1" x="515" y="13" width="3" height="22"/><rect class="cls-1" x="394" y="13" width="4" height="22"/><rect class="cls-1" x="310" y="13" width="5" height="22"/><rect class="cls-1" x="239" y="13" width="3" height="22"/><rect class="cls-1" x="107" y="13" width="3" height="22"/><rect class="cls-1" x="24" y="13" width="3" height="22"/><rect class="cls-1" x="945" width="3" height="44"/><rect class="cls-1" x="873" width="3" height="44"/><rect class="cls-1" x="789" width="3" height="44"/><rect class="cls-1" x="682" width="3" height="44"/><rect class="cls-1" x="574" width="4" height="44"/><rect class="cls-1" x="503" width="3" height="44"/><rect class="cls-1" x="383" width="3" height="44"/><rect class="cls-1" x="226" width="4" height="44"/><rect class="cls-1" x="95" width="3" height="44"/><rect class="cls-1" x="12" width="3" height="44"/><rect class="cls-1" x="933" y="13" width="3" height="24"/><rect class="cls-1" x="862" y="13" width="3" height="24"/><rect class="cls-1" x="778" y="13" width="3" height="24"/><rect class="cls-1" x="670" y="13" width="3" height="24"/><rect class="cls-1" x="562" y="13" width="4" height="24"/><rect class="cls-1" x="490" y="13" width="3" height="24"/><rect class="cls-1" x="370" y="13" width="4" height="24"/><rect class="cls-1" x="215" y="13" width="3" height="24"/><rect class="cls-1" x="84" y="13" width="3" height="24"/><rect class="cls-1" y="13" width="3" height="24"/></g></g></svg>