<svg xmlns="http://www.w3.org/2000/svg" xmlns:xlink="http://www.w3.org/1999/xlink" viewBox="0 0 315.28 117.06"><defs><style>.cls-1{isolation:isolate;}.cls-2{opacity:0.5;mix-blend-mode:color-dodge;}.cls-3{fill:url(#铃琨眄_沭噤桢眚_30);}.cls-4{fill:#fff;}</style><radialGradient id="铃琨眄_沭噤桢眚_30" cx="-25.59" cy="431.25" r="67.11" gradientTransform="translate(199.6 -125.12) scale(1.76 0.45)" gradientUnits="userSpaceOnUse"><stop offset="0.01" stop-color="#fff"/><stop offset="0.04" stop-color="#f4f4f4"/><stop offset="0.25" stop-color="#ababab"/><stop offset="0.45" stop-color="#6e6e6e"/><stop offset="0.63" stop-color="#3f3f3f"/><stop offset="0.79" stop-color="#1c1c1c"/><stop offset="0.91" stop-color="#080808"/><stop offset="1"/></radialGradient></defs><title>资源 1</title><g class="cls-1"><g id="图层_2" data-name="图层 2"><g id="央铋_1" data-name="央铋 1"><g class="cls-2"><ellipse class="cls-3" cx="154.5" cy="69.46" rx="118.27" ry="30.28"/></g><path class="cls-4" d="M123.68,45.47c0-.24-.09-.52.08-.69a1.52,1.52,0,0,1,1-.44c.29,0,.78.43.72.58s-.55.45-.93.57a2.4,2.4,0,0,1-.89-.09Z"/><path class="cls-4" d="M190.4,45c.85-.29,1.48-.34,2.07.36a6.89,6.89,0,0,0,1.93,1.18c1.94,1,2.82,2.3,2.42,3.94a16.48,16.48,0,0,1-1,2.41.77.77,0,0,1,.38.08c.3.18.65.39.74.63s-.28.5-.51.54a2.64,2.64,0,0,1-1-.22c-.41-.15-.77-.34-1.25-.56-.15.58-.05,1.12-.39,1.31a6.68,6.68,0,0,1-2.39.72c-.29,0-.73-.57-1-.95l-2.63-1.57a1.79,1.79,0,0,1,0,.23h-1.86c0-.24.06-.68.13-.69a4.59,4.59,0,0,1,1.53.17,7.69,7.69,0,0,1,1.66-.25c.52.59,2.34.71,1.43,1.8.76.07,1.3.23,1.67-.41.26-.44,1-.76,1.54-1.14,1.68-1.23,2.08-3.48.58-4.81-.55-.49-1.16-1.5-2.77-.91a1.64,1.64,0,0,1-1-.58,3.36,3.36,0,0,1-.13-1.27Z"/><path class="cls-4" d="M201.15,66.39c-.13-.39-.15-.8-1-.85-.23,0-.62-.42-.57-.59a5.21,5.21,0,0,1,.79-1.46c.12-.18.55-.24.74-.41.69-.61.7-.62,1.92-.19,0-.85.45-1.89-.14-2.39s-.34-1.22-1.45-1.43c-.24,0-.23-.68-.34-1l-.05,0c1.45-.16,1.63-.05,1.93.91a6.62,6.62,0,0,0,.81,1,4.72,4.72,0,0,0,1,.43c.4.19.78.39,1.17.59a4,4,0,0,1-.79.67,1.25,1.25,0,0,0,0,2.2c.24.12.38.32.61.45.42.25.87.48,1.31.72a3.06,3.06,0,0,1,.9.53c.1.14-.13.51-.36.58s-.7-.07-1.06-.05a4.78,4.78,0,0,0-1.14.2,12,12,0,0,1-1.11.48c-.13,0-.65-.34-.61-.47.09-.28.43-.51.68-.76a3.46,3.46,0,0,1,.39-.25c-.4-.12-.83-.36-1-.29-.4.14-.86.41-.94.68-.23.7-.77.86-1.71.65Z"/><path class="cls-4" d="M113.27,58.37c.09.57.28,1-.73,1.51a2.78,2.78,0,0,0-1.36,2.67,8.57,8.57,0,0,1,0,1.36c2.11-1,2.4-1,2.7.29h0a9.38,9.38,0,0,1-1.29.07,7.32,7.32,0,0,1-1.29-.36c.35.68.62,1.17.94,1.79.9.12,1.08.63.85,1.3l.1-.08a22.24,22.24,0,0,1-2.29.36,1.68,1.68,0,0,1-1.1-.39c-.38-.51-.7-.68-1.49-.3a2.93,2.93,0,0,1-1.31.08c-.11,0-.31-.45-.21-.52a2.14,2.14,0,0,1,1.06-.37,1.23,1.23,0,0,0,1.27-.73,3.06,3.06,0,0,0,.16-3.27c0-.06,0-.14,0-.18.71-.7,1.44-1.39,2.39-2.31-.18-.49.43-.86,1.6-.92Z"/><path class="cls-4" d="M209.63,67.88c1.08,0,2.29.14,2.59.9.21.56-.19,1.22-.34,1.9.56.26,1,.6.36,1.17a.45.45,0,0,0-.07.55c.37.63,0,.95-.53,1L211,74.83a4.73,4.73,0,0,1-1-.25,3.23,3.23,0,0,1,.56-1.21,10.72,10.72,0,0,0,.28-1.08c.06-.44.26-1,0-1.31-.45-.69.07-1.54-1-2.14-.29-.16-.19-.65-.27-1Z"/><path class="cls-4" d="M224.53,83.61c.29.25.72.46.69.62a1.49,1.49,0,0,1-.68.74c-.38.24-.92.37-1.28.62-.56.39-.33.63.41.83a1.58,1.58,0,0,1,.91.6c.08.14-.36.56-.59.57a3.18,3.18,0,0,1-1-.37,4.11,4.11,0,0,0-.74-.27c-1.29-.18-.92-1-1.2-1.5-.08-.14.89-.56,1.41-.82s.87-.37,1.29-.57C224,84,224.16,83.82,224.53,83.61Z"/><path class="cls-4" d="M183.14,58.06a4.11,4.11,0,0,1-.13,1.11,1.45,1.45,0,0,1-.88.1,18.22,18.22,0,0,1-1.79-.83,1.36,1.36,0,0,0-1.88.29.9.9,0,0,1-1.31.32.81.81,0,0,1-.18-1c.84-.93,3.52-1,4.75-.29a5.88,5.88,0,0,0,1.46.37Z"/><path class="cls-4" d="M226.19,88.22c-.23-.14-.66-.28-.74-.48a.61.61,0,0,1,.37-.65c.48-.18,1.14-.16,1.6-.35a4.65,4.65,0,0,0,1.31-.89,15.2,15.2,0,0,1,1-1.22,1.68,1.68,0,0,1,1.15,0c.21.11.22.53.1.76a15.8,15.8,0,0,1-1.09,1.57.43.43,0,0,1-.15.15Z"/><path class="cls-4" d="M234.83,80.77a18.7,18.7,0,0,1,2,0c.69,0,1.17.29.84.85a.5.5,0,0,0,0,.43c.24.66-.76,1.47-1.76,1.37-.26,0-.63-.2-.67-.34a.64.64,0,0,1,.28-.61,5.36,5.36,0,0,1,1.12-.43l-1.72-.49a1.36,1.36,0,0,0,0,.2l-1.8.06c0-.26-.16-.69,0-.75A7.78,7.78,0,0,1,234.83,80.77Z"/><path class="cls-4" d="M144.17,60c.91.19,1.85.54,2.3-.43a1.62,1.62,0,0,1,1-.11c.26.11.53.52.41.65a6.17,6.17,0,0,1-1.46,1.3,3.26,3.26,0,0,1-2.7-.62,2.5,2.5,0,0,0-.51-.52c-.3-.24-.74-.44-.88-.71,0-.1.56-.36.87-.54.29.27.59.54.87.82A.35.35,0,0,1,144.17,60Z"/><path class="cls-4" d="M231.2,83.33c.46-.31.88-1.18,2.14-.66.27.12,0,.81,0,1.29l1.08.89-1,.47-1-1,.22-.07-1.7-.58,0,.15-1.79.07.15-.94Z"/><path class="cls-4" d="M118.16,94.74c.84.46,1.56.86,2.3,1.25s1.27.59,1.85.93a1.19,1.19,0,0,1,.6.69c0,.15-.36.46-.6.48a2.54,2.54,0,0,1-1-.3c-1.21-.55-1.87-1.59-3.59-1.7-.17,0-.39-.48-.38-.73S117.77,95,118.16,94.74Z"/><path class="cls-4" d="M215.17,90.56c-.16-.32-.55-.69-.43-.94.23-.44.67-1.06,1.21-1.16a7.6,7.6,0,0,0,3.21-1s.77.26.8.42a.8.8,0,0,1-.47.71c-.82.33-1.74.54-2.58.85-.26.09-.37.35-.57.52l-.71.57Z"/><path class="cls-4" d="M163.7,92.82c-.44-.23-1.13-.41-1.25-.7s.44-.62.81-.9c.1-.43-1.24-.9,0-1.33a2.16,2.16,0,0,1,1.54.46c.17.28-.35.74-.56,1.11l-.32-.08c.05.36.09.72.16,1.19.52.12,1.72,0,1.34.87-.08.18-.64.28-1,.41l-.8-.93Z"/><path class="cls-4" d="M105.07,68.39c-.33.84-.67,1.68-1,2.53-.1.27-.14.56-.23.83s-.1.58-.34.68a1.55,1.55,0,0,1-1-.08c-.2-.13-.17-.47-.13-.7.11-.58.31-1.15.44-1.73.24-1,.81-1.42,2.33-1.5Z"/><path class="cls-4" d="M97,90.55c-.31-.56-.46-1.2-1.73-1.18-.21,0-.57-.36-.61-.58s.27-.46.53-.54a2,2,0,0,1,1,.11,11.49,11.49,0,0,1,1.49.57,5.19,5.19,0,0,1,.71.48,10.8,10.8,0,0,1,1,.56,4.64,4.64,0,0,1,.62.72,6.21,6.21,0,0,1-1.32.2A11.31,11.31,0,0,1,97,90.52Z"/><path class="cls-4" d="M242,78.61a5.92,5.92,0,0,1-1.12-.83c-.07-.09.48-.4.75-.61L243,78.3a4.84,4.84,0,0,1,1-.48,6.54,6.54,0,0,1,1.35-.11,2.9,2.9,0,0,1-.26,1c-.11.18-.49.31-.78.42-.47.17-1.14.52-1.41.42s-.56-.62-.81-1Z"/><path class="cls-4" d="M89.45,85.15c.14-.12.27-.39.53-.46a1.61,1.61,0,0,1,1,.09c.78.54,1.49,1.12,2.23,1.69.51.38.47.77-.12,1s-1.07,0-1.41-.41c-.17-.19-.43-.47-.68-.48C89.62,86.54,89.82,85.79,89.45,85.15Z"/><path class="cls-4" d="M109.1,94.17a4.78,4.78,0,0,1,1.64-.29c.7.19.52.79-.15,1-1,.37-2,.81-3,1.19a2.34,2.34,0,0,1-1.06.17c-.23,0-.5-.39-.46-.56a1.13,1.13,0,0,1,.67-.58c.74-.26,1.55-.44,2.31-.68.09,0,.06-.21.09-.32Z"/><path class="cls-4" d="M128.33,59.06a6.62,6.62,0,0,1,.56-1.58c.12-.2.74-.25,1.14-.38.13.25.48.56.36.72-.36.54.22,1.55-1.12,1.43a9.34,9.34,0,0,1-1.29,1,3.92,3.92,0,0,1-.86-.38l1.06-.89Z"/><path class="cls-4" d="M192.74,92.12c.08.18.27.39.22.56a3.38,3.38,0,0,1-.49.8c-.38-.14-1-.22-1.11-.43s-.18-.61-.92-.65c-.27,0-.48-.52-.71-.8.39-.12.77-.26,1.17-.35.18,0,.45.09.63,0C192.72,91,192.92,91.46,192.74,92.12Z"/><path class="cls-4" d="M249,76.08a2.52,2.52,0,0,1,.72-.24,3.42,3.42,0,0,1,1.17.15c.15.05.22.45.1.52a3.18,3.18,0,0,1-1,.27c-.27,0-.57,0-.84,0A11.09,11.09,0,0,1,248,77a7.22,7.22,0,0,1-1.13-1.52c0-.09.42-.37.71-.43a1.18,1.18,0,0,1,.78.22A4.82,4.82,0,0,1,249,76.08Z"/><path class="cls-4" d="M155,98.84c-.14.29-.17.59-.41.77a7.14,7.14,0,0,1-1.2.64l-.43-1a3.87,3.87,0,0,1-.36-.94,4,4,0,0,1,.09-1,6.45,6.45,0,0,1,1.29.47A6.65,6.65,0,0,1,155,98.84Z"/><path class="cls-4" d="M170.12,60.2c0-.3-.12-.6,0-.81a3.25,3.25,0,0,1,.87-.54c.26.23.68.44.76.7a1.42,1.42,0,0,1-.14,1,1.1,1.1,0,0,1-.69.57,6,6,0,0,1-2.24,0c-.61-.2-.35-.68.35-.85A8.39,8.39,0,0,1,170.12,60.2Z"/><path class="cls-4" d="M162.25,100.1c-1.15,0-1.9-1.14-1.45-1.7a2.91,2.91,0,0,1,.82-.86,4.33,4.33,0,0,1,1.23-.2c.07.28.35.66.18.82-.44.42-.77.73-.27,1.25C162.88,99.54,162.38,99.92,162.25,100.1Z"/><path class="cls-4" d="M104.48,92c-.53.74-1,1.42-1.52,2.07a1.37,1.37,0,0,1-.93.09c-.25-.12-.48-.46-.4-.64a9.68,9.68,0,0,1,1.06-1.79,1.15,1.15,0,0,1,.8-.31A3.8,3.8,0,0,1,104.48,92Z"/><path class="cls-4" d="M210.31,91.89c0-.15-.09-.34,0-.43a6.85,6.85,0,0,1,.94-.6,5.18,5.18,0,0,1,.76.71,3.06,3.06,0,0,1,.51,1,4.11,4.11,0,0,1,0,1,4,4,0,0,1-1.29-.3A7.57,7.57,0,0,1,210.09,92Z"/><path class="cls-4" d="M151.34,92.68c0-.38-.05-.76-.08-1.21-.68-.18-1.4-.5-.7-1.11a2.29,2.29,0,0,1,1.45-.43c1.08.41.25.88,0,1.13l1,1.13-1.68.47Z"/><path class="cls-4" d="M209.66,67.86a6,6,0,0,1-.92.12c-.43,0-.86-.1-1.29-.15.1-.31,0-.73.33-.91a9.84,9.84,0,0,1,2.09-.86,1.37,1.37,0,0,1,.93.22.9.9,0,0,1-.21.81,6,6,0,0,1-1,.79Z"/><path class="cls-4" d="M239.56,79.48c1.18.33,2.17.59,3.1.92.18.07.24.52.08.69a1.43,1.43,0,0,1-1,.25,15,15,0,0,1-2.39-.7A.65.65,0,0,1,239,80C239.05,79.77,239.42,79.59,239.56,79.48Z"/><path class="cls-4" d="M196.21,95.64c-.92.65-1.69,1.23-2.54,1.75a1.66,1.66,0,0,1-1-.27c-.13-.1.05-.43.21-.61a10,10,0,0,1,1.24-1.18,1.56,1.56,0,0,1,.91-.34C195.4,95,195.67,95.32,196.21,95.64Z"/><path class="cls-4" d="M138.24,58.63a21.9,21.9,0,0,1-2.3.71c-.15,0-.82-.52-.75-.57.48-.47-.43-1.48,1-1.46.7,0,1.39.6,2.09.93C138.26,58.37,138.25,58.5,138.24,58.63Z"/><path class="cls-4" d="M105.1,68.42a4,4,0,0,1-.65-.82c-.1-.24-.14-.63.07-.76a1.83,1.83,0,0,1,1.16,0,8.88,8.88,0,0,1,1.76.82c.22.13.35.59.27.63a3.73,3.73,0,0,1-1.22.25,11.4,11.4,0,0,1-1.42-.15Z"/><path class="cls-4" d="M122.53,93.23c0-.24-.25-.53-.12-.73a2.16,2.16,0,0,1,1-.81,1.8,1.8,0,0,1,1.08.12,1.7,1.7,0,0,1-.12.93,1.44,1.44,0,0,1-.3.59,9.62,9.62,0,0,1-.91.72l-.94-.67Z"/><path class="cls-4" d="M90.27,88.8l.78.32a10.61,10.61,0,0,1,1.3.5,2.37,2.37,0,0,1,.88.66c.07.11-.33.5-.55.51a4,4,0,0,1-1.13-.27,6.39,6.39,0,0,1-1.19-.4,1.5,1.5,0,0,1-.72-.71C89.59,89.25,90,89,90.27,88.8Z"/><path class="cls-4" d="M200.93,88.53l.67-1,1.09.5c-.36.31-.71.63-1.11,1l-.74,1.14a7,7,0,0,1-1-.43A9.54,9.54,0,0,1,200.93,88.53Z"/><path class="cls-4" d="M188.47,89.14a4.33,4.33,0,0,1-1.11.6,1.18,1.18,0,0,1-.84-.39.53.53,0,0,1,.22-.64,2.41,2.41,0,0,1,1,0c.44,0,.87.12,1.3.19a4.29,4.29,0,0,1,1.27.23c.14.08-.14.49-.23.76a10.77,10.77,0,0,1-1.33-.29C188.62,89.51,188.57,89.28,188.47,89.14Z"/><path class="cls-4" d="M224.8,88.68c-.06.16-.05.29-.13.33-.84.38-1.67.77-2.55,1.1-.09,0-.72-.32-.72-.49s.3-.51.58-.69a5.24,5.24,0,0,1,1.22-.54,2.1,2.1,0,0,1,.94-.16C224.42,88.29,224.61,88.54,224.8,88.68Z"/><path class="cls-4" d="M124.74,60.67a2.18,2.18,0,0,1-.82.44,1.57,1.57,0,0,1-1-.26,3.4,3.4,0,0,1-1-1.1c-.11-.22.15-.53.24-.81.39.06,1.06.07,1.11.19a1.8,1.8,0,0,0,1.09,1C124.54,60.24,124.57,60.43,124.74,60.67Z"/><path class="cls-4" d="M159.28,59.5c.23.2.61.41.7.66s-1.32,1.05-2.31,1c-.37,0-1-.43-1-.64C156.83,59.52,158.22,59.83,159.28,59.5Z"/><path class="cls-4" d="M104.56,75.59c-1,0-1.86-.12-1.34-1,.06-.11-.28-.3-.35-.47a9,9,0,0,1-.31-1l1.1-.11c0,.32.11.64.14,1,0,.08-.08.17-.15.3,1.38.17,1.17.78.88,1.41Z"/><path class="cls-4" d="M126.89,62.54c0,.58-2.59,1.62-3.18,1.37-.22-.09-.48-.32-.47-.47a.79.79,0,0,1,.57-.43,1.72,1.72,0,0,0,1.49-.69,1.6,1.6,0,0,1,1-.21C126.58,62.15,126.76,62.43,126.89,62.54Z"/><path class="cls-4" d="M139.18,61.54c-.69.33-1.33.54-1.71-.16,0-.09-.13-.2-.08-.25s.37-.46.53-.45c1,.06,2,.16,2.94.31.12,0,.22.38.16.55C140.81,62.15,140.23,62.16,139.18,61.54Z"/><path class="cls-4" d="M150.85,51.49c-.38.28-.54.49-.78.55a1.45,1.45,0,0,1-.86-.08,10.39,10.39,0,0,1-1.54-1.1.46.46,0,0,1,0-.56,1.29,1.29,0,0,1,.66-.32C149.16,50.45,150,51,150.85,51.49Z"/><path class="cls-4" d="M189.67,62.77a1.19,1.19,0,0,1-.59-.05,2.06,2.06,0,0,1-.52-.69,3.36,3.36,0,0,1,1.2-.24,5.93,5.93,0,0,1,1.72.74.87.87,0,0,1,.36.75c0,.14-.63.39-.76.34A8.13,8.13,0,0,1,189.67,62.77Z"/><path class="cls-4" d="M165.35,52.17c-.23-.28-.7-.59-.63-.83a3.73,3.73,0,0,1,.93-1.31,1.28,1.28,0,0,1,.87-.19c.3.12.7.45.63.6a9.78,9.78,0,0,1-1.1,1.55C166,52.06,165.75,52.07,165.35,52.17Z"/><path class="cls-4" d="M192,59.63c.06.19.2.37.12.47a7.46,7.46,0,0,1-.77.7c-.29-.15-.81-.31-.8-.46s.32-.52.57-.76a8.51,8.51,0,0,1,.74-.44,3.59,3.59,0,0,1,1-.6c.18,0,.58.32.88.51l-1.18.52A2.93,2.93,0,0,1,192,59.63Z"/><path class="cls-4" d="M175.36,60.8c.42-.11.83-.24,1.26-.33s.81-.17.9-.09a.94.94,0,0,1,.39.76c0,.15-.55.3-.89.36a11.45,11.45,0,0,1-1.56.12,3.31,3.31,0,0,1-1.07-.13c-.16-.07-.24-.43-.11-.54a3.35,3.35,0,0,1,.89-.4A2.35,2.35,0,0,0,175.36,60.8Z"/><path class="cls-4" d="M180.24,51.94c.87-.73,2.08-.29,3.07-.27.71,0,.6.78,0,.95a6.4,6.4,0,0,1-2.36.11c-.3,0-.47-.56-.69-.85Z"/><path class="cls-4" d="M90.42,87.09c.21.17.59.35.64.56a.74.74,0,0,1-.46.63,10.41,10.41,0,0,1-2.06.57,1.3,1.3,0,0,1-.93-.29c-.11-.16.09-.53.33-.65.6-.29,1.3-.49,2-.73A5.06,5.06,0,0,1,90.42,87.09Z"/><path class="cls-4" d="M165.25,60.59c-.58.19-1.28.61-1.7.51A2.39,2.39,0,0,1,162.31,60c-.07-.1.66-.64.83-.6a16.84,16.84,0,0,1,2.14.73Z"/><path class="cls-4" d="M113.16,89.76a3.24,3.24,0,0,1-.5-.57c-.1-.2-.19-.46-.07-.62a1.17,1.17,0,0,1,.8-.19,1.32,1.32,0,0,1,.77.39,2.35,2.35,0,0,1,.47,1,.83.83,0,0,1-.25.71,1.13,1.13,0,0,1-.81.14,3.71,3.71,0,0,1-.76-.72Z"/><path class="cls-4" d="M188.05,59.49c-.33.15-.65.41-.91.39a2,2,0,0,1-1-.44,1.81,1.81,0,0,1-.49-.66,1.6,1.6,0,0,1-.27-.85c0-.12.65-.34.79-.29.33.14.77.43.75.63-.06.4.11.56.63.69C187.76,59,187.83,59.24,188.05,59.49Z"/><path class="cls-4" d="M154,95.16a3.36,3.36,0,0,1-.74.19,4.76,4.76,0,0,1-1.2-.07c-.15,0-.33-.38-.26-.43a4.21,4.21,0,0,1,1-.44,5.47,5.47,0,0,1,1-.13,3.3,3.3,0,0,1,1.15-.06c.22.08.37.51.23.67s-.66.34-1,.51Z"/><path class="cls-4" d="M150.67,57.67a3.07,3.07,0,0,1-1-.34.46.46,0,0,1,.11-.61,2.86,2.86,0,0,1,1.08-.09,5.83,5.83,0,0,1,1.2.1,2,2,0,0,1,1,.43c.12.16-.06.55-.3.67a2.29,2.29,0,0,1-1-.08,9.37,9.37,0,0,1-.9-.28C150.78,57.53,150.73,57.6,150.67,57.67Z"/><path class="cls-4" d="M163.84,57.51l-1.69.14c0-.26,0-.52,0-.78l1.6.07,1.65-.49c.08.29.17.58.26.86l-1.6.19Z"/><path class="cls-4" d="M118.64,91.85c-.32-.19-.73-.32-.76-.48a.9.9,0,0,1,.31-.77,4.38,4.38,0,0,1,1.22-.63,1.55,1.55,0,0,1,.89-.06c.26.14.54.55.44.63C120.13,91,119.42,91.38,118.64,91.85Z"/><path class="cls-4" d="M171.35,99.11c-.43.37-.61.67-.91.74a2,2,0,0,1-1-.24,7.08,7.08,0,0,1-1.1-.69c-.19-.14-.48-.37-.41-.49a1.25,1.25,0,0,1,.7-.43C169.52,98.32,170.36,98.69,171.35,99.11Z"/><path class="cls-4" d="M158.5,51.5a2.06,2.06,0,0,1-.8.38,1.26,1.26,0,0,1-.85-.39,2.12,2.12,0,0,1-.36-1.19c0-.23.41-.45.64-.68.33.15.84.25,1,.45A5.57,5.57,0,0,1,158.5,51.5Z"/><path class="cls-4" d="M226.86,84.19a3,3,0,0,0-.4-.67c-.19-.19-.54-.32-.72-.51a4.55,4.55,0,0,1-.48-.78c.43-.06,1-.28,1.26-.17A5.12,5.12,0,0,1,228,83c.42.39,0,.86-.71.87Z"/><path class="cls-4" d="M177.23,90.83c-1.32,0-2.73-.59-2.56-1a1.91,1.91,0,0,1,.91-.57c.71.37,2.11,0,2.27.9C177.88,90.4,177.4,90.66,177.23,90.83Z"/><path class="cls-4" d="M181,93.17c-.13.22-.14.3-.2.33-.26.13-.65.4-.8.35a16.8,16.8,0,0,1-2.34-.94c-.11-.06.08-.42.17-.63a.47.47,0,0,1,.3-.14C179.13,92.47,180.1,92.83,181,93.17Z"/><path class="cls-4" d="M160.63,94.12a16.41,16.41,0,0,1,2.39.17.78.78,0,0,1,.47.77c0,.15-.64.36-1,.35a6.32,6.32,0,0,1-1.7-.32c-.3-.09-.63-.36-.63-.56S160.58,94.16,160.63,94.12Z"/><path class="cls-4" d="M176.14,51.18c-1.11.43-1.94.77-2.82,1-.08,0-.47-.4-.72-.61.8-.37,1.59-.77,2.44-1.1A6,6,0,0,1,176.14,51.18Z"/><path class="cls-4" d="M145.33,100.14c-.21-.17-.51-.32-.59-.51a.59.59,0,0,1,.15-.63,5.18,5.18,0,0,1,1.42-.75,1.69,1.69,0,0,1,1.05.06.5.5,0,0,1,.07.68,10.44,10.44,0,0,1-1.5,1A3.3,3.3,0,0,1,145.33,100.14Z"/><path class="cls-4" d="M197.13,90.63l-1.3.75a11.49,11.49,0,0,1-1.34-1.48c-.08-.11.51-.43.79-.65Z"/><path class="cls-4" d="M121.21,63.55A17.16,17.16,0,0,1,119.65,65a1.42,1.42,0,0,1-.89-.12.63.63,0,0,1-.14-.71,4,4,0,0,1,1-1,1.39,1.39,0,0,1,.87-.21C120.79,63.08,121,63.35,121.21,63.55Z"/><path class="cls-4" d="M144.62,57.52l-2.86.93c-.14-.24-.5-.63-.38-.71a9.62,9.62,0,0,1,2-1C143.49,56.71,144,57.13,144.62,57.52Z"/><path class="cls-4" d="M135.44,94.28c-.25-.09-.53-.12-.61-.22s-.28-.49-.17-.54a17.9,17.9,0,0,1,2.21-1c.1,0,.56.23.71.4a.35.35,0,0,1-.05.48C136.87,93.69,136.15,94,135.44,94.28Z"/><path class="cls-4" d="M113.92,64.22h0c.65-.25,1.43-.33,1.65.2a2.68,2.68,0,0,1-.15,1.59,1.28,1.28,0,0,1-.8.1,1.11,1.11,0,0,1-.65-.58A6.17,6.17,0,0,1,113.92,64.22Z"/><path class="cls-4" d="M138,91.06c-.19-.15-.58-.35-.7-.6s.46-.43.78-.48c.74-.11,1.52-.11,2.28-.16-.14.33-.14.78-.47,1A7.35,7.35,0,0,1,138,91.06Z"/><path class="cls-4" d="M197.19,64a6.94,6.94,0,0,1-1.18.56c-.42.1-1.84-1-1.73-1.38.06-.21.52-.37.79-.56Z"/><path class="cls-4" d="M97,90.52a5.33,5.33,0,0,1,.69,1.11c.08.29-.11.62-.18.93a4,4,0,0,1-1.29-.34c-1.18-1-1-1.33.81-1.67Z"/><path class="cls-4" d="M172.83,95.32c-.39-.35-.89-.71-.83-.75.56-.44,1.21-.83,1.84-1.23.29.21.89.58.84.62A20.39,20.39,0,0,1,172.83,95.32Z"/><path class="cls-4" d="M143.65,94.61c-.22.27-.28.48-.47.56-1.09.46-1.41-.47-2.2-.61-.08,0,0-.56.1-.84a1.21,1.21,0,0,1,.77-.16C142.48,93.88,143.05,94.25,143.65,94.61Z"/><path class="cls-4" d="M100.63,88.75l-1-.83a21,21,0,0,1,2-.94c.11,0,.59.36.9.56Z"/><path class="cls-4" d="M153.11,60.7a5.51,5.51,0,0,1-1.33.6,7.67,7.67,0,0,1-1.61-1.12,3,3,0,0,1,.81-.59C151.65,59.87,152.24,60.23,153.11,60.7Z"/><path class="cls-4" d="M174.18,57.76c-.62.25-1.17.59-1.32.52a5.75,5.75,0,0,1-1.57-1.05c-.06-.06.57-.45.89-.69Z"/><path class="cls-4" d="M219.32,90.48l-1.9,1.43c-.28-.22-.85-.53-.78-.64A5,5,0,0,1,218,90,7.73,7.73,0,0,1,219.32,90.48Z"/><path class="cls-4" d="M133.88,58.28l-1.43,1.28c-.27-.19-.82-.48-.76-.55.36-.47-.3-1.32,1.05-1.38C133.05,57.62,133.39,58,133.88,58.28Z"/><path class="cls-4" d="M111.21,89.35l-1.33.6a11.57,11.57,0,0,1-1.19-1.25c0-.07.74-.51.78-.49A20.11,20.11,0,0,1,111.21,89.35Z"/><path class="cls-4" d="M212.9,86c1.46.17,1.87.75,1,1.49a1.63,1.63,0,0,1-1.08.28.86.86,0,0,1-.49-.77,3.41,3.41,0,0,1,.62-1Z"/><path class="cls-4" d="M180.28,95.93c.47.42,1,.75.95.88A6.57,6.57,0,0,1,180,97.94c-.29-.22-.88-.5-.82-.67A6.38,6.38,0,0,1,180.28,95.93Z"/><path class="cls-4" d="M127.69,96.53a16.79,16.79,0,0,1-1.82,1A3.16,3.16,0,0,1,125,97a6.4,6.4,0,0,1,1.46-1A5.63,5.63,0,0,1,127.69,96.53Z"/><path class="cls-4" d="M190.91,96.43a7.39,7.39,0,0,1-1.2.61A18.3,18.3,0,0,1,188.12,96c.32-.17.78-.53.93-.48A14.59,14.59,0,0,1,190.91,96.43Z"/><path class="cls-4" d="M136.74,97.74a7.46,7.46,0,0,1-1.3.54,9.27,9.27,0,0,1-1.27-1c.36-.17.89-.54,1.05-.48A7.93,7.93,0,0,1,136.74,97.74Z"/><path class="cls-4" d="M209.08,87.57,208,86.78a5.65,5.65,0,0,1,1.31-.69c.17,0,.94.42.88.54C210.05,86.93,209.6,87.16,209.08,87.57Z"/><path class="cls-4" d="M205,87.33c.51.51.94.79,1,1.12.06.16-.49.41-.76.62a4.74,4.74,0,0,1-1.07-.86C204.1,88.08,204.55,87.79,205,87.33Z"/><path class="cls-4" d="M157.58,56.06c.51.43,1.07.74,1,.87a4.77,4.77,0,0,1-1.07.85c-.3-.18-.89-.39-.84-.53C156.76,56.91,157.14,56.59,157.58,56.06Z"/><path class="cls-4" d="M105.79,88.26c-.45-.39-.93-.62-.92-.83s.51-.45.79-.67c.35.22.87.39,1,.66S106.22,87.86,105.79,88.26Z"/><path class="cls-4" d="M180.24,51.94l.06-.06a3.9,3.9,0,0,1-1.13.18,1.78,1.78,0,0,1-1.06-.48c-.1-.15.29-.56.59-.66a1.76,1.76,0,0,1,1,.32A2.37,2.37,0,0,1,180.24,51.94Z"/><path class="cls-4" d="M190.4,45h.08l-.13,0c-.77.15-1.57.22-1.75-.46,0-.19.51-.66.76-.64C190.27,44,190.53,44.45,190.4,45Z"/><path class="cls-4" d="M130.28,90.4c.47.41.95.64.93.86s-.52.44-.81.65c-.33-.19-.86-.36-.92-.59S129.88,90.84,130.28,90.4Z"/><path class="cls-4" d="M149.1,87.35c-.43-.41-.9-.66-.88-.89s.59-.55.89-.54a1.11,1.11,0,0,1,.83.59C150,86.73,149.5,87,149.1,87.35Z"/><path class="cls-4" d="M264.84,68c-.6.3-1,.62-1.31.61s-.83-.39-.82-.59.54-.54.88-.57S264.28,67.71,264.84,68Z"/><path class="cls-4" d="M102.25,68.74c-.63.28-1,.58-1.34.56s-.88-.4-.84-.58.55-.55.9-.58S101.64,68.44,102.25,68.74Z"/><path class="cls-4" d="M306.33,86.63c-.37-.36-.83-.63-.75-.77s.6-.47.93-.69c.29.23.79.45.8.69S306.8,86.28,306.33,86.63Z"/><path class="cls-4" d="M272.06,73.84c-.6.3-1,.62-1.31.61s-.82-.39-.81-.6.53-.54.87-.56S271.5,73.58,272.06,73.84Z"/><path class="cls-4" d="M186,61.42c.45.41.93.66.89.86s-.56.44-.87.66c-.3-.21-.81-.4-.85-.62S185.54,61.85,186,61.42Z"/><path class="cls-4" d="M273.89,101.8c-.32.14-.68.43-.95.39a3,3,0,0,1-1-.53c.34-.23.64-.58,1-.63a3.39,3.39,0,0,1,1.25.37Z"/><path class="cls-4" d="M95.44,78.46c-.36-.4-.79-.67-.73-.89a1.17,1.17,0,0,1,.9-.54c.3,0,.82.38.81.59S95.92,78.08,95.44,78.46Z"/><path class="cls-4" d="M294.34,85.87a4.57,4.57,0,0,1-1.35.5c-.28,0-.84-.41-.79-.49a1.55,1.55,0,0,1,.92-.67C293.37,85.17,293.78,85.55,294.34,85.87Z"/><path class="cls-4" d="M199.18,59.11c.39.44.84.71.78.91s-.61.4-1,.6c-.28-.22-.76-.44-.78-.67S198.71,59.51,199.18,59.11Z"/><path class="cls-4" d="M291.92,62.82c-.61.3-1,.62-1.28.61s-.65-.35-1-.54c.3-.22.57-.57.92-.62S291.29,62.54,291.92,62.82Z"/><path class="cls-4" d="M196.41,82.22c-.61.29-1,.62-1.29.59s-.84-.37-.88-.6.52-.54.86-.57S195.79,81.93,196.41,82.22Z"/><path class="cls-4" d="M274.54,54.4a4.63,4.63,0,0,1-1.34.5c-.28,0-.85-.4-.79-.49a1.54,1.54,0,0,1,.91-.67C273.56,53.7,274,54.08,274.54,54.4Z"/><path class="cls-4" d="M121.24,71.57c-.43-.42-.89-.67-.85-.89s.54-.42.84-.63c.31.21.82.4.88.64S121.68,71.15,121.24,71.57Z"/><path class="cls-4" d="M219.09,85.22c-.6.3-1,.62-1.31.61s-.82-.39-.81-.6.53-.54.87-.56S218.53,85,219.09,85.22Z"/><path class="cls-4" d="M285.78,88.8c.43.42.89.67.86.88s-.54.43-.84.63c-.31-.21-.82-.4-.88-.64S285.34,89.21,285.78,88.8Z"/><path class="cls-4" d="M199.29,46.31c.47.4,1,.63.94.84s-.5.45-.78.67c-.33-.2-.86-.36-.94-.6S198.89,46.74,199.29,46.31Z"/><path class="cls-4" d="M273.85,64.41c-.47-.38-1-.61-1-.84s.53-.42.83-.63c.31.2.84.37.89.6S274.21,64,273.85,64.41Z"/><path class="cls-4" d="M258.38,75.67c-.32.14-.69.43-.95.39a3.19,3.19,0,0,1-1-.54c.34-.22.65-.58,1-.63a3.84,3.84,0,0,1,1.24.37C258.6,75.4,258.49,75.53,258.38,75.67Z"/><path class="cls-4" d="M199.24,95.06c.47.39,1,.61,1,.84s-.52.42-.81.64c-.32-.2-.85-.37-.91-.59S198.88,95.47,199.24,95.06Z"/><path class="cls-4" d="M228,69.75c-.44-.36-1-.6-.93-.8s.53-.45.82-.67c.32.23.77.43.91.71S228.38,69.39,228,69.75Z"/><path class="cls-4" d="M221.87,93.93c-.46-.36-1-.58-1-.79s.52-.46.81-.68c.33.22.78.42.92.69S222.25,93.56,221.87,93.93Z"/><path class="cls-4" d="M239,56.52a4.53,4.53,0,0,1-1.32.51c-.28,0-.86-.39-.81-.47a1.55,1.55,0,0,1,.9-.69C238,55.83,238.39,56.2,239,56.52Z"/><path class="cls-4" d="M263.36,73.52c-.46-.4-.94-.64-.92-.85s.51-.44.79-.66c.33.2.85.37.93.61S263.77,73.09,263.36,73.52Z"/><path class="cls-4" d="M192.15,83.18c-.55.33-.94.72-1.19.68a1.57,1.57,0,0,1-1-.64c-.06-.09.49-.51.76-.51A5,5,0,0,1,192.15,83.18Z"/><path class="cls-4" d="M148,95.39c-.44-.42-.91-.66-.88-.87s.53-.43.82-.64c.32.2.83.39.9.62S148.44,95,148,95.39Z"/><path class="cls-4" d="M249.48,95c-.49-.34-1-.55-1-.76s.49-.47.77-.71c.33.22.79.41,1,.68S249.83,94.62,249.48,95Z"/><path class="cls-4" d="M225.78,67.21c-.59.23-1,.52-1.31.49s-.82-.4-.81-.61.57-.56.87-.55S225.21,66.89,225.78,67.21Z"/><path class="cls-4" d="M134.7,61.07c.4.43.84.69.79.91s-.57.4-.89.6c-.29-.22-.79-.43-.83-.67S134.23,61.47,134.7,61.07Z"/><path class="cls-4" d="M88.85,82.4c.45.41.93.66.89.86s-.56.44-.86.65c-.31-.2-.82-.39-.86-.61S88.43,82.83,88.85,82.4Z"/><path class="cls-4" d="M244.05,73.14c-.63.31-1,.63-1.32.6a1.2,1.2,0,0,1-.87-.62c-.05-.15.52-.53.83-.54S243.4,72.86,244.05,73.14Z"/><path class="cls-4" d="M250.89,73.22c-.6.24-1,.54-1.35.51a1,1,0,0,1-.73-.65c0-.17.58-.53.84-.5S250.34,72.92,250.89,73.22Z"/><path class="cls-4" d="M283.35,74.39c-.38-.44-.77-.7-.76-.94s.61-.55.83-.51.85.37.87.58S283.81,74,283.35,74.39Z"/><path class="cls-4" d="M136.41,72.83c.34.43.71.69.68.93s-.65.56-.82.52c-.38-.1-.87-.39-.88-.62S135.9,73.21,136.41,72.83Z"/><path class="cls-4" d="M174,74.75c-.44-.37-.91-.6-.87-.77s.48-.49.75-.73c.32.2.85.37.9.6S174.42,74.33,174,74.75Z"/><path class="cls-4" d="M253.79,73.93c-.65.27-1.06.56-1.38.52a1.07,1.07,0,0,1-.79-.63c0-.16.56-.52.84-.51S253.17,73.62,253.79,73.93Z"/><path class="cls-4" d="M140.78,73.39c.36.38.77.62.76.86s-.5.4-.77.6c-.33-.24-.79-.45-.93-.73C139.77,74,140.32,73.73,140.78,73.39Z"/><path class="cls-4" d="M145.3,73.72c.42.37.92.62.88.82s-.55.44-.86.66c-.3-.22-.77-.42-.85-.67S144.88,74.1,145.3,73.72Z"/><path class="cls-4" d="M150,73.9c.5.38,1,.61,1,.82s-.5.52-.88.62a1.16,1.16,0,0,1-.82-.5C149.25,74.6,149.63,74.33,150,73.9Z"/><path class="cls-4" d="M89.73,74.77c.4.41.86.67.82.89s-.57.41-.89.61c-.27-.24-.7-.45-.77-.71S89.3,75.15,89.73,74.77Z"/><path class="cls-4" d="M104.53,75.62a4.54,4.54,0,0,1,1.16.32c.21.13.37.51.23.64a1.65,1.65,0,0,1-1,.34.87.87,0,0,1-.59-.59c0-.23.16-.49.25-.74Z"/><path class="cls-4" d="M292.08,77.65c-.33.13-.69.39-1,.36a2.66,2.66,0,0,1-1-.49c.34-.23.64-.61,1-.67a3.8,3.8,0,0,1,1.3.34Z"/><path class="cls-4" d="M206.47,78.54a4.25,4.25,0,0,1-1.36.53c-.29,0-.84-.4-.79-.53a1.24,1.24,0,0,1,.88-.62C205.49,77.89,205.87,78.23,206.47,78.54Z"/><path class="cls-4" d="M234.73,80.07c-.45-.42-.94-.68-.9-.89s.59-.49,1-.55c.18,0,.74.36.74.57S235.13,79.67,234.73,80.07Z"/><path class="cls-4" d="M218.21,79.41c.49.39,1,.63,1,.84s-.53.52-.91.6c-.17,0-.78-.32-.8-.52S217.86,79.83,218.21,79.41Z"/><path class="cls-4" d="M96.31,80.1c.52.39,1,.62,1,.84s-.49.52-.86.62c-.17,0-.8-.3-.83-.49S96,80.55,96.31,80.1Z"/><path class="cls-4" d="M287,81.14c-.61.3-1,.62-1.29.6a1.17,1.17,0,0,1-.88-.58c0-.16.48-.56.77-.56A4.75,4.75,0,0,1,287,81.14Z"/><path class="cls-4" d="M88,82.21c-.38-.41-.79-.66-.78-.9s.59-.58.77-.55c.38.07.9.35.94.57S88.45,81.8,88,82.21Z"/><path class="cls-4" d="M310.63,82.4c-.42-.41-.88-.67-.84-.88s.56-.42.87-.62c.28.23.71.44.79.7S311.05,82,310.63,82.4Z"/><path class="cls-4" d="M187.53,84.07c-.57.33-.91.69-1.24.68a1.22,1.22,0,0,1-.89-.6c-.06-.13.47-.53.77-.55A4.55,4.55,0,0,1,187.53,84.07Z"/><path class="cls-4" d="M223.17,37.61c.43.4.9.65.87.87s-.55.42-.85.63c-.29-.23-.72-.43-.81-.69S222.77,38,223.17,37.61Z"/><path class="cls-4" d="M128.08,83.68c.4.37.86.61.8.78s-.53.46-.82.69c-.32-.22-.84-.41-.89-.65S127.64,84.05,128.08,83.68Z"/><path class="cls-4" d="M280,84.7c-.61.3-1,.62-1.29.6a1.16,1.16,0,0,1-.87-.58c0-.17.48-.56.76-.57A4.38,4.38,0,0,1,280,84.7Z"/><path class="cls-4" d="M134.24,85.24c-.61.29-1,.62-1.31.58a1.22,1.22,0,0,1-.85-.64c0-.13.54-.51.83-.51S133.62,85,134.24,85.24Z"/><path class="cls-4" d="M212.93,86a2.35,2.35,0,0,1-.75-.1,9,9,0,0,1-1-.79l1-.44a8.53,8.53,0,0,1,.64.88c.07.14,0,.32,0,.48Z"/><path class="cls-4" d="M139.45,85.73c-.62.32-1,.66-1.29.63a1.23,1.23,0,0,1-.9-.6c-.06-.14.49-.53.8-.55A4.45,4.45,0,0,1,139.45,85.73Z"/><path class="cls-4" d="M96.91,86c-.64.28-1.07.61-1.34.56a1.15,1.15,0,0,1-.79-.67c0-.14.54-.51.8-.49A4.54,4.54,0,0,1,96.91,86Z"/><path class="cls-4" d="M167.37,86.29c-.6.31-1,.63-1.28.61a1.2,1.2,0,0,1-.88-.58c0-.17.48-.56.76-.57A4.56,4.56,0,0,1,167.37,86.29Z"/><path class="cls-4" d="M271.54,88.16a4.65,4.65,0,0,1-1.32.52c-.3,0-.87-.39-.82-.52a1.19,1.19,0,0,1,.84-.64C270.56,87.5,270.94,87.84,271.54,88.16Z"/><path class="cls-4" d="M243.88,88.12c.37.41.78.66.76.9s-.59.58-.78.54c-.38-.07-.9-.35-.93-.58S243.41,88.52,243.88,88.12Z"/><path class="cls-4" d="M126.58,89.63c-.08.17-.08.41-.25.48a2.34,2.34,0,0,1-1.16.26c-.22,0-.51-.6-.4-.66a3.28,3.28,0,0,1,1.25-.37c.15,0,.38.19.57.29Z"/><path class="cls-4" d="M300.59,89.18c.37.41.78.66.77.9s-.6.58-.78.55c-.38-.08-.91-.35-.94-.58S300.12,89.59,300.59,89.18Z"/><path class="cls-4" d="M106.75,91c-.59.33-1,.68-1.28.66a1.21,1.21,0,0,1-.86-.63c0-.13.5-.52.8-.53A4.54,4.54,0,0,1,106.75,91Z"/><path class="cls-4" d="M201.27,92.56c-.45-.43-.94-.69-.89-.89s.58-.43.9-.64c.29.2.8.39.82.6S201.69,92.11,201.27,92.56Z"/><path class="cls-4" d="M114.11,91.46c.4.45.84.72.78.93s-.6.4-.92.59c-.26-.19-.74-.4-.73-.58S113.67,91.91,114.11,91.46Z"/><path class="cls-4" d="M205.07,94a2.33,2.33,0,0,1-.63.24c-.45,0-.9,0-1.35-.07.09-.29.17-.57.26-.85a8.53,8.53,0,0,1,1.26.27c.2.07.28.28.42.43Z"/><path class="cls-4" d="M294.23,94.13a4.2,4.2,0,0,1-1.29.59c-.26,0-.84-.37-.8-.52a1.07,1.07,0,0,1,.79-.64C293.27,93.55,293.66,93.86,294.23,94.13Z"/><path class="cls-4" d="M167.07,95.24c-.17-.27-.55-.56-.48-.79s.57-.5.88-.75c.29.19.8.36.82.56s-.37.51-.58.76Z"/><path class="cls-4" d="M205,94a2.27,2.27,0,0,1,.86-.08,5,5,0,0,1,1,.68l-1,.53a6.88,6.88,0,0,1-.73-.68c-.1-.13,0-.31,0-.47Z"/><path class="cls-4" d="M113.62,95.72c-.42-.43-.88-.69-.84-.91s.56-.5.93-.54.78.35.77.54S114,95.3,113.62,95.72Z"/><path class="cls-4" d="M197.29,94c.42.4.84.63.87.88s-.52.58-.71.55c-.39-.05-.95-.3-1-.51S196.88,94.42,197.29,94Z"/><path class="cls-4" d="M171.48,96.68c.39.36.82.59.83.83s-.47.42-.73.62c-.35-.22-.81-.41-1-.69C170.53,97.32,171.05,97,171.48,96.68Z"/><path class="cls-4" d="M165.1,98.75c-.37-.44-.77-.7-.75-1s.61-.54.83-.51.85.37.86.59S165.57,98.34,165.1,98.75Z"/><path class="cls-4" d="M186,98.78c-.45-.43-.94-.69-.88-.89s.57-.42.89-.63c.29.2.8.39.82.6S186.45,98.34,186,98.78Z"/><path class="cls-4" d="M177,98.43c-.26.08-.6.27-.78.22a1.88,1.88,0,0,1-1-.56c-.08-.14.35-.56.63-.6a1.78,1.78,0,0,1,1,.36c.16.12.07.39.09.6Z"/><path class="cls-4" d="M226,45.91c-.39-.41-.79-.66-.8-.92s.57-.54.78-.5c.37,0,.9.34.92.55S226.42,45.52,226,45.91Z"/><path class="cls-4" d="M129.6,99.31c-.42-.45-.82-.7-.84-1s.47-.38.74-.57c.32.19.85.37.9.59S130,98.86,129.6,99.31Z"/><path class="cls-4" d="M254.92,99c.4.37.85.6.81.79s-.5.45-.78.68c-.33-.21-.88-.39-.92-.62S254.49,99.36,254.92,99Z"/><path class="cls-4" d="M211.74,99.7c.46.38,1,.61,1,.84s-.51.52-.87.58-.83-.3-.83-.48S211.38,100.13,211.74,99.7Z"/><path class="cls-4" d="M196.92,101.23c.46.43.94.69.89.89s-.57.42-.89.63c-.29-.19-.8-.38-.82-.59S196.5,101.67,196.92,101.23Z"/><path class="cls-4" d="M182.76,103.08c-.51.32-.83.69-1.15.69s-.66-.36-1-.57c.31-.2.57-.52.94-.58S182.22,102.86,182.76,103.08Z"/><path class="cls-4" d="M151.22,103.92c-.64.29-1.05.62-1.33.58a1.18,1.18,0,0,1-.8-.66c-.05-.14.52-.52.78-.51A4.74,4.74,0,0,1,151.22,103.92Z"/><path class="cls-4" d="M216.44,106.67c-.49.3-.81.65-1.16.66s-.86-.34-.88-.55.48-.54.83-.6S215.91,106.44,216.44,106.67Z"/><path class="cls-4" d="M208.31,48.33c-.65.26-1.06.56-1.37.52a1.08,1.08,0,0,1-.8-.63c0-.16.55-.52.84-.52S207.68,48,208.31,48.33Z"/><path class="cls-4" d="M150.78,110.23c-.55.31-.9.66-1.24.65s-.62-.39-.92-.6a3,3,0,0,1,1-.55C149.88,109.69,150.25,110,150.78,110.23Z"/><path class="cls-4" d="M238.81,47.78c.44.39.93.64.91.87s-.54.5-.9.56-.81-.33-.8-.5S238.42,48.2,238.81,47.78Z"/><path class="cls-4" d="M218.61,111.57c.44.4.91.65.88.86s-.54.43-.84.64c-.29-.22-.73-.43-.81-.69S218.21,112,218.61,111.57Z"/><path class="cls-4" d="M98.66,113.41a4.78,4.78,0,0,1-1.38.51c-.29,0-.82-.41-.77-.55a1.3,1.3,0,0,1,.9-.61C97.7,112.74,98.07,113.09,98.66,113.41Z"/><path class="cls-4" d="M132.7,115.78c-.61.31-1,.65-1.31.62a1.17,1.17,0,0,1-.83-.65c0-.13.53-.5.83-.5S132.11,115.52,132.7,115.78Z"/><path class="cls-4" d="M167,116.87c-.41-.38-.9-.63-.86-.83s.57-.44.88-.65c.3.23.76.43.84.68S167.43,116.49,167,116.87Z"/><path class="cls-4" d="M171.94,50.72c-.61.29-1,.63-1.32.6a1.17,1.17,0,0,1-.82-.65c-.05-.13.53-.5.81-.5A4.44,4.44,0,0,1,171.94,50.72Z"/><path class="cls-4" d="M244.34,49.91c.37.41.79.68.75.92s-.58.36-.91.55c-.26-.24-.69-.46-.72-.71S243.91,50.26,244.34,49.91Z"/><path class="cls-4" d="M234,54.48c-.6.29-1,.59-1.3.59s-.9-.36-.85-.49a1.17,1.17,0,0,1,.82-.66C233,53.87,233.4,54.2,234,54.48Z"/><path class="cls-4" d="M190.43,55.79c-.59.25-1,.55-1.34.52a1,1,0,0,1-.74-.66c0-.16.58-.52.83-.5A4.21,4.21,0,0,1,190.43,55.79Z"/><path class="cls-4" d="M147.15,58.42c-.41-.44-.83-.7-.81-.93s.53-.4.83-.59c.32.21.83.4.89.64S147.61,58,147.15,58.42Z"/><path class="cls-4" d="M243.18,58.67a4.28,4.28,0,0,1-1.34.49c-.3,0-.85-.39-.8-.53a1.27,1.27,0,0,1,.87-.62C242.23,58,242.59,58.34,243.18,58.67Z"/><path class="cls-4" d="M221.46,57.91c.43.41.91.67.88.9s-.57.48-1,.53c-.2,0-.77-.35-.76-.52S221.06,58.32,221.46,57.91Z"/><path class="cls-4" d="M117.47,60.46c-.51.3-.84.64-1.19.65s-.85-.36-.87-.57.51-.53.86-.58S116.93,60.22,117.47,60.46Z"/><path class="cls-4" d="M257.54,61.44c-.37-.47-.78-.76-.71-1s.63-.37,1-.55c.24.2.69.43.66.62S258,61,257.54,61.44Z"/><path class="cls-4" d="M246.66,60.78c-.58.33-.92.69-1.25.68a1.25,1.25,0,0,1-.89-.6c-.06-.13.47-.53.77-.55A4.68,4.68,0,0,1,246.66,60.78Z"/><path class="cls-4" d="M198.64,61.27c.51.39,1.05.61,1,.83s-.5.52-.88.62c-.17,0-.79-.31-.82-.51S198.31,61.7,198.64,61.27Z"/><path class="cls-4" d="M116.24,61.78c.37.42.78.67.71.85s-.54.44-.84.66c-.29-.22-.79-.43-.8-.66S115.77,62.18,116.24,61.78Z"/><path class="cls-4" d="M129.25,61.81c.42.37.92.62.88.82s-.55.44-.86.66c-.3-.22-.77-.42-.85-.68S128.83,62.19,129.25,61.81Z"/><path class="cls-4" d="M248,62.33c.45.42.94.68.9.9s-.58.48-1,.55c-.18,0-.74-.36-.74-.56S247.6,62.74,248,62.33Z"/><path class="cls-4" d="M259.94,63.22c-.63.27-1.06.59-1.36.55a1.1,1.1,0,0,1-.76-.69c0-.13.57-.48.86-.46S259.37,62.93,259.94,63.22Z"/><path class="cls-4" d="M267,65.1c-.61.31-1,.66-1.31.63a1.19,1.19,0,0,1-.84-.64c0-.14.53-.51.83-.52A4.74,4.74,0,0,1,267,65.1Z"/><path class="cls-4" d="M260,65.88c-.62.28-1,.61-1.32.56a1.24,1.24,0,0,1-.84-.65c0-.13.55-.5.85-.5S259.36,65.59,260,65.88Z"/><path class="cls-4" d="M236.71,66.49c.61-.33.93-.63,1.3-.65s.88.34.85.5a1,1,0,0,1-.76.65C237.79,67,237.36,66.74,236.71,66.49Z"/><path class="cls-4" d="M215.52,68.12c-.54.23-.94.52-1.17.47s-.86-.39-.86-.6.57-.57.88-.56S215,67.79,215.52,68.12Z"/><path class="cls-4" d="M241.61,68.62c-.52.25-.9.54-1.16.5a2.74,2.74,0,0,1-1-.55c.32-.21.62-.58.95-.59S241.09,68.32,241.61,68.62Z"/><path class="cls-4" d="M257.52,69.4c-.34-.43-.72-.69-.69-.93s.64-.56.81-.52c.38.1.87.39.89.62S258,69,257.52,69.4Z"/><path class="cls-4" d="M229.78,40.14c.59-.3.92-.6,1.3-.63s.85.34.83.5a1,1,0,0,1-.74.66C230.84,40.7,230.42,40.4,229.78,40.14Z"/><path class="cls-4" d="M195.69,70.1c-.39-.38-.84-.62-.79-.81s.51-.44.8-.66c.32.21.87.4.9.63S196.13,69.72,195.69,70.1Z"/><path class="cls-4" d="M219.24,69.6c-.61.28-1,.57-1.34.58s-.82-.36-.79-.52a1.08,1.08,0,0,1,.79-.63C218.24,69,218.63,69.32,219.24,69.6Z"/><path class="cls-4" d="M287.21,69.11c.42.39.92.64.88.86s-.59.41-.92.61c-.28-.23-.72-.44-.78-.68S286.81,69.48,287.21,69.11Z"/><path class="cls-4" d="M214.12,71.22c-.46-.42-1-.68-.9-.88s.58-.43.9-.64c.29.2.8.39.82.6S214.54,70.78,214.12,71.22Z"/><path class="cls-4" d="M250.55,71.51c-.37-.42-.76-.68-.76-.94s.6-.52.82-.48.87.36.88.57S251,71.13,250.55,71.51Z"/><path class="cls-4" d="M277.06,70.71c-.67.26-1.06.54-1.42.52s-.8-.41-.74-.57a1.18,1.18,0,0,1,.89-.57C276.1,70.07,276.46,70.4,277.06,70.71Z"/><path class="cls-4" d="M128.18,73.32c-.44-.41-.92-.66-.9-.89s.54-.51.91-.56c.21,0,.78.34.79.53S128.57,72.9,128.18,73.32Z"/><path class="cls-4" d="M97.44,72.6A4.81,4.81,0,0,1,98.81,72c.26,0,.8.38.76.52a1.2,1.2,0,0,1-.82.65C98.46,73.24,98.06,72.91,97.44,72.6Z"/><path class="cls-4" d="M236.05,77.05c-.51.29-1,.65-1.09.61a4.35,4.35,0,0,1-1-.66c.3-.18.61-.51.9-.51S235.53,76.79,236.05,77.05Z"/><path class="cls-4" d="M183.18,58.09c0-.2-.13-.41-.05-.58a4.86,4.86,0,0,1,.61-.78l1.07.4a5,5,0,0,1-.79.8,2.72,2.72,0,0,1-.88.13Z"/><path class="cls-4" d="M306.47,73.84c-.54.29-.93.64-1.2.6s-.6-.41-.88-.63a3,3,0,0,1,1-.52C305.64,73.26,306,73.57,306.47,73.84Z"/><path class="cls-4" d="M183.81,93.82c-.48.26-.83.58-1.07.55a3.19,3.19,0,0,1-1-.52c.28-.23.54-.6.86-.63S183.28,93.54,183.81,93.82Z"/><path class="cls-4" d="M151.31,92.66c.07.19.27.41.19.57a4.18,4.18,0,0,1-.73.81c-.3-.18-.84-.35-.84-.54s.38-.49.68-.68c.15-.11.48-.09.73-.14Z"/><path class="cls-4" d="M238.28,84.23c.42.35.9.57.86.75s-.49.46-.76.7c-.33-.2-.89-.37-.94-.59S237.88,84.62,238.28,84.23Z"/><path class="cls-4" d="M278.22,93.29a4.62,4.62,0,0,1-1.28.55c-.27,0-.82-.36-.78-.5a1.08,1.08,0,0,1,.76-.66C277.23,92.65,277.62,93,278.22,93.29Z"/><path class="cls-4" d="M260.18,71.71c-.4-.42-.86-.7-.8-.91s.6-.47,1-.53c.18,0,.73.38.71.57S260.62,71.31,260.18,71.71Z"/><path class="cls-4" d="M274.63,56.44c.39.44.79.69.78.93s-.5.39-.78.59c-.31-.21-.82-.4-.86-.62S274.2,56.87,274.63,56.44Z"/><path class="cls-4" d="M206.39,92.05c.35.42.72.67.72.93s-.6.54-.77.5c-.36-.08-.86-.37-.87-.58S205.94,92.44,206.39,92.05Z"/><path class="cls-4" d="M313.07,76.35c.43.43.85.66.86.9s-.46.41-.71.61c-.33-.19-.86-.35-.92-.58S312.68,76.8,313.07,76.35Z"/><path class="cls-4" d="M255.52,57c.47.41,1,.65.94.87s-.53.42-.82.63c-.29-.19-.79-.36-.81-.56S255.17,57.43,255.52,57Z"/><path class="cls-4" d="M254.25,85.47c.45.36,1,.63.9.76s-.6.47-.93.71c-.26-.21-.73-.41-.73-.61S253.89,85.85,254.25,85.47Z"/><path class="cls-4" d="M171.52,86.86c-.37-.46-.79-.73-.73-.94s.6-.39.93-.57c.25.21.71.42.69.62S172,86.44,171.52,86.86Z"/><path class="cls-4" d="M178.51,74.17c-.46-.34-1-.59-.95-.72.13-.28.57-.49.89-.73.27.19.76.38.77.58S178.85,73.79,178.51,74.17Z"/><path class="cls-4" d="M142.34,91.88c-.51.25-.88.56-1.14.53s-.86-.36-.86-.57.52-.59.81-.58S141.83,91.59,142.34,91.88Z"/><path class="cls-4" d="M196.39,61.1c-.49.27-.83.59-1.08.56a3,3,0,0,1-1-.53c.29-.22.55-.59.87-.62S195.86,60.82,196.39,61.1Z"/><path class="cls-4" d="M100.92,70.13c.44.42.86.65.87.89s-.46.42-.72.62c-.32-.19-.85-.36-.91-.58S100.53,70.58,100.92,70.13Z"/><path class="cls-4" d="M109.28,79.91c-.42-.42-.89-.69-.83-.88s.6-.41.93-.61c.28.21.76.41.76.62S109.71,79.5,109.28,79.91Z"/><path class="cls-4" d="M117.83,88.61c-.48.28-.81.62-1.07.6a3.11,3.11,0,0,1-1.06-.5c.29-.23.53-.61.86-.65S117.28,88.36,117.83,88.61Z"/><path class="cls-4" d="M212.2,42c-.61.29-.95.58-1.31.59s-.82-.36-.79-.52a1.08,1.08,0,0,1,.79-.64C211.18,41.43,211.58,41.75,212.2,42Z"/><path class="cls-4" d="M161.61,86.53c-.49.26-.83.58-1.08.55a3.3,3.3,0,0,1-1-.52c.29-.23.55-.6.87-.63S161.08,86.25,161.61,86.53Z"/><path class="cls-4" d="M261.45,91.49c-.34.14-.75.43-1,.38s-.8-.4-.79-.61.56-.53.89-.54a4.26,4.26,0,0,1,1.28.36Z"/><path class="cls-4" d="M219.11,42.54c.17.26.53.56.45.79s-.54.51-.83.75c-.29-.18-.8-.35-.82-.54s.34-.51.53-.76Z"/><path class="cls-4" d="M290.82,66.42c-.5.27-.85.59-1.11.56s-.88-.34-.9-.54.48-.6.77-.61S290.28,66.14,290.82,66.42Z"/><path class="cls-4" d="M216.34,72.81c-.45-.43-.91-.67-.88-.89s.53-.42.83-.62c.28.18.78.37.8.56S216.72,72.36,216.34,72.81Z"/><path class="cls-4" d="M246.26,44a4.55,4.55,0,0,1-1.35.55c-.29,0-.81-.38-.78-.55a1.09,1.09,0,0,1,.83-.59C245.29,43.42,245.66,43.73,246.26,44Z"/><path class="cls-4" d="M295.08,74.55c-.44-.35-.93-.57-.89-.74s.48-.48.75-.72c.33.2.85.37.91.6S295.46,74.16,295.08,74.55Z"/><path class="cls-4" d="M111.31,91.31c-.49.27-.84.59-1.1.56s-.89-.33-.9-.53.47-.61.76-.62S110.77,91,111.31,91.31Z"/><path class="cls-4" d="M271.54,65.72c.39.43.82.71.77.92s-.58.47-.95.53c-.18,0-.72-.38-.7-.56S271.11,66.13,271.54,65.72Z"/><path class="cls-4" d="M184.41,45.58c-.51.3-.95.65-1.08.61a4.35,4.35,0,0,1-1-.66c.3-.18.61-.51.91-.51S183.9,45.32,184.41,45.58Z"/><path class="cls-4" d="M230.76,70c.39.45.79.7.77.94s-.5.38-.77.58c-.31-.2-.83-.39-.86-.61S230.32,70.38,230.76,70Z"/><path class="cls-4" d="M205.1,89.71c.42.39.9.63.87.84s-.54.43-.85.64c-.29-.23-.73-.43-.81-.68S204.7,90.1,205.1,89.71Z"/><path class="cls-4" d="M140.77,59.3c-.62.29-1,.57-1.32.57s-.81-.37-.77-.53a1.1,1.1,0,0,1,.8-.63C139.77,58.68,140.16,59,140.77,59.3Z"/><path class="cls-4" d="M255.83,47.72c.43.43.85.67.85.91s-.46.41-.72.61c-.32-.19-.85-.36-.91-.59S255.43,48.17,255.83,47.72Z"/><path class="cls-4" d="M266.74,60.15c-.45-.34-.93-.56-.9-.73s.47-.49.73-.73c.33.19.86.36.93.58S267.11,59.75,266.74,60.15Z"/><path class="cls-4" d="M97.23,75.81c-.48.28-.8.61-1.07.6a3.29,3.29,0,0,1-1.06-.5c.28-.23.53-.61.86-.65S96.68,75.55,97.23,75.81Z"/><path class="cls-4" d="M271.62,81.12c-.43-.4-.9-.65-.88-.88s.54-.47.91-.55c.16,0,.74.34.74.52S272,80.71,271.62,81.12Z"/><path class="cls-4" d="M125.79,71.55c-.61.3-1,.59-1.31.59s-.82-.36-.79-.52a1.1,1.1,0,0,1,.79-.64C124.77,70.94,125.17,71.26,125.79,71.55Z"/><path class="cls-4" d="M113.23,66.94l-.1.08c.37,0,.87-.15,1.09,0a.84.84,0,0,1,.42.74c0,.12-.57.38-.75.33a1.65,1.65,0,0,1-.85-.54C112.94,67.38,113.15,67.14,113.23,66.94Z"/><path class="cls-4" d="M227.84,76.65c-.59.32-1,.67-1.23.64a1.26,1.26,0,0,1-.88-.6c-.06-.14.45-.54.74-.55S227.19,76.39,227.84,76.65Z"/><path class="cls-4" d="M219.41,77.77c-.46-.42-.93-.67-.9-.89s.56-.41.87-.61c.27.2.76.38.77.58S219.78,77.34,219.41,77.77Z"/><path class="cls-4" d="M87.92,78.54c.4.4.86.66.82.88s-.59.39-.92.58c-.26-.23-.68-.45-.73-.69S87.51,78.89,87.92,78.54Z"/><path class="cls-4" d="M94.87,65.36c.37.41.82.69.75.89s-.61.39-1,.59c-.25-.25-.64-.48-.69-.74S94.43,65.71,94.87,65.36Z"/><path class="cls-4" d="M314,68c0,.17.08.35,0,.5a6.74,6.74,0,0,1-.57.86l-1.05-.52a7.62,7.62,0,0,1,.89-.7A2.77,2.77,0,0,1,314,68Z"/><path class="cls-4" d="M181.9,71.91c.43.44.88.69.84.91s-.56.4-.87.6c-.27-.19-.75-.39-.76-.59S181.5,72.35,181.9,71.91Z"/><path class="cls-4" d="M224.77,72.92c-.59.32-.9.62-1.26.64s-.85-.33-.83-.48a1,1,0,0,1,.74-.67C223.7,72.35,224.13,72.66,224.77,72.92Z"/><path class="cls-4" d="M299.92,81.9c-.49.27-.83.59-1.08.56a3,3,0,0,1-1-.53c.29-.22.55-.59.87-.62S299.39,81.63,299.92,81.9Z"/><path class="cls-4" d="M180.62,62.48c-.41-.4-.89-.66-.84-.86s.57-.42.89-.63c.27.23.69.44.77.7S181,62.1,180.62,62.48Z"/><path class="cls-4" d="M246.86,82.33A3.16,3.16,0,0,1,248,82a3.75,3.75,0,0,1,1.1.58c-.28.2-.54.56-.83.57a3.24,3.24,0,0,1-1.11-.42Z"/><path class="cls-4" d="M132,60.89c.4.44.8.68.79.92s-.49.39-.77.59c-.31-.2-.83-.39-.86-.6S131.6,61.32,132,60.89Z"/><path class="cls-4" d="M263.56,84.17c-.4-.39-.84-.63-.78-.8s.5-.46.78-.69c.31.21.82.4.87.64S264,83.78,263.56,84.17Z"/><path class="cls-4" d="M123.49,84.54c-.44-.42-.89-.67-.86-.89s.54-.41.84-.62c.28.19.78.38.79.58S123.88,84.1,123.49,84.54Z"/><path class="cls-4" d="M216.07,83.68c-.6.27-1,.58-1.29.54a1,1,0,0,1-.75-.64c0-.17.53-.53.8-.51S215.51,83.38,216.07,83.68Z"/><path class="cls-4" d="M315.28,73.16a3.86,3.86,0,0,1-1.24.39c-.34,0-.64-.37-1-.57.3-.21.56-.52.92-.58s.64.24,1,.38Z"/><path class="cls-4" d="M281.73,65c-.42-.43-.83-.66-.84-.9s.47-.41.73-.61c.32.19.86.36.91.57S282.14,64.54,281.73,65Z"/><path class="cls-4" d="M133.37,73.34a3.94,3.94,0,0,1-1.24.39c-.34,0-.64-.37-.95-.57.3-.21.55-.52.91-.59s.64.25,1,.39Z"/><path class="cls-4" d="M93.51,95c-.39-.39-.82-.64-.75-.81s.54-.45.83-.67c.3.22.79.43.82.66S94,94.64,93.51,95Z"/><path class="cls-4" d="M116.27,56c.43.4.9.64.88.86s-.5.5-.86.58c-.2,0-.8-.32-.8-.5S115.88,56.39,116.27,56Z"/><path class="cls-4" d="M201,93.43c.37.44.75.69.73.93s-.5.38-.78.57c-.31-.2-.84-.39-.86-.6S200.5,93.86,201,93.43Z"/><path class="cls-4" d="M189.48,70.31c.43.42.85.65.86.89s-.46.41-.72.62c-.32-.19-.87-.35-.92-.57S189.08,70.76,189.48,70.31Z"/><path class="cls-4" d="M265.52,57.32c-.44-.36-.9-.58-.86-.76s.45-.48.71-.73c.33.2.85.37.93.61S265.91,56.91,265.52,57.32Z"/><path class="cls-4" d="M169.41,73.53c.4.38.84.62.79.8s-.5.46-.78.69c-.31-.21-.82-.4-.87-.64S169,73.92,169.41,73.53Z"/><path class="cls-4" d="M208.48,94c.41.41.87.67.84.9s-.56.46-.94.53c-.16,0-.72-.36-.7-.54S208.09,94.4,208.48,94Z"/><path class="cls-4" d="M124.5,55.2c.42.43.83.67.83.91s-.48.4-.74.6c-.32-.19-.85-.37-.9-.59S124.09,55.64,124.5,55.2Z"/><path class="cls-4" d="M221.11,70.36c.35.42.72.68.72.94s-.62.53-.78.49c-.37-.09-.86-.37-.87-.58S220.66,70.74,221.11,70.36Z"/><path class="cls-4" d="M209.57,55.06c.45.34.94.56.9.73s-.46.49-.73.73c-.33-.19-.86-.36-.92-.59S209.2,55.45,209.57,55.06Z"/><path class="cls-4" d="M115,97.29c-.39-.41-.8-.65-.8-.9s.57-.54.81-.52.88.35.89.56S115.4,96.9,115,97.29Z"/><path class="cls-4" d="M237,97.7c-.4-.43-.81-.68-.8-.92s.48-.39.75-.59c.32.2.84.38.88.59S237.44,97.26,237,97.7Z"/><path class="cls-4" d="M184.24,97.25c-.55.32-.88.67-1.2.67a1.21,1.21,0,0,1-.86-.58c-.05-.17.44-.56.72-.58A4.36,4.36,0,0,1,184.24,97.25Z"/><path class="cls-4" d="M164.6,73.73c.42.42.88.68.84.9s-.56.46-.94.54c-.15,0-.71-.36-.7-.55S164.22,74.13,164.6,73.73Z"/><path class="cls-4" d="M133.77,97.78c-.52.23-.9.54-1.17.49s-.83-.38-.82-.59.56-.57.84-.56S133.28,97.48,133.77,97.78Z"/><path class="cls-4" d="M204.3,54.66c-.58.29-1,.61-1.26.59a1.08,1.08,0,0,1-.79-.63c0-.16.5-.53.78-.53S203.72,54.38,204.3,54.66Z"/><path class="cls-4" d="M256.87,71.24c-.63.27-1,.55-1.34.54s-.8-.38-.75-.54a1.11,1.11,0,0,1,.82-.61C255.9,70.6,256.27,70.93,256.87,71.24Z"/><path class="cls-4" d="M283.69,98.94c-.42-.44-.86-.7-.82-.91s.57-.4.88-.6c.27.2.75.4.75.6S284.1,98.51,283.69,98.94Z"/><path class="cls-4" d="M159.79,75.64c-.41-.38-.86-.62-.81-.79s.49-.47.76-.71c.32.21.83.4.89.64S160.2,75.24,159.79,75.64Z"/><path class="cls-4" d="M263.24,54.68c-.41-.44-.81-.68-.81-.92s.49-.4.76-.6c.31.2.84.38.88.6S263.66,54.24,263.24,54.68Z"/><path class="cls-4" d="M248.93,54c-.43-.43-.88-.69-.84-.91s.56-.4.87-.6c.27.2.76.39.77.59S249.33,53.53,248.93,54Z"/><path class="cls-4" d="M90.85,99.84c-.64.28-1.07.6-1.35.55a1.13,1.13,0,0,1-.76-.68c0-.13.57-.48.84-.47A4.56,4.56,0,0,1,90.85,99.84Z"/><path class="cls-4" d="M225.27,75.64c-.38-.4-.8-.64-.74-.82s.51-.45.8-.68c.3.22.8.42.84.66S225.72,75.25,225.27,75.64Z"/><path class="cls-4" d="M228.38,52.75a4.43,4.43,0,0,1-1.29.54c-.28,0-.8-.38-.76-.54a1.07,1.07,0,0,1,.81-.61C227.44,52.12,227.81,52.45,228.38,52.75Z"/><path class="cls-4" d="M297.6,70.85c-.49-.41-1-.64-1-.87s.51-.42.8-.64c.29.18.8.35.83.54S297.93,70.39,297.6,70.85Z"/><path class="cls-4" d="M221,52c-.43-.42-.84-.65-.87-.9s.53-.58.71-.55c.37.06.89.31.94.53S221.36,51.55,221,52Z"/><path class="cls-4" d="M199.49,68.18c-.59.29-1,.61-1.28.58a1.09,1.09,0,0,1-.78-.63c0-.17.52-.54.79-.53S198.91,67.9,199.49,68.18Z"/><path class="cls-4" d="M118.68,103.54c-.4-.39-.87-.65-.82-.85s.56-.42.88-.62c.28.23.71.44.79.7S119.11,103.17,118.68,103.54Z"/><path class="cls-4" d="M243.07,102.63c-.53.29-.91.65-1.19.62s-.6-.41-.9-.63a3,3,0,0,1,1-.53C242.22,102.05,242.57,102.37,243.07,102.63Z"/><path class="cls-4" d="M135.42,103.61c-.64.27-1.06.58-1.34.53a1,1,0,0,1-.75-.66c0-.16.55-.51.82-.5S134.83,103.3,135.42,103.61Z"/><path class="cls-4" d="M165.7,102.88c.47.39,1,.64.94.85s-.52.51-.9.59c-.18,0-.79-.32-.8-.51S165.33,103.31,165.7,102.88Z"/><path class="cls-4" d="M231.46,104.66a4.38,4.38,0,0,1-1.35.55c-.27,0-.79-.39-.74-.55a1.11,1.11,0,0,1,.82-.61C230.49,104,230.86,104.36,231.46,104.66Z"/><path class="cls-4" d="M260.62,104.1c.36.44.75.69.73.93s-.5.38-.78.57c-.31-.2-.85-.39-.86-.61S260.16,104.52,260.62,104.1Z"/><path class="cls-4" d="M220.17,75.17a4.59,4.59,0,0,1-1.29.53c-.27,0-.81-.36-.77-.5a1.12,1.12,0,0,1,.77-.66C219.2,74.52,219.58,74.86,220.17,75.17Z"/><path class="cls-4" d="M100.59,108.55c-.41-.44-.81-.68-.81-.92s.49-.4.76-.6c.31.2.84.38.88.6S101,108.11,100.59,108.55Z"/><path class="cls-4" d="M247.18,107.09c.17.27.55.56.48.78s-.55.5-.85.75c-.29-.18-.79-.35-.81-.55s.34-.5.54-.76Z"/><path class="cls-4" d="M199.42,107.52c.44.36,1,.63.89.76s-.61.47-.94.7c-.26-.2-.73-.41-.73-.61S199.05,107.9,199.42,107.52Z"/><path class="cls-4" d="M116.49,109.92c-.44-.39-.92-.63-.91-.86s.51-.49.88-.57c.17,0,.77.32.77.5S116.85,109.5,116.49,109.92Z"/><path class="cls-4" d="M183.14,108.54c.39.44.79.69.78.93s-.5.38-.78.58c-.31-.2-.82-.39-.86-.61S182.7,109,183.14,108.54Z"/><path class="cls-4" d="M167.65,110.15c-.59.28-1,.6-1.28.57a1.06,1.06,0,0,1-.77-.64c0-.16.53-.53.8-.52S167.08,109.86,167.65,110.15Z"/><path class="cls-4" d="M235.74,110.13c-.61.3-1,.59-1.31.59s-.82-.36-.79-.52a1.1,1.1,0,0,1,.79-.64C234.72,109.52,235.12,109.84,235.74,110.13Z"/><path class="cls-4" d="M185.93,115.34a4.39,4.39,0,0,1-1.29.54c-.26,0-.82-.36-.78-.5a1.12,1.12,0,0,1,.77-.65C185,114.7,185.33,115,185.93,115.34Z"/><path class="cls-4" d="M154.09,50.41c-.62.28-1,.6-1.34.56a1,1,0,0,1-.72-.69c0-.14.56-.48.83-.46S153.54,50.13,154.09,50.41Z"/><path class="cls-4" d="M253.92,55.39c-.52.28-.89.6-1.14.57a1.23,1.23,0,0,1-.89-.57c0-.17.49-.58.75-.57S253.36,55.12,253.92,55.39Z"/><path class="cls-4" d="M195.88,54.57c.35.34.8.6.73.78s-.57.43-.88.64c-.28-.24-.73-.46-.78-.71S195.44,54.88,195.88,54.57Z"/><path class="cls-4" d="M119.74,60.78c.41.35.9.59.84.76s-.54.45-.84.67c-.29-.23-.74-.43-.81-.69S119.36,61.11,119.74,60.78Z"/><path class="cls-4" d="M119.19,81.72c.43.42.84.66.86.92s-.48.52-.76.53-.85-.31-.85-.48S118.81,82.17,119.19,81.72Z"/><path class="cls-4" d="M103.74,100.56c.42.43.83.67.84.92s-.52.53-.8.53-.86-.32-.86-.51S103.33,101,103.74,100.56Z"/><path class="cls-4" d="M145.34,97.7c-.65.29-1,.57-1.36.57s-.71-.37-.71-.58.47-.58.73-.57S144.7,97.41,145.34,97.7Z"/><path class="cls-4" d="M104.72,63.9c-.46-.38-.94-.6-.91-.79s.47-.47.73-.7c.3.18.81.34.84.54S105.05,63.46,104.72,63.9Z"/><path class="cls-4" d="M219.17,73.56a4.72,4.72,0,0,1-1.39.53c-.26,0-.69-.4-.67-.6s.5-.56.75-.55S218.55,73.25,219.17,73.56Z"/><path class="cls-4" d="M231,63.16c-.35-.37-.79-.63-.72-.79s.56-.44.87-.66c.26.24.68.47.74.73S231.42,62.83,231,63.16Z"/><path class="cls-4" d="M307.37,69.79c-.55.28-.95.62-1.16.57a1.14,1.14,0,0,1-.82-.62c0-.16.51-.55.76-.54S306.84,69.52,307.37,69.79Z"/><path class="cls-4" d="M241.84,70c.46.37.94.59.91.78s-.46.47-.72.7c-.29-.17-.81-.33-.84-.53S241.51,70.42,241.84,70Z"/><path class="cls-4" d="M177,84.56c.4.45.81.7.8,1s-.56.49-.87.49-.79-.35-.78-.53S176.61,85,177,84.56Z"/><path class="cls-4" d="M264.22,77.58c-.21-.23-.65-.5-.57-.67s.59-.42.92-.62c.26.24.69.47.74.73s-.3.53-.47.8Z"/><path class="cls-4" d="M98.52,70.32c-.64.29-1,.57-1.35.57s-.72-.37-.71-.58.46-.58.72-.57S97.88,70,98.52,70.32Z"/><path class="cls-4" d="M260.15,50.24c.33.44.69.71.66.95s-.55.36-.84.54c-.26-.23-.69-.46-.73-.7S259.69,50.62,260.15,50.24Z"/><path class="cls-4" d="M168.31,59.77a4,4,0,0,1-1.22.62c-.26,0-.84-.37-.81-.54a1.18,1.18,0,0,1,.84-.6C167.38,59.2,167.77,59.52,168.31,59.77Z"/><path class="cls-4" d="M155,61c-.38-.34-.85-.58-.79-.75s.53-.45.83-.67c.3.22.76.42.83.68S155.44,60.67,155,61Z"/><path class="cls-4" d="M108,77.94a3.21,3.21,0,0,1-1.13.4c-.28,0-.78-.46-.7-.61a1.42,1.42,0,0,1,1-.53,3.65,3.65,0,0,1,1.16.33Z"/><path class="cls-4" d="M194.15,70.52a4.11,4.11,0,0,1-1.29.36,1.22,1.22,0,0,1-.85-.63c-.06-.13.46-.49.77-.52s.66.23,1,.36C193.9,70.24,194,70.38,194.15,70.52Z"/><path class="cls-4" d="M235.49,75c-.65.29-1,.57-1.36.57s-.71-.38-.71-.59.48-.57.73-.57S234.86,74.65,235.49,75Z"/><path class="cls-4" d="M227.94,60.44c-.71.38-1.1.72-1.3.68-.37-.08-.85-.4-.84-.61s.54-.51.9-.55S227.4,60.21,227.94,60.44Z"/><path class="cls-4" d="M228.24,78.62l-1.23.66c-.27-.24-.68-.46-.76-.73,0-.12.54-.45.85-.47S227.72,78.36,228.24,78.62Z"/><path class="cls-4" d="M185.86,73c-.41-.44-.82-.7-.81-.95s.56-.49.87-.49.8.34.79.53S186.28,72.54,185.86,73Z"/><path class="cls-4" d="M283.93,60.66c-.49.31-.83.66-1.07.63a1.34,1.34,0,0,1-1-.53c-.07-.16.44-.59.72-.61A4.22,4.22,0,0,1,283.93,60.66Z"/><path class="cls-4" d="M278.21,76c.41.41.85.66.8.85s-.52.43-.81.65c-.28-.2-.78-.39-.78-.59S277.81,76.44,278.21,76Z"/><path class="cls-4" d="M97.21,73.35c.34.44.71.71.68,1s-.53.36-.82.54c-.27-.23-.71-.44-.75-.69S96.75,73.74,97.21,73.35Z"/><path class="cls-4" d="M87.2,68.9c.41.41.85.66.8.84s-.52.44-.81.66c-.28-.2-.77-.39-.78-.59S86.81,69.32,87.2,68.9Z"/><path class="cls-4" d="M217,63.83l-1.2.69c-.28-.23-.7-.44-.79-.71s.52-.47.83-.48S216.48,63.59,217,63.83Z"/><path class="cls-4" d="M217,57.24c-.52.31-.85.51-1.19.7-.28-.23-.71-.43-.8-.7s.5-.47.82-.49S216.48,57,217,57.24Z"/><path class="cls-4" d="M243.81,75.49c-.53.28-.94.61-1.15.56a1.17,1.17,0,0,1-.82-.63c0-.15.53-.54.79-.53S243.3,75.21,243.81,75.49Z"/><path class="cls-4" d="M187.1,92.54c-.52.27-.85.57-1.2.58s-.81-.38-.77-.54A1.18,1.18,0,0,1,186,92C186.17,91.91,186.57,92.25,187.1,92.54Z"/><path class="cls-4" d="M149.19,117.06c-.43-.39-.88-.63-.84-.81s.5-.46.77-.68c.29.18.8.36.82.56S149.57,116.63,149.19,117.06Z"/><path class="cls-4" d="M116.67,81.59c-.54.24-1,.55-1.2.5s-.78-.38-.82-.62.57-.54.83-.52S116.16,81.3,116.67,81.59Z"/><path class="cls-4" d="M103.71,85.82c-.52.27-.84.56-1.13.55s-.87-.34-.84-.47.47-.49.73-.73Z"/><path class="cls-4" d="M100.74,57.87c-.62.31-1,.61-1.24.59a3.17,3.17,0,0,1-1-.47c.27-.19.51-.51.81-.53A5.52,5.52,0,0,1,100.74,57.87Z"/><path class="cls-4" d="M198.93,81.85c-.45-.35-1-.61-.89-.74a1.33,1.33,0,0,1,.89-.54c.26,0,.84.31.84.47S199.33,81.49,198.93,81.85Z"/><path class="cls-4" d="M182.19,85.59c-.45-.37-1-.63-.89-.75a1.34,1.34,0,0,1,.92-.53c.25,0,.82.31.81.48S182.59,85.23,182.19,85.59Z"/><path class="cls-4" d="M91.72,68.07a3.27,3.27,0,0,1-1.1.35c-.31,0-.58-.33-.87-.51.29-.18.57-.48.88-.5a3.64,3.64,0,0,1,1.09.35Z"/><path class="cls-4" d="M95.52,71.93c-.64.31-1,.6-1.25.57a3.08,3.08,0,0,1-1-.47c.27-.19.52-.5.83-.53A5.86,5.86,0,0,1,95.52,71.93Z"/><path class="cls-4" d="M91.6,73c.46.36,1,.62.9.75a1.39,1.39,0,0,1-.91.53c-.25,0-.82-.3-.81-.47S91.2,73.36,91.6,73Z"/><path class="cls-4" d="M232.18,90.6c.45.36.94.62.88.75a1.31,1.31,0,0,1-.89.53c-.26,0-.84-.31-.83-.47S231.77,91,232.18,90.6Z"/><path class="cls-4" d="M89.9,61.42a5.27,5.27,0,0,1-1.46.42c-.3,0-.55-.34-.82-.53a3.13,3.13,0,0,1,1-.47C88.94,60.82,89.27,61.11,89.9,61.42Z"/><path class="cls-4" d="M212,62.41c-.56.24-.92.52-1.21.49a2.81,2.81,0,0,1-1-.5,3,3,0,0,1,1-.5C211,61.88,211.39,62.16,212,62.41Z"/><path class="cls-4" d="M144.88,86.2a6.15,6.15,0,0,1-1.45.53c-.24,0-.54-.28-.81-.44.3-.2.56-.51.91-.56S144.21,86,144.88,86.2Z"/><path class="cls-4" d="M174.21,92.3l-1-.68a3,3,0,0,1,1-.55,1,1,0,0,1,.79.5C175,91.76,174.59,92,174.21,92.3Z"/><path class="cls-4" d="M130.85,93.07a6.32,6.32,0,0,1-1.51.42c-.28,0-.53-.31-.79-.48a3.13,3.13,0,0,1,1-.52C129.84,92.45,130.2,92.75,130.85,93.07Z"/><path class="cls-4" d="M109.14,94.14a3.51,3.51,0,0,1-.89-.1,5.6,5.6,0,0,1-.92-.55l1.06-.51a5.68,5.68,0,0,1,.69.7c.1.13,0,.32,0,.49Z"/><path class="cls-4" d="M126.79,56.12l1.08.79c-.3.17-.6.47-.91.48a1.15,1.15,0,0,1-.87-.46C126,56.75,126.44,56.5,126.79,56.12Z"/><path class="cls-4" d="M185.44,56.48c.6-.22,1-.5,1.27-.44s.61.39.9.6a2.8,2.8,0,0,1-1,.4C186.3,57,186,56.76,185.44,56.48Z"/><path class="cls-4" d="M252.09,46.26c-.6.24-1,.51-1.26.46s-.62-.38-.92-.59a2.82,2.82,0,0,1,1-.41C251.21,45.72,251.53,46,252.09,46.26Z"/><path class="cls-4" d="M238.29,41.22c.43.3.9.48.91.68s-.5.58-.69.55a3.5,3.5,0,0,1-1.08-.49Z"/><path class="cls-4" d="M137.33,98.28c.43.32.91.51.9.7s-.52.57-.72.54a1.71,1.71,0,0,1-1-.53C136.45,98.9,137,98.61,137.33,98.28Z"/><path class="cls-4" d="M251.62,78.24c-.66.26-1,.51-1.34.49s-.62-.3-.93-.46c.27-.19.54-.54.81-.54A5.52,5.52,0,0,1,251.62,78.24Z"/><path class="cls-4" d="M257,80.57c-.43-.3-.91-.49-.91-.68s.49-.58.69-.56a3.88,3.88,0,0,1,1.08.49Z"/><path class="cls-4" d="M298.32,65.36l1,.81c-.31.17-.62.47-.93.47a1.1,1.1,0,0,1-.84-.48C297.52,66,297.94,65.74,298.32,65.36Z"/><path class="cls-4" d="M115.45,114.82a5.82,5.82,0,0,1-1.44.53c-.25,0-.54-.28-.82-.43.3-.2.56-.52.91-.57S114.78,114.57,115.45,114.82Z"/><path class="cls-4" d="M99.23,82.59a4.68,4.68,0,0,1-1.38.58c-.28,0-.58-.32-.88-.5.3-.18.57-.47.9-.5S98.55,82.37,99.23,82.59Z"/><path class="cls-4" d="M163.18,50.26a5.14,5.14,0,0,1-1.42.55c-.28,0-.56-.33-.84-.52.3-.17.58-.45.91-.48S162.5,50,163.18,50.26Z"/><path class="cls-4" d="M119.73,69.69c-.65.26-1,.52-1.32.51a2.83,2.83,0,0,1-.94-.46c.26-.19.52-.54.78-.54A5.28,5.28,0,0,1,119.73,69.69Z"/><path class="cls-4" d="M218.1,82c-.55.25-.92.54-1.18.51a2.8,2.8,0,0,1-1-.53c.31-.17.6-.45.94-.47S217.54,81.71,218.1,82Z"/><path class="cls-4" d="M228.14,80.58c-.61.23-1,.49-1.27.46s-.63-.32-.94-.49a3.25,3.25,0,0,1,1-.51C227.23,80,227.58,80.31,228.14,80.58Z"/><path class="cls-4" d="M201,58.06l.05,0a3.25,3.25,0,0,1-.9-.08,1.53,1.53,0,0,1-.8-.54c0-.11.54-.51.67-.47a2.16,2.16,0,0,1,1,.53C201.17,57.6,201,57.86,201,58.06Z"/><path class="cls-4" d="M156.18,74.89c-.61.23-1,.49-1.27.46a2.7,2.7,0,0,1-.95-.49,3.35,3.35,0,0,1,1-.51C155.26,74.32,155.61,74.62,156.18,74.89Z"/><path class="cls-4" d="M198.19,55.63l.93.72a3.12,3.12,0,0,1-1,.5c-.22,0-.73-.33-.74-.53S197.81,55.94,198.19,55.63Z"/><path class="cls-4" d="M250.76,67.33c.38.36.8.6.76.78a1.08,1.08,0,0,1-.83.48c-.33,0-.63-.31-.95-.48Z"/><path class="cls-4" d="M169.18,57.37c-.62.28-.94.55-1.27.55s-.63-.27-.95-.43c.25-.2.49-.55.75-.56A5.42,5.42,0,0,1,169.18,57.37Z"/><path class="cls-4" d="M266.77,63l-1-.8c.33-.17.65-.46,1-.46s.77.3.8.5S267.17,62.64,266.77,63Z"/><path class="cls-4" d="M302.79,77.15l.93.71a3.37,3.37,0,0,1-1,.51c-.22,0-.73-.34-.74-.53S302.41,77.45,302.79,77.15Z"/><path class="cls-4" d="M120,55.85c-.54.22-.92.51-1.2.47s-.61-.35-.9-.55c.31-.16.62-.44.93-.45S119.44,55.6,120,55.85Z"/><path class="cls-4" d="M201.11,66.37c0,.22.15.49,0,.66a1.42,1.42,0,0,1-.87.5c-.26,0-.59-.26-.88-.41a3.18,3.18,0,0,1,.75-.61,4.46,4.46,0,0,1,1-.12Z"/><path class="cls-4" d="M266.63,97.44l-.93-.7a3,3,0,0,1,1-.52,1,1,0,0,1,.75.52C267.47,96.93,267,97.14,266.63,97.44Z"/><path class="cls-4" d="M154.61,85.82l1.08.77c-.31.17-.6.47-.93.49a1.16,1.16,0,0,1-.85-.46C153.85,86.43,154.26,86.19,154.61,85.82Z"/><path class="cls-4" d="M132.73,109.11l1,.79c-.32.17-.63.46-1,.47a1.07,1.07,0,0,1-.83-.49C131.92,109.7,132.35,109.47,132.73,109.11Z"/><path class="cls-4" d="M207.55,76.43l.93.72a3.26,3.26,0,0,1-1,.51c-.21,0-.72-.34-.74-.53S207.17,76.74,207.55,76.43Z"/><path class="cls-4" d="M279.81,66.56c.18.26.56.55.48.78a1.42,1.42,0,0,1-1,.54,1,1,0,0,1-.78-.51c0-.18.41-.4.65-.61Z"/><path class="cls-4" d="M276,60.46c-.59.25-.94.51-1.24.49a2.87,2.87,0,0,1-1-.46,3,3,0,0,1,1-.54C275.08,59.91,275.45,60.2,276,60.46Z"/><path class="cls-4" d="M209.59,75.13c.22.21.66.43.62.62a1.09,1.09,0,0,1-.81.48,1.25,1.25,0,0,1-.89-.56c-.07-.23.26-.53.41-.8Z"/><path class="cls-4" d="M99.87,83.55l1,.71a3.4,3.4,0,0,1-1,.51c-.2,0-.72-.33-.74-.53S99.5,83.85,99.87,83.55Z"/><path class="cls-4" d="M234.19,72.82c-.61.29-.92.56-1.25.57s-.64-.27-1-.42c.24-.2.46-.56.73-.57A5.39,5.39,0,0,1,234.19,72.82Z"/><path class="cls-4" d="M151.53,98c-.54.23-.92.51-1.2.48s-.61-.36-.91-.55c.31-.16.62-.45.94-.45S151,97.73,151.53,98Z"/><path class="cls-4" d="M174.58,58.26l1,.79c-.3.17-.61.47-.92.47s-.79-.28-.83-.48S174.2,58.63,174.58,58.26Z"/><path class="cls-4" d="M232.84,46c.38.37.8.6.76.78a1.08,1.08,0,0,1-.83.48c-.33,0-.64-.3-1-.47Z"/><path class="cls-4" d="M208.51,89.73c.37.37.79.6.74.79a1.11,1.11,0,0,1-.84.47c-.33,0-.63-.31-.94-.48Z"/><path class="cls-4" d="M202,113.42c.38.3.83.5.82.69s-.53.55-.74.53a3.52,3.52,0,0,1-1.05-.51Z"/><path class="cls-4" d="M100.66,64.59c-.59.22-1,.48-1.25.45s-.61-.32-.92-.49a3.15,3.15,0,0,1,1-.51C99.77,64,100.12,64.31,100.66,64.59Z"/><path class="cls-4" d="M176.92,98.45a3.57,3.57,0,0,1,.93-.25,2.56,2.56,0,0,1,1.11.25c.13.07,0,.55-.16.59a2.36,2.36,0,0,1-1.18,0c-.3-.1-.45-.4-.67-.61Z"/><path class="cls-4" d="M226,98c.39.3.85.51.83.69s-.53.55-.75.53a3.16,3.16,0,0,1-1-.51Z"/><path class="cls-4" d="M269.23,69.66c-.51.26-.84.53-1.16.53s-.62-.28-.94-.44c.3-.19.56-.51.9-.56S268.69,69.44,269.23,69.66Z"/><path class="cls-4" d="M183.34,62.23c-.37-.29-.83-.5-.81-.68a1,1,0,0,1,.74-.53,3.35,3.35,0,0,1,1,.51Z"/><path class="cls-4" d="M220.49,66.19l-1-.8a2.57,2.57,0,0,1,1-.46,1,1,0,0,1,.8.5C221.33,65.61,220.89,65.83,220.49,66.19Z"/><path class="cls-4" d="M257,73.66a4.12,4.12,0,0,1-1.3.44c-.3,0-.55-.33-.82-.52a2.6,2.6,0,0,1,.94-.47C256.14,73.09,256.47,73.38,257,73.66Z"/><path class="cls-4" d="M113.38,80.42c-.62.22-1,.47-1.29.44s-.56-.34-.83-.52c.31-.17.61-.46.94-.48S112.81,80.13,113.38,80.42Z"/><path class="cls-4" d="M202.36,79.07c.36.36.79.59.74.77s-.55.48-.84.48-.79-.32-.79-.5S201.92,79.41,202.36,79.07Z"/><path class="cls-4" d="M95.76,80c-.42-.32-.88-.53-.86-.72s.48-.51.76-.52a1.13,1.13,0,0,1,.85.47C96.56,79.45,96.13,79.69,95.76,80Z"/><path class="cls-4" d="M140.79,98.28c-.55.26-.87.55-1.17.54s-.6-.31-.9-.48c.27-.18.51-.49.82-.52S140.2,98,140.79,98.28Z"/><path class="cls-4" d="M219.12,77.83c.4.33.86.54.83.73s-.51.52-.77.52a1.17,1.17,0,0,1-.87-.5C218.26,78.41,218.73,78.17,219.12,77.83Z"/><path class="cls-4" d="M143.92,50.09c.44.34.9.54.91.74s-.49.51-.77.51a1.12,1.12,0,0,1-.86-.47C143.15,50.69,143.57,50.45,143.92,50.09Z"/><path class="cls-4" d="M113.3,58.39c0-.07.17-.16.15-.22-.21-.57.27-.79,1-.71.27,0,.47.38.69.59-.45.12-.89.26-1.35.36a1.77,1.77,0,0,1-.5,0Z"/><path class="cls-4" d="M89.7,77.56c-.59.23-1,.48-1.25.45s-.56-.34-.83-.52c.3-.17.59-.46.91-.47S89.15,77.29,89.7,77.56Z"/><path class="cls-4" d="M94.92,59.5c-.57.28-.88.57-1.18.56s-.64-.29-1-.45c.28-.19.52-.5.85-.55S94.3,59.27,94.92,59.5Z"/><path class="cls-4" d="M236.18,64.31c-.58.28-.91.56-1.2.55s-.62-.31-.93-.48c.28-.19.52-.49.83-.52S235.55,64.08,236.18,64.31Z"/><path class="cls-4" d="M249.73,66.36c-.36-.36-.79-.6-.74-.78a1.08,1.08,0,0,1,.84-.47c.29,0,.75.33.77.53S250.15,66,249.73,66.36Z"/><path class="cls-4" d="M215.43,49.6c-.57.25-.91.52-1.21.5s-.59-.32-.88-.5c.29-.18.57-.48.88-.5S214.86,49.35,215.43,49.6Z"/><path class="cls-4" d="M132.77,93.47c.38.35.81.57.78.76s-.52.49-.8.49-.76-.3-.79-.5S132.37,93.82,132.77,93.47Z"/><path class="cls-4" d="M117.12,68.62c-.58.26-.91.53-1.21.51s-.57-.32-.86-.5c.28-.18.54-.48.85-.5S116.54,68.37,117.12,68.62Z"/><path class="cls-4" d="M126.59,89.63a2.64,2.64,0,0,1,.76-.4,2.73,2.73,0,0,1,1.18,0c.16.06.19.6,0,.66a2.51,2.51,0,0,1-1.17.08,2.82,2.82,0,0,1-.81-.37Z"/><path class="cls-4" d="M184.92,90.09c.39.35.83.57.8.76a1.08,1.08,0,0,1-.8.5c-.28,0-.76-.31-.79-.5S184.53,90.44,184.92,90.09Z"/><path class="cls-4" d="M306.2,65.1c.07.19.25.41.17.57a1.21,1.21,0,0,1-.68.61c-.22,0-.87-.22-.87-.34s.28-.49.55-.66a2.72,2.72,0,0,1,.87-.15Z"/><path class="cls-4" d="M198.53,87.24c.41.35.85.56.83.75a1,1,0,0,1-.77.51,1.07,1.07,0,0,1-.82-.48C197.73,87.83,198.15,87.6,198.53,87.24Z"/><path class="cls-4" d="M147.26,27.63a1.32,1.32,0,0,1,2,.5c.83-.9,1.64-.6,2.46,0a1.47,1.47,0,0,1,2.39.21c.63-.73,1.31-1.13,2.17-.26,1.3-.86,1.3-.86,2.24-.15l2.24-.14a3.28,3.28,0,0,1-.32,1.46c-.12.18-1,.13-1.92.22a7.7,7.7,0,0,0,0,1.78c.11.49.11.89-.68.93s-.9-.27-.91-.82a4,4,0,0,0-.81-2.07,1,1,0,0,0-1.63-.1,1.09,1.09,0,0,1-1.68-.06,9.58,9.58,0,0,0-1.22-.89l-.3.16c0,.13.19.28.14.38a11.15,11.15,0,0,1-.65.93,6.31,6.31,0,0,1-1-.75,1.83,1.83,0,0,1-.28-.79l-.51-.05a3.54,3.54,0,0,0-.45,1.05c0,.72-1.46,1.32-2.49,1a4.87,4.87,0,0,0-.66-.09,6.3,6.3,0,0,1-.45,1.77c-.14.23-.85.33-1.3.49a2.36,2.36,0,0,1-.21-.87,10.05,10.05,0,0,1,.47-1.91c.09-.26.43-.48.55-.75s.12-.51,0-.57a5.24,5.24,0,0,0-1.83-.59,22.71,22.71,0,0,1-8.5-2.07c-3.15-1.43-3.51-3.68.05-5.28a42.32,42.32,0,0,1,5.11-1.87,19.55,19.55,0,0,1,2.73-.36c.87-.12,1.72-.33,2.59-.45.49-.07,1,0,1.81-.07a1.44,1.44,0,0,1,2.05,0c.69-.85,1.44-.75,2.21-.06.67-.58,1.33-1.2,2.2-.12.77-.57,1.51-.95,2.32-.11.79-.37,1.61-.92,2.41,0,.89-.61,1.74-.89,2.32.15,1.18-.86,1.25-.87,2.33-.15.75-.26,1.58-.65,2-.16l2.26.31a4.78,4.78,0,0,0,.53.06,8.32,8.32,0,0,1,1.79.14,2.64,2.64,0,0,1,1.95.24c1.19.4,2.72.34,4,.68,2.2.58,4.4,1.24,5.76,2.65a1.82,1.82,0,0,1-.31,3.1,15.33,15.33,0,0,1-3.8,1.89c-1.91.64-4,1.06-6.05,1.58-.09.66,0,1.26,1.47,1.32.18,0,.58.68.42.89-.37.49-.57.85-.06,1.38.19.2-.21.65-.34,1-.41-.2-1.11-.36-1.17-.6-.14-.57-1.54-1.05,0-1.77a4.57,4.57,0,0,0-1.38,0c-.89.42-1.43.06-2.28-.13-1.17-.25-2.11-.27-2.17-1.28,0-.17-.74-.32-1.18-.5-.43.47.85,1.33-.71,1.48-.29,0-.92-.29-1-.48a5.51,5.51,0,0,1,.12-1.56l1.62.31a1.65,1.65,0,0,1,2-.34,3.36,3.36,0,0,0,1.77-.32c1.44-.55,3.21-.25,4.63-.95a23.29,23.29,0,0,1,3.39-.88,9.78,9.78,0,0,0,2.06-.85c3-1.71,1.66-3-.93-4.06A33.16,33.16,0,0,0,172.44,19c-.84-.22-1.82-.18-2.72-.32a5.69,5.69,0,0,1-1.15-.45c-.74.55-1.34.26-1.89-.28l-.12.29-1.68-.27c-.2,0-.5-.15-.59-.1-.94.54-1.5.15-2.06-.47-.76.92-1.5.61-2.24,0-.82.64-1.6.81-2.27-.18-.69.74-1.41,1.2-2.3.15-.75.65-1.5.91-2.25.07-.74.4-1.42,1-2.29.12a1.81,1.81,0,0,1-2.41.23,1.46,1.46,0,0,1-2.08.18,1.49,1.49,0,0,1-2,.52,3.84,3.84,0,0,0-2,.29c-2.42.87-5.2,1.23-7.39,2.43-1.65.91-1.95,2.37-.27,3.24a30.55,30.55,0,0,0,3.56,1.35,11.36,11.36,0,0,0,2.52.8c.88.1,1.68.59,2.65.33a1.06,1.06,0,0,1,.39,0C144.94,27.1,146.06,27.36,147.26,27.63Zm20.21,1.69c.24-.21.63-.43.71-.7s-.45-.44-.77-.49a20.92,20.92,0,0,0-2.13-.09Z"/><path class="cls-4" d="M152,7.17c1.86-.06,3.69-.25,5.48-.15,3.26.18,6.62,0,9.73.91a35.64,35.64,0,0,1,4.2,1.19c2.44,1.09,2.32,2.58,0,3.73a24.88,24.88,0,0,1-8.28,1.89c-1.66.19-3.36.22-5,.26a70.4,70.4,0,0,1-7.26.06c-3.44-.26-6.95-.6-9.86-2a2.87,2.87,0,0,1-1.65-1.88c-.05-1,1.09-1.76,2.38-2.2a44.36,44.36,0,0,1,9.85-1.84A3.18,3.18,0,0,1,152,7.17Zm10.09,6.53a21.9,21.9,0,0,0,7.75-1.61c.59-.27,1.4-.8,1.32-1.13s-.9-.92-1.57-1.15a34,34,0,0,0-8.95-1.53,64.06,64.06,0,0,0-15.64,1,11.27,11.27,0,0,0-3.25,1.26c-.88.47-.75,1.15.2,1.52a16.44,16.44,0,0,0,3.43,1c2.3.35,4.64.59,7,.74s4.49.17,6.73.16A27.58,27.58,0,0,0,162.07,13.7Z"/><path class="cls-4" d="M154.8.75,156,0l1.19.86c1.89.28,3.94.59,6,.88,1.2.17,1.82.85,1.8,1.46s-.83,1.18-1.54,1.39a28.92,28.92,0,0,1-4.82.9,29.26,29.26,0,0,1-8.41-.33c-.34-.06-.68-.13-1-.21-1.13-.29-2.08-.75-2.17-1.62-.07-.64,1.25-1.49,2.6-1.71,1.75-.27,3.53-.49,5.29-.73Zm-5.61,2.61c2.92,1.54,12,1.4,13.68-.19C160.24,1.73,151.43,1.86,149.19,3.36Z"/><path class="cls-4" d="M59.1,41.6l-1.86.21c0-.28-.06-.8,0-.81a15,15,0,0,1,2,0,10.71,10.71,0,0,1,.19-1.25.85.85,0,0,1,.5-.54,1.27,1.27,0,0,1,.84.07.78.78,0,0,1,.32.62,2.11,2.11,0,0,1-.25.73c-.12.31-.13.71-.44.9s-.83,0-1.27-.06C59.13,41.49,59.11,41.54,59.1,41.6Z"/><path class="cls-4" d="M132.12,30.73c-.23-.62-.6-1.27.81-1.51-.13-.78.65-1,1.57-1.06a4.64,4.64,0,0,1,1.38.42,6.81,6.81,0,0,1-1.19.74,4.94,4.94,0,0,1-1.28.06c.4.83-.17,1.22-1.32,1.32Z"/><path class="cls-4" d="M65.71,39.69a3.89,3.89,0,0,0-.52,0c-.74,0-1.42-.07-1.43-.64,0-.2.46-.55.77-.59.71-.08,1.55-.18,1.86.51a2.13,2.13,0,0,0,.52.52c.24.21.5.42.75.62-.29.15-.64.46-.85.42a3,3,0,0,1-1-.54C65.76,39.91,65.76,39.81,65.71,39.69Z"/><path class="cls-4" d="M116.32,32.65l.81,0c.7-.43,1.17-.74,1.69-1a3.12,3.12,0,0,1,.72.48c-.41.34-.89.64-1.49,1-.33.19-.87.73-1.21.67-1.07-.17-.72-.76-.48-1.26Z"/><path class="cls-4" d="M86.32,35.44l-2-.29H82.17c0-.24.09-.48.13-.72l1.84.17s0,.08-.07.13l1.73-.36.48,1.1Z"/><path class="cls-4" d="M70,38.15c1.42-.16,1.58-.06,1.57.89,0,.23.18.45.18.68a.84.84,0,0,1-.26.69,1.37,1.37,0,0,1-.94,0A.9.9,0,0,1,70,39.8a15.83,15.83,0,0,1,0-1.69Z"/><path class="cls-4" d="M121.49,30.35a4.63,4.63,0,0,1-.21-.59c-.08-.5.2-.78,1-.77.36,0,.72-.08,1.08-.08a3.41,3.41,0,0,1,1.18.12c.19.08.28.49.14.61a2.33,2.33,0,0,1-1,.38c-.73.14-1.48.21-2.21.31Z"/><path class="cls-4" d="M96.4,35.32c-.53-.38-1-.55-.94-.68a7.76,7.76,0,0,1,.69-1.8,2.11,2.11,0,0,1,1,0c.21.07.41.41.33.56A21.23,21.23,0,0,1,96.4,35.32Z"/><path class="cls-4" d="M55.22,40.73a5.43,5.43,0,0,1,.81.64,1.78,1.78,0,0,1,.39.88.75.75,0,0,1-.4.67,1.62,1.62,0,0,1-1-.08,5.09,5.09,0,0,1-.58-1.59C54.39,41.13,54.85,41,55.22,40.73Z"/><path class="cls-4" d="M105.92,32.26a7,7,0,0,1,1,1.12c.06.11-.7.57-.77.54a2.64,2.64,0,0,1-1.2-.75c-.12-.22.3-.58.47-.87Z"/><path class="cls-4" d="M74.23,37.58l-1.17-.81a3.87,3.87,0,0,1,1.3-.47,3.94,3.94,0,0,1,1.26.54Z"/><path class="cls-4" d="M78.72,37.06c.42.42.87.68.85.93s-.58.39-.91.59c-.31-.25-.75-.47-.89-.75C77.71,37.7,78.23,37.45,78.72,37.06Z"/><path class="cls-4" d="M65.07,42.18c-.61.31-1,.64-1.29.62s-.89-.34-.9-.55.48-.57.82-.61S64.42,41.91,65.07,42.18Z"/><path class="cls-4" d="M174.29,29.1c.38.39.83.64.79.86s-.55.41-.85.62c-.31-.2-.86-.4-.86-.61S173.84,29.5,174.29,29.1Z"/><path class="cls-4" d="M138.9,33.69c-.62.29-1,.6-1.31.58s-.9-.38-.87-.56.52-.56.88-.6S138.28,33.4,138.9,33.69Z"/><path class="cls-4" d="M58.66,44.68c-.6.3-1,.67-1.28.61a1.48,1.48,0,0,1-.85-.71c-.05-.08.56-.47.84-.45A4.65,4.65,0,0,1,58.66,44.68Z"/><path class="cls-4" d="M108.48,32.82c-.51-.43-1-.67-1-.89s.48-.53.84-.6.86.28.86.43S108.83,32.33,108.48,32.82Z"/><path class="cls-4" d="M70,38.15l0,0a4.4,4.4,0,0,1-1.24-.24.68.68,0,0,1-.33-.72,1.27,1.27,0,0,1,.92-.31,1.17,1.17,0,0,1,.67.62C70.11,37.66,70,37.92,70,38.15Z"/><path class="cls-4" d="M142,30.68c-.43-.43-.86-.67-.85-.9s.57-.59.77-.56c.38.05.87.33.93.56S142.41,30.25,142,30.68Z"/><path class="cls-4" d="M100.93,32c-.66.27-1.05.55-1.39.53s-.86-.41-.8-.55a1.27,1.27,0,0,1,.89-.61C99.94,31.31,100.31,31.64,100.93,32Z"/><path class="cls-4" d="M116.36,32.63a3.51,3.51,0,0,1-1.11-.22.87.87,0,0,1-.32-.83c0-.12.81-.31.94-.24a1.39,1.39,0,0,1,.56.76c.07.16-.07.37-.11.55Z"/><path class="cls-4" d="M157.51,34c-.43-.42-.89-.68-.86-.9s.56-.5.92-.54.79.34.78.53S157.92,33.6,157.51,34Z"/><path class="cls-4" d="M148.81,33.39c-.66.27-1.11.58-1.38.52a1.13,1.13,0,0,1-.75-.69c0-.13.57-.49.83-.47S148.2,33.07,148.81,33.39Z"/><path class="cls-4" d="M103.86,35.45c-.45-.4-.94-.65-.92-.88s.52-.51.88-.57.81.33.82.52S104.24,35,103.86,35.45Z"/><path class="cls-4" d="M78.86,36.15c-.49-.39-1-.63-1-.84s.52-.51.9-.6c.18,0,.79.32.81.52S79.21,35.73,78.86,36.15Z"/><path class="cls-4" d="M110.29,36.33c-.63.31-1,.64-1.32.61a1.22,1.22,0,0,1-.87-.62c0-.15.51-.53.83-.54S109.64,36.05,110.29,36.33Z"/><path class="cls-4" d="M85,41c-.59.24-1,.54-1.34.51A1,1,0,0,1,83,40.9c0-.17.58-.53.83-.5A4.07,4.07,0,0,1,85,41Z"/><path class="cls-4" d="M52.15,41.38c.4.37.84.59.85.83s-.46.42-.72.63c-.35-.22-.82-.41-1-.68S51.73,41.75,52.15,41.38Z"/><path class="cls-4" d="M91.34,33.07c.52-.23.91-.53,1.17-.49s.83.38.83.59-.57.57-.85.56S91.83,33.37,91.34,33.07Z"/><path class="cls-4" d="M90.21,33.46c-.59.32-.95.65-1.25.63a1.16,1.16,0,0,1-.84-.6c-.05-.16.45-.55.73-.56A4.43,4.43,0,0,1,90.21,33.46Z"/><path class="cls-4" d="M118.19,34.4c.45.41.91.66.88.87s-.53.43-.83.64c-.28-.19-.78-.37-.8-.57S117.81,34.85,118.19,34.4Z"/><path class="cls-4" d="M92.21,36.07a4.31,4.31,0,0,1-1.33.51c-.27,0-.77-.4-.72-.57a1.16,1.16,0,0,1,.84-.59C91.32,35.42,91.66,35.76,92.21,36.07Z"/><path class="cls-4" d="M83.28,36.59a4.35,4.35,0,0,1-1.32.53c-.29,0-.85-.39-.8-.52A1.2,1.2,0,0,1,82,36C82.31,35.94,82.69,36.28,83.28,36.59Z"/><path class="cls-4" d="M91.66,40.07c-.4-.39-.87-.65-.82-.86s.57-.41.88-.61c.28.23.71.44.78.7S92.08,39.7,91.66,40.07Z"/><path class="cls-4" d="M77.73,43a4.86,4.86,0,0,1-1.4.5c-.28,0-.78-.41-.74-.57a1.17,1.17,0,0,1,.87-.57C76.8,42.36,77.14,42.69,77.73,43Z"/><path class="cls-4" d="M69.85,44.23c.36.38.76.62.76.86s-.47.4-.74.6c-.33-.23-.78-.44-.93-.71S69.4,44.58,69.85,44.23Z"/><path class="cls-4" d="M63.84,48.23c-.39-.43-.78-.68-.78-.94s.6-.53.79-.49c.36.07.84.35.87.57S64.27,47.84,63.84,48.23Z"/><path class="cls-4" d="M110.71,31.53c-.41-.43-.82-.67-.83-.93s.49-.51.78-.51.84.31.84.48S111.1,31.08,110.71,31.53Z"/><path class="cls-4" d="M121.46,30.33c-.27.4-.07,1.1-1.22.92-.31,0-.79-.43-.72-.58.34-.8,1.26-.31,2-.32Z"/><path class="cls-4" d="M86.28,35.47a3.51,3.51,0,0,1,.89.1,5.89,5.89,0,0,1,1,.55c-.3.17-.75.51-.87.47a2.49,2.49,0,0,1-.91-.66c-.11-.12,0-.32,0-.49Z"/><path class="cls-4" d="M103.87,31.65c-.56.25-.9.51-1.21.5s-.63-.3-1-.46a2.76,2.76,0,0,1,1-.54C103,31.11,103.31,31.4,103.87,31.65Z"/><path class="cls-4" d="M127.18,31a5.65,5.65,0,0,1-1.46.44c-.27,0-.51-.36-.76-.55.31-.16.63-.44.94-.44S126.56,30.71,127.18,31Z"/><path class="cls-4" d="M113.07,29.68l1,.68a2.92,2.92,0,0,1-1,.54,1,1,0,0,1-.79-.51C112.25,30.21,112.7,30,113.07,29.68Z"/><path class="cls-4" d="M93.87,35.57l-1-.68a2.79,2.79,0,0,1,1-.54c.22,0,.76.3.79.5S94.23,35.25,93.87,35.57Z"/><path class="cls-4" d="M140.53,30.23c-.57.24-.92.51-1.22.49s-.58-.32-.87-.5c.29-.18.56-.48.88-.49S140,30,140.53,30.23Z"/><path class="cls-4" d="M100.18,36.93c.36.36.78.6.73.78a1.13,1.13,0,0,1-.83.48c-.28,0-.73-.33-.75-.53S99.76,37.27,100.18,36.93Z"/><path class="cls-4" d="M231,34.24l-1.68.29c-.08-.28-.15-.57-.23-.86h1.76s0,0,0,0h1.85c0,.24-.07.48-.11.72Z"/><path class="cls-4" d="M227.45,32.57c-.6.32-.94.64-1.26.63s-.66-.33-1-.52c.29-.23.54-.58.9-.63S226.81,32.31,227.45,32.57Z"/><path class="cls-4" d="M223.71,32.35a4.93,4.93,0,0,1-1.34.51c-.27,0-.84-.41-.79-.49a1.55,1.55,0,0,1,.91-.68C222.73,31.65,223.15,32,223.71,32.35Z"/><path class="cls-4" d="M226.78,35.86c0-.22-.15-.49,0-.66a1.41,1.41,0,0,1,.87-.5c.3,0,.62.29.93.45a3.52,3.52,0,0,1-.8.57,4,4,0,0,1-1,.11Z"/><path class="cls-4" d="M79.54,83.76c-.83.33-1.74.92-2.52.11A3.51,3.51,0,0,1,76.2,82c0-.15.72-.48,1.18-.55.85-.14,1.42.25,1.08.74-.62.89.27,1.17,1.07,1.55Z"/><path class="cls-4" d="M64.37,77.78,63,77.84c0-.28,0-.56,0-.85l1.84.08.12.28A6.86,6.86,0,0,1,66,76.49a4.91,4.91,0,0,1,1.19-.32c.08.31.36.66.22.92a2.06,2.06,0,0,1-1.12.91A6.4,6.4,0,0,1,64.37,77.78Z"/><path class="cls-4" d="M72.33,81.74c-.17.17-.3.45-.52.49a2.32,2.32,0,0,1-1-.15.41.41,0,0,1-.12-.53c.18-.19.69-.49.8-.45,1.11.43,1.8-.35,2.71-.37a10.35,10.35,0,0,1,1.46.16c-.25.29-.38.74-.75.85a15.73,15.73,0,0,1-2.26.34Z"/><path class="cls-4" d="M72.26,80a6.73,6.73,0,0,1-1.62.55c-.91,0-2-.75-1.9-1.34.05-.22.72-.58.78-.55C70.35,79,71.13,79.38,72.26,80Z"/><path class="cls-4" d="M76.32,98.6c-.44-.43-.91-.68-.87-.89s.54-.43.85-.64c.31.21.83.4.87.62S76.75,98.17,76.32,98.6Z"/><path class="cls-4" d="M36.9,78.19c-.55.34-.85.68-1.2.7s-.89-.33-.91-.53.44-.57.78-.62S36.3,78,36.9,78.19Z"/><path class="cls-4" d="M61.62,75.79c-.41-.35-.89-.61-.82-.75s.57-.48.88-.72c.3.22.81.43.85.66S62.05,75.43,61.62,75.79Z"/><path class="cls-4" d="M53,105.37c.45.36,1,.6.94.8s-.53.45-.83.68c-.32-.24-.76-.44-.9-.71S52.64,105.73,53,105.37Z"/><path class="cls-4" d="M58.66,100c.42.48.8.75.83,1s-.63.51-.84.47-.82-.37-.86-.59S58.21,100.42,58.66,100Z"/><path class="cls-4" d="M28.09,92c-.41-.43-.85-.7-.8-.91s.57-.4.89-.6c.29.22.79.43.83.67S28.55,91.61,28.09,92Z"/><path class="cls-4" d="M81.07,93c-.42-.37-.91-.62-.87-.82s.55-.44.85-.66c.31.25.74.46.86.74S81.49,92.69,81.07,93Z"/><path class="cls-4" d="M53,91.69c.48.34,1,.56,1,.77s-.51.46-.79.69c-.33-.22-.78-.41-.93-.68S52.62,92.05,53,91.69Z"/><path class="cls-4" d="M10.5,75.56a4.63,4.63,0,0,1-1.34.5c-.28,0-.85-.41-.79-.49a1.53,1.53,0,0,1,.92-.67C9.53,74.86,9.94,75.24,10.5,75.56Z"/><path class="cls-4" d="M12.84,79.53c-.6.3-1,.62-1.31.61s-.83-.39-.82-.6.54-.54.88-.56S12.28,79.27,12.84,79.53Z"/><path class="cls-4" d="M25.48,61a4.63,4.63,0,0,1-1.34.5c-.28,0-.85-.41-.79-.49a1.57,1.57,0,0,1,.92-.67C24.51,60.28,24.92,60.66,25.48,61Z"/><path class="cls-4" d="M82.14,72.86c.43.38.87.6.91.85s-.52.58-.74.56c-.37,0-.94-.31-1-.51S81.76,73.26,82.14,72.86Z"/><path class="cls-4" d="M50.49,74.78c-.43-.44-.86-.68-.85-.91s.57-.59.77-.56c.38,0,.87.33.93.56S50.92,74.34,50.49,74.78Z"/><path class="cls-4" d="M59.34,74.71c-.54.3-.87.6-1.25.63s-.84-.34-.82-.5a1,1,0,0,1,.74-.65C58.36,74.16,58.76,74.46,59.34,74.71Z"/><path class="cls-4" d="M30.58,74.11c.39.38.88.65.83.87s-.63.38-1,.57c-.26-.23-.68-.46-.72-.7S30.16,74.44,30.58,74.11Z"/><path class="cls-4" d="M80.21,77.1c.35.42.73.68.71.92s-.64.56-.81.52c-.38-.09-.88-.38-.9-.6S79.71,77.49,80.21,77.1Z"/><path class="cls-4" d="M49.17,79c-.44-.43-.91-.69-.86-.89s.54-.52.91-.58c.21,0,.78.35.79.56S49.6,78.61,49.17,79Z"/><path class="cls-4" d="M73.08,78c.37.38.79.62.78.85s-.49.41-.77.61c-.33-.24-.79-.44-.93-.72C72.09,78.63,72.63,78.36,73.08,78Z"/><path class="cls-4" d="M63.28,80.23c-.42-.41-.88-.68-.85-.9s.59-.48,1-.53c.2,0,.76.36.74.54S63.7,79.83,63.28,80.23Z"/><path class="cls-4" d="M80,81c-.34-.44-.72-.71-.68-1s.64-.55.81-.5c.38.09.87.38.88.61S80.53,80.58,80,81Z"/><path class="cls-4" d="M15.39,82.63c.45.38.95.61.95.84s-.5.52-.87.59c-.21,0-.83-.31-.83-.48S15,83.06,15.39,82.63Z"/><path class="cls-4" d="M35.21,87c-.47-.4-1-.65-.94-.86s.55-.51.93-.58c.18,0,.77.34.78.54S35.59,86.59,35.21,87Z"/><path class="cls-4" d="M59.11,88.26c-.39-.42-.84-.69-.79-.9s.59-.4.91-.59c.27.24.69.46.75.72S59.55,87.89,59.11,88.26Z"/><path class="cls-4" d="M22.4,95.66c-.6.32-1,.66-1.29.64a1.21,1.21,0,0,1-.85-.63c-.05-.13.49-.52.77-.52A4.74,4.74,0,0,1,22.4,95.66Z"/><path class="cls-4" d="M71.67,102.7c.34.43.71.69.68.93s-.65.56-.82.51c-.38-.09-.87-.39-.88-.61S71.17,103.08,71.67,102.7Z"/><path class="cls-4" d="M65.74,53.27c.48.4,1,.64,1,.85s-.53.51-.91.6c-.18,0-.78-.33-.8-.53S65.38,53.69,65.74,53.27Z"/><path class="cls-4" d="M33.37,56.6c-.36-.42-.75-.68-.73-.92s.62-.56.8-.52c.38.08.89.37.91.59S33.85,56.21,33.37,56.6Z"/><path class="cls-4" d="M41.11,54.87c.43.42.86.65.87.9s-.54.57-.76.55-.89-.32-.94-.54S40.7,55.29,41.11,54.87Z"/><path class="cls-4" d="M25.87,56.65c.49.39,1,.63,1,.84s-.52.52-.9.61c-.18,0-.79-.33-.81-.53S25.51,57.07,25.87,56.65Z"/><path class="cls-4" d="M31.82,59.81c-.39-.41-.83-.68-.78-.9s.58-.39.91-.59c.26.24.68.47.74.73S32.26,59.44,31.82,59.81Z"/><path class="cls-4" d="M39.4,62.66c-.41-.39-.86-.63-.8-.8s.51-.47.79-.7c.31.21.83.4.86.63S39.82,62.26,39.4,62.66Z"/><path class="cls-4" d="M47.5,62.7c.43.36.91.59.86.76s-.51.47-.79.7c-.33-.2-.85-.38-.92-.62S47.09,63.08,47.5,62.7Z"/><path class="cls-4" d="M16.61,63.23c.43.37.93.61.9.82s-.55.44-.86.66c-.31-.22-.77-.41-.86-.67S16.2,63.62,16.61,63.23Z"/><path class="cls-4" d="M57,64.32c-.5.26-.86.57-1.11.54a3.16,3.16,0,0,1-1-.53c.3-.22.57-.59.92-.62S56.48,64,57,64.32Z"/><path class="cls-4" d="M23.74,65.3c-.42-.36-.89-.59-.85-.78s.48-.46.75-.69c.34.2.89.37.94.6S24.15,64.9,23.74,65.3Z"/><path class="cls-4" d="M41.65,65c-.61.29-1,.63-1.32.59a1.13,1.13,0,0,1-.81-.65c-.05-.13.54-.5.82-.49A4.27,4.27,0,0,1,41.65,65Z"/><path class="cls-4" d="M33.66,65.57c-.59.25-1,.55-1.34.52a1,1,0,0,1-.73-.66c0-.16.57-.52.83-.5A4.07,4.07,0,0,1,33.66,65.57Z"/><path class="cls-4" d="M66.12,66.72c-.55.28-.93.63-1.23.6s-.61-.4-.92-.62a3.16,3.16,0,0,1,1-.53C65.26,66.14,65.61,66.45,66.12,66.72Z"/><path class="cls-4" d="M10.45,67.54a4.22,4.22,0,0,1-1.33.51c-.3,0-.87-.38-.82-.51a1.19,1.19,0,0,1,.84-.64C9.46,66.87,9.84,67.22,10.45,67.54Z"/><path class="cls-4" d="M51.67,69.24c-.44.26-.85.63-1,.59a4.09,4.09,0,0,1-1.07-.62,3.23,3.23,0,0,1,1-.54C50.86,68.64,51.22,69,51.67,69.24Z"/><path class="cls-4" d="M63.84,70.15c-.36-.47-.77-.76-.69-1s.63-.37,1-.55c.23.21.68.43.65.62S64.32,69.72,63.84,70.15Z"/><path class="cls-4" d="M1.74,71.38c-.46-.39-.95-.63-.93-.85s.52-.44.8-.66c.3.22.75.41.85.67S2.11,71,1.74,71.38Z"/><path class="cls-4" d="M47.1,70.93c-.49.3-.81.65-1.15.67s-.87-.35-.89-.56.48-.54.83-.6S46.56,70.7,47.1,70.93Z"/><path class="cls-4" d="M8.41,72.43c-.41-.41-.82-.66-.82-.9s.56-.58.77-.55c.37,0,.9.34.93.55S8.84,72,8.41,72.43Z"/><path class="cls-4" d="M16.73,70.7c.51.38,1.05.61,1,.82s-.5.52-.87.62c-.17,0-.79-.31-.82-.51S16.4,71.13,16.73,70.7Z"/><path class="cls-4" d="M64,72.61c-.44-.42-.91-.67-.88-.9s.55-.5.92-.55c.21,0,.77.35.77.54S64.36,72.19,64,72.61Z"/><path class="cls-4" d="M38.23,72.93c-.45-.38-.94-.61-.94-.84s.52-.52.88-.58.83.31.83.49S38.61,72.51,38.23,72.93Z"/><path class="cls-4" d="M4,65.51c.44.42.9.68.86.89s-.55.41-.85.62c-.28-.19-.77-.38-.78-.58S3.59,66,4,65.51Z"/><path class="cls-4" d="M78.05,56.76c0,.17.09.36,0,.5a6.81,6.81,0,0,1-.63.84l-1-.54a7.55,7.55,0,0,1,.91-.66,2.44,2.44,0,0,1,.76-.11Z"/><path class="cls-4" d="M12.57,63.62a4.23,4.23,0,0,1-1.29.52c-.27,0-.81-.36-.77-.5a1.09,1.09,0,0,1,.78-.65C11.61,63,12,63.31,12.57,63.62Z"/><path class="cls-4" d="M53.66,72.94c-.38-.43-.77-.68-.77-.94s.61-.53.8-.49c.36.07.84.36.86.58S54.09,72.55,53.66,72.94Z"/><path class="cls-4" d="M56.55,81.82c-.36-.38-.77-.62-.76-.85s.47-.41.73-.61c.33.23.79.44.94.71S57,81.47,56.55,81.82Z"/><path class="cls-4" d="M2.69,79.08c-.51.25-.88.56-1.14.52S.7,79.24.69,79s.53-.59.81-.58S2.18,78.79,2.69,79.08Z"/><path class="cls-4" d="M14.9,91.68a4.18,4.18,0,0,1-1.3.55c-.27,0-.79-.38-.75-.55a1.1,1.1,0,0,1,.81-.61C14,91.05,14.33,91.38,14.9,91.68Z"/><path class="cls-4" d="M59.06,58.22c.37.46.75.72.72,1s-.52.37-.81.55c-.29-.21-.78-.41-.81-.64S58.6,58.63,59.06,58.22Z"/><path class="cls-4" d="M9.09,62.41a4.78,4.78,0,0,1-1.32.49c-.27,0-.78-.38-.73-.53a1.14,1.14,0,0,1,.81-.63C8.17,61.74,8.52,62.08,9.09,62.41Z"/><path class="cls-4" d="M59.6,72.58c-.35.16-.77.49-1,.44s-.76-.44-.74-.67.6-.45,1-.49a3.76,3.76,0,0,1,1.18.26Z"/><path class="cls-4" d="M80.84,75c.37.43.75.68.74.92s-.5.38-.78.57c-.31-.2-.85-.39-.87-.6S80.38,75.37,80.84,75Z"/><path class="cls-4" d="M74.19,59.61c-.52.28-.85.58-1.21.6s-.61-.31-.92-.49a3.32,3.32,0,0,1,1-.65C73.24,59,73.67,59.35,74.19,59.61Z"/><path class="cls-4" d="M24.69,67.17c.34.39.73.64.71.88s-.5.38-.78.57c-.31-.24-.75-.45-.88-.73C23.68,67.76,24.23,67.51,24.69,67.17Z"/><path class="cls-4" d="M17.31,67.85c-.6.27-1,.59-1.3.55a1,1,0,0,1-.75-.64c0-.17.54-.53.8-.52S16.75,67.56,17.31,67.85Z"/><path class="cls-4" d="M69.49,90.89c-.39-.41-.81-.65-.81-.9s.57-.54.81-.52.88.35.89.56S69.92,90.5,69.49,90.89Z"/><path class="cls-4" d="M72.14,77.38c-.43-.4-.9-.65-.88-.88s.55-.5.91-.54.8.34.8.53S72.54,77,72.14,77.38Z"/><path class="cls-4" d="M56.31,75.82c.41.44.81.68.8.92s-.48.4-.75.59c-.31-.2-.83-.38-.88-.61S55.88,76.25,56.31,75.82Z"/><path class="cls-4" d="M49.68,66.32c-.55.32-.88.67-1.2.66a1.16,1.16,0,0,1-.86-.58c0-.16.44-.56.71-.57A4.23,4.23,0,0,1,49.68,66.32Z"/><path class="cls-4" d="M3.93,84.19c-.45-.42-.92-.66-.88-.87s.53-.43.83-.65c.28.19.78.37.8.57S4.31,83.74,3.93,84.19Z"/><path class="cls-4" d="M42.07,80.62c.44.42.86.65.86.89s-.45.41-.71.62c-.33-.18-.87-.35-.92-.56S41.68,81.07,42.07,80.62Z"/><path class="cls-4" d="M39.65,57.87c.44.41.86.64.88.88s-.45.41-.7.62c-.34-.18-.88-.34-.94-.56S39.26,58.32,39.65,57.87Z"/><path class="cls-4" d="M9.11,87.51c-.51.29-.84.62-1.19.62s-.81-.38-.81-.58S7.62,87,8,87,8.61,87.26,9.11,87.51Z"/><path class="cls-4" d="M75.08,85.07c.39.45.78.7.76.94s-.51.38-.8.57c-.3-.21-.8-.4-.83-.62S74.64,85.49,75.08,85.07Z"/><path class="cls-4" d="M21,88.23c-.37-.38-.77-.62-.77-.86s.47-.4.73-.61c.33.23.79.43.94.71C22,87.59,21.42,87.87,21,88.23Z"/><path class="cls-4" d="M66.44,83.62c-.51.3-1,.66-1.08.61a4,4,0,0,1-1-.65c.3-.18.6-.51.89-.51S65.92,83.37,66.44,83.62Z"/><path class="cls-4" d="M69.47,62.82c-.41-.42-.87-.67-.83-.89s.53-.49.91-.56c.18,0,.76.35.74.53S69.88,62.39,69.47,62.82Z"/><path class="cls-4" d="M50,83.67c.39.44.83.71.78.93s-.58.46-1,.52c-.17,0-.71-.37-.69-.55S49.6,84.09,50,83.67Z"/><path class="cls-4" d="M66.13,74.29c-.64.26-1.07.56-1.35.51a1.06,1.06,0,0,1-.74-.66c0-.16.56-.51.83-.49S65.54,74,66.13,74.29Z"/><path class="cls-4" d="M23.1,56.82c-.52.26-.85.55-1.19.56s-.61-.32-.91-.5a4,4,0,0,1,1-.66C22.15,56.17,22.59,56.53,23.1,56.82Z"/><path class="cls-4" d="M36.91,95.53c-.45-.4-.89-.62-.92-.87s.53-.59.71-.57c.39.06.92.31,1,.53S37.3,95.11,36.91,95.53Z"/><path class="cls-4" d="M64.11,94.36c.4.41.82.65.83.89s-.55.56-.79.53-.89-.33-.91-.54S63.69,94.76,64.11,94.36Z"/><path class="cls-4" d="M74.42,68.77c.47.34,1,.59,1,.72-.13.28-.57.49-.88.73-.28-.19-.77-.38-.78-.58S74.09,69.15,74.42,68.77Z"/><path class="cls-4" d="M54.66,51.52c.33.39.72.64.7.88s-.5.38-.77.58c-.32-.24-.76-.46-.89-.74S54.19,51.86,54.66,51.52Z"/><path class="cls-4" d="M42.16,103c-.62.29-1,.62-1.31.58a1.15,1.15,0,0,1-.8-.66c0-.13.53-.49.81-.49A4.35,4.35,0,0,1,42.16,103Z"/><path class="cls-4" d="M19.22,76.17c-.43-.39-.91-.63-.88-.83s.54-.44.84-.65c.29.22.73.42.82.67S19.62,75.78,19.22,76.17Z"/><path class="cls-4" d="M58.09,61.65c-.51.26-.83.55-1.13.54s-.89-.34-.85-.47.48-.48.76-.72Z"/><path class="cls-4" d="M82.23,82.22c-.52.27-.84.57-1.19.58s-.82-.37-.78-.53a1.21,1.21,0,0,1,.83-.62C81.3,81.6,81.7,81.94,82.23,82.22Z"/><path class="cls-4" d="M51.28,54.15c.38.43.77.69.75.93s-.53.38-.82.56c-.27-.22-.72-.43-.77-.68S50.85,54.54,51.28,54.15Z"/><path class="cls-4" d="M.78,73.88c.42.41.86.65.81.84s-.51.44-.8.66C.51,75.18,0,75,0,74.8S.39,74.31.78,73.88Z"/><path class="cls-4" d="M30.44,98.78c.21.23.65.5.58.67s-.59.42-.91.63c-.27-.24-.71-.47-.76-.73s.33-.51.52-.77Z"/><path class="cls-4" d="M14.89,60.7c-.43-.4-.88-.63-.83-.82s.5-.45.78-.67c.29.19.79.37.81.57S15.27,60.27,14.89,60.7Z"/><path class="cls-4" d="M68,64.27c-.63.29-1,.58-1.34.58s-.72-.37-.72-.58.46-.58.71-.58S67.38,64,68,64.27Z"/><path class="cls-4" d="M19.83,60.45c-.55.23-1,.54-1.22.49a1.11,1.11,0,0,1-.8-.63c0-.17.59-.54.84-.51S19.32,60.15,19.83,60.45Z"/><path class="cls-4" d="M43.05,76c-.42-.34-.9-.57-.86-.73s.5-.48.78-.72c.29.22.75.42.84.67S43.42,75.6,43.05,76Z"/><path class="cls-4" d="M24.11,79c-.44.27-.81.62-1,.59s-.87-.37-.87-.58.5-.52.86-.58S23.67,78.76,24.11,79Z"/><path class="cls-4" d="M56.64,68.94c.4.34.87.58.82.75s-.52.47-.81.7c-.29-.23-.73-.43-.82-.69S56.24,69.29,56.64,68.94Z"/><path class="cls-4" d="M81.53,110.52c.4.44.81.7.8,1s-.56.49-.87.49-.8-.35-.79-.53S81.1,110.94,81.53,110.52Z"/><path class="cls-4" d="M43.49,68.16a2.92,2.92,0,0,1-1.12.4c-.29,0-.78-.45-.71-.61a1.47,1.47,0,0,1,1-.53,3.65,3.65,0,0,1,1.16.33Z"/><path class="cls-4" d="M14.27,58.51c-.59.24-.94.5-1.26.48s-.62-.28-.93-.44a2.93,2.93,0,0,1,1-.56C13.32,58,13.69,58.25,14.27,58.51Z"/><path class="cls-4" d="M49.07,57c.37.38.79.62.74.8a1.17,1.17,0,0,1-.87.47c-.31,0-.61-.3-.92-.47Z"/><path class="cls-4" d="M74.25,72a6.14,6.14,0,0,1-1.58.31c-.27,0-.44-.4-.66-.62a3,3,0,0,1,1-.36C73.36,71.36,73.64,71.65,74.25,72Z"/><path class="cls-4" d="M81.47,65.21c-.63.28-1,.55-1.28.54a2.86,2.86,0,0,1-1-.43c.25-.2.48-.56.75-.57A6,6,0,0,1,81.47,65.21Z"/><path class="cls-4" d="M81.8,84.86c0,.19.13.42,0,.57A1.7,1.7,0,0,1,81,86c-.21,0-.6-.22-.9-.34a3.61,3.61,0,0,1,.77-.68,3.81,3.81,0,0,1,1-.12Z"/><path class="cls-4" d="M62,55.81c.37.31.82.53.8.71A1,1,0,0,1,62,57a2.91,2.91,0,0,1-1-.52Z"/><path class="cls-4" d="M78.19,67.34c-.55.27-.9.57-1.16.54a2.82,2.82,0,0,1-1-.52,2.62,2.62,0,0,1,.92-.48C77.26,66.86,77.61,67.11,78.19,67.34Z"/><path class="cls-4" d="M36,68.76a4.3,4.3,0,0,1-1.29.54c-.31,0-.62-.28-.93-.44.25-.2.49-.54.76-.55A5.38,5.38,0,0,1,36,68.76Z"/><path class="cls-4" d="M29.54,82.64c-.53.26-.85.53-1.17.53s-.62-.28-.94-.44c.3-.2.56-.51.9-.56S29,82.42,29.54,82.64Z"/><path class="cls-4" d="M26.84,72.19c-.38-.3-.83-.5-.81-.69s.53-.55.74-.52a3,3,0,0,1,1,.51Z"/><path class="cls-4" d="M72.05,74.86c-.37-.3-.83-.5-.81-.69s.53-.55.74-.53a3.35,3.35,0,0,1,1,.51Z"/><path class="cls-4" d="M48.23,97.92c-.55.27-.87.55-1.17.54s-.6-.3-.91-.47c.28-.19.52-.5.83-.53S47.64,97.69,48.23,97.92Z"/><path class="cls-4" d="M66.76,108.23c.35.36.76.61.7.79a1.14,1.14,0,0,1-.86.46c-.28,0-.77-.34-.76-.52S66.31,108.56,66.76,108.23Z"/><path class="cls-4" d="M30.28,62.18c.59-.23,1-.48,1.26-.45s.55.34.82.53c-.3.16-.59.45-.91.46S30.83,62.45,30.28,62.18Z"/><path class="cls-4" d="M48.9,60.63c-.58.25-.92.52-1.22.5s-.56-.33-.84-.51c.28-.18.55-.47.85-.49S48.33,60.38,48.9,60.63Z"/><path class="cls-4" d="M55.71,66.27c.39.35.83.57.79.75s-.51.5-.79.5a1,1,0,0,1-.8-.5C54.88,66.84,55.32,66.62,55.71,66.27Z"/><path class="cls-4" d="M43.46,90.19c-.42-.34-.86-.55-.85-.73s.48-.52.76-.53a1.09,1.09,0,0,1,.82.48C44.24,89.59,43.82,89.83,43.46,90.19Z"/><path class="cls-4" d="M244.11,38.22c-.77-.83-.14-1.18.51-1.29l1-1.19,1.08.4-.93,1.06-.08,0c-.28.36-.57.71-.83,1.08-.09.14-.06.32-.16.46a2.37,2.37,0,0,1-.63.72,1.65,1.65,0,0,1-.82-.24,2,2,0,0,1,.41-.79C243.68,38.34,243.86,38.32,244.11,38.22Z"/><path class="cls-4" d="M258.07,40.11c-.47.26-.82.6-1.08.57a5.46,5.46,0,0,1-2.27-.53,3.1,3.1,0,0,1-.84-1.75c0-.14.53-.51.73-.49s.89.35.85.5c-.2.87.48,1,1.56,1.09C257.34,39.52,257.62,39.84,258.07,40.11Z"/><path class="cls-4" d="M288.77,50.69c-.47-.19-.85-.25-1-.4a.91.91,0,0,1-.14-.8,1.28,1.28,0,0,1,.85-.21c.29.15.42.44.61.67a4.58,4.58,0,0,1,.44.57c.17.29.58.73.43.86a4.46,4.46,0,0,1-1.81,1c-.54.12-.84-.63-.35-1C288.11,51.14,288.41,50.94,288.77,50.69Z"/><path class="cls-4" d="M275.23,45.06c1.54-.16,2.37.48,1.83,1.47a1.45,1.45,0,0,1-1,.37c-.26,0-.72-.42-.66-.57.27-.61-.33-.66-.91-.82a2.79,2.79,0,0,1-1.15-.53c-.09-.09.4-.44.63-.67l1.12.61A.66.66,0,0,1,275.23,45.06Z"/><path class="cls-4" d="M281.7,48.73c0-.06,0-.09,0-.12-.21-.45-.76-1,.28-1.24.33-.07,1,.39,1.39.69.61.49.37.9-.46,1.2-.22.08-.38.24-.6.31a5,5,0,0,1-1.21.32c-.15,0-.56-.34-.51-.41a4.16,4.16,0,0,1,.82-.61A1.74,1.74,0,0,1,281.7,48.73Z"/><path class="cls-4" d="M249.63,38.44c-.07.28,0,.56-.23.75a1.29,1.29,0,0,1-.86.24c-.27,0-.61-.28-.64-.47-.2-1,.93-1.73,2.42-1.61a3.45,3.45,0,0,1,1.13.54,10.22,10.22,0,0,1-1,.51A3.18,3.18,0,0,1,249.63,38.44Z"/><path class="cls-4" d="M271.77,43.48c-.76.56-1,.84-1.29.9a1.91,1.91,0,0,1-1-.24,8.51,8.51,0,0,1-1.39-.83.89.89,0,0,1-.42-.68c0-.17.39-.42.65-.45a1.88,1.88,0,0,1,.85.29c.4.18.74.42,1.16.58S271.24,43.32,271.77,43.48Z"/><path class="cls-4" d="M296.68,53a12.86,12.86,0,0,1-.72,1.81,1.35,1.35,0,0,1-.94.2.81.81,0,0,1-.48-.67,2.82,2.82,0,0,1,.45-1.27,1.38,1.38,0,0,1,.93-.43A1.73,1.73,0,0,1,296.68,53Z"/><path class="cls-4" d="M266.47,42c-.66.49-.86.77-1.16.84-.7.14-1.45.18-2.18.26,0-.24-.23-.63-.1-.69a12.46,12.46,0,0,1,2.26-.74C265.57,41.58,266,41.83,266.47,42Z"/><path class="cls-4" d="M260.68,40.71c0,.21.13.52,0,.59a7.26,7.26,0,0,1-1.34.39c-.1-.21-.32-.43-.27-.63.11-.47.14-1.06.58-1.34S260.69,39.78,260.68,40.71Z"/><path class="cls-4" d="M236.5,37.83,235.18,37a7.65,7.65,0,0,1,1.65-.62c.27,0,.68.38,1,.59Z"/><path class="cls-4" d="M240.77,34.89c.53.42,1.12.74,1,.88a1.67,1.67,0,0,1-1.1.63c-.31,0-1-.36-1-.55S240.25,35.33,240.77,34.89Z"/><path class="cls-4" d="M264.11,46c-.66.26-1.08.56-1.39.52s-.83-.41-.81-.62.58-.53.92-.54S263.51,45.7,264.11,46Z"/><path class="cls-4" d="M308.52,60.6a4.47,4.47,0,0,1-1.33.52c-.28,0-.86-.39-.8-.47a1.53,1.53,0,0,1,.89-.69C307.52,59.92,308,60.29,308.52,60.6Z"/><path class="cls-4" d="M279.9,45.79c.36.44.74.7.71.94s-.63.56-.81.52c-.38-.09-.87-.38-.89-.61S279.41,46.19,279.9,45.79Z"/><path class="cls-4" d="M268.54,48.58a4.39,4.39,0,0,1-1.25.63c-.26,0-.85-.34-.82-.51a1,1,0,0,1,.74-.65C267.55,48,268,48.33,268.54,48.58Z"/><path class="cls-4" d="M279.46,51.22c-.54.24-.94.53-1.17.48s-.86-.39-.86-.6.57-.57.87-.56S279,50.9,279.46,51.22Z"/><path class="cls-4" d="M282.24,54.23c-.59.32-1,.68-1.27.66a1.21,1.21,0,0,1-.87-.63c-.05-.13.5-.52.79-.53A4.58,4.58,0,0,1,282.24,54.23Z"/><path class="cls-4" d="M296.06,59.61c-.42-.37-.88-.6-.84-.78s.49-.46.76-.69c.34.2.89.38.94.6S296.47,59.22,296.06,59.61Z"/><path class="cls-4" d="M310.94,65.52c-.41-.45-.8-.7-.81-1s.6-.56.76-.52c.37.09.85.35.89.58S311.37,65.09,310.94,65.52Z"/><path class="cls-4" d="M262.73,40.1c.42.38.87.61.83.78s-.48.48-.74.72c-.33-.21-.84-.39-.91-.63S262.32,40.51,262.73,40.1Z"/><path class="cls-4" d="M303.5,62.8c-.41-.41-.87-.67-.84-.9s.59-.48.95-.52.77.36.75.55S303.92,62.41,303.5,62.8Z"/><path class="cls-4" d="M288.56,55.07c.4.4.86.66.82.89s-.59.38-.92.57c-.26-.23-.68-.44-.73-.69S288.15,55.43,288.56,55.07Z"/><path class="cls-4" d="M292.79,56c-.38-.36-.84-.61-.78-.78s.54-.44.83-.66c.31.21.85.4.87.62S293.23,55.68,292.79,56Z"/><path class="cls-4" d="M257.23,44.33c-.38-.45-.77-.72-.75-1s.6-.48.91-.47.77.37.75.56S257.68,43.93,257.23,44.33Z"/><path class="cls-4" d="M303.44,56.8c-.64.29-1,.58-1.34.58s-.72-.37-.73-.57.46-.59.72-.59A4.88,4.88,0,0,1,303.44,56.8Z"/><path class="cls-4" d="M270.9,45.24c-.64.32-1,.63-1.26.59a3,3,0,0,1-1-.52c.25-.17.5-.47.76-.48A6.55,6.55,0,0,1,270.9,45.24Z"/><path class="cls-4" d="M285.54,51.88c.43.31.9.51.9.7s-.53.57-.73.54a1.65,1.65,0,0,1-1-.53C284.65,52.5,285.15,52.2,285.54,51.88Z"/><path class="cls-4" d="M274.22,48.79c-.23-.21-.66-.43-.62-.62a1.09,1.09,0,0,1,.81-.49,1.28,1.28,0,0,1,.88.56c.08.25-.24.55-.39.82Z"/><path class="cls-4" d="M300.14,58.9l-1-.78c.31-.17.6-.47.92-.48a1.11,1.11,0,0,1,.84.47C300.94,58.3,300.51,58.53,300.14,58.9Z"/><path class="cls-4" d="M252.21,41c-.55.28-.86.56-1.15.56s-.6-.3-.9-.46c.26-.19.48-.5.78-.54S251.6,40.78,252.21,41Z"/><path class="cls-4" d="M26.37,52.31c-.08.4,2,1,.26,1.63-.21.07-1.26-.64-1.64-1.08-.14-.17.52-.64.88-1a9.44,9.44,0,0,1,1.07-1,7.5,7.5,0,0,1,1,.4Z"/><path class="cls-4" d="M33.73,50.17a7.16,7.16,0,0,1,.08,1.13c0,.09-.44.26-.47.24a6.57,6.57,0,0,1-2-1.4c-.15-.23.91-1,1.63-1.2s1.08.37.42,1.24Z"/><path class="cls-4" d="M46.74,43.51c.18.11.64.26.63.39a1.58,1.58,0,0,1-.47.85,3.12,3.12,0,0,1-.92.57,2.19,2.19,0,0,1-1.07.33A1.29,1.29,0,0,1,44,45c-.06-.19.31-.52.61-.67C45.25,44,45.94,43.82,46.74,43.51Z"/><path class="cls-4" d="M39.63,46.43A5.58,5.58,0,0,1,39.36,48c-.09.18-.73.25-1.12.38-.16-.25-.53-.53-.47-.75.18-.65.3-1.45,1.87-1.15Z"/><path class="cls-4" d="M39.64,46.43a3.21,3.21,0,0,1,.66-.35c.41-.11.86-.17,1.29-.25.06.29.13.58.19.87-.46,0-.92,0-1.37,0a3.76,3.76,0,0,1-.78-.26Z"/><path class="cls-4" d="M46.42,46.66a4.66,4.66,0,0,1-1.33.59c-.26,0-.83-.36-.8-.52a1.1,1.1,0,0,1,.78-.64C45.41,46.07,45.8,46.38,46.42,46.66Z"/><path class="cls-4" d="M36.81,48.24c-.55.21-1,.49-1.2.44s-.83-.41-.82-.62.61-.56.91-.54S36.32,47.9,36.81,48.24Z"/><path class="cls-4" d="M40.21,48.66c.37.41.76.66.77.91s-.57.56-.73.53c-.37-.08-.89-.34-.91-.55S39.79,49.07,40.21,48.66Z"/><path class="cls-4" d="M51.87,46.33c.41.44.81.69.81.93s-.53.52-.81.52-.85-.33-.84-.51S51.45,46.77,51.87,46.33Z"/><path class="cls-4" d="M47.31,50.68l-1-.68a2.88,2.88,0,0,1,1-.54,1,1,0,0,1,.79.5C48.12,50.15,47.68,50.37,47.31,50.68Z"/><path class="cls-4" d="M133.57,41.92a2.86,2.86,0,0,1,2.78-.08,2.08,2.08,0,0,0,1.37-.1c.38-.39.67-.91,1.42-.58.37.16.32.74.47,1.16l1.15.81-1,.43c-.3-.35-.61-.69-.91-1-.88-.64-.82,1.52-2.45.36-.58-.41-2.28,0-2.75-1Z"/><path class="cls-4" d="M165.75,44.16a3.28,3.28,0,0,1,1,.24.72.72,0,0,1,.28.69.94.94,0,0,1-.71.39,2.23,2.23,0,0,1-.85-.44,8.71,8.71,0,0,1-.81-.63c-.27-.25-.49-.51-.73-.77.35-.15.77-.45,1-.4s.53.42.76.66C165.75,44,165.73,44.07,165.75,44.16Z"/><path class="cls-4" d="M198,32.07l.4.06c.26-.49.49-.92.71-1.35.33.1.94.23.93.31a3.93,3.93,0,0,1-.43,1.08l-.37-.06a.71.71,0,0,1,.06.24,2.62,2.62,0,0,1-.21.95,2.1,2.1,0,0,1-.9,0,3.24,3.24,0,0,1-.16-1,2.43,2.43,0,0,1,0-.27Z"/><path class="cls-4" d="M148.28,44.69c-.1-.21-.34-.44-.28-.64a3.58,3.58,0,0,1,.58-.83c.34.17.83.3,1,.54a1.33,1.33,0,0,1,.27,1.08c-.08.26-.6.45-.92.67l-1-.64Z"/><path class="cls-4" d="M176.81,42.49c-.23.16-.45.45-.75.48a1.4,1.4,0,0,1-.9-.32,1.57,1.57,0,0,1-.5-.86,2.17,2.17,0,0,1,.19-.84c.43.08,1.05.07,1.25.26A4.25,4.25,0,0,1,176.81,42.49Z"/><path class="cls-4" d="M159.64,44.08a18.33,18.33,0,0,1-2,1.22c-.11.05-.68-.31-1-.48l1.77-1.43Z"/><path class="cls-4" d="M207.94,32.39c.57-.25,1.1-.59,1.25-.53a2,2,0,0,1,1.05.84c.06.17-.57.46-.89.71Z"/><path class="cls-4" d="M198,34.72c-.6.31-1,.63-1.28.62s-.64-.35-1-.54c.31-.22.56-.57.92-.62S197.39,34.45,198,34.72Z"/><path class="cls-4" d="M161,41.3c-.49-.38-1-.59-1-.82s.49-.6.8-.61a1.23,1.23,0,0,1,.92.53C161.77,40.62,161.34,40.89,161,41.3Z"/><path class="cls-4" d="M172.06,43c.12-.15.19-.35.39-.44a8,8,0,0,1,1.14-.33l.39.89a13.09,13.09,0,0,1-1.39.14c-.19,0-.38-.18-.57-.27Z"/><path class="cls-4" d="M149.51,38.6c-.62.25-1,.52-1.27.48a3,3,0,0,1-1-.56c.31-.22.64-.62.92-.6S148.93,38.27,149.51,38.6Z"/><path class="cls-4" d="M82.14,56.23c-.36-.36-.82-.63-.74-.77s.6-.47.93-.69c.29.22.78.45.8.68S82.61,55.88,82.14,56.23Z"/><path class="cls-4" d="M198,32.05a3,3,0,0,1-.94.24c-.37,0-1-.15-1-.3s.23-.55.37-.83a5.28,5.28,0,0,1,1.08.31c.25.13.33.4.49.6Z"/><path class="cls-4" d="M177.43,32.61c.44.43.87.67.86.91s-.51.4-.8.61c-.32-.21-.85-.39-.92-.63S177,33,177.43,32.61Z"/><path class="cls-4" d="M157.53,37.46c.42.41.9.67.87.9s-.57.48-1,.54c-.2,0-.77-.35-.75-.53S157.12,37.88,157.53,37.46Z"/><path class="cls-4" d="M195.31,40c-.52.25-.9.56-1.17.52s-.89-.37-.88-.57.55-.58.85-.58S194.8,39.68,195.31,40Z"/><path class="cls-4" d="M130.82,43.34c-.57.34-.91.71-1.23.7a1.27,1.27,0,0,1-.9-.6c-.07-.13.46-.53.75-.55A4.66,4.66,0,0,1,130.82,43.34Z"/><path class="cls-4" d="M146.91,43.65c-.51.28-.86.6-1.13.57a2.71,2.71,0,0,1-1-.52c.28-.22.54-.61.86-.63S146.34,43.38,146.91,43.65Z"/><path class="cls-4" d="M128.18,44.18c-.57.27-1,.6-1.28.58s-.58-.41-.86-.64a3.18,3.18,0,0,1,1-.52C127.33,43.58,127.67,43.9,128.18,44.18Z"/><path class="cls-4" d="M133.16,46c-.56.25-1,.57-1.3.53s-.54-.44-.8-.68a2.93,2.93,0,0,1,1.06-.47C132.4,45.37,132.7,45.71,133.16,46Z"/><path class="cls-4" d="M82.11,46.87c.44.36,1,.63.88.74-.17.29-.61.49-.94.73-.28-.2-.78-.4-.78-.61S81.7,47.26,82.11,46.87Z"/><path class="cls-4" d="M102.09,50.32c-.53.24-.92.54-1.15.49s-.87-.38-.88-.58.56-.58.86-.58S101.58,50,102.09,50.32Z"/><path class="cls-4" d="M95.35,51.83c-.54.28-.91.61-1.16.58a3,3,0,0,1-1-.57c.31-.21.6-.55,1-.59S94.82,51.56,95.35,51.83Z"/><path class="cls-4" d="M89.11,53.54c-.52.3-.86.64-1.2.64s-.85-.37-.85-.59.52-.52.87-.57S88.58,53.3,89.11,53.54Z"/><path class="cls-4" d="M208.18,31.21c-.61.29-1,.57-1.31.57s-.82-.37-.78-.53a1.12,1.12,0,0,1,.8-.63C207.18,30.59,207.57,30.91,208.18,31.21Z"/><path class="cls-4" d="M213.09,33.89c-.62.26-1,.55-1.35.54s-.82-.37-.78-.54a1.1,1.1,0,0,1,.82-.6C212.12,33.28,212.48,33.59,213.09,33.89Z"/><path class="cls-4" d="M204.94,35.62c.33-.14.72-.43,1-.38s.62.37.92.58c-.32.2-.61.55-1,.57a3.79,3.79,0,0,1-1.24-.39Z"/><path class="cls-4" d="M176.14,37.81c.4.43.85.7.8.93s-.61.37-.95.55c-.24-.2-.7-.41-.68-.6S175.74,38.21,176.14,37.81Z"/><path class="cls-4" d="M153.21,39.55c.46.42.92.66.9.88s-.52.43-.81.64c-.29-.19-.79-.36-.81-.56S152.84,40,153.21,39.55Z"/><path class="cls-4" d="M157.1,39.57c.41.39.84.62.79.8s-.5.46-.78.69c-.31-.21-.81-.4-.86-.64S156.68,40,157.1,39.57Z"/><path class="cls-4" d="M169.5,40.78c-.54.28-.93.63-1.2.59s-.59-.41-.88-.63a3,3,0,0,1,1-.52C168.67,40.19,169,40.51,169.5,40.78Z"/><path class="cls-4" d="M171.81,41.86c-.38-.43-.83-.71-.75-.91s.62-.39,1-.58c.26.22.74.44.73.65S172.27,41.47,171.81,41.86Z"/><path class="cls-4" d="M172,43c-.15.17-.23.43-.46.5a7,7,0,0,1-1.25.14c0-.29-.07-.58-.1-.86a10.27,10.27,0,0,1,1.24,0,2.1,2.1,0,0,1,.6.26Z"/><path class="cls-4" d="M167.84,44.31c-.36-.38-.77-.62-.76-.86s.47-.4.73-.6c.33.23.79.43.93.71C168.81,43.68,168.28,44,167.84,44.31Z"/><path class="cls-4" d="M162.8,43.86c-.48.33-.78.71-1.08.71s-.66-.35-1-.55a2.87,2.87,0,0,1,.9-.61C161.87,43.36,162.27,43.65,162.8,43.86Z"/><path class="cls-4" d="M116.94,47.67c-.52.29-.87.64-1.18.63s-.6-.39-.9-.6a2.75,2.75,0,0,1,1-.55C116.07,47.11,116.44,47.42,116.94,47.67Z"/><path class="cls-4" d="M76.07,48.79c.38.46.79.74.72,1s-.6.38-.93.57c-.25-.22-.7-.43-.69-.64S75.62,49.21,76.07,48.79Z"/><path class="cls-4" d="M166.94,39.35c-.44-.41-.85-.65-.88-.9s.46-.53.74-.54.86.29.87.46S167.31,38.89,166.94,39.35Z"/><path class="cls-4" d="M150.64,40.61c-.43.27-.79.63-1,.59s-.87-.36-.88-.57.5-.52.86-.59C149.82,40,150.2,40.36,150.64,40.61Z"/><path class="cls-4" d="M143.43,41.22c-.51.25-.84.54-1.14.52s-.89-.35-.85-.47c.09-.27.5-.48.78-.72Z"/><path class="cls-4" d="M150.67,44c.64-.29,1-.58,1.35-.58s.72.38.72.59-.47.57-.73.57S151.31,44.29,150.67,44Z"/><path class="cls-4" d="M214.34,37.86c-.15-.27-.48-.58-.39-.81a1.35,1.35,0,0,1,.92-.57c.21,0,.77.31.8.5s-.41.41-.65.62Z"/><path class="cls-4" d="M155.16,44.87l-.92-.85c.33-.16.67-.44,1-.43s.76.32.79.52S155.59,44.51,155.16,44.87Z"/><path class="cls-4" d="M202,30.63l-1-.77c.31-.18.6-.48.92-.49a1.11,1.11,0,0,1,.84.47C202.76,30,202.34,30.26,202,30.63Z"/><path class="cls-4" d="M141.68,45.42a5.1,5.1,0,0,1-1.43.41c-.27,0-.48-.37-.72-.58.32-.15.65-.42,1-.41S141.12,45.13,141.68,45.42Z"/><path class="cls-4" d="M142.65,42.66l1,.7a3.1,3.1,0,0,1-1,.51,1,1,0,0,1-.76-.51C141.84,43.17,142.29,43,142.65,42.66Z"/><path class="cls-4" d="M166,40.46c-.6.29-.92.56-1.25.57s-.64-.26-1-.41c.24-.21.46-.56.72-.58A5.77,5.77,0,0,1,166,40.46Z"/><path class="cls-4" d="M147.09,40.91c-.6.24-1,.51-1.25.48s-.6-.34-.9-.52c.31-.17.6-.46.92-.48S146.5,40.64,147.09,40.91Z"/><path class="cls-4" d="M108.13,48.14c.39.34.84.56.81.74a1.07,1.07,0,0,1-.8.51,1.13,1.13,0,0,1-.85-.52C107.24,48.71,107.72,48.48,108.13,48.14Z"/><path class="cls-4" d="M204.52,29.3c.34.35.77.59.72.77a1.12,1.12,0,0,1-.85.47c-.31,0-.77-.33-.8-.54S204.07,29.62,204.52,29.3Z"/></g></g></g></svg>