<svg xmlns="http://www.w3.org/2000/svg" viewBox="0 0 27.78 28.05"><defs><style>.cls-1{fill:#375d81;}</style></defs><title>资源 14</title><g id="图层_2" data-name="图层 2"><g id="Layer_1" data-name="Layer 1"><path class="cls-1" d="M27.78,9.82c0-1.61-1.58-3.24-4.36-4.34A4.29,4.29,0,0,0,23,5.32V5c0-1.61-1.58-3.24-4.36-4.34S7.94,0,5,.81.49,3.27.07,5.64A3.59,3.59,0,0,0,1.38,9.2s0,7.86,0,9.78,0,2.59,1.12,3.4a6.15,6.15,0,0,0,2.93.84l.78-.08v.67c0,1.93,0,2.59,1.11,3.4a6.17,6.17,0,0,0,2.94.84S23,26.86,24.77,26.58s1.64-2.35,1.64-2.35V13.42C27.65,12.81,27.78,11.42,27.78,9.82ZM6.16,22.22C3.74,22.48,4.21,21,4.21,21V9.2c-1,0-1.38-1.31-1.38-1.66s-.17-3.11,2-4.41S12.17,1.63,16,1.63s5.89,1.56,6,3.48a38.11,38.11,0,0,0-12.23.53c-3,.78-4.45,2.46-4.87,4.82A3.62,3.62,0,0,0,6.21,14s0,5.22,0,8.19Zm19.31-9.39s.07,9.91.07,11.36a1.4,1.4,0,0,1-1.43,1.44L11,27.05C8.57,27.31,9,25.79,9,25.79V14c-1,0-1.38-1.31-1.38-1.66S7.48,9.26,9.69,8,17,6.46,20.82,6.46c.35,0,.7,0,1,0s.69.08,1,.13c2.55.48,4,1.86,4,3.47C26.83,12.48,25.47,12.83,25.47,12.83Z"/></g></g></svg>