<svg xmlns="http://www.w3.org/2000/svg" viewBox="0 0 57.61 51.71"><defs><style>.cls-1{fill:#00b8de;}.cls-2{fill:#ff7000;}</style></defs><title>资源 18</title><g id="图层_2" data-name="图层 2"><g id="Layer_1" data-name="Layer 1"><polygon class="cls-1" points="57.6 8.88 57.6 0 9.95 0 0.18 9.77 0.18 14.54 51.95 14.54 57.6 8.88"/><rect class="cls-1" x="10.36" y="14.54" width="0.36" height="5.09"/><polygon class="cls-2" points="32.16 48.38 32.35 48.38 32.35 43.25 5.55 43.25 0 48.8 0 51.71 29.09 51.71 32.35 48.45 32.35 48.38 32.16 48.38 32.04 48.25 28.94 51.35 0.36 51.35 0.36 48.95 5.7 43.61 31.98 43.61 31.98 48.38 32.16 48.38 32.04 48.25 32.16 48.38"/><polygon class="cls-2" points="32.16 24.57 32.35 24.57 32.35 19.44 5.55 19.44 0 24.99 0 27.91 29.09 27.91 32.35 24.65 32.35 24.57 32.16 24.57 32.04 24.44 28.94 27.54 0.36 27.54 0.36 25.14 5.7 19.81 31.98 19.81 31.98 24.57 32.16 24.57 32.04 24.44 32.16 24.57"/><rect class="cls-2" x="10.36" y="27.74" width="0.36" height="3.82"/><polygon class="cls-2" points="32.16 36.48 32.35 36.48 32.35 31.35 5.55 31.35 0 36.89 0 39.81 29.09 39.81 32.35 36.55 32.35 36.48 32.16 36.48 32.04 36.35 28.94 39.44 0.36 39.44 0.36 37.04 5.7 31.71 31.98 31.71 31.98 36.48 32.16 36.48 32.04 36.35 32.16 36.48"/><rect class="cls-2" x="10.36" y="39.55" width="0.36" height="3.98"/></g></g></svg>