<svg xmlns="http://www.w3.org/2000/svg" viewBox="0 0 158.8 263.07"><defs><style>.cls-1,.cls-3{fill:#00b4eb;}.cls-1{opacity:0.3;}.cls-2{fill:none;}.cls-2,.cls-3{stroke:#00b4eb;stroke-miterlimit:10;}</style></defs><title>资源 2</title><g id="图层_2" data-name="图层 2"><g id="Layer_2" data-name="Layer 2"><polygon class="cls-1" points="13.76 18.32 13.76 146.86 0.5 160.12 0.5 249.09 13.98 262.57 53.53 262.57 72.58 243.51 157.6 243.51 146.37 232.29 68.33 232.29 56.74 243.87 28.43 243.87 28.43 89.63 48.88 69.18 48.88 34.91 29.89 15.92 29.89 1.26 13.76 18.32"/><polygon class="cls-2" points="13.76 18.32 13.76 146.86 0.5 160.12 0.5 249.09 13.98 262.57 53.53 262.57 72.58 243.51 157.6 243.51 146.37 232.29 68.33 232.29 56.74 243.87 28.43 243.87 28.43 89.63 48.88 69.18 48.88 34.91 29.89 15.92 29.89 1.26 13.76 18.32"/><polygon class="cls-3" points="35.89 237.49 35.89 115.22 46.67 104.43 46.67 162.36 52.74 168.42 52.74 211.6 42.34 222 42.34 237.49 35.89 237.49"/><polyline class="cls-2" points="65.64 2.83 65.64 128.19 55.24 138.58 55.24 156.47 64.05 165.28 64.05 217.55 106.95 217.55"/></g></g></svg>