<svg xmlns="http://www.w3.org/2000/svg" viewBox="0 0 29.56 27.84"><defs><style>.cls-1{fill:#00b8de;}.cls-2{fill:#ff7000;}</style></defs><title>资源 17</title><g id="图层_2" data-name="图层 2"><g id="Layer_1" data-name="Layer 1"><polygon class="cls-1" points="4.12 22.89 4.28 22.8 0.42 16.12 4.23 9.53 11.84 9.53 15.64 16.12 11.84 22.71 4.12 22.71 4.12 22.89 4.28 22.8 4.12 22.89 4.12 23.08 12.05 23.08 16.06 16.12 12.05 9.16 4.02 9.16 0 16.12 4.02 23.08 4.12 23.08 4.12 22.89"/><polygon class="cls-1" points="22.07 20.32 22.23 20.23 19.86 16.12 22.18 12.1 26.82 12.1 29.14 16.12 26.82 20.14 22.07 20.14 22.07 20.32 22.23 20.23 22.07 20.32 22.07 20.5 27.03 20.5 29.56 16.12 27.03 11.74 21.97 11.74 19.44 16.12 21.97 20.5 22.07 20.5 22.07 20.32"/><rect class="cls-1" x="15.79" y="15.87" width="3.93" height="0.36"/><rect class="cls-1" x="10.97" y="7.27" width="4.71" height="0.36" transform="translate(-0.53 13.87) rotate(-54.07)"/><rect class="cls-1" x="12.58" y="22.73" width="0.36" height="2.6" transform="translate(-11.67 12.06) rotate(-35.92)"/><polygon class="cls-2" points="13.46 27.66 13.62 27.57 12.9 26.33 13.57 25.18 14.9 25.18 15.56 26.33 14.9 27.48 13.46 27.48 13.46 27.66 13.62 27.57 13.46 27.66 13.46 27.84 15.11 27.84 15.98 26.33 15.11 24.81 13.36 24.81 12.48 26.33 13.36 27.84 13.46 27.84 13.46 27.66"/><polygon class="cls-2" points="14.76 5.52 14.91 5.43 13.43 2.85 14.86 0.36 17.73 0.36 19.17 2.85 17.73 5.34 14.76 5.34 14.76 5.52 14.91 5.43 14.76 5.52 14.76 5.7 17.95 5.7 19.59 2.85 17.95 0 14.65 0 13.01 2.85 14.65 5.7 14.76 5.7 14.76 5.52"/></g></g></svg>