<svg xmlns="http://www.w3.org/2000/svg" viewBox="0 0 282.6 332.92"><defs><style>.cls-1{fill:aqua;}.cls-2{opacity:0.35;}</style></defs><title>资源 3</title><g id="图层_2" data-name="图层 2"><g id="Layer_1" data-name="Layer 1"><path class="cls-1" d="M68.93,208.94A70.93,70.93,0,0,1,84.15,131.1l1.41,1.41a69,69,0,0,0-14.78,75.65Z"/><path class="cls-1" d="M134.35,252.3a70.82,70.82,0,0,1-50.2-20.79l1.41-1.42a69.09,69.09,0,0,0,75.65,14.79l.78,1.84A70.41,70.41,0,0,1,134.35,252.3Z"/><path class="cls-1" d="M184.56,231.51l-1.42-1.42A69,69,0,0,0,107.5,117.72l-.78-1.84a71,71,0,0,1,77.84,115.63Z"/><path class="cls-1" d="M134.35,270.63a89.33,89.33,0,1,1,89.33-89.33A89.43,89.43,0,0,1,134.35,270.63Zm0-169.66a80.33,80.33,0,1,0,80.33,80.33A80.43,80.43,0,0,0,134.35,101Z"/><path class="cls-1" d="M134.35,305.86A124.56,124.56,0,1,1,258.91,181.3,124.7,124.7,0,0,1,134.35,305.86Zm0-247.11A122.56,122.56,0,1,0,256.91,181.3,122.69,122.69,0,0,0,134.35,58.75Z"/><g class="cls-2"><path class="cls-1" d="M134.35,332.92A151.52,151.52,0,0,1,4.57,259.72l-.19-.31,4.09-28.63,2,.29L6.46,259a148.64,148.64,0,0,0,127.89,71.93,150.42,150.42,0,0,0,28.93-2.8l23.29-24,1.44,1.39L164.28,330,164,330A152.7,152.7,0,0,1,134.35,332.92Z"/></g><g class="cls-2"><path class="cls-1" d="M268.52,165.71,267,164.46l13.48-17C264.69,79.11,204.68,31.39,134.35,31.39A149.81,149.81,0,0,0,36.06,68.11L23.9,106.49,22,105.88,34.32,67l.22-.18a152,152,0,0,1,248,80.73l.1.47Z"/></g><g class="cls-2"><path class="cls-1" d="M134.35,286.19A104.89,104.89,0,1,1,239.24,181.3,105,105,0,0,1,134.35,286.19Zm0-207.77A102.89,102.89,0,1,0,237.24,181.3,103,103,0,0,0,134.35,78.42Z"/></g><g class="cls-2"><path class="cls-1" d="M134.14,284.32v-6h1l0,6Zm-2.07,0-1,0,.19-6,1,0Zm5.15,0-.16-6c.33,0,.65,0,1,0l.23,6Zm-8.25-.1-1-.05.37-6,1,.05Zm11.35,0-.35-6,1-.06.41,6ZM125.88,284l-1-.09.54-6,1,.08Zm17.53-.05-.53-6,1-.09.58,6Zm-20.61-.25-1-.12.72-5.95,1,.11Zm23.68-.06-.7-6,1-.12.75,5.95Zm-26.75-.33-1-.15.91-5.93.95.14Zm29.82-.08-.88-5.94,1-.15.93,5.93Zm-32.87-.4-1-.18,1.09-5.9,1,.17Zm35.92-.1-1-5.91.95-.17,1.13,5.89Zm-39-.47-1-.22,1.26-5.86,1,.2Zm42-.12-1.22-5.87.94-.21,1.3,5.86Zm-45-.55-1-.24L111,275.5l.95.23Zm48.07-.13-1.41-5.84.94-.23,1.48,5.82Zm-51.07-.63-1-.27,1.61-5.78.94.26Zm54.06-.15-1.57-5.79.93-.26,1.64,5.77Zm-57-.69-1-.31,1.78-5.73.94.29Zm60-.17-1.76-5.74.93-.29,1.82,5.72Zm-63-.78-1-.33,1.95-5.67.93.31Zm65.93-.18-1.93-5.68.91-.31,2,5.65ZM98.72,278l-1-.36L99.89,272l.91.35Zm71.79-.19-2.11-5.62.91-.34,2.16,5.59Zm-74.68-.92-1-.4,2.31-5.54.9.37Zm77.56-.21-2.28-5.55.9-.38,2.33,5.54Zm-80.43-1-.94-.42,2.46-5.47.9.4Zm83.27-.22L173.78,270l.89-.4,2.5,5.45Zm-86.09-1.07-.94-.46,2.64-5.38.87.42Zm88.88-.22-2.6-5.41.87-.42,2.66,5.38ZM87.35,273l-.91-.47,2.79-5.32.87.46Zm94.44-.22L179,267.45l.86-.45,2.82,5.3Zm-97.18-1.24-.89-.5,2.94-5.23.86.48Zm99.9-.23-2.93-5.23.85-.49,3,5.22ZM81.92,270l-.88-.53,3.1-5.13.84.5Zm105.26-.23-3.08-5.15.83-.51,3.13,5.12Zm-107.9-1.39-.87-.56,3.26-5,.82.52Zm110.53-.24-3.24-5.05.82-.53,3.28,5ZM76.69,266.68l-.86-.58,3.42-4.94.8.55Zm115.7-.25L189,261.48l.8-.55,3.43,4.92ZM74.15,264.91l-.84-.61,3.56-4.83.78.57Zm120.76-.26-3.53-4.85.78-.57,3.59,4.81Zm-123.25-1.6-.82-.63,3.7-4.72.78.6Zm125.72-.25-3.67-4.75.76-.6,3.73,4.71ZM69.23,261.13l-.8-.66,3.84-4.61.76.63Zm130.57-.26L196,256.24l.75-.63,3.85,4.6ZM66.86,259.14l-.78-.69,4-4.49.73.64Zm135.3-.28-3.95-4.51.73-.64,4,4.47ZM64.55,257.07l-.76-.71L67.91,252l.71.66Zm139.91-.28-4.08-4.39.7-.67,4.13,4.36ZM62.31,254.94l-.74-.73L65.82,250l.68.68Zm144.38-.29-4.21-4.27.69-.68,4.26,4.22ZM60.13,252.74c-.24-.24-.48-.49-.71-.74l4.36-4.12.67.7Zm148.73-.29-4.33-4.16.66-.7,4.38,4.1C209.34,252,209.1,252.2,208.86,252.45ZM58,250.48c-.24-.25-.47-.51-.69-.77l4.48-4,.65.72Zm153-.3-4.46-4,.64-.72,4.51,4Zm-155-2-.66-.79,4.6-3.85c.21.25.41.5.62.74Zm157-.32L208.42,244l.64-.76,4.61,3.84ZM54,245.78l-.64-.81,4.71-3.71.6.76Zm161-.34-4.69-3.73.6-.77,4.73,3.7ZM52.1,243.33l-.62-.82,4.82-3.57.59.78ZM216.87,243l-4.81-3.59.59-.79,4.83,3.56Zm-166.6-2.15-.59-.84,4.93-3.43.55.8Zm168.42-.36L213.78,237l.55-.8,4.95,3.4ZM48.52,238.29l-.57-.86,5-3.27.54.81Zm171.91-.37-5-3.3.53-.82,5.05,3.26ZM46.85,235.69l-.54-.87,5.12-3.12.51.82Zm175.25-.38L217,232.16l.51-.83,5.14,3.09ZM45.25,233.05l-.51-.89,5.22-3,.48.84Zm178.44-.41-5.2-3,.48-.85,5.23,2.94ZM43.74,230.35l-.49-.9,5.31-2.81.45.86Zm181.46-.42-5.29-2.83.45-.86,5.32,2.78ZM42.31,227.62c-.16-.31-.31-.61-.46-.92l5.39-2.65c.14.29.28.58.43.87Zm184.3-.43-5.36-2.7c.15-.29.29-.58.43-.87l5.4,2.63C226.92,226.56,226.77,226.87,226.61,227.19ZM41,224.84l-.43-.93L46,221.42l.41.89Zm187-.46-5.45-2.52c.14-.3.28-.59.41-.89l5.47,2.47ZM39.7,222l-.4-.94,5.53-2.33.38.9Zm189.52-.5-5.52-2.34.37-.9,5.55,2.29Zm-190.7-2.35-.37-1,5.59-2.16.36.91Zm191.87-.52-5.59-2.18c.12-.3.23-.61.35-.91l5.61,2.12C230.64,218,230.52,218.34,230.39,218.66Zm-193-2.38-.34-1,5.66-2,.33.91Zm194.05-.53-5.65-2,.32-.93,5.67,2Zm-195-2.4-.32-1,5.72-1.81.3.92Zm196.05-.55L226.76,211l.29-.93,5.73,1.78Zm-197-2.41c-.1-.33-.19-.66-.29-1L41,207.77c.08.31.17.62.26.93Zm197.87-.56-5.76-1.66c.09-.31.17-.62.26-.93l5.78,1.59C233.56,209.17,233.47,209.5,233.37,209.83Zm-198.7-2.42-.26-1L40.24,205c.07.32.15.63.24.94Zm199.51-.56-5.81-1.5c.08-.31.16-.62.23-.93l5.83,1.42C234.35,206.17,234.27,206.51,234.18,206.85ZM33.93,204.4c-.07-.33-.15-.67-.22-1l5.86-1.28.21.95Zm201-.57-5.85-1.31c.07-.32.14-.63.2-1l5.87,1.25C235.05,203.16,235,203.49,234.9,203.83ZM33.29,201.37c-.07-.34-.13-.68-.2-1l5.9-1.11.18,1Zm202.24-.58-5.89-1.12.18-1,5.9,1.07Zm-202.8-2.47c0-.34-.11-.68-.16-1l5.93-.92.15,1Zm203.34-.57-5.93-1c.06-.32.1-.64.15-1l5.94.9C236.17,197.07,236.12,197.41,236.07,197.75Zm-203.8-2.49c0-.34-.09-.68-.13-1l6-.75c0,.32.08.64.13,1Zm204.24-.58-5.95-.77.12-1,6,.72ZM31.9,192.18l-.1-1,6-.57.1,1Zm205-.57-6-.6q.06-.48.09-1l6,.52C236.93,190.92,236.9,191.26,236.86,191.61ZM31.62,189.1c0-.34-.05-.68-.07-1l6-.38.07,1Zm205.5-.58-6-.42.06-1,6,.35C237.17,187.83,237.15,188.18,237.12,188.52ZM31.44,186c0-.34,0-.68,0-1l6-.21c0,.33,0,.65,0,1Zm205.85-.59-6-.22,0-1,6,.18Zm-205.94-2.5c0-.34,0-.68,0-1l6,0v1Zm206-.59-6-.05v-1.12h6Zm-200-2.42-6-.08,0-1,6,.14Zm194-.69c0-.32,0-.64,0-1l6-.2,0,1ZM37.43,177l-6-.27c0-.34,0-.68.05-1l6,.33Zm193.82-.69-.06-1,6-.37.06,1ZM37.6,174.08l-6-.44c0-.34.06-.68.08-1l6,.5C37.65,173.44,37.62,173.76,37.6,174.08Zm193.46-.68-.09-1,6-.55.09,1Zm-193.2-2.22-6-.62.11-1,6,.68Zm192.92-.68-.11-1,6-.72.12,1ZM38.2,168.28l-6-.8.15-1,5.93.86C38.29,167.64,38.24,168,38.2,168.28Zm192.21-.68-.14-1,5.94-.9.15,1ZM38.63,165.4l-5.92-1c.06-.34.11-.68.17-1l5.91,1C38.74,164.76,38.68,165.08,38.63,165.4ZM230,164.72l-.17-1,5.91-1.07.17,1ZM39.15,162.53l-5.89-1.16.2-1,5.88,1.21Zm190.27-.68c-.06-.31-.13-.63-.19-.94l5.86-1.27.21,1ZM39.75,159.68l-5.85-1.34.24-1L40,158.73C39.9,159.05,39.82,159.36,39.75,159.68ZM228.8,159c-.07-.31-.15-.62-.23-.94l5.83-1.44.24,1ZM40.44,156.84l-5.81-1.5.27-1,5.79,1.58C40.61,156.22,40.52,156.53,40.44,156.84Zm187.65-.67c-.08-.31-.17-.62-.26-.93l5.78-1.61c.1.33.19.67.28,1ZM41.22,154l-5.76-1.68c.1-.33.19-.66.29-1l5.74,1.74Zm186.07-.66c-.09-.31-.18-.62-.28-.92l5.73-1.79.3,1ZM42.08,151.24l-5.7-1.86c.1-.33.21-.65.32-1l5.69,1.91Zm184.33-.65-.31-.92,5.68-1.95.33,1ZM43,148.47l-5.65-2,.36-1,5.62,2.08Zm182.42-.63-.34-.91,5.61-2.12.36,1ZM44.06,145.73l-5.58-2.2.38-1,5.56,2.26Zm180.34-.61-.36-.9,5.54-2.3.39,1ZM45.17,143l-5.51-2.37.42-.95,5.48,2.42Zm178.1-.6c-.12-.29-.25-.58-.38-.87l5.46-2.47c.15.31.29.63.43.95Zm-176.9-2.07-5.44-2.54.44-.93,5.42,2.59Zm175.7-.56-.42-.88,5.4-2.62.44.92ZM47.64,137.73,42.29,135l.47-.92,5.33,2.75Zm173.15-.54-.45-.87,5.32-2.78.47.91ZM49,135.14l-5.28-2.86.5-.9,5.25,2.9Zm170.42-.52-.47-.85,5.23-2.94.5.9Zm-169-2-5.19-3,.53-.9,5.15,3.07Zm167.56-.5-.5-.83,5.14-3.1.52.88Zm-166-2-5.1-3.17c.18-.3.37-.59.56-.88l5.05,3.23Zm164.53-.48-.52-.82,5-3.25.55.87Zm-163-2-5-3.33.58-.86,5,3.37Zm161.37-.47-.55-.8,4.94-3.41.59.86ZM55.17,125.23l-4.89-3.47.6-.85,4.86,3.53Zm158.05-.45-.57-.79,4.83-3.55.61.84ZM56.89,122.87l-4.78-3.62.62-.81,4.76,3.66Zm154.59-.43-.59-.77,4.73-3.69.63.82ZM58.69,120.57,54,116.81c.22-.27.44-.53.65-.8l4.64,3.8Zm151-.42-.61-.75,4.62-3.83.66.8ZM60.55,118.33,56,114.42l.67-.78,4.53,4Zm147.25-.42-.63-.73,4.5-4,.68.78ZM62.48,116.13l-4.44-4,.69-.76,4.41,4.08Zm143.39-.39-.66-.71,4.38-4.11c.23.26.47.51.7.76ZM64.47,114l-4.32-4.16.72-.74,4.28,4.2Zm139.39-.38-.68-.69,4.26-4.23.73.74ZM66.53,111.93l-4.2-4.29.74-.72,4.15,4.34Zm135.27-.37-.7-.67,4.13-4.35.74.71ZM68.64,109.93l-4.06-4.42.76-.69,4,4.45Zm131-.36-.73-.66,4-4.47.76.69ZM70.81,108l-3.93-4.53.78-.67,3.89,4.57Zm126.68-.35-.74-.63,3.85-4.59.79.67ZM73,106.11l-3.79-4.65.8-.65,3.75,4.69Zm122.21-.34-.76-.61,3.72-4.71.8.65ZM75.33,104.3l-3.66-4.76.82-.62,3.61,4.79ZM193,104l-.78-.59,3.58-4.81.82.62ZM77.66,102.56l-3.5-4.87.83-.6,3.46,4.9Zm112.94-.32-.8-.56,3.43-4.92.85.59ZM80.05,100.89l-3.36-5,.86-.57,3.31,5Zm108.14-.31-.81-.54,3.28-5,.87.57ZM82.49,99.3l-3.22-5.07.88-.55,3.16,5.1ZM185.74,99l-.83-.51,3.14-5.12.87.54ZM85,97.77l-3.06-5.16.89-.52,3,5.2Zm98.27-.29L182.4,97l3-5.21.9.52ZM87.49,96.33l-2.9-5.25.9-.49,2.85,5.27Zm93.2-.29-.85-.46,2.81-5.3.92.5ZM90.06,95l-2.75-5.33.92-.47,2.69,5.36Zm88.05-.27-.87-.44,2.65-5.38.93.46Zm-85.45-1-2.58-5.42.93-.43,2.53,5.44Zm82.82-.26L174.6,93l2.49-5.46L178,88Zm-80.18-1L92.89,87l.94-.41,2.36,5.51Zm77.52-.26-.9-.38,2.32-5.53,1,.41ZM98,91.33l-2.25-5.56,1-.38L98.88,91Zm72.14-.25-.91-.35,2.15-5.6,1,.38Zm-69.42-.8-2.08-5.63,1-.35,2,5.64Zm66.68-.23-.92-.33,2-5.66,1,.35Zm-63.93-.74-1.91-5.69,1-.32,1.85,5.7Zm61.16-.22-.93-.3,1.81-5.72,1,.32Zm-58.38-.67-1.74-5.74,1-.3,1.68,5.77Zm55.59-.19-.93-.28,1.64-5.77,1,.29ZM109,87.62l-1.56-5.79,1-.27,1.5,5.81Zm50-.18-.94-.24,1.47-5.82,1,.26Zm-47.15-.54-1.39-5.83,1-.24,1.32,5.86Zm44.32-.15-1-.22,1.29-5.86,1,.23Zm-41.48-.48-1.21-5.87,1-.21,1.14,5.89Zm38.63-.13-1-.19,1.1-5.89,1,.19Zm-35.77-.41-1-5.91,1-.17,1,5.92Zm32.9-.12-1-.15.93-5.93,1,.17Zm-30-.34-.85-5.94,1-.14.79,6Zm27.14-.09-1-.13.75-6,1,.13Zm-24.24-.28-.68-6,1-.11.61,6Zm21.35-.07-1-.1.57-6,1,.1Zm-18.45-.21-.49-6,1-.08.43,6Zm15.54-.06-1-.07.39-6,1,.07Zm-12.63-.14-.31-6,1-.05.25,6Zm9.72,0-1,0,.22-6,1,0Zm-6.81-.08-.14-6,1,0,.08,6Zm3.89,0-1,0,0-6,1,0Z"/></g><g class="cls-2"><path class="cls-1" d="M271,134.15l-.33-.93,5.66-2,.34,1Zm-1-2.77-.34-.91,5.62-2.12.35,1Zm-1-2.73-.36-.92,5.57-2.22.37.94Zm-1.1-2.73-.37-.89,5.52-2.35c.13.31.27.63.4.95Zm-1.15-2.69-.39-.89,5.47-2.46.41.93Zm-1.2-2.67-.42-.89,5.43-2.56.43.92Zm-1.27-2.65-.43-.87,5.37-2.68c.16.31.31.61.46.92Zm-1.31-2.62-.45-.86,5.32-2.79.47.92Zm-1.37-2.59-.46-.86,5.25-2.89.49.9Zm-1.42-2.57-.48-.84,5.2-3,.5.89Zm-1.47-2.53-.5-.84,5.13-3.1.53.88Zm-1.52-2.51-.52-.83,5.07-3.2.54.86Zm-1.58-2.48-.53-.81,5-3.31.56.86Zm-1.63-2.44-.55-.81,4.95-3.4.57.84Zm-1.67-2.41-.57-.79,4.87-3.51.59.83Zm-1.72-2.38L250,94.6l4.79-3.6.61.82Zm-1.77-2.33-.61-.78,4.73-3.7.62.8Zm-1.83-2.32-.61-.75,4.65-3.8.64.8Zm-1.86-2.26-.63-.75L249,83.83l.66.79Zm-1.91-2.23-.65-.74,4.5-4,.67.76Zm-2-2.2-.66-.71L245,79.26l.7.75Zm-2-2.14-.68-.71L242.87,77l.7.74Zm-2.05-2.12-.69-.69,4.24-4.24.72.72Zm-2.08-2.06-.71-.69,4.16-4.32.73.7Zm-2.13-2-.72-.67,4.07-4.41.74.69Zm-2.17-2-.73-.65,4-4.5.77.69Zm-2.2-1.93-.75-.65,3.89-4.57.76.66Zm-2.25-1.9-.76-.63,3.79-4.65.79.65ZM224.06,68l-.78-.61,3.7-4.73.79.63Zm-2.33-1.8-.79-.6,3.61-4.8.81.61Zm-2.36-1.76-.8-.58L222.08,59l.82.6ZM217,62.75l-.8-.56,3.4-4.94.84.58Zm-2.43-1.66-.81-.55,3.3-5,.85.56Zm-2.46-1.61-.82-.53,3.19-5.07.87.54ZM57.92,58.66l-3.17-5.09.86-.54,3.15,5.11Zm151.67-.74-.84-.51,3.09-5.14.88.53ZM60.43,57.13,57.36,52l.87-.52,3,5.18Zm146.63-.72-.85-.49,3-5.2.88.51ZM63,55.65l-3-5.22.88-.5,2.94,5.23ZM204.5,55l-.85-.47,2.88-5.27.89.5Zm-139-.73L62.67,49l.9-.49,2.83,5.29Zm136.39-.67-.87-.46,2.77-5.32.91.48Zm-133.79-.7-2.75-5.34.9-.46L69,52.4ZM199.3,52.2l-.87-.44,2.66-5.38.91.46ZM70.75,51.52l-2.64-5.38.91-.45,2.61,5.41Zm125.91-.62-.88-.42,2.54-5.43.93.44ZM73.4,50.26l-2.53-5.44.92-.43,2.5,5.46ZM194,49.65l-.9-.4,2.45-5.48.93.42Zm-117.92-.6-2.42-5.49.93-.41L77,48.65Zm115.23-.59-.91-.38,2.33-5.53.94.4ZM78.77,47.89l-2.31-5.54L77.4,42l2.28,5.55Zm109.81-.56-.91-.37,2.21-5.57,1,.38ZM81.49,46.79,79.3,41.2l.94-.37,2.16,5.6Zm104.35-.54-.92-.35,2.1-5.62.95.36ZM84.23,45.74l-2.08-5.63,1-.35,2,5.64Zm98.84-.51-.93-.33,2-5.66,1,.34ZM87,44.75l-2-5.67,1-.33,1.94,5.68Zm93.29-.49-.94-.31,1.87-5.7,1,.32Zm-90.51-.44-1.85-5.71,1-.31,1.81,5.72Zm87.7-.46-.94-.29,1.75-5.74,1,.3Zm-84.9-.42L90.85,37.2l1-.29,1.7,5.75Zm82.08-.43-.95-.27,1.63-5.78,1,.28ZM95.4,42.12l-1.62-5.78,1-.27,1.58,5.79Zm76.42-.41-1-.25,1.52-5.8,1,.26Zm-73.59-.35-1.5-5.81,1-.25,1.44,5.82ZM169,41l-1-.23,1.39-5.84,1,.24Zm-67.88-.32L99.7,34.82l1-.23L102,40.44Zm65-.35-1-.21,1.27-5.87,1,.22ZM103.94,40l-1.26-5.87,1-.21,1.22,5.87Zm59.28-.33-1-.19,1.15-5.89,1,.2Zm-56.4-.26-1.14-5.89,1-.19,1.09,5.9Zm53.52-.29-1-.17,1-5.91,1,.18Zm-50.64-.23-1-5.92,1-.17,1,5.92Zm47.74-.27-1-.15.91-5.93,1,.16Zm-44.84-.2-.9-5.94,1-.14.85,5.93Zm41.93-.23-1-.13.79-5.95,1,.14Zm-39-.18-.78-6,1-.13.73,6Zm36.12-.2-1-.11.66-6,1,.11Zm-33.21-.15-.65-6,1-.11.61,6Zm30.29-.17-1-.09.55-6,1,.09Zm-27.37-.12-.54-6,1-.08.49,6Zm24.44-.14-1-.07.43-6,1,.07Zm-21.52-.09-.41-6,1-.06.37,6Zm18.58-.1-1-.06.31-6,1,.06ZM127.18,37l-.29-6,1,0,.26,6Zm12.72-.08-1,0,.19-6,1,0Zm-9.79,0-.18-6,1,0,.13,6Zm6.85,0h-1l.07-6h1Zm-3.92,0,0-6h1v6Z"/></g><g class="cls-2"><path class="cls-1" d="M122.56,331.35l-1-.08.49-6,1,.08Zm-3-.27-1-.1.64-6,1,.1Zm-3-.33-1-.12.76-5.95,1,.11Zm-3-.39-1-.14.86-5.94,1,.14Zm-3-.45-1-.17,1-5.91,1,.15Zm-3-.52-1-.18,1.09-5.9,1,.18Zm-3-.57-1-.21,1.21-5.87,1,.2Zm-3-.64-1-.22,1.34-5.85,1,.22Zm-3-.7-1-.25,1.48-5.81.94.23Zm-3-.76-1-.26,1.58-5.79,1,.26Zm-2.95-.82-1-.28,1.69-5.76,1,.28ZM89.59,325l-1-.3L90.44,319l.93.29Zm-2.91-.94-1-.32,1.94-5.68.93.31Zm-2.9-1-1-.34,2-5.64.93.34ZM80.92,322l-1-.36,2.17-5.6.91.35Zm-2.85-1.12-.93-.38L79.41,315l.91.37Zm-2.82-1.17-.93-.4,2.39-5.51.9.39Zm-2.79-1.23-.94-.43L74,312.64l.88.4Zm-2.78-1.29-.91-.44,2.61-5.4.89.43Zm-2.74-1.34-.9-.46,2.71-5.35.88.45Zm-2.72-1.4-.89-.48,2.83-5.29.87.46ZM61.54,313l-.89-.49,2.94-5.23.86.48Zm-2.66-1.5L58,311l3-5.17.85.5ZM56.26,310l-.86-.52,3.14-5.11.84.51Zm-2.6-1.61-.85-.54,3.25-5.05.83.53Zm-2.55-1.66-.85-.57,3.36-5,.81.54ZM48.58,305l-.83-.58,3.45-4.91.8.56Zm-2.49-1.76-.82-.6,3.55-4.84.79.58Z"/></g><g class="cls-2"><path class="cls-1" d="M133.06,306.31h-1l.3-20h.92Zm41.8-6.74-6.47-18.92.84-.29,6.65,18.86Zm-84.48-1.24-1-.38,7.23-18.66.82.32ZM212.85,278.6,200.32,263l.66-.54,12.72,15.43ZM53,276.23l-.79-.68,13.1-15.11.69.6Zm188.35-30.35-17.12-10.35.45-.75L241.93,245ZM25.45,242.71l-.51-.91,17.49-9.7.44.79ZM257,205.4l-19.62-3.88.16-.87,19.66,3.69C257.17,204.7,257.11,205.05,257,205.4Zm-246-3.57-.18-1.1,19.75-3.12.13.81Zm227-36.74-.16-1,19.7-3.42.22,1.31ZM31.11,162l-19.66-3.66.2-1,19.63,3.82Zm195.12-31.61-.44-.79,17.42-9.82.52.92ZM44,127.9,26.73,117.74l.54-.92,17.14,10.32Zm159.32-25.81-.66-.57,13-15.21.82.71Zm-135.61-1.9L54.93,84.76l.83-.68L68.34,99.63ZM172,83.28l-.84-.32,7.05-18.71,1,.37Zm-72.64-1L92.74,63.42l1-.36L100.22,82Zm36.88-6h-.9l.18-20,1,0Z"/></g><g class="cls-2"><path class="cls-1" d="M229.37,63.7l-.72-.58,18.78-23.4.84.68Zm-11.72-8.61-.77-.51,16.42-25.1.9.59Zm-12.52-7.46-.8-.42,13.94-26.57,1,.52ZM192,41.43l-.86-.35,11.31-27.79,1,.41Zm-13.73-4.91-.84-.26L186,7.51l1.07.32ZM164.2,33l-.9-.18L169,3.35l1.06.21Zm-14.38-2.18-.93-.09L151.78.84l1.06.11ZM135.26,30h-.93l0-30h1.07Z"/></g><path class="cls-1" d="M247.35,108.59a133.68,133.68,0,0,1,21.36,72.71h-10A123.69,123.69,0,0,0,238.92,114Z"/><path class="cls-1" d="M46.6,283A134.35,134.35,0,0,1,134.35,47h1.58l-.12,10h-1.46A124.33,124.33,0,0,0,53.14,275.45Z"/><path class="cls-1" d="M248.24,252.62a134.27,134.27,0,0,1-113.89,63v-10a124.26,124.26,0,0,0,105.4-58.34Z"/><path class="cls-1" d="M193.74,26.22a.84.84,0,0,0,.27-.36.38.38,0,0,0-.19-.55c-.25-.1-.45.09-.54.33l-.06.13L193,25.7l.05-.14c.07-.18.07-.44-.15-.52s-.31,0-.4.21a.73.73,0,0,0,0,.41h-.2a.91.91,0,0,1,0-.53c.15-.36.42-.44.64-.35a.49.49,0,0,1,.3.51h0a.51.51,0,0,1,.63-.22.61.61,0,0,1,.28.88,1,1,0,0,1-.31.42Z"/><path class="cls-1" d="M194.87,24.2l-.5-.2-.33.85-.16-.07L193,23.51l.1-.26,1.13.45.11-.26.19.08-.1.25.49.2Zm-.69-.27-.6-.24-.29-.13h0l.21.26.44.69h0Z"/><path class="cls-1" d="M194,21.81l-.28.69.44.25a.86.86,0,0,1,0-.15.75.75,0,0,1,.25-.35.54.54,0,0,1,.57-.07.67.67,0,0,1,.35.92,1,1,0,0,1-.29.41l-.16-.14a.85.85,0,0,0,.25-.35.43.43,0,0,0-.22-.59c-.24-.09-.46,0-.61.37a2.38,2.38,0,0,0-.08.26l-.82-.47.34-.87Z"/><path class="cls-1" d="M195.12,21.11l.18.08-.28.69-.18-.07Z"/><path class="cls-1" d="M196.35,20.48l-.5-.19-.33.84-.17-.06-.83-1.28.1-.26,1.13.45.1-.25.19.07-.1.26.5.19Zm-.69-.27-.61-.24-.28-.12h0l.21.25.44.69h0Z"/><path class="cls-1" d="M195.44,18.09l-.28.69.44.26a.53.53,0,0,1,.05-.15.84.84,0,0,1,.25-.36.56.56,0,0,1,.57-.07.68.68,0,0,1,.35.92.94.94,0,0,1-.29.41l-.16-.14a.81.81,0,0,0,.25-.34.44.44,0,0,0-.22-.59c-.24-.09-.47,0-.61.36,0,.11-.06.19-.08.26l-.83-.46.35-.87Z"/><path class="cls-1" d="M197.48,17.62l-.49-.19-.34.84-.16-.06-.83-1.27.1-.27,1.13.45.1-.25.19.07-.1.26.5.19Zm-.68-.27-.61-.24-.28-.12h0l.21.25.43.69h0Z"/><path class="cls-1" d="M197.16,16l.18.07-.27.69-.18-.07Z"/><path class="cls-1" d="M197.83,15.93a.93.93,0,0,0,.28-.36.39.39,0,0,0-.19-.55c-.26-.1-.46.09-.55.33l-.06.13-.18-.07.05-.14c.08-.18.07-.44-.14-.52a.29.29,0,0,0-.4.2.78.78,0,0,0,0,.42h-.2a.93.93,0,0,1,.05-.53.47.47,0,0,1,.93.16h0a.5.5,0,0,1,.62-.22c.3.11.46.44.29.88a1.06,1.06,0,0,1-.31.42Z"/><path class="cls-1" d="M197.48,12.94l-.27.7.43.25a.86.86,0,0,0,.05-.15.77.77,0,0,1,.26-.35.56.56,0,0,1,.57-.08.7.7,0,0,1,.35.93,1,1,0,0,1-.29.41l-.17-.14a.86.86,0,0,0,.26-.35.44.44,0,0,0-.22-.59c-.24-.09-.47,0-.61.37a1.35,1.35,0,0,0-.09.26l-.82-.47.35-.87Z"/><path class="cls-1" d="M199,13.07a.84.84,0,0,0,.27-.36.38.38,0,0,0-.18-.55c-.26-.1-.46.09-.55.33l-.06.13-.18-.07,0-.14c.07-.18.07-.44-.14-.53a.3.3,0,0,0-.4.21.78.78,0,0,0,0,.42h-.2a.85.85,0,0,1,0-.53.48.48,0,0,1,.64-.35.5.5,0,0,1,.29.51h0a.5.5,0,0,1,.62-.22.61.61,0,0,1,.28.88,1,1,0,0,1-.31.42Z"/><path class="cls-1" d="M207.91,31.1c.59.31.81.69.61,1.08s-.61.4-1.19.11-.77-.71-.59-1.06S207.36,30.82,207.91,31.1Zm-.45,1c.45.23.78.22.89,0s-.1-.5-.55-.73-.76-.25-.89,0S207,31.82,207.46,32.06Z"/><path class="cls-1" d="M208.61,29.73c.6.31.81.69.61,1.08s-.61.4-1.19.11-.77-.71-.59-1.06S208.06,29.45,208.61,29.73Zm-.45,1c.45.23.78.22.89,0s-.1-.5-.55-.73-.76-.25-.89,0S207.68,30.45,208.16,30.69Z"/><path class="cls-1" d="M209.32,28.36c.59.31.8.69.6,1.08s-.61.4-1.18.11-.78-.71-.6-1.06S208.76,28.08,209.32,28.36Zm-.46,1c.45.23.78.22.89,0s-.1-.5-.54-.73-.77-.25-.89,0S208.39,29.08,208.86,29.32Z"/><path class="cls-1" d="M210,27c.59.31.8.69.61,1.08s-.61.4-1.19.12-.78-.72-.6-1.07S209.46,26.71,210,27Zm-.46,1c.45.23.78.23.89,0s-.1-.5-.54-.73-.77-.25-.89,0S209.09,27.71,209.56,28Z"/><path class="cls-1" d="M209.76,26h0v.39l-.2-.05v-.48l.1-.21,1.74.9-.11.22Z"/><path class="cls-1" d="M210.46,24.58h0V25l-.2,0v-.48l.1-.2,1.74.89-.11.22Z"/><path class="cls-1" d="M211.16,23.21h0v.39l-.21-.05v-.48l.11-.2,1.74.89-.12.22Z"/><path class="cls-1" d="M212.82,21.51c.6.31.81.69.61,1.08s-.61.41-1.19.12-.77-.72-.59-1.07S212.27,21.23,212.82,21.51Zm-.45,1c.45.23.78.23.89,0s-.1-.5-.55-.72-.76-.26-.89,0S211.89,22.23,212.37,22.47Z"/><path class="cls-1" d="M213.52,20.15c.6.3.81.68.61,1.07s-.61.41-1.19.12-.77-.72-.59-1.07S213,19.86,213.52,20.15Zm-.45,1c.45.23.78.23.89,0s-.1-.5-.54-.72-.77-.26-.9,0S212.59,20.86,213.07,21.1Z"/><path class="cls-1" d="M213.26,19.1h0v.39l-.2,0V19l.1-.2,1.74.89-.12.23Z"/><path class="cls-1" d="M221.54,40.13a.84.84,0,0,0,.34-.29.39.39,0,0,0-.09-.58c-.23-.15-.46,0-.6.22l-.08.12-.16-.11.07-.12a.38.38,0,0,0,0-.55.3.3,0,0,0-.43.13.66.66,0,0,0-.1.4l-.2,0a.9.9,0,0,1,.14-.51.5.5,0,0,1,.7-.23.49.49,0,0,1,.19.56h0a.49.49,0,0,1,.65-.1.62.62,0,0,1,.12.92,1.06,1.06,0,0,1-.39.36Z"/><path class="cls-1" d="M223,38.36l-.45-.28-.49.76-.15-.09-.58-1.41.15-.24,1,.66.15-.23.17.11-.15.23.45.28ZM222.4,38l-.55-.35-.25-.18h0c.06.11.11.2.15.29l.3.76h0Z"/><path class="cls-1" d="M223.86,37.07l-.45-.29-.49.77-.15-.1-.58-1.4.15-.24,1,.65.14-.23.18.11-.15.23.45.29Zm-.63-.4-.55-.35-.25-.17h0l.16.29.3.77h0Z"/><path class="cls-1" d="M223.81,36.21a.56.56,0,0,1-.23-.61h0a.49.49,0,0,1-.54,0,.55.55,0,0,1-.11-.79.5.5,0,0,1,.71-.22.48.48,0,0,1,.21.51h0a.55.55,0,0,1,.64-.06.59.59,0,0,1,.12.86A.57.57,0,0,1,223.81,36.21Zm-.66-.8c.17.1.33,0,.51-.12a.4.4,0,0,0-.14-.45.31.31,0,0,0-.45.11A.32.32,0,0,0,223.15,35.41Zm1.22-.09c-.2-.13-.39,0-.59.13a.41.41,0,0,0,.15.51.35.35,0,0,0,.52-.12A.35.35,0,0,0,224.37,35.32Z"/><path class="cls-1" d="M225.07,35.16l-.14-.09-.05-.28c-.14-.68-.23-1-.47-1.16a.34.34,0,0,0-.53.12.68.68,0,0,0-.09.44l-.2,0a.82.82,0,0,1,.13-.57.55.55,0,0,1,.8-.2c.3.19.41.57.52,1.13l0,.21h0l.48-.74.18.12Z"/><path class="cls-1" d="M224.93,31.74l.15.1,1,1.67-.14.23-1-1.64h0l-.51.8-.19-.12Z"/><path class="cls-1" d="M226.29,32.32a.57.57,0,0,1-.23-.61h0a.45.45,0,0,1-.53,0,.54.54,0,0,1-.12-.78.51.51,0,0,1,.72-.22.5.5,0,0,1,.21.51h0a.53.53,0,0,1,.64-.06.59.59,0,0,1,.12.86A.58.58,0,0,1,226.29,32.32Zm-.65-.8c.16.1.33,0,.5-.12A.4.4,0,0,0,226,31a.3.3,0,0,0-.44.11A.31.31,0,0,0,225.64,31.52Zm1.21-.09c-.2-.13-.39-.05-.59.13a.41.41,0,0,0,.15.51.35.35,0,0,0,.52-.13A.34.34,0,0,0,226.85,31.43Z"/><path class="cls-1" d="M226.42,29.87h0l0,.39-.2-.07,0-.48.12-.19L228,30.57l-.14.22Z"/><path class="cls-1" d="M228,28.89l.16.11-.4.63-.16-.11Z"/><path class="cls-1" d="M227.75,27.79h0l0,.38-.19-.06,0-.48.13-.19,1.64,1.05-.13.21Z"/><path class="cls-1" d="M233.53,47.73h0l-.06.38-.19-.09.08-.47.14-.18,1.54,1.2-.16.2Z"/><path class="cls-1" d="M235.07,47.74a.57.57,0,0,1-.18-.63h0a.51.51,0,0,1-.54,0,.56.56,0,0,1,0-.8.51.51,0,0,1,.73-.15.5.5,0,0,1,.16.54h0a.56.56,0,0,1,.64,0,.61.61,0,0,1,0,.88A.58.58,0,0,1,235.07,47.74Zm-.58-.87c.15.12.33.07.51-.07a.39.39,0,0,0-.09-.45.3.3,0,0,0-.46.06A.32.32,0,0,0,234.49,46.87Zm1.22,0c-.19-.15-.38-.09-.6.08a.41.41,0,0,0,.1.52.35.35,0,0,0,.53-.08A.35.35,0,0,0,235.71,46.9Z"/><path class="cls-1" d="M236.92,46.16l-.42-.32-.55.71-.14-.1L235.36,45l.18-.22,1,.74.17-.21.17.12-.17.22.42.33Zm-.58-.45-.51-.4-.24-.2h0c0,.12.08.21.12.3l.23.79h0Z"/><path class="cls-1" d="M236.61,43.39l.13.11.89,1.77-.17.21-.84-1.73h0l-.59.75-.17-.13Z"/><path class="cls-1" d="M238.33,42.75c.52.4.66.82.39,1.16s-.67.29-1.19-.1-.62-.85-.38-1.16S237.84,42.36,238.33,42.75Zm-.63.85c.4.31.72.37.87.18s0-.51-.4-.82-.7-.39-.87-.18S237.28,43.27,237.7,43.6Z"/><path class="cls-1" d="M239.26,43.17l-.13-.1,0-.29c-.07-.68-.13-1-.36-1.2a.35.35,0,0,0-.54.07.68.68,0,0,0-.12.43l-.2,0a.89.89,0,0,1,.18-.56.56.56,0,0,1,.82-.12c.29.22.35.61.41,1.18l0,.21h0l.54-.69.17.14Z"/><path class="cls-1" d="M240.22,40.32c.52.41.66.83.4,1.17s-.68.28-1.19-.11-.63-.85-.39-1.16S239.73,39.94,240.22,40.32Zm-.63.85c.4.32.72.37.87.18s0-.51-.39-.81-.71-.4-.88-.18S239.17,40.85,239.59,41.17Z"/><path class="cls-1" d="M241.17,39.11c.52.4.66.82.39,1.16s-.67.29-1.19-.1-.62-.85-.38-1.16S240.68,38.72,241.17,39.11Zm-.63.85c.4.31.72.37.87.18s0-.51-.4-.82-.7-.39-.87-.18S240.12,39.63,240.54,40Z"/><path class="cls-1" d="M242.11,37.89c.53.41.67.83.4,1.17s-.68.29-1.19-.11-.63-.84-.38-1.16S241.62,37.51,242.11,37.89Zm-.63.86c.4.31.73.36.88.17s0-.5-.4-.81-.7-.4-.87-.18S241.06,38.42,241.48,38.75Z"/><path class="cls-1" d="M243,38.08a1.56,1.56,0,0,0,.12-.17.7.7,0,0,0,.1-.44.86.86,0,0,0-.25-.53h0a.55.55,0,0,1-.11.49.56.56,0,0,1-.83.09.67.67,0,0,1-.14-1c.25-.32.66-.31,1.05,0a1.23,1.23,0,0,1,.52.82,1,1,0,0,1-.15.61.69.69,0,0,1-.13.2Zm-.83-.77a.38.38,0,0,0,.56,0,.46.46,0,0,0,.07-.43.19.19,0,0,0-.06-.07c-.26-.21-.54-.27-.71-.05A.41.41,0,0,0,242.17,37.31Z"/></g></g></svg>