<svg xmlns="http://www.w3.org/2000/svg" viewBox="0 0 434.6 20.99"><defs><style>.cls-1{fill:#61b8ff;}.cls-2{fill:#6be6ff;}</style></defs><title>资源 2</title><g id="图层_2" data-name="图层 2"><g id="Layer_8" data-name="Layer 8"><polygon class="cls-1" points="5.88 16.13 5.88 14.68 8.16 14.68 12.61 19.12 20.66 19.12 20.66 20.99 10.74 20.99 5.88 16.13"/><polygon class="cls-1" points="4.92 12.51 5.46 11.97 7.63 14.14 5.52 14.14 5.52 16.74 4.92 16.13 4.92 12.51"/><polygon class="cls-1" points="0 2.02 0 0 5.49 0 6.99 1.5 1.5 1.5 1.5 3.52 0 2.02"/><polygon class="cls-1" points="16.73 18.54 12.79 18.54 1.94 7.69 1.94 1.88 5.88 1.88 5.88 7.69 16.73 18.54"/><polygon class="cls-1" points="428.72 4.86 428.72 6.31 426.43 6.31 421.99 1.87 413.94 1.87 413.94 0 423.86 0 428.72 4.86"/><polygon class="cls-1" points="429.68 8.47 429.14 9.02 426.97 6.84 429.07 6.84 429.07 4.25 429.68 4.86 429.68 8.47"/><polygon class="cls-1" points="434.6 18.96 434.6 20.99 429.11 20.99 427.61 19.48 433.1 19.48 433.1 17.46 434.6 18.96"/><polygon class="cls-1" points="417.86 2.44 421.81 2.44 432.66 13.29 432.66 19.1 428.71 19.1 428.71 13.29 417.86 2.44"/><polygon class="cls-1" points="122.57 15.75 17.92 15.75 9.35 7.18 114 7.18 122.57 15.75"/><rect class="cls-2" x="7.63" y="10.98" width="421.09" height="0.98"/></g></g></svg>