<svg xmlns="http://www.w3.org/2000/svg" viewBox="0 0 282.6 303.52"><defs><style>.cls-1{fill:aqua;}.cls-2{opacity:0.35;}</style></defs><title>资源 5</title><g id="图层_2" data-name="图层 2"><g id="Layer_1" data-name="Layer 1"><path class="cls-1" d="M68.93,179.55a70.91,70.91,0,0,1,15.22-77.84l1.41,1.41a69,69,0,0,0-14.78,75.65Z"/><path class="cls-1" d="M134.35,222.91a70.82,70.82,0,0,1-50.2-20.79l1.41-1.42a69.09,69.09,0,0,0,75.65,14.79l.78,1.84A70.58,70.58,0,0,1,134.35,222.91Z"/><path class="cls-1" d="M184.56,202.12l-1.42-1.42A69,69,0,0,0,107.5,88.33l-.78-1.84a71,71,0,0,1,77.84,115.63Z"/><path class="cls-1" d="M134.35,241.24a89.33,89.33,0,1,1,89.33-89.33A89.43,89.43,0,0,1,134.35,241.24Zm0-169.66a80.33,80.33,0,1,0,80.33,80.33A80.43,80.43,0,0,0,134.35,71.58Z"/><path class="cls-1" d="M134.35,276.47A124.56,124.56,0,1,1,258.91,151.91,124.7,124.7,0,0,1,134.35,276.47Zm0-247.12A122.56,122.56,0,1,0,256.91,151.91,122.7,122.7,0,0,0,134.35,29.35Z"/><g class="cls-2"><path class="cls-1" d="M134.35,303.52A151.49,151.49,0,0,1,4.57,230.33L4.38,230l4.09-28.63,2,.29-4,27.92a148.64,148.64,0,0,0,127.89,71.92,151.21,151.21,0,0,0,28.93-2.79l23.29-24,1.44,1.39-23.73,24.44-.31.06A152.69,152.69,0,0,1,134.35,303.52Z"/></g><g class="cls-2"><path class="cls-1" d="M268.52,136.31,267,135.07l13.48-17C264.69,49.72,204.68,2,134.35,2A149.81,149.81,0,0,0,36.06,38.72L23.9,77.1,22,76.49,34.32,37.58l.22-.18a152,152,0,0,1,248,80.73l.1.47Z"/></g><g class="cls-2"><path class="cls-1" d="M134.35,256.79A104.88,104.88,0,1,1,239.24,151.91,105,105,0,0,1,134.35,256.79Zm0-207.76A102.88,102.88,0,1,0,237.24,151.91,103,103,0,0,0,134.35,49Z"/></g><g class="cls-2"><path class="cls-1" d="M134.14,254.93v-6h1l0,6Zm-2.07,0-1,0,.19-6,1,0Zm5.15,0-.16-6,1,0,.23,6Zm-8.25-.1-1-.06.37-6,1,.05Zm11.35,0-.35-6,1-.06.41,6Zm-14.44-.17-1-.09.54-6,1,.09Zm17.53-.05-.53-6,1-.09.58,6Zm-20.61-.25-1-.12.72-6,1,.12Zm23.68-.07-.7-5.95,1-.12.75,5.95Zm-26.75-.32-1-.15.91-5.93.95.14Zm29.82-.08-.88-5.94,1-.15.93,5.93Zm-32.87-.4-1-.18,1.09-5.9,1,.17Zm35.92-.1-1-5.91.95-.17,1.13,5.89Zm-39-.48-1-.21,1.26-5.86,1,.2Zm42-.11-1.22-5.87.94-.21,1.3,5.86Zm-45-.55-1-.24,1.44-5.83.95.23Zm48.07-.14-1.41-5.83.94-.23,1.48,5.82Zm-51.07-.62-1-.27,1.61-5.78.94.26Zm54.06-.15-1.57-5.79.93-.26,1.64,5.77Zm-57-.69-1-.31,1.78-5.73.94.29Zm60-.17-1.76-5.74.93-.29,1.82,5.72Zm-63-.78-1-.33,1.95-5.67.93.31Zm65.93-.18-1.93-5.68.91-.32,2,5.66Zm-68.87-.85-1-.36,2.14-5.61.91.34Zm71.79-.19-2.11-5.62.91-.35,2.16,5.6Zm-74.68-.93-1-.39,2.31-5.54.9.37Zm77.56-.2-2.28-5.55.9-.38,2.33,5.53Zm-80.43-1-.94-.42,2.46-5.47.9.39Zm83.27-.22-2.45-5.47.89-.4,2.5,5.45ZM90.14,245l-.94-.46,2.64-5.38.87.42Zm88.88-.22-2.6-5.41.87-.42,2.66,5.37Zm-91.67-1.16-.91-.47,2.79-5.32.87.45Zm94.44-.23L179,238.06l.86-.45,2.82,5.3Zm-97.18-1.23-.89-.5,2.94-5.23.86.48Zm99.9-.23-2.93-5.24.85-.48,3,5.21ZM81.92,240.61l-.88-.53,3.1-5.13.84.5Zm105.26-.24-3.08-5.15.83-.5,3.13,5.12ZM79.28,239l-.87-.56,3.26-5c.27.18.54.36.82.53Zm110.53-.24-3.24-5.06.82-.52,3.28,5ZM76.69,237.29l-.86-.58,3.42-4.94.8.55Zm115.7-.25L189,232.09l.8-.56,3.43,4.93ZM74.15,235.52l-.84-.61,3.56-4.84.78.58Zm120.76-.26-3.53-4.85.78-.57,3.59,4.81Zm-123.25-1.6-.82-.63,3.7-4.72.78.6Zm125.72-.26-3.67-4.74.76-.6,3.73,4.71ZM69.23,231.74l-.8-.66,3.84-4.61.76.63Zm130.57-.27L196,226.85l.75-.63,3.85,4.6ZM66.86,229.75l-.78-.69,4-4.49.73.64Zm135.3-.28L198.21,225l.73-.65,4,4.48ZM64.55,227.68l-.76-.71,4.12-4.36.71.66Zm139.91-.28-4.08-4.4.7-.66,4.13,4.35ZM62.31,225.55l-.74-.73,4.25-4.24.68.68Zm144.38-.29L202.48,221l.69-.68,4.26,4.23ZM60.13,223.35c-.24-.24-.48-.49-.71-.74l4.36-4.12.67.7Zm148.73-.29-4.33-4.16.66-.7,4.38,4.1C209.34,222.56,209.1,222.81,208.86,223.06ZM58,221.09c-.24-.25-.47-.51-.69-.77l4.48-4,.65.72Zm153-.3-4.46-4,.64-.72,4.51,4Zm-155-2-.66-.79,4.6-3.85c.21.25.41.5.62.74Zm157-.33-4.59-3.86.64-.76,4.61,3.84ZM54,216.39l-.64-.81,4.71-3.71.6.76Zm161-.34-4.69-3.73.6-.77,4.73,3.7ZM52.1,213.94l-.62-.82,4.82-3.57.59.78Zm164.77-.34L212.06,210l.59-.79,4.83,3.56Zm-166.6-2.15-.59-.84,4.93-3.43.55.8Zm168.42-.36-4.91-3.44.55-.8,4.95,3.4ZM48.52,208.9,48,208l5-3.27.54.81Zm171.91-.37-5-3.3.53-.82,5.05,3.26ZM46.85,206.3l-.54-.87,5.12-3.13.51.83Zm175.25-.38L217,202.77l.51-.83,5.14,3.09ZM45.25,203.66l-.51-.89,5.22-3,.48.84Zm178.44-.41-5.2-3,.48-.85,5.23,2.94ZM43.74,201l-.49-.9,5.31-2.81.45.86Zm181.46-.43-5.29-2.82.45-.86,5.32,2.78Zm-182.89-2.3c-.16-.31-.31-.62-.46-.93l5.39-2.64c.14.29.28.58.43.87Zm184.3-.44-5.36-2.69c.15-.29.29-.58.43-.87l5.4,2.63ZM41,195.45l-.43-.93L46,192l.41.89ZM228,195l-5.45-2.52c.14-.3.28-.59.41-.89l5.47,2.47ZM39.7,192.63l-.4-.93,5.53-2.33.38.9Zm189.52-.49-5.52-2.34.37-.9,5.55,2.29Zm-190.7-2.35-.37-1,5.59-2.16.36.91Zm191.87-.52-5.59-2.18c.12-.3.23-.61.35-.91l5.61,2.12C230.64,188.62,230.52,189,230.39,189.27Zm-193-2.38-.34-1,5.66-2,.33.91Zm194.05-.54-5.65-2,.32-.93,5.67,2ZM36.42,184l-.32-1,5.72-1.82.3.93Zm196.05-.55-5.71-1.84.29-.93,5.73,1.78ZM35.5,181c-.1-.33-.19-.66-.29-1L41,178.38c.08.31.17.62.26.93Zm197.87-.56-5.76-1.66c.09-.31.17-.62.26-.93l5.78,1.59C233.56,179.78,233.47,180.11,233.37,180.44ZM34.67,178l-.26-1,5.83-1.45c.07.32.15.63.24.94Zm199.51-.57L228.37,176c.08-.31.16-.62.23-.93l5.83,1.41C234.35,176.78,234.27,177.12,234.18,177.45ZM33.93,175c-.07-.34-.15-.67-.22-1l5.86-1.28.21.95Zm201-.57-5.85-1.31c.07-.32.14-.63.2-.95l5.87,1.25C235.05,173.77,235,174.1,234.9,174.44ZM33.29,172c-.07-.34-.13-.68-.2-1l5.9-1.11.18,1Zm202.24-.58-5.89-1.12.18-1,5.9,1.07Zm-202.8-2.47c0-.34-.11-.68-.16-1L38.5,167l.15,1Zm203.34-.57-5.93-1c.06-.32.1-.64.15-1l5.94.9C236.17,167.68,236.12,168,236.07,168.36Zm-203.8-2.49c0-.34-.09-.68-.13-1l6-.75c0,.32.08.64.13,1Zm204.24-.58-5.95-.77.12-1,6,.72ZM31.9,162.79l-.1-1,6-.57.1,1Zm205-.57-6-.6q.06-.48.09-1l6,.52C236.93,161.53,236.9,161.87,236.86,162.22ZM31.62,159.71c0-.34-.05-.69-.07-1l6-.38.07,1Zm205.5-.58-6-.42.06-1,6,.35C237.17,158.44,237.15,158.79,237.12,159.13ZM31.44,156.62c0-.34,0-.68,0-1l6-.21c0,.32,0,.65,0,1ZM237.29,156l-6-.22,0-1,6,.18Zm-205.94-2.5c0-.34,0-.68,0-1l6,0v1Zm206-.59-6-.05v-1.12h6Zm-200-2.42-6-.08,0-1,6,.14Zm194-.69c0-.32,0-.64,0-1l6-.19,0,1ZM37.43,147.61l-6-.27c0-.34,0-.69.05-1l6,.32Zm193.82-.7-.06-1,6-.37.06,1ZM37.6,144.69l-6-.44c0-.34.06-.68.08-1l6,.5C37.65,144.05,37.62,144.37,37.6,144.69ZM231.06,144l-.09-1,6-.55.09,1Zm-193.2-2.22-6-.62.11-1,6,.68Zm192.92-.68-.11-1,6-.72.12,1ZM38.2,138.89l-6-.8.15-1,5.93.86C38.29,138.25,38.24,138.57,38.2,138.89Zm192.21-.68-.14-1,5.94-.9.15,1ZM38.63,136l-5.92-1c.06-.34.11-.68.17-1l5.91,1C38.74,135.37,38.68,135.69,38.63,136ZM230,135.33l-.17-1,5.91-1.07.17,1ZM39.15,133.14,33.26,132l.2-1,5.88,1.21Zm190.27-.68c-.06-.31-.13-.63-.19-1l5.86-1.26.21,1ZM39.75,130.28,33.9,129l.24-1,5.83,1.4C39.9,129.65,39.82,130,39.75,130.28Zm189.05-.67c-.07-.31-.15-.63-.23-.94l5.83-1.44.24,1ZM40.44,127.45l-5.81-1.51.27-1,5.79,1.57C40.61,126.83,40.52,127.14,40.44,127.45Zm187.65-.67c-.08-.31-.17-.62-.26-.93l5.78-1.61c.1.33.19.66.28,1ZM41.22,124.64,35.46,123c.1-.33.19-.66.29-1l5.74,1.74ZM227.29,124c-.09-.31-.18-.62-.28-.92l5.73-1.79.3,1ZM42.08,121.85,36.38,120c.1-.33.21-.66.32-1l5.69,1.91Zm184.33-.65-.31-.92,5.68-2,.33,1ZM43,119.08l-5.65-2,.36-1,5.62,2.08Zm182.42-.63-.34-.91,5.61-2.12.36,1ZM44.06,116.34l-5.58-2.2.38-1,5.56,2.26Zm180.34-.62-.36-.89,5.54-2.3.39,1ZM45.17,113.64l-5.51-2.37.42-1,5.48,2.42Zm178.1-.6c-.12-.29-.25-.58-.38-.88l5.46-2.46c.15.31.29.63.43,1ZM46.37,111l-5.44-2.54.44-.93,5.42,2.59Zm175.7-.57-.42-.87,5.4-2.62.44.92ZM47.64,108.34l-5.35-2.7.47-.92,5.33,2.75Zm173.15-.54-.45-.87,5.32-2.78.47.91ZM49,105.75l-5.28-2.86.5-.9,5.25,2.9Zm170.42-.52-.47-.85,5.23-2.94.5.89Zm-169-2-5.19-3c.18-.29.35-.59.53-.89l5.15,3.07ZM218,102.7l-.5-.83,5.14-3.1.52.88Zm-166-2-5.1-3.17c.18-.3.37-.59.56-.88l5.05,3.23Zm164.53-.48L216,99.4l5-3.25.55.86Zm-163-2-5-3.33.58-.86,5,3.37Zm161.37-.47c-.18-.27-.36-.54-.55-.8l4.94-3.41.59.85Zm-159.71-2-4.89-3.46.6-.85,4.86,3.53Zm158.05-.44-.57-.79,4.83-3.55.61.84ZM56.89,93.48l-4.78-3.62.62-.82,4.76,3.67Zm154.59-.43-.59-.77,4.73-3.69.63.81ZM58.69,91.18,54,87.42l.65-.8,4.64,3.8Zm151-.42c-.2-.26-.4-.5-.61-.75l4.62-3.83.66.8ZM60.55,88.93,56,85l.67-.78,4.53,4Zm147.25-.41-.63-.73,4.5-4,.68.78ZM62.48,86.74l-4.44-4,.69-.76L63.14,86Zm143.39-.39-.66-.71,4.38-4.11c.23.26.47.51.7.76ZM64.47,84.61l-4.32-4.16.72-.74,4.28,4.2Zm139.39-.38-.68-.69,4.26-4.23.73.74ZM66.53,82.54l-4.2-4.29.74-.72,4.15,4.34Zm135.27-.37-.7-.67,4.13-4.35.74.71ZM68.64,80.53l-4.06-4.41.76-.69,4,4.45Zm131-.35-.73-.66,4-4.47.76.68ZM70.81,78.59l-3.93-4.53.78-.67L71.55,78Zm126.68-.35-.74-.63L200.6,73l.79.67ZM73,76.71l-3.79-4.64.8-.65,3.75,4.69Zm122.21-.33-.76-.61,3.72-4.71.8.64ZM75.33,74.91l-3.66-4.76.82-.63,3.61,4.8ZM193,74.58l-.78-.59,3.58-4.81.82.62ZM77.66,73.17l-3.5-4.87.83-.6,3.46,4.9Zm112.94-.32-.8-.56,3.43-4.93.85.6ZM80.05,71.5l-3.36-5,.86-.57,3.31,5Zm108.14-.31-.81-.54,3.28-5,.87.57ZM82.49,69.91l-3.22-5.07.88-.55,3.16,5.1Zm103.25-.31-.83-.51L188.05,64l.87.54ZM85,68.38l-3.06-5.16.89-.52,3,5.2Zm98.27-.29-.84-.49,3-5.21.9.52ZM87.49,66.94l-2.9-5.25.9-.5,2.85,5.28Zm93.2-.29-.85-.46,2.81-5.3.92.5ZM90.06,65.57l-2.75-5.34.92-.46,2.69,5.36Zm88.05-.28-.87-.43,2.65-5.38.93.46Zm-85.45-1-2.58-5.42.93-.43,2.53,5.44ZM175.48,64l-.88-.41,2.49-5.45.94.43ZM95.3,63.07l-2.41-5.49.94-.41,2.36,5.51Zm77.52-.26-.9-.38,2.32-5.53,1,.4ZM98,61.94l-2.25-5.56,1-.38,2.19,5.58Zm72.14-.25-.91-.35,2.15-5.6,1,.38Zm-69.42-.8-2.08-5.63,1-.35,2,5.64Zm66.68-.23-.92-.33,2-5.66,1,.34Zm-63.93-.74-1.91-5.69,1-.33,1.85,5.71Zm61.16-.22-.93-.3,1.81-5.72,1,.32ZM106.23,59l-1.74-5.74,1-.3,1.68,5.76Zm55.59-.2-.93-.27,1.64-5.77,1,.29ZM109,58.23l-1.56-5.79,1-.27L110,58Zm50-.18-.94-.24L159.54,52l1,.26Zm-47.15-.54-1.39-5.83,1-.24,1.32,5.85Zm44.32-.15-1-.22,1.29-5.86,1,.23Zm-41.48-.48L113.49,51l1-.21,1.14,5.89Zm38.63-.13-1-.19,1.1-5.9,1,.2Zm-35.77-.41-1-5.91,1-.17,1,5.92Zm32.9-.12-1-.15.93-5.93,1,.17Zm-30-.34-.85-5.94,1-.14.79,6Zm27.14-.09-1-.13.75-5.95,1,.13Zm-24.24-.28-.68-6,1-.11.61,6Zm21.35-.07-1-.1.57-6,1,.11Zm-18.45-.21-.49-6,1-.08.43,6Zm15.54-.06-1-.07.39-6,1,.07ZM129.15,55l-.31-6,1,0,.25,6Zm9.72,0-1,0,.22-6,1,0Zm-6.81-.08-.14-6,1,0,.08,6Zm3.89,0h-1l0-6,1,0Z"/></g><g class="cls-2"><path class="cls-1" d="M271,104.76l-.33-.93,5.66-2,.34,1ZM270,102l-.34-.92L275.27,99l.35,1Zm-1-2.74-.36-.91,5.57-2.22.37.94Zm-1.1-2.72-.37-.9L273,93.29l.4.94Zm-1.15-2.69-.39-.9,5.47-2.45.41.93Zm-1.2-2.67-.42-.89,5.43-2.56.43.92Zm-1.27-2.65-.43-.87L269.17,85c.16.31.31.61.46.92Zm-1.31-2.63-.45-.85,5.32-2.79.47.92Zm-1.37-2.58-.46-.86,5.25-2.89.49.89Zm-1.42-2.57-.48-.84,5.2-3,.5.88Zm-1.47-2.54-.5-.83,5.13-3.1.53.88Zm-1.52-2.5-.52-.83,5.07-3.2.54.86Zm-1.58-2.48-.53-.81,5-3.31.56.86Zm-1.63-2.44-.55-.81,4.95-3.4.57.84Zm-1.67-2.41-.57-.79,4.87-3.51.59.83ZM250.54,66l-.58-.78,4.79-3.6.61.82Zm-1.77-2.33-.61-.78,4.73-3.7.62.8Zm-1.83-2.32-.61-.75,4.65-3.8.64.8Zm-1.86-2.26-.63-.75L249,54.44l.66.79Zm-1.91-2.23-.65-.74,4.5-4,.67.76Zm-2-2.2-.66-.72L245,49.87l.7.75Zm-2-2.14-.68-.72,4.33-4.15.7.74Zm-2.05-2.12-.69-.69,4.24-4.24.72.72Zm-2.08-2.06-.71-.69,4.16-4.32.73.7Zm-2.13-2-.72-.67,4.07-4.41.74.69Zm-2.17-2-.73-.65,4-4.5.77.69Zm-2.2-1.93-.75-.65,3.89-4.57.76.66Zm-2.25-1.91-.76-.62,3.79-4.65.79.65Zm-2.28-1.84-.78-.61,3.7-4.73.79.63Zm-2.33-1.81-.79-.59,3.61-4.8.81.61Zm-2.36-1.75-.8-.58,3.51-4.87.82.6ZM217,33.35l-.8-.55,3.4-4.94.84.58Zm-2.43-1.65-.81-.55,3.3-5,.85.56Zm-2.46-1.62-.82-.52,3.19-5.08.87.55ZM57.92,29.27l-3.17-5.09.86-.54,3.15,5.11Zm151.67-.74-.84-.51,3.09-5.14.88.53ZM60.43,27.74l-3.07-5.16.87-.52,3,5.18ZM207.06,27l-.85-.5,3-5.19.88.51ZM63,26.26,60,21l.88-.5,2.94,5.23Zm141.54-.7-.85-.47,2.88-5.27.89.5Zm-139-.73-2.86-5.27.9-.49,2.83,5.29Zm136.39-.68-.87-.45,2.77-5.32.91.48Zm-133.79-.7-2.75-5.33.9-.46L69,23ZM199.3,22.8l-.87-.43L201.09,17l.91.46ZM70.75,22.13l-2.64-5.38L69,16.3l2.61,5.41Zm125.91-.63-.88-.41,2.54-5.44.93.45ZM73.4,20.87l-2.53-5.44.92-.43,2.5,5.46ZM194,20.26l-.9-.4,2.45-5.48.93.42ZM76.07,19.65l-2.42-5.49.93-.4L77,19.26Zm115.23-.58-.91-.38,2.33-5.53.94.4ZM78.77,18.5,76.46,13l.94-.39,2.28,5.55Zm109.81-.56-.91-.37L189.88,12l1,.38ZM81.49,17.39,79.3,11.81l.94-.37L82.4,17Zm104.35-.53-.92-.35,2.1-5.62.95.36ZM84.23,16.35l-2.08-5.63,1-.35,2,5.64Zm98.84-.51-.93-.33,2-5.66,1,.34ZM87,15.36,85,9.69l1-.33L87.93,15Zm93.29-.49-.94-.31,1.87-5.7,1,.32Zm-90.51-.44L87.93,8.72l1-.31,1.81,5.72Zm87.7-.47-.94-.29,1.75-5.73,1,.3Zm-84.9-.41L90.85,7.81l1-.3,1.7,5.76Zm82.08-.43-.95-.28,1.63-5.77,1,.28ZM95.4,12.73,93.78,7l1-.27,1.58,5.79Zm76.42-.41-1-.25,1.52-5.8,1,.26ZM98.23,12l-1.5-5.81,1-.25,1.44,5.82ZM169,11.59l-1-.23,1.39-5.84,1,.24Zm-67.88-.32L99.7,5.43l1-.23L102,11.05Zm65-.35-1-.21,1.27-5.87,1,.22Zm-62.16-.3-1.26-5.86,1-.21,1.22,5.87Zm59.28-.32-1-.19,1.15-5.89,1,.2ZM106.82,10l-1.14-5.89,1-.19,1.09,5.9Zm53.52-.29-1-.17,1-5.91,1,.18ZM109.7,9.51l-1-5.91,1-.17,1,5.92Zm47.74-.26-1-.15.91-5.93,1,.16Zm-44.84-.2-.9-5.94,1-.15.85,5.94Zm41.93-.23-1-.13.79-5.95,1,.14Zm-39-.18-.78-6,1-.13.73,6Zm36.12-.2-1-.11.66-6,1,.12Zm-33.21-.15-.65-6,1-.1.61,6Zm30.29-.17-1-.09.55-6,1,.1ZM121.33,8l-.54-6,1-.08.49,6Zm24.44-.14-1-.07.43-6,1,.07Zm-21.52-.09-.41-6,1-.07.37,6Zm18.58-.11-1,0,.31-6,1,0Zm-15.65-.07-.29-6,1,0,.26,6Zm12.72-.07-1,0,.19-6,1,0Zm-9.79,0-.18-6,1,0,.13,6Zm6.85,0h-1l.07-6h1Zm-3.92,0,0-6h1v6Z"/></g><g class="cls-2"><path class="cls-1" d="M122.56,302l-1-.08.49-6,1,.08Zm-3-.27-1-.1.64-6,1,.1Zm-3-.33-1-.12.76-5.95,1,.11Zm-3-.39-1-.14.86-5.94,1,.14Zm-3-.45-1-.17,1-5.91,1,.15Zm-3-.52-1-.18,1.09-5.9,1,.18Zm-3-.57-1-.21,1.21-5.87,1,.2Zm-3-.64-1-.22,1.34-5.85,1,.21Zm-3-.7-1-.25L98.91,292l.94.23Zm-3-.76-1-.26,1.58-5.79,1,.25Zm-2.95-.82-1-.28,1.69-5.76,1,.28Zm-2.92-.88-1-.3,1.83-5.72.93.29Zm-2.91-.94-1-.32,1.94-5.68.93.31Zm-2.9-1-1-.34,2-5.64.93.34Zm-2.86-1.05-1-.37,2.17-5.59.91.35Zm-2.85-1.12-.93-.38,2.27-5.55.91.37Zm-2.82-1.17-.93-.4,2.39-5.51.9.39Zm-2.79-1.23-.94-.43L74,283.25l.88.4Zm-2.78-1.29-.91-.44,2.61-5.4.89.43Zm-2.74-1.35L66,286l2.71-5.35.88.45Zm-2.72-1.39-.89-.48,2.83-5.29.87.46Zm-2.68-1.46-.89-.49,2.94-5.23.86.48Zm-2.66-1.51-.87-.51,3-5.17.85.5Zm-2.62-1.56L55.4,280l3.14-5.12.84.52ZM53.66,279l-.85-.55,3.25-5,.83.53Zm-2.55-1.66-.85-.57,3.36-5,.81.54Zm-2.53-1.72-.83-.58,3.45-4.91.8.56Zm-2.49-1.77-.82-.6,3.55-4.83.79.57Z"/></g><g class="cls-2"><path class="cls-1" d="M133.06,276.92h-1l.3-20h.92Zm41.8-6.74-6.47-18.93.84-.28,6.65,18.86Zm-84.48-1.24-1-.39L96.6,249.9l.82.32Zm122.47-19.73-12.53-15.59.66-.53,12.72,15.43ZM53,246.84l-.79-.68,13.1-15.11.69.59Zm188.35-30.35-17.12-10.35.45-.75,17.22,10.17ZM25.45,213.32l-.51-.91,17.49-9.71.44.8ZM257,176l-19.62-3.88.16-.87L257.24,175C257.17,175.31,257.11,175.66,257,176Zm-246-3.57-.18-1.11,19.75-3.11.13.81Zm227-36.74-.16-1,19.7-3.41.22,1.31Zm-207-3.06L11.45,129l.2-1,19.63,3.82ZM226.23,101l-.44-.79,17.42-9.82.52.92ZM44,98.51,26.73,88.35l.54-.92L44.41,97.75ZM203.27,72.7l-.66-.57,13-15.21.82.71ZM67.66,70.8,54.93,55.37l.83-.68L68.34,70.24ZM172,53.89l-.84-.32,7.05-18.71,1,.37Zm-72.64-1L92.74,34l1-.36,6.46,18.93Zm36.88-6h-.9l.18-20,1,0Z"/></g><path class="cls-1" d="M247.35,79.2a133.68,133.68,0,0,1,21.36,72.71h-10a123.69,123.69,0,0,0-19.77-67.28Z"/><path class="cls-1" d="M46.6,253.65A134.35,134.35,0,0,1,134.35,17.56h1.58l-.12,10h-1.46A124.33,124.33,0,0,0,53.14,246.06Z"/><path class="cls-1" d="M248.24,223.22a134.26,134.26,0,0,1-113.89,63v-10a124.25,124.25,0,0,0,105.4-58.33Z"/></g></g></svg>