<svg xmlns="http://www.w3.org/2000/svg" viewBox="0 0 708.01 708.32"><defs><style>.cls-1{fill:#fff;}.cls-2{opacity:0.2;}.cls-3{opacity:0.5;}.cls-4{opacity:0.3;}</style></defs><title>资源 5</title><g id="图层_2" data-name="图层 2"><g id="Layer_1" data-name="Layer 1"><path class="cls-1" d="M354.07,539.32H354c-.6,0-1.26-.46-1.91-.47-.83,0-1.49-.45-1.48-1.28s.67-1.25,1.5-1.25h0c.64,0,1.28-.45,1.92-.45a1.73,1.73,0,0,1,1.53,1.72A1.69,1.69,0,0,1,354.07,539.32Zm4-1a1.49,1.49,0,1,1,0-3l2-.05a1.49,1.49,0,1,1,.09,3c-.67,0-1.34,0-2,0Zm-10,0h0c-.67,0-1.35-.05-2-.08a1.51,1.51,0,0,1-1.44-1.57,1.48,1.48,0,0,1,1.56-1.43l2,.07a1.51,1.51,0,0,1,0,3Zm16-.19a1.5,1.5,0,0,1-.08-3l2-.12a1.53,1.53,0,0,1,1.59,1.4,1.5,1.5,0,0,1-1.4,1.6l-2,.12ZM342.1,538H342l-2-.14a1.5,1.5,0,0,1,.22-3l2,.13a1.5,1.5,0,0,1-.1,3Zm27.92-.31a1.5,1.5,0,0,1-.13-3l2-.19a1.5,1.5,0,1,1,.29,3l-2,.19Zm-33.88-.17H336l-2-.2a1.5,1.5,0,0,1,.32-3l2,.21a1.5,1.5,0,0,1-.14,3ZM376,537.1a1.5,1.5,0,0,1-.17-3l2-.25a1.5,1.5,0,0,1,.39,3l-2,.25Zm-45.78-.24H330l-2-.27a1.5,1.5,0,1,1,.42-3l2,.27a1.5,1.5,0,0,1-.19,3Zm51.71-.57a1.5,1.5,0,0,1-.22-3l1.95-.31a1.5,1.5,0,1,1,.49,3l-2,.31Zm-57.64-.3a1,1,0,0,1-.24,0c-.67-.1-1.33-.22-2-.33a1.5,1.5,0,0,1,.52-3l1.95.33a1.5,1.5,0,0,1-.24,3Zm63.55-.7a1.5,1.5,0,0,1-.27-3l1.94-.37a1.5,1.5,0,0,1,.58,2.94l-2,.38Zm-69.44-.36a1.36,1.36,0,0,1-.29,0l-2-.4a1.5,1.5,0,1,1,.62-2.93l1.94.39a1.5,1.5,0,0,1-.29,3Zm75.31-.84a1.51,1.51,0,0,1-1.47-1.18,1.49,1.49,0,0,1,1.14-1.78l1.94-.44a1.5,1.5,0,1,1,.67,2.92l-2,.44A1.22,1.22,0,0,1,393.68,534.09Zm-81.17-.41a2.09,2.09,0,0,1-.34,0l-2-.47a1.5,1.5,0,1,1,.71-2.91l1.93.45a1.51,1.51,0,0,1-.34,3Zm87-1a1.5,1.5,0,0,1-.37-3l1.92-.5a1.5,1.5,0,1,1,.77,2.89c-.65.18-1.29.35-1.94.51A1.24,1.24,0,0,1,399.5,532.7Zm-92.8-.47a1.74,1.74,0,0,1-.39-.05l-1.94-.53a1.5,1.5,0,1,1,.81-2.89l1.91.52a1.5,1.5,0,0,1-.39,3Zm98.58-1.11a1.5,1.5,0,0,1-.42-2.94l1.9-.56a1.5,1.5,0,1,1,.87,2.87l-1.93.57A1.52,1.52,0,0,1,405.28,531.12Zm-104.34-.53a1.29,1.29,0,0,1-.43-.07l-1.94-.59a1.5,1.5,0,0,1,.9-2.86l1.91.58a1.5,1.5,0,0,1-.44,2.94ZM411,529.35a1.5,1.5,0,0,1-.47-2.92l1.88-.63a1.5,1.5,0,0,1,1,2.84l-1.91.64A1.58,1.58,0,0,1,411,529.35Zm-115.78-.6a1.4,1.4,0,0,1-.49-.08l-1.91-.66a1.5,1.5,0,0,1,1-2.83l1.88.65a1.5,1.5,0,0,1-.48,2.92Zm121.44-1.35a1.5,1.5,0,0,1-.51-2.91l1.85-.69a1.5,1.5,0,1,1,1.06,2.81l-1.89.7A1.52,1.52,0,0,1,416.66,527.4Zm-127.1-.67a1.39,1.39,0,0,1-.53-.1l-1.89-.72a1.5,1.5,0,0,1,1.09-2.8c.62.24,1.23.48,1.86.71a1.5,1.5,0,0,1-.53,2.91Zm132.69-1.48a1.5,1.5,0,0,1-.56-2.89l1.83-.74a1.5,1.5,0,0,1,2,.81,1.51,1.51,0,0,1-.81,2l-1.86.76A1.54,1.54,0,0,1,422.25,525.25ZM284,524.52a1.6,1.6,0,0,1-.57-.11c-.63-.26-1.25-.52-1.86-.79a1.5,1.5,0,1,1,1.17-2.76l1.83.77a1.5,1.5,0,0,1-.57,2.89Zm143.78-1.58a1.5,1.5,0,0,1-.6-2.88l1.8-.8a1.5,1.5,0,0,1,1.24,2.73l-1.83.82A1.49,1.49,0,0,1,427.75,522.94Zm-149.29-.81a1.5,1.5,0,0,1-.62-.13l-1.83-.85a1.5,1.5,0,1,1,1.27-2.72l1.8.83a1.5,1.5,0,0,1-.62,2.87Zm154.71-1.69a1.5,1.5,0,0,1-.65-2.85l1.77-.86a1.5,1.5,0,0,1,1.33,2.69l-1.8.87A1.51,1.51,0,0,1,433.17,520.44ZM273,519.56a1.46,1.46,0,0,1-.66-.16l-1.8-.9a1.5,1.5,0,1,1,1.36-2.67l1.77.88a1.5,1.5,0,0,1-.67,2.85Zm165.48-1.79a1.5,1.5,0,0,1-.69-2.83l1.74-.92a1.5,1.5,0,0,1,1.42,2.64l-1.78.94A1.56,1.56,0,0,1,438.51,517.77Zm-170.81-1a1.53,1.53,0,0,1-.71-.18q-.89-.46-1.77-1a1.5,1.5,0,0,1,1.44-2.63c.58.32,1.16.64,1.75,1a1.5,1.5,0,0,1-.71,2.82Zm176.06-1.89a1.5,1.5,0,0,1-.74-2.81l1.72-1a1.5,1.5,0,1,1,1.5,2.59l-1.74,1A1.54,1.54,0,0,1,443.76,514.92Zm-181.3-1a1.43,1.43,0,0,1-.75-.2l-1.74-1a1.5,1.5,0,1,1,1.53-2.58l1.71,1a1.5,1.5,0,0,1-.75,2.8Zm186.45-2a1.49,1.49,0,0,1-1.28-.72,1.5,1.5,0,0,1,.5-2.06l1.69-1a1.5,1.5,0,0,1,1.58,2.54q-.84.54-1.71,1.05A1.46,1.46,0,0,1,448.91,511.9Zm-191.59-1.1a1.46,1.46,0,0,1-.8-.23l-1.7-1.07a1.5,1.5,0,0,1,1.61-2.53l1.68,1.06a1.5,1.5,0,0,1-.79,2.77ZM454,508.72a1.5,1.5,0,0,1-.82-2.76l1.65-1.09a1.5,1.5,0,1,1,1.67,2.49l-1.68,1.11A1.46,1.46,0,0,1,454,508.72Zm-201.69-1.17a1.48,1.48,0,0,1-.83-.26l-1.67-1.13a1.5,1.5,0,1,1,1.69-2.47l1.65,1.11a1.5,1.5,0,0,1-.84,2.75Zm206.64-2.18a1.5,1.5,0,0,1-.86-2.73c.54-.38,1.08-.76,1.61-1.15a1.5,1.5,0,0,1,1.75,2.44l-1.64,1.16A1.45,1.45,0,0,1,458.92,505.37Zm-211.57-1.24a1.5,1.5,0,0,1-.87-.28l-1.63-1.19a1.5,1.5,0,1,1,1.78-2.41l1.6,1.16a1.5,1.5,0,0,1-.88,2.72Zm216.41-2.28a1.49,1.49,0,0,1-.9-2.69l1.58-1.2a1.5,1.5,0,1,1,1.82,2.38l-1.6,1.21A1.44,1.44,0,0,1,463.76,501.85Zm-221.22-1.3a1.47,1.47,0,0,1-.91-.31L240,499a1.5,1.5,0,0,1,1.85-2.36l1.57,1.21a1.5,1.5,0,0,1-.92,2.69Zm226-2.36a1.5,1.5,0,0,1-.94-2.67l1.53-1.25a1.5,1.5,0,0,1,1.91,2.32l-1.57,1.27A1.47,1.47,0,0,1,468.49,498.19Zm-230.64-1.37a1.5,1.5,0,0,1-.95-.34l-1.55-1.28a1.5,1.5,0,0,1,1.93-2.3l1.53,1.26a1.51,1.51,0,0,1,.2,2.12A1.47,1.47,0,0,1,237.85,496.82Zm235.24-2.45a1.5,1.5,0,0,1-1-2.64l1.5-1.3a1.5,1.5,0,0,1,2,2.26L474.07,494A1.52,1.52,0,0,1,473.09,494.37Zm-239.8-1.43a1.51,1.51,0,0,1-1-.37c-.5-.44-1-.89-1.5-1.34a1.5,1.5,0,1,1,2-2.23l1.48,1.32a1.5,1.5,0,0,1-1,2.62Zm244.28-2.54a1.52,1.52,0,0,1-1.11-.49,1.49,1.49,0,0,1,.1-2.12l1.45-1.34a1.49,1.49,0,0,1,2.12.07,1.51,1.51,0,0,1-.07,2.12L478.58,490A1.47,1.47,0,0,1,477.57,490.4Zm-248.71-1.48a1.47,1.47,0,0,1-1-.41l-1.46-1.38a1.5,1.5,0,0,1,2.08-2.17l1.43,1.37a1.49,1.49,0,0,1,.07,2.12A1.53,1.53,0,0,1,228.86,488.92Zm253.06-2.64a1.5,1.5,0,0,1-1.05-2.57l1.41-1.39a1.5,1.5,0,0,1,2.12,2.12L483,485.86A1.54,1.54,0,0,1,481.92,486.28Zm-257.37-1.53a1.48,1.48,0,0,1-1.06-.44l-1.41-1.43a1.5,1.5,0,1,1,2.14-2.09l1.39,1.4a1.49,1.49,0,0,1,0,2.12A1.45,1.45,0,0,1,224.55,484.75ZM486.13,482a1.5,1.5,0,0,1-1.08-2.54c.46-.47.91-.95,1.36-1.43a1.5,1.5,0,1,1,2.19,2.05l-1.39,1.46A1.48,1.48,0,0,1,486.13,482Zm-265.74-1.58a1.49,1.49,0,0,1-1.09-.47l-1.37-1.48a1.5,1.5,0,0,1,2.21-2l1.35,1.46a1.49,1.49,0,0,1-1.1,2.52Zm269.81-2.81a1.54,1.54,0,0,1-1-.38,1.51,1.51,0,0,1-.11-2.12l1.31-1.48a1.5,1.5,0,1,1,2.26,2l-1.34,1.5A1.48,1.48,0,0,1,490.2,477.64ZM216.37,476a1.54,1.54,0,0,1-1.13-.51c-.44-.51-.88-1-1.31-1.52a1.5,1.5,0,1,1,2.27-2l1.3,1.5a1.51,1.51,0,0,1-1.13,2.49Zm277.76-2.9a1.51,1.51,0,0,1-1-.35,1.49,1.49,0,0,1-.18-2.11l1.26-1.53a1.5,1.5,0,0,1,2.32,1.91l-1.28,1.54A1.5,1.5,0,0,1,494.13,473.12ZM212.5,471.45a1.5,1.5,0,0,1-1.16-.54l-1.27-1.56a1.51,1.51,0,0,1,.23-2.11,1.5,1.5,0,0,1,2.11.23l1.25,1.53a1.49,1.49,0,0,1-.21,2.11A1.48,1.48,0,0,1,212.5,471.45Zm285.41-3a1.45,1.45,0,0,1-.92-.32,1.5,1.5,0,0,1-.25-2.11l1.21-1.56a1.5,1.5,0,0,1,2.38,1.83l-1.24,1.59A1.47,1.47,0,0,1,497.91,468.47Zm-289.13-1.7a1.49,1.49,0,0,1-1.19-.59c-.41-.53-.81-1.06-1.21-1.6a1.5,1.5,0,0,1,.29-2.1,1.52,1.52,0,0,1,2.11.3c.39.53.79,1.05,1.19,1.58a1.5,1.5,0,0,1-.28,2.1A1.47,1.47,0,0,1,208.78,466.77Zm292.76-3.07a1.45,1.45,0,0,1-.88-.29,1.5,1.5,0,0,1-.32-2.1c.39-.53.78-1.06,1.16-1.6a1.5,1.5,0,0,1,2.44,1.75c-.39.55-.79,1.09-1.19,1.63A1.49,1.49,0,0,1,501.54,463.7ZM205.22,462a1.49,1.49,0,0,1-1.22-.63l-1.17-1.64a1.5,1.5,0,0,1,2.46-1.72l1.14,1.61a1.5,1.5,0,0,1-.34,2.1A1.48,1.48,0,0,1,205.22,462ZM505,458.82a1.51,1.51,0,0,1-1.24-2.35l1.11-1.64a1.5,1.5,0,1,1,2.49,1.67c-.37.56-.75,1.11-1.13,1.66A1.49,1.49,0,0,1,505,458.82Zm-303.21-1.76a1.52,1.52,0,0,1-1.25-.67l-1.11-1.67a1.5,1.5,0,0,1,2.51-1.65l1.1,1.65a1.5,1.5,0,0,1-.42,2.08A1.48,1.48,0,0,1,201.81,457.06Zm306.52-3.24a1.5,1.5,0,0,1-1.26-2.31l1.05-1.68a1.5,1.5,0,1,1,2.55,1.59c-.36.57-.71,1.14-1.08,1.71A1.5,1.5,0,0,1,508.33,453.82ZM198.57,452a1.53,1.53,0,0,1-1.28-.71l-1-1.71a1.5,1.5,0,1,1,2.56-1.56l1,1.68a1.5,1.5,0,0,1-.48,2.07A1.54,1.54,0,0,1,198.57,452Zm312.9-3.33a1.5,1.5,0,0,1-1.28-2.27l1-1.7a1.5,1.5,0,0,1,2.6,1.5c-.34.58-.68,1.16-1,1.74A1.49,1.49,0,0,1,511.47,448.71Zm-316-1.8a1.5,1.5,0,0,1-1.3-.75l-1-1.74a1.5,1.5,0,1,1,2.61-1.47c.32.57.65,1.14,1,1.71a1.5,1.5,0,0,1-.55,2A1.46,1.46,0,0,1,195.49,446.91Zm319-3.41a1.57,1.57,0,0,1-.72-.18,1.5,1.5,0,0,1-.59-2l1-1.74a1.5,1.5,0,1,1,2.64,1.42l-1,1.77A1.51,1.51,0,0,1,514.45,443.5Zm-321.87-1.8a1.5,1.5,0,0,1-1.32-.8c-.32-.59-.63-1.18-.94-1.77a1.5,1.5,0,0,1,2.66-1.39c.3.59.61,1.17.92,1.75a1.5,1.5,0,0,1-.61,2A1.53,1.53,0,0,1,192.58,441.7Zm324.68-3.5a1.5,1.5,0,0,1-1.34-2.18c.3-.59.6-1.18.89-1.77a1.5,1.5,0,0,1,2.69,1.33l-.9,1.8A1.51,1.51,0,0,1,517.26,438.2Zm-327.41-1.81a1.52,1.52,0,0,1-1.35-.84l-.88-1.8a1.5,1.5,0,0,1,2.71-1.3c.28.59.57,1.18.86,1.77a1.49,1.49,0,0,1-.68,2A1.43,1.43,0,0,1,189.85,436.39Zm330-3.58a1.42,1.42,0,0,1-.63-.15,1.5,1.5,0,0,1-.73-2l.84-1.8a1.5,1.5,0,1,1,2.73,1.24c-.28.61-.56,1.22-.85,1.83A1.49,1.49,0,0,1,519.89,432.81ZM187.29,431a1.48,1.48,0,0,1-1.36-.88c-.28-.6-.55-1.21-.82-1.83a1.5,1.5,0,0,1,2.74-1.21c.27.61.53,1.2.81,1.8a1.5,1.5,0,0,1-1.37,2.12Zm335.05-3.67a1.34,1.34,0,0,1-.58-.12,1.49,1.49,0,0,1-.79-2c.26-.6.51-1.21.77-1.83a1.5,1.5,0,1,1,2.77,1.15c-.26.63-.52,1.25-.79,1.86A1.49,1.49,0,0,1,522.34,427.32Zm-337.43-1.8a1.51,1.51,0,0,1-1.38-.92c-.26-.62-.51-1.24-.76-1.86a1.5,1.5,0,0,1,2.78-1.12l.75,1.83a1.5,1.5,0,0,1-.81,2A1.66,1.66,0,0,1,184.91,425.52Zm339.71-3.76a1.52,1.52,0,0,1-.55-.1,1.5,1.5,0,0,1-.85-1.94c.24-.62.48-1.24.71-1.86a1.5,1.5,0,0,1,2.81,1.06c-.24.63-.48,1.26-.73,1.89A1.49,1.49,0,0,1,524.62,421.76ZM182.71,420a1.49,1.49,0,0,1-1.4-1c-.24-.63-.47-1.25-.7-1.88a1.5,1.5,0,1,1,2.82-1c.22.62.45,1.24.68,1.85a1.5,1.5,0,0,1-.87,1.94A1.6,1.6,0,0,1,182.71,420Zm344-3.83a1.43,1.43,0,0,1-.5-.09,1.49,1.49,0,0,1-.92-1.91c.22-.62.44-1.25.65-1.88a1.5,1.5,0,1,1,2.84,1l-.66,1.91A1.51,1.51,0,0,1,526.71,416.13Zm-346-1.8a1.51,1.51,0,0,1-1.42-1c-.22-.64-.43-1.27-.64-1.91a1.5,1.5,0,0,1,2.85-.94l.63,1.88a1.5,1.5,0,0,1-.94,1.91A1.61,1.61,0,0,1,180.69,414.33Zm347.92-3.9a1.76,1.76,0,0,1-.45-.07,1.51,1.51,0,0,1-1-1.88c.2-.64.4-1.27.59-1.91a1.5,1.5,0,1,1,2.87.88c-.19.64-.39,1.28-.59,1.93A1.51,1.51,0,0,1,528.61,410.43Zm-349.75-1.81a1.5,1.5,0,0,1-1.44-1.06l-.57-1.93a1.5,1.5,0,0,1,2.88-.84c.18.63.37,1.27.56,1.9a1.49,1.49,0,0,1-1,1.87A1.59,1.59,0,0,1,178.86,408.62Zm351.45-3.94a1.44,1.44,0,0,1-.4-.06,1.5,1.5,0,0,1-1-1.85c.17-.63.35-1.27.52-1.91a1.5,1.5,0,0,1,2.9.78l-.53,1.94A1.52,1.52,0,0,1,530.31,404.68Zm-353.1-1.81a1.51,1.51,0,0,1-1.45-1.12l-.51-1.94a1.5,1.5,0,0,1,2.91-.75c.16.64.33,1.28.5,1.92a1.51,1.51,0,0,1-1.06,1.84A1.74,1.74,0,0,1,177.21,402.87Zm354.62-4a1.47,1.47,0,0,1-.36,0,1.49,1.49,0,0,1-1.1-1.81c.16-.64.31-1.29.46-1.93a1.5,1.5,0,1,1,2.92.68c-.15.65-.31,1.31-.47,2A1.5,1.5,0,0,1,531.83,398.88Zm-356.07-1.82a1.5,1.5,0,0,1-1.46-1.16c-.16-.66-.3-1.31-.45-2a1.48,1.48,0,0,1,1.14-1.78,1.5,1.5,0,0,1,1.79,1.14c.14.64.29,1.29.44,1.93a1.51,1.51,0,0,1-1.12,1.8A2.09,2.09,0,0,1,175.76,397.06Zm357.39-4a1.63,1.63,0,0,1-.31,0,1.5,1.5,0,0,1-1.16-1.78c.14-.64.27-1.29.4-1.93a1.5,1.5,0,1,1,2.94.58c-.13.66-.27,1.31-.4,2A1.5,1.5,0,0,1,533.15,393ZM174.49,391.2A1.51,1.51,0,0,1,173,390c-.13-.66-.25-1.32-.38-2a1.5,1.5,0,0,1,3-.55c.12.65.25,1.29.38,1.94a1.5,1.5,0,0,1-1.18,1.76Zm359.79-4-.26,0a1.5,1.5,0,0,1-1.22-1.74l.33-1.95a1.5,1.5,0,1,1,3,.49c-.11.66-.22,1.32-.34,2A1.49,1.49,0,0,1,534.28,387.16Zm-360.86-1.85a1.49,1.49,0,0,1-1.47-1.25c-.11-.67-.22-1.33-.32-2a1.5,1.5,0,0,1,3-.46c.1.66.2,1.31.31,2a1.5,1.5,0,0,1-1.24,1.72A1,1,0,0,1,173.42,385.31Zm361.8-4.06-.22,0a1.49,1.49,0,0,1-1.27-1.69l.27-2a1.5,1.5,0,1,1,3,.38l-.27,2A1.5,1.5,0,0,1,535.22,381.25Zm-362.67-1.86a1.51,1.51,0,0,1-1.49-1.31c-.08-.66-.17-1.33-.25-2a1.5,1.5,0,0,1,3-.35c.08.65.16,1.31.25,2a1.49,1.49,0,0,1-1.29,1.68ZM536,375.3h-.17a1.51,1.51,0,0,1-1.33-1.66c.08-.65.14-1.31.21-2a1.5,1.5,0,0,1,3,.29c-.06.67-.13,1.34-.2,2A1.51,1.51,0,0,1,536,375.3Zm-364.09-1.86a1.5,1.5,0,0,1-1.49-1.36c-.07-.66-.13-1.33-.19-2a1.5,1.5,0,0,1,3-.26l.18,2a1.5,1.5,0,0,1-1.34,1.64Zm364.63-4.1h-.11a1.5,1.5,0,0,1-1.38-1.61c0-.66.09-1.32.14-2a1.48,1.48,0,0,1,1.59-1.4,1.51,1.51,0,0,1,1.4,1.6c0,.67-.09,1.34-.14,2A1.5,1.5,0,0,1,536.5,369.34Zm-365.12-1.87a1.5,1.5,0,0,1-1.49-1.4q-.07-1-.12-2a1.5,1.5,0,1,1,3-.16l.12,2a1.5,1.5,0,0,1-1.4,1.6Zm365.48-4.11h-.07a1.48,1.48,0,0,1-1.43-1.56c0-.66,0-1.32.07-2a1.52,1.52,0,0,1,1.55-1.45,1.5,1.5,0,0,1,1.45,1.55c0,.67,0,1.34-.07,2A1.5,1.5,0,0,1,536.86,363.36Zm-365.77-1c-.8,0-1.47-1.06-1.5-1.87,0-.66,0-1.54-.05-2.21A1.6,1.6,0,0,1,171,356.6a1.44,1.44,0,0,1,1.54,1.42c0,.66,0,1.71.05,2.36,0,.83-.62,1.94-1.45,1.94Zm365.93-5h0c-.83,0-1.25-.66-1.24-1.49,0-.65.25-1.29.25-1.95v-.25a1.5,1.5,0,0,1,3,0v.25c0,.67-.25,1.32-.25,2A1.7,1.7,0,0,1,537,357.32Zm-366.51-1.81A1.5,1.5,0,0,1,169,354v-.13c0-.63.24-.85.25-1.48,0-.82.92-1.08,1.74-1.08h0c.83,0,1.25.28,1.24,1.11,0,.62-.25.83-.25,1.45V354A1.51,1.51,0,0,1,170.51,355.51ZM537,351.32a1.58,1.58,0,0,1-1.5-1.55c0-.66,0-1.37-.06-2a1.52,1.52,0,0,1,1.45-1.57,1.49,1.49,0,0,1,1.55,1.43c0,.67,0,1.42.06,2.09a1.57,1.57,0,0,1-1.47,1.62Zm-365.89-1H171c-.83,0-1.48-1.12-1.45-1.95,0-.67,0-1.54.07-2.21a1.58,1.58,0,0,1,1.56-1.53,1.46,1.46,0,0,1,1.44,1.51c0,.66-.06,1.69-.08,2.35S171.89,350.32,171.09,350.32Zm365.66-5.16a1.49,1.49,0,0,1-1.5-1.41l-.12-2a1.5,1.5,0,1,1,3-.2q.07,1,.12,2a1.49,1.49,0,0,1-1.41,1.58Zm-365.38-1.62h-.1a1.5,1.5,0,0,1-1.4-1.59c0-.67.09-1.34.14-2a1.5,1.5,0,0,1,3,.23c-.05.65-.09,1.31-.13,2A1.5,1.5,0,0,1,171.37,343.54Zm365-4.35a1.49,1.49,0,0,1-1.49-1.37c-.06-.66-.12-1.31-.19-2a1.5,1.5,0,0,1,3-.29c.06.66.13,1.33.18,2a1.48,1.48,0,0,1-1.36,1.62Zm-364.47-1.62h-.15a1.5,1.5,0,0,1-1.35-1.64l.21-2a1.5,1.5,0,0,1,3,.32c-.07.66-.14,1.32-.2,2A1.51,1.51,0,0,1,171.85,337.57Zm363.85-4.34a1.5,1.5,0,0,1-1.49-1.32c-.08-.65-.16-1.31-.25-2a1.5,1.5,0,0,1,3-.39c.09.66.17,1.33.25,2a1.49,1.49,0,0,1-1.31,1.67Zm-363.18-1.61-.19,0a1.49,1.49,0,0,1-1.3-1.68l.27-2a1.52,1.52,0,0,1,1.7-1.28,1.5,1.5,0,0,1,1.27,1.7c-.09.65-.18,1.31-.26,2A1.51,1.51,0,0,1,172.52,331.62Zm362.37-4.32a1.49,1.49,0,0,1-1.48-1.27c-.11-.65-.21-1.3-.32-1.95a1.5,1.5,0,1,1,3-.49c.11.66.22,1.32.32,2a1.49,1.49,0,0,1-1.25,1.71A.93.93,0,0,1,534.89,327.3Zm-361.5-1.61a1,1,0,0,1-.24,0,1.49,1.49,0,0,1-1.24-1.72l.33-2a1.5,1.5,0,0,1,3,.51q-.18,1-.33,1.95A1.5,1.5,0,0,1,173.39,325.69Zm360.49-4.29a1.51,1.51,0,0,1-1.48-1.22c-.12-.65-.24-1.3-.37-1.95a1.5,1.5,0,1,1,2.94-.58c.13.65.26,1.31.38,2a1.49,1.49,0,0,1-1.19,1.75Zm-359.43-1.6a1.43,1.43,0,0,1-.29,0A1.49,1.49,0,0,1,173,318c.13-.66.26-1.32.4-2a1.5,1.5,0,0,1,2.93.62l-.39,1.94A1.51,1.51,0,0,1,174.45,319.8Zm358.23-4.27a1.5,1.5,0,0,1-1.47-1.17c-.14-.65-.29-1.29-.44-1.93a1.5,1.5,0,0,1,2.92-.68c.16.65.31,1.3.45,2A1.5,1.5,0,0,1,533,315.5Zm-357-1.59-.34,0a1.51,1.51,0,0,1-1.12-1.8c.15-.66.31-1.31.47-2a1.5,1.5,0,1,1,2.91.71c-.16.64-.31,1.28-.46,1.92A1.48,1.48,0,0,1,175.7,313.94Zm355.58-4.23a1.49,1.49,0,0,1-1.45-1.13c-.16-.64-.33-1.27-.5-1.91a1.5,1.5,0,1,1,2.89-.78c.18.65.35,1.3.52,1.95a1.5,1.5,0,0,1-1.08,1.82A1.65,1.65,0,0,1,531.28,309.71Zm-354.13-1.58a1.31,1.31,0,0,1-.39-.05,1.49,1.49,0,0,1-1.06-1.83c.17-.65.35-1.3.53-1.95a1.5,1.5,0,1,1,2.89.81c-.18.64-.35,1.27-.52,1.91A1.5,1.5,0,0,1,177.15,308.13Zm352.55-4.19a1.51,1.51,0,0,1-1.44-1.08l-.57-1.9a1.5,1.5,0,0,1,2.87-.87c.2.64.39,1.28.58,1.92a1.49,1.49,0,0,1-1,1.86A1.23,1.23,0,0,1,529.7,303.94Zm-350.91-1.57a1.67,1.67,0,0,1-.44-.06,1.5,1.5,0,0,1-1-1.87c.19-.65.39-1.29.59-1.93a1.5,1.5,0,0,1,2.87.89c-.2.64-.4,1.27-.59,1.91A1.5,1.5,0,0,1,178.79,302.37Zm349.13-4.15a1.48,1.48,0,0,1-1.42-1l-.63-1.87a1.5,1.5,0,1,1,2.84-1c.21.63.43,1.27.64,1.91a1.5,1.5,0,0,1-1,1.89A1.55,1.55,0,0,1,527.92,298.22Zm-347.3-1.57a1.61,1.61,0,0,1-.48-.08,1.5,1.5,0,0,1-.94-1.91c.21-.63.43-1.27.66-1.9a1.49,1.49,0,0,1,1.91-.92,1.5,1.5,0,0,1,.92,1.91c-.22.62-.44,1.25-.65,1.88A1.51,1.51,0,0,1,180.62,296.65ZM526,292.56a1.5,1.5,0,0,1-1.41-1l-.69-1.85a1.5,1.5,0,1,1,2.81-1.06c.23.62.47,1.25.7,1.88a1.5,1.5,0,0,1-1.41,2ZM182.64,291a1.42,1.42,0,0,1-.53-.1,1.5,1.5,0,0,1-.87-1.93q.34-.94.72-1.89a1.5,1.5,0,0,1,2.79,1.09L184,290A1.49,1.49,0,0,1,182.64,291Zm341.17-4a1.51,1.51,0,0,1-1.39-.94l-.75-1.83a1.5,1.5,0,1,1,2.77-1.15c.26.62.51,1.24.76,1.86a1.5,1.5,0,0,1-.83,1.95A1.55,1.55,0,0,1,523.81,287Zm-339-1.57a1.7,1.7,0,0,1-.58-.11,1.5,1.5,0,0,1-.81-2l.78-1.87a1.5,1.5,0,0,1,2.76,1.18l-.77,1.83A1.49,1.49,0,0,1,184.85,285.4Zm336.64-3.93a1.5,1.5,0,0,1-1.37-.89l-.81-1.8a1.5,1.5,0,1,1,2.73-1.24c.28.61.55,1.22.82,1.83a1.5,1.5,0,0,1-.76,2A1.66,1.66,0,0,1,521.49,281.47Zm-334.25-1.58a1.5,1.5,0,0,1-1.37-2.12l.84-1.83a1.5,1.5,0,1,1,2.72,1.27c-.28.59-.55,1.2-.83,1.8A1.5,1.5,0,0,1,187.24,279.89ZM519,276.05a1.5,1.5,0,0,1-1.35-.84l-.87-1.78a1.5,1.5,0,1,1,2.69-1.33c.3.6.59,1.2.88,1.8a1.49,1.49,0,0,1-1.35,2.15ZM189.8,274.46a1.55,1.55,0,0,1-.66-.15,1.5,1.5,0,0,1-.68-2c.3-.6.6-1.21.9-1.8a1.5,1.5,0,0,1,2.68,1.35c-.3.59-.6,1.18-.89,1.78A1.49,1.49,0,0,1,189.8,274.46Zm326.51-3.74a1.49,1.49,0,0,1-1.33-.81l-.92-1.74a1.5,1.5,0,0,1,2.64-1.42c.32.59.63,1.18.94,1.77a1.51,1.51,0,0,1-.64,2A1.56,1.56,0,0,1,516.31,270.72Zm-323.76-1.59a1.53,1.53,0,0,1-.71-.18,1.5,1.5,0,0,1-.61-2c.31-.59.64-1.19,1-1.77a1.5,1.5,0,1,1,2.63,1.44l-.95,1.74A1.49,1.49,0,0,1,192.55,269.13Zm320.91-3.66a1.51,1.51,0,0,1-1.31-.76c-.32-.57-.65-1.14-1-1.71a1.5,1.5,0,0,1,2.6-1.51c.33.58.67,1.16,1,1.74a1.5,1.5,0,0,1-.56,2A1.54,1.54,0,0,1,513.46,265.47Zm-318-1.59a1.43,1.43,0,0,1-.75-.2,1.5,1.5,0,0,1-.55-2.05l1-1.74a1.5,1.5,0,0,1,2.58,1.53c-.34.57-.67,1.14-1,1.72A1.49,1.49,0,0,1,195.47,263.88Zm315-3.56a1.51,1.51,0,0,1-1.28-.72l-1-1.68a1.5,1.5,0,1,1,2.54-1.59c.36.57.71,1.14,1.06,1.71a1.5,1.5,0,0,1-.51,2.06A1.46,1.46,0,0,1,510.43,260.32Zm-311.87-1.58a1.56,1.56,0,0,1-.8-.22,1.52,1.52,0,0,1-.48-2.07l1.08-1.71a1.5,1.5,0,0,1,2.53,1.62c-.36.55-.71,1.11-1.06,1.68A1.49,1.49,0,0,1,198.56,258.74Zm308.68-3.47a1.48,1.48,0,0,1-1.25-.68l-1.09-1.65a1.5,1.5,0,0,1,2.49-1.67L508.5,253a1.49,1.49,0,0,1-.44,2.07A1.44,1.44,0,0,1,507.24,255.27ZM201.81,253.7a1.47,1.47,0,0,1-.83-.25,1.5,1.5,0,0,1-.42-2.08c.38-.56.76-1.11,1.13-1.67a1.5,1.5,0,0,1,2.48,1.7c-.37.54-.75,1.09-1.11,1.64A1.51,1.51,0,0,1,201.81,253.7Zm302.08-3.38a1.49,1.49,0,0,1-1.23-.64l-1.15-1.61a1.5,1.5,0,0,1,2.44-1.75c.39.54.78,1.09,1.16,1.64a1.49,1.49,0,0,1-1.22,2.36Zm-298.66-1.54A1.5,1.5,0,0,1,204,246.4c.39-.54.78-1.09,1.18-1.63a1.5,1.5,0,0,1,2.42,1.78l-1.17,1.6A1.49,1.49,0,0,1,205.23,248.78Zm295.14-3.3a1.48,1.48,0,0,1-1.2-.6L498,243.31a1.5,1.5,0,0,1,2.37-1.83l1.22,1.6a1.5,1.5,0,0,1-.3,2.1A1.45,1.45,0,0,1,500.37,245.48ZM208.8,244a1.47,1.47,0,0,1-.91-.31,1.51,1.51,0,0,1-.28-2.11l1.24-1.59a1.5,1.5,0,0,1,2.36,1.86L210,243.38A1.49,1.49,0,0,1,208.8,244Zm287.9-3.21a1.5,1.5,0,0,1-1.17-.56l-1.25-1.53a1.5,1.5,0,0,1,2.32-1.91l1.27,1.56a1.5,1.5,0,0,1-.23,2.11A1.52,1.52,0,0,1,496.7,240.76Zm-284.17-1.49a1.48,1.48,0,0,1-.95-.34,1.49,1.49,0,0,1-.21-2.11c.42-.52.85-1,1.28-1.54a1.5,1.5,0,1,1,2.3,1.92l-1.26,1.53A1.5,1.5,0,0,1,212.53,239.27Zm280.35-3.11a1.49,1.49,0,0,1-1.14-.52l-1.3-1.5a1.5,1.5,0,0,1,2.25-2l1.32,1.52a1.5,1.5,0,0,1-1.13,2.48Zm-276.47-1.45a1.47,1.47,0,0,1-1-.37,1.49,1.49,0,0,1-.14-2.12c.44-.51.89-1,1.34-1.51a1.5,1.5,0,0,1,2.23,2l-1.32,1.48A1.47,1.47,0,0,1,216.41,234.71Zm272.49-3a1.52,1.52,0,0,1-1.11-.49c-.44-.49-.89-1-1.34-1.45a1.5,1.5,0,1,1,2.19-2.05l1.36,1.47a1.5,1.5,0,0,1-.09,2.12A1.47,1.47,0,0,1,488.9,231.69Zm-268.47-1.42a1.49,1.49,0,0,1-1.09-2.52c.45-.49.91-1,1.38-1.46a1.5,1.5,0,0,1,2.17,2.07l-1.37,1.44A1.49,1.49,0,0,1,220.43,230.27Zm264.35-2.93a1.48,1.48,0,0,1-1.07-.45l-1.39-1.41a1.49,1.49,0,0,1,0-2.12,1.51,1.51,0,0,1,2.12,0l1.41,1.43a1.5,1.5,0,0,1,0,2.12A1.48,1.48,0,0,1,484.78,227.34ZM224.59,226a1.53,1.53,0,0,1-1.06-.44,1.51,1.51,0,0,1,0-2.12L225,222a1.5,1.5,0,1,1,2.1,2.15c-.47.46-.94.92-1.4,1.39A1.53,1.53,0,0,1,224.59,226Zm255.93-2.84a1.51,1.51,0,0,1-1-.41l-1.44-1.37a1.49,1.49,0,0,1-.07-2.12,1.51,1.51,0,0,1,2.12-.07c.49.46,1,.92,1.46,1.39a1.5,1.5,0,0,1-1,2.58ZM228.9,221.81a1.5,1.5,0,0,1-1-2.6l1.48-1.37a1.5,1.5,0,0,1,2,2.22l-1.45,1.34A1.51,1.51,0,0,1,228.9,221.81Zm247.23-2.75a1.47,1.47,0,0,1-1-.38l-1.48-1.31a1.5,1.5,0,0,1,2-2.26c.51.44,1,.89,1.51,1.34a1.49,1.49,0,0,1,.12,2.11A1.51,1.51,0,0,1,476.13,219.06Zm-242.8-1.27a1.5,1.5,0,0,1-1-2.63l1.52-1.32a1.5,1.5,0,1,1,1.95,2.27l-1.49,1.3A1.52,1.52,0,0,1,233.33,217.79Zm238.27-2.65a1.51,1.51,0,0,1-1-.35c-.5-.43-1-.85-1.52-1.27a1.5,1.5,0,0,1,1.9-2.32l1.55,1.29a1.48,1.48,0,0,1,.18,2.11A1.47,1.47,0,0,1,471.6,215.14Zm-233.71-1.23a1.5,1.5,0,0,1-.95-2.66c.52-.42,1-.85,1.56-1.26a1.5,1.5,0,1,1,1.88,2.33l-1.54,1.25A1.48,1.48,0,0,1,237.89,213.91ZM467,211.36A1.45,1.45,0,0,1,466,211l-1.57-1.22a1.5,1.5,0,0,1,1.83-2.37l1.59,1.23a1.5,1.5,0,0,1-.93,2.68Zm-224.38-1.17a1.5,1.5,0,0,1-.91-2.69l1.6-1.22a1.5,1.5,0,1,1,1.8,2.4l-1.57,1.2A1.52,1.52,0,0,1,242.57,210.19Zm219.61-2.45a1.55,1.55,0,0,1-.89-.29c-.53-.4-1.06-.78-1.6-1.17a1.5,1.5,0,1,1,1.75-2.44l1.63,1.19a1.5,1.5,0,0,1-.89,2.71Zm-214.81-1.12a1.5,1.5,0,0,1-.87-2.72l1.64-1.16a1.5,1.5,0,1,1,1.72,2.46l-1.61,1.14A1.51,1.51,0,0,1,247.37,206.62Zm209.92-2.35a1.57,1.57,0,0,1-.85-.26c-.54-.38-1.09-.75-1.64-1.11a1.5,1.5,0,0,1,1.67-2.5l1.67,1.13a1.5,1.5,0,0,1-.85,2.74Zm-205-1.06a1.5,1.5,0,0,1-.84-2.74l1.68-1.11a1.5,1.5,0,0,1,1.64,2.51L253.12,203A1.52,1.52,0,0,1,252.29,203.21Zm200-2.25a1.49,1.49,0,0,1-.81-.23c-.55-.36-1.11-.71-1.68-1.06a1.5,1.5,0,0,1,1.59-2.55l1.71,1.08a1.5,1.5,0,0,1-.81,2.76Zm-195-1a1.51,1.51,0,0,1-1.28-.71,1.49,1.49,0,0,1,.48-2.06l1.71-1.06a1.5,1.5,0,0,1,1.56,2.57l-1.68,1A1.45,1.45,0,0,1,257.31,200Zm189.87-2.15a1.5,1.5,0,0,1-.76-.21l-1.72-1a1.5,1.5,0,0,1,1.5-2.6l1.74,1a1.5,1.5,0,0,1-.76,2.79Zm-184.75-.93a1.5,1.5,0,0,1-.76-2.8l1.75-1a1.5,1.5,0,1,1,1.47,2.61l-1.71,1A1.48,1.48,0,0,1,262.43,196.89Zm179.54-2a1.44,1.44,0,0,1-.72-.19l-1.75-.94a1.5,1.5,0,0,1,1.42-2.65l1.77,1a1.5,1.5,0,0,1-.72,2.82ZM267.64,194a1.5,1.5,0,0,1-.71-2.82l1.78-.94a1.5,1.5,0,0,1,1.38,2.66l-1.74.92A1.39,1.39,0,0,1,267.64,194Zm169-1.93a1.52,1.52,0,0,1-.68-.17l-1.77-.88a1.5,1.5,0,0,1,1.33-2.69q.9.44,1.8.9a1.5,1.5,0,0,1-.68,2.84ZM273,191.25a1.5,1.5,0,0,1-.67-2.85l1.81-.88a1.5,1.5,0,0,1,1.3,2.71l-1.78.86A1.43,1.43,0,0,1,273,191.25Zm158.31-1.83a1.6,1.6,0,0,1-.63-.14l-1.8-.83a1.5,1.5,0,1,1,1.23-2.73c.62.27,1.23.56,1.84.84a1.5,1.5,0,0,1-.64,2.86Zm-152.92-.73a1.5,1.5,0,0,1-.62-2.87l1.83-.82a1.5,1.5,0,1,1,1.21,2.75l-1.8.8A1.37,1.37,0,0,1,278.34,188.69ZM425.78,187a1.59,1.59,0,0,1-.59-.12l-1.83-.77a1.5,1.5,0,1,1,1.15-2.77l1.86.78a1.5,1.5,0,0,1-.59,2.88Zm-142-.66a1.5,1.5,0,0,1-.57-2.89l1.85-.76a1.5,1.5,0,0,1,1.12,2.79l-1.82.74A1.51,1.51,0,0,1,283.81,186.31Zm136.41-1.6a1.45,1.45,0,0,1-.54-.11l-1.86-.7a1.5,1.5,0,1,1,1.05-2.81q.94.34,1.89.72a1.5,1.5,0,0,1-.54,2.9Zm-130.85-.6a1.51,1.51,0,0,1-.53-2.91l1.89-.7a1.5,1.5,0,0,1,1,2.82l-1.86.69A1.61,1.61,0,0,1,289.37,184.11Zm125.21-1.49a1.4,1.4,0,0,1-.49-.08l-1.88-.65a1.5,1.5,0,0,1,1-2.84l1.91.66a1.5,1.5,0,0,1-.5,2.91ZM295,182.08a1.5,1.5,0,0,1-.49-2.92l1.91-.64a1.5,1.5,0,1,1,.94,2.85l-1.88.63A1.34,1.34,0,0,1,295,182.08Zm113.87-1.35a1.41,1.41,0,0,1-.45-.07l-1.9-.58a1.5,1.5,0,1,1,.86-2.88l1.93.6a1.5,1.5,0,0,1-.44,2.93Zm-108.17-.48a1.5,1.5,0,0,1-.44-2.94l1.93-.57a1.49,1.49,0,0,1,1.86,1,1.5,1.5,0,0,1-1,1.86l-1.9.56A1.29,1.29,0,0,1,300.71,180.25ZM403.13,179a1.45,1.45,0,0,1-.41-.06l-1.91-.52a1.5,1.5,0,1,1,.77-2.89l1.95.52a1.5,1.5,0,0,1-.4,2.95Zm-96.67-.43a1.5,1.5,0,0,1-.38-2.95l1.94-.51a1.5,1.5,0,1,1,.75,2.91l-1.92.5A1.74,1.74,0,0,1,306.46,178.6Zm90.87-1.08a1.39,1.39,0,0,1-.35,0l-1.93-.46a1.5,1.5,0,0,1,.68-2.92l1.95.46a1.5,1.5,0,0,1-.35,3Zm-85.06-.38a1.49,1.49,0,0,1-1.46-1.16,1.51,1.51,0,0,1,1.12-1.8l2-.44a1.5,1.5,0,0,1,.65,2.92l-1.93.44A1.39,1.39,0,0,1,312.27,177.14Zm79.22-.94a1.63,1.63,0,0,1-.31,0l-1.94-.39a1.5,1.5,0,0,1,.58-2.94l2,.4a1.49,1.49,0,0,1-.3,3Zm-73.37-.32a1.5,1.5,0,0,1-.28-3l2-.38a1.49,1.49,0,0,1,1.75,1.19,1.51,1.51,0,0,1-1.2,1.76l-1.94.37A1.53,1.53,0,0,1,318.12,175.88Zm67.49-.8-.26,0-2-.33a1.5,1.5,0,0,1,.48-3l2,.33a1.51,1.51,0,0,1,1.22,1.74A1.49,1.49,0,0,1,385.61,175.08ZM324,174.81a1.5,1.5,0,0,1-.24-3l2-.32a1.5,1.5,0,0,1,.46,3l-2,.31Zm55.67-.66h-.21c-.65-.1-1.31-.18-2-.27a1.5,1.5,0,0,1,.39-3c.66.08,1.33.17,2,.27a1.5,1.5,0,0,1-.21,3Zm-49.75-.22a1.49,1.49,0,0,1-1.48-1.3,1.51,1.51,0,0,1,1.29-1.69l2-.25a1.5,1.5,0,0,1,.36,3l-2,.25Zm43.81-.52h-.16l-2-.2a1.5,1.5,0,1,1,.29-3l2,.2a1.5,1.5,0,0,1-.16,3Zm-37.86-.16a1.5,1.5,0,0,1-.15-3l2-.19a1.5,1.5,0,0,1,.26,3l-2,.18Zm31.9-.38h-.12l-2-.14a1.49,1.49,0,0,1-1.4-1.59,1.47,1.47,0,0,1,1.59-1.4l2,.14a1.5,1.5,0,0,1-.11,3Zm-25.93-.11a1.5,1.5,0,0,1-.1-3l2-.12a1.5,1.5,0,1,1,.16,3c-.66,0-1.31.07-2,.12Zm19.95-.23h-.07l-2-.07a1.5,1.5,0,1,1,.09-3l2,.08a1.5,1.5,0,0,1-.06,3Zm-14,.79c-.8,0-1.47-1.07-1.5-1.88a1.71,1.71,0,0,1,1.45-1.76c.67,0,1.34-.15,2-.16a1.44,1.44,0,0,1,1.53,1.41c0,.83-.64,1.92-1.46,1.94-.66,0-1.32.45-2,.45Zm8-1h-2a1.5,1.5,0,0,1,0-3H354l1.83,0a1.49,1.49,0,1,1,0,3Z"/><path class="cls-1" d="M356.4,596.32c-.83,0-1.5-1.13-1.5-2a1.73,1.73,0,0,1,1.48-1.77c.66,0,1.32-.28,2-.28h0a1.52,1.52,0,0,1,1.5,1.49c0,.83-.65,2-1.48,2-.66,0-1.33-.5-2,.5Zm-14.94-1.25h-.08l-2-.11a1.5,1.5,0,1,1,.17-3l2,.11a1.5,1.5,0,0,1-.07,3Zm31.85-.44a1.5,1.5,0,0,1-.11-3l2-.17a1.51,1.51,0,0,1,1.62,1.36,1.49,1.49,0,0,1-1.36,1.63l-2,.17Zm-48.72-1h-.19l-2-.25a1.5,1.5,0,0,1,.39-3l2,.25a1.5,1.5,0,0,1-.17,3Zm65.55-.91a1.5,1.5,0,0,1-.23-3l2-.3a1.5,1.5,0,1,1,.47,3l-2,.31ZM307.86,591a1.42,1.42,0,0,1-.29,0l-2-.4a1.5,1.5,0,0,1,.6-2.94c.65.14,1.29.27,1.94.39a1.5,1.5,0,0,1-.28,3Zm98.92-1.38a1.5,1.5,0,0,1-.32-3l1.93-.44a1.5,1.5,0,0,1,.68,2.92c-.65.16-1.31.3-2,.45A1.86,1.86,0,0,1,406.78,589.58Zm-115.42-2.44a1.74,1.74,0,0,1-.39,0l-1.94-.53a1.51,1.51,0,0,1,.81-2.9l1.91.53a1.5,1.5,0,0,1-.39,2.95Zm131.81-1.85a1.5,1.5,0,0,1-.43-2.94l1.89-.58a1.5,1.5,0,1,1,.89,2.87l-1.92.58A1.61,1.61,0,0,1,423.17,585.29Zm-148-3.14a1.67,1.67,0,0,1-.49-.08l-1.9-.67a1.5,1.5,0,1,1,1-2.83l1.87.66a1.5,1.5,0,0,1-.49,2.92Zm164-2.31a1.5,1.5,0,0,1-.53-2.9l1.85-.71a1.5,1.5,0,1,1,1.09,2.79l-1.87.72A1.47,1.47,0,0,1,439.2,579.84ZM259.35,576a1.52,1.52,0,0,1-.59-.12l-1.85-.8a1.5,1.5,0,0,1,1.21-2.75l1.83.79a1.5,1.5,0,0,1-.6,2.88Zm195.44-2.73a1.52,1.52,0,0,1-1.36-.87,1.5,1.5,0,0,1,.73-2l1.79-.84a1.5,1.5,0,1,1,1.28,2.71l-1.81.85A1.52,1.52,0,0,1,454.79,573.28ZM244,568.77a1.52,1.52,0,0,1-.68-.17l-1.79-.93a1.5,1.5,0,0,1,1.4-2.65l1.76.91a1.5,1.5,0,0,1-.69,2.84Zm225.87-3.14a1.5,1.5,0,0,1-.73-2.82c.58-.31,1.15-.63,1.73-1a1.5,1.5,0,0,1,1.47,2.62l-1.75,1A1.46,1.46,0,0,1,469.88,565.63Zm-240.65-5.17a1.51,1.51,0,0,1-.78-.22l-1.71-1.06a1.5,1.5,0,1,1,1.59-2.54l1.69,1a1.5,1.5,0,0,1,.5,2.06A1.52,1.52,0,0,1,229.23,560.46Zm255.16-3.53a1.5,1.5,0,0,1-.82-2.76l1.66-1.08a1.5,1.5,0,1,1,1.65,2.5l-1.67,1.1A1.56,1.56,0,0,1,484.39,556.93Zm-269.31-5.8a1.5,1.5,0,0,1-.87-.28l-1.63-1.17a1.5,1.5,0,1,1,1.76-2.43L216,548.4a1.51,1.51,0,0,1,.36,2.1A1.52,1.52,0,0,1,215.08,551.13Zm283.18-3.9a1.52,1.52,0,0,1-1.2-.6,1.5,1.5,0,0,1,.3-2.1c.53-.39,1.05-.79,1.57-1.19a1.5,1.5,0,1,1,1.83,2.38l-1.6,1.21A1.5,1.5,0,0,1,498.26,547.23Zm-296.64-6.4a1.5,1.5,0,0,1-1-.34l-1.54-1.29a1.5,1.5,0,0,1,1.92-2.3l1.53,1.27a1.5,1.5,0,0,1-1,2.66Zm309.8-4.25a1.5,1.5,0,0,1-1-2.63l1.49-1.31a1.5,1.5,0,0,1,2,2.25l-1.51,1.32A1.46,1.46,0,0,1,511.42,536.58Zm-322.49-7a1.51,1.51,0,0,1-1-.41l-1.45-1.39a1.49,1.49,0,0,1,0-2.12,1.51,1.51,0,0,1,2.12,0L190,527a1.5,1.5,0,0,1-1,2.59ZM523.8,525a1.5,1.5,0,0,1-1.06-2.56c.47-.46.93-.93,1.39-1.4a1.5,1.5,0,1,1,2.14,2.1c-.46.48-.93,1-1.41,1.42A1.45,1.45,0,0,1,523.8,525Zm-346.75-7.48a1.53,1.53,0,0,1-1.11-.49l-1.34-1.48a1.5,1.5,0,1,1,2.22-2c.45.49.89,1,1.34,1.46a1.51,1.51,0,0,1-1.11,2.52Zm358.3-4.91a1.51,1.51,0,0,1-1.14-2.49c.44-.49.87-1,1.3-1.5a1.5,1.5,0,0,1,2.28,1.95c-.44.51-.87,1-1.31,1.52A1.5,1.5,0,0,1,535.35,512.63Zm-369.3-8a1.46,1.46,0,0,1-1.17-.57c-.42-.52-.83-1-1.24-1.57a1.5,1.5,0,0,1,2.36-1.85l1.23,1.56a1.5,1.5,0,0,1-1.18,2.43Zm380-5.21a1.5,1.5,0,0,1-1.2-2.4l1.18-1.59a1.5,1.5,0,1,1,2.42,1.78l-1.2,1.61A1.52,1.52,0,0,1,546,499.45Zm-390-8.4a1.51,1.51,0,0,1-1.24-.65c-.38-.55-.75-1.1-1.12-1.66a1.49,1.49,0,0,1,.4-2.08,1.51,1.51,0,0,1,2.08.4c.37.55.74,1.1,1.12,1.64a1.52,1.52,0,0,1-.39,2.09A1.57,1.57,0,0,1,156,491.05Zm399.71-5.5a1.53,1.53,0,0,1-.82-.24,1.5,1.5,0,0,1-.44-2.07c.36-.56.71-1.12,1.07-1.67a1.5,1.5,0,1,1,2.53,1.6l-1.08,1.7A1.51,1.51,0,0,1,555.7,485.55Zm-408.79-8.78a1.51,1.51,0,0,1-1.3-.74l-1-1.73a1.5,1.5,0,0,1,2.6-1.5l1,1.71a1.5,1.5,0,0,1-1.29,2.26ZM564.39,471a1.46,1.46,0,0,1-.72-.19,1.51,1.51,0,0,1-.59-2c.32-.57.64-1.16.95-1.74a1.5,1.5,0,1,1,2.64,1.43l-1,1.76A1.5,1.5,0,0,1,564.39,471Zm-425.53-9.11a1.5,1.5,0,0,1-1.34-.83c-.3-.6-.59-1.2-.88-1.8a1.49,1.49,0,0,1,.69-2,1.51,1.51,0,0,1,2,.69c.28.59.57,1.18.86,1.77a1.49,1.49,0,0,1-.67,2A1.47,1.47,0,0,1,138.86,461.89Zm433.18-6a1.44,1.44,0,0,1-.63-.14,1.5,1.5,0,0,1-.73-2c.28-.6.56-1.2.83-1.8a1.5,1.5,0,0,1,2.73,1.23c-.27.61-.55,1.22-.83,1.83A1.51,1.51,0,0,1,572,455.86Zm-440.15-9.37a1.5,1.5,0,0,1-1.39-.93l-.75-1.86a1.5,1.5,0,1,1,2.78-1.12l.75,1.84a1.5,1.5,0,0,1-.82,1.95A1.46,1.46,0,0,1,131.89,446.49Zm446.71-6.27a1.66,1.66,0,0,1-.53-.1,1.5,1.5,0,0,1-.87-1.94c.23-.61.47-1.24.69-1.86a1.52,1.52,0,0,1,1.93-.89,1.5,1.5,0,0,1,.89,1.93c-.23.63-.47,1.26-.71,1.89A1.49,1.49,0,0,1,578.6,440.22ZM126,430.6a1.51,1.51,0,0,1-1.43-1l-.62-1.91a1.5,1.5,0,0,1,2.86-.91c.2.62.4,1.25.61,1.88a1.5,1.5,0,0,1-1,1.89A1.33,1.33,0,0,1,126,430.6Zm458-6.44a1.67,1.67,0,0,1-.44-.06,1.5,1.5,0,0,1-1-1.87c.19-.63.37-1.26.56-1.9a1.5,1.5,0,0,1,2.88.84l-.57,1.92A1.49,1.49,0,0,1,584,424.16Zm-462.74-9.82a1.5,1.5,0,0,1-1.45-1.14c-.17-.64-.33-1.29-.49-1.94a1.5,1.5,0,1,1,2.92-.71c.15.64.31,1.28.47,1.92a1.49,1.49,0,0,1-1.08,1.82A1.64,1.64,0,0,1,121.29,414.34Zm467-6.57-.33,0a1.51,1.51,0,0,1-1.13-1.79l.42-1.94a1.5,1.5,0,1,1,2.93.63c-.14.65-.28,1.31-.43,2A1.49,1.49,0,0,1,588.29,407.77Zm-470.57-10a1.5,1.5,0,0,1-1.47-1.24c-.12-.66-.23-1.31-.34-2a1.5,1.5,0,0,1,3-.51c.11.66.23,1.31.34,2a1.5,1.5,0,0,1-1.21,1.74Zm473.66-6.66h-.22a1.51,1.51,0,0,1-1.26-1.71c.1-.65.19-1.31.28-2a1.53,1.53,0,0,1,1.7-1.28,1.5,1.5,0,0,1,1.27,1.7c-.09.66-.19,1.32-.28,2A1.5,1.5,0,0,1,591.38,391.12ZM115.34,381a1.49,1.49,0,0,1-1.48-1.34c-.08-.66-.14-1.33-.21-2a1.5,1.5,0,0,1,3-.29c.06.66.13,1.32.2,2a1.49,1.49,0,0,1-1.33,1.65Zm477.95-6.72h-.12a1.49,1.49,0,0,1-1.37-1.61c.05-.66.1-1.32.14-2a1.51,1.51,0,0,1,1.6-1.39,1.49,1.49,0,0,1,1.39,1.6c0,.67-.09,1.34-.14,2A1.5,1.5,0,0,1,593.29,374.29Zm-479.14-10a1.6,1.6,0,0,1-1.5-1.55c0-.66,0-1.28-.06-1.95a1.44,1.44,0,0,1,1.45-1.5h0a1.43,1.43,0,0,1,1.5,1.36c0,.66,0,1.38.06,2a1.53,1.53,0,0,1-1.45,1.6Zm479.87-7h0c-.83,0-1.26-.65-1.25-1.48,0-.66.25-1.3.25-2v-.53a1.5,1.5,0,0,1,3,0v.52c0,.68-.25,1.32-.25,2A1.71,1.71,0,0,1,594,357.32Zm-479.89-10h0a1.54,1.54,0,0,1-1.45-1.62c0-.66.05-1.37.08-2a1.52,1.52,0,0,1,1.56-1.46,1.5,1.5,0,0,1,1.44,1.55c0,.66-.06,1.39-.08,2.05A1.55,1.55,0,0,1,114.13,347.32Zm479.4-7.41A1.5,1.5,0,0,1,592,338.5c0-.66-.09-1.31-.14-2a1.5,1.5,0,0,1,1.39-1.61,1.52,1.52,0,0,1,1.61,1.39c0,.67.09,1.34.13,2a1.51,1.51,0,0,1-1.4,1.6Zm-478.24-9.62h-.15a1.49,1.49,0,0,1-1.34-1.64l.21-2a1.5,1.5,0,0,1,3,.34l-.21,2A1.5,1.5,0,0,1,115.29,330.29Zm476.58-7.23a1.51,1.51,0,0,1-1.49-1.3l-.27-2a1.5,1.5,0,0,1,3-.42c.09.66.19,1.32.27,2a1.48,1.48,0,0,1-1.28,1.68Zm-474.24-9.54-.26,0a1.5,1.5,0,0,1-1.21-1.74c.11-.66.23-1.32.35-2a1.5,1.5,0,1,1,2.95.54c-.12.65-.24,1.3-.35,1.95A1.5,1.5,0,0,1,117.63,313.52ZM589,306.36a1.49,1.49,0,0,1-1.46-1.19c-.14-.65-.27-1.3-.41-1.94a1.5,1.5,0,0,1,2.93-.64c.14.66.28,1.31.41,2a1.49,1.49,0,0,1-1.16,1.77A1.55,1.55,0,0,1,589,306.36ZM121.16,297a1.55,1.55,0,0,1-.37,0,1.51,1.51,0,0,1-1.09-1.82c.16-.65.33-1.3.5-1.95a1.5,1.5,0,1,1,2.9.76c-.17.64-.33,1.28-.49,1.92A1.49,1.49,0,0,1,121.16,297Zm463.83-7a1.51,1.51,0,0,1-1.45-1.09c-.17-.64-.36-1.27-.54-1.9a1.5,1.5,0,0,1,2.88-.84c.19.64.37,1.28.55,1.92a1.51,1.51,0,0,1-1,1.86A2,2,0,0,1,585,289.91Zm-459.14-9.23a1.29,1.29,0,0,1-.47-.08,1.49,1.49,0,0,1-1-1.89c.21-.64.42-1.27.64-1.91a1.5,1.5,0,1,1,2.84,1l-.63,1.89A1.49,1.49,0,0,1,125.85,280.68Zm453.95-6.89a1.5,1.5,0,0,1-1.41-1c-.22-.62-.45-1.24-.68-1.86a1.5,1.5,0,0,1,2.81-1.05l.69,1.89a1.5,1.5,0,0,1-.9,1.92A1.52,1.52,0,0,1,579.8,273.79Zm-448.1-9a1.65,1.65,0,0,1-.57-.11,1.5,1.5,0,0,1-.82-2c.25-.62.51-1.24.77-1.86a1.5,1.5,0,1,1,2.76,1.16l-.75,1.83A1.5,1.5,0,0,1,131.7,264.75Zm441.79-6.65a1.5,1.5,0,0,1-1.37-.89c-.27-.6-.53-1.2-.81-1.8a1.5,1.5,0,1,1,2.73-1.24c.28.6.55,1.21.82,1.82a1.49,1.49,0,0,1-.76,2A1.46,1.46,0,0,1,573.49,258.1Zm-434.83-8.82a1.55,1.55,0,0,1-.66-.15,1.51,1.51,0,0,1-.69-2l.9-1.8a1.5,1.5,0,1,1,2.68,1.35l-.89,1.77A1.5,1.5,0,0,1,138.66,249.28Zm427.43-6.38a1.5,1.5,0,0,1-1.33-.8c-.3-.58-.62-1.16-.93-1.74a1.5,1.5,0,0,1,2.64-1.43l.94,1.76a1.5,1.5,0,0,1-.62,2A1.46,1.46,0,0,1,566.09,242.9ZM146.7,234.35a1.51,1.51,0,0,1-1.3-2.26l1-1.73A1.5,1.5,0,1,1,149,231.9l-1,1.71A1.51,1.51,0,0,1,146.7,234.35Zm410.93-6.1a1.51,1.51,0,0,1-1.28-.71l-1.05-1.67a1.5,1.5,0,1,1,2.53-1.61L558.9,226a1.51,1.51,0,0,1-.48,2.07A1.54,1.54,0,0,1,557.63,228.25ZM155.77,220a1.57,1.57,0,0,1-.85-.26,1.52,1.52,0,0,1-.39-2.09l1.14-1.65a1.5,1.5,0,0,1,2.47,1.71c-.38.55-.76,1.09-1.13,1.64A1.51,1.51,0,0,1,155.77,220Zm392.38-5.81a1.49,1.49,0,0,1-1.21-.61l-1.17-1.6a1.5,1.5,0,1,1,2.41-1.78l1.18,1.61a1.5,1.5,0,0,1-.33,2.1A1.49,1.49,0,0,1,548.15,214.22Zm-382.32-7.83a1.5,1.5,0,0,1-1.18-2.43c.42-.53.83-1.05,1.26-1.57a1.5,1.5,0,1,1,2.33,1.88L167,205.82A1.49,1.49,0,0,1,165.83,206.39Zm371.88-5.49a1.48,1.48,0,0,1-1.15-.54l-1.28-1.51a1.5,1.5,0,0,1,2.28-1.95l1.3,1.53a1.51,1.51,0,0,1-1.15,2.47Zm-360.9-7.41a1.47,1.47,0,0,1-1-.4,1.49,1.49,0,0,1-.09-2.11c.45-.5.9-1,1.36-1.48a1.5,1.5,0,1,1,2.19,2L177.92,193A1.52,1.52,0,0,1,176.81,193.49Zm349.54-5.16a1.48,1.48,0,0,1-1.07-.45c-.46-.48-.92-.95-1.39-1.42a1.5,1.5,0,1,1,2.14-2.1c.47.47.93.95,1.4,1.43a1.49,1.49,0,0,1-1.08,2.54Zm-337.68-6.94a1.48,1.48,0,0,1-1.08-.46,1.49,1.49,0,0,1,0-2.12l1.46-1.38a1.5,1.5,0,1,1,2.05,2.19c-.49.45-1,.91-1.44,1.36A1.49,1.49,0,0,1,188.67,181.39Zm325.47-4.8a1.49,1.49,0,0,1-1-.38l-1.48-1.32a1.5,1.5,0,0,1,2-2.25l1.5,1.34a1.51,1.51,0,0,1,.11,2.12A1.54,1.54,0,0,1,514.14,176.59Zm-312.79-6.43a1.5,1.5,0,0,1-1-2.65l1.55-1.27a1.5,1.5,0,0,1,2.11.22,1.49,1.49,0,0,1-.22,2.11l-1.53,1.25A1.48,1.48,0,0,1,201.35,170.16Zm299.79-4.43a1.5,1.5,0,0,1-.92-.31l-1.57-1.21a1.5,1.5,0,0,1,1.82-2.39l1.59,1.23a1.5,1.5,0,0,1-.92,2.68Zm-286.36-5.87a1.51,1.51,0,0,1-.87-2.73l1.63-1.15a1.5,1.5,0,1,1,1.72,2.45c-.54.38-1.08.76-1.61,1.15A1.5,1.5,0,0,1,214.78,159.86Zm272.62-4.05a1.52,1.52,0,0,1-.84-.25l-1.65-1.1a1.5,1.5,0,1,1,1.65-2.5c.56.36,1.12.73,1.67,1.11a1.5,1.5,0,0,1-.83,2.74Zm-258.51-5.29a1.5,1.5,0,0,1-.78-2.78l1.71-1a1.5,1.5,0,1,1,1.54,2.57l-1.69,1A1.46,1.46,0,0,1,228.89,150.52ZM473,146.88a1.46,1.46,0,0,1-.75-.2l-1.72-1a1.5,1.5,0,0,1,1.46-2.62l1.75,1a1.5,1.5,0,0,1-.74,2.8ZM243.62,142.2a1.5,1.5,0,0,1-.69-2.83l1.78-.91a1.5,1.5,0,1,1,1.36,2.67l-1.76.9A1.41,1.41,0,0,1,243.62,142.2ZM458,139a1.51,1.51,0,0,1-.65-.15l-1.8-.85a1.5,1.5,0,0,1,1.28-2.71l1.82.86A1.5,1.5,0,0,1,458,139ZM258.9,135a1.5,1.5,0,0,1-.6-2.88l1.84-.78a1.5,1.5,0,1,1,1.17,2.76l-1.82.77A1.37,1.37,0,0,1,258.9,135Zm183.54-2.77a1.52,1.52,0,0,1-.55-.1l-1.85-.73a1.5,1.5,0,0,1,1.08-2.8l1.87.74a1.5,1.5,0,0,1-.55,2.89Zm-167.8-3.38a1.5,1.5,0,0,1-.49-2.92l1.89-.65a1.5,1.5,0,1,1,1,2.84l-1.87.64A1.47,1.47,0,0,1,274.64,128.8Zm151.82-2.31a1.47,1.47,0,0,1-.46-.07l-1.9-.59A1.5,1.5,0,0,1,425,123l1.93.6a1.5,1.5,0,0,1-.45,2.93Zm-135.64-2.72a1.5,1.5,0,0,1-.4-3l1.94-.51a1.49,1.49,0,0,1,1.83,1.06,1.51,1.51,0,0,1-1.07,1.84c-.64.16-1.27.34-1.91.51A1.74,1.74,0,0,1,290.82,123.77ZM410.13,122a1.34,1.34,0,0,1-.35,0l-1.93-.45a1.5,1.5,0,1,1,.67-2.93l2,.46a1.5,1.5,0,0,1-.34,3Zm-102.83-2a1.5,1.5,0,0,1-.28-3l2-.37a1.5,1.5,0,1,1,.55,2.94l-1.94.38A1.53,1.53,0,0,1,307.3,119.91Zm86.23-1.31a1.06,1.06,0,0,1-.25,0l-1.95-.31a1.5,1.5,0,0,1,.46-3l2,.32a1.5,1.5,0,0,1-.24,3ZM324,117.22a1.5,1.5,0,0,1-.18-3l2-.24a1.5,1.5,0,1,1,.35,3l-2,.24Zm52.71-.79h-.14l-2-.18a1.5,1.5,0,0,1,.25-3l2,.18a1.5,1.5,0,0,1-.14,3Zm-35.84-.71a1.5,1.5,0,0,1-.08-3l2-.1a1.46,1.46,0,0,1,1.56,1.43,1.5,1.5,0,0,1-1.43,1.57l-2,.1Zm18.94.6h0c-.66,0-1.32-.47-2-.48a1.71,1.71,0,0,1-1.48-1.75,1.63,1.63,0,0,1,1.53-1.58c.66,0,1.33,0,2,0,.83,0,1.48,1.12,1.47,2S360.64,116.32,359.83,116.32Z"/><path class="cls-1" d="M360.69,708.32a1.74,1.74,0,0,1-1.5-1.72,1.39,1.39,0,0,1,1.47-1.38c.67,0,1.33.1,2,.1h0c.81,0,1.48.38,1.5,1.2a1.61,1.61,0,0,1-1.46,1.65c-.67,0-1.34.15-2,.15Zm-15,0h0l-2-.31a1.63,1.63,0,0,1-1.45-1.68,1.56,1.56,0,0,1,1.54-1.52l2,0a1.77,1.77,0,0,1,0,3.49Zm32-1.21a1.5,1.5,0,0,1-.1-3l2-.14a1.52,1.52,0,0,1,1.6,1.39,1.5,1.5,0,0,1-1.39,1.61l-2,.13ZM328.65,707h-.11l-2-.15a1.5,1.5,0,0,1-1.39-1.61,1.52,1.52,0,0,1,1.61-1.38l2,.15a1.5,1.5,0,0,1-.1,3Zm66-1.42a1.5,1.5,0,0,1-.16-3l2-.23a1.5,1.5,0,1,1,.36,3l-2,.23Zm-83-.19h-.18l-2-.25a1.5,1.5,0,1,1,.37-3l2,.24a1.5,1.5,0,0,1-.17,3Zm99.83-2.16a1.5,1.5,0,0,1-.24-3l2-.33a1.5,1.5,0,0,1,.5,3l-2,.33A1.06,1.06,0,0,1,411.53,703.22ZM294.84,703l-.25,0-2-.35a1.5,1.5,0,1,1,.52-3l2,.34a1.5,1.5,0,0,1-.25,3Zm133.43-2.89a1.51,1.51,0,0,1-1.47-1.19,1.5,1.5,0,0,1,1.16-1.78l2-.42a1.48,1.48,0,0,1,1.78,1.14,1.5,1.5,0,0,1-1.14,1.79l-2,.42A1.1,1.1,0,0,1,428.27,700.06Zm-150.15-.36a1.66,1.66,0,0,1-.32,0l-2-.44a1.5,1.5,0,0,1,.66-2.93l1.95.44a1.5,1.5,0,0,1-.32,3Zm166.71-3.62a1.5,1.5,0,0,1-.38-3l1.92-.52a1.5,1.5,0,0,1,.79,2.9l-1.94.52A1.31,1.31,0,0,1,444.83,696.08Zm-183.25-.43a1.83,1.83,0,0,1-.4,0l-1.94-.54a1.5,1.5,0,0,1,.8-2.89l1.93.53a1.5,1.5,0,0,1-.39,2.95Zm199.6-4.34a1.5,1.5,0,0,1-.46-2.93l1.9-.61a1.5,1.5,0,0,1,.93,2.85l-1.91.61A1.48,1.48,0,0,1,461.18,691.31Zm-215.93-.52a1.47,1.47,0,0,1-.46-.07l-1.92-.63a1.5,1.5,0,0,1,.93-2.85l1.91.63a1.49,1.49,0,0,1-.46,2.92Zm232-5a1.5,1.5,0,0,1-.53-2.91l1.87-.7a1.5,1.5,0,1,1,1.07,2.8l-1.89.71A1.37,1.37,0,0,1,477.28,685.74Zm-248.15-.61a1.69,1.69,0,0,1-.53-.09l-1.89-.72a1.5,1.5,0,1,1,1.08-2.8l1.87.71a1.5,1.5,0,0,1-.53,2.9Zm263.92-5.72a1.5,1.5,0,0,1-.59-2.88l1.82-.79a1.5,1.5,0,0,1,1.2,2.75l-1.84.8A1.52,1.52,0,0,1,493.05,679.41Zm-279.73-.71a1.41,1.41,0,0,1-.6-.13l-1.85-.81a1.5,1.5,0,0,1,1.22-2.74l1.83.8a1.5,1.5,0,0,1-.6,2.88Zm295.17-6.37a1.5,1.5,0,0,1-.66-2.85l1.79-.88a1.5,1.5,0,0,1,1.33,2.69l-1.8.89A1.55,1.55,0,0,1,508.49,672.33Zm-310.65-.83a1.43,1.43,0,0,1-.66-.16c-.61-.29-1.21-.59-1.81-.9a1.5,1.5,0,1,1,1.35-2.68l1.79.9a1.5,1.5,0,0,1-.67,2.84Zm325.74-7a1.49,1.49,0,0,1-.72-2.81l1.74-1a1.49,1.49,0,0,1,2,.58,1.51,1.51,0,0,1-.58,2l-1.76,1A1.57,1.57,0,0,1,523.58,664.5Zm-340.84-.94a1.47,1.47,0,0,1-.73-.19l-1.76-1a1.5,1.5,0,0,1,1.48-2.62l1.74,1a1.5,1.5,0,0,1-.73,2.81ZM538.28,656a1.49,1.49,0,0,1-.78-2.77l1.69-1a1.5,1.5,0,0,1,1.58,2.55l-1.71,1.05A1.46,1.46,0,0,1,538.28,656Zm-370.24-1a1.54,1.54,0,0,1-.79-.23l-1.71-1.07a1.5,1.5,0,0,1,1.6-2.54l1.7,1.06a1.51,1.51,0,0,1,.48,2.07A1.53,1.53,0,0,1,168,654.91Zm384.51-8.21a1.5,1.5,0,0,1-.84-2.73l1.64-1.13a1.5,1.5,0,1,1,1.7,2.47l-1.65,1.13A1.47,1.47,0,0,1,552.55,646.7Zm-398.76-1.15a1.48,1.48,0,0,1-.85-.27l-1.66-1.15a1.49,1.49,0,0,1-.37-2.08,1.51,1.51,0,0,1,2.09-.38l1.64,1.15a1.5,1.5,0,0,1-.85,2.73Zm412.58-8.78a1.5,1.5,0,0,1-.91-2.69c.54-.4,1.06-.81,1.59-1.21a1.5,1.5,0,0,1,1.82,2.38l-1.6,1.22A1.5,1.5,0,0,1,566.37,636.77ZM140,635.52a1.47,1.47,0,0,1-.91-.31L137.5,634a1.49,1.49,0,0,1-.27-2.1,1.52,1.52,0,0,1,2.11-.27l1.57,1.22a1.5,1.5,0,0,1-.91,2.69Zm439.7-9.33a1.54,1.54,0,0,1-1.16-.54,1.51,1.51,0,0,1,.2-2.12l1.52-1.28a1.5,1.5,0,1,1,1.94,2.3l-1.54,1.29A1.51,1.51,0,0,1,579.7,626.19Zm-453-1.35a1.51,1.51,0,0,1-1-.35l-1.53-1.3a1.5,1.5,0,1,1,2-2.28l1.52,1.29a1.5,1.5,0,0,1-1,2.64ZM592.5,615a1.48,1.48,0,0,1-1.1-.49,1.5,1.5,0,0,1,.09-2.12L593,611a1.5,1.5,0,0,1,2,2.2l-1.48,1.36A1.48,1.48,0,0,1,592.5,615ZM114,613.54a1.5,1.5,0,0,1-1-.4l-1.47-1.37a1.5,1.5,0,0,1,2.06-2.19c.48.46,1,.91,1.46,1.36a1.5,1.5,0,0,1,.07,2.12A1.47,1.47,0,0,1,114,613.54Zm490.79-10.39a1.51,1.51,0,0,1-1.06-2.56l1.39-1.42a1.5,1.5,0,1,1,2.15,2.09l-1.41,1.44A1.48,1.48,0,0,1,604.76,603.15Zm-503-1.51a1.48,1.48,0,0,1-1.07-.45l-1.4-1.44a1.5,1.5,0,0,1,2.16-2.08l1.39,1.43a1.49,1.49,0,0,1-1.08,2.54Zm514.66-10.9a1.49,1.49,0,0,1-1.11-2.5l1.32-1.49a1.5,1.5,0,0,1,2.25,2l-1.34,1.51A1.5,1.5,0,0,1,616.44,590.74ZM90.18,589.18a1.51,1.51,0,0,1-1.12-.5c-.44-.51-.89-1-1.33-1.51a1.5,1.5,0,1,1,2.26-2c.43.5.87,1,1.31,1.49a1.5,1.5,0,0,1-.12,2.12A1.47,1.47,0,0,1,90.18,589.18Zm537.33-11.39a1.52,1.52,0,0,1-.94-.33,1.5,1.5,0,0,1-.22-2.11l1.26-1.55a1.5,1.5,0,1,1,2.33,1.88l-1.26,1.56A1.49,1.49,0,0,1,627.51,577.79ZM79.2,576.18a1.51,1.51,0,0,1-1.17-.56l-1.26-1.57a1.5,1.5,0,1,1,2.35-1.87l1.24,1.56a1.48,1.48,0,0,1-.23,2.1A1.43,1.43,0,0,1,79.2,576.18ZM638,564.32a1.49,1.49,0,0,1-1.2-2.39l1.18-1.61a1.5,1.5,0,1,1,2.42,1.77l-1.19,1.62A1.49,1.49,0,0,1,638,564.32Zm-569.1-1.66a1.48,1.48,0,0,1-1.21-.62l-1.18-1.62a1.5,1.5,0,1,1,2.43-1.76l1.17,1.62a1.49,1.49,0,0,1-.33,2.09A1.43,1.43,0,0,1,68.85,562.66Zm578.88-12.3a1.52,1.52,0,0,1-.83-.25,1.5,1.5,0,0,1-.41-2.08l1.1-1.67A1.5,1.5,0,1,1,650.1,548L649,549.69A1.48,1.48,0,0,1,647.73,550.36ZM59.17,548.67a1.51,1.51,0,0,1-1.26-.68l-1.09-1.68a1.5,1.5,0,0,1,2.52-1.63l1.08,1.67a1.48,1.48,0,0,1-.43,2.07A1.46,1.46,0,0,1,59.17,548.67Zm597.66-12.73a1.46,1.46,0,0,1-.77-.22,1.5,1.5,0,0,1-.52-2.05c.35-.57.69-1.15,1-1.72a1.5,1.5,0,0,1,2.58,1.52l-1,1.74A1.5,1.5,0,0,1,656.83,535.94ZM50.18,534.23a1.5,1.5,0,0,1-1.3-.73l-1-1.74a1.5,1.5,0,1,1,2.59-1.5l1,1.71a1.51,1.51,0,0,1-.53,2.06A1.49,1.49,0,0,1,50.18,534.23Zm615-13.14a1.51,1.51,0,0,1-1.32-2.21l.94-1.77a1.5,1.5,0,1,1,2.65,1.4c-.31.59-.62,1.19-.94,1.78A1.5,1.5,0,0,1,665.22,521.09Zm-623.33-1.7a1.5,1.5,0,0,1-1.32-.8c-.32-.6-.63-1.19-.93-1.78a1.5,1.5,0,1,1,2.66-1.38l.92,1.76a1.48,1.48,0,0,1-.63,2A1.46,1.46,0,0,1,41.89,519.39Zm631-13.55a1.45,1.45,0,0,1-.64-.14,1.51,1.51,0,0,1-.72-2l.85-1.81a1.5,1.5,0,1,1,2.72,1.27l-.85,1.82A1.51,1.51,0,0,1,672.89,505.84ZM34.34,504.16a1.51,1.51,0,0,1-1.36-.87l-.84-1.81a1.5,1.5,0,0,1,2.73-1.26c.27.6.55,1.21.83,1.81a1.49,1.49,0,0,1-1.36,2.13ZM679.8,490.24a1.46,1.46,0,0,1-.57-.12,1.5,1.5,0,0,1-.81-2c.26-.61.51-1.23.76-1.85a1.5,1.5,0,0,1,2.78,1.13c-.25.63-.51,1.25-.77,1.87A1.5,1.5,0,0,1,679.8,490.24ZM27.54,488.6a1.51,1.51,0,0,1-1.39-.94l-.76-1.86a1.5,1.5,0,0,1,2.79-1.12l.75,1.85a1.5,1.5,0,0,1-.82,2A1.46,1.46,0,0,1,27.54,488.6ZM686,474.31a1.52,1.52,0,0,1-.51-.09,1.5,1.5,0,0,1-.91-1.92l.67-1.89a1.5,1.5,0,1,1,2.83,1l-.67,1.9A1.51,1.51,0,0,1,686,474.31ZM21.48,472.68a1.51,1.51,0,0,1-1.41-1c-.22-.63-.45-1.26-.66-1.9a1.5,1.5,0,0,1,2.83-1l.66,1.88a1.51,1.51,0,0,1-.92,1.92A1.43,1.43,0,0,1,21.48,472.68Zm669.84-14.59a1.29,1.29,0,0,1-.43-.07,1.49,1.49,0,0,1-1-1.87l.57-1.91a1.5,1.5,0,0,1,2.88.86c-.19.64-.39,1.28-.58,1.93A1.51,1.51,0,0,1,691.32,458.09ZM16.21,456.48a1.51,1.51,0,0,1-1.44-1.07l-.57-1.93a1.5,1.5,0,0,1,1-1.86,1.49,1.49,0,0,1,1.86,1l.57,1.91a1.52,1.52,0,0,1-1,1.87A1.59,1.59,0,0,1,16.21,456.48Zm679.67-14.8a1.57,1.57,0,0,1-.37-.05,1.51,1.51,0,0,1-1.09-1.82c.17-.65.33-1.29.49-1.94a1.5,1.5,0,1,1,2.91.72c-.16.65-.32,1.3-.49,2A1.49,1.49,0,0,1,695.88,441.68ZM11.73,440.05a1.5,1.5,0,0,1-1.45-1.14l-.48-2a1.5,1.5,0,0,1,2.92-.7c.15.65.31,1.29.47,1.94a1.53,1.53,0,0,1-1.46,1.86Zm687.91-15a1.53,1.53,0,0,1-.3,0,1.5,1.5,0,0,1-1.18-1.76l.39-2a1.5,1.5,0,0,1,3,.57l-.4,2A1.49,1.49,0,0,1,699.64,425.06ZM8.06,423.42a1.51,1.51,0,0,1-1.47-1.22l-.38-2a1.5,1.5,0,1,1,3-.56l.37,2a1.5,1.5,0,0,1-1.18,1.76Zm694.52-15.13-.23,0a1.5,1.5,0,0,1-1.26-1.71c.1-.65.2-1.31.29-2a1.5,1.5,0,1,1,3,.43c-.09.66-.19,1.33-.29,2A1.5,1.5,0,0,1,702.58,408.29ZM5.2,406.63a1.51,1.51,0,0,1-1.49-1.29c-.09-.66-.19-1.33-.28-2a1.5,1.5,0,1,1,3-.41c.09.65.19,1.31.28,2a1.5,1.5,0,0,1-1.27,1.7Zm699.5-15.24h-.15a1.49,1.49,0,0,1-1.34-1.64c.07-.66.13-1.33.2-2a1.5,1.5,0,1,1,3,.29c-.06.67-.13,1.34-.2,2A1.49,1.49,0,0,1,704.7,391.39ZM3.15,389.72a1.5,1.5,0,0,1-1.49-1.36c-.07-.66-.13-1.33-.19-2a1.5,1.5,0,0,1,3-.27l.18,2a1.5,1.5,0,0,1-1.34,1.64ZM706,374.41h-.08a1.5,1.5,0,0,1-1.41-1.58c0-.67.07-1.33.1-2a1.5,1.5,0,1,1,3,.14c0,.67-.06,1.34-.1,2A1.5,1.5,0,0,1,706,374.41ZM1.92,372.73a1.5,1.5,0,0,1-1.5-1.43l-.09-2a1.5,1.5,0,0,1,1.44-1.56,1.52,1.52,0,0,1,1.56,1.44l.09,2A1.5,1.5,0,0,1,2,372.73Zm704.59-14.41h0c-.82,0-1.5-1.15-1.49-2v-3.11a1.5,1.5,0,0,1,3,0v3.12C708,357.19,707.34,358.32,706.51,358.32ZM1.5,355.7A1.5,1.5,0,0,1,0,354.2v-1.7c0-.82.68-1.18,1.5-1.18h0c.83,0,1.5.37,1.49,1.2v1.84A1.37,1.37,0,0,1,1.5,355.7Zm704.68-16a1.5,1.5,0,0,1-1.5-1.44l-.09-2a1.48,1.48,0,0,1,1.42-1.57,1.46,1.46,0,0,1,1.57,1.42c0,.67.07,1.34.1,2a1.51,1.51,0,0,1-1.44,1.57Zm-704.29-1H1.82a1.49,1.49,0,0,1-1.43-1.56c0-.68.07-1.35.1-2a1.5,1.5,0,0,1,3,.15c0,.67-.07,1.33-.1,2A1.5,1.5,0,0,1,1.89,338.68ZM705,322.73a1.51,1.51,0,0,1-1.49-1.37c-.06-.66-.12-1.32-.19-2a1.5,1.5,0,0,1,3-.28c.07.66.13,1.33.19,2a1.5,1.5,0,0,1-1.36,1.63Zm-701.93-1H3a1.49,1.49,0,0,1-1.35-1.63l.19-2a1.5,1.5,0,0,1,3,.3l-.2,2A1.5,1.5,0,0,1,3.09,321.69Zm700-15.88a1.49,1.49,0,0,1-1.48-1.29c-.1-.66-.19-1.32-.29-2a1.5,1.5,0,0,1,3-.43c.1.66.19,1.32.29,2a1.5,1.5,0,0,1-1.28,1.69Zm-697.95-1-.22,0a1.5,1.5,0,0,1-1.27-1.7c.1-.66.19-1.33.29-2a1.5,1.5,0,1,1,3,.45c-.1.65-.2,1.31-.29,2A1.5,1.5,0,0,1,5.11,304.78ZM700.28,289a1.5,1.5,0,0,1-1.47-1.22c-.13-.66-.26-1.31-.38-2a1.5,1.5,0,0,1,2.94-.58c.13.66.26,1.31.38,2a1.5,1.5,0,0,1-1.19,1.75ZM7.94,288a1.43,1.43,0,0,1-.29,0,1.5,1.5,0,0,1-1.19-1.75l.39-2a1.5,1.5,0,1,1,2.94.59c-.13.65-.26,1.3-.38,2A1.51,1.51,0,0,1,7.94,288Zm688.75-15.62a1.49,1.49,0,0,1-1.46-1.15l-.48-1.94a1.5,1.5,0,0,1,2.92-.72l.47,1.95a1.53,1.53,0,0,1-1.45,1.86Zm-685.11-1a1.47,1.47,0,0,1-.36,0,1.5,1.5,0,0,1-1.1-1.81c.16-.66.32-1.31.49-2a1.5,1.5,0,0,1,2.91.73c-.17.65-.33,1.29-.48,1.94A1.51,1.51,0,0,1,11.58,271.34ZM692.29,255.9a1.5,1.5,0,0,1-1.44-1.07l-.57-1.92a1.5,1.5,0,1,1,2.87-.86c.2.64.39,1.29.58,1.93a1.5,1.5,0,0,1-1,1.86A1.52,1.52,0,0,1,692.29,255.9ZM16,254.9a1.59,1.59,0,0,1-.43-.06,1.5,1.5,0,0,1-1-1.87l.58-1.92a1.5,1.5,0,0,1,2.87.86l-.58,1.92A1.49,1.49,0,0,1,16,254.9Zm671.06-15.22a1.49,1.49,0,0,1-1.41-1l-.66-1.89a1.5,1.5,0,0,1,2.83-1l.66,1.9a1.5,1.5,0,0,1-.92,1.91A1.45,1.45,0,0,1,687.09,239.68Zm-665.8-1a1.43,1.43,0,0,1-.5-.09,1.5,1.5,0,0,1-.92-1.91c.22-.64.45-1.27.67-1.91a1.51,1.51,0,0,1,1.92-.9,1.49,1.49,0,0,1,.91,1.91c-.23.63-.45,1.26-.67,1.89A1.51,1.51,0,0,1,21.29,238.66Zm659.83-14.93a1.51,1.51,0,0,1-1.4-.93l-.75-1.86a1.5,1.5,0,0,1,2.78-1.13l.76,1.86a1.5,1.5,0,0,1-.83,2A1.43,1.43,0,0,1,681.12,223.73Zm-653.79-1a1.44,1.44,0,0,1-.57-.11,1.5,1.5,0,0,1-.82-1.95l.77-1.87a1.5,1.5,0,0,1,2.77,1.15l-.76,1.85A1.5,1.5,0,0,1,27.33,222.68Zm647.05-14.55a1.51,1.51,0,0,1-1.36-.88l-.84-1.8a1.5,1.5,0,0,1,2.72-1.27c.29.61.57,1.21.85,1.82a1.51,1.51,0,0,1-.74,2A1.56,1.56,0,0,1,674.38,208.13ZM34.14,207a1.44,1.44,0,0,1-.63-.14,1.5,1.5,0,0,1-.73-2l.86-1.83a1.5,1.5,0,0,1,2.71,1.28l-.85,1.81A1.49,1.49,0,0,1,34.14,207Zm632.77-14.16a1.5,1.5,0,0,1-1.33-.81l-.93-1.76a1.5,1.5,0,0,1,2.66-1.4l.93,1.77a1.52,1.52,0,0,1-.64,2A1.56,1.56,0,0,1,666.91,192.87Zm-625.2-1.13a1.46,1.46,0,0,1-.7-.18,1.49,1.49,0,0,1-.63-2c.31-.6.63-1.19.94-1.78a1.5,1.5,0,0,1,2.65,1.4L43,190.93A1.5,1.5,0,0,1,41.71,191.74ZM658.7,178a1.5,1.5,0,0,1-1.3-.75l-1-1.71A1.5,1.5,0,0,1,659,174l1,1.73a1.5,1.5,0,0,1-.54,2.06A1.59,1.59,0,0,1,658.7,178ZM50,176.83a1.5,1.5,0,0,1-1.29-2.26l1-1.74a1.5,1.5,0,1,1,2.58,1.54l-1,1.72A1.49,1.49,0,0,1,50,176.83ZM649.77,163.5a1.51,1.51,0,0,1-1.26-.68l-1.09-1.67a1.5,1.5,0,1,1,2.51-1.65l1.1,1.68a1.51,1.51,0,0,1-.44,2.08A1.53,1.53,0,0,1,649.77,163.5ZM59,162.35a1.46,1.46,0,0,1-.82-.25,1.5,1.5,0,0,1-.43-2.08l1.11-1.68a1.5,1.5,0,0,1,2.5,1.66c-.37.56-.74,1.11-1.1,1.67A1.51,1.51,0,0,1,59,162.35Zm581.16-12.89a1.48,1.48,0,0,1-1.22-.62l-1.17-1.61a1.5,1.5,0,1,1,2.42-1.77c.4.54.79,1.08,1.18,1.63a1.49,1.49,0,0,1-1.21,2.37ZM68.69,148.32a1.45,1.45,0,0,1-.88-.29,1.49,1.49,0,0,1-.33-2.09l1.19-1.63a1.5,1.5,0,0,1,2.42,1.78c-.4.53-.79,1.07-1.18,1.61A1.53,1.53,0,0,1,68.69,148.32ZM629.88,135.9a1.52,1.52,0,0,1-1.18-.56l-1.24-1.56a1.5,1.5,0,1,1,2.33-1.88l1.26,1.57a1.5,1.5,0,0,1-.24,2.11A1.46,1.46,0,0,1,629.88,135.9ZM79,134.78a1.49,1.49,0,0,1-1.16-2.44l1.26-1.57a1.5,1.5,0,0,1,2.33,1.89l-1.26,1.56A1.48,1.48,0,0,1,79,134.78ZM619,122.85a1.47,1.47,0,0,1-1.12-.51l-1.32-1.5a1.5,1.5,0,0,1,2.24-2c.44.5.89,1,1.33,1.51a1.48,1.48,0,0,1-.14,2.11A1.5,1.5,0,0,1,619,122.85ZM90,121.75a1.49,1.49,0,0,1-1-.37,1.5,1.5,0,0,1-.13-2.12l1.34-1.5a1.5,1.5,0,1,1,2.23,2l-1.33,1.49A1.48,1.48,0,0,1,90,121.75Zm517.38-11.42a1.49,1.49,0,0,1-1.07-.46l-1.4-1.43a1.5,1.5,0,0,1,2.15-2.1l1.4,1.44a1.51,1.51,0,0,1-1.08,2.55Zm-505.78-1a1.52,1.52,0,0,1-1-.43,1.5,1.5,0,0,1,0-2.12l1.4-1.44a1.5,1.5,0,0,1,2.14,2.11l-1.4,1.42A1.45,1.45,0,0,1,101.63,109.28ZM595.28,98.37a1.5,1.5,0,0,1-1-.4l-1.46-1.37a1.5,1.5,0,1,1,2.05-2.19l1.46,1.37a1.5,1.5,0,0,1-1,2.59Zm-481.47-1a1.53,1.53,0,0,1-1.1-.47,1.5,1.5,0,0,1,.08-2.12l1.47-1.37a1.5,1.5,0,0,1,2,2.2L114.83,97A1.48,1.48,0,0,1,113.81,97.37ZM582.58,87a1.5,1.5,0,0,1-1-.36l-1.52-1.29A1.5,1.5,0,0,1,582,83.07l1.54,1.3a1.49,1.49,0,0,1,.16,2.11A1.47,1.47,0,0,1,582.58,87Zm-456-.94a1.5,1.5,0,0,1-1-2.65l1.54-1.29a1.5,1.5,0,1,1,1.92,2.3l-1.53,1.29A1.52,1.52,0,0,1,126.54,86.07Zm442.81-9.8a1.47,1.47,0,0,1-.91-.31l-1.59-1.22a1.5,1.5,0,1,1,1.82-2.38c.54.4,1.07.81,1.6,1.22a1.5,1.5,0,0,1-.92,2.69ZM139.8,75.4a1.52,1.52,0,0,1-1.19-.59,1.5,1.5,0,0,1,.28-2.1l1.6-1.22a1.5,1.5,0,1,1,1.81,2.39l-1.59,1.21A1.47,1.47,0,0,1,139.8,75.4Zm415.82-9.22a1.51,1.51,0,0,1-.86-.27l-1.64-1.14a1.5,1.5,0,0,1,1.7-2.47l1.66,1.15a1.5,1.5,0,0,1-.86,2.73Zm-402.06-.81a1.5,1.5,0,0,1-.86-2.73l1.66-1.14A1.5,1.5,0,0,1,156.05,64l-1.64,1.13A1.49,1.49,0,0,1,153.56,65.37Zm387.85-8.62a1.46,1.46,0,0,1-.8-.23l-1.69-1.06a1.5,1.5,0,1,1,1.58-2.54L542.21,54a1.5,1.5,0,0,1,.47,2.07A1.48,1.48,0,0,1,541.41,56.75ZM167.77,56a1.5,1.5,0,0,1-.79-2.77c.56-.36,1.13-.71,1.7-1.06a1.5,1.5,0,1,1,1.57,2.55l-1.69,1A1.42,1.42,0,0,1,167.77,56Zm359-8a1.49,1.49,0,0,1-.73-.2l-1.75-1a1.5,1.5,0,0,1,1.46-2.63l1.76,1a1.5,1.5,0,0,1-.74,2.81Zm-344.34-.65a1.5,1.5,0,0,1-.73-2.81l1.76-1a1.5,1.5,0,0,1,1.44,2.63l-1.74,1A1.47,1.47,0,0,1,182.41,47.38ZM511.69,40a1.44,1.44,0,0,1-.67-.16L509.23,39a1.5,1.5,0,1,1,1.33-2.69l1.8.9a1.5,1.5,0,0,1-.67,2.84Zm-314.24-.56a1.51,1.51,0,0,1-.67-2.85l1.8-.88a1.5,1.5,0,1,1,1.32,2.69l-1.78.88A1.47,1.47,0,0,1,197.45,39.46Zm298.8-6.71a1.49,1.49,0,0,1-.61-.13l-1.83-.8a1.5,1.5,0,1,1,1.2-2.76l1.85.81a1.51,1.51,0,0,1-.61,2.88Zm-283.4-.48a1.5,1.5,0,0,1-.6-2.87l1.84-.8a1.5,1.5,0,1,1,1.18,2.75l-1.82.8A1.61,1.61,0,0,1,212.85,32.27Zm267.62-6a1.47,1.47,0,0,1-.54-.1l-1.87-.71a1.5,1.5,0,0,1,1.06-2.81l1.89.72a1.5,1.5,0,0,1-.54,2.9Zm-251.9-.39a1.48,1.48,0,0,1-1.4-1,1.5,1.5,0,0,1,.86-1.94l1.89-.71A1.5,1.5,0,0,1,231,25l-1.87.71A1.6,1.6,0,0,1,228.57,25.84ZM464.38,20.5a1.6,1.6,0,0,1-.47-.08L462,19.8a1.5,1.5,0,0,1,.92-2.86l1.92.63a1.5,1.5,0,0,1-.47,2.93Zm-219.75-.33a1.5,1.5,0,0,1-.47-2.93l1.92-.61a1.5,1.5,0,1,1,.91,2.85l-1.9.62A1.47,1.47,0,0,1,244.63,20.17Zm203.44-4.61a1.83,1.83,0,0,1-.4-.05L445.75,15a1.5,1.5,0,1,1,.78-2.9l1.94.53a1.5,1.5,0,0,1-.4,3Zm-187.13-.27a1.5,1.5,0,0,1-.39-2.95l1.94-.53a1.52,1.52,0,0,1,1.84,1.07,1.49,1.49,0,0,1-1.06,1.83l-1.93.52A1.34,1.34,0,0,1,260.94,15.29Zm170.61-3.86a1.86,1.86,0,0,1-.33,0l-2-.43a1.5,1.5,0,0,1-1.14-1.79A1.48,1.48,0,0,1,429.91,8l2,.43a1.5,1.5,0,0,1-.33,3ZM277.48,11.2a1.5,1.5,0,0,1-.32-3l2-.43a1.5,1.5,0,1,1,.63,2.93l-1.95.43A1.66,1.66,0,0,1,277.48,11.2ZM414.85,8.1l-.26,0-2-.34a1.5,1.5,0,0,1,.5-3l2,.34a1.5,1.5,0,0,1-.25,3ZM294.19,7.93a1.5,1.5,0,0,1-.25-3l2-.34a1.5,1.5,0,0,1,.48,3l-2,.33A1.15,1.15,0,0,1,294.19,7.93ZM398,5.59h-.19l-2-.24a1.5,1.5,0,1,1,.36-3l2,.24a1.5,1.5,0,0,1-.18,3Zm-87-.13a1.5,1.5,0,0,1-.17-3l2-.23a1.5,1.5,0,1,1,.35,3l-2,.23Zm70-1.57h-.11l-2-.15a1.49,1.49,0,0,1-1.39-1.6,1.52,1.52,0,0,1,1.6-1.39l2,.15a1.5,1.5,0,0,1-.11,3ZM328,3.82a1.5,1.5,0,0,1-.11-3l2-.14a1.5,1.5,0,0,1,.2,3l-2,.14Zm36-.5h0c-.66,0-1.33-.19-2-.2a1.58,1.58,0,0,1-1.47-1.62A1.56,1.56,0,0,1,362.07,0c.67,0,1.34,0,2,0a1.63,1.63,0,0,1,1.45,1.69A1.63,1.63,0,0,1,364,3.32Zm-19,0a1.65,1.65,0,0,1-1.5-1.63A1.41,1.41,0,0,1,345,.26l2,.06h0a1.35,1.35,0,0,1,1.5,1.28A1.55,1.55,0,0,1,347,3.2l-2,.12Z"/><g class="cls-2"><circle class="cls-1" cx="354.01" cy="353.88" r="156.02" transform="translate(-146.55 353.97) rotate(-45)"/></g><path class="cls-1" d="M354,495.9c-78.31,0-142-63.71-142-142s63.71-142,142-142a2.5,2.5,0,0,1,0,5c-75.55,0-137,61.47-137,137s61.47,137,137,137,137-61.47,137-137a2.5,2.5,0,0,1,5,0C496,432.19,432.32,495.9,354,495.9Z"/><path class="cls-1" d="M157.38,290a9.16,9.16,0,0,1-3.15-.57A9,9,0,0,1,149,277.83a219,219,0,0,1,281.82-128.5,9,9,0,0,1-6.3,16.86C320.64,127.39,204.6,180.3,165.81,284.13A9,9,0,0,1,157.38,290Z"/><g class="cls-3"><circle class="cls-1" cx="646.87" cy="297.64" r="17.25" transform="translate(-21 544.59) rotate(-45)"/></g><path class="cls-1" d="M646.88,341.64a44,44,0,1,1,44-44A44,44,0,0,1,646.88,341.64Zm0-87a43,43,0,1,0,43,43A43,43,0,0,0,646.88,254.64Z"/><g class="cls-4"><path class="cls-1" d="M646.87,304.94c-29.17,0-60.18-2.56-60.18-7.3s31-7.31,60.18-7.31,60.19,2.56,60.19,7.31S676.05,304.94,646.87,304.94Zm0-13.61c-38.11,0-59.18,3.73-59.18,6.31s21.07,6.3,59.18,6.3,59.19-3.72,59.19-6.3S685,291.33,646.87,291.33Z"/></g><g class="cls-4"><path class="cls-1" d="M617.79,350.15a1.21,1.21,0,0,1-.6-.15c-.7-.4-2.84-1.61,4.22-18.22A396.08,396.08,0,0,1,640.52,294c14.39-25.38,31.93-51.08,36-48.75h0c.7.4,2.84,1.61-4.22,18.21a393.73,393.73,0,0,1-19.11,37.75C639.45,325.54,622.81,350.15,617.79,350.15Zm58-104.07c-2.94,0-16.27,16.48-34.39,48.45a391.66,391.66,0,0,0-19.06,37.65c-6.52,15.33-4.86,16.83-4.65,16.95,2.24,1.26,15.88-15.23,34.68-48.38a396.36,396.36,0,0,0,19.06-37.65c6.52-15.34,4.86-16.83,4.64-17A.51.51,0,0,0,675.78,246.08Z"/></g><g class="cls-4"><path class="cls-1" d="M676,350.15c-5,0-21.67-24.61-35.44-48.91a393.73,393.73,0,0,1-19.11-37.75c-7.06-16.6-4.92-17.81-4.22-18.21h0c4.14-2.34,21.65,23.38,36,48.75a396.08,396.08,0,0,1,19.11,37.75c7.06,16.61,4.92,17.82,4.22,18.22A1.21,1.21,0,0,1,676,350.15Zm-58.28-104c-.21.12-1.87,1.61,4.65,17a394,394,0,0,0,19.06,37.65c18.79,33.15,32.42,49.64,34.68,48.38.21-.12,1.87-1.62-4.65-16.95a394,394,0,0,0-19.06-37.65c-18.8-33.16-32.41-49.64-34.68-48.38Z"/></g><g class="cls-3"><circle class="cls-1" cx="220.87" cy="88.64" r="17.25" transform="translate(2.02 182.14) rotate(-45)"/></g><path class="cls-1" d="M220.88,132.64a44,44,0,1,1,44-44A44,44,0,0,1,220.88,132.64Zm0-87a43,43,0,1,0,43,43A43,43,0,0,0,220.88,45.64Z"/><g class="cls-4"><path class="cls-1" d="M220.87,95.94c-29.17,0-60.18-2.56-60.18-7.3s31-7.31,60.18-7.31,60.19,2.56,60.19,7.31S250.05,95.94,220.87,95.94Zm0-13.61c-38.11,0-59.18,3.73-59.18,6.31s21.07,6.3,59.18,6.3,59.19-3.72,59.19-6.3S259,82.33,220.87,82.33Z"/></g><g class="cls-4"><path class="cls-1" d="M191.79,141.15a1.21,1.21,0,0,1-.6-.15c-.7-.4-2.84-1.61,4.22-18.22A396.08,396.08,0,0,1,214.52,85c14.39-25.38,31.93-51.08,36-48.75h0c.7.4,2.84,1.61-4.22,18.21a393.73,393.73,0,0,1-19.11,37.75C213.45,116.54,196.81,141.15,191.79,141.15Zm58-104.07c-2.94,0-16.27,16.48-34.39,48.45a391.66,391.66,0,0,0-19.06,37.65c-6.52,15.33-4.86,16.83-4.65,16.95,2.22,1.25,15.88-15.23,34.68-48.38A396.36,396.36,0,0,0,245.42,54.1c6.52-15.34,4.86-16.83,4.64-17A.51.51,0,0,0,249.78,37.08Z"/></g><g class="cls-4"><path class="cls-1" d="M250,141.15c-5,0-21.67-24.61-35.44-48.91a393.73,393.73,0,0,1-19.11-37.75c-7.06-16.6-4.92-17.81-4.22-18.21h0c4.14-2.34,21.65,23.38,36,48.75a396.08,396.08,0,0,1,19.11,37.75c7.06,16.61,4.92,17.82,4.22,18.22A1.21,1.21,0,0,1,250,141.15Zm-58.28-104c-.21.12-1.87,1.61,4.65,17a394,394,0,0,0,19.06,37.65c18.79,33.15,32.43,49.64,34.68,48.38.21-.12,1.87-1.62-4.65-16.95a394,394,0,0,0-19.06-37.65C207.56,52.37,194,35.89,191.68,37.15Z"/></g><g class="cls-3"><circle class="cls-1" cx="170.87" cy="588.64" r="17.25" transform="translate(-366.18 293.23) rotate(-45)"/></g><path class="cls-1" d="M170.88,632.64a44,44,0,1,1,44-44A44,44,0,0,1,170.88,632.64Zm0-87a43,43,0,1,0,43,43A43,43,0,0,0,170.88,545.64Z"/><g class="cls-4"><path class="cls-1" d="M170.87,595.94c-29.17,0-60.18-2.56-60.18-7.3s31-7.31,60.18-7.31,60.19,2.56,60.19,7.31S200.05,595.94,170.87,595.94Zm0-13.61c-38.11,0-59.18,3.73-59.18,6.31s21.07,6.3,59.18,6.3,59.19-3.72,59.19-6.3S209,582.33,170.87,582.33Z"/></g><g class="cls-4"><path class="cls-1" d="M141.89,641.2a1.36,1.36,0,0,1-.7-.2c-.7-.4-2.84-1.61,4.22-18.22A396.08,396.08,0,0,1,164.52,585c14.39-25.38,31.92-51.09,36-48.75h0c4.13,2.34-8.94,30.58-23.33,56A392.7,392.7,0,0,1,154.65,628C146.28,639.52,143.18,641.2,141.89,641.2Zm57.89-104.12c-2.94,0-16.27,16.48-34.39,48.45a391.66,391.66,0,0,0-19.06,37.65c-6.52,15.33-4.86,16.83-4.65,17s2.35.78,12.16-12.7a390.45,390.45,0,0,0,22.52-35.68c18.8-33.15,25.95-53.33,23.7-54.6A.51.51,0,0,0,199.78,537.08Z"/></g><g class="cls-4"><path class="cls-1" d="M199.85,641.2c-1.28,0-4.38-1.68-12.75-13.18a392.7,392.7,0,0,1-22.58-35.78c-14.39-25.38-27.46-53.62-23.33-56h0c4.14-2.34,21.65,23.38,36,48.75a396.08,396.08,0,0,1,19.11,37.75c7.06,16.61,4.92,17.82,4.22,18.22A1.37,1.37,0,0,1,199.85,641.2ZM141.68,537.15c-2.24,1.27,4.91,21.45,23.71,54.6a390.45,390.45,0,0,0,22.52,35.68c9.81,13.48,11.94,12.82,12.15,12.7s1.88-1.62-4.64-17a394,394,0,0,0-19.06-37.65c-18.79-33.14-32.4-49.66-34.68-48.38Z"/></g></g></g></svg>