<svg xmlns="http://www.w3.org/2000/svg" viewBox="0 0 417.38 47.7"><defs><style>.cls-1{fill:#61b8ff;}.cls-2{fill:#6be6ff;}</style></defs><title>资源 3</title><g id="图层_2" data-name="图层 2"><g id="Layer_8" data-name="Layer 8"><polygon class="cls-1" points="17.51 24.29 29.21 24.29 41.4 36.48 41.4 43 31.91 43 17.51 28.6 17.51 24.29"/><polygon class="cls-1" points="52.22 18.59 52.22 10.16 75.09 10.16 81.34 16.42 58.47 16.42 58.47 24.85 52.22 18.59"/><polygon class="cls-1" points="66.42 24.72 66.42 33.65 42.17 33.65 35.54 27.01 59.79 27.01 59.79 18.09 66.42 24.72"/><polygon class="cls-1" points="360.21 34.76 390.06 34.76 396.78 28.04 366.94 28.04 360.21 34.76"/><polygon class="cls-1" points="170.65 34.76 177.37 28.04 71.01 28.04 71.01 34.76 170.65 34.76"/><polygon class="cls-2" points="417.38 26.69 99.1 26.69 98.99 26.58 86.33 13.92 69.8 13.92 69.8 13.15 86.65 13.15 86.76 13.27 99.42 25.92 417.38 25.92 417.38 26.69"/><polygon class="cls-2" points="47.69 47.7 15.95 47.7 0 31.75 0 25.53 25.53 0 56.38 0 56.11 16.68 54.4 16.66 54.64 1.71 26.24 1.71 1.71 26.24 1.71 31.04 16.66 45.99 46.98 45.99 62.43 30.54 417.38 30.54 417.38 32.25 63.14 32.25 47.69 47.7"/><polygon class="cls-1" points="32.65 42.54 22.59 42.54 11.93 31.88 11.93 13.11 25.08 13.11 25.08 26.87 23.38 26.87 23.38 14.81 13.64 14.81 13.64 31.17 23.3 40.83 32.65 40.83 32.65 42.54"/></g></g></svg>