<svg xmlns="http://www.w3.org/2000/svg" viewBox="0 0 322.56 146.72"><defs><style>.cls-1{isolation:isolate;}.cls-2{fill:#ffec9d;}.cls-3{mix-blend-mode:overlay;}</style></defs><title>资源 12</title><g class="cls-1"><g id="图层_2" data-name="图层 2"><g id="图层_1-2" data-name="图层 1"><path class="cls-2" d="M170.85,136.54a3.68,3.68,0,1,1-3.68,3.67A3.68,3.68,0,0,1,170.85,136.54Zm0,1.93a1.74,1.74,0,1,0,1.74,1.74A1.74,1.74,0,0,0,170.85,138.47Z"/><path class="cls-2" d="M235.83,78a3,3,0,1,1-3,3A3,3,0,0,1,235.83,78Zm0,1.94a1.1,1.1,0,1,0,1.1,1.09A1.1,1.1,0,0,0,235.83,79.94Z"/><path class="cls-2" d="M213,126.35a3,3,0,1,1-3,3A3,3,0,0,1,213,126.35Zm0,1.94a1.1,1.1,0,1,0,1.09,1.09A1.09,1.09,0,0,0,213,128.29Z"/><polygon class="cls-2" points="114.08 52.35 114.08 55.44 114.47 55.44 114.47 52.52 150.16 21.4 165.91 21.4 165.91 21.02 150.02 21.02 150.01 21 114.08 52.35"/><polygon class="cls-2" points="168.24 21.02 168.24 21.4 197.43 21.4 203.84 27.77 200.44 27.78 196.37 23.72 175.58 23.72 175.58 24.11 196.21 24.11 200.28 28.13 204.77 28.19 197.59 21.02 168.24 21.02"/><polygon class="cls-2" points="92.42 44.01 92.42 59.7 117.09 59.7 117.08 53.87 151.19 24.11 173.26 24.11 173.26 23.72 151.04 23.72 150.99 23.71 116.7 53.66 116.7 59.31 92.81 59.31 92.81 44.18 108.28 30.16 108.28 22.51 123.06 7.87 129.93 7.87 136.02 1.68 177.9 1.68 177.9 1.29 135.86 1.29 129.77 7.48 122.9 7.48 107.89 22.35 107.89 29.99 92.42 44.01"/><polygon class="cls-2" points="133.58 119.48 150.01 135.89 197.6 135.89 216.13 114.76 215.84 114.53 197.43 135.5 150.17 135.5 133.85 119.24 133.58 119.48"/><polygon class="cls-2" points="114.08 95.67 114.08 99.94 131.85 117.66 132.15 117.38 114.47 99.78 114.47 96.05 116.79 96.05 116.79 98.91 130.41 112.5 130.71 112.23 117.18 98.75 117.18 95.67 114.08 95.67"/><polygon class="cls-2" points="132.25 114.44 151.03 133.19 196.38 133.19 226.25 98.91 226.25 53.58 226.15 53.52 214.09 41.35 217.5 41.41 228.57 52.52 228.57 99.78 217.48 112.44 217.8 112.69 228.96 99.93 228.96 52.35 217.65 41.03 213.19 40.94 225.87 53.73 225.87 98.76 196.21 132.8 151.19 132.8 132.52 114.2 132.25 114.44"/><polygon class="cls-2" points="95.52 49.81 95.52 57.76 104.03 57.76 104.03 48.2 146.6 11.35 202.53 11.35 217.94 26.95 218.21 26.71 202.69 10.96 146.46 10.96 146.45 10.94 103.64 48.03 103.64 57.37 95.91 57.37 95.91 49.98 117.64 30.6 122.59 25.71 122.59 19.42 127.58 14.44 138.05 14.44 146.47 5.93 181.38 5.93 181.38 5.54 146.3 5.54 137.89 14.05 127.42 14.05 122.21 19.26 122.21 25.54 117.38 30.32 95.52 49.81"/><polygon class="cls-2" points="93.58 96.05 93.58 107.99 99.5 113.95 99.8 113.68 93.97 107.83 93.97 96.44 103.64 96.44 103.64 104.27 103.65 104.39 146.45 146.72 202.69 146.72 202.8 146.59 239.4 104.26 239.4 48.04 239.3 47.98 233.78 42.47 233.54 42.74 239.02 48.2 239.02 104.12 202.52 146.34 146.61 146.34 104.03 104.11 104.03 96.05 93.58 96.05"/><path class="cls-2" d="M154,31.07h39.63l26,26V96.69L193.76,127H153.93L123.75,96.8V57Zm1.81,91.28h35.79L215,95V59L191.73,35.71h-36L128.4,59.09V94.87Z"/><path class="cls-2" d="M152.15,26H196l28.76,28.74V98.57L196.05,132h-44L118.73,98.68v-44ZM154,127.38h39.95l26.14-30.53V56.69l-26-26H153.87L123.37,56.8v40Z"/><polygon class="cls-2" points="105.96 96.05 105.96 103.31 147.41 144.79 201.79 144.79 212.88 131.68 210.82 129.95 200.53 142.08 148.53 142.08 108.67 102.19 108.67 98.76 109.06 98.76 109.06 102.17 148.56 141.69 168.62 141.69 168.62 138.99 149.67 138.99 111.76 101.04 111.76 96.05 105.96 96.05"/><polygon class="cls-2" points="213.48 126.67 215.56 128.43 237.08 103.25 237.08 83.68 234.38 83.68 234.38 102.25 213.48 126.67"/><polygon class="cls-2" points="173.65 138.99 173.65 141.69 200.37 141.69 233.99 102.1 233.99 50.42 227.47 43.86 228.14 43.87 234.38 50.12 234.38 78.65 237.08 78.65 237.08 49 229.26 41.19 220.91 41.04 231.28 51.54 231.28 101.11 199.12 138.99 173.65 138.99"/><path class="cls-2" d="M147.47,13.67h54.24l14.78,14.49h-8.6l-8.71-8.7H149.61L111.76,51.61v6.15H106V48.94ZM109.06,55.05v-4.7l39.56-33.59H200.3L209,25.49l.9,0-9.3-9.08H148.47l-39.8,33.82v4.86Z"/><polygon class="cls-2" points="64.58 101.94 64.58 107.66 75.62 107.66 81.91 113.84 86.45 113.84 101.57 128.91 101.85 128.66 86.61 113.46 82.06 113.46 75.78 107.27 64.96 107.27 64.96 102.1 73.07 94.12 116.02 94.12 116.02 93.73 72.91 93.73 64.58 101.94"/><polygon class="cls-2" points="17.41 85.22 17.41 86.77 303.92 86.77 303.91 89.48 26.69 89.48 26.69 91.02 305.45 91.02 305.47 85.22 17.41 85.22"/><polygon class="cls-2" points="9.28 73.62 9.28 75.17 305.56 75.17 305.56 69.75 15.47 69.75 15.47 71.3 304.02 71.3 304.02 73.62 9.28 73.62"/><polygon class="cls-2" points="0 77.1 0 79.42 303.24 79.42 303.24 81.36 8.51 81.36 8.51 83.67 305.56 83.67 305.56 77.1 0 77.1"/><polygon class="cls-2" points="22.82 66.66 22.82 67.82 305.56 67.82 305.56 61.24 30.94 61.24 30.94 62.4 304.4 62.4 304.4 66.66 22.82 66.66"/><polygon class="cls-2" points="210.54 38.42 212.45 39.97 294.13 39.97 278.69 30.3 321.02 30.3 321.02 29.91 277.35 29.91 292.79 39.58 212.48 39.58 211.51 38.81 289.72 38.81 274.24 29.14 320.63 29.14 320.63 28.75 272.89 28.75 288.37 38.42 210.54 38.42"/><polygon class="cls-2" points="207.94 36.1 209.91 37.65 285.25 37.65 269.53 27.98 320.63 27.98 320.63 27.59 268.16 27.59 283.88 37.26 210.06 37.26 209.09 36.49 280.62 36.49 264.55 26.82 321.02 26.82 321.02 26.43 263.15 26.43 279.23 36.1 207.94 36.1"/><polygon class="cls-2" points="205.23 33.78 207.4 35.33 276.37 35.33 260.13 25.66 319.47 25.66 319.47 25.27 258.72 25.27 274.97 34.94 207.64 34.94 206.48 33.98 272.13 34.13 255.5 24.5 320.24 24.5 320.24 24.11 254.06 24.11 270.7 33.78 205.23 33.78"/><polygon class="cls-2" points="202.91 31.46 204.84 33.01 267.08 33.01 251.03 23.34 322.18 23.34 322.18 22.95 249.64 22.95 265.69 32.62 204.93 32.62 203.93 31.85 262.84 31.85 246.5 22.18 322.56 22.18 322.56 21.79 245.08 21.79 261.43 31.46 202.91 31.46"/><polygon class="cls-2" points="200.59 29.14 202.52 30.68 258.59 30.68 242.06 21.02 321.79 21.02 321.79 20.63 240.63 20.63 257.16 30.3 202.61 30.3 201.76 29.52 253.62 29.52 254.15 29.46 253.53 29.11 237.42 19.86 322.56 19.86 322.56 19.47 235.97 19.47 252.74 29.14 200.59 29.14"/><path class="cls-2" d="M174.43,22.43A1.45,1.45,0,1,1,173,23.88,1.45,1.45,0,0,1,174.43,22.43Zm0,.39a1.07,1.07,0,1,0,1.06,1.06A1.07,1.07,0,0,0,174.43,22.82Z"/><path class="cls-2" d="M218.91,25.91a1.46,1.46,0,1,1-1.45,1.46A1.46,1.46,0,0,1,218.91,25.91Zm0,.39A1.07,1.07,0,1,0,220,27.37,1.07,1.07,0,0,0,218.91,26.3Z"/><path class="cls-2" d="M232.83,40.23a1.45,1.45,0,1,1-1.45,1.45A1.45,1.45,0,0,1,232.83,40.23Zm0,.38a1.07,1.07,0,1,0,1.07,1.07A1.07,1.07,0,0,0,232.83,40.61Z"/><path class="cls-2" d="M217,112.17a1.45,1.45,0,1,1-1.45,1.45A1.45,1.45,0,0,1,217,112.17Zm0,.39a1.06,1.06,0,1,0,1.07,1.06A1.06,1.06,0,0,0,217,112.56Z"/><path class="cls-2" d="M167.08,19.73a1.45,1.45,0,1,1-1.45,1.45A1.45,1.45,0,0,1,167.08,19.73Zm0,.38a1.07,1.07,0,1,0,1.06,1.07A1.07,1.07,0,0,0,167.08,20.11Z"/><path class="cls-2" d="M182.55,4.25a1.46,1.46,0,1,1-1.45,1.46A1.46,1.46,0,0,1,182.55,4.25Zm0,.39a1.07,1.07,0,1,0,1.06,1.07A1.06,1.06,0,0,0,182.55,4.64Z"/><path class="cls-2" d="M179.07,0a1.45,1.45,0,1,1-1.45,1.45A1.45,1.45,0,0,1,179.07,0Zm0,.39a1.06,1.06,0,1,0,1.06,1.06A1.06,1.06,0,0,0,179.07.39Z"/><path class="cls-2" d="M100.55,113.33a1.45,1.45,0,1,1-1.45,1.45A1.45,1.45,0,0,1,100.55,113.33Zm0,.39a1.06,1.06,0,1,0,1.06,1.06A1.05,1.05,0,0,0,100.55,113.72Z"/><path class="cls-2" d="M96.68,113.33a1.45,1.45,0,1,1-1.45,1.45A1.45,1.45,0,0,1,96.68,113.33Zm0,.39a1.06,1.06,0,1,0,1.07,1.06A1.06,1.06,0,0,0,96.68,113.72Z"/><path class="cls-2" d="M91.65,113.33a1.45,1.45,0,1,1-1.45,1.45A1.45,1.45,0,0,1,91.65,113.33Zm0,.39a1.06,1.06,0,1,0,1.07,1.06A1.06,1.06,0,0,0,91.65,113.72Z"/><path class="cls-2" d="M102.48,128a1.45,1.45,0,1,1-1.45,1.45A1.45,1.45,0,0,1,102.48,128Zm0,.38a1.07,1.07,0,1,0,1.07,1.07A1.07,1.07,0,0,0,102.48,128.41Z"/><path class="cls-2" d="M114.09,54.92a1.46,1.46,0,1,1-1.45,1.45A1.45,1.45,0,0,1,114.09,54.92Zm0,.39a1.07,1.07,0,1,0,1.06,1.06A1.07,1.07,0,0,0,114.09,55.31Z"/><path class="cls-2" d="M131.49,111.78a1.45,1.45,0,1,1-1.45,1.45A1.45,1.45,0,0,1,131.49,111.78Zm0,.39a1.07,1.07,0,1,0,1.07,1.06A1.07,1.07,0,0,0,131.49,112.17Z"/><path class="cls-2" d="M133,116.81a1.45,1.45,0,1,1-1.45,1.45A1.45,1.45,0,0,1,133,116.81Zm0,.39a1.06,1.06,0,1,0,1.06,1.06A1.05,1.05,0,0,0,133,117.2Z"/><polygon class="cls-2" points="137.1 146.57 136.96 140.78 133.11 136.93 133.24 142.72 133.25 142.71 127.33 142.71 131.18 146.56 137.11 146.56 137.1 146.57"/><polygon class="cls-2" points="129.51 138.99 129.38 133.19 125.53 129.34 125.66 135.13 125.67 135.13 119.75 135.13 123.6 138.98 129.53 138.98 129.51 138.99"/><polygon class="cls-2" points="121.93 131.41 121.8 125.61 117.95 121.76 118.08 127.55 118.08 127.55 112.17 127.54 116.02 131.39 121.94 131.4 121.93 131.41"/><polygon class="cls-2" points="114.35 123.83 114.22 118.03 110.37 114.18 110.49 119.97 110.5 119.96 104.58 119.96 108.43 123.81 114.36 123.81 114.35 123.83"/><polygon class="cls-2" points="228.17 26.87 228.07 22.24 224.99 19.16 225.09 23.79 225.1 23.79 220.37 23.78 223.44 26.86 228.18 26.86 228.17 26.87"/><polygon class="cls-2" points="222.11 20.81 222.01 16.18 218.93 13.1 219.03 17.73 219.04 17.73 214.31 17.72 217.38 20.8 222.12 20.8 222.11 20.81"/><polygon class="cls-2" points="216.05 14.75 215.95 10.12 212.87 7.04 212.97 11.67 212.97 11.66 208.25 11.66 211.32 14.74 216.06 14.74 216.05 14.75"/><polygon class="cls-2" points="114.17 135.37 114.09 131.98 111.84 129.72 111.91 133.11 111.92 133.11 108.45 133.11 110.7 135.36 114.18 135.37 114.17 135.37"/><polygon class="cls-2" points="109.73 130.93 109.65 127.53 107.39 125.28 107.47 128.67 107.47 128.67 104.01 128.66 106.26 130.92 109.73 130.92 109.73 130.93"/><polygon class="cls-2" points="100.84 122.05 100.77 118.65 98.51 116.39 98.58 119.79 98.59 119.78 95.12 119.78 97.38 122.04 100.85 122.04 100.84 122.05"/><polygon class="cls-2" points="71.47 104.56 81.03 104.56 90.55 114.01 90.82 113.77 81.19 104.17 72.39 104.17 78.1 98.37 88.56 98.37 88.56 106.83 95.53 114 95.83 113.73 88.94 106.67 88.94 97.99 77.94 97.99 71.47 104.56"/><path class="cls-2" d="M140.74,34a2.61,2.61,0,1,1,0-3.69A2.61,2.61,0,0,1,140.74,34Zm-3.42-3.41a2.22,2.22,0,1,0,3.15,0A2.22,2.22,0,0,0,137.32,30.59Z"/><path class="cls-2" d="M133.08,34a2.61,2.61,0,1,1,0-3.69A2.61,2.61,0,0,1,133.08,34Zm-3.42-3.41a2.22,2.22,0,1,0,3.15,0A2.23,2.23,0,0,0,129.66,30.59Z"/><path class="cls-2" d="M125.42,34a2.61,2.61,0,1,1,0-3.69A2.61,2.61,0,0,1,125.42,34ZM122,30.59a2.22,2.22,0,1,0,3.14,0A2.22,2.22,0,0,0,122,30.59Z"/><g class="cls-3"><path class="cls-2" d="M122.72,37.65a1.82,1.82,0,0,1,1.81,1.93H156l7-7h39L209.38,40a1.85,1.85,0,0,1,1.14-.49,1.78,1.78,0,1,1,0,3.56,1.81,1.81,0,0,1-1.8-1.81,1.46,1.46,0,0,1,.39-1L201.8,33H163.16l-7,7H124.48a1.73,1.73,0,0,1-1.76,1.29,1.81,1.81,0,0,1,0-3.61Z"/><path class="cls-2" d="M157.53,17.2a1.77,1.77,0,0,1,1.81,1.88h23.12l7.77,7.74h18.28l4.19-4.26a1.88,1.88,0,0,1-.5-1.28,1.82,1.82,0,0,1,1.8-1.83,1.8,1.8,0,1,1-1,3.37l-4.32,4.38h-18.6l-7.77-7.73h-23a1.77,1.77,0,0,1-1.76,1.34,1.81,1.81,0,0,1,0-3.61Z"/><path class="cls-2" d="M173,29.82A1.74,1.74,0,0,1,171.2,28H147.46L138,18.69H111.38a1.73,1.73,0,0,1-1.81,1.84,1.78,1.78,0,0,1-1.8-1.78,1.82,1.82,0,0,1,1.8-1.83,1.8,1.8,0,0,1,1.76,1.39h26.81l9.48,9.28h23.62A1.81,1.81,0,1,1,173,29.82Z"/></g><g class="cls-3"><polygon class="cls-2" points="115.32 63.95 102.48 63.95 102.48 63.56 115.16 63.56 122.51 56.21 128.48 56.21 134.18 62.02 146.57 62.02 146.57 62.4 134.02 62.4 128.31 56.6 122.67 56.6 115.32 63.95"/><polygon class="cls-2" points="106.82 60.08 102.87 60.08 102.87 59.7 106.65 59.7 109.65 56.6 117.87 56.6 124 50.47 124.28 50.74 118.03 56.99 109.81 56.99 106.82 60.08"/><polygon class="cls-2" points="152.38 67.04 137.7 67.04 134.89 64.34 127.45 64.34 124.3 61.23 124.57 60.96 127.6 63.95 135.05 63.95 137.85 66.66 152.38 66.66 152.38 67.04"/><circle class="cls-2" cx="102.96" cy="59.98" r="1.26"/><path class="cls-2" d="M101.71,63.88a1.26,1.26,0,0,1,2.51-.05,1.26,1.26,0,1,1-2.51.05Z"/><path class="cls-2" d="M123,50.73a1.25,1.25,0,0,1,1.23-1.28,1.26,1.26,0,1,1,.05,2.51A1.26,1.26,0,0,1,123,50.73Z"/><path class="cls-2" d="M130.33,50.73a1.25,1.25,0,0,1,1.23-1.28,1.26,1.26,0,1,1,.05,2.51A1.26,1.26,0,0,1,130.33,50.73Z"/><path class="cls-2" d="M145.41,48a1.26,1.26,0,1,1,1.29,1.23A1.27,1.27,0,0,1,145.41,48Z"/><path class="cls-2" d="M134.58,54.59a1.26,1.26,0,1,1,1.29,1.24A1.27,1.27,0,0,1,134.58,54.59Z"/><path class="cls-2" d="M150.44,53.05a1.26,1.26,0,1,1,1.28,1.23A1.27,1.27,0,0,1,150.44,53.05Z"/><path class="cls-2" d="M175.58,67.36a1.26,1.26,0,1,1,1.29,1.23A1.27,1.27,0,0,1,175.58,67.36Z"/><path class="cls-2" d="M175.58,60a1.26,1.26,0,1,1,1.29,1.23A1.26,1.26,0,0,1,175.58,60Z"/><path class="cls-2" d="M150.44,48a1.26,1.26,0,1,1,1.28,1.23A1.27,1.27,0,0,1,150.44,48Z"/><path class="cls-2" d="M166.69,42.6A1.26,1.26,0,1,1,168,43.84,1.26,1.26,0,0,1,166.69,42.6Z"/><path class="cls-2" d="M169.78,27.91a1.26,1.26,0,1,1,1.28,1.23A1.27,1.27,0,0,1,169.78,27.91Z"/><path class="cls-2" d="M164.37,28.68a1.26,1.26,0,0,1,2.51-.05,1.26,1.26,0,0,1-1.23,1.28A1.25,1.25,0,0,1,164.37,28.68Z"/><path class="cls-2" d="M123,61.17a1.26,1.26,0,0,1,1.23-1.28A1.26,1.26,0,1,1,123,61.17Z"/><path class="cls-2" d="M145.41,62.33a1.26,1.26,0,1,1,1.29,1.23A1.26,1.26,0,0,1,145.41,62.33Z"/><path class="cls-2" d="M151.22,67a1.25,1.25,0,0,1,1.23-1.28,1.26,1.26,0,1,1,.05,2.51A1.24,1.24,0,0,1,151.22,67Z"/><polygon class="cls-2" points="131.67 50.78 131.39 50.51 135.79 46.16 142.63 46.16 149.75 39.2 155 39.2 165.81 28.39 166.08 28.66 155.16 39.58 149.91 39.58 142.78 46.54 135.95 46.54 131.67 50.78"/><polygon class="cls-2" points="177.16 67.53 168.15 58.53 150.85 58.53 146.88 54.67 135.74 54.67 135.74 54.28 147.04 54.28 151 58.15 168.31 58.15 177.43 67.26 177.16 67.53"/><polygon class="cls-2" points="146.82 48.36 146.55 48.08 152.3 42.29 160.81 42.29 165.14 37.92 165.14 33.31 170.9 27.55 171.18 27.82 165.53 33.47 165.53 38.08 160.97 42.68 152.46 42.68 146.82 48.36"/><polygon class="cls-2" points="162.77 48.09 152.38 48.09 152.38 47.7 162.61 47.7 167.71 42.6 167.98 42.88 162.77 48.09"/><polygon class="cls-2" points="177.16 60.19 173.18 56.21 162.32 56.21 159.26 53.12 151.6 53.12 151.6 52.73 159.42 52.73 162.48 55.83 173.34 55.83 177.43 59.91 177.16 60.19"/></g></g></g></g></svg>