<svg xmlns="http://www.w3.org/2000/svg" viewBox="0 0 650.69 656.77"><defs><style>.cls-1{opacity:0.8;}.cls-2{fill:#5fffe8;}</style></defs><title>资源 12</title><g id="图层_2" data-name="图层 2"><g id="央铋_1" data-name="央铋 1"><g class="cls-1"><path class="cls-2" d="M298.7,76.4,289.86,78c-2.83.43-6.21,1.23-10.08,2.14l-6.18,1.42-6.76,1.92a267.32,267.32,0,0,0-31.55,11.1,293.63,293.63,0,0,0-34.09,17.58A297,297,0,0,0,170,134.45c-4.6,4.06-9.22,7.78-13.2,11.77-2,2-4,3.8-5.9,5.67l-5.28,5.55c-3.47,3.47-6.27,7-8.92,10s-4.73,5.77-6.52,8l-4.1,5.23-1.36,1.92-11.82-8.66,1.44-2,4.32-5.52c1.88-2.36,4-5.31,6.88-8.44s5.75-6.86,9.4-10.52l5.57-5.84c2-2,4.1-3.93,6.23-6,4.19-4.2,9.06-8.13,13.91-12.42a313.8,313.8,0,0,1,32.95-23.52,306.64,306.64,0,0,1,36-18.55,282.14,282.14,0,0,1,33.29-11.72l7.13-2,6.53-1.49c4.08-1,7.65-1.81,10.63-2.26l9.33-1.67Z"/><path class="cls-2" d="M392.44,53.21l-5.86-1.05c-3.73-.69-9.12-1.21-15.56-2.08a316.81,316.81,0,0,0-47.59-1.16,288.68,288.68,0,0,0-47.11,6.57l-8.64,2-6.58,1.85-5.72,1.62-2.94-9.71,5.93-1.68,6.81-1.9,8.93-2.06a298.93,298.93,0,0,1,48.76-6.8A330.12,330.12,0,0,1,372.09,40c6.66.9,12.24,1.44,16.09,2.16l6.07,1.09Z"/><path class="cls-2" d="M585.14,137.34l-4-4.6c-2.53-2.92-6.1-7.14-10.75-11.87C566,116,560.31,110.68,554.3,105c-6.21-5.48-12.86-11.31-19.9-16.65a324.14,324.14,0,0,0-40.55-26.72c-5.79-3.24-10.79-5.61-14.21-7.41-1.7-.91-3.1-1.51-4.05-1.94l-1.45-.66,3.34-7.14,1.48.66c1,.45,2.4,1.06,4.15,2,3.5,1.85,8.63,4.28,14.55,7.6a332,332,0,0,1,41.56,27.38c7.22,5.47,14,11.45,20.4,17.06,6.16,5.84,11.93,11.28,16.52,16.29,4.76,4.84,8.42,9.16,11,12.16s4.06,4.72,4.06,4.72Z"/><path class="cls-2" d="M574.84,180.82l-3.72-5.23c-1.2-1.65-2.58-3.7-4.29-6l-5.91-7.5a286.26,286.26,0,0,0-77.26-66.72l-8.27-4.76-6.55-3.36-5.7-2.92,5.63-11.67,6,3,6.84,3.52,8.66,5A299.17,299.17,0,0,1,571,154l6.17,7.85c1.79,2.38,3.24,4.52,4.5,6.25l3.88,5.46Z"/><path class="cls-2" d="M586.91,459.15s.24-.46.64-1.36,1-2.23,1.79-4,1.76-3.88,2.9-6.41,2.2-5.53,3.52-8.84a279.79,279.79,0,0,0,15.21-57,281.92,281.92,0,0,0,0-83.37,273.52,273.52,0,0,0-90.51-164.48A273.68,273.68,0,0,0,394,71.22c-7-1.2-12.52-2.35-16.34-2.7l-5.81-.74-1.55,13.43,5.53.71c3.62.33,8.84,1.42,15.52,2.56a259.82,259.82,0,0,1,120.19,59.44,259.92,259.92,0,0,1,86.06,156.34,268.92,268.92,0,0,1,0,79.29,266.71,266.71,0,0,1-14.46,54.15c-1.26,3.14-2.31,6-3.34,8.4L577,448.19c-.74,1.65-1.31,2.93-1.7,3.78s-.6,1.29-.6,1.29Z"/><path class="cls-2" d="M381.54,620.6s1.6-.16,4.57-.74,7.34-1.21,12.85-2.38a288.38,288.38,0,0,0,44.63-13.43,279.28,279.28,0,0,0,58.07-31,298,298,0,0,0,29.15-23.13,307.65,307.65,0,0,0,26.59-27.74,282.52,282.52,0,0,0,22.63-31l2.56-4,2.35-4.09,4.66-8.13c2.75-5.57,5.81-10.91,8.16-16.47a279.42,279.42,0,0,0,20.4-62.58,276,276,0,0,0,5.28-46.34c.13-5.64.33-10.07.15-13.09s-.12-4.63-.12-4.63l6.48-.19s0,1.65.12,4.74,0,7.62-.16,13.38a282.4,282.4,0,0,1-5.4,47.4,286.43,286.43,0,0,1-20.87,64c-2.4,5.69-5.53,11.15-8.34,16.84q-2.37,4.14-4.77,8.32l-2.41,4.19-2.62,4.09a288.12,288.12,0,0,1-23.14,31.74,314.82,314.82,0,0,1-27.19,28.37,307.08,307.08,0,0,1-29.81,23.66A286,286,0,0,1,446,610.09a296,296,0,0,1-45.66,13.73c-5.63,1.19-10.12,1.85-13.15,2.43s-4.67.75-4.67.75Z"/><path class="cls-2" d="M250.25,579.23s1,.46,3,1.11l8.46,2.86c3.62,1.31,8.19,2.37,13.32,3.91,2.58.73,5.38,1.26,8.31,2s6,1.42,9.27,1.93c25.79,5.25,61.84,6.55,96.41-.27a251.27,251.27,0,0,0,89.25-35.93c5.65-3.43,10.42-7.19,14.84-10.23,4.18-3.38,8-6.14,10.88-8.67l6.77-5.86c.79-.67,1.38-1.2,1.75-1.58l.59-.56,8,8.7-.62.58c-.39.4-1,1-1.83,1.66L511.55,545c-3.05,2.64-7,5.54-11.38,9.06-4.62,3.19-9.62,7.12-15.53,10.71a262.77,262.77,0,0,1-93.4,37.6c-36.2,7.15-73.84,5.77-100.86.29-3.41-.54-6.64-1.28-9.7-2s-6-1.31-8.69-2.06c-5.37-1.61-10.15-2.74-13.94-4.1l-8.86-3a31.81,31.81,0,0,1-3.1-1.17Z"/><path class="cls-2" d="M64.23,340s.14,5.33.39,14.66c.73,9.28,1.52,22.62,4.74,38.29A278.61,278.61,0,0,0,85,445.07a277.46,277.46,0,0,0,71.93,101.09,279.59,279.59,0,0,0,44.11,32c6.85,4.12,13.43,7.33,19.19,10.31,5.93,2.61,11,5.16,15.36,6.78l10.06,4,3.63,1.22L244.57,614l-3.82-1.29-10.59-4.14c-4.59-1.73-9.92-4.39-16.17-7.15-6.06-3.12-13-6.51-20.19-10.85a294.19,294.19,0,0,1-46.4-33.65A292,292,0,0,1,71.73,450.55a293.41,293.41,0,0,1-16.47-54.88c-3.38-16.48-4.22-30.52-5-40.28C50,345.58,49.86,340,49.86,340Z"/><path class="cls-2" d="M161.5,584.55l2.74,2c1.81,1.24,4.36,3.19,7.78,5.44s7.58,4.95,12.46,7.88,10.43,6.21,16.74,9.28c24.71,13.21,60.44,25.91,97.55,30.84a300.78,300.78,0,0,0,54.79,2.52,329.68,329.68,0,0,0,47.5-5.81,323.1,323.1,0,0,0,32.73-8.72l9-3c1.05-.34,1.83-.64,2.35-.85l.8-.31,4.34,11.6-.84.33c-.54.23-1.35.54-2.44.89l-9.37,3.17a343.14,343.14,0,0,1-34.07,9.08,342.91,342.91,0,0,1-49.45,6,311.8,311.8,0,0,1-57-2.62c-38.64-5.13-75.85-18.36-101.57-32.11-6.57-3.2-12.25-6.75-17.42-9.65-5.08-3.06-9.37-6-13-8.22s-6.22-4.36-8.1-5.66l-2.85-2Z"/><path class="cls-2" d="M41.12,471.36l4.62,10.2c1.63,3.17,3.6,7,5.85,11.44s5.19,9.2,8.18,14.51c3.16,5.22,6.74,10.79,10.63,16.6,4.06,5.7,8.24,11.78,13.06,17.69,4.6,6.09,9.9,11.93,15.15,18,5.52,5.8,11,11.76,17,17.27a315.51,315.51,0,0,0,37,30.22l4.63,3.28,4.67,3,9.08,5.79c6.1,3.42,11.7,7,17.18,9.64,10.79,5.73,20.15,9.77,26.69,12.57l10.42,4.11-4.16,11.08-10.79-4.26c-6.79-2.9-16.49-7.09-27.66-13-5.69-2.8-11.5-6.45-17.82-10l-9.4-6-4.84-3.13-4.8-3.4a325.72,325.72,0,0,1-38.31-31.31c-6.2-5.7-12-11.88-17.66-17.89-5.44-6.27-10.92-12.33-15.69-18.64-5-6.13-9.33-12.43-13.53-18.33-4-6-7.74-11.78-11-17.2s-6.17-10.44-8.48-15S36.77,490,35.08,486.7c-3-6.73-4.79-10.57-4.79-10.57Z"/><path class="cls-2" d="M351.51,9.26l-6-.15c-3.89-.19-9.58-.07-16.84.15A328.68,328.68,0,0,0,189.15,45.39c-7,3.41-13.78,7.52-20.73,11.49-6.74,4.33-13.67,8.57-20.24,13.43A316.94,316.94,0,0,0,110.12,102,331,331,0,0,0,19.31,257.81a324.2,324.2,0,0,0-9.43,59.38c-.68,7.24-.55,12.95-.72,16.83S9,340,9,340H0s.05-2.13.14-6.12,0-9.85.74-17.28a333.6,333.6,0,0,1,9.7-61A340,340,0,0,1,103.86,95.47,326.26,326.26,0,0,1,143,63c6.75-5,13.86-9.35,20.79-13.79,7.14-4.09,14.1-8.3,21.3-11.81A338,338,0,0,1,328.41.25C335.86,0,341.71-.1,345.7.1l6.12.15Z"/><path class="cls-2" d="M540,65.06l-4-2.82c-2.53-1.79-6.09-4.41-10.6-7.2s-9.63-6.27-15.43-9.48c-2.89-1.64-5.82-3.4-8.89-5l-9.39-4.82c-3.13-1.65-6.33-3.15-9.52-4.56l-9.31-4.2C466.75,24.46,461,22.17,456,20.31l-12.14-4.12c-2.93-1-4.64-1.46-4.64-1.46l2.46-8.09s1.76.45,4.76,1.5l12.45,4.22c5.09,1.91,11,4.25,17.29,6.8l9.55,4.31c3.27,1.44,6.55,3,9.76,4.67l9.62,4.94c3.14,1.68,6.16,3.49,9.11,5.16,6,3.3,11.25,6.78,15.82,9.72s8.27,5.54,10.85,7.38L545,58.22Z"/><path class="cls-2" d="M621,452.83s.46-1.18,1.34-3.39,2.21-5.44,3.56-9.67,3.3-9.28,4.87-15.27c.83-3,1.72-6.14,2.66-9.48.78-3.38,1.6-6.94,2.45-10.65a311.19,311.19,0,0,0,6.61-51.53,301.88,301.88,0,0,0-18.11-117.12,300.16,300.16,0,0,0-22.1-47c-3.66-6.68-7.67-12.41-10.94-17.66-3.57-5-6.66-9.47-9.31-13l-6.37-8.1c-1.47-1.88-2.27-2.86-2.27-2.86l6.08-5s.82,1,2.33,2.93l6.53,8.32c2.71,3.66,5.89,8.19,9.55,13.37,3.36,5.39,7.47,11.27,11.22,18.12a305.55,305.55,0,0,1,37.93,107.43,311.25,311.25,0,0,1,3.34,61,321,321,0,0,1-6.78,52.88c-.88,3.8-1.72,7.45-2.52,10.92q-1.44,5.14-2.73,9.73c-1.61,6.15-3.57,11.34-5,15.66s-2.77,7.66-3.66,9.93l-1.38,3.48Z"/><path class="cls-2" d="M544.08,583.87l5.58-4.83c3.63-3,8.42-7.67,14.24-13.21a328.35,328.35,0,0,0,37.81-45.18,312.81,312.81,0,0,0,28.86-51.37c6.55-14.71,9.87-24.93,9.87-24.93l7.45,2.58s-3.4,10.48-10.11,25.56a322.12,322.12,0,0,1-29.58,52.65,335.58,335.58,0,0,1-38.74,46.28c-6,5.69-10.89,10.49-14.6,13.55l-5.71,4.94Z"/><path class="cls-2" d="M335.68,562.79c-122.86,0-222.82-99.95-222.82-222.81s100-222.82,222.82-222.82S558.49,217.12,558.49,340,458.54,562.79,335.68,562.79Zm0-442.7c-121.25,0-219.89,98.64-219.89,219.89s98.64,219.89,219.89,219.89S555.57,461.23,555.57,340,456.93,120.09,335.68,120.09Zm0,436.85c-119.63,0-217-97.32-217-217s97.33-217,217-217,217,97.33,217,217S455.31,556.94,335.68,556.94Zm0-431c-118,0-214,96-214,214s96,214,214,214,214-96,214-214S453.7,125.94,335.68,125.94Z"/></g></g></g></svg>