<svg xmlns="http://www.w3.org/2000/svg" viewBox="0 0 18.93 18.95"><defs><style>.cls-1{fill:#ff7000;}.cls-2{fill:#00b8de;}</style></defs><title>资源 8</title><g id="图层_2" data-name="图层 2"><g id="Layer_1" data-name="Layer 1"><path class="cls-1" d="M7.65.18h0A9.17,9.17,0,0,1,11,.12a9.46,9.46,0,0,1,6.73,4.61h0a5.77,5.77,0,0,1,.29.55,4.92,4.92,0,0,1,.26.58A9.43,9.43,0,0,1,18.93,9h-.31A9.37,9.37,0,0,0,18,6c-.08-.19-.17-.38-.25-.56l-.29-.54h0A9.15,9.15,0,0,0,10.9.43,8.22,8.22,0,0,0,9.32.31a9.89,9.89,0,0,0-1.6.17h0Z"/><path class="cls-1" d="M18.6,12h0c-.1.33-.21.66-.34,1a7.84,7.84,0,0,1-.43.93,9.5,9.5,0,0,1-3.62,3.74h0A9.47,9.47,0,0,1,1.27,14.21h0l-.05-.1c-.12-.2-.22-.4-.32-.61s-.19-.42-.27-.63A9.57,9.57,0,0,1,0,9.48H.31a9.13,9.13,0,0,0,.62,3.27,5.45,5.45,0,0,0,.26.62c.09.19.19.39.3.59l.05.09h0A9.15,9.15,0,0,0,14.05,17.4h0a9.09,9.09,0,0,0,3.5-3.62,7.36,7.36,0,0,0,.42-.9,6.63,6.63,0,0,0,.32-1h0l.22.06.09,0Z"/><path class="cls-2" d="M12,16.77h0l.12.35.07.25a8.73,8.73,0,0,1-1.59.37A7.71,7.71,0,0,1,9,17.79a8.33,8.33,0,0,1-6.71-4.15h0a8.16,8.16,0,0,1-.75-1.72,8,8,0,0,1-.34-1.8A8.32,8.32,0,0,1,5.31,2.25h0L5.89,2a5.18,5.18,0,0,1,.6-.26,8.35,8.35,0,0,1,3.29-.55l0,.63a7.84,7.84,0,0,0-3,.5l-.56.24c-.19.09-.37.19-.54.29h0a7.71,7.71,0,0,0-3.83,7.27,7.27,7.27,0,0,0,.31,1.65,7.55,7.55,0,0,0,.7,1.6h0A7.7,7.7,0,0,0,9,17.17a8.11,8.11,0,0,0,1.48-.05A7.94,7.94,0,0,0,12,16.77Z"/><path class="cls-1" d="M5.65,3.17l.07,0,.07,0h0a7.3,7.3,0,0,1,5.58-.73,7.38,7.38,0,0,1,4.48,3.43h0a7.39,7.39,0,0,1-2.7,10.07h0a8.15,8.15,0,0,1-1.16.55,9.34,9.34,0,0,1-1.23.33A7.4,7.4,0,0,1,4.7,15.09l.81-1a6.13,6.13,0,0,0,5,1.36,6,6,0,0,0,1-.27,5.6,5.6,0,0,0,1-.45h0a6.13,6.13,0,0,0,2.24-8.36h0A6.13,6.13,0,0,0,6.41,4.17h0l0,0-.07,0Z"/><path class="cls-1" d="M2.4,7.36h0c.05-.16.11-.33.17-.5s.13-.33.21-.49A7.18,7.18,0,0,1,4.35,4.16l.88.9a6,6,0,0,0-1.3,1.83,2.75,2.75,0,0,0-.17.41,3,3,0,0,0-.15.42h0Z"/><path class="cls-2" d="M10.85,15.05h0a5.23,5.23,0,0,1-1,.16,6,6,0,0,1-1,0,5.77,5.77,0,0,1-4.28-2.84h0A5.75,5.75,0,0,1,6.6,4.49h0a4.87,4.87,0,0,1,.8-.38,6.27,6.27,0,0,1,.84-.26,5.79,5.79,0,0,1,4.3.76l-.17.27a5.43,5.43,0,0,0-4.07-.71,5.82,5.82,0,0,0-.79.22,7.6,7.6,0,0,0-.76.37h0a5.44,5.44,0,0,0-2,7.42h0a5.42,5.42,0,0,0,4,2.69,5.33,5.33,0,0,0,1,0,5.4,5.4,0,0,0,1-.15h0Z"/><path class="cls-2" d="M14.19,6.19h0l0,.06,0,0,.18.29h0a5.06,5.06,0,0,1,.24.46c.07.15.13.3.19.46h0a5.86,5.86,0,0,1,.31,2.56l-.31,0a5.52,5.52,0,0,0-.3-2.42h0a4.07,4.07,0,0,0-.18-.44c-.07-.15-.14-.29-.22-.43h0L14,6.47s0,0,0,0l0,0L14,6.31Z"/><path class="cls-2" d="M14.75,11.76h0c0,.06-.06.11-.08.16a1.19,1.19,0,0,1-.08.16,5.21,5.21,0,0,1-.47.78l-.25-.19a5.89,5.89,0,0,0,.44-.73l.08-.15a.69.69,0,0,1,.07-.15h0l.1,0Z"/><path class="cls-2" d="M2.6,12.15h0c0-.08-.06-.16-.08-.23s-.06-.17-.08-.22h0a7.9,7.9,0,0,1-.27-1.19l1.25-.17a7,7,0,0,0,.22,1h0c0,.07,0,.13.06.18l.07.18-.48.19Z"/></g></g></svg>