<svg xmlns="http://www.w3.org/2000/svg" viewBox="0 0 38.14 36.12"><defs><style>.cls-1{fill:#08ade5;}.cls-2{fill:#feb113;}.cls-3{fill:#065977;}</style></defs><title>资源 13</title><g id="图层_2" data-name="图层 2"><g id="Layer_1" data-name="Layer 1"><path class="cls-1" d="M0,19.07c0-.7,0-1.4.12-2.1,0-.19,0-.37.07-.56l0-.25s0-.07,0-.11,0-.06,0-.06h0l.14,0,2.2.36.28,0a14.89,14.89,0,0,0-.21,2.21c0,.14,0,.28,0,.42s0,0,0,0H0Z"/><path class="cls-1" d="M.42,15.07c.16-.68.33-1.35.55-2,.06-.19.12-.38.19-.57l.09-.23.05-.11s0-.06,0-.06l.05,0,.12.05L3.58,13l.25.11c-.12.32-.23.64-.34,1s-.13.4-.18.6-.11.36-.15.55l-.09.41s0,0,0,0l-.31-.06L.55,15.09l-.13,0Z"/><path class="cls-1" d="M1.68,11.24c.22-.48.45-1,.71-1.41.15-.27.3-.54.46-.8l.33-.5L4.77,9.58l.65.43s0,.07,0,.09-.19.28-.27.43-.34.56-.49.85-.32.62-.46.94c0,0,0,0,0,0L4,12.29l-.95-.43-1.39-.62Z"/><path class="cls-1" d="M3.72,7.76A16.72,16.72,0,0,1,5.15,6c0-.06.59-.62.6-.61l.15.16,1.57,1.6.17.17a11.5,11.5,0,0,0-.9,1c-.29.34-.59.69-.85,1L4.35,8.23l-.63-.47Z"/><path class="cls-2" d="M13.41,6.4c.14.3.27.59.4.89l.07.16s-.08.06-.11.07c-.35.16-.68.34-1,.53a10.87,10.87,0,0,0-1,.64c-.25.18-.49.37-.73.56a10.61,10.61,0,0,0-.86.78c-.21.2-.41.42-.6.64a11.17,11.17,0,0,0-1,1.34l-.81-.54-.15-.1s0,0,0,0l.13-.18c.21-.3.43-.6.66-.88A12.51,12.51,0,0,1,9.76,8.79a13.86,13.86,0,0,1,1.67-1.3,15.26,15.26,0,0,1,2-1.09Z"/><path class="cls-2" d="M26.14,5.74l-.46.86a1.09,1.09,0,0,1-.08.15s-.09,0-.11,0c-.34-.17-.69-.33-1-.48a12.35,12.35,0,0,0-2.13-.7L21.7,5.4l-.61-.11-.6-.07-.62,0a14.45,14.45,0,0,0-2.08,0s0,0,0-.07a1.64,1.64,0,0,0,0-.23c0-.21,0-.41-.05-.62l0-.25.77,0c.39,0,.77,0,1.16,0a14.73,14.73,0,0,1,2.48.29,15.3,15.3,0,0,1,2.29.65,16.6,16.6,0,0,1,1.77.81Z"/><path class="cls-1" d="M6.43,4.79l.45-.39c.24-.2.5-.39.75-.59.41-.31.84-.6,1.27-.87l1,1.61.42.66s-.05,0-.07.06l-.44.29c-.33.23-.66.48-1,.73l-.63.52-.14-.16c-.25-.27-.49-.55-.74-.83s-.61-.68-.91-1Z"/><path class="cls-1" d="M9.71,2.46a15.2,15.2,0,0,1,1.45-.74c.45-.2.9-.39,1.36-.57l.65,1.79.27.74s-.06,0-.08,0l-.49.19a11.14,11.14,0,0,0-1.11.51c-.25.12-.49.24-.72.38-.32-.55-.63-1.11-.94-1.66l-.39-.69Z"/><path class="cls-1" d="M13.41.85a19.48,19.48,0,0,1,2-.5l1-.17,0,.19c.1.74.2,1.48.31,2.22l0,.27a15,15,0,0,0-2.19.46l-.39.11s0,0,0,0l-.1-.31L13.44,1l0-.13Z"/><path class="cls-1" d="M17.31.08C18,0,18.68,0,19.37,0L20,0h.43s0,0,0,.05V.23c-.06.75-.11,1.49-.16,2.24a2.45,2.45,0,0,1,0,.27l-1,0h-.63l-.56,0-.42,0s0,0,0,0l0-.31c-.06-.74-.13-1.48-.2-2.22V.08Z"/><path class="cls-1" d="M21.28.13l.59.07c.31,0,.63.11.94.17s.62.13.93.21.39.1.58.15c-.18.61-.35,1.23-.53,1.84l-.21.75s-.08,0-.09,0L23,3.17l-1.2-.24L21,2.81c0-.07,0-.14,0-.21,0-.37.09-.74.13-1.1s.1-.92.16-1.37Z"/><path class="cls-3" d="M0,19.07H2.69s0,0,0,0a2.53,2.53,0,0,1,0,.28c0,.37,0,.73.06,1.1a15.73,15.73,0,0,0,1,4.38,16.31,16.31,0,0,0,2.39,4.25,17.42,17.42,0,0,0,1.63,1.8c.3.28.61.56.93.82s.67.52,1,.76a16,16,0,0,0,4.06,2.06,16.61,16.61,0,0,0,9.59.31,16.72,16.72,0,0,0,4.21-1.82,16.33,16.33,0,0,0,7.74-15.91A16,16,0,0,0,34,12.45a16.65,16.65,0,0,0-2.59-4.09,16.41,16.41,0,0,0-3.6-3.1A15.92,15.92,0,0,0,24.4,3.59c.2-.6.41-1.2.62-1.8.08-.25.17-.5.25-.74,0,0,.14,0,.17,0l.47.17L27,1.72a19,19,0,0,1,4.12,2.56,19.25,19.25,0,0,1,5.63,7.61A19.44,19.44,0,0,1,38,16.68a19,19,0,0,1-3.67,13.84,20.56,20.56,0,0,1-1.49,1.75c-.27.28-.55.55-.83.81s-.55.51-.84.74l-.15.11h0l-.07-.09-.31-.39c-.25-.31-.5-.61-.74-.92,0,0-.12-.16-.14-.15-.25.2-.51.39-.77.58a15.27,15.27,0,0,1-1.62,1,17.06,17.06,0,0,1-4.25,1.66c-.4.1-.81.18-1.23.25s-.81.13-1.22.16l-1.26.07h-.64l-.62,0a18.69,18.69,0,0,1-2-.23,15.56,15.56,0,0,1-2.42-.6,17.64,17.64,0,0,1-4.12-2,15.41,15.41,0,0,1-1.77-1.36l-.67-.61c-.05-.05-.61-.61-.61-.62-.46.44-.93.87-1.4,1.3l-.07.07S5,31.9,5,31.88c-.25-.28-.5-.56-.73-.86A21,21,0,0,1,3,29.29a18.47,18.47,0,0,1-2-4.23,19.16,19.16,0,0,1-.89-4.37c0-.35,0-.69-.06-1,0-.19,0-.39,0-.58Z"/><path class="cls-2" d="M3.5,19.07a16.72,16.72,0,0,0,.1,1.73A14.61,14.61,0,0,0,4,22.88a15.56,15.56,0,0,0,5,8,15.3,15.3,0,0,0,4,2.48c.37.16.75.3,1.13.44a12.21,12.21,0,0,0,1.18.34c.41.1.81.18,1.23.26l.75.1c.41,0,.82.08,1.24.09l.62,0,.64,0A10.88,10.88,0,0,0,21,34.51c.42,0,.83-.12,1.24-.2A15.36,15.36,0,0,0,26,33a17.56,17.56,0,0,0,2-1.19,17.28,17.28,0,0,0,1.87-1.55,15.9,15.9,0,0,0,2-2.29,13.48,13.48,0,0,0,1-1.67c.22-.42.44-.86.62-1.3s.33-.87.47-1.31.23-.83.33-1.25a13.23,13.23,0,0,0,.31-2c0-.35,0-.69.05-1s0-.62,0-.93a13.35,13.35,0,0,0-.22-2.09,15.29,15.29,0,0,0-.54-2.22,16.05,16.05,0,0,0-1.21-2.75,15.81,15.81,0,0,0-2.2-3c-.36-.37-.73-.74-1.12-1.08a16.56,16.56,0,0,0-1.9-1.43A15.67,15.67,0,0,0,24,4.3a15.92,15.92,0,0,0-2.45-.6c-.42-.07-.85-.12-1.27-.15s-.85-.06-1.27,0-.83,0-1.25,0l-1.06.12-.3.06a6.18,6.18,0,0,0-.62.12l-.6.14c-.2,0-.4.11-.59.16A14.21,14.21,0,0,0,12.33,5a15.57,15.57,0,0,0-5.48,4.4,14.74,14.74,0,0,0-1.34,2,17.17,17.17,0,0,0-1,2.17,14.55,14.55,0,0,0-.67,2.34,14.78,14.78,0,0,0-.27,1.87c0,.37,0,.73,0,1.1v.16s0,0-.06,0H3.17c0-.58,0-1.16.1-1.74a15.69,15.69,0,0,1,2.24-6.56,15.89,15.89,0,0,1,7-6.18,17.88,17.88,0,0,1,2.32-.84c.4-.11.81-.21,1.22-.29l.73-.12c.42,0,.84-.1,1.26-.13s.85,0,1.27,0a17.89,17.89,0,0,1,2.53.23,15.81,15.81,0,0,1,7.7,3.69,14.94,14.94,0,0,1,2.4,2.63,15.79,15.79,0,0,1,1.55,2.63c.24.53.46,1.06.65,1.61.12.35.22.7.31,1a11.44,11.44,0,0,1,.26,1.16c.07.37.12.74.17,1.11s.05.62.07.93,0,.41,0,.62,0,.24,0,.36c0,.36,0,.71,0,1.07s-.07.69-.11,1a15.54,15.54,0,0,1-.48,2.23,15.33,15.33,0,0,1-1.07,2.7,15,15,0,0,1-1.59,2.52,17,17,0,0,1-1.18,1.37A15.68,15.68,0,0,1,29,31.52,18.26,18.26,0,0,1,27,32.84c-.57.32-1.15.6-1.74.87l-.57.22c-.39.15-.79.29-1.19.4s-.81.22-1.23.3-.82.15-1.24.21a16.56,16.56,0,0,1-2.54.11,15,15,0,0,1-2-.19,16.91,16.91,0,0,1-2.43-.6,18.09,18.09,0,0,1-2.23-.93,15.88,15.88,0,0,1-3.79-2.71A16.25,16.25,0,0,1,5.12,26.7a15.74,15.74,0,0,1-1.64-4.54,12.33,12.33,0,0,1-.23-1.6c0-.5-.06-1-.08-1.49Z"/><path class="cls-3" d="M17,4.13,17.24,6l0,.2a8.05,8.05,0,0,0-1,.18,10.11,10.11,0,0,0-1.2.32c-.32.11-.64.22-1,.35,0,0,0,0-.05,0S14,7,14,6.9c-.13-.33-.27-.67-.41-1l0,0-.13.06L13,6.13c-.32.15-.64.32-1,.5a13.71,13.71,0,0,0-1.85,1.26A14.15,14.15,0,0,0,8.37,9.57c-.28.34-.57.67-.83,1s-.38.55-.56.83l1.14.72c-.18.28-.35.56-.5.85s-.36.71-.5,1.07-.28.72-.4,1.08c-.07.21-.12.41-.18.62-.11.4-.18.81-.25,1.21a10,10,0,0,0-.14,1.21c0,.18,0,.36,0,.55a1.69,1.69,0,0,0,0,.23s0,.09,0,.1H4c0-.3,0-.61,0-.91s0-.38,0-.58,0-.4.08-.6a13.86,13.86,0,0,1,.5-2.28,14.89,14.89,0,0,1,2.12-4.35c.29-.39.59-.78.91-1.15s.48-.54.73-.79S8.76,8,9,7.87l.47-.41c.16-.14.33-.26.5-.39a10.41,10.41,0,0,1,1-.72,16.23,16.23,0,0,1,2.1-1.12,14.5,14.5,0,0,1,2.13-.74A12.2,12.2,0,0,1,17,4.13Z"/><path class="cls-1" d="M6.92,26.68c-.2-.32-.4-.66-.58-1l1-.54.18-.1a13,13,0,0,0,6.94,6.16,8.07,8.07,0,0,0,.87.29s0-.06,0-.08a2.33,2.33,0,0,1,.07-.25c0-.19.11-.37.16-.56a.47.47,0,0,0,0-.09l.31.09a11.81,11.81,0,0,0,4.77.28c.41-.06.82-.13,1.22-.23s.76-.23,1.14-.35.75-.31,1.12-.47.7-.35,1-.56.45-.29.67-.45l.59.85a13.37,13.37,0,0,0,3.1-3.09c.2-.29.41-.59.58-.89a1.54,1.54,0,0,1,.14-.23l.15.08.52.3.12.07a2.88,2.88,0,0,0,.17-.31q.27-.53.51-1.05a10.45,10.45,0,0,0,.4-1.06,12.55,12.55,0,0,0,.56-2.33,13.9,13.9,0,0,0-.14-5A15.29,15.29,0,0,0,32,14c-.11-.29-.24-.57-.37-.86l0-.09s0-.08,0-.08l0,0-.2.1-.52.25s-.06.05-.08,0-.13-.26-.19-.38a13,13,0,0,0-1.15-1.79,13.22,13.22,0,0,0-3.3-3c-.13-.08-.26-.17-.4-.24l.71-1.19.41.25a14.66,14.66,0,0,1,1.74,1.31c.37.32.71.66,1,1a14.45,14.45,0,0,1,2,2.77,14,14,0,0,1,1.11,2.54,13,13,0,0,1,.51,2,13.73,13.73,0,0,1,.2,1.92c0,.29,0,.57,0,.86s0,.63,0,.94a12.32,12.32,0,0,1-.29,1.82,11.43,11.43,0,0,1-.3,1.15c-.12.41-.27.81-.43,1.21s-.37.81-.57,1.2a12.47,12.47,0,0,1-.93,1.53A14.08,14.08,0,0,1,29,29.39a15.63,15.63,0,0,1-1.72,1.42,14.91,14.91,0,0,1-1.84,1.1A14.46,14.46,0,0,1,22,33.1c-.38.08-.76.14-1.14.19a11.74,11.74,0,0,1-1.18.1h-.58a5.61,5.61,0,0,1-.58,0c-.38,0-.76,0-1.14-.08l-.69-.1L15.58,33c-.37-.09-.73-.2-1.08-.32s-.71-.25-1.05-.4a14.36,14.36,0,0,1-6.53-5.58Z"/><path class="cls-3" d="M5.68,26l.4-.21.15.29a14.76,14.76,0,0,0,6.19,6,16.07,16.07,0,0,0,2.05.85,14.36,14.36,0,0,0,2.24.55,11.36,11.36,0,0,0,1.84.18,15.35,15.35,0,0,0,2.35-.1c.38-.05.76-.11,1.14-.19s.75-.18,1.13-.28a10,10,0,0,0,1.09-.37l.53-.2c.54-.25,1.08-.5,1.6-.8a16.49,16.49,0,0,0,1.78-1.22,12.34,12.34,0,0,0,1.42-1.29c.38-.4.74-.82,1.08-1.25a14.5,14.5,0,0,0,1.47-2.33,13,13,0,0,0,1-2.49,14.1,14.1,0,0,0,.44-2.05c0-.31.08-.63.1-.95s0-.65.05-1c0-.11,0-.22,0-.33s0-.39,0-.58,0-.56-.07-.85-.1-.68-.16-1a9.7,9.7,0,0,0-.23-1.07c-.09-.33-.19-.65-.29-1-.18-.51-.38-1-.6-1.49a14,14,0,0,0-1.43-2.42A13.36,13.36,0,0,0,28.7,8.05a15.32,15.32,0,0,0-2.18-1.58l.13-.22s.09-.18.11-.17c.28.17.56.34.83.53s.63.46.94.71a8.57,8.57,0,0,1,.79.68,15.07,15.07,0,0,1,4.55,8.14,14.79,14.79,0,0,1,.18,4.74,17.3,17.3,0,0,1-.5,2.46,15.79,15.79,0,0,1-.9,2.31,15.23,15.23,0,0,1-6.41,6.7,15.15,15.15,0,0,1-8.95,1.7c-.41,0-.81-.11-1.21-.19s-.82-.19-1.22-.3-.8-.25-1.19-.4-.75-.31-1.13-.48l-1.11-.6c-.36-.21-.7-.43-1-.67A14.21,14.21,0,0,1,8.8,30.12a15.81,15.81,0,0,1-1.57-1.7A14.57,14.57,0,0,1,6,26.55C5.87,26.37,5.77,26.2,5.68,26Z"/><path class="cls-2" d="M3.21,20.13,4.81,20,7,19.88h.2s0,.08,0,.1l.06.57a12.2,12.2,0,0,0,.53,2.32,8.79,8.79,0,0,0,.34.9l-1.47.63-2,.88-.18.08s-.06-.1-.07-.13l-.18-.45C4.09,24.4,4,24,3.84,23.64c0-.2-.11-.4-.17-.6s-.09-.41-.14-.61a16.31,16.31,0,0,1-.32-2.3ZM5.35,21.2a1.41,1.41,0,0,0-.85.46,1.11,1.11,0,0,0-.23,1.07,1.14,1.14,0,0,0,.78.73,1.54,1.54,0,0,0,1.15-.18c.48-.28.93-.89.65-1.45a1.45,1.45,0,0,0-1.5-.63c-.37.06.38-.05,0,0Z"/><path class="cls-2" d="M18.58,18.06a.48.48,0,1,1,.48.47.47.47,0,0,1-.48-.47Z"/><path class="cls-2" d="M18.62,8.75a.45.45,0,0,1,.9,0,.45.45,0,1,1-.9,0Z"/><path class="cls-2" d="M25.33,11.16a.45.45,0,1,1,0,.64.45.45,0,0,1,0-.64Z"/><path class="cls-2" d="M28.37,17.61a.45.45,0,1,1,0,.9.45.45,0,1,1,0-.9Z"/><path class="cls-2" d="M19.52,27.37a.45.45,0,0,1-.9,0,.45.45,0,1,1,.9,0Z"/><path class="cls-2" d="M12.81,25a.45.45,0,1,1,0-.64.47.47,0,0,1,0,.64Z"/><path class="cls-2" d="M9.76,18.51a.45.45,0,1,1,.45-.45.45.45,0,0,1-.45.45Z"/><path class="cls-2" d="M21.16,9a.45.45,0,0,1,.56-.31.47.47,0,0,1,.32.56.45.45,0,0,1-.56.31A.47.47,0,0,1,21.16,9Z"/><path class="cls-2" d="M27,13.12a.46.46,0,0,1,.62.18.45.45,0,0,1-.18.61.44.44,0,0,1-.61-.17.45.45,0,0,1,.17-.62Z"/><path class="cls-2" d="M17,27.14a.45.45,0,1,1-.31-.56.45.45,0,0,1,.31.56Z"/><path class="cls-2" d="M11.17,23a.46.46,0,0,1-.62-.18.45.45,0,0,1,.17-.61.45.45,0,0,1,.62.17.46.46,0,0,1-.17.62Z"/><path class="cls-2" d="M23.38,9.8A.44.44,0,0,1,24,9.64a.45.45,0,1,1-.46.78.45.45,0,0,1-.16-.62Z"/><path class="cls-2" d="M28,15.27a.44.44,0,0,1,.55.32.45.45,0,1,1-.55-.32Z"/><path class="cls-2" d="M14.76,26.32a.45.45,0,1,1-.16-.62.46.46,0,0,1,.16.62Z"/><path class="cls-2" d="M10.18,20.85a.45.45,0,1,1,.32-.55.44.44,0,0,1-.32.55Z"/><path class="cls-3" d="M27.9,19.55A7.94,7.94,0,0,1,20.5,27v.87a8.8,8.8,0,0,0,8.26-8.27Z"/><path class="cls-3" d="M10.22,16.59a7.92,7.92,0,0,1,7.4-7.39V8.33a8.8,8.8,0,0,0-8.27,8.26Z"/><rect class="cls-1" x="18.9" y="12.94" width="0.31" height="3.7"/><rect class="cls-1" x="18.9" y="19.45" width="0.31" height="3.7"/><rect class="cls-1" x="20.41" y="17.89" width="3.7" height="0.31"/><rect class="cls-1" x="13.96" y="17.89" width="3.7" height="0.31"/><rect class="cls-2" x="20.65" y="18.43" width="0.18" height="2.6" transform="translate(-7.87 20.44) rotate(-45)"/><rect class="cls-2" x="17.29" y="15.06" width="0.18" height="2.6" transform="translate(-6.48 17.08) rotate(-45)"/><rect class="cls-2" x="19.44" y="16.28" width="2.6" height="0.18" transform="translate(-5.5 19.46) rotate(-45)"/><rect class="cls-2" x="16.08" y="19.64" width="2.6" height="0.18" transform="translate(-8.86 18.07) rotate(-45)"/><polygon class="cls-3" points="18.36 16 18.36 17.34 17.02 17.34 18.36 16"/><polygon class="cls-3" points="19.76 20.09 19.76 18.75 21.1 18.75 19.76 20.09"/><polygon class="cls-3" points="17.02 18.75 18.36 18.75 18.36 20.09 17.02 18.75"/><polygon class="cls-3" points="21.1 17.34 19.76 17.34 19.76 16 21.1 17.34"/></g></g></svg>