<svg xmlns="http://www.w3.org/2000/svg" xmlns:xlink="http://www.w3.org/1999/xlink" viewBox="0 0 237.99 130.96"><defs><style>.cls-1{isolation:isolate;}.cls-2{fill:#999;}.cls-3{fill:url(#linear-gradient);}.cls-4{fill:url(#linear-gradient-2);}.cls-5{fill:url(#linear-gradient-3);}.cls-6{fill:url(#linear-gradient-4);}.cls-7{fill:url(#linear-gradient-5);}.cls-8{fill:url(#linear-gradient-6);}.cls-9{fill:url(#linear-gradient-7);}.cls-10{fill:url(#linear-gradient-8);}.cls-11{fill:url(#linear-gradient-9);}.cls-12{fill:url(#linear-gradient-10);}.cls-13{fill:url(#White_Black);}.cls-14{fill:#ed1c24;}.cls-15{fill:url(#linear-gradient-11);}.cls-16,.cls-20,.cls-36,.cls-37,.cls-38,.cls-39{mix-blend-mode:screen;}.cls-17{fill:url(#linear-gradient-12);}.cls-18{fill:url(#linear-gradient-13);}.cls-19{fill:url(#linear-gradient-14);}.cls-20{fill:url(#linear-gradient-15);}.cls-21{fill:#00e8cd;}.cls-22{fill:url(#linear-gradient-16);}.cls-23{fill:url(#linear-gradient-17);}.cls-24{fill:url(#linear-gradient-18);}.cls-25{fill:url(#linear-gradient-19);}.cls-26{fill:url(#linear-gradient-20);}.cls-27{fill:url(#linear-gradient-21);}.cls-28{fill:#fff;}.cls-29{fill:url(#linear-gradient-22);}.cls-30{fill:#f15a24;}.cls-31{fill:#f7931e;}.cls-32{fill:#f2f2f2;}.cls-33{fill:#ccc;}.cls-34{fill:#c1272d;}.cls-35{fill:#e6e6e6;}.cls-36{fill:url(#linear-gradient-23);}.cls-37{fill:url(#linear-gradient-24);}.cls-38{fill:url(#linear-gradient-25);}.cls-39{fill:url(#linear-gradient-26);}</style><linearGradient id="linear-gradient" x1="118.99" y1="118.71" x2="118.99" y2="71.6" gradientUnits="userSpaceOnUse"><stop offset="0" stop-color="#00e8cd"/><stop offset="1"/></linearGradient><linearGradient id="linear-gradient-2" x1="142.11" y1="120.75" x2="142.11" y2="72.25" xlink:href="#linear-gradient"/><linearGradient id="linear-gradient-3" x1="117.8" y1="120.75" x2="117.8" y2="72.25" xlink:href="#linear-gradient"/><linearGradient id="linear-gradient-4" x1="94.2" y1="120.75" x2="94.2" y2="72.25" xlink:href="#linear-gradient"/><linearGradient id="linear-gradient-5" x1="76.65" y1="120.75" x2="76.65" y2="72.25" xlink:href="#linear-gradient"/><linearGradient id="linear-gradient-6" x1="54.5" y1="120.75" x2="54.5" y2="72.25" xlink:href="#linear-gradient"/><linearGradient id="linear-gradient-7" x1="44.26" y1="120.75" x2="44.26" y2="72.25" xlink:href="#linear-gradient"/><linearGradient id="linear-gradient-8" x1="198.47" y1="120.75" x2="198.47" y2="72.25" xlink:href="#linear-gradient"/><linearGradient id="linear-gradient-9" x1="115.7" y1="120.75" x2="115.7" y2="72.25" xlink:href="#linear-gradient"/><linearGradient id="linear-gradient-10" x1="171.76" y1="120.75" x2="171.76" y2="72.25" xlink:href="#linear-gradient"/><linearGradient id="White_Black" x1="118.99" y1="92.3" x2="118.99" y2="76.9" gradientUnits="userSpaceOnUse"><stop offset="0" stop-color="#fff"/><stop offset="1"/></linearGradient><linearGradient id="linear-gradient-11" x1="118.99" y1="129.69" x2="118.99" y2="71.77" xlink:href="#linear-gradient"/><linearGradient id="linear-gradient-12" x1="1642.08" y1="901.42" x2="1647.54" y2="901.42" gradientTransform="matrix(-0.79, -0.44, 0.48, -0.88, 1056.34, 1626.37)" gradientUnits="userSpaceOnUse"><stop offset="0"/><stop offset="0.31" stop-color="#0f414a"/><stop offset="1" stop-color="#31d9f7"/></linearGradient><linearGradient id="linear-gradient-13" x1="1594.54" y1="901.99" x2="1603.31" y2="901.99" gradientTransform="matrix(-0.88, -0.48, 0.48, -0.88, 1155.86, 1679.28)" gradientUnits="userSpaceOnUse"><stop offset="0"/><stop offset="0.31" stop-color="#0e4a47"/><stop offset="1" stop-color="#30f7ed"/></linearGradient><linearGradient id="linear-gradient-14" x1="1594.83" y1="901.96" x2="1604.53" y2="901.96" xlink:href="#linear-gradient-13"/><linearGradient id="linear-gradient-15" x1="70.5" y1="102.96" x2="70.5" y2="74.03" gradientTransform="matrix(1, 0.02, 0, 1, -0.39, 4.72)" xlink:href="#linear-gradient"/><linearGradient id="linear-gradient-16" x1="155.08" y1="94.39" x2="155.08" y2="77.27" xlink:href="#linear-gradient"/><linearGradient id="linear-gradient-17" x1="82.91" y1="94.39" x2="82.91" y2="77.27" xlink:href="#linear-gradient"/><linearGradient id="linear-gradient-18" x1="160.11" y1="96.16" x2="160.11" y2="76.42" xlink:href="#linear-gradient"/><linearGradient id="linear-gradient-19" x1="77.88" y1="96.16" x2="77.88" y2="76.42" xlink:href="#linear-gradient"/><linearGradient id="linear-gradient-20" x1="159.16" y1="95.81" x2="159.16" y2="76.58" xlink:href="#linear-gradient"/><linearGradient id="linear-gradient-21" x1="78.83" y1="95.81" x2="78.83" y2="76.58" xlink:href="#linear-gradient"/><linearGradient id="linear-gradient-22" x1="40.26" y1="104.72" x2="104.47" y2="104.72" xlink:href="#linear-gradient"/><linearGradient id="linear-gradient-23" x1="165.41" y1="139.5" x2="165.41" y2="30.01" gradientTransform="translate(253.95 -89.33) rotate(90.01)" gradientUnits="userSpaceOnUse"><stop offset="0"/><stop offset="0.46" stop-color="#00e8cd"/><stop offset="1"/></linearGradient><linearGradient id="linear-gradient-24" x1="76.09" y1="115.57" x2="76.09" y2="6.08" gradientTransform="matrix(0, 0.7, -1, 0, 228.08, 1.48)" gradientUnits="userSpaceOnUse"><stop offset="0"/><stop offset="0.55" stop-color="#009281"/><stop offset="1"/></linearGradient><linearGradient id="linear-gradient-25" x1="79.26" y1="113.54" x2="79.26" y2="4.05" gradientTransform="translate(-3.32 -4.05) rotate(-0.01)" gradientUnits="userSpaceOnUse"><stop offset="0"/><stop offset="0.51" stop-color="#006e61"/><stop offset="1"/></linearGradient><linearGradient id="linear-gradient-26" x1="-102.18" y1="157.18" x2="-102.18" y2="47.7" gradientTransform="matrix(1.36, 0, 0, 1, 148.33, -26.08)" gradientUnits="userSpaceOnUse"><stop offset="0"/><stop offset="0.38" stop-color="#00d4bb"/><stop offset="1"/></linearGradient></defs><title>资源 1</title><g class="cls-1"><g id="图层_2" data-name="图层 2"><g id="Layer_2" data-name="Layer 2"><path class="cls-2" d="M104.28,83.43a1.61,1.61,0,0,1,.24-.47l-.61,0a1.75,1.75,0,0,0-.25.49,1.19,1.19,0,0,0,0,.83l.63,0A1.19,1.19,0,0,1,104.28,83.43Z"/><path class="cls-2" d="M129.4,80.86l.42-.1a29.86,29.86,0,0,0-3.57-.73l-.28.12A29.42,29.42,0,0,1,129.4,80.86Z"/><path class="cls-2" d="M105.55,85.46l-.59.09a18.5,18.5,0,0,0,6.32,2l.34-.18A17.8,17.8,0,0,1,105.55,85.46Z"/><path class="cls-2" d="M134.34,83.48s0,0,0,0c-.26-.84-1.38-1.6-3.05-2.21l-.48.08c1.61.6,2.67,1.32,2.91,2.13,0,0,0,0,0,0Z"/><path class="cls-2" d="M107.76,80.87l.43.1A33.56,33.56,0,0,1,115,79.82l-.15-.14A36,36,0,0,0,107.76,80.87Z"/><path class="cls-2" d="M116.81,79.56l.09.15c.68,0,1.38,0,2.09,0s1.42,0,2.1,0l.08-.15c-.71,0-1.44,0-2.18,0S117.53,79.54,116.81,79.56Z"/><path class="cls-2" d="M164.27,84.53l-.12-.14C162,82,157.68,80,152.28,78.4l-.14,0c5.37,1.56,9.64,3.58,11.8,6l.12.14Z"/><path class="cls-2" d="M147.72,77.3l.12,0c-3.08-.69-6.45-1.27-10-1.72l-.07,0C141.3,76,144.65,76.61,147.72,77.3Z"/><path class="cls-2" d="M74.14,91.17l-.24,0c2.76,2.93,9,5.59,18.06,7.43l.17-.09C83.11,96.72,76.9,94.09,74.14,91.17Z"/><path class="cls-2" d="M74.05,84.39A11.45,11.45,0,0,1,75.62,83h-.2a12.43,12.43,0,0,0-1.59,1.41,5.68,5.68,0,0,0-1.42,2.52h.24A5.55,5.55,0,0,1,74.05,84.39Z"/><path class="cls-2" d="M113.42,74.51l0,0c1.82-.06,3.67-.1,5.55-.1s3.74,0,5.55.1l0,0c-1.83-.06-3.69-.1-5.58-.1S115.24,74.45,113.42,74.51Z"/><path class="cls-2" d="M88.94,77.55l.12,0a117.5,117.5,0,0,1,19.41-2.78l0,0A118.35,118.35,0,0,0,88.94,77.55Z"/><path class="cls-3" d="M119,71.6c-28.23,0-58.61,5.18-71.54,14.14-20.26,14,5.74,33,71.54,33s91.81-18.94,71.55-33C177.6,76.78,147.23,71.6,119,71.6Zm0,46.81c-65.21,0-91.16-18.74-71.15-32.67,12.8-8.92,43-14.09,71.15-14.09s58.35,5.17,71.16,14.09C210.16,99.67,184.21,118.41,119,118.41Z"/><path class="cls-4" d="M145.92,119.27q-3.81.36-7.88.61l.14.3c2.75-.17,5.42-.37,8-.62Z"/><path class="cls-5" d="M119,120.44q-10.51,0-19.71-.6l-.15.3q9.25.6,19.86.61,9.26,0,17.49-.47l-.14-.3Q128.18,120.43,119,120.44Z"/><path class="cls-6" d="M90.8,119.47c2.15.21,4.36.39,6.64.56l.15-.31c-2.24-.15-4.41-.34-6.53-.54Z"/><path class="cls-7" d="M64.22,114.91a162.11,162.11,0,0,0,24.59,4.35,3.58,3.58,0,0,0,.26-.29,162.83,162.83,0,0,1-24.37-4.29Z"/><path class="cls-8" d="M46.62,107.86a62.49,62.49,0,0,0,15.27,6.4l.48-.23a62.83,62.83,0,0,1-15.17-6.32Z"/><path class="cls-9" d="M43.12,105.32c.53.45,1.1.9,1.71,1.34l.57-.14c-.63-.45-1.21-.9-1.74-1.36Z"/><path class="cls-10" d="M197.37,91.75a8.34,8.34,0,0,1,.72,8.86l.57.06a8.45,8.45,0,0,0-.85-8.94Z"/><path class="cls-11" d="M192.58,87.05H193l-.34-.24C179.33,77.59,148.06,72.25,119,72.25S58.65,77.59,45.34,86.81c-7.89,5.46-9,11.65-3.58,17.23l.54-.15C36.93,98.36,38,92.23,45.74,86.81,58.92,77.63,90,72.3,119,72.3s60.07,5.33,73.26,14.51Z"/><path class="cls-12" d="M187.43,109.56c-7.31,3.63-18,6.67-31.94,8.61l.34.28c14.08-2,24.85-5,32.19-8.73Z"/><path class="cls-13" d="M119,76.9c-13,0-25.07,2.7-27.17,6.53C89.33,88,101.3,92.3,119,92.3s29.66-4.34,27.18-8.87C144.07,79.6,132,76.9,119,76.9Zm0,15.28c-17.45,0-29.28-4.27-26.86-8.75C94.19,79.64,106.09,77,119,77s24.81,2.67,26.86,6.46C148.28,87.91,136.45,92.18,119,92.18Z"/><polygon class="cls-14" points="87.41 82.98 86 84.47 85.51 86.05 87.59 85.3 88.55 83.66 87.41 82.98"/><polygon class="cls-14" points="152.46 85.86 151.87 84.29 150.35 82.81 149.27 83.49 150.34 85.12 152.46 85.86"/><path class="cls-14" d="M119,76.69c-15.38,0-29.94,3.13-33,7.7C82.27,90,96.66,95.58,119,95.58S155.72,90,152,84.39C148.93,79.82,134.38,76.69,119,76.69Zm0,18.73c-22,0-36.25-5.49-32.6-11,3-4.52,17.37-7.63,32.6-7.63s29.63,3.11,32.61,7.63C155.25,89.93,141,95.42,119,95.42Z"/><path class="cls-15" d="M232.18,96.12C215.89,81.1,166.92,71.77,119,71.77S22.1,81.1,5.8,96.12c-12.71,11.72-4.08,24.52,21.53,33.57h.94c-25.9-9-34.74-21.83-22-33.57,16.18-15,65-24.28,112.76-24.28s96.59,9.31,112.77,24.28c12.69,11.74,3.86,24.56-22,33.57h.94C236.27,120.64,244.9,107.84,232.18,96.12Z"/><g class="cls-16"><path class="cls-17" d="M194.35,117.23c.85.84.88,2.5.09,4a4.27,4.27,0,0,1-2,1.88l-.26.1a2.28,2.28,0,0,1-1.15.07,1.92,1.92,0,0,1-1.35-1.25,3.87,3.87,0,0,1,.42-3.17,4.18,4.18,0,0,1,1.93-1.89l.25-.09A1.94,1.94,0,0,1,194.35,117.23ZM192.46,123a4.17,4.17,0,0,0,1.89-1.81c.76-1.38.72-3-.07-3.8a1.87,1.87,0,0,0-1.93-.39l-.24.09a4.11,4.11,0,0,0-1.87,1.83,3.74,3.74,0,0,0-.4,3,1.78,1.78,0,0,0,1.27,1.19,2.09,2.09,0,0,0,1.1-.07Z"/></g><g class="cls-16"><path class="cls-18" d="M192.61,114.27c1.54,1.44,1.72,4.18.44,6.51a6.42,6.42,0,0,1-3.29,2.94l-.44.14a4,4,0,0,1-2,0,3.62,3.62,0,0,1-2.45-2.15,5.9,5.9,0,0,1,.5-5.18,6.29,6.29,0,0,1,3.23-3l.43-.14A3.75,3.75,0,0,1,192.61,114.27Zm-2.89,9.26a6.16,6.16,0,0,0,3.18-2.84c1.21-2.21,1-4.9-.42-6.26a3.53,3.53,0,0,0-3.39-.76,2.8,2.8,0,0,0-.41.13,6.09,6.09,0,0,0-3.12,2.86,5.72,5.72,0,0,0-.49,5,3.48,3.48,0,0,0,2.32,2,3.87,3.87,0,0,0,1.91,0A3.45,3.45,0,0,0,189.72,123.53Z"/></g><g class="cls-16"><path class="cls-19" d="M192.29,113.47c1.7,1.6,1.91,4.62.49,7.2a7.11,7.11,0,0,1-3.64,3.25l-.48.16a4.4,4.4,0,0,1-2.22,0,4,4,0,0,1-2.71-2.38,6.54,6.54,0,0,1,.55-5.73,7,7,0,0,1,3.58-3.28,4.42,4.42,0,0,1,.48-.15A4.08,4.08,0,0,1,192.29,113.47Zm-3.19,10.25a6.9,6.9,0,0,0,3.51-3.15c1.34-2.44,1.15-5.42-.46-6.92a3.92,3.92,0,0,0-3.75-.85,4.11,4.11,0,0,0-.46.15,6.73,6.73,0,0,0-3.45,3.16,6.33,6.33,0,0,0-.53,5.53,3.82,3.82,0,0,0,2.56,2.26,4.2,4.2,0,0,0,2.11,0Z"/></g><path class="cls-20" d="M90.6,105.6l-2.91-3.92C67.57,99.45,55.18,95.05,51.14,90.3A14.57,14.57,0,0,1,55,87.4a33.17,33.17,0,0,1,4.81-2.13v-.11a34.52,34.52,0,0,0-5.12,2.24A15.11,15.11,0,0,0,51,90.1c-2.57-3.21-1.31-6.58,4-9.52a34.33,34.33,0,0,1,4.81-2.12v-.12a34.52,34.52,0,0,0-5.12,2.24c-3.52,2-5.29,4.08-5.36,6.23h0v7h0c0,6,13,12.08,37.89,14.88ZM49.69,88.77a7,7,0,0,0,1,1.61,6.83,6.83,0,0,0-1,1.57Zm1.21,1.82c4.22,4.71,16.63,9.06,36.66,11.28l2.8,3.72-3.27,2.84C58.21,105.15,45.52,97.35,50.9,90.59Z"/></g><g id="Layer_3" data-name="Layer 3"><path class="cls-21" d="M112.56,78.87l-.38,0,.64.42.34,0Z"/><path class="cls-21" d="M112,78.93l-.37,0,.69.42.34,0Z"/><path class="cls-21" d="M111.41,79,111,79l.74.41.34,0Z"/><path class="cls-21" d="M107.61,79.58l-.34.07,1.11.36.3-.06Z"/><path class="cls-21" d="M108.12,79.48l-.34.07,1.06.36.31,0Z"/><path class="cls-21" d="M112.77,78.52l-.41,0,1,.73.35,0Z"/><path class="cls-21" d="M109.73,79.22l-.36,0,.9.39.33,0Z"/><path class="cls-21" d="M108.54,79l-.37.06,1.62.65.32,0Z"/><path class="cls-21" d="M117.92,78.26h-.43l.22.76h.37Z"/><path class="cls-21" d="M117.27,78.27l-.43,0,.32.75h.36Z"/><path class="cls-21" d="M116.76,78.6l-.4,0,.24.44H117Z"/><path class="cls-21" d="M118.6,78.57h-.41l.08.45h.36Z"/><path class="cls-21" d="M119.19,79l0-.45h-.4l0,.45h.36Z"/><path class="cls-21" d="M115.54,78.65l-.39,0,.35.44h.37Z"/><path class="cls-21" d="M114.34,78.72l-.39,0,.47.44.35,0Z"/><path class="cls-21" d="M114.94,78.68l-.4,0,.42.44.36,0Z"/><path class="cls-21" d="M106.32,79.44l-.35.08,2,.59.3-.07Z"/><path class="cls-21" d="M101.15,81.76l-.17.11,1.77.16.15-.1Z"/><path class="cls-21" d="M100.89,81.93l-.16.11,1.8.14.14-.1Z"/><path class="cls-21" d="M101.44,81.6a1.18,1.18,0,0,0-.19.11l1.74.17.16-.1Z"/><path class="cls-21" d="M105.79,79.56l-.34.07,2,.58.28-.07Z"/><path class="cls-21" d="M100,82.63l-.11.12,1.91.07.09-.11Z"/><path class="cls-21" d="M102.06,81.28l-.22.1,1.67.2.19-.09Z"/><path class="cls-21" d="M104.32,80.41l-.27.09,1.43.28.25-.08Z"/><path class="cls-21" d="M105.2,80.15l-.3.08,1.35.31.26-.08Z"/><path class="cls-21" d="M103.8,80.07l-.3.09,2.36.5.25-.08Z"/><path class="cls-21" d="M106.13,79.91l-.31.08,1.25.32.28-.07Z"/><path class="cls-21" d="M105.66,80l-.31.08,1.3.31.27-.07Z"/><path class="cls-21" d="M103.91,80.54l-.27.09,1.48.27.23-.08Z"/><path class="cls-21" d="M103.5,80.68l-.25.1,1.51.25L105,81Z"/><path class="cls-21" d="M138,81.59l-.21-.12-2.95.31.16.1Z"/><path class="cls-21" d="M136.63,80.91l-.25-.1-2.7.4.21.09Z"/><path class="cls-21" d="M135.85,81.23l-.22-.11-1.64.23.2.09Z"/><path class="cls-21" d="M134.38,80.63l-.27-.09-1.46.28.23.09Z"/><path class="cls-21" d="M101.5,83.38H98.15l0,.06a.19.19,0,0,1,0,.07h3.37s0,0,0-.06S101.5,83.4,101.5,83.38Z"/><path class="cls-21" d="M138.23,82.93l-.09-.12-1.95.07a.44.44,0,0,1,.08.11Z"/><path class="cls-21" d="M136.52,83.49h2s0,0,0-.06l0-.06h-2l0,.05S136.52,83.47,136.52,83.49Z"/><path class="cls-21" d="M137.92,82.57l-.12-.12-1.9.1.11.11Z"/><path class="cls-21" d="M137,81.87l-.17-.11-1.78.17.15.1Z"/><path class="cls-21" d="M122.27,78.64l-.4,0-.27.45.36,0Z"/><path class="cls-21" d="M124.66,78.8l-.39,0-.49.43.36,0Z"/><path class="cls-21" d="M123.47,78.71l-.39,0-.38.45.36,0Z"/><path class="cls-21" d="M132.2,80l-.31-.08-1.23.34.28.07Z"/><path class="cls-21" d="M121.05,78.6h-.4l-.16.45h.37Z"/><path class="cls-21" d="M120.44,78.58H120l-.09.46h.36Z"/><path class="cls-21" d="M124.4,78.45l-.42,0-.74.74.36,0Z"/><path class="cls-21" d="M130.23,79.55l-.34-.07-1,.38.31.06Z"/><path class="cls-21" d="M127,79l-.37-.05-.72.42.34,0Z"/><path class="cls-21" d="M131.73,79.87l-.32-.07-1.19.34.29.07Z"/><path class="cls-21" d="M129.85,79.09l-.37-.06-1.58.66.32.06Z"/><path class="cls-21" d="M138.09,82.75l-.11-.12-1.92.08.09.11Z"/><path class="cls-21" d="M130.2,88.51l.4-.08-1.3-.55L129,88Z"/><path class="cls-21" d="M129.57,88.63l.41-.08L128.76,88l-.37.07Z"/><path class="cls-21" d="M129,89.27l.47-.07-1.86-1-.39,0Z"/><path class="cls-21" d="M127.6,88.94l.44-.07-1-.61-.4.06Z"/><path class="cls-21" d="M118.79,88.8l0,.69h.5l0-.69h-.44Z"/><path class="cls-21" d="M132.51,88l.35-.1-1.53-.49-.32.08Z"/><path class="cls-21" d="M131.39,88.26l.38-.09-1.42-.52-.34.07Z"/><path class="cls-21" d="M126.91,89l.45-.06-.93-.62-.41.05Z"/><path class="cls-21" d="M122,89.92l.54,0-.64-1.16-.44,0Z"/><path class="cls-21" d="M122.56,89.4l.49,0-.46-.67-.43,0Z"/><path class="cls-21" d="M121.05,89.46l.5,0-.29-.68-.44,0Z"/><path class="cls-21" d="M120.39,90l.54,0-.34-1.17h-.45Z"/><path class="cls-21" d="M119.52,89.48H120l-.12-.68h-.44Z"/><path class="cls-21" d="M125.5,89.18l.47-.05-.78-.64-.42,0Z"/><path class="cls-21" d="M126.79,89.56l.5,0-1.48-1.09-.41,0Z"/><path class="cls-21" d="M124.78,89.25l.47,0-.7-.65-.42,0Z"/><path class="cls-21" d="M124.05,89.3l.48,0-.62-.66-.43,0Z"/><path class="cls-21" d="M138.41,84.84l.07-.13-2-.13-.06.11Z"/><path class="cls-21" d="M139.58,85.35a1.13,1.13,0,0,0,.1-.13l-3.46-.3-.09.11Z"/><path class="cls-21" d="M138,85.41l.11-.12-2-.2-.1.11Z"/><path class="cls-21" d="M138.5,84.64a.61.61,0,0,0,.05-.12l-2.05-.12s0,.08,0,.12Z"/><path class="cls-21" d="M138.59,83.68a.56.56,0,0,0,0-.12h-2l0,.11Z"/><path class="cls-21" d="M140,83.91a.68.68,0,0,1,0-.14l-3.44,0s0,.07,0,.11Z"/><path class="cls-21" d="M138.57,84.45l0-.13-2-.09,0,.11Z"/><path class="cls-21" d="M140,84.32a.66.66,0,0,0,0-.14l-3.47-.12s0,.07,0,.11Z"/><path class="cls-21" d="M135.74,86.88l.25-.12-1.85-.36-.22.1Z"/><path class="cls-21" d="M134,87.54l.31-.11L132.65,87l-.27.1Z"/><path class="cls-21" d="M135.7,87.69l.31-.12-2.95-.72-.27.1Z"/><path class="cls-21" d="M136.11,86.7l.23-.11-1.88-.35-.21.11Z"/><path class="cls-21" d="M136.45,86.53l.22-.12-1.91-.32-.2.1Z"/><path class="cls-21" d="M101.36,86.41l.21.12,1.86-.33-.19-.11Z"/><path class="cls-21" d="M101.05,86.23l.2.12,1.89-.32-.18-.1Z"/><path class="cls-21" d="M99.63,83.18l-.06.13h2a.37.37,0,0,1,0-.11Z"/><path class="cls-21" d="M100.52,85.85l.17.13,1.93-.27-.15-.11Z"/><path class="cls-21" d="M100.1,85.48l.13.12,2-.23-.12-.11Z"/><path class="cls-21" d="M103.24,87.27l.29.11,1.68-.43-.26-.09Z"/><path class="cls-21" d="M101.56,87.39l.3.12,3-.7-.25-.1Z"/><path class="cls-21" d="M102.41,86.94l.26.11,1.77-.39-.24-.1Z"/><path class="cls-21" d="M101.68,86.59l.23.11,1.83-.35-.2-.1Z"/><path class="cls-21" d="M99.4,84.13a.57.57,0,0,0,0,.13l2-.09s0-.07,0-.11Z"/><path class="cls-21" d="M102.49,87.75l.33.11,2.81-.77-.28-.09Z"/><path class="cls-21" d="M99.47,83.56a.56.56,0,0,0,0,.12l2,0,0-.11Z"/><path class="cls-21" d="M99.42,83.75s0,.08,0,.12l2,0s0-.08,0-.11Z"/><path class="cls-21" d="M98.5,85.42l.12.14,3.4-.36-.11-.11Z"/><path class="cls-21" d="M99.65,84.9l.07.13,2-.17a1,1,0,0,1-.08-.11Z"/><path class="cls-21" d="M113.5,89.27l.48,0,.56-.66-.42,0Z"/><path class="cls-21" d="M110.74,89.51l.49,0,1.39-1.09-.41,0Z"/><path class="cls-21" d="M114.23,89.32l.49,0,.48-.66-.43,0Z"/><path class="cls-21" d="M112.05,89.13l.47.05.73-.64-.42-.05Z"/><path class="cls-21" d="M114.65,89.85l.53,0,.69-1.15-.44,0Z"/><path class="cls-21" d="M116.27,89.93l.54,0,.4-1.17-.45,0Z"/><path class="cls-21" d="M110.66,89l.45.06.89-.63-.41-.05Z"/><path class="cls-21" d="M115.46,89.89l.53,0,.54-1.16-.44,0Z"/><path class="cls-21" d="M108.67,88.67l.43.07,1.1-.59-.38-.06Z"/><path class="cls-21" d="M106.26,88.17l.37.09,1.37-.53-.34-.08Z"/><path class="cls-21" d="M104.65,87.74l.34.1,1.53-.48-.3-.09Z"/><path class="cls-21" d="M118,89.48h.5l.06-.68h-.45Z"/><path class="cls-21" d="M109.32,88.77l.43.07,1-.6-.38-.06Z"/><path class="cls-21" d="M103,87.92l.34.11,2.72-.8-.29-.09Z"/><path class="cls-21" d="M107.43,88.43l.4.08,1.24-.56-.36-.07Z"/><path class="cls-21" d="M111.13,79.21l-.36.05.5.25.33,0Z"/><path class="cls-21" d="M110.59,79.29l-.35,0,.53.25.33,0Z"/><path class="cls-21" d="M109,79.53l-.33.06.63.24.31-.06Z"/><path class="cls-21" d="M113.93,78.93l-.38,0,.33.27.35,0Z"/><path class="cls-21" d="M119.8,78.74h-.39l0,.28h.37Z"/><path class="cls-21" d="M116.25,78.79l-.39,0,.19.28.37,0Z"/><path class="cls-21" d="M102.37,81.51l-.19.1,1.06.12.18-.1Z"/><path class="cls-21" d="M100.61,82.84l-.09.11,1.2,0,.07-.1Z"/><path class="cls-21" d="M101.12,82.32l-.13.11,1.16.07a1.14,1.14,0,0,1,.11-.11Z"/><path class="cls-21" d="M100.93,82.49l-.12.11,1.17.06.11-.11Z"/><path class="cls-21" d="M101.33,82.15l-.14.11,1.14.08.13-.11Z"/><path class="cls-21" d="M103.34,81.06l-.23.1,1,.14.21-.09Z"/><path class="cls-21" d="M103,81.21l-.22.1,1,.13.2-.09Z"/><path class="cls-21" d="M103.69,80.92l-.23.09,1,.15.22-.08Z"/><path class="cls-21" d="M132.18,80.23l-.29-.08-.81.2.27.08Z"/><path class="cls-21" d="M134.56,81l-.23-.09-1,.16.22.09Z"/><path class="cls-21" d="M135.55,81.46l-.21-.1-1.05.13.19.1Z"/><path class="cls-21" d="M135.84,81.61l-.19-.1-1.08.12.18.1Z"/><path class="cls-21" d="M132.61,80.35l-.28-.08-.84.2.26.07Z"/><path class="cls-21" d="M133,80.47l-.27-.08-.87.19.25.08Z"/><path class="cls-21" d="M133.44,80.6l-.27-.08-.9.18.25.08Z"/><path class="cls-21" d="M134.2,80.87l-.24-.09L133,81l.23.09Z"/><path class="cls-21" d="M137.62,83.13l-.07-.12-1.24,0,.07.11Z"/><path class="cls-21" d="M137.71,83.31a.34.34,0,0,0-.06-.12l-1.24,0,.05.11Z"/><path class="cls-21" d="M100.48,83a.83.83,0,0,0-.08.12l1.21,0,.07-.11Z"/><path class="cls-21" d="M137,82.43l-.13-.11-1.18.07.12.11Z"/><path class="cls-21" d="M136.61,82.1l-.15-.11-1.14.09.14.1Z"/><path class="cls-21" d="M136.83,82.26l-.14-.11-1.16.09.13.1Z"/><path class="cls-21" d="M126.15,79.12l-.36,0-.42.27.35,0Z"/><path class="cls-21" d="M125.6,79.06l-.37,0-.38.27.35,0Z"/><path class="cls-21" d="M125,79l-.38,0-.34.27.35,0Z"/><path class="cls-21" d="M121.57,78.78h-.39l-.13.28h.36Z"/><path class="cls-21" d="M122.74,78.84l-.39,0-.2.28.36,0Z"/><path class="cls-21" d="M130.33,79.79l-.32-.07-.69.23.3.06Z"/><path class="cls-21" d="M129.34,79.59l-.33-.06-.62.24.31.06Z"/><path class="cls-21" d="M130.81,79.89l-.32-.07-.71.23.29.06Z"/><path class="cls-21" d="M127.78,79.34l-.35,0-.52.25.33,0Z"/><path class="cls-21" d="M127.25,79.26l-.36-.05-.48.26.33,0Z"/><path class="cls-21" d="M128.31,79.42l-.35-.06-.55.25.33,0Z"/><path class="cls-21" d="M128.51,88.52l.41-.07-.72-.37-.38.06Z"/><path class="cls-21" d="M130.31,88.18l.37-.08-.84-.34-.35.08Z"/><path class="cls-21" d="M132.46,87.66l.32-.09-1-.3-.3.09Z"/><path class="cls-21" d="M131.42,87.93l.35-.08-.92-.32-.33.08Z"/><path class="cls-21" d="M123.12,89.1l.47,0-.34-.41-.43,0Z"/><path class="cls-21" d="M133,87.52l.3-.1-1-.29-.29.09Z"/><path class="cls-21" d="M137.54,85l.08-.13-1.29-.09-.07.11Z"/><path class="cls-21" d="M137.05,85.52l.13-.12-1.27-.14-.12.11Z"/><path class="cls-21" d="M137.87,84v-.12l-1.28,0V84Z"/><path class="cls-21" d="M134.68,86.9l.25-.11-1.13-.24-.24.1Z"/><path class="cls-21" d="M134.28,87.06l.27-.1-1.11-.26-.25.1Z"/><path class="cls-21" d="M136.6,85.88l.16-.12-1.24-.17-.15.11Z"/><path class="cls-21" d="M136.34,86.05l.18-.11-1.23-.18-.17.11Z"/><path class="cls-21" d="M136.84,85.7l.14-.12-1.25-.15-.14.11Z"/><path class="cls-21" d="M136.06,86.23l.19-.12L135,85.92a1.08,1.08,0,0,1-.18.11Z"/><path class="cls-21" d="M101.51,85.94l.17.11,1.19-.18a.91.91,0,0,1-.16-.11Z"/><path class="cls-21" d="M101,85.58l.14.12,1.22-.16a.69.69,0,0,1-.13-.11Z"/><path class="cls-21" d="M102.73,86.63l.23.11,1.12-.23-.22-.1Z"/><path class="cls-21" d="M100.18,84.29l0,.12,1.25-.06,0-.12Z"/><path class="cls-21" d="M100.15,83.92V84l1.25,0v-.11Z"/><path class="cls-21" d="M100.53,85l.09.12,1.24-.12-.09-.11Z"/><path class="cls-21" d="M100.23,84.47s0,.09,0,.13l1.25-.08,0-.12Z"/><path class="cls-21" d="M100.31,84.66l.06.12,1.25-.09-.06-.11Z"/><path class="cls-21" d="M107.34,88.1l.37.08.81-.34-.34-.07Z"/><path class="cls-21" d="M113,89l.45,0,.4-.41-.42,0Z"/><path class="cls-21" d="M117.31,89.21h.48l.09-.43h-.44Z"/><path class="cls-21" d="M106.25,87.85l.35.08.89-.32-.33-.08Z"/><path class="cls-21" d="M105.74,87.71l.33.09.92-.31-.31-.08Z"/><path class="cls-21" d="M110.36,88.65l.43,0,.59-.38-.39,0Z"/><path class="cls-21" d="M108.5,88.34l.4.07.72-.36-.36-.06Z"/><g class="cls-16"><path class="cls-14" d="M108.58,81.23l-.37-.08c-1.88.6-3.15,1.37-3.43,2.24h.51C105.55,82.55,106.77,81.81,108.58,81.23Z"/><path class="cls-14" d="M111.66,80.49l-.25-.1-1.28.25.3.1Z"/><path class="cls-14" d="M109.86,80.87l-.33-.09c-.39.1-.76.2-1.12.31l.37.08Q109.29,81,109.86,80.87Z"/><path class="cls-14" d="M110.2,80.79l-.31-.09-.12,0,.31.1Z"/><path class="cls-14" d="M105.27,83.48h-.52a1.35,1.35,0,0,0,.45,1.29l.51,0A1.28,1.28,0,0,1,105.27,83.48Z"/><path class="cls-14" d="M108.69,86.25l-.41.11.12,0,.4-.11Z"/><path class="cls-14" d="M105.8,84.81l-.51,0a6.43,6.43,0,0,0,2.12,1.2l.44-.1A6.12,6.12,0,0,1,105.8,84.81Z"/><path class="cls-14" d="M108.05,86l-.43.1.44.15.41-.11Z"/><path class="cls-14" d="M109,86.36l-.39.11a29.6,29.6,0,0,0,4.94.94l.21-.15A30,30,0,0,1,109,86.36Z"/><path class="cls-14" d="M131.5,82.13l.45,0c-.23-.13-.48-.26-.76-.39l-.42.06C131,81.87,131.28,82,131.5,82.13Z"/><path class="cls-14" d="M114.49,80.12l-.16-.12c-.93.09-1.82.21-2.66.35l.24.1C112.72,80.32,113.58,80.2,114.49,80.12Z"/><path class="cls-14" d="M130.61,81.68l.42-.07a20.71,20.71,0,0,0-4.43-1.22l-.26.11A19.53,19.53,0,0,1,130.61,81.68Z"/><path class="cls-14" d="M132.71,83.43a2.07,2.07,0,0,1,0,.22h.51a.66.66,0,0,0,0-.23,2.48,2.48,0,0,0-1.14-1.27l-.46,0A2.33,2.33,0,0,1,132.71,83.43Z"/><path class="cls-14" d="M126.09,80.45l.25-.1c-1.1-.18-2.29-.33-3.55-.42l-.12.11C123.88,80.14,125,80.28,126.09,80.45Z"/><path class="cls-14" d="M119,79.91c1.17,0,2.31,0,3.39.11l.12-.11c-1.12-.08-2.3-.13-3.51-.13h-.75l0,.12Z"/><path class="cls-14" d="M117.53,79.93l0-.12c-1,0-2,.08-2.86.17l.15.11C115.65,80,116.57,80,117.53,79.93Z"/><path class="cls-14" d="M118,79.92l0-.12h-.15l0,.12Z"/><path class="cls-14" d="M114.11,87.29l-.2.16c.72.08,1.47.14,2.24.18l.11-.16C115.52,87.43,114.8,87.37,114.11,87.29Z"/><path class="cls-14" d="M120.21,87.53l.05.16.72,0-.08-.16Z"/><path class="cls-14" d="M132.75,83.74a1.1,1.1,0,0,1,0,.18l.52,0a1.15,1.15,0,0,0,0-.19Z"/><path class="cls-14" d="M124.22,87.26l.21.15q.58-.06,1.14-.15l-.26-.14Z"/><path class="cls-14" d="M121.24,87.49l.09.17c1,0,1.89-.12,2.77-.21l-.2-.16C123.05,87.38,122.16,87.45,121.24,87.49Z"/><path class="cls-14" d="M117.11,87.51l-.08.16h.19l.07-.17Z"/><path class="cls-14" d="M132.4,84.59l.51,0a1.47,1.47,0,0,0,.32-.6l-.51,0A1.6,1.6,0,0,1,132.4,84.59Z"/><path class="cls-14" d="M119,87.54c-.46,0-.92,0-1.37,0l-.05.17,1.42,0h.92l0-.17Z"/><path class="cls-14" d="M125.61,87.07l.27.15a25.45,25.45,0,0,0,4.18-1l-.42-.11A23.91,23.91,0,0,1,125.61,87.07Z"/><path class="cls-14" d="M116.6,87.48l-.1.17h.18l.09-.17Z"/><path class="cls-14" d="M129.85,86.07l.42.1a6.43,6.43,0,0,0,2.56-1.45l-.51,0A6.32,6.32,0,0,1,129.85,86.07Z"/></g><path class="cls-14" d="M92.15,91.7,69.1,98.06l.35.18,23.07-6.4Z"/><path class="cls-14" d="M145.46,91.84l23.07,6.4.36-.18-23-6.36Z"/><path class="cls-14" d="M139.73,78.75l11.42-3.17-.38-.07-11.43,3.16Z"/><path class="cls-14" d="M98.64,78.67,87.21,75.51l-.37.07,11.42,3.17Z"/><path class="cls-14" d="M109.1,86.08l4.25-1.18.11,0,.21.06-4.25,1.18Z"/><path class="cls-14" d="M124.32,85l.12,0,.08,0,.12,0,4.25,1.18-.32.1Z"/><path class="cls-14" d="M124.12,82,124,82l3.62-1,.32.08-3.62,1Z"/><path class="cls-14" d="M110.05,81l.32-.08L114,82l-.21.05-.12,0Z"/><path class="cls-14" d="M160.26,84.39c2.68,3.22.64,6.53-5.53,9.27l.49.14c6.23-2.79,8.27-6.15,5.53-9.41-2.43-2.88-8.25-5.22-15.5-6.81l-.25.07C152.16,79.23,157.89,81.55,160.26,84.39Z"/><path class="cls-2" d="M77.72,84.39c2.37-2.84,8.11-5.16,15.27-6.74l-.26-.07c-7.25,1.59-13.06,3.93-15.49,6.81-2.75,3.26-.71,6.62,5.53,9.41l.48-.14C77.09,90.92,75,87.61,77.72,84.39Z"/><path class="cls-22" d="M162,84.39c2.92,3.37.89,6.85-5.51,9.75l.91.25c6.52-3,8.53-6.55,5.48-10-2.68-3-8.87-5.46-16.52-7.12l-.46.13C153.37,79,159.41,81.43,162,84.39Z"/><path class="cls-23" d="M76,84.39c2.57-3,8.61-5.36,16.09-7l-.45-.13c-7.65,1.66-13.85,4.1-16.52,7.12-3.06,3.45-1.05,7,5.47,10l.92-.25C75.1,91.24,73.08,87.76,76,84.39Z"/><path class="cls-24" d="M168.52,84.39c3.94,4,2.1,8.11-5.14,11.64l.46.13c7.29-3.57,9.11-7.79,5.1-11.77-3.46-3.43-10.77-6.15-19.54-8l-.21,0C157.88,78.28,165.12,81,168.52,84.39Z"/><path class="cls-25" d="M69.47,84.39c3.4-3.4,10.63-6.11,19.32-7.92l-.2,0c-8.77,1.82-16.08,4.54-19.54,8-4,4-2.19,8.2,5.09,11.77L74.6,96C67.37,92.5,65.53,88.34,69.47,84.39Z"/><path class="cls-26" d="M167.35,84.39c3.75,3.84,1.86,7.88-5.23,11.3l.45.12c7.14-3.45,9-7.54,5.19-11.42-3.29-3.35-10.39-6-18.94-7.81l-.2.06C157.09,78.41,164.11,81.07,167.35,84.39Z"/><path class="cls-27" d="M70.63,84.39c3.25-3.32,10.27-6,18.74-7.75l-.2-.06c-8.55,1.79-15.65,4.46-19,7.81-3.81,3.88-1.94,8,5.2,11.42l.45-.12C68.78,92.27,66.89,88.23,70.63,84.39Z"/><polygon class="cls-21" points="118.99 73.09 117.45 73.43 117.44 73.65 118.99 73.32 120.55 73.65 120.54 73.43 118.99 73.09"/><polygon class="cls-21" points="95.54 98.64 94.55 98.95 93.8 98.64 92.8 98.95 92.71 99.17 93.71 98.85 94.47 99.17 95.46 98.85 96.22 99.17 96.3 98.95 95.54 98.64"/><polygon class="cls-21" points="95.36 99.11 94.37 99.42 93.61 99.11 92.6 99.42 92.52 99.64 93.53 99.32 94.28 99.64 95.29 99.32 96.05 99.64 96.13 99.42 95.36 99.11"/><polygon class="cls-21" points="84.32 76.66 86.71 76.63 87.62 76.44 85.25 76.46 85.59 75.92 84.68 76.11 84.32 76.66"/><polygon class="cls-21" points="80.78 77.54 83.25 77.46 84.12 77.24 81.67 77.32 81.81 76.76 80.94 76.98 80.78 77.54"/><path class="cls-21" d="M84.67,75.58a6.69,6.69,0,0,0,2.65-.42h-.19a6.42,6.42,0,0,1-2.43.38c-1,0-1.75-.17-1.79-.38h-.19C82.74,75.4,83.53,75.58,84.67,75.58Z"/><path class="cls-21" d="M85.52,74.56c1,0,1.73.16,1.79.37h.2c-.05-.23-.84-.41-2-.41a7,7,0,0,0-2.63.41h.19A6.52,6.52,0,0,1,85.52,74.56Z"/><path class="cls-21" d="M83.27,75c-.18.2.3.37,1.1.41l0,0c-.72,0-1.14-.19-1-.38A3.31,3.31,0,0,1,85,74.68l0,0A3.62,3.62,0,0,0,83.27,75Z"/><path class="cls-21" d="M86.82,75a2.93,2.93,0,0,1-1.61.38l0,0A3.39,3.39,0,0,0,87,75c.15-.19-.33-.36-1.11-.4l0,0C86.53,74.72,87,74.87,86.82,75Z"/><path class="cls-28" d="M116.09,85.93c0,.39,1,.72,2.26.8v-.07c-1.18-.08-2-.38-2-.73s.89-.63,2-.7v-.07C117.09,85.24,116.12,85.55,116.09,85.93Z"/><path class="cls-28" d="M121.66,85.93c0,.35-.84.65-2,.73v.07c1.32-.08,2.29-.41,2.26-.8s-1-.69-2.28-.77v.07C120.77,85.3,121.64,85.59,121.66,85.93Z"/><path class="cls-28" d="M119,85.31a3.61,3.61,0,0,0-2.21.49H117a3.41,3.41,0,0,1,2-.44,3.36,3.36,0,0,1,2,.44h.19A3.65,3.65,0,0,0,119,85.31Z"/><path class="cls-28" d="M119,86.52a3.32,3.32,0,0,1-2-.45h-.19a3.51,3.51,0,0,0,2.23.5,3.47,3.47,0,0,0,2.23-.5H121A3.29,3.29,0,0,1,119,86.52Z"/><path class="cls-21" d="M175,101c1.85,0,3-.48,2.79-1.1h-.32c.13.56-.89,1-2.57,1a8.54,8.54,0,0,1-4.23-1h-.32A9.22,9.22,0,0,0,175,101Z"/><path class="cls-21" d="M172.75,98.34a8.76,8.76,0,0,1,4.16.94h.32a9.5,9.5,0,0,0-4.57-1c-1.77,0-2.9.44-2.8,1h.32C170.11,98.74,171.14,98.34,172.75,98.34Z"/><path class="cls-21" d="M170.82,99.58a5.33,5.33,0,0,0,3.22,1.07l-.08-.09a4.85,4.85,0,0,1-2.9-1c-.38-.46.2-.85,1.3-1l-.08-.08C171.06,98.65,170.41,99.07,170.82,99.58Z"/><path class="cls-21" d="M176.54,99.58c.41.47-.14.87-1.26,1l.08.09c1.26-.11,1.88-.55,1.41-1.07a5.53,5.53,0,0,0-3.21-1l.07.08A5.12,5.12,0,0,1,176.54,99.58Z"/><path class="cls-21" d="M94.37,74.37a3.35,3.35,0,0,0-1.87.36c-.13.2.5.37,1.42.37a3.2,3.2,0,0,0,1.87-.37C95.91,74.53,95.28,74.37,94.37,74.37Zm-.42.68c-.8,0-1.35-.14-1.23-.32a2.9,2.9,0,0,1,1.63-.32c.78,0,1.33.15,1.23.32A2.81,2.81,0,0,1,94,75.05Z"/><path class="cls-21" d="M92.55,74a2,2,0,0,0-1,.19c-.08.11.26.2.76.2a1.8,1.8,0,0,0,1-.2C93.38,74.12,93,74,92.55,74Zm-.25.36c-.42,0-.72-.07-.65-.17a1.64,1.64,0,0,1,.88-.16c.43,0,.72.07.66.16A1.54,1.54,0,0,1,92.3,74.39Z"/><path class="cls-21" d="M96.05,75a1.74,1.74,0,0,0-1,.21c-.07.11.28.21.79.21a1.74,1.74,0,0,0,1-.21C96.9,75.13,96.55,75,96.05,75Zm-.22.39c-.44,0-.75-.08-.69-.18s.45-.18.89-.18.74.08.69.18S96.27,75.42,95.83,75.42Z"/><path class="cls-2" d="M94.27,74.53a1.71,1.71,0,0,0-1,.2c-.08.11.26.2.76.2a1.69,1.69,0,0,0,1-.2C95.1,74.62,94.76,74.53,94.27,74.53ZM94,74.9c-.42,0-.72-.07-.66-.17a1.56,1.56,0,0,1,.87-.17c.43,0,.72.08.67.17A1.5,1.5,0,0,1,94,74.9Z"/><path class="cls-21" d="M148.32,94c-1.35,0-2.28.36-2.07.81s1.5.84,2.89.84,2.31-.38,2.06-.84S149.67,94,148.32,94Zm.76,1.54c-1.2,0-2.32-.33-2.51-.73s.63-.71,1.8-.71,2.29.32,2.5.71S150.28,95.53,149.08,95.53Z"/><path class="cls-21" d="M172.22,85.15c-.94,0-1.49.21-1.21.48a4.13,4.13,0,0,0,2.25.5c1,0,1.51-.22,1.21-.5A4.31,4.31,0,0,0,172.22,85.15Zm1,.91a3.68,3.68,0,0,1-2-.43c-.24-.23.24-.42,1.06-.42a3.77,3.77,0,0,1,2,.42C174.5,85.87,174,86.06,173.19,86.06Z"/><path class="cls-21" d="M176.73,85.15c-.95,0-1.47.21-1.17.48a4.36,4.36,0,0,0,2.3.5c1,0,1.48-.22,1.16-.5A4.57,4.57,0,0,0,176.73,85.15Zm1.05.91a3.83,3.83,0,0,1-2-.43c-.27-.23.19-.42,1-.42a4,4,0,0,1,2,.42C179.07,85.87,178.62,86.06,177.78,86.06Z"/><path class="cls-21" d="M144.91,93.23c-.73,0-1.23.2-1.13.44s.78.44,1.52.44,1.24-.2,1.13-.44S145.64,93.23,144.91,93.23Zm.36.82c-.64,0-1.23-.17-1.32-.38s.35-.38,1-.38,1.22.17,1.32.38S145.91,94.05,145.27,94.05Z"/><path class="cls-21" d="M152.21,95.49c-.75,0-1.26.21-1.12.47s.87.47,1.64.47,1.27-.21,1.12-.47A2.29,2.29,0,0,0,152.21,95.49Zm.48.88c-.66,0-1.3-.18-1.42-.41s.32-.41,1-.41a2,2,0,0,1,1.42.41C153.8,96.19,153.36,96.37,152.69,96.37Z"/><path class="cls-2" d="M148.5,94.36c-.72,0-1.22.2-1.11.44s.82.45,1.55.45,1.24-.2,1.11-.45S149.23,94.36,148.5,94.36Zm.41.83c-.64,0-1.24-.17-1.34-.39s.33-.38,1-.38,1.24.17,1.34.38S149.56,95.19,148.91,95.19Z"/><polygon class="cls-29" points="40.26 118.06 104.19 91.13 104.47 91.17 40.61 118.32 40.26 118.06"/><path class="cls-21" d="M111.47,75.27l-.31.22.08.11.31-.22Z"/><path class="cls-21" d="M109,77.59l-.23.29.1.09.24-.3Z"/><path class="cls-21" d="M106.41,82.4l-.1.37.13,0c0-.12.06-.24.1-.36Z"/><path class="cls-21" d="M108.53,78.13l-.22.3.1.08.23-.31Z"/><path class="cls-21" d="M109.41,77.07l-.26.29.1.08.26-.28Z"/><path class="cls-21" d="M110.92,75.68l-.3.24.09.1.29-.24Z"/><path class="cls-21" d="M110.39,76.12l-.28.25.09.1.28-.25Z"/><path class="cls-21" d="M108.13,78.68l-.2.32.11.07.2-.31Z"/><path class="cls-21" d="M106.85,81.11l-.13.35.12.05c0-.12.09-.24.14-.36Z"/><path class="cls-21" d="M107.13,80.48l-.16.34.12.06.15-.35Z"/><path class="cls-21" d="M107.77,79.26l-.19.33.11.07c.06-.11.12-.22.19-.33Z"/><path class="cls-21" d="M106.62,81.75l-.12.36.12,0,.12-.36Z"/><path class="cls-21" d="M107.43,79.86l-.17.34.11.06.18-.34Z"/><path class="cls-21" d="M106.24,83.07l-.08.37.13,0c0-.13,0-.25.08-.37Z"/><path class="cls-21" d="M120.57,73l-.38,0v.14l.38,0Z"/><path class="cls-21" d="M118.52,72.89l-.38,0V73l.37,0Z"/><path class="cls-21" d="M117.83,72.93l-.38,0,0,.13.38,0Z"/><path class="cls-21" d="M117.15,73l-.37.06,0,.13.37-.06Z"/><path class="cls-21" d="M116.48,73.13l-.38.08,0,.12.37-.07Z"/><path class="cls-21" d="M112,74.89l-.32.21.07.11.32-.21Z"/><path class="cls-21" d="M106.11,83.74l-.06.38.13,0,.06-.38Z"/><path class="cls-21" d="M119.89,72.91l-.38,0V73l.38,0Z"/><path class="cls-21" d="M121.25,73.07l-.38-.06,0,.13.38.06Z"/><path class="cls-21" d="M113.24,74.22l-.34.18.06.11.33-.17Z"/><path class="cls-21" d="M113.86,73.94l-.35.15.06.12.34-.15Z"/><path class="cls-21" d="M112.63,74.54l-.33.19.07.11.32-.18Z"/><path class="cls-21" d="M115.81,73.28l-.37.1,0,.12.37-.1Z"/><path class="cls-21" d="M114.5,73.68l-.36.14,0,.12.35-.14Z"/><path class="cls-21" d="M115.15,73.46l-.37.12,0,.12.36-.11Z"/><path class="cls-21" d="M106.5,89.84l.12.37.12,0-.12-.36Z"/><path class="cls-21" d="M112.3,97.22l.33.19.06-.11-.32-.19Z"/><path class="cls-21" d="M113.51,97.86l.35.16,0-.12-.34-.16Z"/><path class="cls-21" d="M112.9,97.56l.34.17.05-.12-.33-.17Z"/><path class="cls-21" d="M111.72,96.86l.32.2.07-.11-.32-.2Z"/><path class="cls-21" d="M111.16,96.46l.31.22.08-.1-.31-.23Z"/><path class="cls-21" d="M110.11,95.58l.28.26.09-.1-.28-.26Z"/><path class="cls-21" d="M110.62,96l.3.24.08-.1-.29-.24Z"/><path class="cls-21" d="M118.14,99.05l.38,0v-.14l-.37,0Z"/><path class="cls-21" d="M106,84.42l0,.38h.13c0-.13,0-.25,0-.38Z"/><path class="cls-21" d="M109.15,94.6l.26.28.1-.09-.26-.28Z"/><path class="cls-21" d="M116.78,98.88l.37.06,0-.13-.37-.06Z"/><path class="cls-21" d="M117.45,99l.38,0v-.13l-.37,0Z"/><path class="cls-21" d="M116.1,98.75l.38.08,0-.13-.37-.08Z"/><path class="cls-21" d="M114.78,98.37l.37.12,0-.12-.35-.12Z"/><path class="cls-21" d="M115.44,98.58l.37.1,0-.13-.37-.1Z"/><path class="cls-21" d="M114.14,98.14l.36.13,0-.12-.35-.14Z"/><path class="cls-21" d="M106.05,87.84l.06.37.13,0-.06-.37Z"/><path class="cls-21" d="M121.92,73.21l-.37-.08,0,.13.37.07Z"/><path class="cls-21" d="M106.31,89.18l.1.37.13,0c0-.13-.07-.25-.1-.37Z"/><path class="cls-21" d="M106.16,88.51l.08.38.13,0c0-.12-.05-.25-.08-.37Z"/><path class="cls-21" d="M105.94,85.1l0,.38h.14c0-.13,0-.25,0-.38Z"/><path class="cls-21" d="M106,87.16l0,.38.13,0c0-.12,0-.25,0-.38Z"/><path class="cls-21" d="M108.72,94.07l.23.3.11-.09-.24-.29Z"/><path class="cls-21" d="M105.92,86.47l0,.38h.14c0-.12,0-.25,0-.37Z"/><path class="cls-21" d="M107.58,92.36l.19.33.11-.07-.19-.32Z"/><path class="cls-21" d="M106.72,90.49l.13.36.13,0c0-.12-.1-.23-.14-.35Z"/><path class="cls-21" d="M108.31,93.52l.22.31.11-.08-.23-.31Z"/><path class="cls-21" d="M107.93,93l.2.32.11-.07c-.07-.11-.14-.21-.2-.32Z"/><path class="cls-21" d="M107.26,91.75l.17.34.12-.06-.18-.34Z"/><path class="cls-21" d="M107,91.13l.16.35.11-.06-.15-.34Z"/><path class="cls-21" d="M132.1,85.48l0-.38H132c0,.13,0,.25,0,.38Z"/><path class="cls-21" d="M123.53,98.27l.35-.13,0-.13-.35.14Z"/><path class="cls-21" d="M127.11,96.27l.29-.24-.08-.1-.3.24Z"/><path class="cls-21" d="M126,97.06l.32-.2-.07-.11-.32.2Z"/><path class="cls-21" d="M125.4,97.41l.33-.19-.07-.11-.33.19Z"/><path class="cls-21" d="M124.16,98l.35-.16-.05-.12-.35.16Z"/><path class="cls-21" d="M127.63,95.84l.29-.26-.09-.1-.28.26Z"/><path class="cls-21" d="M124.79,97.73l.34-.17-.06-.12-.34.17Z"/><path class="cls-21" d="M126.56,96.68l.3-.22-.08-.11-.3.23Z"/><path class="cls-21" d="M130.26,92.69l.19-.33-.12-.06-.18.32Z"/><path class="cls-21" d="M130.59,92.09l.18-.34-.12,0-.17.33Z"/><path class="cls-21" d="M129.89,93.27l.21-.32-.11-.07-.21.32Z"/><path class="cls-21" d="M128.62,94.88l.25-.28-.1-.09c-.08.1-.17.19-.25.28Z"/><path class="cls-21" d="M129.49,93.83l.23-.31-.11-.08c-.07.11-.15.21-.22.31Z"/><path class="cls-21" d="M129.07,94.37l.24-.3-.1-.08-.24.29Z"/><path class="cls-21" d="M118.82,98.94v.13h.38v-.13h-.38Z"/><path class="cls-21" d="M132,86.17h.14v-.38H132a1.15,1.15,0,0,1,0,.19A1.28,1.28,0,0,1,132,86.17Z"/><path class="cls-21" d="M109.71,95l-.09.09.27.27.09-.09Z"/><path class="cls-21" d="M106.05,85.79h-.13v.38h.13v-.38Z"/><path class="cls-21" d="M110,76.68l-.09-.1-.27.27.09.09Z"/><path class="cls-21" d="M119.2,73v-.14h-.38V73h.38Z"/><path class="cls-21" d="M128.31,77l.1-.1-.27-.27-.1.1Z"/><path class="cls-21" d="M128,95.28l.1.09.27-.27-.1-.09Z"/><path class="cls-21" d="M120.19,99l.38,0,0-.13-.37,0Z"/><path class="cls-21" d="M121.55,98.83l.37-.08,0-.13-.37.08Z"/><path class="cls-21" d="M122.22,98.68l.37-.1,0-.13-.36.1Z"/><path class="cls-21" d="M120.87,98.94l.38-.06,0-.13-.38.06Z"/><path class="cls-21" d="M119.51,99.07l.38,0v-.14l-.38,0Z"/><path class="cls-21" d="M122.88,98.49l.36-.12,0-.12-.36.12Z"/><path class="cls-21" d="M130.9,91.48l.15-.35-.12,0-.15.34Z"/><path class="cls-21" d="M132,84.12l-.06-.38-.13,0,.06.38Z"/><path class="cls-21" d="M128.87,77.36l-.25-.29-.1.09c.08.1.17.19.25.28Z"/><path class="cls-21" d="M127.92,76.37l-.29-.25-.08.1.28.25Z"/><path class="cls-21" d="M127.4,75.92l-.29-.24-.09.1.3.24Z"/><path class="cls-21" d="M126.86,75.49l-.3-.22-.08.11.3.22Z"/><path class="cls-21" d="M130.1,79l-.21-.32-.11.08.21.32Z"/><path class="cls-21" d="M129.72,78.43l-.23-.3-.1.08.22.3Z"/><path class="cls-21" d="M129.31,77.88l-.24-.29-.1.08.24.3Z"/><path class="cls-21" d="M126.3,75.1l-.32-.21-.07.11.32.21Z"/><path class="cls-21" d="M123.88,73.82l-.35-.14,0,.12.36.14Z"/><path class="cls-21" d="M124.51,74.09l-.35-.15,0,.12.35.15Z"/><path class="cls-21" d="M123.24,73.58l-.36-.12,0,.13.36.11Z"/><path class="cls-21" d="M125.13,74.4l-.34-.18-.06.12.34.17Z"/><path class="cls-21" d="M130.45,79.59l-.19-.33-.11.07.18.33Z"/><path class="cls-21" d="M125.73,74.73l-.33-.19-.07.12.33.18Z"/><path class="cls-21" d="M131.17,90.85l.14-.36-.12,0-.14.35Z"/><path class="cls-21" d="M131.92,88.21l.06-.37-.13,0-.06.37Z"/><path class="cls-21" d="M132.06,84.8l0-.38h-.14c0,.13,0,.25,0,.38Z"/><path class="cls-21" d="M132.08,86.85l0-.38H132c0,.12,0,.25,0,.37Z"/><path class="cls-21" d="M132,87.54l0-.38-.14,0c0,.13,0,.26,0,.38Z"/><path class="cls-21" d="M131.41,90.21l.12-.37-.13,0c0,.13-.07.24-.11.36Z"/><path class="cls-21" d="M131.78,88.89l.08-.38-.13,0c0,.12,0,.25-.07.37Z"/><path class="cls-21" d="M131.61,89.55l.1-.37-.13,0-.09.37Z"/><path class="cls-21" d="M122.59,73.38l-.37-.1,0,.12.36.1Z"/><path class="cls-21" d="M131.53,82.11l-.12-.36-.12,0c0,.12.08.24.11.36Z"/><path class="cls-21" d="M131.31,81.46l-.14-.35-.12,0,.14.36Z"/><path class="cls-21" d="M131.05,80.82l-.15-.34-.12,0,.15.35Z"/><path class="cls-21" d="M131.71,82.77l-.1-.37-.12,0,.09.36Z"/><path class="cls-21" d="M130.77,80.2l-.18-.34-.11.06.17.34Z"/><path class="cls-21" d="M131.86,83.44l-.08-.37-.12,0c0,.12.05.24.07.37Z"/><g class="cls-16"><path class="cls-21" d="M103.75,64.32l-.62.45.16.21.62-.45Z"/><path class="cls-21" d="M98.66,69l-.48.6.21.17.48-.59Z"/><path class="cls-21" d="M97.8,70.09l-.45.63.22.15.45-.62Z"/><path class="cls-21" d="M97,71.22l-.42.65.23.14.41-.64Z"/><path class="cls-21" d="M94.42,76.12l-.28.72.25.09c.08-.24.18-.47.27-.71Z"/><path class="cls-21" d="M95,74.85l-.32.7.24.11c.1-.24.21-.47.32-.7Z"/><path class="cls-21" d="M96.26,72.4l-.39.66.24.13c.12-.22.25-.44.38-.66Z"/><path class="cls-21" d="M95.58,73.61l-.35.68.24.12c.11-.23.23-.46.35-.68Z"/><path class="cls-21" d="M93.18,80.09l-.16.76.26.05.15-.75Z"/><path class="cls-21" d="M118,59.5l-.77,0,0,.27.76,0Z"/><path class="cls-21" d="M113.88,60l-.75.16.06.26.74-.16Z"/><path class="cls-21" d="M92.9,81.45l-.12.76.27,0q0-.37.12-.75Z"/><path class="cls-21" d="M108.59,61.62l-.71.31.12.24.69-.31Z"/><path class="cls-21" d="M106.1,62.84l-.67.39.14.22.66-.38Z"/><path class="cls-21" d="M93.7,93.8l.23.73.25-.08c-.08-.24-.16-.49-.23-.73Z"/><path class="cls-21" d="M105.43,108.73l.67.39.13-.24-.66-.38Z"/><path class="cls-21" d="M107.88,110l.71.32.1-.24-.7-.32Z"/><path class="cls-21" d="M106.64,109.41l.69.35.11-.24-.68-.35Z"/><path class="cls-21" d="M104.26,108l.65.42.14-.23c-.22-.13-.43-.27-.64-.41Z"/><path class="cls-21" d="M103.13,107.19l.62.45.15-.22-.61-.45Z"/><path class="cls-21" d="M101,105.41l.57.51.18-.2-.57-.51Z"/><path class="cls-21" d="M102,106.32l.6.49.16-.21-.59-.48Z"/><path class="cls-21" d="M117.24,112.42l.77,0v-.27l-.76,0Z"/><path class="cls-21" d="M99.07,103.42l.51.57.2-.18-.51-.57Z"/><path class="cls-21" d="M114.49,112.09l.76.12,0-.27c-.26,0-.51-.07-.76-.12Z"/><path class="cls-21" d="M115.86,112.29l.77.08,0-.27-.76-.08Z"/><path class="cls-21" d="M113.13,111.81l.75.16.05-.26-.75-.15Z"/><path class="cls-21" d="M111.78,111.47l.75.2.06-.26-.74-.19Z"/><path class="cls-21" d="M92.78,89.74l.12.76.27,0c0-.25-.09-.5-.12-.76Z"/><path class="cls-21" d="M93.32,92.46l.2.75.25-.07c-.07-.25-.13-.5-.19-.74Z"/><path class="cls-21" d="M93,91.11l.16.75.25-.06-.15-.74Z"/><path class="cls-21" d="M92.57,84.21l0,.77h.27c0-.26,0-.51,0-.77Z"/><path class="cls-21" d="M94.14,95.11l.28.72.24-.1c-.09-.23-.19-.47-.27-.71Z"/><path class="cls-21" d="M97.35,101.24l.45.62.22-.16-.45-.62Z"/><path class="cls-21" d="M96.58,100.08l.42.65.22-.15c-.14-.21-.28-.42-.41-.64Z"/><path class="cls-21" d="M145.49,85l0-.77h-.27c0,.26,0,.51,0,.77Z"/><path class="cls-21" d="M128.15,110.85l.72-.28-.1-.24c-.24.09-.47.19-.71.27Z"/><path class="cls-21" d="M135.39,106.81l.6-.49-.18-.2-.59.48Z"/><path class="cls-21" d="M133.12,108.41l.65-.42-.15-.22-.64.41Z"/><path class="cls-21" d="M131.93,109.12l.66-.39-.13-.23-.66.38Z"/><path class="cls-21" d="M136.45,105.92l.58-.51-.19-.2-.56.51Z"/><path class="cls-21" d="M134.27,107.64l.63-.45-.16-.22-.62.45Z"/><path class="cls-21" d="M141.76,99.56l.39-.67-.23-.13-.38.66Z"/><path class="cls-21" d="M142.44,98.35l.35-.69-.23-.11c-.12.22-.23.45-.35.68Z"/><path class="cls-21" d="M138.44,104l.52-.57-.2-.18-.51.57Z"/><path class="cls-21" d="M139.36,103l.49-.6-.22-.16c-.15.2-.31.39-.48.59Z"/><path class="cls-21" d="M118.63,112.2v.27h.77v-.27h-.76Z"/><path class="cls-21" d="M100.2,104.25l-.19.19.54.54.19-.19Z"/><path class="cls-21" d="M137.83,67.7l.19-.18-.55-.55-.18.19Z"/><path class="cls-21" d="M137.29,104.79l.18.19.55-.54-.19-.19Z"/><path class="cls-21" d="M121.4,112.37l.77-.08,0-.27-.76.08Z"/><path class="cls-21" d="M124.14,112l.76-.16-.06-.25-.75.15Z"/><path class="cls-21" d="M125.5,111.67l.74-.2-.07-.25-.74.19Z"/><path class="cls-21" d="M122.78,112.21l.76-.12-.05-.27q-.37.08-.75.12Z"/><path class="cls-21" d="M120,112.46l.77,0v-.27l-.77,0Z"/><path class="cls-21" d="M126.83,111.29l.74-.23-.09-.25-.72.23Z"/><path class="cls-21" d="M145.24,82.21l-.12-.76-.26,0,.12.75Z"/><path class="cls-21" d="M139,68.54l-.52-.58-.19.19.51.56Z"/><path class="cls-21" d="M141.44,71.87l-.42-.65-.22.15.42.64Z"/><path class="cls-21" d="M140.67,70.72l-.45-.63-.21.16.45.62Z"/><path class="cls-21" d="M139.85,69.6l-.49-.6-.21.18c.17.19.33.39.48.59Z"/><path class="cls-21" d="M133.77,64l-.65-.42-.14.22.64.42Z"/><path class="cls-21" d="M130.14,61.93l-.7-.31-.11.24.7.31Z"/><path class="cls-21" d="M127.57,60.9l-.74-.24-.07.25.72.24Z"/><path class="cls-21" d="M132.59,63.23l-.66-.39-.13.23.66.38Z"/><path class="cls-21" d="M143.61,95.83l.28-.72-.25-.09c-.09.24-.18.48-.28.71Z"/><path class="cls-21" d="M145.4,83.59l-.08-.77-.26,0c0,.25.05.5.07.76Z"/><path class="cls-21" d="M145.32,89.13l.08-.77-.27,0c0,.25,0,.51-.07.76Z"/><path class="cls-21" d="M144.09,94.53l.24-.73-.25-.08-.24.73Z"/><path class="cls-21" d="M144.85,91.86l.16-.75-.26,0c-.05.25-.1.5-.16.74Z"/><path class="cls-21" d="M144.5,93.21l.2-.75-.25-.06c-.06.25-.13.49-.2.74Z"/><path class="cls-21" d="M144.33,78.16l-.24-.74-.25.09.24.72Z"/><path class="cls-21" d="M143.89,76.84l-.28-.72-.25.1c.1.24.19.47.28.71Z"/><path class="cls-21" d="M143.37,75.55l-.31-.7-.24.11c.11.23.21.46.31.7Z"/><path class="cls-21" d="M142.79,74.29l-.35-.68-.23.12c.12.22.23.45.35.68Z"/><path class="cls-21" d="M145,80.85l-.16-.76-.26.06c.06.25.11.5.16.75Z"/></g><g class="cls-16"><path class="cls-30" d="M128.9,66.3c-.83,0-1.68-.09-2.53-.12l-.42.59c.78,0,1.56.07,2.33.12Z"/><path class="cls-31" d="M98.05,82.14q1.38.33,2.88.6l2.25-1c-.9-.16-1.76-.34-2.58-.52Z"/><path class="cls-32" d="M102,82.94c1,.18,2.1.34,3.21.49L107,82.31c-1-.13-1.94-.27-2.87-.43Z"/><path class="cls-31" d="M89.43,79.1a17.23,17.23,0,0,0,1.61.81l3.2-.68a15.74,15.74,0,0,1-1.48-.72Z"/><path class="cls-33" d="M87.77,78a8.47,8.47,0,0,0,1.16.84l3.36-.55a9,9,0,0,1-1.09-.75Z"/><path class="cls-33" d="M86.71,76.8a4.93,4.93,0,0,0,.71.85l3.45-.42a4.75,4.75,0,0,1-.69-.76Z"/><path class="cls-34" d="M114.94,66.22l-2.52.14.7.58c.77,0,1.54-.1,2.33-.13Z"/><path class="cls-31" d="M126.63,84.32q1.88-.09,3.69-.21l-1-1.21c-1.07.07-2.17.13-3.28.18Z"/><path class="cls-2" d="M121.87,66.67l.07-.59h-.82l-1.75,0,.14.59h2.36Z"/><path class="cls-31" d="M94.86,79.48l-3.15.72c.64.26,1.32.51,2.06.75l3-.8C96.06,79.93,95.44,79.71,94.86,79.48Z"/><path class="cls-30" d="M144.7,68.49c-.67-.16-1.36-.32-2.07-.46l-1.82.46c.65.13,1.28.28,1.88.43Z"/><path class="cls-35" d="M149.69,70c-.54-.2-1.11-.39-1.71-.58l-2.33.35,1.52.54Z"/><path class="cls-34" d="M141.85,67.87l-2.21-.4L138.1,68c.68.11,1.36.23,2,.36Z"/><path class="cls-30" d="M147.33,69.19c-.61-.18-1.25-.35-1.91-.52l-2.08.41c.6.16,1.17.32,1.72.49Z"/><path class="cls-31" d="M151.74,70.86c-.46-.23-1-.44-1.47-.65l-2.58.29c.46.19.9.39,1.31.59Z"/></g><path class="cls-21" d="M11.41,114.53c1.45.35,2.6-.74,2.58-2.65l-.32,0c0,1.69-1,2.67-2.32,2.38a4.06,4.06,0,0,1-2.56-2.65H8.63A4.49,4.49,0,0,0,11.41,114.53Z"/><path class="cls-21" d="M10,107.6c1.18-.29,2.6.69,3.31,2.38l.32,0c-.78-1.91-2.39-3-3.69-2.64-1.08.29-1.65,1.54-1.55,2.94h.16A2.38,2.38,0,0,1,10,107.6Z"/><path class="cls-21" d="M8.86,110.92a3.89,3.89,0,0,0,1.93,2.68l0-.23A3.53,3.53,0,0,1,9,110.92a2.24,2.24,0,0,1,.72-2.45l-.05-.23A2.46,2.46,0,0,0,8.86,110.92Z"/><path class="cls-21" d="M12.85,110.92c.3,1.42-.27,2.48-1.18,2.61l.05.25c1-.11,1.69-1.27,1.35-2.86a3.41,3.41,0,0,0-2.55-2.85l.05.24A3.17,3.17,0,0,1,12.85,110.92Z"/><rect class="cls-36" x="114.43" y="75.95" width="109.49" height="0.23" transform="translate(86.63 242.17) rotate(-87.78)"/><rect class="cls-37" x="112.5" y="54.64" width="109.49" height="0.16" transform="translate(107.82 220.35) rotate(-88.38)"/><rect class="cls-38" x="75.89" y="-0.01" width="0.12" height="109.49" transform="translate(-1.34 1.91) rotate(-1.43)"/><rect class="cls-39" x="8.99" y="21.6" width="0.16" height="109.49" transform="translate(-5.18 0.8) rotate(-3.91)"/></g></g></g></svg>