<svg xmlns="http://www.w3.org/2000/svg" viewBox="0 0 171.7 170.45"><defs><style>.cls-1{isolation:isolate;}.cls-2{fill:#05c4c1;}.cls-3,.cls-4{fill:#037371;}.cls-4{mix-blend-mode:screen;}.cls-5{fill:#68edec;opacity:0.4;}</style></defs><title>资源 1</title><g class="cls-1"><g id="图层_2" data-name="图层 2"><g id="Layer_1" data-name="Layer 1"><path class="cls-2" d="M85.85,6.62h.83V0H85V6.63Z"/><path class="cls-2" d="M85.85,163.83H85v6.62h1.65v-6.62Z"/><path class="cls-2" d="M81,6.78,80.48.17,78.83.29l.48,6.6Z"/><path class="cls-2" d="M90.75,163.68l.48,6.6q.83,0,1.65-.12l-.48-6.6Q91.57,163.64,90.75,163.68Z"/><path class="cls-2" d="M75.26,7.33,74.3.78c-.55.08-1.1.15-1.64.24l1,6.55Z"/><path class="cls-2" d="M96.45,163.12l1,6.55,1.64-.23-1-6.55Z"/><path class="cls-2" d="M102.09,162.15l1.44,6.46,1.61-.35-1.44-6.46Z"/><path class="cls-2" d="M69.62,8.3,68.18,1.84l-1.62.35L68,8.66Z"/><path class="cls-2" d="M107.65,160.77l1.9,6.34,1.59-.47-1.91-6.34Z"/><path class="cls-2" d="M64.06,9.68l-1.9-6.34-1.59.47,1.9,6.34Z"/><path class="cls-2" d="M113.09,159l2.36,6.19c.51-.19,1-.38,1.54-.59l-2.35-6.18Z"/><path class="cls-2" d="M58.62,11.47,56.26,5.28l-1.55.59,2.36,6.19C57.58,11.85,58.1,11.66,58.62,11.47Z"/><path class="cls-2" d="M118.38,156.81l2.81,6,1.5-.7-2.81-6C119.39,156.34,118.89,156.58,118.38,156.81Z"/><path class="cls-2" d="M53.32,13.65l-2.8-6-1.5.7,2.8,6Z"/><path class="cls-2" d="M48.2,16.21,45,10.43c-.48.27-1,.53-1.44.81L46.76,17C47.23,16.74,47.72,16.47,48.2,16.21Z"/><path class="cls-2" d="M123.51,154.25l3.23,5.77,1.44-.81L125,153.44Z"/><path class="cls-2" d="M128.43,151.31l3.64,5.53,1.38-.91-3.64-5.53C129.35,150.71,128.89,151,128.43,151.31Z"/><path class="cls-2" d="M43.28,19.14l-3.64-5.53c-.47.3-.93.6-1.38.91l3.64,5.53Z"/><path class="cls-2" d="M133.12,148l4,5.24c.45-.33.89-.66,1.32-1l-4-5.25Z"/><path class="cls-2" d="M38.59,22.41l-4-5.24c-.44.33-.88.66-1.31,1l4,5.25Z"/><path class="cls-2" d="M34.14,26l-4.4-4.93L28.5,22.18l4.41,4.94C33.31,26.75,33.73,26.39,34.14,26Z"/><path class="cls-2" d="M137.56,144.43l4.41,4.94,1.24-1.1-4.41-4.94Z"/><path class="cls-2" d="M141.73,140.51l4.76,4.6c.39-.39.77-.79,1.15-1.19l-4.75-4.6C142.51,139.72,142.12,140.11,141.73,140.51Z"/><path class="cls-2" d="M30,30l-4.75-4.61c-.39.39-.78.79-1.16,1.19l4.76,4.6C29.2,30.73,29.58,30.34,30,30Z"/><path class="cls-2" d="M26.1,34.16,21,29.91c-.36.42-.72.84-1.07,1.27L25,35.43C25.38,35,25.74,34.58,26.1,34.16Z"/><path class="cls-2" d="M145.61,136.29l5.08,4.25c.35-.42.71-.84,1.06-1.27L146.67,135C146.32,135.45,146,135.87,145.61,136.29Z"/><path class="cls-2" d="M22.53,38.64l-5.37-3.86c-.33.44-.65.89-1,1.34L21.57,40C21.88,39.53,22.21,39.09,22.53,38.64Z"/><path class="cls-2" d="M149.17,131.81l5.37,3.86c.33-.44.66-.88,1-1.34l-5.37-3.86Z"/><path class="cls-2" d="M19.31,43.37l-5.64-3.46c-.3.46-.59.93-.87,1.4l5.64,3.47Q18.86,44.08,19.31,43.37Z"/><path class="cls-2" d="M152.4,127.08l5.64,3.46.87-1.4-5.64-3.47Z"/><path class="cls-2" d="M16.43,48.32l-5.88-3c-.25.48-.51,1-.76,1.47l5.88,3C15.92,49.3,16.17,48.81,16.43,48.32Z"/><path class="cls-2" d="M155.27,122.12l5.88,3c.26-.48.51-1,.76-1.47l-5.87-3C155.79,121.15,155.53,121.64,155.27,122.12Z"/><path class="cls-2" d="M157.78,117l6.08,2.61.66-1.52-6.09-2.61C158.22,116,158,116.47,157.78,117Z"/><path class="cls-2" d="M13.93,53.47,7.84,50.86c-.22.51-.44,1-.65,1.52L13.27,55C13.49,54.48,13.7,54,13.93,53.47Z"/><path class="cls-2" d="M11.81,58.79,5.55,56.63c-.19.52-.37,1-.55,1.57l6.26,2.15C11.44,59.83,11.62,59.31,11.81,58.79Z"/><path class="cls-2" d="M159.9,111.66l6.26,2.16.54-1.56-6.26-2.16C160.27,110.62,160.08,111.14,159.9,111.66Z"/><path class="cls-2" d="M161.62,106.2l6.4,1.7c.15-.53.29-1.07.43-1.6l-6.4-1.7C161.91,105.14,161.77,105.67,161.62,106.2Z"/><path class="cls-2" d="M10.08,64.25l-6.4-1.7c-.15.53-.29,1.07-.43,1.6l6.4,1.7C9.79,65.32,9.93,64.78,10.08,64.25Z"/><path class="cls-2" d="M8.76,69.82,2.25,68.59c-.1.55-.21,1.09-.31,1.63l6.51,1.23C8.54,70.91,8.65,70.36,8.76,69.82Z"/><path class="cls-2" d="M163,100.63l6.5,1.23c.11-.54.21-1.09.31-1.63L163.25,99C163.16,99.55,163.05,100.09,163,100.63Z"/><path class="cls-2" d="M163.86,95l6.57.76c.07-.55.13-1.1.19-1.65L164,93.33C164,93.88,163.92,94.43,163.86,95Z"/><path class="cls-2" d="M7.85,75.48l-6.58-.76c-.07.55-.13,1.1-.19,1.65l6.58.75C7.71,76.57,7.78,76,7.85,75.48Z"/><path class="cls-2" d="M164.42,87.62l-.06,1.65,6.61.27q0-.83.06-1.65Z"/><path class="cls-2" d="M7.35,81.18.73,80.91c0,.55,0,1.1-.06,1.65l6.61.27C7.3,82.28,7.32,81.73,7.35,81.18Z"/><path class="cls-2" d="M7.27,86.9l-6.62.22c0,.55,0,1.1,0,1.65l6.62-.21C7.3,88,7.28,87.46,7.27,86.9Z"/><path class="cls-2" d="M164.44,83.55l6.61-.21c0-.56,0-1.11-.05-1.66l-6.62.21C164.41,82.44,164.43,83,164.44,83.55Z"/><path class="cls-2" d="M164.11,77.83l6.58-.69c-.05-.55-.11-1.1-.17-1.65l-6.58.7C164,76.73,164.06,77.28,164.11,77.83Z"/><path class="cls-2" d="M7.59,92.62,1,93.31c.05.55.11,1.1.17,1.65l6.59-.69Q7.67,93.45,7.59,92.62Z"/><path class="cls-2" d="M8.33,98.3,1.81,99.47c.1.54.19,1.09.3,1.63l6.51-1.17C8.52,99.39,8.42,98.84,8.33,98.3Z"/><path class="cls-2" d="M163.37,72.15,169.89,71c-.1-.54-.19-1.08-.29-1.62l-6.52,1.16C163.18,71.07,163.28,71.61,163.37,72.15Z"/><path class="cls-2" d="M9.48,103.91l-6.41,1.64c.13.53.27,1.07.41,1.6l6.41-1.64C9.75,105,9.62,104.44,9.48,103.91Z"/><path class="cls-2" d="M162.22,66.55l6.41-1.64c-.13-.54-.26-1.08-.4-1.61l-6.42,1.64C162,65.47,162.09,66,162.22,66.55Z"/><path class="cls-2" d="M160.66,61l6.28-2.11c-.17-.52-.35-1-.53-1.57l-6.28,2.11C160.31,60,160.49,60.51,160.66,61Z"/><path class="cls-2" d="M11,109.42l-6.28,2.1c.18.53.35,1,.53,1.57l6.28-2.1C11.39,110.47,11.21,109.94,11,109.42Z"/><path class="cls-2" d="M13,114.8l-6.11,2.55c.21.51.42,1,.64,1.53l6.11-2.56C13.42,115.82,13.21,115.31,13,114.8Z"/><path class="cls-2" d="M158.7,55.65l6.11-2.55c-.21-.51-.42-1-.64-1.53l-6.11,2.56C158.28,54.64,158.49,55.14,158.7,55.65Z"/><path class="cls-2" d="M15.35,120l-5.9,3c.24.5.49,1,.74,1.48l5.91-3C15.84,121,15.6,120.52,15.35,120Z"/><path class="cls-2" d="M156.35,50.43l5.91-3L161.51,46l-5.91,3Q156,49.7,156.35,50.43Z"/><path class="cls-2" d="M18.07,125.06l-5.67,3.41c.28.48.57.95.86,1.42l5.67-3.42C18.64,126,18.35,125.53,18.07,125.06Z"/><path class="cls-2" d="M153.63,45.4,159.3,42c-.28-.47-.56-.95-.85-1.42L152.78,44C153.06,44.45,153.35,44.92,153.63,45.4Z"/><path class="cls-2" d="M21.16,129.88l-5.41,3.82.95,1.35,5.41-3.82C21.79,130.79,21.47,130.34,21.16,129.88Z"/><path class="cls-2" d="M150.54,40.57,156,36.75,155,35.4l-5.41,3.82Z"/><path class="cls-2" d="M147.12,36l5.12-4.2-1.06-1.28-5.11,4.21Z"/><path class="cls-2" d="M24.58,134.47l-5.11,4.2c.34.43.69.86,1.05,1.28l5.11-4.2Z"/><path class="cls-2" d="M28.33,138.8l-4.79,4.56,1.13,1.2,4.8-4.56Z"/><path class="cls-2" d="M143.37,31.66l4.8-4.56q-.57-.62-1.14-1.2l-4.8,4.56C142.62,30.85,143,31.25,143.37,31.66Z"/><path class="cls-2" d="M139.32,27.61l4.45-4.9-1.22-1.11-4.45,4.9Z"/><path class="cls-2" d="M32.38,142.84l-4.45,4.9c.4.38.81.75,1.22,1.11L33.61,144Z"/><path class="cls-2" d="M36.72,146.58l-4.09,5.21c.43.35.87.69,1.31,1L38,147.6C37.58,147.27,37.15,146.93,36.72,146.58Z"/><path class="cls-2" d="M135,23.87l4.08-5.21-1.3-1-4.09,5.21Z"/><path class="cls-2" d="M41.31,150l-3.69,5.5,1.37.92,3.69-5.5Z"/><path class="cls-2" d="M130.39,20.45l3.7-5.49c-.46-.31-.91-.62-1.38-.92L129,19.53Z"/><path class="cls-2" d="M46.14,153.07l-3.28,5.75c.47.28,1,.56,1.43.82l3.29-5.74C47.09,153.63,46.62,153.35,46.14,153.07Z"/><path class="cls-2" d="M125.56,17.38l3.29-5.75-1.44-.82-3.28,5.75C124.61,16.83,125.09,17.1,125.56,17.38Z"/><path class="cls-2" d="M120.52,14.67l2.86-6L121.89,8,119,14C119.53,14.18,120,14.42,120.52,14.67Z"/><path class="cls-2" d="M51.18,155.79l-2.86,6,1.49.72,2.86-6Z"/><path class="cls-2" d="M115.29,12.33l2.42-6.17c-.51-.2-1-.41-1.54-.6l-2.42,6.16C114.27,11.92,114.79,12.12,115.29,12.33Z"/><path class="cls-2" d="M56.41,158.13,54,164.29l1.54.61L58,158.73C57.43,158.54,56.92,158.33,56.41,158.13Z"/><path class="cls-2" d="M109.91,10.38l2-6.33-1.58-.49-2,6.33C108.86,10,109.39,10.21,109.91,10.38Z"/><path class="cls-2" d="M61.79,160.08l-2,6.32,1.58.49,2-6.32Z"/><path class="cls-2" d="M67.3,161.63l-1.49,6.45,1.61.37,1.5-6.45Z"/><path class="cls-2" d="M104.4,8.83l1.49-6.45c-.53-.13-1.07-.26-1.61-.37l-1.49,6.44Z"/><path class="cls-2" d="M72.92,162.77l-1,6.54c.55.09,1.09.18,1.64.25l1-6.54Z"/><path class="cls-2" d="M98.79,7.68l1-6.54L98.17.89l-1,6.54Z"/><path class="cls-2" d="M93.11,7l.54-6.6L92,.22l-.54,6.6Z"/><path class="cls-2" d="M78.59,163.5l-.54,6.59c.55.06,1.1.1,1.65.14l.54-6.6Z"/><path class="cls-2" d="M79.63,155.84l-4.47-12.72A57.93,57.93,0,0,1,66,140.66l-11,8.55L40,139.07l3.65-12.79a60.52,60.52,0,0,1-6.16-7.47l-13.78.6-6.37-16.93,10.32-8.29a59,59,0,0,1-.69-9c0-.26,0-.51,0-.77L15.42,77,20,59.52l13.26-.8A59.4,59.4,0,0,1,38.71,50L33.49,37,47.35,25.34l11.89,7.4a58,58,0,0,1,12.62-4.67l5-13.46,18.07.7,3.55,12.45a58.79,58.79,0,0,1,10.81,3.5l11.85-8.1,14.34,11-4.63,13.17A59.89,59.89,0,0,1,136,54.54l14.52.25,5.33,17.28-11.44,8.1c.15,1.7.23,3.4.23,5.07,0,1.25,0,2.51-.12,3.76l11.72,8.6-5.63,17.19H136.72a59,59,0,0,1-5.07,7.36l4.55,13.7-14.52,10.77-11.2-7.94a57.75,57.75,0,0,1-8.64,3.19l-4.12,13.58Zm-13.74-15.9.16.06a57.64,57.64,0,0,0,9.41,2.53l.18,0,4.44,12.63,17.16-.37,4.1-13.47.17-.05a58.65,58.65,0,0,0,8.87-3.28l.16-.07,11.13,7.87,13.79-10.22L130.94,122l.11-.14a58.53,58.53,0,0,0,5.21-7.58l.09-.16h13.84l5.35-16.32L143.91,89.3v-.17c.08-1.29.13-2.6.13-3.89,0-1.71-.08-3.45-.24-5.19l0-.19.15-.1,11.21-7.94-5.06-16.41-14.41-.24-.09-.15a59.64,59.64,0,0,0-5.34-7.4l-.12-.14,4.6-13.08L121.12,23.94l-11.77,8-.16-.07a57,57,0,0,0-11-3.57l-.19,0L94.44,15.92l-17.15-.66-5,13.34-.17,0a57.94,57.94,0,0,0-12.8,4.74l-.17.08L47.4,26.12l-13.15,11,5.18,12.91-.11.14a57.91,57.91,0,0,0-5.56,9l-.09.16-13.16.79L16.15,76.73l11.47,7.4v.18c0,.31,0,.62,0,.93a57.86,57.86,0,0,0,.72,9l0,.18L18.1,102.69l6,16.06,13.67-.59.1.14A58.16,58.16,0,0,0,44.23,126l.13.13-3.63,12.71L55,148.43Zm19.93-5.6a49.1,49.1,0,1,1,49.1-49.1A49.15,49.15,0,0,1,85.82,134.34Zm0-97.56a48.46,48.46,0,1,0,48.47,48.46A48.52,48.52,0,0,0,85.82,36.78Z"/><path class="cls-3" d="M142.94,90.52l-1.11,3.4a56.61,56.61,0,0,0,.66-8.69,57.35,57.35,0,0,0-.57-8l.52,1.68,10.89-7.71L148.94,57l-13.35-.22,1.06,3.44a56.46,56.46,0,0,0-9.32-13.51l1.13.87,4.43-12.6-11.8-9.06-11,7.53,2.27,1.75a56.34,56.34,0,0,0-15.6-5.52L93.26,17.45,78.4,16.87,73.76,29.39l2.16.08A56.29,56.29,0,0,0,57.83,36l1.08-.9-11.34-7-11.4,9.56,5,12.39,1.1-.92a56.6,56.6,0,0,0-7.52,11.75l-12.95.78L18,76l11.21,7.24.06-.19c0,.72-.06,1.44-.06,2.17a56.35,56.35,0,0,0,.88,9.87L20,103.19l5.24,13.92,13.33-.58-.09-.26a56.58,56.58,0,0,0,7.67,9.35l-3.56,12.5,12.32,8.34,10.55-8.18-.74-.5a56.45,56.45,0,0,0,12.12,3.37l4.37,12.43,14.87-.32L100,140.49l-1.89,0A56.33,56.33,0,0,0,111,136l-.26.19,10.89,7.72,12-8.86-4.21-12.67L127,124.13a56.94,56.94,0,0,0,9.14-12.84l-.42,1.27h13.35l4.63-14.14ZM35.17,85.23A50.68,50.68,0,1,1,85.85,135.9,50.68,50.68,0,0,1,35.17,85.23Z"/><path class="cls-4" d="M155.34,67.66l.08,4.48a71.32,71.32,0,0,0-2.8-10.56,72.87,72.87,0,0,0-4-9.25l1.31,1.77,9.7-13.63-11.07-15-15.89,5.25,2.68,3.63a71,71,0,0,0-16.63-12.13l1.7.56,0-16.74L102.75.2,92.82,13.67l3.41,1.13a70.64,70.64,0,0,0-20.74-.08l-9.16-13L48.5,7.19l-.31,16.73,2.59-.79a70.56,70.56,0,0,0-18.7,15.21l.9-1.51L16.65,33.18l-9.54,16,11,12.6L19,60.27a70.51,70.51,0,0,0-4,17L0,83.56l1.49,18.59,16.26,3.93,0-.25c.27.87.53,1.73.83,2.59a72.11,72.11,0,0,0,5.12,11.32L15.1,133.48l12,14.31,15.54-6.2-.22-.27a70.93,70.93,0,0,0,12.95,7.89l1,16.27,18,4.77,9.11-14-1.09-.29a70.33,70.33,0,0,0,15.74-1l10.31,12.91,17.47-6.53-.69-16.72-2.22.83a70.17,70.17,0,0,0,13.44-10.76l-.23.33,16.09,4.63,10.48-15.42-10.23-13.25L150.37,114a71.37,71.37,0,0,0,5.5-19l0,1.68,15.8-5.52-.36-18.64ZM25.62,106a63.53,63.53,0,1,1,80.92,39A63.52,63.52,0,0,1,25.62,106Z"/><path class="cls-3" d="M113.67,100.65s.52-.88,1.16-2.27a31,31,0,0,0,1.89-5.26,32.26,32.26,0,0,0,.91-5.51c.07-.76.09-1.4.09-1.85s0-.7,0-.7h6s0,.3,0,.83,0,1.29-.11,2.19a38.19,38.19,0,0,1-1.1,6.55,36.67,36.67,0,0,1-2.24,6.25c-.76,1.65-1.37,2.69-1.37,2.69Z"/><path class="cls-3" d="M60.57,65.62s-.26.31-.65.88a27.63,27.63,0,0,0-1.58,2.43,33.11,33.11,0,0,0-1.85,3.64,31.66,31.66,0,0,0-2.35,9A33.22,33.22,0,0,0,54,85.69c0,.6,0,1.15.07,1.63s.06.91.11,1.26c.09.69.14,1.09.14,1.09l-5.91.85s-.06-.47-.16-1.29c-.07-.41-.09-.92-.13-1.49S48,86.52,48,85.81A40.11,40.11,0,0,1,48.2,81a42.73,42.73,0,0,1,1-5.47A41.13,41.13,0,0,1,51,70.23a38.6,38.6,0,0,1,2.19-4.33c.72-1.22,1.38-2.2,1.87-2.87s.78-1.05.78-1.05Z"/><path class="cls-3" d="M55.2,93.9l.11.37c0,.22.17.55.3.93A27.66,27.66,0,0,0,56.69,98c.22.5.44,1,.68,1.44s.44.88.66,1.23l.49.85a2.83,2.83,0,0,0,.19.32L53.63,105s-.09-.13-.23-.37l-.58-1c-.25-.41-.5-.92-.78-1.45s-.55-1.13-.81-1.72A33.54,33.54,0,0,1,50,97.1c-.16-.46-.29-.84-.36-1.11l-.12-.43Z"/><path class="cls-3" d="M81.65,53.45l-.51.07c-.32,0-.78.13-1.34.23s-1.18.26-1.86.41-1.4.36-2.1.62A31,31,0,0,0,72,56.31l-1.2.61c-.3.15-.46.25-.46.25L67.47,52a6.13,6.13,0,0,1,.54-.29l1.43-.73A38.08,38.08,0,0,1,74,49.11c.84-.3,1.7-.51,2.5-.74S78,48,78.68,47.88s1.2-.22,1.59-.27l.6-.08Z"/><path class="cls-3" d="M61.24,105.35l.42.48c.26.32.66.78,1.2,1.33a32.76,32.76,0,0,0,4.86,4.14,30.94,30.94,0,0,0,3.67,2.19,29.79,29.79,0,0,0,4.4,1.84,32,32,0,0,0,20.38-.09,30.55,30.55,0,0,0,4.37-1.87,28.47,28.47,0,0,0,3.65-2.23A30.61,30.61,0,0,0,109,107c1.06-1.12,1.61-1.82,1.61-1.82l4.63,3.76s-.64.83-1.9,2.17a37.7,37.7,0,0,1-5.73,5,37.71,37.71,0,0,1-9.53,4.87,38,38,0,0,1-12.09,2,40.14,40.14,0,0,1-6.22-.48A37.71,37.71,0,0,1,73.91,121a37.35,37.35,0,0,1-9.58-4.78,37.91,37.91,0,0,1-5.77-4.91c-.64-.66-1.11-1.2-1.43-1.57l-.5-.58Z"/><path class="cls-3" d="M117.74,85.06s0-.66,0-1.82a35.42,35.42,0,0,0-.63-4.76A32,32,0,0,0,99.73,56.34a34.12,34.12,0,0,0-4.46-1.76L94,54.21l-.47-.11L95,48.3l.54.14,1.54.43a41.39,41.39,0,0,1,5.3,2.09,38.21,38.21,0,0,1,13.33,10.77,37.79,37.79,0,0,1,7.25,15.53,40.16,40.16,0,0,1,.74,5.64c.06,1.38.06,2.16.06,2.16Z"/><path class="cls-2" d="M62.22,72.12l-.09.13a2.48,2.48,0,0,0-.2.38l-.68,1.42a8.42,8.42,0,0,0-.44,1l-.4,1.1L60,77.27c-.1.41-.21.83-.32,1.25l-.32,1.25c-.09.41-.13.83-.2,1.23a16.4,16.4,0,0,0-.27,2.2c-.07,1.3-.11,2.16-.11,2.16H57.29s.05-.91.11-2.27a20.36,20.36,0,0,1,.29-2.32c.07-.42.12-.86.22-1.3s.22-.88.33-1.32.23-.88.35-1.32.3-.83.45-1.23.29-.79.42-1.16.33-.69.46-1L60.64,72a4.38,4.38,0,0,1,.22-.41L61,71.4Z"/><path class="cls-2" d="M107.32,101.87s.21-.27.56-.75a19.17,19.17,0,0,0,1.34-2.06l.41-.67c.14-.24.25-.5.38-.76L110.8,96c.24-.59.45-1.21.68-1.84a14,14,0,0,0,.58-1.94,29.64,29.64,0,0,0,.74-3.9c.06-.63.07-1.25.11-1.83a13.05,13.05,0,0,0,0-1.64c-.07-1-.08-1.87-.15-2.45l-.14-.93,1.44-.2s0,.35.15,1,.09,1.51.15,2.58a12.72,12.72,0,0,1,0,1.73c0,.61,0,1.26-.12,1.92a28.36,28.36,0,0,1-.78,4.12,15.46,15.46,0,0,1-.6,2c-.25.66-.48,1.32-.72,1.94l-.84,1.74c-.13.27-.25.55-.4.8l-.43.71a20.8,20.8,0,0,1-1.41,2.17l-.59.79Z"/><path class="cls-2" d="M111.89,77.85l-.08-.31a6.21,6.21,0,0,0-.27-.79c-.12-.33-.25-.71-.41-1.11a9.42,9.42,0,0,0-.5-1.26L110,73.16a7.64,7.64,0,0,0-.55-1l-.6-1,1.24-.77.63,1a9.46,9.46,0,0,1,.58,1.11l.62,1.28a11.15,11.15,0,0,1,.53,1.33c.16.42.3.82.43,1.17a5.76,5.76,0,0,1,.28.83c0,.21.08.32.08.32Z"/><path class="cls-2" d="M89.42,112.21,91,112a6.36,6.36,0,0,0,.75-.16l.83-.21.89-.23.45-.12.45-.16,1.75-.64c.56-.2,1-.49,1.48-.68l1-.5.28-.15.1-.06.71,1.27-.1.06a2,2,0,0,1-.3.16l-1.09.53c-.46.2-1,.5-1.56.71l-1.84.68-.47.17-.49.13-.93.24-.88.22a4.88,4.88,0,0,1-.79.17l-1.65.25Z"/><path class="cls-2" d="M106.77,68.11l-1.39-1.52a28.75,28.75,0,0,0-4.13-3.53c-.44-.34-1-.6-1.48-.93a12.86,12.86,0,0,0-1.64-.91l-1.79-.86-1.94-.71a28.92,28.92,0,0,0-8.66-1.39,27.92,27.92,0,0,0-8.65,1.47,26.69,26.69,0,0,0-6.82,3.47,23.68,23.68,0,0,0-2.4,1.92,18.21,18.21,0,0,0-1.7,1.64l-1,1.13a2.65,2.65,0,0,0-.35.41l-1.13-.92A3.87,3.87,0,0,1,64,67l1.08-1.19A20.26,20.26,0,0,1,66.91,64a26.41,26.41,0,0,1,2.52-2,28.43,28.43,0,0,1,7.19-3.66,30,30,0,0,1,9.11-1.55,30.41,30.41,0,0,1,9.13,1.47l2,.75c.65.3,1.27.61,1.88.9a14.31,14.31,0,0,1,1.73,1c.54.35,1.09.63,1.56,1a30.3,30.3,0,0,1,4.35,3.71l1.46,1.61Z"/><path class="cls-2" d="M58.75,85.36s0,.56.08,1.55a26.62,26.62,0,0,0,.5,4c.22.81.42,1.7.69,2.63l.52,1.4a10.2,10.2,0,0,0,.58,1.43,23.37,23.37,0,0,0,1.51,2.88c.3.46.56,1,.89,1.41l1,1.36a8.27,8.27,0,0,0,.51.66l.57.62c.38.42.75.84,1.13,1.24l1.21,1.1.6.55c.21.17.43.32.64.48l1.24.93a13.27,13.27,0,0,0,1.26.8l1.2.73c.4.21.8.39,1.18.57l1.09.53c.35.16.7.27,1,.39.65.23,1.2.45,1.67.61l1.5.38L79,113.06l-1.58-.4L75.66,112c-.34-.13-.71-.24-1.07-.41l-1.15-.55A28.52,28.52,0,0,1,63.38,103l-1.06-1.42c-.35-.48-.62-1-.94-1.49a27.49,27.49,0,0,1-1.59-3,11.48,11.48,0,0,1-.61-1.52q-.28-.75-.54-1.47c-.29-1-.51-1.92-.74-2.77A30.39,30.39,0,0,1,57.37,87c0-1-.08-1.63-.08-1.63Z"/><path class="cls-2" d="M74.63,125.61s.68.21,1.72.44c.52.12,1.12.27,1.78.37s1.35.26,2.06.33c1.4.2,2.82.29,3.89.35l1.77,0v2.3l-1.87,0c-1.12-.06-2.62-.16-4.1-.37-.75-.08-1.48-.23-2.17-.35s-1.33-.26-1.88-.39c-1.1-.24-1.81-.46-1.81-.46Z"/><path class="cls-2" d="M58.84,117.27l.37.32,1,.79c.41.34.92.7,1.47,1.08.27.2.54.4.84.59l.89.57c.59.4,1.2.75,1.78,1.08s1.13.62,1.6.86c1,.5,1.6.78,1.6.78l-1,2.09s-.69-.29-1.68-.82c-.5-.25-1.09-.55-1.69-.91s-1.26-.72-1.89-1.13l-.94-.61c-.31-.2-.6-.42-.88-.62-.58-.4-1.11-.78-1.55-1.14l-1.06-.84-.39-.33Z"/><path class="cls-2" d="M47.94,103.12s.07.16.21.44.34.67.59,1.14.55,1,.88,1.59.71,1.18,1.09,1.78c.77,1.19,1.62,2.34,2.28,3.16.33.43.61.77.81,1l.32.37-1.74,1.5-.34-.38c-.21-.25-.51-.61-.85-1.06a38.37,38.37,0,0,1-2.4-3.34c-.41-.63-.82-1.25-1.16-1.87s-.68-1.17-.93-1.68l-.62-1.2c-.15-.3-.22-.47-.22-.47Z"/><path class="cls-2" d="M44,85.71l0,1.77c0,.53.09,1.15.14,1.82s.16,1.36.25,2.07a42.23,42.23,0,0,0,1.21,5.54l-2.21.64a43.93,43.93,0,0,1-1.28-5.85c-.09-.74-.2-1.48-.27-2.18s-.1-1.35-.14-1.91l-.05-1.88Z"/><path class="cls-2" d="M47.54,68.21s-.31.64-.68,1.64c-.2.49-.43,1.07-.63,1.71s-.45,1.3-.63,2-.4,1.37-.53,2-.3,1.25-.38,1.78-.17,1-.23,1.26a4.09,4.09,0,0,0-.07.48l-2.28-.33a3.52,3.52,0,0,1,.08-.51c.06-.32.14-.78.24-1.33s.24-1.2.4-1.88.35-1.41.56-2.13.44-1.43.66-2.09.46-1.28.67-1.8c.4-1.06.72-1.73.72-1.73Z"/><path class="cls-2" d="M58.11,53.81l-.37.33c-.23.2-.54.51-.93.88l-.62.59-.66.7-.71.74-.7.8c-.23.27-.46.53-.68.8l-.64.81c-.2.27-.41.52-.59.76s-.34.48-.5.7c-.63.86-1,1.47-1,1.47l-1.92-1.26s.38-.64,1.05-1.55l.53-.73c.19-.26.4-.53.62-.8s.44-.56.67-.85.48-.57.72-.85.49-.57.73-.85.51-.53.75-.78l.7-.73.65-.63c.41-.39.74-.71,1-.93l.39-.34Z"/><path class="cls-2" d="M73.7,45.11s-.17,0-.46.14-.72.24-1.22.41-1.08.39-1.7.64-1.27.52-1.92.82-1.28.61-1.87.91-1.13.61-1.59.88-.85.48-1.11.65l-.41.27-1.24-1.95.44-.27c.27-.19.68-.41,1.16-.7s1.06-.61,1.68-.92,1.29-.67,2-1,1.36-.63,2-.87,1.26-.51,1.8-.68l1.29-.43L73,42.9Z"/><path class="cls-2" d="M91.51,43.7,91,43.64c-.31,0-.75-.11-1.28-.14l-1.81-.14-2.09,0-2.08,0L82,43.5c-.53,0-1,.11-1.28.14l-.48.06-.31-2.28.51-.06c.33,0,.79-.12,1.35-.15l1.91-.15,2.2-.05,2.2.05,1.91.15c.56,0,1,.11,1.35.15l.51.06Z"/><path class="cls-2" d="M108.28,49.83l-.41-.27c-.25-.17-.64-.38-1.1-.65s-1-.59-1.6-.88-1.22-.63-1.87-.91-1.29-.59-1.92-.82-1.19-.48-1.69-.64l-1.22-.41c-.3-.1-.47-.14-.47-.14l.66-2.21.5.15,1.28.44c.54.16,1.15.41,1.8.67s1.34.55,2,.87,1.35.64,2,1,1.19.65,1.68.92.89.51,1.17.7.43.27.43.27Z"/><path class="cls-2" d="M121,62.39s-.37-.61-1-1.47c-.15-.22-.32-.45-.5-.7l-.59-.76-.63-.8c-.22-.28-.46-.54-.69-.81l-.7-.8-.7-.74-.66-.7-.63-.59c-.38-.37-.7-.68-.93-.88l-.37-.33,1.53-1.72.38.34c.25.22.58.55,1,.93l.65.63.7.73c.25.25.49.52.75.78s.48.57.73.85.49.56.73.85l.67.85.62.8.52.73c.67.91,1.06,1.55,1.06,1.55Z"/><path class="cls-2" d="M127.32,79.08s0-.17-.08-.48-.13-.74-.22-1.26-.24-1.13-.39-1.78-.33-1.33-.53-2-.41-1.35-.63-2-.43-1.21-.63-1.71c-.37-1-.68-1.63-.68-1.63l2.1-.94s.33.67.72,1.73c.21.52.46,1.13.67,1.8s.47,1.37.66,2.09.42,1.44.56,2.13.32,1.32.41,1.88.17,1,.23,1.33a3.52,3.52,0,0,1,.08.51Z"/><path class="cls-2" d="M126.1,96.91a41.35,41.35,0,0,0,1.22-5.54c.08-.71.19-1.41.25-2.07s.1-1.29.13-1.82l0-1.77,2.31,0s0,.75-.06,1.88c0,.56-.09,1.21-.14,1.91s-.18,1.44-.27,2.18a43.93,43.93,0,0,1-1.28,5.85Z"/><path class="cls-2" d="M117.58,112.6l.32-.37c.21-.23.48-.57.81-1,.67-.83,1.51-2,2.28-3.17.38-.6.77-1.19,1.09-1.78s.65-1.11.89-1.59l.58-1.14a4.09,4.09,0,0,0,.21-.44l2.08,1s-.07.17-.22.47l-.62,1.2c-.24.51-.58,1.07-.93,1.68s-.75,1.24-1.15,1.88a39.58,39.58,0,0,1-2.41,3.33c-.34.45-.63.81-.85,1.06s-.34.39-.34.39Z"/><path class="cls-2" d="M103.3,123.33s.66-.27,1.6-.77c.47-.24,1-.52,1.6-.86s1.19-.68,1.78-1.08l.9-.57c.29-.19.56-.39.84-.59.54-.38,1-.74,1.46-1.08l1-.79.37-.32,1.49,1.76-.39.33-1.07.84c-.44.36-1,.74-1.54,1.14-.29.2-.58.42-.89.62l-.94.61c-.62.41-1.28.78-1.89,1.13s-1.18.66-1.68.91c-1,.53-1.69.82-1.69.82Z"/><path class="cls-2" d="M85.85,127.14l1.78,0c1.06-.06,2.48-.15,3.88-.35.71-.07,1.41-.22,2.06-.33s1.26-.25,1.78-.37c1-.23,1.72-.44,1.72-.44l.62,2.22s-.72.22-1.82.46c-.55.13-1.18.28-1.88.39s-1.42.27-2.17.35c-1.48.21-3,.31-4.1.37l-1.87,0Z"/><path class="cls-5" d="M76.82,66.5a7,7,0,1,1-7-7A7,7,0,0,1,76.82,66.5Z"/></g></g></g></svg>