<svg xmlns="http://www.w3.org/2000/svg" viewBox="0 0 36.82 331.65"><defs><style>.cls-1{fill:#065977;}</style></defs><title>资源 3</title><g id="图层_2" data-name="图层 2"><g id="Layer_1" data-name="Layer 1"><polygon class="cls-1" points="0.22 326.9 15.58 331.43 16.1 329.63 0.67 325.33 0.22 326.9"/><path class="cls-1" d="M0,327l15.71,4.62.61-2.15L.55,325.11Zm15.87,2.72-.41,1.46-15-4.43.35-1.23Z"/><polygon class="cls-1" points="8.84 325.8 16.57 327.89 16.92 326.59 9.18 324.53 8.84 325.8"/><path class="cls-1" d="M8.62,325.93l8.08,2.19.44-1.66-8.09-2.15Zm.69-1.18,7.39,2-.26,1-7.38-2Z"/><polygon class="cls-1" points="9.63 322.83 17.38 324.85 17.71 323.54 9.95 321.56 9.63 322.83"/><path class="cls-1" d="M9.41,323l8.1,2.1.42-1.65-8.1-2.07Zm.67-1.18,7.41,1.89-.24.95-7.4-1.92Z"/><polygon class="cls-1" points="10.38 319.86 18.15 321.8 18.48 320.5 10.71 318.58 10.38 319.86"/><path class="cls-1" d="M10.16,320l8.12,2,.42-1.65-8.12-2Zm.68-1.19,7.42,1.83-.24.95-7.42-1.86Z"/><polygon class="cls-1" points="11.12 316.87 18.9 318.76 19.21 317.46 11.43 315.59 11.12 316.87"/><path class="cls-1" d="M10.9,317,19,319l.4-1.66-8.14-1.94Zm.66-1.19L19,317.59l-.23,1-7.44-1.8Z"/><polygon class="cls-1" points="4.05 312.02 19.64 315.68 20.04 313.94 4.44 310.33 4.05 312.02"/><path class="cls-1" d="M3.83,312.15l16,3.75.47-2.09L4.3,310.12Zm16,1.93-.31,1.39L4.27,311.88l.3-1.33Z"/><polygon class="cls-1" points="12.63 310.44 20.43 312.22 20.73 310.92 12.92 309.16 12.63 310.44"/><path class="cls-1" d="M12.41,310.58l8.16,1.86.38-1.66L12.78,309Zm.64-1.2,7.47,1.67-.22,1-7.46-1.7Z"/><polygon class="cls-1" points="13.3 307.45 21.12 309.18 21.4 307.87 13.58 306.16 13.3 307.45"/><path class="cls-1" d="M13.09,307.58l8.17,1.81.36-1.66L13.44,306Zm.63-1.2L21.19,308,21,309l-7.47-1.65Z"/><polygon class="cls-1" points="13.95 304.44 21.78 306.13 22.06 304.82 14.23 303.16 13.95 304.44"/><path class="cls-1" d="M13.74,304.58l8.18,1.77.36-1.66L14.09,303Zm.63-1.21L21.85,305l-.21,1-7.47-1.61Z"/><polygon class="cls-1" points="14.59 301.44 22.43 303.08 22.7 301.77 14.86 300.15 14.59 301.44"/><path class="cls-1" d="M14.38,301.58l8.19,1.72.34-1.67-8.19-1.69Zm.62-1.22,7.49,1.55-.2,1-7.48-1.57Z"/><polygon class="cls-1" points="7.37 296.8 23.06 299.99 23.42 298.25 7.72 295.1 7.37 296.8"/><path class="cls-1" d="M7.16,296.94l16,3.27.43-2.1-16-3.22Zm.7-1.63,15.35,3.08-.29,1.39L7.58,296.65Z"/><polygon class="cls-1" points="15.91 294.97 23.77 296.52 24.02 295.21 16.16 293.68 15.91 294.97"/><path class="cls-1" d="M15.7,295.11l8.21,1.63.32-1.67L16,293.47Zm.6-1.22,7.51,1.47-.19.95-7.5-1.48Z"/><polygon class="cls-1" points="16.49 291.95 24.35 293.47 24.61 292.16 16.74 290.66 16.49 291.95"/><path class="cls-1" d="M16.28,292.1l8.22,1.58.32-1.67-8.22-1.56Zm.6-1.23,7.51,1.43-.18,1-7.51-1.45Z"/><polygon class="cls-1" points="17.07 288.94 24.94 290.41 25.19 289.1 17.31 287.64 17.07 288.94"/><path class="cls-1" d="M16.86,289.08l8.22,1.54L25.4,289l-8.23-1.52Zm.6-1.23L25,289.24l-.18,1-7.52-1.4Z"/><polygon class="cls-1" points="17.62 285.92 25.5 287.35 25.73 286.04 17.85 284.62 17.62 285.92"/><path class="cls-1" d="M17.41,286.06l8.24,1.5.29-1.67-8.23-1.48Zm.59-1.23,7.53,1.35-.17,1-7.53-1.37Z"/><polygon class="cls-1" points="10.28 281.46 26.05 284.25 26.37 282.5 10.59 279.75 10.28 281.46"/><path class="cls-1" d="M10.44,279.55l-.36,2.06,16.12,2.85.38-2.11-16-2.78Zm15.72,3.1L25.91,284l-15.42-2.73.24-1.35Z"/><polygon class="cls-1" points="18.78 279.42 26.67 280.77 26.89 279.45 18.99 278.12 18.78 279.42"/><path class="cls-1" d="M18.57,279.56,26.82,281l.27-1.67-8.24-1.4Zm.57-1.24,7.54,1.28-.16,1L19,279.27Z"/><polygon class="cls-1" points="19.28 276.38 27.18 277.7 27.39 276.38 19.49 275.09 19.28 276.38"/><path class="cls-1" d="M19.07,276.53l8.26,1.38.27-1.67-8.26-1.36Zm.57-1.24,7.55,1.24-.16,1-7.54-1.25Z"/><polygon class="cls-1" points="19.78 273.35 27.68 274.63 27.9 273.32 19.99 272.06 19.78 273.35"/><path class="cls-1" d="M19.57,273.5l8.26,1.34.28-1.67-8.27-1.32Zm.57-1.24,7.55,1.21-.15,1L20,273.2Z"/><polygon class="cls-1" points="20.27 270.32 28.18 271.56 28.38 270.24 20.47 269.02 20.27 270.32"/><path class="cls-1" d="M20.07,270.47l8.26,1.3.25-1.68-8.26-1.28Zm.55-1.25,7.55,1.17-.14,1-7.56-1.19Z"/><polygon class="cls-1" points="12.82 266.04 28.65 268.45 28.91 266.69 13.07 264.33 12.82 266.04"/><path class="cls-1" d="M12.61,266.19l16.19,2.47.32-2.12-16.2-2.42Zm.62-1.66,15.48,2.32-.21,1.4L13,265.89Z"/><polygon class="cls-1" points="21.25 263.79 29.18 264.96 29.37 263.64 21.45 262.49 21.25 263.79"/><path class="cls-1" d="M21.05,263.94l8.28,1.22.25-1.67-8.28-1.2Zm.55-1.25,7.57,1.1-.15,1-7.56-1.11Z"/><polygon class="cls-1" points="21.7 260.75 29.63 261.88 29.81 260.56 21.88 259.45 21.7 260.75"/><path class="cls-1" d="M21.5,260.91l8.28,1.17.23-1.67-8.29-1.16Zm.53-1.26,7.58,1.06-.14,1L21.9,260.6Z"/><polygon class="cls-1" points="22.11 257.71 30.05 258.8 30.23 257.48 22.29 256.4 22.11 257.71"/><path class="cls-1" d="M21.91,257.86,30.2,259l.23-1.67-8.29-1.13Zm.54-1.25,7.57,1-.13,1-7.57-1.05Z"/><polygon class="cls-1" points="22.53 254.66 30.46 255.72 30.64 254.4 22.7 253.36 22.53 254.66"/><path class="cls-1" d="M22.33,254.82l8.29,1.1.23-1.67-8.3-1.09Zm.53-1.26,7.58,1-.13,1-7.58-1Z"/><polygon class="cls-1" points="15 250.56 30.89 252.6 31.1 250.84 15.21 248.84 15 250.56"/><path class="cls-1" d="M14.8,250.72,31,252.81l.26-2.12-16.24-2.05Zm.57-1.68,15.53,2-.17,1.4-15.53-2Z"/><polygon class="cls-1" points="23.37 248.12 31.31 249.1 31.47 247.78 23.52 246.81 23.37 248.12"/><path class="cls-1" d="M23.17,248.27l8.3,1,.2-1.68-8.3-1Zm.51-1.26,7.59.92-.11,1L23.57,248Z"/><polygon class="cls-1" points="23.73 245.07 31.68 246.01 31.84 244.69 23.89 243.76 23.73 245.07"/><path class="cls-1" d="M23.53,245.22l8.31,1,.2-1.68-8.3-1Zm.52-1.26,7.59.89-.11,1-7.6-.9Z"/><polygon class="cls-1" points="24.1 242.02 32.06 242.93 32.22 241.6 24.26 240.71 24.1 242.02"/><path class="cls-1" d="M23.9,242.17l8.32,1,.19-1.68-8.31-.94Zm.51-1.26,7.6.85-.11,1-7.6-.87Z"/><polygon class="cls-1" points="24.44 238.96 32.4 239.84 32.54 238.51 24.58 237.65 24.44 238.96"/><path class="cls-1" d="M24.24,239.12l8.32.92.18-1.69-8.32-.9Zm.5-1.27,7.6.82-.1,1-7.6-.84Z"/><polygon class="cls-1" points="16.8 235.03 32.73 236.71 32.91 234.94 16.98 233.3 16.8 235.03"/><path class="cls-1" d="M16.6,235.19l16.29,1.72.22-2.13-16.29-1.67Zm.54-1.69,15.57,1.61-.14,1.4L17,234.87Z"/><polygon class="cls-1" points="25.13 232.4 33.1 233.2 33.23 231.87 25.27 231.09 25.13 232.4"/><path class="cls-1" d="M24.93,232.56l8.33.83.17-1.68-8.32-.82Zm.5-1.28L33,232l-.1,1-7.61-.76Z"/><polygon class="cls-1" points="25.44 229.34 33.41 230.11 33.53 228.78 25.56 228.03 25.44 229.34"/><path class="cls-1" d="M25.25,229.5l8.33.8.14-1.68-8.33-.79Zm.47-1.28,7.61.72-.08,1-7.61-.73Z"/><polygon class="cls-1" points="25.71 226.28 33.69 227.01 33.8 225.69 25.83 224.97 25.71 226.28"/><path class="cls-1" d="M25.52,226.44l8.33.77.15-1.69-8.34-.75Zm.47-1.28,7.62.69-.09,1-7.61-.7Z"/><polygon class="cls-1" points="25.98 223.22 33.96 223.92 34.08 222.59 26.1 221.91 25.98 223.22"/><path class="cls-1" d="M25.79,223.38l8.33.73.15-1.68-8.33-.72Zm.47-1.28,7.62.65-.08,1-7.62-.66Z"/><polygon class="cls-1" points="18.28 219.46 34.24 220.78 34.39 219.01 18.43 217.73 18.28 219.46"/><path class="cls-1" d="M18.27,217.54l-.19,2.09L34.22,221l.18,0,.19-2.13-16.15-1.3Zm.32.39,15.61,1.25-.13,1.41-15.6-1.29Z"/><polygon class="cls-1" points="26.54 216.64 34.52 217.26 34.62 215.94 26.63 215.33 26.54 216.64"/><path class="cls-1" d="M26.35,216.81l8.34.65.12-1.69-8.35-.64Zm.45-1.29,7.62.58-.06,1-7.63-.59Z"/><polygon class="cls-1" points="26.76 213.58 34.74 214.16 34.84 212.84 26.85 212.26 26.76 213.58"/><path class="cls-1" d="M26.56,213.74l8.35.62.12-1.69-8.35-.6Zm.46-1.28,7.63.54-.07,1L27,213.41Z"/><polygon class="cls-1" points="26.98 210.51 34.97 211.06 35.06 209.74 27.07 209.2 26.98 210.51"/><path class="cls-1" d="M26.78,210.68l8.35.58.12-1.69L26.9,209Zm.46-1.29,7.63.51-.07,1-7.63-.53Z"/><polygon class="cls-1" points="27.2 207.45 35.19 207.97 35.28 206.64 27.29 206.13 27.2 207.45"/><path class="cls-1" d="M27,207.62l8.35.54.12-1.69-8.35-.53Zm.46-1.29,7.63.47-.07,1-7.63-.49Z"/><polygon class="cls-1" points="19.39 203.86 35.38 204.83 35.47 203.05 19.48 202.13 19.39 203.86"/><path class="cls-1" d="M19.2,204l16.17,1h.18l.11-2.14-16.35-.94Zm.46-1.71,15.62.9-.07,1.42-15.63-.94Z"/><polygon class="cls-1" points="27.57 200.86 35.57 201.3 35.64 199.97 27.64 199.54 27.57 200.86"/><path class="cls-1" d="M27.38,201l8.36.46.09-1.69-8.36-.45Zm.43-1.3,7.64.41-.05,1-7.64-.42Z"/><polygon class="cls-1" points="27.74 197.79 35.73 198.19 35.81 196.87 27.81 196.47 27.74 197.79"/><path class="cls-1" d="M27.55,198l8.36.42.09-1.69-8.36-.4Zm.43-1.3,7.64.38-.06,1-7.63-.39Z"/><path class="cls-1" d="M27.94,194.06l0,.66,8,.37,0-.66,0-.67-8-.35S28,193.74,27.94,194.06Z"/><path class="cls-1" d="M27.71,194.89l8.36.39.09-1.69-8.36-.37Zm.43-1.3,7.64.34-.05,1-7.64-.35Z"/><polygon class="cls-1" points="28.03 191.65 36.03 191.99 36.08 190.66 28.08 190.34 28.03 191.65"/><path class="cls-1" d="M27.85,191.82l8.36.35.06-1.69-8.37-.33Zm.4-1.3,7.64.31,0,1-7.64-.32Z"/><polygon class="cls-1" points="20.14 188.25 36.14 188.84 36.21 187.07 20.2 186.51 20.14 188.25"/><path class="cls-1" d="M20,188.42l16.37.61.07-2.13L20,186.33Zm.42-1.72,15.65.54L36,188.66l-15.64-.59Z"/><polygon class="cls-1" points="28.27 185.06 36.27 185.31 36.32 183.98 28.31 183.74 28.27 185.06"/><path class="cls-1" d="M28.08,185.23l8.36.27.06-1.69-8.36-.26Zm.41-1.31,7.64.24,0,1-7.65-.25Z"/><polygon class="cls-1" points="28.37 181.98 36.38 182.21 36.42 180.88 28.42 180.67 28.37 181.98"/><path class="cls-1" d="M28.19,182.16l8.36.23.06-1.69-8.36-.22Zm.4-1.31,7.65.2,0,1-7.65-.21Z"/><polygon class="cls-1" points="28.45 178.91 36.45 179.1 36.48 177.77 28.47 177.6 28.45 178.91"/><path class="cls-1" d="M28.27,179.09l8.36.2,0-1.7-8.37-.18Zm.38-1.31,7.64.17v1l-7.65-.18Z"/><polygon class="cls-1" points="28.5 175.84 36.51 175.99 36.53 174.66 28.52 174.52 28.5 175.84"/><path class="cls-1" d="M28.32,176l8.36.16,0-1.7-8.37-.14Zm.38-1.31,7.64.13v1l-7.65-.15Z"/><polygon class="cls-1" points="20.54 172.62 36.56 172.85 36.59 171.07 20.57 170.88 20.54 172.62"/><path class="cls-1" d="M20.36,172.8l16.37.23,0-2.14-16.38-.19Zm.39-1.74,15.65.19,0,1.42-15.65-.23Z"/><polygon class="cls-1" points="28.61 169.24 36.62 169.32 36.64 167.98 28.63 167.92 28.61 169.24"/><path class="cls-1" d="M28.42,169.42l8.37.08,0-1.7-8.37-.06Zm.39-1.31,7.64,0v1l-7.65-.07Z"/><polygon class="cls-1" points="28.63 164.85 28.63 166.17 36.64 166.21 36.64 164.88 28.63 164.85"/><path class="cls-1" d="M28.45,164.67v1.68l8.37,0V164.7Zm.36,1.32v-1l7.65,0v1Z"/><polygon class="cls-1" points="28.62 161.78 28.62 163.1 36.63 163.1 36.63 161.77 28.62 161.78"/><path class="cls-1" d="M28.44,161.6v1.68h8.37v-1.69Zm.36,1.32v-1h7.65v1Z"/><polygon class="cls-1" points="28.61 158.71 28.61 160.02 36.62 159.99 36.62 158.66 28.61 158.71"/><path class="cls-1" d="M28.43,158.53v1.67l8.37,0v-1.69Zm.36,1.31v-1l7.65,0v1Z"/><polygon class="cls-1" points="20.59 155.25 20.59 156.99 36.61 156.84 36.6 155.07 20.59 155.25"/><path class="cls-1" d="M20.41,155.07v2.1L36.79,157v-2.14Zm.36,1.73v-1.37l15.65-.18v1.42Z"/><polygon class="cls-1" points="28.55 152.1 28.58 153.42 36.59 153.31 36.56 151.98 28.55 152.1"/><path class="cls-1" d="M28.37,151.93l0,1.67,8.37-.11-.05-1.69Zm.39,1.31,0-1,7.64-.12,0,1Z"/><polygon class="cls-1" points="28.48 149.03 28.51 150.35 36.52 150.2 36.48 148.87 28.48 149.03"/><path class="cls-1" d="M28.29,148.86l0,1.67,8.37-.15,0-1.69Zm.4,1.31,0-1,7.65-.16,0,1Z"/><polygon class="cls-1" points="28.4 145.96 28.43 147.28 36.44 147.09 36.41 145.76 28.4 145.96"/><path class="cls-1" d="M28.22,145.79l0,1.67,8.36-.19,0-1.69Zm.39,1.31,0-1,7.64-.19,0,1Z"/><polygon class="cls-1" points="28.33 142.89 28.36 144.21 36.37 143.98 36.33 142.65 28.33 142.89"/><path class="cls-1" d="M28.15,142.72l0,1.67,8.36-.23,0-1.69Zm.39,1.3,0-1,7.65-.23,0,1Z"/><path class="cls-1" d="M36.24,139.06l-16,.57s0,.43,0,.86l0,.87,16-.52,0-.89C36.26,139.51,36.24,139.06,36.24,139.06Z"/><path class="cls-1" d="M36.42,139.05v-.17l-16.36.57v.19s0,.43,0,.86l0,1.05L36.47,141l0-1.06C36.44,139.5,36.42,139.05,36.42,139.05Zm-16,2.12,0-.68c0-.26,0-.52,0-.69l15.65-.55c0,.17,0,.44,0,.71l0,.71Z"/><polygon class="cls-1" points="28.1 136.29 28.16 137.61 36.16 137.31 36.1 135.98 28.1 136.29"/><path class="cls-1" d="M27.91,136.12,28,137.8l8.36-.32-.08-1.69Zm.42,1.3,0-.95,7.64-.31,0,1Z"/><polygon class="cls-1" points="27.96 133.23 28.02 134.54 36.02 134.2 35.96 132.87 27.96 133.23"/><path class="cls-1" d="M27.77,133.05l.08,1.68,8.36-.36-.08-1.69Zm.42,1.3,0-.95,7.64-.34,0,1Z"/><polygon class="cls-1" points="27.82 130.16 27.88 131.47 35.88 131.09 35.81 129.76 27.82 130.16"/><path class="cls-1" d="M27.63,130l.08,1.67,8.35-.4L36,129.57Zm.42,1.29,0-.95,7.63-.38,0,1Z"/><polygon class="cls-1" points="27.68 127.09 27.74 128.4 35.73 127.99 35.67 126.66 27.68 127.09"/><path class="cls-1" d="M27.49,126.92l.08,1.67,8.35-.43-.07-1.69Zm.42,1.29,0-1,7.63-.42,0,1Z"/><polygon class="cls-1" points="19.48 124.02 19.6 125.75 35.59 124.84 35.47 123.07 19.48 124.02"/><path class="cls-1" d="M19.29,123.85l.14,2.09L35.78,125l-.14-2.13Zm.48,1.71-.1-1.37,15.63-.93.1,1.41Z"/><polygon class="cls-1" points="27.27 120.5 27.36 121.81 35.35 121.31 35.26 119.98 27.27 120.5"/><path class="cls-1" d="M27.08,120.33l.11,1.67,8.35-.52-.11-1.69Zm.45,1.29-.07-1,7.63-.49.07,1Z"/><polygon class="cls-1" points="27.06 117.43 27.15 118.75 35.14 118.21 35.05 116.88 27.06 117.43"/><path class="cls-1" d="M26.87,117.27l.11,1.67,8.35-.56-.12-1.69Zm.45,1.29-.07-1,7.63-.53.07,1Z"/><polygon class="cls-1" points="26.85 114.37 26.94 115.68 34.93 115.11 34.84 113.78 26.85 114.37"/><path class="cls-1" d="M26.66,114.2l.11,1.67,8.35-.6L35,113.59Zm.45,1.29-.07-.95,7.63-.57.06,1Z"/><polygon class="cls-1" points="26.64 111.3 26.73 112.62 34.72 112 34.62 110.67 26.64 111.3"/><path class="cls-1" d="M26.45,111.14l.11,1.67,8.35-.64-.12-1.69Zm.45,1.28-.07-1,7.63-.6.06,1Z"/><polygon class="cls-1" points="18.35 108.44 18.51 110.17 34.47 108.87 34.31 107.1 18.35 108.44"/><path class="cls-1" d="M18.16,108.28l.19,2.08L34.67,109l-.2-2.13Zm.51,1.69-.12-1.36,15.6-1.32.13,1.41Z"/><polygon class="cls-1" points="26.05 104.73 26.17 106.04 34.15 105.34 34.03 104.02 26.05 104.73"/><path class="cls-1" d="M25.86,104.56l.15,1.67,8.34-.72-.16-1.69Zm.48,1.28-.09-1,7.62-.68.09,1Z"/><polygon class="cls-1" points="25.77 101.67 25.89 102.98 33.87 102.25 33.74 100.92 25.77 101.67"/><path class="cls-1" d="M25.58,101.51l.15,1.67,8.33-.77-.15-1.69Zm.48,1.27-.09-1,7.61-.72.09,1Z"/><polygon class="cls-1" points="25.49 98.61 25.61 99.92 33.58 99.15 33.46 97.82 25.49 98.61"/><path class="cls-1" d="M25.3,98.45l.15,1.67,8.33-.81-.16-1.69Zm.48,1.27-.09-1L33.3,98l.09,1Z"/><path class="cls-1" d="M33.17,94.72l-8,.83.06.66.06.65,8-.81-.06-.67C33.21,95.05,33.17,94.72,33.17,94.72Z"/><path class="cls-1" d="M25.12,95.38l-.1.15v.08c0,.09,0,.35.06.61l.08.84,8.32-.85-.07-.84c0-.22-.05-.45-.06-.59l.26-.29Zm.38,1.28-.05-.47c0-.17,0-.34,0-.48l7.6-.79c0,.13,0,.3.05.48l0,.49Z"/><polygon class="cls-1" points="16.84 92.9 17.04 94.62 32.96 92.92 32.76 91.15 16.84 92.9"/><path class="cls-1" d="M16.64,92.74l.24,2.08,16.28-1.74L32.91,91Zm.56,1.68L17,93.06,32.6,91.35l.16,1.41Z"/><polygon class="cls-1" points="24.45 88.99 24.6 90.3 32.55 89.4 32.4 88.08 24.45 88.99"/><path class="cls-1" d="M24.25,88.84l.19,1.66,8.31-.94-.19-1.68Zm.5,1.26-.11-.95,7.6-.87.11,1Z"/><polygon class="cls-1" points="24.09 85.94 24.24 87.25 32.19 86.31 32.04 84.99 24.09 85.94"/><path class="cls-1" d="M23.89,85.78l.19,1.67,8.31-1-.19-1.68Zm.51,1.27-.11-1,7.59-.91.12,1Z"/><polygon class="cls-1" points="23.73 82.89 23.89 84.2 31.84 83.22 31.68 81.89 23.73 82.89"/><path class="cls-1" d="M23.54,82.73l.19,1.67,8.31-1-.2-1.69ZM24,84l-.11-1,7.59-1,.12,1Z"/><path class="cls-1" d="M31.3,78.81l-7.94,1s.05.33.09.65l.08.66,8-1-.08-.66Z"/><path class="cls-1" d="M23.16,79.68l.21,1.67,8.31-1.07-.22-1.67Zm.53,1.26L23.57,80l7.58-1,.13,1Z"/><polygon class="cls-1" points="14.93 77.41 15.17 79.12 31.05 77.01 30.8 75.25 14.93 77.41"/><path class="cls-1" d="M14.72,77.25l.3,2.07,16.23-2.16L31,75Zm.61,1.67-.2-1.36,15.51-2.11.2,1.4Z"/><polygon class="cls-1" points="22.43 73.3 22.62 74.61 30.55 73.5 30.36 72.18 22.43 73.3"/><path class="cls-1" d="M22.23,73.15l.24,1.66,8.28-1.15L30.52,72Zm.54,1.25-.13-.94,7.57-1.07.14,1Z"/><polygon class="cls-1" points="22 70.26 22.19 71.56 30.11 70.42 29.92 69.1 22 70.26"/><path class="cls-1" d="M21.8,70.11,22,71.77l8.29-1.2-.24-1.67Zm.54,1.25-.13-1,7.56-1.11.14,1Z"/><polygon class="cls-1" points="21.57 67.22 21.75 68.52 29.67 67.34 29.49 66.02 21.57 67.22"/><path class="cls-1" d="M21.37,67.07l.23,1.66,8.28-1.24-.24-1.68Zm.54,1.25-.14-.95,7.56-1.15.14,1Z"/><path class="cls-1" d="M29,62.94l-7.91,1.24s.05.33.11.65.1.65.1.65l7.92-1.22s0-.33-.11-.66S29,62.94,29,62.94Z"/><path class="cls-1" d="M29.31,63.57l-.14-.83L20.9,64l.14.83c.06.32.1.65.1.65l0,.18,8.27-1.28,0-.18S29.37,63.9,29.31,63.57Zm-7.84,1.71c0-.13,0-.3-.07-.48l-.08-.47,7.55-1.18.09.48c0,.18.05.35.07.48Z"/><polygon class="cls-1" points="12.62 61.98 12.9 63.68 28.72 61.15 28.42 59.4 12.62 61.98"/><path class="cls-1" d="M12.41,61.83l.35,2.06L28.93,61.3l-.36-2.11Zm.64,1.65-.23-1.36L28.27,59.6l.24,1.4Z"/><polygon class="cls-1" points="20.01 57.67 20.23 58.97 28.13 57.66 27.91 56.34 20.01 57.67"/><path class="cls-1" d="M19.8,57.53l.28,1.65,8.26-1.37-.29-1.68Zm.58,1.23-.16-.94,7.54-1.27.16,1Z"/><polygon class="cls-1" points="19.5 54.64 19.72 55.94 27.61 54.59 27.39 53.27 19.5 54.64"/><path class="cls-1" d="M19.29,54.5l.28,1.65,8.25-1.42-.28-1.67Zm.58,1.23-.16-.94,7.53-1.31.16,1Z"/><polygon class="cls-1" points="18.99 51.61 19.21 52.91 27.09 51.52 26.87 50.2 18.99 51.61"/><path class="cls-1" d="M18.78,51.47l.28,1.65,8.24-1.46L27,50Zm.57,1.23-.16-.94,7.53-1.35.16,1Z"/><path class="cls-1" d="M26.32,47.14l-7.87,1.45.12.65c.07.32.12.64.12.64l7.88-1.43s-.05-.33-.12-.66S26.32,47.14,26.32,47.14Z"/><path class="cls-1" d="M26.63,47.76l-.17-.83-8.23,1.52.17.82.12.64,0,.18,8.06-1.47,0-.18.16,0C26.73,48.3,26.68,48,26.63,47.76Zm-7.79,1.91c0-.12-.05-.29-.09-.47l-.09-.47,7.52-1.39.09.49c0,.17.07.35.09.47Z"/><polygon class="cls-1" points="9.89 46.61 10.23 48.31 25.97 45.35 25.63 43.6 9.89 46.61"/><path class="cls-1" d="M9.68,46.47l.41,2.05,16.09-3-.41-2.1Zm.69,1.63-.26-1.34,15.37-2.94.28,1.39Z"/><polygon class="cls-1" points="17.17 42.11 17.42 43.41 25.28 41.88 25.03 40.57 17.17 42.11"/><path class="cls-1" d="M17,42l.32,1.65L25.5,42l-.33-1.66Zm.61,1.22-.19-.94,7.5-1.47.19,1Z"/><polygon class="cls-1" points="16.57 39.1 16.83 40.39 24.68 38.82 24.42 37.51 16.57 39.1"/><path class="cls-1" d="M16.36,39l.33,1.64L24.89,39l-.32-1.66ZM17,40.18l-.18-.94,7.49-1.52.19,1Z"/><polygon class="cls-1" points="15.98 36.09 16.23 37.38 24.08 35.77 23.82 34.46 15.98 36.09"/><path class="cls-1" d="M15.77,36l.32,1.64,8.2-1.68L24,34.24Zm.61,1.21-.19-.94,7.49-1.55.19.95Z"/><path class="cls-1" d="M23.19,31.41l-7.83,1.67s.07.32.15.64.13.64.13.64l7.84-1.65s-.06-.33-.14-.65Z"/><path class="cls-1" d="M23.33,31.19l-8.18,1.75.18.82c.08.31.13.63.13.63l0,.19,8.08-1.71,0,0c.05-.07.07-.09-.1-.8Zm-7.55,3c0-.13-.06-.3-.1-.47l-.1-.47,7.48-1.59.1.48c.05.17.08.35.11.47Z"/><polygon class="cls-1" points="6.76 31.34 7.14 33.02 22.79 29.63 22.4 27.89 6.76 31.34"/><path class="cls-1" d="M6.54,31.2l.46,2,16-3.47-.48-2.09Zm.74,1.61L7,31.47l15.29-3.36.32,1.38Z"/><polygon class="cls-1" points="13.9 26.64 14.19 27.92 22.01 26.18 21.71 24.88 13.9 26.64"/><path class="cls-1" d="M13.69,26.5l.37,1.64,8.16-1.83-.37-1.65Zm.64,1.21-.21-.94,7.46-1.68.21.95Z"/><polygon class="cls-1" points="13.22 23.64 13.51 24.93 21.32 23.14 21.02 21.84 13.22 23.64"/><path class="cls-1" d="M13,23.51l.37,1.63,8.15-1.87-.37-1.65Zm.64,1.2-.21-.93,7.45-1.73.21.95Z"/><polygon class="cls-1" points="12.54 20.64 12.83 21.93 20.63 20.1 20.33 18.8 12.54 20.64"/><path class="cls-1" d="M12.33,20.51l.37,1.64,8.14-1.92-.37-1.65Zm.64,1.2-.21-.93L20.2,19l.21.95Z"/><path class="cls-1" d="M19.63,15.76l-7.78,1.89s.09.32.16.64l.14.64,7.79-1.87s-.07-.32-.15-.65S19.63,15.76,19.63,15.76Z"/><path class="cls-1" d="M19.8,15.71l0-.16-8.13,2,0,.18s.08.31.15.63l.19.82,8.13-2L20,16.37C19.89,16,19.8,15.71,19.8,15.71Zm-7.51,3-.11-.47c0-.17-.08-.34-.11-.47L19.5,16c0,.12.08.29.12.47l.1.48Z"/><polygon class="cls-1" points="3.19 16.16 3.63 17.83 19.18 14 18.73 12.28 3.19 16.16"/><path class="cls-1" d="M3,16l.53,2,15.9-3.92-.54-2.07Zm.79,1.59-.35-1.33,15.19-3.8L19,13.87Z"/><polygon class="cls-1" points="10.2 11.26 10.53 12.54 18.29 10.57 17.96 9.28 10.2 11.26"/><path class="cls-1" d="M10,11.13l.42,1.62,8.11-2.05-.42-1.64Zm.68,1.19-.24-.93,7.41-1.9.24.95Z"/><polygon class="cls-1" points="9.43 8.29 9.76 9.56 17.51 7.55 17.18 6.26 9.43 8.29"/><path class="cls-1" d="M9.21,8.16l.42,1.62,8.1-2.1L17.31,6Zm.68,1.18-.24-.93,7.4-1.93.24.94Z"/><polygon class="cls-1" points="8.66 5.31 8.99 6.59 16.73 4.53 16.4 3.24 8.66 5.31"/><path class="cls-1" d="M8.45,5.18l.41,1.63L17,4.66,16.53,3Zm.67,1.19-.24-.93,7.39-2,.24,1Z"/><polygon class="cls-1" points="7.9 2.34 8.23 3.61 15.95 1.51 15.62 0.22 7.9 2.34"/><path class="cls-1" d="M7.68,2.21,8.1,3.83l8.07-2.19L15.75,0Zm.67,1.18-.23-.93,7.37-2,.25,1Z"/></g></g></svg>