<svg xmlns="http://www.w3.org/2000/svg" xmlns:xlink="http://www.w3.org/1999/xlink" viewBox="0 0 81 81"><defs><style>.cls-1{fill:none;stroke:#00b0ff;stroke-miterlimit:10;}.cls-2{fill:url(#linear-gradient);}.cls-3{fill:url(#linear-gradient-2);}.cls-4{fill:#00b0ff;}</style><linearGradient id="linear-gradient" x1="50.2" y1="36.43" x2="24.7" y2="32.43" gradientUnits="userSpaceOnUse"><stop offset="0"/><stop offset="0.1" stop-color="#000e14"/><stop offset="0.3" stop-color="#003349"/><stop offset="0.59" stop-color="#006d9e"/><stop offset="0.89" stop-color="#00b0ff"/></linearGradient><linearGradient id="linear-gradient-2" x1="180.51" y1="23.81" x2="155" y2="19.81" gradientTransform="translate(211.31 68.38) rotate(180)" xlink:href="#linear-gradient"/></defs><title>资源 6</title><g id="图层_2" data-name="图层 2"><g id="Layer_1" data-name="Layer 1"><circle class="cls-1" cx="40.5" cy="40.5" r="40"/><circle class="cls-1" cx="40.5" cy="40.5" r="35"/><circle class="cls-1" cx="40.5" cy="40.5" r="30"/><circle class="cls-1" cx="40.5" cy="40.5" r="25"/><circle class="cls-1" cx="40.5" cy="40.5" r="20"/><circle class="cls-1" cx="40.5" cy="40.5" r="15"/><path class="cls-2" d="M27.88,40.31a12.62,12.62,0,1,1,25.24,0h-3a9.62,9.62,0,1,0-19.24,0Z"/><path class="cls-3" d="M53.12,40.69a12.62,12.62,0,0,1-25.24,0h3a9.62,9.62,0,0,0,19.24,0Z"/><path class="cls-4" d="M40.5,46.94a6.44,6.44,0,1,1,6.44-6.44A6.45,6.45,0,0,1,40.5,46.94Z"/><circle class="cls-4" cx="76.74" cy="57.77" r="2.5"/><circle class="cls-4" cx="18.47" cy="74.25" r="4"/><circle class="cls-4" cx="21.05" cy="56.2" r="2"/><circle class="cls-4" cx="5.43" cy="39.43" r="3"/><circle class="cls-4" cx="65.63" cy="24.18" r="2.25"/><circle class="cls-4" cx="34.12" cy="6.2" r="3.5"/></g></g></svg>