<svg xmlns="http://www.w3.org/2000/svg" viewBox="0 0 680.84 468.5"><defs><style>.cls-1{fill:#fff;}.cls-2{opacity:0.2;}.cls-3{fill:#29abe2;}.cls-4{opacity:0.3;}.cls-5{opacity:0.5;}.cls-6{opacity:0.4;}.cls-7{fill:aqua;}</style></defs><title>资源 4</title><g id="图层_2" data-name="图层 2"><g id="Layer_1" data-name="Layer 1"><path class="cls-1" d="M339.17,357.5h0c-.68,0-1.35-.09-2-.11a1.54,1.54,0,0,1-1.46-1.58,1.51,1.51,0,0,1,1.54-1.47l2,0a1.57,1.57,0,0,1,0,3.13Zm4,0a1.56,1.56,0,0,1-1.5-1.55,1.53,1.53,0,0,1,1.47-1.57c.65,0,1.31-.05,2-.08a1.48,1.48,0,0,1,1.55,1.44,1.56,1.56,0,0,1-1.44,1.63c-.67,0-1.34.13-2,.13Zm-10-.36h-.09l-2-.14a1.5,1.5,0,1,1,.23-3l2,.14a1.5,1.5,0,0,1-.09,3Zm15.92-.07a1.5,1.5,0,0,1-.1-3l2-.16a1.5,1.5,0,0,1,.26,3l-2,.16Zm-21.87-.43h-.17l-2-.24a1.5,1.5,0,0,1,.38-3c.65.09,1.3.16,2,.23a1.5,1.5,0,0,1-.16,3Zm27.82-.13a1.5,1.5,0,0,1-.18-3c.66-.07,1.31-.16,2-.25a1.5,1.5,0,0,1,.4,3l-2,.25Zm-33.74-.67-.24,0-2-.34a1.5,1.5,0,1,1,.52-3l1.95.32a1.51,1.51,0,0,1-.24,3Zm39.65-.18a1.5,1.5,0,0,1-.25-3l1.94-.35a1.5,1.5,0,0,1,.55,2.95c-.66.13-1.32.24-2,.36Zm-45.53-.92-.31,0-2-.43a1.5,1.5,0,0,1,.67-2.93l1.92.43a1.5,1.5,0,0,1-.31,3Zm51.4-.23a1.5,1.5,0,0,1-.32-3l1.91-.44a1.5,1.5,0,1,1,.7,2.91l-2,.46A1.66,1.66,0,0,1,366.85,354.51Zm-57.21-1.15a1.65,1.65,0,0,1-.38-.05l-1.95-.53a1.5,1.5,0,1,1,.82-2.89l1.89.52a1.5,1.5,0,0,1-.38,2.95Zm63-.28A1.51,1.51,0,0,1,371.2,352a1.49,1.49,0,0,1,1.05-1.84c.64-.17,1.27-.35,1.9-.54a1.5,1.5,0,1,1,.84,2.88l-1.94.55A1.44,1.44,0,0,1,372.65,353.08Zm-68.75-1.39a1.76,1.76,0,0,1-.45-.07l-1.93-.64a1.5,1.5,0,0,1,1-2.84l1.88.62a1.5,1.5,0,0,1-.46,2.93Zm74.47-.34a1.5,1.5,0,0,1-.47-2.92l1.87-.63a1.5,1.5,0,1,1,1,2.83l-1.91.65A1.49,1.49,0,0,1,378.37,351.35Zm-80.13-1.63a1.64,1.64,0,0,1-.53-.09l-1.89-.73a1.5,1.5,0,0,1,1.1-2.79l1.84.71a1.5,1.5,0,0,1-.52,2.9Zm85.76-.37a1.51,1.51,0,0,1-1.4-1,1.49,1.49,0,0,1,.86-1.93l1.83-.73a1.5,1.5,0,0,1,1.12,2.79l-1.87.74A1.71,1.71,0,0,1,384,349.35Zm-91.32-1.87a1.61,1.61,0,0,1-.6-.12l-1.85-.82a1.5,1.5,0,0,1,1.24-2.73l1.81.8a1.49,1.49,0,0,1,.78,2A1.51,1.51,0,0,1,292.68,347.48Zm96.83-.41a1.51,1.51,0,0,1-1.37-.9,1.49,1.49,0,0,1,.76-2l1.79-.81a1.5,1.5,0,1,1,1.26,2.72l-1.83.83A1.46,1.46,0,0,1,389.51,347.07ZM287.24,345a1.43,1.43,0,0,1-.66-.16l-1.81-.91a1.5,1.5,0,0,1,1.38-2.66l1.76.88a1.5,1.5,0,0,1-.67,2.85Zm107.66-.45a1.5,1.5,0,0,1-.68-2.84c.59-.3,1.17-.59,1.75-.9a1.5,1.5,0,0,1,1.39,2.66l-1.79.92A1.5,1.5,0,0,1,394.9,344.52Zm-113-2.33a1.59,1.59,0,0,1-.73-.19l-1.75-1a1.5,1.5,0,0,1,1.5-2.6l1.71,1a1.51,1.51,0,0,1-.73,2.82Zm118.21-.48a1.5,1.5,0,0,1-.74-2.81l1.7-1a1.5,1.5,0,0,1,1.52,2.58c-.57.34-1.15.68-1.74,1A1.52,1.52,0,0,1,400.15,341.71Zm-123.36-2.56a1.54,1.54,0,0,1-.8-.23c-.57-.36-1.14-.72-1.7-1.09a1.5,1.5,0,1,1,1.63-2.51c.55.35,1.1.71,1.66,1.05a1.5,1.5,0,0,1-.79,2.78Zm128.48-.51a1.5,1.5,0,0,1-.81-2.77c.56-.35,1.11-.71,1.65-1.07a1.5,1.5,0,1,1,1.65,2.51l-1.69,1.09A1.49,1.49,0,0,1,405.27,338.64Zm-133.48-2.78a1.53,1.53,0,0,1-.86-.27c-.55-.39-1.1-.77-1.64-1.17A1.5,1.5,0,1,1,271,332l1.61,1.13a1.51,1.51,0,0,1-.86,2.74Zm138.43-.54a1.5,1.5,0,0,1-.86-2.73l1.59-1.15a1.5,1.5,0,0,1,1.77,2.43L411.09,335A1.48,1.48,0,0,1,410.22,335.32Zm-143.26-3a1.47,1.47,0,0,1-.91-.31c-.53-.41-1.07-.82-1.59-1.24a1.5,1.5,0,0,1,1.87-2.35l1.55,1.22a1.5,1.5,0,0,1-.92,2.68ZM415,331.75a1.53,1.53,0,0,1-1.18-.57,1.51,1.51,0,0,1,.26-2.11c.52-.4,1-.81,1.54-1.22a1.5,1.5,0,1,1,1.88,2.33l-1.57,1.26A1.53,1.53,0,0,1,415,331.75Zm-152.69-3.19a1.48,1.48,0,0,1-1-.36c-.52-.43-1-.87-1.53-1.32a1.5,1.5,0,0,1,2-2.25l1.49,1.29a1.5,1.5,0,0,1-1,2.64Zm157.3-.6a1.49,1.49,0,0,1-1.13-.52,1.51,1.51,0,0,1,.15-2.12c.5-.42,1-.86,1.48-1.29a1.5,1.5,0,0,1,2,2.23c-.5.45-1,.89-1.52,1.33A1.46,1.46,0,0,1,419.62,328Zm-161.76-3.39a1.5,1.5,0,0,1-1-.4l-1.46-1.4a1.5,1.5,0,0,1,2.09-2.15l1.42,1.36a1.5,1.5,0,0,1-1,2.59ZM424,323.94a1.48,1.48,0,0,1-1.08-.46,1.49,1.49,0,0,1,.05-2.12l1.41-1.37a1.5,1.5,0,1,1,2.1,2.13l-1.44,1.41A1.54,1.54,0,0,1,424,323.94Zm-170.42-3.57a1.46,1.46,0,0,1-1.08-.46c-.47-.48-.93-1-1.39-1.46a1.5,1.5,0,1,1,2.19-2c.45.47.9.95,1.36,1.42a1.5,1.5,0,0,1-1.08,2.54Zm174.64-.66a1.5,1.5,0,0,1-1.09-2.53l1.35-1.44a1.5,1.5,0,1,1,2.2,2c-.45.49-.91,1-1.37,1.47A1.51,1.51,0,0,1,428.26,319.71ZM249.58,316a1.48,1.48,0,0,1-1.13-.51l-1.32-1.53a1.5,1.5,0,0,1,2.3-1.94l1.28,1.5a1.49,1.49,0,0,1-.15,2.11A1.46,1.46,0,0,1,249.58,316Zm182.69-.69a1.46,1.46,0,0,1-1-.37,1.49,1.49,0,0,1-.16-2.11l1.27-1.5a1.5,1.5,0,0,1,2.31,1.91c-.43.52-.87,1-1.31,1.54A1.46,1.46,0,0,1,432.27,315.28Zm-186.51-3.9a1.49,1.49,0,0,1-1.17-.57l-1.24-1.59a1.5,1.5,0,1,1,2.38-1.82c.4.52.8,1,1.21,1.55a1.5,1.5,0,0,1-1.18,2.43Zm190.29-.73a1.45,1.45,0,0,1-.92-.32,1.5,1.5,0,0,1-.26-2.1c.4-.52.8-1,1.19-1.57a1.5,1.5,0,0,1,2.4,1.81l-1.22,1.6A1.51,1.51,0,0,1,436.05,310.65Zm-193.87-4A1.49,1.49,0,0,1,241,306l-1.16-1.65a1.5,1.5,0,1,1,2.47-1.7l1.13,1.6a1.51,1.51,0,0,1-.35,2.1A1.55,1.55,0,0,1,242.18,306.61Zm197.42-.77a1.5,1.5,0,0,1-1.22-2.36c.37-.54.75-1.08,1.11-1.63a1.5,1.5,0,0,1,2.49,1.69c-.38.55-.76,1.11-1.15,1.66A1.5,1.5,0,0,1,439.6,305.84Zm-200.76-4.18a1.5,1.5,0,0,1-1.27-.69c-.36-.56-.72-1.13-1.07-1.7a1.5,1.5,0,0,1,2.55-1.58l1,1.66a1.49,1.49,0,0,1-1.26,2.31Zm204.08-.8a1.47,1.47,0,0,1-.8-.24,1.49,1.49,0,0,1-.47-2.06l1-1.68a1.5,1.5,0,1,1,2.56,1.56c-.35.57-.7,1.15-1.06,1.72A1.52,1.52,0,0,1,442.92,300.86Zm-207.18-4.3a1.5,1.5,0,0,1-1.3-.75l-1-1.75a1.5,1.5,0,0,1,2.63-1.45l1,1.71a1.49,1.49,0,0,1-.55,2A1.46,1.46,0,0,1,235.74,296.56ZM446,295.71a1.47,1.47,0,0,1-.73-.19,1.5,1.5,0,0,1-.58-2c.33-.57.64-1.15,1-1.73a1.5,1.5,0,1,1,2.63,1.43c-.32.59-.64,1.18-1,1.77A1.51,1.51,0,0,1,446,295.71Zm-213.07-4.39a1.49,1.49,0,0,1-1.34-.82q-.47-.9-.9-1.8a1.5,1.5,0,0,1,2.69-1.32c.29.59.58,1.18.88,1.76a1.49,1.49,0,0,1-1.33,2.18Zm215.88-.89a1.44,1.44,0,0,1-.67-.16,1.5,1.5,0,0,1-.68-2q.45-.87.87-1.77a1.5,1.5,0,0,1,2.71,1.3c-.29.61-.59,1.21-.89,1.82A1.52,1.52,0,0,1,448.79,290.43ZM230.33,286a1.5,1.5,0,0,1-1.37-.89c-.27-.61-.54-1.23-.8-1.84a1.5,1.5,0,1,1,2.75-1.18c.26.6.52,1.2.79,1.79a1.51,1.51,0,0,1-1.37,2.12Zm221-.95a1.57,1.57,0,0,1-.6-.12,1.51,1.51,0,0,1-.78-2c.27-.6.53-1.21.78-1.81a1.5,1.5,0,1,1,2.77,1.15c-.26.63-.53,1.25-.8,1.86A1.5,1.5,0,0,1,451.33,285ZM228,280.45a1.51,1.51,0,0,1-1.4-.95c-.24-.63-.48-1.26-.71-1.89a1.5,1.5,0,1,1,2.81-1c.23.61.46,1.23.7,1.84a1.5,1.5,0,0,1-.85,1.94A1.52,1.52,0,0,1,228,280.45Zm225.56-1a1.71,1.71,0,0,1-.53-.1,1.51,1.51,0,0,1-.87-1.94c.24-.61.46-1.23.69-1.85a1.5,1.5,0,0,1,2.82,1c-.23.64-.46,1.27-.7,1.9A1.51,1.51,0,0,1,453.59,279.46ZM226,274.83a1.49,1.49,0,0,1-1.42-1c-.22-.64-.42-1.28-.63-1.92a1.5,1.5,0,0,1,2.87-.9c.19.62.4,1.25.6,1.87a1.51,1.51,0,0,1-.95,1.9A1.49,1.49,0,0,1,226,274.83Zm229.58-1a1.47,1.47,0,0,1-.46-.07,1.49,1.49,0,0,1-1-1.89c.2-.63.4-1.26.59-1.89a1.5,1.5,0,0,1,2.87.88c-.2.65-.4,1.29-.61,1.93A1.5,1.5,0,0,1,455.58,273.8Zm-231.33-4.68a1.5,1.5,0,0,1-1.45-1.1c-.18-.64-.35-1.29-.52-1.94a1.5,1.5,0,0,1,2.9-.76l.51,1.9a1.49,1.49,0,0,1-1,1.84A1.39,1.39,0,0,1,224.25,269.12Zm233-1.06a1.31,1.31,0,0,1-.39-.05,1.5,1.5,0,0,1-1.06-1.84c.18-.63.34-1.26.5-1.9a1.5,1.5,0,1,1,2.91.73c-.17.65-.33,1.3-.51,1.95A1.5,1.5,0,0,1,457.28,268.06Zm-234.5-4.73a1.51,1.51,0,0,1-1.46-1.17c-.15-.66-.29-1.32-.43-2a1.5,1.5,0,0,1,2.94-.62c.13.65.27,1.29.42,1.93a1.5,1.5,0,0,1-1.13,1.79A2,2,0,0,1,222.78,263.33Zm235.91-1.07a1.22,1.22,0,0,1-.32,0,1.49,1.49,0,0,1-1.14-1.78c.14-.64.27-1.28.4-1.93a1.5,1.5,0,1,1,2.94.59c-.13.66-.27,1.32-.41,2A1.5,1.5,0,0,1,458.69,262.26Zm-237.08-4.79a1.5,1.5,0,0,1-1.47-1.24c-.12-.67-.23-1.33-.33-2a1.5,1.5,0,1,1,3-.47c.1.65.21,1.29.32,1.94a1.49,1.49,0,0,1-1.22,1.73A1.15,1.15,0,0,1,221.61,257.47Zm238.21-1.08-.25,0a1.51,1.51,0,0,1-1.24-1.73c.11-.64.21-1.29.31-1.94a1.5,1.5,0,0,1,3,.44c-.09.66-.2,1.33-.31,2A1.49,1.49,0,0,1,459.82,256.39Zm-239.09-4.83a1.51,1.51,0,0,1-1.49-1.32c-.08-.66-.16-1.33-.23-2a1.5,1.5,0,1,1,3-.32c.07.65.15,1.3.23,2a1.5,1.5,0,0,1-1.31,1.68Zm239.91-1.09h-.17a1.5,1.5,0,0,1-1.32-1.66l.21-2a1.5,1.5,0,1,1,3,.29q-.09,1-.21,2A1.51,1.51,0,0,1,460.64,250.47Zm-240.5-4.86a1.5,1.5,0,0,1-1.49-1.39c-.05-.67-.1-1.34-.13-2a1.5,1.5,0,1,1,3-.17c0,.65.08,1.31.13,2a1.5,1.5,0,0,1-1.39,1.61Zm241-1.09h-.1a1.5,1.5,0,0,1-1.4-1.6c0-.65.08-1.31.11-2a1.5,1.5,0,1,1,3,.14c0,.67-.07,1.34-.11,2A1.5,1.5,0,0,1,461.18,244.52Zm-241.33-4c-.81,0-1.48-1.08-1.5-1.89s0-1.14,0-1.81a1.33,1.33,0,0,1,1.49-1.3h0c.83,0,1.5.24,1.5,1.06,0,.66,0,1.53,0,2.18a1.7,1.7,0,0,1-1.46,1.76Zm241.57-2h0a1.48,1.48,0,0,1-1.49-1.5c0-.66,0-1.29,0-1.94v-.22a1.5,1.5,0,1,1,3,0v.22c0,.67,0,1.32,0,2A1.46,1.46,0,0,1,461.42,238.5Zm-241.58-4h0c-.83,0-1.49-1.12-1.47-1.95s0-1.56.07-2.23a1.59,1.59,0,0,1,1.56-1.54,1.46,1.46,0,0,1,1.44,1.51c0,.66,0,1.7-.07,2.35C221.32,233.46,220.66,234.5,219.84,234.5Zm241.52-2a1.57,1.57,0,0,1-1.5-1.52c0-.66-.05-1.35-.08-2a1.51,1.51,0,0,1,1.42-1.59,1.48,1.48,0,0,1,1.57,1.41c0,.67.07,1.41.09,2.08a1.54,1.54,0,0,1-1.45,1.62Zm-241.23-4.8H220a1.5,1.5,0,0,1-1.39-1.61c.05-.67.1-1.34.16-2a1.53,1.53,0,0,1,1.63-1.36,1.49,1.49,0,0,1,1.36,1.63c-.05.65-.11,1.3-.16,2A1.49,1.49,0,0,1,220.13,227.7ZM461,226.4a1.5,1.5,0,0,1-1.49-1.38l-.18-2a1.5,1.5,0,1,1,3-.3c.07.67.13,1.34.19,2a1.51,1.51,0,0,1-1.37,1.62Zm-240.3-4.65h-.19a1.5,1.5,0,0,1-1.3-1.67c.08-.67.17-1.33.26-2a1.5,1.5,0,0,1,3,.41c-.09.65-.17,1.3-.25,2A1.5,1.5,0,0,1,220.71,221.75Zm239.66-1.29a1.51,1.51,0,0,1-1.49-1.31c-.08-.65-.18-1.3-.27-1.94a1.5,1.5,0,1,1,3-.45c.1.66.2,1.33.29,2a1.5,1.5,0,0,1-1.29,1.68Zm-238.79-4.62a1.18,1.18,0,0,1-.26,0,1.5,1.5,0,0,1-1.22-1.73c.12-.67.23-1.33.36-2a1.5,1.5,0,0,1,2.95.56c-.12.65-.24,1.29-.35,1.94A1.5,1.5,0,0,1,221.58,215.84Zm237.85-1.29a1.49,1.49,0,0,1-1.47-1.23c-.12-.64-.25-1.28-.37-1.93a1.49,1.49,0,0,1,1.17-1.76,1.5,1.5,0,0,1,1.77,1.17c.13.66.26,1.32.38,2a1.5,1.5,0,0,1-1.21,1.75A1.23,1.23,0,0,1,459.43,214.55ZM222.74,210a1.84,1.84,0,0,1-.33,0,1.51,1.51,0,0,1-1.13-1.8c.14-.65.3-1.31.45-2a1.5,1.5,0,1,1,2.92.7l-.45,1.92A1.49,1.49,0,0,1,222.74,210Zm235.47-1.27a1.5,1.5,0,0,1-1.46-1.16c-.15-.64-.31-1.28-.47-1.91a1.5,1.5,0,0,1,2.91-.74l.48,2a1.5,1.5,0,0,1-1.12,1.81A2,2,0,0,1,458.21,208.71Zm-234-4.52a1.45,1.45,0,0,1-.41-.06,1.51,1.51,0,0,1-1-1.85c.18-.64.36-1.29.56-1.94a1.5,1.5,0,1,1,2.87.86q-.27.93-.54,1.89A1.5,1.5,0,0,1,224.2,204.19Zm232.49-1.26a1.5,1.5,0,0,1-1.44-1.09c-.18-.63-.37-1.26-.56-1.88a1.5,1.5,0,1,1,2.86-.88c.2.64.39,1.28.58,1.93a1.5,1.5,0,0,1-1,1.86A1.4,1.4,0,0,1,456.69,202.93Zm-230.75-4.46a1.34,1.34,0,0,1-.48-.08,1.5,1.5,0,0,1-1-1.89q.31-1,.66-1.92a1.5,1.5,0,1,1,2.83,1c-.22.62-.43,1.24-.64,1.86A1.51,1.51,0,0,1,225.94,198.47Zm229-1.24a1.5,1.5,0,0,1-1.42-1q-.32-.93-.66-1.86a1.5,1.5,0,1,1,2.82-1c.23.63.46,1.26.68,1.9a1.5,1.5,0,0,1-.93,1.91A1.73,1.73,0,0,1,454.89,197.23ZM228,192.83a1.49,1.49,0,0,1-1.4-2q.36-.94.75-1.89a1.5,1.5,0,1,1,2.77,1.14c-.25.61-.49,1.22-.73,1.83A1.48,1.48,0,0,1,228,192.83Zm224.83-1.2a1.51,1.51,0,0,1-1.39-.94c-.24-.61-.49-1.21-.74-1.82a1.5,1.5,0,1,1,2.76-1.16c.26.62.52,1.24.76,1.86a1.5,1.5,0,0,1-.83,2A1.55,1.55,0,0,1,452.8,191.63ZM230.27,187.3a1.49,1.49,0,0,1-.61-.13,1.51,1.51,0,0,1-.76-2l.84-1.84a1.5,1.5,0,1,1,2.72,1.27c-.28.59-.55,1.19-.82,1.79A1.49,1.49,0,0,1,230.27,187.3Zm220.18-1.14a1.5,1.5,0,0,1-1.36-.88l-.84-1.77a1.5,1.5,0,0,1,2.71-1.3c.29.61.57,1.21.85,1.82a1.49,1.49,0,0,1-.74,2A1.51,1.51,0,0,1,450.45,186.16Zm-217.6-4.26a1.52,1.52,0,0,1-.68-.17,1.5,1.5,0,0,1-.65-2c.3-.6.61-1.19.93-1.79a1.5,1.5,0,0,1,2.65,1.4c-.31.58-.61,1.17-.91,1.75A1.5,1.5,0,0,1,232.85,181.9Zm215-1.09a1.51,1.51,0,0,1-1.33-.81c-.3-.58-.61-1.16-.92-1.73a1.5,1.5,0,1,1,2.63-1.43c.32.59.64,1.18,1,1.77a1.51,1.51,0,0,1-.64,2A1.56,1.56,0,0,1,447.83,180.81ZM235.7,176.63a1.56,1.56,0,0,1-.75-.2,1.49,1.49,0,0,1-.55-2.05c.33-.58.67-1.17,1-1.74a1.5,1.5,0,1,1,2.58,1.53l-1,1.7A1.49,1.49,0,0,1,235.7,176.63Zm209.24-1a1.51,1.51,0,0,1-1.29-.74c-.33-.57-.67-1.13-1-1.69a1.5,1.5,0,0,1,2.57-1.56l1,1.73a1.51,1.51,0,0,1-1.3,2.26ZM238.8,171.51a1.51,1.51,0,0,1-1.27-2.31l1.11-1.69a1.5,1.5,0,1,1,2.5,1.66c-.37.54-.72,1.09-1.08,1.65A1.5,1.5,0,0,1,238.8,171.51Zm203-1a1.49,1.49,0,0,1-1.25-.68l-1.09-1.64a1.5,1.5,0,0,1,2.48-1.68c.38.56.75,1.11,1.12,1.68a1.49,1.49,0,0,1-.44,2.07A1.44,1.44,0,0,1,441.8,170.52Zm-199.65-4a1.46,1.46,0,0,1-.87-.28,1.48,1.48,0,0,1-.35-2.09c.39-.55.78-1.09,1.18-1.63a1.5,1.5,0,1,1,2.41,1.78l-1.15,1.59A1.5,1.5,0,0,1,242.15,166.55Zm196.26-.94a1.5,1.5,0,0,1-1.21-.62c-.38-.53-.77-1.06-1.17-1.58a1.5,1.5,0,0,1,2.4-1.81l1.2,1.62a1.51,1.51,0,0,1-1.22,2.39Zm-192.68-3.84a1.51,1.51,0,0,1-1.17-2.43l1.26-1.58a1.5,1.5,0,0,1,2.33,1.9c-.42.51-.83,1-1.24,1.54A1.5,1.5,0,0,1,245.73,161.77Zm189.06-.91a1.48,1.48,0,0,1-1.17-.56c-.41-.51-.83-1-1.25-1.52a1.5,1.5,0,1,1,2.31-1.91c.43.51.85,1,1.27,1.55a1.5,1.5,0,0,1-.22,2.11A1.46,1.46,0,0,1,434.79,160.86Zm-185.24-3.69a1.46,1.46,0,0,1-1-.37,1.5,1.5,0,0,1-.15-2.12c.44-.51.89-1,1.34-1.51a1.5,1.5,0,1,1,2.23,2l-1.31,1.47A1.49,1.49,0,0,1,249.55,157.17Zm181.38-.86a1.47,1.47,0,0,1-1.12-.51l-1.32-1.46a1.5,1.5,0,1,1,2.21-2l1.35,1.5a1.51,1.51,0,0,1-.12,2.12A1.54,1.54,0,0,1,430.93,156.31Zm-177.34-3.55a1.5,1.5,0,0,1-1.08-2.54l1.41-1.44a1.5,1.5,0,1,1,2.13,2.12l-1.38,1.4A1.48,1.48,0,0,1,253.59,152.76Zm173.26-.82a1.5,1.5,0,0,1-1.07-.45c-.46-.47-.92-.93-1.39-1.39A1.5,1.5,0,0,1,426.5,148l1.42,1.43a1.5,1.5,0,0,1,0,2.12A1.48,1.48,0,0,1,426.85,151.94Zm-169-3.38a1.5,1.5,0,0,1-1-2.59l1.48-1.37a1.5,1.5,0,0,1,2,2.22l-1.44,1.33A1.47,1.47,0,0,1,257.84,148.56Zm164.72-.78a1.45,1.45,0,0,1-1-.4l-1.46-1.32a1.5,1.5,0,0,1,2-2.24c.5.45,1,.9,1.49,1.36a1.5,1.5,0,0,1-1,2.6Zm-160.27-3.2a1.48,1.48,0,0,1-1.14-.53,1.5,1.5,0,0,1,.17-2.12l1.54-1.29a1.5,1.5,0,0,1,1.91,2.31l-1.51,1.27A1.5,1.5,0,0,1,262.29,144.58Zm155.78-.75a1.5,1.5,0,0,1-1-.34c-.5-.43-1-.84-1.52-1.26a1.5,1.5,0,0,1,1.89-2.33l1.55,1.28a1.51,1.51,0,0,1,.19,2.12A1.49,1.49,0,0,1,418.07,143.83Zm-151.14-3a1.5,1.5,0,0,1-.92-2.69l1.61-1.22a1.5,1.5,0,1,1,1.79,2.41l-1.57,1.18A1.48,1.48,0,0,1,266.93,140.82Zm146.46-.71a1.52,1.52,0,0,1-.9-.3c-.52-.4-1.05-.79-1.58-1.17a1.5,1.5,0,1,1,1.77-2.43l1.62,1.21a1.5,1.5,0,0,1,.29,2.1A1.48,1.48,0,0,1,413.39,140.11Zm-141.65-2.82a1.5,1.5,0,0,1-.85-2.73c.55-.39,1.1-.76,1.66-1.14a1.5,1.5,0,0,1,1.67,2.49L272.6,137A1.51,1.51,0,0,1,271.74,137.29Zm136.79-.66a1.54,1.54,0,0,1-.84-.26l-1.64-1.1a1.5,1.5,0,0,1,1.65-2.51l1.68,1.13a1.5,1.5,0,0,1-.85,2.74ZM276.73,134a1.5,1.5,0,0,1-.8-2.78l1.72-1a1.5,1.5,0,0,1,1.54,2.57c-.56.34-1.12.68-1.67,1A1.54,1.54,0,0,1,276.73,134Zm126.78-.63a1.46,1.46,0,0,1-.78-.22l-1.69-1a1.5,1.5,0,1,1,1.52-2.59l1.73,1a1.5,1.5,0,0,1-.78,2.78ZM281.86,131a1.47,1.47,0,0,1-1.31-.77,1.5,1.5,0,0,1,.58-2c.58-.32,1.17-.65,1.76-1a1.5,1.5,0,1,1,1.42,2.64l-1.72.94A1.47,1.47,0,0,1,281.86,131Zm116.46-.58a1.57,1.57,0,0,1-.72-.18c-.57-.32-1.15-.63-1.73-.93a1.5,1.5,0,1,1,1.39-2.66l1.78.95a1.5,1.5,0,0,1-.72,2.82ZM287.14,128.2a1.5,1.5,0,0,1-.67-2.85c.6-.29,1.2-.59,1.81-.87a1.5,1.5,0,0,1,2,.71,1.51,1.51,0,0,1-.71,2l-1.77.85A1.43,1.43,0,0,1,287.14,128.2ZM393,127.66a1.51,1.51,0,0,1-.65-.15c-.6-.29-1.19-.57-1.79-.84a1.5,1.5,0,0,1,1.26-2.73c.61.29,1.22.57,1.83.87a1.49,1.49,0,0,1,.7,2A1.51,1.51,0,0,1,393,127.66Zm-100.46-2a1.51,1.51,0,0,1-1.38-.9,1.49,1.49,0,0,1,.78-2l1.85-.79a1.5,1.5,0,0,1,1.15,2.77l-1.8.77A1.61,1.61,0,0,1,292.54,125.69Zm95-.5a1.52,1.52,0,0,1-.59-.12l-1.82-.75a1.5,1.5,0,1,1,1.12-2.78l1.87.77a1.5,1.5,0,0,1-.58,2.88Zm-89.48-1.73a1.5,1.5,0,0,1-.53-2.91l1.89-.69a1.5,1.5,0,1,1,1,2.82l-1.84.68A1.71,1.71,0,0,1,298.06,123.46ZM382,123a1.52,1.52,0,0,1-.51-.09l-1.86-.66a1.5,1.5,0,1,1,1-2.83l1.91.67A1.5,1.5,0,0,1,382,123Zm-78.26-1.51a1.52,1.52,0,0,1-1.43-1,1.5,1.5,0,0,1,1-1.89l1.93-.6a1.5,1.5,0,1,1,.87,2.87l-1.88.59A1.47,1.47,0,0,1,303.7,121.49Zm72.57-.4a1.72,1.72,0,0,1-.44-.06c-.62-.2-1.25-.39-1.88-.57a1.49,1.49,0,0,1-1-1.86,1.5,1.5,0,0,1,1.86-1l1.93.58a1.5,1.5,0,0,1-.45,2.93Zm-66.84-1.28a1.5,1.5,0,0,1-.38-3l1.95-.51a1.5,1.5,0,0,1,.73,2.92c-.64.15-1.28.32-1.91.49A1.74,1.74,0,0,1,309.43,119.81Zm61.09-.34a1.61,1.61,0,0,1-.37,0l-1.91-.47a1.51,1.51,0,0,1-1.11-1.81,1.49,1.49,0,0,1,1.8-1.11c.66.15,1.31.31,2,.48a1.5,1.5,0,0,1,1.09,1.82A1.51,1.51,0,0,1,370.52,119.47Zm-55.28-1.06a1.5,1.5,0,0,1-.31-3l2-.41a1.5,1.5,0,0,1,.58,2.94l-1.93.4A1.73,1.73,0,0,1,315.24,118.41Zm49.46-.27-.3,0-1.93-.37a1.5,1.5,0,1,1,.55-2.95l2,.38a1.5,1.5,0,0,1-.29,3Zm-43.58-.83a1.5,1.5,0,0,1-.24-3l2-.31a1.5,1.5,0,0,1,.43,3l-1.94.3Zm37.7-.2-.23,0-1.95-.28a1.5,1.5,0,1,1,.4-3l2,.28a1.5,1.5,0,0,1-.22,3ZM327,116.5a1.5,1.5,0,0,1-.17-3q1-.12,2-.21a1.5,1.5,0,0,1,.28,3l-2,.2Zm25.85-.14h-.16l-2-.18a1.5,1.5,0,1,1,.25-3l2,.19a1.5,1.5,0,0,1-.15,3ZM333,116a1.5,1.5,0,0,1-.09-3l2-.1a1.47,1.47,0,0,1,1.57,1.43,1.5,1.5,0,0,1-1.43,1.56l-2,.11Zm13.94-.07h-.08l-2-.08a1.5,1.5,0,1,1,.1-3l2,.09a1.5,1.5,0,0,1-.07,3Zm-8,.59c-.82,0-1.49-1-1.5-1.85a1.35,1.35,0,0,1,1.48-1.33c.56,0,1.12.18,1.68.18H341a1.5,1.5,0,0,1,0,3h-2Z"/><path class="cls-1" d="M336.49,395.5h0c-.67,0-1.34-.32-2-.35a1.63,1.63,0,0,1-1.45-1.69,1.55,1.55,0,0,1,1.56-1.51c.66,0,1.31,0,2,0a1.79,1.79,0,0,1,0,3.53Zm14.87-.87a1.5,1.5,0,0,1-.1-3l2-.15a1.51,1.51,0,0,1,1.61,1.38,1.49,1.49,0,0,1-1.38,1.61c-.66.06-1.33.11-2,.15Zm-31.68-1h-.2l-2-.28a1.5,1.5,0,1,1,.43-3l1.95.27a1.5,1.5,0,0,1-.2,3Zm48.42-1a1.5,1.5,0,0,1-.26-3l1.94-.35a1.49,1.49,0,0,1,1.75,1.2,1.5,1.5,0,0,1-1.2,1.75l-2,.35A1.15,1.15,0,0,1,368.1,392.62Zm-65-2.1a1.47,1.47,0,0,1-.36,0l-1.94-.48a1.5,1.5,0,0,1,.74-2.91l1.91.48a1.5,1.5,0,0,1,1.11,1.81A1.51,1.51,0,0,1,303.11,390.52Zm81.42-1.69a1.5,1.5,0,0,1-.41-2.94l1.88-.56a1.5,1.5,0,0,1,.87,2.87l-1.92.57A1.52,1.52,0,0,1,384.53,388.83ZM287,385.67a1.31,1.31,0,0,1-.51-.09q-.94-.33-1.89-.69a1.5,1.5,0,1,1,1.05-2.81l1.86.68a1.5,1.5,0,0,1-.51,2.91Zm113.5-2.37a1.5,1.5,0,0,1-.57-2.89c.61-.24,1.21-.49,1.81-.75a1.5,1.5,0,1,1,1.17,2.77l-1.84.76A1.44,1.44,0,0,1,400.46,383.3Zm-129-4.18a1.51,1.51,0,0,1-.65-.15l-1.8-.89a1.51,1.51,0,0,1-.67-2,1.49,1.49,0,0,1,2-.66l1.77.87a1.5,1.5,0,0,1-.66,2.85Zm144.29-3a1.5,1.5,0,0,1-.71-2.82l1.72-.94a1.5,1.5,0,1,1,1.45,2.62l-1.75,1A1.5,1.5,0,0,1,415.7,376.11Zm-159-5.17a1.42,1.42,0,0,1-.79-.23l-1.7-1.07a1.5,1.5,0,0,1,1.62-2.53l1.67,1.06a1.5,1.5,0,0,1-.8,2.77Zm173.43-3.61a1.5,1.5,0,0,1-.85-2.74c.54-.37,1.08-.74,1.61-1.12a1.5,1.5,0,0,1,1.73,2.46l-1.64,1.14A1.49,1.49,0,0,1,430.09,367.33Zm-187.23-6.09a1.45,1.45,0,0,1-.92-.32l-1.57-1.24a1.5,1.5,0,1,1,1.88-2.34c.51.41,1,.82,1.54,1.22a1.51,1.51,0,0,1,.25,2.11A1.47,1.47,0,0,1,242.86,361.24Zm200.61-4.17a1.49,1.49,0,0,1-1.14-.52,1.5,1.5,0,0,1,.17-2.12l1.48-1.28a1.5,1.5,0,1,1,2,2.26l-1.51,1.3A1.47,1.47,0,0,1,443.47,357.07Zm-213.3-6.93a1.51,1.51,0,0,1-1-.42l-1.43-1.41a1.51,1.51,0,0,1,0-2.12,1.49,1.49,0,0,1,2.12,0l1.4,1.38a1.5,1.5,0,0,1-1,2.57Zm225.52-4.68a1.5,1.5,0,0,1-1.09-2.53l1.35-1.44a1.5,1.5,0,1,1,2.2,2c-.45.49-.91,1-1.37,1.46A1.49,1.49,0,0,1,455.69,345.46Zm-237-7.7a1.47,1.47,0,0,1-1.15-.54c-.43-.51-.85-1-1.28-1.55a1.5,1.5,0,0,1,2.34-1.88c.41.5.82,1,1.24,1.51a1.49,1.49,0,0,1-1.15,2.46Zm247.9-5.14a1.5,1.5,0,0,1-1.19-2.41l1.19-1.57a1.5,1.5,0,1,1,2.4,1.79l-1.2,1.6A1.51,1.51,0,0,1,466.62,332.62Zm-258-8.38a1.48,1.48,0,0,1-1.24-.66c-.38-.56-.74-1.12-1.1-1.68a1.5,1.5,0,0,1,2.51-1.63l1.08,1.64a1.51,1.51,0,0,1-.41,2.08A1.52,1.52,0,0,1,208.64,324.24Zm267.49-5.55a1.49,1.49,0,0,1-.78-.22,1.5,1.5,0,0,1-.5-2.06c.34-.56.68-1.12,1-1.69a1.5,1.5,0,1,1,2.58,1.53c-.34.57-.68,1.15-1,1.72A1.5,1.5,0,0,1,476.13,318.69Zm-276.07-9a1.5,1.5,0,0,1-1.33-.8c-.31-.59-.61-1.18-.91-1.78a1.5,1.5,0,0,1,2.68-1.35c.29.58.59,1.16.89,1.74a1.49,1.49,0,0,1-.64,2A1.41,1.41,0,0,1,200.06,309.73Zm284.05-5.9a1.61,1.61,0,0,1-.64-.14,1.51,1.51,0,0,1-.72-2c.28-.59.55-1.19.82-1.79a1.5,1.5,0,0,1,2.74,1.24l-.84,1.82A1.51,1.51,0,0,1,484.11,303.83Zm-291-9.43a1.49,1.49,0,0,1-1.39-1l-.72-1.86a1.5,1.5,0,1,1,2.8-1.07c.24.62.47,1.23.71,1.84a1.51,1.51,0,0,1-1.4,2Zm297.38-6.2a1.67,1.67,0,0,1-.49-.08,1.51,1.51,0,0,1-.93-1.91c.21-.62.43-1.25.63-1.87a1.5,1.5,0,1,1,2.85.94c-.21.64-.43,1.27-.64,1.9A1.51,1.51,0,0,1,490.45,288.2Zm-302.68-9.81a1.49,1.49,0,0,1-1.45-1.1c-.17-.64-.35-1.29-.51-1.94a1.5,1.5,0,1,1,2.9-.75c.16.63.33,1.27.5,1.9a1.49,1.49,0,0,1-1.05,1.84A1.31,1.31,0,0,1,187.77,278.39ZM495.08,272a1.86,1.86,0,0,1-.33,0,1.5,1.5,0,0,1-1.13-1.8c.14-.64.29-1.28.43-1.92a1.5,1.5,0,0,1,1.78-1.15,1.51,1.51,0,0,1,1.15,1.79c-.14.65-.29,1.3-.44,1.95A1.5,1.5,0,0,1,495.08,272ZM184.2,261.92a1.51,1.51,0,0,1-1.48-1.27l-.3-2a1.5,1.5,0,0,1,3-.44l.3,1.95a1.49,1.49,0,0,1-1.24,1.72ZM498,255.36h-.18a1.49,1.49,0,0,1-1.31-1.66c.08-.65.15-1.3.22-2a1.5,1.5,0,1,1,3,.32c-.07.66-.14,1.33-.22,2A1.5,1.5,0,0,1,498,255.36ZM182.41,245.15a1.49,1.49,0,0,1-1.49-1.42c0-.66-.07-1.33-.1-2a1.5,1.5,0,0,1,3-.12l.09,2a1.5,1.5,0,0,1-1.42,1.58ZM499,238.5h0a1.34,1.34,0,0,1-1.31-1.5c0-.65.19-1.29.19-1.94v-.35a1.5,1.5,0,1,1,3,0V235c0,.68-.18,1.33-.19,2A1.65,1.65,0,0,1,499,238.5ZM182.4,228.29h-.08a1.5,1.5,0,0,1-1.42-1.58c0-.66.07-1.33.11-2a1.5,1.5,0,1,1,3,.18c0,.66-.08,1.31-.11,2A1.51,1.51,0,0,1,182.4,228.29Zm315.93-6.94a1.51,1.51,0,0,1-1.49-1.36c-.06-.65-.13-1.3-.2-2a1.5,1.5,0,0,1,3-.33c.07.67.14,1.33.2,2a1.49,1.49,0,0,1-1.35,1.63Zm-314.18-9.83a.93.93,0,0,1-.23,0,1.49,1.49,0,0,1-1.25-1.71q.15-1,.33-2a1.5,1.5,0,1,1,2.95.51c-.11.64-.21,1.29-.32,1.94A1.49,1.49,0,0,1,184.15,211.52Zm311.7-6.84a1.51,1.51,0,0,1-1.47-1.21c-.13-.64-.27-1.28-.41-1.92a1.5,1.5,0,0,1,2.93-.64c.15.66.28,1.31.42,2a1.49,1.49,0,0,1-1.17,1.76A1.08,1.08,0,0,1,495.85,204.68ZM187.68,195a1.32,1.32,0,0,1-.39-.06,1.5,1.5,0,0,1-1.06-1.83l.54-1.94a1.5,1.5,0,1,1,2.88.83c-.17.63-.35,1.26-.52,1.89A1.5,1.5,0,0,1,187.68,195Zm303.91-6.68a1.52,1.52,0,0,1-1.43-1c-.19-.63-.4-1.25-.6-1.87a1.5,1.5,0,1,1,2.84-.95c.21.63.42,1.27.62,1.9a1.5,1.5,0,0,1-1,1.89A1.47,1.47,0,0,1,491.59,188.36ZM193,179a1.47,1.47,0,0,1-.54-.1,1.5,1.5,0,0,1-.85-1.94c.24-.63.49-1.25.74-1.87a1.5,1.5,0,1,1,2.78,1.12c-.25.61-.49,1.22-.73,1.84A1.5,1.5,0,0,1,193,179Zm292.67-6.42a1.51,1.51,0,0,1-1.38-.9c-.26-.59-.53-1.19-.8-1.78a1.5,1.5,0,0,1,2.73-1.25c.28.61.55,1.21.82,1.82a1.51,1.51,0,0,1-.77,2A1.41,1.41,0,0,1,485.62,172.6Zm-285.7-8.94a1.53,1.53,0,0,1-.69-.17,1.5,1.5,0,0,1-.64-2c.3-.59.62-1.18.93-1.77a1.5,1.5,0,1,1,2.65,1.41c-.31.58-.62,1.16-.92,1.75A1.51,1.51,0,0,1,199.92,163.66ZM478,157.57a1.51,1.51,0,0,1-1.3-.75c-.32-.57-.65-1.13-1-1.7a1.5,1.5,0,0,1,2.58-1.53c.34.58.68,1.15,1,1.73a1.49,1.49,0,0,1-.55,2.05A1.53,1.53,0,0,1,478,157.57Zm-269.52-8.45a1.46,1.46,0,0,1-.82-.25,1.5,1.5,0,0,1-.42-2.08c.36-.56.74-1.11,1.11-1.66a1.5,1.5,0,1,1,2.48,1.69c-.37.54-.73,1.08-1.09,1.63A1.52,1.52,0,0,1,208.47,149.12Zm260.34-5.69a1.48,1.48,0,0,1-1.21-.62c-.38-.53-.77-1.05-1.16-1.58a1.5,1.5,0,1,1,2.4-1.79c.4.53.79,1.07,1.19,1.61a1.5,1.5,0,0,1-.33,2.09A1.48,1.48,0,0,1,468.81,143.43Zm-250.28-7.85a1.51,1.51,0,0,1-1-.35,1.49,1.49,0,0,1-.2-2.11l1.29-1.54a1.5,1.5,0,1,1,2.29,1.95l-1.27,1.5A1.48,1.48,0,0,1,218.53,135.58Zm239.65-5.24a1.5,1.5,0,0,1-1.11-.49c-.44-.49-.88-1-1.33-1.45a1.5,1.5,0,0,1,2.2-2c.46.49.91,1,1.36,1.48a1.49,1.49,0,0,1-.11,2.11A1.51,1.51,0,0,1,458.18,130.34ZM230,123.18a1.51,1.51,0,0,1-1.07-.46,1.49,1.49,0,0,1,0-2.12l1.44-1.39a1.5,1.5,0,0,1,2.07,2.17L231,122.75A1.52,1.52,0,0,1,230,123.18Zm216.28-4.73a1.52,1.52,0,0,1-1-.38l-1.47-1.3a1.5,1.5,0,1,1,2-2.27l1.5,1.33a1.5,1.5,0,0,1-1,2.62Zm-203.6-6.4a1.47,1.47,0,0,1-1.18-.57,1.51,1.51,0,0,1,.25-2.11l1.58-1.23a1.5,1.5,0,0,1,1.82,2.38l-1.54,1.21A1.5,1.5,0,0,1,242.63,112.05Zm190.45-4.16a1.51,1.51,0,0,1-.87-.29l-1.61-1.14a1.5,1.5,0,1,1,1.73-2.45l1.63,1.16a1.5,1.5,0,0,1-.88,2.72ZM256.4,102.33a1.52,1.52,0,0,1-1.27-.7,1.5,1.5,0,0,1,.48-2.07l1.69-1a1.5,1.5,0,1,1,1.57,2.56l-1.67,1A1.46,1.46,0,0,1,256.4,102.33Zm162.49-3.56a1.54,1.54,0,0,1-.74-.19l-1.71-1A1.5,1.5,0,1,1,417.89,95l1.75,1a1.5,1.5,0,0,1-.75,2.8ZM271.13,94.13a1.5,1.5,0,0,1-.66-2.84q.9-.45,1.8-.87a1.5,1.5,0,1,1,1.28,2.71l-1.76.85A1.55,1.55,0,0,1,271.13,94.13Zm132.68-2.91a1.61,1.61,0,0,1-.6-.12l-1.81-.78a1.5,1.5,0,0,1,1.16-2.76l1.85.79a1.5,1.5,0,0,1-.6,2.87ZM286.65,87.55a1.5,1.5,0,0,1-.52-2.91L288,84a1.5,1.5,0,1,1,1,2.83l-1.85.66A1.52,1.52,0,0,1,286.65,87.55ZM388,85.33a1.76,1.76,0,0,1-.45-.07l-1.88-.58a1.5,1.5,0,1,1,.86-2.87l1.91.59a1.5,1.5,0,0,1-.44,2.93Zm-85.23-2.66a1.5,1.5,0,0,1-.36-3l1.95-.46a1.5,1.5,0,0,1,.68,2.92l-1.91.45A1.49,1.49,0,0,1,302.78,82.67Zm68.89-1.51a1.36,1.36,0,0,1-.29,0l-1.94-.37a1.5,1.5,0,0,1,.55-3l2,.38a1.5,1.5,0,0,1-.29,3Zm-52.32-1.62a1.5,1.5,0,0,1-.2-3l2-.25a1.5,1.5,0,1,1,.36,3l-1.95.25ZM355,78.76h-.13l-2-.17a1.5,1.5,0,0,1,.23-3l2,.17a1.5,1.5,0,0,1-.14,3Zm-18.83-.26a1.65,1.65,0,0,1-1.5-1.62,1.57,1.57,0,0,1,1.46-1.62c.67,0,1.33-.07,2-.08a1.47,1.47,0,0,1,1.52,1.46,1.64,1.64,0,0,1-1.47,1.67c-.66,0-1.31.19-2,.19Z"/><g class="cls-2"><circle class="cls-1" cx="340.62" cy="235.06" r="114.31" transform="translate(-66.44 309.7) rotate(-45)"/></g><path class="cls-3" d="M340.62,344.77a109.72,109.72,0,0,1,0-219.43,2.5,2.5,0,0,1,0,5A104.72,104.72,0,1,0,445.33,235.06a2.5,2.5,0,0,1,5,0A109.83,109.83,0,0,1,340.62,344.77Z"/><path class="cls-3" d="M210.82,195.94a9.16,9.16,0,0,1-3.15-.57,9,9,0,0,1-5.28-11.58,147.64,147.64,0,0,1,190-86.63,9,9,0,0,1-6.3,16.86c-67-25-141.79,9.11-166.81,76.07A9,9,0,0,1,210.82,195.94Z"/><g class="cls-4"><path class="cls-1" d="M461.74,184c-16,0-39.9-1.33-39.9-5s23.86-5,39.9-5,39.9,1.33,39.9,5S477.78,184,461.74,184Zm0-9c-25.54,0-38.9,2.6-38.9,4s13.36,4,38.9,4,38.9-2.6,38.9-4S487.28,175,461.74,175Z"/></g><g class="cls-4"><path class="cls-1" d="M442.6,213.84a1,1,0,0,1-.54-.16c-.55-.31-2-1.14,2.71-12.24a259.89,259.89,0,0,1,12.62-24.94c7.92-13.95,20.84-34.06,24-32.24h0c.54.31,2,1.13-2.72,12.23a259.89,259.89,0,0,1-12.62,24.94,260,260,0,0,1-14.92,23.63C445.63,212.67,443.52,213.84,442.6,213.84Zm38.19-68.75c-1.63,0-10.32,10.38-22.53,31.91a261.29,261.29,0,0,0-12.57,24.83c-4.25,10-3.15,11-3.14,11s1.41.45,7.81-8.33a260.35,260.35,0,0,0,14.85-23.54,257.81,257.81,0,0,0,12.57-24.84c4.25-10,3.16-11,3.14-11A.28.28,0,0,0,480.79,145.09Z"/></g><g class="cls-4"><path class="cls-1" d="M480.87,213.84c-.92,0-3-1.17-8.56-8.78a260,260,0,0,1-14.92-23.63,259.89,259.89,0,0,1-12.62-24.94c-4.72-11.1-3.26-11.92-2.71-12.23h0c3.19-1.81,16.11,18.29,24,32.24a259.89,259.89,0,0,1,12.62,24.94c4.72,11.1,3.26,11.93,2.71,12.24A1,1,0,0,1,480.87,213.84Zm-38.32-68.71s-1.1,1,3.14,11a260.15,260.15,0,0,0,12.57,24.84,260.21,260.21,0,0,0,14.86,23.54c6.39,8.78,7.8,8.34,7.8,8.33s1.11-1-3.14-11A258.94,258.94,0,0,0,465.21,177c-12.6-22.22-21.44-32.55-22.66-31.87Z"/></g><g class="cls-5"><path class="cls-3" d="M473.12,179a11.39,11.39,0,1,1-11.38-11.39A11.37,11.37,0,0,1,473.12,179Z"/></g><path class="cls-1" d="M461.74,208.18A29.22,29.22,0,1,1,491,179,29.25,29.25,0,0,1,461.74,208.18Zm0-57.43A28.22,28.22,0,1,0,490,179,28.25,28.25,0,0,0,461.74,150.75Z"/><path class="cls-1" d="M518.38,357.5h0c-.67,0-1.34-.2-2-.21a1.58,1.58,0,0,1-1.46-1.63,1.53,1.53,0,0,1,1.54-1.5c.65,0,1.31,0,2,0a1.67,1.67,0,0,1,0,3.32Zm4,0a1.67,1.67,0,0,1-1.5-1.65,1.58,1.58,0,0,1,1.47-1.62c.66,0,1.31-.08,2-.1a1.46,1.46,0,0,1,1.56,1.42,1.66,1.66,0,0,1-1.44,1.72c-.67,0-1.34.23-2,.23Zm-10-.56h-.09l-2-.14a1.51,1.51,0,0,1-1.38-1.61,1.49,1.49,0,0,1,1.62-1.38l2,.13a1.5,1.5,0,0,1-.09,3Zm15.92-.07a1.5,1.5,0,0,1-.11-3c.66,0,1.31-.09,2-.15a1.52,1.52,0,0,1,1.62,1.37,1.5,1.5,0,0,1-1.37,1.62l-2,.15Zm-21.87-.44h-.17l-2-.23a1.5,1.5,0,0,1,.37-3l2,.23a1.5,1.5,0,0,1-.16,3Zm27.81-.12a1.5,1.5,0,0,1-.17-3l1.95-.25a1.5,1.5,0,1,1,.4,3l-2,.26Zm-33.74-.68a1.06,1.06,0,0,1-.24,0l-2-.33a1.5,1.5,0,1,1,.52-3c.65.12,1.29.23,1.94.33a1.5,1.5,0,0,1-.24,3Zm39.66-.18a1.5,1.5,0,0,1-.25-3l1.94-.34a1.5,1.5,0,1,1,.55,2.95l-2,.35A1.06,1.06,0,0,1,540.19,355.45Zm-45.53-.91a1.63,1.63,0,0,1-.31,0l-2-.44a1.5,1.5,0,1,1,.67-2.92l1.92.42a1.5,1.5,0,0,1-.31,3Zm51.39-.23a1.5,1.5,0,0,1-.32-3l1.92-.44a1.5,1.5,0,0,1,.7,2.92c-.66.16-1.31.31-2,.45A1.24,1.24,0,0,1,546.05,354.31Zm-57.2-1.16a1.31,1.31,0,0,1-.39,0l-1.94-.53a1.5,1.5,0,1,1,.81-2.88l1.9.51a1.5,1.5,0,0,1-.38,2.95Zm63-.28a1.5,1.5,0,0,1-.39-2.95l1.89-.53a1.5,1.5,0,1,1,.84,2.88l-1.94.55A1.83,1.83,0,0,1,551.85,352.87Zm-68.74-1.39a1.47,1.47,0,0,1-.46-.07l-1.92-.63a1.5,1.5,0,0,1,1-2.84l1.87.61a1.5,1.5,0,0,1-.45,2.93Zm74.47-.33a1.5,1.5,0,0,1-.47-2.93l1.86-.63a1.5,1.5,0,0,1,1,2.84l-1.91.64A1.6,1.6,0,0,1,557.58,351.15Zm-80.14-1.63a1.37,1.37,0,0,1-.52-.1q-1-.35-1.89-.72a1.5,1.5,0,1,1,1.1-2.79l1.84.71a1.5,1.5,0,0,1-.53,2.9Zm85.77-.38a1.5,1.5,0,0,1-.54-2.9l1.83-.72a1.5,1.5,0,0,1,1.12,2.78l-1.88.74A1.39,1.39,0,0,1,563.21,349.14Zm-91.32-1.86a1.41,1.41,0,0,1-.6-.13c-.62-.26-1.24-.54-1.85-.81a1.5,1.5,0,1,1,1.24-2.74l1.8.8a1.5,1.5,0,0,1-.59,2.88Zm96.83-.42a1.5,1.5,0,0,1-.61-2.87c.6-.26,1.19-.53,1.78-.81a1.5,1.5,0,1,1,1.26,2.72c-.6.28-1.21.56-1.83.83A1.41,1.41,0,0,1,568.72,346.86Zm-102.27-2.1a1.55,1.55,0,0,1-.66-.15L464,343.7a1.5,1.5,0,0,1,1.37-2.67l1.76.89a1.49,1.49,0,0,1-.66,2.84Zm107.65-.45a1.49,1.49,0,0,1-1.34-.82,1.51,1.51,0,0,1,.67-2l1.74-.89a1.5,1.5,0,1,1,1.4,2.65c-.6.32-1.2.62-1.79.92A1.51,1.51,0,0,1,574.1,344.31Zm-113-2.33a1.47,1.47,0,0,1-.73-.19l-1.76-1a1.5,1.5,0,1,1,1.5-2.59l1.72,1a1.5,1.5,0,0,1-.73,2.81Zm118.21-.48a1.5,1.5,0,0,1-.74-2.8l1.7-1a1.5,1.5,0,0,1,1.52,2.59l-1.74,1A1.54,1.54,0,0,1,579.36,341.5ZM456,338.94a1.45,1.45,0,0,1-.79-.23q-.85-.52-1.71-1.08a1.5,1.5,0,0,1,1.63-2.52l1.67,1.06a1.5,1.5,0,0,1-.8,2.77Zm128.48-.51a1.5,1.5,0,0,1-.8-2.77l1.65-1.06a1.5,1.5,0,0,1,1.65,2.5l-1.7,1.1A1.43,1.43,0,0,1,584.47,338.43ZM451,335.65a1.5,1.5,0,0,1-.85-.27l-1.65-1.16a1.5,1.5,0,0,1,1.75-2.44c.53.39,1.07.76,1.61,1.14a1.5,1.5,0,0,1-.86,2.73Zm138.44-.54a1.5,1.5,0,0,1-.87-2.73c.54-.37,1.07-.76,1.6-1.14a1.5,1.5,0,0,1,1.77,2.42c-.54.4-1.09.79-1.64,1.18A1.51,1.51,0,0,1,589.43,335.11Zm-143.26-3a1.52,1.52,0,0,1-.92-.31l-1.58-1.25a1.5,1.5,0,1,1,1.87-2.34c.51.41,1,.81,1.55,1.21a1.5,1.5,0,0,1-.92,2.69Zm148.05-.57a1.5,1.5,0,0,1-.93-2.68l1.54-1.23a1.5,1.5,0,0,1,1.89,2.34l-1.58,1.25A1.51,1.51,0,0,1,594.22,331.55Zm-152.7-3.19a1.5,1.5,0,0,1-1-.36L439,326.68a1.49,1.49,0,0,1-.14-2.12,1.51,1.51,0,0,1,2.12-.14c.49.44,1,.87,1.49,1.29a1.5,1.5,0,0,1-1,2.65Zm157.31-.61a1.5,1.5,0,0,1-1-2.63l1.47-1.3a1.5,1.5,0,0,1,2,2.24l-1.51,1.33A1.5,1.5,0,0,1,598.83,327.75Zm-161.76-3.38a1.51,1.51,0,0,1-1-.41l-1.45-1.39a1.5,1.5,0,0,1,2.09-2.15l1.42,1.36a1.5,1.5,0,0,1-1,2.59Zm166.18-.63a1.5,1.5,0,0,1-1-2.59c.48-.45.95-.91,1.41-1.37a1.5,1.5,0,0,1,2.11,2.14c-.48.47-1,.94-1.45,1.4A1.48,1.48,0,0,1,603.25,323.74Zm-170.43-3.57a1.49,1.49,0,0,1-1.08-.46c-.47-.48-.93-1-1.39-1.46a1.5,1.5,0,0,1,2.2-2.05c.44.48.9,1,1.35,1.43a1.5,1.5,0,0,1-1.08,2.54Zm174.65-.66a1.51,1.51,0,0,1-1.09-2.54c.45-.47.9-1,1.34-1.44a1.5,1.5,0,1,1,2.21,2c-.45.5-.91,1-1.38,1.48A1.49,1.49,0,0,1,607.47,319.51Zm-178.69-3.74a1.5,1.5,0,0,1-1.13-.52c-.44-.5-.88-1-1.31-1.52a1.5,1.5,0,1,1,2.29-1.94c.42.5.85,1,1.28,1.49a1.5,1.5,0,0,1-1.13,2.49Zm182.69-.7a1.54,1.54,0,0,1-1-.36,1.5,1.5,0,0,1-.15-2.12l1.27-1.5a1.5,1.5,0,0,1,2.3,1.92c-.43.52-.86,1-1.3,1.54A1.52,1.52,0,0,1,611.47,315.07ZM425,311.17a1.5,1.5,0,0,1-1.18-.57q-.63-.78-1.23-1.59a1.49,1.49,0,0,1,.28-2.1,1.51,1.51,0,0,1,2.1.28l1.21,1.56a1.49,1.49,0,0,1-1.18,2.42Zm190.29-.73a1.48,1.48,0,0,1-.92-.31,1.51,1.51,0,0,1-.27-2.11c.41-.52.8-1,1.2-1.56a1.5,1.5,0,0,1,2.4,1.8l-1.23,1.6A1.49,1.49,0,0,1,615.26,310.44Zm-193.87-4a1.52,1.52,0,0,1-1.23-.63c-.39-.54-.77-1.09-1.15-1.65a1.5,1.5,0,0,1,2.47-1.7c.37.54.75,1.08,1.13,1.61a1.5,1.5,0,0,1-1.22,2.37Zm197.42-.77a1.5,1.5,0,0,1-1.23-2.36l1.12-1.62a1.5,1.5,0,0,1,2.48,1.68c-.37.56-.76,1.11-1.14,1.66A1.49,1.49,0,0,1,618.81,305.63ZM418,301.46a1.52,1.52,0,0,1-1.26-.69c-.36-.57-.72-1.13-1.07-1.7a1.5,1.5,0,1,1,2.55-1.58l1,1.66a1.5,1.5,0,0,1-1.26,2.31Zm204.08-.81a1.48,1.48,0,0,1-.8-.23,1.5,1.5,0,0,1-.47-2.07c.35-.55.7-1.11,1-1.68a1.5,1.5,0,1,1,2.56,1.56c-.35.58-.7,1.15-1.06,1.72A1.49,1.49,0,0,1,622.12,300.65ZM415,296.36a1.49,1.49,0,0,1-1.3-.75c-.34-.59-.67-1.17-1-1.76a1.5,1.5,0,0,1,2.63-1.45q.46.87,1,1.71a1.5,1.5,0,0,1-.56,2.05A1.42,1.42,0,0,1,415,296.36Zm210.24-.85a1.5,1.5,0,0,1-1.31-2.24c.32-.57.64-1.14,1-1.72a1.5,1.5,0,1,1,2.64,1.43c-.32.59-.65,1.18-1,1.77A1.5,1.5,0,0,1,625.19,295.51Zm-213.08-4.39a1.52,1.52,0,0,1-1.34-.82c-.3-.6-.6-1.2-.89-1.8a1.5,1.5,0,1,1,2.69-1.32c.29.59.58,1.17.88,1.75a1.52,1.52,0,0,1-1.34,2.19Zm215.88-.9a1.5,1.5,0,0,1-1.34-2.17l.87-1.77a1.5,1.5,0,1,1,2.7,1.29c-.29.61-.58,1.22-.89,1.82A1.49,1.49,0,0,1,628,290.22Zm-218.45-4.48a1.5,1.5,0,0,1-1.37-.89l-.81-1.84a1.5,1.5,0,1,1,2.76-1.18c.26.6.52,1.2.79,1.8a1.5,1.5,0,0,1-1.37,2.11Zm221-.94a1.44,1.44,0,0,1-.6-.13,1.5,1.5,0,0,1-.77-2c.26-.61.52-1.21.77-1.82A1.5,1.5,0,0,1,632.7,282c-.26.62-.52,1.24-.79,1.86A1.51,1.51,0,0,1,630.53,284.8Zm-223.29-4.55a1.5,1.5,0,0,1-1.4-1l-.72-1.88a1.5,1.5,0,0,1,2.81-1.05c.23.62.47,1.23.7,1.84a1.51,1.51,0,0,1-.85,1.95A1.47,1.47,0,0,1,407.24,280.25Zm225.56-1a1.39,1.39,0,0,1-.53-.1,1.49,1.49,0,0,1-.87-1.93c.23-.62.46-1.23.68-1.85a1.5,1.5,0,0,1,2.82,1c-.22.63-.46,1.26-.7,1.89A1.51,1.51,0,0,1,632.8,279.25Zm-227.6-4.62a1.51,1.51,0,0,1-1.42-1c-.21-.63-.42-1.27-.62-1.91a1.5,1.5,0,1,1,2.86-.91c.2.63.4,1.25.61,1.87a1.5,1.5,0,0,1-.95,1.9A1.61,1.61,0,0,1,405.2,274.63Zm229.59-1a1.52,1.52,0,0,1-1.43-2c.2-.62.4-1.25.59-1.88a1.51,1.51,0,0,1,1.88-1,1.5,1.5,0,0,1,1,1.88c-.2.64-.4,1.29-.61,1.93A1.5,1.5,0,0,1,634.79,273.6Zm-231.34-4.68a1.5,1.5,0,0,1-1.44-1.1c-.18-.65-.36-1.3-.53-1.95a1.5,1.5,0,0,1,2.91-.76c.16.64.33,1.27.51,1.9a1.5,1.5,0,0,1-1,1.85A1.45,1.45,0,0,1,403.45,268.92Zm233-1.06a1.74,1.74,0,0,1-.39-.05A1.5,1.5,0,0,1,635,266c.17-.64.34-1.27.49-1.91a1.51,1.51,0,0,1,1.83-1.08,1.49,1.49,0,0,1,1.08,1.82c-.16.65-.33,1.3-.5,1.95A1.5,1.5,0,0,1,636.49,267.86ZM402,263.12a1.49,1.49,0,0,1-1.46-1.17c-.15-.65-.29-1.31-.43-2a1.5,1.5,0,0,1,2.94-.61c.13.64.27,1.28.41,1.92a1.5,1.5,0,0,1-1.13,1.8A1.84,1.84,0,0,1,402,263.12Zm235.91-1.07a1.73,1.73,0,0,1-.32,0,1.51,1.51,0,0,1-1.15-1.79c.14-.64.27-1.28.4-1.92a1.51,1.51,0,0,1,1.77-1.18,1.49,1.49,0,0,1,1.17,1.76c-.13.66-.26,1.32-.41,2A1.49,1.49,0,0,1,637.9,262.05Zm-237.08-4.79a1.5,1.5,0,0,1-1.48-1.24c-.12-.66-.23-1.32-.33-2a1.5,1.5,0,1,1,3-.46c.1.64.21,1.29.32,1.94a1.49,1.49,0,0,1-1.21,1.73A1.18,1.18,0,0,1,400.82,257.26ZM639,256.18l-.25,0a1.49,1.49,0,0,1-1.23-1.72c.1-.65.21-1.3.3-1.95a1.5,1.5,0,0,1,3,.44c-.1.67-.2,1.33-.31,2A1.5,1.5,0,0,1,639,256.18Zm-239.09-4.83a1.49,1.49,0,0,1-1.48-1.31c-.08-.67-.16-1.34-.23-2a1.5,1.5,0,1,1,3-.33c.07.66.14,1.31.22,2a1.49,1.49,0,0,1-1.3,1.67Zm239.92-1.09h-.17a1.5,1.5,0,0,1-1.33-1.66q.12-1,.21-2a1.5,1.5,0,1,1,3,.29l-.21,2A1.5,1.5,0,0,1,639.85,250.26Zm-240.5-4.85a1.5,1.5,0,0,1-1.5-1.39c-.05-.67-.09-1.34-.13-2a1.5,1.5,0,1,1,3-.18c0,.66.09,1.31.13,2a1.5,1.5,0,0,1-1.38,1.6Zm241-1.1h-.1a1.5,1.5,0,0,1-1.4-1.59c0-.66.08-1.31.11-2a1.48,1.48,0,0,1,1.57-1.42A1.5,1.5,0,0,1,642,240.9c0,.67-.07,1.34-.11,2A1.5,1.5,0,0,1,640.38,244.31ZM399.05,239.5a1.53,1.53,0,0,1-1.5-1.49c0-.68,0-1.34,0-2a1.48,1.48,0,0,1,1.48-1.5h0a1.48,1.48,0,0,1,1.5,1.46c0,.66,0,1.33,0,2a1.5,1.5,0,0,1-1.46,1.56Zm241.57-1h0c-.83,0-1.11-.78-1.09-1.61,0-.65.4-1.38.4-2v-.21a1.5,1.5,0,0,1,3,0v.21c0,.67-.39,1.42-.4,2.09A2,2,0,0,1,640.62,238.5Zm-241.57-5h0a1.51,1.51,0,0,1-1.46-1.55l.06-2a1.5,1.5,0,0,1,3,.12c0,.65-.05,1.32-.06,2A1.52,1.52,0,0,1,399.05,233.5Zm241.52-1a1.66,1.66,0,0,1-1.5-1.62c0-.66-.05-1.4-.09-2a1.54,1.54,0,0,1,1.43-1.62,1.48,1.48,0,0,1,1.57,1.4c0,.67.06,1.5.09,2.17a1.64,1.64,0,0,1-1.45,1.72Zm-241.23-5h-.11a1.49,1.49,0,0,1-1.39-1.6c.05-.67.1-1.34.16-2a1.5,1.5,0,0,1,3,.26c-.06.66-.11,1.31-.16,2A1.5,1.5,0,0,1,399.34,227.5Zm240.87-1.31a1.5,1.5,0,0,1-1.49-1.37c-.05-.66-.11-1.31-.18-2a1.5,1.5,0,0,1,3-.29l.18,2a1.5,1.5,0,0,1-1.37,1.62Zm-240.3-4.64h-.18a1.5,1.5,0,0,1-1.31-1.67c.08-.67.17-1.34.26-2a1.5,1.5,0,0,1,3,.41c-.09.65-.18,1.3-.26,1.95A1.5,1.5,0,0,1,399.91,221.55Zm239.66-1.3a1.5,1.5,0,0,1-1.48-1.3c-.09-.65-.18-1.3-.28-1.95a1.5,1.5,0,0,1,3-.45c.1.67.19,1.33.28,2a1.51,1.51,0,0,1-1.29,1.69Zm-238.79-4.61-.25,0a1.51,1.51,0,0,1-1.23-1.74l.36-2a1.5,1.5,0,1,1,2.95.56c-.12.64-.24,1.29-.35,1.93A1.51,1.51,0,0,1,400.78,215.64Zm237.86-1.29a1.52,1.52,0,0,1-1.48-1.23c-.12-.65-.24-1.29-.37-1.93a1.5,1.5,0,1,1,2.94-.59c.13.66.26,1.32.38,2a1.5,1.5,0,0,1-1.2,1.74A1.24,1.24,0,0,1,638.64,214.35ZM402,209.78a1.24,1.24,0,0,1-.33,0,1.5,1.5,0,0,1-1.14-1.79c.15-.66.3-1.31.46-2a1.5,1.5,0,0,1,2.92.71c-.16.64-.31,1.27-.45,1.92A1.51,1.51,0,0,1,402,209.78Zm235.46-1.28a1.49,1.49,0,0,1-1.46-1.16c-.15-.63-.3-1.27-.47-1.91a1.5,1.5,0,1,1,2.91-.73c.17.65.33,1.3.48,2a1.5,1.5,0,0,1-1.11,1.8A1.45,1.45,0,0,1,637.41,208.5ZM403.4,204a1.83,1.83,0,0,1-.4,0,1.51,1.51,0,0,1-1.05-1.85c.18-.65.37-1.29.56-1.94a1.5,1.5,0,0,1,2.88.85q-.28.94-.54,1.89A1.5,1.5,0,0,1,403.4,204Zm232.49-1.26a1.51,1.51,0,0,1-1.44-1.08c-.18-.63-.37-1.26-.56-1.89a1.5,1.5,0,0,1,2.87-.88c.2.64.39,1.29.58,1.93a1.5,1.5,0,0,1-1,1.86A1.52,1.52,0,0,1,635.89,202.72Zm-230.75-4.45a1.51,1.51,0,0,1-1.42-2c.21-.64.43-1.28.65-1.92a1.51,1.51,0,0,1,1.92-.91,1.49,1.49,0,0,1,.91,1.91c-.22.62-.43,1.24-.64,1.87A1.5,1.5,0,0,1,405.14,198.27Zm229-1.25a1.51,1.51,0,0,1-1.42-1c-.21-.62-.43-1.24-.65-1.85a1.5,1.5,0,0,1,2.82-1c.23.64.45,1.27.67,1.91a1.5,1.5,0,0,1-.93,1.9A1.4,1.4,0,0,1,634.09,197Zm-226.92-4.39a1.52,1.52,0,0,1-1.4-2l.75-1.88a1.5,1.5,0,1,1,2.78,1.14c-.25.6-.49,1.21-.73,1.83A1.51,1.51,0,0,1,407.17,192.63ZM632,191.42a1.5,1.5,0,0,1-1.4-.94c-.24-.6-.49-1.21-.74-1.81a1.5,1.5,0,0,1,2.77-1.16c.26.61.51,1.23.76,1.86a1.51,1.51,0,0,1-.83,1.95A1.62,1.62,0,0,1,632,191.42ZM409.48,187.1a1.47,1.47,0,0,1-.61-.14,1.49,1.49,0,0,1-.76-2c.27-.61.55-1.23.84-1.84a1.5,1.5,0,0,1,2.72,1.27c-.28.6-.55,1.2-.82,1.8A1.52,1.52,0,0,1,409.48,187.1ZM629.66,186a1.5,1.5,0,0,1-1.37-.87c-.27-.6-.55-1.19-.83-1.78a1.5,1.5,0,1,1,2.7-1.29c.29.6.58,1.21.86,1.82a1.51,1.51,0,0,1-.74,2A1.53,1.53,0,0,1,629.66,186Zm-217.6-4.26a1.5,1.5,0,0,1-1.34-2.18l.93-1.79a1.5,1.5,0,1,1,2.65,1.4c-.3.58-.61,1.16-.9,1.75A1.52,1.52,0,0,1,412.06,181.69Zm215-1.09a1.5,1.5,0,0,1-1.33-.8c-.3-.59-.61-1.16-.92-1.74a1.5,1.5,0,0,1,2.64-1.43c.32.59.63,1.18.94,1.78a1.49,1.49,0,0,1-.63,2A1.48,1.48,0,0,1,627,180.6ZM414.9,176.42a1.42,1.42,0,0,1-.74-.2,1.49,1.49,0,0,1-.56-2c.34-.59.67-1.17,1-1.75A1.5,1.5,0,0,1,417.2,174c-.34.57-.67,1.14-1,1.71A1.49,1.49,0,0,1,414.9,176.42Zm209.25-1a1.49,1.49,0,0,1-1.3-.74c-.33-.56-.66-1.13-1-1.68a1.5,1.5,0,1,1,2.56-1.56c.35.57.69,1.15,1,1.73a1.49,1.49,0,0,1-1.29,2.25ZM418,171.3a1.49,1.49,0,0,1-1.26-2.3c.36-.57.73-1.14,1.1-1.7a1.5,1.5,0,0,1,2.5,1.66c-.36.55-.72,1.1-1.07,1.65A1.5,1.5,0,0,1,418,171.3Zm203-1a1.51,1.51,0,0,1-1.26-.68c-.36-.54-.72-1.09-1.09-1.63a1.5,1.5,0,0,1,2.49-1.68c.37.55.75,1.11,1.11,1.67a1.5,1.5,0,0,1-.43,2.08A1.53,1.53,0,0,1,621,170.31Zm-199.66-4a1.5,1.5,0,0,1-1.22-2.37c.39-.55.79-1.1,1.19-1.64a1.5,1.5,0,0,1,2.41,1.78c-.39.53-.78,1.06-1.16,1.6A1.49,1.49,0,0,1,421.35,166.35Zm196.27-.95a1.51,1.51,0,0,1-1.22-.62c-.38-.53-.77-1.05-1.16-1.58a1.5,1.5,0,0,1,.29-2.1,1.52,1.52,0,0,1,2.11.3l1.19,1.62a1.49,1.49,0,0,1-.33,2.09A1.45,1.45,0,0,1,617.62,165.4Zm-192.68-3.84a1.48,1.48,0,0,1-.93-.32,1.51,1.51,0,0,1-.25-2.11l1.26-1.57a1.5,1.5,0,0,1,2.33,1.9c-.41.51-.83,1-1.23,1.53A1.5,1.5,0,0,1,424.94,161.56Zm189.05-.9a1.5,1.5,0,0,1-1.17-.56c-.41-.51-.82-1-1.24-1.52a1.5,1.5,0,1,1,2.3-1.92l1.28,1.56a1.5,1.5,0,0,1-.23,2.11A1.52,1.52,0,0,1,614,160.66ZM428.76,157a1.51,1.51,0,0,1-1-.37,1.49,1.49,0,0,1-.14-2.11c.44-.51.89-1,1.34-1.51a1.5,1.5,0,1,1,2.22,2c-.44.48-.87,1-1.3,1.47A1.49,1.49,0,0,1,428.76,157Zm181.38-.86a1.52,1.52,0,0,1-1.13-.5c-.43-.49-.87-1-1.32-1.46a1.5,1.5,0,1,1,2.21-2c.46.49.91,1,1.36,1.5a1.49,1.49,0,0,1-.13,2.11A1.47,1.47,0,0,1,610.14,156.1ZM432.8,152.56a1.5,1.5,0,0,1-1.08-2.54q.69-.74,1.41-1.44a1.5,1.5,0,1,1,2.12,2.11l-1.37,1.41A1.53,1.53,0,0,1,432.8,152.56Zm173.26-.82a1.48,1.48,0,0,1-1.07-.45l-1.39-1.4a1.5,1.5,0,1,1,2.1-2.13l1.43,1.43a1.5,1.5,0,0,1,0,2.12A1.52,1.52,0,0,1,606.06,151.74Zm-169-3.38a1.53,1.53,0,0,1-1.1-.47,1.51,1.51,0,0,1,.07-2.13l1.48-1.36a1.5,1.5,0,1,1,2,2.21c-.49.44-1,.89-1.45,1.34A1.51,1.51,0,0,1,437.05,148.36Zm164.72-.78a1.53,1.53,0,0,1-1-.4c-.48-.45-1-.89-1.46-1.32a1.5,1.5,0,0,1,2-2.24l1.5,1.35a1.51,1.51,0,0,1-1,2.61ZM441.5,144.37a1.5,1.5,0,0,1-1-2.64c.51-.44,1-.87,1.55-1.29a1.5,1.5,0,0,1,2.11.2,1.51,1.51,0,0,1-.2,2.11L442.47,144A1.5,1.5,0,0,1,441.5,144.37Zm155.78-.74a1.46,1.46,0,0,1-1-.35L594.8,142a1.5,1.5,0,1,1,1.88-2.33c.53.42,1,.85,1.56,1.28a1.5,1.5,0,0,1-1,2.65Zm-151.15-3a1.5,1.5,0,0,1-.91-2.69l1.6-1.21a1.5,1.5,0,1,1,1.79,2.4l-1.56,1.19A1.52,1.52,0,0,1,446.13,140.61Zm146.47-.7a1.53,1.53,0,0,1-.91-.3c-.52-.4-1.05-.79-1.58-1.18a1.5,1.5,0,0,1,1.77-2.42c.55.39,1.09.8,1.62,1.2a1.5,1.5,0,0,1-.9,2.7ZM451,137.09a1.51,1.51,0,0,1-.86-2.74l1.67-1.13a1.49,1.49,0,0,1,2.08.41,1.51,1.51,0,0,1-.41,2.08c-.55.36-1.09.73-1.63,1.11A1.5,1.5,0,0,1,451,137.09Zm136.79-.67a1.44,1.44,0,0,1-.84-.26l-1.64-1.09a1.5,1.5,0,0,1,1.64-2.51c.57.37,1.13.74,1.68,1.12a1.5,1.5,0,0,1-.84,2.74ZM455.93,133.8a1.5,1.5,0,0,1-.8-2.77c.57-.36,1.14-.71,1.72-1.05a1.5,1.5,0,0,1,1.55,2.57l-1.68,1A1.42,1.42,0,0,1,455.93,133.8Zm126.78-.62a1.49,1.49,0,0,1-.78-.22c-.56-.35-1.12-.68-1.69-1a1.5,1.5,0,0,1,1.52-2.58l1.73,1a1.5,1.5,0,0,1-.78,2.78Zm-121.65-2.41a1.5,1.5,0,0,1-.73-2.81l1.77-1a1.5,1.5,0,0,1,1.42,2.65c-.58.31-1.16.62-1.73.94A1.47,1.47,0,0,1,461.06,130.77Zm116.47-.58a1.44,1.44,0,0,1-.72-.19l-1.74-.93a1.5,1.5,0,1,1,1.39-2.65l1.79,1a1.5,1.5,0,0,1-.72,2.82ZM466.34,128a1.5,1.5,0,0,1-.66-2.84c.59-.3,1.2-.59,1.8-.88a1.5,1.5,0,0,1,2,.72,1.49,1.49,0,0,1-.71,2l-1.76.86A1.59,1.59,0,0,1,466.34,128Zm105.86-.54a1.38,1.38,0,0,1-.65-.15l-1.78-.84a1.5,1.5,0,1,1,1.25-2.72c.62.28,1.23.57,1.83.86a1.5,1.5,0,0,1,.7,2A1.48,1.48,0,0,1,572.2,127.45Zm-100.45-2a1.5,1.5,0,0,1-.6-2.88c.61-.27,1.23-.53,1.85-.78a1.5,1.5,0,0,1,2,.81,1.51,1.51,0,0,1-.81,2l-1.81.76A1.4,1.4,0,0,1,471.75,125.49Zm95-.5a1.51,1.51,0,0,1-.58-.12q-.92-.39-1.83-.75a1.5,1.5,0,1,1,1.12-2.78c.63.25,1.25.5,1.87.77a1.5,1.5,0,0,1-.58,2.88Zm-89.48-1.74a1.5,1.5,0,0,1-.53-2.9l1.9-.7a1.5,1.5,0,1,1,1,2.83l-1.85.67A1.39,1.39,0,0,1,477.26,123.25Zm83.9-.45a1.52,1.52,0,0,1-.51-.09l-1.86-.66a1.5,1.5,0,1,1,1-2.84l1.91.68a1.5,1.5,0,0,1-.52,2.91Zm-78.25-1.51a1.5,1.5,0,0,1-.46-2.93c.64-.21,1.28-.41,1.93-.6a1.5,1.5,0,0,1,.86,2.87l-1.88.58A1.42,1.42,0,0,1,482.91,121.29Zm72.57-.4a1.35,1.35,0,0,1-.44-.07l-1.89-.56a1.5,1.5,0,1,1,.84-2.88c.65.18,1.29.38,1.93.57a1.5,1.5,0,0,1-.44,2.94Zm-66.84-1.29a1.5,1.5,0,0,1-.39-2.95l2-.5a1.5,1.5,0,0,1,.72,2.91l-1.9.49A1.31,1.31,0,0,1,488.64,119.6Zm61.09-.33a1.57,1.57,0,0,1-.37,0l-1.91-.47a1.5,1.5,0,1,1,.69-2.92l2,.49a1.5,1.5,0,0,1-.37,3Zm-55.28-1.06a1.5,1.5,0,0,1-.31-3l2-.4a1.5,1.5,0,0,1,.58,2.94l-1.93.4A1.63,1.63,0,0,1,494.45,118.21Zm49.45-.27a1.53,1.53,0,0,1-.3,0l-1.93-.37a1.51,1.51,0,0,1-1.2-1.75,1.49,1.49,0,0,1,1.75-1.2l2,.38a1.5,1.5,0,0,1-.3,3Zm-43.58-.83a1.5,1.5,0,0,1-.24-3l2-.31a1.5,1.5,0,0,1,.43,3q-1,.13-1.95.3Zm37.7-.21a.93.93,0,0,1-.23,0c-.64-.09-1.29-.19-1.94-.27a1.5,1.5,0,0,1,.39-3l2,.29a1.5,1.5,0,0,1-.22,3Zm-31.78-.6a1.5,1.5,0,0,1-.16-3l2-.2a1.5,1.5,0,1,1,.29,3c-.66.07-1.31.13-2,.21Zm25.85-.15h-.15c-.65-.07-1.3-.13-2-.18a1.5,1.5,0,1,1,.25-3q1,.08,2,.18a1.5,1.5,0,0,1-.15,3Zm-19.9-.37a1.5,1.5,0,0,1-.09-3l2-.11a1.47,1.47,0,0,1,1.56,1.43,1.5,1.5,0,0,1-1.43,1.57l-2,.1Zm13.94-.08h-.07l-2-.09a1.5,1.5,0,1,1,.1-3l2,.08a1.5,1.5,0,0,1-.08,3Zm-8-.2a1.48,1.48,0,0,1-1.5-1.46,1.51,1.51,0,0,1,1.48-1.53h2a1.5,1.5,0,0,1,0,3h-2Z"/><path class="cls-3" d="M519.82,366.57c-72.63,0-131.72-59.09-131.72-131.72s59.09-131.72,131.72-131.72,131.73,59.09,131.73,131.72a.5.5,0,0,1-.5.5.5.5,0,0,1-.5-.5c0-72.08-58.65-130.72-130.73-130.72a130.72,130.72,0,0,0,0,261.44.5.5,0,0,1,.5.5A.5.5,0,0,1,519.82,366.57Z"/><g class="cls-6"><path class="cls-1" d="M519.82,381.07a.5.5,0,0,1-.5-.5.51.51,0,0,1,.5-.5c80.08,0,145.23-65.14,145.23-145.22S599.9,89.63,519.82,89.63a.5.5,0,0,1,0-1c80.63,0,146.23,65.59,146.23,146.22S600.45,381.07,519.82,381.07Z"/></g><path class="cls-1" d="M519.82,375.84a.5.5,0,0,1,0-1c76.64,0,139-62.35,139-139a.5.5,0,0,1,.5-.5.5.5,0,0,1,.5.5C659.82,313,597,375.84,519.82,375.84Z"/><path class="cls-3" d="M616.47,195.47a4.51,4.51,0,0,1-4.1-2.63,101.86,101.86,0,0,0-134.92-50.42,4.5,4.5,0,0,1-3.74-8.19A110.85,110.85,0,0,1,620.56,189.1a4.5,4.5,0,0,1-4.09,6.37Z"/><g class="cls-4"><path class="cls-1" d="M640.94,319.92c-16,0-39.9-1.33-39.9-5s23.86-5,39.9-5,39.9,1.33,39.9,5S657,319.92,640.94,319.92Zm0-9c-25.54,0-38.9,2.6-38.9,4s13.36,4,38.9,4,38.9-2.6,38.9-4S666.48,310.94,640.94,310.94Z"/></g><g class="cls-4"><path class="cls-1" d="M621.72,349.75a.9.9,0,0,1-.46-.11c-3.18-1.81,7.43-23.22,15.34-37.17s20.81-34.05,24-32.25c.55.31,2,1.14-2.71,12.24a261.36,261.36,0,0,1-12.63,24.93C637.71,330.75,625.54,349.75,621.72,349.75ZM660,281.06c-1.63,0-10.32,10.37-22.52,31.9-12.6,22.22-16.93,35.12-15.71,35.81s10.06-9.65,22.66-31.87A260.15,260.15,0,0,0,657,292.06c4.25-10,3.15-11,3.14-11h0A.32.32,0,0,0,660,281.06Z"/></g><g class="cls-4"><path class="cls-1" d="M660.07,349.8c-.91,0-3-1.17-8.55-8.77a260.26,260.26,0,0,1-14.92-23.64A261,261,0,0,1,624,292.46c-4.72-11.1-3.26-11.93-2.72-12.24h0c.56-.31,2-1.14,9.11,8.61a298.17,298.17,0,0,1,27.54,48.57c4.72,11.1,3.26,11.93,2.71,12.24A1,1,0,0,1,660.07,349.8Zm-38.26-68.72h0s-1.11,1,3.14,11a295.23,295.23,0,0,0,27.42,48.38c6.4,8.78,7.8,8.34,7.81,8.33s1.11-1-3.14-11a294.77,294.77,0,0,0-27.43-48.37C623.79,281.5,622.09,281.08,621.81,281.08Z"/></g><g class="cls-5"><path class="cls-3" d="M652.33,314.93a11.39,11.39,0,1,1-11.39-11.39A11.39,11.39,0,0,1,652.33,314.93Z"/></g><path class="cls-1" d="M640.94,344.14a29.21,29.21,0,1,1,29.22-29.21A29.24,29.24,0,0,1,640.94,344.14Zm0-57.42a28.21,28.21,0,1,0,28.22,28.21A28.24,28.24,0,0,0,640.94,286.72Z"/><path class="cls-1" d="M520.41,375.56a.5.5,0,0,1-.5-.5v-9a.5.5,0,0,1,1,0v9A.5.5,0,0,1,520.41,375.56Z"/><path class="cls-1" d="M518.41,375.56a.5.5,0,0,1-.5-.5v-9a.5.5,0,0,1,1,0v9A.5.5,0,0,1,518.41,375.56Z"/><path class="cls-1" d="M522.41,375.56a.5.5,0,0,1-.5-.5v-9a.5.5,0,0,1,1,0v9A.5.5,0,0,1,522.41,375.56Z"/><path class="cls-1" d="M516.41,375.56a.5.5,0,0,1-.5-.5v-9a.5.5,0,0,1,1,0v9A.5.5,0,0,1,516.41,375.56Z"/><path class="cls-1" d="M524.41,375.56a.5.5,0,0,1-.5-.5v-9a.5.5,0,0,1,1,0v9A.5.5,0,0,1,524.41,375.56Z"/><path class="cls-1" d="M659.61,236.5h-9a.51.51,0,0,1-.5-.5.5.5,0,0,1,.5-.5h9a.5.5,0,0,1,.5.5A.5.5,0,0,1,659.61,236.5Z"/><g class="cls-4"><path class="cls-1" d="M60.46,352.59c0-16,1.33-39.9,5-39.9s5,23.86,5,39.9-1.33,39.9-5,39.9S60.46,368.63,60.46,352.59Zm9,0c0-25.54-2.6-38.9-4-38.9s-4,13.36-4,38.9,2.6,38.9,4,38.9S69.44,378.13,69.44,352.59Z"/></g><g class="cls-4"><path class="cls-1" d="M30.63,333.37a.9.9,0,0,1,.11-.46c1.81-3.18,23.22,7.43,37.17,15.34s34.06,20.83,32.25,24h0c-.31.55-1.14,2-12.24-2.71A261,261,0,0,1,63,356.94C49.63,349.36,30.63,337.19,30.63,333.37Zm68.69,38.27c0-1.63-10.37-10.32-31.9-22.52-22.22-12.6-35.12-16.93-35.81-15.71s9.65,10.06,31.87,22.66a260.15,260.15,0,0,0,24.84,12.57c10,4.25,11,3.15,11,3.14A.32.32,0,0,0,99.32,371.64Z"/></g><g class="cls-4"><path class="cls-1" d="M30.63,371.81c0-3.81,19-16,32.36-23.56,13.95-7.91,35.36-18.52,37.17-15.34h0c1.8,3.19-18.29,16.11-32.25,24s-35.36,18.52-37.17,15.33A.87.87,0,0,1,30.63,371.81Zm68.66-38.4c-.69-1.22-13.59,3.11-35.81,15.71s-32.57,21.46-31.87,22.66,13.59-3.12,35.81-15.71S100,334.59,99.29,333.41Z"/></g><g class="cls-5"><path class="cls-3" d="M65.45,364a11.39,11.39,0,1,1,11.39-11.39A11.39,11.39,0,0,1,65.45,364Z"/></g><path class="cls-1" d="M36.24,352.59a29.21,29.21,0,1,1,29.21,29.22A29.24,29.24,0,0,1,36.24,352.59Zm57.42,0a28.21,28.21,0,1,0-28.21,28.22A28.24,28.24,0,0,0,93.66,352.59Z"/><path class="cls-1" d="M23.91,227.19v-.35a1.5,1.5,0,0,1,3,0h0v2a1.78,1.78,0,0,1-1.78,1.5,1.37,1.37,0,0,1-1.36-1.48C23.76,228.31,23.91,227.75,23.91,227.19Zm0-4.32v-.05c0-.68-.21-1.35-.18-2a1.39,1.39,0,0,1,1.45-1.42A1.43,1.43,0,0,1,26.53,221c0,.66-.09,1.31-.11,2,0,.83-.48,1.48-1.31,1.45S23.91,223.67,23.91,222.87Zm-.47,9.95a1.5,1.5,0,0,1,3-.06c0,.65.06,1.31.1,2a1.5,1.5,0,0,1-3,.19c0-.67-.08-1.34-.11-2Zm.3-15.91a.53.53,0,0,1,0-.13q.08-1,.18-2a1.5,1.5,0,0,1,3,.3c-.07.65-.13,1.3-.19,2a1.5,1.5,0,0,1-3-.12Zm.12,21.87a1.5,1.5,0,0,1,3-.14c.06.66.13,1.31.2,2a1.5,1.5,0,1,1-3,.33c-.07-.66-.14-1.33-.2-2A.76.76,0,0,1,23.86,238.78ZM24.39,211a1.27,1.27,0,0,1,0-.2c.09-.67.19-1.34.29-2a1.5,1.5,0,1,1,3,.45c-.1.64-.19,1.29-.27,1.94a1.51,1.51,0,0,1-1.69,1.29A1.5,1.5,0,0,1,24.39,211Zm.18,33.75a1.5,1.5,0,0,1,3-.22c.09.65.19,1.3.29,1.95a1.49,1.49,0,0,1-1.23,1.72,1.51,1.51,0,0,1-1.73-1.24c-.1-.66-.21-1.33-.3-2A1.8,1.8,0,0,1,24.57,244.72Zm.76-39.65a2.46,2.46,0,0,1,0-.28c.13-.66.25-1.32.39-2a1.5,1.5,0,0,1,2.94.59c-.13.65-.26,1.29-.38,1.94a1.5,1.5,0,0,1-3-.27Zm.25,45.54a1.5,1.5,0,0,1,3-.29l.39,1.93a1.5,1.5,0,1,1-2.93.62c-.14-.65-.27-1.31-.4-2A1.5,1.5,0,0,1,25.58,250.61Zm1-51.39a2.09,2.09,0,0,1,0-.35l.48-2a1.5,1.5,0,0,1,2.91.74c-.16.64-.32,1.27-.47,1.91a1.5,1.5,0,0,1-3-.34Zm.32,57.22a1.5,1.5,0,0,1,2.95-.36c.16.64.32,1.27.49,1.9a1.49,1.49,0,0,1-1.06,1.84,1.51,1.51,0,0,1-1.84-1.06c-.17-.65-.34-1.3-.5-2A1.47,1.47,0,0,1,26.88,256.44Zm1.2-63a1.52,1.52,0,0,1,.06-.42c.19-.65.38-1.29.58-1.93a1.5,1.5,0,0,1,2.87.88c-.19.63-.38,1.26-.56,1.89a1.51,1.51,0,0,1-3-.42Zm.38,68.76a1.5,1.5,0,0,1,2.94-.43c.19.63.38,1.25.58,1.88a1.5,1.5,0,0,1-2.85.91c-.21-.64-.41-1.28-.6-1.93A1.29,1.29,0,0,1,28.46,262.2Zm1.44-74.47a1.4,1.4,0,0,1,.08-.49c.22-.64.45-1.27.68-1.91a1.5,1.5,0,0,1,2.82,1q-.34.93-.66,1.86a1.5,1.5,0,0,1-2.92-.49Zm.43,80.15a1.5,1.5,0,0,1,2.92-.51c.22.62.44,1.24.67,1.85a1.5,1.5,0,1,1-2.8,1c-.24-.62-.47-1.26-.7-1.89A1.51,1.51,0,0,1,30.33,267.88ZM32,182.12a1.55,1.55,0,0,1,.11-.56c.26-.63.51-1.25.78-1.87a1.48,1.48,0,0,1,2-.8,1.5,1.5,0,0,1,.8,2q-.39.92-.75,1.83a1.51,1.51,0,0,1-2.9-.56Zm.49,91.32a1.5,1.5,0,0,1,2.89-.58c.25.61.5,1.21.76,1.81a1.5,1.5,0,1,1-2.75,1.19c-.27-.61-.53-1.23-.79-1.85A1.65,1.65,0,0,1,32.48,273.44Zm1.89-96.83a1.37,1.37,0,0,1,.14-.62c.28-.62.57-1.23.86-1.83a1.5,1.5,0,0,1,2.7,1.3l-.84,1.78a1.5,1.5,0,0,1-2.86-.63Zm.53,102.27a1.5,1.5,0,0,1,2.85-.64c.28.59.57,1.18.86,1.76a1.5,1.5,0,0,1-2.69,1.33c-.3-.6-.59-1.2-.88-1.81A1.42,1.42,0,0,1,34.9,278.88ZM37,171.24a1.56,1.56,0,0,1,.17-.69c.32-.6.63-1.2,1-1.79a1.5,1.5,0,1,1,2.63,1.44l-.93,1.74a1.5,1.5,0,0,1-2.83-.7Zm.57,113a1.51,1.51,0,0,1,2.83-.71c.3.58.62,1.16.94,1.73a1.5,1.5,0,1,1-2.62,1.46c-.33-.59-.65-1.18-1-1.77A1.5,1.5,0,0,1,37.58,284.2ZM39.92,166a1.5,1.5,0,0,1,.21-.76c.34-.58.68-1.16,1-1.73a1.5,1.5,0,1,1,2.56,1.56c-.35.56-.68,1.12-1,1.69a1.5,1.5,0,0,1-2.79-.76Zm.61,123.38a1.5,1.5,0,0,1,2.79-.78c.33.57.68,1.12,1,1.68a1.5,1.5,0,0,1-2.54,1.59c-.36-.57-.71-1.14-1-1.72A1.46,1.46,0,0,1,40.53,289.39Zm2.55-128.46a1.49,1.49,0,0,1,.25-.83c.37-.56.74-1.12,1.12-1.67a1.5,1.5,0,0,1,2.48,1.68l-1.09,1.64a1.5,1.5,0,0,1-2.76-.82Zm.65,133.49a1.5,1.5,0,0,1,2.75-.84c.36.55.73,1.09,1.11,1.63a1.5,1.5,0,0,1-2.47,1.71c-.38-.55-.76-1.11-1.13-1.67A1.41,1.41,0,0,1,43.73,294.42ZM46.49,156a1.45,1.45,0,0,1,.29-.88c.39-.55.8-1.09,1.2-1.62a1.5,1.5,0,0,1,2.4,1.81c-.4.52-.79,1.05-1.18,1.58a1.5,1.5,0,0,1-2.71-.89Zm.69,143.28a1.5,1.5,0,0,1,2.7-.89L51.07,300a1.5,1.5,0,1,1-2.38,1.83c-.41-.53-.81-1.06-1.21-1.6A1.45,1.45,0,0,1,47.18,299.29Zm3-148a1.45,1.45,0,0,1,.34-.94c.42-.53.85-1.05,1.28-1.56a1.5,1.5,0,0,1,2.3,1.92c-.42.51-.84,1-1.25,1.52a1.5,1.5,0,0,1-2.67-.94ZM50.86,304a1.5,1.5,0,0,1,2.66-1l1.26,1.51a1.5,1.5,0,1,1-2.28,1.95c-.44-.51-.87-1-1.3-1.55A1.46,1.46,0,0,1,50.86,304ZM54,146.72a1.47,1.47,0,0,1,.39-1c.44-.5.9-1,1.35-1.5a1.5,1.5,0,0,1,2.21,2c-.45.48-.89,1-1.33,1.46a1.49,1.49,0,0,1-2.11.11A1.45,1.45,0,0,1,54,146.72Zm.77,161.78a1.53,1.53,0,0,1,.49-1.11,1.51,1.51,0,0,1,2.12.1c.44.49.89,1,1.34,1.45A1.5,1.5,0,0,1,56.53,311l-1.37-1.48A1.49,1.49,0,0,1,54.77,308.5ZM58.1,142.36a1.48,1.48,0,0,1,.43-1.05L60,139.88A1.5,1.5,0,1,1,62.06,142l-1.4,1.39a1.49,1.49,0,0,1-2.56-1Zm.8,170.46a1.53,1.53,0,0,1,.44-1.06,1.5,1.5,0,0,1,2.12,0c.47.46.93.92,1.41,1.37a1.5,1.5,0,1,1-2.09,2.16c-.48-.46-1-.93-1.43-1.41A1.46,1.46,0,0,1,58.9,312.82Zm3.49-174.61a1.5,1.5,0,0,1,.49-1.1c.49-.46,1-.91,1.49-1.36a1.51,1.51,0,0,1,2,2.25c-.49.43-1,.87-1.46,1.32a1.51,1.51,0,0,1-2.52-1.11Zm.85,178.72a1.47,1.47,0,0,1,.39-1,1.49,1.49,0,0,1,2.12-.11c.48.44,1,.87,1.47,1.3a1.5,1.5,0,0,1-2,2.26c-.51-.44-1-.89-1.51-1.34A1.48,1.48,0,0,1,63.24,316.93Zm3.65-182.65a1.5,1.5,0,0,1,.54-1.16c.52-.42,1-.85,1.56-1.27a1.5,1.5,0,1,1,1.88,2.34c-.51.41-1,.82-1.52,1.24a1.5,1.5,0,0,1-2.11-.19A1.46,1.46,0,0,1,66.89,134.28Zm.89,186.54a1.55,1.55,0,0,1,.33-.95,1.5,1.5,0,0,1,2.11-.21l1.54,1.23a1.5,1.5,0,0,1-1.86,2.36L68.33,322A1.48,1.48,0,0,1,67.78,320.82Zm3.79-190.25a1.52,1.52,0,0,1,.6-1.2l1.62-1.19a1.5,1.5,0,0,1,1.76,2.42L74,131.77a1.5,1.5,0,0,1-2.4-1.2Zm.93,193.92a1.55,1.55,0,0,1,.29-.89,1.5,1.5,0,0,1,2.1-.32c.53.39,1.06.78,1.6,1.16a1.5,1.5,0,0,1-1.74,2.44c-.55-.39-1.1-.78-1.64-1.18A1.51,1.51,0,0,1,72.5,324.49Zm3.93-197.38a1.51,1.51,0,0,1,.65-1.25c.56-.37,1.12-.75,1.68-1.11a1.5,1.5,0,1,1,1.64,2.51l-1.63,1.09a1.5,1.5,0,0,1-2.08-.4A1.46,1.46,0,0,1,76.43,127.11Zm1,200.81a1.47,1.47,0,0,1,.25-.83,1.5,1.5,0,0,1,2.08-.42l1.65,1.07a1.5,1.5,0,1,1-1.62,2.53l-1.69-1.1A1.52,1.52,0,0,1,77.4,327.92Zm4-204a1.49,1.49,0,0,1,.72-1.28c.57-.35,1.15-.69,1.73-1a1.5,1.5,0,1,1,1.51,2.59l-1.69,1a1.5,1.5,0,0,1-2.06-.5A1.55,1.55,0,0,1,81.45,123.88Zm1,207.22a1.41,1.41,0,0,1,.21-.76,1.49,1.49,0,0,1,2-.53l1.71,1a1.5,1.5,0,0,1-1.5,2.6l-1.74-1A1.5,1.5,0,0,1,82.47,331.1Zm4.15-210.19a1.5,1.5,0,0,1,.78-1.32l1.78-.94a1.49,1.49,0,0,1,2,.63,1.51,1.51,0,0,1-.64,2l-1.73.92a1.5,1.5,0,0,1-2-.61A1.39,1.39,0,0,1,86.62,120.91ZM87.69,334a1.45,1.45,0,0,1,.17-.7,1.5,1.5,0,0,1,2-.62c.58.3,1.16.61,1.75.9a1.5,1.5,0,1,1-1.36,2.68l-1.8-.93A1.51,1.51,0,0,1,87.69,334ZM91.92,118.2a1.49,1.49,0,0,1,.86-1.35L94.6,116a1.5,1.5,0,1,1,1.25,2.73l-1.78.83a1.5,1.5,0,0,1-2.15-1.35Zm1.13,218.5a1.41,1.41,0,0,1,.14-.63,1.5,1.5,0,0,1,2-.73l1.8.82a1.5,1.5,0,0,1-1.23,2.74c-.61-.27-1.23-.55-1.84-.84A1.49,1.49,0,0,1,93.05,336.7Zm4.31-220.94a1.5,1.5,0,0,1,.92-1.39c.61-.26,1.23-.51,1.86-.76a1.5,1.5,0,1,1,1.11,2.79l-1.81.74a1.51,1.51,0,0,1-2-.8A1.49,1.49,0,0,1,97.36,115.76ZM98.54,339.1a1.44,1.44,0,0,1,.11-.57,1.5,1.5,0,0,1,1.95-.82l1.84.73a1.5,1.5,0,0,1-1.09,2.8l-1.88-.75A1.5,1.5,0,0,1,98.54,339.1Zm4.37-225.52a1.5,1.5,0,0,1,1-1.41l1.91-.67a1.5,1.5,0,0,1,1,2.84l-1.85.65a1.5,1.5,0,0,1-2-1.41Zm1.23,227.64a1.51,1.51,0,0,1,.09-.5,1.49,1.49,0,0,1,1.91-.91l1.87.64a1.5,1.5,0,1,1-1,2.84l-1.92-.65A1.52,1.52,0,0,1,104.14,341.22Zm4.44-229.54a1.49,1.49,0,0,1,1.06-1.43l1.93-.58a1.5,1.5,0,0,1,.84,2.89l-1.89.56a1.5,1.5,0,0,1-1.87-1A1.41,1.41,0,0,1,108.58,111.68Zm1.25,231.38a1.23,1.23,0,0,1,.07-.42,1.5,1.5,0,0,1,1.86-1l1.89.54a1.5,1.5,0,1,1-.8,2.9l-1.94-.56A1.51,1.51,0,0,1,109.83,343.06Zm4.5-233a1.5,1.5,0,0,1,1.14-1.45c.65-.17,1.3-.33,2-.48a1.5,1.5,0,1,1,.68,2.92c-.63.15-1.27.3-1.91.47a1.51,1.51,0,0,1-1.82-1.09A1.57,1.57,0,0,1,114.33,110.07Zm1.27,234.54a1.48,1.48,0,0,1,.05-.35,1.5,1.5,0,0,1,1.81-1.11c.64.16,1.27.31,1.91.45a1.5,1.5,0,1,1-.65,2.93l-2-.46A1.51,1.51,0,0,1,115.6,344.61Zm4.56-235.86a1.5,1.5,0,0,1,1.21-1.47c.65-.14,1.31-.26,2-.38a1.49,1.49,0,0,1,1.74,1.2,1.51,1.51,0,0,1-1.2,1.75c-.65.11-1.29.24-1.93.37a1.51,1.51,0,0,1-1.8-1.47Zm1.29,237.12c0-.09,0-.18,0-.28a1.5,1.5,0,0,1,1.76-1.19l1.93.35a1.5,1.5,0,0,1,1.23,1.73,1.51,1.51,0,0,1-1.74,1.23l-2-.36A1.51,1.51,0,0,1,121.45,345.87Zm4.6-238.16a1.49,1.49,0,0,1,1.27-1.48l2-.28a1.5,1.5,0,1,1,.4,3l-2,.28a1.51,1.51,0,0,1-1.71-1.26A1.77,1.77,0,0,1,126.05,107.71Zm1.29,239.13a1.23,1.23,0,0,1,0-.2,1.5,1.5,0,0,1,1.69-1.29l1.95.26a1.5,1.5,0,0,1-.36,3l-2-.26A1.51,1.51,0,0,1,127.34,346.84ZM132,107a1.5,1.5,0,0,1,1.35-1.49l2-.18a1.5,1.5,0,0,1,.26,3c-.66,0-1.31.11-2,.18a1.51,1.51,0,0,1-1.64-1.35Zm1.3,240.55a.66.66,0,0,1,0-.14,1.5,1.5,0,0,1,1.62-1.36l2,.16a1.53,1.53,0,0,1,1.39,1.6,1.5,1.5,0,0,1-1.6,1.39l-2-.16A1.5,1.5,0,0,1,133.28,347.52Zm4.65-241a1.5,1.5,0,0,1,1.43-1.5l2-.09a1.5,1.5,0,0,1,1.55,1.45,1.52,1.52,0,0,1-1.44,1.55c-.66,0-1.32,0-2,.09a1.5,1.5,0,0,1-1.57-1.43S137.93,106.55,137.93,106.53Zm1.31,241.37v-.06a1.5,1.5,0,0,1,1.56-1.44c.66,0,1.65.05,2.31.06s1.8.69,1.8,1.5v0c0,.82-1,1.48-1.87,1.46l-2.19-.06A1.66,1.66,0,0,1,139.24,347.9ZM143.91,106a1.5,1.5,0,0,1,1.5-1.5h.21c.67,0,1.34.19,2,.2a1.57,1.57,0,0,1,1.47,1.62,1.37,1.37,0,0,1-1.52,1.33c-.66,0-1.31-.15-2-.15h-.21A1.5,1.5,0,0,1,143.91,106Zm2,242c0-.82.32-1.49,1.14-1.5.66,0,1.14,0,1.79,0a1.42,1.42,0,0,1,1.45,1.46,1.52,1.52,0,0,1-1.5,1.54c-.67,0-1,0-1.69,0-.83,0-1.19-.66-1.19-1.48Zm4.18-241.47v-.07a1.51,1.51,0,0,1,1.58-1.43l2,.11a1.5,1.5,0,0,1-.19,3l-2-.11A1.51,1.51,0,0,1,150.09,106.52Zm1.1,241.27a1.48,1.48,0,0,1,1.41-1.49l2-.13a1.5,1.5,0,0,1,1.6,1.38,1.51,1.51,0,0,1-1.38,1.61l-2,.13a1.5,1.5,0,0,1-1.59-1.41ZM156.05,107a.76.76,0,0,1,0-.15,1.5,1.5,0,0,1,1.64-1.35l2,.21a1.5,1.5,0,0,1-.34,3l-2-.2A1.51,1.51,0,0,1,156.05,107Zm1.09,240.34a1.5,1.5,0,0,1,1.34-1.49l2-.22a1.5,1.5,0,1,1,.37,3l-2,.23a1.49,1.49,0,0,1-1.65-1.33S157.14,347.35,157.14,347.3ZM162,107.69a1.79,1.79,0,0,1,0-.23,1.49,1.49,0,0,1,1.7-1.26l2,.31a1.5,1.5,0,1,1-.48,3l-2-.3A1.5,1.5,0,0,1,162,107.69Zm1.09,238.83a1.49,1.49,0,0,1,1.26-1.48l1.94-.32a1.5,1.5,0,1,1,.52,2.95c-.66.12-1.32.23-2,.33a1.49,1.49,0,0,1-1.71-1.25A.9.9,0,0,1,163.07,346.52Zm4.8-237.81a1.53,1.53,0,0,1,0-.3,1.49,1.49,0,0,1,1.76-1.17c.66.13,1.32.26,2,.41a1.5,1.5,0,0,1,1.15,1.78,1.51,1.51,0,0,1-1.79,1.15l-1.92-.4A1.5,1.5,0,0,1,167.87,108.71Zm1.07,236.73a1.51,1.51,0,0,1,1.2-1.47l1.92-.41a1.5,1.5,0,0,1,.66,2.92l-2,.43a1.49,1.49,0,0,1-1.77-1.16A1.1,1.1,0,0,1,168.94,345.44ZM173.7,110a1.61,1.61,0,0,1,0-.37,1.5,1.5,0,0,1,1.82-1.08l2,.5a1.5,1.5,0,0,1-.78,2.9c-.64-.17-1.27-.34-1.91-.49A1.51,1.51,0,0,1,173.7,110Zm1.06,234.05a1.51,1.51,0,0,1,1.12-1.45c.64-.16,1.27-.33,1.9-.51a1.5,1.5,0,1,1,.81,2.89l-2,.53a1.5,1.5,0,0,1-1.83-1.08A1.58,1.58,0,0,1,174.76,344.07Zm4.69-232.45a1.75,1.75,0,0,1,.07-.44,1.49,1.49,0,0,1,1.87-1l1.94.61a1.5,1.5,0,0,1-.93,2.85l-1.88-.59A1.51,1.51,0,0,1,179.45,111.62Zm1.05,230.8a1.5,1.5,0,0,1,1.05-1.43l1.87-.61a1.5,1.5,0,1,1,1,2.85l-1.92.62a1.5,1.5,0,0,1-1.88-1A1.41,1.41,0,0,1,180.5,342.42Zm4.64-228.9a1.52,1.52,0,0,1,.09-.51,1.5,1.5,0,0,1,1.92-.9c.64.22,1.27.46,1.9.7a1.5,1.5,0,1,1-1.06,2.8l-1.85-.68A1.5,1.5,0,0,1,185.14,113.52Zm1,227a1.5,1.5,0,0,1,1-1.4l1.84-.7a1.5,1.5,0,1,1,1.09,2.79l-1.88.72a1.5,1.5,0,0,1-1.93-.89A1.34,1.34,0,0,1,186.15,340.48Zm4.58-224.79a1.7,1.7,0,0,1,.11-.58,1.51,1.51,0,0,1,2-.8l1.86.79a1.5,1.5,0,1,1-1.21,2.75l-1.81-.77A1.5,1.5,0,0,1,190.73,115.69Zm1,222.58a1.5,1.5,0,0,1,.91-1.38l1.8-.79a1.5,1.5,0,0,1,1.22,2.74l-1.84.81a1.5,1.5,0,0,1-2.09-1.38Zm4.5-220.13a1.5,1.5,0,0,1,2.15-1.35c.61.29,1.22.58,1.82.89a1.5,1.5,0,1,1-1.34,2.68l-1.77-.87A1.49,1.49,0,0,1,196.19,118.14Zm.92,217.65a1.5,1.5,0,0,1,.84-1.35l1.75-.88a1.51,1.51,0,0,1,2,.66,1.49,1.49,0,0,1-.65,2l-1.8.9a1.5,1.5,0,0,1-2-.68A1.58,1.58,0,0,1,197.11,335.79Zm4.42-214.93a1.5,1.5,0,0,1,2.21-1.32c.6.32,1.19.65,1.77,1a1.5,1.5,0,1,1-1.47,2.61c-.57-.32-1.14-.64-1.72-.95A1.51,1.51,0,0,1,201.53,120.86ZM202.4,333a1.52,1.52,0,0,1,.77-1.32c.57-.31,1.15-.63,1.71-1a1.5,1.5,0,1,1,1.49,2.6c-.58.34-1.16.67-1.75,1a1.5,1.5,0,0,1-2-.59A1.57,1.57,0,0,1,202.4,333Zm4.32-209.2a1.46,1.46,0,0,1,.22-.78,1.5,1.5,0,0,1,2.06-.5l1.72,1.06a1.5,1.5,0,1,1-1.6,2.54l-1.68-1A1.51,1.51,0,0,1,206.72,123.84ZM207.54,330a1.51,1.51,0,0,1,.72-1.28l1.66-1a1.5,1.5,0,0,1,1.62,2.52l-1.71,1.07a1.49,1.49,0,0,1-2.06-.48A1.54,1.54,0,0,1,207.54,330Zm4.22-203a1.44,1.44,0,0,1,.26-.84,1.49,1.49,0,0,1,2.08-.4c.56.37,1.11.76,1.66,1.14a1.5,1.5,0,1,1-1.72,2.46l-1.62-1.12A1.49,1.49,0,0,1,211.76,127.07Zm.78,199.7a1.51,1.51,0,0,1,.65-1.24l1.61-1.13a1.5,1.5,0,0,1,1.74,2.45L214.89,328a1.5,1.5,0,0,1-2.35-1.23Zm4.09-196.23a1.52,1.52,0,0,1,.3-.9,1.5,1.5,0,0,1,2.1-.3c.54.41,1.07.81,1.6,1.23a1.5,1.5,0,1,1-1.84,2.37c-.52-.41-1-.8-1.56-1.2A1.46,1.46,0,0,1,216.63,130.54Zm.74,192.72a1.52,1.52,0,0,1,.59-1.19l1.55-1.2a1.5,1.5,0,1,1,1.86,2.35c-.52.42-1.05.83-1.59,1.24a1.5,1.5,0,0,1-2.1-.29A1.47,1.47,0,0,1,217.37,323.26Zm3.95-189a1.49,1.49,0,0,1,2.46-1.15l1.54,1.3a1.5,1.5,0,1,1-2,2.27l-1.5-1.27A1.47,1.47,0,0,1,221.32,134.25ZM222,319.52a1.48,1.48,0,0,1,.53-1.14l1.49-1.28a1.5,1.5,0,1,1,2,2.26c-.5.44-1,.88-1.53,1.31a1.5,1.5,0,0,1-2.11-.18A1.47,1.47,0,0,1,222,319.52Zm3.79-181.34a1.49,1.49,0,0,1,2.51-1.1c.5.45,1,.91,1.48,1.38a1.5,1.5,0,1,1-2.07,2.17c-.47-.45-1-.9-1.44-1.34A1.51,1.51,0,0,1,225.82,138.18Zm.67,177.38a1.5,1.5,0,0,1,.48-1.1c.48-.44.95-.9,1.43-1.35a1.5,1.5,0,0,1,2.08,2.16c-.48.47-1,.93-1.46,1.39a1.51,1.51,0,0,1-2.53-1.1Zm3.63-173.23a1.5,1.5,0,0,1,2.57-1.05c.47.48.94,1,1.4,1.45a1.5,1.5,0,1,1-2.17,2.07c-.45-.48-.91-1-1.37-1.41A1.52,1.52,0,0,1,230.12,142.33Zm.64,169a1.51,1.51,0,0,1,.42-1.05c.46-.47.92-.94,1.37-1.42a1.5,1.5,0,1,1,2.18,2.06c-.46.48-.92,1-1.39,1.45a1.49,1.49,0,0,1-2.12,0A1.45,1.45,0,0,1,230.76,311.38Zm3.45-164.69a1.5,1.5,0,0,1,2.62-1c.44.5.89,1,1.33,1.51a1.5,1.5,0,1,1-2.27,2l-1.3-1.47A1.49,1.49,0,0,1,234.21,146.69Zm.61,160.3a1.51,1.51,0,0,1,.37-1c.44-.49.87-1,1.29-1.49a1.5,1.5,0,1,1,2.29,1.95L237.45,308a1.5,1.5,0,0,1-2.63-1Zm3.26-155.75a1.5,1.5,0,0,1,2.66-1c.43.52.85,1.05,1.26,1.58a1.5,1.5,0,1,1-2.37,1.85c-.4-.52-.81-1-1.22-1.54A1.52,1.52,0,0,1,238.08,151.24Zm.58,151.17a1.52,1.52,0,0,1,.33-.94l1.21-1.55a1.5,1.5,0,0,1,2.38,1.84c-.41.53-.83,1.06-1.25,1.58a1.5,1.5,0,0,1-2.67-.93ZM241.72,156a1.5,1.5,0,0,1,2.71-.89c.39.54.79,1.09,1.17,1.64a1.5,1.5,0,0,1-.36,2.09,1.51,1.51,0,0,1-2.09-.36l-1.14-1.6A1.47,1.47,0,0,1,241.72,156Zm.55,141.67a1.48,1.48,0,0,1,.28-.87l1.14-1.61a1.5,1.5,0,1,1,2.46,1.71L245,298.52a1.5,1.5,0,0,1-2.72-.88Zm2.85-136.77a1.5,1.5,0,0,1,2.75-.83l1.1,1.69a1.5,1.5,0,1,1-2.54,1.61c-.35-.55-.7-1.1-1.06-1.65A1.46,1.46,0,0,1,245.12,160.87Zm.52,131.83a1.5,1.5,0,0,1,.24-.81l1.06-1.67a1.5,1.5,0,1,1,2.54,1.59q-.53.85-1.08,1.71a1.5,1.5,0,0,1-2.76-.82Zm2.63-126.77a1.5,1.5,0,0,1,2.8-.76c.34.58.67,1.16,1,1.74a1.5,1.5,0,1,1-2.6,1.48l-1-1.7A1.5,1.5,0,0,1,248.27,165.93Zm.49,121.67a1.44,1.44,0,0,1,.21-.75c.32-.57.65-1.14,1-1.72a1.5,1.5,0,1,1,2.62,1.46l-1,1.76a1.5,1.5,0,0,1-2.8-.75Zm2.41-116.46a1.5,1.5,0,0,1,2.83-.7l.92,1.79a1.5,1.5,0,1,1-2.68,1.35c-.29-.58-.59-1.16-.89-1.74A1.46,1.46,0,0,1,251.17,171.14Zm.46,111.2a1.52,1.52,0,0,1,.17-.68c.3-.59.6-1.17.89-1.76a1.5,1.5,0,1,1,2.69,1.32c-.3.61-.6,1.21-.91,1.81a1.5,1.5,0,0,1-2.84-.69Zm2.18-105.85a1.5,1.5,0,0,1,2.86-.63c.28.6.56,1.21.83,1.83a1.5,1.5,0,0,1-2.74,1.21l-.81-1.78A1.6,1.6,0,0,1,253.81,176.49ZM254.24,277a1.5,1.5,0,0,1,.13-.62c.27-.6.54-1.2.8-1.8a1.5,1.5,0,1,1,2.75,1.19c-.27.62-.54,1.24-.82,1.85a1.5,1.5,0,0,1-2.86-.62Zm1.94-95a1.5,1.5,0,0,1,2.89-.56c.25.62.5,1.25.74,1.88a1.5,1.5,0,0,1-2.8,1.07l-.72-1.83A1.36,1.36,0,0,1,256.18,182Zm.39,89.48a1.35,1.35,0,0,1,.11-.55c.24-.61.47-1.22.7-1.84a1.51,1.51,0,0,1,1.94-.88,1.5,1.5,0,0,1,.87,1.93c-.23.64-.48,1.27-.72,1.89a1.5,1.5,0,0,1-2.9-.55Zm1.71-83.88a1.5,1.5,0,0,1,2.92-.5c.22.64.43,1.27.64,1.91a1.5,1.5,0,1,1-2.85.94q-.3-.93-.63-1.86A1.44,1.44,0,0,1,258.28,187.55Zm.35,78.25a1.34,1.34,0,0,1,.08-.48c.21-.62.41-1.25.61-1.87a1.5,1.5,0,1,1,2.86.91c-.2.64-.42,1.28-.63,1.92a1.5,1.5,0,0,1-2.92-.48Zm1.47-72.56a1.5,1.5,0,0,1,2.94-.42c.19.64.37,1.29.55,1.94a1.5,1.5,0,0,1-2.9.79c-.17-.63-.35-1.26-.53-1.89A1.52,1.52,0,0,1,260.1,193.24Zm.3,66.85a1.84,1.84,0,0,1,.05-.41c.18-.63.36-1.27.52-1.9a1.5,1.5,0,1,1,2.9.77c-.17.65-.35,1.3-.53,1.94a1.5,1.5,0,0,1-2.94-.4ZM261.63,199a1.5,1.5,0,0,1,3-.35c.15.66.31,1.31.45,2a1.5,1.5,0,0,1-2.93.65c-.14-.64-.29-1.28-.44-1.92A1.39,1.39,0,0,1,261.63,199Zm.25,55.29a1.32,1.32,0,0,1,0-.34l.42-1.92a1.5,1.5,0,1,1,2.93.62c-.14.66-.28,1.32-.43,2a1.5,1.5,0,0,1-3-.33Zm1-49.44a1.5,1.5,0,0,1,3-.28c.12.66.24,1.32.35,2a1.5,1.5,0,1,1-3,.5c-.11-.65-.22-1.29-.34-1.94A1.24,1.24,0,0,1,262.87,204.86Zm.2,43.58a1.18,1.18,0,0,1,0-.26l.33-1.94a1.5,1.5,0,1,1,3,.48c-.11.66-.22,1.32-.34,2a1.5,1.5,0,0,1-3-.26Zm.75-37.68a1.5,1.5,0,0,1,3-.2c.09.66.18,1.33.26,2a1.5,1.5,0,0,1-3,.36c-.08-.65-.16-1.3-.25-1.95A1.5,1.5,0,0,1,263.82,210.76Zm.15,31.78a1.15,1.15,0,0,1,0-.19c.08-.65.16-1.3.23-2a1.5,1.5,0,0,1,3,.33c-.07.67-.15,1.34-.24,2a1.5,1.5,0,0,1-3-.18Zm.51-25.85a1.5,1.5,0,0,1,3-.12c0,.67.11,1.34.15,2a1.5,1.5,0,0,1-3,.21l-.15-2A.53.53,0,0,1,264.48,216.69Zm.09,19.9a.49.49,0,0,1,0-.12c.05-.65.09-1.3.13-2a1.5,1.5,0,0,1,3,.18c0,.67-.08,1.35-.13,2a1.5,1.5,0,0,1-3-.12Zm.34-13.93a1.48,1.48,0,0,1,2.95-.06c0,.67,0,1.34.05,2a1.5,1.5,0,0,1-1.47,1.54,1.48,1.48,0,0,1-1.5-1.47c0-.66,0-1.31,0-2Zm0,8v0c0-.65,0-1.31,0-2,0-.82,1.17-1.49,2-1.48s2,.68,2,1.5v0c0,.67-.51,1.34-.53,2a1.76,1.76,0,0,1-3.47,0Z"/><path class="cls-1" d="M13.9,227.19C13.9,154.55,73,95.46,145.62,95.46a.5.5,0,0,1,.5.5.5.5,0,0,1-.5.5C73.54,96.46,14.9,155.11,14.9,227.19a130.72,130.72,0,1,0,261.44,0,.5.5,0,0,1,1,0c0,72.63-59.09,131.72-131.72,131.72S13.9,299.82,13.9,227.19Z"/><g class="cls-6"><path class="cls-1" d="M38.88,227.44a106.24,106.24,0,0,1,212.48,0,.5.5,0,0,1-.5.5.5.5,0,0,1-.5-.5,105.24,105.24,0,0,0-210.48,0,.5.5,0,0,1-1,0Z"/></g><g class="cls-6"><path class="cls-7" d="M145.25,339.31a.5.5,0,0,1,.5-.5,110.24,110.24,0,1,0,0-220.47.5.5,0,0,1-.5-.5.5.5,0,0,1,.5-.5,111.24,111.24,0,1,1,0,222.47A.5.5,0,0,1,145.25,339.31Z"/></g><g class="cls-6"><path class="cls-1" d="M0,227.57A145.74,145.74,0,0,1,145.74,81.84a.5.5,0,0,1,.5.5.51.51,0,0,1-.5.5A144.73,144.73,0,0,0,1,227.57c0,79.81,64.93,144.74,144.74,144.74a.51.51,0,0,1,.5.5.5.5,0,0,1-.5.5C65.38,373.31,0,307.94,0,227.57Z"/></g><path class="cls-1" d="M146.12,87.69a.5.5,0,0,1,.5-.5c77.19,0,140,62.8,140,140a.5.5,0,0,1-1,0c0-76.64-62.35-139-139-139A.5.5,0,0,1,146.12,87.69Z"/><path class="cls-3" d="M34.93,227.84A110.82,110.82,0,0,1,42,189a4.5,4.5,0,1,1,8.43,3.15,101.85,101.85,0,0,0,59.76,131.05,4.5,4.5,0,1,1-3.15,8.43A111.08,111.08,0,0,1,34.93,227.84Z"/><path class="cls-1" d="M275.91,227a.5.5,0,0,1,.5-.5h9a.5.5,0,0,1,.5.5.5.5,0,0,1-.5.5h-9A.51.51,0,0,1,275.91,227Z"/><path class="cls-1" d="M275.91,229a.5.5,0,0,1,.5-.5h9a.5.5,0,0,1,.5.5.5.5,0,0,1-.5.5h-9A.51.51,0,0,1,275.91,229Z"/><path class="cls-1" d="M275.91,225a.5.5,0,0,1,.5-.5h9a.5.5,0,0,1,.5.5.5.5,0,0,1-.5.5h-9A.51.51,0,0,1,275.91,225Z"/><path class="cls-1" d="M275.91,231a.5.5,0,0,1,.5-.5h9a.5.5,0,0,1,.5.5.5.5,0,0,1-.5.5h-9A.51.51,0,0,1,275.91,231Z"/><path class="cls-1" d="M275.91,223a.5.5,0,0,1,.5-.5h9a.5.5,0,0,1,.5.5.5.5,0,0,1-.5.5h-9A.51.51,0,0,1,275.91,223Z"/><path class="cls-1" d="M144.91,96.47v-9a.5.5,0,0,1,1,0v9a.5.5,0,0,1-1,0Z"/><path class="cls-1" d="M146.91,96.47v-9a.5.5,0,0,1,1,0v9a.5.5,0,0,1-1,0Z"/><path class="cls-1" d="M142.91,96.47v-9a.5.5,0,0,1,1,0v9a.5.5,0,0,1-1,0Z"/><path class="cls-1" d="M148.91,96.47v-9a.5.5,0,0,1,1,0v9a.5.5,0,0,1-1,0Z"/><path class="cls-1" d="M140.91,96.47v-9a.5.5,0,0,1,1,0v9a.5.5,0,0,1-1,0Z"/><path class="cls-1" d="M345.25,468.5a1.66,1.66,0,0,1-1.49-1.63,1.58,1.58,0,0,1,1.45-1.63c.66,0,1.32-.08,2-.1a1.45,1.45,0,0,1,1.56,1.42,1.65,1.65,0,0,1-1.45,1.71c-.66,0-1.33.23-2,.23Zm-15,0h-.05c-.67,0-1.35-.25-2-.28a1.6,1.6,0,0,1-1.43-1.66,1.56,1.56,0,0,1,1.57-1.49c.66,0,1.32,0,2,.06a1.7,1.7,0,0,1-.05,3.37Zm31.94-1.43a1.5,1.5,0,0,1-.15-3l2-.21a1.5,1.5,0,0,1,.33,3l-2,.21Zm-48.89-.18h-.16l-2-.23a1.5,1.5,0,1,1,.35-3l2,.22a1.5,1.5,0,0,1-.16,3ZM379,464.75a1.5,1.5,0,0,1-.25-3l2-.35a1.5,1.5,0,0,1,.55,2.95l-2,.36Zm-82.53-.3-.27,0-2-.37a1.5,1.5,0,0,1,.56-2.95l2,.37a1.5,1.5,0,0,1-.27,3Zm99.15-3.24a1.49,1.49,0,0,1-1.45-1.13,1.52,1.52,0,0,1,1.09-1.83l1.92-.49a1.5,1.5,0,0,1,.76,2.9l-2,.5A1.5,1.5,0,0,1,395.65,461.21Zm-115.74-.43a1.58,1.58,0,0,1-.38,0l-1.95-.52a1.5,1.5,0,1,1,.78-2.89l1.92.51a1.5,1.5,0,0,1-.37,2.95ZM412,456.45a1.5,1.5,0,0,1-.47-2.92l1.88-.63a1.5,1.5,0,1,1,1,2.83l-1.91.65A1.58,1.58,0,0,1,412,456.45Zm-148.34-.55a1.34,1.34,0,0,1-.48-.08l-1.92-.66a1.5,1.5,0,0,1,1-2.83l1.89.65a1.5,1.5,0,0,1-.48,2.92Zm164.24-5.38a1.51,1.51,0,0,1-1.39-.92,1.49,1.49,0,0,1,.81-2l1.82-.77a1.5,1.5,0,0,1,1.18,2.76l-1.85.78A1.65,1.65,0,0,1,427.87,450.52Zm-180.15-.69a1.51,1.51,0,0,1-.58-.12l-1.86-.8a1.5,1.5,0,1,1,1.2-2.75l1.83.79a1.5,1.5,0,0,1-.59,2.88Zm195.56-6.39a1.5,1.5,0,0,1-.67-2.84l1.76-.9a1.5,1.5,0,1,1,1.37,2.67l-1.78.91A1.51,1.51,0,0,1,443.28,443.44Zm-211-.84a1.52,1.52,0,0,1-.69-.16c-.6-.31-1.2-.62-1.79-.94a1.49,1.49,0,0,1-.63-2,1.51,1.51,0,0,1,2-.63l1.76.92a1.5,1.5,0,0,1-.68,2.83Zm225.83-7.35a1.5,1.5,0,0,1-.78-2.79c.57-.34,1.14-.68,1.7-1a1.5,1.5,0,1,1,1.56,2.56l-1.71,1A1.46,1.46,0,0,1,458.15,435.25Zm-240.67-1a1.51,1.51,0,0,1-.78-.22L215,433a1.5,1.5,0,1,1,1.58-2.54l1.7,1a1.5,1.5,0,0,1-.79,2.78ZM472.38,426a1.5,1.5,0,0,1-.86-2.73c.54-.38,1.08-.76,1.61-1.15a1.5,1.5,0,1,1,1.75,2.44l-1.64,1.16A1.45,1.45,0,0,1,472.38,426Zm-269.07-1.11a1.51,1.51,0,0,1-.88-.28l-1.63-1.18a1.5,1.5,0,1,1,1.77-2.42l1.61,1.16a1.51,1.51,0,0,1,.35,2.1A1.53,1.53,0,0,1,203.31,424.88Zm282.59-9.16a1.51,1.51,0,0,1-.95-2.67c.52-.41,1-.84,1.53-1.26a1.5,1.5,0,1,1,1.92,2.31l-1.55,1.28A1.54,1.54,0,0,1,485.9,415.72Zm-296-1.23a1.51,1.51,0,0,1-1-.35l-1.54-1.29a1.5,1.5,0,1,1,1.94-2.29l1.52,1.28a1.5,1.5,0,0,1-1,2.65Zm308.8-10a1.47,1.47,0,0,1-1.09-.47,1.5,1.5,0,0,1,.06-2.12l1.44-1.37a1.5,1.5,0,0,1,2.08,2.16c-.48.47-1,.93-1.46,1.39A1.47,1.47,0,0,1,498.65,404.48Zm-321.46-1.33a1.5,1.5,0,0,1-1-.42l-1.45-1.41a1.5,1.5,0,0,1,2.11-2.14l1.42,1.39a1.49,1.49,0,0,1,0,2.12A1.52,1.52,0,0,1,177.19,403.15Zm333.37-10.79a1.48,1.48,0,0,1-1-.4,1.5,1.5,0,0,1-.09-2.12l1.33-1.47a1.5,1.5,0,1,1,2.23,2q-.66.75-1.35,1.5A1.5,1.5,0,0,1,510.56,392.36Zm-345.17-1.44a1.51,1.51,0,0,1-1.12-.5l-1.33-1.5a1.5,1.5,0,0,1,.13-2.12,1.48,1.48,0,0,1,2.11.14c.44.49.88,1,1.33,1.48a1.5,1.5,0,0,1-.12,2.12A1.52,1.52,0,0,1,165.39,390.92Zm356.16-11.53a1.48,1.48,0,0,1-.93-.32,1.51,1.51,0,0,1-.25-2.11l1.22-1.56a1.5,1.5,0,0,1,2.38,1.83l-1.24,1.59A1.53,1.53,0,0,1,521.55,379.39Zm-367-1.52a1.51,1.51,0,0,1-1.19-.58l-1.22-1.59a1.5,1.5,0,1,1,2.38-1.82l1.21,1.58a1.5,1.5,0,0,1-.26,2.1A1.52,1.52,0,0,1,154.51,377.87Zm377.06-12.21a1.54,1.54,0,0,1-.84-.26,1.51,1.51,0,0,1-.4-2.08l1.11-1.66a1.5,1.5,0,0,1,2.5,1.66L532.82,365A1.51,1.51,0,0,1,531.57,365.66Zm-387-1.58a1.5,1.5,0,0,1-1.25-.67l-1.11-1.68a1.5,1.5,0,0,1,2.52-1.64l1.09,1.66a1.49,1.49,0,0,1-.42,2.07A1.53,1.53,0,0,1,144.61,364.08Zm396-12.85a1.52,1.52,0,0,1-.74-.2,1.5,1.5,0,0,1-.56-2l1-1.73a1.5,1.5,0,1,1,2.61,1.47l-1,1.75A1.51,1.51,0,0,1,540.57,351.23ZM135.74,349.6a1.52,1.52,0,0,1-1.31-.77c-.32-.58-.65-1.16-1-1.75a1.5,1.5,0,1,1,2.62-1.45c.32.58.64,1.16,1,1.73a1.5,1.5,0,0,1-.57,2A1.55,1.55,0,0,1,135.74,349.6ZM548.5,336.17a1.51,1.51,0,0,1-.65-.15,1.49,1.49,0,0,1-.7-2l.85-1.8a1.5,1.5,0,1,1,2.72,1.28l-.87,1.82A1.49,1.49,0,0,1,548.5,336.17ZM128,334.52a1.49,1.49,0,0,1-1.36-.87l-.85-1.81a1.5,1.5,0,0,1,2.73-1.26l.83,1.8a1.49,1.49,0,0,1-.72,2A1.42,1.42,0,0,1,128,334.52ZM555.3,320.57a1.49,1.49,0,0,1-.55-.1,1.51,1.51,0,0,1-.85-2l.72-1.86a1.5,1.5,0,0,1,2.8,1.07c-.24.63-.48,1.26-.73,1.89A1.5,1.5,0,0,1,555.3,320.57Zm-434-1.66a1.5,1.5,0,0,1-1.4-1c-.24-.62-.48-1.25-.71-1.88A1.5,1.5,0,1,1,122,315c.23.62.46,1.24.7,1.85a1.5,1.5,0,0,1-.86,1.94A1.47,1.47,0,0,1,121.3,318.91ZM560.93,304.5a1.61,1.61,0,0,1-.44-.06,1.5,1.5,0,0,1-1-1.88c.19-.63.39-1.27.58-1.91a1.5,1.5,0,0,1,2.87.86c-.19.65-.39,1.29-.59,1.94A1.5,1.5,0,0,1,560.93,304.5ZM115.8,302.84a1.51,1.51,0,0,1-1.44-1.07l-.57-1.93a1.5,1.5,0,1,1,2.88-.84l.57,1.9a1.5,1.5,0,0,1-1,1.87A1.29,1.29,0,0,1,115.8,302.84Zm449.56-14.75a1.24,1.24,0,0,1-.33,0,1.49,1.49,0,0,1-1.13-1.79c.15-.65.29-1.3.44-1.94a1.5,1.5,0,0,1,2.93.64l-.45,2A1.49,1.49,0,0,1,565.36,288.09ZM111.5,286.4a1.51,1.51,0,0,1-1.47-1.18c-.14-.65-.29-1.31-.43-2a1.5,1.5,0,0,1,2.94-.63l.42,1.94a1.5,1.5,0,0,1-1.14,1.79A1.22,1.22,0,0,1,111.5,286.4Zm457.07-15h-.23a1.5,1.5,0,0,1-1.25-1.72c.1-.65.2-1.3.29-2a1.5,1.5,0,1,1,3,.43l-.3,2A1.49,1.49,0,0,1,568.57,271.4Zm-460.16-1.71a1.5,1.5,0,0,1-1.48-1.28c-.1-.67-.19-1.33-.29-2a1.52,1.52,0,0,1,1.28-1.7,1.5,1.5,0,0,1,1.69,1.28c.1.66.19,1.31.29,2a1.5,1.5,0,0,1-1.27,1.7Zm462.14-15.16h-.12a1.51,1.51,0,0,1-1.37-1.62l.15-2a1.5,1.5,0,1,1,3,.21l-.15,2A1.5,1.5,0,0,1,570.55,254.53Zm-464-1.73a1.5,1.5,0,0,1-1.49-1.39c0-.67-.1-1.34-.14-2a1.5,1.5,0,0,1,3-.19c0,.66.08,1.32.13,2a1.51,1.51,0,0,1-1.38,1.61Zm464.76-14.3h0c-.83-1-1.44-1.16-1.44-2,0-.66.06-1.79.06-2.45v-.53a1.5,1.5,0,1,1,3,0v.52c0,.68,0,1.82-.06,2.49C572.85,237.36,572.13,238.5,571.31,238.5Zm-464.9-2.68a1.5,1.5,0,0,1-1.5-1.5v-.26c0-.59-.24-1.17-.24-1.76a1.44,1.44,0,0,1,1.4-1.48,1.67,1.67,0,0,1,1.67,1.51c0,.57.17,1.15.17,1.73v.26A1.5,1.5,0,0,1,106.41,235.82ZM570.8,220a1.5,1.5,0,0,1-1.49-1.4c0-.66-.09-1.32-.14-2a1.5,1.5,0,0,1,3-.23c.05.67.1,1.34.14,2a1.51,1.51,0,0,1-1.4,1.6Zm-464.28-1.2h-.11a1.5,1.5,0,0,1-1.39-1.6l.15-2a1.52,1.52,0,0,1,1.62-1.37,1.49,1.49,0,0,1,1.37,1.61l-.15,2A1.5,1.5,0,0,1,106.52,218.84Zm462.55-15.7a1.5,1.5,0,0,1-1.48-1.29c-.09-.66-.19-1.32-.28-2a1.5,1.5,0,1,1,3-.44c.1.66.2,1.32.29,2a1.49,1.49,0,0,1-1.28,1.69Zm-460.73-1.2h-.22a1.5,1.5,0,0,1-1.27-1.7l.3-2a1.5,1.5,0,1,1,3,.45c-.1.66-.19,1.31-.29,2A1.5,1.5,0,0,1,108.34,201.94Zm457.77-15.53a1.49,1.49,0,0,1-1.46-1.19c-.14-.64-.28-1.29-.43-1.94a1.5,1.5,0,0,1,2.93-.66c.15.66.29,1.31.43,2a1.49,1.49,0,0,1-1.15,1.78A1.65,1.65,0,0,1,566.11,186.41Zm-454.73-1.18a1.87,1.87,0,0,1-.32,0,1.5,1.5,0,0,1-1.14-1.79c.14-.65.29-1.31.44-2a1.5,1.5,0,1,1,2.92.67c-.14.64-.29,1.29-.43,1.94A1.51,1.51,0,0,1,111.38,185.23Zm450.55-15.29a1.52,1.52,0,0,1-1.44-1.08c-.18-.64-.37-1.27-.56-1.91a1.5,1.5,0,1,1,2.87-.87c.19.65.39,1.29.57,1.93a1.5,1.5,0,0,1-1,1.87A1.59,1.59,0,0,1,561.93,169.94Zm-446.28-1.16a1.29,1.29,0,0,1-.43-.07,1.5,1.5,0,0,1-1-1.86c.2-.65.39-1.29.59-1.93a1.5,1.5,0,1,1,2.86.89l-.57,1.9A1.51,1.51,0,0,1,115.65,168.78Zm440.9-15a1.5,1.5,0,0,1-1.4-1c-.23-.62-.47-1.24-.71-1.85a1.5,1.5,0,0,1,.87-1.94,1.48,1.48,0,0,1,1.93.86l.72,1.88a1.5,1.5,0,0,1-.88,1.93A1.39,1.39,0,0,1,556.55,153.82Zm-435.43-1.16a1.69,1.69,0,0,1-.53-.09,1.52,1.52,0,0,1-.87-1.94c.24-.63.48-1.26.73-1.89a1.5,1.5,0,0,1,2.79,1.1l-.72,1.86A1.48,1.48,0,0,1,121.12,152.66ZM550,138.16a1.5,1.5,0,0,1-1.36-.88c-.28-.59-.55-1.19-.84-1.79a1.5,1.5,0,0,1,2.72-1.28c.28.61.57,1.21.85,1.82a1.51,1.51,0,0,1-.74,2A1.56,1.56,0,0,1,550,138.16ZM127.77,137a1.51,1.51,0,0,1-1.36-2.14l.86-1.83a1.5,1.5,0,0,1,2.71,1.3c-.29.6-.57,1.2-.85,1.8A1.52,1.52,0,0,1,127.77,137Zm414.57-14a1.52,1.52,0,0,1-1.31-.77c-.32-.58-.64-1.16-1-1.73a1.5,1.5,0,1,1,2.62-1.48l1,1.75a1.49,1.49,0,0,1-.58,2A1.47,1.47,0,0,1,542.34,123Zm-406.8-1.16a1.49,1.49,0,0,1-1.3-2.23l1-1.76a1.51,1.51,0,0,1,2.05-.55,1.49,1.49,0,0,1,.56,2l-1,1.74A1.48,1.48,0,0,1,135.54,121.86Zm398.05-13.38a1.51,1.51,0,0,1-1.26-.68l-1.09-1.66a1.5,1.5,0,1,1,2.49-1.66l1.11,1.68a1.5,1.5,0,0,1-1.25,2.32ZM144.4,107.34a1.46,1.46,0,0,1-.82-.25,1.51,1.51,0,0,1-.43-2.08l1.12-1.67a1.5,1.5,0,0,1,2.49,1.67l-1.1,1.66A1.5,1.5,0,0,1,144.4,107.34ZM523.79,94.61a1.54,1.54,0,0,1-1.2-.59l-1.21-1.58a1.5,1.5,0,1,1,2.37-1.83L525,92.2a1.5,1.5,0,0,1-1.19,2.41ZM154.3,93.51a1.49,1.49,0,0,1-1.19-2.41c.41-.54.82-1.07,1.24-1.59a1.49,1.49,0,0,1,2.1-.26,1.51,1.51,0,0,1,.26,2.11l-1.23,1.57A1.49,1.49,0,0,1,154.3,93.51ZM513,81.48a1.52,1.52,0,0,1-1.13-.5l-1.32-1.49a1.5,1.5,0,0,1,2.23-2l1.34,1.5A1.49,1.49,0,0,1,513,81.48Zm-347.85-1a1.5,1.5,0,0,1-1.11-2.5q.66-.75,1.35-1.5a1.5,1.5,0,0,1,2.21,2l-1.33,1.47A1.48,1.48,0,0,1,165.16,80.44ZM501.29,69.17a1.49,1.49,0,0,1-1.05-.43l-1.42-1.38a1.5,1.5,0,1,1,2.08-2.16l1.44,1.4a1.5,1.5,0,0,1,0,2.12A1.48,1.48,0,0,1,501.29,69.17ZM177,68.2a1.53,1.53,0,0,1-1.08-.46,1.5,1.5,0,0,1,0-2.12l1.45-1.39a1.5,1.5,0,0,1,2.07,2.17L178,67.77A1.45,1.45,0,0,1,177,68.2ZM488.72,57.74a1.5,1.5,0,0,1-1-.36l-1.52-1.28a1.49,1.49,0,1,1,1.91-2.3l1.55,1.29a1.51,1.51,0,0,1-1,2.65Zm-299.13-.9a1.5,1.5,0,0,1-1-2.65l1.55-1.28a1.5,1.5,0,0,1,1.9,2.32l-1.53,1.26A1.46,1.46,0,0,1,189.59,56.84Zm285.75-9.6a1.51,1.51,0,0,1-.88-.28l-1.61-1.17a1.5,1.5,0,1,1,1.74-2.44l1.63,1.18a1.49,1.49,0,0,1,.33,2.09A1.48,1.48,0,0,1,475.34,47.24ZM203,46.44a1.5,1.5,0,0,1-.88-2.72l1.64-1.17A1.5,1.5,0,0,1,205.51,45l-1.62,1.15A1.49,1.49,0,0,1,203,46.44Zm258.21-8.69a1.45,1.45,0,0,1-.79-.23l-1.69-1a1.5,1.5,0,1,1,1.56-2.56L462,35a1.5,1.5,0,0,1-.79,2.78ZM217.16,37a1.5,1.5,0,0,1-.78-2.78l1.71-1a1.5,1.5,0,1,1,1.55,2.57l-1.7,1A1.46,1.46,0,0,1,217.16,37Zm229.3-7.73a1.56,1.56,0,0,1-.69-.17L444,28.22a1.5,1.5,0,1,1,1.37-2.67l1.79.93a1.5,1.5,0,0,1-.7,2.83ZM232,28.7a1.51,1.51,0,0,1-1.34-.81,1.5,1.5,0,0,1,.65-2L233,25a1.51,1.51,0,0,1,2,.67,1.5,1.5,0,0,1-.66,2l-1.77.9A1.4,1.4,0,0,1,232,28.7ZM431.11,22a1.52,1.52,0,0,1-.59-.12l-1.84-.79a1.5,1.5,0,0,1-.79-2,1.49,1.49,0,0,1,2-.79l1.86.79a1.5,1.5,0,0,1-.6,2.88Zm-183.81-.5a1.5,1.5,0,0,1-.59-2.88l1.84-.78a1.5,1.5,0,0,1,1.15,2.77l-1.82.77A1.51,1.51,0,0,1,247.3,21.47Zm168-5.69a1.47,1.47,0,0,1-.5-.09L412.88,15a1.49,1.49,0,0,1-.94-1.9,1.51,1.51,0,0,1,1.9-.94l1.91.66a1.5,1.5,0,0,1-.49,2.92Zm-152.14-.4a1.5,1.5,0,0,1-.48-2.92l1.9-.64a1.5,1.5,0,1,1,.95,2.84l-1.88.64A1.4,1.4,0,0,1,263.12,15.38ZM399,10.78a1.32,1.32,0,0,1-.39-.06l-1.92-.5a1.5,1.5,0,1,1,.75-2.91l1.95.52a1.49,1.49,0,0,1,1.06,1.83A1.51,1.51,0,0,1,399,10.78Zm-119.62-.31a1.5,1.5,0,0,1-.38-3L281,7a1.5,1.5,0,1,1,.73,2.91l-1.92.5A1.73,1.73,0,0,1,279.39,10.47ZM382.45,7l-.28,0-2-.37a1.5,1.5,0,0,1,.54-2.95l2,.37a1.5,1.5,0,0,1-.28,3ZM296,6.76a1.5,1.5,0,0,1-.27-3q1-.19,2-.36a1.5,1.5,0,1,1,.52,2.95c-.65.12-1.3.23-1.95.36Zm69.68-2.35h-.17l-2-.22a1.5,1.5,0,1,1,.32-3l2,.22a1.5,1.5,0,0,1-.17,3Zm-52.87-.13a1.5,1.5,0,0,1-.16-3c.66-.07,1.33-.15,2-.21a1.48,1.48,0,0,1,1.64,1.34,1.49,1.49,0,0,1-1.34,1.64l-2,.21Zm35.93-1.2h-.06l-2-.07a1.51,1.51,0,0,1-1.45-1.55A1.52,1.52,0,0,1,346.77,0l2,.08a1.5,1.5,0,0,1-.07,3Zm-19,.42a1.72,1.72,0,0,1-1.49-1.68A1.59,1.59,0,0,1,329.67.15c.67,0,1.33-.11,2-.13a1.47,1.47,0,0,1,1.55,1.43,1.71,1.71,0,0,1-1.46,1.76c-.66,0-1.32.29-2,.29Z"/></g></g></svg>