<svg xmlns="http://www.w3.org/2000/svg" viewBox="0 0 28.99 28.99"><defs><style>.cls-1{fill:#bed9ff;}</style></defs><title>资源 8</title><g id="图层_2" data-name="图层 2"><g id="央铋_1" data-name="央铋 1"><path class="cls-1" d="M14.5,29A14.5,14.5,0,1,1,29,14.5,14.51,14.51,0,0,1,14.5,29ZM14.5.55a13.95,13.95,0,1,0,13.94,14A14,14,0,0,0,14.5.55Z"/><path class="cls-1" d="M9.43,3.66,9,2.66a13.2,13.2,0,0,1,6-1.22l0,1.1A11.82,11.82,0,0,0,9.43,3.66Z"/><path class="cls-1" d="M5.71,6.38,4.9,5.63A13.78,13.78,0,0,1,6.2,4.4l.7.85A12.71,12.71,0,0,0,5.71,6.38Z"/><path class="cls-1" d="M1.71,17.21a13.7,13.7,0,0,1-.28-2.71,13,13,0,0,1,2.3-7.4l.9.62a11.94,11.94,0,0,0-2.1,6.78A12.14,12.14,0,0,0,2.79,17Z"/><path class="cls-1" d="M6.15,24.55a13.1,13.1,0,0,1-3.81-5.26l1-.4a12,12,0,0,0,3.5,4.81Z"/><path class="cls-1" d="M14.5,27.56a13.26,13.26,0,0,1-1.67-.11L13,26.36a12.14,12.14,0,0,0,3.51-.06l.18,1.08A13,13,0,0,1,14.5,27.56Z"/><path class="cls-1" d="M19.62,26.52l-.43-1a11.92,11.92,0,0,0,5.17-4.23l.9.63A13.18,13.18,0,0,1,19.62,26.52Z"/><path class="cls-1" d="M26.53,19.58l-1-.43a12,12,0,0,0,.94-4.65,12.11,12.11,0,0,0-.41-3.13l1.06-.29a13.11,13.11,0,0,1-.58,8.5Z"/><path class="cls-1" d="M22.68,5.77a12.08,12.08,0,0,0-2.07-1.56l.56-1A13.42,13.42,0,0,1,23.43,5Z"/><path class="cls-1" d="M18,3.06A11.75,11.75,0,0,0,15,2.54l0-1.1A13,13,0,0,1,18.33,2Z"/><path class="cls-1" d="M7.76,23.2A11,11,0,0,1,14.5,3.49l.54,0L14.9,6.25h-.4A8.26,8.26,0,0,0,9.45,21Z"/><path class="cls-1" d="M14.5,25.5V22.75a8.15,8.15,0,0,0,4.88-1.6L21,23.37A11,11,0,0,1,14.5,25.5Z"/><path class="cls-1" d="M23.47,20.87l-2.24-1.59a8.38,8.38,0,0,0,1.22-2.56l2.64.74A11,11,0,0,1,23.47,20.87Z"/><path class="cls-1" d="M25.5,14.5H22.75a8.28,8.28,0,0,0-4.09-7.13L20.05,5A11.06,11.06,0,0,1,25.5,14.5Z"/><path class="cls-1" d="M7.71,17.17A7.16,7.16,0,0,1,7.2,14.5,7.24,7.24,0,0,1,8.79,10l.32.26a6.87,6.87,0,0,0-1,6.81Z"/><path class="cls-1" d="M14.5,21.79a7.28,7.28,0,0,1-6-3.09l.33-.24a6.88,6.88,0,0,0,8.05,2.48l.14.39A7.43,7.43,0,0,1,14.5,21.79Z"/><path class="cls-1" d="M19.49,19.81l-.28-.3a6.87,6.87,0,0,0,1.65-7.63l.38-.16a7.14,7.14,0,0,1,.55,2.78A7.24,7.24,0,0,1,19.49,19.81Z"/><path class="cls-1" d="M19,9.31a6.85,6.85,0,0,0-8.1-.69l-.22-.35a7.29,7.29,0,0,1,8.6.73Z"/><path class="cls-1" d="M14.5,19.64a5.14,5.14,0,1,1,5.14-5.14A5.15,5.15,0,0,1,14.5,19.64Zm0-9.19a4,4,0,1,0,4,4.05A4.06,4.06,0,0,0,14.5,10.45Z"/></g></g></svg>