<svg xmlns="http://www.w3.org/2000/svg" viewBox="0 0 75.34 75.32"><defs><style>.cls-1{fill:#0cbdcd;}</style></defs><title>资源 1</title><g id="图层_2" data-name="图层 2"><g id="央铋_4" data-name="央铋 4"><path class="cls-1" d="M37.69,75.32h0a37.68,37.68,0,1,1,13.75-2.61A37.59,37.59,0,0,1,37.68,75.32Zm0-75.17A37.51,37.51,0,0,0,2.77,51.36,37.29,37.29,0,0,0,37.68,75.17h0A37.53,37.53,0,0,0,72.57,24,37.29,37.29,0,0,0,37.66.15Z"/><path class="cls-1" d="M31.83,22.78l-.47.19L30,23.53c-1.18.5-2.9,1.27-5,2.34-1.07.54-2.24,1.16-3.5,1.87s-2.59,1.51-4,2.42-2.85,1.93-4.32,3.08a48.25,48.25,0,0,0-4.41,3.88,29.65,29.65,0,0,0-4,4.91c-.15.23-.29.47-.43.7s-.28.49-.4.73A16.37,16.37,0,0,0,3.19,45a10.58,10.58,0,0,0-.76,3.31A7.65,7.65,0,0,0,2.53,50a8.59,8.59,0,0,0,.21.84c0,.14.1.28.15.41a.07.07,0,0,0,0,0l0,0,0,.1.09.21.2.39c.07.12.14.25.22.37a7.3,7.3,0,0,0,.52.72,8.49,8.49,0,0,0,1.29,1.25A12.31,12.31,0,0,0,8.5,56.16a15.42,15.42,0,0,0,1.78.58c.61.16,1.23.3,1.85.41a36.69,36.69,0,0,0,7.73.47,59.38,59.38,0,0,0,7.92-.87,82,82,0,0,0,15.63-4.46,82.62,82.62,0,0,0,14.5-7.36,58.23,58.23,0,0,0,6.39-4.76,35.77,35.77,0,0,0,5.35-5.6q.57-.76,1.08-1.56a17.51,17.51,0,0,0,.91-1.64A12.23,12.23,0,0,0,72.8,27.9a7.55,7.55,0,0,0-.22-3.51l-.08-.21,0-.1,0,0,0-.05-.09-.21-.09-.2a5.52,5.52,0,0,0-.42-.75,7.43,7.43,0,0,0-1.09-1.34,10.55,10.55,0,0,0-2.81-1.9,13.11,13.11,0,0,0-1.56-.64c-.26-.1-.52-.18-.79-.26s-.53-.16-.79-.22a29.16,29.16,0,0,0-6.3-.86,47,47,0,0,0-5.87.16c-1.86.15-3.61.39-5.25.67s-3.17.61-4.58.94-2.68.67-3.83,1c-2.3.67-4.08,1.28-5.29,1.71l-1.37.51-.47.18.47-.19,1.36-.53c.6-.22,1.35-.5,2.23-.8s1.89-.64,3-1,2.42-.7,3.83-1.05,2.92-.69,4.57-1,3.4-.57,5.27-.74a47.08,47.08,0,0,1,5.9-.22,30.58,30.58,0,0,1,6.38.82c.27.06.54.14.81.22s.54.16.81.26a16.67,16.67,0,0,1,1.6.64,11.09,11.09,0,0,1,2.93,2,8.22,8.22,0,0,1,1.16,1.4,8,8,0,0,1,.46.81,1.89,1.89,0,0,1,.09.21l.09.21,0,.05,0,.06,0,.11.08.22a7.58,7.58,0,0,1,.35,1.84A9.08,9.08,0,0,1,73.26,28a12.6,12.6,0,0,1-1.18,3.62c-.29.57-.6,1.13-.94,1.68s-.71,1.08-1.09,1.6a36.77,36.77,0,0,1-5.4,5.7c-1,.87-2.05,1.71-3.13,2.51s-2.18,1.57-3.32,2.3a82,82,0,0,1-14.58,7.43,82.36,82.36,0,0,1-15.74,4.48c-1.34.23-2.67.42-4,.57s-2.66.24-4,.28a36.5,36.5,0,0,1-7.84-.5c-.64-.12-1.27-.26-1.89-.43s-1.23-.37-1.83-.6A12.53,12.53,0,0,1,5,54.77a8,8,0,0,1-2.34-2.91l-.09-.21,0-.11,0,0a.14.14,0,0,1,0-.06c0-.15-.11-.29-.15-.44a6.57,6.57,0,0,1-.22-.9A8.46,8.46,0,0,1,2,48.28a11,11,0,0,1,.81-3.44c.22-.54.47-1.06.73-1.56.13-.25.28-.5.42-.74s.29-.48.45-.71a30.45,30.45,0,0,1,4.11-4.94A47,47,0,0,1,13,33c1.49-1.14,3-2.15,4.36-3s2.76-1.69,4-2.39,2.44-1.3,3.52-1.83,2-1,2.9-1.34,1.59-.68,2.18-.93L31.36,23Z"/><path class="cls-1" d="M26.94,10.32l-.56.23-.31.13-.37.16c-.28.12-.59.25-.94.42a47.65,47.65,0,0,0-5.87,3.2c-.61.38-1.24.81-1.89,1.27s-1.32,1-2,1.5S13.64,18.36,12.94,19s-1.39,1.31-2.08,2a37.75,37.75,0,0,0-4,4.95,33.85,33.85,0,0,0-3.38,6.19,27.62,27.62,0,0,0-1.22,3.56,26.77,26.77,0,0,0-.77,3.83A24.69,24.69,0,0,0,1.8,47.7a23.42,23.42,0,0,0,1.29,4.07l.1.25.11.24c.08.17.15.33.23.49l.24.49c.08.17.17.32.25.48a5.46,5.46,0,0,0,.27.48l.27.48c.19.31.38.63.59.93s.2.31.31.46l.32.45.34.44c.11.15.23.29.35.44.47.58,1,1.14,1.49,1.68a25.89,25.89,0,0,0,3.46,3,30.07,30.07,0,0,0,8.33,4.15,37,37,0,0,0,9.39,1.73,42.81,42.81,0,0,0,9.71-.54,46.59,46.59,0,0,0,4.79-1.07c1.58-.44,3.13-1,4.66-1.56l.57-.23.57-.24L50,64l.56-.25c.37-.16.74-.34,1.11-.52.19-.08.37-.18.55-.27l.55-.28A45.92,45.92,0,0,0,57,60.24,43,43,0,0,0,64.5,54a37.71,37.71,0,0,0,5.71-7.66,30.63,30.63,0,0,0,3.29-8.71A26.65,26.65,0,0,0,74,33.14c0-.75,0-1.5,0-2.24,0-.19,0-.37,0-.56l-.06-.55c0-.18-.05-.37-.07-.55s0-.36-.08-.55a23.1,23.1,0,0,0-2.93-8.07,24.37,24.37,0,0,0-5.3-6.2,29.4,29.4,0,0,0-3.16-2.29A30.41,30.41,0,0,0,59,10.36a34.21,34.21,0,0,0-6.69-2.25A38.79,38.79,0,0,0,46,7.23c-1-.06-2-.08-2.91-.07s-1.84,0-2.7.11-1.7.15-2.49.25-1.54.22-2.24.35c-1.42.26-2.68.55-3.76.84s-2,.57-2.73.81l-1,.34-.38.13-.31.12-.57.21.56-.22.32-.12.38-.14,1-.34c.73-.26,1.64-.55,2.72-.85s2.33-.61,3.75-.88c.71-.14,1.47-.26,2.26-.38s1.62-.2,2.49-.27S42.15,7,43.09,7,45,7,46,7a38.15,38.15,0,0,1,6.37.83,34.83,34.83,0,0,1,6.76,2.21,29.49,29.49,0,0,1,3.37,1.78,27.82,27.82,0,0,1,3.22,2.29,24.75,24.75,0,0,1,5.42,6.27,23.46,23.46,0,0,1,3,8.22A24.91,24.91,0,0,1,74,37.76a31,31,0,0,1-3.31,8.87c-.39.69-.8,1.39-1.24,2.06s-.89,1.35-1.38,2-1,1.28-1.52,1.9l-.19.24-.21.23-.4.45c-.28.3-.55.61-.83.9a43.69,43.69,0,0,1-7.58,6.29A47,47,0,0,1,53,63.21l-.56.28-.56.28c-.37.17-.74.36-1.12.52l-.57.26-.57.24c-.19.09-.39.16-.58.24l-.57.23q-2.32.9-4.72,1.58a45.15,45.15,0,0,1-4.85,1.07,43.84,43.84,0,0,1-9.83.55,38.13,38.13,0,0,1-9.53-1.78,31.16,31.16,0,0,1-8.45-4.24,25.26,25.26,0,0,1-6.36-6.57q-.31-.48-.6-1c-.1-.16-.19-.32-.28-.48l-.27-.49c-.08-.17-.17-.33-.25-.5l-.24-.5c-.08-.16-.16-.33-.23-.5l-.12-.26-.1-.25a24.14,24.14,0,0,1-1.29-4.14A24.7,24.7,0,0,1,1.1,39.5,29,29,0,0,1,3.16,32a34.26,34.26,0,0,1,3.45-6.22,39,39,0,0,1,4.1-4.94c.7-.72,1.41-1.39,2.11-2s1.41-1.21,2.09-1.75,1.36-1,2-1.49,1.29-.87,1.91-1.26c1.22-.76,2.35-1.39,3.35-1.9s1.86-.92,2.57-1.23l.94-.41.37-.15.32-.13Z"/><path class="cls-1" d="M52.56,31.82s-.07-.16-.19-.47-.31-.76-.55-1.36c-.5-1.18-1.25-2.91-2.32-5-.53-1.07-1.14-2.25-1.85-3.51s-1.5-2.6-2.41-4-1.93-2.85-3.07-4.33a45.78,45.78,0,0,0-3.89-4.42,30,30,0,0,0-4.93-4l-.7-.43-.74-.41a13.27,13.27,0,0,0-1.53-.7A10.55,10.55,0,0,0,27,2.34a7,7,0,0,0-4.92,1.59,8.1,8.1,0,0,0-1.25,1.3,12.33,12.33,0,0,0-1.76,3.23,18.61,18.61,0,0,0-.57,1.79c-.16.61-.3,1.23-.41,1.86a36.17,36.17,0,0,0-.45,7.74c.06,1.32.16,2.64.31,4s.34,2.64.58,4A82,82,0,0,0,23.05,43.4,82.33,82.33,0,0,0,30.4,57.91c.72,1.12,1.48,2.22,2.27,3.29s1.61,2.11,2.47,3.11a36.29,36.29,0,0,0,5.59,5.37c.51.38,1,.75,1.56,1.08s1.08.65,1.64.93a12.71,12.71,0,0,0,3.49,1.17A7.73,7.73,0,0,0,51,72.64l.41-.15.21-.09a1.21,1.21,0,0,0,.2-.09,5.19,5.19,0,0,0,.77-.42,8,8,0,0,0,1.35-1.1A10.89,10.89,0,0,0,55.84,68a12.46,12.46,0,0,0,.64-1.56c.1-.26.18-.53.27-.79s.15-.53.22-.8a29.89,29.89,0,0,0,.86-6.32,45.34,45.34,0,0,0-.16-5.88c-.16-1.86-.4-3.62-.69-5.26s-.61-3.17-.95-4.57-.69-2.69-1-3.83c-.68-2.3-1.31-4.08-1.75-5.28-.22-.61-.39-1.07-.51-1.37Zm0,0,.18.47c.12.3.29.76.52,1.37.44,1.2,1.07,3,1.75,5.27.35,1.15.7,2.43,1,3.83,0,.18.09.35.13.53s.08.36.13.55c.08.36.16.74.24,1.12.17.76.33,1.55.47,2.37.3,1.64.56,3.4.73,5.27A48.87,48.87,0,0,1,58,58.49a29.72,29.72,0,0,1-.81,6.36c-.06.27-.14.54-.22.81s-.16.53-.25.8c-.19.53-.4,1.07-.64,1.59A10.76,10.76,0,0,1,54.09,71a8.16,8.16,0,0,1-1.38,1.16c-.26.16-.52.31-.8.45l-.21.09-.21.09-.43.16a7.51,7.51,0,0,1-1.82.35,9,9,0,0,1-1.87-.08A13,13,0,0,1,43.77,72q-.85-.42-1.68-.93T40.5,70a37.21,37.21,0,0,1-5.72-5.38A60.2,60.2,0,0,1,30,58.19c-.74-1.14-1.45-2.29-2.13-3.47s-1.32-2.39-1.94-3.61c-1.24-2.44-2.36-5-3.37-7.5s-1.88-5.16-2.63-7.79c-.38-1.32-.72-2.64-1-4s-.57-2.66-.8-4a57.16,57.16,0,0,1-.84-8A37,37,0,0,1,17.74,12c.13-.64.27-1.26.44-1.88a18.45,18.45,0,0,1,.6-1.82A12.76,12.76,0,0,1,20.62,5a7.9,7.9,0,0,1,2.89-2.31,6.75,6.75,0,0,1,1.74-.54,7.8,7.8,0,0,1,1.8-.09,10.83,10.83,0,0,1,3.41.8c.54.22,1.05.47,1.55.73.25.13.49.28.73.42l.71.44a29.86,29.86,0,0,1,4.92,4.11,51.37,51.37,0,0,1,3.86,4.46c1.14,1.49,2.15,2.95,3.05,4.36.45.7.87,1.39,1.27,2.06.2.33.39.66.58,1l.27.48c.1.16.18.32.27.48.71,1.26,1.32,2.44,1.85,3.51,1.06,2.15,1.8,3.88,2.3,5.06.24.6.43,1.05.55,1.36S52.56,31.82,52.56,31.82Z"/><path class="cls-1" d="M69.42,25.2l-.25-.6L69,24.27c-.06-.12-.11-.26-.18-.4l-.2-.47-.25-.52c-.35-.75-.8-1.66-1.38-2.71a39.51,39.51,0,0,0-2.19-3.47q-.33-.48-.69-1c-.24-.33-.5-.66-.76-1-.54-.66-1.11-1.35-1.73-2s-1.3-1.38-2-2.07-1.5-1.37-2.34-2a38.53,38.53,0,0,0-5.67-3.78,35.56,35.56,0,0,0-7-2.87,34.46,34.46,0,0,0-3.92-.9A33.46,33.46,0,0,0,36.55.65a31.44,31.44,0,0,0-4.32.14L31.14.92,30.59,1,30,1.1l-.27,0-.28.06-.55.11-.54.12-.28.06-.27.07-.55.14-.55.16-.27.08L26.21,2l-.55.17c-.72.25-1.45.51-2.16.81a31.15,31.15,0,0,0-11.58,8.3,33.8,33.8,0,0,0-5.39,8.39,37,37,0,0,0-2.88,9.82A38.85,38.85,0,0,0,3.51,39.9,41.06,41.06,0,0,0,6.07,50.06a41.53,41.53,0,0,0,5,9.2,39,39,0,0,0,7.17,7.52A37.11,37.11,0,0,0,27.07,72a34.46,34.46,0,0,0,9.66,2.48A31.89,31.89,0,0,0,46.36,74a30.3,30.3,0,0,0,4.5-1.31l.54-.2.54-.22.53-.22.52-.23.52-.25.26-.12.25-.13.51-.26.5-.27.25-.13.24-.14.49-.29.47-.29.24-.15.23-.15.47-.31.45-.31c.31-.21.6-.43.9-.65A30.78,30.78,0,0,0,62,65.55a32.32,32.32,0,0,0,2.77-3.13,35,35,0,0,0,2.27-3.33,36.23,36.23,0,0,0,3.16-6.86,38.43,38.43,0,0,0,1.59-6.62c.15-1.06.26-2.09.32-3.09s.09-2,.08-2.89,0-1.82-.11-2.67c0-.42-.07-.84-.12-1.24s-.09-.79-.14-1.18c-.21-1.52-.49-2.87-.77-4s-.57-2.14-.82-2.93c-.06-.19-.12-.38-.18-.55s-.11-.33-.17-.48l-.14-.41a3.54,3.54,0,0,1-.12-.34l-.23-.6.23.6.13.34.14.41c.06.14.11.3.18.48s.11.35.18.55c.26.78.55,1.76.84,2.92a37.65,37.65,0,0,1,.79,4c0,.38.11.77.15,1.17s.08.82.12,1.25c.07.84.12,1.73.13,2.66s0,1.9-.07,2.9-.16,2-.31,3.11a37.18,37.18,0,0,1-1.56,6.65A35.11,35.11,0,0,1,69,55.73a33.43,33.43,0,0,1-1.8,3.45A32.37,32.37,0,0,1,65,62.53a34,34,0,0,1-2.77,3.17,32.47,32.47,0,0,1-3.28,2.86c-.3.22-.59.44-.9.65-.15.11-.3.22-.46.32l-.46.31-.24.16-.24.14-.48.3-.49.29-.24.14-.25.14-.5.27-.51.26-.26.13-.25.13-.52.25-.53.23-.54.23-.53.22-.55.21A31.45,31.45,0,0,1,36.7,74.77,34.06,34.06,0,0,1,27,72.28,37.28,37.28,0,0,1,18.09,67a39.74,39.74,0,0,1-7.24-7.58A41.66,41.66,0,0,1,3.2,39.94a39.52,39.52,0,0,1,.15-10.48,37.41,37.41,0,0,1,2.91-9.88,34.23,34.23,0,0,1,5.45-8.46,31.57,31.57,0,0,1,7.47-6.23,31,31,0,0,1,4.23-2.12c.71-.3,1.45-.56,2.18-.8l.54-.18.28-.08.28-.08.55-.15.55-.14.28-.07.27-.07.56-.12L29.45,1l.27,0L30,.87l.56-.09L31.11.7l1.1-.13a32.43,32.43,0,0,1,8.54.3,35.33,35.33,0,0,1,3.94.91,34.37,34.37,0,0,1,3.66,1.31A35.59,35.59,0,0,1,51.69,4.7a36.89,36.89,0,0,1,5.67,3.82c.84.67,1.62,1.36,2.34,2.06s1.4,1.39,2,2.08,1.2,1.37,1.73,2l.75,1c.24.33.47.65.69,1a40.48,40.48,0,0,1,2.17,3.49c.58,1.05,1,2,1.37,2.72.08.19.17.36.24.53l.2.47c.06.14.12.27.17.4l.14.33C69.34,25,69.42,25.2,69.42,25.2Z"/></g></g></svg>