<svg xmlns="http://www.w3.org/2000/svg" viewBox="0 0 468.5 112.67"><defs><style>.cls-1{fill:#00b3ea;}.cls-2{fill:#feb113;}.cls-3,.cls-4{fill:#065977;}.cls-4{opacity:0.5;}</style></defs><title>资源 5</title><g id="图层_2" data-name="图层 2"><g id="Layer_1" data-name="Layer 1"><path class="cls-1" d="M92.87,65.37,93,65c.05-.24.14-.58.22-1s.16-.89.25-1.41c0-.13,0-.26.07-.39s0-.27,0-.4c0-.28.07-.55.1-.83.09-.55.12-1.11.16-1.63,0-.26,0-.52,0-.76s0-.46,0-.67c0-.84,0-1.4,0-1.4H110.4s0,.8,0,2c0,.3,0,.62,0,1s0,.71-.08,1.08c-.06.75-.11,1.55-.22,2.34l-.15,1.19c0,.2-.05.39-.08.58s-.06.38-.09.57c-.13.74-.26,1.43-.37,2s-.24,1.08-.31,1.42l-.13.54Z"/><path class="cls-1" d="M88.26,76.42l.21-.33.5-.88.34-.58c.12-.21.22-.44.35-.67s.24-.47.36-.72.13-.24.19-.37.12-.25.17-.38.23-.51.35-.76.23-.49.32-.74l.52-1.33c.08-.19.14-.38.19-.54s.11-.3.14-.41l.13-.37,15.65,5.16s-.06.19-.18.52c0,.17-.12.37-.2.6s-.17.5-.28.78c-.22.56-.47,1.21-.75,1.91-.14.35-.3.7-.46,1.07s-.33.72-.5,1.09c-.08.18-.16.36-.25.54s-.18.36-.27.54c-.17.35-.35.69-.52,1s-.34.66-.51,1l-.48.84c-.3.52-.55,1-.73,1.26l-.29.47Z"/><path class="cls-1" d="M80.42,85.47l1-.92c.61-.57,1.43-1.33,2.19-2.15l.29-.31.28-.3.52-.61.5-.57.42-.53c.26-.33.47-.61.63-.8l.17-.22.06-.08,13.24,9.8-.08.12-.25.32-.9,1.14c-.18.24-.38.5-.6.76l-.71.82-.76.87a5.48,5.48,0,0,1-.4.44c-.13.15-.27.29-.41.44-1.09,1.17-2.26,2.27-3.14,3.08L91,98.09Z"/><path class="cls-1" d="M70.14,91.61l.36-.14.41-.16.52-.24.61-.28c.22-.1.46-.19.69-.32l1.46-.75c.48-.28,1-.56,1.42-.81l.33-.21.31-.2.57-.36c.17-.12.33-.22.48-.31l.36-.26.31-.22,9.53,13.44-.45.32-.52.36-.68.45-.82.53-.45.28-.47.29c-.65.38-1.34.78-2,1.17s-1.43.74-2.1,1.08c-.33.18-.67.32-1,.46l-.89.41-.75.33-.58.24-.52.2Z"/><path class="cls-1" d="M58.46,94.22l1.4-.1H60l.17,0,.35,0,.75-.1.39,0,.4-.07.82-.14.82-.15.79-.18.74-.17.34-.08.31-.09,1.34-.38,4.83,15.76s-.77.23-1.93.55l-.45.12-.49.12-1.06.25-1.13.25-1.18.21-1.18.21c-.19,0-.39.06-.58.09l-.57.07-1.07.14-.5.06-.24,0-.23,0-2,.15Z"/><path class="cls-1" d="M46.54,93.07l.38.09,1,.23.66.15.74.13c.52.09,1.06.21,1.62.26l.83.11.8.09,1.43.1a3.83,3.83,0,0,0,.57,0h.82L55,110.76l-.55,0-.63,0-.82,0-2-.16c-.37,0-.76-.08-1.15-.12l-1.19-.15c-.79-.1-1.58-.25-2.32-.38l-1.07-.19-1-.22-1.42-.33-.53-.13Z"/><path class="cls-1" d="M35.6,88.22l.32.21.38.23.22.15.26.15,1.24.72c.46.25,1,.49,1.46.75.24.13.5.24.75.36l.73.33c.48.22.94.39,1.33.55l.94.36.36.13L38.12,107.7l-.53-.18L36.24,107c-.56-.22-1.22-.47-1.9-.79l-1.06-.47c-.36-.17-.73-.33-1.08-.52-.72-.36-1.43-.72-2.1-1.08l-1.78-1-.37-.22-.33-.2c-.2-.14-.38-.25-.53-.34l-.47-.3Z"/><path class="cls-1" d="M26.71,80.2l.24.3c.15.19.39.45.66.76s.59.7,1,1.07l.55.58.29.3.3.29.6.58.3.28a1.85,1.85,0,0,1,.14.14.93.93,0,0,1,.15.13l1.09.93a4.13,4.13,0,0,0,.44.36l.35.27.3.24L23,99.47l-.44-.34-.49-.39-.64-.51-1.55-1.35-.21-.18-.21-.2L19,96.1l-.86-.83c-.15-.14-.29-.27-.43-.42l-.41-.42-.8-.84c-.53-.54-1-1.07-1.38-1.52s-.72-.84-.94-1.11l-.34-.43Z"/><path class="cls-1" d="M20.77,69.8s.21.52.51,1.3c.16.39.37.83.59,1.31s.47,1,.72,1.47c.13.24.25.5.38.74l.41.69.37.66.18.3c.07.09.12.18.18.27.23.35.41.65.55.85a1.75,1.75,0,0,0,.15.24l.06.08L11.23,87l-.08-.12c-.05-.08-.13-.19-.22-.34l-.78-1.22-.26-.4-.26-.42c-.17-.3-.35-.62-.54-.94l-.57-1c-.2-.34-.37-.7-.56-1.06-.36-.72-.74-1.43-1-2.12S6.31,78,6.08,77.46c-.44-1.11-.73-1.86-.73-1.86Z"/><path class="cls-1" d="M18.4,58.07v.38c0,.25.05.59.08,1s.06.91.13,1.43c0,.26.07.52.11.8s.06.55.11.82c.1.55.2,1.1.29,1.62s.23,1,.32,1.39c.05.2.09.39.14.55s.08.31.12.43l.1.37L4,71.37s0-.19-.15-.53c-.05-.17-.1-.38-.17-.61s-.12-.51-.2-.8c-.13-.59-.29-1.27-.45-2s-.28-1.53-.42-2.32c-.08-.39-.12-.79-.17-1.18s-.1-.78-.15-1.15c-.1-.75-.14-1.44-.19-2S2,59.63,2,59.28s0-.55,0-.55Z"/><path class="cls-1" d="M19.81,46.18s0,.13-.1.37-.08.26-.12.42-.09.35-.14.56c-.09.4-.2.88-.32,1.39s-.19,1.06-.29,1.61c-.05.28-.08.56-.11.83s-.07.54-.11.8c-.07.52-.09,1-.13,1.42s-.06.77-.08,1,0,.39,0,.39L1.94,54.31s0-.2,0-.55.06-.84.1-1.44.09-1.3.19-2c0-.38.1-.76.15-1.16s.09-.78.17-1.18L3,45.62c.17-.73.33-1.42.46-2,.08-.3.13-.57.2-.8s.12-.44.17-.61c.1-.34.15-.54.15-.54Z"/><path class="cls-1" d="M24.87,35.33l-.06.08-.15.24-.55.85-.18.28-.18.29-.37.66-.41.7c-.13.24-.25.49-.38.74-.25.5-.52,1-.72,1.47s-.43.92-.59,1.3c-.3.78-.51,1.3-.51,1.3L5.35,37.45l.73-1.87c.23-.56.53-1.19.84-1.88s.68-1.4,1-2.11c.18-.36.36-.72.55-1.07l.58-1,.54-.94.26-.43.25-.39.79-1.23.22-.34.08-.12Z"/><path class="cls-1" d="M33.08,26.61l-.3.24-.35.27c-.13.11-.29.22-.44.36l-1.09.94-.15.13-.14.13-.3.29-.6.57-.3.29-.29.3c-.19.2-.37.4-.56.59-.36.37-.68.74-.95,1.06s-.51.58-.66.77l-.24.3L13.88,22.51l.34-.43c.22-.27.55-.65.94-1.1s.85-1,1.38-1.53l.79-.83.42-.43.43-.42L19,17l.43-.41.2-.19.22-.19,1.55-1.34c.22-.2.45-.37.64-.52l.49-.39.44-.34Z"/><path class="cls-1" d="M43.59,20.89l-.36.12-.95.37c-.38.15-.84.32-1.32.55l-.73.33-.38.17a2.58,2.58,0,0,0-.37.19c-.5.25-1,.5-1.46.75l-1.24.71-.26.15-.23.15-.37.24-.32.2L26.62,11l.47-.3c.14-.1.32-.21.53-.34l.33-.21.37-.22,1.78-1c.66-.36,1.38-.72,2.1-1.09l.53-.26.55-.25,1-.48c.69-.32,1.34-.57,1.9-.79l1.36-.53.52-.17Z"/><path class="cls-2" d="M90,45.37l-.2-.58-.11-.32-.06-.18a1.67,1.67,0,0,0-.08-.2l-.37-1a36.17,36.17,0,0,0-3.12-6l-.3-.46c-.09-.16-.21-.31-.32-.47l-.68-1c-.24-.32-.5-.64-.76-1l-.4-.5-.42-.49c-.15-.16-.29-.33-.44-.5s-.14-.17-.22-.25a2.73,2.73,0,0,0-.23-.25c-.32-.33-.64-.66-1-1l-1-1c-.17-.18-.37-.33-.55-.5l-.57-.49a35.61,35.61,0,0,0-5.27-3.7,35.54,35.54,0,0,0-14.09-4.55,37.31,37.31,0,0,0-8.3.13l-.54.07-.26,0-.26,0-1.07.19-.27.05-.13,0-.13,0c-.18,0-.36.08-.53.12L47.23,22A36.37,36.37,0,0,0,43,23.4c-.35.14-.71.26-1.05.43l-1,.46-.26.12-.25.13-.51.26-.5.26-.26.13-.25.14-1,.58-.25.14-.25.16-.48.31-.49.31L36.2,27l-.23.17-.95.67a35.63,35.63,0,0,0-3.59,3l-.43.41c-.15.14-.28.29-.42.43s-.54.58-.82.86l-.78.91c-.13.15-.27.3-.39.46l-.37.47a33.4,33.4,0,0,0-2.74,4c-.21.35-.41.7-.61,1s-.37.72-.56,1.08l-.28.54-.25.56c-.17.37-.34.74-.5,1.12-.29.76-.62,1.51-.86,2.3l-.2.58-.1.29-.09.3-.33,1.18q-.09.3-.15.6l-.14.6-.14.6,0,.15,0,.16-.06.3L20.94,51c-.06.41-.11.82-.16,1.23l-.08.61-.05.62-.09,1.24,0,1.25c0,.2,0,.41,0,.62l0,.62c0,.42,0,.83,0,1.25l.09,1.24,0,.31v.16l0,.15.08.62.07.62c0,.2.05.41.09.61l.22,1.23.06.31.07.3.14.6c.16.82.42,1.61.64,2.41.12.39.26.78.39,1.18l.2.58.23.58.22.58.12.29a1.69,1.69,0,0,0,.12.28l.51,1.13.13.29c0,.09.09.18.14.27l.28.56c.19.36.36.74.58,1.09s.41.71.62,1.07.44.69.66,1l.33.52L27,77l.36.51c.12.16.23.33.36.49.26.32.51.65.76,1l.19.24.2.23.41.47c.52.63,1.1,1.2,1.66,1.79l.88.85.44.42.46.39a34.78,34.78,0,0,0,3.84,2.93l1,.65.26.16.26.15.52.29.51.3.53.27,1.06.55,1.08.48.53.25.55.21,1.09.43,1.11.37.55.19.56.16,1.12.31,1.12.26.56.13.57.1,1.12.2,1.13.15c.75.11,1.51.14,2.26.21l.27,0h.29l.56,0h1.11l1.11,0h.55l.55,0,1.1-.08c.18,0,.36,0,.54-.06l.54-.07.53-.07a5,5,0,0,0,.54-.08l1.06-.18.52-.1.52-.12,1-.23.51-.14.5-.14.51-.14.5-.15a38.49,38.49,0,0,0,3.81-1.46,36.6,36.6,0,0,0,6.7-3.92,36.07,36.07,0,0,0,5.27-4.81,35.33,35.33,0,0,0,3.86-5.16,38.25,38.25,0,0,0,2.57-5c.16-.4.31-.8.47-1.19l.06-.15,0-.15.09-.29c.07-.19.13-.39.2-.58s.13-.37.19-.56.11-.37.16-.56c.11-.36.21-.72.31-1.07l0-.13,0-.13c0-.09,0-.18,0-.26l.12-.51L91,64c0-.16.08-.32.1-.48.06-.32.11-.62.16-.92s.06-.3.08-.44a1.7,1.7,0,0,0,0-.22l0-.21c.07-.56.14-1.07.2-1.55s.07-.91.1-1.3c0-.19,0-.38,0-.55s0-.33,0-.48c0-.3,0-.55,0-.75,0-.4,0-.61,0-.61h.88s0,.22,0,.63c0,.2,0,.46,0,.76s0,.32,0,.5,0,.36-.05.56c0,.4-.06.84-.1,1.33s-.13,1-.2,1.59l0,.22c0,.07,0,.14,0,.22s-.06.29-.08.45-.11.62-.17.95c0,.16-.07.32-.11.49s-.08.34-.11.51-.09.34-.13.52a2.61,2.61,0,0,1-.06.27l0,.13,0,.13c-.1.36-.2.73-.31,1.11,0,.18-.1.38-.16.57s-.14.38-.2.57l-.2.59c0,.1-.07.2-.1.31l0,.15-.06.15-.49,1.22a37.68,37.68,0,0,1-2.63,5.17,36.32,36.32,0,0,1-4,5.29,36.23,36.23,0,0,1-12.26,8.94,35.3,35.3,0,0,1-3.92,1.5c-.16.06-.34.1-.51.15l-.51.15-.52.15-.52.14L64,92.18l-.53.12-.54.1-1.08.19c-.18,0-.37,0-.55.08l-.55.07-.55.07c-.19,0-.37,0-.56.06L58.54,93,58,93l-.57,0-1.13,0h-.57l-.58,0h-.86L54,93c-.76-.07-1.54-.1-2.3-.21l-1.16-.15-1.15-.21-.58-.1-.58-.14-1.15-.26-1.14-.32-.58-.17c-.19,0-.37-.12-.56-.18l-1.14-.39-1.12-.44L42,90.18l-.55-.25-1.11-.49-1.08-.56-.54-.28-.53-.31-.53-.3-.27-.15-.26-.16-1-.67a34.41,34.41,0,0,1-3.94-3l-.47-.41-.46-.43-.9-.86c-.57-.61-1.17-1.2-1.7-1.84L28.18,80,28,79.75l-.2-.24-.77-1c-.14-.17-.25-.34-.38-.51l-.36-.52L25.89,77l-.34-.53c-.23-.36-.46-.71-.68-1.07l-.63-1.1c-.22-.36-.4-.75-.6-1.12l-.29-.57a2.44,2.44,0,0,1-.14-.28L23.08,72l-.53-1.16-.12-.29-.12-.3-.23-.59-.23-.59-.21-.6c-.13-.41-.28-.81-.4-1.21-.23-.82-.48-1.63-.66-2.47l-.14-.62-.07-.31-.06-.31-.22-1.26c0-.2-.07-.42-.09-.63l-.08-.63-.08-.63,0-.16,0-.16,0-.32-.1-1.27c0-.43,0-.85,0-1.28l0-.64c0-.21,0-.42,0-.64l0-1.27.1-1.27.05-.64.08-.63c.05-.42.1-.84.16-1.26s.15-.83.22-1.25l.06-.31,0-.15,0-.16.15-.62.14-.61c0-.21.09-.41.15-.62.12-.4.23-.81.35-1.21l.08-.31.1-.29.21-.6c.25-.8.58-1.57.88-2.35L23,41.25l.26-.57.29-.56c.19-.37.37-.74.57-1.11s.42-.72.62-1.08a36.26,36.26,0,0,1,2.81-4.07l.38-.49c.13-.16.27-.31.4-.46l.8-.93.85-.89.42-.44.44-.42a36,36,0,0,1,3.68-3.11l1-.69.24-.18.25-.16.5-.32.5-.32.25-.16.25-.15,1-.58.26-.15.26-.13.52-.27.52-.27.26-.13.26-.12L41.62,23c.35-.17.71-.29,1.07-.43A39,39,0,0,1,47,21.15l1.09-.25.55-.12.13,0,.14,0,.27,0,1.09-.19.28-.05.27,0,.54-.07a38,38,0,0,1,8.51-.13,36.51,36.51,0,0,1,19.84,8.45l.58.51c.19.17.39.33.57.5l1.07,1,1,1,.24.25.22.26.45.52.44.5.4.51.78,1,.7,1c.11.16.23.31.33.47s.2.32.31.48A37.07,37.07,0,0,1,90,42.8c.14.37.27.7.39,1,0,.07.05.14.07.2s0,.13.07.19l.11.33.2.59Z"/><path class="cls-2" d="M0,56.62c0-.32,0-.64,0-1,0-.65,0-1.3.07-1.94s.09-1.3.13-2l.09-1,.12-1c.07-.64.15-1.29.24-1.93S.89,46.6,1,46l.08-.48,0-.23L1.19,45l.22-1,.22-.94c.07-.32.15-.64.24-1,.17-.62.35-1.25.53-1.87l.14-.47.14-.46L3,38.43c.4-1.24.89-2.43,1.37-3.64.25-.59.52-1.18.78-1.76l.4-.88L6,31.29l.88-1.7c.33-.55.64-1.11,1-1.67a56.75,56.75,0,0,1,4.31-6.25l.6-.75c.19-.25.4-.48.61-.72.4-.48.81-.94,1.23-1.41s.85-.92,1.28-1.36c.22-.24.43-.46.66-.68l.67-.65a56.79,56.79,0,0,1,5.65-4.77l1.49-1.06.38-.27.39-.25c.24-.17.5-.33.76-.49l.77-.5L27,8.52l.39-.22L29,7.39l.39-.22.4-.21.8-.41c.26-.13.53-.28.81-.41l.4-.2.4-.19L33.8,5c.55-.26,1.1-.46,1.65-.69.74-.3,1.49-.57,2.24-.83l.31.83c-.75.24-1.49.53-2.23.83-.53.22-1.07.41-1.61.66s-1.07.49-1.6.72l-.41.2-.39.19L31,7.34l-.79.4L29.79,8l-.39.22-1.54.88-.39.23-.37.24-.76.48-.76.49c-.12.08-.25.15-.38.25l-.36.25-1.47,1a54.86,54.86,0,0,0-5.56,4.7l-.66.64L16.5,18c-.42.44-.84.89-1.27,1.33L14,20.77c-.21.24-.41.47-.6.72l-.58.72A53.37,53.37,0,0,0,8.6,28.37c-.31.55-.64,1.09-.95,1.65s-.58,1.12-.87,1.67l-.43.85-.4.87c-.26.57-.52,1.15-.76,1.74-.47,1.17-1,2.34-1.35,3.56l-.31.91-.14.45-.15.46c-.17.62-.33,1.23-.52,1.85-.09.3-.15.61-.23.92l-.22.94-.21.94L2,45.42l0,.23-.08.47c-.12.63-.22,1.27-.34,1.89s-.17,1.27-.24,1.91l-.12,1-.08,1c-.05.63-.1,1.27-.14,1.9s0,1.29,0,1.92c0,.33,0,.65,0,1l0,1c0,.65,0,1.29.06,1.92l.15,1.94,0,.48v.23l0,.25.11.94.12,1c0,.33.08.64.14,1l.34,1.91.09.46.1.49.23.93c.27,1.27.63,2.5,1,3.74.19.62.41,1.23.61,1.84l.32.9.34.91.35.9.19.44c.06.15.11.3.18.45L6.11,80l.21.44a3.48,3.48,0,0,0,.22.43l.43.86c.29.57.58,1.15.9,1.7s.64,1.11,1,1.66.68,1.07,1,1.62c.17.27.33.53.52.8l.55.78.55.78c.19.26.36.52.57.76l1.17,1.5.3.37.31.36.62.72A55.15,55.15,0,0,0,39,109l.86.28.87.25,1.73.48,1.76.41.86.2.89.15,1.73.32c.59.09,1.17.15,1.75.23,1.17.17,2.34.23,3.49.32l.43,0h.44l.86,0h1.72l1.72,0,.84,0,.85,0c.56-.06,1.13-.09,1.69-.13.29,0,.56-.07.84-.09l.83-.11.83-.11c.29,0,.56-.07.83-.12l1.65-.29.82-.15.8-.18,1.6-.37.8-.2c.26-.08.52-.16.78-.22l.78-.24c.26-.08.52-.14.78-.23A54,54,0,0,0,78.72,107a55.28,55.28,0,0,0,10.37-6.07,56.25,56.25,0,0,0,8.18-7.45,54.82,54.82,0,0,0,6-8,57,57,0,0,0,4-7.83c.24-.64.49-1.26.72-1.87a1,1,0,0,0,.09-.22l.08-.23c0-.16.1-.3.16-.45.1-.3.2-.6.31-.9s.19-.58.28-.88l.26-.86c.16-.58.33-1.14.47-1.67l.06-.21a1.3,1.3,0,0,0,0-.21c0-.13.07-.27.11-.4s.11-.53.18-.79.11-.52.18-.77.12-.5.16-.75c.09-.49.16-1,.26-1.44,0-.23.07-.45.11-.67s0-.23,0-.34,0-.22.06-.32c.11-.87.22-1.68.29-2.42s.12-1.41.17-2c0-.29,0-.58,0-.84s0-.52,0-.74c0-.47,0-.84,0-1.15,0-.63,0-.95,0-.95h.88s0,.32,0,1c0,.31,0,.7,0,1.17,0,.23,0,.49,0,.75s0,.56-.07.87c-.05.61-.1,1.28-.16,2s-.18,1.56-.32,2.45l0,.32c0,.12,0,.23-.07.34l-.12.7c-.07.46-.16,1-.26,1.45,0,.26-.1.51-.16.77s-.12.51-.17.77-.13.54-.2.81-.06.27-.09.41a4.87,4.87,0,0,1-.11.42c-.16.54-.32,1.11-.48,1.7-.08.28-.16.58-.26.88s-.2.58-.29.88-.21.61-.31.92c-.05.14-.1.3-.17.46l-.08.23a.92.92,0,0,1-.09.23c-.23.63-.48,1.25-.74,1.9a56,56,0,0,1-4.06,8,56,56,0,0,1-30.93,24.16c-.26.1-.53.17-.79.25l-.79.22-.81.23-.8.21-1.62.38c-.29.06-.56.11-.83.18l-.83.15c-.55.11-1.1.2-1.66.3l-.85.12c-.28,0-.55.08-.84.1l-.85.12c-.29,0-.56.06-.85.09l-1.72.13-.86,0c-.29,0-.58,0-.87,0l-1.74,0a3.23,3.23,0,0,1-.44,0h-.42l-.89,0c-.28,0-.58,0-.87,0h-.44l-.44,0c-1.18-.1-2.36-.16-3.54-.33L47.52,112l-1.77-.33-.9-.15-.88-.21-1.78-.4-1.76-.5-.88-.26c-.3-.08-.59-.19-.88-.28a56.1,56.1,0,0,1-24.9-16.54l-.62-.72-.31-.37-.31-.37-1.19-1.53c-.2-.25-.38-.52-.57-.78l-.56-.79L9.65,88l-.53-.82c-.35-.55-.72-1.09-1-1.64s-.65-1.12-1-1.69-.61-1.15-.93-1.73l-.44-.87a4.37,4.37,0,0,0-.22-.43l-.19-.45c-.27-.6-.55-1.18-.81-1.78-.07-.15-.13-.31-.19-.45l-.18-.46-.37-.92-.35-.9-.32-.94c-.21-.62-.43-1.23-.62-1.85-.37-1.27-.74-2.52-1-3.8l-.22-1-.11-.48-.09-.48C.93,66.69.82,66,.71,65.4c-.06-.32-.1-.64-.14-1l-.13-1-.12-1,0-.25,0-.25,0-.48c-.05-.66-.1-1.31-.14-1.95s0-1.3-.06-2Z"/><path class="cls-3" d="M87.06,62.81,80.8,61.55v0s0,0,0,.08,0,.15-.06.27-.13.58-.23,1a25.57,25.57,0,0,1-1,2.89c-.18.53-.44,1-.64,1.5a3.59,3.59,0,0,1-.17.34c-.06.12-.12.22-.17.33s-.21.42-.31.6l-.5.87a1.75,1.75,0,0,1-.15.24l0,.09-1.53-1a.49.49,0,0,1,.08-.12c0-.08.11-.21.2-.36l.32-.55.1-.17a1.51,1.51,0,0,1,.09-.18L77,67c.07-.13.15-.27.22-.42a4.89,4.89,0,0,0,.2-.46c.08-.15.15-.32.23-.48s.13-.34.2-.52.14-.35.22-.53.12-.37.19-.56.12-.38.19-.57.11-.38.16-.58.12-.38.17-.58.09-.39.13-.58.1-.38.14-.57.06-.39.09-.57.07-.37.1-.55,0-.36.07-.53,0-.34.06-.51a2,2,0,0,0,0-.24c0-.08,0-.15,0-.23,0-.3,0-.58.07-.83s0-.47,0-.64c0-.36,0-.57,0-.57h10s0,.29,0,.8c0,.25,0,.56,0,.91s0,.75-.09,1.18c0,.11,0,.22,0,.34l0,.34c0,.23-.07.47-.1.72s-.06.5-.09.75-.09.52-.14.79-.1.54-.14.81-.13.55-.19.83-.13.55-.19.83l-.24.83c-.08.28-.15.56-.24.83l-.27.82c-.1.26-.18.54-.28.79l-.3.77c-.1.25-.19.5-.3.74s-.21.47-.31.7l-.3.65-.31.61-.28.55-.13.26a1.76,1.76,0,0,1-.14.23c-.17.31-.32.57-.45.79s-.22.4-.3.51l-.11.17L83,73.12,83,73c0-.07.11-.17.18-.3l.63-1.1c.13-.23.25-.49.39-.75l.21-.41c.07-.14.15-.28.21-.43.26-.6.58-1.23.81-1.88.07-.17.13-.33.2-.49s.13-.32.18-.48c.11-.33.21-.65.32-1s.19-.61.27-.9l.23-.81c.13-.51.22-.93.29-1.23S87,63,87,62.94a.44.44,0,0,0,0-.1Z"/><path class="cls-3" d="M77.26,80,73,75.21l-.29.25-.34.29-.2.18-.24.18c-.33.25-.7.58-1.14.86l-.65.47c-.24.14-.47.29-.71.45s-.47.28-.71.42l-.35.2a3.12,3.12,0,0,1-.35.2l-.67.34-.3.16-.3.13-.52.24-.4.17-.36.14-.66-1.67.13-.06.16-.06.22-.09.58-.26.36-.16.38-.2c.55-.27,1.16-.62,1.81-1a23.7,23.7,0,0,0,2-1.36l.48-.38.12-.09.12-.1.22-.2.45-.39c.15-.12.29-.27.43-.4l.4-.38.37-.39c.24-.25.48-.48.67-.72l.55-.63.39-.51.26-.32a.35.35,0,0,0,.06-.09s0,0,0,0l8,6,0,0-.09.12-.37.46c-.15.2-.34.45-.56.72s-.49.57-.77.9-.61.67-1,1l-.53.55-.58.55-.6.57-.64.55-.33.28-.16.14-.17.14-.68.53c-.91.71-1.87,1.36-2.79,1.94s-1.8,1.06-2.58,1.44l-.55.29-.51.23-.83.38-.31.12-.24.09-.19.08-.67-1.67.45-.18c.14,0,.31-.13.5-.22l.65-.29L69.8,85l.39-.2.84-.43c.15-.07.29-.16.44-.24l.44-.26c.3-.17.6-.33.89-.53l.88-.56c.29-.19.56-.4.82-.58.55-.37,1-.77,1.43-1.08.1-.09.2-.16.3-.24l.25-.22.42-.36Z"/><path class="cls-3" d="M59.22,87.91l-.61-6.35-.39,0-.44,0-.27,0h-.3l-.68,0h-.76l-.81,0c-.14,0-.28,0-.42,0l-.42,0c-.56,0-1.1-.12-1.62-.18l-.2,0-.18,0-.36-.07-.67-.12-1-.22-.27-.06-.1,0,.46-1.75h0l.11,0,.4.09.62.15.81.14c.15,0,.3.07.47.09l.5.06.53.07.56,0,.58,0h.6l.6,0h1.23l.3,0,.31,0,.59,0a1.43,1.43,0,0,0,.29,0l.28,0,.56-.07c.18,0,.35-.06.53-.08l.49-.09.24,0,.23,0,.8-.19a2.62,2.62,0,0,0,.33-.09l.28-.08.53-.15,2.93,9.55-.76.22-.4.11-.48.13-1.15.26-.32.08-.34.06-.72.12c-.24,0-.49.1-.75.13l-.79.1-.41,0a2.71,2.71,0,0,1-.41,0l-.84.07-.43,0a3.17,3.17,0,0,1-.43,0l-.87,0h-.44c-.14,0-.28,0-.43,0l-.86,0h-.43l-.42,0-.82-.07c-.27,0-.54,0-.8-.06l-.76-.1-.71-.09-.67-.11c-.42-.08-.82-.14-1.16-.22l-.89-.2-.57-.13-.15,0h0L48.12,87l.13,0,.34.08,1.23.28.83.14.46.09.23,0,.24,0c.65.07,1.34.19,2,.22l.52,0a4.67,4.67,0,0,0,.52,0l1,0h.94l.85,0c.13,0,.26,0,.38,0l.34,0,.55,0Z"/><path class="cls-3" d="M40,83.59l3.28-5.47a3.47,3.47,0,0,1-.33-.2c-.2-.14-.5-.32-.85-.55L41.51,77c-.19-.14-.41-.28-.6-.45L40.27,76,40,75.77l-.31-.28c-.44-.35-.82-.76-1.21-1.11a3.44,3.44,0,0,1-.27-.27l-.25-.27-.24-.25-.23-.24-.66-.77-.18-.22-.06-.08L38,71.15l.08.11c.06.08.15.19.27.32l.42.48.12.15.14.15.31.31.32.35.37.35.39.37a1.9,1.9,0,0,0,.21.19l.21.18.44.38c.15.13.31.24.47.37l.47.38.5.35c.16.11.32.24.49.35l.51.32.25.16.12.08.13.08.5.28a2,2,0,0,0,.25.14l.12.08a.67.67,0,0,1,.12.06l.48.24.45.23.43.19c.54.26,1,.43,1.34.56l.22.09.17.06.13,0L45.06,88l-.19-.06-.24-.09-.31-.12c-.47-.19-1.15-.43-1.93-.81l-.62-.27-.64-.33-.68-.35-.18-.09-.17-.1-.35-.2L39,85.14l-.19-.1-.17-.12-.36-.23-.72-.46c-.25-.16-.48-.33-.71-.5l-.71-.5-.67-.53-.67-.53-.62-.54-.3-.26-.3-.27-.55-.53-.53-.5-.46-.49c-.15-.15-.3-.3-.43-.45l-.2-.21-.18-.2-.6-.69c-.16-.19-.3-.34-.37-.45l-.13-.17,1.4-1.13.08.1.22.28.83,1a3.84,3.84,0,0,0,.28.3l.3.31.32.34c.11.11.21.23.34.34.48.45,1,1,1.5,1.4l.4.34c.13.11.26.23.4.33l.79.63c.25.21.52.38.76.55l.69.5,1.07.68A4,4,0,0,0,40,83.59Z"/><path class="cls-3" d="M27,68.66l5.89-2.46-.14-.35-.16-.41a1.86,1.86,0,0,1-.1-.25,2.31,2.31,0,0,1-.1-.28c-.07-.2-.14-.41-.21-.64a3.59,3.59,0,0,1-.12-.35c0-.12-.07-.24-.1-.37s-.15-.5-.22-.77l-.18-.8c0-.14-.07-.27-.1-.41s0-.27-.07-.41-.09-.53-.14-.79-.06-.51-.09-.74,0-.24-.05-.35a.88.88,0,0,1,0-.16.92.92,0,0,1,0-.16c0-.42-.06-.77-.08-1s0-.22,0-.29v-.1l1.8-.07v.15a2.35,2.35,0,0,0,0,.41c0,.35,0,.86.14,1.46l.06.47s0,.09,0,.13l0,.12c0,.08,0,.17,0,.25l.09.53c0,.09,0,.18.05.27s0,.18.07.27.08.37.13.56l.06.29.09.28c.11.38.2.78.34,1.15.07.19.13.38.19.58l.05.14.06.14c0,.09.07.18.11.27l.21.55c0,.09.08.18.12.27l.12.26.22.51.12.24c0,.08.09.16.12.23.17.31.3.61.46.87l.41.72c.14.2.25.38.35.53l.22.35.08.12-8.26,5.61a1.8,1.8,0,0,1-.12-.17c-.07-.11-.18-.28-.31-.5l-.5-.76c-.17-.31-.37-.65-.59-1s-.42-.8-.65-1.24l-.17-.33a3.78,3.78,0,0,1-.17-.35l-.33-.72-.17-.38a2.54,2.54,0,0,1-.16-.38c-.11-.26-.21-.52-.31-.78l-.16-.4-.08-.2-.07-.2L24.48,67c-.2-.55-.34-1.11-.5-1.65l-.12-.41-.09-.41c-.06-.27-.13-.54-.19-.8l-.09-.39c0-.13,0-.26-.07-.39s-.09-.51-.13-.75-.05-.25-.07-.37l0-.17a1.1,1.1,0,0,1,0-.18l-.09-.67c-.13-.86-.16-1.58-.2-2.08,0-.26,0-.45,0-.59v-.21l1.8-.07v.12a2.57,2.57,0,0,0,0,.36c0,.3.05.74.09,1.26,0,.07,0,.14,0,.2l0,.21c0,.14,0,.28.05.43,0,.3.08.61.12.94s.12.65.18,1l.09.51c0,.17.08.34.11.51l.24,1c.09.33.18.66.27,1,0,.16.09.31.13.47s.1.29.14.43l.27.8c.05.13.08.25.12.36l.13.31c.08.2.15.37.2.51C27,68.5,27,68.66,27,68.66Z"/><path class="cls-3" d="M25.52,49l6.2,1.53a.35.35,0,0,1,0-.1,1.6,1.6,0,0,1,.07-.28c.07-.23.16-.56.27-1a1.86,1.86,0,0,1,.1-.31l.11-.33c.08-.22.15-.47.24-.71l.3-.74c.05-.13.09-.26.15-.39s.12-.25.17-.37.23-.51.35-.76l.37-.71c.06-.12.11-.24.17-.34a3.37,3.37,0,0,1,.19-.32c.11-.21.23-.41.33-.59a2.13,2.13,0,0,1,.16-.25l.14-.23c.1-.14.17-.27.24-.37a2.06,2.06,0,0,0,.15-.24l0-.06,0,0,1.49,1-.08.12-.22.35-.35.54-.41.72c-.16.25-.29.55-.46.86a1.67,1.67,0,0,1-.12.23L35,46.5c-.07.16-.15.33-.22.51l-.12.26a2.06,2.06,0,0,0-.12.26l-.21.55a2.33,2.33,0,0,0-.11.28l-.06.14-.05.14c-.06.19-.12.38-.19.57-.14.38-.23.77-.34,1.15l-.09.29-.06.28c0,.19-.09.38-.13.56s-.05.18-.07.27,0,.19-.05.28l-.09.52a1.84,1.84,0,0,1-.05.25.59.59,0,0,1,0,.13s0,.08,0,.12l-.06.47c-.1.6-.11,1.11-.14,1.47a2.24,2.24,0,0,0,0,.41v.15l-10-.41V55c0-.14,0-.34,0-.59,0-.51.07-1.23.2-2.09,0-.21.06-.44.09-.67a.88.88,0,0,1,0-.17l0-.18c0-.12,0-.24.07-.36s.08-.5.13-.75,0-.26.07-.39l.09-.39c.06-.27.13-.54.19-.81l.09-.41.12-.4c.16-.55.3-1.11.5-1.65l.27-.82.07-.21.08-.2.16-.39c.1-.27.2-.53.31-.79a3.08,3.08,0,0,1,.16-.38c.06-.13.11-.25.17-.37L26,42.2c0-.12.11-.23.17-.35l.17-.33c.23-.44.43-.87.65-1.24s.42-.72.59-1l.5-.77.31-.5a1.8,1.8,0,0,1,.12-.17l1.49,1,0,0-.05.08-.19.3-.3.46c-.06.09-.12.18-.18.29a2.49,2.49,0,0,0-.2.32l-.42.73-.23.4a4.32,4.32,0,0,0-.22.43l-.46.89c-.15.31-.29.63-.43,1-.08.16-.15.32-.22.47s-.13.33-.19.48c-.13.32-.25.64-.38.94s-.2.61-.3.89l-.14.42a3.3,3.3,0,0,0-.12.38c-.14.51-.26.92-.35,1.22,0,.14-.06.26-.08.34Z"/><path class="cls-3" d="M36,32.25l4.08,4.91.08-.07c.05,0,.13-.09.22-.17l.35-.27.21-.17.24-.18.55-.39.3-.22.32-.21.68-.43.18-.11.18-.1.36-.21.36-.21.37-.19.71-.36c.24-.12.47-.21.69-.31l.31-.15.15-.07.15-.06c.39-.14.71-.27.93-.37l.27-.09.09,0,.6,1.7-.13,0-.17.05-.22.09c-.32.14-.8.3-1.34.57l-.44.18-.44.24-.48.24L45,36l-.12.07-.25.14-.5.29-.13.07-.12.08-.25.16-.51.32c-.17.11-.33.24-.49.36l-.5.35-.47.37c-.16.13-.32.24-.47.37l-.44.38-.21.19-.21.18-.39.38-.37.34-.32.35-.31.32a1.85,1.85,0,0,1-.14.14l-.12.15-.42.48-.27.32-.08.11-7.78-6.26a1.59,1.59,0,0,1,.13-.16c.07-.11.21-.26.37-.45l.6-.69.18-.21.2-.21.43-.45.46-.49.53-.5.55-.53a3.73,3.73,0,0,1,.3-.26l.3-.27c.21-.17.41-.36.62-.54l.67-.52.67-.54.71-.5c.23-.16.46-.34.71-.5l.72-.46.36-.23.17-.12.19-.1.71-.41.35-.2.17-.1.18-.09.68-.35c.22-.11.43-.23.64-.32l.62-.28c.78-.37,1.46-.62,1.93-.81l.31-.12a1.68,1.68,0,0,1,.24-.08l.19-.07.6,1.7-.12,0-.33.12L44,27.39l-.19.07-.19.09-.4.18-.85.39-.9.46-.46.24-.45.26-.46.26-.22.13a1.64,1.64,0,0,0-.22.14l-.85.54-.41.26-.37.27-.69.49c-.11.07-.21.16-.3.23l-.27.21-.43.34-.28.22Z"/><path class="cls-3" d="M54.36,25l.35,6.38h.39l1,0,.68,0h.37c.13,0,.26,0,.39,0l.8.06.42,0,.41.06.83.1.79.14.37.07.36.08.66.15.29.07.25.07.43.12.36.1L63,34.19,62.47,34,62.19,34a2.62,2.62,0,0,0-.33-.09l-.8-.18-.23-.06-.24,0-.5-.08a4.34,4.34,0,0,0-.52-.09L59,33.35l-.28,0a2.85,2.85,0,0,0-.29,0l-.59,0-.31,0-.3,0h-.92c-.1,0-.2,0-.31,0l-.6,0h-.3a1.51,1.51,0,0,0-.3,0l-.58,0c-.19,0-.38,0-.56,0l-.53.07-.5.06-.47.08-.81.15-.62.14-.4.09-.11,0h0l-2.53-9.66,0,0,.15,0,.57-.13.89-.2,1.16-.21c.21,0,.43-.09.67-.12l.71-.09.76-.1c.26,0,.53,0,.8-.06l.82-.06a3,3,0,0,1,.42,0h.43l.86,0h.87l.87,0,.43,0,.43,0,.84.06.41,0,.41.06.79.1c.26,0,.51.08.75.12l.72.13.34.06c.11,0,.21,0,.32.07l1.15.26.48.13.4.11.76.22-.53,1.72-.46-.13-.53-.15L64.09,26l-.37-.09-.82-.19-.45-.1L62,25.53l-1-.18-1-.13-.52-.07-.51,0-1-.08a4,4,0,0,0-.49,0L57,25l-.85,0-1.27,0h-.48Z"/><path class="cls-3" d="M73.42,30.14l-3.5,5.34.09.05.23.15.83.59.13.09.13.11.27.21c.19.15.39.3.59.47l.61.53a4.15,4.15,0,0,1,.32.27l.3.29a27.13,27.13,0,0,1,2.1,2.24l.63.79c.07.1.14.17.18.23l0,.08-1.45,1.07,0,0-.06-.09-.26-.32-.39-.51-.55-.62c-.19-.24-.43-.47-.67-.73L72.61,40l-.4-.38-.43-.4-.45-.39-.22-.2-.12-.1-.12-.09L70.39,38a19.65,19.65,0,0,0-2-1.36,19.43,19.43,0,0,0-1.81-1l-.38-.2-.36-.16L65.31,35l-.22-.09-.16-.06-.13-.05,3.7-9.28.19.08.24.09.31.13.83.37.51.23.55.29c.78.38,1.66.88,2.58,1.44s1.88,1.23,2.79,1.94l.68.54.17.13.16.14.33.28.64.56c.21.18.4.38.6.56l.58.55.53.56c.34.36.67.69,1,1s.55.63.77.9l.56.72.37.46.09.12,0,.05-1.45,1.07-.07-.1-.22-.28-.78-1a32.42,32.42,0,0,0-2.64-2.79c-.12-.13-.25-.25-.38-.37S77.16,33,77,32.9l-.76-.66c-.25-.21-.51-.4-.74-.59l-.34-.27L75,31.25l-.16-.11-1-.74-.3-.19Z"/><path class="cls-3" d="M85.74,45.58l-6,2.22,0,.09c0,.06,0,.15.08.27s.2.55.32,1c.06.2.12.42.18.64a7,7,0,0,1,.2.73q.08.38.18.78a1.46,1.46,0,0,0,0,.2l0,.2c0,.14,0,.28.07.41s0,.28.08.41l0,.21,0,.2c0,.28.06.54.1.8s0,.51.07.75,0,.47.05.68,0,.2,0,.3,0,.19,0,.27,0,.32,0,.45,0,.38,0,.38H79.5s0-.2,0-.56c0-.18,0-.4,0-.65s0-.52-.07-.83c0-.07,0-.15,0-.23a2,2,0,0,0,0-.24l-.06-.5c0-.18,0-.35-.07-.54s-.06-.36-.1-.54L79,51.86c0-.19-.1-.38-.14-.58s-.09-.38-.13-.58-.11-.39-.17-.58-.1-.39-.16-.58L78.25,49c-.07-.18-.12-.37-.19-.56s-.15-.35-.22-.53-.13-.35-.2-.51l-.22-.49-.21-.46c-.07-.15-.15-.29-.22-.42s-.13-.27-.19-.39a1.51,1.51,0,0,1-.09-.18c0-.06-.07-.11-.1-.16l-.32-.56-.2-.35L76,44.24,84.49,39l.11.17c.08.11.17.29.3.51s.28.48.45.79a1.88,1.88,0,0,1,.14.24l.13.25.28.56.31.6q.15.31.3.66l.31.69c.11.24.2.49.3.74l.3.77c.1.26.18.53.28.8l.27.81c.09.27.16.55.24.83l.24.83c.06.28.12.56.19.84s.13.55.19.82.09.55.14.81.1.53.14.79l.09.76c0,.24.07.48.1.72l0,.34c0,.11,0,.22,0,.33,0,.43.07.83.09,1.18s0,.66,0,.92c0,.5,0,.79,0,.79h-1.8s0-.7-.06-1.75c0-.26,0-.54-.06-.85s0-.61-.09-.93-.08-.67-.13-1a2.13,2.13,0,0,0,0-.25c0-.09,0-.17,0-.26s-.06-.34-.1-.51l-.09-.52c0-.08,0-.17,0-.25L87,49.94c-.07-.34-.15-.67-.23-1s-.16-.62-.24-.91-.16-.56-.22-.81L85.89,46c0-.14-.08-.25-.11-.33Z"/><path class="cls-1" d="M78.69,70.48l0-.07.12-.2c.1-.18.24-.43.42-.72s.35-.66.55-1l.15-.29a1.09,1.09,0,0,1,.08-.15l.06-.16c.1-.2.19-.41.29-.62.2-.41.34-.85.51-1.24l.12-.3c0-.09.06-.19.09-.28s.13-.37.18-.53.11-.31.15-.44.07-.25.1-.35l.09-.3,3.44,1s0,.12-.1.34-.06.24-.11.4-.11.31-.17.5-.13.38-.2.6-.07.21-.12.32-.08.22-.13.33c-.18.46-.35.95-.58,1.42-.11.24-.22.47-.32.71l-.08.17-.09.17c0,.11-.11.22-.17.33-.22.43-.42.85-.63,1.18l-.46.82a2,2,0,0,1-.15.22.34.34,0,0,1,0,.08Z"/><path class="cls-1" d="M66,81.15l.29-.11c.19-.07.45-.2.76-.33l.51-.23.27-.13.28-.15.59-.3a2.91,2.91,0,0,0,.3-.17l.3-.17.6-.34.55-.36.53-.33.45-.33.68-.48.25-.2,2.19,2.83-.29.23c-.18.14-.45.32-.77.55l-.51.36-.6.38-.63.41-.67.39-.34.19a2.9,2.9,0,0,1-.34.19l-.67.34-.32.17-.31.15-.58.26c-.35.16-.64.3-.86.38l-.33.13Z"/><path class="cls-1" d="M49.4,82.17a2.44,2.44,0,0,0,.3.08l.81.19.26.06.29,0,.61.11c.42.09.88.12,1.33.19l.34,0,.35,0,.66,0c.43,0,.84,0,1.18,0a8.19,8.19,0,0,0,.84,0h.32l.07,3.58H56.4c-.23,0-.55,0-.95,0s-.85,0-1.34-.06l-.75-.06-.39,0-.39,0c-.51-.07-1-.11-1.51-.22l-.69-.12L50.05,86l-.29-.07-.92-.21a2.68,2.68,0,0,1-.35-.08Z"/><path class="cls-1" d="M35.48,73.13l.2.25.55.63.17.21.19.21.43.45.23.24a2.72,2.72,0,0,0,.24.24l.5.47c.32.33.68.62,1,.91l.23.21.24.19.44.34.37.3.3.2.26.19-2.07,2.92-.3-.21-.33-.24-.42-.33-.5-.39L37,79.7c-.09-.08-.18-.15-.27-.24-.37-.32-.78-.65-1.15-1L35,77.9a3.44,3.44,0,0,1-.27-.27l-.26-.27L34,76.85a2.4,2.4,0,0,1-.22-.24l-.2-.23-.62-.72-.22-.28Z"/><path class="cls-1" d="M29.66,57.62v.31c0,.2.05.49.07.84,0,.17,0,.36,0,.56s.06.4.09.61.05.44.08.66l.12.67c0,.23.07.46.12.68l.15.64c.05.21.09.41.14.6s.11.37.16.54.08.31.12.45.07.25.1.34l.11.3-3.4,1.12-.12-.34a4,4,0,0,1-.11-.39c0-.15-.1-.33-.15-.51s-.11-.39-.17-.61-.11-.45-.16-.69-.12-.48-.17-.73-.09-.51-.14-.76-.09-.51-.14-.77l-.09-.75c0-.24-.07-.47-.1-.69s0-.44-.05-.64c0-.39-.05-.71-.07-.94s0-.21,0-.27v-.09Z"/><path class="cls-1" d="M34.18,41.65l0,.07a1.73,1.73,0,0,1-.12.2l-.45.7a4.33,4.33,0,0,0-.28.48c-.1.17-.21.35-.31.54a2.61,2.61,0,0,0-.17.28l-.15.3-.31.61c-.11.2-.2.41-.29.62l-.28.6-.06.15-.06.14-.11.29-.2.51a1.36,1.36,0,0,0-.09.23l-.08.21-.11.34-.1.3-3.4-1.12.11-.34c0-.1.08-.24.13-.39s.05-.15.09-.23a2.77,2.77,0,0,1,.1-.26c.07-.19.15-.38.23-.59s.09-.21.13-.32l.06-.17s.05-.11.08-.16L28.8,44c.11-.23.2-.47.33-.7s.24-.46.35-.69l.18-.34c.05-.11.12-.22.18-.33l.35-.61a5.52,5.52,0,0,1,.33-.54l.51-.8.14-.22,0-.08Z"/><path class="cls-1" d="M47.33,31.51l-.3.1-.77.3-.51.21-.57.26c-.19.09-.4.17-.6.27L44,33l-.3.16-.16.08-.14.08-.58.34c-.38.2-.71.43-1,.61l-.4.25c-.12.08-.21.16-.3.21l-.25.19L38.77,32l.29-.21.33-.24.46-.28c.33-.21.7-.47,1.13-.7l.66-.38.16-.1L42,30l.34-.17.7-.36.68-.31.64-.29.59-.24.87-.34.34-.12Z"/><path class="cls-1" d="M63.93,31.16s-.44-.11-1.1-.31l-1.14-.26c-.21-.06-.43-.09-.65-.13l-.68-.12-.17,0-.17,0-.34,0L59,30.16l-.15,0h-.16l-.31,0-.55,0c-.35,0-.64,0-.84,0h-.32l.07-3.58h.36c.23,0,.56,0,1,0l.63.05.35,0h.18l.18,0,.74.1.39.05.19,0,.19,0,.77.13c.25,0,.5.08.74.15l1.3.3,1.25.35Z"/><path class="cls-1" d="M77.48,40.77l-.19-.25-.52-.66c-.44-.54-1-1.23-1.69-1.89-.08-.08-.15-.17-.24-.25a2.73,2.73,0,0,0-.25-.23L74.11,37c-.15-.15-.32-.28-.46-.41l-.43-.37L73,36.08l-.18-.14-.28-.22-.25-.2,2.19-2.83.28.22.32.26.2.15.21.19.48.42c.17.14.36.29.53.46l.54.52.29.27.27.28c.73.75,1.42,1.54,1.91,2.15l.59.74c.14.18.21.29.21.29Z"/><path class="cls-1" d="M82.66,56.52s0-.46,0-1.16-.1-1.61-.23-2.52c0-.11,0-.23,0-.34l-.06-.34-.12-.65c0-.11,0-.21-.05-.31s0-.2-.07-.3-.08-.37-.12-.54l-.11-.45a3.19,3.19,0,0,0-.1-.35l-.08-.3,3.44-1s0,.12.1.34.07.24.11.4.07.32.12.52.09.39.14.61,0,.22.08.34l.06.35c0,.24.09.49.13.74s0,.25.07.38,0,.26,0,.39c.15,1,.22,2.08.26,2.86s0,1.31,0,1.31Z"/><path class="cls-4" d="M468.5,55.56h-375s0-17.74-14.78-29.12c-15.94-12.27-34.35-5.79-34.35-5.79L38.25,3.5H468.5Z"/><rect class="cls-1" x="465.67" width="2.83" height="59"/><rect class="cls-2" x="463.67" width="1.77" height="59"/></g></g></svg>