<svg xmlns="http://www.w3.org/2000/svg" viewBox="0 0 211.45 211.43"><defs><style>.cls-1{fill:#08ade5;}.cls-2{fill:#80bfe8;}.cls-3{fill:#f890ab;}</style></defs><title>资源 2</title><g id="图层_2" data-name="图层 2"><g id="Layer_1" data-name="Layer 1"><path class="cls-1" d="M26,148.82s.06.12.19.33l.56,1,.92,1.6.59,1L29,153.9c.52.8,1.08,1.72,1.74,2.7l2.24,3.15c.84,1.11,1.78,2.27,2.76,3.53s2.14,2.52,3.35,3.83,2.51,2.7,4,4c.72.67,1.43,1.4,2.22,2.08l2.4,2.08A96.32,96.32,0,0,0,59,183.42,90.45,90.45,0,0,0,90.31,195a91.8,91.8,0,0,0,19.11,1.24c.83,0,1.66-.08,2.49-.14l2.51-.19c1.68-.15,3.36-.41,5.06-.61s3.39-.58,5.09-.94l2.54-.59,1.28-.29,1.27-.36a90.4,90.4,0,0,0,38.25-21.5,90.6,90.6,0,0,0,24.65-39.84l.83-2.92c.28-1,.47-2,.71-3,.5-2,.8-4,1.17-6a92.76,92.76,0,0,0-1.63-36.5c-.24-1-.55-2-.82-3s-.55-2-.9-2.93l-1-2.91-1.12-2.86-.57-1.43-.63-1.4c-.43-.93-.83-1.87-1.28-2.79-.94-1.81-1.82-3.66-2.88-5.41A90.54,90.54,0,0,0,85.2,17.42a88.66,88.66,0,0,0-19.29,6.84,91.34,91.34,0,0,0-38.2,35.31,86.7,86.7,0,0,0-6.17,12.54,90.82,90.82,0,0,0-3.69,11.28c-.2.88-.39,1.73-.59,2.55s-.38,1.63-.51,2.42-.27,1.55-.4,2.28-.27,1.45-.34,2.14c-.17,1.39-.33,2.66-.48,3.84s-.17,2.24-.24,3.2c0,.48-.08.93-.1,1.36s0,.82,0,1.18c0,.73,0,1.35,0,1.85,0,1,0,1.5,0,1.5h-7s0-.55,0-1.62c0-.53,0-1.19,0-2,0-.4,0-.82,0-1.28s.07-.94.11-1.45c.08-1,.16-2.19.26-3.45s.33-2.64.51-4.13c.09-.75.22-1.52.37-2.31s.29-1.61.44-2.46.34-1.71.55-2.6.41-1.81.63-2.75a97,97,0,0,1,4-12.16A93.81,93.81,0,0,1,21.7,56,98.29,98.29,0,0,1,62.84,18a95.15,95.15,0,0,1,20.79-7.38,97.56,97.56,0,0,1,106.89,46.7c1.14,1.88,2.09,3.87,3.1,5.82.48,1,.92,2,1.37,3l.69,1.51.6,1.53,1.21,3.09,1.06,3.13c.38,1,.68,2.11,1,3.17s.63,2.12.88,3.19a99.33,99.33,0,0,1,1.76,39.3c-.4,2.16-.72,4.32-1.26,6.43-.26,1.07-.46,2.14-.76,3.18l-.9,3.14a97.67,97.67,0,0,1-67.74,66.07l-1.37.38-1.38.32-2.74.64c-1.83.38-3.67.67-5.48,1s-3.64.5-5.45.66l-2.7.21c-.9.07-1.79.14-2.68.15a98.87,98.87,0,0,1-20.57-1.34,97.38,97.38,0,0,1-33.7-12.51,103.29,103.29,0,0,1-12.25-8.74l-2.59-2.24c-.85-.72-1.61-1.51-2.39-2.23-1.57-1.45-2.94-3-4.28-4.35s-2.48-2.82-3.6-4.12-2.07-2.62-3-3.81-1.67-2.36-2.41-3.39-1.32-2-1.88-2.91l-.79-1.23-.64-1.11-1-1.72c-.26-.46-.47-.81-.6-1.05a4,4,0,0,1-.2-.36Z"/><path class="cls-2" d="M3.45,105.71s0,.58,0,1.7c0,.56,0,1.25.06,2.08,0,.41,0,.86,0,1.33s.07,1,.11,1.53c.08,1.08.18,2.28.28,3.61s.34,2.77.53,4.33c.09.78.23,1.58.38,2.41s.31,1.69.46,2.58.36,1.8.58,2.73.44,1.89.67,2.88a102.85,102.85,0,0,0,4.15,12.74,98.75,98.75,0,0,0,7,14.16A102.81,102.81,0,0,0,60.79,197.6a99.88,99.88,0,0,0,21.79,7.73,102.23,102.23,0,0,0,112-48.91c1.19-2,2.19-4.06,3.25-6.11.5-1,1-2.1,1.44-3.15l.71-1.58.64-1.61,1.27-3.23,1.11-3.29c.39-1.08.7-2.2,1-3.31s.65-2.22.92-3.35a104.37,104.37,0,0,0,1.84-41.16c-.41-2.26-.76-4.52-1.32-6.74-.27-1.11-.49-2.24-.8-3.33l-.93-3.29a102.28,102.28,0,0,0-71-69.21l-1.43-.41-1.44-.33L127,5.65c-1.92-.4-3.84-.71-5.74-1.05s-3.82-.52-5.71-.69l-2.83-.22c-.94-.07-1.87-.15-2.81-.16a104,104,0,0,0-21.54,1.4A102.1,102.1,0,0,0,53,18.05,108,108,0,0,0,40.2,27.2l-2.71,2.35c-.89.76-1.69,1.58-2.51,2.34C33.34,33.4,31.91,35,30.5,36.44s-2.6,3-3.77,4.32-2.17,2.73-3.12,4L21.09,48.3c-.75,1.1-1.39,2.13-2,3l-.83,1.29-.67,1.16-1,1.8c-.27.49-.49.86-.63,1.1l-.21.38-3-1.64a3.66,3.66,0,0,1,.21-.39l.65-1.14L14.65,52c.21-.37.44-.77.69-1.19l.85-1.34c.61-.94,1.27-2,2-3.14l2.61-3.68c1-1.29,2.07-2.65,3.22-4.12s2.49-2.93,3.9-4.46,2.93-3.14,4.63-4.71c.85-.78,1.67-1.63,2.59-2.41L38,24.55a111.61,111.61,0,0,1,13.27-9.46A105.44,105.44,0,0,1,87.76,1.53,106.69,106.69,0,0,1,110,.08c1,0,1.93.09,2.9.16l2.93.23c2,.18,3.92.47,5.9.71s4,.67,5.93,1.09l3,.69,1.49.35,1.48.41A106,106,0,0,1,207,75.27l1,3.41c.32,1.13.55,2.29.83,3.44.58,2.3.94,4.64,1.36,7a107.43,107.43,0,0,1-1.9,42.55c-.28,1.16-.64,2.3-.95,3.46s-.65,2.3-1.06,3.43l-1.15,3.4-1.3,3.33-.67,1.67-.73,1.63c-.5,1.09-1,2.18-1.49,3.26-1.1,2.12-2.13,4.27-3.36,6.31A105.67,105.67,0,0,1,81.8,208.7a104,104,0,0,1-22.53-8,106.49,106.49,0,0,1-44.54-41.15,101.58,101.58,0,0,1-7.19-14.64,105.56,105.56,0,0,1-4.3-13.18c-.24-1-.47-2-.69-3s-.45-1.9-.6-2.82-.32-1.81-.47-2.67-.31-1.69-.4-2.49c-.2-1.62-.4-3.11-.55-4.48s-.2-2.61-.29-3.73c0-.56-.08-1.08-.11-1.58s0-.95,0-1.38c0-.85,0-1.57-.06-2.14,0-1.16,0-1.76,0-1.76Z"/><path class="cls-3" d="M99.71,24.44l-.88.07c-.58,0-1.43.08-2.5.24a78.8,78.8,0,0,0-8.82,1.52,80.88,80.88,0,0,0-25,10.32A82.65,82.65,0,0,0,51,45.34a85.65,85.65,0,0,0-8.67,9.22c-.58.72-1.13,1.42-1.65,2.09s-1,1.33-1.4,1.94-.86,1.18-1.22,1.73l-1,1.51c-.58.91-1.06,1.61-1.33,2.12l-.45.77-5.43-3.17s.16-.29.48-.83.81-1.31,1.43-2.29l1-1.62c.39-.59.84-1.2,1.31-1.86s1-1.38,1.51-2.09l1.77-2.26a91.82,91.82,0,0,1,9.35-9.92A88.81,88.81,0,0,1,59.2,31.26,87.47,87.47,0,0,1,86.11,20.13a86.15,86.15,0,0,1,9.5-1.63c1.15-.17,2.07-.21,2.69-.26l1-.07Z"/><path class="cls-3" d="M172.35,58.76s-.17-.25-.51-.72-.81-1.18-1.5-2l-1.11-1.4-.63-.8-.71-.83-1.57-1.81c-.56-.64-1.2-1.26-1.83-1.94a78.73,78.73,0,0,0-9.44-8.43,82.93,82.93,0,0,0-12.28-7.71,81.9,81.9,0,0,0-13.43-5.42A78.13,78.13,0,0,0,117,25l-2.63-.34c-.84-.09-1.65-.13-2.4-.19l-2.1-.16-1.79,0c-1.09,0-1.94-.07-2.52-.06l-.89,0-.08-6.29,1,0c.62,0,1.54,0,2.7.06l1.93,0,2.27.17c.81.07,1.67.11,2.57.21l2.84.36a86.24,86.24,0,0,1,27.78,8.75,88.77,88.77,0,0,1,13.23,8.3A86.46,86.46,0,0,1,169,44.88c.68.73,1.36,1.4,2,2.08l1.69,2,.78.89.67.86,1.19,1.51c.74.91,1.26,1.66,1.62,2.17l.55.78Z"/><path class="cls-3" d="M180.29,138.68s.55-1.11,1.31-3.13l.66-1.66c.22-.61.43-1.29.68-2s.51-1.46.75-2.27l.72-2.56a80,80,0,0,0,2.35-12.42,85.22,85.22,0,0,0,.28-14.52A78.87,78.87,0,0,0,184.8,85.8a88.17,88.17,0,0,0-4-12,83.17,83.17,0,0,0-4-8l-1.25-2.17c-.29-.5-.47-.75-.47-.75l5.35-3.32s.19.28.51.81.77,1.34,1.34,2.35a91.37,91.37,0,0,1,4.28,8.64,93.09,93.09,0,0,1,4.33,12.91,85.29,85.29,0,0,1,2.42,15.43,90.87,90.87,0,0,1-.31,15.62,87.46,87.46,0,0,1-2.52,13.39c-.27.95-.54,1.87-.78,2.75s-.56,1.68-.81,2.45-.5,1.49-.74,2.15-.49,1.25-.71,1.79c-.44,1.08-.73,2-1,2.51l-.39.87Z"/><path class="cls-3" d="M115.82,186.59l.88-.12c.58-.07,1.43-.15,2.48-.36a77.13,77.13,0,0,0,8.73-2,80.87,80.87,0,0,0,24.43-11.57,83,83,0,0,0,11.12-9.31,85.88,85.88,0,0,0,8.21-9.64l1.54-2.17c.48-.7.89-1.38,1.3-2s.81-1.22,1.13-1.79l.89-1.55c.54-.94,1-1.66,1.22-2.19l.4-.79,5.59,2.89-.43.85c-.27.57-.74,1.36-1.32,2.37l-1,1.67c-.34.61-.78,1.23-1.21,1.92s-.89,1.42-1.4,2.17l-1.66,2.33a91.56,91.56,0,0,1-8.84,10.38,89.09,89.09,0,0,1-12,10,87.08,87.08,0,0,1-26.32,12.47,83,83,0,0,1-9.41,2.1c-1.14.23-2,.32-2.67.4l-1,.12Z"/><path class="cls-3" d="M41.56,155.94l.55.7c.17.23.39.51.65.84l1,1.09c.72.81,1.53,1.84,2.6,2.91L48,163.22c.6.6,1.26,1.2,1.92,1.84A79.84,79.84,0,0,0,59.74,173a81.91,81.91,0,0,0,26.32,11.82,80.72,80.72,0,0,0,12.48,2.07l2.65.2c.84.06,1.65.05,2.4.08l2.11,0,1.8,0,2.51-.07.89-.07.39,6.28-1,.07-2.71.08-1.93.05-2.27-.07c-.81,0-1.68,0-2.59-.08L98,193.16a86,86,0,0,1-13.44-2.22A88.24,88.24,0,0,1,56.18,178.2a86.93,86.93,0,0,1-10.61-8.56c-.72-.69-1.42-1.34-2.07-2l-1.78-1.87c-1.14-1.15-2-2.26-2.8-3.13l-1-1.18-.7-.91-.6-.75Z"/></g></g></svg>