<svg xmlns="http://www.w3.org/2000/svg" viewBox="0 0 28.85 28.83"><defs><style>.cls-1{fill:#69bffe;}</style></defs><title>资源 10</title><g id="图层_2" data-name="图层 2"><g id="央铋_1" data-name="央铋 1"><path class="cls-1" d="M13.68,28.83A13.16,13.16,0,0,1,12,28.65l.07-.4a14.4,14.4,0,0,0,1.61.17Zm1.67,0,0-.41a14.61,14.61,0,0,0,1.62-.19l.07.4A13.2,13.2,0,0,1,15.35,28.82Zm-5-.54a12.34,12.34,0,0,1-1.58-.56L9,27.34c.5.21,1,.39,1.53.55Zm8.24-.05-.12-.39A14.07,14.07,0,0,0,20,27.27l.16.38A14,14,0,0,1,18.63,28.23ZM7.31,27a14,14,0,0,1-1.4-.91l.24-.33a13.26,13.26,0,0,0,1.37.88Zm14.38-.09-.21-.35a13.77,13.77,0,0,0,1.35-.9l.25.33A14.54,14.54,0,0,1,21.69,26.89ZM4.62,25a14.58,14.58,0,0,1-1.16-1.2l.32-.27A13.72,13.72,0,0,0,4.9,24.71Zm19.74-.12-.29-.3a13.84,13.84,0,0,0,1.12-1.18l.31.26A14.68,14.68,0,0,1,24.36,24.89ZM2.45,22.48A13.94,13.94,0,0,1,1.6,21L2,20.85a12.07,12.07,0,0,0,.82,1.39Zm24.05-.15-.35-.23A13,13,0,0,0,27,20.7l.37.18A16,16,0,0,1,26.5,22.33ZM.92,19.51a14.82,14.82,0,0,1-.5-1.6l.4-.09a12.64,12.64,0,0,0,.49,1.55ZM28,19.34l-.39-.14a13.84,13.84,0,0,0,.47-1.55l.4.09A14.73,14.73,0,0,1,28,19.34ZM.12,16.27A15.44,15.44,0,0,1,0,14.61H.41c0,.54.05,1.09.11,1.62Zm28.64-.18-.41,0a14.66,14.66,0,0,0,.09-1.62v-.35h.41v.36A15.25,15.25,0,0,1,28.76,16.09ZM.48,13l-.41,0a15.33,15.33,0,0,1,.27-1.65l.4.09C.63,11.9.54,12.44.48,13Zm27.82-.52A14.4,14.4,0,0,0,28,10.87l.39-.1a14.7,14.7,0,0,1,.33,1.63ZM1.19,9.81.8,9.68a14,14,0,0,1,.64-1.55l.37.18C1.58,8.8,1.37,9.3,1.19,9.81Zm26.29-.48a13.14,13.14,0,0,0-.67-1.48l.36-.19a16.11,16.11,0,0,1,.7,1.52ZM2.6,6.9l-.34-.23a16,16,0,0,1,1-1.35l.32.26A12.34,12.34,0,0,0,2.6,6.9ZM26,6.47a13.88,13.88,0,0,0-1-1.29l.31-.27a14.61,14.61,0,0,1,1,1.32ZM4.65,4.38l-.29-.29A14.72,14.72,0,0,1,5.63,3l.25.33A15.59,15.59,0,0,0,4.65,4.38ZM23.82,4a13.69,13.69,0,0,0-1.26-1l.24-.33a14.44,14.44,0,0,1,1.3,1ZM7.22,2.4,7,2.05a13,13,0,0,1,1.48-.77l.17.37A14,14,0,0,0,7.22,2.4Zm14-.25a13,13,0,0,0-1.46-.7l.15-.39a15,15,0,0,1,1.51.72Zm-11-1.08L10.05.68A14.81,14.81,0,0,1,11.67.26l.07.41A14.45,14.45,0,0,0,10.17,1.07Zm8-.15A14,14,0,0,0,16.59.58l.07-.41c.55.09,1.1.21,1.63.35ZM13.35.45l0-.41A15.51,15.51,0,0,1,15,0V.42A14.78,14.78,0,0,0,13.35.45Z"/></g></g></svg>