<svg xmlns="http://www.w3.org/2000/svg" viewBox="0 0 85.87 216.37"><defs><style>.cls-1{fill:#36a9e1;}.cls-2{opacity:0.9;}.cls-3{opacity:0.8;}.cls-4{opacity:0.7;}.cls-5{opacity:0.6;}.cls-6{opacity:0.5;}.cls-7{opacity:0.4;}.cls-8{opacity:0.3;}.cls-9{opacity:0.2;}.cls-10{opacity:0.1;}</style></defs><title>资源 6</title><g id="图层_2" data-name="图层 2"><g id="Layer_1" data-name="Layer 1"><circle class="cls-1" cx="4.18" cy="186.18" r="4.18"/><circle class="cls-1" cx="4.18" cy="173.18" r="4.18"/><circle class="cls-1" cx="4.18" cy="160.18" r="4.18"/><circle class="cls-1" cx="4.18" cy="147.18" r="4.18"/><circle class="cls-1" cx="4.18" cy="134.18" r="4.18"/><circle class="cls-1" cx="4.18" cy="121.18" r="4.18"/><g class="cls-2"><circle class="cls-1" cx="4.18" cy="108.18" r="4.18"/></g><g class="cls-3"><circle class="cls-1" cx="4.18" cy="95.18" r="4.18"/></g><g class="cls-4"><path class="cls-1" d="M4.18,86.37a4.19,4.19,0,1,1,4.19-4.19A4.19,4.19,0,0,1,4.18,86.37Z"/></g><g class="cls-5"><path class="cls-1" d="M4.18,73.37a4.19,4.19,0,1,1,4.19-4.19A4.19,4.19,0,0,1,4.18,73.37Z"/></g><g class="cls-6"><path class="cls-1" d="M4.18,60.37a4.19,4.19,0,1,1,4.19-4.19A4.19,4.19,0,0,1,4.18,60.37Z"/></g><g class="cls-7"><path class="cls-1" d="M4.18,47.37a4.19,4.19,0,1,1,4.19-4.19A4.19,4.19,0,0,1,4.18,47.37Z"/></g><g class="cls-8"><path class="cls-1" d="M4.18,34.37a4.19,4.19,0,1,1,4.19-4.19A4.19,4.19,0,0,1,4.18,34.37Z"/></g><g class="cls-9"><path class="cls-1" d="M4.18,21.37a4.19,4.19,0,1,1,4.19-4.19A4.19,4.19,0,0,1,4.18,21.37Z"/></g><g class="cls-10"><path class="cls-1" d="M4.18,8.37A4.19,4.19,0,1,1,8.37,4.18,4.19,4.19,0,0,1,4.18,8.37Z"/></g><path class="cls-1" d="M17.1,190.37a4.19,4.19,0,1,1,4.18-4.19A4.19,4.19,0,0,1,17.1,190.37Z"/><g class="cls-2"><path class="cls-1" d="M17.1,177.37a4.19,4.19,0,1,1,4.18-4.19A4.19,4.19,0,0,1,17.1,177.37Z"/></g><g class="cls-3"><path class="cls-1" d="M17.1,164.37a4.19,4.19,0,1,1,4.18-4.19A4.19,4.19,0,0,1,17.1,164.37Z"/></g><g class="cls-4"><path class="cls-1" d="M17.1,151.37a4.19,4.19,0,1,1,4.18-4.19A4.19,4.19,0,0,1,17.1,151.37Z"/></g><g class="cls-5"><path class="cls-1" d="M17.1,138.37a4.19,4.19,0,1,1,4.18-4.19A4.19,4.19,0,0,1,17.1,138.37Z"/></g><g class="cls-6"><path class="cls-1" d="M17.1,125.37a4.19,4.19,0,1,1,4.18-4.19A4.19,4.19,0,0,1,17.1,125.37Z"/></g><g class="cls-7"><path class="cls-1" d="M17.1,112.37a4.19,4.19,0,1,1,4.18-4.19A4.19,4.19,0,0,1,17.1,112.37Z"/></g><g class="cls-8"><path class="cls-1" d="M17.1,99.37a4.19,4.19,0,1,1,4.18-4.19A4.19,4.19,0,0,1,17.1,99.37Z"/></g><g class="cls-9"><path class="cls-1" d="M17.1,86.37a4.19,4.19,0,1,1,4.18-4.19A4.19,4.19,0,0,1,17.1,86.37Z"/></g><g class="cls-10"><path class="cls-1" d="M17.1,73.37a4.19,4.19,0,1,1,4.18-4.19A4.19,4.19,0,0,1,17.1,73.37Z"/></g><circle class="cls-1" cx="30.02" cy="134.18" r="4.18"/><g class="cls-2"><circle class="cls-1" cx="30.02" cy="121.18" r="4.18"/></g><g class="cls-3"><circle class="cls-1" cx="30.02" cy="108.18" r="4.18"/></g><g class="cls-4"><circle class="cls-1" cx="30.02" cy="95.18" r="4.18"/></g><g class="cls-5"><path class="cls-1" d="M30,86.37a4.19,4.19,0,1,1,4.18-4.19A4.2,4.2,0,0,1,30,86.37Z"/></g><g class="cls-6"><path class="cls-1" d="M30,73.37a4.19,4.19,0,1,1,4.18-4.19A4.2,4.2,0,0,1,30,73.37Z"/></g><g class="cls-7"><path class="cls-1" d="M30,60.37a4.19,4.19,0,1,1,4.18-4.19A4.2,4.2,0,0,1,30,60.37Z"/></g><g class="cls-8"><path class="cls-1" d="M30,47.37a4.19,4.19,0,1,1,4.18-4.19A4.2,4.2,0,0,1,30,47.37Z"/></g><g class="cls-9"><path class="cls-1" d="M30,34.37a4.19,4.19,0,1,1,4.18-4.19A4.2,4.2,0,0,1,30,34.37Z"/></g><g class="cls-10"><path class="cls-1" d="M30,21.37a4.19,4.19,0,1,1,4.18-4.19A4.2,4.2,0,0,1,30,21.37Z"/></g><path class="cls-1" d="M42.93,164.37a4.19,4.19,0,1,1,4.19-4.19A4.19,4.19,0,0,1,42.93,164.37Z"/><g class="cls-2"><path class="cls-1" d="M42.93,151.37a4.19,4.19,0,1,1,4.19-4.19A4.19,4.19,0,0,1,42.93,151.37Z"/></g><g class="cls-3"><path class="cls-1" d="M42.93,138.37a4.19,4.19,0,1,1,4.19-4.19A4.19,4.19,0,0,1,42.93,138.37Z"/></g><g class="cls-4"><path class="cls-1" d="M42.93,125.37a4.19,4.19,0,1,1,4.19-4.19A4.19,4.19,0,0,1,42.93,125.37Z"/></g><g class="cls-5"><path class="cls-1" d="M42.93,112.37a4.19,4.19,0,1,1,4.19-4.19A4.19,4.19,0,0,1,42.93,112.37Z"/></g><g class="cls-6"><path class="cls-1" d="M42.93,99.37a4.19,4.19,0,1,1,4.19-4.19A4.19,4.19,0,0,1,42.93,99.37Z"/></g><g class="cls-7"><path class="cls-1" d="M42.93,86.37a4.19,4.19,0,1,1,4.19-4.19A4.19,4.19,0,0,1,42.93,86.37Z"/></g><g class="cls-8"><path class="cls-1" d="M42.93,73.37a4.19,4.19,0,1,1,4.19-4.19A4.19,4.19,0,0,1,42.93,73.37Z"/></g><g class="cls-9"><path class="cls-1" d="M42.93,60.37a4.19,4.19,0,1,1,4.19-4.19A4.19,4.19,0,0,1,42.93,60.37Z"/></g><g class="cls-10"><path class="cls-1" d="M42.93,47.37a4.19,4.19,0,1,1,4.19-4.19A4.19,4.19,0,0,1,42.93,47.37Z"/></g><path class="cls-1" d="M68.77,138.37A4.19,4.19,0,1,1,73,134.18,4.2,4.2,0,0,1,68.77,138.37Z"/><g class="cls-2"><path class="cls-1" d="M68.77,125.37A4.19,4.19,0,1,1,73,121.18,4.2,4.2,0,0,1,68.77,125.37Z"/></g><g class="cls-3"><path class="cls-1" d="M68.77,112.37A4.19,4.19,0,1,1,73,108.18,4.2,4.2,0,0,1,68.77,112.37Z"/></g><g class="cls-4"><path class="cls-1" d="M68.77,99.37A4.19,4.19,0,1,1,73,95.18,4.2,4.2,0,0,1,68.77,99.37Z"/></g><g class="cls-5"><path class="cls-1" d="M68.77,86.37A4.19,4.19,0,1,1,73,82.18,4.2,4.2,0,0,1,68.77,86.37Z"/></g><g class="cls-6"><path class="cls-1" d="M68.77,73.37A4.19,4.19,0,1,1,73,69.18,4.2,4.2,0,0,1,68.77,73.37Z"/></g><g class="cls-7"><path class="cls-1" d="M68.77,60.37A4.19,4.19,0,1,1,73,56.18,4.2,4.2,0,0,1,68.77,60.37Z"/></g><g class="cls-8"><path class="cls-1" d="M68.77,47.37A4.19,4.19,0,1,1,73,43.18,4.2,4.2,0,0,1,68.77,47.37Z"/></g><g class="cls-9"><path class="cls-1" d="M68.77,34.37A4.19,4.19,0,1,1,73,30.18,4.2,4.2,0,0,1,68.77,34.37Z"/></g><g class="cls-10"><path class="cls-1" d="M68.77,21.37A4.19,4.19,0,1,1,73,17.18,4.2,4.2,0,0,1,68.77,21.37Z"/></g><path class="cls-1" d="M81.68,190.37a4.19,4.19,0,1,1,4.19-4.19A4.18,4.18,0,0,1,81.68,190.37Z"/><g class="cls-2"><path class="cls-1" d="M81.68,177.37a4.19,4.19,0,1,1,4.19-4.19A4.18,4.18,0,0,1,81.68,177.37Z"/></g><g class="cls-3"><path class="cls-1" d="M81.68,164.37a4.19,4.19,0,1,1,4.19-4.19A4.18,4.18,0,0,1,81.68,164.37Z"/></g><g class="cls-4"><path class="cls-1" d="M81.68,151.37a4.19,4.19,0,1,1,4.19-4.19A4.18,4.18,0,0,1,81.68,151.37Z"/></g><g class="cls-5"><path class="cls-1" d="M81.68,138.37a4.19,4.19,0,1,1,4.19-4.19A4.18,4.18,0,0,1,81.68,138.37Z"/></g><g class="cls-6"><path class="cls-1" d="M81.68,125.37a4.19,4.19,0,1,1,4.19-4.19A4.18,4.18,0,0,1,81.68,125.37Z"/></g><g class="cls-7"><path class="cls-1" d="M81.68,112.37a4.19,4.19,0,1,1,4.19-4.19A4.18,4.18,0,0,1,81.68,112.37Z"/></g><g class="cls-8"><path class="cls-1" d="M81.68,99.37a4.19,4.19,0,1,1,4.19-4.19A4.18,4.18,0,0,1,81.68,99.37Z"/></g><g class="cls-9"><path class="cls-1" d="M81.68,86.37a4.19,4.19,0,1,1,4.19-4.19A4.18,4.18,0,0,1,81.68,86.37Z"/></g><g class="cls-10"><path class="cls-1" d="M81.68,73.37a4.19,4.19,0,1,1,4.19-4.19A4.18,4.18,0,0,1,81.68,73.37Z"/></g><circle class="cls-1" cx="17.1" cy="186.18" r="4.18" transform="translate(-0.28 0.03) rotate(-0.09)"/><circle class="cls-1" cx="30.02" cy="186.18" r="4.18"/><circle class="cls-1" cx="30.02" cy="173.18" r="4.18"/><circle class="cls-1" cx="30.02" cy="160.18" r="4.18"/><circle class="cls-1" cx="30.02" cy="147.18" r="4.18"/><circle class="cls-1" cx="30.02" cy="134.18" r="4.18"/><path class="cls-1" d="M42.93,190.37a4.19,4.19,0,1,1,4.19-4.19A4.19,4.19,0,0,1,42.93,190.37Z"/><path class="cls-1" d="M42.93,177.37a4.19,4.19,0,1,1,4.19-4.19A4.19,4.19,0,0,1,42.93,177.37Z"/><path class="cls-1" d="M42.93,164.37a4.19,4.19,0,1,1,4.19-4.19A4.19,4.19,0,0,1,42.93,164.37Z"/><circle class="cls-1" cx="55.85" cy="186.18" r="4.18"/><g class="cls-3"><circle class="cls-1" cx="55.85" cy="173.18" r="4.18"/></g><g class="cls-5"><circle class="cls-1" cx="55.85" cy="160.18" r="4.18"/></g><g class="cls-7"><circle class="cls-1" cx="55.85" cy="147.18" r="4.18"/></g><g class="cls-9"><circle class="cls-1" cx="55.85" cy="134.18" r="4.18"/></g><g class="cls-10"><circle class="cls-1" cx="55.85" cy="121.18" r="4.18"/></g><path class="cls-1" d="M68.77,190.37A4.19,4.19,0,1,1,73,186.18,4.2,4.2,0,0,1,68.77,190.37Z"/><path class="cls-1" d="M68.77,177.37A4.19,4.19,0,1,1,73,173.18,4.2,4.2,0,0,1,68.77,177.37Z"/><path class="cls-1" d="M68.77,164.37A4.19,4.19,0,1,1,73,160.18,4.2,4.2,0,0,1,68.77,164.37Z"/><path class="cls-1" d="M68.77,151.37A4.19,4.19,0,1,1,73,147.18,4.2,4.2,0,0,1,68.77,151.37Z"/><path class="cls-1" d="M68.77,138.37A4.19,4.19,0,1,1,73,134.18,4.2,4.2,0,0,1,68.77,138.37Z"/><circle class="cls-1" cx="81.68" cy="186.18" r="4.18"/><circle class="cls-1" cx="4.18" cy="199.18" r="4.18"/><circle class="cls-1" cx="4.18" cy="186.18" r="4.18"/><path class="cls-1" d="M17.1,203.37a4.19,4.19,0,1,1,4.18-4.19A4.19,4.19,0,0,1,17.1,203.37Z"/><g class="cls-2"><path class="cls-1" d="M17.1,190.37a4.19,4.19,0,1,1,4.18-4.19A4.19,4.19,0,0,1,17.1,190.37Z"/></g><g class="cls-3"><path class="cls-1" d="M17.1,177.37a4.19,4.19,0,1,1,4.18-4.19A4.19,4.19,0,0,1,17.1,177.37Z"/></g><g class="cls-4"><path class="cls-1" d="M17.1,164.37a4.19,4.19,0,1,1,4.18-4.19A4.19,4.19,0,0,1,17.1,164.37Z"/></g><g class="cls-5"><path class="cls-1" d="M17.1,151.37a4.19,4.19,0,1,1,4.18-4.19A4.19,4.19,0,0,1,17.1,151.37Z"/></g><g class="cls-6"><path class="cls-1" d="M17.1,138.37a4.19,4.19,0,1,1,4.18-4.19A4.19,4.19,0,0,1,17.1,138.37Z"/></g><g class="cls-7"><path class="cls-1" d="M17.1,125.37a4.19,4.19,0,1,1,4.18-4.19A4.19,4.19,0,0,1,17.1,125.37Z"/></g><g class="cls-8"><path class="cls-1" d="M17.1,112.37a4.19,4.19,0,1,1,4.18-4.19A4.19,4.19,0,0,1,17.1,112.37Z"/></g><g class="cls-9"><path class="cls-1" d="M17.1,99.37a4.19,4.19,0,1,1,4.18-4.19A4.19,4.19,0,0,1,17.1,99.37Z"/></g><g class="cls-10"><path class="cls-1" d="M17.1,86.37a4.19,4.19,0,1,1,4.18-4.19A4.19,4.19,0,0,1,17.1,86.37Z"/></g><path class="cls-1" d="M81.68,203.37a4.19,4.19,0,1,1,4.19-4.19A4.18,4.18,0,0,1,81.68,203.37Z"/><g class="cls-2"><path class="cls-1" d="M81.68,190.37a4.19,4.19,0,1,1,4.19-4.19A4.18,4.18,0,0,1,81.68,190.37Z"/></g><g class="cls-3"><path class="cls-1" d="M81.68,177.37a4.19,4.19,0,1,1,4.19-4.19A4.18,4.18,0,0,1,81.68,177.37Z"/></g><g class="cls-4"><path class="cls-1" d="M81.68,164.37a4.19,4.19,0,1,1,4.19-4.19A4.18,4.18,0,0,1,81.68,164.37Z"/></g><g class="cls-5"><path class="cls-1" d="M81.68,151.37a4.19,4.19,0,1,1,4.19-4.19A4.18,4.18,0,0,1,81.68,151.37Z"/></g><g class="cls-6"><path class="cls-1" d="M81.68,138.37a4.19,4.19,0,1,1,4.19-4.19A4.18,4.18,0,0,1,81.68,138.37Z"/></g><g class="cls-7"><path class="cls-1" d="M81.68,125.37a4.19,4.19,0,1,1,4.19-4.19A4.18,4.18,0,0,1,81.68,125.37Z"/></g><g class="cls-8"><path class="cls-1" d="M81.68,112.37a4.19,4.19,0,1,1,4.19-4.19A4.18,4.18,0,0,1,81.68,112.37Z"/></g><g class="cls-9"><path class="cls-1" d="M81.68,99.37a4.19,4.19,0,1,1,4.19-4.19A4.18,4.18,0,0,1,81.68,99.37Z"/></g><g class="cls-10"><path class="cls-1" d="M81.68,86.37a4.19,4.19,0,1,1,4.19-4.19A4.18,4.18,0,0,1,81.68,86.37Z"/></g><circle class="cls-1" cx="17.1" cy="199.18" r="4.18" transform="translate(-0.3 0.03) rotate(-0.09)"/><circle class="cls-1" cx="30.02" cy="199.18" r="4.18"/><circle class="cls-1" cx="30.02" cy="186.18" r="4.18"/><path class="cls-1" d="M42.93,203.37a4.19,4.19,0,1,1,4.19-4.19A4.19,4.19,0,0,1,42.93,203.37Z"/><path class="cls-1" d="M42.93,190.37a4.19,4.19,0,1,1,4.19-4.19A4.19,4.19,0,0,1,42.93,190.37Z"/><circle class="cls-1" cx="55.85" cy="199.18" r="4.18"/><g class="cls-3"><circle class="cls-1" cx="55.85" cy="186.18" r="4.18"/></g><path class="cls-1" d="M68.77,203.37A4.19,4.19,0,1,1,73,199.18,4.2,4.2,0,0,1,68.77,203.37Z"/><path class="cls-1" d="M68.77,190.37A4.19,4.19,0,1,1,73,186.18,4.2,4.2,0,0,1,68.77,190.37Z"/><circle class="cls-1" cx="81.68" cy="199.18" r="4.18"/><circle class="cls-1" cx="4.18" cy="212.18" r="4.18"/><circle class="cls-1" cx="4.18" cy="199.18" r="4.18"/><path class="cls-1" d="M17.1,216.37a4.19,4.19,0,1,1,4.18-4.19A4.19,4.19,0,0,1,17.1,216.37Z"/><g class="cls-2"><path class="cls-1" d="M17.1,203.37a4.19,4.19,0,1,1,4.18-4.19A4.19,4.19,0,0,1,17.1,203.37Z"/></g><g class="cls-3"><path class="cls-1" d="M17.1,190.37a4.19,4.19,0,1,1,4.18-4.19A4.19,4.19,0,0,1,17.1,190.37Z"/></g><g class="cls-4"><path class="cls-1" d="M17.1,177.37a4.19,4.19,0,1,1,4.18-4.19A4.19,4.19,0,0,1,17.1,177.37Z"/></g><g class="cls-5"><path class="cls-1" d="M17.1,164.37a4.19,4.19,0,1,1,4.18-4.19A4.19,4.19,0,0,1,17.1,164.37Z"/></g><g class="cls-6"><path class="cls-1" d="M17.1,151.37a4.19,4.19,0,1,1,4.18-4.19A4.19,4.19,0,0,1,17.1,151.37Z"/></g><g class="cls-7"><path class="cls-1" d="M17.1,138.37a4.19,4.19,0,1,1,4.18-4.19A4.19,4.19,0,0,1,17.1,138.37Z"/></g><g class="cls-8"><path class="cls-1" d="M17.1,125.37a4.19,4.19,0,1,1,4.18-4.19A4.19,4.19,0,0,1,17.1,125.37Z"/></g><g class="cls-9"><path class="cls-1" d="M17.1,112.37a4.19,4.19,0,1,1,4.18-4.19A4.19,4.19,0,0,1,17.1,112.37Z"/></g><g class="cls-10"><path class="cls-1" d="M17.1,99.37a4.19,4.19,0,1,1,4.18-4.19A4.19,4.19,0,0,1,17.1,99.37Z"/></g><path class="cls-1" d="M81.68,216.37a4.19,4.19,0,1,1,4.19-4.19A4.18,4.18,0,0,1,81.68,216.37Z"/><g class="cls-2"><path class="cls-1" d="M81.68,203.37a4.19,4.19,0,1,1,4.19-4.19A4.18,4.18,0,0,1,81.68,203.37Z"/></g><g class="cls-3"><path class="cls-1" d="M81.68,190.37a4.19,4.19,0,1,1,4.19-4.19A4.18,4.18,0,0,1,81.68,190.37Z"/></g><g class="cls-4"><path class="cls-1" d="M81.68,177.37a4.19,4.19,0,1,1,4.19-4.19A4.18,4.18,0,0,1,81.68,177.37Z"/></g><g class="cls-5"><path class="cls-1" d="M81.68,164.37a4.19,4.19,0,1,1,4.19-4.19A4.18,4.18,0,0,1,81.68,164.37Z"/></g><g class="cls-6"><path class="cls-1" d="M81.68,151.37a4.19,4.19,0,1,1,4.19-4.19A4.18,4.18,0,0,1,81.68,151.37Z"/></g><g class="cls-7"><path class="cls-1" d="M81.68,138.37a4.19,4.19,0,1,1,4.19-4.19A4.18,4.18,0,0,1,81.68,138.37Z"/></g><g class="cls-8"><path class="cls-1" d="M81.68,125.37a4.19,4.19,0,1,1,4.19-4.19A4.18,4.18,0,0,1,81.68,125.37Z"/></g><g class="cls-9"><path class="cls-1" d="M81.68,112.37a4.19,4.19,0,1,1,4.19-4.19A4.18,4.18,0,0,1,81.68,112.37Z"/></g><g class="cls-10"><path class="cls-1" d="M81.68,99.37a4.19,4.19,0,1,1,4.19-4.19A4.18,4.18,0,0,1,81.68,99.37Z"/></g><circle class="cls-1" cx="17.1" cy="212.18" r="4.18" transform="translate(-0.32 0.03) rotate(-0.09)"/><circle class="cls-1" cx="30.02" cy="212.18" r="4.18"/><circle class="cls-1" cx="30.02" cy="199.18" r="4.18"/><path class="cls-1" d="M42.93,216.37a4.19,4.19,0,1,1,4.19-4.19A4.19,4.19,0,0,1,42.93,216.37Z"/><path class="cls-1" d="M42.93,203.37a4.19,4.19,0,1,1,4.19-4.19A4.19,4.19,0,0,1,42.93,203.37Z"/><circle class="cls-1" cx="55.85" cy="212.18" r="4.18"/><g class="cls-3"><circle class="cls-1" cx="55.85" cy="199.18" r="4.18"/></g><path class="cls-1" d="M68.77,216.37A4.19,4.19,0,1,1,73,212.18,4.2,4.2,0,0,1,68.77,216.37Z"/><path class="cls-1" d="M68.77,203.37A4.19,4.19,0,1,1,73,199.18,4.2,4.2,0,0,1,68.77,203.37Z"/><circle class="cls-1" cx="81.68" cy="212.18" r="4.18"/></g></g></svg>