<svg xmlns="http://www.w3.org/2000/svg" viewBox="0 0 1007.23 570.93"><defs><style>.cls-1{fill:#fff;}.cls-2{fill:#29abe2;}</style></defs><title>资源 2</title><g id="图层_2" data-name="图层 2"><g id="Layer_1" data-name="Layer 1"><circle class="cls-1" cx="160.85" cy="284" r="7.5"/><circle class="cls-1" cx="796.85" cy="284" r="7.5"/><circle class="cls-1" cx="800.85" cy="100" r="4.5"/><path class="cls-1" d="M820.57,264s-18-17.72-18.4-21a323.94,323.94,0,0,0-9.76-47.51c-1.13-4.27-2.56-8.45-3.85-12.6-.62-2.08-1.41-4.09-2.1-6.11s-1.38-4-2.11-5.93-1.49-3.82-2.22-5.68-1.41-3.68-2.18-5.41l-2.18-5.08c-.7-1.64-1.37-3.23-2.1-4.72l-3.85-8.17c-1.22-2.39-.4-14.61-.4-14.61l-3.92-7.08,12.64-7.28,4.1,7.41.91,1.64s.29.5.78,1.45l2.12,4.15c.9,1.79,2.05,3.94,3.26,6.46l4,8.5c1.41,3.13,2.84,6.57,4.41,10.19s3,7.53,4.54,11.53c.71,2,1.44,4.09,2.18,6.17s1.52,4.18,2.17,6.35c1.34,4.3,2.81,8.65,4,13.08a345.34,345.34,0,0,1,10.22,49.33c.82,6.82,1.48,12.51,1.74,16.51s.49,6.29.49,6.29,0,.47.06.94l0,.93s.06,1.3.16,3.23.23,4.52.3,7.1l.16,10.34h-4.56s-.08-5.1-.15-10.21c-.07-2.55-.23-5.09-.31-7Z"/><polygon class="cls-1" points="819.93 92.45 818.63 90.09 822.09 88.09 823.41 90.48 819.93 92.45"/><polygon class="cls-1" points="822.22 96.59 820.91 94.23 824.41 92.27 825.73 94.66 822.22 96.59"/><polygon class="cls-1" points="824.51 100.73 823.21 98.36 826.72 96.45 828.04 98.84 824.51 100.73"/><polygon class="cls-1" points="826.99 105.53 825.76 103.12 829.31 101.26 830.55 103.69 826.99 105.53"/><polygon class="cls-1" points="829.14 109.74 827.91 107.34 831.48 105.52 832.72 107.95 829.14 109.74"/><path class="cls-1" d="M831.26,114l-.58-1.22-.62-1.2,3.59-1.77.62,1.21c.29.62.59,1.24.59,1.24Z"/><polygon class="cls-1" points="833.27 118.26 832.12 115.81 835.73 114.08 836.88 116.55 833.27 118.26"/><polygon class="cls-1" points="835.56 123.15 834.41 120.7 838.04 119.02 839.21 121.5 835.56 123.15"/><polygon class="cls-1" points="837.47 127.47 836.41 124.99 840.06 123.36 841.13 125.87 837.47 127.47"/><polygon class="cls-1" points="839.34 131.82 838.27 129.34 841.94 127.75 843.02 130.26 839.34 131.82"/><polygon class="cls-1" points="841.2 136.17 840.14 133.68 843.83 132.14 844.9 134.65 841.2 136.17"/><polygon class="cls-1" points="843.17 141.2 842.19 138.68 845.9 137.19 846.89 139.73 843.17 141.2"/><polygon class="cls-1" points="844.89 145.61 843.91 143.09 847.64 141.64 848.63 144.19 844.89 145.61"/><path class="cls-1" d="M846.55,150l-.45-1.27c-.21-.64-.47-1.27-.47-1.27l3.75-1.4s.26.64.48,1.28.45,1.29.45,1.29Z"/><polygon class="cls-1" points="848.13 154.49 847.23 151.94 850.99 150.59 851.9 153.17 848.13 154.49"/><polygon class="cls-1" points="849.93 159.59 849.03 157.04 852.81 155.74 853.72 158.31 849.93 159.59"/><polygon class="cls-1" points="851.37 164.09 850.56 161.52 854.36 160.26 855.18 162.86 851.37 164.09"/><polygon class="cls-1" points="852.8 168.6 851.99 166.03 855.8 164.82 856.62 167.42 852.8 168.6"/><path class="cls-1" d="M854.2,173.12s-.17-.66-.38-1.3l-.41-1.28,3.83-1.17s.2.65.41,1.3S858,172,858,172Z"/><polygon class="cls-1" points="855.66 178.32 854.93 175.72 858.77 174.61 859.51 177.24 855.66 178.32"/><polygon class="cls-1" points="856.94 182.88 856.21 180.28 860.07 179.21 860.8 181.84 856.94 182.88"/><polygon class="cls-1" points="858.12 187.46 857.48 184.83 861.35 183.82 862 186.47 858.12 187.46"/><polygon class="cls-1" points="859.25 192.05 858.61 189.43 862.49 188.46 863.14 191.11 859.25 192.05"/><path class="cls-1" d="M860.53,197.3s-.14-.66-.31-1.31l-.32-1.32,3.89-.91s.17.66.33,1.33.31,1.33.31,1.33Z"/><polygon class="cls-1" points="861.51 201.93 860.95 199.28 864.86 198.42 865.42 201.09 861.51 201.93"/><polygon class="cls-1" points="862.49 206.56 861.93 203.91 865.84 203.09 866.41 205.76 862.49 206.56"/><path class="cls-1" d="M863.4,211.2s-.11-.67-.23-1.33-.26-1.33-.26-1.33l3.92-.77s.15.66.26,1.34l.24,1.34Z"/><polygon class="cls-1" points="864.35 216.52 863.88 213.86 867.81 213.14 868.29 215.83 864.35 216.52"/><polygon class="cls-1" points="865.18 221.18 864.71 218.51 868.65 217.84 869.13 220.53 865.18 221.18"/><polygon class="cls-1" points="865.87 225.85 865.49 223.18 869.44 222.56 869.83 225.26 865.87 225.85"/><polygon class="cls-1" points="866.55 230.53 866.16 227.86 870.12 227.28 870.51 229.99 866.55 230.53"/><path class="cls-1" d="M867.27,235.89s-.08-.67-.15-1.34-.18-1.34-.18-1.34l4-.52s.12.67.19,1.35.15,1.36.15,1.36Z"/><polygon class="cls-1" points="867.79 240.59 867.5 237.91 871.47 237.44 871.77 240.15 867.79 240.59"/><polygon class="cls-1" points="868.32 245.29 868.02 242.6 872 242.18 872.3 244.9 868.32 245.29"/><polygon class="cls-1" points="868.74 250 868.53 247.31 872.51 246.93 872.73 249.66 868.74 250"/><polygon class="cls-1" points="869.17 255.39 868.96 252.7 872.94 252.38 873.16 255.1 869.17 255.39"/><path class="cls-1" d="M869.52,260.11s0-.68-.08-1.35-.11-1.35-.11-1.35l4-.27s0,.68.11,1.36.08,1.36.08,1.36Z"/><polygon class="cls-1" points="869.74 264.83 869.61 262.13 873.61 261.91 873.73 264.64 869.74 264.83"/><polygon class="cls-1" points="869.96 269.56 869.83 266.86 873.83 266.68 873.96 269.41 869.96 269.56"/><polygon class="cls-1" points="870.11 274.96 870.07 272.26 874.07 272.14 874.11 274.87 870.11 274.96"/><polygon class="cls-1" points="870.18 279.69 870.14 276.99 874.14 276.92 874.18 279.64 870.18 279.69"/><polygon class="cls-1" points="870.25 284.42 870.21 281.72 874.21 281.69 874.25 284.42 870.25 284.42"/><polygon class="cls-1" points="854.16 79.75 849.77 71.83 854.98 68.83 859.42 76.87 854.16 79.75"/><polygon class="cls-1" points="866.97 105.15 863.67 98.12 869.07 95.5 872.41 102.63 866.97 105.15"/><polygon class="cls-1" points="874.25 121.72 870.68 113.4 876.18 111 879.8 119.44 874.25 121.72"/><polygon class="cls-1" points="879.45 134.97 876.16 126.54 881.73 124.32 885.07 132.87 879.45 134.97"/><path class="cls-1" d="M884.6,149.61s-.18-.53-.44-1.34l-1-2.94-1.5-4.27,5.65-2s.76,2.17,1.53,4.33c.38,1.09.76,2.17,1.05,3s.44,1.37.44,1.37Z"/><path class="cls-1" d="M888.84,163.19l-.38-1.36c-.26-.81-.6-1.89-.94-3l-1.36-4.31,5.71-1.82,1.39,4.38c.35,1.09.69,2.18,1,3l.39,1.38Z"/><path class="cls-1" d="M893.25,179.42s-.46-1.88-.93-3.77-1-3.74-1-3.74l5.79-1.57s.55,1.89,1,3.79l.94,3.82Z"/><path class="cls-1" d="M899.5,208.5s-.39-2.23-.79-4.46c-.19-1.12-.39-2.23-.58-3.06s-.29-1.38-.29-1.38l5.88-1.18s.12.56.29,1.4.4,2,.6,3.1l.8,4.52Z"/><polygon class="cls-1" points="904.02 240.51 903.01 231.51 908.96 230.78 909.99 239.9 904.02 240.51"/><polygon class="cls-1" points="905.23 254.69 904.51 245.66 910.49 245.13 911.21 254.28 905.23 254.69"/><polygon class="cls-1" points="906.03 270.19 905.6 261.14 911.59 260.83 912.02 270 906.03 270.19"/><path class="cls-1" d="M811.48,105.91l1.58-.75a4,4,0,0,0,1.67-5.36l-5.25-11.12a3.7,3.7,0,0,0-5.07-1.81l-1.58.74Z"/><path class="cls-1" d="M928.9,189.85s5.35-3.78,4.56-7.59-2.15-8.82-3.39-13.86c-.32-1.26-.6-2.53-.94-3.76s-.7-2.44-1-3.61c-.67-2.33-1.29-4.52-1.83-6.39-1.07-3.74-12.3-3-12.3-3s2.1,7.35,4.21,14.71c.56,1.83,1,3.7,1.4,5.44s.82,3.37,1.17,4.76c.68,2.79,1.14,4.64,1.14,4.64l.37,1.51c.23.9.51,2.11.75,3.33l1,4.86s.3,1.44.82,4,1.32,6.12,2,10.49c.37,2.18.76,4.54,1.18,7s.91,5.12,1.22,7.87.72,5.57,1.09,8.45.79,5.79,1,8.73.54,5.87.81,8.76c.13,1.44.26,2.88.39,4.29s.16,2.82.25,4.2c.15,2.76.29,5.43.43,8s.32,4.91.31,7.12c.16,8.84.26,14.74.26,14.74h5s-.1-6-.26-14.89c0-2.24-.19-4.65-.32-7.21s-.28-5.25-.43-8c-.09-1.4-.14-2.82-.25-4.25s-.27-2.88-.4-4.34c-.27-2.92-.54-5.89-.82-8.85s-.64-5.93-1-8.83-.74-5.78-1.1-8.55-.82-5.43-1.23-7.95-.82-4.92-1.19-7.12c-.68-4.42-1.5-8.05-2-10.61S928.9,189.85,928.9,189.85Z"/><circle class="cls-1" cx="800.85" cy="468" r="4.5"/><path class="cls-1" d="M820.57,304s-18,17.72-18.4,21a324.05,324.05,0,0,1-9.76,47.52c-1.13,4.27-2.56,8.45-3.85,12.6-.62,2.08-1.41,4.09-2.1,6.11s-1.38,4-2.11,5.93-1.49,3.82-2.22,5.68-1.41,3.68-2.18,5.41l-2.18,5.08c-.7,1.64-1.37,3.22-2.1,4.71l-3.85,8.18c-1.22,2.39-.4,14.6-.4,14.6l-3.92,7.09,12.64,7.28,4.1-7.41.91-1.64s.29-.5.78-1.45l2.12-4.15c.9-1.8,2.05-3.94,3.26-6.46l4-8.5c1.41-3.13,2.84-6.57,4.41-10.19s3-7.53,4.54-11.53q1.07-3,2.18-6.17c.72-2.09,1.52-4.19,2.17-6.35,1.34-4.31,2.81-8.65,4-13.08a345.34,345.34,0,0,0,10.22-49.33c.82-6.82,1.48-12.51,1.74-16.52s.49-6.28.49-6.28,0-.47.06-.94l0-.94s.06-1.29.16-3.22.23-4.52.3-7.11l.16-10.34h-4.56s-.08,5.1-.15,10.2c-.07,2.55-.23,5.1-.31,7Z"/><polygon class="cls-1" points="823.41 477.52 822.09 479.9 818.63 477.91 819.93 475.55 823.41 477.52"/><polygon class="cls-1" points="825.73 473.33 824.41 475.73 820.91 473.77 822.22 471.41 825.73 473.33"/><polygon class="cls-1" points="828.04 469.15 826.72 471.54 823.21 469.63 824.51 467.27 828.04 469.15"/><polygon class="cls-1" points="830.55 464.3 829.31 466.73 825.76 464.87 826.99 462.47 830.55 464.3"/><polygon class="cls-1" points="832.72 460.05 831.48 462.48 827.91 460.66 829.14 458.25 832.72 460.05"/><path class="cls-1" d="M834.86,455.77s-.3.62-.59,1.24l-.62,1.21-3.59-1.77.62-1.2.58-1.23Z"/><polygon class="cls-1" points="836.88 451.45 835.73 453.92 832.12 452.19 833.27 449.74 836.88 451.45"/><polygon class="cls-1" points="839.21 446.5 838.04 448.97 834.41 447.3 835.56 444.85 839.21 446.5"/><polygon class="cls-1" points="841.13 442.13 840.06 444.64 836.41 443.01 837.47 440.52 841.13 442.13"/><polygon class="cls-1" points="843.02 437.74 841.94 440.25 838.27 438.66 839.34 436.18 843.02 437.74"/><polygon class="cls-1" points="844.9 433.35 843.83 435.86 840.14 434.31 841.2 431.83 844.9 433.35"/><polygon class="cls-1" points="846.89 428.26 845.9 430.81 842.19 429.31 843.17 426.8 846.89 428.26"/><polygon class="cls-1" points="848.63 423.81 847.64 426.36 843.91 424.91 844.89 422.39 848.63 423.81"/><path class="cls-1" d="M850.31,419.34s-.23.64-.45,1.29-.48,1.27-.48,1.27l-3.75-1.4s.26-.62.47-1.26.45-1.28.45-1.28Z"/><polygon class="cls-1" points="851.9 414.83 850.99 417.41 847.23 416.05 848.13 413.5 851.9 414.83"/><polygon class="cls-1" points="853.72 409.68 852.81 412.26 849.03 410.95 849.93 408.41 853.72 409.68"/><polygon class="cls-1" points="855.18 405.13 854.36 407.74 850.56 406.48 851.37 403.9 855.18 405.13"/><polygon class="cls-1" points="856.62 400.58 855.8 403.18 851.99 401.97 852.8 399.39 856.62 400.58"/><path class="cls-1" d="M858,396s-.17.67-.39,1.31-.41,1.3-.41,1.3l-3.83-1.16s.21-.64.41-1.29.38-1.29.38-1.29Z"/><polygon class="cls-1" points="859.51 390.76 858.77 393.38 854.93 392.28 855.66 389.67 859.51 390.76"/><polygon class="cls-1" points="860.8 386.15 860.07 388.78 856.21 387.72 856.94 385.12 860.8 386.15"/><polygon class="cls-1" points="862 381.53 861.35 384.18 857.48 383.17 858.12 380.54 862 381.53"/><polygon class="cls-1" points="863.14 376.89 862.49 379.54 858.61 378.57 859.25 375.95 863.14 376.89"/><path class="cls-1" d="M864.43,371.58s-.14.67-.31,1.33-.33,1.33-.33,1.33l-3.89-.92.32-1.31c.17-.65.31-1.31.31-1.31Z"/><polygon class="cls-1" points="865.42 366.91 864.86 369.58 860.95 368.71 861.51 366.07 865.42 366.91"/><polygon class="cls-1" points="866.41 362.23 865.84 364.9 861.93 364.09 862.49 361.44 866.41 362.23"/><path class="cls-1" d="M867.33,357.55l-.24,1.34c-.11.67-.26,1.34-.26,1.34l-3.92-.77s.15-.66.26-1.33.23-1.33.23-1.33Z"/><polygon class="cls-1" points="868.29 352.17 867.81 354.86 863.88 354.14 864.35 351.48 868.29 352.17"/><polygon class="cls-1" points="869.13 347.47 868.65 350.15 864.71 349.48 865.18 346.82 869.13 347.47"/><polygon class="cls-1" points="869.83 342.74 869.44 345.44 865.49 344.82 865.87 342.14 869.83 342.74"/><polygon class="cls-1" points="870.51 338.01 870.12 340.71 866.16 340.14 866.55 337.46 870.51 338.01"/><path class="cls-1" d="M871.24,332.6s-.08.68-.15,1.36-.19,1.35-.19,1.35l-4-.52s.11-.67.18-1.34.15-1.34.15-1.34Z"/><polygon class="cls-1" points="871.77 327.85 871.47 330.56 867.5 330.09 867.79 327.41 871.77 327.85"/><polygon class="cls-1" points="872.3 323.1 872 325.81 868.02 325.39 868.32 322.71 872.3 323.1"/><polygon class="cls-1" points="872.73 318.34 872.51 321.06 868.53 320.69 868.74 318 872.73 318.34"/><polygon class="cls-1" points="873.16 312.9 872.94 315.62 868.96 315.3 869.17 312.61 873.16 312.9"/><path class="cls-1" d="M873.51,308.13s0,.69-.08,1.37-.11,1.36-.11,1.36l-4-.27s0-.68.11-1.35.08-1.35.08-1.35Z"/><polygon class="cls-1" points="873.73 303.36 873.61 306.09 869.61 305.87 869.74 303.17 873.73 303.36"/><polygon class="cls-1" points="873.96 298.59 873.83 301.31 869.83 301.14 869.96 298.44 873.96 298.59"/><polygon class="cls-1" points="874.11 293.13 874.07 295.86 870.07 295.74 870.11 293.04 874.11 293.13"/><polygon class="cls-1" points="874.18 288.35 874.14 291.08 870.14 291.01 870.18 288.31 874.18 288.35"/><polygon class="cls-1" points="874.25 283.57 874.21 286.31 870.21 286.28 870.25 283.58 874.25 283.57"/><polygon class="cls-1" points="859.42 491.13 854.98 499.17 849.77 496.17 854.16 488.25 859.42 491.13"/><polygon class="cls-1" points="872.41 465.37 869.07 472.49 863.67 469.88 866.97 462.85 872.41 465.37"/><polygon class="cls-1" points="879.8 448.56 876.18 457 870.68 454.59 874.25 446.27 879.8 448.56"/><polygon class="cls-1" points="885.07 435.12 881.73 443.68 876.16 441.46 879.45 433.03 885.07 435.12"/><path class="cls-1" d="M890.29,420.27s-.18.55-.44,1.37-.67,1.89-1.05,3l-1.53,4.33-5.65-2,1.5-4.26,1-2.94c.26-.81.44-1.35.44-1.35Z"/><path class="cls-1" d="M894.6,406.5s-.16.55-.39,1.38-.6,1.92-1,3l-1.39,4.38-5.71-1.82,1.36-4.32.94-3,.38-1.37Z"/><path class="cls-1" d="M902.63,374.71s-.47,2.25-1,4.5c-.22,1.12-.49,2.24-.7,3.07l-.35,1.4-5.84-1.38s.14-.55.34-1.38.48-1.92.7-3c.47-2.21.93-4.43.93-4.43Z"/><path class="cls-1" d="M905.41,360.56l-.8,4.52c-.2,1.13-.4,2.26-.6,3.1s-.29,1.4-.29,1.4l-5.88-1.18s.11-.55.29-1.39.39-1.94.58-3.05c.4-2.23.79-4.46.79-4.46Z"/><path class="cls-1" d="M907.72,346.32s-.28,1.94-.57,3.89c-.14,1-.28,2-.38,2.68s-.21,1.21-.21,1.21l-5.92-1s.09-.47.2-1.19.24-1.68.38-2.64l.56-3.84Z"/><polygon class="cls-1" points="909.99 328.1 908.96 337.22 903.01 336.49 904.02 327.49 909.99 328.1"/><polygon class="cls-1" points="912.02 298 911.59 307.17 905.6 306.85 906.03 297.81 912.02 298"/><polygon class="cls-1" points="912.25 283.57 912.12 292.75 906.12 292.63 906.25 283.58 912.25 283.57"/><path class="cls-1" d="M811.48,462.09l1.58.75a4,4,0,0,1,1.67,5.36l-5.25,11.12a3.7,3.7,0,0,1-5.07,1.81l-1.58-.74Z"/><path class="cls-1" d="M928.9,378.15s5.35,3.78,4.56,7.59-2.15,8.82-3.39,13.86c-.32,1.26-.6,2.53-.94,3.76s-.7,2.43-1,3.6c-.67,2.34-1.29,4.53-1.83,6.4-1.07,3.74-12.3,3-12.3,3s2.1-7.36,4.21-14.71c.56-1.83,1-3.7,1.4-5.44s.82-3.37,1.17-4.76c.68-2.79,1.14-4.65,1.14-4.65l.37-1.5c.23-.9.51-2.11.75-3.33l1-4.86s.3-1.44.82-4,1.32-6.12,2-10.49c.37-2.18.76-4.54,1.18-7s.91-5.12,1.22-7.87.72-5.57,1.09-8.45.79-5.79,1-8.73.54-5.87.81-8.76c.13-1.44.26-2.88.39-4.29s.16-2.82.25-4.2c.15-2.76.29-5.43.43-8s.32-4.91.31-7.13c.16-8.84.26-14.73.26-14.73h5s-.1,5.95-.26,14.89c0,2.24-.19,4.65-.32,7.21s-.28,5.25-.43,8c-.09,1.39-.14,2.81-.25,4.25s-.27,2.88-.4,4.34c-.27,2.92-.54,5.88-.82,8.85s-.64,5.92-1,8.83-.74,5.77-1.1,8.54-.82,5.44-1.23,8-.82,4.92-1.19,7.12c-.68,4.42-1.5,8.05-2,10.61S928.9,378.15,928.9,378.15Z"/><circle class="cls-1" cx="160.27" cy="100" r="4.5"/><path class="cls-1" d="M140.55,264s18-17.72,18.4-21a323.94,323.94,0,0,1,9.76-47.51c1.13-4.27,2.56-8.45,3.84-12.6.63-2.08,1.42-4.09,2.1-6.11s1.39-4,2.12-5.93,1.49-3.82,2.22-5.68,1.41-3.68,2.18-5.41l2.18-5.08c.7-1.64,1.37-3.23,2.1-4.72l3.85-8.17c1.22-2.39.4-14.61.4-14.61l3.92-7.08L181,112.83l-4.1,7.41-.91,1.64s-.3.5-.78,1.45l-2.12,4.15c-.9,1.79-2,3.94-3.26,6.46l-4,8.5c-1.41,3.13-2.84,6.57-4.41,10.19s-3,7.53-4.54,11.53c-.71,2-1.44,4.09-2.18,6.17s-1.52,4.18-2.17,6.35c-1.34,4.3-2.81,8.65-4,13.08a345.34,345.34,0,0,0-10.22,49.33c-.82,6.82-1.48,12.51-1.74,16.51s-.5,6.29-.5,6.29,0,.47-.05.94,0,.93,0,.93l-.15,3.23c-.08,1.94-.23,4.52-.31,7.1-.07,5.17-.15,10.34-.15,10.34h4.56s.07-5.1.15-10.21c.07-2.55.22-5.09.31-7S140.55,264,140.55,264Z"/><polygon class="cls-1" points="137.7 90.48 139.03 88.09 142.49 90.09 141.19 92.45 137.7 90.48"/><polygon class="cls-1" points="135.39 94.66 136.71 92.27 140.2 94.23 138.9 96.59 135.39 94.66"/><polygon class="cls-1" points="133.08 98.84 134.4 96.45 137.91 98.36 136.6 100.73 133.08 98.84"/><polygon class="cls-1" points="130.57 103.69 131.81 101.26 135.35 103.12 134.12 105.53 130.57 103.69"/><polygon class="cls-1" points="128.4 107.95 129.64 105.52 133.2 107.34 131.97 109.74 128.4 107.95"/><path class="cls-1" d="M126.26,112.23s.29-.62.59-1.24l.62-1.21,3.58,1.77-.61,1.2-.58,1.22Z"/><polygon class="cls-1" points="124.23 116.55 125.39 114.08 129 115.81 127.85 118.26 124.23 116.55"/><polygon class="cls-1" points="121.91 121.5 123.07 119.02 126.7 120.7 125.56 123.15 121.91 121.5"/><polygon class="cls-1" points="119.98 125.87 121.06 123.36 124.71 124.99 123.65 127.47 119.98 125.87"/><polygon class="cls-1" points="118.1 130.26 119.17 127.75 122.85 129.34 121.78 131.82 118.1 130.26"/><polygon class="cls-1" points="116.21 134.65 117.29 132.14 120.98 133.68 119.92 136.17 116.21 134.65"/><polygon class="cls-1" points="114.22 139.73 115.22 137.19 118.93 138.68 117.94 141.2 114.22 139.73"/><polygon class="cls-1" points="112.49 144.19 113.48 141.64 117.21 143.09 116.22 145.61 112.49 144.19"/><path class="cls-1" d="M110.81,148.66s.23-.64.45-1.29.48-1.28.48-1.28l3.75,1.4s-.26.63-.48,1.27-.45,1.27-.45,1.27Z"/><polygon class="cls-1" points="109.22 153.17 110.13 150.59 113.89 151.94 112.99 154.49 109.22 153.17"/><polygon class="cls-1" points="107.4 158.31 108.31 155.74 112.09 157.04 111.19 159.59 107.4 158.31"/><polygon class="cls-1" points="105.94 162.86 106.76 160.26 110.56 161.52 109.75 164.09 105.94 162.86"/><polygon class="cls-1" points="104.5 167.42 105.32 164.82 109.13 166.03 108.32 168.6 104.5 167.42"/><path class="cls-1" d="M103.08,172s.17-.66.39-1.31.41-1.3.41-1.3l3.83,1.17-.41,1.28c-.21.64-.38,1.3-.38,1.3Z"/><polygon class="cls-1" points="101.61 177.24 102.34 174.61 106.19 175.72 105.46 178.32 101.61 177.24"/><polygon class="cls-1" points="100.31 181.84 101.05 179.21 104.91 180.28 104.18 182.88 100.31 181.84"/><polygon class="cls-1" points="99.12 186.47 99.77 183.82 103.64 184.83 102.99 187.46 99.12 186.47"/><polygon class="cls-1" points="97.98 191.11 98.63 188.46 102.51 189.43 101.86 192.05 97.98 191.11"/><path class="cls-1" d="M96.69,196.42s.14-.67.31-1.33l.32-1.33,3.9.91L100.9,196c-.17.65-.31,1.31-.31,1.31Z"/><polygon class="cls-1" points="95.7 201.09 96.26 198.42 100.17 199.28 99.61 201.93 95.7 201.09"/><polygon class="cls-1" points="94.71 205.76 95.27 203.09 99.19 203.91 98.63 206.56 94.71 205.76"/><path class="cls-1" d="M93.78,210.45l.24-1.34c.11-.68.26-1.34.26-1.34l3.93.77s-.15.66-.26,1.33l-.24,1.33Z"/><polygon class="cls-1" points="92.83 215.83 93.31 213.14 97.24 213.86 96.77 216.52 92.83 215.83"/><polygon class="cls-1" points="91.99 220.53 92.47 217.84 96.41 218.51 95.94 221.18 91.99 220.53"/><polygon class="cls-1" points="91.29 225.26 91.68 222.56 95.63 223.18 95.25 225.85 91.29 225.26"/><polygon class="cls-1" points="90.61 229.99 91 227.28 94.95 227.86 94.57 230.53 90.61 229.99"/><path class="cls-1" d="M89.88,235.4,90,234c.07-.68.18-1.35.18-1.35l4,.52s-.11.67-.18,1.34-.15,1.34-.15,1.34Z"/><polygon class="cls-1" points="89.35 240.15 89.65 237.44 93.62 237.91 93.32 240.59 89.35 240.15"/><polygon class="cls-1" points="88.82 244.9 89.12 242.18 93.1 242.6 92.8 245.29 88.82 244.9"/><polygon class="cls-1" points="88.39 249.66 88.61 246.93 92.59 247.31 92.38 250 88.39 249.66"/><polygon class="cls-1" points="87.96 255.1 88.18 252.38 92.16 252.7 91.95 255.39 87.96 255.1"/><path class="cls-1" d="M87.61,259.86s0-.68.08-1.36.11-1.36.11-1.36l4,.27s-.06.68-.11,1.35-.08,1.35-.08,1.35Z"/><polygon class="cls-1" points="87.39 264.64 87.51 261.91 91.51 262.13 91.38 264.83 87.39 264.64"/><polygon class="cls-1" points="87.16 269.41 87.29 266.68 91.28 266.86 91.16 269.56 87.16 269.41"/><polygon class="cls-1" points="87 274.87 87.05 272.14 91.04 272.26 91 274.96 87 274.87"/><polygon class="cls-1" points="86.94 279.64 86.97 276.92 90.97 276.99 90.93 279.69 86.94 279.64"/><polygon class="cls-1" points="86.86 284.42 86.9 281.69 90.9 281.72 90.86 284.42 86.86 284.42"/><polygon class="cls-1" points="101.7 76.87 106.14 68.83 111.34 71.83 106.96 79.75 101.7 76.87"/><polygon class="cls-1" points="94.98 89.64 99.16 81.46 104.46 84.28 100.34 92.34 94.98 89.64"/><polygon class="cls-1" points="88.7 102.63 92.05 95.5 97.45 98.12 94.15 105.15 88.7 102.63"/><polygon class="cls-1" points="76.05 132.87 79.38 124.32 84.96 126.54 81.67 134.97 76.05 132.87"/><path class="cls-1" d="M66.52,161.5l.39-1.38c.26-.83.6-1.92,1-3l1.38-4.38L75,154.55l-1.36,4.31c-.35,1.08-.69,2.16-.94,3l-.38,1.36Z"/><path class="cls-1" d="M62.05,178l.94-3.82c.5-1.9,1.05-3.79,1.05-3.79l5.79,1.57s-.54,1.86-1,3.74l-.92,3.77Z"/><path class="cls-1" d="M55.71,207.44l.8-4.52c.2-1.13.4-2.26.59-3.1l.3-1.4,5.88,1.18s-.11.55-.29,1.38-.39,1.94-.58,3.06l-.8,4.46Z"/><path class="cls-1" d="M53.4,221.68l.57-3.89c.14-1,.28-1.95.38-2.68s.21-1.21.21-1.21l5.92,1s-.1.47-.2,1.19-.25,1.68-.38,2.64l-.56,3.84Z"/><polygon class="cls-1" points="51.13 239.9 52.15 230.78 58.11 231.51 57.1 240.51 51.13 239.9"/><polygon class="cls-1" points="49.9 254.28 50.63 245.13 56.61 245.66 55.89 254.69 49.9 254.28"/><polygon class="cls-1" points="49.09 270 49.52 260.83 55.52 261.14 55.09 270.19 49.09 270"/><polygon class="cls-1" points="48.86 284.43 49 275.24 55 275.36 54.86 284.42 48.86 284.43"/><path class="cls-1" d="M149.63,105.91l-1.57-.75a4,4,0,0,1-1.68-5.36l5.26-11.12a3.7,3.7,0,0,1,5.07-1.81l1.58.74Z"/><path class="cls-1" d="M32.21,189.85s-5.34-3.78-4.56-7.59c.93-3.78,2.16-8.82,3.4-13.86.31-1.26.6-2.53.94-3.76s.69-2.44,1-3.61c.67-2.33,1.29-4.52,1.83-6.39,1.07-3.74,12.3-3,12.3-3s-2.1,7.35-4.21,14.71c-.56,1.83-.95,3.7-1.4,5.44l-1.17,4.76c-.68,2.79-1.14,4.64-1.14,4.64l-.37,1.51c-.23.9-.52,2.11-.75,3.33l-1,4.86s-.3,1.44-.82,4S35,201,34.3,205.34c-.37,2.18-.77,4.54-1.19,7s-.9,5.12-1.21,7.87-.72,5.57-1.09,8.45-.79,5.79-1,8.73-.54,5.87-.81,8.76c-.13,1.44-.26,2.88-.39,4.29s-.16,2.82-.25,4.2c-.15,2.76-.29,5.43-.43,8s-.32,4.91-.31,7.12c-.16,8.84-.26,14.74-.26,14.74h-5s.1-6,.26-14.89c0-2.24.19-4.65.31-7.21s.29-5.25.44-8c.09-1.4.14-2.82.25-4.25s.27-2.88.4-4.34c.27-2.92.54-5.89.81-8.85s.65-5.93,1-8.83.75-5.78,1.11-8.55.81-5.43,1.23-7.95.82-4.92,1.19-7.12c.68-4.42,1.49-8.05,2-10.61Z"/><circle class="cls-1" cx="160.27" cy="468" r="4.5"/><path class="cls-1" d="M140.55,304s18,17.72,18.4,21a324.05,324.05,0,0,0,9.76,47.52c1.13,4.27,2.56,8.45,3.84,12.6.63,2.08,1.42,4.09,2.1,6.11s1.39,4,2.12,5.93,1.49,3.82,2.22,5.68,1.41,3.68,2.18,5.41l2.18,5.08c.7,1.64,1.37,3.22,2.1,4.71l3.85,8.18c1.22,2.39.4,14.6.4,14.6l3.92,7.09L181,455.17l-4.1-7.41-.91-1.64s-.3-.5-.78-1.45l-2.12-4.15c-.9-1.8-2-3.94-3.26-6.46l-4-8.5c-1.41-3.13-2.84-6.57-4.41-10.19s-3-7.53-4.54-11.53q-1.06-3-2.18-6.17c-.72-2.09-1.52-4.19-2.17-6.35-1.34-4.31-2.81-8.65-4-13.08a345.34,345.34,0,0,1-10.22-49.33c-.82-6.82-1.48-12.51-1.74-16.52s-.5-6.28-.5-6.28,0-.47-.05-.94,0-.94,0-.94l-.15-3.22c-.08-1.94-.23-4.52-.31-7.11-.07-5.17-.15-10.34-.15-10.34h4.56s.07,5.1.15,10.2c.07,2.55.22,5.1.31,7S140.55,304,140.55,304Z"/><polygon class="cls-1" points="141.19 475.55 142.49 477.91 139.03 479.9 137.7 477.52 141.19 475.55"/><polygon class="cls-1" points="138.9 471.41 140.2 473.77 136.71 475.73 135.39 473.33 138.9 471.41"/><polygon class="cls-1" points="136.6 467.27 137.91 469.63 134.4 471.54 133.08 469.15 136.6 467.27"/><polygon class="cls-1" points="134.12 462.47 135.35 464.87 131.81 466.73 130.57 464.3 134.12 462.47"/><polygon class="cls-1" points="131.97 458.25 133.2 460.66 129.64 462.48 128.4 460.05 131.97 458.25"/><path class="cls-1" d="M129.86,454l.58,1.23.61,1.2-3.58,1.77-.62-1.21c-.3-.62-.59-1.24-.59-1.24Z"/><polygon class="cls-1" points="127.85 449.74 129 452.19 125.39 453.92 124.23 451.45 127.85 449.74"/><polygon class="cls-1" points="125.56 444.85 126.7 447.3 123.07 448.97 121.91 446.5 125.56 444.85"/><polygon class="cls-1" points="123.65 440.52 124.71 443.01 121.06 444.64 119.98 442.13 123.65 440.52"/><polygon class="cls-1" points="121.78 436.18 122.85 438.66 119.17 440.25 118.1 437.74 121.78 436.18"/><polygon class="cls-1" points="119.92 431.83 120.98 434.31 117.29 435.86 116.21 433.35 119.92 431.83"/><polygon class="cls-1" points="117.94 426.8 118.93 429.31 115.22 430.81 114.22 428.26 117.94 426.8"/><polygon class="cls-1" points="116.22 422.39 117.21 424.91 113.48 426.36 112.49 423.81 116.22 422.39"/><path class="cls-1" d="M114.56,418s.23.64.45,1.28.48,1.26.48,1.26l-3.75,1.4s-.26-.63-.48-1.27-.45-1.29-.45-1.29Z"/><polygon class="cls-1" points="112.99 413.5 113.89 416.05 110.13 417.41 109.22 414.83 112.99 413.5"/><polygon class="cls-1" points="111.19 408.41 112.09 410.95 108.31 412.26 107.4 409.68 111.19 408.41"/><polygon class="cls-1" points="109.75 403.9 110.56 406.48 106.76 407.74 105.94 405.13 109.75 403.9"/><polygon class="cls-1" points="108.32 399.39 109.13 401.97 105.32 403.18 104.5 400.58 108.32 399.39"/><path class="cls-1" d="M106.92,394.88s.17.65.38,1.29.41,1.29.41,1.29l-3.83,1.16s-.21-.65-.41-1.3-.39-1.31-.39-1.31Z"/><polygon class="cls-1" points="105.46 389.67 106.19 392.28 102.34 393.38 101.61 390.76 105.46 389.67"/><polygon class="cls-1" points="104.18 385.12 104.91 387.72 101.05 388.78 100.31 386.15 104.18 385.12"/><polygon class="cls-1" points="102.99 380.54 103.64 383.17 99.77 384.18 99.12 381.53 102.99 380.54"/><polygon class="cls-1" points="101.86 375.95 102.51 378.57 98.63 379.54 97.98 376.89 101.86 375.95"/><path class="cls-1" d="M100.59,370.7s.14.66.31,1.31l.32,1.31-3.9.92L97,372.91c-.17-.66-.31-1.33-.31-1.33Z"/><polygon class="cls-1" points="99.61 366.07 100.17 368.71 96.26 369.58 95.7 366.91 99.61 366.07"/><polygon class="cls-1" points="98.63 361.44 99.19 364.09 95.27 364.9 94.71 362.23 98.63 361.44"/><path class="cls-1" d="M97.71,356.8l.24,1.33c.11.67.26,1.33.26,1.33l-3.93.77s-.15-.67-.26-1.34l-.24-1.34Z"/><polygon class="cls-1" points="96.77 351.48 97.24 354.14 93.31 354.86 92.83 352.17 96.77 351.48"/><polygon class="cls-1" points="95.94 346.82 96.41 349.48 92.47 350.15 91.99 347.47 95.94 346.82"/><polygon class="cls-1" points="95.25 342.14 95.63 344.82 91.68 345.44 91.29 342.74 95.25 342.14"/><polygon class="cls-1" points="94.57 337.46 94.95 340.14 91 340.71 90.61 338.01 94.57 337.46"/><path class="cls-1" d="M93.85,332.11s.07.67.15,1.34.18,1.34.18,1.34l-4,.52s-.11-.68-.18-1.35l-.15-1.36Z"/><polygon class="cls-1" points="93.32 327.41 93.62 330.09 89.65 330.56 89.35 327.85 93.32 327.41"/><polygon class="cls-1" points="92.8 322.71 93.1 325.39 89.12 325.81 88.82 323.1 92.8 322.71"/><polygon class="cls-1" points="92.38 318 92.59 320.69 88.61 321.06 88.39 318.34 92.38 318"/><polygon class="cls-1" points="91.95 312.61 92.16 315.3 88.18 315.62 87.96 312.9 91.95 312.61"/><path class="cls-1" d="M91.6,307.89s0,.68.08,1.35.11,1.35.11,1.35l-4,.27s-.06-.68-.11-1.36-.08-1.37-.08-1.37Z"/><polygon class="cls-1" points="91.38 303.17 91.51 305.87 87.51 306.09 87.39 303.36 91.38 303.17"/><polygon class="cls-1" points="91.16 298.44 91.28 301.14 87.29 301.31 87.16 298.59 91.16 298.44"/><polygon class="cls-1" points="91 293.04 91.04 295.74 87.05 295.86 87 293.13 91 293.04"/><polygon class="cls-1" points="90.93 288.31 90.97 291.01 86.97 291.08 86.94 288.35 90.93 288.31"/><polygon class="cls-1" points="90.86 283.58 90.9 286.28 86.9 286.31 86.86 283.57 90.86 283.58"/><polygon class="cls-1" points="100.34 475.66 104.46 483.72 99.16 486.54 94.98 478.36 100.34 475.66"/><polygon class="cls-1" points="94.15 462.85 97.45 469.88 92.05 472.49 88.7 465.37 94.15 462.85"/><polygon class="cls-1" points="86.86 446.27 90.43 454.59 84.94 457 81.31 448.56 86.86 446.27"/><polygon class="cls-1" points="81.67 433.03 84.96 441.46 79.38 443.68 76.05 435.12 81.67 433.03"/><path class="cls-1" d="M76.52,418.38s.18.54.44,1.35.66,1.87,1,2.94c.76,2.13,1.51,4.26,1.51,4.26l-5.65,2s-.77-2.16-1.53-4.33c-.38-1.08-.76-2.16-1-3s-.44-1.37-.44-1.37Z"/><path class="cls-1" d="M67.87,388.58l.92,3.77c.5,1.87,1,3.74,1,3.74L64,397.66s-.55-1.89-1.05-3.79l-.94-3.82Z"/><path class="cls-1" d="M64.35,373.46l.94,4.43c.22,1.11.49,2.21.7,3l.33,1.38-5.84,1.38s-.13-.56-.34-1.4-.48-1.95-.7-3.07l-.95-4.5Z"/><path class="cls-1" d="M61.61,359.5l.8,4.46c.19,1.11.39,2.23.58,3.05s.29,1.39.29,1.39l-5.88,1.18-.3-1.4c-.19-.84-.39-2-.59-3.1l-.8-4.52Z"/><path class="cls-1" d="M59.34,345.46l.56,3.84c.13,1,.27,1.92.38,2.64s.2,1.19.2,1.19l-5.92,1s-.1-.48-.21-1.21-.24-1.71-.38-2.68l-.57-3.89Z"/><polygon class="cls-1" points="57.1 327.49 58.11 336.49 52.15 337.22 51.13 328.1 57.1 327.49"/><polygon class="cls-1" points="55.89 313.31 56.61 322.34 50.63 322.87 49.9 313.72 55.89 313.31"/><polygon class="cls-1" points="55.09 297.81 55.52 306.85 49.52 307.17 49.09 298 55.09 297.81"/><path class="cls-1" d="M149.63,462.09l-1.57.75a4,4,0,0,0-1.68,5.36l5.26,11.12a3.7,3.7,0,0,0,5.07,1.81l1.58-.74Z"/><path class="cls-1" d="M32.21,378.15s-5.34,3.78-4.56,7.59c.93,3.78,2.16,8.82,3.4,13.86.31,1.26.6,2.53.94,3.76s.69,2.43,1,3.6c.67,2.34,1.29,4.53,1.83,6.4,1.07,3.74,12.3,3,12.3,3s-2.1-7.36-4.21-14.71c-.56-1.83-.95-3.7-1.4-5.44l-1.17-4.76c-.68-2.79-1.14-4.65-1.14-4.65l-.37-1.5c-.23-.9-.52-2.11-.75-3.33l-1-4.86s-.3-1.44-.82-4S35,367,34.3,362.66c-.37-2.18-.77-4.54-1.19-7s-.9-5.12-1.21-7.87-.72-5.57-1.09-8.45-.79-5.79-1-8.73-.54-5.87-.81-8.76c-.13-1.44-.26-2.88-.39-4.29s-.16-2.82-.25-4.2c-.15-2.76-.29-5.43-.43-8s-.32-4.91-.31-7.13c-.16-8.84-.26-14.73-.26-14.73h-5s.1,5.95.26,14.89c0,2.24.19,4.65.31,7.21s.29,5.25.44,8c.09,1.39.14,2.81.25,4.25s.27,2.88.4,4.34c.27,2.92.54,5.88.81,8.85s.65,5.92,1,8.83.75,5.77,1.11,8.54.81,5.44,1.23,8,.82,4.92,1.19,7.12c.68,4.42,1.49,8.05,2,10.61Z"/><circle class="cls-1" cx="608.85" cy="58" r="4"/><rect class="cls-1" x="481.55" y="57.44" width="3" height="2"/><rect class="cls-1" x="486.27" y="57" width="2" height="2"/><rect class="cls-1" x="491.27" y="57" width="2" height="2"/><rect class="cls-1" x="495.55" y="57.44" width="3" height="2"/><rect class="cls-1" x="501.27" y="57" width="2" height="2"/><rect class="cls-1" x="505.55" y="57.44" width="3" height="2"/><rect class="cls-1" x="510.55" y="57.44" width="3" height="2"/><rect class="cls-1" x="515.55" y="57.44" width="3" height="2"/><rect class="cls-1" x="520.55" y="57.44" width="3" height="2"/><rect class="cls-1" x="525.55" y="57.44" width="3" height="2"/><rect class="cls-1" x="530.55" y="57.44" width="3" height="2"/><rect class="cls-1" x="535.27" y="57" width="2" height="2"/><rect class="cls-1" x="540.55" y="57.44" width="3" height="2"/><rect class="cls-1" x="545.55" y="57.44" width="3" height="2"/><rect class="cls-1" x="550.27" y="57" width="2" height="2"/><rect class="cls-1" x="554.55" y="57.44" width="3" height="2"/><rect class="cls-1" x="560.55" y="57.44" width="3" height="2"/><rect class="cls-1" x="565.27" y="57" width="2" height="2"/><rect class="cls-1" x="569.55" y="57.44" width="3" height="2"/><rect class="cls-1" x="574.55" y="57.44" width="3" height="2"/><rect class="cls-1" x="580.27" y="57" width="2" height="2"/><rect class="cls-1" x="584.55" y="57.44" width="3" height="2"/><rect class="cls-1" x="589.55" y="57.44" width="3" height="2"/><rect class="cls-1" x="481.55" y="40.44" width="368" height="1"/><polygon class="cls-1" points="592.27 30.44 601.27 27.44 632.27 27.44 640.27 32.44 603.92 32.44 592.24 32.44 481.55 32.44 481.55 30.44 592.27 30.44"/><circle class="cls-1" cx="353.69" cy="58" r="4"/><rect class="cls-1" x="478.55" y="57.44" width="3" height="2"/><rect class="cls-1" x="474.27" y="57" width="2" height="2"/><rect class="cls-1" x="469.27" y="57" width="2" height="2"/><rect class="cls-1" x="464.55" y="57.44" width="3" height="2"/><rect class="cls-1" x="459.27" y="57" width="2" height="2"/><rect class="cls-1" x="454.55" y="57.44" width="3" height="2"/><rect class="cls-1" x="449.55" y="57.44" width="3" height="2"/><rect class="cls-1" x="444.55" y="57.44" width="3" height="2"/><rect class="cls-1" x="439.55" y="57.44" width="3" height="2"/><rect class="cls-1" x="434.55" y="57.44" width="3" height="2"/><rect class="cls-1" x="429.55" y="57.44" width="3" height="2"/><rect class="cls-1" x="425.27" y="57" width="2" height="2"/><rect class="cls-1" x="419.55" y="57.44" width="3" height="2"/><rect class="cls-1" x="414.55" y="57.44" width="3" height="2"/><rect class="cls-1" x="410.27" y="57" width="2" height="2"/><rect class="cls-1" x="405.55" y="57.44" width="3" height="2"/><rect class="cls-1" x="399.55" y="57.44" width="3" height="2"/><rect class="cls-1" x="395.27" y="57" width="2" height="2"/><rect class="cls-1" x="390.55" y="57.44" width="3" height="2"/><rect class="cls-1" x="385.55" y="57.44" width="3" height="2"/><rect class="cls-1" x="380.27" y="57" width="2" height="2"/><rect class="cls-1" x="375.55" y="57.44" width="3" height="2"/><rect class="cls-1" x="370.55" y="57.44" width="3" height="2"/><rect class="cls-1" x="113.55" y="40.44" width="368" height="1"/><polygon class="cls-1" points="370.27 30.44 361.27 27.44 330.27 27.44 322.27 32.44 358.62 32.44 370.3 32.44 481.55 32.44 481.55 30.44 370.27 30.44"/><circle class="cls-1" cx="258.85" cy="512" r="4"/><rect class="cls-1" x="131.55" y="511.44" width="3" height="2"/><rect class="cls-1" x="136.27" y="511" width="2" height="2"/><rect class="cls-1" x="141.27" y="511" width="2" height="2"/><rect class="cls-1" x="145.55" y="511.44" width="3" height="2"/><rect class="cls-1" x="151.27" y="511" width="2" height="2"/><rect class="cls-1" x="155.55" y="511.44" width="3" height="2"/><rect class="cls-1" x="160.55" y="511.44" width="3" height="2"/><rect class="cls-1" x="165.55" y="511.44" width="3" height="2"/><rect class="cls-1" x="170.55" y="511.44" width="3" height="2"/><rect class="cls-1" x="175.55" y="511.44" width="3" height="2"/><rect class="cls-1" x="180.55" y="511.44" width="3" height="2"/><rect class="cls-1" x="185.27" y="511" width="2" height="2"/><rect class="cls-1" x="190.55" y="511.44" width="3" height="2"/><rect class="cls-1" x="195.55" y="511.44" width="3" height="2"/><rect class="cls-1" x="200.27" y="511" width="2" height="2"/><rect class="cls-1" x="204.55" y="511.44" width="3" height="2"/><rect class="cls-1" x="210.55" y="511.44" width="3" height="2"/><rect class="cls-1" x="215.27" y="511" width="2" height="2"/><rect class="cls-1" x="219.55" y="511.44" width="3" height="2"/><rect class="cls-1" x="224.55" y="511.44" width="3" height="2"/><rect class="cls-1" x="230.27" y="511" width="2" height="2"/><rect class="cls-1" x="234.55" y="511.44" width="3" height="2"/><rect class="cls-1" x="239.55" y="511.44" width="3" height="2"/><rect class="cls-1" x="131.55" y="529.44" width="351" height="1"/><polygon class="cls-1" points="242.27 540.44 251.27 543.44 282.27 543.44 290.27 538.44 253.92 538.44 242.24 538.44 131.55 538.44 131.55 540.44 242.27 540.44"/><rect class="cls-1" x="115.55" y="567.44" width="17" height="1"/><rect class="cls-1" x="830.55" y="4.44" width="1" height="36"/><path class="cls-1" d="M835,40.17a3.76,3.76,0,1,1-3.76-3.76A3.76,3.76,0,0,1,835,40.17Z"/><circle class="cls-1" cx="831.27" cy="3.76" r="3.76"/><rect class="cls-1" x="845.55" y="4.44" width="1" height="36"/><path class="cls-1" d="M850,40.17a3.76,3.76,0,1,1-3.76-3.76A3.76,3.76,0,0,1,850,40.17Z"/><circle class="cls-1" cx="846.27" cy="3.76" r="3.76"/><rect class="cls-1" x="116.55" y="531.44" width="1" height="36"/><path class="cls-1" d="M121,567.17a3.76,3.76,0,1,1-3.76-3.76A3.76,3.76,0,0,1,121,567.17Z"/><circle class="cls-1" cx="117.27" cy="530.76" r="3.76"/><rect class="cls-1" x="131.55" y="531.44" width="1" height="36"/><path class="cls-1" d="M136,567.17a3.76,3.76,0,1,1-3.76-3.76A3.76,3.76,0,0,1,136,567.17Z"/><circle class="cls-1" cx="132.27" cy="530.76" r="3.76"/><path class="cls-1" d="M747.55,120.44h11v18h-11Zm8,3h-5v13h5Z"/><path class="cls-1" d="M734.55,120.44h8v18h-8Zm6,3h-3v13h3Z"/><path class="cls-1" d="M712.55,120.44h19v18h-19Zm17,3h-14v13h14Z"/><path class="cls-1" d="M701.55,120.44h8v18h-8Zm5,3h-3v13h3Z"/><path class="cls-1" d="M688.55,123.44h10v15h-10Zm7,3h-4v10h4Z"/><path class="cls-1" d="M675.55,129.44h10v9h-10Zm8,2h-6v5h6Z"/><path class="cls-1" d="M661.55,126.44h11v12h-11Zm8,3h-5v7h5Z"/><path class="cls-1" d="M646.55,126.44h12v12h-12Zm9,3h-6v7h6Z"/><path class="cls-1" d="M626.55,126.44h18v12h-18Zm14,3h-12v7h12Z"/><polygon class="cls-1" points="223.23 195.18 221.78 196.84 226.13 200.53 227.53 198.94 223.23 195.18"/><polygon class="cls-1" points="214.41 196.63 213.05 198.5 222.1 205.46 223.34 203.74 214.41 196.63"/><polygon class="cls-1" points="214.98 205.56 213.68 207.35 223.05 213.88 224.25 212.23 214.98 205.56"/><polygon class="cls-1" points="213.51 212.52 212.41 214.39 226.92 223.5 227.87 221.86 213.51 212.52"/><polygon class="cls-1" points="207.75 216.69 206.62 218.59 214.09 222.79 215.14 221.01 207.75 216.69"/><polygon class="cls-1" points="199.36 219.78 198.38 221.87 208.59 227 209.48 225.07 199.36 219.78"/><polygon class="cls-1" points="178.29 217.64 177.18 220.02 203.28 231.6 204.2 229.64 178.29 217.64"/><polygon class="cls-1" points="188.27 230.18 187.46 232.44 200.77 237.59 201.49 235.55 188.27 230.18"/><polygon class="cls-1" points="193.92 239.79 193.17 241.91 201.29 244.62 202 242.62 193.92 239.79"/><polygon class="cls-1" points="194.44 247 193.91 249.15 204.9 252.24 205.39 250.27 194.44 247"/><polygon class="cls-1" points="192.83 253.44 192.29 255.59 203.42 258.15 203.92 256.18 192.83 253.44"/><polygon class="cls-1" points="194.05 260.44 193.74 262.59 210.6 265.63 210.86 263.75 194.05 260.44"/><polygon class="cls-1" points="190.28 266.46 189.95 268.65 215.42 272 215.7 270.21 190.28 266.46"/><polygon class="cls-1" points="189.3 273.03 189.19 275.24 200.57 276.19 200.66 274.15 189.3 273.03"/><polygon class="cls-1" points="183.27 279.37 183.16 281.67 203.13 282.39 203.23 280.4 183.27 279.37"/><path class="cls-1" d="M188.65,286.29c-.07,0,0,2.21,0,2.21l14.27-.15a18.89,18.89,0,0,1-.05-2Z"/><polygon class="cls-1" points="191.8 292.8 191.92 294.97 211.87 293.81 211.76 291.96 191.8 292.8"/><polygon class="cls-1" points="192.16 299.3 192.28 301.47 209.31 299.67 209.22 297.77 192.16 299.3"/><polygon class="cls-1" points="181.59 307.31 181.97 309.63 201.72 306.58 201.38 304.58 181.59 307.31"/><polygon class="cls-1" points="182.76 314.26 183.15 316.58 199.94 313.16 199.6 311.11 182.76 314.26"/><polygon class="cls-1" points="178.53 322.49 179.19 324.84 195.79 320.63 195.2 318.55 178.53 322.49"/><polygon class="cls-1" points="177.78 330.33 178.47 332.72 197.58 326.88 196.99 324.8 177.78 330.33"/><path class="cls-1" d="M190.66,333.81c-.06,0,.8,2.16.8,2.16l10.75-3.85s-.8-2-.74-2Z"/><polygon class="cls-1" points="198.5 338.14 199.34 340.2 204.62 338.01 203.81 336.05 198.5 338.14"/><polygon class="cls-1" points="201.02 344.29 201.85 346.34 214.77 340.26 214.03 338.42 201.02 344.29"/><polygon class="cls-1" points="203.93 350.25 204.98 352.19 217.59 345.5 216.65 343.76 203.93 350.25"/><polygon class="cls-1" points="207.09 356.09 208.15 358.04 217.97 352.21 217 350.42 207.09 356.09"/><polygon class="cls-1" points="210.48 361.79 211.73 363.62 218.88 358.9 217.7 357.19 210.48 361.79"/><polygon class="cls-1" points="209.58 370.56 210.88 372.45 220.11 365.72 218.9 363.97 209.58 370.56"/><polygon class="cls-1" points="209.07 379.7 210.63 381.52 221.74 372.57 220.33 370.92 209.07 379.7"/><polygon class="cls-1" points="213.74 385.16 215.3 386.97 225.98 377.5 224.56 375.86 213.74 385.16"/><path class="cls-1" d="M226.72,382.76s1.56,1.57,1.56,1.57l4.09-4s-1.54-1.46-1.5-1.5Z"/><polygon class="cls-1" points="231.5 387.36 233.11 388.88 240.9 380.53 239.42 379.14 231.5 387.36"/><polygon class="cls-1" points="236.33 391.92 237.94 393.44 243.48 386.91 241.97 385.48 236.33 391.92"/><polygon class="cls-1" points="231.72 194.14 231.03 194.94 226.88 191.02 227.61 190.18 231.72 194.14"/><path class="cls-1" d="M241.2,367.38a11.92,11.92,0,0,1-1.09-1.69l-2.44-4.48c-.57-1.12-1.23-2.31-1.93-3.57a70.64,70.64,0,0,1-5-10.35c-.59-1.51-1.22-3-1.84-4.51a66.66,66.66,0,0,1-3.61-10L223.37,326l.92-.26,1.93,6.77a66.84,66.84,0,0,0,3.57,9.89c.62,1.49,1.26,3,1.85,4.55a70.86,70.86,0,0,0,4.93,10.22c.71,1.27,1.38,2.47,1.94,3.58l2.43,4.48a12.44,12.44,0,0,0,1,1.55Z"/><path class="cls-1" d="M252.66,338l-1.58-3.89c-.18-.45-.38-.92-.59-1.41a46.64,46.64,0,0,1-2.56-7.36l-2.55-8.87a11.79,11.79,0,0,1-.5-2.29c0-.27-.08-.51-.12-.73l-.2-1.16.94-.15.19,1.14c.05.21.09.47.13.77a11.29,11.29,0,0,0,.47,2.14l2.56,8.91a45.69,45.69,0,0,0,2.52,7.23c.21.5.41,1,.59,1.42l1.58,3.9Z"/><path class="cls-1" d="M262.85,377.52l-2.11-2.47c-.23-.28-.49-.56-.75-.87-.51-.59-1.09-1.25-1.66-2l-6.39-9.28a38.12,38.12,0,0,1-3-4.91c-.71-1.37-1.48-2.77-2.26-4.19-1.44-2.61-2.93-5.31-4.21-8.1l-5.24-12.89-3.35-11.7a37.06,37.06,0,0,1-1.4-6.35c-.12-.77-.23-1.45-.36-2.06l-.54-3.22.94-.16.54,3.21c.13.59.23,1.3.36,2.08a36.06,36.06,0,0,0,1.37,6.22l3.34,11.67,5.21,12.82c1.26,2.74,2.74,5.43,4.17,8,.79,1.43,1.56,2.83,2.28,4.22a35.9,35.9,0,0,0,3,4.79l6.39,9.28c.53.72,1.09,1.36,1.59,1.93.28.31.54.61.77.89l2.11,2.47Z"/><path class="cls-1" d="M240.18,314.93l-1.62-9.58a48.87,48.87,0,0,1-.84-8.13l-.57-10.34.15-3c.09-1.44.15-2.88.21-4.31.11-2.48.2-4.83.47-7.13l1.47-9.87a35,35,0,0,1,1.07-5c.19-.71.37-1.36.48-1.92l.65-2.62.93.23-.65,2.6c-.11.56-.29,1.22-.49,2a33.27,33.27,0,0,0-1.05,4.85l-1.47,9.87c-.26,2.24-.35,4.58-.46,7.05-.06,1.43-.12,2.87-.21,4.31l-.15,2.91.57,10.29a49.14,49.14,0,0,0,.82,8l1.63,9.62Z"/><path class="cls-1" d="M233.8,339.65l-2.06-5.22-.83-2.84c-.37-1.41-.82-2.94-1.3-4.56a81.36,81.36,0,0,1-3.2-13.69l-1.66-9.85-.84-14.92a4.4,4.4,0,0,1,0-1.26l.47,1.13h0l.35-1.45.13-.18a11.77,11.77,0,0,0,.05,2l.83,14.75,1.66,9.75a80.87,80.87,0,0,0,3.17,13.51c.48,1.63.94,3.15,1.3,4.57l1,3.32,1.88,4.62Z"/><path class="cls-1" d="M284.1,388.34,274,378.78l-5.3-6.17a82.62,82.62,0,0,1-8-10.44l-1.15-1.67-2.83-4.11-.94-1.7.84-.46.91,1.67,2.81,4.05,1.14,1.68a82.63,82.63,0,0,0,7.9,10.34l5.29,6.15,10.1,9.53Z"/><path class="cls-1" d="M220.27,311.29l-1-6c-.33-2.6-.5-6-.7-9.84-.09-1.9-.2-3.93-.33-6.07A158.09,158.09,0,0,1,225,241.69c5.79-19.53,16-35.38,21.6-43.1.67-.91,1.31-1.8,1.93-2.66,1.18-1.66,2.3-3.22,3.45-4.57l8.55-9.74.71.63L252.73,192c-1.12,1.31-2.23,2.86-3.4,4.5-.62.87-1.26,1.77-1.94,2.67-5.53,7.67-15.7,23.42-21.45,42.82a157.17,157.17,0,0,0-6.75,47.43c.13,2.12.24,4.15.33,6.05.2,3.87.37,7.21.69,9.75l1,5.93Z"/><polygon class="cls-1" points="724.4 195.18 725.86 196.84 730.22 193.15 728.7 191.42 724.4 195.18"/><polygon class="cls-1" points="724.29 203.74 725.54 205.46 734.59 198.5 733.23 196.63 724.29 203.74"/><polygon class="cls-1" points="732.66 205.56 733.95 207.35 743.33 200.83 741.92 198.89 732.66 205.56"/><polygon class="cls-1" points="738.91 209.41 740.06 211.35 754.56 202.24 753.27 200.06 738.91 209.41"/><polygon class="cls-1" points="739.89 216.69 741.01 218.59 748.47 214.38 747.28 212.36 739.89 216.69"/><polygon class="cls-1" points="738.15 225.07 739.05 227 749.25 221.87 748.27 219.78 738.15 225.07"/><polygon class="cls-1" points="722.71 239.24 723.48 240.87 749.58 229.28 748.62 227.24 722.71 239.24"/><polygon class="cls-1" points="738.21 238.78 738.89 240.69 752.2 235.53 751.44 233.4 738.21 238.78"/><polygon class="cls-1" points="748.33 241.68 749.05 243.72 757.18 241.01 756.41 238.84 748.33 241.68"/><polygon class="cls-1" points="753.2 247 753.73 249.15 764.73 246.06 764.14 243.74 753.2 247"/><polygon class="cls-1" points="754.81 253.44 755.35 255.59 766.48 253.03 765.9 250.71 754.81 253.44"/><polygon class="cls-1" points="759.19 259.34 759.52 261.58 776.38 258.54 775.99 256.04 759.19 259.34"/><polygon class="cls-1" points="757.36 266.46 757.69 268.65 783.16 265.31 782.78 262.71 757.36 266.46"/><polygon class="cls-1" points="758.34 273.03 758.45 275.24 769.83 274.29 769.7 271.91 758.34 273.03"/><polygon class="cls-1" points="752.96 279.96 753.07 282.08 773.04 281.36 772.92 278.92 752.96 279.96"/><path class="cls-1" d="M759,286.29c.07,0,0,2.21,0,2.21l14.27.16s.12-2.43.06-2.43Z"/><polygon class="cls-1" points="761.54 293.05 761.42 295.3 781.37 296.46 781.51 293.89 761.54 293.05"/><polygon class="cls-1" points="761.16 299.81 761.04 302.06 778.07 303.86 778.23 301.34 761.16 299.81"/><polygon class="cls-1" points="749.08 304.97 748.73 307.02 768.49 310.06 768.88 307.7 749.08 304.97"/><polygon class="cls-1" points="748.04 311.11 747.7 313.16 764.48 316.58 764.88 314.26 748.04 311.11"/><polygon class="cls-1" points="741.33 315.92 740.77 317.82 757.38 322.03 758 319.86 741.33 315.92"/><polygon class="cls-1" points="736.93 320.85 736.4 322.72 755.52 328.55 756.14 326.38 736.93 320.85"/><path class="cls-1" d="M746.16,330.13a19.71,19.71,0,0,1-.73,2L756.18,336s.86-2.13.79-2.16Z"/><polygon class="cls-1" points="749.13 338.14 748.29 340.2 753.57 342.38 754.44 340.24 749.13 338.14"/><polygon class="cls-1" points="746.62 344.29 745.78 346.34 758.7 352.42 759.63 350.17 746.62 344.29"/><polygon class="cls-1" points="743.71 350.25 742.65 352.19 755.26 358.89 756.42 356.74 743.71 350.25"/><polygon class="cls-1" points="740.55 356.09 739.49 358.04 749.31 363.86 750.46 361.76 740.55 356.09"/><polygon class="cls-1" points="737.16 361.79 735.91 363.62 743.06 368.33 744.38 366.39 737.16 361.79"/><polygon class="cls-1" points="728.73 363.97 727.53 365.72 736.75 372.45 738.06 370.56 728.73 363.97"/><polygon class="cls-1" points="720.55 365.66 719.22 367.19 730.34 376.14 731.81 374.43 720.55 365.66"/><polygon class="cls-1" points="716.57 370.28 715.25 371.82 725.93 381.29 727.4 379.58 716.57 370.28"/><path class="cls-1" d="M720.92,382.76s-1.57,1.57-1.56,1.57l4.09,4s1.66-1.59,1.62-1.63Z"/><polygon class="cls-1" points="716.14 387.36 714.52 388.88 722.32 397.23 724.06 395.59 716.14 387.36"/><polygon class="cls-1" points="711.31 391.92 709.7 393.44 715.24 399.97 716.95 398.37 711.31 391.92"/><polygon class="cls-1" points="724.14 186.22 724.9 187.09 720.75 191.02 720.02 190.18 724.14 186.22"/><path class="cls-1" d="M684.55,242.39v.48l.32.31a3.7,3.7,0,0,1,1.15,1.28l2.2,3.79c.5,1,1.19,2.09,1.84,3.24a52.25,52.25,0,0,1,4.06,8.35c.55,1.45,1.17,2.87,1.75,4.25a47.2,47.2,0,0,1,2.84,7.88l1.64,5.74.92-.27-1.63-5.69a46.9,46.9,0,0,0-2.87-8c-.58-1.37-1.17-2.78-1.72-4.21A52.16,52.16,0,0,0,691,251c-.64-1.15-1.24-2.23-1.73-3.22l-2.72-3.8C685.64,242.39,684.55,242.39,684.55,242.39Z"/><path class="cls-1" d="M716.78,249.81l-.88.36,1.89,4.62c.2.48.41,1,.62,1.52a60.81,60.81,0,0,1,3.07,8.75l3,10.59a15.55,15.55,0,0,1,.58,2.59c0,.34.1.65.16.92l.23,1.33.94-.16-.24-1.35c0-.27-.1-.57-.15-.89a16.79,16.79,0,0,0-.61-2.72l-3-10.55a61.63,61.63,0,0,0-3.11-8.87c-.21-.53-.42-1-.61-1.51Z"/><path class="cls-1" d="M684.05,220.44l-.72.62,2.11,2.45c.22.27.47.57.75.88.49.56,1,1.2,1.59,1.94l6.35,9.22a35.13,35.13,0,0,1,2.93,4.72c.72,1.39,1.49,2.78,2.27,4.2,1.42,2.58,2.89,5.24,4.15,8l5.18,12.76L712,276.73a36.21,36.21,0,0,1,1.38,6.2c.12.78.23,1.48.36,2.09l.53,3.17.94-.16-.54-3.18c-.13-.62-.24-1.31-.35-2.07a36.47,36.47,0,0,0-1.41-6.33l-3.3-11.54-5.21-12.83c-1.28-2.79-2.76-5.48-4.18-8.07-.78-1.41-1.55-2.8-2.26-4.17a36.65,36.65,0,0,0-3-4.84l-6.35-9.23c-.58-.77-1.15-1.43-1.66-2l-.74-.86Z"/><path class="cls-1" d="M721.42,279.42l-.94.16,1.8,10.62a58.52,58.52,0,0,1,.93,9.16l.6,11.17-.15,3.17c-.09,1.47-.16,2.94-.22,4.4-.12,2.86-.24,5.57-.54,8.19l-1.62,10.91a41.42,41.42,0,0,1-1.16,5.43c-.22.8-.41,1.53-.54,2.16l-.72,2.86.93.23.72-2.88c.13-.64.32-1.34.53-2.12a41,41,0,0,0,1.18-5.55l1.62-10.91c.31-2.68.43-5.4.55-8.28.07-1.46.13-2.92.22-4.39l.15-3.22-.6-11.22a60.28,60.28,0,0,0-.95-9.29Z"/><path class="cls-1" d="M702.3,262.16l-.88.37,1.75,4.25.87,3c.34,1.35.78,2.83,1.24,4.39a71.29,71.29,0,0,1,2.84,12.16l1.54,9.05.75,13.58a14.34,14.34,0,0,1,.05,2.06v.21l.13.17.7-.66-.35.33.48,0a16.47,16.47,0,0,0,0-2.21l-.76-13.61-1.54-9.08a71.11,71.11,0,0,0-2.87-12.3c-.46-1.56-.9-3-1.24-4.36l-.88-3.08Z"/><path class="cls-1" d="M672.77,198.12l-.65.69,11.21,10.59,5.82,6.75a97.13,97.13,0,0,1,9,11.74l4.2,6.14,1,1.8.83-.47-1-1.83-4.22-6.17a97.61,97.61,0,0,0-9-11.85L684,208.74Z"/><path class="cls-1" d="M703.88,289.85,703,290l.86,5c.24,1.89.36,4.32.5,7.15.09,1.89.2,4,.35,6.19A134,134,0,0,1,699,348.29c-4.78,16.19-13.38,29.53-18.09,36-.61.81-1.19,1.63-1.75,2.42a44.3,44.3,0,0,1-2.73,3.62l-7.2,8.22.72.63,7.2-8.22c1-1.09,1.84-2.36,2.79-3.7.55-.78,1.13-1.59,1.74-2.41,4.75-6.57,13.42-20,18.23-36.34a134.87,134.87,0,0,0,5.71-40.24c-.16-2.24-.26-4.31-.35-6.2-.14-2.84-.26-5.3-.51-7.24Z"/><rect class="cls-1" x="553.55" y="527.44" width="7" height="6"/><rect class="cls-1" x="565.55" y="527.44" width="6" height="6"/><rect class="cls-1" x="576.55" y="527.44" width="5" height="6"/><rect class="cls-1" x="587.55" y="527.44" width="5" height="6"/><rect class="cls-1" x="597.55" y="527.44" width="6" height="6"/><rect class="cls-1" x="608.55" y="527.44" width="6" height="6"/><rect class="cls-1" x="488.55" y="527.44" width="6" height="6"/><rect class="cls-1" x="499.55" y="527.44" width="7" height="6"/><rect class="cls-1" x="510.55" y="527.44" width="5" height="6"/><rect class="cls-1" x="522.55" y="527.44" width="4" height="6"/><rect class="cls-1" x="531.55" y="527.44" width="7" height="6"/><rect class="cls-1" x="542.55" y="527.44" width="7" height="6"/><polygon class="cls-1" points="617.55 525 617.55 535.44 630.27 535.44 632.55 535.44 632.55 524.44 617.55 524.44 617.55 525"/><polygon class="cls-1" points="651.55 524.44 651.55 525 651.55 535.44 661.27 535.44 662.55 535.44 662.55 524.44 651.55 524.44"/><polygon class="cls-2" points="860.78 92.34 856.66 84.28 861.96 81.46 866.13 89.64 860.78 92.34"/><path class="cls-2" d="M896.76,194.54s-.46-2.22-.93-4.43c-.22-1.11-.49-2.21-.7-3s-.34-1.37-.34-1.37l5.84-1.38.35,1.39c.21.84.48,2,.7,3.08.48,2.25,1,4.49,1,4.49Z"/><path class="cls-2" d="M901.78,222.54l-.56-3.84c-.14-1-.27-1.92-.38-2.64s-.2-1.19-.2-1.19l5.92-1s.1.48.21,1.21.24,1.7.38,2.68c.29,1.94.57,3.89.57,3.89Z"/><polygon class="cls-2" points="906.25 284.42 906.12 275.36 912.12 275.24 912.25 284.43 906.25 284.42"/><polygon class="cls-2" points="866.13 478.36 861.96 486.54 856.66 483.72 860.78 475.66 866.13 478.36"/><path class="cls-2" d="M899.07,390.05l-.94,3.82c-.5,1.9-1,3.79-1,3.79l-5.79-1.57s.54-1.87,1-3.74.93-3.77.93-3.77Z"/><polygon class="cls-2" points="911.21 313.72 910.49 322.87 904.51 322.34 905.23 313.31 911.21 313.72"/><polygon class="cls-2" points="81.31 119.44 84.94 111 90.43 113.4 86.86 121.72 81.31 119.44"/><path class="cls-2" d="M70.83,147.73s.17-.55.44-1.37.67-1.89,1-3l1.53-4.33,5.65,2s-.75,2.14-1.51,4.27c-.37,1.07-.75,2.14-1,2.94s-.44,1.34-.44,1.34Z"/><path class="cls-2" d="M58.49,193.28l.95-4.49c.22-1.12.49-2.24.7-3.08s.34-1.39.34-1.39l5.84,1.38s-.13.55-.33,1.37-.48,1.93-.7,3l-.94,4.43Z"/><polygon class="cls-2" points="106.96 488.25 111.34 496.17 106.14 499.17 101.7 491.13 106.96 488.25"/><path class="cls-2" d="M72.28,404.8l.38,1.37c.25.81.59,1.89.94,3L75,413.45l-5.72,1.82-1.38-4.38c-.35-1.09-.69-2.19-1-3s-.39-1.38-.39-1.38Z"/><polygon class="cls-2" points="54.86 283.58 55 292.63 49 292.75 48.86 283.57 54.86 283.58"/><path class="cls-2" d="M208.55,138.44h-11v-18h11Zm-8-2h5v-13h-5Z"/><path class="cls-2" d="M221.55,138.44h-8v-18h8Zm-6-2h3v-13h-3Z"/><path class="cls-2" d="M243.55,138.44h-19v-18h19Zm-17-2h14v-13h-14Z"/><path class="cls-2" d="M254.55,138.44h-8v-18h8Zm-5-2h3v-13h-3Z"/><path class="cls-2" d="M267.55,138.44h-10v-15h10Zm-7-2h4v-10h-4Z"/><path class="cls-2" d="M280.55,138.44h-10v-9h10Zm-8-2h6v-5h-6Z"/><path class="cls-2" d="M294.55,138.44h-11v-12h11Zm-8-2h5v-7h-5Z"/><path class="cls-2" d="M309.55,138.44h-12v-12h12Zm-9-2h6v-7h-6Z"/><path class="cls-2" d="M329.55,138.44h-18v-12h18Zm-14-2h12v-7h-12Z"/><path class="cls-2" d="M208.55,448.44h-11v-16h11Zm-8-3h5v-11h-5Z"/><path class="cls-2" d="M221.55,448.44h-8v-16h8Zm-6-3h3v-11h-3Z"/><path class="cls-2" d="M243.55,448.44h-19v-16h19Zm-17-3h14v-11h-14Z"/><path class="cls-2" d="M254.55,448.44h-8v-16h8Zm-5-3h3v-11h-3Z"/><path class="cls-2" d="M267.55,445.44h-10v-13h10Zm-7-3h4v-8h-4Z"/><path class="cls-2" d="M280.55,440.44h-10v-8h10Zm-8-3h6v-3h-6Z"/><path class="cls-2" d="M294.55,442.44h-11v-10h11Zm-8-2h5v-6h-5Z"/><path class="cls-2" d="M309.55,442.44h-12v-10h12Zm-9-2h6v-6h-6Z"/><path class="cls-2" d="M329.55,442.44h-18v-10h18Zm-14-2h12v-6h-12Z"/><path class="cls-2" d="M747.55,432.44h11v16h-11Zm8,2h-5v11h5Z"/><path class="cls-2" d="M734.55,432.44h8v16h-8Zm6,2h-3v11h3Z"/><path class="cls-2" d="M712.55,432.44h19v16h-19Zm17,2h-14v11h14Z"/><path class="cls-2" d="M701.55,432.44h8v16h-8Zm5,2h-3v11h3Z"/><path class="cls-2" d="M688.55,432.44h10v13h-10Zm7,2h-4v8h4Z"/><path class="cls-2" d="M675.55,432.44h10v8h-10Zm8,2h-6v3h6Z"/><path class="cls-2" d="M661.55,432.44h11v10h-11Zm8,2h-5v6h5Z"/><path class="cls-2" d="M646.55,432.44h12v10h-12Zm9,2h-6v6h6Z"/><path class="cls-2" d="M626.55,432.44h18v10h-18Zm14,2h-12v6h12Z"/><path class="cls-2" d="M892.55,534.44h-16v-32h16Zm-15-1h14v-29h-14Z"/><rect class="cls-2" x="880.55" y="498.44" width="7" height="3"/><path class="cls-2" d="M888.55,501.44h-8v-4h8Zm-7-1h6v-2h-6Z"/><rect class="cls-2" x="879.55" y="529.44" width="9" height="2"/><path class="cls-2" d="M890.55,531.44h-11v-4h11Zm-10-1h8v-1h-8Z"/><rect class="cls-2" x="879.55" y="523.44" width="9" height="3"/><path class="cls-2" d="M890.55,526.44h-11v-4h11Zm-10-2h8v-1h-8Z"/><rect class="cls-2" x="879.55" y="518.44" width="9" height="2"/><path class="cls-2" d="M890.55,520.44h-11v-4h11Zm-10-1h8v-1h-8Z"/><rect class="cls-2" x="879.55" y="512.44" width="9" height="3"/><path class="cls-2" d="M890.55,515.44h-11v-4h11Zm-10-2h8v-1h-8Z"/><rect class="cls-2" x="879.55" y="507.44" width="9" height="2"/><path class="cls-2" d="M890.55,509.44h-11v-4h11Zm-10-1h8v-1h-8Z"/><path class="cls-2" d="M912.55,534.44h-17v-32h17Zm-15-1h13v-29h-13Z"/><rect class="cls-2" x="899.55" y="498.44" width="7" height="3"/><path class="cls-2" d="M908.55,501.44h-9v-4h9Zm-7-1h5v-2h-5Z"/><rect class="cls-2" x="898.55" y="529.44" width="10" height="2"/><path class="cls-2" d="M909.55,531.44h-11v-4h11Zm-10-1h9v-1h-9Z"/><path class="cls-2" d="M931.55,534.44h-17v-32h17Zm-15-1h14v-29h-14Z"/><rect class="cls-2" x="919.55" y="498.44" width="6" height="3"/><path class="cls-2" d="M927.55,501.44h-8v-4h8Zm-7-1h5v-2h-5Z"/><rect class="cls-2" x="917.55" y="529.44" width="10" height="2"/><path class="cls-2" d="M928.55,531.44h-11v-4h11Zm-9-1h8v-1h-8Z"/><rect class="cls-2" x="917.55" y="523.44" width="10" height="3"/><path class="cls-2" d="M928.55,526.44h-11v-4h11Zm-9-2h8v-1h-8Z"/><rect class="cls-2" x="917.55" y="518.44" width="10" height="2"/><path class="cls-2" d="M928.55,520.44h-11v-4h11Zm-9-1h8v-1h-8Z"/><polygon class="cls-2" points="913.46 134.89 928.68 104.44 896.33 104.44 913.46 134.89"/><polygon class="cls-2" points="913.46 427.99 928.68 458.44 896.33 458.44 913.46 427.99"/><rect class="cls-2" x="1004.55" y="244.44" width="1" height="7"/><rect class="cls-2" x="1002.55" y="236.53" height="15.23"/><rect class="cls-2" x="1002.55" y="244.14" height="15.23"/><rect class="cls-2" x="998.55" y="247.95" height="22.84"/><rect class="cls-2" x="998.55" y="244.14" height="11.42"/><rect class="cls-2" x="998.55" y="236.53" height="15.23"/><rect class="cls-2" x="994.55" y="209.88" height="38.07"/><rect class="cls-2" x="994.55" y="228.92" height="19.03"/><rect class="cls-2" x="991.55" y="240.44" width="3" height="11"/><rect class="cls-2" x="991.55" y="244.14" height="15.23"/><rect class="cls-2" x="991.55" y="244.14" height="15.23"/><rect class="cls-2" x="987.55" y="247.95" height="22.84"/><rect class="cls-2" x="987.55" y="244.14" height="34.26"/><rect class="cls-2" x="987.55" y="244.14" height="15.23"/><rect class="cls-2" x="983.55" y="236.53" height="26.65"/><rect class="cls-2" x="983.55" y="244.14" height="19.03"/><rect class="cls-2" x="979.55" y="247.44" width="4" height="28"/><rect class="cls-2" x="979.55" y="247.95" height="22.84"/><rect class="cls-2" x="979.55" y="232.72" height="26.65"/><rect class="cls-2" x="976.55" y="232.72" height="22.84"/><rect class="cls-2" x="976.55" y="225.11" height="22.84"/><rect class="cls-2" x="976.55" y="221.3" height="26.65"/><rect class="cls-2" x="972.55" y="236.53" height="15.23"/><rect class="cls-2" x="970.55" y="244.44" width="2" height="7"/><rect class="cls-2" x="968.55" y="244.44" width="4" height="20"/><rect class="cls-2" x="968.55" y="244.14" height="19.03"/><rect class="cls-2" x="968.55" y="244.14" height="15.23"/><rect class="cls-2" x="965.55" y="244.14" height="11.42"/><rect class="cls-2" x="965.55" y="236.53" height="15.23"/><rect class="cls-2" x="965.55" y="228.92" height="19.03"/><rect class="cls-2" x="961.55" y="228.92" height="19.03"/><rect class="cls-2" x="959.55" y="243.73" height="7.41"/><rect class="cls-2" x="957.55" y="244.44" width="4" height="15"/><rect class="cls-2" x="957.55" y="244.14" height="11.42"/><rect class="cls-2" x="1005.55" y="243.73" height="7.41"/><path class="cls-2" d="M975,301.94l7.81-13.5h15.61l7.81,13.5-7.81,13.5H982.81Zm30.07,0-7.23-12.5H983.38l-7.22,12.5,7.22,12.5h14.46Z"/><path class="cls-2" d="M951,316.94l7.81-13.5h15.61l7.81,13.5-7.81,13.5H958.81Zm30.07,0-7.23-12.5H959.38l-7.22,12.5,7.22,12.5h14.46Z"/><path class="cls-2" d="M976,329.94l7.81-13.5h15.61l7.81,13.5-7.81,13.5H983.81Zm30.07,0-7.23-12.5H984.38l-7.22,12.5,7.22,12.5h14.46Z"/><path class="cls-2" d="M951,344.94l7.81-13.5h15.61l7.81,13.5-7.81,13.5H958.81Zm30.07,0-7.23-12.5H959.38l-7.22,12.5,7.22,12.5h14.46Z"/><path class="cls-2" d="M951,372.94l7.81-13.5h15.61l7.81,13.5-7.81,13.5H958.81Zm30.07,0-7.23-12.5H959.38l-7.22,12.5,7.22,12.5h14.46Z"/><path class="cls-2" d="M32.23,145.94l-7.81,13.5H8.81L1,145.94l7.81-13.5H24.42Zm-30.07,0,7.22,12.5H23.84l7.23-12.5-7.23-12.5H9.38Z"/><path class="cls-2" d="M56.23,130.94l-7.81,13.5H32.81L25,130.94l7.81-13.5H48.42Zm-30.07,0,7.22,12.5H47.84l7.23-12.5-7.23-12.5H33.38Z"/><path class="cls-2" d="M31.23,117.94l-7.81,13.5H7.81L0,117.94l7.81-13.5H23.42Zm-30.07,0,7.22,12.5H22.84l7.23-12.5-7.23-12.5H8.38Z"/><path class="cls-2" d="M56.23,102.94l-7.81,13.5H32.81L25,102.94l7.81-13.5H48.42Zm-30.07,0,7.22,12.5H47.84l7.23-12.5-7.23-12.5H33.38Z"/><path class="cls-2" d="M56.23,74.94l-7.81,13.5H32.81L25,74.94l7.81-13.5H48.42Zm-30.07,0,7.22,12.5H47.84l7.23-12.5-7.23-12.5H33.38Z"/><path class="cls-2" d="M84.23,87.94l-7.81,13.5H60.81L53,87.94l7.81-13.5H76.42Zm-30.07,0,7.22,12.5H75.84l7.23-12.5-7.23-12.5H61.38Z"/><path class="cls-2" d="M83.23,59.94l-7.81,13.5H59.81L52,59.94l7.81-13.5H75.42Zm-30.07,0,7.22,12.5H74.84l7.23-12.5-7.23-12.5H60.38Z"/><path class="cls-2" d="M108.23,44.94l-7.81,13.5H84.81L77,44.94l7.81-13.5h15.61Zm-30.07,0,7.22,12.5H99.84l7.23-12.5-7.23-12.5H85.38Z"/><path class="cls-2" d="M108.23,16.94l-7.81,13.5H84.81L77,16.94l7.81-13.5h15.61Zm-30.07,0,7.22,12.5H99.84l7.23-12.5L99.84,4.44H85.38Z"/><rect class="cls-2" x="723.55" y="528.44" width="5" height="3"/><rect class="cls-2" x="731.55" y="528.44" width="5" height="3"/><rect class="cls-2" x="740.55" y="528.44" width="4" height="3"/><rect class="cls-2" x="750.55" y="528.44" width="5" height="3"/><rect class="cls-2" x="758.55" y="528.44" width="5" height="3"/><rect class="cls-2" x="766.55" y="528.44" width="5" height="3"/><rect class="cls-2" x="774.55" y="528.44" width="5" height="3"/><rect class="cls-2" x="785.55" y="528.44" width="3" height="3"/><rect class="cls-2" x="793.55" y="528.44" width="5" height="3"/><rect class="cls-2" x="801.55" y="528.44" width="5" height="3"/><rect class="cls-2" x="809.55" y="528.44" width="5" height="3"/><rect class="cls-2" x="819.55" y="528.44" width="4" height="3"/><rect class="cls-2" x="827.55" y="528.44" width="4" height="3"/><rect class="cls-2" x="836.55" y="528.44" width="5" height="3"/><rect class="cls-2" x="844.55" y="528.44" width="5" height="3"/><rect class="cls-2" x="633.55" y="524.44" width="13" height="12"/><path class="cls-2" d="M648.55,536.44h-15v-13h15Zm-13-1h11v-11h-11Z"/><rect class="cls-2" x="664.55" y="524.44" width="20" height="13"/><path class="cls-2" d="M686.55,537.44h-22v-14h22Zm-21-1h19v-12h-19Z"/><rect class="cls-2" x="689.55" y="526.44" width="15" height="9"/><path class="cls-2" d="M705.55,535.44h-16v-10h16Zm-14-1h13v-8h-13Z"/><rect class="cls-2" x="708.55" y="527.44" width="12" height="7"/><path class="cls-2" d="M721.55,534.44h-13v-8h13Zm-11-1h10v-6h-10Z"/></g></g></svg>