<svg xmlns="http://www.w3.org/2000/svg" viewBox="0 0 975 23"><defs><style>.cls-1{fill:#fff;}</style></defs><title>资源 4</title><g id="图层_2" data-name="图层 2"><g id="Layer_1" data-name="Layer 1"><rect class="cls-1" y="8" width="6" height="5"/><rect class="cls-1" x="60" y="8" width="6" height="5"/><rect class="cls-1" x="84" y="6" width="6" height="9"/><rect class="cls-1" x="132" y="8" width="5" height="5"/><rect class="cls-1" x="155" y="8" width="6" height="5"/><rect class="cls-1" x="215" y="8" width="6" height="5"/><rect class="cls-1" x="251" y="8" width="6" height="5"/><rect class="cls-1" x="264" y="8" width="5" height="5"/><rect class="cls-1" x="324" y="8" width="5" height="5"/><rect class="cls-1" x="359" y="8" width="6" height="5"/><rect class="cls-1" x="371" y="8" width="5" height="5"/><rect class="cls-1" x="444" y="8" width="5" height="5"/><rect class="cls-1" x="503" y="8" width="6" height="5"/><rect class="cls-1" x="515" y="8" width="5" height="5"/><rect class="cls-1" x="551" y="8" width="5" height="5"/><rect class="cls-1" x="563" y="8" width="6" height="5"/><rect class="cls-1" x="623" y="8" width="5" height="5"/><rect class="cls-1" x="635" y="8" width="5" height="5"/><rect class="cls-1" x="646" y="8" width="5" height="5"/><rect class="cls-1" x="670" y="8" width="6" height="5"/><rect class="cls-1" x="682" y="8" width="6" height="5"/><rect class="cls-1" x="706" y="8" width="5" height="5"/><rect class="cls-1" x="718" y="8" width="6" height="5"/><rect class="cls-1" x="777" y="8" width="6" height="5"/><rect class="cls-1" x="790" y="8" width="5" height="5"/><rect class="cls-1" x="72" y="9" width="6" height="3"/><rect class="cls-1" x="144" y="9" width="6" height="3"/><rect class="cls-1" x="227" y="9" width="6" height="3"/><rect class="cls-1" x="240" y="9" width="5" height="3"/><rect class="cls-1" x="334" y="9" width="7" height="3"/><rect class="cls-1" x="347" y="9" width="5" height="3"/><rect class="cls-1" x="431" y="9" width="5" height="3"/><rect class="cls-1" x="527" y="9" width="5" height="3"/><rect class="cls-1" x="538" y="9" width="6" height="3"/><rect class="cls-1" x="695" y="9" width="5" height="3"/><rect class="cls-1" x="802" y="9" width="6" height="3"/><rect class="cls-1" x="814" y="9" width="5" height="3"/><rect class="cls-1" x="826" y="9" width="5" height="3"/><rect class="cls-1" x="837" y="8" width="6" height="5"/><rect class="cls-1" x="850" y="8" width="5" height="5"/><rect class="cls-1" x="48" y="5" width="5" height="10"/><rect class="cls-1" x="120" y="5" width="5" height="10"/><rect class="cls-1" x="204" y="5" width="5" height="10"/><rect class="cls-1" x="311" y="5" width="6" height="10"/><rect class="cls-1" x="418" y="5" width="7" height="10"/><rect class="cls-1" x="491" y="5" width="5" height="10"/><rect class="cls-1" x="611" y="5" width="5" height="10"/><rect class="cls-1" x="766" y="5" width="5" height="10"/><rect class="cls-1" x="897" y="5" width="5" height="10"/><rect class="cls-1" x="910" y="8" width="5" height="5"/><rect class="cls-1" x="921" y="8" width="7" height="5"/><rect class="cls-1" x="934" y="8" width="5" height="5"/><rect class="cls-1" x="12" y="5" width="6" height="12"/><rect class="cls-1" x="167" y="5" width="6" height="12"/><rect class="cls-1" x="275" y="5" width="6" height="12"/><rect class="cls-1" x="384" y="5" width="5" height="12"/><rect class="cls-1" x="454" y="5" width="5" height="12"/><rect class="cls-1" x="575" y="5" width="5" height="12"/><rect class="cls-1" x="658" y="5" width="6" height="12"/><rect class="cls-1" x="730" y="5" width="5" height="12"/><rect class="cls-1" x="861" y="5" width="7" height="12"/><rect class="cls-1" x="944" y="5" width="7" height="12"/><rect class="cls-1" x="25" width="5" height="23"/><rect class="cls-1" x="95" width="6" height="23"/><rect class="cls-1" x="180" width="5" height="23"/><rect class="cls-1" x="287" width="5" height="23"/><rect class="cls-1" x="394" width="5" height="23"/><rect class="cls-1" x="467" width="5" height="23"/><rect class="cls-1" x="586" width="6" height="23"/><rect class="cls-1" x="742" width="6" height="23"/><rect class="cls-1" x="874" width="5" height="23"/><rect class="cls-1" x="957" width="5" height="23"/><rect class="cls-1" x="35" y="4" width="6" height="13"/><rect class="cls-1" x="108" y="4" width="5" height="13"/><rect class="cls-1" x="192" y="4" width="5" height="13"/><rect class="cls-1" x="300" y="4" width="5" height="13"/><rect class="cls-1" x="407" y="4" width="5" height="13"/><rect class="cls-1" x="478" y="4" width="7" height="13"/><rect class="cls-1" x="598" y="4" width="6" height="13"/><rect class="cls-1" x="754" y="4" width="6" height="13"/><rect class="cls-1" x="886" y="4" width="5" height="13"/><rect class="cls-1" x="970" y="4" width="5" height="13"/></g></g></svg>