<svg xmlns="http://www.w3.org/2000/svg" xmlns:xlink="http://www.w3.org/1999/xlink" viewBox="0 0 745.71 856.35"><defs><style>.cls-1{fill:url(#White_Black);}.cls-2{fill:url(#White_Black-2);}.cls-3{mask:url(#mask);}.cls-4,.cls-6,.cls-8{mix-blend-mode:multiply;}.cls-4{fill:url(#radial-gradient);}.cls-5{mask:url(#mask-3);}.cls-6{fill:url(#radial-gradient-3);}.cls-7{mask:url(#mask-5);}.cls-8{fill:url(#radial-gradient-5);}.cls-9{isolation:isolate;}.cls-10{fill:#5da0a5;}.cls-11{mask:url(#mask-7);}.cls-12{mask:url(#mask-8);}.cls-13{opacity:0.2;}.cls-14{mask:url(#mask-9);}.cls-15,.cls-17,.cls-19{opacity:0.7;mix-blend-mode:hard-light;}.cls-15{fill:url(#radial-gradient-7);}.cls-16{mask:url(#mask-11);}.cls-17{fill:url(#radial-gradient-8);}.cls-18{mask:url(#mask-13);}.cls-19{fill:url(#radial-gradient-9);}.cls-20{filter:url(#luminosity-noclip-5);}.cls-21{filter:url(#luminosity-noclip-3);}.cls-22{filter:url(#luminosity-noclip);}</style><linearGradient id="White_Black" x1="535.85" y1="181.67" x2="535.85" y2="60.32" gradientUnits="userSpaceOnUse"><stop offset="0" stop-color="#fff"/><stop offset="1"/></linearGradient><linearGradient id="White_Black-2" x1="232.75" y1="283.08" x2="79.76" y2="107.59" gradientTransform="translate(130.43 -43.05) rotate(39.64)" xlink:href="#White_Black"/><filter id="luminosity-noclip" x="153.64" y="-8616" width="161.53" height="32766" filterUnits="userSpaceOnUse" color-interpolation-filters="sRGB"><feFlood flood-color="#fff" result="bg"/><feBlend in="SourceGraphic" in2="bg"/></filter><mask id="mask" x="153.64" y="-8616" width="161.53" height="32766" maskUnits="userSpaceOnUse"><g class="cls-22"/></mask><radialGradient id="radial-gradient" cx="234.41" cy="283.58" r="80.77" gradientTransform="translate(36.49 -26.57) rotate(7.03)" gradientUnits="userSpaceOnUse"><stop offset="0" stop-color="#fff"/><stop offset="0.02" stop-color="#f4f4f4"/><stop offset="0.14" stop-color="#bcbcbc"/><stop offset="0.25" stop-color="#8a8a8a"/><stop offset="0.37" stop-color="#5f5f5f"/><stop offset="0.49" stop-color="#3d3d3d"/><stop offset="0.61" stop-color="#222"/><stop offset="0.74" stop-color="#0f0f0f"/><stop offset="0.87" stop-color="#040404"/><stop offset="1"/></radialGradient><filter id="luminosity-noclip-3" x="448.64" y="-8616" width="231.53" height="32766" filterUnits="userSpaceOnUse" color-interpolation-filters="sRGB"><feFlood flood-color="#fff" result="bg"/><feBlend in="SourceGraphic" in2="bg"/></filter><mask id="mask-3" x="448.64" y="-8616" width="231.53" height="32766" maskUnits="userSpaceOnUse"><g class="cls-21"/></mask><radialGradient id="radial-gradient-3" cx="564.41" cy="369.58" r="115.77" gradientTransform="translate(68.35 -87.67) rotate(9.45)" xlink:href="#radial-gradient"/><filter id="luminosity-noclip-5" x="271.64" y="-8616" width="187.53" height="32766" filterUnits="userSpaceOnUse" color-interpolation-filters="sRGB"><feFlood flood-color="#fff" result="bg"/><feBlend in="SourceGraphic" in2="bg"/></filter><mask id="mask-5" x="271.64" y="-8616" width="187.53" height="32766" maskUnits="userSpaceOnUse"><g class="cls-20"/></mask><radialGradient id="radial-gradient-5" cx="365.41" cy="762.58" r="93.77" gradientTransform="matrix(1, 0, 0, 1, 0, 0)" xlink:href="#radial-gradient"/><mask id="mask-7" x="411.85" y="0" width="248" height="315.12" maskUnits="userSpaceOnUse"><rect class="cls-1" x="411.85" y="25" width="248" height="290"/></mask><mask id="mask-8" x="-113.83" y="-76.02" width="477.54" height="470.88" maskUnits="userSpaceOnUse"><rect class="cls-2" x="-56.06" y="3.63" width="362" height="311.58" transform="translate(-72.97 116.36) rotate(-39.64)"/></mask><mask id="mask-9" x="448.64" y="253.82" width="231.53" height="231.53" maskUnits="userSpaceOnUse"><g class="cls-5"><circle class="cls-6" cx="564.41" cy="369.58" r="115.77" transform="translate(-53.03 97.7) rotate(-9.45)"/></g></mask><filter id="luminosity-noclip-7" x="448.64" y="253.82" width="231.53" height="231.53" filterUnits="userSpaceOnUse" color-interpolation-filters="sRGB"><feFlood flood-color="#fff" result="bg"/><feBlend in="SourceGraphic" in2="bg"/></filter><radialGradient id="radial-gradient-7" cx="564.41" cy="369.58" r="115.77" gradientTransform="translate(68.35 -87.67) rotate(9.45)" gradientUnits="userSpaceOnUse"><stop offset="0" stop-color="#fff"/><stop offset="0.01" stop-color="#f9f9f9"/><stop offset="0.13" stop-color="#c1c2c5"/><stop offset="0.25" stop-color="#8f9196"/><stop offset="0.37" stop-color="#64676f"/><stop offset="0.49" stop-color="#42464f"/><stop offset="0.61" stop-color="#272b36"/><stop offset="0.74" stop-color="#141924"/><stop offset="0.86" stop-color="#090e19"/><stop offset="1" stop-color="#050a16"/></radialGradient><mask id="mask-11" x="271.64" y="668.82" width="187.53" height="187.53" maskUnits="userSpaceOnUse"><g class="cls-7"><path class="cls-8" d="M459.17,762.58a93.77,93.77,0,1,1-93.76-93.76A93.76,93.76,0,0,1,459.17,762.58Z"/></g></mask><filter id="luminosity-noclip-8" x="271.64" y="668.82" width="187.53" height="187.53" filterUnits="userSpaceOnUse" color-interpolation-filters="sRGB"><feFlood flood-color="#fff" result="bg"/><feBlend in="SourceGraphic" in2="bg"/></filter><radialGradient id="radial-gradient-8" cx="365.41" cy="762.58" r="93.77" gradientTransform="matrix(1, 0, 0, 1, 0, 0)" xlink:href="#radial-gradient-7"/><mask id="mask-13" x="153.64" y="202.82" width="161.53" height="161.53" maskUnits="userSpaceOnUse"><g class="cls-3"><circle class="cls-4" cx="234.41" cy="283.58" r="80.77" transform="translate(-32.96 30.84) rotate(-7.03)"/></g></mask><filter id="luminosity-noclip-9" x="153.64" y="202.82" width="161.53" height="161.53" filterUnits="userSpaceOnUse" color-interpolation-filters="sRGB"><feFlood flood-color="#fff" result="bg"/><feBlend in="SourceGraphic" in2="bg"/></filter><radialGradient id="radial-gradient-9" cx="234.41" cy="283.58" r="80.77" gradientTransform="translate(36.49 -26.57) rotate(7.03)" xlink:href="#radial-gradient-7"/></defs><title>资源 2</title><g class="cls-9"><g id="图层_2" data-name="图层 2"><g id="Layer_1" data-name="Layer 1"><polygon class="cls-10" points="435.86 388 429.86 388 429.86 359.77 414.22 344.34 418.43 340.07 435.86 357.27 435.86 388"/><polygon class="cls-10" points="397.21 459 339.11 459 295.86 415.26 295.86 357.16 339.23 319 397.1 319 413.24 335.11 409 339.36 394.62 325 341.49 325 301.86 359.88 301.86 412.79 341.61 453 394.51 453 429.86 412.89 429.86 398 435.86 398 435.86 415.16 397.21 459"/><path class="cls-10" d="M403.71,474H333.5l-52.65-53.17V350.64L333.7,305h69.8l46.35,45.82v69.83Zm-66.45-9h62.33l41.26-47.7V354.58L399.8,314H337.05l-47.2,40.76v62.36Z"/><path class="cls-10" d="M206.35,401.5a9.5,9.5,0,1,1,9.5-9.5A9.52,9.52,0,0,1,206.35,401.5Zm0-14a4.5,4.5,0,1,0,4.5,4.5A4.51,4.51,0,0,0,206.35,387.5Z"/><path class="cls-10" d="M359.35,231.83a7.83,7.83,0,1,1,7.84-7.83A7.84,7.84,0,0,1,359.35,231.83Zm0-10.66a2.83,2.83,0,1,0,2.84,2.83A2.83,2.83,0,0,0,359.35,221.17Z"/><path class="cls-10" d="M234.35,290.83a7.83,7.83,0,1,1,7.84-7.83A7.84,7.84,0,0,1,234.35,290.83Zm0-10.66a2.83,2.83,0,1,0,2.84,2.83A2.83,2.83,0,0,0,234.35,280.17Z"/><path class="cls-10" d="M413.35,347.83a7.83,7.83,0,1,1,7.84-7.83A7.84,7.84,0,0,1,413.35,347.83Zm0-10.66a2.83,2.83,0,1,0,2.84,2.83A2.83,2.83,0,0,0,413.35,337.17Z"/><path class="cls-10" d="M433.35,400.83a7.83,7.83,0,1,1,7.84-7.83A7.84,7.84,0,0,1,433.35,400.83Zm0-10.66a2.83,2.83,0,1,0,2.84,2.83A2.83,2.83,0,0,0,433.35,390.17Z"/><path class="cls-10" d="M446.35,465.83a9.83,9.83,0,1,1,9.84-9.83A9.84,9.84,0,0,1,446.35,465.83Zm0-14.66a4.83,4.83,0,1,0,4.84,4.83A4.83,4.83,0,0,0,446.35,451.17Z"/><path class="cls-10" d="M307.35,485.83a9.83,9.83,0,1,1,9.84-9.83A9.84,9.84,0,0,1,307.35,485.83Zm0-14.66a4.83,4.83,0,1,0,4.84,4.83A4.83,4.83,0,0,0,307.35,471.17Z"/><path class="cls-10" d="M299.35,316.83a9.83,9.83,0,1,1,9.84-9.83A9.84,9.84,0,0,1,299.35,316.83Zm0-14.66a4.83,4.83,0,1,0,4.84,4.83A4.84,4.84,0,0,0,299.35,302.17Z"/><path class="cls-10" d="M405,477h-72.5l-.15-.15-54.53-55v-72.5L332.55,302H405l.15.14,47.69,47.2v72.47l-.12.14Zm-72.09-1h71.64l47.27-54.57V349.75L404.6,303H332.92l-54.07,46.77v71.64Z"/><polygon class="cls-10" points="433.52 539 425.86 539 425.86 538 433.06 538 513.86 445.48 513.86 405 514.86 405 514.86 445.85 514.73 445.99 433.52 539"/><polygon class="cls-10" points="514.86 399 513.86 399 513.86 323.27 497.23 306.72 497.29 315.48 507.86 326.01 507.86 380 506.86 380 506.86 326.42 496.29 315.9 496.22 304.29 514.86 322.85 514.86 399"/><polygon class="cls-10" points="455.08 595 414.86 595 414.86 530.98 429.91 531 506.86 442.83 506.86 386 507.86 386 507.86 443.21 507.73 443.35 430.36 532 415.86 531.99 415.86 594 454.63 594 490.88 554 510.65 554 548.86 515.54 548.86 497.79 564.86 482.04 564.86 374 565.86 374 565.86 482.46 549.86 498.21 549.86 515.96 511.06 555 491.33 555 455.08 595"/><polygon class="cls-10" points="260.11 488.36 217.85 445.87 217.85 322.83 272.33 274.93 272.99 275.68 218.85 323.29 218.85 445.46 260.82 487.66 260.11 488.36"/><polygon class="cls-10" points="321.86 539 310.48 539 264.67 492.94 265.37 492.23 310.9 538 320.86 538 320.86 532 313.12 532 277.99 496.66 278.7 495.95 313.54 531 321.86 531 321.86 539"/><polygon class="cls-10" points="273.14 491.79 224.85 443.23 224.85 325.99 313.14 249 430.34 249 430.49 249.15 461.96 280.28 461.79 271.54 433.08 243 310.87 243 278.15 271.55 277.5 270.8 310.5 242 433.5 242 462.78 271.12 463 282.72 429.93 250 313.52 250 225.85 326.44 225.85 442.81 273.85 491.09 273.14 491.79"/><polygon class="cls-10" points="440.08 587 419.86 587 419.86 565 444.23 565 539.86 454.68 539.86 310.1 499.35 270.26 500.05 269.55 540.86 309.69 540.86 455.05 540.73 455.19 444.69 566 420.86 566 420.86 586 439.63 586 489.73 529.79 502.39 517 518.65 517 531.86 503.88 531.86 476.79 553.86 455.04 553.86 365 554.86 365 554.86 455.46 532.86 477.21 532.86 504.29 519.06 518 502.81 518 490.46 530.48 440.08 587"/><polygon class="cls-10" points="320.86 592 289.65 592 274.24 576.59 274.94 575.88 290.06 591 319.86 591 319.86 566 299.28 566 299.13 565.85 189.85 455.07 189.85 309.67 190.03 309.52 299.3 215 444.66 215 444.81 215.15 459.06 229.35 458.35 230.06 444.25 216 299.67 216 190.85 310.12 190.85 454.66 299.69 565 320.86 565 320.86 592"/><polygon class="cls-10" points="415.68 501 323.44 501 307.52 484.96 316.04 476.51 328.43 489 410.15 489 437.49 457.03 446.61 464.83 415.68 501"/><polygon class="cls-10" points="299.38 476.77 253.85 430.89 253.85 338.67 290.38 307.47 298.17 316.6 265.86 344.2 265.86 425.95 307.9 468.31 299.38 476.77"/><polygon class="cls-10" points="455.7 454.21 446.57 446.41 463.86 426.2 463.86 343.94 410.44 291 328.15 291 309.11 307.26 301.32 298.13 323.72 279 415.38 279 475.86 338.94 475.86 430.64 455.7 454.21"/><path class="cls-10" d="M421.6,514h-103l-77.74-78.26v-103l78-66.75H421.31l67.54,67V435.49Zm-98-12h92.49l60.78-70.95V338l-60.49-60H323.3l-70.45,60.28V430.8Z"/><path class="cls-10" d="M427.51,527H313.74l-85.89-86.41V326.84L314,253H427.23l74.62,74.1V440.34ZM318.73,515H422l67.85-79.1V332.09L422.28,265H318.45l-78.6,67.36V435.64Z"/><polygon class="cls-10" points="320.86 560 301.75 560 194.85 452.59 194.85 312.01 228.59 283.34 233.12 288.67 201.85 315.25 201.85 449.7 304.66 553 313.86 553 313.86 552 304.71 552 202.85 449.63 202.85 398 209.85 398 209.85 446.75 307.62 545 320.86 545 320.86 560"/><polygon class="cls-10" points="241.36 281.89 236.81 276.57 301.91 221 352.86 221 352.86 228 304.49 228 241.36 281.89"/><polygon class="cls-10" points="209.85 385 202.85 385 202.85 315.68 304.88 229 438.49 229 455.45 245.73 455.42 244.06 439.27 228 365.86 228 365.86 221 442.16 221 462.37 241.1 462.76 262.77 435.61 236 307.45 236 209.85 318.92 209.85 385"/><path class="cls-10" d="M442.33,560H419.85V545h15.58l83.42-98.1V318.76L496.2,296.23l.11-22.24,37.54,38.21V452.44Zm-15.48-7H439.1l87.75-103.14V315.06L503.22,291v2.32l22.64,22.52V449.48L438.67,552H426.85Z"/><polygon class="cls-10" points="305.31 667 290.86 667 290.86 638.21 274.86 621.96 274.86 610.21 235.75 571.1 236.46 570.4 275.86 609.79 275.86 621.54 291.86 637.79 291.86 666 304.9 666 325.86 644.79 325.86 534 326.86 534 326.86 645.21 305.31 667"/><polygon class="cls-10" points="345.86 714 341.86 714 341.86 537.01 334.86 537.03 334.86 690 330.86 690 330.86 533.04 345.86 532.99 345.86 714"/><polygon class="cls-10" points="375.86 735 371.86 735 371.86 533 385.86 533 385.86 719 381.86 719 381.86 537 375.86 537 375.86 735"/><polygon class="cls-10" points="366.86 759 360.86 759 360.86 539 355.86 539 355.86 737 349.86 737 349.86 533 366.86 533 366.86 759"/><polygon class="cls-10" points="393.86 700 390.86 700 390.86 533 407.86 533 407.86 679 404.86 679 404.86 536 393.86 536 393.86 700"/><path class="cls-10" d="M343.65,722.75a5,5,0,1,1,0-10,5,5,0,0,1,5,5A5,5,0,0,1,343.65,722.75Zm0-8a3,3,0,1,0,2.13.88A3,3,0,0,0,343.65,714.73Z"/><path class="cls-10" d="M373.35,746.74a6.24,6.24,0,1,1,6.25-6.24A6.25,6.25,0,0,1,373.35,746.74Zm0-8.48a2.24,2.24,0,1,0,2.25,2.24A2.24,2.24,0,0,0,373.35,738.26Z"/><path class="cls-10" d="M384.35,731.1a6.6,6.6,0,1,1,6.6-6.6A6.6,6.6,0,0,1,384.35,731.1Zm0-9.2a2.6,2.6,0,1,0,2.6,2.6A2.61,2.61,0,0,0,384.35,721.9Z"/><path class="cls-10" d="M392.36,709.41h0a5.74,5.74,0,1,1,5.75-5.74A5.75,5.75,0,0,1,392.35,709.41Zm0-8.48a2.74,2.74,0,1,0,2.75,2.74A2.74,2.74,0,0,0,392.35,700.93Z"/><path class="cls-10" d="M406.35,688.61a5.53,5.53,0,1,1,5.53-5.52A5.53,5.53,0,0,1,406.35,688.61Zm0-8.05a2.53,2.53,0,1,0,2.53,2.53A2.54,2.54,0,0,0,406.35,680.56Z"/><path class="cls-10" d="M332.35,701.57a6.07,6.07,0,1,1,6.07-6.07A6.08,6.08,0,0,1,332.35,701.57Zm0-8.13a2,2,0,0,0-2.06,2.06,2.07,2.07,0,1,0,3.52-1.46A2,2,0,0,0,332.35,693.44Z"/><path class="cls-10" d="M352.36,747.87h0A6.37,6.37,0,0,1,347.85,737a6.37,6.37,0,0,1,10.87,4.5A6.37,6.37,0,0,1,352.36,747.87Zm0-8.74a2.35,2.35,0,0,0-1.68.7,2.61,2.61,0,0,0-.94,1.67,2.37,2.37,0,0,0,2.11,2.37v2l.26-2a2.48,2.48,0,0,0,2.49-2.37,2.31,2.31,0,0,0-.63-1.67A2.21,2.21,0,0,0,352.36,739.13Z"/><path class="cls-10" d="M363.36,772.33a8.83,8.83,0,1,1,8.83-8.83A8.84,8.84,0,0,1,363.36,772.33Zm0-11.66a2.67,2.67,0,1,0,0,5.33h0a2.67,2.67,0,1,0,0-5.33Z"/><g class="cls-11"><polygon class="cls-10" points="469.86 289.38 465.86 284.44 465.86 73.26 490.86 113.18 490.86 4 491.86 4 491.86 116.66 466.86 76.74 466.86 284.38 468.86 286.88 468.86 84.66 493.86 124.69 493.86 5 494.86 5 494.86 128.18 469.86 88.15 469.86 289.38"/><polygon class="cls-10" points="475.86 296.12 471.86 291 471.86 96.23 496.86 136.87 496.86 5 497.86 5 497.86 140.4 472.86 99.77 472.86 290.63 474.86 293.13 474.86 108.2 499.86 149.75 499.86 4 500.86 4 500.86 153.35 475.86 111.8 475.86 296.12"/><polygon class="cls-10" points="481.86 303.12 477.86 297.5 477.86 119.18 502.86 161.18 502.86 8 503.86 8 503.86 164.82 478.86 122.82 478.86 296.88 481.17 299.88 480.86 130.15 505.86 173.15 505.86 6 506.86 6 506.86 176.85 481.86 133.85 481.86 303.12"/><polygon class="cls-10" points="487.86 309.12 483.86 304.12 483.86 143.2 508.86 184.7 508.86 1 509.86 1 509.86 188.3 484.86 146.8 484.86 303.88 486.86 306.47 486.86 154.17 511.86 196.42 511.86 0 512.86 0 512.86 200.08 487.86 157.83 487.86 309.12"/><polygon class="cls-10" points="493.86 315.12 489.86 310.12 489.86 165.15 514.86 207.91 514.86 2 515.86 2 515.86 211.6 490.86 168.84 490.86 309.88 492.86 312.09 492.86 178 492.86 176.63 493.84 178.25 517.86 219.9 517.86 0 518.86 0 518.86 223.63 493.86 180.27 493.86 315.12"/></g><path class="cls-10" d="M507.1,386.5a3.75,3.75,0,1,1,3.75-3.75A3.76,3.76,0,0,1,507.1,386.5Zm0-6.5a2.75,2.75,0,1,0,2.75,2.75A2.75,2.75,0,0,0,507.1,380Z"/><path class="cls-10" d="M498.1,271.5a3.75,3.75,0,1,1,3.75-3.75A3.76,3.76,0,0,1,498.1,271.5Zm0-6.5a2.75,2.75,0,1,0,2.75,2.75A2.75,2.75,0,0,0,498.1,265Z"/><path class="cls-10" d="M461.1,235.5a3.75,3.75,0,1,1,3.75-3.75A3.76,3.76,0,0,1,461.1,235.5Zm0-6.5a2.75,2.75,0,1,0,2.75,2.75A2.75,2.75,0,0,0,461.1,229Z"/><path class="cls-10" d="M275.1,276.5a3.75,3.75,0,1,1,3.75-3.75A3.76,3.76,0,0,1,275.1,276.5Zm0-6.5a2.75,2.75,0,1,0,2.75,2.75A2.75,2.75,0,0,0,275.1,270Z"/><path class="cls-10" d="M514.1,405.5a3.75,3.75,0,1,1,3.75-3.75A3.76,3.76,0,0,1,514.1,405.5Zm0-6.5a2.75,2.75,0,1,0,2.75,2.75A2.75,2.75,0,0,0,514.1,399Z"/><path class="cls-10" d="M554.1,365.5a3.75,3.75,0,1,1,3.75-3.75A3.76,3.76,0,0,1,554.1,365.5Zm0-6.5a2.75,2.75,0,1,0,2.75,2.75A2.75,2.75,0,0,0,554.1,359Z"/><path class="cls-10" d="M565.1,374.5a3.75,3.75,0,1,1,3.75-3.75A3.76,3.76,0,0,1,565.1,374.5Zm0-6.5a2.75,2.75,0,1,0,2.75,2.75A2.75,2.75,0,0,0,565.1,368Z"/><path class="cls-10" d="M272.1,577.5a3.75,3.75,0,1,1,3.75-3.75A3.76,3.76,0,0,1,272.1,577.5Zm0-6.5a2.75,2.75,0,1,0,2.75,2.75A2.75,2.75,0,0,0,272.1,571Z"/><path class="cls-10" d="M272.1,587.5a3.75,3.75,0,1,1,3.75-3.75A3.76,3.76,0,0,1,272.1,587.5Zm0-6.5a2.75,2.75,0,1,0,2.75,2.75A2.75,2.75,0,0,0,272.1,581Z"/><path class="cls-10" d="M272.1,600.5a3.75,3.75,0,1,1,3.75-3.75A3.76,3.76,0,0,1,272.1,600.5Zm0-6.5a2.75,2.75,0,1,0,2.75,2.75A2.75,2.75,0,0,0,272.1,594Z"/><path class="cls-10" d="M234.1,572.5a3.75,3.75,0,1,1,3.75-3.75A3.76,3.76,0,0,1,234.1,572.5Zm0-6.5a2.75,2.75,0,1,0,2.75,2.75A2.75,2.75,0,0,0,234.1,566Z"/><path class="cls-10" d="M423.1,542.5a3.75,3.75,0,1,1,3.75-3.75A3.76,3.76,0,0,1,423.1,542.5Zm0-6.5a2.75,2.75,0,1,0,2.75,2.75A2.75,2.75,0,0,0,423.1,536Z"/><path class="cls-10" d="M276.1,497.5a3.75,3.75,0,1,1,3.75-3.75A3.76,3.76,0,0,1,276.1,497.5Zm0-6.5a2.75,2.75,0,1,0,2.75,2.75A2.75,2.75,0,0,0,276.1,491Z"/><path class="cls-10" d="M263.1,493.5a3.75,3.75,0,1,1,3.75-3.75A3.76,3.76,0,0,1,263.1,493.5Zm0-6.5a2.75,2.75,0,1,0,2.75,2.75A2.75,2.75,0,0,0,263.1,487Z"/><polygon class="cls-10" points="189.91 479.26 204.9 479.6 214.85 489.56 199.87 489.23 199.89 489.21 199.9 504.51 189.94 494.56 189.94 479.23 189.91 479.26"/><polygon class="cls-10" points="209.51 498.87 224.5 499.21 234.45 509.16 219.48 508.83 219.5 508.81 219.5 524.12 209.55 514.16 209.54 498.84 209.51 498.87"/><polygon class="cls-10" points="229.11 518.47 244.1 518.81 254.06 528.77 239.08 528.44 239.1 528.42 239.11 543.72 229.15 533.76 229.14 518.44 229.11 518.47"/><polygon class="cls-10" points="248.72 538.07 263.7 538.41 273.66 548.37 258.69 548.04 258.7 548.02 258.71 563.32 248.75 553.37 248.75 538.04 248.72 538.07"/><polygon class="cls-10" points="499.38 243.79 511.36 244.07 519.32 252.03 507.34 251.76 507.36 251.75 507.36 263.98 499.4 256.02 499.4 243.77 499.38 243.79"/><polygon class="cls-10" points="515.05 259.46 527.03 259.74 534.99 267.7 523.01 267.43 523.03 267.42 523.03 279.65 515.08 271.69 515.07 259.44 515.05 259.46"/><polygon class="cls-10" points="530.72 275.13 542.7 275.41 550.66 283.37 538.68 283.1 538.7 283.09 538.71 295.32 530.75 287.36 530.74 275.11 530.72 275.13"/><polygon class="cls-10" points="218.87 538.54 227.65 538.74 233.48 544.57 224.71 544.38 224.72 544.37 224.72 553.33 218.89 547.5 218.88 538.52 218.87 538.54"/><polygon class="cls-10" points="230.35 550.02 239.13 550.22 244.96 556.05 236.19 555.86 236.2 555.85 236.21 564.82 230.37 558.98 230.37 550 230.35 550.02"/><polygon class="cls-10" points="253.32 572.99 262.1 573.19 267.93 579.02 259.16 578.83 259.17 578.82 259.17 587.78 253.34 581.95 253.34 572.97 253.32 572.99"/><polygon class="cls-10" points="298.86 648.94 298.86 624.21 274.25 599.6 274.96 598.9 299.86 623.79 299.86 646.56 314.86 631.79 314.86 605 292.65 605 274.13 586.86 274.83 586.14 293.06 604 315.86 604 315.86 632.21 298.86 648.94"/><g class="cls-12"><path class="cls-10" d="M187.1,222.5a3.75,3.75,0,1,1,3.75-3.75A3.76,3.76,0,0,1,187.1,222.5Zm0-6.5a2.75,2.75,0,1,0,2.75,2.75A2.75,2.75,0,0,0,187.1,216Z"/><path class="cls-10" d="M187.1,213.5a3.75,3.75,0,1,1,3.75-3.75A3.76,3.76,0,0,1,187.1,213.5Zm0-6.5a2.75,2.75,0,1,0,2.75,2.75A2.75,2.75,0,0,0,187.1,207Z"/><path class="cls-10" d="M187.1,205.5a3.75,3.75,0,1,1,3.75-3.75A3.76,3.76,0,0,1,187.1,205.5Zm0-6.5a2.75,2.75,0,1,0,2.75,2.75A2.75,2.75,0,0,0,187.1,199Z"/><path class="cls-10" d="M187.1,197.5a3.75,3.75,0,1,1,3.75-3.75A3.76,3.76,0,0,1,187.1,197.5Zm0-6.5a2.75,2.75,0,1,0,2.75,2.75A2.75,2.75,0,0,0,187.1,191Z"/><path class="cls-10" d="M187.1,189.5a3.75,3.75,0,1,1,3.75-3.75A3.76,3.76,0,0,1,187.1,189.5Zm0-6.5a2.75,2.75,0,1,0,2.75,2.75A2.75,2.75,0,0,0,187.1,183Z"/><path class="cls-10" d="M187.1,181.5a3.75,3.75,0,1,1,3.75-3.75A3.76,3.76,0,0,1,187.1,181.5Zm0-6.5a2.75,2.75,0,1,0,2.75,2.75A2.75,2.75,0,0,0,187.1,175Z"/><path class="cls-10" d="M187.1,173.5a3.75,3.75,0,1,1,3.75-3.75A3.76,3.76,0,0,1,187.1,173.5Zm0-6.5a2.75,2.75,0,1,0,2.75,2.75A2.75,2.75,0,0,0,187.1,167Z"/><path class="cls-10" d="M187.1,165.5a3.75,3.75,0,1,1,3.75-3.75A3.76,3.76,0,0,1,187.1,165.5Zm0-6.5a2.75,2.75,0,1,0,2.75,2.75A2.75,2.75,0,0,0,187.1,159Z"/><path class="cls-10" d="M187.1,157.5a3.75,3.75,0,1,1,3.75-3.75A3.76,3.76,0,0,1,187.1,157.5Zm0-6.5a2.75,2.75,0,1,0,2.75,2.75A2.75,2.75,0,0,0,187.1,151Z"/><path class="cls-10" d="M187.1,149.5a3.75,3.75,0,1,1,3.75-3.75A3.76,3.76,0,0,1,187.1,149.5Zm0-6.5a2.75,2.75,0,1,0,2.75,2.75A2.75,2.75,0,0,0,187.1,143Z"/><path class="cls-10" d="M187.1,141.5a3.75,3.75,0,1,1,3.75-3.75A3.76,3.76,0,0,1,187.1,141.5Zm0-6.5a2.75,2.75,0,1,0,2.75,2.75A2.75,2.75,0,0,0,187.1,135Z"/><rect class="cls-10" x="122.77" y="-11.97" width="1" height="172.77" transform="translate(-16.52 108.96) rotate(-45)"/><rect class="cls-10" x="234.31" y="121.32" width="1" height="129.28" transform="translate(-62.72 220.5) rotate(-45)"/><rect class="cls-10" x="120.77" y="-8.8" width="1" height="178.42" transform="translate(-21.34 109.3) rotate(-45)"/><rect class="cls-10" x="232.38" y="130.3" width="1" height="123.45" transform="translate(-67.57 220.91) rotate(-45)"/><rect class="cls-10" x="118.9" y="-5.68" width="1" height="184.44" transform="translate(-26.22 109.77) rotate(-45)"/><rect class="cls-10" x="230.08" y="139.16" width="1" height="117.13" transform="translate(-72.28 220.96) rotate(-45)"/><rect class="cls-10" x="116.8" y="-2.47" width="1" height="189.83" transform="translate(-31.01 110.02) rotate(-45)"/><rect class="cls-10" x="227.95" y="148.13" width="1" height="110.95" transform="translate(-77.05 221.17) rotate(-45)"/><rect class="cls-10" x="114.8" y="0.7" width="1" height="195.49" transform="translate(-35.84 110.37) rotate(-45)"/><rect class="cls-10" x="225.7" y="156.8" width="1" height="105.11" transform="translate(-81.78 221.27) rotate(-45)"/><rect class="cls-10" x="112.93" y="3.82" width="1" height="201.5" transform="translate(-40.72 110.83) rotate(-45)"/><rect class="cls-10" x="223.58" y="165.77" width="1" height="98.91" transform="translate(-86.56 221.49) rotate(-45)"/><rect class="cls-10" x="110.8" y="7.05" width="1" height="206.8" transform="translate(-45.5 111.05) rotate(-45)"/><rect class="cls-10" x="221.42" y="174.57" width="1" height="92.99" transform="translate(-91.32 221.67) rotate(-45)"/><rect class="cls-10" x="108.83" y="10.21" width="1" height="212.54" transform="translate(-50.34 111.42) rotate(-45)"/><rect class="cls-10" x="219.38" y="183.68" width="1" height="86.7" transform="translate(-96.13 221.97) rotate(-45)"/><rect class="cls-10" x="106.83" y="13.38" width="1" height="218.2" transform="translate(-55.17 111.77) rotate(-45)"/><rect class="cls-10" x="217.28" y="192.64" width="1" height="80.58" transform="translate(-100.92 222.22) rotate(-45)"/><rect class="cls-10" x="104.8" y="16.56" width="1" height="223.77" transform="translate(-59.98 112.08) rotate(-45)"/><rect class="cls-10" x="215.1" y="201.63" width="1" height="74.24" transform="translate(-105.67 222.38) rotate(-45)"/><rect class="cls-10" x="101.74" y="15.93" width="1" height="234.91" transform="translate(-64.37 111.36) rotate(-45)"/><rect class="cls-10" x="213.19" y="211.13" width="1" height="67.41" transform="translate(-110.54 222.81) rotate(-45)"/></g><g class="cls-13"><polygon class="cls-10" points="580.86 525 579.86 525 579.86 393.83 590.86 379.83 590.86 312.2 580.86 301.95 580.86 254.79 662.75 172.9 663.46 173.6 581.86 255.21 581.86 301.55 591.86 311.8 591.86 380.17 580.86 394.17 580.86 525"/></g><g class="cls-13"><polygon class="cls-10" points="509.25 716.85 459.86 667.21 459.86 614.29 492.63 581.52 518.88 578.77 557.65 540 586.89 540 605.86 520.79 605.86 496.96 591.86 483.21 591.86 422 592.86 422 592.86 482.79 606.86 496.54 606.86 521.21 587.31 541 558.06 541 519.33 579.73 493.08 582.48 460.86 614.71 460.86 666.79 509.96 716.15 509.25 716.85"/></g><g class="cls-13"><polygon class="cls-10" points="217.96 794.1 217.25 793.4 240.85 769.79 240.85 742.04 255.85 726.79 255.85 627.33 156.85 528.21 156.85 493.79 180.85 470.04 180.85 415.2 164.85 398.95 164.85 332 165.85 332 165.85 398.55 181.85 414.8 181.85 470.46 157.85 494.21 157.85 527.79 256.86 626.92 256.86 727.21 241.85 742.46 241.85 770.21 217.96 794.1"/></g><g class="cls-13"><polygon class="cls-10" points="164 366.36 80.86 283.71 80.86 230.21 19 168.1 19.71 167.4 81.86 229.79 81.86 283.29 164.71 365.64 164 366.36"/></g><g class="cls-13"><polygon class="cls-10" points="158.85 396 157.85 396 157.85 373.21 113.4 329 95.65 329 67.4 301 51.65 301 8.25 257.6 8.96 256.9 52.06 300 67.81 300 96.06 328 113.81 328 158.85 372.79 158.85 396"/></g><g class="cls-13"><polygon class="cls-10" points="83.25 302.6 69.65 289 54.9 289 29.86 264.21 29.86 235.21 0 205.23 0.71 204.52 30.86 234.79 30.86 263.79 55.31 288 70.06 288 83.96 301.9 83.25 302.6"/></g><g class="cls-13"><polygon class="cls-10" points="228.96 799.1 228.25 798.4 277.86 748.79 277.86 706.96 248.85 678.21 248.85 606.46 136.85 494.21 136.85 456.8 137 456.65 155.85 437.55 155.85 411.21 95.9 351 80.65 351 54.25 324.6 54.96 323.9 81.06 350 96.31 350 96.46 350.15 156.85 410.79 156.85 437.95 156.71 438.1 137.85 457.2 137.85 493.79 249.85 606.04 249.85 677.79 278.86 706.54 278.86 749.21 228.96 799.1"/></g><g class="cls-13"><polygon class="cls-10" points="164.63 344.35 146.06 325.85 91.86 271.71 91.86 205.8 120.86 234.55 120.86 210.21 81.25 170.6 81.96 169.9 121.86 209.79 121.86 236.95 92.86 208.2 92.86 271.29 146.77 325.15 165.33 343.65 164.63 344.35"/></g><g class="cls-13"><polygon class="cls-10" points="66.86 277 65.86 277 65.86 239.21 16.75 190.1 17.46 189.4 66.86 238.79 66.86 277"/></g><g class="cls-13"><polygon class="cls-10" points="173.85 332.12 137.85 296.21 137.85 280.21 91.71 234.19 92.42 233.48 138.85 279.79 138.85 295.79 172.85 329.71 172.85 308.79 207.56 274.08 79.27 145.79 79.98 145.08 208.98 274.08 173.85 309.21 173.85 332.12"/></g><g class="cls-13"><polygon class="cls-10" points="195.96 763.1 195.25 762.4 201.85 755.79 201.85 736.54 242.85 695.79 242.85 623.71 201.65 582 142.65 582 98.86 538.46 98.86 400.21 35.94 337.61 36.65 336.89 99.86 399.79 99.86 538.04 143.06 581 202.06 581 243.85 623.29 243.85 696.21 202.85 736.96 202.85 756.21 195.96 763.1"/></g><g class="cls-13"><path class="cls-10" d="M147.1,554a6.75,6.75,0,1,1,6.75-6.75A6.76,6.76,0,0,1,147.1,554Zm0-12.5a5.75,5.75,0,1,0,5.75,5.75A5.76,5.76,0,0,0,147.1,541.5Z"/></g><g class="cls-13"><path class="cls-10" d="M133.1,540a6.75,6.75,0,1,1,6.75-6.75A6.76,6.76,0,0,1,133.1,540Zm0-12.5a5.75,5.75,0,1,0,5.75,5.75A5.76,5.76,0,0,0,133.1,527.5Z"/></g><g class="cls-13"><path class="cls-10" d="M119.1,526a6.75,6.75,0,1,1,6.75-6.75A6.76,6.76,0,0,1,119.1,526Zm0-12.5a5.75,5.75,0,1,0,5.75,5.75A5.76,5.76,0,0,0,119.1,513.5Z"/></g><g class="cls-13"><polygon class="cls-10" points="540.25 800.6 506.86 767.21 506.86 733.46 469.86 696.21 469.86 612 470.86 612 470.86 695.79 507.86 733.04 507.86 766.79 540.96 799.9 540.25 800.6"/></g><g class="cls-13"><polygon class="cls-10" points="600.86 477 599.86 477 599.86 351.8 660.86 289.8 660.86 253.79 733.25 181.4 733.96 182.1 661.86 254.21 661.86 290.2 600.86 352.2 600.86 477"/></g><g class="cls-13"><polygon class="cls-10" points="587.86 369 586.86 369 586.86 282.79 630.4 239 657.65 239 680.86 216.04 680.86 193.79 710.75 163.9 711.46 164.6 681.86 194.21 681.86 216.46 658.06 240 630.81 240 587.86 283.21 587.86 369"/></g><g class="cls-13"><polygon class="cls-10" points="595.86 373 594.86 373 594.86 344.79 595 344.64 648.9 291 674.65 291 700.25 265.4 700.96 266.1 675.06 292 649.31 292 595.86 345.21 595.86 373"/></g><g class="cls-13"><path class="cls-10" d="M617.85,384.21V359.79l18-18v24.42Zm1-24v21.58l16-16V344.21Z"/></g><g class="cls-13"><path class="cls-10" d="M617.85,419.21V394.79l18-18v24.42Zm1-24v21.58l16-16V379.21Z"/></g><g class="cls-13"><path class="cls-10" d="M617.85,454.21V429.79l18-18v24.42Zm1-24v21.58l16-16V414.21Z"/></g><g class="cls-13"><polygon class="cls-10" points="477.86 782 476.86 782 476.86 745.54 494.86 727.79 494.86 623.54 495 623.4 568.65 550 603.14 550 651.86 500.79 651.86 351.79 681.9 322 699.65 322 745 276.58 745.71 277.29 700.06 323 682.31 323 652.86 352.21 652.86 501.21 652.71 501.35 603.56 551 569.06 551 495.86 623.96 495.86 728.21 477.86 745.96 477.86 782"/></g><g class="cls-13"><polygon class="cls-10" points="451.86 200 318.65 200 318.5 199.85 270.4 152 243.65 152 189.25 97.6 189.96 96.9 244.06 151 270.81 151 270.96 151.15 319.06 199 450.86 199 450.86 165.21 431.86 145.96 431.86 116.79 447.86 101.04 447.86 85 448.86 85 448.86 101.46 432.86 117.21 432.86 145.54 451.86 164.79 451.86 200"/></g><g class="cls-13"><polygon class="cls-10" points="298 203.48 263.86 169.21 263.86 137.21 245.4 119 224.65 119 196.25 90.6 196.96 89.9 225.06 118 245.81 118 264.86 136.79 264.86 168.79 298.71 202.77 298 203.48"/></g><g class="cls-13"><polygon class="cls-10" points="443.86 189 413.64 189 401.89 177 366.06 177 354.81 188 325.86 188 325.86 187 354.4 187 365.65 176 402.31 176 414.06 188 443.86 188 443.86 189"/></g><g class="cls-13"><polygon class="cls-10" points="549.86 338 548.86 338 548.86 299.05 564.86 282.8 564.86 246.96 541.86 224.21 541.86 82 542.86 82 542.86 223.79 565.86 246.54 565.86 283.2 549.86 299.45 549.86 338"/></g><g class="cls-14"><g class="cls-14"><circle class="cls-15" cx="564.41" cy="369.58" r="115.77" transform="translate(-53.03 97.7) rotate(-9.45)"/></g></g><g class="cls-16"><g class="cls-16"><path class="cls-17" d="M459.17,762.58a93.77,93.77,0,1,1-93.76-93.76A93.76,93.76,0,0,1,459.17,762.58Z"/></g></g><g class="cls-18"><g class="cls-18"><circle class="cls-19" cx="234.41" cy="283.58" r="80.77" transform="translate(-32.96 30.84) rotate(-7.03)"/></g></g></g></g></g></svg>