<svg xmlns="http://www.w3.org/2000/svg" viewBox="0 0 281.04 248.72"><defs><style>.cls-1{isolation:isolate;}.cls-2{opacity:0.7;}.cls-3,.cls-5,.cls-7{mix-blend-mode:color-dodge;}.cls-4,.cls-7{fill:#c0491d;}.cls-5,.cls-6{fill:#3ec2b0;}</style></defs><title>资源 4</title><g class="cls-1"><g id="图层_2" data-name="图层 2"><g id="Layer_1" data-name="Layer 1"><g class="cls-2"><g class="cls-3"><path class="cls-4" d="M160.33,181.6a53.67,53.67,0,0,1-11.88-1.32l2.22-9.79a43.61,43.61,0,0,0,31.43-4.75l5,8.68A53.51,53.51,0,0,1,160.33,181.6Zm-26.74-7.15a53.39,53.39,0,0,1-24.43-30.56l9.59-3a43.45,43.45,0,0,0,19.85,24.83Zm66-10-7.36-6.83a43.34,43.34,0,0,0,11.61-29.58V128h10v.11A53.39,53.39,0,0,1,199.59,164.47Zm-92.81-36.24v-.17A53.36,53.36,0,0,1,121,91.69l7.36,6.82A43.3,43.3,0,0,0,116.82,128v.13h-5.37Zm95.11-13.09A43.43,43.43,0,0,0,182,90.33l5-8.7a53.39,53.39,0,0,1,24.45,30.53ZM138.52,90.4l-5-8.68a53.59,53.59,0,0,1,26.85-7.21h0a53.86,53.86,0,0,1,11.82,1.31l-2.21,9.79a44.15,44.15,0,0,0-9.61-1.06h0A43.46,43.46,0,0,0,138.52,90.4Z"/></g><path class="cls-5" d="M234.82,128.06c0-1.3,0-2.59-.1-3.88l46.32-3-.33-4.36c0-.72-.13-1.55-.27-2.55l-.46-3.64c-.05-.39-.1-.8-.17-1.22l-.52-2.93c-.17-1-.35-2-.56-3.06l-1-4.51a120.69,120.69,0,0,0-7.26-20.85,122,122,0,0,0-12.8-21.79,120.76,120.76,0,0,0-17-18.64,122.67,122.67,0,0,0-17.75-13.1l-4-2.29c-.88-.52-1.73-1-2.56-1.37-.39-.2-.78-.39-1.15-.59-1.95-1-3.71-1.82-5.26-2.52l-.89-.4c-1.32-.62-2.44-1.06-3.34-1.41l-.72-.29-2.38-.93L186,58.1l.27.11c-2-.73-4-1.38-6-1.94L192,11.4l-.91-.29s-.5-.15-1.3-.33L186.56,10l-.68-.16c-.48-.11-1-.23-1.53-.33l-5.07-.91c-.62-.11-1.24-.19-1.85-.27l-.9-.11c-3.37-.49-6.71-.72-9.39-.9l-6.4-.21-.53,46.43h0a74.48,74.48,0,0,0-74.41,74.36l-46.42.54.14,5.65.06.76c.18,2.68.41,6,.9,9.37,0,.3.08.6.11.91.08.6.16,1.23.27,1.84l.91,5.09c.1.53.22,1,.33,1.52.06.24.11.46.16.69l.75,3.24c.18.82.33,1.29.33,1.31l.29.92L88.53,148l-.25-1,0-.06c.39,1.48.82,2.94,1.3,4.38l-43.89,15.1.81,2.38c.21.68.54,1.5,1,2.53q.28.73.63,1.59a117,117,0,0,0,6.73,14.11,119.66,119.66,0,0,0,12.46,18.18,121.95,121.95,0,0,0,39.4,31.17,118.78,118.78,0,0,0,20.58,7.94c2.4.73,4.71,1.25,6.75,1.71l1.86.43.62.11c2.33.43,4.35.81,6.08,1.06l5.49.7,1.37.1,4.54-46.19c2.1.18,4.23.28,6.39.28,1.45,0,2.89-.05,4.32-.13l3.26,46.3,4-.31c.29,0,.61,0,1-.08l5.35-.68a125.39,125.39,0,0,0,20-4.74,118.86,118.86,0,0,0,18.85-8c.87-.43,1.68-.89,2.39-1.31l1-.56,2.56-1.48,3-1.9L201,190.44c.85-.56,1.7-1.13,2.52-1.72l26.9,36.6.57.78.8-.55s.4-.27,1.08-.78l4.4-3.47,3.89-3.36c.47-.41.93-.84,1.37-1.26.21-.22.44-.43.67-.65l.66-.62c1.1-1,2.23-2.13,3.22-3.2l1.11-1.16c.78-.81,1.51-1.58,2.14-2.31l3.68-4.25-35.72-29.65-.61.7q1.46-1.75,2.8-3.6l37.84,26.87,2.08-2.93.11-.17c.89-1.36,2.11-3.22,3.51-5.51a121.22,121.22,0,0,0,9-18.44A125.63,125.63,0,0,0,278.86,152l.66-3.73c.22-1.21.38-2.14.47-2.93l.45-3.52-46.07-5.64A75.78,75.78,0,0,0,234.82,128.06ZM203.74,17.36l.47.18.74.3c.87.34,2,.76,3.23,1.36l.91.41c1.52.68,3.25,1.46,5.14,2.46.38.21.78.41,1.19.61.8.41,1.62.83,2.44,1.31l4,2.28a121.45,121.45,0,0,1,17.44,12.89A118.73,118.73,0,0,1,256,57.48,119.23,119.23,0,0,1,275.74,99.4l1,4.46c.21,1,.39,2,.56,3l.51,2.92c.06.38.11.76.16,1.13l.47,3.65c.12,1,.21,1.75.25,2.43l.18,2.35-42.32,2.72-.09-1.1a15.4,15.4,0,0,0-.17-1.65l-.25-1.94c0-.12,0-.25,0-.37s-.06-.5-.11-.77l-.68-3.79-.66-2.83A76.15,76.15,0,0,0,230,96.46a77.19,77.19,0,0,0-8.08-13.78A74.7,74.7,0,0,0,211.1,70.86a78.87,78.87,0,0,0-11.25-8.32l-2.49-1.42a15.81,15.81,0,0,0-1.55-.83c-.28-.14-.55-.27-.8-.41-1.11-.61-2.14-1.07-3-1.47l-.82-.37c-.81-.4-1.5-.66-2.06-.88l-.5-.19ZM234,116.64c0-.08,0-.16,0-.24l0,.16S234,116.61,234,116.64Zm-.66-3.69-.09-.39.07.28Zm-14-30.36-.28-.36Zm-.83-1c-.22-.29-.45-.57-.68-.85C218.06,81,218.28,81.25,218.5,81.54Zm-.88-1.09-1-1.14Zm-18.7-16.12-.37-.22.28.16Zm-3.16-1.81-.35-.19Zm-5.87-2.85-1-.43C189.19,59.36,189.52,59.5,189.89,59.67ZM162.73,9.2l3.52.09.75.06c2.65.18,5.95.41,9.24.88l.94.13c.61.07,1.18.14,1.74.25l5.06.9c.5.1,1,.21,1.44.32l.7.15,3.26.76.22,0-10.77,41L177,53.39l-.46-.11-.95-.21-3.17-.56c-.39-.08-.77-.12-1.15-.17l-.6-.07c-1.8-.27-3.58-.4-5.15-.52l-1.33-.1-1.91,0ZM179.3,56l-.81-.21.09,0c.4.08.64.16.65.16Zm-4-.93-.43-.09.3.06Zm-3.23-.59-.33-.05.25,0Zm-.43-.07-.32,0Zm-7.61-.76h0Zm-119,103.67c0-.08,0-.15-.05-.23l-.75-3.24c0-.23-.11-.46-.16-.7-.11-.46-.22-.95-.32-1.44l-.9-5.07c-.11-.57-.18-1.14-.25-1.74,0-.31-.08-.63-.13-.95-.47-3.27-.7-6.57-.88-9.22l-.14-4.28,42.4-.49.05,2c0,.4.06.83.09,1.28.12,1.56.25,3.34.52,5.12a83.42,83.42,0,0,0,1.55,8.22Zm40.87-25.5ZM48.39,168.21l-.18-.51,40.1-13.8c.12.4.3.85.51,1.37.15.35.31.74.47,1.17a72.82,72.82,0,0,0,4.25,8.91,74.78,74.78,0,0,0,7.89,11.52,77.57,77.57,0,0,0,25,19.75,74.3,74.3,0,0,0,13,5c1.33.42,2.63.71,3.77,1l1.61.38.08,0,1.77.31c.9.17,1.71.31,2.45.42l2.7.35-4.14,42.21-4.78-.61c-1.68-.25-3.68-.62-6-1l-.57-.11-1.84-.42c-2.1-.47-4.28-1-6.62-1.67a118.44,118.44,0,0,1-20.25-7.82,119.66,119.66,0,0,1-21-13.31A121.45,121.45,0,0,1,68.8,204a118.43,118.43,0,0,1-12.26-17.88,117,117,0,0,1-6.61-13.85m40.34-18.81.25.69C90.42,153.86,90.34,153.63,90.27,153.42Zm8.56,16.68c0,.08.11.15.16.22S98.88,170.18,98.83,170.1Zm1,1.36c.11.15.23.3.33.45C100,171.76,99.89,171.61,99.78,171.46Zm1,1.36.45.58Zm1.07,1.38.32.4C102.06,174.46,102,174.34,101.85,174.2Zm39,25.76.19.06Zm4,1,.5.11-.15,0Zm8.06,1.25h0Zm-42-24.68A69.92,69.92,0,1,1,160.33,198,69.46,69.46,0,0,1,110.89,177.5Zm85.26,15.88c-.12.07-.24.14-.37.2C195.91,193.52,196,193.45,196.15,193.38Zm-2,1.08c-1,.49-2,1-3,1.45C192.13,195.44,193.13,195,194.12,194.46Zm-25.78,7.66-.28,0H168Zm53.55,27.68-2.51,1.46c-.32.17-.66.37-1,.57-.72.41-1.45.84-2.3,1.26A116.78,116.78,0,0,1,197.52,241a123.3,123.3,0,0,1-19.61,4.67l-5.31.67-.87.07-2,.15-3-42.3.88-.06.62,0,3.37-.43a80.64,80.64,0,0,0,12.59-3,74.05,74.05,0,0,0,11.87-5.05c.55-.26,1-.56,1.48-.81.22-.14.44-.27.67-.39l1.26-.72.88-.54L223.16,229Zm-23-38-.26.15.4-.24Zm6.07-4.1.11-.09-.06,0Zm-.31.23.19-.14Zm3.29-2.59-.18.16-.13.1Zm10.63-7.71,32.63,27.09-2.34,2.7c-.59.69-1.31,1.44-2.07,2.23l-1.13,1.18c-1,1-2,2-3.13,3.12l-.66.61-.68.66c-.44.42-.86.82-1.29,1.19L236,219.76l-4.35,3.42-.19.15-25.12-34.18,2.66-2.09,2.43-2.12a10.88,10.88,0,0,0,.86-.79c.15-.14.29-.29.46-.44l.65-.62c.62-.59,1.26-1.19,1.82-1.81.28-.31.57-.6.84-.89.44-.45.86-.88,1.22-1.3Zm14.81-34.93,0,.17a.5.5,0,0,1,0,.12A2.93,2.93,0,0,0,233.37,142.71Zm2.38-1.92a17.08,17.08,0,0,0,.28-1.74l.07-.6,42.09,5.15-.19,1.54c-.08.75-.24,1.64-.45,2.82l-.67,3.7A122.47,122.47,0,0,1,271.19,171a119.75,119.75,0,0,1-8.84,18.12c-1.38,2.25-2.6,4.1-3.48,5.45l-1,1.4-34.57-24.55.76-1.12c.51-.8,1.16-1.81,1.89-3a76.66,76.66,0,0,0,5.69-11.64,81.54,81.54,0,0,0,3.66-12.44ZM234,139.25s0-.08,0-.12S234,139.21,234,139.25Z"/><g class="cls-3"><path class="cls-4" d="M160.37,169.4h-.67l.06-4.68h.57Zm10-1.24-1.14-4.54.58-.15,1.21,4.52ZM149.67,168l-.65-.18,1.28-4.5.58.15Zm30.77-3.83-2.29-4.08.53-.3,2.34,4Zm-40.74-.29-.58-.34,2.4-4,.52.3Zm49.39-6.14-3.26-3.36.43-.42,3.31,3.31Zm-58-.42-.47-.48,3.36-3.27.43.43Zm64.66-8-4-2.42.3-.51,4,2.34C196,148.92,195.91,149.12,195.79,149.31Zm-71.23-.52-.34-.59,4.09-2.28c.1.17.2.34.29.52Zm75.53-9.39-4.5-1.28.15-.58,4.53,1.21Zm-79.68-.58c-.06-.21-.12-.43-.17-.64l4.54-1.15.15.59Zm81.25-10.09-4.68-.07c0-.2,0-.4,0-.6v-.15h4.68v.15C201.67,128.28,201.67,128.51,201.66,128.73Zm-82.67-.6v-.67l4.69.07c0,.17,0,.35,0,.53ZM195.86,119l-.15-.58,4.52-1.23c.06.22.11.44.17.65Zm-71-.38-4.53-1.19c.06-.23.13-.45.19-.67l4.5,1.29C125,118.26,124.94,118.45,124.89,118.64Zm67.42-8.5-.29-.52,4-2.36.34.59Zm-63.78-.34-4-2.34c.11-.19.22-.39.34-.58l4,2.4Zm58.05-7.32-.42-.43,3.3-3.32.48.49Zm-52.23-.28L131,98.89l.48-.47,3.26,3.36Zm44.73-5.65-.52-.3,2.33-4.06.59.34Zm-37.16-.2-2.36-4,.59-.33,2.29,4.08Zm28.37-3.58-.58-.16,1.19-4.53.66.18Zm-19.55-.1-1.22-4.52.65-.17,1.15,4.54Zm10.08-1.26h-.6V86.72h.66Z"/></g><g class="cls-3"><path class="cls-6" d="M160.33,195.82l-1.65,0,0-1.26c2.2.05,4.44,0,6.63-.17l.09,1.26C163.75,195.75,162,195.81,160.33,195.82Zm-15-1.68a66.84,66.84,0,0,1-6.51-1.82l.4-1.19c2.09.69,4.24,1.29,6.38,1.78Zm33.41-.85-.34-1.21c2.12-.6,4.23-1.31,6.28-2.11l.47,1.17C183,192,180.87,192.68,178.71,193.29Zm-52.22-6.52c-1.94-1.12-3.85-2.35-5.67-3.66l.74-1c1.78,1.28,3.66,2.49,5.56,3.59Zm70.62-1.8-.68-1.06A65.15,65.15,0,0,0,201.8,180l.79,1C200.83,182.43,199,183.75,197.11,185Zm-86.4-10.78a66.47,66.47,0,0,1-4.35-5.17l1-.76c1.33,1.75,2.77,3.45,4.27,5.07Zm101.53-2.59-1-.81c1.41-1.69,2.76-3.47,4-5.28l1,.71A66.13,66.13,0,0,1,212.24,171.6ZM99.3,157.52a66.58,66.58,0,0,1-2.63-6.22l1.18-.43c.76,2.07,1.62,4.12,2.58,6.1Zm123.48-3.15-1.16-.48a66.27,66.27,0,0,0,2.27-6.23l1.2.37A64.88,64.88,0,0,1,222.78,154.37ZM93.33,138.23c-.33-2.21-.55-4.47-.67-6.71l1.26-.07c.11,2.2.33,4.42.66,6.6Zm134.42-3.42-1.25-.13c.21-2.18.32-4.41.32-6.62v-.15h1.26v.14C228.08,130.31,228,132.58,227.75,134.81ZM94.56,118.23,93.32,118a64.59,64.59,0,0,1,1.32-6.62l1.22.31A65,65,0,0,0,94.56,118.23Zm130.93-3.49c-.44-2.16-1-4.32-1.65-6.42L225,108a66.7,66.7,0,0,1,1.68,6.54ZM100.37,99.29l-1.13-.55a66.54,66.54,0,0,1,3.22-5.93l1.08.65A64.35,64.35,0,0,0,100.37,99.29Zm118.3-3.15a65.09,65.09,0,0,0-3.47-5.64l1-.72c1.27,1.85,2.46,3.79,3.54,5.75ZM111.52,82.9l-.92-.85a67.18,67.18,0,0,1,4.83-4.72l.84.94C114.62,79.73,113,81.29,111.52,82.9Zm95.14-2.53c-1.57-1.53-3.25-3-5-4.38l.78-1a67.08,67.08,0,0,1,5.07,4.46ZM127,70.52l-.64-1.09c2-1.13,4-2.17,6-3.1l.51,1.15A65.36,65.36,0,0,0,127,70.52Zm63.56-1.7c-2-1-4-1.91-6.05-2.71l.46-1.18c2.09.82,4.16,1.75,6.16,2.77Zm-45.13-5.57L145.14,62c2.19-.5,4.42-.89,6.65-1.18l.16,1.25C149.76,62.37,147.57,62.76,145.43,63.25Zm26.33-.7a65.45,65.45,0,0,0-6.57-.8l.09-1.26c2.23.16,4.49.44,6.7.82Z"/></g><g class="cls-3"><path class="cls-6" d="M60.26,128.06h-.67A100.85,100.85,0,0,1,160.33,27.32V28A100.18,100.18,0,0,0,60.26,128.06Z"/></g><g class="cls-3"><path class="cls-6" d="M83.81,128.06h-.67a77.27,77.27,0,0,1,77.19-77.19v.67A76.6,76.6,0,0,0,83.81,128.06Z"/></g><g class="cls-3"><path class="cls-6" d="M79.26,126.24l-15.69-.37,0-2.06c0-.48,0-1,.06-1.31l.06-.75,15.66,1-.05.67c0,.29,0,.68,0,1.08Zm-15.35-.7,15,.36,0-1.42c0-.41,0-.81,0-1.11l0-.32-15-.94,0,.42a12.16,12.16,0,0,0-.06,1.29Z"/><path class="cls-6" d="M100.1,74,88.29,63.4l.1-.12s.15-.19.4-.45l2.32-2.43.12.12,11.12,10.83-2,2.06-.28.32ZM88.75,63.37,99.91,73.43l.23-.25,1.74-1.82L91.12,60.87,89,63.06Z"/><path class="cls-6" d="M85,97.86l-.16-.06L70.49,92l.27-.71c0-.11.1-.23.15-.37s.22-.55.35-.84l.85-1.87,14.31,6.44-.73,1.6c-.11.23-.2.47-.28.69s-.09.22-.13.32ZM70.92,91.8l13.93,5.63.12-.31.13-.32a7.5,7.5,0,0,1,.29-.7L86,94.81l-13.7-6.17-.7,1.57c-.14.28-.25.57-.35.82l-.14.38Z"/><path class="cls-6" d="M79.49,121.67l-15.65-1.25.07-.91c0-.16,0-.33,0-.52,0-.4.07-.91.15-1.48l.35-2.79c0-.18,0-.36.07-.54,0-.34.09-.69.14-1l.29-1.62c.06-.35.13-.69.19-1,.13-.73.25-1.45.39-2.13l.63-2.75c.07-.28.13-.55.19-.79.1-.46.19-.86.28-1.16l.25-.89L82,106.83l-.22.77c-.07.24-.13.55-.22.91s-.1.46-.16.71l-.53,2.31c-.11.52-.2,1.06-.3,1.62-.06.34-.12.69-.19,1l-.24,1.36c0,.28-.08.57-.11.85l-.06.46-.3,2.35c-.07.46-.1.88-.12,1.22,0,.16,0,.31,0,.45ZM64.2,120.12l15,1.19,0-.46c0-.14,0-.28,0-.45,0-.34.05-.76.12-1.23l.31-2.35c0-.15,0-.31,0-.46s.07-.58.12-.87l.24-1.36c.07-.35.13-.69.19-1,.1-.56.19-1.11.3-1.63l.53-2.31.17-.71c.08-.37.15-.68.22-.93l.13-.45-14.51-3.89-.16.57c-.09.3-.17.69-.28,1.14,0,.25-.11.51-.18.79l-.63,2.75c-.14.67-.26,1.39-.4,2.12l-.18,1L65,113.2c0,.34-.09.69-.14,1s0,.37-.07.55l-.35,2.79c-.08.55-.12,1-.14,1.46,0,.19,0,.36-.05.51Z"/><path class="cls-6" d="M90.64,86.55,77.18,78.47l.08-.14s.13-.24.39-.66L78.72,76c.16-.23.31-.48.48-.74.32-.49.67-1.06,1.06-1.62L82.13,71c.46-.68,1-1.32,1.46-1.94l.5-.64.64-.81c.39-.51.77-1,1.12-1.39L87.75,64,99.53,74.38l-1.62,1.87c-.28.33-.57.71-.89,1.11-.18.24-.38.49-.58.74s-.29.38-.45.57c-.4.51-.81,1-1.19,1.58l-1.57,2.22c-.31.45-.59.88-.86,1.3-.14.24-.29.47-.43.68L91,85.86c-.21.33-.32.53-.32.53Zm-13-8.2,12.88,7.73.25-.4.9-1.41c.14-.21.29-.44.43-.67.27-.43.55-.87.86-1.32l1.58-2.22c.38-.56.79-1.08,1.2-1.59l.45-.58.58-.73c.32-.41.61-.79.9-1.13l1.4-1.62L87.79,64.49,86.1,66.43c-.34.41-.71.88-1.1,1.38l-.65.82-.5.64c-.48.61-1,1.25-1.44,1.92l-1.88,2.63c-.38.56-.72,1.1-1,1.61l-.48.75-1.07,1.67C77.8,78.07,77.69,78.24,77.63,78.35Z"/><path class="cls-6" d="M82.61,104.81l-15-4.52.13-.47c0-.07,0-.13.06-.21s.11-.39.2-.63l1-3c.24-.72.46-1.39.69-1.92l.49-1.25L84.8,98.46l-.43,1.09c-.18.41-.35,1-.54,1.51l-.9,2.64c-.07.19-.11.36-.15.51a1.21,1.21,0,0,0,0,.18ZM68,100.06l14.39,4.33,0-.1c0-.05,0-.11,0-.17s.1-.33.17-.53l.89-2.64c.19-.57.37-1.1.55-1.53l.31-.77-14-5.45-.38,1c-.21.52-.44,1.19-.68,1.9l-1,3a6.27,6.27,0,0,0-.18.61c0,.08,0,.15-.07.21Z"/><path class="cls-6" d="M86.64,94.14l-.15-.07L72.4,87.54,73,86.31c.2-.43.47-.94.75-1.48l.44-.86.45-.88c.27-.54.53-1,.76-1.45L76,80.46l.15.08,13.53,7.62-.59,1c-.18.32-.39.72-.6,1.15l-.41.79c-.13.27-.27.54-.4.8-.23.42-.43.82-.59,1.16Zm-13.8-6.76L86.47,93.7l.35-.76c.16-.34.36-.75.59-1.18.13-.25.27-.52.4-.79s.28-.53.41-.79c.22-.43.42-.84.61-1.17l.42-.72L76.16,80.91l-.51.89c-.23.4-.48.91-.75,1.44l-.46.88c-.14.29-.29.58-.44.86-.27.54-.54,1-.73,1.47Z"/><path class="cls-6" d="M103.62,70.08,103.5,70,92.67,58.84l2.43-2.32c.46-.44.5-.44.56-.44h.07l10.45,11.6-.14.11s-.15.12-.36.32ZM93.14,58.85l10.49,10.76,1.82-1.74.25-.23L95.64,56.48l-.31.28Z"/><path class="cls-6" d="M155,47.13l-1-15.66.76-.06c.34,0,.81-.05,1.31-.06l2-.05L158.52,47l-1.76,0a10.75,10.75,0,0,0-1.08,0Zm-.63-15.35.94,15,.32,0c.29,0,.69,0,1.11,0l1.42,0-.35-15-1.73.05a11.57,11.57,0,0,0-1.28.06Z"/><path class="cls-6" d="M127.61,53.83,121.3,39.46l.69-.31c.33-.15.76-.34,1.21-.51l1.91-.76,5.74,14.61-1.63.64c-.36.13-.69.28-1,.42Zm-5.87-14.2,6,13.75.3-.13a9.78,9.78,0,0,1,1-.43l1.32-.52-5.5-14-1.6.64c-.44.16-.87.35-1.19.5Z"/><path class="cls-6" d="M107,67,96.68,55.14l2.21-1.9,3.46-2.72L104.53,49l1.8-1.27,2.38-1.53c1.25-.82,2.17-1.34,2.34-1.44l.14-.08.09.14L119.13,58v.15l-.09.05c-.15.08-.91.51-2,1.2l-2,1.28-3.33,2.36-2.91,2.28Zm-9.83-11.8L107,66.51l1.63-1.41,2.92-2.29,3.34-2.37,2-1.28c.86-.57,1.53-1,1.83-1.13L111.08,45.1c-.34.19-1.14.66-2.19,1.35L106.52,48l-1.8,1.27-2.17,1.54L99.1,53.5Z"/><path class="cls-6" d="M139.52,49.64l0-.16-3.94-15,.35-.09.55-.15,1.93-.44.86-.2c.57-.14,1.23-.29,1.9-.42l3.18-.57c1-.21,2.06-.33,3.06-.46l2.93-.37,2.92-.23,1.16,15.65-2.47.19-2.56.33c-.8.1-1.63.2-2.45.36l-2.68.48-1.52.34-.78.18-1.63.38-.44.11ZM135.94,34.7l3.82,14.53a2.92,2.92,0,0,1,.46-.12l1.63-.37.77-.18c.48-.12,1-.24,1.54-.35l2.67-.47c.84-.17,1.67-.28,2.48-.37l2.54-.33,2.17-.17-1.11-15-2.57.2-2.93.37c-1,.13-2,.25-3,.46l-3.18.57c-.66.13-1.28.27-1.89.41l-.85.2-1.94.45a5.32,5.32,0,0,0-.53.14Z"/><path class="cls-6" d="M121,57.1l-7.59-13.73.43-.25a8.59,8.59,0,0,1,.77-.41L117,41.52c1-.54,1.79-.91,2.36-1.16l1.23-.56L127,54.1l-1.06.48c-.47.19-1.1.5-2,1l-2,1c-.24.12-.47.24-.63.34Zm-7.13-13.61,7.26,13.15.09,0c.17-.1.4-.23.65-.35l2-1c.88-.46,1.51-.77,2-1l.75-.34-6.21-13.68-.93.42c-.56.24-1.33.61-2.34,1.14L114.77,43c-.29.14-.55.28-.75.4Z"/><path class="cls-6" d="M131.35,52.29l-5.57-14.67,1.26-.5,2.49-.84.94-.32c.56-.19,1.1-.38,1.56-.5l1.3-.37,0,.16,4.35,14.9-1.13.32c-.36.1-.8.25-1.25.4l-.83.29-2.09.7Zm-5.14-14.48,5.34,14,.77-.31,2.09-.7.83-.28c.46-.16.9-.31,1.27-.41l.8-.23L133.1,35.5l-1,.28c-.45.12-1,.3-1.55.5l-.94.32-2.48.84Z"/></g><polygon class="cls-7" points="154.87 23.8 156.52 23.76 156.59 14.69 154.78 14.73 154.87 23.8"/><polygon class="cls-7" points="152.43 23.84 154.08 23.82 153.74 5.93 151.77 5.96 152.43 23.84"/><path class="cls-7" d="M150,24l.83-.07.56,0,.26,0L150.55.12l-.32,0-.71,0-1,.08Z"/><polygon class="cls-7" points="147.54 24.15 149.19 24.04 148.68 16.88 146.9 17 147.54 24.15"/><path class="cls-7" d="M145.1,24.41l.82-.1.57-.08.26,0-1-9.7a1.78,1.78,0,0,0-.28,0l-.62.08-.91.12Z"/><polygon class="cls-7" points="142.67 24.72 144.31 24.51 143.62 18.93 141.87 19.14 142.67 24.72"/><path class="cls-7" d="M140.25,25.11l.81-.15.56-.11.26,0-1.31-8.61a1.35,1.35,0,0,0-.28,0l-.61.11-.89.16Z"/><polygon class="cls-7" points="137.83 25.54 139.46 25.25 138.68 20.9 136.97 21.21 137.83 25.54"/><path class="cls-7" d="M135.42,26.05l.81-.19.56-.13a1.51,1.51,0,0,1,.25-.05l-1.23-6a1.73,1.73,0,0,0-.26.05l-.6.14-.86.21Z"/><polygon class="cls-7" points="133.02 26.61 134.64 26.24 132.12 15.39 130.31 15.81 133.02 26.61"/><path class="cls-7" d="M130.63,27.25l.8-.23.55-.16.26-.07L125.29,0,125,.08l-.71.21-1,.29Z"/><polygon class="cls-7" points="128.25 27.93 129.86 27.48 125.52 12.34 123.66 12.88 128.25 27.93"/><path class="cls-7" d="M125.9,28.7l.79-.28c.2-.06.39-.13.54-.19l.25-.08-3-9.7-.27.09-.6.21-.88.3Z"/><polygon class="cls-7" points="123.55 29.5 125.14 28.96 123.28 23.54 121.6 24.11 123.55 29.5"/><polygon class="cls-7" points="121.22 30.39 122.78 29.76 119.67 21.37 117.97 22.05 121.22 30.39"/><polygon class="cls-7" points="118.91 31.31 120.47 30.69 114.01 14.49 112.18 15.22 118.91 31.31"/><polygon class="cls-7" points="116.63 32.31 118.16 31.61 112.81 19.12 111.08 19.92 116.63 32.31"/><polygon class="cls-7" points="114.35 33.35 115.89 32.65 112.49 25.22 110.83 25.98 114.35 33.35"/><polygon class="cls-7" points="112.11 34.47 113.62 33.69 111.61 29.58 110.05 30.4 112.11 34.47"/><polygon class="cls-7" points="109.89 35.62 111.39 34.84 107.47 27.28 105.85 28.12 109.89 35.62"/><polygon class="cls-7" points="107.7 36.85 109.17 35.99 90.27 1.57 88.25 2.74 107.7 36.85"/><polygon class="cls-7" points="105.53 38.1 107 37.26 92.71 12.67 90.85 13.75 105.53 38.1"/><polygon class="cls-7" points="103.39 39.44 104.82 38.52 86.37 8.44 84.47 9.66 103.39 39.44"/><polygon class="cls-7" points="101.27 40.8 102.71 39.89 91.77 22.97 90.06 24.06 101.27 40.8"/><polygon class="cls-7" points="99.21 42.25 100.59 41.26 93.26 30.49 91.71 31.6 99.21 42.25"/><polygon class="cls-7" points="97.15 43.71 98.54 42.73 92.88 34.82 91.36 35.9 97.15 43.71"/><polygon class="cls-7" points="95.15 45.25 96.49 44.2 88.94 34.17 87.45 35.34 95.15 45.25"/><polygon class="cls-7" points="93.15 46.81 94.5 45.76 85.13 33.89 83.59 35.09 93.15 46.81"/><polygon class="cls-7" points="91.23 48.45 92.52 47.33 68.29 18.08 66.54 19.58 91.23 48.45"/><polygon class="cls-7" points="89.31 50.1 90.6 48.99 54.31 7.19 52.36 8.88 89.31 50.1"/><polygon class="cls-7" points="87.46 51.83 88.7 50.65 57.58 16.47 55.81 18.14 87.46 51.83"/><polygon class="cls-7" points="85.61 53.56 86.86 52.39 60.65 24.91 58.97 26.49 85.61 53.56"/><polygon class="cls-7" points="83.85 55.38 85.03 54.15 76.82 45.93 75.51 47.29 83.85 55.38"/><polygon class="cls-7" points="82.08 57.2 83.28 55.97 70.96 44.21 69.59 45.63 82.08 57.2"/><polygon class="cls-7" points="80.41 59.1 81.53 57.81 76.57 53.28 75.37 54.64 80.41 59.1"/><polygon class="cls-7" points="78.73 60.99 79.86 59.71 69.91 51.05 68.64 52.49 78.73 60.99"/><polygon class="cls-7" points="77.15 62.97 78.22 61.63 71.23 55.84 70.07 57.28 77.15 62.97"/><polygon class="cls-7" points="75.56 64.94 76.63 63.61 71.08 59.22 69.94 60.63 75.56 64.94"/><polygon class="cls-7" points="74.08 66.98 75.08 65.6 70.96 62.5 69.91 63.95 74.08 66.98"/><polygon class="cls-7" points="72.58 69.02 73.59 67.64 63.03 60.07 61.9 61.61 72.58 69.02"/><polygon class="cls-7" points="71.2 71.13 72.13 69.7 66.28 65.72 65.29 67.23 71.2 71.13"/><polygon class="cls-7" points="69.81 73.23 70.75 71.81 58.22 63.69 57.15 65.31 69.81 73.23"/><polygon class="cls-7" points="68.53 75.4 69.39 73.94 60.41 68.41 59.45 70.02 68.53 75.4"/><path class="cls-7" d="M67.24,77.56l.13-.23.3-.5.44-.73-4.23-2.46-.45.76-.31.53c-.09.14-.14.24-.14.24Z"/><polygon class="cls-7" points="66.07 79.78 66.86 78.28 59.48 74.22 58.62 75.83 66.07 79.78"/><path class="cls-7" d="M64.89,82a2.14,2.14,0,0,1,.12-.24c.07-.14.17-.33.28-.51l.39-.75-3.45-1.79s-.21.38-.41.77c-.11.19-.21.39-.29.53s-.12.25-.12.25Z"/><polygon class="cls-7" points="63.83 84.27 64.55 82.74 59.06 80.05 58.3 81.67 63.83 84.27"/><path class="cls-7" d="M62.76,86.53l.11-.24.25-.53.36-.76-8.77-4-.4.83-.27.58-.11.26Z"/><polygon class="cls-7" points="61.82 88.84 62.46 87.28 57.97 85.35 57.3 86.98 61.82 88.84"/><path class="cls-7" d="M60.87,91.15s0-.1.09-.25l.22-.53c.16-.39.33-.78.33-.78L47.47,84s-.19.45-.37.9c-.1.22-.19.44-.26.61l-.1.29Z"/><polygon class="cls-7" points="60.04 93.5 60.6 91.91 56.41 90.35 55.82 92 60.04 93.5"/><path class="cls-7" d="M59.21,95.84l.07-.25c.06-.15.13-.35.2-.54l.28-.79-7.35-2.54s-.16.42-.31.85c-.08.21-.15.42-.21.58l-.08.28Z"/><polygon class="cls-7" points="58.5 98.22 58.98 96.61 48.05 93.15 47.52 94.94 58.5 98.22"/><path class="cls-7" d="M57.79,100.59s0-.1.06-.25.11-.35.17-.55l.24-.8-7.47-2.17s-.14.44-.27.87c-.06.21-.13.43-.18.59l-.07.27Z"/><polygon class="cls-7" points="57.2 103 57.6 101.38 44.22 97.86 43.76 99.71 57.2 103"/><path class="cls-7" d="M56.61,105.4l0-.25.14-.56c.11-.41.21-.81.21-.81L37.59,99.2s-.12.49-.25,1c-.06.24-.12.49-.16.67s-.06.31-.06.31Z"/><polygon class="cls-7" points="56.15 107.82 56.47 106.19 42.99 103.37 42.63 105.24 56.15 107.82"/><path class="cls-7" d="M55.69,110.25s0-.1,0-.26.07-.36.12-.56c.07-.41.16-.82.16-.82l-23.37-4.26-.2,1c0,.26-.1.51-.14.7s0,.32,0,.32Z"/><polygon class="cls-7" points="55.35 112.69 55.58 111.04 35.87 107.97 35.59 109.96 55.35 112.69"/><path class="cls-7" d="M55,115.13s0-.11,0-.26.05-.36.08-.57l.12-.82L.34,106.37l-.18,1.3c0,.32-.09.65-.12.89S0,109,0,109Z"/><polygon class="cls-7" points="54.8 117.58 54.95 115.92 15.89 111.89 15.68 114.22 54.8 117.58"/><path class="cls-7" d="M54.59,120a2.18,2.18,0,0,1,0-.26c0-.16,0-.36,0-.57,0-.41.07-.83.07-.83l-13.79-1.06s0,.47-.09,1c0,.23,0,.47-.06.65a2.75,2.75,0,0,0,0,.29Z"/><polygon class="cls-7" points="54.51 122.48 54.57 120.83 30.84 119.61 30.77 121.69 54.51 122.48"/><polygon class="cls-7" points="54.42 124.94 54.48 123.28 41.94 122.97 41.87 124.84 54.42 124.94"/></g></g></g></g></svg>