<svg xmlns="http://www.w3.org/2000/svg" viewBox="0 0 334.58 368.82"><defs><style>.cls-1{opacity:0.8;}.cls-2{fill:#5fffe8;}</style></defs><title>资源 6</title><g id="图层_2" data-name="图层 2"><g id="央铋_1" data-name="央铋 1"><g class="cls-1"><path class="cls-2" d="M157.34,0l-9.13.5c-5.42.87-12.71,1.75-19.89,3.21L117.89,6.38l-4.8,1.26c-1.52.39-2.9,1-4.2,1.43l-8.61,3.15L98.4,15.91C97.27,18,96,21.21,94.75,24.28c-2.47,6.17-4.45,12.11-4.45,12.11L89.13,37a22.08,22.08,0,0,0-3.2,1.77L74.75,45.52c-2.27,1.48-4.55,3.34-7.06,5.17s-5.19,3.7-7.72,6c-4.92,4.64-10.6,9.16-15.24,14.72-10.1,10.38-17.82,22.72-23.32,32-2.64,4.72-4.39,8.9-5.82,11.71l-2.15,4.48s-1.77-4.68-3.38-9.68S7,99.63,7,99.63a24,24,0,0,1,1.11-2.16c.79-1.32,1.94-3.21,3.3-5.47l4.71-7.73c1.74-2.8,4-5.52,6.07-8.38s4.12-5.75,6.35-8.19L34.58,61c1.78-1.95,3.26-3.59,4.31-4.72l1.77-1.65L38.3,52.22,36.45,54c-1.09,1.19-2.65,2.89-4.51,4.94l-6.35,7c-2.26,2.62-4.35,5.67-6.6,8.59-1.1,1.49-2.21,3-3.29,4.42l-1.61,2.17q-.69,1.14-1.38,2.25L7.79,91.4c-1.4,2.38-2.69,4.31-3.38,5.77L3.3,99.46S5.08,106,7.11,112.11a82,82,0,0,0,3.06,8.27l1.62,3.71-3.32,9.06c-1.05,2.7-1.65,6-2.63,9.52l-1.38,5.41c-.24.92-.47,1.85-.71,2.78l-.43,2.86c-.59,3.81-1.17,7.63-1.72,11.2a34,34,0,0,0-.51,5.19c-.08,1.66-.16,3.22-.23,4.67-.29,5.78-.49,9.63-.49,9.63H3.75s.1-1.94.27-5.33c.09-1.7.19-3.76.31-6.13A60.55,60.55,0,0,1,5,165c.44-2.88.92-6,1.43-9.31.28-1.64.42-3.36.85-5.06s.88-3.43,1.34-5.2c1-3.51,1.72-7.21,2.91-10.84s2.65-7.24,4-10.89c5.94-14.33,13.6-28,20.92-37.1l4.77-6.37,4.13-4.54,3.59-4,.24,4.54c.15,2.22.32,4.45.32,4.45l3.29-.08-.42-6.11c-.07-1.57-.14-3.14-.2-4.31s0-1.94,0-1.94L58,63c1.79-1.56,3.75-3.54,6.08-5.39S69,53.94,71.53,52l3.79-2.83c1.26-.92,2.63-1.63,3.88-2.43,2.54-1.54,4.92-3,6.94-4.22a39.41,39.41,0,0,1,5-2.81l2-1S95,32.87,97.46,26.73a83.85,83.85,0,0,1,3.64-8.22L103,14.85l8.23-3c5-1.73,11.83-3.2,18.59-5,6.89-1.26,13.84-2.19,19-3l8.73-.47Z"/><path class="cls-2" d="M224.53,15.74l-3.74-1.35c-2.28-.7-5.38-1.43-8.45-2.25L203.86,10c-2.33-.5-3.91-.68-3.91-.68s-3.53,2.31-6.86,4.67-6.47,4.73-6.47,4.73l-2.15-.33-5.74-.3c-4.74-.14-11.07-.88-17.4-.28l-9.3.47c-3,.09-5.68.76-8,1l-7.83,1.2.63,3.32,7.88-1.2,3.82-.59,2.09-.31,2.2-.11,9.36-.48,4.76-.24c1.57,0,3.11.14,4.6.19l8.17.42a51.16,51.16,0,0,1,5.77.43l2.16.33s3.1-2.38,6.41-4.73,6.78-4.68,6.78-4.68a21.13,21.13,0,0,1,3.59.74l7.82,2c2.84.76,5.71,1.4,7.79,2.09L223.44,19Z"/><path class="cls-2" d="M283.36,64.59s-1.05-.94-2.87-2.6-4.38-4.08-7.6-6.81l-11.55-8.64c-4.41-2.88-9.3-5.71-14.09-8.66-5-2.52-10.13-4.91-14.88-7.22l-13.55-5c-4-1.43-7.46-2-9.82-2.73s-3.75-1-3.75-1l-.77,3.28,4.06,1c2.41.69,5.73,1.3,8.88,2.44L230,33.38a26.94,26.94,0,0,1,1.1,2.79c.62,1.73,1.42,4,2.15,6.29,1.49,4.53,2.7,8.91,2.7,8.91l1.31.63a21.74,21.74,0,0,1,3.35,1.86l9.93,6c3.44,2.46,6.77,5.06,9.33,6.93,1.26,1,2.37,1.69,3.05,2.32l1.07,1,2.19-2.58a34.16,34.16,0,0,0-4.05-3.26L253,57.41l-9.78-5.93c-1.34-.8-2.42-1.53-3.23-1.94l-1.29-.61s-.94-3.32-2-6.72-2.33-6.87-2.33-6.87l8.18,3.94a68.84,68.84,0,0,1,8.1,4.57c2.88,1.81,6.08,3.56,9.06,5.63,5.75,4.44,11.83,8.46,15.67,12.36L282,68s1.6-.1,3.85,0,5.37.2,8.52.41,6.37.5,8.81.74,4.07.48,4.07.48.1-3.51.1-3.51-6.24-.74-12.2-1.14c-3-.2-5.9-.34-8.07-.41Z"/><path class="cls-2" d="M334.58,164.83l-1.22-8a82.66,82.66,0,0,0-1.45-8.19c-.76-2.94-1.57-6.09-2.38-9.24-.4-1.57-.81-3.15-1.2-4.7s-1.07-3-1.58-4.42c-1.05-2.86-2-5.53-2.86-7.82a42.84,42.84,0,0,0-2.21-5.45l-1-2-3.08,1.4s.34.69.92,1.91a38.62,38.62,0,0,1,2.12,5.19c.79,2.18,1.73,4.73,2.72,7.45l1.54,4.21c.39,1.47.78,3,1.17,4.47,1.5,6,3.29,11.95,3.74,16.59l1.17,7.66L328.6,167c-1.45,1.85-3.75,4.28-5.89,6.59-4.36,4.65-8.71,8.74-8.71,8.74l2.51,2.12s4.59-4.32,9.17-9.25c2.29-2.45,4.58-5,6.29-7,.9-1,1.44-1.82,1.91-2.41Z"/><path class="cls-2" d="M177.24,368.82l9.13-.5c5.42-.87,12.72-1.74,19.89-3.21l10.44-2.67,4.79-1.25c1.53-.4,2.89-1,4.2-1.44l8.61-3.15,1.88-3.68c1.13-2.12,2.43-5.31,3.65-8.38,2.47-6.17,4.45-12.11,4.45-12.11l1.17-.56a24,24,0,0,0,3.2-1.78c2.7-1.63,6.56-4,11.19-6.79,2.26-1.47,4.54-3.33,7.05-5.16s5.2-3.71,7.72-6c4.93-4.63,10.6-9.15,15.24-14.72,10.11-10.37,17.82-22.71,23.32-32,2.64-4.71,4.39-8.9,5.83-11.71l2.14-4.48s1.76,4.69,3.38,9.69,3.09,10.25,3.09,10.25a23.38,23.38,0,0,1-1.1,2.16l-3.31,5.47-4.71,7.72c-1.74,2.81-4,5.53-6.07,8.39s-4.11,5.74-6.34,8.18l-6.08,6.7c-1.78,2-3.27,3.58-4.31,4.72l-1.77,1.65,2.36,2.42,1.85-1.73,4.51-4.94,6.35-7c2.26-2.61,4.35-5.66,6.61-8.59,1.09-1.48,2.2-3,3.28-4.42.55-.73,1.08-1.45,1.61-2.17s.93-1.5,1.38-2.24l4.92-8.08c1.4-2.39,2.69-4.31,3.38-5.77l1.11-2.29s-1.78-6.56-3.81-12.66a83.85,83.85,0,0,0-3.06-8.27l-1.62-3.7,3.32-9.06c1.05-2.7,1.65-6.05,2.63-9.53.45-1.75.91-3.56,1.39-5.41.23-.91.47-1.84.7-2.77l.44-2.86c.58-3.82,1.16-7.63,1.71-11.21a32.66,32.66,0,0,0,.51-5.18c.08-1.66.16-3.23.24-4.67.29-5.78.48-9.64.48-9.64h-3.38s-.1,1.94-.27,5.34c-.09,1.7-.19,3.76-.31,6.12a59.13,59.13,0,0,1-.67,7.92c-.44,2.88-.92,6-1.42,9.31-.29,1.64-.43,3.36-.85,5.06s-.89,3.43-1.34,5.19c-1,3.52-1.73,7.22-2.91,10.84s-2.65,7.25-4,10.89c-5.94,14.33-13.6,28-20.91,37.11l-4.78,6.36-4.12,4.54-3.59,4-.24-4.54c-.17-2.22-.32-4.44-.32-4.44l-3.3.07.42,6.12c.07,1.56.14,3.13.19,4.3a17.26,17.26,0,0,1,0,1.95l-5.86,5.32c-1.79,1.57-3.75,3.54-6.07,5.39l-7.46,5.58-3.79,2.83c-1.26.92-2.62,1.64-3.88,2.44l-6.94,4.21a37.56,37.56,0,0,1-5,2.81l-2,.95s-1.93,5.92-4.35,12.07a81.26,81.26,0,0,1-3.64,8.21L231.63,354l-8.23,3c-5,1.73-11.83,3.2-18.59,5-6.88,1.26-13.83,2.19-19,3l-8.73.46Z"/><path class="cls-2" d="M110.05,353.08l3.74,1.36c2.28.7,5.38,1.43,8.45,2.24l8.48,2.16c2.33.5,3.92.68,3.92.68s3.53-2.31,6.85-4.66,6.47-4.73,6.47-4.73l2.15.33,5.73.3c4.75.14,11.08.88,17.41.27l9.29-.47a78.88,78.88,0,0,0,8.05-1l7.83-1.19L197.8,345l-7.89,1.2-3.82.59-2.09.32-2.2.11-9.36.47-4.75.24c-1.57,0-3.12-.14-4.61-.19l-8.17-.41a48.16,48.16,0,0,1-5.76-.44l-2.17-.33s-3.1,2.38-6.4,4.74-6.79,4.67-6.79,4.67a21.13,21.13,0,0,1-3.59-.74l-7.82-2c-2.83-.77-5.71-1.4-7.79-2.09l-3.45-1.26Z"/><path class="cls-2" d="M51.22,304.23l2.87,2.6c1.84,1.64,4.38,4.09,7.6,6.82,3.38,2.53,7.33,5.47,11.55,8.64,4.42,2.88,9.3,5.7,14.09,8.66,5,2.52,10.13,4.91,14.88,7.21l13.54,5c4,1.43,7.47,2,9.83,2.73l3.75,1,.76-3.29-4-1c-2.41-.7-5.72-1.31-8.87-2.45l-12.59-4.6s-.49-1-1.1-2.8-1.41-4-2.15-6.28c-1.49-4.53-2.7-8.92-2.7-8.92l-1.31-.62A23.06,23.06,0,0,1,94,315l-9.94-6c-3.44-2.45-6.77-5.05-9.33-6.92-1.26-1-2.37-1.7-3-2.32l-1.07-1-2.19,2.57a33.84,33.84,0,0,0,4.06,3.26l9.15,6.86,9.77,5.93c1.34.8,2.43,1.53,3.24,1.94l1.29.61s.94,3.32,2,6.72,2.34,6.88,2.34,6.88l-8.18-3.94A71.83,71.83,0,0,1,84,325c-2.88-1.81-6.07-3.57-9.06-5.63-5.75-4.44-11.83-8.47-15.67-12.37-4-3.66-6.72-6.11-6.72-6.11a36.55,36.55,0,0,1-3.86,0c-2.28-.06-5.37-.2-8.52-.41s-6.37-.49-8.81-.74-4.06-.47-4.06-.47-.11,3.5-.11,3.5,6.24.75,12.2,1.14c3,.21,5.9.35,8.07.42Z"/><path class="cls-2" d="M0,204s.49,3.21,1.22,8c.46,2.39.62,5.26,1.45,8.19s1.57,6.1,2.37,9.25c.41,1.57.82,3.14,1.22,4.69s1.06,3,1.57,4.42l2.87,7.82a42.42,42.42,0,0,0,2.2,5.46l1,2,3.08-1.4L16,250.55a38.07,38.07,0,0,1-2.12-5.19c-.8-2.18-1.73-4.72-2.72-7.45-.5-1.36-1-2.77-1.54-4.2l-1.17-4.47c-1.5-6-3.29-12-3.74-16.6C4,208.05,3.57,205,3.57,205L6,201.87c1.45-1.85,3.75-4.29,5.89-6.59,4.35-4.65,8.71-8.75,8.71-8.75l-2.51-2.12s-4.58,4.32-9.17,9.26c-2.29,2.44-4.58,5-6.29,7-.89,1-1.44,1.81-1.91,2.4Z"/></g></g></g></svg>