<svg xmlns="http://www.w3.org/2000/svg" viewBox="0 0 1747.52 1228.21"><defs><style>.cls-1{opacity:0.5;}.cls-2{fill:#fff;}.cls-3{opacity:0.4;}.cls-4{opacity:0.7;}.cls-5{fill:#5cffeb;}.cls-6{fill:#ffad5c;}</style></defs><title>资源 3</title><g id="图层_2" data-name="图层 2"><g id="央铋_1" data-name="央铋 1"><g class="cls-1"><polygon class="cls-2" points="720.71 311.39 694.74 311.39 725.9 284.85 751.87 284.85 720.71 311.39"/><polygon class="cls-2" points="658.45 316.67 633.05 322.07 658.01 289.63 683.41 284.24 658.45 316.67"/><polygon class="cls-2" points="598.65 334.79 574.92 345.36 592.6 308.43 616.33 297.87 598.65 334.79"/><polygon class="cls-2" points="543.92 364.95 522.91 380.21 532.52 340.42 553.53 325.16 543.92 364.95"/><polygon class="cls-2" points="496.66 405.81 479.29 425.12 480.42 384.2 497.79 364.89 496.66 405.81"/><polygon class="cls-2" points="458.93 455.62 445.95 478.11 438.54 437.85 451.52 415.36 458.93 455.62"/><polygon class="cls-2" points="432.38 512.18 424.35 536.89 408.74 499.04 416.76 474.34 432.38 512.18"/><polygon class="cls-2" points="418.17 573.03 415.45 598.86 392.32 565.09 395.03 539.26 418.17 573.03"/><polygon class="cls-2" points="416.91 635.5 419.63 661.33 389.98 633.11 387.26 607.28 416.91 635.5"/><polygon class="cls-2" points="428.68 696.87 436.7 721.57 401.84 700.12 393.81 675.43 428.68 696.87"/><polygon class="cls-2" points="452.95 754.45 465.94 776.94 427.37 763.22 414.38 740.73 452.95 754.45"/><polygon class="cls-2" points="488.65 805.72 506.04 825.02 465.46 819.62 448.08 800.32 488.65 805.72"/><polygon class="cls-2" points="534.24 848.46 555.26 863.72 514.45 866.87 493.44 851.61 534.24 848.46"/><polygon class="cls-2" points="587.72 880.78 611.45 891.34 572.18 902.9 548.46 892.34 587.72 880.78"/><polygon class="cls-2" points="646.75 901.27 672.15 906.67 636.15 926.14 610.75 920.74 646.75 901.27"/><polygon class="cls-2" points="708.75 909.04 734.72 909.04 703.55 935.58 677.59 935.58 708.75 909.04"/><polygon class="cls-2" points="771 903.76 796.41 898.35 771.44 930.79 746.05 936.19 771 903.76"/><polygon class="cls-2" points="830.81 885.64 854.54 875.07 836.86 911.99 813.13 922.55 830.81 885.64"/><polygon class="cls-2" points="885.54 855.49 906.55 840.21 896.93 880.01 875.92 895.27 885.54 855.49"/><polygon class="cls-2" points="932.79 814.61 950.18 795.31 949.04 836.23 931.66 855.53 932.79 814.61"/><polygon class="cls-2" points="970.52 764.81 983.52 742.31 990.91 782.58 977.93 805.06 970.52 764.81"/><polygon class="cls-2" points="997.08 708.25 1005.11 683.54 1020.71 721.39 1012.69 746.08 997.08 708.25"/><polygon class="cls-2" points="1011.29 647.4 1014 621.56 1037.14 655.34 1034.42 681.17 1011.29 647.4"/><polygon class="cls-2" points="1012.54 584.93 1009.82 559.09 1039.47 587.33 1042.19 613.15 1012.54 584.93"/><polygon class="cls-2" points="1000.78 523.56 992.74 498.85 1027.62 520.3 1035.65 545 1000.78 523.56"/><polygon class="cls-2" points="976.51 465.98 963.52 443.49 1002.09 457.22 1015.08 479.7 976.51 465.98"/><polygon class="cls-2" points="940.81 414.71 923.42 395.4 964 400.81 981.38 420.11 940.81 414.71"/><polygon class="cls-2" points="895.22 371.98 874.2 356.7 915.02 353.56 936.02 368.82 895.22 371.98"/><polygon class="cls-2" points="841.74 339.66 818.01 329.09 857.27 317.53 881 328.09 841.74 339.66"/><polygon class="cls-2" points="782.72 319.16 757.3 313.76 793.31 294.29 818.71 299.68 782.72 319.16"/></g><g class="cls-3"><rect class="cls-2" x="696.91" y="243.44" width="6.43" height="33.39" transform="translate(-8.12 23) rotate(-1.87)"/><rect class="cls-2" x="660.32" y="247.39" width="6.44" height="33.39" transform="translate(-29.91 93.34) rotate(-7.87)"/><rect class="cls-2" x="624.35" y="255.14" width="6.44" height="33.39" transform="translate(-46.84 158.19) rotate(-13.85)"/><rect class="cls-2" x="589.39" y="266.61" width="6.44" height="33.39" transform="translate(-61.01 218.24) rotate(-19.87)"/><rect class="cls-2" x="555.82" y="281.66" width="6.44" height="33.4" transform="translate(-74.16 273.77) rotate(-25.87)"/><rect class="cls-2" x="524.01" y="300.16" width="6.44" height="33.39" transform="matrix(0.85, -0.53, 0.53, 0.85, -87.81, 326)"/><polygon class="cls-2" points="510.32 349.77 505.22 353.72 484.75 327.35 489.83 323.4 510.32 349.77"/><rect class="cls-2" x="467.03" y="346.56" width="6.44" height="33.4" transform="translate(-120.56 426.8) rotate(-43.82)"/><rect class="cls-2" x="442.5" y="373.98" width="6.43" height="33.39" transform="translate(-140.21 479.97) rotate(-49.9)"/><polygon class="cls-2" points="439.8 427.21 436.17 432.53 408.54 413.79 412.16 408.46 439.8 427.21"/><polygon class="cls-2" points="422.1 457.45 419.07 463.12 389.62 447.37 392.66 441.69 422.1 457.45"/><polygon class="cls-2" points="407.66 489.39 405.24 495.34 374.31 482.76 376.74 476.79 407.66 489.39"/><polygon class="cls-2" points="396.65 522.65 394.85 528.82 362.79 519.54 364.57 513.35 396.65 522.65"/><polygon class="cls-2" points="389.17 556.88 388.05 563.21 355.17 557.33 356.31 550.99 389.17 556.88"/><polygon class="cls-2" points="385.32 591.71 384.85 598.12 351.55 595.71 352 589.28 385.32 591.71"/><polygon class="cls-2" points="385.12 626.74 385.33 633.17 351.95 634.25 351.74 627.81 385.12 626.74"/><polygon class="cls-2" points="388.59 661.61 389.46 667.98 356.38 672.55 355.5 666.16 388.59 661.61"/><polygon class="cls-2" points="395.68 695.92 397.21 702.18 364.8 710.17 363.25 703.91 395.68 695.92"/><polygon class="cls-2" points="406.32 729.31 408.5 735.36 377.1 746.71 374.9 740.64 406.32 729.31"/><polygon class="cls-2" points="420.39 761.4 423.19 767.18 393.15 781.75 390.32 775.95 420.39 761.4"/><polygon class="cls-2" points="437.74 791.84 441.13 797.3 412.77 814.94 409.36 809.46 437.74 791.84"/><polygon class="cls-2" points="458.17 820.31 462.11 825.39 435.76 845.88 431.79 840.79 458.17 820.31"/><polygon class="cls-2" points="481.46 846.48 485.92 851.11 461.84 874.25 457.38 869.6 481.46 846.48"/><polygon class="cls-2" points="507.37 870.07 512.29 874.22 490.76 899.74 485.83 895.59 507.37 870.07"/><polygon class="cls-2" points="535.62 890.83 540.92 894.44 522.18 922.07 516.85 918.46 535.62 890.83"/><rect class="cls-2" x="544.11" y="921.53" width="33.39" height="6.44" transform="translate(-519.15 982.69) rotate(-61.84)"/><polygon class="cls-2" points="597.79 922.95 603.73 925.37 591.14 956.29 585.18 953.88 597.79 922.95"/><polygon class="cls-2" points="631.05 933.96 637.22 935.76 627.94 967.82 621.75 966.04 631.05 933.96"/><polygon class="cls-2" points="665.28 941.44 671.61 942.57 665.73 975.43 659.38 974.32 665.28 941.44"/><polygon class="cls-2" points="700.1 945.29 706.51 945.76 704.1 979.07 697.67 978.61 700.1 945.29"/><polygon class="cls-2" points="735.14 945.49 741.57 945.28 742.64 978.66 736.21 978.88 735.14 945.49"/><polygon class="cls-2" points="770 942.03 776.37 941.15 780.94 974.23 774.56 975.12 770 942.03"/><polygon class="cls-2" points="804.32 934.94 810.56 933.4 818.56 965.81 812.3 967.37 804.32 934.94"/><polygon class="cls-2" points="837.7 924.3 843.75 922.11 855.1 953.51 849.04 955.72 837.7 924.3"/><polygon class="cls-2" points="869.79 910.23 875.58 907.42 890.15 937.48 884.34 940.29 869.79 910.23"/><polygon class="cls-2" points="900.24 892.88 905.69 889.49 923.33 917.84 917.84 921.26 900.24 892.88"/><polygon class="cls-2" points="928.69 872.44 933.78 868.5 954.27 894.86 949.19 898.83 928.69 872.44"/><polygon class="cls-2" points="954.87 849.14 959.5 844.7 982.65 868.76 978 873.24 954.87 849.14"/><polygon class="cls-2" points="978.47 823.24 982.61 818.33 1008.13 839.85 1003.99 844.79 978.47 823.24"/><polygon class="cls-2" points="999.22 795.01 1002.83 789.69 1030.46 808.42 1026.85 813.77 999.22 795.01"/><polygon class="cls-2" points="1016.91 764.76 1019.94 759.1 1049.39 774.84 1046.36 780.54 1016.91 764.76"/><polygon class="cls-2" points="1031.33 732.84 1033.77 726.89 1064.7 739.46 1062.28 745.44 1031.33 732.84"/><polygon class="cls-2" points="1042.35 699.58 1044.14 693.4 1076.22 702.67 1074.44 708.88 1042.35 699.58"/><polygon class="cls-2" points="1049.83 665.35 1050.97 659.02 1083.83 664.89 1082.71 671.24 1049.83 665.35"/><polygon class="cls-2" points="1053.69 630.52 1054.16 624.11 1087.46 626.51 1087.01 632.95 1053.69 630.52"/><polygon class="cls-2" points="1053.89 595.49 1053.7 589.06 1087.05 587.97 1087.29 594.41 1053.89 595.49"/><polygon class="cls-2" points="1050.42 560.62 1049.55 554.25 1082.62 549.67 1083.53 556.06 1050.42 560.62"/><polygon class="cls-2" points="1043.33 526.3 1041.8 520.06 1074.21 512.06 1075.78 518.32 1043.33 526.3"/><polygon class="cls-2" points="1032.69 492.92 1030.52 486.87 1061.91 475.52 1064.12 481.58 1032.69 492.92"/><polygon class="cls-2" points="1018.62 460.83 1015.83 455.05 1045.87 440.48 1048.69 446.27 1018.62 460.83"/><polygon class="cls-2" points="1001.28 430.38 997.9 424.93 1026.24 407.31 1029.66 412.76 1001.28 430.38"/><polygon class="cls-2" points="980.84 401.92 976.9 396.84 1003.25 376.35 1007.22 381.43 980.84 401.92"/><polygon class="cls-2" points="957.54 375.75 953.09 371.12 977.17 347.98 981.64 352.62 957.54 375.75"/><polygon class="cls-2" points="931.64 352.16 926.73 348.02 948.25 322.49 953.18 326.63 931.64 352.16"/><polygon class="cls-2" points="903.41 331.4 898.09 327.79 916.83 300.16 922.16 303.76 903.41 331.4"/><polygon class="cls-2" points="873.17 313.72 867.5 310.68 883.24 281.24 888.94 284.27 873.17 313.72"/><polygon class="cls-2" points="841.23 299.28 835.28 296.86 847.87 265.93 853.84 268.35 841.23 299.28"/><polygon class="cls-2" points="807.97 288.27 801.81 286.48 811.08 254.41 817.27 256.19 807.97 288.27"/><polygon class="cls-2" points="773.73 280.79 767.42 279.65 773.29 246.79 779.64 247.9 773.73 280.79"/><polygon class="cls-2" points="738.91 276.94 732.5 276.46 734.91 243.16 741.35 243.61 738.91 276.94"/><rect class="cls-2" x="708.35" y="209.83" width="6.39" height="66.33"/><polygon class="cls-2" points="679.82 277.99 673.47 278.66 666.54 212.69 672.89 212.03 679.82 277.99"/><rect class="cls-2" x="632.07" y="218.52" width="6.39" height="66.33" transform="translate(-38.38 137.19) rotate(-11.97)"/><polygon class="cls-2" points="611.52 292.5 605.43 294.48 584.94 231.4 591.02 229.42 611.52 292.5"/><polygon class="cls-2" points="578.87 305.03 573.02 307.63 546.05 247.04 551.89 244.44 578.87 305.03"/><rect class="cls-2" x="525.17" y="260.62" width="6.39" height="66.33" transform="translate(-76.1 303.6) rotate(-30.01)"/><polygon class="cls-2" points="518.39 339.95 513.22 343.7 474.23 290.04 479.4 286.29 518.39 339.95"/><polygon class="cls-2" points="491.21 361.96 486.47 366.23 442.08 316.94 446.84 312.66 491.21 361.96"/><rect class="cls-2" x="436.51" y="333.7" width="6.39" height="66.33" transform="translate(-127.08 448.59) rotate(-48.04)"/><rect class="cls-2" x="412.58" y="363.77" width="6.39" height="66.33" transform="translate(-149.78 499.81) rotate(-53.98)"/><rect class="cls-2" x="391.93" y="396.19" width="6.39" height="66.34" transform="translate(-174.22 557.08) rotate(-60.02)"/><polygon class="cls-2" points="409.57 474.32 406.97 480.16 346.37 453.19 348.97 447.35 409.57 474.32"/><polygon class="cls-2" points="397.04 506.96 395.05 513.04 331.97 492.55 333.94 486.48 397.04 506.96"/><polygon class="cls-2" points="387.99 540.74 386.65 547 321.77 533.2 323.11 526.96 387.99 540.74"/><polygon class="cls-2" points="382.52 575.27 381.84 581.63 315.88 574.7 316.54 568.36 382.52 575.27"/><polygon class="cls-2" points="380.68 610.19 380.68 616.59 314.35 616.59 314.35 610.2 380.68 610.19"/><polygon class="cls-2" points="382.51 645.11 383.17 651.47 317.21 658.4 316.54 652.05 382.51 645.11"/><polygon class="cls-2" points="387.98 679.64 389.3 685.9 324.43 699.69 323.1 693.45 387.98 679.64"/><polygon class="cls-2" points="397.03 713.42 398.99 719.5 335.92 740 333.94 733.93 397.03 713.42"/><polygon class="cls-2" points="409.55 746.06 412.15 751.9 351.56 778.88 348.97 773.05 409.55 746.06"/><polygon class="cls-2" points="425.44 777.21 428.62 782.76 371.18 815.92 367.98 810.39 425.44 777.21"/><polygon class="cls-2" points="444.48 806.54 448.22 811.72 394.57 850.7 390.81 845.54 444.48 806.54"/><polygon class="cls-2" points="466.48 833.71 470.73 838.47 421.45 882.86 417.18 878.11 466.48 833.71"/><polygon class="cls-2" points="491.2 858.44 495.93 862.73 451.56 912.02 446.82 907.74 491.2 858.44"/><polygon class="cls-2" points="518.37 880.45 523.53 884.21 484.55 937.87 479.39 934.12 518.37 880.45"/><polygon class="cls-2" points="547.69 899.49 553.22 902.7 520.06 960.14 514.54 956.94 547.69 899.49"/><polygon class="cls-2" points="578.84 915.36 584.68 917.97 557.7 978.57 551.87 975.96 578.84 915.36"/><polygon class="cls-2" points="611.49 927.9 617.55 929.89 597.07 992.97 591 990.99 611.49 927.9"/><polygon class="cls-2" points="645.26 936.95 651.5 938.3 637.73 1003.17 631.48 1001.83 645.26 936.95"/><polygon class="cls-2" points="679.8 942.42 686.14 943.11 679.23 1009.06 672.87 1008.39 679.8 942.42"/><polygon class="cls-2" points="714.71 944.24 721.09 944.27 721.1 1010.59 714.71 1010.58 714.71 944.24"/><polygon class="cls-2" points="749.62 942.42 755.98 941.78 762.92 1007.73 756.57 1008.39 749.62 942.42"/><polygon class="cls-2" points="784.16 936.95 790.41 935.64 804.22 1000.52 797.96 1001.83 784.16 936.95"/><polygon class="cls-2" points="817.94 927.91 824.02 925.95 844.52 989.02 838.44 990.99 817.94 927.91"/><polygon class="cls-2" points="850.58 915.38 856.42 912.8 883.4 973.38 877.56 975.97 850.58 915.38"/><polygon class="cls-2" points="881.73 899.51 887.27 896.33 920.44 953.76 914.9 956.95 881.73 899.51"/><polygon class="cls-2" points="911.05 880.46 916.23 876.73 955.23 930.37 950.04 934.13 911.05 880.46"/><polygon class="cls-2" points="938.24 858.46 942.99 854.21 987.38 903.48 982.61 907.76 938.24 858.46"/><polygon class="cls-2" points="962.96 833.74 967.24 829.01 1016.54 873.38 1012.24 878.12 962.96 833.74"/><polygon class="cls-2" points="984.96 806.57 988.73 801.42 1042.4 840.39 1038.63 845.55 984.96 806.57"/><polygon class="cls-2" points="1004 777.25 1007.21 771.73 1064.66 804.88 1061.45 810.41 1004 777.25"/><polygon class="cls-2" points="1019.88 746.09 1022.49 740.27 1083.09 767.23 1080.48 773.07 1019.88 746.09"/><polygon class="cls-2" points="1032.41 713.45 1034.41 707.39 1097.49 727.87 1095.49 733.95 1032.41 713.45"/><polygon class="cls-2" points="1041.46 679.67 1042.81 673.44 1107.69 687.21 1106.34 693.46 1041.46 679.67"/><polygon class="cls-2" points="1046.94 645.14 1047.62 638.8 1113.58 645.71 1112.9 652.07 1046.94 645.14"/><polygon class="cls-2" points="1048.77 610.23 1048.78 603.84 1115.11 603.83 1115.1 610.23 1048.77 610.23"/><polygon class="cls-2" points="1046.94 575.3 1046.29 568.96 1112.25 562.01 1112.9 568.38 1046.94 575.3"/><polygon class="cls-2" points="1041.47 540.77 1040.16 534.53 1105.03 520.72 1106.34 526.98 1041.47 540.77"/><polygon class="cls-2" points="1032.42 507 1030.47 500.93 1093.53 480.41 1095.5 486.5 1032.42 507"/><polygon class="cls-2" points="1019.9 474.36 1017.31 468.52 1077.9 441.52 1080.48 447.37 1019.9 474.36"/><polygon class="cls-2" points="1004.02 443.2 1000.85 437.67 1058.27 404.49 1061.45 410.03 1004.02 443.2"/><polygon class="cls-2" points="984.98 413.87 981.25 408.71 1034.88 369.71 1038.64 374.88 984.98 413.87"/><polygon class="cls-2" points="962.98 386.7 958.72 381.95 1008 337.56 1012.27 342.32 962.98 386.7"/><polygon class="cls-2" points="938.26 361.98 933.53 357.69 977.88 308.4 982.64 312.68 938.26 361.98"/><polygon class="cls-2" points="911.09 339.96 905.93 336.21 944.89 282.55 950.06 286.31 911.09 339.96"/><polygon class="cls-2" points="881.77 320.92 876.25 317.73 909.38 260.27 914.92 263.48 881.77 320.92"/><polygon class="cls-2" points="850.61 305.05 844.8 302.44 871.73 241.84 877.57 244.45 850.61 305.05"/><polygon class="cls-2" points="817.98 292.51 811.91 290.53 832.37 227.45 838.45 229.44 817.98 292.51"/><polygon class="cls-2" points="784.2 283.46 777.97 282.13 791.72 217.25 797.97 218.59 784.2 283.46"/><polygon class="cls-2" points="749.66 277.99 743.32 277.32 750.22 211.36 756.59 212.03 749.66 277.99"/></g><path class="cls-2" d="M709.16,348a5.55,5.55,0,1,1,5.55,5.54A5.55,5.55,0,0,1,709.16,348Z"/><path class="cls-2" d="M654.77,354.86a5.55,5.55,0,1,1,6.58,4.28A5.54,5.54,0,0,1,654.77,354.86Z"/><path class="cls-2" d="M603,372.91a5.55,5.55,0,1,1,7.33,2.81A5.55,5.55,0,0,1,603,372.91Z"/><path class="cls-2" d="M556.1,401.32a5.55,5.55,0,1,1,7.75,1.23A5.56,5.56,0,0,1,556.1,401.32Z"/><path class="cls-2" d="M516.14,438.86a5.55,5.55,0,1,1,7.84-.41A5.54,5.54,0,0,1,516.14,438.86Z"/><path class="cls-2" d="M484.86,483.89a5.55,5.55,0,1,1,7.58-2A5.53,5.53,0,0,1,484.86,483.89Z"/><path class="cls-2" d="M463.63,534.44a5.55,5.55,0,1,1,7-3.56A5.54,5.54,0,0,1,463.63,534.44Z"/><path class="cls-2" d="M453.36,588.3a5.55,5.55,0,1,1,6.1-4.93A5.53,5.53,0,0,1,453.36,588.3Z"/><path class="cls-2" d="M454.52,643.11a5.55,5.55,0,1,1,4.94-6.09A5.52,5.52,0,0,1,454.52,643.11Z"/><path class="cls-2" d="M467.06,696.49a5.55,5.55,0,1,1,3.56-7A5.54,5.54,0,0,1,467.06,696.49Z"/><path class="cls-2" d="M490.41,746.1a5.55,5.55,0,1,1,2-7.58A5.54,5.54,0,0,1,490.41,746.1Z"/><path class="cls-2" d="M523.57,789.76a5.54,5.54,0,1,1,.42-7.83A5.54,5.54,0,0,1,523.57,789.76Z"/><path class="cls-2" d="M565.09,825.58a5.55,5.55,0,1,1-1.23-7.75A5.54,5.54,0,0,1,565.09,825.58Z"/><path class="cls-2" d="M613.14,852a5.55,5.55,0,1,1-2.81-7.32A5.54,5.54,0,0,1,613.14,852Z"/><path class="cls-2" d="M665.63,867.82a5.55,5.55,0,1,1-4.27-6.59A5.53,5.53,0,0,1,665.63,867.82Z"/><path class="cls-2" d="M720.26,872.4a5.55,5.55,0,1,1-5.54-5.55A5.53,5.53,0,0,1,720.26,872.4Z"/><path class="cls-2" d="M774.66,865.51a5.55,5.55,0,1,1-6.58-4.28A5.53,5.53,0,0,1,774.66,865.51Z"/><path class="cls-2" d="M826.44,847.47a5.55,5.55,0,1,1-7.33-2.82A5.52,5.52,0,0,1,826.44,847.47Z"/><path class="cls-2" d="M873.33,819.06a5.55,5.55,0,1,1-7.75-1.23A5.54,5.54,0,0,1,873.33,819.06Z"/><path class="cls-2" d="M913.29,781.51a5.55,5.55,0,1,1-7.84.41A5.52,5.52,0,0,1,913.29,781.51Z"/><path class="cls-2" d="M944.57,736.49a5.55,5.55,0,1,1-7.58,2A5.52,5.52,0,0,1,944.57,736.49Z"/><path class="cls-2" d="M965.81,685.94a5.55,5.55,0,1,1-7,3.56A5.53,5.53,0,0,1,965.81,685.94Z"/><path class="cls-2" d="M976.07,632.08A5.55,5.55,0,1,1,970,637,5.52,5.52,0,0,1,976.07,632.08Z"/><path class="cls-2" d="M974.91,577.26a5.55,5.55,0,1,1-4.95,6.1A5.53,5.53,0,0,1,974.91,577.26Z"/><path class="cls-2" d="M962.38,523.88a5.55,5.55,0,1,1-3.57,7A5.53,5.53,0,0,1,962.38,523.88Z"/><path class="cls-2" d="M939,474.27a5.55,5.55,0,1,1-2,7.59A5.54,5.54,0,0,1,939,474.27Z"/><path class="cls-2" d="M905.86,430.61a5.55,5.55,0,0,1,7.43,8.25,5.55,5.55,0,1,1-7.43-8.25Z"/><path class="cls-2" d="M864.35,394.79a5.55,5.55,0,0,1,9,6.53,5.55,5.55,0,1,1-9-6.53Z"/><path class="cls-2" d="M816.3,368.39a5.55,5.55,0,0,1,10.14,4.51,5.55,5.55,0,1,1-10.14-4.51Z"/><path class="cls-2" d="M763.8,352.55a5.55,5.55,0,1,1,4.27,6.59A5.52,5.52,0,0,1,763.8,352.55Z"/><path class="cls-2" d="M714.71,1186.36c-317.7,0-576.16-258.47-576.16-576.17S397,34,714.71,34s576.17,258.46,576.17,576.16S1032.41,1186.36,714.71,1186.36Zm0-1149.43c-316.1,0-573.26,257.17-573.26,573.26s257.16,573.26,573.26,573.26S1288,926.29,1288,610.19,1030.81,36.93,714.71,36.93Z"/><g class="cls-4"><path class="cls-2" d="M642.13,146.88l-15.55,2.78c-2.46.49-5.23.84-8.18,1.55l-9.55,2.22L598,155.92l-11.89,3.36c-16.66,4.44-35.57,11.37-55.48,19.55a513.07,513.07,0,0,0-59.94,30.89,519.91,519.91,0,0,0-54.91,39.21c-8.08,7.13-16.19,13.69-23.18,20.68-3.55,3.43-7.1,6.67-10.37,10l-9.28,9.74c-6.09,6.1-11,12.3-15.68,17.53S349,317,345.81,320.91l-7.2,9.19-2.39,3.37L326.07,326l2.45-3.45,7.39-9.44c3.22-4,6.94-9.09,11.76-14.43s9.85-11.73,16.1-18l9.52-10c3.36-3.39,7-6.72,10.65-10.24,7.18-7.18,15.5-13.92,23.8-21.24A532.19,532.19,0,0,1,464.12,199a524.53,524.53,0,0,1,61.55-31.73c20.45-8.41,39.88-15.51,57-20.07l12.22-3.45L606,141.16l9.81-2.27c3-.73,5.87-1.1,8.4-1.59l16-2.86Z"/><path class="cls-2" d="M802.84,128,793,126.27c-3.12-.64-7-1.07-11.37-1.63l-14.78-1.88a536.1,536.1,0,0,0-80-2c-29.12,1.39-57.92,6.33-79.22,11l-14.52,3.34c-4.29,1.13-8,2.25-11.06,3.1L572.41,141l-2.53-8.34,9.8-2.78c3.13-.87,6.9-2,11.26-3.15l14.78-3.41c21.68-4.8,51-9.81,80.63-11.23a543.69,543.69,0,0,1,81.4,2l15,1.91c4.48.58,8.39,1,11.57,1.66l10,1.79Z"/><path class="cls-2" d="M1110.09,283.36s-2.33-2.7-6.42-7.41l-7.36-8.51c-2.8-3.32-6.32-6.73-10-10.65l-5.75-6q-1.5-1.55-3-3.17l-3.27-3.13-13.94-13.3c-5-4.44-10.25-8.92-15.54-13.52l-4-3.45-4.17-3.28-8.4-6.6a522.65,522.65,0,0,0-65.4-43.11c-4.58-2.76-9.06-4.78-12.89-6.83l-10-5.12c-2.75-1.47-5-2.43-6.53-3.12l-2.33-1.06,2.86-6.15,2.37,1.08c1.54.7,3.82,1.67,6.61,3.16L953,148.34c3.89,2.07,8.42,4.13,13.06,6.93a528.82,528.82,0,0,1,66.27,43.67l8.51,6.68,4.22,3.34,4.06,3.48c5.36,4.67,10.69,9.2,15.74,13.71L1079,239.61l3.32,3.18,3.07,3.22,5.83,6.11c3.7,4,7.26,7.43,10.1,10.8l7.46,8.61,6.5,7.51Z"/><path class="cls-2" d="M1114.91,338.93s-2.31-3.23-6.34-8.9c-2-2.82-4.41-6.32-7.32-10.19s-6.38-8.1-10.06-12.79A487.7,487.7,0,0,0,959.54,193.37l-14.11-8.11-11.15-5.73-9.73-5,4.84-10,10,5.1,11.41,5.86,14.44,8.3a499,499,0,0,1,134.67,116.28c3.77,4.79,7.22,9.19,10.28,13.09s5.41,7.53,7.5,10.41l6.48,9.12Z"/><path class="cls-2" d="M1142.76,816.82s.41-.79,1.1-2.36l3.11-6.89,5-11.12c1.89-4.42,3.82-9.6,6.12-15.33a484.85,484.85,0,0,0,26.36-98.82q1-7.89,2-16.11c.33-2.74.75-5.49,1-8.29s.42-5.63.63-8.48c.38-5.71,1-11.49,1.2-17.4s.3-11.9.45-18a515.81,515.81,0,0,0-5.37-76.21,486.53,486.53,0,0,0-19.39-79.28,476.46,476.46,0,0,0-33.81-77.17c-27.1-49.71-63.84-93.85-103.72-128.74a455.73,455.73,0,0,0-61.28-45.57c-5-3.4-10.33-6.24-15.43-9.21s-10.11-5.93-15.26-8.43l-15-7.67-14.78-6.68c-2.43-1.07-4.79-2.24-7.2-3.19l-7.16-2.82-13.83-5.43-13.37-4.52c-4.34-1.46-8.52-3-12.69-4.05l-12-3.42L833.8,150l-5.55-1.29c-7.28-1.62-13.91-3.34-20-4.5-12.19-2.11-21.72-4.07-28.33-4.69l-10.08-1.28-1.34,11.54,9.84,1.25c6.45.6,15.74,2.52,27.63,4.57,5.92,1.14,12.39,2.82,19.49,4.39l5.42,1.26,5.56,1.58,11.73,3.33c4.07,1.05,8.15,2.53,12.38,4l13,4.4,13.49,5.3,7,2.75c2.36.93,4.65,2.07,7,3.12l14.42,6.51,14.64,7.49c5,2.42,9.89,5.35,14.88,8.21s10.13,5.67,15.05,9a444.14,444.14,0,0,1,59.79,44.45c38.91,34.05,74.76,77.12,101.19,125.61a464.58,464.58,0,0,1,33,75.27A476.18,476.18,0,0,1,1173,539.59a503.65,503.65,0,0,1,5.23,74.35q-.23,8.91-.44,17.55c-.17,5.77-.81,11.42-1.16,17-.21,2.78-.42,5.55-.63,8.28s-.66,5.41-1,8.09q-1,8-2,15.71a472.69,472.69,0,0,1-25.72,96.38c-2.24,5.6-4.12,10.65-6,15s-3.58,7.9-4.91,10.84l-3,6.73c-.66,1.53-1.07,2.29-1.07,2.29Z"/><path class="cls-2" d="M785.46,1088.43s2.73-.27,7.79-1.24,12.52-2.08,21.91-4.07a490.53,490.53,0,0,0,76.08-22.88l11.72-4.62,11.91-5.39c4-1.89,8.23-3.55,12.26-5.71s8.22-4.21,12.42-6.36c2.09-1.09,4.23-2.12,6.32-3.28l6.25-3.6,12.73-7.32,12.65-8.08,6.42-4.11c2.15-1.37,4.18-2.93,6.29-4.4l12.68-9c4.19-3.14,8.27-6.46,12.45-9.71l6.26-4.92c2.07-1.69,4.05-3.48,6.08-5.22l12.2-10.57q5.86-5.58,11.77-11.23c1.95-1.9,4-3.7,5.87-5.68l5.65-5.93c3.73-4,7.65-7.83,11.24-12l10.77-12.44c13.91-17,27.26-34.46,38.56-52.9l4.36-6.81,4-7,7.94-13.86,7.19-14c1.18-2.33,2.41-4.62,3.53-7l3.19-7.06a476.59,476.59,0,0,0,34.76-106.68c1.4-8.1,2.92-15.85,4.07-23.26,1-7.44,1.84-14.5,2.68-21.14.65-6.66,1-12.91,1.49-18.68.2-2.89.49-5.65.58-8.3s.13-5.19.19-7.59c.22-9.6.55-17.15.26-22.29s-.2-7.89-.2-7.89l5.56-.16s.07,2.78.2,8c.3,5.2,0,12.84-.26,22.55-.06,2.43-.12,5-.19,7.66s-.39,5.49-.58,8.41c-.48,5.83-.86,12.16-1.51,18.89q-1.27,10.06-2.72,21.38c-1.16,7.5-2.69,15.33-4.11,23.53-6.33,32.69-17.79,70.09-35.17,107.92l-3.22,7.14c-1.13,2.36-2.38,4.68-3.57,7q-3.62,7.06-7.28,14.21l-8,14-4.06,7.06-4.42,6.88c-11.42,18.65-24.92,36.35-39,53.51l-10.9,12.58c-3.63,4.2-7.6,8.07-11.37,12.12l-5.71,6c-1.91,2-4,3.83-5.94,5.74l-11.91,11.36-12.33,10.69c-2.06,1.76-4.07,3.57-6.15,5.28l-6.34,5c-4.23,3.29-8.35,6.65-12.59,9.82l-12.82,9.12c-2.14,1.48-4.2,3.06-6.37,4.45l-6.49,4.16-12.79,8.17-12.88,7.41-6.33,3.63c-2.11,1.18-4.27,2.22-6.39,3.32l-12.56,6.44c-4.08,2.19-8.34,3.86-12.4,5.77l-12,5.46-11.86,4.67a495.33,495.33,0,0,1-77,23.14c-9.5,2-17.06,3.13-22.17,4.12s-7.87,1.26-7.87,1.26Z"/><path class="cls-2" d="M553.37,1040.21l1.35.53c.89.36,2.2.91,4,1.47l15.22,5.14c3.25,1.19,7,2.23,11,3.34l13,3.7c4.64,1.29,9.68,2.28,14.94,3.55l8.1,1.88c2.77.62,5.65,1,8.57,1.58,5.85,1,11.9,2.3,18.25,3.11l19.66,2.5,20.89,1.6c7.13.47,14.45.43,21.88.69a466.29,466.29,0,0,0,92.52-8.38,452.21,452.21,0,0,0,160.49-64.6l7.34-4.7c2.38-1.55,4.59-3.24,6.81-4.79l12.52-8.92,10.62-8.36c3.27-2.6,6.37-4.87,8.93-7.21l12.16-10.53c1.42-1.2,2.47-2.16,3.15-2.84l1-1,6.89,7.47-1.08,1c-.69.7-1.77,1.67-3.22,2.9l-12.42,10.76c-2.62,2.39-5.78,4.72-9.12,7.37l-10.86,8.55-12.8,9.12c-2.26,1.58-4.53,3.3-7,4.89l-7.5,4.8a462.47,462.47,0,0,1-164.07,66,476.59,476.59,0,0,1-94.55,8.57c-7.59-.26-15.07-.23-22.36-.71l-21.34-1.63-20.1-2.56c-6.49-.83-12.67-2.18-18.66-3.18-3-.56-5.92-1-8.76-1.62l-8.28-1.92c-5.37-1.29-10.53-2.3-15.27-3.63L582,1060.45c-4.1-1.15-7.88-2.21-11.2-3.42l-15.56-5.26c-1.81-.57-3.15-1.14-4.07-1.49l-1.38-.55Z"/><path class="cls-2" d="M238,610.19s.25,9.21.68,25.32c1.25,16,2.63,39.1,8.19,66.17a481.89,481.89,0,0,0,27,90.16A479.53,479.53,0,0,0,398.28,966.55a482.81,482.81,0,0,0,76.22,55.3l8.79,5.06,4.24,2.44,4.25,2.17,15.9,8.15,14.31,6.48,6.35,2.88c2,.9,4,1.62,5.9,2.37,7.5,2.93,13.36,5.31,17.4,6.82l6.26,2.12L553.84,1072l-6.42-2.17c-4.15-1.54-10.17-4-17.86-7-1.91-.78-4-1.52-6-2.44l-6.52-3-14.67-6.66L486,1042.43l-4.36-2.24c-1.43-.82-2.89-1.65-4.35-2.5l-9-5.19a494.36,494.36,0,0,1-78.2-56.73A492.16,492.16,0,0,1,262.55,796.55,494.7,494.7,0,0,1,234.79,704c-5.69-27.78-7.13-51.43-8.39-67.88-.45-16.53-.7-26-.7-26Z"/><path class="cls-2" d="M420,1013.93l4.52,3.21c3,2.05,7.2,5.28,12.84,9s12.51,8.19,20.57,13c8.21,4.6,17.21,10.24,27.63,15.31,40.79,21.81,99.76,42.76,161,50.9a495.14,495.14,0,0,0,90.43,4.17,488,488,0,0,0,132.45-24l14.85-5c1.72-.56,3-1,3.88-1.4l1.32-.53,3.73,10-1.35.53c-.88.37-2.21.87-4,1.44l-15.16,5.13a497.72,497.72,0,0,1-135.28,24.5,506.39,506.39,0,0,1-92.34-4.25c-62.58-8.32-122.83-29.73-164.49-52-10.64-5.18-19.84-10.94-28.21-15.64-8.24-4.94-15.18-9.63-21-13.3s-10.07-7.08-13.11-9.17l-4.62-3.28Z"/><path class="cls-2" d="M238.45,819.54l7.35,16.25L255.13,854c1.73,3.56,3.86,7.19,6.07,11l7,12.09c2.36,4.26,5.28,8.41,8,12.86s5.64,9.06,8.89,13.58c6.47,9.08,13.12,18.78,20.81,28.2,7.32,9.71,15.78,19,24.13,28.67l13.3,13.95,3.35,3.51,3.5,3.35,7,6.71a500,500,0,0,0,58.93,48.16l7.36,5.23,7.46,4.81,14.45,9.23,14.07,8.09,6.71,3.85c2.22,1.21,4.45,2.31,6.61,3.43,8.67,4.4,16.52,8.65,23.8,11.74s13.42,6.24,18.72,8.28l16.6,6.54-3.58,9.52-16.92-6.67c-5.4-2.08-11.71-5.18-19.08-8.44s-15.43-7.48-24.28-12c-2.2-1.14-4.47-2.26-6.74-3.49l-6.83-3.92-14.35-8.26-14.73-9.4-7.6-4.9-7.52-5.34a509.9,509.9,0,0,1-60.07-49.09l-7.17-6.84-3.57-3.43-3.41-3.58-13.56-14.21c-8.51-9.84-17.13-19.33-24.59-29.23-7.85-9.61-14.63-19.49-21.22-28.74-3.31-4.62-6.13-9.39-9.06-13.85s-5.8-8.78-8.21-13.11L252.34,870c-2.25-3.91-4.42-7.62-6.19-11.24l-9.51-18.58-7.5-16.56Z"/><path class="cls-2" d="M732.92,86.53l-9.44-.24c-3.08,0-6.87-.29-11.33-.15l-15.35.38a520,520,0,0,0-94.44,11.76c-38.47,8.53-82.73,22.63-126.51,45.44-11.1,5.4-21.81,11.92-32.84,18.19-10.66,6.88-21.63,13.57-32,21.29-5.27,3.74-10.61,7.45-15.66,11.57s-10.31,8-15.35,12.17-9.91,8.59-14.88,12.88-9.58,9-14.38,13.48a525.18,525.18,0,0,0-93.9,121.94c-11.86,21.6-22.27,43.11-30.27,64.26-4.36,10.44-7.62,20.95-11.07,31-1.82,5-3,10.11-4.48,15s-2.82,9.77-4.08,14.54c-9.62,38.29-13.63,71.08-14.93,94-.22,2.87-.42,5.58-.62,8.14s-.16,4.95-.24,7.18c-.11,4.47-.21,8.26-.28,11.34-.16,6.16-.23,9.44-.23,9.44h-7.75l.23-9.58c.08-3.12.18-7,.29-11.5.09-2.26.08-4.7.25-7.29s.4-5.35.61-8.25c1.33-23.28,5.39-56.56,15.17-95.42,1.27-4.84,2.72-9.74,4.13-14.75s2.71-10.17,4.55-15.25c3.5-10.21,6.81-20.88,11.24-31.47,8.11-21.47,18.67-43.3,30.72-65.22a533.23,533.23,0,0,1,95.28-123.74c4.87-4.55,9.54-9.33,14.59-13.67L375,201c5.12-4.24,10.4-8.25,15.58-12.36s10.55-7.94,15.9-11.75C417,169.06,428.17,162.27,439,155.3c11.18-6.38,22.06-13,33.32-18.47,44.44-23.15,89.35-37.47,128.39-46.12a527.29,527.29,0,0,1,95.84-11.93l15.57-.39c4.53-.14,8.38.14,11.5.16l9.58.24Z"/><path class="cls-2" d="M1027.52,180.14l-6.19-4.4c-4-2.8-9.52-6.91-16.58-11.28s-15-9.81-24.14-14.81c-4.51-2.56-9.1-5.32-13.9-7.9L952,134.23c-2.47-1.25-4.91-2.55-7.4-3.74l-7.48-3.4-14.58-6.58c-9.62-3.87-18.62-7.45-26.38-10.37l-19-6.43c-4.57-1.6-7.25-2.29-7.25-2.29l2.11-7s2.73.7,7.36,2.33l19.25,6.51c7.87,3,17,6.59,26.74,10.52l14.78,6.67,7.59,3.44c2.51,1.21,5,2.53,7.49,3.79l14.89,7.64c4.86,2.59,9.52,5.39,14.09,8,9.21,5.08,17.4,10.48,24.47,15s12.8,8.59,16.8,11.42l6.28,4.47Z"/><path class="cls-2" d="M1178.6,796.49l2.21-5.6c1.43-3.66,3.66-9,5.89-16s5.44-15.3,8-25.19c1.37-4.92,2.93-10.12,4.39-15.66,1.29-5.58,2.65-11.45,4.06-17.57a515.93,515.93,0,0,0,10.9-85.07,498.15,498.15,0,0,0-29.89-193.35,495.5,495.5,0,0,0-36.49-77.62q-2.35-4.08-4.6-8c-1.48-2.61-3.17-5-4.68-7.45l-8.78-13.7c-5.89-8.34-11-15.63-15.36-21.52l-10.52-13.39-2.77-3.52c-.61-.8-1-1.19-1-1.19l5.22-4.32s.36.39,1,1.2l2.81,3.58c2.45,3.13,6.06,7.72,10.65,13.56,4.43,6,9.61,13.36,15.57,21.81l8.9,13.89c1.53,2.46,3.24,4.9,4.74,7.56s3.08,5.34,4.67,8.1a498.53,498.53,0,0,1,61.84,175.17,507.41,507.41,0,0,1,5.44,99.47,521.09,521.09,0,0,1-11,86.22c-1.43,6.21-2.8,12.16-4.11,17.81-1.48,5.62-3.06,10.9-4.45,15.88-2.63,10-5.82,18.48-8.14,25.54s-4.52,12.47-6,16.18l-2.24,5.67Z"/><path class="cls-2" d="M1043.85,1003.57l9-7.78c5.86-4.81,13.59-12.38,23-21.33a530,530,0,0,0,61-72.87,506.24,506.24,0,0,0,46.55-82.85c1.33-3,2.61-5.79,3.83-8.48l3.1-7.81c1.94-4.9,3.62-9.18,5-12.7s2.3-6.36,3-8.27,1-3,1-3l6.4,2.23-1,3c-.68,1.94-1.54,4.83-3,8.37L1196.58,805c-1,2.49-2,5.13-3.14,7.91l-3.88,8.6a512.55,512.55,0,0,1-47.17,84,534.87,534.87,0,0,1-61.79,73.82c-9.52,9.07-17.35,16.74-23.29,21.61l-9.11,7.89Z"/></g><path class="cls-5" d="M1747.52,427.35v4.84H1489.33c-108.65,0-219.79-87-281.74-173.2C1093.26,99.84,908.18,4.83,712.48,4.83c-336,0-609.26,273.31-609.26,609.28s273.31,609.29,609.26,609.26c194.54,0,379-94.11,493.43-251.78,62.42-86,174-172.79,282.57-172.79h259v4.84h-259c-106.87,0-217,85.77-278.66,170.76-115.33,158.93-301.24,253.81-497.34,253.81-338.62,0-614.1-275.48-614.1-614.1S373.86,0,712.48,0c197.24,0,383.8,95.76,499,256.16,61.23,85.19,170.88,171.19,277.82,171.19Z"/><path class="cls-6" d="M0,742.39V739H179.58c75.57,0,152.87,60.51,196,120.46a425,425,0,0,0,344.37,176.78c233.66,0,423.76-190.1,423.76-423.78S953.57,188.72,719.91,188.73c-135.32,0-263.62,65.46-343.2,175.13C333.29,423.66,255.69,484,180.17,484H0v-3.37H180.17c74.34,0,150.9-59.66,193.82-118.77,80.22-110.54,209.52-176.54,345.92-176.54C955.43,185.36,1147,377,1147,612.49s-191.6,427.14-427.12,427.14A428.5,428.5,0,0,1,372.8,861.47C330.22,802.21,254,742.39,179.57,742.39Z"/></g></g></svg>