<svg xmlns="http://www.w3.org/2000/svg" viewBox="0 0 285.66 33.69"><defs><style>.cls-1{isolation:isolate;}.cls-10,.cls-11,.cls-12,.cls-13,.cls-14,.cls-2,.cls-5,.cls-6,.cls-7,.cls-8,.cls-9{mix-blend-mode:color-dodge;}.cls-3{fill:#31756c;}.cls-4{fill:#263650;}.cls-5{fill:#e74e4e;}.cls-6{fill:#db4a4a;}.cls-7{fill:#d04646;}.cls-8{fill:#c44242;}.cls-9{fill:#ad3b3b;}.cls-10{fill:#a23737;}.cls-11{fill:#8b2f2f;}.cls-12{fill:#7f2b2b;}.cls-13{fill:#5c1f1f;}.cls-14{fill:#3a1313;}</style></defs><title>资源 3</title><g class="cls-1"><g id="图层_2" data-name="图层 2"><g id="Layer_1" data-name="Layer 1"><g class="cls-2"><polygon class="cls-3" points="133.35 33.67 0.12 33.67 0.12 29.67 131.71 29.67 161.72 0.01 285.66 0.01 285.66 4.01 163.36 4.01 133.35 33.67"/></g><g class="cls-2"><rect class="cls-3" y="29.64" width="28.67" height="4"/></g><g class="cls-2"><polygon class="cls-3" points="155.9 11.39 153.08 8.54 161.72 0 194.27 0 194.27 4 163.36 4 155.9 11.39"/></g><g class="cls-2"><rect class="cls-3" x="251.98" y="0.01" width="33.68" height="4"/></g><g class="cls-2"><polygon class="cls-3" points="133.34 33.69 103.53 33.69 103.53 29.69 131.7 29.69 139.13 22.33 141.94 25.18 133.34 33.69"/></g><g class="cls-2"><polygon class="cls-4" points="141.61 32.79 166.45 7.95 281.37 7.95 256.53 32.79 141.61 32.79"/><path class="cls-3" d="M256.7,33.19H140.64L166.29,7.55h116Zm-114.12-.8H256.36l24.05-24H166.62Z"/></g><polygon class="cls-5" points="146.6 30.73 167.31 10.02 175.67 10.02 154.96 30.73 146.6 30.73"/><polygon class="cls-6" points="157.79 30.73 178.5 10.02 186.86 10.02 166.15 30.73 157.79 30.73"/><polygon class="cls-7" points="168.98 30.73 189.69 10.02 198.05 10.02 177.34 30.73 168.98 30.73"/><polygon class="cls-8" points="180.17 30.73 200.88 10.02 209.24 10.02 188.53 30.73 180.17 30.73"/><polygon class="cls-9" points="191.36 30.73 212.07 10.02 220.43 10.02 199.72 30.73 191.36 30.73"/><polygon class="cls-10" points="202.55 30.73 223.26 10.02 231.62 10.02 210.91 30.73 202.55 30.73"/><polygon class="cls-11" points="213.74 30.73 234.45 10.02 242.81 10.02 222.1 30.73 213.74 30.73"/><polygon class="cls-12" points="224.93 30.73 245.64 10.02 254 10.02 233.29 30.73 224.93 30.73"/><polygon class="cls-13" points="236.12 30.73 256.83 10.02 265.19 10.02 244.48 30.73 236.12 30.73"/><polygon class="cls-14" points="247.31 30.73 268.02 10.02 276.38 10.02 255.68 30.73 247.31 30.73"/></g></g></g></svg>