<svg xmlns="http://www.w3.org/2000/svg" viewBox="0 0 30.34 30.34"><defs><style>.cls-1{fill:#69bffe;}</style></defs><title>资源 7</title><g id="图层_2" data-name="图层 2"><g id="央铋_1" data-name="央铋 1"><path class="cls-1" d="M15.17,29.6A14.43,14.43,0,1,1,29.6,15.17,14.45,14.45,0,0,1,15.17,29.6Zm0-28.44a14,14,0,1,0,14,14A14,14,0,0,0,15.17,1.16Z"/><rect class="cls-1" x="14.9" width="0.55" height="1.9"/><rect class="cls-1" x="4.84" y="4.17" width="0.55" height="1.9" transform="translate(-2.12 5.12) rotate(-45)"/><rect class="cls-1" y="14.9" width="1.9" height="0.55"/><rect class="cls-1" x="4.17" y="24.95" width="1.9" height="0.55" transform="translate(-16.34 11.01) rotate(-45)"/><rect class="cls-1" x="14.9" y="28.44" width="0.55" height="1.9"/><rect class="cls-1" x="24.95" y="24.28" width="0.55" height="1.9" transform="translate(-10.45 25.22) rotate(-45)"/><rect class="cls-1" x="28.44" y="14.9" width="1.9" height="0.55"/><rect class="cls-1" x="24.28" y="4.84" width="1.9" height="0.55" transform="translate(3.77 19.33) rotate(-44.99)"/><path class="cls-1" d="M14.35,27.31a11.34,11.34,0,0,1-1.64-.22l.08-.4a10.65,10.65,0,0,0,1.59.21Zm1.66,0,0-.41a11.93,11.93,0,0,0,1.59-.22l.09.41A13.08,13.08,0,0,1,16,27.31Zm-4.9-.66A13.83,13.83,0,0,1,9.58,26l.19-.37a13.61,13.61,0,0,0,1.47.64Zm8.15,0-.14-.39a11.89,11.89,0,0,0,1.47-.64l.19.37A13.68,13.68,0,0,1,19.26,26.64ZM8.16,25.12a14.31,14.31,0,0,1-1.29-1l.29-.31a11,11,0,0,0,1.24,1Zm14,0L22,24.77a10.73,10.73,0,0,0,1.24-1l.28.3A11.82,11.82,0,0,1,22.19,25.11ZM5.74,22.86a11.76,11.76,0,0,1-1-1.35l.35-.21a11.83,11.83,0,0,0,.93,1.3Zm18.87,0-.31-.26a14.7,14.7,0,0,0,.92-1.31l.35.21A11.52,11.52,0,0,1,24.61,22.85ZM4,20a12.62,12.62,0,0,1-.56-1.56l.4-.12a12.26,12.26,0,0,0,.54,1.51Zm22.33,0L26,19.85a12.88,12.88,0,0,0,.54-1.51l.39.11A12.71,12.71,0,0,1,26.34,20ZM3.11,16.85A13,13,0,0,1,3,15.19h.41a12.05,12.05,0,0,0,.11,1.6Zm24.12,0-.41-.06a12.29,12.29,0,0,0,.11-1.6l.28,0,.13,0A13.26,13.26,0,0,1,27.23,16.83ZM3.52,13.59l-.41-.05a11.21,11.21,0,0,1,.33-1.63l.4.11A12.14,12.14,0,0,0,3.52,13.59Zm23.29-.06A10.43,10.43,0,0,0,26.48,12l.4-.12a11.23,11.23,0,0,1,.34,1.63Zm-22.44-3L4,10.34a12.1,12.1,0,0,1,.77-1.47l.35.21A11.39,11.39,0,0,0,4.37,10.51Zm21.57-.06A10.62,10.62,0,0,0,25.2,9l.35-.22a11.41,11.41,0,0,1,.77,1.47ZM6,7.77l-.32-.26A13.06,13.06,0,0,1,6.84,6.29l.28.31A13.47,13.47,0,0,0,6,7.77Zm18.24,0a12.18,12.18,0,0,0-1.1-1.17l.28-.3a11.9,11.9,0,0,1,1.14,1.21ZM8.37,5.58l-.24-.34a11.3,11.3,0,0,1,1.41-.86l.19.36A11.83,11.83,0,0,0,8.37,5.58Zm13.55,0a12.8,12.8,0,0,0-1.37-.83l.19-.36a12.69,12.69,0,0,1,1.42.85ZM11.2,4.1l-.14-.39a11.19,11.19,0,0,1,1.6-.45l.09.4A11.47,11.47,0,0,0,11.2,4.1Zm7.88,0a12.31,12.31,0,0,0-1.55-.43l.08-.41a12.66,12.66,0,0,1,1.6.45Zm-4.75-.64,0-.41A11.36,11.36,0,0,1,16,3l0,.41A12.36,12.36,0,0,0,14.33,3.44Z"/><path class="cls-1" d="M11,6.23l-.18-.37a10.24,10.24,0,0,1,4.33-1v.41A9.7,9.7,0,0,0,11,6.23Z"/><path class="cls-1" d="M8.33,8.08,8,7.78c.2-.19.41-.37.62-.54l.26.31C8.71,7.72,8.52,7.9,8.33,8.08Z"/><path class="cls-1" d="M5.32,15.17H4.9a10.25,10.25,0,0,1,2.33-6.5l.32.26A9.85,9.85,0,0,0,5.32,15.17Z"/><path class="cls-1" d="M6.44,20.58a9.75,9.75,0,0,1-.49-.9l.37-.18c.14.29.3.58.47.86Z"/><path class="cls-1" d="M15.17,25.44a10.2,10.2,0,0,1-5.74-1.76l.23-.34A9.82,9.82,0,0,0,15.17,25Z"/><path class="cls-1" d="M18.67,24.82l-.14-.38a10.25,10.25,0,0,0,1-.44l.19.37A9.91,9.91,0,0,1,18.67,24.82Z"/><path class="cls-1" d="M20.8,23.76l-.23-.35a9.81,9.81,0,0,0,3.75-4.57l.38.15A10.18,10.18,0,0,1,20.8,23.76Z"/><path class="cls-1" d="M25.38,16.22l-.41,0a8.44,8.44,0,0,0,.05-1A9.65,9.65,0,0,0,24.11,11l.38-.18a10.19,10.19,0,0,1,1,4.32A9.24,9.24,0,0,1,25.38,16.22Z"/><path class="cls-1" d="M23.29,9.58a10,10,0,0,0-3.29-3l.2-.36a10.28,10.28,0,0,1,3.43,3.13Z"/><path class="cls-1" d="M17.9,5.7a10,10,0,0,0-2.73-.38V4.91A10.41,10.41,0,0,1,18,5.3Z"/></g></g></svg>