<svg xmlns="http://www.w3.org/2000/svg" viewBox="0 0 250.1 75.6"><defs><style>.cls-1{fill:#04cbf5;}.cls-2{opacity:0.5;}</style></defs><title>资源 5</title><g id="图层_2" data-name="图层 2"><g id="Layer_1" data-name="Layer 1"><rect class="cls-1" y="60.6" width="48" height="3"/><g class="cls-2"><polygon class="cls-1" points="188.21 62.6 42 62.6 42 61.6 187.79 61.6 249.4 0 250.1 0.71 188.21 62.6"/></g><rect class="cls-1" y="64.6" width="48" height="3"/><g class="cls-2"><polygon class="cls-1" points="188.21 66.6 42 66.6 42 65.6 187.79 65.6 241.77 11.63 242.48 12.33 188.21 66.6"/></g><rect class="cls-1" y="68.6" width="48" height="3"/><g class="cls-2"><polygon class="cls-1" points="188.21 70.6 42 70.6 42 69.6 187.79 69.6 229.27 28.13 229.98 28.83 188.21 70.6"/></g><rect class="cls-1" y="72.6" width="48" height="3"/><g class="cls-2"><polygon class="cls-1" points="188.21 74.6 42 74.6 42 73.6 187.79 73.6 216.9 44.5 217.6 45.21 188.21 74.6"/></g></g></g></svg>