<svg xmlns="http://www.w3.org/2000/svg" viewBox="0 0 49.31 9.55"><defs><style>.cls-1{fill:#00b8de;}.cls-1,.cls-2{fill-rule:evenodd;}.cls-2{fill:#ff7000;}</style></defs><title>资源 13</title><g id="图层_2" data-name="图层 2"><g id="Layer_1" data-name="Layer 1"><polygon class="cls-1" points="4.57 1.98 28.64 1.98 29.01 1.59 18.11 1.59 19.7 0 42.27 0 38.9 3.38 40.92 5.42 35.7 5.42 36.08 5.79 43.04 5.79 46.8 9.55 28.79 9.55 27.77 8.55 2.01 8.55 0 6.55 4.57 1.98"/><polygon class="cls-2" points="49.31 4.94 47.57 3.2 49.31 1.46 49.31 4.94"/><polygon class="cls-2" points="46.13 4.94 44.39 3.2 46.13 1.46 46.13 4.94"/><polygon class="cls-2" points="42.96 4.94 41.22 3.2 42.96 1.46 42.96 4.94"/><polygon class="cls-1" points="26.85 9.55 25.18 9.55 23.85 8.22 25.52 8.22 26.85 9.55"/><polygon class="cls-1" points="23.15 9.55 21.51 9.55 20.17 8.22 21.84 8.22 23.15 9.55"/><polygon class="cls-1" points="19.47 9.55 17.8 9.55 16.46 8.22 18.14 8.22 19.47 9.55"/><polygon class="cls-1" points="15.78 9.55 14.11 9.55 12.77 8.22 14.44 8.22 15.78 9.55"/><polygon class="cls-1" points="12.08 9.55 10.42 9.55 9.08 8.22 10.75 8.22 12.08 9.55"/><polygon class="cls-1" points="8.38 9.55 6.71 9.55 5.38 8.22 7.05 8.22 8.38 9.55"/><polygon class="cls-1" points="4.69 9.55 3.02 9.55 1.69 8.22 3.36 8.22 4.69 9.55"/></g></g></svg>