<svg xmlns="http://www.w3.org/2000/svg" viewBox="0 0 393.4 372"><defs><style>.cls-1{opacity:0.6;}.cls-2{fill:#00b4eb;}.cls-3{fill:#00b3ea;}</style></defs><title>资源 4</title><g id="图层_2" data-name="图层 2"><g id="Layer_1" data-name="Layer 1"><g class="cls-1"><polygon class="cls-2" points="304.06 29.83 6.4 29.83 6.4 46.5 51.4 46.5 51.4 135.5 26.4 165.31 26.4 287 51.4 287 51.4 334.5 6.4 370.5 140.05 370.5 168.4 342.15 168.4 334.83 90.81 334.83 90.81 126.83 168.4 98.07 168.4 55.5 393.4 55.5 393.4 1.5 337.9 1.5 304.06 29.83"/></g><path class="cls-3" d="M138.55,372H0l47.78-38.22V288.5h-25V164.77l25-29.82V48h-45V28.33H301.4L335.23,0h57.55V57h-225V99.11L90.19,127.87V333.33h77.59v9.44Zm-130-3H137.31l27.47-27.47v-5.2H87.19V125.79L164.78,97V54h225V3H336.32L302.49,31.33H5.78V45h45v91.05l-25,29.81V285.5h25v49.72Z"/></g></g></svg>