<svg xmlns="http://www.w3.org/2000/svg" viewBox="0 0 473.31 635.5"><defs><style>.cls-1{opacity:0.8;}.cls-2{fill:#5fffe8;}</style></defs><title>资源 9</title><g id="图层_2" data-name="图层 2"><g id="央铋_1" data-name="央铋 1"><g class="cls-1"><path class="cls-2" d="M231.87,424.33A192.45,192.45,0,0,1,95.78,95.78,192.46,192.46,0,1,1,368,368,191.24,191.24,0,0,1,231.87,424.33Zm0-381.2A188.73,188.73,0,0,0,98.41,365.32,188.73,188.73,0,1,0,365.32,98.41,187.49,187.49,0,0,0,231.86,43.13Z"/><path class="cls-2" d="M308.62,635.5h-1.86V536c0-41.88,33.53-84.7,66.74-108.57a235.55,235.55,0,0,0,97.95-190.8c0-129.46-105.33-234.79-234.8-234.79S1.87,107.19,1.87,236.65a235.68,235.68,0,0,0,97,190.14c33.15,24,66.59,67.06,66.59,108.89V635.5h-1.87V535.68c0-41.18-33.05-83.61-65.81-107.38A237.54,237.54,0,0,1,0,236.65C0,106.16,106.16,0,236.65,0S473.31,106.16,473.31,236.65A237.4,237.4,0,0,1,374.59,429c-32.84,23.59-66,65.85-66,107.06Z"/><rect class="cls-2" x="221.9" y="68.62" width="2.9" height="15.07" transform="translate(-2.25 6.96) rotate(-1.78)"/><polygon class="cls-2" points="209.3 85.21 206.44 85.61 204.37 70.67 207.25 70.27 209.3 85.21"/><polygon class="cls-2" points="193.81 88.41 190.98 89.11 187.39 74.47 190.2 73.78 193.81 88.41"/><polygon class="cls-2" points="178.74 93.21 176.02 94.2 170.89 80.02 173.63 79.04 178.74 93.21"/><polygon class="cls-2" points="164.25 99.57 161.65 100.84 155.07 87.27 157.69 86 164.25 99.57"/><polygon class="cls-2" points="150.52 107.39 148.05 108.93 140.1 96.13 142.56 94.59 150.52 107.39"/><polygon class="cls-2" points="137.67 116.63 135.37 118.4 126.14 106.51 128.42 104.71 137.67 116.63"/><polygon class="cls-2" points="125.86 127.14 123.76 129.15 113.32 118.28 115.4 116.26 125.86 127.14"/><rect class="cls-2" x="107.05" y="127.55" width="2.92" height="15.07" transform="translate(-64.71 130.68) rotate(-49.77)"/><polygon class="cls-2" points="105.84 151.59 104.21 153.98 91.73 145.52 93.36 143.12 105.84 151.59"/><polygon class="cls-2" points="97.84 165.24 96.48 167.8 83.18 160.68 84.55 158.11 97.84 165.24"/><polygon class="cls-2" points="91.34 179.65 90.23 182.34 76.28 176.65 77.37 173.95 91.34 179.65"/><polygon class="cls-2" points="86.36 194.66 85.56 197.45 71.07 193.25 71.88 190.47 86.36 194.66"/><rect class="cls-2" x="73.85" y="202.68" width="2.91" height="15.07" transform="translate(-144.83 247.65) rotate(-79.94)"/><polygon class="cls-2" points="81.23 225.83 81.03 228.73 66 227.64 66.21 224.74 81.23 225.83"/><polygon class="cls-2" points="81.14 241.65 81.23 244.55 66.18 245.04 66.09 242.14 81.14 241.65"/><polygon class="cls-2" points="82.72 257.39 83.11 260.27 68.19 262.33 67.78 259.44 82.72 257.39"/><polygon class="cls-2" points="85.92 272.88 86.62 275.7 71.97 279.31 71.28 276.49 85.92 272.88"/><polygon class="cls-2" points="90.72 287.95 91.7 290.68 77.52 295.8 76.55 293.07 90.72 287.95"/><rect class="cls-2" x="83.38" y="305.58" width="15.07" height="2.9" transform="translate(-125.19 70.75) rotate(-25.95)"/><polygon class="cls-2" points="104.89 316.18 106.44 318.64 93.64 326.6 92.09 324.13 104.89 316.18"/><polygon class="cls-2" points="114.12 329.03 115.9 331.31 104 340.57 102.21 338.28 114.12 329.03"/><polygon class="cls-2" points="124.65 340.84 126.66 342.94 115.8 353.38 113.77 351.28 124.65 340.84"/><polygon class="cls-2" points="136.34 351.49 138.55 353.37 128.83 364.89 126.61 363.01 136.34 351.49"/><polygon class="cls-2" points="149.09 360.87 151.48 362.49 143.03 374.97 140.62 373.34 149.09 360.87"/><polygon class="cls-2" points="162.74 368.86 165.3 370.22 158.18 383.51 155.62 382.14 162.74 368.86"/><polygon class="cls-2" points="177.15 375.36 179.85 376.45 174.16 390.42 171.46 389.33 177.15 375.36"/><polygon class="cls-2" points="367.13 166.76 365.87 164.14 379.42 157.57 380.7 160.18 367.13 166.76"/><rect class="cls-2" x="357.4" y="146.35" width="15.08" height="2.91" transform="matrix(0.85, -0.53, 0.53, 0.85, -23.09, 214.6)"/><polygon class="cls-2" points="350.07 140.17 348.3 137.87 360.19 128.62 361.98 130.92 350.07 140.17"/><polygon class="cls-2" points="339.56 128.34 337.55 126.25 348.41 115.81 350.44 117.91 339.56 128.34"/><polygon class="cls-2" points="327.87 117.69 325.65 115.83 335.36 104.31 337.59 106.18 327.87 117.69"/><polygon class="cls-2" points="315.11 108.33 312.72 106.7 321.18 94.22 323.6 95.85 315.11 108.33"/><polygon class="cls-2" points="301.45 100.35 298.93 98.98 306.01 85.68 308.59 87.05 301.45 100.35"/><rect class="cls-2" x="281.02" y="84.86" width="15.08" height="2.9" transform="translate(99.82 321.02) rotate(-67.85)"/><polygon class="cls-2" points="272.05 88.86 269.26 88.05 273.44 73.57 276.24 74.37 272.05 88.86"/><polygon class="cls-2" points="256.58 85.48 253.72 84.96 256.39 70.13 259.26 70.64 256.58 85.48"/><polygon class="cls-2" points="240.87 83.74 237.97 83.53 239.07 68.5 241.94 68.69 240.87 83.74"/><rect class="cls-2" x="227.07" y="53.45" width="2.88" height="29.94"/><rect class="cls-2" x="209.75" y="54.51" width="2.88" height="29.95" transform="translate(-6.1 22.43) rotate(-5.99)"/><rect class="cls-2" x="192.63" y="57.37" width="2.89" height="29.94" transform="translate(-10.84 42.21) rotate(-12.08)"/><rect class="cls-2" x="175.91" y="62.01" width="2.88" height="29.94" transform="translate(-15.11 58.55) rotate(-17.99)"/><polygon class="cls-2" points="168.62 96.44 165.97 97.6 153.8 70.24 156.43 69.07 168.62 96.44"/><polygon class="cls-2" points="154.56 103.59 152.05 105.03 137.08 79.1 139.57 77.66 154.56 103.59"/><polygon class="cls-2" points="141.31 112.19 138.98 113.88 121.38 89.66 123.72 87.97 141.31 112.19"/><polygon class="cls-2" points="129.05 122.12 126.91 124.05 106.86 101.8 109.01 99.86 129.05 122.12"/><polygon class="cls-2" points="117.88 133.28 115.96 135.43 93.71 115.39 95.63 113.25 117.88 133.28"/><rect class="cls-2" x="93.55" y="122.94" width="2.88" height="29.94" transform="translate(-72.43 133.95) rotate(-54.08)"/><rect class="cls-2" x="84.23" y="137.58" width="2.88" height="29.94" transform="translate(-89.28 150.49) rotate(-60.01)"/><polygon class="cls-2" points="92.19 172.85 91.02 175.48 63.66 163.3 64.84 160.67 92.19 172.85"/><polygon class="cls-2" points="86.53 187.57 85.63 190.33 57.16 181.07 58.05 178.33 86.53 187.57"/><polygon class="cls-2" points="82.44 202.82 81.84 205.65 52.56 199.43 53.16 196.61 82.44 202.82"/><polygon class="cls-2" points="79.98 218.42 79.67 221.29 49.9 218.16 50.2 215.3 79.98 218.42"/><rect class="cls-2" x="49.2" y="234.19" width="29.95" height="2.88"/><polygon class="cls-2" points="79.98 249.94 80.27 252.81 50.49 255.94 50.2 253.08 79.98 249.94"/><rect class="cls-2" x="53.13" y="268.61" width="29.94" height="2.88" transform="translate(-54.52 19.99) rotate(-11.97)"/><polygon class="cls-2" points="86.53 280.77 87.42 283.53 58.94 292.77 58.05 290.03 86.53 280.77"/><polygon class="cls-2" points="92.18 295.52 93.36 298.15 66 310.32 64.82 307.69 92.18 295.52"/><polygon class="cls-2" points="99.34 309.57 100.79 312.08 74.85 327.05 73.43 324.55 99.34 309.57"/><polygon class="cls-2" points="107.95 322.81 109.64 325.15 85.41 342.75 83.72 340.42 107.95 322.81"/><polygon class="cls-2" points="117.88 335.08 119.8 337.23 97.55 357.27 95.62 355.12 117.88 335.08"/><polygon class="cls-2" points="129.05 346.24 131.17 348.18 111.14 370.43 109 368.5 129.05 346.24"/><rect class="cls-2" x="118.7" y="367.7" width="29.94" height="2.88" transform="translate(-243.34 259.61) rotate(-53.89)"/><rect class="cls-2" x="133.33" y="377.02" width="29.95" height="2.89" transform="translate(-253.56 317.34) rotate(-59.95)"/><rect class="cls-2" x="148.86" y="384.76" width="29.94" height="2.89" transform="translate(-255.62 378.73) rotate(-65.99)"/><polygon class="cls-2" points="360.54 158.8 359.11 156.3 385.01 141.32 386.47 143.83 360.54 158.8"/><polygon class="cls-2" points="351.95 145.56 350.26 143.23 374.48 125.62 376.16 127.95 351.95 145.56"/><polygon class="cls-2" points="342.02 133.29 340.08 131.15 362.33 111.11 364.26 113.25 342.02 133.29"/><rect class="cls-2" x="324.82" y="108.59" width="29.94" height="2.89" transform="translate(30.43 288.55) rotate(-47.93)"/><rect class="cls-2" x="311.25" y="97.79" width="29.94" height="2.88" transform="translate(54.42 305.12) rotate(-54.06)"/><polygon class="cls-2" points="305.34 103.6 302.87 102.16 317.81 76.22 320.31 77.67 305.34 103.6"/><polygon class="cls-2" points="291.29 96.44 288.66 95.26 300.82 67.91 303.47 69.08 291.29 96.44"/><rect class="cls-2" x="264.83" y="74.64" width="29.94" height="2.9" transform="translate(120.32 318.26) rotate(-71.85)"/><rect class="cls-2" x="248.04" y="70.3" width="29.94" height="2.89" transform="matrix(0.21, -0.98, 0.98, 0.21, 137.82, 313.92)"/><polygon class="cls-2" points="245.71 84.22 242.85 83.92 245.97 54.14 248.85 54.45 245.71 84.22"/></g></g></g></svg>