<svg xmlns="http://www.w3.org/2000/svg" viewBox="0 0 388.34 388.34"><defs><style>.cls-1{opacity:0.8;}.cls-2{fill:#5fffe8;}</style></defs><title>资源 19</title><g id="图层_2" data-name="图层 2"><g id="央铋_1" data-name="央铋 1"><g class="cls-1"><rect class="cls-2" x="185.53" y="16.3" width="3.12" height="16.2" transform="translate(-0.68 5.94) rotate(-1.82)"/><polygon class="cls-2" points="172 34.12 168.91 34.55 166.69 18.5 169.79 18.07 172 34.12"/><rect class="cls-2" x="150.34" y="21.97" width="3.12" height="16.19" transform="translate(-2.78 37.19) rotate(-13.83)"/><rect class="cls-2" x="133.39" y="27.53" width="3.12" height="16.2" transform="translate(-4.08 47.94) rotate(-19.85)"/><rect class="cls-2" x="117.11" y="34.84" width="3.12" height="16.19" transform="translate(-6.85 56.05) rotate(-25.86)"/><rect class="cls-2" x="101.68" y="43.81" width="3.12" height="16.19" transform="translate(-11.85 62.25) rotate(-31.83)"/><rect class="cls-2" x="87.27" y="54.33" width="3.12" height="16.2" transform="translate(-19.62 67.53) rotate(-37.79)"/><rect class="cls-2" x="74.05" y="66.31" width="3.12" height="16.19" transform="translate(-30.46 73.03) rotate(-43.8)"/><polygon class="cls-2" points="70.9 91.73 68.89 94.11 56.51 83.68 58.52 81.28 70.9 91.73"/><rect class="cls-2" x="51.7" y="94.07" width="3.12" height="16.2" transform="translate(-61.18 88.84) rotate(-55.83)"/><rect class="cls-2" x="42.82" y="109.55" width="3.12" height="16.19" transform="translate(-80.27 101.17) rotate(-61.8)"/><polygon class="cls-2" points="45.26 135.58 44.08 138.46 29.08 132.36 30.25 129.46 45.26 135.58"/><rect class="cls-2" x="30.14" y="142.86" width="3.12" height="16.19" transform="translate(-122.1 139.24) rotate(-73.79)"/><polygon class="cls-2" points="36.29 168.31 35.74 171.38 19.8 168.53 20.34 165.45 36.29 168.31"/><polygon class="cls-2" points="34.41 185.19 34.19 188.3 18.04 187.14 18.26 184.02 34.41 185.19"/><rect class="cls-2" x="18.18" y="202.45" width="16.19" height="3.12" transform="translate(-6.66 0.97) rotate(-1.87)"/><polygon class="cls-2" points="36 219.1 36.42 222.19 20.38 224.41 19.96 221.31 36 219.1"/><rect class="cls-2" x="23.85" y="237.63" width="16.19" height="3.13" transform="translate(-56.24 14.57) rotate(-13.83)"/><polygon class="cls-2" points="44.6 251.93 45.66 254.86 30.43 260.37 29.36 257.42 44.6 251.93"/><polygon class="cls-2" points="51.42 267.49 52.78 270.3 38.21 277.36 36.84 274.55 51.42 267.49"/><polygon class="cls-2" points="59.83 282.26 61.48 284.91 47.73 293.45 46.07 290.8 59.83 282.26"/><polygon class="cls-2" points="69.75 296.06 71.66 298.52 58.88 308.47 56.95 306 69.75 296.06"/><polygon class="cls-2" points="81.05 308.76 83.21 311 71.53 322.23 69.36 319.97 81.05 308.76"/><polygon class="cls-2" points="93.61 320.2 96 322.21 85.56 334.59 83.16 332.57 93.61 320.2"/><polygon class="cls-2" points="107.31 330.26 109.88 332.01 100.8 345.41 98.21 343.67 107.31 330.26"/><polygon class="cls-2" points="121.97 338.84 124.72 340.31 117.08 354.59 114.32 353.12 121.97 338.84"/><rect class="cls-2" x="127.75" y="352.37" width="16.19" height="3.12" transform="translate(-243.18 346.16) rotate(-67.83)"/><polygon class="cls-2" points="153.59 351.19 156.58 352.05 152.08 367.61 149.08 366.74 153.59 351.19"/><polygon class="cls-2" points="170.19 354.81 173.26 355.36 170.4 371.3 167.33 370.75 170.19 354.81"/><polygon class="cls-2" points="187.08 356.68 190.19 356.9 189.02 373.06 185.9 372.83 187.08 356.68"/><rect class="cls-2" x="204.33" y="356.72" width="3.12" height="16.2" transform="translate(-11.55 6.76) rotate(-1.83)"/><polygon class="cls-2" points="220.98 355.09 224.07 354.67 226.28 370.71 223.18 371.14 220.98 355.09"/><polygon class="cls-2" points="237.62 351.65 240.65 350.91 244.53 366.63 241.49 367.39 237.62 351.65"/><polygon class="cls-2" points="253.81 346.5 256.74 345.43 262.24 360.67 259.31 361.74 253.81 346.5"/><polygon class="cls-2" points="269.37 339.67 272.18 338.31 279.25 352.88 276.43 354.25 269.37 339.67"/><polygon class="cls-2" points="284.14 331.26 286.79 329.62 295.33 343.37 292.67 345.02 284.14 331.26"/><polygon class="cls-2" points="297.94 321.35 300.4 319.43 310.34 332.22 307.88 334.14 297.94 321.35"/><polygon class="cls-2" points="310.63 310.05 312.88 307.89 324.1 319.57 321.85 321.74 310.63 310.05"/><rect class="cls-2" x="327.71" y="293.42" width="3.12" height="16.2" transform="translate(-113.46 359.17) rotate(-49.9)"/><polygon class="cls-2" points="332.14 283.79 333.89 281.22 347.3 290.3 345.54 292.89 332.14 283.79"/><polygon class="cls-2" points="340.72 269.12 342.19 266.38 356.47 274.02 355 276.78 340.72 269.12"/><polygon class="cls-2" points="347.72 253.64 348.89 250.76 363.89 256.86 362.72 259.75 347.72 253.64"/><polygon class="cls-2" points="353.06 237.51 353.93 234.52 369.48 239.02 368.62 242.02 353.06 237.51"/><polygon class="cls-2" points="356.68 220.91 357.24 217.84 373.17 220.69 372.63 223.77 356.68 220.91"/><polygon class="cls-2" points="358.56 204.02 358.79 200.91 374.93 202.08 374.72 205.2 358.56 204.02"/><polygon class="cls-2" points="358.65 187.03 358.56 183.91 374.74 183.39 374.85 186.51 358.65 187.03"/><polygon class="cls-2" points="356.98 170.12 356.55 167.03 372.59 164.81 373.02 167.92 356.98 170.12"/><polygon class="cls-2" points="353.54 153.48 352.79 150.45 368.51 146.57 369.26 149.61 353.54 153.48"/><polygon class="cls-2" points="348.37 137.29 347.32 134.35 362.55 128.86 363.62 131.79 348.37 137.29"/><polygon class="cls-2" points="341.55 121.72 340.19 118.92 354.76 111.86 356.14 114.67 341.55 121.72"/><polygon class="cls-2" points="333.14 106.96 331.5 104.31 345.25 95.76 346.91 98.42 333.14 106.96"/><polygon class="cls-2" points="323.23 93.16 321.32 90.7 334.1 80.76 336.02 83.22 323.23 93.16"/><polygon class="cls-2" points="311.93 80.47 309.77 78.22 321.45 67 323.62 69.25 311.93 80.47"/><polygon class="cls-2" points="299.37 69.03 296.99 67.02 307.42 54.64 309.81 56.65 299.37 69.03"/><polygon class="cls-2" points="285.68 58.96 283.1 57.21 292.19 43.81 294.77 45.55 285.68 58.96"/><polygon class="cls-2" points="271 50.38 268.26 48.91 275.89 34.63 278.66 36.1 271 50.38"/><polygon class="cls-2" points="255.52 43.38 252.64 42.21 258.74 27.2 261.64 28.38 255.52 43.38"/><polygon class="cls-2" points="239.39 38.04 236.4 37.17 240.9 21.62 243.9 22.48 239.39 38.04"/><polygon class="cls-2" points="222.79 34.41 219.72 33.86 222.57 17.92 225.65 18.47 222.79 34.41"/><polygon class="cls-2" points="205.9 32.55 202.8 32.32 203.96 16.17 207.08 16.38 205.9 32.55"/><rect class="cls-2" x="191.08" width="3.1" height="32.17"/><rect class="cls-2" x="172.47" y="1.14" width="3.1" height="32.16" transform="translate(-0.85 18.26) rotate(-5.99)"/><rect class="cls-2" x="154.09" y="4.21" width="3.1" height="32.17" transform="translate(-0.83 32.63) rotate(-11.94)"/><rect class="cls-2" x="136.12" y="9.2" width="3.1" height="32.16" transform="translate(-1.07 43.77) rotate(-18)"/><polygon class="cls-2" points="128.29 46.17 125.45 47.43 112.37 18.05 115.2 16.79 128.29 46.17"/><rect class="cls-2" x="102.24" y="24.63" width="3.1" height="32.17" transform="translate(-6.45 57.36) rotate(-30.01)"/><rect class="cls-2" x="86.69" y="34.92" width="3.1" height="32.17" transform="translate(-13.13 61.59) rotate(-35.99)"/><rect class="cls-2" x="72.31" y="46.78" width="3.1" height="32.17" transform="translate(-23.09 65.69) rotate(-42.07)"/><rect class="cls-2" x="59.25" y="60.07" width="3.1" height="32.17" transform="matrix(0.67, -0.74, 0.74, 0.67, -36.48, 70.41)"/><polygon class="cls-2" points="63.11 98.95 61.29 101.45 35.27 82.54 37.09 80.04 63.11 98.95"/><rect class="cls-2" x="37.62" y="90.38" width="3.1" height="32.17" transform="translate(-72.63 87.24) rotate(-60.05)"/><rect class="cls-2" x="29.3" y="107.06" width="3.1" height="32.17" transform="translate(-94.16 101.04) rotate(-65.91)"/><rect class="cls-2" x="22.77" y="124.52" width="3.1" height="32.17" transform="translate(-116.9 120.15) rotate(-71.94)"/><polygon class="cls-2" points="35.71 160.48 35.06 163.51 3.6 156.82 4.24 153.8 35.71 160.48"/><polygon class="cls-2" points="33.06 177.22 32.73 180.31 0.74 176.95 1.06 173.87 33.06 177.22"/><rect class="cls-2" x="14.54" y="179.63" width="3.1" height="32.17" transform="translate(-179.65 211.58) rotate(-89.94)"/><rect class="cls-2" x="1.14" y="212.77" width="32.17" height="3.1" transform="translate(-22.24 2.96) rotate(-5.98)"/><rect class="cls-2" x="4.21" y="231.16" width="32.17" height="3.09" transform="translate(-47.71 9.24) rotate(-11.94)"/><rect class="cls-2" x="9.19" y="249.12" width="32.17" height="3.1" transform="translate(-76.24 20.08) rotate(-18)"/><polygon class="cls-2" points="46.17 260.05 47.43 262.89 18.04 275.97 16.79 273.14 46.17 260.05"/><polygon class="cls-2" points="53.87 275.16 55.41 277.85 27.56 293.94 26.01 291.25 53.87 275.16"/><rect class="cls-2" x="34.92" y="298.55" width="32.17" height="3.1" transform="translate(-166.49 87.12) rotate(-35.96)"/><rect class="cls-2" x="46.77" y="312.93" width="32.17" height="3.1" transform="translate(-194.08 122.56) rotate(-41.94)"/><polygon class="cls-2" points="85.77 314.55 88.06 316.63 66.54 340.54 64.24 338.46 85.77 314.55"/><rect class="cls-2" x="74.66" y="337.61" width="32.17" height="3.1" transform="translate(-236.65 212.36) rotate(-53.85)"/><polygon class="cls-2" points="113.16 334.46 115.84 336.02 99.77 363.88 97.08 362.32 113.16 334.46"/><rect class="cls-2" x="107.06" y="355.94" width="32.17" height="3.1" transform="translate(-253.45 323.69) rotate(-65.86)"/><polygon class="cls-2" points="144.1 348.24 147.04 349.2 137.11 379.8 134.16 378.83 144.1 348.24"/><polygon class="cls-2" points="160.48 352.63 163.51 353.29 156.83 384.75 153.79 384.09 160.48 352.63"/><polygon class="cls-2" points="177.23 355.28 180.31 355.62 176.95 387.6 173.87 387.27 177.23 355.28"/><polygon class="cls-2" points="194.16 356.17 197.26 356.18 197.27 388.34 194.17 388.34 194.16 356.17"/><polygon class="cls-2" points="211.09 355.29 214.18 354.97 217.54 386.96 214.46 387.27 211.09 355.29"/><polygon class="cls-2" points="227.84 352.63 230.88 352 237.57 383.46 234.53 384.1 227.84 352.63"/><polygon class="cls-2" points="244.22 348.25 247.17 347.3 257.12 377.88 254.16 378.83 244.22 348.25"/><polygon class="cls-2" points="260.05 342.17 262.89 340.92 275.98 370.3 273.14 371.55 260.05 342.17"/><polygon class="cls-2" points="275.17 334.47 277.85 332.94 293.94 360.79 291.25 362.33 275.17 334.47"/><polygon class="cls-2" points="289.39 325.24 291.89 323.43 310.81 349.44 308.3 351.26 289.39 325.24"/><polygon class="cls-2" points="302.56 314.57 304.87 312.5 326.4 336.4 324.09 338.47 302.56 314.57"/><polygon class="cls-2" points="314.55 302.58 316.63 300.28 340.54 321.8 338.46 324.1 314.55 302.58"/><polygon class="cls-2" points="325.22 289.4 327.05 286.9 353.08 305.8 351.25 308.31 325.22 289.4"/><polygon class="cls-2" points="334.46 275.18 336.02 272.5 363.88 288.58 362.32 291.26 334.46 275.18"/><polygon class="cls-2" points="342.16 260.07 343.43 257.25 372.81 270.32 371.55 273.15 342.16 260.07"/><polygon class="cls-2" points="348.24 244.24 349.2 241.3 379.8 251.23 378.83 254.18 348.24 244.24"/><polygon class="cls-2" points="352.63 227.86 353.28 224.84 384.75 231.52 384.09 234.55 352.63 227.86"/><polygon class="cls-2" points="355.29 211.12 355.62 208.04 387.6 211.39 387.27 214.48 355.29 211.12"/><polygon class="cls-2" points="356.17 194.18 356.18 191.08 388.34 191.08 388.34 194.18 356.17 194.18"/><polygon class="cls-2" points="355.29 177.25 354.97 174.17 386.96 170.79 387.27 173.88 355.29 177.25"/><polygon class="cls-2" points="352.63 160.5 352 157.47 383.46 150.77 384.09 153.81 352.63 160.5"/><polygon class="cls-2" points="348.25 144.11 347.3 141.18 377.88 131.23 378.83 134.18 348.25 144.11"/><polygon class="cls-2" points="342.17 128.29 340.92 125.46 370.3 112.36 371.55 115.2 342.17 128.29"/><rect class="cls-2" x="331.55" y="102.24" width="32.16" height="3.1" transform="translate(-5.37 187.5) rotate(-29.96)"/><polygon class="cls-2" points="325.24 98.95 323.43 96.45 349.44 77.53 351.26 80.04 325.24 98.95"/><polygon class="cls-2" points="314.57 85.78 312.5 83.48 336.39 61.94 338.47 64.25 314.57 85.78"/><rect class="cls-2" x="296.1" y="59.24" width="32.17" height="3.1" transform="translate(57.99 251.94) rotate(-47.96)"/><polygon class="cls-2" points="289.4 63.12 286.9 61.29 305.79 35.26 308.3 37.09 289.4 63.12"/><polygon class="cls-2" points="275.18 53.88 272.5 52.33 288.57 24.46 291.25 26.02 275.18 53.88"/><polygon class="cls-2" points="260.07 46.18 257.25 44.92 270.31 15.53 273.15 16.8 260.07 46.18"/><polygon class="cls-2" points="244.24 40.1 241.3 39.14 251.22 8.55 254.18 9.51 244.24 40.1"/><polygon class="cls-2" points="227.86 35.71 224.84 35.06 231.51 3.6 234.55 4.25 227.86 35.71"/><polygon class="cls-2" points="211.12 33.05 208.04 32.73 211.38 0.74 214.47 1.07 211.12 33.05"/></g></g></g></svg>