<svg xmlns="http://www.w3.org/2000/svg" viewBox="0 0 207.56 207.56"><defs><style>.cls-1,.cls-2{fill:#dadada;}.cls-2,.cls-3{opacity:0.5;}.cls-4{fill:#f6f6f6;}</style></defs><title>资源 9</title><g id="图层_2" data-name="图层 2"><g id="图层_2-2" data-name="图层 2"><path class="cls-1" d="M132.85,119.34l-28.17-16.58L127,126.66A33.06,33.06,0,0,0,132.85,119.34Z"/><path class="cls-1" d="M141.42,124.38l-5.17-3a37.09,37.09,0,0,1-6.59,8.21l4.09,4.38A42.91,42.91,0,0,0,141.42,124.38Z"/><path class="cls-1" d="M151,130l-5.18-3a47.57,47.57,0,0,1-8.6,10.7l3.91,4.19A52.48,52.48,0,0,0,151,130Z"/><path class="cls-1" d="M145.48,146.51l8.77,9.41,13.08-16.3-10.84-6.37A59.26,59.26,0,0,1,145.48,146.51Z"/><path class="cls-1" d="M124.86,71.24a37,37,0,0,1,6.57,5l5.18-5.18a44.82,44.82,0,0,0-8.09-6.19Z"/><path class="cls-1" d="M106.12,65.92a37.16,37.16,0,0,1,8.09,1l1.9-7.08a45,45,0,0,0-10-1.23Z"/><path class="cls-1" d="M115.79,67.31a37.41,37.41,0,0,1,7.65,3.11l3.66-6.34a44.06,44.06,0,0,0-9.41-3.84Z"/><path class="cls-1" d="M149.09,92.82,142,94.72a37.49,37.49,0,0,1,1,8.26h7.33A44.85,44.85,0,0,0,149.09,92.82Z"/><path class="cls-1" d="M62.29,114.39l7.08-1.9a37.72,37.72,0,0,1-1.12-7.87H60.92A45,45,0,0,0,62.29,114.39Z"/><path class="cls-1" d="M144.8,81.75l-6.34,3.66a37.65,37.65,0,0,1,3.15,7.73l7.07-1.9A44.1,44.1,0,0,0,144.8,81.75Z"/><path class="cls-1" d="M132.59,77.41a37.58,37.58,0,0,1,5,6.58L144,80.33a44.89,44.89,0,0,0-6.21-8.1Z"/><path class="cls-1" d="M78.57,129.12a37.87,37.87,0,0,1-4.86-6.33l-6.35,3.67a45.54,45.54,0,0,0,6,7.84Z"/><path class="cls-1" d="M104.49,140.67a37.38,37.38,0,0,1-8-1.12l-1.9,7.08a45.21,45.21,0,0,0,9.95,1.37Z"/><path class="cls-1" d="M68.23,103a37.38,37.38,0,0,1,36.26-37V58.6A44.71,44.71,0,0,0,60.91,103Z"/><path class="cls-1" d="M86.06,135.17a38.16,38.16,0,0,1-6.33-4.89l-5.18,5.17a44.43,44.43,0,0,0,7.85,6.06Z"/><path class="cls-1" d="M94.86,139.11A36.5,36.5,0,0,1,87.47,136l-3.66,6.35A44,44,0,0,0,93,146.19Z"/><path class="cls-1" d="M72.89,121.38a36.84,36.84,0,0,1-3.08-7.31L62.72,116A44.86,44.86,0,0,0,66.54,125Z"/><path class="cls-1" d="M130.84,118.44a29.72,29.72,0,0,1-4,5.17l4.07,4.07a35.51,35.51,0,0,0,4.87-6.36Z"/><path class="cls-1" d="M135,103.7a29.67,29.67,0,0,1-.77,6.36l5.56,1.49a35,35,0,0,0,1-7.85Z"/><path class="cls-1" d="M133.92,111.3a29.32,29.32,0,0,1-2.44,6l5,2.88a35.26,35.26,0,0,0,3-7.4Z"/><path class="cls-1" d="M113.86,137.5l-1.5-5.57a29.57,29.57,0,0,1-6.5.78v5.76A35.18,35.18,0,0,0,113.86,137.5Z"/><path class="cls-1" d="M96.89,69.22l1.49,5.56a29.42,29.42,0,0,1,6.2-.87V68.14A35.39,35.39,0,0,0,96.89,69.22Z"/><path class="cls-1" d="M122.57,134.12l-2.88-5a29.39,29.39,0,0,1-6.08,2.48l1.49,5.57A35.21,35.21,0,0,0,122.57,134.12Z"/><path class="cls-1" d="M126,124.52a29.42,29.42,0,0,1-5.18,4l2.88,5a34.89,34.89,0,0,0,6.37-4.89Z"/><path class="cls-1" d="M85.31,82a29.37,29.37,0,0,1,5-3.83l-2.88-5A35.13,35.13,0,0,0,81.23,78Z"/><path class="cls-1" d="M76.22,102.41a29.28,29.28,0,0,1,.88-6.33l-5.57-1.49a34.77,34.77,0,0,0-1.07,7.82Z"/><path class="cls-1" d="M105.86,73.89A29.41,29.41,0,0,1,135,102.41h5.77a35.17,35.17,0,0,0-34.92-34.28Z"/><path class="cls-1" d="M104.58,132.69a29.41,29.41,0,0,1-28.37-29H70.45a35.16,35.16,0,0,0,34.13,34.75Z"/><path class="cls-1" d="M80.55,87.91a29.42,29.42,0,0,1,3.84-5l-4.07-4.08A35.29,35.29,0,0,0,75.55,85Z"/><path class="cls-1" d="M77.44,94.84A28.73,28.73,0,0,1,79.9,89l-5-2.89a35.49,35.49,0,0,0-3,7.2Z"/><path class="cls-1" d="M91.39,77.55a29.15,29.15,0,0,1,5.75-2.42l-1.49-5.57a34.89,34.89,0,0,0-7.14,3Z"/><line class="cls-1" x1="105.43" y1="174.46" x2="105.43" y2="31.41"/><line class="cls-1" x1="176.96" y1="102.93" x2="33.91" y2="102.93"/><rect class="cls-1" x="104.58" y="75.38" width="0.43" height="3.37"/><rect class="cls-1" x="106.64" y="75.38" width="0.43" height="3.37"/><rect class="cls-1" x="105.6" y="75.38" width="0.45" height="1.58"/><rect class="cls-1" x="100.06" y="75.95" width="0.43" height="3.37" transform="translate(-11.96 18.6) rotate(-10)"/><rect class="cls-1" x="102.09" y="75.6" width="0.43" height="3.37" transform="translate(-11.87 18.94) rotate(-10)"/><rect class="cls-1" x="100.91" y="75.79" width="0.45" height="1.58" transform="translate(-11.77 18.75) rotate(-10.01)"/><rect class="cls-1" x="95.72" y="77.3" width="0.43" height="3.38" transform="translate(-21.23 37.58) rotate(-20)"/><rect class="cls-1" x="97.65" y="76.6" width="0.43" height="3.37" transform="translate(-20.87 38.17) rotate(-19.99)"/><rect class="cls-1" x="96.37" y="77.01" width="0.45" height="1.58" transform="translate(-20.78 37.71) rotate(-19.99)"/><rect class="cls-1" x="91.67" y="79.39" width="0.43" height="3.37" transform="translate(-28.23 56.8) rotate(-30)"/><rect class="cls-1" x="93.45" y="78.36" width="0.43" height="3.37" transform="translate(-27.47 57.56) rotate(-30)"/><rect class="cls-1" x="92.1" y="78.99" width="0.45" height="1.58" transform="matrix(0.87, -0.5, 0.5, 0.87, -27.52, 56.86)"/><rect class="cls-1" x="88.05" y="82.14" width="0.43" height="3.37" transform="translate(-33.24 76.35) rotate(-40)"/><rect class="cls-1" x="89.62" y="80.82" width="0.43" height="3.37" transform="translate(-32.02 77.03) rotate(-39.99)"/><rect class="cls-1" x="88.25" y="81.69" width="0.45" height="1.58" transform="translate(-32.32 76.18) rotate(-40)"/><rect class="cls-1" x="84.96" y="85.49" width="0.43" height="3.37" transform="translate(-36.36 96.38) rotate(-50)"/><rect class="cls-1" x="86.28" y="83.91" width="0.43" height="3.37" transform="translate(-34.67 96.84) rotate(-50)"/><rect class="cls-1" x="84.92" y="85.02" width="0.45" height="1.58" transform="translate(-35.32 95.87) rotate(-49.99)"/><rect class="cls-1" x="82.49" y="89.32" width="0.43" height="3.38" transform="translate(-37.46 117.12) rotate(-59.99)"/><rect class="cls-1" x="83.52" y="87.53" width="0.43" height="3.37" transform="translate(-35.4 117.13) rotate(-60)"/><rect class="cls-1" x="82.22" y="88.87" width="0.45" height="1.58" transform="translate(-36.43 116.21) rotate(-59.99)"/><rect class="cls-1" x="80.74" y="93.51" width="0.43" height="3.37" transform="translate(-36.19 138.72) rotate(-70.01)"/><rect class="cls-1" x="81.44" y="91.58" width="0.43" height="3.37" transform="translate(-33.91 138.11) rotate(-70)"/><rect class="cls-1" x="80.24" y="93.14" width="0.45" height="1.58" transform="translate(-35.31 137.44) rotate(-70.01)"/><rect class="cls-1" x="79.73" y="97.95" width="0.43" height="3.37" transform="translate(-32.07 161.07) rotate(-80)"/><rect class="cls-1" x="80.09" y="95.93" width="0.43" height="3.37" transform="translate(-29.77 159.74) rotate(-80)"/><rect class="cls-1" x="79.02" y="97.68" width="0.45" height="1.58" transform="translate(-31.51 159.39) rotate(-79.99)"/><rect class="cls-1" x="78.04" y="103.97" width="3.37" height="0.43"/><rect class="cls-1" x="78.04" y="101.91" width="3.37" height="0.43"/><rect class="cls-1" x="78.04" y="102.93" width="1.58" height="0.45"/><rect class="cls-1" x="78.62" y="108.49" width="3.37" height="0.43" transform="translate(-17.66 15.6) rotate(-10)"/><rect class="cls-1" x="78.26" y="106.46" width="3.37" height="0.43" transform="translate(-17.31 15.51) rotate(-10)"/><rect class="cls-1" x="78.45" y="107.62" width="1.58" height="0.45" transform="translate(-17.54 15.42) rotate(-10.01)"/><rect class="cls-1" x="79.97" y="112.83" width="3.37" height="0.43" transform="translate(-33.74 34.75) rotate(-20)"/><rect class="cls-1" x="79.26" y="110.9" width="3.37" height="0.43" transform="translate(-33.13 34.4) rotate(-20)"/><rect class="cls-1" x="79.67" y="112.16" width="1.58" height="0.45" transform="translate(-33.58 34.28) rotate(-19.99)"/><rect class="cls-1" x="82.05" y="116.88" width="3.37" height="0.43" transform="translate(-47.33 57.56) rotate(-30)"/><rect class="cls-1" x="81.02" y="115.1" width="3.37" height="0.43" transform="translate(-46.57 56.79) rotate(-29.99)"/><rect class="cls-1" x="81.66" y="116.43" width="1.58" height="0.45" transform="translate(-47.28 56.84) rotate(-30)"/><rect class="cls-1" x="84.81" y="120.5" width="3.37" height="0.43" transform="translate(-57.36 83.85) rotate(-40)"/><rect class="cls-1" x="83.49" y="118.93" width="3.37" height="0.43" transform="translate(-56.65 82.61) rotate(-40)"/><rect class="cls-1" x="84.36" y="120.28" width="1.58" height="0.45" transform="translate(-57.54 82.91) rotate(-40)"/><rect class="cls-1" x="88.15" y="123.59" width="3.37" height="0.43" transform="translate(-62.75 113.04) rotate(-50)"/><rect class="cls-1" x="86.57" y="122.27" width="3.38" height="0.43" transform="translate(-62.3 111.36) rotate(-50)"/><rect class="cls-1" x="87.68" y="123.61" width="1.58" height="0.45" transform="translate(-63.26 112.03) rotate(-50.01)"/><rect class="cls-1" x="91.98" y="126.05" width="3.37" height="0.43" transform="translate(-62.52 144.27) rotate(-60.01)"/><rect class="cls-1" x="90.2" y="125.03" width="3.37" height="0.43" transform="matrix(0.5, -0.87, 0.87, 0.5, -62.52, 142.2)"/><rect class="cls-1" x="91.54" y="126.3" width="1.58" height="0.45" transform="translate(-63.42 143.19) rotate(-59.99)"/><rect class="cls-1" x="96.18" y="127.81" width="3.37" height="0.43" transform="translate(-55.92 176.19) rotate(-70)"/><rect class="cls-1" x="94.24" y="127.11" width="3.37" height="0.43" transform="translate(-56.53 173.91) rotate(-70)"/><rect class="cls-1" x="95.8" y="128.29" width="1.58" height="0.45" transform="translate(-57.22 175.32) rotate(-70)"/><rect class="cls-1" x="100.62" y="128.82" width="3.37" height="0.43" transform="translate(-42.54 207.37) rotate(-80)"/><rect class="cls-1" x="98.59" y="128.46" width="3.37" height="0.43" transform="translate(-43.86 205.08) rotate(-80)"/><rect class="cls-1" x="100.34" y="129.51" width="1.58" height="0.45" transform="translate(-44.18 206.83) rotate(-80.01)"/><rect class="cls-1" x="106.64" y="127.56" width="0.43" height="3.37"/><rect class="cls-1" x="104.58" y="127.56" width="0.43" height="3.37"/><rect class="cls-1" x="105.6" y="129.35" width="0.45" height="1.58"/><rect class="cls-1" x="111.15" y="126.99" width="0.43" height="3.37" transform="translate(-20.66 21.3) rotate(-10)"/><rect class="cls-1" x="109.12" y="127.35" width="0.43" height="3.37" transform="translate(-20.73 20.93) rotate(-9.99)"/><rect class="cls-1" x="110.28" y="128.94" width="0.45" height="1.58" transform="translate(-20.83 21.14) rotate(-9.99)"/><rect class="cls-1" x="115.5" y="125.64" width="0.43" height="3.37" transform="translate(-36.57 47.26) rotate(-20)"/><rect class="cls-1" x="113.56" y="126.34" width="0.43" height="3.37" transform="matrix(0.94, -0.34, 0.34, 0.94, -36.92, 46.63)"/><rect class="cls-1" x="114.83" y="127.73" width="0.45" height="1.58" transform="translate(-37.03 47.13) rotate(-20.01)"/><rect class="cls-1" x="119.54" y="123.55" width="0.43" height="3.37" transform="translate(-46.57 76.64) rotate(-29.99)"/><rect class="cls-1" x="117.76" y="124.58" width="0.43" height="3.37" transform="translate(-47.33 75.9) rotate(-30)"/><rect class="cls-1" x="119.09" y="125.74" width="0.45" height="1.58" transform="translate(-47.28 76.62) rotate(-30)"/><rect class="cls-1" x="123.17" y="120.8" width="0.43" height="3.37" transform="translate(-49.86 107.94) rotate(-39.99)"/><rect class="cls-1" x="121.59" y="122.12" width="0.43" height="3.37" transform="translate(-51.09 107.27) rotate(-40)"/><rect class="cls-1" x="122.94" y="123.04" width="0.45" height="1.58" transform="translate(-50.78 108.13) rotate(-40)"/><rect class="cls-1" x="126.26" y="117.46" width="0.43" height="3.37" transform="translate(-46.09 139.43) rotate(-50)"/><rect class="cls-1" x="124.93" y="119.03" width="0.43" height="3.38" transform="translate(-47.77 139) rotate(-50)"/><rect class="cls-1" x="126.27" y="119.71" width="0.45" height="1.58" transform="translate(-47.12 139.97) rotate(-50.01)"/><rect class="cls-1" x="128.72" y="113.63" width="0.43" height="3.37" transform="translate(-35.4 169.32) rotate(-60)"/><rect class="cls-1" x="127.69" y="115.41" width="0.43" height="3.37" transform="translate(-37.45 169.33) rotate(-60.01)"/><rect class="cls-1" x="128.97" y="115.86" width="0.45" height="1.58" transform="translate(-36.43 170.21) rotate(-60)"/><polygon class="cls-1" points="132.35 111.49 129.18 110.34 129.03 110.74 132.21 111.9 132.35 111.49"/><rect class="cls-1" x="129.77" y="111.36" width="0.43" height="3.37" transform="translate(-20.7 196.53) rotate(-70)"/><rect class="cls-1" x="130.96" y="111.6" width="0.45" height="1.58" transform="translate(-19.3 197.21) rotate(-70)"/><rect class="cls-1" x="131.48" y="104.99" width="0.43" height="3.37" transform="translate(3.79 217.86) rotate(-80.01)"/><rect class="cls-1" x="131.12" y="107.02" width="0.43" height="3.37" transform="translate(1.48 219.17) rotate(-80)"/><rect class="cls-1" x="132.17" y="107.05" width="0.45" height="1.58" transform="translate(3.19 219.49) rotate(-79.99)"/><rect class="cls-1" x="130.23" y="101.91" width="3.37" height="0.43"/><rect class="cls-1" x="130.23" y="103.97" width="3.37" height="0.43"/><rect class="cls-1" x="132.02" y="102.93" width="1.58" height="0.45"/><rect class="cls-1" x="129.65" y="97.4" width="3.37" height="0.43" transform="translate(-14.96 24.29) rotate(-10)"/><rect class="cls-1" x="130.01" y="99.42" width="3.37" height="0.43" transform="translate(-15.29 24.36) rotate(-9.99)"/><rect class="cls-1" x="131.61" y="98.25" width="1.58" height="0.45" transform="translate(-15.08 24.47) rotate(-9.99)"/><rect class="cls-1" x="128.3" y="93.05" width="3.37" height="0.43" transform="translate(-24.06 50.09) rotate(-20)"/><rect class="cls-1" x="129.01" y="94.99" width="3.37" height="0.43" transform="translate(-24.67 50.42) rotate(-19.99)"/><rect class="cls-1" x="130.39" y="93.7" width="1.58" height="0.45" transform="translate(-24.22 50.54) rotate(-20)"/><rect class="cls-1" x="126.22" y="89" width="3.37" height="0.43" transform="translate(-27.47 75.9) rotate(-30)"/><rect class="cls-1" x="127.25" y="90.79" width="3.38" height="0.43" transform="translate(-28.23 76.67) rotate(-30)"/><rect class="cls-1" x="128.4" y="89.44" width="1.58" height="0.45" transform="translate(-27.52 76.62) rotate(-30)"/><rect class="cls-1" x="123.46" y="85.38" width="3.37" height="0.43" transform="translate(-25.74 100.48) rotate(-40)"/><rect class="cls-1" x="124.79" y="86.96" width="3.37" height="0.43" transform="translate(-26.44 101.7) rotate(-40)"/><rect class="cls-1" x="125.7" y="85.58" width="1.58" height="0.45" transform="translate(-25.56 101.41) rotate(-40.01)"/><rect class="cls-1" x="120.12" y="82.29" width="3.37" height="0.43" transform="translate(-19.69 122.79) rotate(-50)"/><rect class="cls-1" x="121.7" y="83.62" width="3.37" height="0.43" transform="translate(-20.14 124.47) rotate(-50)"/><rect class="cls-1" x="122.38" y="82.26" width="1.58" height="0.45" transform="translate(-19.19 123.8) rotate(-49.99)"/><rect class="cls-1" x="116.29" y="79.83" width="3.37" height="0.43" transform="translate(-10.33 142.2) rotate(-60)"/><rect class="cls-1" x="118.07" y="80.86" width="3.37" height="0.43" transform="translate(-10.33 144.26) rotate(-60.01)"/><rect class="cls-1" x="118.52" y="79.56" width="1.58" height="0.45" transform="translate(-9.42 143.26) rotate(-60.01)"/><rect class="cls-1" x="112.09" y="78.07" width="3.37" height="0.43" transform="translate(1.3 158.42) rotate(-70)"/><rect class="cls-1" x="114.03" y="78.77" width="3.38" height="0.43" transform="translate(1.91 160.71) rotate(-70)"/><rect class="cls-1" x="114.26" y="77.57" width="1.58" height="0.45" transform="translate(2.62 159.33) rotate(-70.01)"/><rect class="cls-1" x="107.65" y="77.07" width="3.37" height="0.43" transform="translate(14.24 171.54) rotate(-80)"/><rect class="cls-1" x="109.68" y="77.42" width="3.37" height="0.43" transform="translate(15.56 173.83) rotate(-80)"/><rect class="cls-1" x="109.72" y="76.35" width="1.58" height="0.45" transform="translate(15.89 172.1) rotate(-79.99)"/><path class="cls-1" d="M61.33,89.93l.64.17a45.13,45.13,0,0,1,4.17-9.6l-.58-.33A46.39,46.39,0,0,0,61.33,89.93Z"/><path class="cls-1" d="M129.35,143.14a46.7,46.7,0,0,1-9.13,4.12l.17.64a46.32,46.32,0,0,0,9.29-4.19Z"/><path class="cls-1" d="M60,102.19a46,46,0,0,1,1.46-10.3l-.64-.17a46.8,46.8,0,0,0-1.48,10.47Z"/><path class="cls-1" d="M118.61,148.43l-.17-.63a46.24,46.24,0,0,1-10,1.64v.66A45.9,45.9,0,0,0,118.61,148.43Z"/><path class="cls-1" d="M130.93,142.16l.33.57a46.24,46.24,0,0,0,7.88-6.4l-.46-.46A46.46,46.46,0,0,1,130.93,142.16Z"/><path class="cls-1" d="M75,69.53a45.67,45.67,0,0,1,8.37-6.08L83,62.88a46.37,46.37,0,0,0-8.51,6.18Z"/><path class="cls-1" d="M84.64,62l.33.57a45.93,45.93,0,0,1,9.65-3.65l-.17-.64A46.71,46.71,0,0,0,84.64,62Z"/><path class="cls-1" d="M106.61,56.84H106a47.23,47.23,0,0,0-9.73,1l.17.64a46.35,46.35,0,0,1,9.56-1h.62Z"/><path class="cls-1" d="M67.1,78.91a45.84,45.84,0,0,1,6.52-8.1l-.47-.47a47,47,0,0,0-6.62,8.24Z"/><path class="cls-1" d="M106.61,149.5H106a46,46,0,0,1-46-45.45h-.66A46.65,46.65,0,0,0,106,150.16h.62Z"/><path class="cls-1" d="M108.46,57.56A46,46,0,0,1,152,102.19h.66A46.66,46.66,0,0,0,108.46,56.9Z"/><path class="cls-1" d="M145.83,126.51a45.94,45.94,0,0,1-5.87,8l.47.47a46.64,46.64,0,0,0,6-8.15Z"/><path class="cls-1" d="M152,104.05a46.5,46.5,0,0,1-1.18,9.86l.64.17a46.73,46.73,0,0,0,1.2-10Z"/><path class="cls-1" d="M150.35,115.71a45.91,45.91,0,0,1-3.62,9.18l.57.33a46.45,46.45,0,0,0,3.69-9.34Z"/><path class="cls-1" d="M151.85,78.51l-.64.37a51.21,51.21,0,0,1,4.28,10.86l.71-.19A51.31,51.31,0,0,0,151.85,78.51Z"/><path class="cls-1" d="M56.21,90.19a51.09,51.09,0,0,1,3.95-10.45l-.64-.37A52,52,0,0,0,55.5,90Z"/><path class="cls-1" d="M143.22,67.79a51.36,51.36,0,0,1,7,9.28l.64-.37a51.79,51.79,0,0,0-7.1-9.43Z"/><path class="cls-1" d="M60.5,77.55l.64.36a50.69,50.69,0,0,1,6.58-9.16l-.53-.53A52.52,52.52,0,0,0,60.5,77.55Z"/><path class="cls-1" d="M55.73,92.21,55,92a52.16,52.16,0,0,0-1.17,11.27h.74A51.65,51.65,0,0,1,55.73,92.21Z"/><path class="cls-1" d="M157.18,105.36a50.83,50.83,0,0,1-1.81,11.4l.72.19a52.43,52.43,0,0,0,1.83-11.59Z"/><path class="cls-1" d="M155.5,118.94l-.72-.19a50.87,50.87,0,0,1-4.73,10.5l.64.37A52.08,52.08,0,0,0,155.5,118.94Z"/><path class="cls-1" d="M142.23,140.33l.5-.48a52.15,52.15,0,0,0,6.86-8.47L149,131a51.41,51.41,0,0,1-6.76,8.32l-.49.48Z"/><path class="cls-1" d="M156,91.75a51.57,51.57,0,0,1,1.24,11.54H158a52.1,52.1,0,0,0-1.27-11.73Z"/><path class="cls-1" d="M69.13,67.24c.16-.17.32-.34.49-.5a51.32,51.32,0,0,1,72.15-.42l.52-.53a52.07,52.07,0,0,0-73.2.43l-.48.49Z"/><path class="cls-1" d="M140.2,141.23a51.33,51.33,0,0,1-69.54-.88l-.52.52a52.07,52.07,0,0,0,70.58.88Z"/><path class="cls-1" d="M56.32,116.31a50.91,50.91,0,0,1-1.68-11H53.9a52.05,52.05,0,0,0,1.71,11.14Z"/><path class="cls-1" d="M69.19,138.89a51.18,51.18,0,0,1-6.85-8.7l-.64.37a52.46,52.46,0,0,0,7,8.85Z"/><path class="cls-1" d="M61.28,128.41A51.19,51.19,0,0,1,56.9,118.3l-.72.19a51.92,51.92,0,0,0,4.46,10.29Z"/><path class="cls-1" d="M149,80.31l-.59.34a48.11,48.11,0,0,1,4,10.16l.67-.18A48.41,48.41,0,0,0,149,80.31Z"/><path class="cls-1" d="M59.56,91.24a48.06,48.06,0,0,1,3.7-9.78l-.6-.34a48.45,48.45,0,0,0-3.76,9.94Z"/><path class="cls-1" d="M140.94,70.29A48,48,0,0,1,147.46,79l.6-.34a48.88,48.88,0,0,0-6.64-8.82Z"/><path class="cls-1" d="M63.57,79.41l.6.34a48.14,48.14,0,0,1,6.15-8.57l-.48-.49A48.53,48.53,0,0,0,63.57,79.41Z"/><path class="cls-1" d="M59.12,93.12l-.67-.18a49.35,49.35,0,0,0-1.1,10.55H58A48.25,48.25,0,0,1,59.12,93.12Z"/><path class="cls-1" d="M154,105.42a47.75,47.75,0,0,1-1.69,10.67l.67.18a48.78,48.78,0,0,0,1.71-10.85Z"/><path class="cls-1" d="M152.42,118.12l-.67-.18a47.21,47.21,0,0,1-4.43,9.82l.6.35A48.83,48.83,0,0,0,152.42,118.12Z"/><path class="cls-1" d="M140,138.13l.46-.45a49.08,49.08,0,0,0,6.43-7.93l-.6-.34a48.17,48.17,0,0,1-6.32,7.78l-.46.45Z"/><path class="cls-1" d="M152.87,92.69a48,48,0,0,1,1.17,10.8h.69a49,49,0,0,0-1.19-11Z"/><path class="cls-1" d="M71.65,69.77l.45-.46a48,48,0,0,1,67.48-.4l.48-.49a48.69,48.69,0,0,0-68.45.4l-.45.46Z"/><path class="cls-1" d="M138.11,139a48,48,0,0,1-65-.83l-.49.49a48.7,48.7,0,0,0,66,.83Z"/><path class="cls-1" d="M59.67,115.66a48.07,48.07,0,0,1-1.58-10.24H57.4A49.11,49.11,0,0,0,59,115.84Z"/><path class="cls-1" d="M71.7,136.78a48.3,48.3,0,0,1-6.41-8.14l-.59.35a49,49,0,0,0,6.51,8.28Z"/><path class="cls-1" d="M64.3,127a48.43,48.43,0,0,1-4.1-9.46l-.66.18a48.61,48.61,0,0,0,4.17,9.62Z"/><path class="cls-1" d="M105.53,80.05a22.7,22.7,0,1,0,22.7,22.7A22.7,22.7,0,0,0,105.53,80.05Zm0,42a19.3,19.3,0,1,1,19.29-19.3A19.3,19.3,0,0,1,105.53,122.05Z"/><path class="cls-1" d="M105.53,79.57a23.22,23.22,0,1,0,23.22,23.22A23.23,23.23,0,0,0,105.53,79.57Zm21.25,29.21-1,.55a.64.64,0,0,1-.6,0,21.34,21.34,0,0,1-2.09,4.36.72.72,0,0,1,.16.3l.25,1.11a.62.62,0,0,1-.17.59l-4.78,4.79a.67.67,0,0,1-.63.16l-1.06-.29a.71.71,0,0,1-.28-.16,19.71,19.71,0,0,1-2.06,1.15.8.8,0,0,1,0,.15l-.33,1.09a.67.67,0,0,1-.45.43l-3.07.82a.62.62,0,0,1-.62-.17l-.62-.62a21.18,21.18,0,0,1-2.52.33.64.64,0,0,1-.19.6l-.83.77a.63.63,0,0,1-.6.15L94.43,122a.65.65,0,0,1-.46-.46l-.28-1.07a.63.63,0,0,1,.14-.58,21.47,21.47,0,0,1-4.57-4.2.62.62,0,0,1-.6.19l-1.11-.24a.65.65,0,0,1-.47-.41l-3.85-10.57a.66.66,0,0,1,.12-.63l.71-.85a.67.67,0,0,1,.57-.22c0-.12,0-.25,0-.38a20.71,20.71,0,0,1,3.79-12l-.2-.89a.63.63,0,0,1,.17-.6l4.78-4.78a.63.63,0,0,1,.62-.17l1.07.29a.67.67,0,0,1,.17.08,20.71,20.71,0,0,1,7.41-2.59h0l.6-1a.65.65,0,0,1,.55-.3h3.18a.62.62,0,0,1,.55.32l.5.86A21.06,21.06,0,0,1,113,83.1a.61.61,0,0,1,.42-.46l1.08-.35a.64.64,0,0,1,.61.12l8.62,7.23a.64.64,0,0,1,.22.61l-.2,1.08a.63.63,0,0,1-.38.48,20.2,20.2,0,0,1,1.87,4,.6.6,0,0,1,.62,0l1,.6a.63.63,0,0,1,.3.54v11.25A.65.65,0,0,1,126.78,108.78Z"/><path class="cls-2" d="M123.09,104.55,109.73,103l-.1.82,9.08,1s.07,2.41,2.18,2.45a2,2,0,0,0,2.11-2.06l1,.09.08-.69Z"/><path class="cls-1" d="M121,107.37h-.07c-2-.05-2.2-2.19-2.21-2.46l-9.08-1,.1-.88h0l14.41,1.64-.09.75-1-.08a2.47,2.47,0,0,1-.64,1.54A2,2,0,0,1,121,107.37Zm-11.29-3.55,9.07,1v0s.1,2.38,2.15,2.42H121a1.92,1.92,0,0,0,1.39-.5,2.4,2.4,0,0,0,.62-1.53v0l1,.08.07-.63-14.32-1.62Z"/><path class="cls-2" d="M122.93,100l-13.3,2,.12.81,9-1.35s.7,2.31,2.75,1.81a2,2,0,0,0,1.51-2.54l1-.19-.11-.68Z"/><path class="cls-1" d="M121,103.31c-1.51,0-2.13-1.65-2.21-1.88l-9,1.36v0l-.12-.85h0l13.3-2v0l1-.16.11.75-1,.18a2.48,2.48,0,0,1-.22,1.65,2,2,0,0,1-1.32.9A2.34,2.34,0,0,1,121,103.31Zm-2.16-2v0s.71,2.27,2.7,1.79a1.94,1.94,0,0,0,1.28-.87,2.4,2.4,0,0,0,.21-1.64v0l1-.18-.09-.63L109.67,102l.11.75Z"/><path class="cls-2" d="M121.59,95.54l-12.33,5.37.33.75L118,98s1.27,2,3.12,1a2,2,0,0,0,.8-2.84l.93-.44-.28-.64Z"/><path class="cls-1" d="M109.57,101.7v0l-.34-.78h0l13.3-5.79.3.7-.93.43a2.45,2.45,0,0,1,.22,1.65,2,2,0,0,1-1,1.21c-1.75,1-3-.8-3.15-1Zm-.27-.78.3.7L118,98l0,0s1.28,2,3.07,1a1.94,1.94,0,0,0,1-1.16,2.41,2.41,0,0,0-.22-1.63l0,0,.94-.44-.26-.58Z"/><path class="cls-2" d="M119.15,91.63,108.63,100l.51.64L116.29,95s1.76,1.65,3.28.2a2,2,0,0,0,0-3l.78-.66L120,91Z"/><path class="cls-1" d="M109.14,100.69l-.55-.69,0,0L120,91l.47.59,0,0-.76.64a2.47,2.47,0,0,1,.64,1.55,2,2,0,0,1-.7,1.43c-1.44,1.37-3.1,0-3.3-.17Zm-.46-.68.47.6,7.14-5.69,0,0s1.75,1.61,3.24.19a1.92,1.92,0,0,0,.67-1.39,2.34,2.34,0,0,0-.63-1.51l0,0,.78-.66L120,91l-.78.62Z"/><path class="cls-2" d="M115.79,88.49l-8,10.81.66.49,5.43-7.34s2.13,1.13,3.22-.67a2,2,0,0,0-.73-2.86l.59-.84-.56-.42Z"/><path class="cls-1" d="M108.46,99.83l-.71-.52,0,0,8.62-11.66.61.45-.58.84a2.45,2.45,0,0,1,1,1.33,2,2,0,0,1-.3,1.56c-1,1.7-3,.81-3.24.69Zm-.62-.54.61.45,5.42-7.33h0s2.11,1.1,3.18-.65a2,2,0,0,0,.29-1.52,2.38,2.38,0,0,0-1-1.3l0,0,.58-.84-.5-.38Z"/><path class="cls-2" d="M111.73,86.32,106.8,98.83l.76.31,3.35-8.5s2.35.55,2.94-1.48a2,2,0,0,0-1.45-2.57l.35-1-.65-.25Z"/><path class="cls-1" d="M107.58,99.18l-.82-.33v0l5.31-13.49.71.27-.35,1a2.4,2.4,0,0,1,1.32,1,2,2,0,0,1,.12,1.59c-.56,1.91-2.69,1.56-2.95,1.51Zm-.74-.36.71.27,3.34-8.49h0s2.32.52,2.9-1.45a2,2,0,0,0-.11-1.54,2.39,2.39,0,0,0-1.31-1h0l.35-1-.59-.23Z"/><path class="cls-2" d="M107.24,85.28l-1.52,13.36.82.09,1-9.07s2.41-.08,2.46-2.18A2,2,0,0,0,108,85.36l.09-1-.69-.08Z"/><path class="cls-1" d="M106.57,98.77l-.88-.1v0l1.64-14.41.75.08-.08,1a2.47,2.47,0,0,1,1.54.64,2,2,0,0,1,.52,1.51c0,2-2.19,2.19-2.46,2.21Zm-.81-.16.75.09,1-9.07h0s2.38-.1,2.42-2.15a1.9,1.9,0,0,0-.5-1.46A2.4,2.4,0,0,0,108,85.4h0l.08-1-.63-.07Z"/><path class="cls-2" d="M102.64,85.44l2,13.3.81-.13-1.35-9s2.31-.7,1.81-2.74a2,2,0,0,0-2.54-1.51l-.19-1-.68.1Z"/><path class="cls-1" d="M104.6,98.77v0L102.45,84.4l.75-.12.18,1a2.42,2.42,0,0,1,1.65.22,2,2,0,0,1,.9,1.32c.47,1.93-1.55,2.69-1.81,2.78l1.36,9h0Zm-2.08-14.32,2.13,14.25.75-.11-1.35-9h0s2.27-.71,1.79-2.71a1.94,1.94,0,0,0-.87-1.27,2.4,2.4,0,0,0-1.64-.21h0l-.18-1Z"/><path class="cls-2" d="M98.23,86.78l5.37,12.33.75-.33-3.64-8.37s2-1.27,1-3.12a2,2,0,0,0-2.84-.8l-.44-.93-.64.28Z"/><path class="cls-1" d="M103.58,99.15v0l-5.79-13.3.7-.3.43.93a2.41,2.41,0,0,1,1.66-.22,2,2,0,0,1,1.2,1c1,1.75-.8,3-1,3.15l3.64,8.38h0Zm-5.72-13.3,5.75,13.22.7-.31-3.64-8.37h0s2-1.28,1-3.08a2,2,0,0,0-1.16-1,2.38,2.38,0,0,0-1.64.23h0l-.44-.93Z"/><path class="cls-2" d="M94.32,89.21l8.38,10.53.64-.52-5.69-7.14s1.65-1.76.2-3.28a2,2,0,0,0-3,0L94.23,88l-.54.43Z"/><path class="cls-1" d="M102.69,99.78l0,0-9-11.35.59-.47,0,0,.64.76a2.45,2.45,0,0,1,1.52-.64h0a2,2,0,0,1,1.43.7c1.37,1.43,0,3.1-.17,3.3l5.68,7.15Zm-9-11.36,9,11.27.6-.47-5.69-7.14,0,0s1.61-1.76.19-3.24a2,2,0,0,0-1.39-.68h0a2.47,2.47,0,0,0-1.51.64l0,0L94.23,88Z"/><path class="cls-2" d="M91.18,92.58l10.81,8,.49-.66-7.34-5.43s1.13-2.12-.67-3.22a2,2,0,0,0-2.86.73l-.84-.58-.41.56Z"/><path class="cls-1" d="M102,100.62l0,0L90.31,92l.45-.61.84.58a2.45,2.45,0,0,1,1.33-1,2,2,0,0,1,1.56.3c1.7,1,.81,3,.69,3.23l7.34,5.44ZM90.4,92,102,100.53l.45-.61L95.1,94.49v0s1.1-2.11-.65-3.18A1.91,1.91,0,0,0,92.94,91a2.38,2.38,0,0,0-1.3,1l0,0-.84-.59Z"/><path class="cls-2" d="M89,96.64l12.51,4.93.31-.77-8.5-3.34s.55-2.35-1.48-2.94A2,2,0,0,0,89.28,96l-1-.35-.25.65Z"/><path class="cls-1" d="M101.54,101.61h0L88,96.28l.27-.7,1,.35a2.44,2.44,0,0,1,1-1.33,2,2,0,0,1,1.59-.11c1.91.56,1.56,2.68,1.51,3l8.5,3.34ZM89,96.61l12.49,4.92.27-.71-8.49-3.34v0s.52-2.32-1.45-2.9a2,2,0,0,0-1.54.11,2.39,2.39,0,0,0-1,1.31v0l-1-.35-.23.59Z"/><path class="cls-2" d="M88,101.13l13.36,1.52.09-.82-9.07-1s-.08-2.41-2.18-2.46a2,2,0,0,0-2.12,2.07l-1-.09L87,101Z"/><path class="cls-1" d="M101.36,102.68h0L86.92,101l.08-.75,1,.08a2.47,2.47,0,0,1,.64-1.54,2,2,0,0,1,1.44-.52h.07c2,0,2.19,2.19,2.21,2.46l9.08,1ZM88,101.1l13.32,1.51.09-.75-9.07-1v0s-.1-2.38-2.15-2.43H90.1a1.89,1.89,0,0,0-1.39.51,2.38,2.38,0,0,0-.62,1.52v0l-1-.08L87,101Z"/><path class="cls-2" d="M88.13,105.73l13.3-2-.13-.81-9,1.35s-.7-2.31-2.74-1.81A2,2,0,0,0,88,105l-1,.19.1.68Z"/><path class="cls-1" d="M87.09,105.92l-.12-.75,1-.18a2.45,2.45,0,0,1,.22-1.66,2,2,0,0,1,1.32-.89c1.93-.47,2.69,1.55,2.78,1.8l9-1.35v0l.13.85h0l-13.3,2v0Zm0-.7.09.63,14.25-2.14-.11-.75-9,1.35v0s-.71-2.27-2.71-1.79a1.94,1.94,0,0,0-1.27.87,2.37,2.37,0,0,0-.21,1.63v0Z"/><path class="cls-2" d="M89.47,110.14l12.33-5.37-.33-.75-8.37,3.64s-1.27-2-3.12-1a2,2,0,0,0-.8,2.84l-.93.44.28.64Z"/><path class="cls-1" d="M88.51,110.59l-.3-.7.92-.43a2.49,2.49,0,0,1-.21-1.66,2,2,0,0,1,1-1.2c1.75-1,3,.8,3.15,1l8.38-3.64v0l.34.78h0Zm-.22-.67.25.58,13.22-5.74-.31-.7-8.36,3.64,0,0s-1.28-2-3.08-1a2,2,0,0,0-1,1.17,2.33,2.33,0,0,0,.23,1.63v0Z"/><path class="cls-2" d="M91.9,114l10.53-8.37-.52-.64-7.14,5.68s-1.76-1.64-3.28-.19a2,2,0,0,0,0,3l-.78.66.43.54Z"/><path class="cls-1" d="M91.1,114.73l-.48-.6,0,0,.76-.64a2.41,2.41,0,0,1-.64-1.54,2,2,0,0,1,.7-1.43c1.43-1.38,3.1,0,3.3.17l7.15-5.69.55.7,0,0Zm-.39-.59.4.5,11.27-9-.47-.6-7.14,5.69,0,0s-1.76-1.61-3.24-.2a2,2,0,0,0-.68,1.39,2.39,2.39,0,0,0,.64,1.52l0,0Z"/><path class="cls-2" d="M95.27,117.19l8-10.81-.66-.49-5.43,7.34s-2.12-1.14-3.22.66a2,2,0,0,0,.73,2.87l-.58.84.56.41Z"/><path class="cls-1" d="M94.67,118.06l-.61-.45.58-.84a2.45,2.45,0,0,1-1-1.33,2,2,0,0,1,.3-1.56c1-1.7,3-.81,3.23-.69l5.44-7.35.71.53,0,0Zm-.53-.47.51.38,8.57-11.59-.61-.45-5.43,7.34h0s-2.11-1.1-3.18.65a2,2,0,0,0-.29,1.52,2.38,2.38,0,0,0,1,1.29l0,0Z"/><path class="cls-2" d="M99.33,119.36l4.93-12.52-.77-.3-3.34,8.5s-2.35-.55-2.94,1.47a2,2,0,0,0,1.45,2.58l-.35,1,.65.26Z"/><path class="cls-1" d="M99,120.35l-.71-.28.34-1a2.45,2.45,0,0,1-1.32-1,2,2,0,0,1-.11-1.59c.56-1.91,2.68-1.55,2.95-1.5l3.34-8.5.83.33v0Zm-.63-.31.59.23,5.28-13.41-.71-.28-3.34,8.5h0s-2.32-.52-2.9,1.45a2,2,0,0,0,.11,1.54,2.39,2.39,0,0,0,1.31,1h0Z"/><path class="cls-2" d="M103.82,120.4,105.34,107l-.82-.1-1,9.08s-2.41.07-2.46,2.18a2,2,0,0,0,2.07,2.11l-.09,1,.69.07Z"/><path class="cls-1" d="M103.73,121.45l-.75-.09.08-1a2.47,2.47,0,0,1-1.54-.64,2,2,0,0,1-.52-1.51c0-2,2.19-2.2,2.46-2.21l1-9.08.88.1v0Zm-.68-.14.62.07,1.63-14.32-.75-.08-1,9.07h0s-2.38.1-2.43,2.15a2,2,0,0,0,.51,1.46,2.38,2.38,0,0,0,1.53.62h0Z"/><path class="cls-2" d="M108.42,120.24l-2-13.3-.81.12,1.35,9s-2.31.7-1.81,2.75a2,2,0,0,0,2.54,1.51l.18,1,.69-.11Z"/><path class="cls-1" d="M107.86,121.39l-.18-1a2.51,2.51,0,0,1-1.66-.22,2,2,0,0,1-.89-1.32c-.47-1.94,1.55-2.69,1.8-2.78l-1.35-9h0l.85-.12v0l2.15,14.34Zm-.13-1.08.18,1,.63-.09L106.4,107l-.75.11,1.35,9h0s-2.27.72-1.79,2.71a1.94,1.94,0,0,0,.87,1.28,2.37,2.37,0,0,0,1.63.21Z"/><path class="cls-2" d="M112.83,118.9l-5.37-12.33-.75.33,3.64,8.37s-2,1.27-1,3.12a2,2,0,0,0,2.84.8l.44.93.64-.28Z"/><path class="cls-1" d="M112.58,120.16l-.44-.93a2.42,2.42,0,0,1-1.65.22,2,2,0,0,1-1.2-1c-1-1.75.8-3,1-3.15l-3.64-8.38h0l.78-.34v0l5.79,13.3Zm-.41-1,.44.93.58-.26-5.74-13.21-.7.3,3.64,8.37,0,0s-2,1.28-1,3.07a2,2,0,0,0,1.17,1,2.41,2.41,0,0,0,1.63-.22Z"/><path class="cls-2" d="M116.73,116.46l-8.37-10.52-.64.51,5.68,7.15s-1.64,1.76-.19,3.28a2,2,0,0,0,3,0l.66.78.54-.43Z"/><path class="cls-1" d="M116.82,117.74l0,0-.64-.76a2.41,2.41,0,0,1-1.51.64h0a2,2,0,0,1-1.43-.7c-1.38-1.44,0-3.1.17-3.3l-5.69-7.15.7-.55,0,0,9,11.35Zm-.65-.87.66.79.5-.4-9-11.27-.6.47,5.69,7.14,0,0s-1.61,1.76-.2,3.24a1.93,1.93,0,0,0,1.39.67h0a2.4,2.4,0,0,0,1.49-.63Z"/><path class="cls-2" d="M119.88,113.1l-10.81-8-.49.66,7.34,5.43s-1.14,2.13.66,3.22a2,2,0,0,0,2.87-.73l.84.59.41-.56Z"/><path class="cls-1" d="M117.71,114.8a2.17,2.17,0,0,1-1.14-.36c-1.7-1-.81-3-.69-3.24l-7.35-5.43.53-.71,0,0,11.66,8.62-.45.61-.84-.58a2.45,2.45,0,0,1-1.33,1A1.52,1.52,0,0,1,117.71,114.8Zm-9.09-9,7.34,5.43v0s-1.1,2.11.65,3.18a2,2,0,0,0,1.52.29,2.38,2.38,0,0,0,1.29-1l0,0,.84.58.38-.5-11.59-8.57Z"/><path class="cls-2" d="M122.05,109l-12.52-4.93-.3.77,8.5,3.34s-.55,2.35,1.47,2.94a2,2,0,0,0,2.58-1.45l1,.35.26-.65Z"/><path class="cls-1" d="M119.9,111.3a2.67,2.67,0,0,1-.71-.11c-1.91-.56-1.55-2.69-1.5-3l-8.5-3.35.33-.82h0l13.5,5.31-.28.71-1-.35a2.38,2.38,0,0,1-1,1.32A1.75,1.75,0,0,1,119.9,111.3Zm-10.63-6.44,8.5,3.34v0s-.52,2.32,1.45,2.9a2,2,0,0,0,1.54-.11,2.37,2.37,0,0,0,1-1.32v0l1,.35.23-.59-13.41-5.28Z"/><path class="cls-1" d="M109.06,102.79a3.53,3.53,0,1,1-3.53-3.53A3.53,3.53,0,0,1,109.06,102.79Z"/><path class="cls-1" d="M105.53,104.11a1.32,1.32,0,1,1,1.32-1.32A1.32,1.32,0,0,1,105.53,104.11Zm0-2.58a1.26,1.26,0,1,0,0,2.51,1.26,1.26,0,0,0,0-2.51Z"/><path class="cls-1" d="M105.53,107.22a4.43,4.43,0,1,1,4.43-4.43A4.44,4.44,0,0,1,105.53,107.22Zm0-8.79a4.36,4.36,0,1,0,4.36,4.36A4.36,4.36,0,0,0,105.53,98.43Z"/><path class="cls-1" d="M105.25,85.68v13h.8V89.87s2.31-.34,2.13-2.38A2,2,0,0,0,106,85.68l0-1h-.68Z"/><path class="cls-1" d="M100.83,86.33l3.38,12.6.77-.2-2.29-8.56s2.14-.93,1.44-2.84a2,2,0,0,0-2.61-1.18l-.29-1-.65.17Z"/><path class="cls-1" d="M96.74,88.11l6.52,11.3L104,99l-4.43-7.67s1.83-1.45.65-3.12a2,2,0,0,0-2.82-.46l-.53-.85-.58.34Z"/><path class="cls-1" d="M93.24,90.89l9.22,9.22.56-.57-6.26-6.26s1.4-1.87-.17-3.18a2,2,0,0,0-2.86.29L93,89.71l-.48.47Z"/><path class="cls-1" d="M90.57,94.47l11.3,6.52.4-.69L94.6,95.87s.86-2.17-1-3a2,2,0,0,0-2.68,1l-.88-.47-.34.59Z"/><path class="cls-1" d="M88.93,98.63l12.6,3.37.21-.77-8.56-2.29s.27-2.32-1.74-2.67A2,2,0,0,0,89.11,98l-1-.23-.17.65Z"/><path class="cls-1" d="M88.42,103.06h13v-.79H92.61s-.34-2.32-2.38-2.13a2,2,0,0,0-1.81,2.22l-1,0v.67Z"/><path class="cls-1" d="M89.07,107.48l12.6-3.37-.2-.77-8.56,2.29s-.93-2.15-2.84-1.44a2,2,0,0,0-1.18,2.61l-1,.29.17.65Z"/><path class="cls-1" d="M90.85,111.58l11.3-6.52-.4-.69-7.67,4.43S92.63,107,91,108.14A2,2,0,0,0,90.5,111l-.85.53.34.58Z"/><path class="cls-1" d="M93.63,115.08l9.22-9.22-.57-.56L96,111.56s-1.87-1.4-3.18.17a2,2,0,0,0,.29,2.85l-.68.73.47.48Z"/><path class="cls-1" d="M97.21,117.74l6.52-11.29-.69-.4-4.43,7.67s-2.17-.86-3,1a2,2,0,0,0,1,2.68l-.47.88.59.34Z"/><path class="cls-1" d="M101.37,119.39l3.37-12.6-.77-.21-2.29,8.56s-2.32-.27-2.67,1.74a2,2,0,0,0,1.68,2.32l-.23,1,.65.18Z"/><path class="cls-1" d="M105.8,119.9v-13H105v8.85s-2.32.34-2.13,2.38a2,2,0,0,0,2.22,1.81l0,1h.67Z"/><path class="cls-1" d="M110.22,119.24l-3.37-12.59-.77.2,2.29,8.56s-2.15.92-1.44,2.84a2,2,0,0,0,2.61,1.18l.29.95.65-.17Z"/><path class="cls-1" d="M114.32,117.47l-6.52-11.3-.69.4,4.43,7.67s-1.83,1.45-.66,3.12a2,2,0,0,0,2.83.46l.53.85.58-.34Z"/><path class="cls-1" d="M117.82,114.69l-9.22-9.22L108,106l6.26,6.27s-1.4,1.87.17,3.18a2,2,0,0,0,2.85-.29l.73.68.48-.47Z"/><path class="cls-1" d="M120.48,111.11l-11.29-6.53-.4.69,7.67,4.43s-.86,2.18,1,3a2,2,0,0,0,2.68-1l.88.47.34-.59Z"/><path class="cls-1" d="M122.13,107l-12.6-3.37-.21.77,8.56,2.29s-.27,2.32,1.74,2.67a2,2,0,0,0,2.32-1.68l1,.23.18-.65Z"/><path class="cls-1" d="M122.64,102.51h-13v.8h8.85s.34,2.31,2.38,2.13a2,2,0,0,0,1.81-2.22l1,0v-.68Z"/><path class="cls-1" d="M122,98.09l-12.59,3.38.2.77,8.56-2.29s.92,2.14,2.84,1.44a2,2,0,0,0,1.18-2.61l1-.29-.17-.65Z"/><path class="cls-1" d="M120.21,94l-11.3,6.52.4.69L117,96.78s1.45,1.83,3.12.65a2,2,0,0,0,.46-2.82l.85-.53-.34-.58Z"/><path class="cls-1" d="M117.43,90.5l-9.22,9.22.56.56L115,94s1.87,1.4,3.18-.17a2,2,0,0,0-.29-2.86l.68-.72-.47-.48Z"/><path class="cls-1" d="M113.84,87.83l-6.52,11.3.69.4,4.43-7.67s2.18.86,3-1a2,2,0,0,0-1-2.68l.47-.88-.59-.34Z"/><path class="cls-1" d="M109.69,86.19l-3.37,12.6.77.21,2.29-8.56s2.32.27,2.67-1.74a2,2,0,0,0-1.68-2.33l.23-1-.65-.17Z"/><path class="cls-1" d="M165,104.23l0,1.26,3.82.2c0-.48,0-1,0-1.46Z"/><path class="cls-1" d="M164.93,101.23c0,.42,0,.84,0,1.26h3.83c0-.48,0-1,0-1.46Z"/><path class="cls-1" d="M163.93,92.31c.08.41.15.83.22,1.24l3.78-.6c-.08-.48-.17-1-.26-1.43Z"/><path class="cls-1" d="M164.6,110.21l-.15,1.26,3.77.6c.07-.48.13-1,.18-1.46Z"/><path class="cls-1" d="M164.74,98.24c0,.42.07.84.1,1.26l3.82-.2c0-.49-.07-1-.11-1.46Z"/><path class="cls-1" d="M164.41,95.27c.06.41.11.83.16,1.25l3.8-.4c-.05-.49-.12-1-.18-1.45Z"/><path class="cls-1" d="M164.86,107.22l-.09,1.27,3.8.4c0-.49.08-1,.11-1.47Z"/><path class="cls-1" d="M162.07,122c-.13.41-.27.81-.41,1.21l3.57,1.37c.17-.46.33-.93.48-1.4Z"/><path class="cls-1" d="M161.07,124.79c-.15.4-.31.8-.47,1.2l3.49,1.55c.19-.45.37-.91.55-1.38Z"/><path class="cls-1" d="M162.92,119.06c-.11.41-.22.82-.34,1.23l3.64,1.18c.14-.47.27-.94.4-1.42Z"/><path class="cls-1" d="M163.63,116.14c-.09.41-.18.83-.28,1.24l3.7,1c.11-.48.22-1,.32-1.44Z"/><path class="cls-1" d="M164.19,113.19c-.07.42-.14.83-.22,1.25l3.75.79c.09-.48.17-1,.25-1.44Z"/><path class="cls-1" d="M151.3,65.43l.81,1,3-2.41c-.31-.38-.62-.77-.94-1.15Z"/><path class="cls-1" d="M153.16,67.81c.26.34.51.68.75,1l3.1-2.25-.87-1.19Z"/><path class="cls-1" d="M154.9,70.27c.24.35.47.7.7,1.06l3.21-2.08q-.41-.63-.81-1.23Z"/><path class="cls-1" d="M156.51,72.81c.22.36.43.73.64,1.09L160.46,72l-.74-1.27Z"/><path class="cls-1" d="M159.92,127.58c-.17.4-.35.79-.53,1.17l3.41,1.74c.21-.45.42-.9.62-1.35Z"/><path class="cls-1" d="M145,58.9l1,.87,2.56-2.84-1.11-1Z"/><path class="cls-1" d="M149.32,63.16c.29.31.57.63.85,1L153,61.56c-.33-.38-.66-.75-1-1.11Z"/><path class="cls-1" d="M160.53,80.85c.16.39.32.78.47,1.17l3.57-1.37q-.25-.68-.54-1.35Z"/><path class="cls-1" d="M158,75.42l.58,1.13L162,74.81c-.22-.44-.45-.87-.68-1.3Z"/><path class="cls-1" d="M162.52,86.5c.12.4.23.8.35,1.21l3.69-1c-.13-.47-.26-.94-.4-1.4Z"/><path class="cls-1" d="M161.6,83.65l.41,1.19,3.63-1.18c-.15-.46-.31-.92-.47-1.38Z"/><path class="cls-1" d="M163.3,89.39c.1.4.19.81.28,1.22l3.74-.79c-.1-.48-.21-.95-.33-1.42Z"/><path class="cls-1" d="M159.33,78.11c.18.38.35.76.53,1.15l3.49-1.56c-.2-.45-.4-.89-.61-1.33Z"/><path class="cls-1" d="M152.14,140.52l-.85,1.06,2.84,2.56c.33-.4.66-.81,1-1.22Z"/><path class="cls-1" d="M115.49,162.41l-1.37.22.4,3.81,1.56-.25Z"/><path class="cls-1" d="M127.39,159l-1.26.49,1.19,3.64,1.44-.55Z"/><path class="cls-1" d="M118.54,161.8l-1.35.29.6,3.78c.52-.1,1-.21,1.55-.33Z"/><path class="cls-1" d="M147.08,146.15l2.56,2.85c.38-.37.75-.74,1.12-1.12l-2.71-2.7Z"/><path class="cls-1" d="M124.5,160.1l-1.28.43,1,3.7,1.47-.49Z"/><path class="cls-1" d="M121.56,161l-1.33.36.79,3.74c.51-.13,1-.26,1.53-.41Z"/><path class="cls-1" d="M112.8,166.67l-.4-3.81L111,163l.2,3.83Z"/><path class="cls-1" d="M63.57,146.45c-.36-.35-.72-.7-1.07-1.06L59.66,148c.4.41.8.81,1.21,1.21Z"/><path class="cls-1" d="M105.17,163.3a59.57,59.57,0,0,1-24.23-5.12L79.2,161.6a63.4,63.4,0,0,0,26,5.52h1v-3.82Z"/><path class="cls-1" d="M63.49,60.62l-2.7-2.71-1.15,1.15,2.84,2.56Z"/><path class="cls-1" d="M147.22,61c.31.3.61.6.91.91l2.7-2.7c-.34-.36-.69-.71-1.05-1.06Z"/><path class="cls-1" d="M105.17,43.69l1,0V39.88h-1.59l.2,3.82Z"/><path class="cls-1" d="M143.49,149.41l-1.08.88,2.25,3.1c.41-.33.83-.66,1.23-1Z"/><path class="cls-1" d="M145.83,147.35c-.34.32-.68.62-1,.93l2.41,3c.4-.35.79-.71,1.17-1.07Z"/><path class="cls-1" d="M150.16,142.9l-.92,1,2.71,2.7c.35-.38.71-.77,1.05-1.16Z"/><path class="cls-1" d="M154,138.09l-.76,1,3,2.41c.3-.4.6-.8.89-1.21Z"/><path class="cls-1" d="M140.28,55.09c.36.25.71.51,1.05.77l2.25-3.09-1.21-.9Z"/><path class="cls-1" d="M155.65,135.57c-.23.37-.47.73-.71,1.09l3.1,2.25.82-1.25Z"/><path class="cls-1" d="M157.21,133c-.21.37-.43.74-.65,1.11l3.21,2.09q.39-.65.75-1.29Z"/><path class="cls-1" d="M133.11,156.38l-1.26.65,1.56,3.5,1.43-.74Z"/><path class="cls-1" d="M135.84,154.84c-.4.24-.8.48-1.21.71l1.74,3.41,1.38-.8Z"/><path class="cls-1" d="M158.64,130.32c-.2.38-.39.76-.6,1.14l3.32,1.91c.23-.44.46-.87.68-1.32Z"/><path class="cls-1" d="M130.29,157.78l-1.3.58,1.37,3.58,1.48-.66Z"/><path class="cls-1" d="M138.49,153.17l-1.17.76,1.91,3.32c.45-.29.9-.58,1.34-.88Z"/><path class="cls-1" d="M141,151.36l-1.13.82,2.09,3.21c.43-.31.86-.62,1.28-.94Z"/><path class="cls-1" d="M142.7,56.94l1,.82,2.41-3L145,53.84Z"/><path class="cls-1" d="M47.31,118.67c-.13-.5-.25-1-.37-1.49L43.2,118c.13.57.27,1.13.42,1.69Z"/><path class="cls-1" d="M46.57,115.48c-.1-.5-.19-1-.28-1.51l-3.78.6c.1.57.21,1.14.32,1.71Z"/><path class="cls-1" d="M48.23,121.81q-.24-.74-.45-1.47l-3.7,1,.51,1.66Z"/><path class="cls-1" d="M46,112.26c-.07-.5-.14-1-.2-1.52l-3.81.4c.07.58.15,1.15.23,1.72Z"/><path class="cls-1" d="M52,130.86c-.23-.46-.46-.91-.68-1.37L47.8,131c.25.52.51,1,.77,1.55Z"/><path class="cls-1" d="M49.32,124.89c-.19-.47-.36-1-.53-1.44l-3.64,1.19c.19.54.39,1.09.6,1.63Z"/><path class="cls-1" d="M50.57,127.91c-.21-.46-.41-.93-.61-1.4l-3.57,1.37c.22.53.45,1.06.68,1.59Z"/><path class="cls-1" d="M45.84,96c.06-.51.13-1,.21-1.52l-3.78-.59c-.09.56-.16,1.13-.24,1.71Z"/><path class="cls-1" d="M46.33,92.76c.09-.5.19-1,.29-1.49l-3.74-.8c-.11.56-.23,1.13-.33,1.7Z"/><path class="cls-1" d="M45.52,99.23c0-.51.08-1,.13-1.52l-3.8-.4c-.06.57-.11,1.15-.15,1.72Z"/><path class="cls-1" d="M45.42,105.76c0-.51,0-1,0-1.53H41.56c0,.58,0,1.15,0,1.73Z"/><path class="cls-1" d="M45.38,102.49c0-.51,0-1,0-1.52l-3.82-.2c0,.57,0,1.15,0,1.72Z"/><path class="cls-1" d="M45.63,109q-.08-.76-.12-1.53l-3.82.2c0,.58.08,1.15.13,1.73Z"/><path class="cls-1" d="M57.15,139.14l-.89-1.23L53.05,140c.33.47.67.94,1,1.4Z"/><path class="cls-1" d="M76.51,156l-1.29-.72-2.08,3.21,1.46.83Z"/><path class="cls-1" d="M73.74,154.37l-1.26-.79-2.25,3.1,1.42.9Z"/><path class="cls-1" d="M71,152.61l-1.21-.87-2.41,3c.46.33.91.66,1.38,1Z"/><path class="cls-1" d="M53.56,133.71c-.26-.44-.51-.88-.76-1.32l-3.41,1.73c.28.51.56,1,.86,1.5Z"/><path class="cls-1" d="M79.37,157.46c-.45-.21-.89-.43-1.32-.65l-1.92,3.31,1.5.75Z"/><path class="cls-1" d="M68.45,150.69q-.6-.45-1.17-.93l-2.56,2.85c.43.36.87.71,1.32,1.06Z"/><path class="cls-1" d="M109.29,163.16l-1.39.07v3.83l1.59-.09Z"/><path class="cls-1" d="M47,89.58c.12-.5.24-1,.37-1.48l-3.69-1c-.15.55-.29,1.11-.42,1.67Z"/><path class="cls-1" d="M66,148.64l-1.12-1-2.7,2.71c.41.38.84.76,1.26,1.13Z"/><path class="cls-1" d="M55.28,136.48l-.82-1.28-3.32,1.91c.31.49.62,1,.94,1.45Z"/><path class="cls-1" d="M59.16,141.7c-.32-.39-.64-.78-.95-1.18l-3.1,2.25c.35.45.71.89,1.08,1.33Z"/><path class="cls-1" d="M61.3,144.13c-.34-.37-.68-.74-1-1.12l-3,2.41c.37.43.75.85,1.14,1.27Z"/><path class="cls-1" d="M137.77,53.36l1.1.72,2.08-3.2q-.63-.43-1.26-.84Z"/><path class="cls-1" d="M86.16,46.78l1.38-.44L86.35,42.7q-.78.24-1.56.51Z"/><path class="cls-1" d="M92.29,45.09l1.38-.29-.79-3.74c-.53.1-1.06.21-1.58.33Z"/><path class="cls-1" d="M83.24,47.84c.42-.16.85-.33,1.28-.48l-1.37-3.58c-.49.19-1,.37-1.47.57Z"/><path class="cls-1" d="M89.2,45.85c.47-.12.93-.25,1.4-.36l-1-3.7L88,42.21Z"/><path class="cls-1" d="M80.37,49.07c.42-.2.84-.38,1.26-.56L80.08,45l-1.45.64Z"/><path class="cls-1" d="M77.57,50.44l1.23-.63L77.07,46.4l-1.42.72Z"/><path class="cls-1" d="M74.83,52l1.21-.7L74.13,48c-.47.26-.93.52-1.38.8Z"/><path class="cls-1" d="M107.9,43.76a59.35,59.35,0,0,1,25.76,7.14l1.74-3.41a63.4,63.4,0,0,0-27.5-7.56Z"/><path class="cls-1" d="M135.17,51.75l1.14.68,1.91-3.32-1.31-.77Z"/><path class="cls-1" d="M98.5,44.07c.46-.06.93-.1,1.4-.14l-.4-3.81c-.54.05-1.07.1-1.6.17Z"/><path class="cls-1" d="M101.63,43.8c.47,0,.93,0,1.4-.06l-.2-3.82-1.6.07Z"/><path class="cls-1" d="M95.38,44.5l1.4-.22-.6-3.77c-.54.07-1.07.15-1.6.24Z"/><path class="cls-1" d="M64.75,59.43c.35-.32.7-.64,1.06-1l-2.56-2.84q-.61.53-1.2,1.08Z"/><path class="cls-1" d="M72.17,53.62l1.18-.76-2.08-3.21-1.35.87Z"/><path class="cls-1" d="M52.87,74.48l.75-1.31-3.31-1.91c-.29.49-.57,1-.85,1.48Z"/><path class="cls-1" d="M54.52,71.69c.27-.42.54-.84.82-1.26l-3.21-2.08c-.31.47-.62,1-.92,1.43Z"/><path class="cls-1" d="M48.86,83.34c.17-.48.34-1,.52-1.42l-3.57-1.37c-.2.53-.4,1.07-.59,1.61Z"/><path class="cls-1" d="M50,80.31l.6-1.38-3.49-1.56c-.23.52-.46,1-.68,1.57Z"/><path class="cls-1" d="M56.32,69c.29-.41.58-.81.88-1.21l-3.1-2.25-1,1.37Z"/><path class="cls-1" d="M51.37,77.36c.22-.46.45-.91.68-1.35l-3.41-1.74c-.26.51-.52,1-.76,1.53Z"/><path class="cls-1" d="M67.13,57.35l1.09-.88-2.4-3-1.25,1Z"/><path class="cls-1" d="M58.26,66.41l.94-1.16-3-2.4c-.36.43-.71.87-1.06,1.31Z"/><path class="cls-1" d="M69.6,55.42l1.14-.82-2.25-3.1-1.3.94Z"/><path class="cls-1" d="M60.33,63.94c.31-.36.63-.71,1-1.06l-2.85-2.56c-.36.4-.73.8-1.09,1.21Z"/><path class="cls-1" d="M47.85,86.43c.14-.48.29-1,.45-1.45L44.66,83.8c-.18.54-.35,1.09-.51,1.64Z"/><g class="cls-3"><line class="cls-1" x1="104.46" x2="104.46" y2="207.56"/><rect class="cls-4" x="104.1" width="0.73" height="207.56"/></g><g class="cls-3"><line class="cls-1" x1="207.56" y1="103.7" y2="103.7"/><rect class="cls-4" y="103.33" width="207.56" height="0.73"/></g><rect class="cls-1" x="100.8" y="22.81" width="1.27" height="9.89"/><rect class="cls-1" x="106.83" y="22.81" width="1.27" height="9.89"/><rect class="cls-1" x="103.78" y="22.81" width="1.33" height="4.64"/><rect class="cls-1" x="87.56" y="24.5" width="1.27" height="9.89" transform="translate(-3.77 15.76) rotate(-10)"/><rect class="cls-1" x="93.5" y="23.45" width="1.27" height="9.89" transform="translate(-3.5 16.77) rotate(-10)"/><rect class="cls-1" x="90.04" y="24.01" width="1.33" height="4.64" transform="translate(-3.2 16.16) rotate(-10)"/><rect class="cls-1" x="74.82" y="28.46" width="1.27" height="9.89" transform="translate(-6.87 27.82) rotate(-20)"/><rect class="cls-1" x="80.49" y="26.39" width="1.27" height="9.89" transform="translate(-5.83 29.63) rotate(-20)"/><rect class="cls-1" x="76.73" y="27.58" width="1.33" height="4.64" transform="translate(-5.56 28.27) rotate(-20)"/><rect class="cls-1" x="62.96" y="34.57" width="1.27" height="9.89" transform="translate(-11.24 37.09) rotate(-30)"/><rect class="cls-1" x="68.18" y="31.55" width="1.27" height="9.89" transform="translate(-9.03 39.3) rotate(-30)"/><rect class="cls-1" x="64.23" y="33.41" width="1.33" height="4.64" transform="translate(-9.17 37.23) rotate(-30)"/><rect class="cls-1" x="52.34" y="42.64" width="1.27" height="9.89" transform="translate(-18.2 45.18) rotate(-40)"/><rect class="cls-1" x="56.96" y="38.77" width="1.27" height="9.89" transform="matrix(0.77, -0.64, 0.64, 0.77, -14.62, 47.25)"/><rect class="cls-1" x="52.93" y="41.32" width="1.33" height="4.64" transform="translate(-15.51 44.67) rotate(-40.01)"/><rect class="cls-1" x="43.28" y="52.44" width="1.27" height="9.89" transform="translate(-28.27 54.14) rotate(-50)"/><rect class="cls-1" x="47.16" y="47.82" width="1.27" height="9.89" transform="translate(-23.35 55.46) rotate(-50)"/><rect class="cls-1" x="43.18" y="51.07" width="1.33" height="4.64" transform="translate(-25.24 52.66) rotate(-50)"/><rect class="cls-1" x="36.07" y="63.67" width="1.27" height="9.89" transform="translate(-41.07 66.09) rotate(-60)"/><rect class="cls-1" x="39.08" y="58.44" width="1.27" height="9.89" transform="translate(-35.04 66.09) rotate(-60)"/><rect class="cls-1" x="35.27" y="62.37" width="1.33" height="4.64" transform="translate(-38.05 63.47) rotate(-60)"/><rect class="cls-1" x="30.91" y="75.97" width="1.27" height="9.89" transform="translate(-55.28 82.88) rotate(-70)"/><rect class="cls-1" x="32.97" y="70.3" width="1.27" height="9.89" transform="translate(-48.6 81.09) rotate(-70)"/><rect class="cls-1" x="29.44" y="74.86" width="1.33" height="4.64" transform="translate(-52.72 79.08) rotate(-70)"/><rect class="cls-1" x="27.97" y="88.98" width="1.27" height="9.89" transform="translate(-68.87 105.78) rotate(-80)"/><rect class="cls-1" x="29.01" y="83.04" width="1.27" height="9.89" transform="translate(-62.15 101.9) rotate(-80)"/><rect class="cls-1" x="25.88" y="88.18" width="1.33" height="4.64" transform="translate(-67.2 100.92) rotate(-80)"/><rect class="cls-1" x="23.02" y="106.62" width="9.89" height="1.27"/><rect class="cls-1" x="23.02" y="100.59" width="9.89" height="1.27"/><rect class="cls-1" x="23.02" y="103.58" width="4.64" height="1.33"/><rect class="cls-1" x="24.7" y="119.86" width="9.89" height="1.27" transform="matrix(0.98, -0.17, 0.17, 0.98, -20.48, 6.98)"/><rect class="cls-1" x="23.65" y="113.92" width="9.89" height="1.27" transform="translate(-19.45 6.71) rotate(-10)"/><rect class="cls-1" x="24.22" y="117.31" width="4.64" height="1.33" transform="translate(-20.09 6.4) rotate(-10)"/><rect class="cls-1" x="28.66" y="132.6" width="9.89" height="1.27" transform="translate(-43.54 19.53) rotate(-20)"/><rect class="cls-1" x="26.6" y="126.93" width="9.89" height="1.27" transform="translate(-41.73 18.48) rotate(-20)"/><rect class="cls-1" x="27.79" y="130.63" width="4.64" height="1.33" transform="translate(-43.1 18.22) rotate(-20.01)"/><rect class="cls-1" x="34.77" y="144.46" width="9.89" height="1.27" transform="matrix(0.87, -0.5, 0.5, 0.87, -67.23, 39.3)"/><rect class="cls-1" x="31.75" y="139.24" width="9.89" height="1.27" transform="matrix(0.87, -0.5, 0.5, 0.87, -65.02, 37.09)"/><rect class="cls-1" x="33.61" y="143.13" width="4.64" height="1.33" transform="translate(-67.08 37.23) rotate(-30)"/><rect class="cls-1" x="42.85" y="155.08" width="9.89" height="1.27" transform="translate(-88.91 67.15) rotate(-40)"/><rect class="cls-1" x="38.97" y="150.46" width="9.89" height="1.27" transform="translate(-86.85 63.58) rotate(-40)"/><rect class="cls-1" x="41.52" y="154.43" width="4.64" height="1.33" transform="translate(-89.43 64.47) rotate(-40)"/><rect class="cls-1" x="52.65" y="164.14" width="9.89" height="1.27" transform="translate(-105.65 102.98) rotate(-50)"/><rect class="cls-1" x="48.03" y="160.26" width="9.89" height="1.27" transform="translate(-104.33 98.05) rotate(-50)"/><rect class="cls-1" x="51.27" y="164.18" width="4.64" height="1.33" transform="translate(-107.13 99.95) rotate(-50)"/><rect class="cls-1" x="63.87" y="171.35" width="9.89" height="1.27" transform="translate(-114.54 145.58) rotate(-60)"/><rect class="cls-1" x="58.65" y="168.34" width="9.89" height="1.27" transform="translate(-114.54 139.56) rotate(-60)"/><rect class="cls-1" x="62.57" y="172.09" width="4.64" height="1.33" transform="translate(-117.16 142.58) rotate(-60)"/><rect class="cls-1" x="76.17" y="176.51" width="9.89" height="1.27" transform="translate(-113.08 192.79) rotate(-70)"/><rect class="cls-1" x="70.51" y="174.45" width="9.89" height="1.27" transform="translate(-114.88 186.1) rotate(-70)"/><rect class="cls-1" x="75.07" y="177.91" width="4.64" height="1.33" transform="translate(-116.89 190.24) rotate(-70.01)"/><rect class="cls-1" x="89.19" y="179.45" width="9.89" height="1.27" transform="translate(-99.56 241.52) rotate(-80)"/><rect class="cls-1" x="83.25" y="178.4" width="9.89" height="1.27" transform="translate(-103.44 234.81) rotate(-80)"/><rect class="cls-1" x="88.39" y="181.48" width="4.64" height="1.33" transform="translate(-104.43 239.84) rotate(-80)"/><rect class="cls-1" x="106.83" y="175.78" width="1.27" height="9.89"/><rect class="cls-1" x="100.8" y="175.78" width="1.27" height="9.89"/><rect class="cls-1" x="103.78" y="181.03" width="1.33" height="4.64"/><rect class="cls-1" x="120.06" y="174.09" width="1.27" height="9.89" transform="translate(-29.25 23.67) rotate(-10)"/><rect class="cls-1" x="114.12" y="175.14" width="1.27" height="9.89" transform="translate(-29.53 22.67) rotate(-10)"/><rect class="cls-1" x="117.52" y="179.82" width="1.33" height="4.64" transform="translate(-29.84 23.3) rotate(-10)"/><rect class="cls-1" x="132.8" y="170.13" width="1.27" height="9.89" transform="translate(-51.83 56.2) rotate(-20)"/><rect class="cls-1" x="127.14" y="172.2" width="1.27" height="9.89" transform="translate(-52.88 54.38) rotate(-20)"/><rect class="cls-1" x="130.84" y="176.25" width="1.33" height="4.64" transform="translate(-53.15 55.75) rotate(-20)"/><rect class="cls-1" x="144.66" y="164.02" width="1.27" height="9.89" transform="translate(-65.02 95.28) rotate(-30)"/><rect class="cls-1" x="139.44" y="167.04" width="1.27" height="9.89" transform="translate(-67.23 93.08) rotate(-30)"/><rect class="cls-1" x="143.33" y="170.43" width="1.33" height="4.64" transform="translate(-67.08 95.14) rotate(-30)"/><rect class="cls-1" x="155.28" y="155.95" width="1.27" height="9.89" transform="translate(-66.94 137.86) rotate(-40)"/><rect class="cls-1" x="150.66" y="159.82" width="1.27" height="9.89" transform="translate(-70.51 135.8) rotate(-40)"/><rect class="cls-1" x="154.63" y="162.52" width="1.33" height="4.64" transform="translate(-69.62 138.37) rotate(-40)"/><rect class="cls-1" x="164.34" y="146.15" width="1.27" height="9.89" transform="translate(-56.81 180.35) rotate(-50)"/><rect class="cls-1" x="160.46" y="150.77" width="1.27" height="9.89" transform="translate(-61.74 179.03) rotate(-50)"/><rect class="cls-1" x="164.38" y="152.77" width="1.33" height="4.64" transform="translate(-59.85 181.83) rotate(-50)"/><rect class="cls-1" x="171.56" y="134.92" width="1.27" height="9.89" transform="matrix(0.5, -0.87, 0.87, 0.5, -35.04, 219.05)"/><rect class="cls-1" x="168.54" y="140.15" width="1.27" height="9.89" transform="translate(-41.07 219.05) rotate(-60)"/><rect class="cls-1" x="172.29" y="141.47" width="1.33" height="4.64" transform="matrix(0.5, -0.87, 0.87, 0.5, -38.05, 221.68)"/><rect class="cls-1" x="176.71" y="122.62" width="1.27" height="9.89" transform="translate(-3.18 250.59) rotate(-70)"/><rect class="cls-1" x="174.65" y="128.29" width="1.27" height="9.89" transform="translate(-9.87 252.38) rotate(-70)"/><rect class="cls-1" x="178.12" y="128.97" width="1.33" height="4.64" transform="translate(-5.73 254.41) rotate(-70.01)"/><rect class="cls-1" x="179.66" y="109.61" width="1.27" height="9.89" transform="translate(36.18 272.21) rotate(-80)"/><rect class="cls-1" x="178.61" y="115.55" width="1.27" height="9.89" transform="translate(29.46 276.09) rotate(-80)"/><rect class="cls-1" x="181.69" y="115.66" width="1.33" height="4.64" transform="translate(34.49 277.06) rotate(-80)"/><rect class="cls-1" x="175.98" y="100.59" width="9.89" height="1.27"/><rect class="cls-1" x="175.98" y="106.62" width="9.89" height="1.27"/><rect class="cls-1" x="181.23" y="103.58" width="4.64" height="1.33"/><rect class="cls-1" x="174.3" y="87.36" width="9.89" height="1.27" transform="translate(-12.55 32.46) rotate(-10)"/><rect class="cls-1" x="175.34" y="93.3" width="9.89" height="1.27" transform="translate(-13.57 32.74) rotate(-10)"/><rect class="cls-1" x="180.03" y="89.84" width="4.64" height="1.33" transform="translate(-12.95 33.05) rotate(-10)"/><rect class="cls-1" x="170.34" y="74.61" width="9.89" height="1.27" transform="translate(-15.17 64.49) rotate(-20)"/><rect class="cls-1" x="172.4" y="80.28" width="9.89" height="1.27" transform="translate(-16.98 65.54) rotate(-20)"/><rect class="cls-1" x="176.46" y="76.52" width="4.64" height="1.33" transform="translate(-15.62 65.8) rotate(-20)"/><rect class="cls-1" x="164.23" y="62.75" width="9.89" height="1.27" transform="translate(-9.03 93.08) rotate(-30)"/><rect class="cls-1" x="167.24" y="67.98" width="9.89" height="1.27" transform="matrix(0.87, -0.5, 0.5, 0.87, -11.24, 95.29)"/><rect class="cls-1" x="170.63" y="64.02" width="4.64" height="1.33" transform="translate(-9.17 95.16) rotate(-30)"/><rect class="cls-1" x="156.15" y="52.13" width="9.89" height="1.27" transform="translate(3.77 115.89) rotate(-40)"/><rect class="cls-1" x="160.03" y="56.76" width="9.89" height="1.27" transform="translate(1.71 119.47) rotate(-40)"/><rect class="cls-1" x="162.72" y="52.73" width="4.64" height="1.33" transform="translate(4.29 118.58) rotate(-40)"/><rect class="cls-1" x="146.35" y="43.08" width="9.89" height="1.27" transform="translate(20.56 131.52) rotate(-50)"/><rect class="cls-1" x="150.97" y="46.96" width="9.89" height="1.27" transform="translate(19.24 136.44) rotate(-50)"/><rect class="cls-1" x="152.97" y="42.98" width="4.64" height="1.33" transform="translate(22.04 134.55) rotate(-50)"/><rect class="cls-1" x="135.13" y="35.86" width="9.89" height="1.27" transform="translate(38.43 139.56) rotate(-60)"/><rect class="cls-1" x="140.35" y="38.88" width="9.89" height="1.27" transform="translate(38.43 145.59) rotate(-60)"/><rect class="cls-1" x="141.68" y="35.07" width="4.64" height="1.33" transform="translate(41.06 142.58) rotate(-60)"/><rect class="cls-1" x="122.82" y="30.71" width="9.89" height="1.27" transform="translate(54.62 140.68) rotate(-70)"/><rect class="cls-1" x="128.49" y="32.77" width="9.89" height="1.27" transform="translate(56.41 147.36) rotate(-70)"/><rect class="cls-1" x="129.18" y="29.24" width="4.64" height="1.33" transform="translate(58.42 143.25) rotate(-70)"/><rect class="cls-1" x="109.81" y="27.76" width="9.89" height="1.27" transform="matrix(0.17, -0.98, 0.98, 0.17, 66.86, 136.48)"/><rect class="cls-1" x="115.75" y="28.81" width="9.89" height="1.27" transform="translate(70.74 143.19) rotate(-80)"/><rect class="cls-1" x="115.86" y="25.67" width="4.64" height="1.33" transform="translate(71.72 138.15) rotate(-80)"/><path class="cls-1" d="M126.87,197.57H80.17a3.15,3.15,0,0,1-2.7-1.57l-2.27-4a3,3,0,0,1-.27-2.45,87.07,87.07,0,0,1-17.43-8.39,3.08,3.08,0,0,1-1.2.56l-4.59,1.05a3.07,3.07,0,0,1-2.89-.84L29,162.08a3.08,3.08,0,0,1-.8-3l1.2-4.43a3.2,3.2,0,0,1,.53-1.06,88.28,88.28,0,0,1-4.51-8.11,3.41,3.41,0,0,1-.46-.1L20.42,144a3.11,3.11,0,0,1-2.09-2.17l-3.41-12.75a3.1,3.1,0,0,1,.81-3l2.42-2.4a87.42,87.42,0,0,1-1.29-9.8,3,3,0,0,1-2.41-1l-3.21-3.45a3.09,3.09,0,0,1-.72-2.92L22.6,61.39a3.12,3.12,0,0,1,2.22-2.2L29.26,58a3,3,0,0,1,2.45.38A87.12,87.12,0,0,1,48.57,40,3.06,3.06,0,0,1,48,37.47l1-4.6a3.12,3.12,0,0,1,2-2.27l43.88-16a3.11,3.11,0,0,1,3.07.55l3.51,3a3.07,3.07,0,0,1,1.09,2.23h1.13A86.48,86.48,0,0,1,153.46,36l3.5-.79a3.09,3.09,0,0,1,2.89.83l19.86,19.86a3.12,3.12,0,0,1,.81,3l-1.21,4.42a3.13,3.13,0,0,1-.24.6A86.33,86.33,0,0,1,189.7,94.44l3.88,2.44A3.11,3.11,0,0,1,195,99.52v13.2a3.12,3.12,0,0,1-1.56,2.7l-3.4,1.94a86.53,86.53,0,0,1-5,20.85,3.1,3.1,0,0,1,1.75,1.91l1.44,4.48a3.11,3.11,0,0,1-.57,3l-30,35.77a3.11,3.11,0,0,1-2.93,1.06l-4.52-.82a3.05,3.05,0,0,1-2.06-1.38,85.83,85.83,0,0,1-15.78,7.37,3.07,3.07,0,0,1-.33,2.57l-2.51,4A3.1,3.1,0,0,1,126.87,197.57ZM57.4,180l.3.19a85.8,85.8,0,0,0,18,8.63l.49.17-.23.46a2.16,2.16,0,0,0,0,2.08l2.28,4a2.19,2.19,0,0,0,1.91,1.11h46.7a2.2,2.2,0,0,0,1.87-1l2.5-4a2.2,2.2,0,0,0,.11-2.15l-.23-.46.48-.17a85.39,85.39,0,0,0,16.47-7.69l.44-.26.2.47a2.17,2.17,0,0,0,1.63,1.3l4.52.82a2.21,2.21,0,0,0,2.08-.76L187,147a2.22,2.22,0,0,0,.41-2.1l-1.45-4.48a2.16,2.16,0,0,0-1.58-1.46l-.5-.12.18-.49A85.82,85.82,0,0,0,189.2,117l0-.23,3.8-2.16a2.24,2.24,0,0,0,1.11-1.92V99.52a2.19,2.19,0,0,0-1-1.87L188.92,95l-.09-.24a85,85,0,0,0-10.67-30.58L178,64l.15-.23a2.65,2.65,0,0,0,.27-.6l1.2-4.43a2.22,2.22,0,0,0-.56-2.14L159.21,36.72a2.19,2.19,0,0,0-2.05-.59l-3.89.88-.16-.11a85.6,85.6,0,0,0-49.47-15.63l-1.47,0h-.64l.06-.52a2.14,2.14,0,0,0-.76-2l-3.5-3a2.21,2.21,0,0,0-2.18-.39l-43.88,16a2.18,2.18,0,0,0-1.4,1.61l-1,4.6a2.17,2.17,0,0,0,.65,2.07l.38.36-.41.32A86.31,86.31,0,0,0,32.19,59.3l-.29.43-.39-.35a2.17,2.17,0,0,0-2-.49l-4.44,1.17a2.19,2.19,0,0,0-1.57,1.56L11.39,106.73a2.22,2.22,0,0,0,.52,2.07l3.2,3.45a2.2,2.2,0,0,0,2.07.66l.51-.11,0,.52a87.14,87.14,0,0,0,1.36,10.4l0,.23-2.75,2.74a2.2,2.2,0,0,0-.58,2.14l3.42,12.75a2.19,2.19,0,0,0,1.48,1.54l4.49,1.38a2.77,2.77,0,0,0,.53.1H26l.12.24a87,87,0,0,0,4.74,8.53l.19.3-.24.25a2.24,2.24,0,0,0-.55.95L29,159.3a2.22,2.22,0,0,0,.57,2.15l19.86,19.86a2.19,2.19,0,0,0,2,.59l4.59-1.05a2.16,2.16,0,0,0,1-.56Zm46.25,10.4a82.58,82.58,0,1,1,82.57-82.58A82.67,82.67,0,0,1,103.65,190.44Zm0-164.24a81.67,81.67,0,1,0,81.67,81.66A81.75,81.75,0,0,0,103.65,26.2Z"/></g></g></svg>