<svg xmlns="http://www.w3.org/2000/svg" viewBox="0 0 101.2 86.68"><defs><style>.cls-1{isolation:isolate;}.cls-2{fill:#fff;}.cls-3{mix-blend-mode:screen;}.cls-4{fill:#666;}</style></defs><title>资源 24</title><g class="cls-1"><g id="图层_2" data-name="图层 2"><g id="Elements"><path class="cls-2" d="M50.63,86.68A43.28,43.28,0,1,1,69,82.54,43.11,43.11,0,0,1,50.63,86.68ZM50.57,1.27A42.26,42.26,0,0,0,10.91,29.19h0A42.18,42.18,0,0,0,68.57,81.63a42.2,42.2,0,0,0-18-80.36Z"/><path class="cls-2" d="M50.62,71.71A28.3,28.3,0,0,1,41.05,70,28.23,28.23,0,0,1,24,33.92h0A28.22,28.22,0,1,1,50.62,71.71ZM26.87,34.93A25.22,25.22,0,1,0,59.14,19.74,25.08,25.08,0,0,0,26.87,34.93Z"/><path class="cls-2" d="M15.15,79.64l-.35-.36a50.67,50.67,0,0,1,0-71.62l.36-.35L26,18.2a35.4,35.4,0,0,1,36.49-7.89A34.93,34.93,0,0,1,75.17,18.2L86.06,7.31l.35.35a50.89,50.89,0,0,1,11.83,53A50.09,50.09,0,0,1,86.41,79.28l-.35.35L75.17,68.75a35.43,35.43,0,0,1-36.5,7.88A35,35,0,0,1,26,68.75Zm0-70.91A49.18,49.18,0,0,0,3.9,26.67,49.91,49.91,0,0,0,15.15,78.22L26,67.33l.36.36a33.92,33.92,0,0,0,12.62,8,34.41,34.41,0,0,0,35.81-8l.35-.35L86.05,78.22A49.22,49.22,0,0,0,97.3,60.27,49.85,49.85,0,0,0,86.05,8.73L75.17,19.61l-.35-.35a33.94,33.94,0,0,0-12.63-8,34.4,34.4,0,0,0-35.8,8l-.36.35Z"/><path class="cls-2" d="M25.2,80.8A45.16,45.16,0,0,1,38.4,0l1.35,4.81A40.15,40.15,0,0,0,28,76.66Z"/><path class="cls-2" d="M95.68,46.12l-5-.3A40.1,40.1,0,0,0,82.4,19l4-3.05a45.21,45.21,0,0,1,9.31,30.21Z"/><path class="cls-2" d="M66.24,85.83l-1.73-4.69a40.13,40.13,0,0,0,23.77-23.8L93,59.06A45.16,45.16,0,0,1,66.24,85.83Z"/><path class="cls-2" d="M74.87,11.48l-1-.75a40.53,40.53,0,0,0-6.22-3.62l2.12-4.53a45.1,45.1,0,0,1,7,4.08c.39.27.77.55,1.15.84Z"/><rect class="cls-2" x="50.1" y="7.21" width="1" height="3.02"/><rect class="cls-2" x="20" y="24.59" width="1" height="3.02" transform="translate(-12.35 30.81) rotate(-60)"/><rect class="cls-2" x="16.53" y="32.97" width="1" height="3.02" transform="translate(-20.68 42) rotate(-75)"/><rect class="cls-2" x="14.34" y="42.97" width="3.02" height="1"/><g class="cls-3"><rect class="cls-4" x="15.52" y="51.97" width="3.02" height="1" transform="translate(-13.05 6.23) rotate(-15.06)"/></g><g class="cls-3"><rect class="cls-4" x="18.99" y="60.35" width="3.02" height="1" transform="translate(-27.68 18.4) rotate(-29.99)"/></g><rect class="cls-2" x="50.1" y="76.72" width="1" height="3.02"/><rect class="cls-2" x="80.2" y="59.34" width="1" height="3.02" transform="translate(-12.35 100.32) rotate(-60)"/><rect class="cls-2" x="83.67" y="50.96" width="1" height="3.02" transform="translate(11.71 120.19) rotate(-75)"/><rect class="cls-2" x="83.85" y="42.97" width="3.02" height="1"/><rect class="cls-2" x="82.66" y="33.98" width="3.02" height="1" transform="translate(-6.07 23.05) rotate(-15.06)"/><g class="cls-3"><rect class="cls-4" x="79.19" y="25.6" width="3.02" height="1" transform="translate(-2.24 43.84) rotate(-29.99)"/></g></g></g></g></svg>