<svg xmlns="http://www.w3.org/2000/svg" viewBox="0 0 796.87 545.52"><defs><style>.cls-1{opacity:0.5;}.cls-2{fill:#e985ff;}</style></defs><title>资源 1</title><g id="图层_2" data-name="图层 2"><g id="央铋_2" data-name="央铋 2"><g class="cls-1"><path class="cls-2" d="M398.43,476.77h-.2v-24h.2c.88,0,1.76,0,2.63,0l.35,24C400.42,476.77,399.43,476.77,398.43,476.77Z"/><path class="cls-2" d="M394,476.73l-3.19-.1.9-24,2.8.08Z"/><path class="cls-2" d="M405.66,476.65l-.84-24c.95,0,1.89-.07,2.83-.12l1.19,24Z"/><path class="cls-2" d="M386.54,476.43c-1.07-.06-2.13-.13-3.19-.21l1.75-23.93,2.81.18Z"/><path class="cls-2" d="M413.1,476.25l-1.7-23.94c.93-.06,1.87-.14,2.8-.22L416.29,476C415.23,476.09,414.16,476.18,413.1,476.25Z"/><path class="cls-2" d="M379.11,475.87l-3.18-.33,2.62-23.85c.94.1,1.87.2,2.8.28Z"/><path class="cls-2" d="M420.52,475.59,418,451.73c.93-.1,1.87-.21,2.8-.33l2.93,23.82C422.63,475.35,421.57,475.48,420.52,475.59Z"/><path class="cls-2" d="M371.7,475l-3.16-.44L372,450.85c.93.14,1.86.27,2.8.39Z"/><path class="cls-2" d="M427.91,474.66l-3.44-23.76c.93-.13,1.86-.27,2.78-.42l3.82,23.69Z"/><path class="cls-2" d="M364.33,473.93c-1.05-.17-2.1-.36-3.14-.55l4.36-23.6,2.78.49Z"/><path class="cls-2" d="M435.26,473.45,431,449.84c.93-.16,1.84-.34,2.76-.52l4.69,23.54Z"/><path class="cls-2" d="M357,472.56c-1.05-.21-2.09-.44-3.12-.67l5.22-23.42,2.76.59Z"/><path class="cls-2" d="M442.57,472l-5.17-23.44,2.74-.62,5.55,23.35Z"/><path class="cls-2" d="M349.74,470.92q-1.55-.37-3.09-.78l6.06-23.22c.91.24,1.82.47,2.74.69Z"/><path class="cls-2" d="M449.82,470.24l-6-23.23c.91-.23,1.82-.48,2.72-.73l6.4,23.14C451.88,469.7,450.85,470,449.82,470.24Z"/><path class="cls-2" d="M342.52,469l-3-.89,6.93-23,2.71.8Z"/><path class="cls-2" d="M457,468.24l-6.88-23,2.69-.82,7.24,22.88Z"/><path class="cls-2" d="M335.4,466.85l-3-1,7.77-22.71,2.67.89Z"/><path class="cls-2" d="M464.12,466l-7.73-22.72c.9-.3,1.79-.62,2.68-.93l8.07,22.6C466.13,465.27,465.13,465.62,464.12,466Z"/><path class="cls-2" d="M328.35,464.41c-1-.36-2-.74-3-1.12l8.6-22.4,2.64,1Z"/><path class="cls-2" d="M471.15,463.43,462.6,441c.88-.33,1.75-.68,2.63-1l8.91,22.28C473.15,462.66,472.15,463,471.15,463.43Z"/><path class="cls-2" d="M321.4,461.72c-1-.4-2-.81-2.94-1.22l9.42-22.07,2.59,1.08Z"/><path class="cls-2" d="M478.08,460.63l-9.36-22.09,2.58-1.12L481,459.35C480.05,459.79,479.07,460.22,478.08,460.63Z"/><path class="cls-2" d="M314.58,458.79c-1-.43-1.93-.88-2.89-1.33l10.21-21.72,2.55,1.18Z"/><path class="cls-2" d="M484.92,457.58l-10.19-21.73,2.56-1.22,10.51,21.58Z"/><path class="cls-2" d="M307.87,455.62c-.95-.47-1.9-1-2.85-1.45l11-21.32,2.49,1.26Z"/><path class="cls-2" d="M491.62,454.29l-11-21.34c.83-.43,1.66-.86,2.49-1.31l11.34,21.16C493.53,453.3,492.58,453.8,491.62,454.29Z"/><path class="cls-2" d="M301.27,452.19c-.93-.51-1.87-1-2.79-1.54l11.78-20.91c.81.46,1.63.91,2.45,1.35Z"/><path class="cls-2" d="M498.2,450.75l-11.76-20.92c.83-.46,1.64-.93,2.46-1.4L501,449.17C500.05,449.7,499.13,450.23,498.2,450.75Z"/><path class="cls-2" d="M294.81,448.53c-.92-.54-1.83-1.09-2.74-1.65l12.53-20.47,2.4,1.45Z"/><path class="cls-2" d="M504.64,447,492.12,426.5c.81-.49,1.61-1,2.41-1.49l12.82,20.28Z"/><path class="cls-2" d="M288.46,444.62l-2.66-1.73,13.27-20c.78.52,1.57,1,2.36,1.54Z"/><path class="cls-2" d="M510.93,443l-13.24-20,2.33-1.57,13.57,19.79C512.71,441.79,511.82,442.39,510.93,443Z"/><path class="cls-2" d="M282.28,440.5l-2.61-1.84,14-19.5c.76.55,1.52,1.09,2.29,1.62Z"/><path class="cls-2" d="M517.08,438.74l-14-19.51,2.29-1.66,14.27,19.29C518.8,437.5,517.94,438.12,517.08,438.74Z"/><path class="cls-2" d="M276.26,436.16c-.86-.64-1.71-1.29-2.55-1.94l14.69-19c.73.57,1.48,1.13,2.23,1.69Z"/><path class="cls-2" d="M523.06,434.29l-14.67-19c.74-.57,1.48-1.15,2.21-1.74l15,18.76Z"/><path class="cls-2" d="M270.37,431.58l-2.46-2,15.36-18.44,2.18,1.79Z"/><path class="cls-2" d="M528.87,429.63l-15.35-18.44,2.15-1.83,15.64,18.21C530.5,428.26,529.69,429,528.87,429.63Z"/><path class="cls-2" d="M264.67,426.81l-2.39-2.12,16-17.87c.7.63,1.4,1.25,2.11,1.86Z"/><path class="cls-2" d="M534.51,424.76l-16-17.87c.71-.63,1.4-1.27,2.1-1.91l16.28,17.64C536.09,423.34,535.3,424.05,534.51,424.76Z"/><path class="cls-2" d="M259.14,421.82l-2.32-2.2,16.67-17.27c.67.65,1.35,1.3,2,1.94Z"/><path class="cls-2" d="M540,419.69l-16.65-17.28,2-2,16.92,17Z"/><path class="cls-2" d="M253.79,416.63c-.75-.75-1.49-1.51-2.23-2.27l17.27-16.67,2,2Z"/><path class="cls-2" d="M545.24,414.42,528,397.76c.65-.68,1.3-1.36,1.94-2.05l17.52,16.4Q546.35,413.28,545.24,414.42Z"/><path class="cls-2" d="M248.64,411.26c-.73-.78-1.44-1.57-2.15-2.36l17.87-16c.62.7,1.26,1.39,1.9,2.08Z"/><path class="cls-2" d="M550.31,409l-17.86-16c.62-.69,1.24-1.39,1.85-2.1l18.13,15.74Z"/><path class="cls-2" d="M243.68,405.7c-.7-.81-1.38-1.62-2.07-2.44l18.45-15.36c.6.72,1.2,1.44,1.82,2.15Z"/><path class="cls-2" d="M555.18,403.34,536.75,388c.6-.72,1.19-1.45,1.79-2.18l18.66,15.08C556.53,401.71,555.86,402.53,555.18,403.34Z"/><path class="cls-2" d="M238.92,400c-.66-.83-1.32-1.67-2-2.51l19-14.68,1.75,2.22Z"/><path class="cls-2" d="M559.84,397.55l-19-14.69c.58-.75,1.14-1.49,1.7-2.24L561.78,395C561.14,395.86,560.49,396.7,559.84,397.55Z"/><path class="cls-2" d="M234.38,394.05c-.63-.85-1.26-1.71-1.88-2.58l19.5-14,1.67,2.28Z"/><path class="cls-2" d="M564.29,391.58l-19.5-14,1.62-2.3L566.13,389C565.52,389.85,564.91,390.72,564.29,391.58Z"/><path class="cls-2" d="M230.05,388c-.6-.88-1.2-1.76-1.79-2.66l20-13.25c.52.79,1,1.56,1.57,2.34Z"/><path class="cls-2" d="M568.52,385.46l-20-13.27,1.54-2.36,20.19,13C569.68,383.69,569.1,384.57,568.52,385.46Z"/><path class="cls-2" d="M226,381.75c-.57-.9-1.14-1.81-1.69-2.72l20.47-12.51c.49.8,1,1.6,1.49,2.39Z"/><path class="cls-2" d="M572.51,379.19l-20.46-12.54c.49-.8,1-1.6,1.45-2.41l20.66,12.22C573.61,377.38,573.07,378.29,572.51,379.19Z"/><path class="cls-2" d="M222.07,375.37c-.54-.92-1.07-1.84-1.59-2.77l20.92-11.77c.46.82.93,1.64,1.4,2.46Z"/><path class="cls-2" d="M576.28,372.78,555.37,361c.46-.82.91-1.64,1.36-2.46L577.82,370C577.31,370.93,576.8,371.86,576.28,372.78Z"/><path class="cls-2" d="M218.43,368.85c-.5-.94-1-1.88-1.49-2.83l21.34-11,1.31,2.5Z"/><path class="cls-2" d="M579.81,366.24l-21.32-11c.42-.83.85-1.66,1.26-2.5l21.5,10.67C580.78,364.35,580.3,365.3,579.81,366.24Z"/><path class="cls-2" d="M215,362.21c-.47-1-.93-1.93-1.39-2.9l21.73-10.19c.4.85.8,1.7,1.22,2.54Z"/><path class="cls-2" d="M583.1,359.58l-21.72-10.22c.4-.85.8-1.7,1.18-2.56l21.87,9.89C584,357.66,583.55,358.62,583.1,359.58Z"/><path class="cls-2" d="M211.87,355.43c-.43-1-.86-2-1.28-2.94l22.09-9.38c.37.87.75,1.73,1.13,2.59Z"/><path class="cls-2" d="M586.14,352.8l-22.07-9.42c.36-.86.73-1.73,1.08-2.6l22.21,9.09C587,350.85,586.55,351.83,586.14,352.8Z"/><path class="cls-2" d="M209,348.55c-.4-1-.79-2-1.17-3L230.22,337c.33.88.68,1.76,1,2.63Z"/><path class="cls-2" d="M588.93,345.91l-22.4-8.61q.51-1.32,1-2.64l22.54,8.25C589.69,343.92,589.32,344.92,588.93,345.91Z"/><path class="cls-2" d="M206.31,341.55q-.54-1.51-1.05-3L228,330.79q.45,1.33.93,2.67Z"/><path class="cls-2" d="M591.48,338.9l-22.71-7.78c.31-.89.61-1.78.9-2.68l22.82,7.44C592.16,336.89,591.82,337.89,591.48,338.9Z"/><path class="cls-2" d="M203.92,334.46c-.32-1-.63-2-.94-3l23-6.89c.27.9.55,1.8.83,2.69Z"/><path class="cls-2" d="M593.77,331.8l-23-6.93c.27-.9.53-1.8.79-2.71l23.08,6.58C594.37,329.77,594.07,330.79,593.77,331.8Z"/><path class="cls-2" d="M201.8,327.31c-.28-1-.56-2.05-.83-3.08l23.23-6c.24.91.48,1.82.73,2.72Z"/><path class="cls-2" d="M595.79,324.63l-23.22-6.09q.36-1.37.69-2.73l23.31,5.72C596.32,322.57,596.06,323.6,595.79,324.63Z"/><path class="cls-2" d="M199.94,320.09c-.24-1-.48-2.07-.71-3.11l23.44-5.18c.2.92.41,1.83.62,2.74Z"/><path class="cls-2" d="M597.54,317.38l-23.42-5.22c.2-.92.4-1.83.59-2.76l23.51,4.86C598,315.3,597.78,316.35,597.54,317.38Z"/><path class="cls-2" d="M198.35,312.81c-.2-1-.4-2.09-.59-3.14l23.6-4.31c.17.92.35,1.84.53,2.76Z"/><path class="cls-2" d="M599,310.08l-23.6-4.36c.17-.92.34-1.85.49-2.78l23.67,4C599.41,308,599.23,309,599,310.08Z"/><path class="cls-2" d="M197,305.48c-.17-1.05-.33-2.11-.48-3.16l23.75-3.45c.13.93.28,1.86.43,2.78Z"/><path class="cls-2" d="M600.26,302.73l-23.75-3.49c.14-.93.27-1.87.39-2.8l23.8,3.13C600.56,300.62,600.41,301.68,600.26,302.73Z"/><path class="cls-2" d="M196,298.1c-.13-1.06-.25-2.11-.37-3.17l23.86-2.58c.11.93.21,1.86.33,2.8Z"/><path class="cls-2" d="M601.21,295.34l-23.86-2.63c.1-.93.2-1.88.29-2.82l23.89,2.29C601.43,293.24,601.32,294.29,601.21,295.34Z"/><path class="cls-2" d="M195.2,290.69c-.09-1.06-.18-2.12-.25-3.18l23.94-1.72c.06.94.14,1.88.22,2.82Z"/><path class="cls-2" d="M601.89,287.92,578,286.16c.07-.93.13-1.88.19-2.82l24,1.4Z"/><path class="cls-2" d="M194.69,283.26c-.06-1.06-.1-2.12-.14-3.19l24-.84c0,.94.07,1.88.12,2.81Z"/><path class="cls-2" d="M602.3,280.49l-24-.9c0-.94.07-1.87.09-2.82l24,.54Q602.36,278.9,602.3,280.49Z"/><path class="cls-2" d="M194.45,275.82q0-1.53,0-3.06v-.12h24v.12c0,.9,0,1.81,0,2.71Z"/><path class="cls-2" d="M602.44,273h-24v-.28c0-.94,0-1.88,0-2.82l24-.37c0,1.06,0,2.13,0,3.19Z"/><path class="cls-2" d="M218.46,268.88l-24-.5c0-1.07.05-2.13.09-3.19l24,.88C218.51,267,218.48,267.94,218.46,268.88Z"/><path class="cls-2" d="M578.32,266.18c0-.94-.07-1.88-.12-2.81l24-1.24c.05,1.06.1,2.12.14,3.19Z"/><path class="cls-2" d="M218.72,262.31l-24-1.36c.06-1.07.13-2.13.21-3.19l23.93,1.74C218.83,260.44,218.77,261.37,218.72,262.31Z"/><path class="cls-2" d="M578,259.61c-.07-.93-.14-1.87-.23-2.8l23.91-2.11c.09,1.06.18,2.12.26,3.18Z"/><path class="cls-2" d="M219.22,255.75l-23.9-2.23c.1-1.06.21-2.12.32-3.18L219.5,253C219.4,253.88,219.3,254.82,219.22,255.75Z"/><path class="cls-2" d="M577.38,253.06c-.1-.94-.21-1.87-.33-2.81l23.82-2.95c.13,1,.25,2.11.37,3.17Z"/><path class="cls-2" d="M220,249.22l-23.8-3.11c.14-1.05.28-2.11.44-3.16l23.74,3.48C220.2,247.36,220.07,248.29,220,249.22Z"/><path class="cls-2" d="M576.55,246.54c-.14-.93-.28-1.86-.43-2.78l23.69-3.84c.17,1.05.33,2.1.49,3.16Z"/><path class="cls-2" d="M220.92,242.72l-23.67-4c.17-1.06.36-2.11.55-3.15l23.61,4.34C221.24,240.87,221.07,241.79,220.92,242.72Z"/><path class="cls-2" d="M575.48,240.05c-.17-.92-.35-1.84-.53-2.76l23.53-4.71c.21,1,.41,2.1.61,3.15Z"/><path class="cls-2" d="M222.12,236.26l-23.5-4.84c.21-1,.43-2.09.67-3.13l23.42,5.21C222.51,234.42,222.31,235.34,222.12,236.26Z"/><path class="cls-2" d="M574.17,233.61c-.2-.92-.41-1.83-.62-2.74l23.34-5.57q.38,1.56.72,3.12Z"/><path class="cls-2" d="M223.57,229.85l-23.32-5.71c.26-1,.52-2.06.79-3.09l23.22,6.07Q223.9,228.49,223.57,229.85Z"/><path class="cls-2" d="M572.63,227.22c-.23-.91-.48-1.81-.73-2.72L595,218.09c.28,1,.56,2,.83,3.08Z"/><path class="cls-2" d="M225.25,223.49l-23.09-6.55c.29-1,.59-2.05.89-3.07l23,6.92C225.77,221.69,225.5,222.59,225.25,223.49Z"/><path class="cls-2" d="M570.86,220.9c-.27-.9-.55-1.8-.83-2.7l22.87-7.28c.32,1,.64,2,.94,3.07Z"/><path class="cls-2" d="M227.15,217.21l-22.82-7.41c.33-1,.66-2,1-3L228,214.53C227.74,215.42,227.44,216.32,227.15,217.21Z"/><path class="cls-2" d="M568.85,214.62c-.31-.9-.62-1.79-.94-2.68l22.59-8.1c.36,1,.72,2,1.06,3Z"/><path class="cls-2" d="M229.3,211l-22.55-8.23c.37-1,.74-2,1.12-3l22.41,8.59C230,209.23,229.62,210.11,229.3,211Z"/><path class="cls-2" d="M566.6,208.41c-.33-.88-.68-1.75-1-2.63l22.28-8.93,1.17,3Z"/><path class="cls-2" d="M231.67,204.86l-22.23-9.05c.4-1,.81-2,1.22-2.94l22.09,9.4C232.38,203.13,232,204,231.67,204.86Z"/><path class="cls-2" d="M564.13,202.3c-.37-.87-.74-1.73-1.12-2.59L584.93,190q.66,1.47,1.29,2.94Z"/><path class="cls-2" d="M234.25,198.84,212.37,189c.43-1,.88-1.93,1.33-2.89l21.72,10.21C235,197.14,234.63,198,234.25,198.84Z"/><path class="cls-2" d="M561.44,196.29c-.4-.86-.81-1.71-1.23-2.56l21.57-10.53c.46,1,.93,1.91,1.38,2.88Z"/><path class="cls-2" d="M237.05,192.92l-21.51-10.65,1.44-2.85,21.33,11C237.89,191.25,237.46,192.09,237.05,192.92Z"/><path class="cls-2" d="M558.53,190.38c-.43-.84-.87-1.67-1.31-2.5l21.14-11.34c.51.94,1,1.88,1.5,2.83Z"/><path class="cls-2" d="M240.06,187.11,219,175.66c.51-.93,1-1.86,1.54-2.78l20.92,11.77C241,185.46,240.51,186.29,240.06,187.11Z"/><path class="cls-2" d="M555.4,184.58c-.46-.82-.93-1.64-1.4-2.45L574.72,170c.54.92,1.07,1.84,1.59,2.77Z"/><path class="cls-2" d="M243.3,181.4l-20.67-12.2c.54-.92,1.09-1.83,1.64-2.73L244.74,179C244.26,179.79,243.77,180.59,243.3,181.4Z"/><path class="cls-2" d="M552.07,178.9l-1.5-2.4,20.27-12.85c.57.9,1.14,1.81,1.69,2.71Z"/><path class="cls-2" d="M246.73,175.81l-20.21-12.94q.87-1.35,1.74-2.67l20,13.25Z"/><path class="cls-2" d="M548.52,173.35c-.51-.79-1-1.56-1.57-2.34l19.78-13.59c.6.88,1.2,1.77,1.79,2.66Z"/><path class="cls-2" d="M250.38,170.35l-19.73-13.67c.6-.88,1.22-1.75,1.84-2.61l19.5,14C251.45,168.81,250.91,169.58,250.38,170.35Z"/><path class="cls-2" d="M544.78,167.93c-.54-.76-1.1-1.52-1.66-2.28l19.28-14.3c.63.86,1.26,1.72,1.88,2.59Z"/><path class="cls-2" d="M254.21,165,235,150.64c.63-.85,1.28-1.7,1.93-2.54l19,14.68C255.34,163.52,254.77,164.27,254.21,165Z"/><path class="cls-2" d="M540.85,162.66c-.57-.75-1.16-1.49-1.74-2.22l18.74-15c.66.83,1.32,1.67,2,2.51Z"/><path class="cls-2" d="M258.24,159.84l-18.67-15.08c.66-.82,1.34-1.65,2-2.46L260,157.65Z"/><path class="cls-2" d="M536.73,157.53c-.6-.73-1.22-1.45-1.83-2.16l18.2-15.65c.69.8,1.37,1.61,2,2.43Z"/><path class="cls-2" d="M262.46,154.8l-18.12-15.75c.7-.8,1.4-1.59,2.11-2.38l17.88,16C263.7,153.38,263.07,154.09,262.46,154.8Z"/><path class="cls-2" d="M532.43,152.55c-.63-.7-1.27-1.39-1.91-2.08l17.61-16.32c.72.79,1.44,1.57,2.15,2.36Z"/><path class="cls-2" d="M266.86,149.91l-17.54-16.38c.73-.78,1.46-1.55,2.2-2.32l17.28,16.65Z"/><path class="cls-2" d="M527.94,147.74c-.65-.68-1.31-1.35-2-2l17-16.93c.75.75,1.49,1.51,2.23,2.27Z"/><path class="cls-2" d="M271.43,145.19l-16.92-17c.75-.74,1.51-1.49,2.27-2.22l16.67,17.26Z"/><path class="cls-2" d="M523.29,143.09c-.68-.65-1.36-1.3-2-1.94l16.38-17.54q1.17,1.08,2.31,2.19Z"/><path class="cls-2" d="M276.18,140.63,259.88,123c.78-.72,1.56-1.44,2.36-2.15l16,17.86Z"/><path class="cls-2" d="M518.47,138.62c-.7-.63-1.41-1.25-2.12-1.87l15.74-18.12c.8.69,1.6,1.4,2.39,2.11Z"/><path class="cls-2" d="M281.08,136.26l-15.64-18.2c.8-.7,1.61-1.38,2.43-2.06l15.37,18.43Q282.16,135.33,281.08,136.26Z"/><path class="cls-2" d="M513.5,134.32c-.73-.6-1.45-1.19-2.19-1.78l15.07-18.69c.83.67,1.65,1.34,2.46,2Z"/><path class="cls-2" d="M286.15,132.06l-15-18.76c.83-.66,1.66-1.32,2.5-2l14.69,19C287.63,130.88,286.88,131.47,286.15,132.06Z"/><path class="cls-2" d="M508.37,130.21l-2.25-1.71,14.39-19.21,2.53,1.92Z"/><path class="cls-2" d="M291.37,128l-14.29-19.28c.85-.64,1.72-1.27,2.58-1.89l14,19.51C292.88,126.92,292.12,127.48,291.37,128Z"/><path class="cls-2" d="M503.1,126.29l-2.3-1.62,13.66-19.73,2.61,1.83Z"/><path class="cls-2" d="M296.73,124.22l-13.58-19.8,2.65-1.78,13.27,20C298.28,123.16,297.5,123.68,296.73,124.22Z"/><path class="cls-2" d="M497.69,122.57,495.34,121l12.94-20.21q1.34.86,2.67,1.74Z"/><path class="cls-2" d="M302.23,120.59l-12.86-20.27c.91-.57,1.81-1.14,2.72-1.69l12.53,20.47Z"/><path class="cls-2" d="M492.16,119c-.8-.49-1.61-1-2.42-1.45l12.2-20.66c.92.54,1.83,1.08,2.73,1.64Z"/><path class="cls-2" d="M307.85,117.17l-12.1-20.73c.92-.54,1.85-1.07,2.78-1.59l11.77,20.92C309.48,116.23,308.66,116.69,307.85,117.17Z"/><path class="cls-2" d="M486.5,115.73,484,114.37l11.43-21.1c.93.5,1.86,1,2.78,1.53Z"/><path class="cls-2" d="M313.6,114,302.27,92.8c.94-.51,1.88-1,2.84-1.49l11,21.33Z"/><path class="cls-2" d="M480.73,112.62l-2.52-1.27,10.67-21.5c.95.47,1.89,1,2.83,1.43Z"/><path class="cls-2" d="M319.47,111,308.91,89.39c1-.47,1.93-.93,2.9-1.38L322,109.73Z"/><path class="cls-2" d="M474.84,109.73l-2.54-1.18,9.85-21.88,2.9,1.33Z"/><path class="cls-2" d="M325.43,108.17,315.7,86.23,318.63,85,328,107Z"/><path class="cls-2" d="M468.87,107.05,466.28,106l9-22.24c1,.4,2,.81,2.95,1.23Z"/><path class="cls-2" d="M331.5,105.6l-8.92-22.28,3-1.16,8.58,22.41Z"/><path class="cls-2" d="M462.78,104.59l-2.63-1,8.22-22.55,3,1.12Z"/><path class="cls-2" d="M337.67,103.26l-8.1-22.59,3-1.06,7.74,22.72Q339,102.78,337.67,103.26Z"/><path class="cls-2" d="M456.61,102.36c-.89-.31-1.79-.6-2.68-.9l7.4-22.82c1,.32,2,.66,3,1Z"/><path class="cls-2" d="M343.92,101.15l-7.26-22.88,3.06-.94,6.9,23Z"/><path class="cls-2" d="M450.35,100.35l-2.71-.79,6.56-23.09,3.06.89Z"/><path class="cls-2" d="M350.23,99.28l-6.41-23.13c1-.29,2.06-.56,3.09-.83l6,23.23C352,98.78,351.13,99,350.23,99.28Z"/><path class="cls-2" d="M444,98.57l-2.73-.69L447,74.57c1,.25,2.07.51,3.09.78Z"/><path class="cls-2" d="M356.6,97.64,351,74.29l3.12-.72L359.34,97C358.42,97.21,357.51,97.42,356.6,97.64Z"/><path class="cls-2" d="M437.63,97l-2.75-.59,4.83-23.51,3.13.67Z"/><path class="cls-2" d="M363,96.23,358.32,72.7c1.05-.21,2.09-.41,3.14-.6l4.32,23.6Z"/><path class="cls-2" d="M431.2,95.72c-.93-.16-1.85-.33-2.78-.48l4-23.67c1.05.17,2.1.36,3.14.55Z"/><path class="cls-2" d="M369.49,95.07l-3.84-23.7c1.05-.17,2.1-.33,3.16-.48l3.46,23.75C371.34,94.77,370.41,94.92,369.49,95.07Z"/><path class="cls-2" d="M424.71,94.66c-.93-.14-1.86-.27-2.8-.39L425,70.47c1.05.14,2.11.28,3.16.44Z"/><path class="cls-2" d="M376,94.14l-3-23.82L376.2,70l2.59,23.86C377.86,93.91,376.92,94,376,94.14Z"/><path class="cls-2" d="M418.19,93.82l-2.8-.28,2.22-23.9,3.18.32Z"/><path class="cls-2" d="M382.53,93.44l-2.09-23.9c1.06-.1,2.12-.18,3.18-.26l1.72,23.94Z"/><path class="cls-2" d="M411.64,93.23q-1.41-.11-2.82-.18l1.37-24c1.06.06,2.12.12,3.18.2Z"/><path class="cls-2" d="M389.09,93l-1.22-24,3.19-.14.85,24Q390.5,92.92,389.09,93Z"/><path class="cls-2" d="M405.07,92.87l-2.82-.08.5-24q1.61,0,3.18.09Z"/><path class="cls-2" d="M395.67,92.77l-.36-24q1.56,0,3.12,0h.29l-.23,9.46V92.75h-.06Z"/></g><path class="cls-2" d="M395.68,359l-1.05,0,.36-8,.93,0Z"/><polygon class="cls-2" points="401.95 358.94 401.62 350.95 402.58 350.91 402.98 358.9 401.95 358.94"/><polygon class="cls-2" points="388.38 358.44 387.35 358.31 388.36 350.37 389.31 350.49 388.38 358.44"/><path class="cls-2" d="M409.24,358.35l-1-7.94.93-.13,1.1,7.93Z"/><path class="cls-2" d="M381.15,357.28l-1-.21,1.69-7.82.93.19Z"/><path class="cls-2" d="M416.46,357.13l-1.67-7.83.93-.2,1.76,7.8Z"/><path class="cls-2" d="M374.05,355.52l-1-.3,2.35-7.65.91.27Z"/><path class="cls-2" d="M423.55,355.3l-2.34-7.65.91-.28,2.44,7.62Z"/><path class="cls-2" d="M367.13,353.16l-1-.39,3-7.42.88.35Z"/><path class="cls-2" d="M430.47,352.87l-3-7.43.88-.36,3.07,7.39Z"/><path class="cls-2" d="M360.42,350.21l-.93-.46,3.61-7.14.85.42Z"/><path class="cls-2" d="M437.15,349.86l-3.59-7.15.84-.43,3.68,7.1Z"/><path class="cls-2" d="M354,346.71l-.9-.55,4.21-6.8.81.49Z"/><path class="cls-2" d="M443.55,346.29l-4.19-6.82.8-.5,4.28,6.76Z"/><path class="cls-2" d="M347.91,342.68l-.85-.63,4.77-6.42.76.56Z"/><path class="cls-2" d="M449.62,342.19l-4.75-6.44.76-.56,4.83,6.38Z"/><path class="cls-2" d="M342.17,338.14l-.79-.69,5.29-6,.71.62Z"/><path class="cls-2" d="M455.32,337.6l-5.28-6,.71-.63,5.35,5.94Z"/><path class="cls-2" d="M336.83,333.13l-.73-.75,5.78-5.53.66.68Z"/><path class="cls-2" d="M460.61,332.54,454.85,327l.66-.69,5.81,5.49Z"/><path class="cls-2" d="M331.93,327.69l-.66-.81,6.22-5,.61.74Z"/><path class="cls-2" d="M465.46,327.06l-6.22-5c.2-.25.4-.49.59-.74l6.28,5Z"/><path class="cls-2" d="M327.51,321.86l-.6-.87,6.63-4.47.54.78Z"/><path class="cls-2" d="M469.82,321.19l-6.62-4.5c.18-.26.36-.52.53-.79l6.67,4.42Z"/><path class="cls-2" d="M323.59,315.67l-.51-.91,7-3.91c.15.28.31.56.47.83Z"/><path class="cls-2" d="M473.67,315l-7-3.91.47-.83,7,3.84Z"/><path class="cls-2" d="M320.21,309.16c-.14-.32-.29-.63-.43-1l7.29-3.29c.13.29.26.58.4.87Z"/><polygon class="cls-2" points="476.98 308.44 469.69 305.14 470.09 304.26 477.4 307.5 476.98 308.44"/><path class="cls-2" d="M317.4,302.39l-.35-1,7.55-2.65c.1.3.21.6.32.89Z"/><path class="cls-2" d="M479.72,301.67,472.18,299l.32-.9,7.57,2.59Z"/><path class="cls-2" d="M315.19,295.41c-.1-.34-.19-.67-.27-1l7.74-2c.08.3.16.61.25.91Z"/><polygon class="cls-2" points="481.88 294.67 474.14 292.65 474.38 291.72 482.13 293.67 481.88 294.67"/><path class="cls-2" d="M313.57,288.26l-.18-1,7.89-1.34c.05.32.11.63.16.94Z"/><path class="cls-2" d="M483.43,287.52l-7.89-1.37c.06-.3.11-.61.16-.92l7.9,1.24C483.54,286.82,483.49,287.17,483.43,287.52Z"/><path class="cls-2" d="M312.57,281l-.09-1,8-.65c0,.31.05.62.08.94Z"/><polygon class="cls-2" points="484.36 280.26 476.39 279.57 476.47 278.62 484.45 279.22 484.36 280.26"/><path class="cls-2" d="M312.19,273.72c0-.32,0-.64,0-1l8-.09v1Z"/><path class="cls-2" d="M484.68,272.94h-8v-.24c0-.26,0-.57,0-.89l8-.09c0,.35,0,.69,0,1Z"/><path class="cls-2" d="M320.39,267l-8-.58c0-.34,0-.69.08-1l8,.68C320.44,266.35,320.41,266.67,320.39,267Z"/><polygon class="cls-2" points="476.41 266.13 476.32 265.17 484.29 264.42 484.38 265.45 476.41 266.13"/><path class="cls-2" d="M321.15,260.39l-7.9-1.26c.06-.34.11-.69.17-1l7.89,1.35C321.25,259.76,321.2,260.08,321.15,260.39Z"/><path class="cls-2" d="M475.57,259.53c-.05-.3-.1-.61-.16-.92l7.87-1.46.18,1.05Z"/><path class="cls-2" d="M322.47,253.88,314.71,252c.08-.34.17-.68.26-1l7.74,2Z"/><path class="cls-2" d="M474.18,253.05l-.24-.93,7.72-2.09c.09.33.18.67.26,1Z"/><path class="cls-2" d="M324.34,247.51l-7.57-2.58c.11-.33.23-.66.34-1l7.54,2.66Z"/><path class="cls-2" d="M472.24,246.7l-.32-.9,7.51-2.76c.12.33.24.66.35,1Z"/><path class="cls-2" d="M326.75,241.33l-7.33-3.21c.14-.32.28-.64.43-1l7.28,3.31C327,240.75,326.88,241,326.75,241.33Z"/><path class="cls-2" d="M469.76,240.53c-.13-.29-.26-.57-.4-.86l7.25-3.4.44,1Z"/><path class="cls-2" d="M329.67,235.38l-7-3.83.51-.91,7,3.91Z"/><path class="cls-2" d="M466.76,234.6c-.15-.28-.31-.56-.47-.83l6.94-4,.51.91Z"/><path class="cls-2" d="M333.09,229.69l-6.68-4.41.58-.86,6.63,4.49Z"/><path class="cls-2" d="M463.27,228.94l-.53-.78,6.56-4.57.6.87Z"/><path class="cls-2" d="M337,224.32l-6.28-5c.21-.28.43-.55.65-.82l6.22,5Z"/><path class="cls-2" d="M459.32,223.6l-.6-.73,6.15-5.11.67.81Z"/><path class="cls-2" d="M341.31,219.28l-5.84-5.47.72-.76,5.77,5.54Z"/><path class="cls-2" d="M454.93,218.62l-.67-.69,5.71-5.6.73.75Z"/><path class="cls-2" d="M346.05,214.63l-5.35-5.95.77-.69,5.29,6Z"/><path class="cls-2" d="M450.13,214l-.71-.62,5.21-6.07c.26.22.53.45.79.69Z"/><path class="cls-2" d="M351.17,210.39,346.33,204l.84-.63,4.76,6.43Z"/><path class="cls-2" d="M445,209.84l-.76-.55,4.68-6.49c.29.2.57.41.85.62Z"/><path class="cls-2" d="M356.63,206.6l-4.28-6.76c.29-.19.59-.37.89-.55l4.19,6.81Z"/><path class="cls-2" d="M439.47,206.12l-.81-.49,4.12-6.86.89.54Z"/><path class="cls-2" d="M362.39,203.29l-3.69-7.1.93-.48,3.61,7.14C363,203,362.67,203.14,362.39,203.29Z"/><path class="cls-2" d="M433.68,202.88l-.84-.42,3.52-7.19.93.47Z"/><path class="cls-2" d="M368.41,200.47l-3.07-7.38,1-.4,3,7.42Z"/><path class="cls-2" d="M427.65,200.14l-.89-.35,2.9-7.45,1,.38Z"/><path class="cls-2" d="M374.65,198.19l-2.42-7.63,1-.31,2.33,7.65Z"/><path class="cls-2" d="M421.39,197.93l-.91-.27,2.24-7.68,1,.3Z"/><path class="cls-2" d="M381.07,196.44l-1.78-7.8,1-.22,1.68,7.82Z"/><path class="cls-2" d="M415,196.26l-.93-.2,1.59-7.84,1,.22Z"/><path class="cls-2" d="M387.6,195.25l-1.11-7.92,1.05-.14,1,7.94Z"/><path class="cls-2" d="M408.42,195.14l-.95-.11.92-7.95,1,.12Z"/><path class="cls-2" d="M394.2,194.62l-.42-8,1,0,.33,8Z"/><path class="cls-2" d="M401.8,194.58l-.94,0,.23-8,1.05,0Z"/><path class="cls-2" d="M398.43,443.26c-94,0-170.5-76.48-170.5-170.5s76.49-170.5,170.5-170.5,170.5,76.49,170.5,170.5S492.45,443.26,398.43,443.26Zm0-336c-91.25,0-165.5,74.25-165.5,165.5s74.25,165.5,165.5,165.5,165.5-74.24,165.5-165.5S489.69,107.26,398.43,107.26Z"/><polygon class="cls-2" points="265.08 377.81 225.14 372.81 240.78 335.72 265.08 377.81"/><polygon class="cls-2" points="556.09 335.72 571.73 372.81 531.79 377.81 556.09 335.72"/><polygon class="cls-2" points="374.13 104.75 398.43 72.66 422.73 104.75 374.13 104.75"/><polygon class="cls-2" points="282.15 188.84 291.83 211.35 267.54 214.56 282.15 188.84"/><polygon class="cls-2" points="383.9 415.42 398.55 395.79 413.47 415.22 383.9 415.42"/><polygon class="cls-2" points="529.25 214.02 504.92 211.15 514.28 188.51 529.25 214.02"/><path class="cls-2" d="M252.92,281.59l5-.31a140.52,140.52,0,0,1,76.57-133.94l-2.27-4.45a145.51,145.51,0,0,0-79.29,138.7Z"/><path class="cls-2" d="M478.85,394.39l-2.76-4.17A141,141,0,0,1,328.53,395c-2.31-1.32-4.56-2.71-6.76-4.14l-2.73,4.2c2.29,1.48,4.62,2.91,7,4.28A146,146,0,0,0,478.85,394.39Z"/><path class="cls-2" d="M470.81,146.16c-2.39-1.37-4.81-2.65-7.24-3.87l-2.24,4.47c2.36,1.18,4.69,2.42,7,3.74a141,141,0,0,1,70.72,129.59l5,.26A146,146,0,0,0,470.81,146.16Z"/></g><g id="央铋_4" data-name="央铋 4"><path class="cls-2" d="M102.53,512.44l15.67-26.2L88.74,496.89C39.85,438.13,12.14,363.3,9.82,283.65l30.51-10.89L9.82,261.88C12.16,181.45,40.41,106,90.19,46.93l29.26,10.44L103.92,31.63A321.16,321.16,0,0,1,128.66,8.39L122.8,0a329,329,0,0,0-31,29.87C32.59,94.75,0,181,0,272.76s32.59,178,91.76,242.89a329,329,0,0,0,31,29.87l5.86-8.39A320.46,320.46,0,0,1,102.53,512.44Z"/><path class="cls-2" d="M705.11,29.87A329.1,329.1,0,0,0,674.06,0L668.2,8.39a318.78,318.78,0,0,1,30.09,29,337,337,0,0,1,69.85,118.82l-22.51,18.6,29.14,3.15a367.25,367.25,0,0,1,.16,189.1l-29,3.68,22.67,17.42a337.12,337.12,0,0,1-70.28,120.07,317.53,317.53,0,0,1-30.09,28.95l5.86,8.39a327.85,327.85,0,0,0,31.05-29.87c59.17-64.88,91.76-151.13,91.76-242.89S764.28,94.75,705.11,29.87Z"/></g></g></svg>