<svg xmlns="http://www.w3.org/2000/svg" viewBox="0 0 19.07 18.95"><defs><style>.cls-1{fill:#00b8de;}.cls-2{fill:#ff7000;}</style></defs><title>资源 7</title><g id="图层_2" data-name="图层 2"><g id="Layer_1" data-name="Layer 1"><path class="cls-1" d="M18.44,12.54h0a9.23,9.23,0,0,1-.68,1.54,9.73,9.73,0,0,1-.92,1.35A9.47,9.47,0,0,1,9.47,19h0A9.47,9.47,0,0,1,0,9.47H0A9.46,9.46,0,0,1,9.47,0h0a9.52,9.52,0,0,1,2.45.32l.39.11a10.23,10.23,0,0,1,1.89.83l-.15.27a9.4,9.4,0,0,0-1.84-.8L11.84.62A9.46,9.46,0,0,0,9.47.31h0A9.18,9.18,0,0,0,.31,9.47h0a9.17,9.17,0,0,0,9.16,9.16h0a9.14,9.14,0,0,0,7.12-3.4,8.67,8.67,0,0,0,.9-1.31,9.89,9.89,0,0,0,.65-1.48l.1,0Z"/><path class="cls-1" d="M1.29,7.85h0a7.5,7.5,0,0,1,.47-1.57,8.72,8.72,0,0,1,.75-1.42,8.37,8.37,0,0,1,7-3.72h0a8.31,8.31,0,0,1,8.34,8.33h0a8,8,0,0,1-.32,2.3c0,.12-.07.24-.11.37a8.6,8.6,0,0,1-.84,1.76L16,13.56a7.52,7.52,0,0,0,.77-1.62c0-.1.07-.22.1-.34a7.66,7.66,0,0,0,.3-2.13h0a7.68,7.68,0,0,0-7.71-7.7h0A7.7,7.7,0,0,0,3.05,5.21a7.16,7.16,0,0,0-.7,1.31A7.62,7.62,0,0,0,1.91,8h0l-.48-.09-.14,0h0Z"/><path class="cls-2" d="M13.76,16.87a9.83,9.83,0,0,0,1.08-.74l-.4-.5a6.84,6.84,0,0,1-1,.69l.32.55ZM1.21,11.62v.18l0,0v.09l0,.05v.08l0,.06v.08l0,.05,0,0v0l0,.05,0,0v.05l0,0v0l0,0,0,0,0,0v0l0,0,0,0v0h0l.58-.25h0l0,0,0,0,0,0v0l0,0v0l0,0,0,0v-.08l0,0v-.05l0,0v0l0,0v0l0,0V11.8l0-.05v-.17l0,0v-.08l-.6.16Zm.7,1.83,0,0,0,0,0,0,0,0,0,0,0,0,0,0,0,0,0,0,0,0,0,0,0,0,0,0,0,0,0,0,0,0,0,0,0,0,0,0,0,0,0,0,0,0,0,0,0,0,0,0,0,0,0,0,0,0,0,0h0l.5-.38h0l0,0,0,0,0,0,0,0,0,0,0,0,0,0,0,0,0,0,0,0,0,0,0,0,0,0,0,0,0,0,0,0,0,0,0,0,0,0,0,0,0,0v0l0,0,0,0,0,0,0,0,0,0,0,0v0l-.56.3ZM3,15.07v0l0,0,0,0,0,0,0,0,0,0,0,0,0,0,0,0,0,0,0,0,0,0,0,0,0,0,0,0,0,0,0,0,0,0,0,0,0,0,0,0,0,0,0,0,0,0,0,0,0,0,0,0,0,0,0,0H4l.4-.48h0l0,0,0,0,0,0,0,0,0,0,0,0,0,0,0,0,0,0,0,0,0,0,0,0,0,0,0,0,0,0,0,0,0,0,0,0,0,0,0,0,0,0,0,0,0,0,0,0,0,0,0,0,0,0,0,0h0L3,15.07Zm1.45,1.32h0l0,0,0,0,0,0,0,0,0,0,0,0,0,0,0,0,0,0,0,0,0,0,0,0,0,0,0,0,0,0,0,0,0,0,0,0,0,0,0,0,0,0,0,0,0,0h0l0,0,0,0,0,0,0,0,0,0,.28-.56,0,0,0,0,0,0h0l0,0,0,0,0,0,0,0,0,0,0,0,0,0,0,0h0l0,0,0,0,0,0,0,0,0,0,0,0,0,0,0,0,0,0,0,0,0,0,0,0,0,0,0,0,0,0,0,0h0l-.37.51Zm1.71,1,0,0,0,0h0l0,0h0l0,0,0,0h0l0,0h0l0,0,0,0h0l0,0h.09l0,0H7l0,0h.08l0,0h.13l0,0h.08l.16-.61,0,0H7.41l0,0H7.25l0,0H7.05l0,0H7l0,0H6.84l0,0h0l0,0H6.64l0,0,0,0h0l0,0h0l0,0-.24.58Zm1.89.55h1.3v-.62H8.17l-.1.62ZM10,18a8,8,0,0,0,1.3-.19l-.14-.61a8.06,8.06,0,0,1-1.2.17L10,18ZM12,17.65c.42-.13.8-.32,1.22-.48l-.27-.57a5.11,5.11,0,0,1-1.14.45Z"/><path class="cls-1" d="M16.85,9.31v.08h0v.08h0a7.36,7.36,0,0,1-7.38,7.38h0A7.37,7.37,0,0,1,2.1,9.47h0a7.43,7.43,0,0,1,.45-2.55A8.26,8.26,0,0,1,3,6,7.39,7.39,0,0,1,7,2.52l.42,1.19A6.13,6.13,0,0,0,4.09,6.56a8.2,8.2,0,0,0-.36.79,6.27,6.27,0,0,0-.38,2.12h0a6.13,6.13,0,0,0,6.12,6.12h0a6.11,6.11,0,0,0,6.12-6.12h0V9.4h0V9.33Z"/><path class="cls-2" d="M15.61,2.09h0l0,0,0,0,0,0,0,0,0,0,0,0,0,0,0,0,0,0,0,0,0,0,0,0,0,0,0,0h0l0,0-.34.46,0,0,0,0,0,0,0,0,0,0,0,0,0,0,0,0,0,0,0,0,0,0,0,0,0,0,0,0,0,0,0,0h0l.36-.44ZM19,10.42c0-.2,0-.4,0-.59l-.57,0a4.93,4.93,0,0,1,0,.55l.56.06ZM19,8.08V7.5l-.56.12,0,0v.51L19,8.08Zm-.62-2.26V5.76l0,0V5.67l0,0v-.1l0,0v0l0,0,0,0v0l0,0V5.29l-.51.24v.06l0,0v0l0,0v.06l0,0v.06l0,0v.06l0,0V6l.52-.22Zm-1.14-2v0l0,0v0l0,0,0,0,0,0,0,0,0,0,0,0,0,0v0l0,0,0,0,0,0,0,0,0,0,0,0-.43.36v0l0,0,0,0,0,0,0,0,0,0,0,0,0,0,0,0,0,0,0,0,0,0,0,0,0,0,0,0,0,0,0,0Z"/><path class="cls-2" d="M11.17,2.78h-.32L10.79,3h.3l.08-.3ZM16.24,8.1V7.78h0l-.3.08h0V8l0,0v.15l.31-.06Zm-.15-.63V7.2l0,0h0l-.29.11h0v.27l0,0,.3-.09Zm-.22-.61V6.75l0,0v0l0,0V6.57h0l-.28.14h0v0l0,0v.09l0,0V7l.29-.12Zm-.27-.59h0v0l0,0v0l0,0,0,0V6.07l0,0,0,0V6l-.27.16v0l0,0v0l0,0v0l0,0,0,0v.06h0l.28-.15Zm-.33-.55h0l0,0,0,0v0l0,0,0,0v0l0,0,0,0,0,0,0,0h0l-.26.18h0v0l0,0,0,0,0,0v0l0,0,0,0v0l0,0,0,0h0l.26-.17Zm-.38-.53h0l0,0,0,0,0,0,0,0,0,0,0,0,0,0,0,0V5l0,0-.24.21,0,0v0l0,0v0l0,0v0l0,0,0,0,0,0,0,0v0l.24-.2Zm-.42-.48,0,0,0,0,0,0,0,0,0,0,0,0,0,0,0,0,0,0,0,0h0L14,4.71h0v0l0,0,0,0,0,0h0l0,0,0,0,0,0v0l0,0,.22-.21ZM14,4.26h0l0,0,0,0,0,0,0,0,0,0,0,0,0,0,0,0,0,0,0,0-.2.25h0l0,0h0l0,0,0,0,0,0,0,0,0,0,0,0,0,0h0L14,4.26Zm-.51-.4,0,0,0,0h0l0,0,0,0,0,0,0,0h0l0,0,0,0h0l-.17.26h0l0,0,0,0,0,0h0l0,0,0,0h0l0,0,0,0h0l.19-.25ZM13,3.51h0l0,0,0,0h0l0,0h0l0,0h0l0,0h0l0,0-.14.28h.05l0,0h0l0,0h0l0,0h0l0,0h0L13,3.51Zm-.58-.3h0l0,0h-.09l0,0h-.09l0,0h0L12,3.37h0l0,0h.11l0,0h.11l.13-.29ZM11.79,3h-.24l0,0h0l-.09.31h.24l0,0h0Z"/><path class="cls-2" d="M4,7.87H4a5.56,5.56,0,0,1,.39-1A5.91,5.91,0,0,1,4.88,6,5.76,5.76,0,0,1,9.47,3.72h0a5.74,5.74,0,0,1,5.75,5.75h0a5.57,5.57,0,0,1-.54,2.43,4.58,4.58,0,0,1-.28.54,5.64,5.64,0,0,1-2.26,2.12L12,14.29a5.38,5.38,0,0,0,2.13-2,4.82,4.82,0,0,0,.27-.5,5.44,5.44,0,0,0,.51-2.3h0A5.45,5.45,0,0,0,9.47,4h0A5.42,5.42,0,0,0,5.14,6.19,5.59,5.59,0,0,0,4.62,7,5.46,5.46,0,0,0,4.25,8h0l0,0Z"/></g></g></svg>