<svg xmlns="http://www.w3.org/2000/svg" viewBox="0 0 32.8 64.92"><defs><style>.cls-1{fill:#00b8de;}.cls-2{fill:#ff7000;}</style></defs><title>资源 9</title><g id="图层_2" data-name="图层 2"><g id="Layer_1" data-name="Layer 1"><polygon class="cls-1" points="3.26 2.08 14.92 2.08 15.27 2.08 15.27 2.42 15.27 62.49 15.27 62.84 14.92 62.84 3.26 62.84 3.26 62.15 14.62 62.15 14.62 2.77 3.26 2.77 3.26 2.08"/><polygon class="cls-1" points="29.54 2.77 18.18 2.77 18.18 62.15 29.54 62.15 29.54 62.84 17.88 62.84 17.54 62.84 17.54 62.49 17.54 2.42 17.54 2.08 17.88 2.08 29.54 2.08 29.54 2.77"/><rect class="cls-2" x="8.79" y="31.32" width="15.22" height="2.27"/><rect class="cls-1" x="6.67" width="19.46" height="0.64"/><rect class="cls-1" x="6.67" y="64.27" width="19.46" height="0.64"/><rect class="cls-1" x="10.62" y="26.09" width="4.2" height="0.59"/><rect class="cls-1" x="10.62" y="20.85" width="4.2" height="0.54"/><rect class="cls-1" x="10.62" y="15.56" width="4.2" height="0.54"/><rect class="cls-1" x="10.62" y="10.28" width="4.2" height="0.54"/><rect class="cls-1" x="10.62" y="4.99" width="4.2" height="0.54"/><rect class="cls-1" x="17.98" y="26.09" width="4.2" height="0.59"/><rect class="cls-1" x="17.98" y="20.85" width="4.2" height="0.54"/><rect class="cls-1" x="17.98" y="15.56" width="4.2" height="0.54"/><rect class="cls-1" x="17.98" y="10.28" width="4.2" height="0.54"/><rect class="cls-1" x="17.98" y="4.99" width="4.2" height="0.54"/><rect class="cls-1" x="10.62" y="38.24" width="4.2" height="0.54"/><rect class="cls-1" x="10.62" y="43.52" width="4.2" height="0.54"/><rect class="cls-1" x="10.62" y="48.81" width="4.2" height="0.54"/><rect class="cls-1" x="10.62" y="54.1" width="4.2" height="0.54"/><rect class="cls-1" x="10.62" y="59.38" width="4.2" height="0.54"/><rect class="cls-1" x="17.98" y="38.24" width="4.2" height="0.54"/><rect class="cls-1" x="17.98" y="43.52" width="4.2" height="0.54"/><rect class="cls-1" x="17.98" y="48.81" width="4.2" height="0.54"/><rect class="cls-1" x="17.98" y="54.1" width="4.2" height="0.54"/><rect class="cls-1" x="17.98" y="59.38" width="4.2" height="0.54"/><rect class="cls-2" y="32.16" width="32.8" height="0.59"/><rect class="cls-2" x="16.11" y="16.01" width="0.59" height="32.85"/></g></g></svg>