<svg xmlns="http://www.w3.org/2000/svg" viewBox="0 0 113.6 104.67"><defs><style>.cls-1,.cls-2,.cls-4{fill:none;stroke:#00b4eb;stroke-miterlimit:10;}.cls-1{stroke-width:8px;stroke-dasharray:10 1;}.cls-2{stroke-width:2px;}.cls-3{fill:#00b4eb;}</style></defs><title>资源 4</title><g id="图层_2" data-name="图层 2"><g id="Layer_2" data-name="Layer 2"><path class="cls-1" d="M28.37,101.3A52.8,52.8,0,1,1,109.3,62.4"/><circle class="cls-2" cx="57.27" cy="57.01" r="36.06"/><path class="cls-3" d="M57.27,21H57l0,2h.28V21ZM54,21.1h-.3l.2,2,.28,0-.18-2Zm-3.27.45h-.07l-.11,0h-.12l.38,2,.28-.06-.36-2Zm-3.22.74-.26.08h0l.55,1.92.28-.08-.55-1.93Zm-3.13,1-.28.11.74,1.86.26-.1-.72-1.87Zm-3,1.32h-.1l-.17.09.9,1.78.26-.12-.89-1.8Zm-2.89,1.6-.25.16,1.06,1.69L39.5,28l-1-1.7ZM35.72,28.1l-.08.06h0l-.13.1h0l1.21,1.59.23-.17-1.2-1.6Zm-2.55,2.09-.14.13h0l-.07.06,1.35,1.48.21-.19-1.34-1.49Zm-2.35,2.32-.07.08H30.7l0,0h0l-.05.06,1.48,1.34.19-.2-1.47-1.36ZM28.69,35l-.07.09h0l-.05.08h0l0,0,1.59,1.21.18-.22L28.69,35ZM26.8,37.73c0,.05-.07.1-.1.16h0l-.05.07L28.34,39l.15-.24L26.8,37.73Zm-1.64,2.86,0,.07h-.05v0h0l0,.1,1.78.9.13-.26-1.78-.91Zm-1.37,3v0h0a2.29,2.29,0,0,0-.1.23l1.87.73.1-.26-1.86-.75Zm-1.08,3.12a2.45,2.45,0,0,0-.08.29l1.92.55.08-.27-1.92-.57Zm-.79,3.2,0,.11h0l0,.15h0l2,.38.06-.28-2-.39Zm-.5,3.26v0h0l0,.17h0v0l2,.19,0-.28-2-.21Zm-.2,3.29h0v0h0v0h0v.11h0v0h0v0h0v0h0v0l2,0v-.29l-2,0Zm2.1,3.15-2,.15v0c0,.07,0,.14,0,.2h0v.06l2-.17,0-.28Zm.37,3.1-2,.33c0,.1,0,.19.05.29l2-.35,0-.27Zm.66,3-1.93.51c0,.1,0,.19.07.29L24.42,66l-.07-.27Zm.93,3-1.87.69.1.28,1.87-.7-.1-.27Zm1.21,2.87-1.81.86.06.11h0l.06.13,1.8-.87-.12-.26ZM28,74.34l-1.72,1,0,0h0l.07.12h0l0,.05,1.71-1L28,74.34ZM29.66,77,28,78.12l.05.06h0a1.71,1.71,0,0,0,.11.14l1.61-1.18L29.66,77Zm1.94,2.44L30.1,80.7l.08.1h0l0,0h0v0h0v0h0l1.5-1.33-.19-.21Zm2.16,2.25-1.38,1.45h0l.08.08h0l.07.06h0L34,81.84l-.2-.2Zm2.35,2-1.25,1.56.17.14h0l.06,0,1.23-1.58-.22-.17Zm2.52,1.82-1.09,1.68h.05l.12.08h0l0,0,1.08-1.68-.24-.16Zm2.68,1.59-.93,1.77.09,0h0l.13.07.93-1.78-.26-.13Zm2.82,1.33-.77,1.85,0,0h0l.11,0h0l.07,0,.76-1.85-.26-.11Zm2.92,1.07-.59,1.91.28.09.59-1.91-.28-.09Zm3,.8-.43,2,.17,0h.13l.4-2-.27-.06Zm3.07.51-.24,2,.17,0h.13l.22-2-.28,0Zm3.11.24-.06,2h.3l0-2Zm3.4-.07-.28,0,.12,2h.3l-.14-2Zm3.1-.35-.28,0,.3,2,.29-.05-.31-2Zm3-.64-.27.07L66,92l.29-.08L65.79,90Zm3-.92-.27.1.66,1.89h.12l.17-.05-.68-1.89Zm2.88-1.18-.26.12.83,1.82.28-.13-.85-1.81Zm2.76-1.45-.24.14,1,1.74.11-.07h.12l0,0-1-1.73ZM77,84.75l-.23.16,1.14,1.64.1-.07h0l.14-.09L77,84.75Zm2.45-1.92-.22.18,1.3,1.53h.07a.69.69,0,0,0,.13-.11h0l-1.3-1.51Zm2.27-2.14-.2.2L83,82.29l0,0H83v0h0l.08-.08-1.43-1.39Zm2.06-2.34-.18.22,1.55,1.27.06-.07h0v0h0l.09-.11h0l-1.56-1.26Zm1.84-2.51-.16.23,1.66,1.12.17-.25-1.67-1.1Zm1.61-2.67-.14.24,1.75,1,.15-.26-1.76-1Zm1.35-2.81-.11.26,1.83.8.07-.16h0v0h0l0,0-1.84-.79Zm1.09-2.92-.09.27,1.9.63,0-.1h0v0h0v0h0l0-.11-1.9-.61Zm.82-3-.07.27,2,.45,0-.07h0c0-.07,0-.14,0-.21l-2-.43Zm.53-3.07,0,.28,2,.27a1.37,1.37,0,0,1,0-.19h0l0-.08-2-.25Zm.25-3.11v.28l2,.09c0-.05,0-.11,0-.16h0v-.12l-2-.07Zm2-3.23-2,.11v.28l2-.09h0v0h0v0h0c0-.07,0-.14,0-.22ZM93,51.75,91,52l0,.28,2-.27V52h0l0-.22Zm-.63-3.24L90.38,49l.06.28,2-.46c0-.06,0-.13,0-.2l0-.09Zm-.92-3.17L89.51,46l.09.27,1.9-.63,0-.13h0v0h0v0h0v0h0v0Zm-1.21-3.06-1.82.81.11.26,1.83-.8-.06-.14h0l-.06-.12Zm-1.49-3-1.74,1,.14.25,1.75-1,0-.06h0v0h0l-.08-.13ZM87,36.53l-1.64,1.14.16.23,1.65-1.12,0-.06h0v0h0l-.1-.14Zm-2-2.62-1.54,1.28.18.22,1.55-1.27L85,33.91Zm-2.23-2.44-1.41,1.42.2.2,1.42-1.4h0v0h0l-.08-.08h0l-.08-.09Zm-2.44-2.22L79,30.79l.22.18,1.29-1.52-.2-.17h0l0,0Zm-2.63-2-1.13,1.65.23.16,1.15-1.63h0a.71.71,0,0,0-.14-.1h0l-.07-.06Zm-2.8-1.74-1,1.75.25.14,1-1.74,0,0H75l0,0h0Zm-3-1.47-.82,1.82.26.12.83-1.82-.09,0h0l-.17-.07Zm-3.08-1.2-.64,1.89.27.09.66-1.89-.1,0h0l-.16,0Zm-3.17-.92-.46,1.95.28.07L66,22h-.18l-.12,0Zm-3.24-.61-.28,2,.28,0,.3-2-.3,0ZM59.14,21,59,23h.28l.12-2h-.3Z"/><circle class="cls-4" cx="57.27" cy="57.01" r="22.48"/><line class="cls-4" x1="57.27" y1="39.81" x2="57.27" y2="15.23"/><line class="cls-4" x1="40.07" y1="57.01" x2="15.49" y2="57.01"/><line class="cls-4" x1="57.27" y1="74.21" x2="57.27" y2="98.79"/><line class="cls-4" x1="74.47" y1="57.01" x2="99.05" y2="57.01"/></g></g></svg>