<svg xmlns="http://www.w3.org/2000/svg" viewBox="0 0 98.39 108.7"><defs><style>.cls-1{fill:#fff;}</style></defs><title>资源 25</title><g id="图层_2" data-name="图层 2"><g id="Elements"><path class="cls-1" d="M49.45,99.22A43.68,43.68,0,1,1,93.13,55.54,43.73,43.73,0,0,1,49.45,99.22Zm0-85.36A41.68,41.68,0,1,0,91.13,55.54,41.72,41.72,0,0,0,49.45,13.86Z"/><path class="cls-1" d="M28.85,83.32A34.58,34.58,0,1,1,84,55.54H83a33.58,33.58,0,1,0-53.58,27Z"/><rect class="cls-1" x="48.45" width="2" height="12.86"/><rect class="cls-1" x="36.35" y="6.36" width="2" height="8.09" transform="translate(-1.42 10.02) rotate(-15)"/><rect class="cls-1" x="25.99" y="14.4" width="2" height="4.47" transform="translate(-4.7 15.72) rotate(-30)"/><rect class="cls-1" x="15.56" y="18.82" width="2" height="7.66" transform="translate(-11.17 18.34) rotate(-45)"/><rect class="cls-1" x="9.85" y="31.37" width="2" height="3.77" transform="translate(-23.38 26.03) rotate(-60.01)"/><rect class="cls-1" x="3.24" y="39.31" width="2" height="8.24" transform="matrix(0.26, -0.97, 0.97, 0.26, -38.8, 36.28)"/><rect class="cls-1" x="1.01" y="54.54" width="5.76" height="2"/><rect class="cls-1" x="4.15" y="66.12" width="4.14" height="2" transform="translate(-17.16 3.9) rotate(-15)"/><rect class="cls-1" x="6.66" y="77.44" width="6.24" height="2" transform="translate(-37.9 15.39) rotate(-29.99)"/><rect class="cls-1" x="9.82" y="88.63" width="11.07" height="2" transform="translate(-58.88 37.11) rotate(-45)"/><rect class="cls-1" x="22.7" y="94.62" width="7.21" height="2" transform="translate(-69.66 70.6) rotate(-60.01)"/><rect class="cls-1" x="30.79" y="101.6" width="12.09" height="2" transform="translate(-71.81 111.63) rotate(-75)"/><rect class="cls-1" x="48.45" y="98.22" width="2" height="5.47"/><rect class="cls-1" x="60.59" y="96.62" width="2" height="8.48" transform="translate(-24.01 19.38) rotate(-15)"/><rect class="cls-1" x="71.38" y="92.07" width="2" height="6.38" transform="translate(-37.94 48.96) rotate(-30)"/><rect class="cls-1" x="82.49" y="84.12" width="2" height="10.91" transform="translate(-38.89 85.27) rotate(-45)"/><rect class="cls-1" x="87.61" y="75.61" width="2" height="5.08" transform="translate(-23.37 115.82) rotate(-60)"/><rect class="cls-1" x="93.16" y="63.91" width="2" height="7.21" transform="translate(4.57 140.99) rotate(-75)"/><rect class="cls-1" x="92.13" y="54.54" width="3.2" height="2"/><rect class="cls-1" x="90.59" y="42.88" width="4.7" height="2" transform="translate(-8.19 25.55) rotate(-15)"/><rect class="cls-1" x="85.52" y="29.88" width="13.26" height="2" transform="translate(-3.1 50.2) rotate(-29.99)"/><rect class="cls-1" x="78.89" y="22.58" width="5.04" height="2" transform="translate(7.17 64.47) rotate(-45)"/><rect class="cls-1" x="68.55" y="13.7" width="8.94" height="2" transform="translate(23.78 70.6) rotate(-60.01)"/><rect class="cls-1" x="57.82" y="9.83" width="7.21" height="2" transform="translate(35.07 67.36) rotate(-75)"/></g></g></svg>