<svg xmlns="http://www.w3.org/2000/svg" xmlns:xlink="http://www.w3.org/1999/xlink" viewBox="0 0 71.57 59.59"><defs><style>.cls-1{isolation:isolate;}.cls-2{fill:url(#linear-gradient);}.cls-3{fill:url(#linear-gradient-2);}.cls-4{fill:url(#linear-gradient-3);}.cls-5{fill:url(#linear-gradient-4);}.cls-6{fill:url(#linear-gradient-5);}.cls-7{fill:url(#linear-gradient-6);}.cls-8{fill:url(#linear-gradient-7);}.cls-9{fill:url(#linear-gradient-8);}.cls-10{fill:#999;}.cls-11{fill:url(#linear-gradient-9);}.cls-12{fill:url(#linear-gradient-10);}.cls-13{fill:#fff;}.cls-14{fill:url(#linear-gradient-11);}.cls-15{fill:url(#linear-gradient-12);}.cls-16{fill:url(#linear-gradient-13);}.cls-17{mix-blend-mode:screen;}.cls-18{fill:#f7931e;}.cls-19{fill:url(#linear-gradient-14);}.cls-20{fill:url(#linear-gradient-15);}.cls-21{fill:url(#linear-gradient-16);}.cls-22{fill:url(#linear-gradient-17);}.cls-23{fill:url(#linear-gradient-18);}.cls-24{fill:url(#linear-gradient-19);}.cls-25{fill:url(#linear-gradient-20);}.cls-26{fill:url(#linear-gradient-21);}.cls-27{fill:url(#linear-gradient-22);}.cls-28{fill:url(#linear-gradient-23);}.cls-29{fill:url(#linear-gradient-24);}.cls-30{fill:url(#linear-gradient-25);}.cls-31{fill:url(#linear-gradient-26);}.cls-32{fill:#fbb03b;}</style><linearGradient id="linear-gradient" x1="71.06" y1="34.17" x2="-5.43" y2="23.01" gradientUnits="userSpaceOnUse"><stop offset="0" stop-color="#65c8d0"/><stop offset="1"/></linearGradient><linearGradient id="linear-gradient-2" x1="70.96" y1="34.95" x2="-5.7" y2="23.77" xlink:href="#linear-gradient"/><linearGradient id="linear-gradient-3" x1="70.92" y1="34.97" x2="-5.69" y2="23.8" xlink:href="#linear-gradient"/><linearGradient id="linear-gradient-4" x1="70.88" y1="34.99" x2="-5.67" y2="23.83" xlink:href="#linear-gradient"/><linearGradient id="linear-gradient-5" x1="70.83" y1="35.01" x2="-5.66" y2="23.86" xlink:href="#linear-gradient"/><linearGradient id="linear-gradient-6" x1="70.8" y1="35.03" x2="-5.65" y2="23.89" xlink:href="#linear-gradient"/><linearGradient id="linear-gradient-7" x1="70.76" y1="35.05" x2="-5.63" y2="23.92" xlink:href="#linear-gradient"/><linearGradient id="linear-gradient-8" x1="70.86" y1="34.69" x2="-5.63" y2="23.53" xlink:href="#linear-gradient"/><linearGradient id="linear-gradient-9" x1="72.95" y1="33.58" x2="-6.44" y2="22" xlink:href="#linear-gradient"/><linearGradient id="linear-gradient-10" x1="69.47" y1="33.38" x2="-5.36" y2="22.46" xlink:href="#linear-gradient"/><linearGradient id="linear-gradient-11" x1="70.05" y1="34.24" x2="-4.43" y2="23.38" xlink:href="#linear-gradient"/><linearGradient id="linear-gradient-12" x1="72.3" y1="33" x2="-5.62" y2="21.64" xlink:href="#linear-gradient"/><linearGradient id="linear-gradient-13" x1="72.46" y1="33.8" x2="-6.64" y2="22.27" xlink:href="#linear-gradient"/><linearGradient id="linear-gradient-14" x1="70.62" y1="46.25" x2="-8.79" y2="34.67" xlink:href="#linear-gradient"/><linearGradient id="linear-gradient-15" x1="70.68" y1="46.73" x2="-9.3" y2="35.07" xlink:href="#linear-gradient"/><linearGradient id="linear-gradient-16" x1="75.05" y1="19.77" x2="-5.87" y2="7.97" xlink:href="#linear-gradient"/><linearGradient id="linear-gradient-17" x1="73.09" y1="22.43" x2="-3.76" y2="11.23" xlink:href="#linear-gradient"/><linearGradient id="linear-gradient-18" x1="72.62" y1="33.2" x2="-6.41" y2="21.68" xlink:href="#linear-gradient"/><linearGradient id="linear-gradient-19" x1="70.48" y1="34.16" x2="-5.01" y2="23.15" xlink:href="#linear-gradient"/><linearGradient id="linear-gradient-20" x1="75.34" y1="13.03" x2="-3.1" y2="1.59" xlink:href="#linear-gradient"/><linearGradient id="linear-gradient-21" x1="73.09" y1="23.06" x2="-4" y2="11.82" xlink:href="#linear-gradient"/><linearGradient id="linear-gradient-22" x1="70.74" y1="46.65" x2="-9.51" y2="34.95" xlink:href="#linear-gradient"/><linearGradient id="linear-gradient-23" x1="72.76" y1="34.8" x2="-8.54" y2="22.94" xlink:href="#linear-gradient"/><linearGradient id="linear-gradient-24" x1="72.79" y1="34.71" x2="-8.72" y2="22.83" xlink:href="#linear-gradient"/><linearGradient id="linear-gradient-25" x1="70.89" y1="45.42" x2="-9.23" y2="33.74" xlink:href="#linear-gradient"/><linearGradient id="linear-gradient-26" x1="70.58" y1="47.87" x2="-9.8" y2="36.15" xlink:href="#linear-gradient"/></defs><title>资源 2</title><g class="cls-1"><g id="图层_2" data-name="图层 2"><g id="Layer_10" data-name="Layer 10"><polygon class="cls-2" points="15.3 27.09 15.34 26.46 15.43 26.46 15.39 27.1 16.66 27.2 16.67 27.07 16.75 27.07 16.75 27.21 17.14 27.25 17.15 26.96 17.3 26.98 17.28 27.26 17.47 27.27 17.5 26.76 17.71 26.78 17.68 27.29 18.32 27.35 18.36 26.7 18.46 26.71 18.43 27.36 21.48 27.62 21.52 26.96 21.63 26.97 21.59 27.63 22.87 27.74 23.01 25.32 23.16 25.32 23.01 27.75 24.79 27.91 24.83 27.23 24.94 27.24 24.9 27.92 26.5 28.05 26.52 27.59 26.63 27.59 26.6 28.06 27.75 28.16 27.79 27.4 27.89 27.41 27.84 28.17 28.24 28.2 28.28 27.52 28.4 27.52 28.36 28.21 29.52 28.32 29.53 28.18 29.9 28.21 29.89 28.35 30.53 28.4 30.56 28.04 31 28.07 30.97 28.44 31.86 28.52 31.9 27.81 32.02 27.82 31.98 28.53 33.24 28.64 33.23 28.82 31.97 28.71 31.92 29.42 31.8 29.41 31.85 28.7 28.34 28.4 28.3 29.09 28.19 29.07 28.23 28.39 27.83 28.35 27.75 29.58 27.66 29.57 27.74 28.34 24.89 28.09 24.84 28.77 24.73 28.76 24.78 28.08 24.16 28.03 24.14 28.43 23.58 28.38 23.6 27.98 21.58 27.8 21.54 28.46 21.43 28.45 21.47 27.8 18.41 27.53 18.38 28.17 18.28 28.16 18.32 27.52 15.38 27.26 15.35 27.89 15.25 27.88 15.29 27.25 6.07 26.45 6.08 26.29 15.3 27.09"/><polygon class="cls-3" points="27.59 28.74 27.29 28.71 27.3 28.47 27.6 28.5 27.59 28.74"/><polygon class="cls-4" points="27.11 28.7 26.81 28.67 26.82 28.43 27.12 28.46 27.11 28.7"/><polygon class="cls-5" points="26.63 28.65 26.34 28.63 26.35 28.39 26.65 28.41 26.63 28.65"/><polygon class="cls-6" points="26.16 28.61 25.86 28.58 25.88 28.35 26.17 28.37 26.16 28.61"/><polygon class="cls-7" points="25.69 28.57 25.4 28.54 25.41 28.3 25.7 28.33 25.69 28.57"/><polygon class="cls-8" points="25.22 28.53 24.93 28.5 24.95 28.26 25.24 28.29 25.22 28.53"/><polygon class="cls-9" points="18.55 27.08 21.4 27.32 21.39 27.45 18.54 27.21 18.55 27.08"/><path class="cls-10" d="M38.61,29.23c0-.23,0-.46.08-.68l-.2-.05c0,.23-.06.47-.07.71a7.72,7.72,0,0,0,0,1.18l.2,0A8.5,8.5,0,0,1,38.61,29.23Z"/><path class="cls-10" d="M47.46,25.85l.17-.16a5.49,5.49,0,0,0-1.2-1.33l-.12.21A5.66,5.66,0,0,1,47.46,25.85Z"/><path class="cls-10" d="M39,32.1l-.18.1a6.13,6.13,0,0,0,1.88,2.74l.11-.21A5.92,5.92,0,0,1,39,32.1Z"/><path class="cls-10" d="M48.73,30.18s0-.05,0-.07a7.52,7.52,0,0,0-.66-3.61l-.19.13a7.18,7.18,0,0,1,.63,3.46v.07Z"/><path class="cls-10" d="M39.78,25.39l.14.17a4.89,4.89,0,0,1,2.44-1.78l0-.25A5.17,5.17,0,0,0,39.78,25.39Z"/><path class="cls-10" d="M43,23.37l0,.25a4.78,4.78,0,0,1,.76,0,3.86,3.86,0,0,1,.77.11l0-.25a5.32,5.32,0,0,0-.8-.12A4.25,4.25,0,0,0,43,23.37Z"/><path class="cls-10" d="M60.09,31.33a1.79,1.79,0,0,1,0-.23,21.73,21.73,0,0,0-2.2-11.22l-.07.05A21.71,21.71,0,0,1,60,31.1c0,.07,0,.14,0,.22Z"/><path class="cls-10" d="M56.37,17.49l.07-.06a16.51,16.51,0,0,0-3.84-3.89l-.05.08A16.34,16.34,0,0,1,56.37,17.49Z"/><path class="cls-10" d="M30.62,36.77l-.06,0a18.69,18.69,0,0,0,5.1,8l0-.07A18.49,18.49,0,0,1,30.62,36.77Z"/><path class="cls-10" d="M29.55,28.44c.05-.67.12-1.32.21-2H29.7c-.09.65-.17,1.31-.21,2a23.86,23.86,0,0,0,0,3.28h.06A23.7,23.7,0,0,1,29.55,28.44Z"/><path class="cls-10" d="M42.26,11.29v.09a12.9,12.9,0,0,1,2.34-.27,12.43,12.43,0,0,1,2.37.17l0-.09A12.59,12.59,0,0,0,44.61,11,12.91,12.91,0,0,0,42.26,11.29Z"/><path class="cls-10" d="M33.14,17.64l0,.06a15.55,15.55,0,0,1,7-5.71l0-.08A15.61,15.61,0,0,0,33.14,17.64Z"/><path class="cls-11" d="M45.3.08C32.79,1.18,23.23,13.56,22.38,27.82S29.44,55.7,41.56,58.9C55.73,62.64,70.18,51,71.48,32.09S60-1.2,45.3.08ZM41.57,58.74C29.51,55.57,21.63,41.93,22.48,27.82S32.84,1.32,45.29.24c14.58-1.26,27.31,13,26,31.84S55.66,62.44,41.57,58.74Z"/><path class="cls-12" d="M43.45,1.76C31.64,2.78,22.61,14.48,21.8,28s6.67,26.33,18.09,29.33c13.36,3.52,27-7.5,28.2-25.29S57.28.56,43.45,1.76ZM39.9,57.13c-11.36-3-18.8-15.84-18-29.17s9.79-25,21.54-26C57.19.74,69.16,14.16,67.92,32S53.18,60.61,39.9,57.13Z"/><path class="cls-13" d="M44.13,18.46c-4.93-.1-9,4.58-9.38,10.43s3.09,11.16,8,11.91c5.17.79,9.94-3.8,10.37-10.31S49.37,18.56,44.13,18.46ZM42.72,40.67c-4.82-.74-8.23-6-7.87-11.77s4.4-10.42,9.27-10.31C49.29,18.7,53.38,24,53,30.48S47.82,41.45,42.72,40.67Z"/><path class="cls-13" d="M42.18,19.81c-4.35-.1-8,4-8.28,9.21s2.72,9.84,7,10.5c4.55.7,8.76-3.35,9.14-9.09S46.79,19.91,42.18,19.81Zm-1.26,19.6C36.68,38.76,33.67,34.13,34,29s3.89-9.2,8.19-9.11c4.56.1,8.15,4.81,7.77,10.5S45.42,40.09,40.92,39.41Z"/><polygon class="cls-14" points="33.28 26.73 33.02 28.86 33.05 31 33.58 30.04 33.7 27.76 33.28 26.73"/><polygon class="cls-15" points="54.96 32.92 55.28 30.51 55.23 28.07 54.56 29.16 54.41 31.74 54.96 32.92"/><path class="cls-16" d="M44.28,16.06c-6,0-10.83,5.65-11.26,12.68s3.67,13.45,9.54,14.43c6.3,1.07,12.2-4.48,12.73-12.49S50.69,16.1,44.28,16.06ZM42.57,43c-5.8-1-9.87-7.33-9.44-14.27s5.26-12.58,11.14-12.54c6.33.05,11.4,6.53,10.87,14.46S48.8,44.06,42.57,43Z"/><g class="cls-17"><path class="cls-18" d="M40,26l-.12-.13a6.6,6.6,0,0,0-1.15,3.33l.16,0A6.49,6.49,0,0,1,40,26Z"/><path class="cls-18" d="M41.13,24.85,41,24.68a5,5,0,0,0-.45.38l.1.17A5.2,5.2,0,0,1,41.13,24.85Z"/><path class="cls-18" d="M40.49,25.43l-.11-.15c-.13.15-.27.31-.39.47l.12.14C40.23,25.73,40.36,25.58,40.49,25.43Z"/><path class="cls-18" d="M40.61,25.31l-.1-.16,0,0,.11.16S40.6,25.32,40.61,25.31Z"/><path class="cls-18" d="M38.93,29.32h-.17a7.39,7.39,0,0,0,.14,1.84l.16,0A6.5,6.5,0,0,1,38.93,29.32Z"/><path class="cls-18" d="M40,33.26l-.13.13,0,0,.12-.13Z"/><path class="cls-18" d="M39.09,31.22l-.16.06A6.64,6.64,0,0,0,39.57,33l.14-.11A5.92,5.92,0,0,1,39.09,31.22Z"/><path class="cls-18" d="M39.77,33l-.14.12.14.21.12-.12Z"/><path class="cls-18" d="M40.06,33.4l-.12.14a4.94,4.94,0,0,0,1.47,1.38l.07-.19A4.72,4.72,0,0,1,40.06,33.4Z"/><path class="cls-18" d="M48,28l.17-.06c0-.22-.12-.44-.19-.66l-.17.09C47.86,27.57,47.93,27.78,48,28Z"/><path class="cls-18" d="M42.14,24.28l0-.2a4.1,4.1,0,0,0-1,.53l.08.17A4.33,4.33,0,0,1,42.14,24.28Z"/><path class="cls-18" d="M47.75,27.24l.16-.09A5.75,5.75,0,0,0,46.5,25l-.11.17A5.58,5.58,0,0,1,47.75,27.24Z"/><path class="cls-18" d="M48.16,30.06l0,.34.18,0,0-.35a7.09,7.09,0,0,0-.15-2l-.18.06A6.92,6.92,0,0,1,48.16,30.06Z"/><path class="cls-18" d="M46.3,25.09l.11-.17a4.32,4.32,0,0,0-1.24-.8l-.07.2A4,4,0,0,1,46.3,25.09Z"/><path class="cls-18" d="M43.78,24a4.23,4.23,0,0,1,1.22.27l.06-.2a4.18,4.18,0,0,0-1.27-.28h-.27V24Z"/><path class="cls-18" d="M43.25,24V23.8a4.5,4.5,0,0,0-1,.24l0,.2A3.81,3.81,0,0,1,43.25,24Z"/><path class="cls-18" d="M43.41,24v-.21h-.06V24Z"/><path class="cls-18" d="M41.57,34.79l-.06.19a5.11,5.11,0,0,0,.67.31l0-.21A4.17,4.17,0,0,1,41.57,34.79Z"/><path class="cls-18" d="M43.44,35.31v.21h.23v-.21Z"/><path class="cls-18" d="M48.11,30.53a2.51,2.51,0,0,1,0,.27l.18,0a2.36,2.36,0,0,0,0-.28Z"/><path class="cls-18" d="M44.72,35.11l.05.21a2.5,2.5,0,0,0,.38-.15l-.06-.2A2.35,2.35,0,0,1,44.72,35.11Z"/><path class="cls-18" d="M43.76,35.3l0,.21a3.87,3.87,0,0,0,.89-.16l-.05-.2A4.07,4.07,0,0,1,43.76,35.3Z"/><path class="cls-18" d="M42.48,35.17l0,.2,0,0,0-.21Z"/><path class="cls-18" d="M47.83,31.77l.17.08a7.92,7.92,0,0,0,.23-.87l-.18-.05A7.38,7.38,0,0,1,47.83,31.77Z"/><path class="cls-18" d="M43.06,35.28a3.07,3.07,0,0,1-.42-.07l0,.2a3.11,3.11,0,0,0,.44.08l.28,0V35.3Z"/><path class="cls-18" d="M45.19,34.93l.07.2A4.75,4.75,0,0,0,46.75,34l-.12-.16A4.54,4.54,0,0,1,45.19,34.93Z"/><path class="cls-18" d="M42.33,35.12l0,.2.05,0,0-.2Z"/><path class="cls-18" d="M46.71,33.75l.13.16A6,6,0,0,0,48,32l-.16-.09A6,6,0,0,1,46.71,33.75Z"/></g><path class="cls-19" d="M35.34,38l-5,5.29.1.17,5-5.3Z"/><path class="cls-20" d="M50.87,40.42l5.5,7.82.17-.14L51,40.27Z"/><path class="cls-21" d="M52.32,20.43l6.51-6.85-.14-.18-6.5,6.86Z"/><path class="cls-22" d="M36.6,19.79l-4.34-6.16-.13.15,4.34,6.16Z"/><path class="cls-18" d="M40.09,33l1.37-1.45,0,.05.06.09-1.38,1.45Z"/><path class="cls-18" d="M45,32.08l0,0,0,0,0,0,1.25,1.77-.12.12Z"/><path class="cls-18" d="M45.36,27.58l0-.06L46.78,26l.1.15-1.46,1.54Z"/><path class="cls-18" d="M40.55,25.72l.11-.13,1.18,1.68-.07.08,0,0Z"/><path class="cls-18" d="M58.54,31A18.5,18.5,0,0,1,53.38,42.9l.12.17A18.69,18.69,0,0,0,58.73,31a19.5,19.5,0,0,0-3.59-12.91l-.14.15A19.33,19.33,0,0,1,58.54,31Z"/><path class="cls-10" d="M30.6,28.53a19.07,19.07,0,0,1,3.95-10.68l-.09-.13a19.22,19.22,0,0,0-4,10.8,20,20,0,0,0,2.63,11.34l.11-.12A19.72,19.72,0,0,1,30.6,28.53Z"/><path class="cls-23" d="M59.23,31A19.18,19.18,0,0,1,53.8,43.5l.22.32a19.6,19.6,0,0,0,5.57-12.76,20.47,20.47,0,0,0-3.83-13.64l-.26.27A20,20,0,0,1,59.23,31Z"/><path class="cls-24" d="M30.11,28.49a19.8,19.8,0,0,1,4.1-11.12L34,17.12a20.29,20.29,0,0,0-4.18,11.35,20.92,20.92,0,0,0,2.75,11.89l.2-.21A20.49,20.49,0,0,1,30.11,28.49Z"/><path class="cls-10" d="M61.89,31.26a22,22,0,0,1-6.45,14.56l.11.15a22.24,22.24,0,0,0,6.52-14.7,23.23,23.23,0,0,0-4.51-15.74l-.12.13A23,23,0,0,1,61.89,31.26Z"/><path class="cls-10" d="M28.27,28.33A22.87,22.87,0,0,1,33,15.57l-.08-.12a23.16,23.16,0,0,0-4.72,12.87,23.91,23.91,0,0,0,3.1,13.48l.09-.1A23.71,23.71,0,0,1,28.27,28.33Z"/><path class="cls-10" d="M61.41,31.22a21.55,21.55,0,0,1-6.26,14.19l.1.14a21.66,21.66,0,0,0,6.33-14.32A22.67,22.67,0,0,0,57.21,15.9l-.12.12A22.53,22.53,0,0,1,61.41,31.22Z"/><path class="cls-10" d="M28.59,28.36a22.32,22.32,0,0,1,4.59-12.47l-.08-.11a22.47,22.47,0,0,0-4.62,12.57,23.28,23.28,0,0,0,3,13.17l.09-.09A23.22,23.22,0,0,1,28.59,28.36Z"/><path class="cls-13" d="M45.4,23.31,48.24,14l-.07,0-2.84,9.29h0Z"/><path class="cls-13" d="M38.89,44.56l2.66-8.67h0l0,0-2.65,8.66Z"/><polygon class="cls-25" points="44.81 7.82 44.08 8.67 44.05 9.22 44.77 8.38 45.4 9.18 45.44 8.62 44.81 7.82"/><polygon class="cls-26" points="30.39 17.58 31.2 17.44 31.45 17.03 30.64 17.18 30.59 16.12 30.34 16.53 30.39 17.58"/><path class="cls-27" d="M51.29,42.93a.73.73,0,0,0-.81.76.94.94,0,0,0,.69,1,.75.75,0,0,0,.82-.76A.93.93,0,0,0,51.29,42.93Zm-.11,1.64a.81.81,0,0,1-.6-.87.64.64,0,0,1,.7-.66.83.83,0,0,1,.61.88A.64.64,0,0,1,51.18,44.57Z"/><path class="cls-28" d="M63,32.6a.71.71,0,0,0-.75.7.78.78,0,0,0,.65.85.72.72,0,0,0,.76-.71A.76.76,0,0,0,63,32.6ZM62.93,34a.66.66,0,0,1-.57-.73A.62.62,0,0,1,63,32.7a.67.67,0,0,1,.57.73A.62.62,0,0,1,62.93,34Z"/><path class="cls-29" d="M64.9,32.77a.73.73,0,0,0-.77.71.79.79,0,0,0,.67.86.72.72,0,0,0,.77-.71A.79.79,0,0,0,64.9,32.77Zm-.1,1.46a.67.67,0,0,1-.57-.74.62.62,0,0,1,.67-.61.68.68,0,0,1,.58.74A.63.63,0,0,1,64.8,34.23Z"/><path class="cls-30" d="M50.39,42a.4.4,0,0,0-.43.42.5.5,0,0,0,.37.54.4.4,0,0,0,.44-.42A.5.5,0,0,0,50.39,42Zm0,.9a.45.45,0,0,1-.33-.48.35.35,0,0,1,.38-.36.45.45,0,0,1,.33.48A.35.35,0,0,1,50.34,42.85Z"/><path class="cls-31" d="M52.13,44.69a.39.39,0,0,0-.44.41.52.52,0,0,0,.38.56.41.41,0,0,0,.45-.41A.51.51,0,0,0,52.13,44.69Zm-.05.9a.45.45,0,0,1-.34-.48.34.34,0,0,1,.39-.35.45.45,0,0,1,.34.48A.34.34,0,0,1,52.08,45.59Z"/><path class="cls-10" d="M51.26,43.34a.4.4,0,0,0-.44.4.51.51,0,0,0,.38.54.39.39,0,0,0,.43-.41A.48.48,0,0,0,51.26,43.34Zm-.06.88a.43.43,0,0,1-.32-.47.33.33,0,0,1,.37-.35.43.43,0,0,1,.33.47A.34.34,0,0,1,51.2,44.22Z"/><polygon class="cls-32" points="0.18 24.39 0 24.38 0.04 23.64 0.22 23.65 0.18 24.39"/><polygon class="cls-32" points="2.62 24.57 2.43 24.56 2.47 23.8 2.66 23.82 2.62 24.57"/><polygon class="cls-32" points="5.15 24.76 4.95 24.75 5 23.98 5.19 23.99 5.15 24.76"/><polygon class="cls-32" points="7.78 24.96 7.58 24.95 7.63 24.16 7.83 24.17 7.78 24.96"/><polygon class="cls-32" points="10.53 25.17 10.32 25.15 10.36 24.35 10.57 24.36 10.53 25.17"/><polygon class="cls-32" points="13.39 25.38 13.17 25.37 13.21 24.55 13.44 24.56 13.39 25.38"/></g></g></g></svg>