<svg xmlns="http://www.w3.org/2000/svg" viewBox="0 0 175.73 28.92"><defs><style>.cls-1{fill:#b2ddff;}</style></defs><title>资源 4</title><g id="图层_2" data-name="图层 2"><g id="Layer_8" data-name="Layer 8"><polygon class="cls-1" points="137.73 3.31 138.99 4.57 137.01 6.56 129.28 6.56 125.7 10.14 124.07 8.52 129.28 3.31 137.73 3.31"/><polygon class="cls-1" points="144.36 5.1 144.36 6.62 138.24 6.62 141.2 3.66 137.54 0 139.26 0 144.36 5.1"/><polygon class="cls-1" points="146.66 25.16 146.66 28.54 137.47 28.54 134.96 26.03 144.14 26.03 144.14 22.65 146.66 25.16"/><polygon class="cls-1" points="129.59 7.96 148.71 7.96 140.31 16.36 121.21 16.36 129.59 7.96"/><polygon class="cls-1" points="175.73 23.24 170.03 28.92 157.69 16.58 142.95 16.58 147.6 11.93 167.28 11.93 167.28 14.81 175.73 23.24"/><polygon class="cls-1" points="140.95 22.7 140.95 19.11 150.69 19.11 153.35 21.78 143.62 21.78 143.62 25.36 140.95 22.7"/><polygon class="cls-1" points="96.39 18.66 84.41 18.66 81.71 21.36 93.69 21.36 96.39 18.66"/><polygon class="cls-1" points="81.71 18.66 69.72 18.66 67.02 21.36 79.01 21.36 81.71 18.66"/><polygon class="cls-1" points="67.02 18.66 55.03 18.66 52.33 21.36 64.32 21.36 67.02 18.66"/><polygon class="cls-1" points="52.33 18.66 40.34 18.66 37.65 21.36 49.63 21.36 52.33 18.66"/><polygon class="cls-1" points="37.65 18.66 25.66 18.66 22.96 21.36 34.95 21.36 37.65 18.66"/><polygon class="cls-1" points="22.96 18.66 10.97 18.66 8.27 21.36 20.26 21.36 22.96 18.66"/><polygon class="cls-1" points="99.09 18.66 96.39 21.36 139.11 21.36 139.11 18.66 99.09 18.66"/><polygon class="cls-1" points="139.59 27.34 132.83 27.34 132.78 27.3 127.7 22.21 0 22.21 0 21.91 127.83 21.91 127.87 21.95 132.95 27.04 139.59 27.04 139.59 27.34"/><polygon class="cls-1" points="171.65 24.87 160.94 14.15 148.76 14.15 142.56 20.36 0 20.36 0 19.67 142.27 19.67 148.47 13.47 161.22 13.47 172.14 24.38 171.65 24.87"/></g></g></svg>