<svg xmlns="http://www.w3.org/2000/svg" viewBox="0 0 38.04 38.04"><defs><style>.cls-1{fill:#065977;}.cls-2{fill:#08ade5;}.cls-3{fill:#feb113;}</style></defs><title>资源 1</title><g id="图层_2" data-name="图层 2"><g id="Layer_1" data-name="Layer 1"><path class="cls-1" d="M4.67,26.77a.28.28,0,0,0,0,.06l.11.18c0,.08.1.17.16.29l.11.18.13.21c.09.14.19.31.31.48l.41.57.49.64.61.69c.22.23.45.48.71.72l.4.37.43.38a18.37,18.37,0,0,0,2,1.46,16.28,16.28,0,0,0,9.07,2.31l.44,0,.46,0c.3,0,.6-.07.91-.11s.6-.1.91-.17l.46-.1.23,0,.23-.07a15.86,15.86,0,0,0,3.6-1.47,16.35,16.35,0,0,0,7.71-9.56l.15-.53c.05-.17.09-.35.13-.53.09-.35.14-.71.21-1.07A16.91,16.91,0,0,0,34.84,15l-.15-.53c0-.18-.1-.36-.16-.53l-.18-.53-.2-.51-.1-.26-.12-.25c-.07-.17-.15-.34-.23-.5-.17-.33-.32-.66-.51-1a17,17,0,0,0-2.66-3.47,16.33,16.33,0,0,0-15.2-4.33,15.52,15.52,0,0,0-3.47,1.24A16.29,16.29,0,0,0,5,10.72,16.1,16.1,0,0,0,3.87,13a18.23,18.23,0,0,0-.66,2c0,.16-.07.31-.1.46s-.07.29-.1.44,0,.28-.07.41,0,.26-.06.38-.06.48-.09.69,0,.41,0,.58,0,.17,0,.24v.22c0,.13,0,.24,0,.33s0,.27,0,.27H1.46v-.29c0-.1,0-.22,0-.36v-.23a2.46,2.46,0,0,1,0-.26l.05-.62c0-.23.05-.48.09-.74s0-.28.06-.42.05-.29.08-.44.06-.31.1-.47L2,14.7a15.37,15.37,0,0,1,.71-2.19A17.53,17.53,0,0,1,15.05,1.91a17.55,17.55,0,0,1,19.23,8.4c.2.34.37.7.55,1,.09.18.17.36.25.54l.12.27.11.28.22.55.19.57c.07.18.12.38.18.57s.11.38.15.57a17.91,17.91,0,0,1,.53,4.72,18.48,18.48,0,0,1-.21,2.35c-.07.39-.13.78-.23,1.16,0,.19-.08.38-.13.57l-.16.57a17.69,17.69,0,0,1-4.78,7.72A17.56,17.56,0,0,1,23.66,36l-.25.07-.25.06-.49.11-1,.18c-.33,0-.65.09-1,.12l-.48,0-.48,0A17.58,17.58,0,0,1,10,34.08a18.09,18.09,0,0,1-2.2-1.58l-.47-.4-.43-.4c-.28-.26-.53-.53-.77-.78l-.65-.75-.53-.68-.44-.61-.33-.52L4,28.13l-.11-.19-.18-.31a2,2,0,0,0-.11-.19l0-.07Z"/><path class="cls-2" d="M.62,19v.3c0,.1,0,.23,0,.38v.24a2.28,2.28,0,0,1,0,.27c0,.2,0,.41,0,.65s.06.5.1.78,0,.29.07.44.05.3.08.46.07.32.1.49l.12.52a19.57,19.57,0,0,0,.75,2.29,17.66,17.66,0,0,0,1.26,2.55,18.47,18.47,0,0,0,7.75,7.16,17.49,17.49,0,0,0,3.92,1.39A18.4,18.4,0,0,0,32,32.06a18.83,18.83,0,0,0,3-3.92c.22-.35.4-.73.59-1.1.09-.18.17-.38.26-.56l.12-.29.12-.29.23-.58.2-.59c.07-.2.12-.4.18-.6s.12-.4.16-.6a18.32,18.32,0,0,0,.55-4.94,20.07,20.07,0,0,0-.21-2.46c-.08-.41-.14-.82-.24-1.22-.05-.2-.09-.4-.15-.6l-.16-.59a18.46,18.46,0,0,0-5-8.09A18.66,18.66,0,0,0,28,2.93a18,18,0,0,0-4.07-1.66l-.26-.07-.26-.06L22.84,1c-.34-.08-.69-.13-1-.19s-.69-.1-1-.13l-.51,0-.5,0A18.37,18.37,0,0,0,9.54,3.25,19.9,19.9,0,0,0,7.23,4.89l-.49.43c-.16.13-.3.28-.45.42s-.55.55-.8.82-.47.53-.68.77-.39.49-.56.72l-.46.64c-.13.2-.25.38-.35.55l-.15.23-.12.21C3.1,9.81,3,9.91,3,10s-.08.16-.11.2a.28.28,0,0,0,0,.07L2.29,10l0-.07.12-.2.19-.34.13-.21.15-.24.37-.57.47-.66.58-.74L5,6.13c.26-.27.53-.56.83-.84s.3-.3.47-.44l.5-.43A20.45,20.45,0,0,1,9.22,2.71,18.84,18.84,0,0,1,15.79.28a19.4,19.4,0,0,1,4-.27l.53,0,.52,0L21.9.21c.36.07.71.12,1.07.2l.54.12.26.06L24,.67a18.71,18.71,0,0,1,4.21,1.71,19.31,19.31,0,0,1,3.82,2.8,19.07,19.07,0,0,1,5.17,8.36l.18.61c0,.21.09.42.14.62.11.42.17.84.25,1.26a19.15,19.15,0,0,1-.34,7.65c0,.21-.12.42-.17.63s-.12.41-.19.61l-.21.61-.24.6-.11.3-.14.3c-.09.19-.17.39-.27.58-.19.39-.38.77-.6,1.14a19,19,0,0,1-11.62,9,19.05,19.05,0,0,1-13.26-1.29A20.24,20.24,0,0,1,7.26,34,19.24,19.24,0,0,1,2.65,28.7a17.19,17.19,0,0,1-1.29-2.63A19.18,19.18,0,0,1,.58,23.7l-.12-.54c0-.17-.08-.34-.11-.5s-.06-.33-.08-.48-.06-.31-.08-.45-.07-.56-.1-.81,0-.47,0-.67A2.46,2.46,0,0,0,0,20V19Z"/><path class="cls-3" d="M17.94,4.4h-.16c-.1,0-.26,0-.45,0a13.53,13.53,0,0,0-1.59.28,14.36,14.36,0,0,0-4.49,1.85A15.16,15.16,0,0,0,9.17,8.16,14.59,14.59,0,0,0,7.61,9.82l-.3.37-.25.35-.22.31-.17.27c-.11.17-.19.29-.24.39l-.08.13-1-.57.09-.15.25-.41.19-.29.24-.33c.08-.12.17-.25.27-.38l.32-.41A15.86,15.86,0,0,1,8.41,7.32a16.26,16.26,0,0,1,2.24-1.7,15.76,15.76,0,0,1,4.84-2,16.44,16.44,0,0,1,1.71-.29l.49-.05h.17Z"/><path class="cls-3" d="M31,10.57l-.09-.13-.27-.36-.2-.25-.12-.15-.13-.15-.28-.32c-.1-.12-.21-.23-.33-.35a13.84,13.84,0,0,0-1.7-1.52A14.64,14.64,0,0,0,25.69,6a14.45,14.45,0,0,0-2.42-1,13.54,13.54,0,0,0-2.22-.48l-.48-.07-.43,0-.38,0h-.93l0-1.13h1l.41,0,.46,0,.51.06a16.23,16.23,0,0,1,2.4.53A15.39,15.39,0,0,1,26.2,5a15.64,15.64,0,0,1,4.21,3.12l.35.38.31.35a1.07,1.07,0,0,0,.14.16l.12.16.21.27c.13.16.23.3.29.39l.1.14Z"/><path class="cls-3" d="M32.44,25s.09-.2.23-.56q.06-.13.12-.3t.12-.36c0-.13.09-.26.14-.41s.08-.3.13-.46a13.79,13.79,0,0,0,.42-2.24,15,15,0,0,0,0-2.61,13.94,13.94,0,0,0-.4-2.57,16,16,0,0,0-.73-2.16c-.27-.61-.52-1.1-.71-1.44l-.22-.39-.09-.14,1-.59a1.1,1.1,0,0,1,.09.14l.25.42c.21.37.48.9.77,1.56a17.5,17.5,0,0,1,.77,2.32,15.37,15.37,0,0,1,.44,2.78,16.14,16.14,0,0,1-.51,5.22c-.05.17-.1.33-.14.49s-.1.3-.15.44-.09.27-.13.39-.09.22-.13.32-.13.35-.18.45l-.07.16Z"/><path class="cls-3" d="M20.84,33.57l.16,0,.44-.07A12.07,12.07,0,0,0,23,33.13a14.6,14.6,0,0,0,4.4-2.08,15.05,15.05,0,0,0,2-1.68,14.29,14.29,0,0,0,1.47-1.73l.28-.39.24-.36.2-.32.16-.28c.1-.17.17-.3.22-.4l.07-.14,1,.52-.08.15a4.34,4.34,0,0,1-.24.43l-.17.3c-.06.11-.14.22-.22.35l-.25.39q-.15.2-.3.42a17.63,17.63,0,0,1-1.59,1.86A16.58,16.58,0,0,1,28.06,32a15.75,15.75,0,0,1-4.74,2.24,15,15,0,0,1-1.69.38l-.48.07-.17,0Z"/><path class="cls-3" d="M7.48,28.06l.09.12a1,1,0,0,1,.12.15l.17.2c.13.14.28.33.47.52l.3.31L9,29.7a15,15,0,0,0,1.78,1.43A14.61,14.61,0,0,0,13,32.4a15.28,15.28,0,0,0,2.46.85,13.82,13.82,0,0,0,2.25.37l.47,0h1.14l.45,0H20L20,34.78l-.17,0H18.61l-.47,0-.51,0a15,15,0,0,1-2.42-.4,15.45,15.45,0,0,1-2.65-.92,15.2,15.2,0,0,1-2.45-1.37A14.67,14.67,0,0,1,8.2,30.52c-.13-.12-.26-.24-.37-.36l-.32-.33c-.21-.21-.37-.41-.51-.57l-.18-.21-.13-.16-.1-.14Z"/></g></g></svg>