<svg xmlns="http://www.w3.org/2000/svg" viewBox="0 0 427.26 427.26"><defs><style>.cls-1,.cls-10,.cls-11,.cls-12,.cls-13,.cls-14,.cls-15,.cls-16,.cls-17,.cls-18,.cls-19,.cls-2,.cls-20,.cls-22,.cls-23,.cls-26,.cls-3,.cls-4,.cls-5,.cls-6,.cls-7,.cls-8,.cls-9{fill:none;stroke-miterlimit:10;}.cls-1,.cls-10,.cls-11,.cls-12,.cls-13,.cls-14,.cls-15,.cls-16,.cls-17,.cls-2,.cls-22,.cls-3,.cls-4,.cls-5,.cls-6,.cls-7,.cls-8,.cls-9{stroke:#00b4eb;}.cls-1{opacity:0.3;}.cls-2{stroke-width:0.95px;opacity:0.29;}.cls-3{stroke-width:0.91px;opacity:0.28;}.cls-4{stroke-width:0.86px;opacity:0.26;}.cls-5{stroke-width:0.81px;opacity:0.25;}.cls-6{stroke-width:0.77px;opacity:0.24;}.cls-7{stroke-width:0.72px;opacity:0.23;}.cls-8{stroke-width:0.67px;opacity:0.21;}.cls-9{stroke-width:0.63px;}.cls-24,.cls-9{opacity:0.2;}.cls-10{stroke-width:0.58px;opacity:0.19;}.cls-11{stroke-width:0.53px;opacity:0.18;}.cls-12{stroke-width:0.48px;opacity:0.16;}.cls-13{stroke-width:0.44px;opacity:0.15;}.cls-14{stroke-width:0.39px;opacity:0.14;}.cls-15{stroke-width:0.34px;opacity:0.13;}.cls-16{stroke-width:0.3px;opacity:0.11;}.cls-17{stroke-width:0.25px;opacity:0.1;}.cls-18,.cls-26{stroke:#fff;}.cls-18{stroke-width:4.89px;stroke-dasharray:0.98;}.cls-19,.cls-20{stroke:#fa0;}.cls-19{stroke-width:8px;stroke-dasharray:1 10;}.cls-20{stroke-width:4px;stroke-dasharray:0.5 4.99 0.01 0;}.cls-21,.cls-27{fill:#00b4eb;}.cls-23{stroke:#000;stroke-width:2px;stroke-dasharray:1 5 0 0;}.cls-25{fill:#fa0;}.cls-27{opacity:0.5;}</style></defs><title>资源 3</title><g id="图层_2" data-name="图层 2"><g id="Layer_2" data-name="Layer 2"><circle class="cls-1" cx="213.63" cy="213.63" r="151.68" transform="translate(-88.49 213.63) rotate(-45)"/><circle class="cls-2" cx="213.63" cy="213.63" r="155.54" transform="translate(-88.49 213.63) rotate(-45)"/><circle class="cls-3" cx="213.63" cy="213.63" r="159.4"/><circle class="cls-4" cx="213.63" cy="213.63" r="163.27" transform="translate(-88.49 213.63) rotate(-45)"/><circle class="cls-5" cx="213.63" cy="213.63" r="167.13" transform="translate(-88.49 213.63) rotate(-45)"/><circle class="cls-6" cx="213.63" cy="213.63" r="171" transform="translate(-88.49 213.63) rotate(-45)"/><circle class="cls-7" cx="213.63" cy="213.63" r="174.86" transform="translate(-88.49 213.63) rotate(-45)"/><circle class="cls-8" cx="213.63" cy="213.63" r="178.73" transform="translate(-88.49 213.63) rotate(-45)"/><circle class="cls-9" cx="213.63" cy="213.63" r="182.59" transform="translate(-88.49 213.63) rotate(-45)"/><circle class="cls-10" cx="213.63" cy="213.63" r="186.45"/><circle class="cls-11" cx="213.63" cy="213.63" r="190.32" transform="translate(-88.49 213.63) rotate(-45)"/><circle class="cls-12" cx="213.63" cy="213.63" r="194.18" transform="translate(-88.49 213.63) rotate(-45)"/><circle class="cls-13" cx="213.63" cy="213.63" r="198.05"/><circle class="cls-14" cx="213.63" cy="213.63" r="201.91"/><circle class="cls-15" cx="213.63" cy="213.63" r="205.78" transform="translate(-88.49 213.63) rotate(-45)"/><circle class="cls-16" cx="213.63" cy="213.63" r="209.64"/><circle class="cls-17" cx="213.63" cy="213.63" r="213.5"/><path class="cls-18" d="M159.8,219.94a54.83,54.83,0,0,1-.36-6.31,54.19,54.19,0,0,1,108.38,0c0,1.65-.07,3.29-.22,4.91"/><circle class="cls-19" cx="213.63" cy="213.63" r="73.55"/><circle class="cls-20" cx="213.63" cy="213.63" r="73.55"/><path class="cls-21" d="M278.42,148.84a91.63,91.63,0,1,0,0,129.58A91.61,91.61,0,0,0,278.42,148.84Zm-66.16-24.11A.69.69,0,0,1,213,124h1.36a.69.69,0,0,1,.69.69v1.37a.68.68,0,0,1-.69.68H213a.68.68,0,0,1-.69-.68Zm-11.21,1a.68.68,0,0,1,.6-.76l1.35-.17a.69.69,0,0,1,.77.6l.17,1.35a.72.72,0,0,1-.14.51.7.7,0,0,1-.46.26l-1.35.17a.68.68,0,0,1-.77-.6ZM190,128.07a.69.69,0,0,1,.49-.84l1.33-.34a.7.7,0,0,1,.84.5l.33,1.32a.67.67,0,0,1-.07.52.7.7,0,0,1-.42.32l-1.33.34a.7.7,0,0,1-.84-.5Zm-10.4,2.8,1.27-.51a.68.68,0,0,1,.89.39l.51,1.26a.69.69,0,0,1-.38.9l-1.27.51a.7.7,0,0,1-.9-.38l-.5-1.27A.68.68,0,0,1,179.59,130.87Zm-10.49,5,1.2-.66a.69.69,0,0,1,.93.27l.66,1.2a.68.68,0,0,1-.27.94l-1.19.66a.7.7,0,0,1-.94-.27l-.66-1.2A.7.7,0,0,1,169.1,135.87Zm-44,75.49h0a1,1,0,0,1-1-1A89.06,89.06,0,0,1,152,148.62a1,1,0,0,1,1.38,1.45,87.05,87.05,0,0,0-27.25,60.33A1,1,0,0,1,125.08,211.36Zm164.63,39.08A84.55,84.55,0,0,1,247.57,291l1.57,3.57a87.87,87.87,0,0,1-9.32,3.48l-1.16-3.73a84.61,84.61,0,0,1-97.76-37.64l-3.35,2a88,88,0,0,1-11.47-32.83l3.85-.54a84.49,84.49,0,0,1,89-96l.25-3.89a88.28,88.28,0,0,1,39.11,11.94l-2,3.35A84.68,84.68,0,0,1,281.3,163l3.12-2.33a88.48,88.48,0,0,1,8.8,91.46Z"/><path class="cls-22" d="M271.22,137.51a95.29,95.29,0,0,1,37.85,76.12h-5.26A90.06,90.06,0,0,0,268,141.7Z"/><path class="cls-21" d="M274.59,286.78A94.76,94.76,0,0,1,223,308.39l-.49-5a89.79,89.79,0,0,0,48.85-20.47Z"/><path class="cls-23" d="M270.05,285.83a91.15,91.15,0,0,1-45.3,18.76"/><path class="cls-22" d="M152.13,284.57a93.74,93.74,0,0,1-31.76-60l3.68-.43a90,90,0,0,0,30.51,57.65Z"/><g class="cls-24"><path class="cls-21" d="M213.63,324.82a111.32,111.32,0,0,1-11.27-.57h-.05l.6-6H203a108.25,108.25,0,0,0,11.65.53h0v.05l.06,5.95h-1.09Zm2,0-.1-6h.05a107.17,107.17,0,0,0,11.62-.85h0V318l.76,5.9H228a113.54,113.54,0,0,1-12.29.9Zm-14.25-.65h0a110.76,110.76,0,0,1-12.15-2h-.05l1.31-5.85h.05a103.29,103.29,0,0,0,11.5,1.91h.05Zm27.56-.38-.82-5.94h.05a104.34,104.34,0,0,0,11.4-2.23h.08l0,0,1.46,5.77h0A112.26,112.26,0,0,1,229,323.77Zm-40.71-1.88h-.12a111.82,111.82,0,0,1-11.77-3.47h0l2-5.66,0,0a104.57,104.57,0,0,0,11.19,3.29h0Zm53.8-.73-1.53-5.8,0,0a104.69,104.69,0,0,0,11.09-3.6h.05l0,0,2.16,5.57h-.07a110.24,110.24,0,0,1-11.71,3.8Zm-66.61-3.08h-.05a114.22,114.22,0,0,1-11.32-4.88l0,0,2.68-5.37,0,0a104.35,104.35,0,0,0,10.71,4.61l0,0Zm79.29-1.1-2.22-5.57,0,0a104.55,104.55,0,0,0,10.58-4.92l0,0,2.81,5.3,0,0A111,111,0,0,1,254.76,317Zm-91.54-4.24,0,0a110.23,110.23,0,0,1-10.65-6.21l0,0,3.3-5,0,0a105,105,0,0,0,10.08,5.88l0,0,0,0ZM266.8,311.3l0,0L263.93,306l0,0a105.48,105.48,0,0,0,9.9-6.14l0,0,3.44,4.92,0,0a109.77,109.77,0,0,1-10.47,6.49ZM151.68,306l-.05,0a112.07,112.07,0,0,1-9.83-7.43l0,0,3.87-4.58,0,0a107.55,107.55,0,0,0,9.3,7l0,0Zm126.43-1.75,0,0-3.45-4.84,0,0a106.76,106.76,0,0,0,9.1-7.29l0,0,4,4.47v.12l-.06-.05a112.36,112.36,0,0,1-9.58,7.66Zm-137-6.37H141a111.84,111.84,0,0,1-8.87-8.55l0,0,0,0,4.35-4.05,0,0a106.89,106.89,0,0,0,8.39,8.09l0,0Zm147.42-2-4.05-4.43,0,0a108.31,108.31,0,0,0,8.16-8.3V283l0,0,.06-.06v.11L297.2,287l0,0a112.08,112.08,0,0,1-8.64,8.8Zm-157.06-7.22v-.1a113.77,113.77,0,0,1-7.77-9.53l0,0,4.85-3.53,0,0a104.06,104.06,0,0,0,7.37,9v.06h0Zm166.37-2.34-4.54-3.92,0,0a105.44,105.44,0,0,0,7.12-9.24l0,0,5,3.46h-.14a112.6,112.6,0,0,1-7.51,9.74ZM123.1,278.2l0,0a110.38,110.38,0,0,1-6.59-10.41l0-.05,5.24-2.92,0,0a105.4,105.4,0,0,0,6.24,9.85l0,0Zm182.82-2.53-5-3.35,0,0a104.1,104.1,0,0,0,6-10l.06,0h0l5.27,2.75,0,.05a112,112,0,0,1-6.31,10.59ZM116,266.9l0,0a109.76,109.76,0,0,1-5.29-11.12l0,0,5.55-2.27,0,.05a104.25,104.25,0,0,0,5,10.51l0,0Zm196.7-2.73-5.35-2.73,0-.05a104.26,104.26,0,0,0,4.71-10.66l0,0,5.64,2.13-.05.05a109.45,109.45,0,0,1-5,11.26Zm-202.38-9.35,0,0a111.38,111.38,0,0,1-3.92-11.69V243h0l5.74-1.58v.05a103.8,103.8,0,0,0,3.7,11.05v.06h0Zm207.73-2.89-5.64-2.07,0-.05a103.1,103.1,0,0,0,3.4-11.15v0l6.18,1.51h-.38a110.52,110.52,0,0,1-3.57,11.76Zm-211.92-9.78v-.05A109,109,0,0,1,103.64,230V230h.05l5.89-.87v.05a105.82,105.82,0,0,0,2.34,11.38l0,.08Zm215.75-3L316,237.76v0a105.13,105.13,0,0,0,2-11.43l-.25-.09h.3l5.92.7v.05a107.77,107.77,0,0,1-2.14,12.14ZM103.5,229.06V229a111.5,111.5,0,0,1-1-12.28v0l6-.16v0a107.27,107.27,0,0,0,1,11.62h0v.05ZM324.14,226h-.05l-5.91-.65v0a105.59,105.59,0,0,0,.64-11.64c0-1.31,0-2.64-.07-3.95v-.05h.05l5.94-.22v.05c.05,1.37.07,2.77.07,4.17a112.11,112.11,0,0,1-.67,12.3ZM102.51,215.76l-.05,0c0-.68,0-1.38,0-2.08,0-3.42.15-6.86.46-10.23v-.05l6,.54v.05c-.29,3.19-.44,6.45-.44,9.69,0,.76,0,1.38,0,2h0v.05Zm216.2-7v0a104.53,104.53,0,0,0-1.18-11.6v-.05l5.93-.94v0a113.62,113.62,0,0,1,1.24,12.26v0ZM109,203l-6-.6v-.05a110.22,110.22,0,0,1,1.91-12.18v0l5.87,1.26v.05A105.39,105.39,0,0,0,109,203Zm208.43-6.83v0a105.73,105.73,0,0,0-2.56-11.37l0-.05,5.77-1.64,0,0a110.53,110.53,0,0,1,2.7,12v.05ZM111,190.56l-5.85-1.31v-.05a112.85,112.85,0,0,1,3.36-11.86l0-.05,5.67,2v0A104.91,104.91,0,0,0,111,190.51Zm203.59-6.67v0a107.09,107.09,0,0,0-3.91-11l0,0,5.53-2.33,0,0a110.42,110.42,0,0,1,4.13,11.61l0,0Zm-200.09-5.47-5.88-2.09h.26A111.37,111.37,0,0,1,113.61,165l0,0,5.39,2.63,0,0a104,104,0,0,0-4.51,10.75ZM310.28,172l0-.05a108.85,108.85,0,0,0-5.21-10.42l0,0,5.2-3,0,.05a109.7,109.7,0,0,1,5.5,11l0,0Zm-190.86-5.25h-.06L113.89,164h.19a109.28,109.28,0,0,1,6.09-10.68l0,0,5,3.26,0,0a105.73,105.73,0,0,0-5.78,10.13Zm185.17-6,0,0a108.34,108.34,0,0,0-6.43-9.73l0,0,4.81-3.56H303l-.05.06a114,114,0,0,1,6.76,10.25l0,0Zm-178.84-4.88-.08-.05-5-3.28,0,0a113.57,113.57,0,0,1,7.34-9.9l0,0,4.61,3.84,0,0a106.34,106.34,0,0,0-6.94,9.36Zm171.84-5.63,0,0a106.62,106.62,0,0,0-7.54-8.89l0,0,4.36-4.12,0,0a114.14,114.14,0,0,1,8,9.4l0,0Zm-164.31-4.51-4.58-3.88,0,0a115.27,115.27,0,0,1,8.47-8.95l0,0,4.12,4.35,0,0a106.82,106.82,0,0,0-8,8.47Zm156.11-5.09,0,0a104.91,104.91,0,0,0-8.53-7.93h-.09l.07-.08,3.8-4.58,0,0a111.69,111.69,0,0,1,9,8.38l0,0,0,0Zm-147.39-4-4.07-4.39V132l.06.09a113.56,113.56,0,0,1,9.43-7.84l0,0,3.58,4.82,0,0a105.91,105.91,0,0,0-9,7.45Zm138.09-4.51,0,0a105.51,105.51,0,0,0-9.44-6.85l0,0,3.26-5,0,0a116.27,116.27,0,0,1,10,7.25l0,0,0,0Zm-128.35-3.53-3.53-4.85,0,0A111.89,111.89,0,0,1,158.6,117l0,0,3,5.21,0,0a104.09,104.09,0,0,0-9.79,6.33Zm118.11-3.85,0,0A108,108,0,0,0,259.62,119l0,0,2.69-5.38v0a111.29,111.29,0,0,1,10.73,6l.05,0Zm-107.48-3-2.93-5.23.05,0a112.07,112.07,0,0,1,11.07-5.4l.05,0,2.32,5.53,0,0a103.49,103.49,0,0,0-10.48,5.11Zm96.42-3.15-.05,0A103,103,0,0,0,248,114.16l0,0,2-5.67h0a111.91,111.91,0,0,1,11.41,4.67l0,0Zm-85.05-2.33-2.28-5.55,0,0a111.14,111.14,0,0,1,11.64-4h0l0,0,1.63,5.73h0a104.69,104.69,0,0,0-11,3.81Zm73.33-2.4,0,0a105.77,105.77,0,0,0-11.25-3.07h-.05l1.34-6.28v.43a113,113,0,0,1,11.86,3.24l0,0Zm-61.39-1.68-1.58-5.78,0,0a113.37,113.37,0,0,1,12.05-2.59h.05l.94,5.93h-.05a104.57,104.57,0,0,0-11.4,2.45Zm49.2-1.6h0a104.55,104.55,0,0,0-11.54-1.7h0l.59-6a113.5,113.5,0,0,1,12.2,1.8h.05Zm-36.84-1-.88-5.94h.05a111.66,111.66,0,0,1,12.27-1.13h.05l.22,6h-.05a110.07,110.07,0,0,0-11.61,1.07Zm24.33-.79h-.05c-2.86-.24-5.78-.36-8.69-.36-1,0-2,0-3,0h0l-.17-6h.05a112,112,0,0,1,12.31.34h.05Z"/></g><path class="cls-25" d="M266.8,311.3l0,0L263.93,306l0,0a105.48,105.48,0,0,0,9.9-6.14l0,0,3.44,4.92,0,0a109.77,109.77,0,0,1-10.47,6.49Z"/><path class="cls-25" d="M278.11,304.22l0,0-3.45-4.84,0,0a106.76,106.76,0,0,0,9.1-7.29l0,0,4,4.47v.12l-.06-.05a112.36,112.36,0,0,1-9.58,7.66Z"/><path class="cls-25" d="M288.5,295.84l-4.05-4.43,0,0a108.31,108.31,0,0,0,8.16-8.3V283l0,0,.06-.06v.11L297.2,287l0,0a112.08,112.08,0,0,1-8.64,8.8Z"/><path class="cls-25" d="M297.81,286.28l-4.54-3.92,0,0a105.44,105.44,0,0,0,7.12-9.24l0,0,5,3.46h-.14a112.6,112.6,0,0,1-7.51,9.74Z"/><path class="cls-25" d="M305.92,275.67l-5-3.35,0,0a104.1,104.1,0,0,0,6-10l.06,0h0l5.27,2.75,0,.05a112,112,0,0,1-6.31,10.59Z"/><path class="cls-25" d="M312.7,264.17l-5.35-2.73,0-.05a104.26,104.26,0,0,0,4.71-10.66l0,0,5.64,2.13-.05.05a109.45,109.45,0,0,1-5,11.26Z"/><path class="cls-25" d="M318.05,251.93l-5.64-2.07,0-.05a103.1,103.1,0,0,0,3.4-11.15v0l6.18,1.51h-.38a110.52,110.52,0,0,1-3.57,11.76Z"/><path class="cls-25" d="M321.88,239.13,316,237.76v0a105.13,105.13,0,0,0,2-11.43l-.25-.09h.3l5.92.7v.05a107.77,107.77,0,0,1-2.14,12.14Z"/><path class="cls-25" d="M324.14,226h-.05l-5.91-.65v0a105.59,105.59,0,0,0,.64-11.64c0-1.31,0-2.64-.07-3.95v-.05h.05l5.94-.22v.05c.05,1.37.07,2.77.07,4.17a112.11,112.11,0,0,1-.67,12.3Z"/><path class="cls-25" d="M318.71,208.76v0a104.53,104.53,0,0,0-1.18-11.6v-.05l5.93-.94v0a113.62,113.62,0,0,1,1.24,12.26v0Z"/><path class="cls-25" d="M317.39,196.2v0a105.73,105.73,0,0,0-2.56-11.37l0-.05,5.77-1.64,0,0a110.53,110.53,0,0,1,2.7,12v.05Z"/><path class="cls-25" d="M314.56,183.89v0a107.09,107.09,0,0,0-3.91-11l0,0,5.53-2.33,0,0a110.42,110.42,0,0,1,4.13,11.61l0,0Z"/><path class="cls-25" d="M310.28,172l0-.05a108.85,108.85,0,0,0-5.21-10.42l0,0,5.2-3,0,.05a109.7,109.7,0,0,1,5.5,11l0,0Z"/><path class="cls-25" d="M304.59,160.75l0,0a108.34,108.34,0,0,0-6.43-9.73l0,0,4.81-3.56H303l-.05.06a114,114,0,0,1,6.76,10.25l0,0Z"/><path class="cls-25" d="M297.59,150.24l0,0a106.62,106.62,0,0,0-7.54-8.89l0,0,4.36-4.12,0,0a114.14,114.14,0,0,1,8,9.4l0,0Z"/><path class="cls-25" d="M289.39,140.64l0,0a104.91,104.91,0,0,0-8.53-7.93h-.09l.07-.08,3.8-4.58,0,0a111.69,111.69,0,0,1,9,8.38l0,0,0,0Z"/><path class="cls-25" d="M142,136.59l-4.07-4.39V132l.06.09a113.56,113.56,0,0,1,9.43-7.84l0,0,3.58,4.82,0,0a105.91,105.91,0,0,0-9,7.45Z"/><path class="cls-25" d="M280.09,132.08l0,0a105.51,105.51,0,0,0-9.44-6.85l0,0,3.26-5,0,0a116.27,116.27,0,0,1,10,7.25l0,0,0,0Z"/><path class="cls-25" d="M151.74,128.55l-3.53-4.85,0,0A111.89,111.89,0,0,1,158.6,117l0,0,3,5.21,0,0a104.09,104.09,0,0,0-9.79,6.33Z"/><path class="cls-25" d="M269.85,124.7l0,0A108,108,0,0,0,259.62,119l0,0,2.69-5.38v0a111.29,111.29,0,0,1,10.73,6l.05,0Z"/><path class="cls-25" d="M162.37,121.74l-2.93-5.23.05,0a112.07,112.07,0,0,1,11.07-5.4l.05,0,2.32,5.53,0,0a103.49,103.49,0,0,0-10.48,5.11Z"/><path class="cls-25" d="M258.79,118.59l-.05,0A103,103,0,0,0,248,114.16l0,0,2-5.67h0a111.91,111.91,0,0,1,11.41,4.67l0,0Z"/><path class="cls-25" d="M173.74,116.26l-2.28-5.55,0,0a111.14,111.14,0,0,1,11.64-4h0l0,0,1.63,5.73h0a104.69,104.69,0,0,0-11,3.81Z"/><path class="cls-25" d="M247.07,113.86l0,0a105.77,105.77,0,0,0-11.25-3.07h-.05l1.34-6.28v.43a113,113,0,0,1,11.86,3.24l0,0Z"/><path class="cls-25" d="M185.68,112.18l-1.58-5.78,0,0a113.37,113.37,0,0,1,12.05-2.59h.05l.94,5.93h-.05a104.57,104.57,0,0,0-11.4,2.45Z"/><path class="cls-25" d="M234.88,110.58h0a104.55,104.55,0,0,0-11.54-1.7h0l.59-6a113.5,113.5,0,0,1,12.2,1.8h.05Z"/><path class="cls-25" d="M198,109.58l-.88-5.94h.05a111.66,111.66,0,0,1,12.27-1.13h.05l.22,6h-.05a110.07,110.07,0,0,0-11.61,1.07Z"/><path class="cls-25" d="M222.37,108.79h-.05c-2.86-.24-5.78-.36-8.69-.36-1,0-2,0-3,0h0l-.17-6h.05a112,112,0,0,1,12.31.34h.05Z"/><path class="cls-26" d="M118.42,274.22A112.88,112.88,0,0,1,131.83,135.9"/><path class="cls-26" d="M113.46,275A116.42,116.42,0,0,1,97.25,229.4,2,2,0,0,1,99,227.18l2.6-.3a112.08,112.08,0,0,0,16.83,47.34l-2.21,1.41A2,2,0,0,1,113.46,275Z"/><path class="cls-27" d="M359.19,205.72l-5.12.28a140,140,0,0,0-35.52-86l2.14-1.91A143.16,143.16,0,0,0,213.1,70.12c-2.23,0-4.44.07-6.65.18l.15,2.85A140.66,140.66,0,0,0,73,213.63H96.41a117.22,117.22,0,1,1,197.68,85.23L297,302l5.83,6.17,7.33,7.77,3.52,3.72a145.36,145.36,0,0,0,45.7-106Q359.4,209.65,359.19,205.72ZM89.57,197.58c0,.2,0,.4-.07.6l-.06.41-8.93-1.07v-.05c0-.33.07-.64.12-1v-.11l8.93,1.14Zm2.9-15.15-.24.93v0l-8.73-2.17v-.05c.08-.33.17-.66.25-1l0-.05,8.71,2.24Zm4.76-14.69-.35.9,0,.05,0,0-8.35-3.22v0c.13-.33.25-.65.38-1l0-.05,8.37,3.31Zm6.55-14-.46.84v.07l-.07,0-7.9-4.23.12-.2.41-.75,0,0,7.9,4.32ZM112,140.7l-.56.78,0,.05L104,136.27h.14l.54-.76.07-.11,7.31,5.26Zm9.76-12-.65.71,0,0-6.66-6.06,0,0,.71-.76,0,0,6.61,6.1Zm11.15-10.67-.64.55-.13.11,0,0-5.83-6.79,0,0,.78-.67,0,0L133,118Zm12.38-9.22-.59.39-.26.17-5-7.5.16-.11.74-.48,0,0,4.93,7.53Zm13.4-7.62-.86.42h0l-.06,0-4-8h.07l.91-.46.05,0,3.95,8.08Zm14.24-5.91-.91.31-.05,0-3-8.49h0l.91-.32.12,0v0L173,95.3Zm14.87-4.11-.94.21h0l0,0-1.91-8.75H185l1-.21H186l1.85,8.8ZM203.07,89l-.92.08h-.1l-.81-9h.13l.95-.08h.05l.75,9Zm15.48-.35h-.05l-1,0h0v0l.27-9h.05l1,0h.05Zm15.36,1.54h0l-1-.15h-.05v0l1.37-8.85h.05l1,.16h0ZM251.47,85,249,93.6h0l-.87-.25-.1,0,2.46-8.66h.05l1,.29h0ZM267,90.66l-3.56,8.21,0,0-.88-.38h-.06l0-.07L266,90.18l.19.08.78.33,0,0Zm10.19,15.22-.25-.14-.63-.37,0,0,0,0,4.49-7.74.37.22.57.33.05,0Zm18.24,1.58L290,114.55l0,0-.76-.59,0-.06h0l5.41-7.13,0,0,.82.63,0,0Zm50.09,82,.17,1L336.84,192v-.05c-.06-.31-.12-.63-.17-.95v-.05h0l8.79-1.59Zm-4-16.13c.11.33.21.66.31,1v0l-8.6,2.64,0-.05-.27-.88V176h0l8.54-2.69Zm-33.65-55-6.29,6.36,0,0-.69-.68,0,0,0,0,6.24-6.41,0,0,.56.55.21.21Zm4,17.87,0,0-.6-.76,0,0,7-5.62,0,.05.39.48.28.35Zm8.77,12.63c-.12-.21-.25-.41-.38-.62l-.11-.18H320l7.77-4.77,0,0,.52.86,0,0-7.69,4.67Zm7.19,13.7,0-.05-.4-.87,0,0,8.18-3.75,0,0,.42.94,0,0,0,0Zm-10.3,135.82L317,299l0,0-6.94-5.74,0,0,.35-.42.24-.29-.06-.05h.16l6.94,5.65Zm9.77-13.62-.55.87,0,.05-7.59-4.84.53-.83-.11-.17,7.78,4.87Zm7.91-14.54c-.15.31-.3.63-.44.94l0,0-8.12-3.86,0-.05.41-.87,0-.05,8.16,3.8Zm6-15.37-.15.46c-.05.16-.1.32-.16.49v.05L332.38,253l0,0,.3-.92v0l.05,0,8.51,2.83ZM345.32,239c-.06.28-.11.55-.16.83v.05l-8.83-1.75,0-.18c.06-.26.11-.52.16-.78l-.16-.08h.21l8.8,1.67Zm2.11-16.61c0,.35-.05.69-.07,1v0h-.05l-8.92-.64,0-.37c0-.21,0-.43.05-.65v0l9,.58Zm.11-15.46-9,.45v-.05c0-.32,0-.64-.05-1v-.05l9-.51v.05l.06,1Z"/><path class="cls-21" d="M264,218.82a50.48,50.48,0,0,0-18.56-44.51l2-2.47a53.66,53.66,0,1,0,19.72,47.3Zm-18.59,29.86a47,47,0,0,1-13.67,8.59l1,2.36a49.74,49.74,0,0,1-67.6-35.6,50.94,50.94,0,0,1-1-7.22l2.55-.16a47.11,47.11,0,0,1,32.8-48l-.78-2.44a49.56,49.56,0,0,1,8.32-1.88l.35,2.52a47.76,47.76,0,0,1,8-.4l.08-2.56a50.11,50.11,0,0,1,13.62,2.39q1,.35,2.07.72l-.89,2.4a47.19,47.19,0,0,1,15.14,79.27Z"/><path class="cls-21" d="M367.46,213.63A153.36,153.36,0,0,0,323.53,106l3.07-3,8.23-8.06a3.53,3.53,0,0,0,.07-5,79,79,0,0,0-11.81-10.63,3.57,3.57,0,0,0-3.44-.44l-11.53,4.67A160.09,160.09,0,0,0,214.4,52.87l0,6.93h-.73a153.14,153.14,0,0,0-94.11,32.15l-4.26-5.5a159.84,159.84,0,0,0-41.09,47.21c-1.14,2,.86,7.38,2.19,10.48A154.22,154.22,0,0,0,64.37,251l-16.11,1.74a203.12,203.12,0,0,0,9.19,28c.54,1.27,5.57,1.13,10.4.68a160,160,0,0,0,72.41,75.27l3.14-6.13a153.23,153.23,0,0,0,70.23,16.93,155.21,155.21,0,0,0,20.58-1.37l.59,4.35a2.53,2.53,0,0,0,2.87,2.17,160,160,0,0,0,65.81-25.68c2.61-1.76,2.86-1.87,5.33-3.75l-2.4-6.85A153.56,153.56,0,0,0,367.46,213.63ZM213.63,363.05A149.42,149.42,0,1,1,363.05,213.63,149.42,149.42,0,0,1,213.63,363.05Z"/></g></g></svg>