<svg xmlns="http://www.w3.org/2000/svg" viewBox="0 0 154.67 156.81"><defs><style>.cls-1{fill:#00b4eb;}.cls-1,.cls-2,.cls-3,.cls-7{stroke:#00b4eb;}.cls-1,.cls-10,.cls-11,.cls-12,.cls-13,.cls-2,.cls-3,.cls-4,.cls-5,.cls-6,.cls-7,.cls-8,.cls-9{stroke-miterlimit:10;}.cls-1,.cls-2{stroke-width:1.27px;}.cls-10,.cls-11,.cls-12,.cls-13,.cls-2,.cls-3,.cls-4,.cls-5,.cls-6,.cls-7,.cls-8,.cls-9{fill:none;}.cls-3{stroke-width:10.13px;stroke-dasharray:21.32 1.78 0 0;opacity:0.5;}.cls-10,.cls-11,.cls-12,.cls-13,.cls-4,.cls-5,.cls-8,.cls-9{stroke:#fff;}.cls-4{stroke-width:7px;stroke-dasharray:1 10 0 0;}.cls-5{stroke-width:3px;stroke-dasharray:0.5 5 0 0;}.cls-6{stroke:#fa0;stroke-width:5.06px;stroke-dasharray:1.27 1.27 2.53 6.33;}.cls-10,.cls-11,.cls-12,.cls-13,.cls-7,.cls-8,.cls-9{stroke-width:0.63px;}.cls-9{stroke-dasharray:0.01 0;}.cls-10{stroke-dasharray:6.5 1.29 0.01 0;}.cls-11{stroke-dasharray:0 0;}.cls-12{stroke-dasharray:5.09 1.01 0 0;}.cls-13{stroke-dasharray:0.03 0;}</style></defs><title>资源 2</title><g id="图层_2" data-name="图层 2"><g id="Layer_2" data-name="Layer 2"><polygon class="cls-1" points="147.04 22.66 147.04 95.44 143.17 91.58 143.17 26.27 147.04 22.66"/><line class="cls-2" x1="147.04" y1="95.46" x2="147.04" y2="95.44"/><polygon class="cls-2" points="143.17 26.27 143.17 91.58 147.04 95.44 147.04 95.46 148.91 97.32 148.91 103.27 130.67 121.51 130.67 129.89 137.5 136.71 137.5 149.53 93.15 149.53 85.79 142.17 71.77 156.18 16.39 156.18 0.63 140.42 0.63 56.15 56.15 0.63 143.4 0.63 154.04 11.28 154.04 16.14 147.04 22.66 143.17 26.27"/><polygon class="cls-1" points="56.15 0.64 45.59 0.64 20.26 25.97 20.26 36.49 56.15 0.64"/><path class="cls-3" d="M110.09,105.29A42.38,42.38,0,1,1,77.34,36a42.92,42.92,0,0,1,7.82.72"/><path class="cls-4" d="M97.33,41a42.41,42.41,0,0,1,17.79,56.58"/><path class="cls-5" d="M97.33,41a42.41,42.41,0,0,1,17.79,56.58"/><path class="cls-6" d="M101.2,98A30.87,30.87,0,1,1,77.34,47.54a31.36,31.36,0,0,1,5.69.52"/><line class="cls-7" x1="130.71" y1="24.47" x2="139.09" y2="12.07"/><line class="cls-8" x1="129.54" y1="24.47" x2="126.38" y2="24.47"/><line class="cls-9" x1="125.09" y1="24.47" x2="125.08" y2="24.47"/><line class="cls-10" x1="125.08" y1="24.47" x2="54.87" y2="24.47"/><polyline class="cls-8" points="54.87 24.47 51.71 24.47 49.47 26.7"/><line class="cls-11" x1="48.76" y1="27.42" x2="48.75" y2="27.42"/><polyline class="cls-12" points="48.75 27.42 41.95 34.23 40.1 36.07"/><polyline class="cls-8" points="40.1 36.07 37.87 38.31 40.1 40.54"/><line class="cls-13" x1="42.56" y1="43" x2="42.58" y2="43.02"/><line class="cls-8" x1="42.58" y1="43.02" x2="44.82" y2="45.26"/><line class="cls-7" x1="25.4" y1="118.16" x2="42.49" y2="135.25"/><line class="cls-2" x1="11.63" y1="114.4" x2="45.82" y2="148.6"/><line class="cls-7" x1="17.41" y1="129.78" x2="30.38" y2="142.75"/></g></g></svg>