<svg xmlns="http://www.w3.org/2000/svg" viewBox="0 0 226.24 244.63"><defs><style>.cls-1{isolation:isolate;}.cls-2{opacity:0.75;}.cls-3{opacity:0.5;}.cls-3,.cls-5,.cls-7{mix-blend-mode:color-dodge;}.cls-4{fill:#57cbff;}.cls-6{fill:#f7fbfc;}.cls-7{opacity:0.8;}</style></defs><title>资源 2</title><g class="cls-1"><g id="图层_2" data-name="图层 2"><g id="Layer_1" data-name="Layer 1"><g class="cls-2"><g class="cls-3"><path class="cls-4" d="M98.64,244.63l-4.55-1-5-1.33c-.84-.24-1.72-.52-2.64-.81l-.88-.28c-2.51-.77-5.24-1.81-8.29-3A124.51,124.51,0,0,1,38,212.7a123.23,123.23,0,0,1-32.58-53c-.41-1.32-.71-2.43-.95-3.32l-.24-.87-.61-2.27.79-.2,54.86-13.92.43,1.57c0,.17.11.39.17.64.12.45.27,1,.46,1.6l.11.34a64.48,64.48,0,0,0,2.82,7.45,65.52,65.52,0,0,0,14.49,20.53,67.86,67.86,0,0,0,10.62,8.31A68.76,68.76,0,0,0,98.8,185l1.16.43c1.16.44,2.25.85,3.25,1.14l.76.25c.39.12.76.25,1.12.35l5.47,1.33ZM5.56,154.41l.18.7c.08.25.16.55.24.88.24.87.54,2,.93,3.26a124,124,0,0,0,5.41,14.37,121.28,121.28,0,0,0,26.76,37.92,122.43,122.43,0,0,0,38.81,25.17c3,1.16,5.71,2.19,8.18,2.95l.88.28c.91.29,1.77.57,2.59.8l5.9,1.55,2,.43,11.25-53-1-.22-3-.79c-.39-.11-.79-.24-1.2-.37l-.73-.23c-1-.31-2.16-.74-3.35-1.18l-1.17-.44a68.51,68.51,0,0,1-21.61-14,67.83,67.83,0,0,1-14.84-21,67.05,67.05,0,0,1-2.88-7.62l-.12-.35c-.2-.65-.35-1.22-.47-1.68-.06-.23-.12-.44-.17-.62l0-.06Z"/><path class="cls-4" d="M3.62,153.4l-.78-3.48c-.38-1.63-.84-4.06-1.35-7.2A124.28,124.28,0,0,1,2.55,98.54l.89-4L5.2,87.93l55.08,16.19-1,3.88-.46,2.15A66.46,66.46,0,0,0,57.44,122a68,68,0,0,0,.77,11.88c.25,1.5.49,2.92.72,3.83l.5,2.26ZM6.31,89.93,5,94.88l-.87,4a122.74,122.74,0,0,0-2.48,21.77,124,124,0,0,0,1.43,21.83c.5,3.1.95,5.48,1.33,7.08l.43,1.91,52.7-12.71-.15-.71c-.24-1-.49-2.41-.75-3.94a68.77,68.77,0,0,1,.58-24.28l.63-2.77.49-1.84Z"/><path class="cls-4" d="M164.81,71.85l-1.29-1c-.42-.34-1.06-.81-1.87-1.36s-1.84-1.3-3-2c-1-.66-2.14-1.29-3.35-2l-.74-.41a66.49,66.49,0,0,0-24-7.31A66.74,66.74,0,0,0,117,57.73a66.07,66.07,0,0,0-11.56,2.21,64.38,64.38,0,0,0-7.85,2.77L94,64.37l-25-51.7,2.1-1c1-.47,2.51-1.13,4-1.77A124,124,0,0,1,111.36.6a123.7,123.7,0,0,1,70.12,13.79c2.61,1.43,5.33,2.94,7.62,4.42s4.09,2.65,5.62,3.74,2.66,1.89,3.52,2.56l1.83,1.42Zm-41.28-16A68.42,68.42,0,0,1,144.2,59a69.18,69.18,0,0,1,11.1,4.66l.76.42c1.24.69,2.41,1.35,3.42,2,1.2.72,2.22,1.43,3.08,2s1.51,1,2,1.42h0l33.29-42.78-.57-.44c-.59-.47-1.65-1.28-3.45-2.52-1.51-1.07-3.35-2.35-5.55-3.7s-4.95-2.95-7.52-4.36A122.28,122.28,0,0,0,111.52,2.19a122.9,122.9,0,0,0-35.73,9.15c-1.48.65-3,1.3-4,1.75l-.65.32L94.77,62.22h0l2.2-1A64.06,64.06,0,0,1,105,58.4a67.36,67.36,0,0,1,18.49-2.59Z"/></g><g class="cls-5"><path class="cls-6" d="M90.84,118.23s0-.27.13-.77.23-1.24.48-2.15A33.6,33.6,0,0,1,94.29,108a34,34,0,0,1,6.8-8.8,33.34,33.34,0,0,1,34.2-6.69,32.74,32.74,0,0,1,7,3.62l1,.73c.3.22.54.42.75.58l.62.48-2.25,2.75-.56-.43-.67-.52-.93-.65A28.67,28.67,0,0,0,134,95.84,29.41,29.41,0,0,0,124.33,94a30.08,30.08,0,0,0-11.2,1.9,29.57,29.57,0,0,0-9.62,5.94,30.39,30.39,0,0,0-6.08,7.86,30,30,0,0,0-2.54,6.53c-.22.81-.33,1.47-.43,1.92l-.11.68Z"/><polygon class="cls-6" points="160.11 76.57 160.64 76.98 157.66 80.73 157.18 80.35 160.11 76.57"/><polygon class="cls-6" points="160.97 77.25 161.35 77.54 158.32 81.24 157.97 80.97 160.97 77.25"/><path class="cls-6" d="M157.63,74.74l1,.72c.51.36,1,.75,1,.75L156.75,80s-.45-.36-.92-.68l-.94-.66Z"/><path class="cls-6" d="M153.27,72l.39.23c.21.11.4.23.4.23l-2.45,4.1-.36-.21-.37-.2Z"/><path class="cls-6" d="M147.06,68.87l.92.4c.47.2.93.42.93.42l-2,4.33s-.42-.2-.84-.38l-.86-.37Z"/><polygon class="cls-6" points="149.49 69.98 151.37 70.92 149.14 75.15 147.41 74.28 149.49 69.98"/><path class="cls-6" d="M137.14,65.62s.36.07.71.16l.7.19-1.2,4.62-.64-.17-.65-.15Z"/><polygon class="cls-6" points="143.32 67.41 144.32 67.78 142.66 72.26 141.74 71.92 143.32 67.41"/><polygon class="cls-6" points="134.85 65.12 136.43 65.46 135.4 70.13 133.95 69.82 134.85 65.12"/><polygon class="cls-6" points="127.46 64.2 128.81 64.29 128.4 69.06 127.15 68.97 127.46 64.2"/><polygon class="cls-6" points="121.61 64.11 122.72 64.08 122.79 68.86 121.77 68.89 121.61 64.11"/><path class="cls-6" d="M117.5,64.38l.62-.06.63,0,.39,4.77-.58,0c-.29,0-.57.06-.57.06Z"/><path class="cls-6" d="M113.93,64.87s.59-.11,1.19-.19l1.19-.16.59,4.75-1.1.14c-.55.07-1.09.17-1.09.17Z"/><polygon class="cls-6" points="112.14 65.18 113.23 64.99 114.07 69.69 113.06 69.87 112.14 65.18"/><path class="cls-6" d="M105.58,66.87s.64-.22,1.28-.4l1.3-.36,1.24,4.62-1.19.33c-.6.16-1.19.36-1.19.36Z"/><polygon class="cls-6" points="108.43 66.04 109.39 65.79 110.53 70.43 109.65 70.67 108.43 66.04"/><path class="cls-6" d="M100.11,68.9l.56-.24.57-.24L103,72.85l-.52.22-.52.23Z"/><polygon class="cls-6" points="96.18 70.75 96.95 70.37 99.09 74.64 98.38 75 96.18 70.75"/><polygon class="cls-6" points="96.27 70.71 96.99 70.35 99.12 74.63 98.47 74.95 96.27 70.71"/><polygon class="cls-6" points="87.86 75.99 88.35 75.62 91.18 79.47 90.73 79.81 87.86 75.99"/><path class="cls-6" d="M83.18,79.9l.57-.53.59-.52,3.16,3.59-.54.48-.53.49Z"/><polygon class="cls-6" points="86.9 76.73 88.42 75.56 91.25 79.42 89.85 80.5 86.9 76.73"/><polygon class="cls-6" points="80.36 82.7 81.4 81.61 84.8 84.98 83.84 85.98 80.36 82.7"/><path class="cls-6" d="M83.33,79.77l.36-.35.38-.33,3.18,3.57L86.9,83l-.34.31Z"/><polygon class="cls-6" points="77.94 85.42 78.77 84.45 82.37 87.6 81.6 88.49 77.94 85.42"/><polygon class="cls-6" points="75.98 87.89 77.33 86.15 81.05 89.16 79.8 90.76 75.98 87.89"/><path class="cls-6" d="M71.84,94.19s.31-.57.65-1.12L73.18,92l4,2.55-.63,1c-.32.51-.6,1-.6,1Z"/><path class="cls-6" d="M69.12,99.61l.25-.59c.13-.29.27-.58.27-.58l4.33,2s-.13.27-.24.54l-.24.54Z"/><path class="cls-6" d="M70.07,97.55s.29-.57.57-1.15.6-1.12.6-1.12l4.2,2.27s-.3.51-.55,1l-.52,1Z"/><path class="cls-6" d="M66.91,105.41l.28-.85c.13-.43.29-.86.29-.86L72,105.3s-.15.39-.27.79-.25.79-.25.79Z"/><path class="cls-6" d="M68.17,101.86s.16-.44.35-.87.37-.86.37-.86L73.28,102l-.34.79c-.17.4-.32.8-.32.8Z"/><path class="cls-6" d="M65.7,109.72l.26-1,.28-1,4.6,1.28s-.12.47-.25.94l-.24.94Z"/><polygon class="cls-6" points="65.04 112.84 65.15 112.24 69.85 113.14 69.74 113.71 65.04 112.84"/><path class="cls-6" d="M85.36,117.34l-5.62-.92s.1-.67.23-1.33.29-1.33.29-1.33l1.42-.05a5.49,5.49,0,0,1,.14-.55c.08-.33.2-.77.32-1.21s.25-.87.36-1.2.17-.54.17-.54l-1.2-.79s.08-.28.24-.7l.58-1.52c.44-1.1.93-2.18.93-2.18l1.41.25.8-1.63c.45-.79.89-1.59.89-1.59l-1-1,1.26-2,.93-1.33c.25-.37.44-.6.44-.6l1.33.54,1.12-1.44c.6-.68,1.19-1.37,1.19-1.37l-.78-1.21s.81-.86,1.65-1.7l1.18-1.12c.32-.31.55-.5.55-.5l1.19.8.43-.37c.27-.22.6-.53,1-.8l1.45-1.11-.51-1.33.61-.42c.37-.25.84-.6,1.35-.9s1-.63,1.39-.86l.64-.37,1,1s.78-.46,1.61-.85l1.12-.56.52-.22-.22-1.41s1.08-.5,2.19-.9c.56-.21,1.11-.42,1.54-.54l.7-.23.76,1.2a5.72,5.72,0,0,1,.55-.16l1.21-.33c.43-.13.88-.23,1.21-.3l.56-.13.07-1.43s.28-.07.72-.15l1.61-.27c1.17-.17,2.35-.31,2.35-.31l.5,1.35,1.81-.13,1.82,0,.37-1.38h.74c.44,0,1,0,1.63,0l1.62.11.74.09.21,1.41.57.07c.34,0,.79.1,1.23.18l1.24.2.55.12.65-1.27.72.15c.44.09,1,.25,1.58.4s1.14.3,1.56.45l.71.22-.09,1.43.54.18,1.18.44c.42.15.85.32,1.16.46l.52.23.89-1.12.68.29,1.46.73c.54.25,1.05.56,1.44.77l.64.36-.37,1.37,1.54,1c.39.23.75.5,1,.69l.46.33,1.11-.91.35.24.73.58,1.07.83-3.61,4.4-.72-.55-.86-.68-1.22-.85a38.56,38.56,0,0,0-20.84-6.67,39.23,39.23,0,0,0-14.62,2.48,38.65,38.65,0,0,0-12.59,7.78,39.36,39.36,0,0,0-7.93,10.25,38.55,38.55,0,0,0-3.32,8.55A32.67,32.67,0,0,0,85.36,117.34Zm45.81-32.65.63.14c.4.1,1,.18,1.66.38a42.56,42.56,0,0,1,4.92,1.6A40.15,40.15,0,0,1,143,89.06c.63.33,1.12.65,1.47.87l.55.35L146,88.8l-.58-.36c-.36-.23-.88-.56-1.53-.91a40.15,40.15,0,0,0-10-4c-.71-.21-1.32-.31-1.74-.41L131.5,83ZM97.55,93.75l.9-.77c.28-.25.65-.51,1.06-.83s.88-.68,1.41-1a39.62,39.62,0,0,1,8.27-4.42A40.76,40.76,0,0,1,114,85.16c1.56-.37,3-.65,4.31-.82s2.34-.24,3.09-.3,1.17,0,1.17,0l0-1.76-1.23.05c-.78.06-1.9.12-3.23.31a44.2,44.2,0,0,0-4.5.86,41.81,41.81,0,0,0-13.64,6.22c-.55.37-1,.74-1.47,1.08s-.82.61-1.11.87l-.93.8Zm-13,23s0-.09.05-.27a6.35,6.35,0,0,1,.15-.78c.14-.68.34-1.64.67-2.77a39.42,39.42,0,0,1,3.2-8,41.08,41.08,0,0,1,4.89-7.12A35.23,35.23,0,0,1,96.22,95L95,93.7a36.39,36.39,0,0,0-2.82,3,42.73,42.73,0,0,0-5.09,7.43,40.58,40.58,0,0,0-3.35,8.35c-.34,1.18-.55,2.18-.7,2.88-.08.36-.13.63-.16.82s0,.29,0,.29Z"/><path class="cls-6" d="M89.39,118s0-.28.13-.8.25-1.29.5-2.25A34.7,34.7,0,0,1,100.1,98.12a34.44,34.44,0,0,1,11.26-7,35.05,35.05,0,0,1,13.08-2.23,34.56,34.56,0,0,1,11.37,2.2,33.78,33.78,0,0,1,7.28,3.77l1.09.76.77.61c.43.32.65.5.65.5l-.48.59-.64-.49-.76-.59-1.06-.75a33.71,33.71,0,0,0-18.24-5.83,34.14,34.14,0,0,0-12.79,2.17,33.79,33.79,0,0,0-11,6.8,34.35,34.35,0,0,0-6.94,9,34,34,0,0,0-2.91,7.46c-.25.94-.38,1.69-.49,2.2s-.13.79-.13.79Z"/><path class="cls-6" d="M75.9,115.79s.07-.39.19-1.12.35-1.8.71-3.13A48.29,48.29,0,0,1,81,100.86,48.85,48.85,0,0,1,90.82,88.1a48.19,48.19,0,0,1,15.72-9.72,48.72,48.72,0,0,1,18.21-3.09,47.84,47.84,0,0,1,15.86,3.06,47.34,47.34,0,0,1,10.16,5.27c.57.39,1.07.75,1.51,1.06l1.08.83.9.7-.49.59-.88-.69-1.06-.82-1.49-1a47.3,47.3,0,0,0-25.6-8.2,47.78,47.78,0,0,0-17.93,3,47.21,47.21,0,0,0-15.47,9.56,48,48,0,0,0-9.72,12.56,47.14,47.14,0,0,0-4.08,10.51c-.35,1.31-.54,2.37-.7,3.08s-.18,1.11-.18,1.11Z"/><path class="cls-6" d="M151,77.68l1.83,1.15c.91.58,1.78,1.22,1.78,1.22l-2.23,3.13s-.81-.59-1.65-1.13L149,81Z"/><path class="cls-6" d="M124,70.16l2.16,0,2.15.15L128,74.19l-2-.14-2,0Z"/><path class="cls-6" d="M103.26,74.17l.63-.24,1.39-.53c.5-.2,1-.36,1.4-.49l.65-.21,1.16,3.67-.59.19c-.36.12-.84.27-1.3.45l-1.29.49-.59.23Z"/><path class="cls-6" d="M77.17,97.16l.33-.59c.2-.36.49-.81.78-1.27l.79-1.25.39-.56,3.17,2.17-.36.52-.73,1.16c-.27.43-.54.85-.73,1.17l-.3.55Z"/><path class="cls-6" d="M74.06,103.52l.86-2c.21-.5.46-1,.64-1.34l.3-.61,3.43,1.73s-.11.23-.28.56-.4.79-.59,1.25l-.8,1.84Z"/><path class="cls-6" d="M146.2,94.74c.21-.27.52-.36.71-.22a.52.52,0,0,1,0,.72c-.21.26-.53.36-.7.22S146,95,146.2,94.74Z"/><path class="cls-6" d="M144.85,93.72c.19-.27.5-.38.69-.25s.18.47,0,.73-.5.37-.69.24S144.66,94,144.85,93.72Z"/><path class="cls-6" d="M143.45,92.77a.54.54,0,0,1,.68-.28.53.53,0,0,1,0,.73c-.19.28-.48.39-.67.27S143.27,93.05,143.45,92.77Z"/><path class="cls-6" d="M142,91.89c.17-.29.47-.44.67-.31a.55.55,0,0,1,0,.73c-.18.29-.47.42-.66.3S141.85,92.18,142,91.89Z"/><path class="cls-6" d="M140.54,91.07c.15-.3.44-.45.64-.33a.54.54,0,0,1,.08.73c-.16.29-.45.43-.64.32A.53.53,0,0,1,140.54,91.07Z"/><path class="cls-6" d="M139,90.32c.15-.3.42-.46.63-.36a.54.54,0,0,1,.11.73c-.14.29-.43.46-.62.36S138.89,90.62,139,90.32Z"/><path class="cls-6" d="M137.48,89.65c.12-.31.4-.48.61-.39a.53.53,0,0,1,.14.72c-.13.3-.4.48-.61.39S137.35,90,137.48,89.65Z"/><path class="cls-6" d="M135.9,89.05c.11-.31.38-.5.59-.41s.3.39.18.7-.38.5-.59.42S135.79,89.36,135.9,89.05Z"/><path class="cls-6" d="M134.3,88.53c.09-.32.35-.52.57-.45s.32.38.21.7-.36.51-.57.44S134.2,88.84,134.3,88.53Z"/><path class="cls-6" d="M132.68,88.08c.08-.33.32-.54.55-.48s.33.37.24.69-.34.53-.55.47S132.59,88.4,132.68,88.08Z"/><path class="cls-6" d="M131,87.7c.07-.33.3-.55.53-.5s.35.35.28.67-.32.55-.53.5S131,88,131,87.7Z"/><path class="cls-6" d="M129.37,87.4c0-.33.28-.56.51-.53s.36.34.3.66-.28.56-.5.53S129.32,87.72,129.37,87.4Z"/><path class="cls-6" d="M127.7,87.17c0-.32.25-.57.48-.54s.38.31.34.64-.26.57-.49.55S127.66,87.5,127.7,87.17Z"/><path class="cls-6" d="M126,87c0-.33.23-.59.46-.57s.4.29.37.62-.24.59-.46.57S126,87.36,126,87Z"/><path class="cls-6" d="M124.32,87c0-.33.2-.6.44-.59s.41.27.39.6-.21.6-.43.59S124.32,87.29,124.32,87Z"/><path class="cls-6" d="M122.63,87c0-.33.18-.6.41-.61s.42.26.42.59-.18.61-.4.61S122.64,87.3,122.63,87Z"/><path class="cls-6" d="M121,87.05c0-.33.14-.61.37-.63s.43.23.45.57-.15.61-.38.63S121,87.38,121,87.05Z"/><path class="cls-6" d="M119.26,87.21c0-.33.12-.62.35-.65s.44.22.48.55-.13.61-.35.65S119.3,87.54,119.26,87.21Z"/><path class="cls-6" d="M117.59,87.45a.55.55,0,0,1,.32-.67c.22,0,.45.21.5.54s-.1.61-.32.65S117.64,87.78,117.59,87.45Z"/><path class="cls-6" d="M115.93,87.76c-.07-.32.06-.62.28-.67s.47.18.53.51-.07.61-.29.66S116,88.09,115.93,87.76Z"/><path class="cls-6" d="M114.28,88.15c-.08-.32,0-.63.26-.69s.47.17.55.49,0,.62-.26.68S114.37,88.47,114.28,88.15Z"/><path class="cls-6" d="M112.66,88.62c-.1-.32,0-.63.22-.7s.48.14.57.46,0,.62-.22.68S112.76,88.93,112.66,88.62Z"/><path class="cls-6" d="M111.06,89.16c-.11-.31,0-.64.19-.71s.48.12.59.44,0,.62-.2.69S111.17,89.47,111.06,89.16Z"/><path class="cls-6" d="M109.49,89.77c-.13-.3-.07-.64.15-.72s.49.11.61.41,0,.63-.16.7S109.62,90.08,109.49,89.77Z"/><path class="cls-6" d="M107.94,90.45c-.14-.3-.09-.63.13-.72s.49.08.63.38.07.62-.13.71S108.09,90.75,107.94,90.45Z"/><path class="cls-6" d="M106.43,91.2c-.15-.29-.11-.62.1-.72s.49.06.64.36.11.61-.09.71S106.59,91.49,106.43,91.2Z"/><path class="cls-6" d="M105,92a.53.53,0,0,1,.06-.73c.2-.11.5,0,.66.33s.14.61-.06.71S105.13,92.31,105,92Z"/><path class="cls-6" d="M103.53,92.92c-.18-.28-.17-.6,0-.72s.5,0,.67.28.16.61,0,.73S103.71,93.19,103.53,92.92Z"/><path class="cls-6" d="M102.14,93.88c-.19-.27-.19-.6,0-.73s.49,0,.68.26.19.59,0,.72S102.34,94.14,102.14,93.88Z"/><path class="cls-6" d="M100.8,94.9c-.2-.26-.22-.59,0-.73s.49,0,.7.22.21.59,0,.73S101,95.16,100.8,94.9Z"/><path class="cls-6" d="M99.51,96c-.22-.25-.25-.57-.08-.72s.49-.07.71.18.24.58.07.73S99.73,96.23,99.51,96Z"/><path class="cls-6" d="M98.26,97.12a.54.54,0,0,1-.11-.72.53.53,0,0,1,.71.15c.23.25.28.57.12.73A.55.55,0,0,1,98.26,97.12Z"/><path class="cls-6" d="M97.07,98.32a.54.54,0,0,1-.14-.72.53.53,0,0,1,.71.12c.24.24.3.56.15.72A.54.54,0,0,1,97.07,98.32Z"/><path class="cls-6" d="M95.94,99.57a.54.54,0,0,1-.18-.71c.15-.18.47-.14.71.08s.33.55.18.72S96.19,99.79,95.94,99.57Z"/><path class="cls-6" d="M94.85,100.88a.55.55,0,0,1-.21-.71c.14-.18.48-.15.73.06a.53.53,0,0,1,.2.7C95.44,101.11,95.11,101.08,94.85,100.88Z"/><path class="cls-6" d="M93.83,102.23c-.27-.2-.38-.51-.25-.7a.55.55,0,0,1,.74,0c.27.2.37.51.23.68S94.1,102.42,93.83,102.23Z"/><path class="cls-6" d="M92.87,103.62c-.27-.18-.41-.49-.27-.68s.46-.19.74,0,.38.49.26.67A.55.55,0,0,1,92.87,103.62Z"/><path class="cls-6" d="M92,105.05c-.29-.17-.42-.46-.3-.66a.56.56,0,0,1,.74,0c.28.18.41.47.29.66A.55.55,0,0,1,92,105.05Z"/><path class="cls-6" d="M91.16,106.53c-.3-.16-.44-.45-.33-.65s.44-.23.73-.07.43.45.33.64S91.45,106.68,91.16,106.53Z"/><path class="cls-6" d="M90.41,108c-.31-.13-.46-.41-.36-.62s.43-.26.72-.11.46.43.36.63S90.71,108.18,90.41,108Z"/><path class="cls-6" d="M89.73,109.58c-.31-.12-.48-.4-.39-.61s.41-.28.71-.15.48.41.39.62S90,109.7,89.73,109.58Z"/><path class="cls-6" d="M89.12,111.15c-.31-.11-.5-.38-.42-.59s.4-.3.71-.18.49.39.42.6A.55.55,0,0,1,89.12,111.15Z"/><path class="cls-6" d="M88.58,112.75c-.31-.1-.51-.36-.44-.58s.38-.31.69-.21.52.37.45.58S88.9,112.85,88.58,112.75Z"/><path class="cls-6" d="M88.12,114.37c-.32-.08-.53-.33-.47-.55s.37-.34.68-.25.54.34.48.56S88.44,114.45,88.12,114.37Z"/><path class="cls-6" d="M87.74,116c-.33-.07-.55-.31-.5-.54s.35-.35.67-.27.55.31.5.53S88.06,116.08,87.74,116Z"/><path class="cls-6" d="M87.43,117.67c-.33,0-.56-.28-.53-.51s.34-.36.66-.3.56.29.52.51S87.76,117.73,87.43,117.67Z"/><path class="cls-6" d="M135.36,154.69l-.73.28c-.49.14-1.19.43-2.11.65a33.21,33.21,0,0,1-30-6.3A33.24,33.24,0,0,1,90.49,121.2c0-1,.19-1.69.22-2.2s.13-.77.13-.77l3.51.57s0,.24-.12.69-.16,1.11-.19,2a29.78,29.78,0,0,0,3.54,16.4,29.68,29.68,0,0,0,17.22,14.09,29.7,29.7,0,0,0,16.77.25c.83-.19,1.44-.46,1.88-.58l.66-.25Z"/><path class="cls-6" d="M64.61,115.56l0-.33c0-.17,0-.34,0-.34l4.73.7s0,.15-.05.31,0,.3,0,.3Z"/><polygon class="cls-6" points="64.77 114.47 64.85 113.99 69.57 114.76 69.5 115.2 64.77 114.47"/><path class="cls-6" d="M64.27,118.63s0-.63.12-1.24.15-1.24.15-1.24l4.74.59s-.07.57-.13,1.14S69,119,69,119Z"/><polygon class="cls-6" points="64.06 123.79 64.07 122.88 68.86 122.94 68.84 123.78 64.06 123.79"/><path class="cls-6" d="M64.5,130.7s-.07-.5-.13-1-.08-1-.08-1l4.76-.4s0,.46.08.92.11.92.11.92Z"/><path class="cls-6" d="M64.24,128l-.08-1c0-.52,0-1,0-1l4.77-.19s0,.48,0,1l.07,1Z"/><path class="cls-6" d="M66.62,140.89s-.11-.35-.2-.7l-.2-.69,4.61-1.28.18.65c.08.32.18.63.18.63Z"/><polygon class="cls-6" points="65.1 134.65 64.92 133.6 69.63 132.8 69.8 133.77 65.1 134.65"/><polygon class="cls-6" points="67.34 143.11 66.84 141.58 71.4 140.14 71.86 141.55 67.34 143.11"/><polygon class="cls-6" points="70.22 149.99 69.62 148.77 73.95 146.76 74.51 147.88 70.22 149.99"/><polygon class="cls-6" points="73.08 155.12 72.49 154.18 76.59 151.72 77.13 152.59 73.08 155.12"/><polygon class="cls-6" points="75.38 158.56 74.65 157.51 78.58 154.79 79.25 155.75 75.38 158.56"/><path class="cls-6" d="M77.58,161.41l-.24-.29-.51-.66-.74-1,3.81-2.88.68.88.47.6.22.26Z"/><polygon class="cls-6" points="78.77 162.79 78.04 161.95 81.7 158.87 82.36 159.65 78.77 162.79"/><polygon class="cls-6" points="83.5 167.64 81.56 165.79 84.93 162.4 86.72 164.1 83.5 167.64"/><polygon class="cls-6" points="81.36 165.59 80.67 164.87 84.12 161.56 84.75 162.22 81.36 165.59"/><polygon class="cls-6" points="87.98 171.34 87.02 170.59 89.96 166.82 90.85 167.5 87.98 171.34"/><polygon class="cls-6" points="91.55 173.8 90.82 173.33 93.45 169.35 94.13 169.77 91.55 173.8"/><polygon class="cls-6" points="91.46 173.74 90.79 173.32 93.43 169.33 94.05 169.72 91.46 173.74"/><polygon class="cls-6" points="100.23 178.39 99.67 178.15 101.6 173.77 102.11 174 100.23 178.39"/><polygon class="cls-6" points="105.96 180.5 104.47 180.02 106 175.49 107.37 175.93 105.96 180.5"/><polygon class="cls-6" points="101.35 178.87 99.58 178.11 101.51 173.74 103.14 174.44 101.35 178.87"/><path class="cls-6" d="M109.8,181.56s-.37-.08-.73-.19l-.73-.19,1.22-4.62.67.18.68.17Z"/><polygon class="cls-6" points="105.77 180.44 104.81 180.13 106.32 175.59 107.2 175.88 105.77 180.44"/><path class="cls-6" d="M113.39,182.29l-.64-.11-.63-.12.92-4.69.58.11.59.1Z"/><path class="cls-6" d="M116.51,182.74l-1.1-.13-1.09-.17.74-4.72,1,.16,1,.12Z"/><path class="cls-6" d="M124.05,183.17h-1.3l-1.31,0,.18-4.78,1.19,0H124Z"/><path class="cls-6" d="M130.08,182.81l-.64.08-.63.05-.42-4.76.59-.05.58-.07Z"/><path class="cls-6" d="M127.82,183l-1.27.08-1.27,0-.13-4.78,1.17,0,1.16-.08Z"/><path class="cls-6" d="M136.19,181.82l-.88.2-.88.16-.87-4.7.81-.15.81-.18Z"/><path class="cls-6" d="M132.5,182.51l-.93.12-.93.12-.56-4.75.85-.11.85-.11Z"/><polygon class="cls-6" points="140.51 180.73 138.48 181.29 137.29 176.66 139.16 176.15 140.51 180.73"/><polygon class="cls-6" points="143.55 179.75 142.96 179.95 141.41 175.42 141.95 175.24 143.55 179.75"/><path class="cls-6" d="M137.31,159.88l2,5.34-.4.15c-.23.09-.55.21-.87.31l-1.29.42-.75-1.21-1.76.48c-.88.22-1.77.41-1.77.41l-.09,1.43-.72.13-1.61.28-1.62.2c-.44.06-.73.08-.73.08l-.49-1.36-.57.05c-.34,0-.79.07-1.25.07l-1.25,0c-.34,0-.57,0-.57,0l-.37,1.38-.74,0c-.45,0-1,0-1.63-.07-1.19-.06-2.36-.21-2.36-.21l-.2-1.41-.57-.07c-.34,0-.78-.12-1.23-.2-.9-.13-1.79-.33-1.79-.33L114,167l-.73-.16c-.43-.09-1-.26-1.57-.41s-1.14-.32-1.56-.46l-.71-.23.1-1.42-.54-.19-1.17-.44c-.43-.15-.84-.35-1.15-.48l-.53-.23-.9,1.11a5.41,5.41,0,0,1-.67-.31l-1.46-.72c-1.05-.56-2.08-1.15-2.08-1.15l.39-1.37-1.54-1-1.49-1-1.12.9L95.44,158l-1.79-1.55.67-1.27L93,153.94l-1.25-1.32-1.28.65s-.77-.89-1.53-1.8l-1-1.29c-.28-.35-.44-.6-.44-.6l.91-1.1L88.1,148c-.19-.28-.47-.65-.7-1l-.66-1.06-.3-.49-1.37.37-.36-.64c-.22-.39-.51-.91-.76-1.44s-.54-1.06-.72-1.46l-.3-.68,1.12-.89s-.37-.83-.68-1.69c-.16-.43-.33-.85-.44-1.17s-.17-.54-.17-.54l-1.43.08s-.38-1.13-.67-2.28c-.16-.56-.3-1.14-.39-1.58s-.16-.72-.16-.72l1.27-.64s0-.22-.1-.56-.13-.78-.21-1.23-.13-.9-.18-1.24-.07-.56-.07-.56l-1.41-.22a6.48,6.48,0,0,1-.07-.73c0-.45-.08-1-.13-1.63s0-1.18,0-1.63,0-.74,0-.74l1.39-.36s0-.91,0-1.82l.12-1.82-1.33-.49.16-1.35c0-.34.09-.67.13-.92s.07-.42.07-.42l5.62.92s0,.31-.14.9S85,119.69,85,120.8A38.78,38.78,0,0,0,134,161c1.08-.27,1.89-.6,2.46-.76ZM86.14,136.55s-.08-.22-.2-.61-.32-.95-.5-1.64a39.66,39.66,0,0,1-1.07-5.07,43.3,43.3,0,0,1-.39-5.16c0-.71,0-1.3,0-1.71s0-.65,0-.65l-1.76-.08s0,.24,0,.68,0,1,0,1.78a43.73,43.73,0,0,0,.42,5.39,42.88,42.88,0,0,0,1.11,5.29c.18.72.39,1.3.52,1.71s.21.64.21.64Zm24.64,24.59-.29-.1-.81-.31c-.71-.24-1.69-.66-2.86-1.19a41.11,41.11,0,0,1-8-5,38.86,38.86,0,0,1-6.59-6.7c-.81-1-1.38-1.9-1.81-2.51l-.62-1-1.5.92.65,1c.45.63,1,1.58,1.89,2.62a41.2,41.2,0,0,0,6.88,7,42.91,42.91,0,0,0,8.32,5.19c1.22.55,2.25,1,3,1.25l.85.32.3.1Zm26.42-.27s-.36.15-1,.35l-1.18.38-1.56.42a38.19,38.19,0,0,1-8.53,1.21,39.23,39.23,0,0,1-8.6-.64c-1.16-.24-2.12-.43-2.78-.63l-1-.27-.49,1.68,1.09.29c.69.21,1.69.41,2.9.66a41.22,41.22,0,0,0,9,.67,40.75,40.75,0,0,0,8.92-1.27l1.62-.44,1.23-.4c.68-.21,1.07-.36,1.07-.36Z"/><path class="cls-6" d="M135.88,156.07l-.76.29c-.52.14-1.24.44-2.21.68A34.65,34.65,0,0,1,89.4,129.31a35.07,35.07,0,0,1-.38-8.22c0-1,.19-1.76.23-2.29l.14-.81.75.13s0,.27-.13.78-.19,1.27-.23,2.25a34,34,0,0,0,.38,8A33.92,33.92,0,0,0,113.53,156a34.11,34.11,0,0,0,19.18.28c.94-.23,1.65-.52,2.15-.66l.75-.28Z"/><path class="cls-6" d="M140.69,168.86a41.54,41.54,0,0,1-4.13,1.34,48.3,48.3,0,0,1-60.63-38.66,47.86,47.86,0,0,1-.53-11.43,39,39,0,0,1,.51-4.32l.75.13a39.57,39.57,0,0,0-.5,4.25,47.61,47.61,0,0,0,60.19,49.3,38.38,38.38,0,0,0,4.07-1.33Z"/><path class="cls-6" d="M70.17,122.92s0-.27,0-.68,0-.94,0-1.48c.08-1.08.15-2.16.15-2.16l3.83.36-.14,2c0,.5,0,1,0,1.38s0,.62,0,.62Z"/><path class="cls-6" d="M77.13,150l-.33-.59c-.19-.35-.47-.82-.7-1.31l-1-1.94,3.49-1.62s.44.9.89,1.8c.21.46.47.89.65,1.21l.3.56Z"/><path class="cls-6" d="M91,166l-.54-.42c-.31-.25-.74-.57-1.15-.93l-1.63-1.41,2.59-2.85,1.51,1.31c.38.33.78.64,1.07.87l.5.38Z"/><path class="cls-6" d="M123.94,177.08h-.68l-1.48,0c-.54,0-1.08-.05-1.48-.08l-.68,0,.29-3.84.62,0c.38,0,.88.07,1.38.07l1.38,0h.62Z"/><path class="cls-6" d="M131,176.57l-2.14.26-2.15.16-.23-3.84,2-.15,2-.24Z"/><path class="cls-6" d="M87.29,118.49c-.33,0-.56-.27-.52-.5s.33-.37.66-.32.56.28.52.5S87.62,118.53,87.29,118.49Z"/><path class="cls-6" d="M87.1,120.17c-.33,0-.58-.25-.55-.48s.31-.38.64-.34.58.25.55.47S87.43,120.2,87.1,120.17Z"/><path class="cls-6" d="M87,121.85c-.33,0-.59-.22-.57-.45s.3-.4.63-.37.58.22.57.44S87.31,121.87,87,121.85Z"/><path class="cls-6" d="M86.94,123.54c-.33,0-.6-.19-.59-.42s.28-.41.61-.4.59.19.59.41S87.27,123.54,86.94,123.54Z"/><path class="cls-6" d="M87,125.23c-.33,0-.61-.16-.61-.39s.26-.43.59-.44.6.18.61.4S87.31,125.21,87,125.23Z"/><path class="cls-6" d="M87.09,126.92c-.33,0-.61-.13-.62-.37s.23-.44.56-.46.62.14.63.37S87.42,126.89,87.09,126.92Z"/><path class="cls-6" d="M87.28,128.6c-.32,0-.61-.11-.64-.34s.21-.45.54-.48.62.11.65.33S87.61,128.55,87.28,128.6Z"/><path class="cls-6" d="M87.55,130.27c-.32.06-.62-.08-.66-.31s.19-.46.52-.51.63.09.66.31S87.88,130.21,87.55,130.27Z"/><path class="cls-6" d="M87.9,131.92c-.32.08-.63,0-.68-.27s.17-.47.5-.53.63,0,.68.27S88.22,131.85,87.9,131.92Z"/><path class="cls-6" d="M88.32,133.56c-.32.09-.63,0-.69-.24s.15-.48.47-.56.63,0,.69.25S88.64,133.47,88.32,133.56Z"/><path class="cls-6" d="M88.81,135.17c-.31.11-.63,0-.7-.21s.13-.48.44-.57.64,0,.7.21S89.13,135.07,88.81,135.17Z"/><path class="cls-6" d="M89.38,136.76a.53.53,0,0,1-.71-.17c-.08-.22.1-.48.41-.6s.63,0,.71.18S89.69,136.64,89.38,136.76Z"/><path class="cls-6" d="M90,138.32c-.31.14-.63.07-.72-.14s.08-.49.39-.61a.54.54,0,0,1,.71.14C90.49,137.92,90.32,138.19,90,138.32Z"/><path class="cls-6" d="M90.73,139.86c-.3.14-.62.1-.73-.12s.06-.48.36-.62.63-.09.73.11S91,139.71,90.73,139.86Z"/><path class="cls-6" d="M91.51,141.35c-.29.16-.62.13-.73-.08s0-.49.33-.64a.55.55,0,0,1,.73.08C91.94,140.9,91.8,141.19,91.51,141.35Z"/><path class="cls-6" d="M92.36,142.81c-.29.17-.62.15-.74,0s0-.5.31-.67a.55.55,0,0,1,.72.05C92.77,142.34,92.64,142.63,92.36,142.81Z"/><path class="cls-6" d="M93.27,144.22a.55.55,0,0,1-.74,0c-.13-.19,0-.5.28-.68s.6-.17.72,0S93.54,144,93.27,144.22Z"/><path class="cls-6" d="M94.25,145.6c-.27.19-.6.21-.74,0a.55.55,0,0,1,.25-.7c.27-.19.59-.2.72,0S94.51,145.4,94.25,145.6Z"/><path class="cls-6" d="M95.29,146.92c-.25.21-.6.25-.73.06a.54.54,0,0,1,.21-.7c.26-.21.59-.23.72-.05A.53.53,0,0,1,95.29,146.92Z"/><path class="cls-6" d="M96.39,148.2c-.25.23-.57.27-.72.09s-.07-.49.18-.71.57-.26.72-.09A.56.56,0,0,1,96.39,148.2Z"/><path class="cls-6" d="M97.55,149.43a.53.53,0,0,1-.71.12.54.54,0,0,1,.14-.72c.24-.23.57-.28.72-.12S97.78,149.2,97.55,149.43Z"/><path class="cls-6" d="M98.77,150.6a.53.53,0,0,1-.71.15.52.52,0,0,1,.12-.72c.23-.24.54-.31.7-.15S99,150.35,98.77,150.6Z"/><path class="cls-6" d="M100.05,151.71a.53.53,0,0,1-.71.19.54.54,0,0,1,.08-.73c.22-.24.54-.33.71-.18S100.26,151.46,100.05,151.71Z"/><path class="cls-6" d="M101.37,152.77c-.2.26-.51.36-.69.22s-.17-.47,0-.73a.55.55,0,0,1,.7-.22C101.59,152.18,101.57,152.51,101.37,152.77Z"/><path class="cls-6" d="M102.74,153.76c-.19.28-.49.39-.69.26s-.18-.46,0-.73.51-.38.69-.25S102.93,153.49,102.74,153.76Z"/><path class="cls-6" d="M104.15,154.7c-.17.28-.48.41-.67.28s-.21-.44,0-.72.49-.41.67-.28S104.33,154.42,104.15,154.7Z"/><path class="cls-6" d="M105.6,155.56c-.16.29-.46.43-.66.32s-.23-.43-.06-.72.46-.42.66-.32S105.76,155.27,105.6,155.56Z"/><path class="cls-6" d="M107.09,156.36c-.15.3-.44.45-.65.35s-.24-.44-.09-.72.44-.44.64-.34S107.23,156.06,107.09,156.36Z"/><path class="cls-6" d="M108.61,157.09c-.14.3-.42.47-.63.38s-.26-.43-.12-.73.42-.46.62-.36S108.74,156.79,108.61,157.09Z"/><path class="cls-6" d="M110.16,157.75c-.12.3-.4.49-.61.4s-.28-.41-.15-.72.4-.48.6-.39S110.28,157.44,110.16,157.75Z"/><path class="cls-6" d="M111.74,158.33c-.11.31-.38.52-.59.43s-.3-.4-.19-.71.38-.5.59-.42A.54.54,0,0,1,111.74,158.33Z"/><path class="cls-6" d="M113.35,158.84c-.1.32-.35.53-.57.45s-.32-.38-.22-.7.35-.51.57-.44S113.44,158.53,113.35,158.84Z"/><path class="cls-6" d="M115,159.28c-.08.32-.33.53-.55.47a.54.54,0,0,1-.25-.69c.09-.32.33-.53.54-.47S115.05,159,115,159.28Z"/><path class="cls-6" d="M116.63,159.63c-.07.33-.3.55-.53.5s-.35-.35-.28-.67.3-.55.52-.5S116.69,159.31,116.63,159.63Z"/><path class="cls-6" d="M118.29,159.91c-.05.33-.27.57-.5.53s-.37-.34-.31-.66.28-.56.5-.53S118.34,159.59,118.29,159.91Z"/><path class="cls-6" d="M120,160.12c0,.33-.25.57-.48.54s-.38-.31-.34-.64.25-.57.47-.55S120,159.79,120,160.12Z"/><path class="cls-6" d="M121.65,160.24c0,.33-.22.59-.45.57s-.4-.29-.37-.63.23-.58.45-.56S121.67,159.91,121.65,160.24Z"/><path class="cls-6" d="M123.34,160.29c0,.33-.19.6-.42.59s-.41-.27-.41-.61.2-.59.43-.59S123.34,160,123.34,160.29Z"/><path class="cls-6" d="M125,160.26c0,.33-.16.61-.39.62s-.43-.26-.44-.59.18-.61.4-.61S125,159.93,125,160.26Z"/><path class="cls-6" d="M126.72,160.16c0,.33-.14.61-.37.63s-.44-.24-.45-.57.14-.61.36-.63S126.69,159.83,126.72,160.16Z"/><path class="cls-6" d="M128.4,160c0,.32-.11.61-.34.64s-.44-.21-.48-.54.12-.62.34-.65S128.36,159.65,128.4,160Z"/><path class="cls-6" d="M130.07,159.72c.06.32-.08.62-.31.66s-.45-.2-.5-.52.08-.63.3-.66S130,159.39,130.07,159.72Z"/><path class="cls-6" d="M131.73,159.38c.07.32,0,.63-.28.68s-.46-.17-.53-.5.06-.62.28-.67S131.65,159.06,131.73,159.38Z"/><path class="cls-6" d="M133.37,159c.08.32,0,.63-.25.69s-.47-.15-.55-.47,0-.63.24-.69S133.28,158.65,133.37,159Z"/><path class="cls-6" d="M135,158.49c.11.31,0,.63-.21.7s-.48-.13-.57-.45,0-.63.21-.7S134.88,158.17,135,158.49Z"/><path class="cls-6" d="M136.58,157.93a.55.55,0,0,1-.18.71c-.22.08-.48-.1-.59-.42s0-.63.18-.71S136.46,157.62,136.58,157.93Z"/><path class="cls-6" d="M144.67,97.92l.59.51.72.62.92.88A33.06,33.06,0,0,1,156,116.3,33.59,33.59,0,0,1,156.4,129,33.15,33.15,0,0,1,152,140.89a33.11,33.11,0,0,1-13.89,12.63c-.85.42-1.54.69-2,.9l-.73.27-1.25-3.33.65-.24c.41-.19,1-.42,1.8-.8a29.7,29.7,0,0,0,16.33-21.88,30.22,30.22,0,0,0-.34-11.36,29.59,29.59,0,0,0-3.75-9.15,28.83,28.83,0,0,0-4.39-5.46l-.82-.79-.65-.55-.52-.46Z"/><polygon class="cls-6" points="146.12 178.77 145.49 179.01 143.74 174.56 144.32 174.34 146.12 178.77"/><polygon class="cls-6" points="145.09 179.16 144.64 179.34 142.95 174.87 143.37 174.7 145.09 179.16"/><path class="cls-6" d="M149,177.53l-1.14.51-1.14.5-1.85-4.41,1.05-.46,1-.47Z"/><polygon class="cls-6" points="153.54 175.12 152.74 175.57 150.4 171.4 151.14 170.99 153.54 175.12"/><path class="cls-6" d="M159.33,171.28s-.4.32-.82.61l-.83.58L155,168.55l.76-.53c.39-.27.75-.56.75-.56Z"/><path class="cls-6" d="M157.15,172.84l-.87.59-.89.56-2.55-4,.82-.52.8-.54Z"/><polygon class="cls-6" points="167.08 164.32 166.08 165.37 162.67 162.02 163.59 161.06 167.08 164.32"/><polygon class="cls-6" points="162.45 168.77 161.64 169.46 158.58 165.78 159.33 165.15 162.45 168.77"/><path class="cls-6" d="M168.64,162.59l-.53.6c-.26.31-.53.61-.53.61l-3.53-3.23s.25-.27.49-.55l.48-.56Z"/><polygon class="cls-6" points="173.15 156.69 172.38 157.8 168.46 155.05 169.17 154.03 173.15 156.69"/><polygon class="cls-6" points="176.16 151.66 175.63 152.63 171.45 150.3 171.95 149.4 176.16 151.66"/><path class="cls-6" d="M178,148s-.13.29-.25.58-.28.57-.28.57l-4.32-2s.14-.26.25-.53l.24-.53Z"/><path class="cls-6" d="M179.35,144.61l-.43,1.13c-.22.56-.47,1.11-.47,1.11l-4.4-1.87s.23-.5.44-1,.39-1,.39-1Z"/><path class="cls-6" d="M180,142.89s-.08.27-.19.53-.19.52-.19.52l-4.49-1.63s.09-.24.17-.48.17-.48.17-.48Z"/><path class="cls-6" d="M181.79,136.35s-.14.66-.29,1.32l-.34,1.3-4.62-1.23.32-1.2.26-1.21Z"/><polygon class="cls-6" points="181.09 139.24 180.83 140.2 176.24 138.87 176.47 137.99 181.09 139.24"/><polygon class="cls-6" points="182.76 130.6 182.61 131.82 177.88 131.16 178.01 130.04 182.76 130.6"/><polygon class="cls-6" points="183.12 126.27 183.06 127.14 178.29 126.86 178.34 126.06 183.12 126.27"/><polygon class="cls-6" points="183.11 126.38 183.06 127.17 178.29 126.89 178.34 126.16 183.11 126.38"/><polygon class="cls-6" points="182.73 116.48 182.81 117.09 178.05 117.61 177.99 117.06 182.73 116.48"/><polygon class="cls-6" points="181.7 110.49 182.03 112.02 177.34 112.94 177.03 111.54 181.7 110.49"/><polygon class="cls-6" points="182.58 115.28 182.82 117.18 178.06 117.7 177.85 115.95 182.58 115.28"/><polygon class="cls-6" points="180.7 106.64 181.1 108.1 176.49 109.34 176.12 108 180.7 106.64"/><polygon class="cls-6" points="181.74 110.68 181.96 111.66 177.27 112.62 177.07 111.72 181.74 110.68"/><path class="cls-6" d="M179.55,103.17l.22.6.21.61-4.53,1.54-.18-.56-.21-.55Z"/><path class="cls-6" d="M178.39,100.23s.21.51.43,1l.4,1-4.47,1.7-.36-.95-.4-.94Z"/><polygon class="cls-6" points="174.99 93.47 176.26 95.75 172.03 97.99 170.87 95.89 174.99 93.47"/><polygon class="cls-6" points="171.66 88.41 172.4 89.45 168.48 92.2 167.81 91.23 171.66 88.41"/><path class="cls-6" d="M173,90.27s.37.52.71,1.06.67,1.09.67,1.09l-4.07,2.5-.62-1c-.3-.51-.65-1-.65-1Z"/><path class="cls-6" d="M167.73,83.6s.3.33.59.68l.59.68-3.63,3.11-.54-.63c-.27-.32-.55-.62-.55-.62Z"/><polygon class="cls-6" points="170.17 86.47 171.31 87.95 167.49 90.82 166.43 89.45 170.17 86.47"/><path class="cls-6" d="M164.6,80.42l.76.73c.39.36.75.74.75.74l-3.41,3.36s-.33-.35-.69-.69l-.7-.66Z"/><polygon class="cls-6" points="162.23 78.3 162.7 78.7 159.56 82.31 159.13 81.94 162.23 78.3"/><path class="cls-6" d="M148.18,93.62l3.61-4.4,1,.88.7.61.31.29-.67,1.27.41.39c.24.24.58.54.89.88l1.25,1.32,1.27-.64.48.57c.29.34.69.77,1,1.25s.72.94,1,1.29l.42.61L159,99l.32.47c.21.28.45.66.69,1l.66,1.06.28.49,1.38-.36s.15.26.36.65.49.91.75,1.45.53,1,.7,1.47.29.67.29.67l-1.12.88.23.53.44,1.17c.16.42.32.85.42,1.17l.18.55,1.43-.07.22.7c.12.43.28,1,.43,1.57s.27,1.16.38,1.59.16.72.16.72l-1.29.63s.16.9.31,1.79.23,1.81.23,1.81l1.42.22s.1,1.18.16,2.37c0,.59,0,1.18.05,1.63s0,.74,0,.74l-1.39.35s0,.23,0,.57,0,.79-.06,1.25-.06.91-.08,1.24a5.17,5.17,0,0,1-.06.57l1.33.51s0,.3-.08.74-.13,1-.24,1.61c-.17,1.17-.44,2.33-.44,2.33l-1.43.06s0,.22-.12.55-.2.77-.32,1.21c-.22.89-.52,1.74-.52,1.74l1.21.78s-.1.29-.23.71-.37,1-.57,1.52-.45,1.1-.62,1.51l-.3.68-1.4-.24-.8,1.63c-.2.42-.44.8-.6,1.11l-.28.49,1,1a5.66,5.66,0,0,1-.38.64c-.23.38-.55.88-.86,1.38-.66,1-1.35,1.95-1.35,1.95l-1.33-.53-1.12,1.44-1.18,1.38.79,1.2s-.2.23-.5.55L155,155.1l-1.72,1.63-1.2-.79-1.38,1.18-1.44,1.11.52,1.33s-1,.69-1.95,1.34l-1.38.87c-.38.24-.64.37-.64.37l-1-1-.5.28c-.29.17-.69.39-1.1.59s-.81.4-1.12.55a5,5,0,0,1-.51.24l.23,1.41-1.25.54-1.26.49-2-5.34a32.1,32.1,0,0,0,3.21-1.37,38.78,38.78,0,0,0,7.72-4.94,39.36,39.36,0,0,0,8.49-9.79,38.82,38.82,0,0,0-.21-40.67A37.8,37.8,0,0,0,150.78,96l-1.07-1-.84-.72Zm5.36,56s-.6.73-1.59,1.74c-.48.52-1.11,1.06-1.74,1.68s-1.36,1.21-2.11,1.77a41,41,0,0,1-4.26,2.94l-1.49.83a5.19,5.19,0,0,1-.58.3l.81,1.56a5,5,0,0,0,.59-.31l1.56-.87a42.59,42.59,0,0,0,4.45-3.07c.79-.58,1.51-1.26,2.21-1.85s1.32-1.21,1.81-1.76c1-1,1.66-1.81,1.66-1.81Zm9-33.63s.07.42.2,1.15c.07.37.14.82.2,1.34s.16,1.1.19,1.74a40.62,40.62,0,0,1-.3,9.39,39.82,39.82,0,0,1-2.5,9.05c-.25.59-.48,1.13-.69,1.6l-.6,1.21a11.32,11.32,0,0,1-.55,1l1.55.83s.23-.38.57-1.08l.62-1.27.73-1.67a41.33,41.33,0,0,0,2.6-9.46,42,42,0,0,0,.32-9.8c0-.67-.14-1.27-.2-1.82s-.14-1-.21-1.39c-.13-.77-.21-1.21-.21-1.21ZM149.08,93.24l.82.71c.26.21.57.5.91.83s.75.7,1.15,1.13a38.57,38.57,0,0,1,5.32,6.77,39.07,39.07,0,0,1,3.74,7.77c.37,1.11.67,2,.83,2.71s.28,1,.28,1l1.71-.42s-.11-.39-.29-1.09-.49-1.67-.88-2.84a41.47,41.47,0,0,0-9.45-15.18c-.42-.45-.85-.82-1.21-1.17s-.67-.65-.95-.88c-.54-.47-.86-.73-.86-.73Z"/><path class="cls-6" d="M145.6,96.78s.22.18.62.54L147,98l1,.92a33.64,33.64,0,0,1,5.13,6.39A34.4,34.4,0,0,1,157.45,116a34.89,34.89,0,0,1,.4,13.27,34.5,34.5,0,0,1-4.6,12.4,34.37,34.37,0,0,1-14.51,13.19c-.88.44-1.61.73-2.1.95l-.76.28-.27-.71.75-.29c.47-.21,1.18-.48,2-.91a34.12,34.12,0,0,0,6.75-4.32,34.67,34.67,0,0,0,7.44-8.58,33.93,33.93,0,0,0,4.1-25.11,33.81,33.81,0,0,0-9.31-16.73l-.94-.9-.73-.62-.6-.53Z"/><path class="cls-6" d="M154.26,86.21l.86.74,1,.89,1.34,1.28A47.81,47.81,0,0,1,164.66,98a48.39,48.39,0,0,1,.25,50.74A49.14,49.14,0,0,1,154.33,161a48.51,48.51,0,0,1-9.64,6.17c-1.24.61-2.26,1-2.94,1.31l-1.06.41-.27-.72,1.05-.4c.67-.29,1.66-.68,2.89-1.29a47.63,47.63,0,0,0,19.65-68A46.61,46.61,0,0,0,157,89.66l-1.31-1.25-1-.88-.85-.73Z"/><path class="cls-6" d="M149.73,170.27l-.59.33c-.35.2-.83.46-1.32.69l-1.33.66a5.3,5.3,0,0,1-.61.28l-1.6-3.49s.23-.09.57-.26l1.23-.62c.46-.21.9-.45,1.23-.64l.54-.3Z"/><path class="cls-6" d="M169.73,150.68s-.13.23-.35.58l-.79,1.26c-.28.46-.58.9-.82,1.23l-.38.56-3.15-2.22.36-.51c.22-.3.5-.72.76-1.15l.73-1.16c.21-.32.33-.54.33-.54Z"/><path class="cls-6" d="M176.61,130.7s0,.27-.09.67-.15.93-.24,1.47-.18,1.06-.27,1.46l-.15.66-3.75-.81s0-.25.13-.62.17-.86.25-1.35.16-1,.23-1.36.08-.63.08-.63Z"/><path class="cls-6" d="M169.77,96.61l1,1.89c.5,1,1,1.93,1,1.93l-3.46,1.67s-.44-.91-.9-1.79l-1-1.76Z"/><path class="cls-6" d="M165.78,90.75l.41.53c.25.33.59.75.89,1.2l1.23,1.78-3.21,2.11L164,94.72c-.27-.42-.59-.81-.82-1.11l-.38-.49Z"/><path class="cls-6" d="M137.35,157.64c.12.31.05.62-.17.7s-.49-.1-.6-.41,0-.63.16-.71S137.23,157.33,137.35,157.64Z"/><path class="cls-6" d="M138.9,157c.14.3.08.62-.14.71s-.49-.07-.62-.38-.07-.63.14-.71S138.76,156.67,138.9,157Z"/><path class="cls-6" d="M140.42,156.23c.15.3.1.62-.11.72s-.49,0-.63-.35-.1-.62.1-.72S140.26,155.94,140.42,156.23Z"/><path class="cls-6" d="M141.9,155.43a.53.53,0,0,1-.07.72c-.2.11-.5,0-.66-.33s-.12-.61.07-.72S141.73,155.14,141.9,155.43Z"/><path class="cls-6" d="M143.34,154.55a.53.53,0,0,1,0,.73c-.19.12-.49,0-.66-.29s-.16-.61,0-.73S143.16,154.27,143.34,154.55Z"/><path class="cls-6" d="M144.74,153.61c.19.27.19.6,0,.73a.52.52,0,0,1-.68-.26c-.18-.27-.19-.6,0-.73S144.54,153.34,144.74,153.61Z"/><path class="cls-6" d="M146.09,152.61a.53.53,0,0,1,0,.72c-.19.15-.49,0-.69-.22a.55.55,0,0,1,0-.73C145.58,152.24,145.89,152.34,146.09,152.61Z"/><path class="cls-6" d="M147.4,151.54a.55.55,0,0,1,.07.73c-.18.15-.49.06-.7-.19s-.24-.59-.07-.73S147.18,151.29,147.4,151.54Z"/><path class="cls-6" d="M148.65,150.42c.23.24.28.56.11.72s-.48.09-.71-.16-.26-.57-.1-.72S148.43,150.18,148.65,150.42Z"/><path class="cls-6" d="M149.86,149.23c.24.23.3.56.14.72s-.49.11-.72-.13a.54.54,0,0,1-.13-.71C149.31,148.94,149.62,149,149.86,149.23Z"/><path class="cls-6" d="M151,148c.25.21.33.54.18.71a.55.55,0,0,1-.73-.1c-.24-.23-.31-.54-.16-.71A.52.52,0,0,1,151,148Z"/><path class="cls-6" d="M152.12,146.71c.25.2.35.52.19.7a.55.55,0,0,1-.73-.07c-.25-.22-.34-.53-.19-.7S151.86,146.5,152.12,146.71Z"/><path class="cls-6" d="M153.16,145.37a.52.52,0,0,1,.22.69c-.14.18-.47.16-.74,0s-.36-.51-.22-.69A.56.56,0,0,1,153.16,145.37Z"/><path class="cls-6" d="M154.12,144a.52.52,0,0,1,.26.68c-.13.19-.46.19-.73,0s-.39-.5-.26-.68A.55.55,0,0,1,154.12,144Z"/><path class="cls-6" d="M155,142.55c.28.17.41.47.29.67s-.45.21-.73,0-.41-.47-.29-.66S154.74,142.38,155,142.55Z"/><path class="cls-6" d="M155.87,141.09c.29.16.43.45.32.65s-.44.23-.73.07-.43-.46-.32-.65S155.58,140.93,155.87,141.09Z"/><path class="cls-6" d="M156.64,139.59c.29.14.45.43.35.64s-.42.25-.72.1-.45-.44-.35-.64S156.34,139.45,156.64,139.59Z"/><path class="cls-6" d="M157.34,138.06c.3.13.47.4.38.62s-.41.27-.71.13-.48-.41-.39-.62S157,137.93,157.34,138.06Z"/><path class="cls-6" d="M158,136.49c.31.12.5.39.42.61s-.4.29-.71.16-.49-.39-.41-.6S157.65,136.38,158,136.49Z"/><path class="cls-6" d="M158.52,134.9c.31.1.51.36.44.58a.5.5,0,0,1-.69.2c-.31-.1-.51-.37-.45-.58S158.2,134.8,158.52,134.9Z"/><path class="cls-6" d="M159,133.28c.32.09.53.34.47.57s-.37.32-.69.23-.52-.35-.46-.56S158.68,133.2,159,133.28Z"/><path class="cls-6" d="M159.41,131.65c.32.07.54.31.49.54s-.35.34-.68.26-.53-.32-.48-.54S159.08,131.58,159.41,131.65Z"/><path class="cls-6" d="M159.74,130c.32.06.56.29.52.52s-.35.36-.67.29-.54-.29-.51-.51S159.41,129.94,159.74,130Z"/><path class="cls-6" d="M160,128.32c.33,0,.57.27.55.5s-.34.37-.66.32-.56-.27-.53-.49S159.66,128.28,160,128.32Z"/><path class="cls-6" d="M160.17,126.64c.33,0,.58.24.57.47s-.32.39-.65.36-.57-.25-.55-.47S159.84,126.62,160.17,126.64Z"/><path class="cls-6" d="M160.27,125c.33,0,.6.21.59.44s-.3.4-.63.38-.59-.22-.57-.44S159.93,124.94,160.27,125Z"/><path class="cls-6" d="M160.29,123.27c.33,0,.61.18.6.41s-.27.42-.61.41-.59-.19-.59-.41S160,123.27,160.29,123.27Z"/><path class="cls-6" d="M160.24,121.58c.33,0,.61.15.62.38s-.26.43-.59.44-.61-.16-.61-.38S159.91,121.6,160.24,121.58Z"/><path class="cls-6" d="M160.1,119.89c.34,0,.62.12.64.36s-.24.44-.57.46-.61-.13-.63-.35S159.78,119.92,160.1,119.89Z"/><path class="cls-6" d="M159.9,118.21c.33,0,.61.1.64.33s-.22.45-.54.49-.62-.1-.65-.33S159.57,118.26,159.9,118.21Z"/><path class="cls-6" d="M159.61,116.55c.32-.07.62.07.66.29s-.2.46-.52.52-.63-.08-.66-.3S159.28,116.61,159.61,116.55Z"/><path class="cls-6" d="M159.25,114.89c.32-.07.62,0,.67.27s-.17.47-.5.54-.62,0-.67-.26S158.92,115,159.25,114.89Z"/><path class="cls-6" d="M158.8,113.26c.32-.09.63,0,.69.24s-.15.47-.47.56-.63,0-.68-.24S158.49,113.36,158.8,113.26Z"/><path class="cls-6" d="M158.29,111.65a.54.54,0,0,1,.7.21c.07.22-.13.48-.45.58s-.62,0-.69-.2S158,111.76,158.29,111.65Z"/><path class="cls-6" d="M157.7,110.07c.31-.12.63,0,.71.17s-.1.49-.41.6-.63,0-.71-.17S157.39,110.2,157.7,110.07Z"/><path class="cls-6" d="M157,108.52c.31-.14.63-.08.72.14s-.08.48-.39.61-.62.07-.71-.13S156.74,108.65,157,108.52Z"/><path class="cls-6" d="M156.32,107a.53.53,0,0,1,.72.1c.1.21-.06.49-.36.64s-.62.09-.72-.11S156,107.15,156.32,107Z"/><path class="cls-6" d="M155.52,105.51c.28-.16.61-.13.72.07s0,.49-.32.65-.62.13-.73-.07S155.23,105.68,155.52,105.51Z"/><path class="cls-6" d="M154.65,104.07a.54.54,0,0,1,.73,0c.12.2,0,.49-.29.66s-.61.16-.73,0S154.37,104.24,154.65,104.07Z"/><path class="cls-6" d="M153.72,102.66c.27-.19.6-.19.73,0a.52.52,0,0,1-.26.68c-.28.18-.6.18-.73,0S153.45,102.85,153.72,102.66Z"/><path class="cls-6" d="M152.72,101.3c.26-.2.59-.22.73,0s.05.49-.22.68-.6.22-.73,0S152.46,101.5,152.72,101.3Z"/><path class="cls-6" d="M151.66,100c.26-.22.58-.25.74-.07s0,.49-.2.7a.55.55,0,0,1-.73.06C151.32,100.51,151.41,100.2,151.66,100Z"/><path class="cls-6" d="M150.55,98.72a.55.55,0,0,1,.73-.1c.16.17.07.5-.18.71s-.56.26-.71.1S150.3,99,150.55,98.72Z"/><path class="cls-6" d="M149.37,97.51c.23-.23.56-.3.73-.14s.09.5-.15.73-.55.28-.7.12S149.14,97.75,149.37,97.51Z"/><path class="cls-6" d="M148.14,96.35c.22-.25.55-.33.71-.16s.12.48-.1.73-.55.31-.71.15S147.92,96.6,148.14,96.35Z"/><path class="cls-6" d="M146.86,95.24c.21-.25.52-.34.7-.19a.56.56,0,0,1-.07.74c-.22.25-.53.33-.7.18S146.65,95.5,146.86,95.24Z"/></g><g class="cls-7"><path class="cls-4" d="M96.85,156.3l-1.14-1c-.38-.3-.82-.72-1.32-1.21l-.83-.79-.88-.94a41.65,41.65,0,0,1-8.07-12.52,42.85,42.85,0,0,1-2.71-9.66,40.58,40.58,0,0,1-.5-5.48c-.06-.94,0-1.89,0-2.84,0-.48.07-1,.09-1.44a11.86,11.86,0,0,1,.14-1.45,42.14,42.14,0,0,1,29.16-35.6,13.11,13.11,0,0,1,1.39-.42c.47-.12.93-.27,1.39-.38.94-.19,1.86-.43,2.79-.56a41.57,41.57,0,0,1,5.47-.6,43.18,43.18,0,0,1,10,.76,41.64,41.64,0,0,1,13.87,5.44l1.09.68.94.66c.58.4,1.08.74,1.45,1.06l1.19.92-5.16,6.31-1-.75a13.81,13.81,0,0,0-1.18-.85l-.76-.54-.88-.54a33.39,33.39,0,0,0-11.16-4.39,34.87,34.87,0,0,0-8.09-.61,32.43,32.43,0,0,0-4.42.48c-.75.1-1.49.31-2.25.46-.38.09-.75.21-1.12.31a9.1,9.1,0,0,0-1.13.33,34,34,0,0,0-23.52,28.71,9.24,9.24,0,0,0-.1,1.17c0,.39-.07.78-.08,1.16,0,.78-.06,1.55,0,2.3a33.47,33.47,0,0,0,.39,4.43,35,35,0,0,0,2.19,7.81,33.5,33.5,0,0,0,6.5,10.08l.71.76.67.63a14.28,14.28,0,0,0,1.08,1l.92.8Z"/><polygon class="cls-4" points="185.44 41.7 186.8 42.76 180.05 51.4 178.83 50.45 185.44 41.7"/><polygon class="cls-4" points="187.67 43.44 188.65 44.21 181.71 52.7 180.83 52 187.67 43.44"/><path class="cls-4" d="M178.9,37.15s1.38.85,2.69,1.78l2.63,1.85-6.48,8.85L175.38,48c-1.16-.84-2.39-1.59-2.39-1.59Z"/><polygon class="cls-4" points="167.19 30.67 169.31 31.72 164.43 41.53 162.53 40.6 167.19 30.67"/><path class="cls-4" d="M150.33,24.52s1.27.33,2.52.69l2.5.8L152,36.44l-2.23-.71c-1.12-.33-2.25-.62-2.25-.62Z"/><path class="cls-4" d="M157,26.53s.33.1.8.28l1.76.65,2.53,1-4.1,10.17-2.27-.86-1.56-.58c-.43-.16-.72-.25-.72-.25Z"/><polygon class="cls-4" points="123.68 20.98 127.41 21.05 127.01 32.01 123.68 31.95 123.68 20.98"/><polygon class="cls-4" points="140.21 22.34 142.92 22.8 140.87 33.57 138.44 33.16 140.21 22.34"/><path class="cls-4" d="M117.64,21.16l.65,0,1.43-.05L121.8,21l.2,11-1.86.05-1.28,0-.58,0Z"/><path class="cls-4" d="M98.65,24.06l1.7-.4,1.71-.38L104.36,34l-1.53.33c-.76.17-1.52.36-1.52.36Z"/><path class="cls-4" d="M84.27,28.81s.66-.28,1.33-.53l1.34-.52L90.85,38l-1.19.45c-.6.22-1.19.48-1.19.48Z"/><path class="cls-4" d="M74.63,33.42s.71-.41,1.44-.78l1.46-.73,4.92,9.8-1.3.65c-.65.33-1.29.69-1.29.69Z"/><path class="cls-4" d="M66.63,38.24s.32-.24.82-.54,1.16-.73,1.82-1.15l1.82-1.13c.5-.31.85-.5.85-.5l5.52,9.48s-.31.16-.75.44l-1.64,1-1.62,1c-.45.28-.73.49-.73.49Z"/><path class="cls-4" d="M62.77,40.94l1.17-.84,1.18-.82,6.26,9L70.32,49l-1,.75Z"/><path class="cls-4" d="M49.61,52.52l.75-.78c.45-.47,1.06-1.1,1.7-1.69l2.53-2.39L62,55.77,59.71,57.9c-.57.53-1.11,1.09-1.51,1.51l-.68.7Z"/><polygon class="cls-4" points="55.12 47.17 57.06 45.5 64.18 53.84 62.44 55.33 55.12 47.17"/><path class="cls-4" d="M40,64.07s.45-.65.91-1.29l1-1.26,8.73,6.64-.86,1.12L49,70.44Z"/><polygon class="cls-4" points="34.03 73.54 35.14 71.59 44.58 77.15 43.6 78.9 34.03 73.54"/><polygon class="cls-4" points="34.17 73.3 35.18 71.51 44.62 77.08 43.72 78.68 34.17 73.3"/><polygon class="cls-4" points="24.48 97.06 24.89 95.53 35.44 98.53 35.07 99.89 24.48 97.06"/><path class="cls-4" d="M21.58,112.53l.24-2c.06-.5.13-1,.17-1.38l.1-.62,10.85,1.61s0,.22-.09.55-.1.79-.15,1.24c-.11.89-.21,1.79-.21,1.79Z"/><path class="cls-4" d="M23.7,100.1s.07-.3.17-.76l.44-1.65.64-2.4,10.54,3s-.28,1.07-.57,2.15c-.14.53-.29,1.07-.39,1.47s-.16.68-.16.68Z"/><path class="cls-4" d="M21,122.79l0-2c0-1,0-2,0-2l11,.5L32,122.87Z"/><polygon class="cls-4" points="21.64 112.02 21.95 109.44 32.81 110.95 32.54 113.25 21.64 112.02"/><polygon class="cls-4" points="21.35 132.22 21.11 128.91 32.06 128.35 32.28 131.29 21.35 132.22"/><path class="cls-4" d="M22.36,140.3l-.15-.87c-.1-.54-.19-1.24-.28-2-.18-1.42-.35-2.84-.35-2.84l10.9-1.17s.16,1.26.31,2.53c.08.63.17,1.27.25,1.74s.14.79.14.79Z"/><path class="cls-4" d="M27.32,159.14s-.6-1.57-1.1-3.17l-.71-2.2c-.2-.6-.31-1-.31-1l10.51-3.1s.1.36.28.89l.63,2c.45,1.43,1,2.84,1,2.84Z"/><path class="cls-4" d="M33.85,173.38,33,171.93c-.2-.36-.39-.73-.52-1l-.24-.46,9.76-5,.21.41c.12.25.29.58.47.9l.72,1.3Z"/><path class="cls-4" d="M31.14,168.16l-.45-.92c-.27-.56-.59-1.32-.93-2.08s-.65-1.51-.9-2.08-.39-1-.39-1L38.63,158s.13.35.36.85l.8,1.86c.3.68.59,1.36.83,1.85l.4.83Z"/><path class="cls-4" d="M42.71,186.77s-.71-.93-1.43-1.85c-.35-.46-.7-.93-.94-1.29s-.42-.6-.42-.6l8.94-6.35.37.53c.22.33.53.75.85,1.16L51.35,180Z"/><path class="cls-4" d="M37.08,178.82l-1.28-2.06c-.66-1-1.23-2.09-1.23-2.09l9.51-5.45s.51.95,1.1,1.86l1.14,1.84Z"/><path class="cls-4" d="M50.31,195.45l-1.88-2c-.46-.5-.93-1-1.27-1.37l-.56-.65,8.22-7.25.5.57c.3.35.72.78,1.14,1.23l1.67,1.76Z"/><polygon class="cls-4" points="56.31 201.09 55.11 200.04 62.43 191.87 63.5 192.81 56.31 201.09"/><path class="cls-4" d="M88.79,166.15l-8.28,10.1-2.36-2c-.59-.5-1.13-1.06-1.56-1.46l-.7-.67.8-1.42c.42-.7.83-1.41.83-1.41l-.88-.93c-.53-.57-1.26-1.29-1.91-2.09s-1.36-1.54-1.82-2.16l-.78-1-1.52.63-1.52.61s-.43-.53-1-1.37S66.71,161,66,159.83L65,158.13c-.3-.55-.59-1.08-.84-1.52l-.6-1.08a4,4,0,0,1-.22-.41L64.52,154l1.22-1.09s-.22-.46-.57-1.15-.75-1.64-1.16-2.57-.78-1.91-1.05-2.63-.46-1.19-.46-1.19l-1.63.13-1.63.11s-.88-2.57-1.55-5.21c-.33-1.32-.6-2.65-.83-3.65s-.28-1.67-.28-1.67l1.48-.68,1.5-.66a12.58,12.58,0,0,1-.19-1.27c-.09-.77-.24-1.78-.33-2.81s-.15-2-.21-2.82,0-1.28,0-1.28l-1.6-.37-1.59-.4s0-.16,0-.46,0-.72,0-1.23c0-1,0-2.39.13-3.74,0-.68.09-1.36.13-2s.14-1.23.2-1.73l.2-1.69,1.64-.19,1.63-.17s.09-.51.21-1.27.34-1.76.56-2.77.46-2,.67-2.74l.33-1.24s-.7-.43-1.41-.84l-1.39-.87s.21-.64.52-1.61.8-2.25,1.27-3.52,1.07-2.5,1.46-3.44.74-1.53.74-1.53l1.6.32,1.61.33s.21-.46.57-1.14.88-1.57,1.38-2.47,1.09-1.74,1.49-2.4.71-1.07.71-1.07l-1.07-1.23-1.06-1.25,1-1.39c.6-.82,1.45-1.88,2.28-3s1.77-2.07,2.45-2.82l1.18-1.23,1.43.79,1.42.81a12.47,12.47,0,0,1,.91-.91c.56-.52,1.3-1.24,2.06-1.93l2.14-1.84c.6-.49,1-.79,1-.79l-.64-1.51c-.32-.75-.63-1.51-.63-1.51s.52-.43,1.35-1,1.93-1.38,3.09-2.1S89,65,89.94,64.5l1.49-.83,1.11,1.19,1.11,1.22,1.15-.57c.69-.35,1.61-.81,2.56-1.2s1.88-.83,2.61-1.09l1.2-.45L101,61.13c-.07-.82-.13-1.64-.13-1.64l1.61-.53,1.66-.54,1.92-.52c1.31-.39,2.65-.63,3.64-.87.5-.11.91-.2,1.21-.24l.46-.08.7,1.49.68,1.49,1.26-.22,2.81-.35c1-.12,2-.17,2.81-.23s1.29-.07,1.29-.07.18-.8.35-1.59.37-1.6.37-1.6l1.7-.05c1,0,2.38,0,3.74.1,2.72.13,5.41.49,5.41.49s.11.81.21,1.62l.2,1.62,1.26.21c.76.13,1.78.28,2.78.52s2,.42,2.75.64l1.24.33.83-1.42c.42-.71.85-1.41.85-1.41l.44.13,1.18.38,1.66.53,1.87.7c1.28.45,2.52,1,3.45,1.42s1.55.7,1.55.7l-.3,1.62c-.16.8-.33,1.61-.33,1.61l1.16.57c.69.33,1.57.86,2.47,1.35s1.76,1.06,2.42,1.46l1.09.68,1.22-1.08,1.23-1.07.8.55c.47.35,1.13.77,1.74,1.25L166.73,71l-8.28,10.1-1.54-1.19c-.49-.41-1.13-.85-1.89-1.37l-1.21-.85-1.42-.89a54.62,54.62,0,0,0-18.09-7.1,55.84,55.84,0,0,0-13-1,55,55,0,0,0-7.1.77c-1.2.18-2.4.48-3.62.74-.6.14-1.2.33-1.8.49s-1.22.33-1.82.54A54.72,54.72,0,0,0,93,78a58.12,58.12,0,0,0-6.29,4.94A54.84,54.84,0,0,0,76.44,95.41a55.63,55.63,0,0,0-3.6,7.15,54.36,54.36,0,0,0-3.85,15c-.09.63-.14,1.26-.18,1.88s-.09,1.26-.12,1.87c0,1.25-.07,2.48,0,3.7a56.41,56.41,0,0,0,.64,7.11,55.78,55.78,0,0,0,3.53,12.56,54.29,54.29,0,0,0,10.53,16.33c.4.43.78.84,1.15,1.22l1.06,1c.66.63,1.23,1.17,1.72,1.57Zm31.65-99.42.36,0,1,0,1.6,0,2.08,0a58,58,0,0,1,11.06,1.45,55.3,55.3,0,0,1,10.54,3.57c1.38.65,2.51,1.21,3.3,1.63l1.21.68,2-3.5-1.31-.73c-.84-.44-2.05-1-3.53-1.74a58.9,58.9,0,0,0-11.29-3.83,62.78,62.78,0,0,0-11.84-1.55l-2.22,0-1.72,0-1.1,0-.39,0ZM67.29,115l.11-.66c.08-.42.15-1,.32-1.84A57.81,57.81,0,0,1,73,97.36a58.09,58.09,0,0,1,5.9-9.08A57.4,57.4,0,0,1,94.06,74.9c.57-.38,1.17-.68,1.71-1s1.07-.62,1.57-.86c1-.49,1.87-1,2.62-1.27l1.72-.75c.39-.18.61-.26.61-.26L100.78,67s-.23.08-.65.27l-1.84.81c-.79.33-1.72.84-2.8,1.36-.54.26-1.09.59-1.68.92s-1.22.65-1.84,1.06A61.68,61.68,0,0,0,75.79,85.78a62.48,62.48,0,0,0-6.32,9.72,61.26,61.26,0,0,0-5.69,16.24c-.18.84-.27,1.52-.35,2l-.12.7Zm19.49,52.05-.46-.4c-.29-.27-.76-.62-1.3-1.14l-1.93-1.85c-.69-.77-1.54-1.57-2.35-2.54A57,57,0,0,1,71,145.42a58,58,0,0,1-4.19-18.07c-.12-1.27-.08-2.43-.13-3.46s0-1.94,0-2.68c.09-1.48.15-2.32.15-2.32l-4-.33s-.06.9-.16,2.49c0,.79,0,1.75-.06,2.86s0,2.35.15,3.7A62.09,62.09,0,0,0,67.24,147a61,61,0,0,0,10.48,16.84c.87,1,1.77,1.91,2.52,2.72s1.49,1.43,2.06,2,1.07.94,1.39,1.22l.49.43Z"/><path class="cls-4" d="M94.71,158.91s-.43-.36-1.23-1.06c-.41-.33-.88-.78-1.43-1.31-.27-.27-.57-.55-.89-.85s-.61-.66-1-1a45.1,45.1,0,0,1-8.72-13.54,46.16,46.16,0,0,1-2.93-10.43A43.56,43.56,0,0,1,78,124.8c-.06-1,0-2,0-3.07,0-.51.07-1,.1-1.55a14.08,14.08,0,0,1,.14-1.57,45.54,45.54,0,0,1,31.5-38.45c.49-.18,1-.32,1.5-.45s1-.29,1.5-.41c1-.2,2-.47,3-.61a45,45,0,0,1,5.9-.64,46,46,0,0,1,10.8.81,45.08,45.08,0,0,1,15,5.89l1.18.73,1,.71c.63.43,1.16.8,1.57,1.14l1.29,1-1.12,1.36-1.23-1c-.39-.33-.91-.69-1.51-1.1l-1-.68-1.14-.71a43.41,43.41,0,0,0-14.4-5.66,44.87,44.87,0,0,0-10.39-.78,43.23,43.23,0,0,0-5.68.62c-1,.13-1.92.39-2.89.59-.48.11-1,.26-1.45.39a14.84,14.84,0,0,0-1.44.43A43.81,43.81,0,0,0,80,118.8c-.07.51-.11,1-.13,1.51s-.09,1-.1,1.49c0,1-.07,2,0,3a42.07,42.07,0,0,0,.51,5.68,44.11,44.11,0,0,0,2.82,10,43.24,43.24,0,0,0,8.38,13l.92,1,.86.82c.52.51,1,.95,1.37,1.27l1.18,1Z"/><path class="cls-4" d="M74.86,183.15l-2.06-1.77c-.68-.56-1.47-1.31-2.4-2.2-.46-.44-1-.91-1.48-1.43l-1.62-1.7a76.51,76.51,0,0,1-14.76-22.92,77.41,77.41,0,0,1-4.93-17.56,74.48,74.48,0,0,1-.9-9.94c-.08-1.7,0-3.42,0-5.16,0-.87.11-1.74.16-2.62s.13-1.75.24-2.63a76.9,76.9,0,0,1,5.4-21.09,79.77,79.77,0,0,1,5-10,84.81,84.81,0,0,1,6.5-9.24,82.6,82.6,0,0,1,7.79-8.19,78,78,0,0,1,8.83-6.93,76.45,76.45,0,0,1,19.61-9.45c.84-.29,1.69-.53,2.54-.75s1.68-.48,2.53-.68c1.7-.37,3.37-.78,5.06-1a76.1,76.1,0,0,1,9.91-1.07,78,78,0,0,1,18.2,1.37,76.5,76.5,0,0,1,25.37,10c.7.44,1.37.85,2,1.25s1.17.81,1.7,1.17c1,.73,1.94,1.36,2.63,1.92l2.14,1.67-1.11,1.35-2.09-1.62c-.67-.55-1.55-1.17-2.58-1.88-.51-.36-1.06-.75-1.66-1.15L163,59.57a74.8,74.8,0,0,0-24.79-9.73,76.21,76.21,0,0,0-17.78-1.34,74.29,74.29,0,0,0-9.69,1c-1.65.25-3.29.65-4.95,1-.82.2-1.64.44-2.47.66s-1.66.46-2.48.74A75,75,0,0,0,81.67,61.2,77.42,77.42,0,0,0,73.05,68,75,75,0,0,0,59.09,85a77.38,77.38,0,0,0-4.94,9.79,74.83,74.83,0,0,0-5.27,20.61c-.12.86-.19,1.72-.24,2.57s-.13,1.71-.16,2.56c0,1.7-.1,3.38,0,5a74.23,74.23,0,0,0,.88,9.7,75.82,75.82,0,0,0,4.82,17.17,74.85,74.85,0,0,0,14.42,22.39l1.58,1.66c.51.51,1,1,1.46,1.41.9.87,1.67,1.6,2.34,2.15l2,1.73Z"/><path class="cls-4" d="M163.17,44.26l1.51.75c.88.48,2.06,1.14,3.23,1.8s2.29,1.39,3.16,1.92l1.42.89L167.62,57l-1.28-.81c-.78-.47-1.78-1.15-2.84-1.73s-2.11-1.19-2.92-1.61l-1.35-.68Z"/><path class="cls-4" d="M94.66,39.81l1.6-.53c.95-.31,2.23-.72,3.54-1.06s2.58-.72,3.57-.92l1.64-.36,1.85,8.62-1.48.33c-.89.18-2,.51-3.22.83s-2.32.67-3.18,1l-1.44.47Z"/><path class="cls-4" d="M52.6,70.54l1-1.33c.62-.79,1.43-1.86,2.32-2.86s1.74-2,2.43-2.77l1.15-1.21,6.39,6.09-1,1.09c-.62.66-1.39,1.59-2.18,2.5s-1.54,1.87-2.09,2.58l-.93,1.19Z"/><path class="cls-4" d="M40.38,154.18l-.16-.44c-.11-.27-.26-.66-.41-1.14-.31-1-.72-2.24-1.14-3.52s-.71-2.59-1-3.56c-.14-.49-.23-.9-.3-1.18s-.1-.45-.1-.45l8.59-2s0,.15.09.41.14.63.26,1.07l.88,3.2,1,3.17c.13.43.27.79.36,1s.15.38.15.38Z"/><path class="cls-4" d="M48.06,170l-.88-1.44c-.5-.88-1.15-2.05-1.81-3.23s-1.21-2.4-1.66-3.3-.72-1.52-.72-1.52l8-3.67s.23.56.65,1.37.92,1.91,1.49,3l1.63,2.91c.48.77.79,1.29.79,1.29Z"/><path class="cls-4" d="M154.06,83.76c.46-.6,1.14-.85,1.53-.55s.3,1-.18,1.59-1.17.84-1.53.56S153.6,84.37,154.06,83.76Z"/><path class="cls-4" d="M151.24,81.73c.42-.64,1.08-.92,1.47-.65s.36,1-.08,1.63-1.1.9-1.47.64S150.83,82.36,151.24,81.73Z"/><path class="cls-4" d="M148.28,79.93c.37-.66,1-1,1.44-.77s.41,1,0,1.63-1,1-1.42.74S147.9,80.6,148.28,79.93Z"/><path class="cls-4" d="M145.22,78.33c.32-.68.93-1.07,1.37-.85s.49.93.14,1.6-1,1.06-1.37.86S144.89,79,145.22,78.33Z"/><path class="cls-4" d="M142.05,77c.28-.71.87-1.16,1.31-1s.55.92.25,1.61-.89,1.12-1.31.94S141.77,77.66,142.05,77Z"/><path class="cls-4" d="M138.79,75.8c.23-.73.79-1.2,1.24-1s.62.86.37,1.57-.81,1.17-1.24,1S138.57,76.52,138.79,75.8Z"/><path class="cls-4" d="M135.47,74.85c.17-.74.69-1.23,1.16-1.11s.68.82.47,1.55-.73,1.23-1.16,1.11S135.29,75.59,135.47,74.85Z"/><path class="cls-4" d="M132.07,74.17c.13-.75.62-1.29,1.09-1.22s.73.79.58,1.53-.64,1.26-1.08,1.18S132,74.92,132.07,74.17Z"/><path class="cls-4" d="M128.64,73.7c.07-.76.52-1.32,1-1.26s.79.7.69,1.46-.56,1.32-1,1.27S128.57,74.46,128.64,73.7Z"/><path class="cls-4" d="M125.18,73.48c0-.75.43-1.38.91-1.35s.84.68.79,1.43-.46,1.35-.92,1.32S125.16,74.25,125.18,73.48Z"/><path class="cls-4" d="M121.71,73.5c0-.76.34-1.39.82-1.4s.88.59.88,1.35-.37,1.39-.82,1.4S121.74,74.26,121.71,73.5Z"/><path class="cls-4" d="M118.25,73.74c-.09-.75.24-1.43.72-1.45s.92.55,1,1.31-.27,1.4-.72,1.43S118.33,74.5,118.25,73.74Z"/><path class="cls-4" d="M114.81,74.24c-.13-.75.15-1.42.62-1.5s.95.46,1.06,1.22-.18,1.41-.62,1.5S115,75,114.81,74.24Z"/><path class="cls-4" d="M111.42,75c-.19-.74,0-1.42.51-1.52s1,.41,1.14,1.15-.07,1.43-.52,1.53S111.6,75.68,111.42,75Z"/><path class="cls-4" d="M108.09,75.92c-.24-.72-.06-1.43.4-1.58s1,.36,1.22,1.08,0,1.4-.42,1.55S108.32,76.64,108.09,75.92Z"/><path class="cls-4" d="M104.83,77.09c-.29-.7-.15-1.41.3-1.58s1,.27,1.28,1,.12,1.43-.3,1.59S105.11,77.79,104.83,77.09Z"/><path class="cls-4" d="M101.67,78.5c-.33-.68-.26-1.41.18-1.62s1.05.21,1.35.91.22,1.41-.2,1.58S102,79.19,101.67,78.5Z"/><path class="cls-4" d="M98.61,80.12c-.38-.66-.34-1.38.08-1.62s1,.12,1.4.79.32,1.4-.07,1.62S99,80.77,98.61,80.12Z"/><path class="cls-4" d="M95.68,81.94c-.43-.63-.46-1.38,0-1.62s1.06.06,1.46.71.41,1.36,0,1.6S96.1,82.57,95.68,81.94Z"/><path class="cls-4" d="M92.88,84c-.46-.6-.54-1.32-.16-1.62s1.06,0,1.51.59.5,1.32.15,1.61S93.35,84.57,92.88,84Z"/><path class="cls-4" d="M90.22,86.17c-.51-.56-.62-1.27-.26-1.59s1.06-.09,1.54.49.61,1.3.26,1.59S90.72,86.74,90.22,86.17Z"/><path class="cls-4" d="M87.72,88.58c-.54-.53-.72-1.24-.38-1.59s1.06-.15,1.59.4.68,1.24.35,1.55S88.27,89.11,87.72,88.58Z"/><path class="cls-4" d="M85.39,91.16c-.59-.49-.8-1.19-.48-1.56s1-.25,1.58.26.78,1.21.49,1.56S86,91.65,85.39,91.16Z"/><path class="cls-4" d="M83.21,93.88c-.62-.45-.87-1.13-.57-1.51s1-.31,1.62.16.85,1.15.57,1.51S83.82,94.32,83.21,93.88Z"/><path class="cls-4" d="M81.26,96.75c-.64-.41-1-1.07-.7-1.48s1-.37,1.63.06.92,1.08.66,1.46S81.9,97.16,81.26,96.75Z"/><path class="cls-4" d="M79.5,99.73c-.67-.36-1-1-.78-1.41s1-.45,1.6-.07,1,1,.79,1.42S80.17,100.09,79.5,99.73Z"/><path class="cls-4" d="M78,102.82c-.7-.31-1.1-.93-.88-1.35s.94-.51,1.62-.17,1.07.94.86,1.35S78.64,103.13,78,102.82Z"/><path class="cls-4" d="M76.63,106c-.71-.27-1.15-.85-1-1.3s.9-.57,1.6-.28,1.11.86,1,1.29S77.35,106.28,76.63,106Z"/><path class="cls-4" d="M75.52,109.29c-.73-.22-1.2-.76-1-1.22s.85-.64,1.57-.39,1.19.78,1,1.22S76.25,109.5,75.52,109.29Z"/><path class="cls-4" d="M74.66,112.63c-.74-.16-1.26-.67-1.16-1.14s.83-.69,1.56-.5,1.23.7,1.12,1.14S75.41,112.8,74.66,112.63Z"/><path class="cls-4" d="M74,116c-.75-.12-1.29-.59-1.21-1.07s.74-.74,1.49-.61,1.29.62,1.22,1.07S74.77,116.15,74,116Z"/><path class="cls-4" d="M73.62,119.48c-.75-.06-1.37-.5-1.29-1s.71-.8,1.46-.71,1.33.53,1.27,1S74.39,119.54,73.62,119.48Z"/><path class="cls-4" d="M73.46,122.94c-.76,0-1.36-.4-1.35-.88s.62-.85,1.39-.81,1.36.43,1.35.89S74.22,123,73.46,122.94Z"/><path class="cls-4" d="M73.53,126.41c-.77,0-1.4-.31-1.41-.79s.59-.89,1.35-.9,1.39.34,1.4.79S74.28,126.37,73.53,126.41Z"/><path class="cls-4" d="M73.85,129.87c-.75.1-1.41-.22-1.47-.69s.53-.93,1.28-1,1.39.25,1.45.7S74.61,129.77,73.85,129.87Z"/><path class="cls-4" d="M74.39,133.3c-.75.15-1.42-.12-1.5-.59s.46-1,1.21-1.08,1.42.14,1.5.59S75.13,133.15,74.39,133.3Z"/><path class="cls-4" d="M75.18,136.68c-.73.19-1.43,0-1.56-.49s.41-1,1.15-1.16,1.41.06,1.52.5S75.92,136.47,75.18,136.68Z"/><path class="cls-4" d="M76.19,140c-.72.25-1.42.08-1.57-.38s.32-1,1-1.23,1.43,0,1.57.38S76.91,139.74,76.19,140Z"/><path class="cls-4" d="M77.43,143.23c-.69.29-1.43.18-1.61-.27s.27-1,1-1.31,1.42-.14,1.58.28S78.14,142.93,77.43,143.23Z"/><path class="cls-4" d="M78.89,146.36c-.67.35-1.4.28-1.61-.16s.17-1,.86-1.35,1.41-.25,1.61.15S79.57,146,78.89,146.36Z"/><path class="cls-4" d="M80.55,149.39c-.65.4-1.39.38-1.61,0s.12-1.05.78-1.42,1.39-.34,1.6.05S81.2,149,80.55,149.39Z"/><path class="cls-4" d="M82.44,152.28c-.62.44-1.35.47-1.63.08s0-1.06.68-1.47,1.34-.43,1.61-.07S83.06,151.85,82.44,152.28Z"/><path class="cls-4" d="M84.5,155.06c-.59.47-1.3.55-1.6.17s0-1.06.57-1.51,1.33-.54,1.6-.18S85.09,154.58,84.5,155.06Z"/><path class="cls-4" d="M86.78,157.67c-.56.51-1.29.66-1.61.3s-.1-1.07.48-1.57,1.28-.61,1.57-.27S87.33,157.15,86.78,157.67Z"/><path class="cls-4" d="M89.22,160.13c-.52.55-1.22.73-1.57.39s-.2-1,.34-1.56,1.25-.72,1.58-.41S89.74,159.57,89.22,160.13Z"/><path class="cls-4" d="M91.82,162.44c-.48.59-1.16.8-1.53.49s-.25-1,.25-1.61,1.19-.79,1.53-.49S92.3,161.85,91.82,162.44Z"/><path class="cls-4" d="M150.38,90.94l1.14,1c.39.31.82.73,1.33,1.22l.82.79.88.94a41.71,41.71,0,0,1,8.08,12.52,42.21,42.21,0,0,1,3.2,15.14c.06.94,0,1.89,0,2.84,0,.48-.06,1-.09,1.44a14,14,0,0,1-.13,1.45,42.18,42.18,0,0,1-29.16,35.6,14,14,0,0,1-1.4.42c-.46.12-.92.27-1.39.37-.94.2-1.85.44-2.79.57a41.61,41.61,0,0,1-5.46.6,42.77,42.77,0,0,1-10-.76,41.64,41.64,0,0,1-13.87-5.44l-1.09-.68-.93-.66c-.59-.4-1.08-.74-1.46-1.06l-1.19-.92L102,150l1,.75a12.37,12.37,0,0,0,1.18.85l.75.54.89.54A33.21,33.21,0,0,0,117,157.06a34.73,34.73,0,0,0,8.08.61,34.09,34.09,0,0,0,4.42-.48c.75-.1,1.49-.31,2.25-.46.38-.09.75-.21,1.13-.31a9,9,0,0,0,1.12-.33,34,34,0,0,0,23.52-28.72,11.11,11.11,0,0,0,.11-1.16c0-.39.06-.78.08-1.16,0-.78,0-1.55,0-2.3a31.85,31.85,0,0,0-.4-4.43,34.37,34.37,0,0,0-2.19-7.81,33.5,33.5,0,0,0-6.5-10.08l-.71-.76-.67-.63c-.41-.4-.76-.74-1.07-1l-.92-.8Z"/><polygon class="cls-4" points="61.79 205.54 60.43 204.48 67.18 195.84 68.4 196.79 61.79 205.54"/><polygon class="cls-4" points="59.56 203.8 58.58 203.03 65.53 194.54 66.41 195.23 59.56 203.8"/><path class="cls-4" d="M68.33,210.09s-1.37-.85-2.68-1.78L63,206.46l6.48-8.85,2.36,1.65c1.17.84,2.4,1.59,2.4,1.59Z"/><polygon class="cls-4" points="80.04 216.56 77.92 215.52 82.81 205.71 84.7 206.64 80.04 216.56"/><path class="cls-4" d="M96.9,222.72s-1.26-.33-2.52-.69l-2.49-.8,3.38-10.43,2.23.71c1.12.33,2.25.62,2.25.62Z"/><path class="cls-4" d="M90.28,220.71s-.32-.09-.8-.28l-1.75-.65-2.54-1,4.11-10.17,2.26.86,1.56.58c.43.16.72.25.72.25Z"/><polygon class="cls-4" points="123.56 226.26 119.83 226.19 120.23 215.23 123.56 215.29 123.56 226.26"/><polygon class="cls-4" points="107.02 224.9 104.31 224.44 106.37 213.67 108.79 214.08 107.02 224.9"/><path class="cls-4" d="M129.59,226.08l-.64,0-1.43,0-2.08.06-.2-11,1.86-.05,1.28-.05.57,0Z"/><path class="cls-4" d="M148.59,223.18l-1.71.4-1.7.38-2.3-10.72,1.52-.34c.77-.17,1.53-.36,1.53-.36Z"/><path class="cls-4" d="M163,218.42s-.65.29-1.33.54l-1.34.52-3.91-10.24s.6-.24,1.2-.46,1.19-.49,1.19-.49Z"/><path class="cls-4" d="M172.6,213.82s-.71.41-1.44.78l-1.46.73-4.92-9.8,1.31-.65c.65-.33,1.28-.7,1.28-.7Z"/><path class="cls-4" d="M180.6,209s-.32.24-.81.54L178,210.69l-1.83,1.13c-.5.31-.84.49-.84.49l-5.52-9.47s.31-.16.75-.44l1.63-1,1.62-1c.45-.28.73-.49.73-.49Z"/><path class="cls-4" d="M184.46,206.3l-1.17.84-1.18.82-6.25-9,1-.74c.53-.36,1.05-.74,1.05-.74Z"/><path class="cls-4" d="M197.62,194.72l-.75.78c-.45.48-1.05,1.1-1.69,1.69l-2.53,2.39-7.38-8.1,2.26-2.14c.57-.53,1.11-1.09,1.51-1.51l.67-.71Z"/><polygon class="cls-4" points="192.12 200.07 190.18 201.74 183.06 193.4 184.79 191.91 192.12 200.07"/><path class="cls-4" d="M207.2,183.17l-.92,1.29-1,1.25-8.72-6.63s.42-.56.86-1.12l.81-1.16Z"/><polygon class="cls-4" points="213.2 173.7 212.1 175.65 202.65 170.09 203.63 168.34 213.2 173.7"/><polygon class="cls-4" points="213.07 173.94 212.06 175.73 202.61 170.16 203.51 168.56 213.07 173.94"/><polygon class="cls-4" points="222.76 150.18 222.34 151.71 211.8 148.71 212.16 147.35 222.76 150.18"/><path class="cls-4" d="M225.65,134.71l-.24,2c-.06.5-.12,1-.17,1.38l-.1.62-10.84-1.61s0-.22.09-.55.09-.79.15-1.23c.1-.9.21-1.8.21-1.8Z"/><path class="cls-4" d="M223.53,147.14s-.07.3-.17.76-.28,1-.43,1.65c-.33,1.2-.65,2.4-.65,2.4l-10.54-3s.29-1.08.58-2.14c.14-.54.28-1.08.39-1.48l.15-.68Z"/><path class="cls-4" d="M226.24,124.45s0,1,0,2l-.06,1.95-11-.5.08-3.48Z"/><polygon class="cls-4" points="225.59 135.22 225.28 137.8 214.42 136.29 214.69 133.98 225.59 135.22"/><polygon class="cls-4" points="225.88 115.02 226.12 118.32 215.17 118.89 214.96 115.94 225.88 115.02"/><path class="cls-4" d="M224.88,106.94l.15.87c.09.53.19,1.24.28,2l.34,2.84-10.9,1.17s-.15-1.26-.31-2.53c-.08-.63-.16-1.27-.25-1.74l-.13-.78Z"/><path class="cls-4" d="M219.91,88.1s.61,1.57,1.11,3.17c.26.8.52,1.6.71,2.2s.31,1,.31,1l-10.52,3.1s-.1-.36-.27-.89-.41-1.25-.64-2c-.45-1.43-1-2.84-1-2.84Z"/><path class="cls-4" d="M213.39,73.86l.8,1.45c.2.36.39.73.53,1l.23.46-9.76,5s-.08-.17-.21-.42-.28-.57-.47-.89l-.71-1.3Z"/><path class="cls-4" d="M216.09,79.07l.45.93c.27.56.6,1.32.93,2.07l.9,2.08c.25.57.4,1,.4,1l-10.17,4.1s-.13-.34-.35-.85l-.81-1.85c-.3-.68-.58-1.36-.83-1.85l-.4-.83Z"/><path class="cls-4" d="M204.53,60.47,206,62.32c.36.46.7.93,1,1.29l.42.6-8.94,6.35L198,70c-.22-.33-.52-.75-.84-1.16-.64-.82-1.27-1.65-1.27-1.65Z"/><path class="cls-4" d="M210.16,68.42l1.28,2.06c.65,1,1.23,2.09,1.23,2.09L203.15,78s-.51-1-1.09-1.86l-1.15-1.84Z"/><path class="cls-4" d="M196.92,51.78s1,1,1.88,2c.47.5.94,1,1.28,1.37l.56.65L192.41,63l-.49-.57c-.31-.35-.73-.78-1.14-1.23l-1.68-1.76Z"/><polygon class="cls-4" points="190.92 46.15 192.12 47.2 184.81 55.37 183.73 54.43 190.92 46.15"/><path class="cls-4" d="M158.45,81.09,166.73,71l2.35,2c.59.5,1.13,1.06,1.56,1.46l.7.67-.8,1.42L169.71,78l.89.93c.52.57,1.26,1.29,1.91,2.09s1.35,1.54,1.81,2.16l.78,1,1.52-.63,1.53-.61s.42.53,1,1.37,1.38,1.94,2.07,3.11l1.06,1.7c.31.55.6,1.08.84,1.52s.46.82.61,1.08a2.81,2.81,0,0,1,.21.41l-1.21,1.11-1.23,1.09.57,1.15c.36.68.75,1.63,1.16,2.57s.78,1.9,1.06,2.62.46,1.2.46,1.2l1.62-.13,1.63-.11s.89,2.57,1.55,5.21c.34,1.32.61,2.65.83,3.64s.29,1.68.29,1.68l-1.49.68-1.49.66s.1.5.18,1.27.24,1.78.33,2.81.16,2.05.21,2.82,0,1.28,0,1.28L190,122l1.6.39s0,.17,0,.47,0,.72,0,1.23c0,1,0,2.38-.13,3.74,0,.68-.1,1.35-.14,2s-.14,1.22-.2,1.73l-.2,1.69-1.64.19-1.63.17s-.08.51-.21,1.27-.33,1.76-.55,2.77-.47,2-.67,2.74l-.33,1.24,1.4.85,1.39.86s-.21.64-.52,1.61-.79,2.24-1.27,3.52-1.06,2.5-1.45,3.44-.74,1.53-.74,1.53l-1.61-.32-1.6-.34s-.22.47-.58,1.15-.88,1.57-1.38,2.47-1.09,1.74-1.49,2.39-.71,1.08-.71,1.08.54.61,1.07,1.23l1.06,1.25-1,1.39c-.61.82-1.46,1.88-2.29,3s-1.76,2.06-2.45,2.82l-1.17,1.23-1.44-.79-1.41-.81a12.47,12.47,0,0,1-.91.91c-.57.52-1.3,1.24-2.06,1.93l-2.15,1.84c-.59.49-1,.79-1,.79s.33.75.65,1.5.63,1.52.63,1.52-.53.43-1.36,1-1.93,1.38-3.08,2.1-2.3,1.47-3.2,1.94l-1.48.83-1.12-1.19-1.11-1.22-1.15.57c-.68.35-1.6.81-2.55,1.2s-1.88.83-2.61,1.09l-1.2.45s.08.82.15,1.64l.14,1.64-1.62.53-1.66.53-1.92.53c-1.3.39-2.65.63-3.64.87-.49.11-.91.2-1.21.24l-.46.08-.69-1.49-.68-1.49-1.27.22-2.8.35c-1,.11-2,.16-2.82.23s-1.28.07-1.28.07L126,190c-.18.8-.37,1.6-.37,1.6l-1.7,0c-1,0-2.38,0-3.73-.1-2.72-.13-5.42-.49-5.42-.49s-.1-.81-.21-1.62-.19-1.62-.19-1.62l-1.27-.21c-.76-.13-1.77-.28-2.77-.52s-2-.42-2.76-.64l-1.24-.33-.82,1.42c-.43.7-.85,1.41-.85,1.41a3.09,3.09,0,0,1-.45-.13l-1.17-.38-1.66-.53-1.87-.7c-1.29-.45-2.52-1-3.46-1.42s-1.54-.7-1.54-.7l.3-1.62.32-1.61-1.15-.57c-.7-.33-1.58-.86-2.48-1.35s-1.76-1.06-2.42-1.46L88,177.81l-1.22,1.08L85.5,180l-.8-.56c-.47-.34-1.12-.76-1.74-1.24l-2.45-1.91,8.28-10.1,1.53,1.19c.5.4,1.14.85,1.89,1.38l1.22.84,1.42.88a54.23,54.23,0,0,0,18.08,7.11,55.89,55.89,0,0,0,13,1,55,55,0,0,0,7.1-.77c1.21-.18,2.4-.48,3.62-.74.6-.14,1.2-.33,1.81-.49s1.21-.33,1.81-.54a54.4,54.4,0,0,0,14-6.73,57,57,0,0,0,6.3-4.94,61.89,61.89,0,0,0,5.57-5.87,61.24,61.24,0,0,0,4.66-6.62,57,57,0,0,0,3.6-7.15,55.07,55.07,0,0,0,3.85-15c.09-.63.14-1.26.17-1.88s.1-1.26.12-1.87c0-1.25.08-2.48,0-3.7a52.92,52.92,0,0,0-.64-7.11,55.78,55.78,0,0,0-3.53-12.56,54.29,54.29,0,0,0-10.52-16.33L162.71,85l-1.07-1c-.66-.64-1.22-1.18-1.72-1.58Zm-31.66,99.42-.36,0-1,0-1.61,0-2.08,0a57.81,57.81,0,0,1-11-1.45,54.37,54.37,0,0,1-10.54-3.57c-1.39-.65-2.52-1.21-3.3-1.63l-1.22-.68-2,3.5,1.3.73c.84.44,2,1,3.53,1.74a59,59,0,0,0,11.3,3.83,62.58,62.58,0,0,0,11.83,1.55l2.23,0,1.71,0,1.11,0,.39,0Zm53.15-48.29s0,.23-.11.66-.15,1.05-.32,1.84a56.45,56.45,0,0,1-1.69,6.46,53.91,53.91,0,0,1-3.63,8.7,58.09,58.09,0,0,1-5.9,9.08,57.4,57.4,0,0,1-15.12,13.38c-.57.38-1.16.68-1.71,1s-1.06.62-1.57.86c-1,.49-1.87,1-2.62,1.27l-1.71.75c-.39.18-.61.26-.61.26l1.5,3.73s.23-.08.65-.27l1.84-.81c.8-.33,1.72-.84,2.8-1.36.55-.25,1.09-.59,1.68-.92s1.22-.65,1.84-1.06a61.77,61.77,0,0,0,22.5-24,58.6,58.6,0,0,0,3.89-9.32,60.44,60.44,0,0,0,1.81-6.92c.18-.84.26-1.52.34-2l.12-.69Zm-19.49-52,.46.4c.3.27.76.62,1.3,1.14s1.19,1.13,1.93,1.85,1.54,1.57,2.36,2.54a57.23,57.23,0,0,1,9.77,15.72,58,58,0,0,1,4.19,18.07c.12,1.27.08,2.43.14,3.46s0,1.94,0,2.68c-.1,1.48-.15,2.32-.15,2.32l4,.33s.06-.9.17-2.48c0-.8,0-1.76.05-2.87s0-2.35-.15-3.71a60.65,60.65,0,0,0-14.95-36.17c-.88-1-1.78-1.91-2.52-2.73l-2.07-2c-.57-.55-1.07-.94-1.38-1.22l-.5-.43Z"/><path class="cls-4" d="M152.53,88.32l1.22,1.07c.42.33.88.78,1.43,1.31l.89.85,1,1a44.9,44.9,0,0,1,8.73,13.53,46.16,46.16,0,0,1,2.92,10.43,45.22,45.22,0,0,1,.54,5.91c.06,1,0,2,0,3.07,0,.51-.08,1-.1,1.55s-.07,1-.15,1.56a45.54,45.54,0,0,1-31.49,38.46c-.5.18-1,.32-1.51.45s-1,.29-1.5.41c-1,.2-2,.47-3,.61a44.86,44.86,0,0,1-5.9.64,46.12,46.12,0,0,1-10.8-.81,45,45,0,0,1-15-5.89l-1.18-.74-1-.7c-.63-.43-1.16-.8-1.57-1.14l-1.28-1,1.11-1.35,1.24.95a17.8,17.8,0,0,0,1.51,1.1l1,.68,1.13.71a43.38,43.38,0,0,0,14.41,5.66,44.83,44.83,0,0,0,10.39.78,43.09,43.09,0,0,0,5.67-.62c1-.13,1.92-.39,2.9-.59.48-.11,1-.26,1.44-.39a15,15,0,0,0,1.45-.43,43.78,43.78,0,0,0,30.28-37c.07-.51.12-1,.14-1.51s.08-1,.1-1.49c0-1,.06-2,0-3a42.07,42.07,0,0,0-.51-5.69,44.63,44.63,0,0,0-2.81-10,43.43,43.43,0,0,0-8.39-13l-.91-1L154,92c-.53-.51-1-1-1.38-1.26l-1.18-1Z"/><path class="cls-4" d="M172.38,64.09l2.05,1.76c.68.57,1.48,1.31,2.4,2.21.46.44,1,.91,1.49,1.43l1.61,1.7a76.38,76.38,0,0,1,14.76,22.92,77.41,77.41,0,0,1,4.94,17.56,76.19,76.19,0,0,1,.89,9.94c.08,1.7,0,3.42,0,5.16,0,.87-.11,1.74-.16,2.62s-.12,1.75-.24,2.63a76.55,76.55,0,0,1-5.4,21.09,79.77,79.77,0,0,1-5,10,77.08,77.08,0,0,1-14.28,17.43,78.89,78.89,0,0,1-8.83,6.93A76.85,76.85,0,0,1,146.92,197c-.84.29-1.68.53-2.53.75s-1.69.48-2.54.68c-1.69.37-3.37.78-5,1a76.25,76.25,0,0,1-9.92,1.07,78.09,78.09,0,0,1-18.2-1.37,76.59,76.59,0,0,1-25.37-10l-2-1.25c-.62-.41-1.18-.81-1.7-1.17-1.06-.73-1.95-1.36-2.64-1.92l-2.13-1.67L76,181.8l2.09,1.62c.67.55,1.54,1.17,2.57,1.88.52.36,1.06.75,1.66,1.15l1.94,1.22A74.6,74.6,0,0,0,109,197.39a75.69,75.69,0,0,0,17.79,1.35,74.66,74.66,0,0,0,9.69-1.05c1.65-.25,3.28-.65,4.94-1,.83-.2,1.64-.44,2.47-.66s1.66-.46,2.48-.74A75.18,75.18,0,0,0,165.56,186a76.46,76.46,0,0,0,8.63-6.77,80.93,80.93,0,0,0,7.6-8,82.12,82.12,0,0,0,6.36-9,77.31,77.31,0,0,0,4.93-9.79,75.21,75.21,0,0,0,5.28-20.61c.11-.86.19-1.72.23-2.57s.13-1.71.16-2.56c0-1.7.1-3.38,0-5a74.22,74.22,0,0,0-.88-9.71,75.82,75.82,0,0,0-4.82-17.17,74.65,74.65,0,0,0-14.42-22.39l-1.58-1.67-1.45-1.4c-.9-.87-1.68-1.6-2.35-2.15l-2-1.73Z"/><path class="cls-4" d="M84.07,203l-1.51-.75c-.89-.48-2.06-1.14-3.24-1.8S77,199,76.17,198.51l-1.42-.89,4.86-7.36,1.28.81c.78.46,1.78,1.16,2.85,1.73s2.11,1.19,2.91,1.61,1.36.67,1.36.67Z"/><path class="cls-4" d="M152.57,207.43,151,208c-1,.31-2.24.72-3.54,1.06s-2.59.72-3.58.92l-1.64.36-1.84-8.62,1.47-.33c.89-.18,2.06-.51,3.22-.83s2.33-.67,3.19-1l1.44-.47Z"/><path class="cls-4" d="M194.63,176.7l-1,1.33c-.62.79-1.43,1.85-2.32,2.86s-1.73,2-2.43,2.76l-1.15,1.22-6.38-6.09s.42-.43,1-1.09,1.39-1.59,2.19-2.5,1.53-1.87,2.09-2.58l.92-1.19Z"/><path class="cls-4" d="M206.85,93.06l.17.44c.1.27.25.66.4,1.14.31,1,.73,2.24,1.14,3.52s.71,2.59,1,3.56c.14.49.23.9.29,1.18s.1.45.1.45l-8.59,2-.09-.4c-.05-.26-.14-.63-.26-1.07l-.88-3.21c-.37-1.14-.74-2.3-1-3.16-.13-.43-.27-.79-.36-1s-.15-.39-.15-.39Z"/><path class="cls-4" d="M199.18,77.21l.88,1.44c.49.88,1.15,2,1.8,3.23s1.22,2.4,1.67,3.3.72,1.52.72,1.52l-8,3.67s-.23-.56-.64-1.37-.93-1.91-1.5-3l-1.62-2.91-.8-1.29Z"/><path class="cls-4" d="M93.17,163.48c-.46.6-1.14.85-1.52.55s-.31-1,.17-1.59,1.17-.84,1.53-.56S93.63,162.87,93.17,163.48Z"/><path class="cls-4" d="M96,165.51c-.42.64-1.07.92-1.47.64s-.36-1,.08-1.62,1.11-.91,1.48-.64S96.41,164.88,96,165.51Z"/><path class="cls-4" d="M99,167.31c-.37.66-1,1-1.43.77s-.42-1,0-1.63,1-1,1.41-.74S99.33,166.64,99,167.31Z"/><path class="cls-4" d="M102,168.91c-.33.68-.94,1.07-1.37.85s-.5-.93-.15-1.6,1-1.06,1.38-.86S102.34,168.22,102,168.91Z"/><path class="cls-4" d="M105.18,170.29c-.27.71-.87,1.16-1.31,1s-.55-.92-.24-1.61.89-1.12,1.3-.94S105.46,169.58,105.18,170.29Z"/><path class="cls-4" d="M108.44,171.44c-.23.73-.78,1.2-1.24,1.05s-.62-.86-.36-1.57.8-1.17,1.24-1S108.67,170.72,108.44,171.44Z"/><path class="cls-4" d="M111.77,172.39c-.18.74-.7,1.24-1.17,1.11s-.67-.82-.47-1.55.73-1.23,1.17-1.11S111.94,171.65,111.77,172.39Z"/><path class="cls-4" d="M115.16,173.07c-.12.75-.61,1.29-1.09,1.22s-.73-.79-.57-1.53.63-1.26,1.08-1.18S115.29,172.32,115.16,173.07Z"/><path class="cls-4" d="M118.59,173.54c-.07.75-.52,1.32-1,1.26s-.78-.71-.68-1.46.55-1.32,1-1.27S118.66,172.78,118.59,173.54Z"/><path class="cls-4" d="M122.05,173.76c0,.75-.43,1.38-.91,1.35s-.83-.68-.78-1.44.46-1.34.91-1.31S122.07,173,122.05,173.76Z"/><path class="cls-4" d="M125.52,173.74c0,.76-.33,1.39-.82,1.4s-.87-.59-.87-1.35.36-1.39.82-1.4S125.49,173,125.52,173.74Z"/><path class="cls-4" d="M129,173.5c.09.75-.23,1.43-.71,1.45s-.92-.55-1-1.31.27-1.4.73-1.43S128.9,172.74,129,173.5Z"/><path class="cls-4" d="M132.42,173c.14.74-.14,1.42-.62,1.5s-1-.46-1.05-1.22.17-1.41.62-1.49S132.29,172.25,132.42,173Z"/><path class="cls-4" d="M135.82,172.29c.19.74,0,1.42-.52,1.52s-1-.41-1.14-1.15.08-1.43.52-1.53S135.63,171.56,135.82,172.29Z"/><path class="cls-4" d="M139.15,171.32c.23.72,0,1.43-.41,1.58s-1-.36-1.21-1.08,0-1.4.41-1.55S138.91,170.6,139.15,171.32Z"/><path class="cls-4" d="M142.41,170.15c.28.7.15,1.41-.3,1.58s-1-.27-1.29-1-.12-1.43.3-1.59S142.12,169.44,142.41,170.15Z"/><path class="cls-4" d="M145.57,168.74c.33.68.25,1.41-.18,1.62s-1-.21-1.36-.91-.22-1.41.2-1.58S145.23,168.05,145.57,168.74Z"/><path class="cls-4" d="M148.62,167.12c.38.66.35,1.38-.07,1.62s-1.05-.12-1.4-.79-.33-1.4.07-1.62S148.24,166.47,148.62,167.12Z"/><path class="cls-4" d="M151.56,165.3c.42.63.45,1.38,0,1.62s-1.07-.06-1.47-.71-.41-1.36,0-1.6S151.13,164.67,151.56,165.3Z"/><path class="cls-4" d="M154.35,163.27c.47.6.54,1.32.16,1.62s-1.06,0-1.5-.6-.5-1.31-.15-1.6S153.88,162.67,154.35,163.27Z"/><path class="cls-4" d="M157,161.07c.51.56.62,1.27.25,1.59s-1.06.09-1.54-.5-.6-1.29-.26-1.59S156.51,160.5,157,161.07Z"/><path class="cls-4" d="M159.51,158.66c.54.52.72,1.24.38,1.59s-1.06.15-1.59-.4-.68-1.24-.35-1.55S159,158.13,159.51,158.66Z"/><path class="cls-4" d="M161.85,156.08c.58.49.79,1.19.48,1.56s-1,.25-1.59-.26-.78-1.21-.48-1.56S161.27,155.59,161.85,156.08Z"/><path class="cls-4" d="M164,153.36c.61.45.86,1.13.56,1.51s-1,.31-1.61-.17-.85-1.14-.57-1.5S163.41,152.91,164,153.36Z"/><path class="cls-4" d="M166,150.49c.65.41,1,1.07.71,1.48s-1,.36-1.64-.06-.92-1.08-.66-1.46S165.33,150.08,166,150.49Z"/><path class="cls-4" d="M167.73,147.51c.67.36,1,1,.79,1.41s-1,.45-1.61.07-1-1-.79-1.42S167.07,147.15,167.73,147.51Z"/><path class="cls-4" d="M169.28,144.42c.7.32,1.11.93.88,1.36s-.93.5-1.61.16-1.07-.95-.87-1.35S168.6,144.11,169.28,144.42Z"/><path class="cls-4" d="M170.6,141.23c.71.26,1.15.84,1,1.29s-.89.57-1.59.28-1.11-.86-1-1.29S169.89,141,170.6,141.23Z"/><path class="cls-4" d="M171.71,138c.73.21,1.2.75,1,1.21s-.85.64-1.57.39-1.19-.79-1.05-1.22S171,137.74,171.71,138Z"/><path class="cls-4" d="M172.57,134.61c.74.16,1.26.67,1.16,1.14s-.82.69-1.56.5-1.23-.7-1.11-1.14S171.83,134.44,172.57,134.61Z"/><path class="cls-4" d="M173.21,131.2c.75.12,1.3.59,1.22,1.07s-.75.75-1.49.6-1.3-.61-1.22-1.06S172.46,131.09,173.21,131.2Z"/><path class="cls-4" d="M173.61,127.76c.75.06,1.37.5,1.3,1s-.72.8-1.47.71-1.32-.53-1.27-1S172.85,127.7,173.61,127.76Z"/><path class="cls-4" d="M173.77,124.3c.76,0,1.37.4,1.36.89s-.63.84-1.4.8-1.36-.43-1.35-.89S173,124.29,173.77,124.3Z"/><path class="cls-4" d="M173.71,120.83c.76,0,1.4.31,1.4.79s-.59.89-1.35.9-1.38-.34-1.4-.79S173,120.87,173.71,120.83Z"/><path class="cls-4" d="M173.38,117.37c.75-.1,1.41.22,1.48.7s-.53.92-1.29,1-1.38-.25-1.45-.7S172.63,117.47,173.38,117.37Z"/><path class="cls-4" d="M172.85,113.94c.74-.15,1.41.12,1.49.6s-.46.95-1.21,1.07-1.42-.15-1.5-.59S172.1,114.09,172.85,113.94Z"/><path class="cls-4" d="M172.05,110.56c.73-.2,1.43,0,1.56.49s-.41,1-1.15,1.16-1.41,0-1.52-.5S171.31,110.76,172.05,110.56Z"/><path class="cls-4" d="M171,107.25c.72-.25,1.42-.08,1.57.38s-.32,1-1,1.23-1.43,0-1.58-.38S170.33,107.5,171,107.25Z"/><path class="cls-4" d="M169.8,104c.69-.29,1.43-.18,1.61.27s-.27,1-1,1.3-1.42.15-1.57-.27S169.1,104.31,169.8,104Z"/><path class="cls-4" d="M168.34,100.88c.68-.35,1.4-.28,1.61.16s-.16,1-.85,1.35-1.42.25-1.62-.15S167.67,101.22,168.34,100.88Z"/><path class="cls-4" d="M166.68,97.85c.65-.39,1.39-.38,1.61,0s-.11,1.06-.78,1.43-1.38.34-1.6,0S166,98.24,166.68,97.85Z"/><path class="cls-4" d="M164.79,95c.63-.44,1.35-.47,1.63-.08s0,1.06-.68,1.47-1.33.43-1.6.06S164.17,95.39,164.79,95Z"/><path class="cls-4" d="M162.73,92.18c.59-.47,1.31-.55,1.6-.17s0,1.06-.57,1.51-1.33.54-1.6.18S162.14,92.66,162.73,92.18Z"/><path class="cls-4" d="M160.46,89.57c.55-.51,1.28-.66,1.61-.3s.09,1.07-.48,1.57-1.28.61-1.57.27S159.9,90.09,160.46,89.57Z"/><path class="cls-4" d="M158,87.11c.52-.55,1.22-.73,1.58-.4s.2,1-.34,1.58-1.25.71-1.58.4S157.5,87.67,158,87.11Z"/><path class="cls-4" d="M155.41,84.8c.48-.59,1.16-.8,1.53-.49s.26,1-.24,1.61-1.19.79-1.54.49S154.93,85.39,155.41,84.8Z"/></g></g></g></g></g></svg>