<svg xmlns="http://www.w3.org/2000/svg" viewBox="0 0 108 108"><defs><style>.cls-1{fill:#00b0ff;}</style></defs><title>资源 2</title><g id="图层_2" data-name="图层 2"><g id="Layer_1" data-name="Layer 1"><path class="cls-1" d="M54,65A11,11,0,1,1,65,54,11,11,0,0,1,54,65Zm0-21.51A10.54,10.54,0,1,0,64.54,54,10.55,10.55,0,0,0,54,43.46Z"/><path class="cls-1" d="M54,61.28A7.28,7.28,0,1,1,61.28,54,7.29,7.29,0,0,1,54,61.28Zm0-14.35A7.07,7.07,0,1,0,61.06,54,7.07,7.07,0,0,0,54,46.93Zm0,10.76A3.7,3.7,0,1,1,57.69,54,3.69,3.69,0,0,1,54,57.69Zm0-7.17A3.48,3.48,0,1,0,57.48,54,3.48,3.48,0,0,0,54,50.52Z"/><path class="cls-1" d="M54,75.73A21.73,21.73,0,1,1,75.73,54,21.76,21.76,0,0,1,54,75.73Zm0-43A21.3,21.3,0,1,0,75.3,54,21.32,21.32,0,0,0,54,32.7Z"/><path class="cls-1" d="M54,72A18,18,0,1,1,72,54,18.06,18.06,0,0,1,54,72Zm0-35.85A17.82,17.82,0,1,0,71.82,54,17.84,17.84,0,0,0,54,36.18Zm0,32.27A14.45,14.45,0,1,1,68.45,54,14.46,14.46,0,0,1,54,68.45Zm0-28.69A14.24,14.24,0,1,0,68.23,54,14.26,14.26,0,0,0,54,39.76Z"/><path class="cls-1" d="M54,86.48A32.49,32.49,0,1,1,86.49,54,32.52,32.52,0,0,1,54,86.48Zm0-64.54A32.06,32.06,0,1,0,86.06,54,32.09,32.09,0,0,0,54,21.94Z"/><path class="cls-1" d="M54,82.79A28.79,28.79,0,1,1,82.79,54,28.82,28.82,0,0,1,54,82.79Zm0-57.37A28.58,28.58,0,1,0,82.58,54,28.61,28.61,0,0,0,54,25.42Zm0,53.79A25.21,25.21,0,1,1,79.21,54,25.24,25.24,0,0,1,54,79.21ZM54,29A25,25,0,1,0,79,54,25,25,0,0,0,54,29Z"/><path class="cls-1" d="M54,97.24A43.24,43.24,0,1,1,97.24,54,43.29,43.29,0,0,1,54,97.24Zm0-86A42.81,42.81,0,1,0,96.81,54,42.85,42.85,0,0,0,54,11.19Z"/><path class="cls-1" d="M54,93.55A39.55,39.55,0,1,1,93.55,54,39.59,39.59,0,0,1,54,93.55Zm0-78.89A39.34,39.34,0,1,0,93.33,54,39.38,39.38,0,0,0,54,14.66ZM54,90A36,36,0,1,1,90,54,36,36,0,0,1,54,90Zm0-71.71A35.75,35.75,0,1,0,89.75,54,35.79,35.79,0,0,0,54,18.25Z"/><path class="cls-1" d="M54,108a54,54,0,1,1,54-54A54.06,54.06,0,0,1,54,108ZM54,.43A53.57,53.57,0,1,0,107.57,54,53.63,53.63,0,0,0,54,.43Z"/><path class="cls-1" d="M54,104.3A50.31,50.31,0,1,1,104.31,54,50.36,50.36,0,0,1,54,104.3ZM54,3.91A50.09,50.09,0,1,0,104.09,54,50.15,50.15,0,0,0,54,3.91Zm0,96.81A46.72,46.72,0,1,1,100.72,54,46.77,46.77,0,0,1,54,100.72ZM54,7.49A46.51,46.51,0,1,0,100.5,54,46.56,46.56,0,0,0,54,7.49Z"/><path class="cls-1" d="M54.22,107.78h-.44V54.21H43.24v-.43H53.78V43.24h.44V53.78h53.56v.43H54.22ZM67.71,106,56.58,64.45l.41-.12L68.13,105.9Zm-27.42,0-.42-.11L51,64.33l.41.12Zm40.42-5.33L59.19,63.42l.37-.21,21.52,37.26Zm-53.42,0-.37-.21L48.44,63.21l.37.21Zm64.59-8.5L61.46,61.76l.3-.31L92.18,91.88Zm-75.76,0-.3-.3L46.24,61.45l.3.31Zm84.35-11.1L63.21,59.56l.21-.37,37.27,21.52Zm-92.94,0-.22-.37L44.58,59.19l.21.37Zm98.37-13L64.33,57l.12-.42L106,67.71Zm-103.8,0L2,67.71,43.55,56.57l.11.42ZM43.24,54.21H.22v-.43h43Zm21.21-2.79L64.33,51,105.9,39.87l.11.42Zm-20.9,0L2,40.29l.11-.42L43.66,51Zm19.87-2.61-.21-.38,37.26-21.51.22.37Zm-18.84,0L7.31,27.29l.22-.37L44.79,48.43Zm17.18-2.27-.3-.3L91.88,15.81l.3.31Zm-15.52,0L15.82,16.12l.3-.31L46.54,46.24Zm13.32-1.75-.37-.21L80.71,7.31l.37.22Zm-11.12,0L26.92,7.53l.37-.22L48.81,44.58ZM57,43.66l-.41-.11L67.71,2l.42.11Zm-6,0L39.87,2.1,40.29,2,51.42,43.55Zm3.21-.42h-.44V.21h.44Z"/><path class="cls-1" d="M54.54,54a.54.54,0,1,1-.54-.54.54.54,0,0,1,.54.54Z"/></g></g></svg>