<svg xmlns="http://www.w3.org/2000/svg" viewBox="0 0 78.63 84.86"><defs><style>.cls-1{fill:#fff;}</style></defs><title>资源 27</title><g id="图层_2" data-name="图层 2"><g id="Elements"><rect class="cls-1" x="37.93" width="3" height="8.62"/><rect class="cls-1" x="28.83" y="3.46" width="2" height="6.42" transform="translate(-0.71 7.95) rotate(-15)"/><rect class="cls-1" x="21.1" y="9.84" width="1" height="3.55" transform="translate(-2.92 12.35) rotate(-29.99)"/><rect class="cls-1" x="12.82" y="13.35" width="1" height="6.08" transform="translate(-7.69 14.22) rotate(-45)"/><rect class="cls-1" x="7.8" y="23.31" width="2" height="2.99" transform="translate(-17.09 20.02) rotate(-60)"/><rect class="cls-1" x="2.05" y="29.61" width="3" height="6.54" transform="matrix(0.26, -0.97, 0.97, 0.26, -29.13, 27.79)"/><rect class="cls-1" x="0.98" y="41.49" width="4.57" height="2"/><rect class="cls-1" x="3.48" y="50.18" width="3.28" height="3" transform="matrix(0.97, -0.26, 0.26, 0.97, -13.22, 3.09)"/><rect class="cls-1" x="5.47" y="59.67" width="4.96" height="2" transform="translate(-29.27 12.1) rotate(-29.99)"/><rect class="cls-1" x="7.02" y="68.95" width="9.9" height="2" transform="translate(-45.95 28.95) rotate(-45)"/><rect class="cls-1" x="18.2" y="73.31" width="5.72" height="2" transform="translate(-53.82 55.4) rotate(-60.01)"/><rect class="cls-1" x="24.62" y="78.34" width="9.59" height="3" transform="matrix(0.26, -0.97, 0.97, 0.26, -55.32, 87.6)"/><rect class="cls-1" x="38.93" y="76.37" width="1" height="4.34"/><rect class="cls-1" x="48.56" y="75.1" width="1" height="6.73" transform="translate(-18.64 15.37) rotate(-15)"/><rect class="cls-1" x="57.13" y="71.49" width="1" height="5.06" transform="translate(-29.29 38.73) rotate(-30)"/><rect class="cls-1" x="65.44" y="65.18" width="2" height="8.66" transform="translate(-29.69 67.34) rotate(-45)"/><rect class="cls-1" x="69.51" y="58.42" width="2" height="4.03" transform="translate(-17.08 91.28) rotate(-60)"/><rect class="cls-1" x="74.41" y="49.14" width="1" height="5.72" transform="matrix(0.26, -0.97, 0.97, 0.26, 5.3, 110.9)"/><rect class="cls-1" x="73.3" y="41.99" width="2.54" height="1"/><rect class="cls-1" x="72.08" y="32.24" width="3.73" height="2" transform="translate(-6.08 20.27) rotate(-15)"/><rect class="cls-1" x="68.06" y="21.42" width="10.52" height="3" transform="translate(-1.64 39.74) rotate(-30)"/><rect class="cls-1" x="62.79" y="16.12" width="4" height="2" transform="translate(6.87 50.83) rotate(-45)"/><rect class="cls-1" x="54.59" y="9.08" width="7.1" height="2" transform="translate(20.34 55.39) rotate(-60.01)"/><rect class="cls-1" x="46.07" y="6.01" width="5.72" height="2" transform="translate(29.5 52.46) rotate(-75)"/><rect class="cls-1" x="37.93" width="3" height="8.62"/><rect class="cls-1" x="28.83" y="3.46" width="2" height="6.42" transform="translate(-0.71 7.95) rotate(-15)"/><rect class="cls-1" x="21.1" y="9.84" width="1" height="3.55" transform="translate(-2.92 12.35) rotate(-29.99)"/><rect class="cls-1" x="12.82" y="13.35" width="1" height="6.08" transform="translate(-7.69 14.22) rotate(-45)"/><rect class="cls-1" x="7.8" y="23.31" width="2" height="2.99" transform="translate(-17.09 20.02) rotate(-60)"/><rect class="cls-1" x="2.05" y="29.61" width="3" height="6.54" transform="matrix(0.26, -0.97, 0.97, 0.26, -29.13, 27.79)"/><rect class="cls-1" x="0.98" y="41.49" width="4.57" height="2"/><rect class="cls-1" x="3.48" y="50.18" width="3.28" height="3" transform="matrix(0.97, -0.26, 0.26, 0.97, -13.22, 3.09)"/><rect class="cls-1" x="5.47" y="59.67" width="4.96" height="2" transform="translate(-29.27 12.1) rotate(-29.99)"/><rect class="cls-1" x="7.02" y="68.95" width="9.9" height="2" transform="translate(-45.95 28.95) rotate(-45)"/><rect class="cls-1" x="18.2" y="73.31" width="5.72" height="2" transform="translate(-53.82 55.4) rotate(-60.01)"/><rect class="cls-1" x="24.62" y="78.34" width="9.59" height="3" transform="matrix(0.26, -0.97, 0.97, 0.26, -55.32, 87.6)"/><rect class="cls-1" x="38.93" y="76.37" width="1" height="4.34"/><rect class="cls-1" x="48.56" y="75.1" width="1" height="6.73" transform="translate(-18.64 15.37) rotate(-15)"/><rect class="cls-1" x="57.13" y="71.49" width="1" height="5.06" transform="translate(-29.29 38.73) rotate(-30)"/><rect class="cls-1" x="65.44" y="65.18" width="2" height="8.66" transform="translate(-29.69 67.34) rotate(-45)"/><rect class="cls-1" x="69.51" y="58.42" width="2" height="4.03" transform="translate(-17.08 91.28) rotate(-60)"/><rect class="cls-1" x="74.41" y="49.14" width="1" height="5.72" transform="matrix(0.26, -0.97, 0.97, 0.26, 5.3, 110.9)"/><rect class="cls-1" x="73.3" y="41.99" width="2.54" height="1"/><rect class="cls-1" x="72.08" y="32.24" width="3.73" height="2" transform="translate(-6.08 20.27) rotate(-15)"/><rect class="cls-1" x="68.06" y="21.42" width="10.52" height="3" transform="translate(-1.64 39.74) rotate(-30)"/><rect class="cls-1" x="62.79" y="16.12" width="4" height="2" transform="translate(6.87 50.83) rotate(-45)"/><rect class="cls-1" x="54.59" y="9.08" width="7.1" height="2" transform="translate(20.34 55.39) rotate(-60.01)"/><rect class="cls-1" x="46.07" y="6.01" width="5.72" height="2" transform="translate(29.5 52.46) rotate(-75)"/></g></g></svg>