<svg xmlns="http://www.w3.org/2000/svg" viewBox="0 0 916.42 570.93"><defs><style>.cls-1{fill:#fff;}.cls-2{fill:aqua;}.cls-3{fill:#29abe2;}</style></defs><title>资源 1</title><g id="图层_2" data-name="图层 2"><g id="Layer_1" data-name="Layer 1"><circle class="cls-1" cx="170.5" cy="284" r="7.5"/><circle class="cls-1" cx="742.5" cy="284" r="7.5"/><circle class="cls-1" cx="778.5" cy="100" r="4.5"/><path class="cls-2" d="M798.22,264s-18-17.72-18.4-21a323.94,323.94,0,0,0-9.76-47.51c-1.13-4.27-2.56-8.45-3.84-12.6-.63-2.08-1.42-4.09-2.1-6.11s-1.39-4-2.12-5.93-1.49-3.82-2.22-5.68-1.41-3.68-2.18-5.41l-2.18-5.08c-.7-1.64-1.37-3.23-2.1-4.72l-3.85-8.17c-1.22-2.39-.4-14.61-.4-14.61l-3.92-7.08,12.64-7.28,4.1,7.41.91,1.64s.29.5.78,1.45l2.12,4.15c.9,1.79,2,3.94,3.26,6.46l4,8.5c1.41,3.13,2.84,6.57,4.41,10.19s3,7.53,4.54,11.53c.71,2,1.44,4.09,2.18,6.17s1.52,4.18,2.17,6.35c1.34,4.3,2.81,8.65,4,13.08a345.34,345.34,0,0,1,10.22,49.33c.82,6.82,1.48,12.51,1.74,16.51s.49,6.29.49,6.29,0,.47.06.94l0,.93s.07,1.3.16,3.23.23,4.52.31,7.1c.07,5.17.15,10.34.15,10.34h-4.56s-.08-5.1-.15-10.21c-.07-2.55-.23-5.09-.31-7Z"/><polygon class="cls-2" points="797.59 92.45 796.28 90.09 799.74 88.09 801.07 90.48 797.59 92.45"/><polygon class="cls-2" points="799.87 96.59 798.57 94.23 802.06 92.27 803.38 94.66 799.87 96.59"/><polygon class="cls-2" points="802.16 100.73 800.86 98.36 804.37 96.45 805.69 98.84 802.16 100.73"/><polygon class="cls-2" points="804.64 105.53 803.42 103.12 806.96 101.26 808.2 103.7 804.64 105.53"/><polygon class="cls-2" points="806.79 109.74 805.57 107.34 809.13 105.52 810.37 107.95 806.79 109.74"/><path class="cls-2" d="M808.91,114l-.58-1.22-.61-1.2,3.58-1.77.62,1.21c.29.62.59,1.24.59,1.24Z"/><polygon class="cls-2" points="810.92 118.26 809.77 115.81 813.38 114.08 814.54 116.55 810.92 118.26"/><polygon class="cls-2" points="813.21 123.15 812.07 120.7 815.7 119.02 816.86 121.5 813.21 123.15"/><polygon class="cls-2" points="815.12 127.47 814.06 124.99 817.71 123.36 818.79 125.87 815.12 127.47"/><polygon class="cls-2" points="816.99 131.82 815.92 129.34 819.59 127.75 820.67 130.26 816.99 131.82"/><polygon class="cls-2" points="818.85 136.17 817.79 133.68 821.48 132.14 822.55 134.65 818.85 136.17"/><polygon class="cls-2" points="820.82 141.2 819.84 138.68 823.55 137.19 824.55 139.74 820.82 141.2"/><polygon class="cls-2" points="822.54 145.61 821.56 143.09 825.29 141.64 826.28 144.19 822.54 145.61"/><path class="cls-2" d="M824.2,150l-.45-1.27c-.21-.64-.47-1.27-.47-1.27l3.75-1.4s.26.64.48,1.28l.45,1.29Z"/><polygon class="cls-2" points="825.78 154.49 824.88 151.95 828.64 150.59 829.55 153.17 825.78 154.49"/><polygon class="cls-2" points="827.58 159.59 826.68 157.04 830.46 155.74 831.37 158.32 827.58 159.59"/><polygon class="cls-2" points="829.02 164.09 828.21 161.52 832.01 160.26 832.83 162.87 829.02 164.09"/><polygon class="cls-2" points="830.45 168.6 829.64 166.03 833.45 164.82 834.27 167.42 830.45 168.6"/><path class="cls-2" d="M831.85,173.12s-.17-.65-.38-1.3-.41-1.28-.41-1.28l3.83-1.17s.21.65.41,1.3.39,1.31.39,1.31Z"/><polygon class="cls-2" points="833.31 178.32 832.58 175.72 836.43 174.61 837.16 177.24 833.31 178.32"/><polygon class="cls-2" points="834.59 182.88 833.86 180.28 837.72 179.21 838.46 181.84 834.59 182.88"/><polygon class="cls-2" points="835.78 187.46 835.13 184.83 839 183.82 839.65 186.47 835.78 187.46"/><polygon class="cls-2" points="836.9 192.05 836.26 189.43 840.14 188.46 840.79 191.11 836.9 192.05"/><path class="cls-2" d="M838.18,197.3s-.14-.66-.31-1.31l-.32-1.32,3.89-.91s.17.66.33,1.33.31,1.32.31,1.32Z"/><polygon class="cls-2" points="839.16 201.93 838.6 199.28 842.5 198.42 843.07 201.09 839.16 201.93"/><polygon class="cls-2" points="840.14 206.56 839.58 203.91 843.5 203.09 844.06 205.76 840.14 206.56"/><path class="cls-2" d="M841.05,211.2l-.23-1.33c-.11-.67-.26-1.33-.26-1.33l3.92-.77s.16.66.27,1.34l.24,1.34Z"/><polygon class="cls-2" points="842 216.52 841.53 213.86 845.46 213.14 845.94 215.83 842 216.52"/><polygon class="cls-2" points="842.83 221.17 842.36 218.51 846.3 217.84 846.78 220.53 842.83 221.17"/><polygon class="cls-2" points="843.52 225.85 843.14 223.18 847.09 222.56 847.48 225.26 843.52 225.85"/><polygon class="cls-2" points="844.2 230.53 843.82 227.86 847.77 227.28 848.16 229.99 844.2 230.53"/><path class="cls-2" d="M844.92,235.89s-.07-.67-.15-1.34-.18-1.34-.18-1.34l4-.52s.11.67.18,1.35.15,1.36.15,1.36Z"/><polygon class="cls-2" points="845.45 240.59 845.15 237.91 849.12 237.44 849.42 240.15 845.45 240.59"/><polygon class="cls-2" points="845.97 245.29 845.67 242.61 849.65 242.18 849.95 244.9 845.97 245.29"/><polygon class="cls-2" points="846.39 250 846.18 247.31 850.16 246.93 850.38 249.66 846.39 250"/><polygon class="cls-2" points="846.82 255.39 846.61 252.7 850.59 252.38 850.81 255.1 846.82 255.39"/><path class="cls-2" d="M847.17,260.11s0-.68-.08-1.35l-.11-1.35,4-.27s.06.68.11,1.36.08,1.36.08,1.36Z"/><polygon class="cls-2" points="847.39 264.83 847.26 262.13 851.25 261.91 851.38 264.64 847.39 264.83"/><polygon class="cls-2" points="847.61 269.56 847.48 266.86 851.48 266.68 851.61 269.41 847.61 269.56"/><polygon class="cls-2" points="847.76 274.96 847.73 272.26 851.72 272.14 851.76 274.87 847.76 274.96"/><polygon class="cls-2" points="847.84 279.69 847.79 276.99 851.79 276.92 851.83 279.65 847.84 279.69"/><polygon class="cls-2" points="847.9 284.42 847.87 281.72 851.87 281.69 851.9 284.42 847.9 284.42"/><polygon class="cls-2" points="831.81 79.75 827.42 71.83 832.63 68.83 837.07 76.87 831.81 79.75"/><polygon class="cls-2" points="838.43 92.34 834.31 84.28 839.61 81.46 843.78 89.64 838.43 92.34"/><polygon class="cls-2" points="844.62 105.15 841.32 98.12 846.72 95.5 850.06 102.63 844.62 105.15"/><polygon class="cls-2" points="851.9 121.72 848.34 113.4 853.83 111 857.45 119.44 851.9 121.72"/><polygon class="cls-2" points="857.1 134.97 853.81 126.54 859.38 124.32 862.72 132.87 857.1 134.97"/><path class="cls-2" d="M862.25,149.61s-.18-.53-.44-1.34-.66-1.87-1-2.94c-.76-2.13-1.51-4.27-1.51-4.27l5.65-2,1.53,4.33c.38,1.09.76,2.17,1,3s.44,1.37.44,1.37Z"/><path class="cls-2" d="M866.49,163.19l-.38-1.36c-.25-.81-.6-1.89-.94-3l-1.36-4.31,5.72-1.82,1.38,4.38c.35,1.09.69,2.18,1,3l.39,1.38Z"/><path class="cls-2" d="M870.9,179.42s-.46-1.88-.93-3.77-1-3.74-1-3.74l5.79-1.57s.55,1.89,1,3.79l.94,3.82Z"/><path class="cls-2" d="M874.41,194.54s-.46-2.22-.93-4.43c-.22-1.11-.49-2.21-.7-3s-.34-1.37-.34-1.37l5.84-1.38.35,1.39c.21.84.48,2,.7,3.08.48,2.25.95,4.49.95,4.49Z"/><path class="cls-2" d="M877.16,208.5l-.8-4.46c-.19-1.11-.39-2.23-.58-3.06s-.29-1.38-.29-1.38l5.88-1.18.3,1.4c.19.84.39,2,.59,3.1l.8,4.52Z"/><path class="cls-2" d="M879.43,222.54l-.56-3.84c-.13-1-.27-1.92-.38-2.64s-.2-1.19-.2-1.19l5.92-1s.1.48.21,1.21.24,1.7.38,2.68l.57,3.89Z"/><polygon class="cls-2" points="881.67 240.51 880.66 231.51 886.62 230.78 887.64 239.9 881.67 240.51"/><polygon class="cls-2" points="882.88 254.69 882.16 245.66 888.14 245.13 888.87 254.28 882.88 254.69"/><polygon class="cls-2" points="883.68 270.19 883.25 261.14 889.25 260.83 889.68 270 883.68 270.19"/><polygon class="cls-2" points="883.9 284.42 883.77 275.36 889.77 275.24 889.9 284.43 883.9 284.42"/><path class="cls-3" d="M789.14,105.91l1.57-.75a4,4,0,0,0,1.68-5.36l-5.26-11.12a3.7,3.7,0,0,0-5.07-1.81l-1.58.74Z"/><path class="cls-2" d="M906.56,189.85s5.34-3.78,4.56-7.59-2.16-8.82-3.4-13.86c-.31-1.26-.6-2.53-.94-3.76s-.69-2.44-1-3.61c-.67-2.33-1.29-4.52-1.83-6.39-1.07-3.74-12.3-3-12.3-3s2.1,7.35,4.21,14.71c.56,1.83.95,3.7,1.4,5.44l1.17,4.76c.68,2.79,1.14,4.64,1.14,4.64l.37,1.51c.23.9.52,2.11.75,3.33l1,4.86s.3,1.44.82,4,1.32,6.12,2,10.49c.37,2.18.77,4.54,1.18,7s.91,5.12,1.22,7.87.72,5.57,1.09,8.45.79,5.79,1,8.73.54,5.87.81,8.76c.13,1.44.26,2.88.39,4.29s.16,2.82.25,4.2c.15,2.76.29,5.43.43,8s.32,4.91.31,7.12c.16,8.84.26,14.74.26,14.74h5s-.1-6-.26-14.89c0-2.24-.19-4.65-.32-7.21s-.28-5.25-.43-8c-.09-1.4-.14-2.82-.25-4.25s-.27-2.88-.4-4.34c-.27-2.92-.54-5.89-.81-8.85s-.65-5.93-1-8.83-.75-5.78-1.11-8.55-.81-5.43-1.23-7.95-.82-4.92-1.19-7.12c-.68-4.42-1.5-8.05-2-10.61Z"/><circle class="cls-1" cx="778.5" cy="468" r="4.5"/><path class="cls-2" d="M798.22,304s-18,17.72-18.4,21a324.05,324.05,0,0,1-9.76,47.52c-1.13,4.27-2.56,8.45-3.84,12.6-.63,2.08-1.42,4.09-2.1,6.11s-1.39,4-2.12,5.93-1.49,3.82-2.22,5.68-1.41,3.68-2.18,5.41l-2.18,5.08c-.7,1.64-1.37,3.22-2.1,4.71l-3.85,8.18c-1.22,2.39-.4,14.6-.4,14.6l-3.92,7.09,12.64,7.28,4.1-7.41.91-1.64s.29-.5.78-1.45l2.12-4.15c.9-1.8,2-3.94,3.26-6.46l4-8.5c1.41-3.13,2.84-6.57,4.41-10.19s3-7.53,4.54-11.53q1.07-3,2.18-6.17c.72-2.09,1.52-4.19,2.17-6.35,1.34-4.31,2.81-8.65,4-13.08a345.34,345.34,0,0,0,10.22-49.33c.82-6.82,1.48-12.51,1.74-16.52s.49-6.28.49-6.28,0-.47.06-.94l0-.94s.07-1.29.16-3.22.23-4.52.31-7.11c.07-5.17.15-10.34.15-10.34h-4.56s-.08,5.1-.15,10.2c-.07,2.55-.23,5.1-.31,7Z"/><polygon class="cls-2" points="801.07 477.52 799.74 479.91 796.28 477.91 797.59 475.55 801.07 477.52"/><polygon class="cls-2" points="803.38 473.34 802.06 475.73 798.57 473.77 799.87 471.41 803.38 473.34"/><polygon class="cls-2" points="805.69 469.15 804.37 471.54 800.86 469.63 802.16 467.27 805.69 469.15"/><polygon class="cls-2" points="808.2 464.3 806.96 466.73 803.42 464.87 804.64 462.47 808.2 464.3"/><polygon class="cls-2" points="810.37 460.05 809.13 462.48 805.57 460.66 806.79 458.25 810.37 460.05"/><path class="cls-2" d="M812.51,455.77l-.59,1.24-.62,1.21-3.58-1.77.61-1.2.58-1.23Z"/><polygon class="cls-2" points="814.54 451.45 813.38 453.92 809.77 452.19 810.92 449.74 814.54 451.45"/><polygon class="cls-2" points="816.86 446.5 815.7 448.97 812.07 447.3 813.21 444.85 816.86 446.5"/><polygon class="cls-2" points="818.79 442.13 817.71 444.64 814.06 443.01 815.12 440.52 818.79 442.13"/><polygon class="cls-2" points="820.67 437.74 819.59 440.25 815.92 438.66 816.99 436.18 820.67 437.74"/><polygon class="cls-2" points="822.55 433.35 821.48 435.86 817.79 434.31 818.85 431.83 822.55 433.35"/><polygon class="cls-2" points="824.55 428.26 823.55 430.81 819.84 429.31 820.82 426.8 824.55 428.26"/><polygon class="cls-2" points="826.28 423.81 825.29 426.36 821.56 424.91 822.54 422.39 826.28 423.81"/><path class="cls-2" d="M828,419.34l-.45,1.29c-.22.64-.48,1.27-.48,1.27l-3.75-1.4s.26-.62.47-1.26.45-1.28.45-1.28Z"/><polygon class="cls-2" points="829.55 414.83 828.64 417.41 824.88 416.05 825.78 413.5 829.55 414.83"/><polygon class="cls-2" points="831.37 409.68 830.46 412.26 826.68 410.95 827.58 408.41 831.37 409.68"/><polygon class="cls-2" points="832.83 405.13 832.01 407.74 828.21 406.48 829.02 403.9 832.83 405.13"/><polygon class="cls-2" points="834.27 400.58 833.45 403.18 829.64 401.97 830.45 399.39 834.27 400.58"/><path class="cls-2" d="M835.69,396s-.17.67-.39,1.31-.41,1.31-.41,1.31l-3.83-1.17s.21-.64.41-1.29.38-1.29.38-1.29Z"/><polygon class="cls-2" points="837.16 390.76 836.43 393.38 832.58 392.28 833.31 389.67 837.16 390.76"/><polygon class="cls-2" points="838.46 386.16 837.72 388.79 833.86 387.72 834.59 385.12 838.46 386.16"/><polygon class="cls-2" points="839.65 381.53 839 384.18 835.13 383.17 835.78 380.54 839.65 381.53"/><polygon class="cls-2" points="840.79 376.89 840.14 379.54 836.26 378.57 836.9 375.95 840.79 376.89"/><path class="cls-2" d="M842.08,371.58s-.14.67-.31,1.33-.33,1.33-.33,1.33l-3.89-.92.32-1.31c.17-.65.31-1.31.31-1.31Z"/><polygon class="cls-2" points="843.07 366.91 842.5 369.58 838.6 368.71 839.16 366.07 843.07 366.91"/><polygon class="cls-2" points="844.06 362.23 843.5 364.9 839.58 364.09 840.14 361.44 844.06 362.23"/><path class="cls-2" d="M845,357.55l-.24,1.34c-.11.67-.27,1.34-.27,1.34l-3.92-.77s.15-.66.26-1.33l.23-1.33Z"/><polygon class="cls-2" points="845.94 352.17 845.46 354.86 841.53 354.14 842 351.48 845.94 352.17"/><polygon class="cls-2" points="846.78 347.47 846.3 350.15 842.36 349.49 842.83 346.82 846.78 347.47"/><polygon class="cls-2" points="847.48 342.74 847.09 345.44 843.14 344.82 843.52 342.14 847.48 342.74"/><polygon class="cls-2" points="848.16 338.01 847.77 340.71 843.82 340.14 844.2 337.46 848.16 338.01"/><path class="cls-2" d="M848.89,332.6s-.08.68-.15,1.36-.18,1.35-.18,1.35l-4-.52s.11-.67.18-1.34.15-1.34.15-1.34Z"/><polygon class="cls-2" points="849.42 327.85 849.12 330.56 845.15 330.09 845.45 327.41 849.42 327.85"/><polygon class="cls-2" points="849.95 323.1 849.65 325.81 845.67 325.39 845.97 322.71 849.95 323.1"/><polygon class="cls-2" points="850.38 318.34 850.16 321.06 846.18 320.69 846.39 318 850.38 318.34"/><polygon class="cls-2" points="850.81 312.9 850.59 315.62 846.61 315.3 846.82 312.61 850.81 312.9"/><path class="cls-2" d="M851.16,308.13s0,.69-.08,1.37-.11,1.36-.11,1.36l-4-.27.11-1.35c.06-.67.08-1.35.08-1.35Z"/><polygon class="cls-2" points="851.38 303.36 851.25 306.09 847.26 305.87 847.39 303.17 851.38 303.36"/><polygon class="cls-2" points="851.61 298.59 851.48 301.31 847.48 301.14 847.61 298.44 851.61 298.59"/><polygon class="cls-2" points="851.76 293.13 851.72 295.86 847.73 295.74 847.76 293.04 851.76 293.13"/><polygon class="cls-2" points="851.83 288.35 851.79 291.08 847.79 291.01 847.84 288.31 851.83 288.35"/><polygon class="cls-2" points="851.9 283.57 851.87 286.31 847.87 286.28 847.9 283.58 851.9 283.57"/><polygon class="cls-2" points="837.07 491.13 832.63 499.17 827.42 496.17 831.81 488.25 837.07 491.13"/><polygon class="cls-2" points="843.78 478.36 839.61 486.54 834.31 483.72 838.43 475.66 843.78 478.36"/><polygon class="cls-2" points="850.06 465.37 846.72 472.49 841.32 469.88 844.62 462.85 850.06 465.37"/><polygon class="cls-2" points="857.45 448.56 853.83 457 848.34 454.59 851.9 446.27 857.45 448.56"/><polygon class="cls-2" points="862.72 435.12 859.38 443.68 853.81 441.46 857.1 433.03 862.72 435.12"/><path class="cls-2" d="M867.94,420.27s-.17.55-.44,1.37-.67,1.89-1,3c-.76,2.17-1.53,4.33-1.53,4.33l-5.65-2,1.51-4.26c.37-1.07.75-2.14,1-2.94s.44-1.35.44-1.35Z"/><path class="cls-2" d="M872.25,406.5s-.16.55-.39,1.38-.6,1.92-1,3l-1.38,4.38-5.72-1.82,1.36-4.32c.34-1.07.69-2.15.94-3l.38-1.37Z"/><path class="cls-2" d="M876.72,390.05l-.94,3.82c-.5,1.9-1,3.79-1,3.79l-5.79-1.57s.54-1.87,1-3.74.93-3.77.93-3.77Z"/><path class="cls-2" d="M880.28,374.72s-.47,2.24-.95,4.49c-.22,1.12-.49,2.24-.7,3.07l-.35,1.4-5.84-1.38s.14-.55.34-1.38.48-1.92.7-3c.47-2.21.93-4.43.93-4.43Z"/><path class="cls-2" d="M883.06,360.56l-.8,4.52c-.2,1.13-.4,2.26-.59,3.1l-.3,1.4-5.88-1.18s.11-.55.29-1.39.39-1.94.58-3.05l.8-4.46Z"/><path class="cls-2" d="M885.37,346.32s-.28,1.94-.57,3.89c-.14,1-.28,2-.38,2.68s-.21,1.21-.21,1.21l-5.92-1s.09-.47.2-1.19.25-1.68.38-2.64l.56-3.84Z"/><polygon class="cls-2" points="887.64 328.1 886.62 337.22 880.66 336.49 881.67 327.49 887.64 328.1"/><polygon class="cls-2" points="888.87 313.72 888.14 322.87 882.16 322.34 882.88 313.31 888.87 313.72"/><polygon class="cls-2" points="889.68 298 889.25 307.17 883.25 306.85 883.68 297.81 889.68 298"/><polygon class="cls-2" points="889.9 283.57 889.77 292.75 883.77 292.63 883.9 283.58 889.9 283.57"/><path class="cls-3" d="M789.14,462.09l1.57.75a4,4,0,0,1,1.68,5.36l-5.26,11.12a3.7,3.7,0,0,1-5.07,1.81l-1.58-.74Z"/><path class="cls-2" d="M906.56,378.15s5.34,3.78,4.56,7.59-2.16,8.82-3.4,13.86c-.31,1.26-.6,2.53-.94,3.76s-.69,2.43-1,3.6c-.67,2.34-1.29,4.53-1.83,6.4-1.07,3.74-12.3,3-12.3,3s2.1-7.36,4.21-14.71c.56-1.83.95-3.7,1.4-5.44l1.17-4.76c.68-2.79,1.14-4.65,1.14-4.65l.37-1.5c.23-.9.52-2.11.75-3.33l1-4.86s.3-1.44.82-4,1.32-6.12,2-10.49c.37-2.18.77-4.54,1.18-7s.91-5.12,1.22-7.87.72-5.57,1.09-8.45.79-5.79,1-8.73.54-5.87.81-8.76c.13-1.44.26-2.88.39-4.29s.16-2.82.25-4.2c.15-2.76.29-5.43.43-8s.32-4.91.31-7.13c.16-8.84.26-14.73.26-14.73h5s-.1,5.95-.26,14.89c0,2.24-.19,4.65-.32,7.21s-.28,5.25-.43,8c-.09,1.39-.14,2.81-.25,4.25s-.27,2.88-.4,4.34c-.27,2.92-.54,5.88-.81,8.85s-.65,5.92-1,8.83-.75,5.77-1.11,8.54-.81,5.44-1.23,8-.82,4.92-1.19,7.12c-.68,4.42-1.5,8.05-2,10.61Z"/><circle class="cls-1" cx="137.92" cy="100" r="4.5"/><path class="cls-2" d="M118.2,264s18-17.72,18.4-21a323.94,323.94,0,0,1,9.76-47.51c1.13-4.27,2.56-8.45,3.84-12.6.63-2.08,1.42-4.09,2.1-6.11s1.39-4,2.12-5.93,1.49-3.82,2.22-5.68,1.41-3.68,2.18-5.41l2.18-5.08c.7-1.64,1.37-3.23,2.1-4.72L167,141.8c1.22-2.39.4-14.61.4-14.61l3.92-7.08-12.64-7.28-4.1,7.41-.91,1.64s-.29.5-.78,1.45l-2.12,4.15c-.9,1.79-2.05,3.94-3.26,6.46l-4,8.5c-1.41,3.13-2.84,6.57-4.41,10.19s-3,7.53-4.54,11.53c-.71,2-1.44,4.09-2.18,6.17s-1.52,4.18-2.17,6.35c-1.34,4.3-2.81,8.65-4,13.08A345.34,345.34,0,0,0,116,239.09c-.82,6.82-1.48,12.51-1.74,16.51s-.49,6.29-.49,6.29,0,.47-.06.94l0,.93s-.06,1.3-.16,3.23-.23,4.52-.31,7.1c-.07,5.17-.15,10.34-.15,10.34h4.56s.08-5.1.15-10.21c.07-2.55.23-5.09.31-7Z"/><polygon class="cls-2" points="115.36 90.48 116.68 88.09 120.14 90.09 118.83 92.45 115.36 90.48"/><polygon class="cls-2" points="113.04 94.66 114.36 92.27 117.85 94.23 116.55 96.59 113.04 94.66"/><polygon class="cls-2" points="110.73 98.84 112.05 96.45 115.56 98.36 114.26 100.73 110.73 98.84"/><polygon class="cls-2" points="108.22 103.7 109.46 101.26 113 103.12 111.78 105.53 108.22 103.7"/><polygon class="cls-2" points="106.05 107.95 107.29 105.52 110.85 107.34 109.63 109.74 106.05 107.95"/><path class="cls-2" d="M103.91,112.23s.3-.62.59-1.24l.62-1.21,3.58,1.77-.61,1.2-.58,1.22Z"/><polygon class="cls-2" points="101.88 116.55 103.04 114.08 106.65 115.81 105.5 118.26 101.88 116.55"/><polygon class="cls-2" points="99.56 121.5 100.72 119.02 104.36 120.7 103.21 123.15 99.56 121.5"/><polygon class="cls-2" points="97.63 125.87 98.71 123.36 102.36 124.99 101.3 127.47 97.63 125.87"/><polygon class="cls-2" points="95.75 130.26 96.83 127.75 100.5 129.34 99.43 131.82 95.75 130.26"/><polygon class="cls-2" points="93.86 134.65 94.94 132.14 98.63 133.68 97.57 136.17 93.86 134.65"/><polygon class="cls-2" points="91.87 139.74 92.87 137.19 96.58 138.68 95.6 141.2 91.87 139.74"/><polygon class="cls-2" points="90.14 144.19 91.13 141.64 94.86 143.09 93.88 145.61 90.14 144.19"/><path class="cls-2" d="M88.46,148.66s.23-.64.45-1.29.48-1.28.48-1.28l3.75,1.4s-.26.63-.47,1.27L92.22,150Z"/><polygon class="cls-2" points="86.87 153.17 87.78 150.59 91.54 151.95 90.64 154.49 86.87 153.17"/><polygon class="cls-2" points="85.05 158.32 85.96 155.74 89.74 157.04 88.84 159.59 85.05 158.32"/><polygon class="cls-2" points="83.59 162.87 84.41 160.26 88.21 161.52 87.4 164.09 83.59 162.87"/><polygon class="cls-2" points="82.15 167.42 82.97 164.82 86.78 166.03 85.97 168.6 82.15 167.42"/><path class="cls-2" d="M80.73,172s.17-.66.39-1.31.41-1.3.41-1.3l3.83,1.17s-.21.64-.41,1.28-.38,1.3-.38,1.3Z"/><polygon class="cls-2" points="79.26 177.24 79.99 174.61 83.84 175.72 83.11 178.32 79.26 177.24"/><polygon class="cls-2" points="77.97 181.84 78.7 179.21 82.56 180.28 81.83 182.88 77.97 181.84"/><polygon class="cls-2" points="76.77 186.47 77.42 183.82 81.29 184.83 80.64 187.46 76.77 186.47"/><polygon class="cls-2" points="75.63 191.11 76.28 188.46 80.16 189.43 79.52 192.05 75.63 191.11"/><path class="cls-2" d="M74.34,196.41s.14-.66.31-1.32.33-1.33.33-1.33l3.89.91L78.55,196c-.17.65-.31,1.31-.31,1.31Z"/><polygon class="cls-2" points="73.35 201.09 73.92 198.42 77.82 199.28 77.26 201.93 73.35 201.09"/><polygon class="cls-2" points="72.36 205.76 72.92 203.09 76.84 203.91 76.28 206.56 72.36 205.76"/><path class="cls-2" d="M71.43,210.45l.24-1.34c.11-.68.27-1.34.27-1.34l3.92.77s-.15.66-.26,1.33l-.24,1.33Z"/><polygon class="cls-2" points="70.48 215.83 70.96 213.14 74.89 213.86 74.42 216.52 70.48 215.83"/><polygon class="cls-2" points="69.64 220.53 70.12 217.84 74.06 218.51 73.59 221.17 69.64 220.53"/><polygon class="cls-2" points="68.94 225.26 69.33 222.56 73.28 223.18 72.9 225.85 68.94 225.26"/><polygon class="cls-2" points="68.25 229.99 68.65 227.28 72.61 227.86 72.22 230.53 68.25 229.99"/><path class="cls-2" d="M67.53,235.4s.08-.68.15-1.36.18-1.35.18-1.35l4,.52s-.11.67-.18,1.34l-.15,1.34Z"/><polygon class="cls-2" points="67 240.15 67.3 237.44 71.27 237.91 70.97 240.59 67 240.15"/><polygon class="cls-2" points="66.47 244.9 66.77 242.18 70.75 242.61 70.45 245.29 66.47 244.9"/><polygon class="cls-2" points="66.04 249.66 66.26 246.93 70.24 247.31 70.03 250 66.04 249.66"/><polygon class="cls-2" points="65.61 255.1 65.83 252.38 69.81 252.7 69.6 255.39 65.61 255.1"/><path class="cls-2" d="M65.26,259.86s0-.68.08-1.36.11-1.36.11-1.36l4,.27s0,.68-.11,1.35-.08,1.35-.08,1.35Z"/><polygon class="cls-2" points="65.04 264.64 65.16 261.91 69.16 262.13 69.03 264.83 65.04 264.64"/><polygon class="cls-2" points="64.81 269.41 64.94 266.68 68.94 266.86 68.81 269.56 64.81 269.41"/><polygon class="cls-2" points="64.66 274.87 64.7 272.14 68.69 272.26 68.66 274.96 64.66 274.87"/><polygon class="cls-2" points="64.58 279.65 64.63 276.92 68.63 276.99 68.58 279.69 64.58 279.65"/><polygon class="cls-2" points="64.52 284.42 64.56 281.69 68.56 281.72 68.52 284.42 64.52 284.42"/><polygon class="cls-2" points="79.35 76.87 83.79 68.83 89 71.83 84.61 79.75 79.35 76.87"/><polygon class="cls-2" points="72.64 89.64 76.81 81.46 82.11 84.28 77.99 92.34 72.64 89.64"/><polygon class="cls-2" points="66.36 102.63 69.7 95.5 75.1 98.12 71.8 105.15 66.36 102.63"/><polygon class="cls-2" points="58.97 119.44 62.59 111 68.08 113.4 64.52 121.72 58.97 119.44"/><polygon class="cls-2" points="53.7 132.87 57.03 124.32 62.61 126.54 59.32 134.97 53.7 132.87"/><path class="cls-2" d="M48.48,147.73s.17-.55.44-1.37.67-1.89,1-3l1.53-4.33,5.65,2s-.75,2.14-1.51,4.27c-.37,1.07-.75,2.14-1,2.94s-.44,1.34-.44,1.34Z"/><path class="cls-2" d="M44.17,161.5l.39-1.38c.26-.83.6-1.92.95-3l1.38-4.38,5.72,1.82-1.36,4.31c-.34,1.08-.69,2.16-.94,3l-.38,1.36Z"/><path class="cls-2" d="M39.7,178l.94-3.82c.5-1.9,1-3.79,1-3.79l5.79,1.57s-.54,1.86-1,3.74-.93,3.77-.93,3.77Z"/><path class="cls-2" d="M36.14,193.28s.47-2.24,1-4.49c.22-1.12.49-2.24.7-3.08l.35-1.39L44,185.7s-.14.55-.34,1.37-.48,1.93-.7,3c-.47,2.21-.93,4.43-.93,4.43Z"/><path class="cls-2" d="M33.36,207.44l.8-4.52c.2-1.13.4-2.26.59-3.1l.3-1.4,5.88,1.18s-.11.55-.29,1.38-.39,2-.58,3.06l-.8,4.46Z"/><path class="cls-2" d="M31.05,221.68s.28-2,.57-3.89c.14-1,.28-1.95.38-2.68s.21-1.21.21-1.21l5.92,1s-.09.47-.2,1.19-.25,1.68-.38,2.64L37,222.54Z"/><polygon class="cls-2" points="28.78 239.9 29.8 230.78 35.76 231.51 34.75 240.51 28.78 239.9"/><polygon class="cls-2" points="27.55 254.28 28.28 245.13 34.26 245.66 33.54 254.69 27.55 254.28"/><polygon class="cls-2" points="26.74 270 27.18 260.83 33.17 261.14 32.74 270.19 26.74 270"/><polygon class="cls-2" points="26.52 284.43 26.65 275.24 32.65 275.36 32.52 284.42 26.52 284.43"/><path class="cls-3" d="M127.28,105.91l-1.57-.75A4,4,0,0,1,124,99.8l5.26-11.12a3.7,3.7,0,0,1,5.07-1.81l1.58.74Z"/><path class="cls-2" d="M9.86,189.85s-5.34-3.78-4.56-7.59c.93-3.78,2.16-8.82,3.4-13.86.31-1.26.6-2.53.94-3.76s.7-2.44,1-3.61c.67-2.33,1.29-4.52,1.83-6.39,1.07-3.74,12.3-3,12.3-3s-2.1,7.35-4.21,14.71c-.56,1.83-.95,3.7-1.4,5.44L18,176.54c-.68,2.79-1.14,4.64-1.14,4.64l-.37,1.51c-.23.9-.52,2.11-.75,3.33l-1,4.86s-.3,1.44-.82,4-1.32,6.12-2,10.49c-.37,2.18-.77,4.54-1.18,7s-.91,5.12-1.22,7.87-.72,5.57-1.09,8.45-.79,5.79-1,8.73-.54,5.87-.81,8.76c-.13,1.44-.26,2.88-.39,4.29s-.16,2.82-.25,4.2c-.15,2.76-.29,5.43-.43,8s-.32,4.91-.31,7.12C5.1,278.6,5,284.5,5,284.5H0s.1-6,.26-14.89c0-2.24.19-4.65.32-7.21s.28-5.25.43-8c.09-1.4.14-2.82.25-4.25s.27-2.88.4-4.34c.27-2.92.54-5.89.81-8.85s.65-5.93,1-8.83.75-5.78,1.11-8.55.81-5.43,1.23-7.95.82-4.92,1.19-7.12c.68-4.42,1.5-8.05,2-10.61Z"/><circle class="cls-1" cx="137.92" cy="468" r="4.5"/><path class="cls-2" d="M118.2,304s18,17.72,18.4,21a324.05,324.05,0,0,0,9.76,47.52c1.13,4.27,2.56,8.45,3.84,12.6.63,2.08,1.42,4.09,2.1,6.11s1.39,4,2.12,5.93,1.49,3.82,2.22,5.68,1.41,3.68,2.18,5.41l2.18,5.08c.7,1.64,1.37,3.22,2.1,4.71L167,426.2c1.22,2.39.4,14.6.4,14.6l3.92,7.09-12.64,7.28-4.1-7.41-.91-1.64s-.29-.5-.78-1.45l-2.12-4.15c-.9-1.8-2.05-3.94-3.26-6.46l-4-8.5c-1.41-3.13-2.84-6.57-4.41-10.19s-3-7.53-4.54-11.53q-1.07-3-2.18-6.17c-.72-2.09-1.52-4.19-2.17-6.35-1.34-4.31-2.81-8.65-4-13.08A345.34,345.34,0,0,1,116,328.91c-.82-6.82-1.48-12.51-1.74-16.52s-.49-6.28-.49-6.28,0-.47-.06-.94l0-.94s-.06-1.29-.16-3.22-.23-4.52-.31-7.11c-.07-5.17-.15-10.34-.15-10.34h4.56s.08,5.1.15,10.2c.07,2.55.23,5.1.31,7Z"/><polygon class="cls-2" points="118.83 475.55 120.14 477.91 116.68 479.91 115.36 477.52 118.83 475.55"/><polygon class="cls-2" points="116.55 471.41 117.85 473.77 114.36 475.73 113.04 473.34 116.55 471.41"/><polygon class="cls-2" points="114.26 467.27 115.56 469.63 112.05 471.54 110.73 469.15 114.26 467.27"/><polygon class="cls-2" points="111.78 462.47 113 464.87 109.46 466.73 108.22 464.3 111.78 462.47"/><polygon class="cls-2" points="109.63 458.25 110.85 460.66 107.29 462.48 106.05 460.05 109.63 458.25"/><path class="cls-2" d="M107.51,454l.58,1.23.61,1.2-3.58,1.77L104.5,457c-.29-.62-.59-1.24-.59-1.24Z"/><polygon class="cls-2" points="105.5 449.74 106.65 452.19 103.04 453.92 101.88 451.45 105.5 449.74"/><polygon class="cls-2" points="103.21 444.85 104.36 447.3 100.72 448.97 99.56 446.5 103.21 444.85"/><polygon class="cls-2" points="101.3 440.52 102.36 443.01 98.71 444.64 97.63 442.13 101.3 440.52"/><polygon class="cls-2" points="99.43 436.18 100.5 438.66 96.83 440.25 95.75 437.74 99.43 436.18"/><polygon class="cls-2" points="97.57 431.83 98.63 434.31 94.94 435.86 93.86 433.35 97.57 431.83"/><polygon class="cls-2" points="95.6 426.8 96.58 429.31 92.87 430.81 91.87 428.26 95.6 426.8"/><polygon class="cls-2" points="93.88 422.39 94.86 424.91 91.13 426.36 90.14 423.81 93.88 422.39"/><path class="cls-2" d="M92.22,418s.22.64.45,1.28.47,1.26.47,1.26l-3.75,1.4s-.26-.63-.48-1.27l-.45-1.29Z"/><polygon class="cls-2" points="90.64 413.5 91.54 416.05 87.78 417.41 86.87 414.83 90.64 413.5"/><polygon class="cls-2" points="88.84 408.41 89.74 410.95 85.96 412.26 85.05 409.68 88.84 408.41"/><polygon class="cls-2" points="87.4 403.9 88.21 406.48 84.41 407.74 83.59 405.13 87.4 403.9"/><polygon class="cls-2" points="85.97 399.39 86.78 401.97 82.97 403.18 82.15 400.58 85.97 399.39"/><path class="cls-2" d="M84.57,394.88s.17.65.38,1.29.41,1.29.41,1.29l-3.83,1.17s-.21-.66-.41-1.31-.39-1.31-.39-1.31Z"/><polygon class="cls-2" points="83.11 389.67 83.84 392.28 79.99 393.38 79.26 390.76 83.11 389.67"/><polygon class="cls-2" points="81.83 385.12 82.56 387.72 78.7 388.79 77.97 386.16 81.83 385.12"/><polygon class="cls-2" points="80.64 380.54 81.29 383.17 77.42 384.18 76.77 381.53 80.64 380.54"/><polygon class="cls-2" points="79.52 375.95 80.16 378.57 76.28 379.54 75.63 376.89 79.52 375.95"/><path class="cls-2" d="M78.24,370.7s.14.66.31,1.31l.32,1.31-3.89.92s-.17-.66-.33-1.33-.31-1.33-.31-1.33Z"/><polygon class="cls-2" points="77.26 366.07 77.82 368.71 73.92 369.58 73.35 366.91 77.26 366.07"/><polygon class="cls-2" points="76.28 361.44 76.84 364.09 72.92 364.9 72.36 362.23 76.28 361.44"/><path class="cls-2" d="M75.36,356.8l.24,1.33c.11.67.26,1.33.26,1.33l-3.92.77s-.16-.67-.27-1.34l-.24-1.34Z"/><polygon class="cls-2" points="74.42 351.48 74.89 354.14 70.96 354.86 70.48 352.17 74.42 351.48"/><polygon class="cls-2" points="73.59 346.82 74.06 349.49 70.12 350.15 69.64 347.47 73.59 346.82"/><polygon class="cls-2" points="72.9 342.14 73.28 344.82 69.33 345.44 68.94 342.74 72.9 342.14"/><polygon class="cls-2" points="72.22 337.46 72.61 340.14 68.65 340.71 68.25 338.01 72.22 337.46"/><path class="cls-2" d="M71.5,332.11l.15,1.34c.07.67.18,1.34.18,1.34l-4,.52s-.11-.68-.18-1.35-.15-1.36-.15-1.36Z"/><polygon class="cls-2" points="70.97 327.41 71.27 330.09 67.3 330.56 67 327.85 70.97 327.41"/><polygon class="cls-2" points="70.45 322.71 70.75 325.39 66.77 325.81 66.47 323.1 70.45 322.71"/><polygon class="cls-2" points="70.03 318 70.24 320.69 66.26 321.06 66.04 318.34 70.03 318"/><polygon class="cls-2" points="69.6 312.61 69.81 315.3 65.83 315.62 65.61 312.9 69.6 312.61"/><path class="cls-2" d="M69.25,307.89s0,.68.08,1.35.11,1.35.11,1.35l-4,.27s-.06-.68-.11-1.36-.08-1.37-.08-1.37Z"/><polygon class="cls-2" points="69.03 303.17 69.16 305.87 65.16 306.09 65.04 303.36 69.03 303.17"/><polygon class="cls-2" points="68.81 298.44 68.94 301.14 64.94 301.31 64.81 298.59 68.81 298.44"/><polygon class="cls-2" points="68.66 293.04 68.69 295.74 64.7 295.86 64.66 293.13 68.66 293.04"/><polygon class="cls-2" points="68.58 288.31 68.63 291.01 64.63 291.08 64.58 288.35 68.58 288.31"/><polygon class="cls-2" points="68.52 283.58 68.56 286.28 64.56 286.31 64.52 283.57 68.52 283.58"/><polygon class="cls-2" points="84.61 488.25 89 496.17 83.79 499.17 79.35 491.13 84.61 488.25"/><polygon class="cls-2" points="77.99 475.66 82.11 483.72 76.81 486.54 72.64 478.36 77.99 475.66"/><polygon class="cls-2" points="71.8 462.85 75.1 469.88 69.7 472.49 66.36 465.37 71.8 462.85"/><polygon class="cls-2" points="64.52 446.27 68.08 454.59 62.59 457 58.97 448.56 64.52 446.27"/><polygon class="cls-2" points="59.32 433.03 62.61 441.46 57.03 443.68 53.7 435.12 59.32 433.03"/><path class="cls-2" d="M54.17,418.38s.18.54.44,1.35.66,1.87,1,2.94l1.51,4.26-5.65,2s-.77-2.16-1.53-4.33c-.38-1.08-.76-2.16-1-3s-.44-1.37-.44-1.37Z"/><path class="cls-2" d="M49.93,404.8l.38,1.37c.25.81.6,1.89.94,3l1.36,4.32-5.72,1.82-1.38-4.38c-.35-1.09-.69-2.19-.95-3s-.39-1.38-.39-1.38Z"/><path class="cls-2" d="M45.52,388.58s.46,1.88.93,3.77,1,3.74,1,3.74l-5.79,1.57s-.55-1.89-1-3.79l-.94-3.82Z"/><path class="cls-2" d="M42,373.46s.46,2.22.93,4.43c.22,1.11.49,2.21.7,3s.34,1.38.34,1.38l-5.84,1.38-.35-1.4c-.21-.83-.48-1.95-.7-3.07-.48-2.25-1-4.49-1-4.49Z"/><path class="cls-2" d="M39.26,359.5l.8,4.46c.19,1.11.39,2.23.58,3.05s.29,1.39.29,1.39l-5.88,1.18-.3-1.4c-.19-.84-.39-2-.59-3.1l-.8-4.52Z"/><path class="cls-2" d="M37,345.46l.56,3.84c.13,1,.27,1.92.38,2.64s.2,1.19.2,1.19l-5.92,1s-.1-.48-.21-1.21-.24-1.71-.38-2.68c-.29-1.95-.57-3.89-.57-3.89Z"/><polygon class="cls-2" points="34.75 327.49 35.76 336.49 29.8 337.22 28.78 328.1 34.75 327.49"/><polygon class="cls-2" points="33.54 313.31 34.26 322.34 28.28 322.87 27.55 313.72 33.54 313.31"/><polygon class="cls-2" points="32.74 297.81 33.17 306.85 27.18 307.17 26.74 298 32.74 297.81"/><polygon class="cls-2" points="32.52 283.58 32.65 292.63 26.65 292.75 26.52 283.57 32.52 283.58"/><path class="cls-3" d="M127.28,462.09l-1.57.75A4,4,0,0,0,124,468.2l5.26,11.12a3.7,3.7,0,0,0,5.07,1.81l1.58-.74Z"/><path class="cls-2" d="M9.86,378.15s-5.34,3.78-4.56,7.59c.93,3.78,2.16,8.82,3.4,13.86.31,1.26.6,2.53.94,3.76s.7,2.43,1,3.6c.67,2.34,1.29,4.53,1.83,6.4,1.07,3.74,12.3,3,12.3,3s-2.1-7.36-4.21-14.71c-.56-1.83-.95-3.7-1.4-5.44L18,391.46c-.68-2.79-1.14-4.65-1.14-4.65l-.37-1.5c-.23-.9-.52-2.11-.75-3.33l-1-4.86s-.3-1.44-.82-4-1.32-6.12-2-10.49c-.37-2.18-.77-4.54-1.18-7s-.91-5.12-1.22-7.87-.72-5.57-1.09-8.45-.79-5.79-1-8.73-.54-5.87-.81-8.76c-.13-1.44-.26-2.88-.39-4.29s-.16-2.82-.25-4.2c-.15-2.76-.29-5.43-.43-8s-.32-4.91-.31-7.13C5.1,289.39,5,283.5,5,283.5H0s.1,5.95.26,14.89c0,2.24.19,4.65.32,7.21s.28,5.25.43,8c.09,1.39.14,2.81.25,4.25s.27,2.88.4,4.34c.27,2.92.54,5.88.81,8.85s.65,5.92,1,8.83.75,5.77,1.11,8.54.81,5.44,1.23,8,.82,4.92,1.19,7.12c.68,4.42,1.5,8.05,2,10.61Z"/><circle class="cls-1" cx="586.5" cy="58" r="4"/><rect class="cls-1" x="459.65" y="57.44" width="3" height="2"/><rect class="cls-1" x="463.92" y="57" width="2" height="2"/><rect class="cls-1" x="468.92" y="57" width="2" height="2"/><rect class="cls-1" x="473.65" y="57.44" width="3" height="2"/><rect class="cls-1" x="478.92" y="57" width="2" height="2"/><rect class="cls-1" x="483.65" y="57.44" width="3" height="2"/><rect class="cls-1" x="488.65" y="57.44" width="3" height="2"/><rect class="cls-1" x="493.65" y="57.44" width="3" height="2"/><rect class="cls-1" x="498.65" y="57.44" width="3" height="2"/><rect class="cls-1" x="503.65" y="57.44" width="3" height="2"/><rect class="cls-1" x="508.65" y="57.44" width="3" height="2"/><rect class="cls-1" x="512.92" y="57" width="2" height="2"/><rect class="cls-1" x="518.65" y="57.44" width="3" height="2"/><rect class="cls-1" x="523.65" y="57.44" width="3" height="2"/><rect class="cls-1" x="527.92" y="57" width="2" height="2"/><rect class="cls-1" x="532.65" y="57.44" width="3" height="2"/><rect class="cls-1" x="538.65" y="57.44" width="3" height="2"/><rect class="cls-1" x="542.92" y="57" width="2" height="2"/><rect class="cls-1" x="547.65" y="57.44" width="3" height="2"/><rect class="cls-1" x="552.65" y="57.44" width="3" height="2"/><rect class="cls-1" x="557.92" y="57" width="2" height="2"/><rect class="cls-1" x="562.65" y="57.44" width="3" height="2"/><rect class="cls-1" x="567.65" y="57.44" width="3" height="2"/><rect class="cls-1" x="459.65" y="40.44" width="368" height="1"/><polygon class="cls-1" points="569.92 30.44 578.92 27.44 609.92 27.44 617.92 32.44 581.57 32.44 569.89 32.44 459.65 32.44 459.65 30.44 569.92 30.44"/><circle class="cls-1" cx="331.34" cy="58" r="4"/><rect class="cls-1" x="456.65" y="57.44" width="3" height="2"/><rect class="cls-1" x="451.92" y="57" width="2" height="2"/><rect class="cls-1" x="446.92" y="57" width="2" height="2"/><rect class="cls-1" x="442.65" y="57.44" width="3" height="2"/><rect class="cls-1" x="436.92" y="57" width="2" height="2"/><rect class="cls-1" x="432.65" y="57.44" width="3" height="2"/><rect class="cls-1" x="427.65" y="57.44" width="3" height="2"/><rect class="cls-1" x="422.65" y="57.44" width="3" height="2"/><rect class="cls-1" x="417.65" y="57.44" width="3" height="2"/><rect class="cls-1" x="412.65" y="57.44" width="3" height="2"/><rect class="cls-1" x="407.65" y="57.44" width="3" height="2"/><rect class="cls-1" x="402.92" y="57" width="2" height="2"/><rect class="cls-1" x="397.65" y="57.44" width="3" height="2"/><rect class="cls-1" x="392.65" y="57.44" width="3" height="2"/><rect class="cls-1" x="387.92" y="57" width="2" height="2"/><rect class="cls-1" x="383.65" y="57.44" width="3" height="2"/><rect class="cls-1" x="377.65" y="57.44" width="3" height="2"/><rect class="cls-1" x="372.92" y="57" width="2" height="2"/><rect class="cls-1" x="368.65" y="57.44" width="3" height="2"/><rect class="cls-1" x="363.65" y="57.44" width="3" height="2"/><rect class="cls-1" x="357.92" y="57" width="2" height="2"/><rect class="cls-1" x="353.65" y="57.44" width="3" height="2"/><rect class="cls-1" x="348.65" y="57.44" width="3" height="2"/><rect class="cls-1" x="91.65" y="40.44" width="368" height="1"/><polygon class="cls-1" points="347.92 30.44 338.92 27.44 307.92 27.44 299.92 32.44 336.27 32.44 347.95 32.44 459.65 32.44 459.65 30.44 347.92 30.44"/><circle class="cls-1" cx="586.5" cy="512" r="4"/><rect class="cls-1" x="459.65" y="511.44" width="3" height="2"/><rect class="cls-1" x="463.92" y="511" width="2" height="2"/><rect class="cls-1" x="468.92" y="511" width="2" height="2"/><rect class="cls-1" x="473.65" y="511.44" width="3" height="2"/><rect class="cls-1" x="478.92" y="511" width="2" height="2"/><rect class="cls-1" x="483.65" y="511.44" width="3" height="2"/><rect class="cls-1" x="488.65" y="511.44" width="3" height="2"/><rect class="cls-1" x="493.65" y="511.44" width="3" height="2"/><rect class="cls-1" x="498.65" y="511.44" width="3" height="2"/><rect class="cls-1" x="503.65" y="511.44" width="3" height="2"/><rect class="cls-1" x="508.65" y="511.44" width="3" height="2"/><rect class="cls-1" x="512.92" y="511" width="2" height="2"/><rect class="cls-1" x="518.65" y="511.44" width="3" height="2"/><rect class="cls-1" x="523.65" y="511.44" width="3" height="2"/><rect class="cls-1" x="527.92" y="511" width="2" height="2"/><rect class="cls-1" x="532.65" y="511.44" width="3" height="2"/><rect class="cls-1" x="538.65" y="511.44" width="3" height="2"/><rect class="cls-1" x="542.92" y="511" width="2" height="2"/><rect class="cls-1" x="547.65" y="511.44" width="3" height="2"/><rect class="cls-1" x="552.65" y="511.44" width="3" height="2"/><rect class="cls-1" x="557.92" y="511" width="2" height="2"/><rect class="cls-1" x="562.65" y="511.44" width="3" height="2"/><rect class="cls-1" x="567.65" y="511.44" width="3" height="2"/><rect class="cls-1" x="459.65" y="529.44" width="368" height="1"/><polygon class="cls-1" points="569.92 540.44 578.92 543.44 609.92 543.44 617.92 538.44 581.57 538.44 569.89 538.44 459.65 538.44 459.65 540.44 569.92 540.44"/><path class="cls-1" d="M364.68,512c0-2.21,1.28-4,2.86-4s2.87,1.79,2.87,4-1.28,4-2.87,4S364.68,514.21,364.68,512Z"/><rect class="cls-1" x="456.92" y="511" width="2" height="2"/><rect class="cls-1" x="453.91" y="511" width="1.43" height="2"/><rect class="cls-1" x="450.33" y="511" width="1.43" height="2"/><rect class="cls-1" x="446.92" y="511" width="2" height="2"/><rect class="cls-1" x="443.16" y="511" width="1.43" height="2"/><rect class="cls-1" x="439.92" y="511" width="2" height="2"/><rect class="cls-1" x="435.92" y="511" width="2" height="2"/><rect class="cls-1" x="432.65" y="511.44" width="3" height="2"/><rect class="cls-1" x="428.92" y="511" width="2" height="2"/><rect class="cls-1" x="424.92" y="511" width="2" height="2"/><rect class="cls-1" x="421.92" y="511" width="2" height="2"/><rect class="cls-1" x="418.81" y="511" width="1.43" height="2"/><rect class="cls-1" x="414.92" y="511" width="2" height="2"/><rect class="cls-1" x="410.92" y="511" width="2" height="2"/><rect class="cls-1" x="408.07" y="511" width="1.43" height="2"/><rect class="cls-1" x="404.92" y="511" width="2" height="2"/><rect class="cls-1" x="399.92" y="511" width="2" height="2"/><rect class="cls-1" x="397.32" y="511" width="1.43" height="2"/><rect class="cls-1" x="393.92" y="511" width="2" height="2"/><rect class="cls-1" x="389.92" y="511" width="2" height="2"/><rect class="cls-1" x="386.58" y="511" width="1.43" height="2"/><rect class="cls-1" x="382.92" y="511" width="2" height="2"/><rect class="cls-1" x="379.65" y="511.44" width="3" height="2"/><rect class="cls-1" x="93.65" y="529.44" width="366" height="1"/><polygon class="cls-1" points="379.42 540.44 372.97 543.44 350.77 543.44 345.04 538.44 371.07 538.44 379.44 538.44 459.65 538.44 459.65 540.44 379.42 540.44"/><rect class="cls-1" x="93.65" y="567.44" width="17" height="1"/><rect class="cls-1" x="808.65" y="4.44" width="1" height="36"/><path class="cls-1" d="M812.68,40.17a3.76,3.76,0,1,1-3.76-3.76A3.76,3.76,0,0,1,812.68,40.17Z"/><path class="cls-1" d="M812.68,3.76a3.76,3.76,0,1,0-3.76,3.76A3.76,3.76,0,0,0,812.68,3.76Z"/><rect class="cls-1" x="823.65" y="4.44" width="1" height="36"/><path class="cls-1" d="M827.68,40.17a3.76,3.76,0,1,1-3.76-3.76A3.76,3.76,0,0,1,827.68,40.17Z"/><path class="cls-1" d="M827.68,3.76a3.76,3.76,0,1,0-3.76,3.76A3.76,3.76,0,0,0,827.68,3.76Z"/><rect class="cls-1" x="94.65" y="531.44" width="1" height="36"/><path class="cls-1" d="M98.68,567.17a3.76,3.76,0,1,1-3.76-3.76A3.76,3.76,0,0,1,98.68,567.17Z"/><path class="cls-1" d="M98.68,530.76a3.76,3.76,0,1,0-3.76,3.76A3.76,3.76,0,0,0,98.68,530.76Z"/><rect class="cls-1" x="109.65" y="531.44" width="1" height="36"/><path class="cls-1" d="M113.68,567.17a3.76,3.76,0,1,1-3.76-3.76A3.76,3.76,0,0,1,113.68,567.17Z"/><path class="cls-1" d="M113.68,530.76a3.76,3.76,0,1,0-3.76,3.76A3.76,3.76,0,0,0,113.68,530.76Z"/></g></g></svg>