<svg xmlns="http://www.w3.org/2000/svg" viewBox="0 0 216.74 187.47"><defs><style>.cls-1,.cls-2{fill:#dadada;}.cls-2{opacity:0.5;}</style></defs><title>资源 10</title><g id="图层_2" data-name="图层 2"><g id="图层_2-2" data-name="图层 2"><path class="cls-1" d="M137.12,45.14a54.48,54.48,0,0,1,9.68,7.39l7.63-7.63a65.78,65.78,0,0,0-11.92-9.11Z"/><path class="cls-1" d="M109.52,37.3a55,55,0,0,1,11.91,1.45l2.79-10.43a66.46,66.46,0,0,0-14.7-1.82Z"/><path class="cls-1" d="M123.76,39.35A55.05,55.05,0,0,1,135,43.94l5.39-9.35a65.48,65.48,0,0,0-13.86-5.66Z"/><path class="cls-1" d="M172.82,76.94l-10.43,2.79a54.85,54.85,0,0,1,1.45,12.17h10.79A65.8,65.8,0,0,0,172.82,76.94Z"/><path class="cls-1" d="M45,108.7l10.42-2.79a55.37,55.37,0,0,1-1.64-11.6H42.94A65.62,65.62,0,0,0,45,108.7Z"/><path class="cls-1" d="M166.49,60.62,157.15,66a54.8,54.8,0,0,1,4.64,11.38l10.42-2.8A65.08,65.08,0,0,0,166.49,60.62Z"/><path class="cls-1" d="M148.51,54.23a54.84,54.84,0,0,1,7.43,9.7l9.35-5.4a66.41,66.41,0,0,0-9.15-11.93Z"/><path class="cls-1" d="M68.94,130.4a55,55,0,0,1-7.17-9.32l-9.35,5.4A65.74,65.74,0,0,0,61.31,138Z"/><path class="cls-1" d="M107.11,147.41a55.14,55.14,0,0,1-11.86-1.64l-2.79,10.42a66,66,0,0,0,14.65,2Z"/><path class="cls-1" d="M53.7,91.9a55.07,55.07,0,0,1,53.41-54.58V26.52A65.86,65.86,0,0,0,42.91,91.9Z"/><path class="cls-1" d="M163.81,94.31a55.07,55.07,0,0,1-54.29,53.12v10.79a65.87,65.87,0,0,0,65.09-63.91Z"/><path class="cls-1" d="M80,139.31a55.36,55.36,0,0,1-9.32-7.21L63,139.73a65.66,65.66,0,0,0,11.56,8.93Z"/><path class="cls-1" d="M92.93,145.12A54.56,54.56,0,0,1,82,140.53l-5.39,9.35a65.49,65.49,0,0,0,13.48,5.67Z"/><path class="cls-1" d="M60.56,119A54.2,54.2,0,0,1,56,108.23L45.59,111a65.43,65.43,0,0,0,5.62,13.37Z"/><path class="cls-1" d="M99.31,91.9a9.1,9.1,0,0,1,1.49-3.71,1,1,0,0,0-.12-1.3l-.12-.12a1,1,0,0,0-1.56.14,11.23,11.23,0,0,0-1.87,4.66,1,1,0,0,0,1,1.18h.16A1,1,0,0,0,99.31,91.9Z"/><path class="cls-1" d="M100.92,98.72a9.29,9.29,0,0,1-1.61-3.88,1,1,0,0,0-1-.86h-.16a1,1,0,0,0-1,1.18,11.16,11.16,0,0,0,2,4.87,1,1,0,0,0,1.55.12l.11-.11A1,1,0,0,0,100.92,98.72Z"/><path class="cls-1" d="M102.83,86.06a9,9,0,0,1,4-1.73,1,1,0,0,0,.86-1v-.16a1,1,0,0,0-1.19-1,11.22,11.22,0,0,0-5.07,2.17,1,1,0,0,0-.11,1.54l.11.11A1,1,0,0,0,102.83,86.06Z"/><path class="cls-1" d="M109,83.16v.16a1,1,0,0,0,.86,1,9.16,9.16,0,0,1,3.88,1.61,1,1,0,0,0,1.32-.11l.11-.11a1,1,0,0,0-.12-1.56,11.26,11.26,0,0,0-4.87-2A1,1,0,0,0,109,83.16Z"/><path class="cls-1" d="M106.87,102.4a9.07,9.07,0,0,1-3.87-1.61,1,1,0,0,0-1.32.11l-.12.11a1,1,0,0,0,.12,1.56,11.4,11.4,0,0,0,4.87,2,1,1,0,0,0,1.19-1v-.16A1,1,0,0,0,106.87,102.4Z"/><path class="cls-1" d="M113.52,100.91a9.1,9.1,0,0,1-3.71,1.49,1,1,0,0,0-.85,1v.16a1,1,0,0,0,1.18,1,11.45,11.45,0,0,0,4.66-1.87,1,1,0,0,0,.14-1.57l-.12-.11A1,1,0,0,0,113.52,100.91Z"/><path class="cls-1" d="M115.77,88a9,9,0,0,1,1.61,3.88,1,1,0,0,0,1,.86h.17a1,1,0,0,0,1-1.18,11.4,11.4,0,0,0-2-4.87,1,1,0,0,0-1.55-.12l-.12.11A1,1,0,0,0,115.77,88Z"/><path class="cls-1" d="M117.38,94.84a9,9,0,0,1-1.73,4,1,1,0,0,0,.1,1.35l.11.11a1,1,0,0,0,1.54-.1,11.42,11.42,0,0,0,2.17-5.07,1,1,0,0,0-1-1.19h-.17A1,1,0,0,0,117.38,94.84Z"/><line class="cls-1" x1="162.66" y1="39.05" x2="54.03" y2="147.68"/><line class="cls-1" x1="54.03" y1="39.05" x2="162.66" y2="147.68"/><line class="cls-1" x1="150.8" y1="93.37" x2="65.94" y2="93.37"/><rect class="cls-1" y="93.2" width="216.74" height="0.33"/><line class="cls-1" x1="108.37" y1="10.6" x2="108.37" y2="176.14"/><polygon class="cls-2" points="118.03 77.56 124.15 83.67 118.55 83.16 118.03 77.56"/><polygon class="cls-2" points="121.22 75.76 125.95 80.49 121.61 80.09 121.22 75.76"/><polygon class="cls-2" points="124.03 74.58 127.12 77.67 124.29 77.41 124.03 74.58"/><polygon class="cls-2" points="124.15 102.97 118.03 109.09 118.55 103.48 124.15 102.97"/><polygon class="cls-2" points="125.95 106.16 121.22 110.89 121.61 106.56 125.95 106.16"/><polygon class="cls-2" points="127.12 108.97 124.03 112.06 124.29 109.23 127.12 108.97"/><polygon class="cls-2" points="98.59 109.15 92.48 103.03 98.08 103.55 98.59 109.15"/><polygon class="cls-2" points="95.41 110.95 90.68 106.22 95.01 106.62 95.41 110.95"/><polygon class="cls-2" points="92.59 112.12 89.5 109.03 92.33 109.29 92.59 112.12"/><polygon class="cls-2" points="92.54 83.64 98.66 77.53 98.14 83.13 92.54 83.64"/><polygon class="cls-2" points="90.74 80.46 95.47 75.73 95.07 80.06 90.74 80.46"/><polygon class="cls-2" points="89.57 77.64 92.66 74.55 92.4 77.38 89.57 77.64"/><rect class="cls-1" x="106.81" y="59.16" width="0.53" height="4.16"/><rect class="cls-1" x="109.35" y="59.16" width="0.53" height="4.16"/><rect class="cls-1" x="108.07" y="59.16" width="0.56" height="1.95"/><rect class="cls-1" x="101.25" y="59.86" width="0.53" height="4.16" transform="translate(-9.21 18.56) rotate(-10)"/><rect class="cls-1" x="103.75" y="59.42" width="0.53" height="4.16" transform="translate(-9.1 18.99) rotate(-10)"/><rect class="cls-1" x="102.3" y="59.66" width="0.56" height="1.95" transform="translate(-8.97 18.73) rotate(-10)"/><rect class="cls-1" x="95.9" y="61.53" width="0.53" height="4.16" transform="translate(-15.95 36.71) rotate(-19.99)"/><rect class="cls-1" x="98.28" y="60.66" width="0.53" height="4.16" transform="translate(-15.51 37.49) rotate(-20)"/><rect class="cls-1" x="96.7" y="61.16" width="0.56" height="1.95" transform="translate(-15.4 36.9) rotate(-19.99)"/><rect class="cls-1" x="90.92" y="64.09" width="0.53" height="4.16" transform="matrix(0.87, -0.5, 0.5, 0.87, -20.87, 54.44)"/><rect class="cls-1" x="93.11" y="62.83" width="0.53" height="4.16" transform="matrix(0.87, -0.5, 0.5, 0.87, -19.94, 55.39)"/><rect class="cls-1" x="91.45" y="63.61" width="0.56" height="1.95" transform="translate(-20 54.52) rotate(-30)"/><rect class="cls-1" x="86.46" y="67.49" width="0.53" height="4.16" transform="translate(-24.43 72.03) rotate(-40.01)"/><rect class="cls-1" x="88.4" y="65.86" width="0.53" height="4.16" transform="translate(-22.93 72.89) rotate(-40)"/><rect class="cls-1" x="86.71" y="66.93" width="0.56" height="1.95" transform="translate(-23.3 71.79) rotate(-39.99)"/><rect class="cls-1" x="82.65" y="71.6" width="0.53" height="4.16" transform="translate(-26.82 89.84) rotate(-50)"/><rect class="cls-1" x="84.28" y="69.66" width="0.53" height="4.16" transform="translate(-24.76 90.39) rotate(-50)"/><rect class="cls-1" x="82.61" y="71.03" width="0.56" height="1.95" transform="translate(-25.55 89.19) rotate(-49.99)"/><rect class="cls-1" x="79.62" y="76.32" width="0.53" height="4.16" transform="translate(-27.95 108.38) rotate(-60)"/><rect class="cls-1" x="80.89" y="74.12" width="0.53" height="4.16" transform="translate(-25.42 108.37) rotate(-60)"/><rect class="cls-1" x="79.29" y="75.77" width="0.56" height="1.95" transform="translate(-26.68 107.28) rotate(-60)"/><rect class="cls-1" x="77.45" y="81.49" width="0.53" height="4.16" transform="translate(-27.39 128.01) rotate(-70)"/><rect class="cls-1" x="78.32" y="79.11" width="0.53" height="4.16" transform="translate(-24.57 127.28) rotate(-70.01)"/><rect class="cls-1" x="76.84" y="81.02" width="0.56" height="1.95" transform="translate(-26.31 126.43) rotate(-70)"/><rect class="cls-1" x="76.22" y="86.96" width="0.53" height="4.16" transform="translate(-24.48 148.9) rotate(-80)"/><rect class="cls-1" x="76.66" y="84.46" width="0.53" height="4.16" transform="translate(-21.66 147.27) rotate(-80)"/><rect class="cls-1" x="75.34" y="86.62" width="0.56" height="1.95" transform="translate(-23.79 146.83) rotate(-79.99)"/><rect class="cls-1" x="74.14" y="94.37" width="4.16" height="0.53"/><rect class="cls-1" x="74.14" y="91.83" width="4.16" height="0.53"/><rect class="cls-1" x="74.14" y="93.09" width="1.95" height="0.56"/><rect class="cls-1" x="74.85" y="99.93" width="4.16" height="0.53" transform="matrix(0.98, -0.17, 0.17, 0.98, -16.23, 14.88)"/><rect class="cls-1" x="74.41" y="97.43" width="4.16" height="0.53" transform="translate(-15.8 14.76) rotate(-10)"/><rect class="cls-1" x="74.64" y="98.86" width="1.95" height="0.56" transform="translate(-16.06 14.63) rotate(-10)"/><rect class="cls-1" x="76.51" y="105.28" width="4.16" height="0.53" transform="translate(-31.35 33.23) rotate(-20)"/><rect class="cls-1" x="75.64" y="102.9" width="4.16" height="0.53" transform="translate(-30.6 32.8) rotate(-20)"/><rect class="cls-1" x="76.14" y="104.45" width="1.95" height="0.56" transform="translate(-31.15 32.67) rotate(-19.99)"/><rect class="cls-1" x="79.08" y="110.26" width="4.16" height="0.53" transform="matrix(0.87, -0.5, 0.5, 0.87, -44.39, 55.38)"/><rect class="cls-1" x="77.81" y="108.07" width="4.16" height="0.53" transform="translate(-43.46 54.45) rotate(-30)"/><rect class="cls-1" x="78.59" y="109.7" width="1.95" height="0.56" transform="translate(-44.34 54.53) rotate(-30.01)"/><rect class="cls-1" x="82.47" y="114.72" width="4.16" height="0.53" transform="translate(-54.13 81.25) rotate(-40)"/><rect class="cls-1" x="80.84" y="112.78" width="4.16" height="0.53" transform="translate(-53.27 79.74) rotate(-40)"/><rect class="cls-1" x="81.91" y="114.45" width="1.95" height="0.56" transform="translate(-54.35 80.1) rotate(-39.99)"/><rect class="cls-1" x="86.59" y="118.53" width="4.16" height="0.53" transform="translate(-59.33 110.35) rotate(-50)"/><rect class="cls-1" x="84.64" y="116.9" width="4.16" height="0.53" transform="translate(-58.77 108.27) rotate(-49.99)"/><rect class="cls-1" x="86.01" y="118.55" width="1.95" height="0.56" transform="translate(-59.95 109.07) rotate(-50)"/><rect class="cls-1" x="91.3" y="121.56" width="4.16" height="0.53" transform="matrix(0.5, -0.87, 0.87, 0.5, -58.82, 141.78)"/><rect class="cls-1" x="89.11" y="120.29" width="4.16" height="0.53" transform="translate(-58.81 139.26) rotate(-60.01)"/><rect class="cls-1" x="90.75" y="121.87" width="1.95" height="0.56" transform="translate(-59.92 140.51) rotate(-60)"/><rect class="cls-1" x="96.47" y="123.73" width="4.16" height="0.53" transform="translate(-51.67 174.18) rotate(-70)"/><rect class="cls-1" x="94.09" y="122.86" width="4.16" height="0.53" transform="translate(-52.42 171.38) rotate(-70)"/><rect class="cls-1" x="96" y="124.32" width="1.95" height="0.56" transform="translate(-53.28 173.08) rotate(-69.99)"/><rect class="cls-1" x="101.94" y="124.96" width="4.16" height="0.53" transform="translate(-37.37 205.92) rotate(-80)"/><rect class="cls-1" x="99.44" y="124.52" width="4.16" height="0.53" transform="translate(-39 203.1) rotate(-80)"/><rect class="cls-1" x="101.6" y="125.82" width="1.95" height="0.56" transform="translate(-39.41 205.23) rotate(-80)"/><rect class="cls-1" x="109.35" y="123.42" width="0.53" height="4.16"/><rect class="cls-1" x="106.81" y="123.42" width="0.53" height="4.16"/><rect class="cls-1" x="108.07" y="125.62" width="0.56" height="1.95"/><rect class="cls-1" x="114.91" y="122.71" width="0.53" height="4.16" transform="translate(-19.93 21.91) rotate(-10)"/><rect class="cls-1" x="112.41" y="123.15" width="0.53" height="4.16" transform="matrix(0.98, -0.17, 0.17, 0.98, -20.03, 21.47)"/><rect class="cls-1" x="113.84" y="125.12" width="0.56" height="1.95" transform="translate(-20.18 21.76) rotate(-10.01)"/><rect class="cls-1" x="120.26" y="121.05" width="0.53" height="4.16" transform="translate(-34.85 48.67) rotate(-20.01)"/><rect class="cls-1" x="117.88" y="121.91" width="0.53" height="4.16" transform="translate(-35.28 47.88) rotate(-20)"/><rect class="cls-1" x="119.43" y="123.62" width="0.56" height="1.95" transform="translate(-35.39 48.46) rotate(-20)"/><rect class="cls-1" x="125.24" y="118.48" width="0.53" height="4.16" transform="translate(-43.46 78.9) rotate(-30)"/><rect class="cls-1" x="123.05" y="119.75" width="0.53" height="4.16" transform="translate(-44.39 77.99) rotate(-30)"/><rect class="cls-1" x="124.69" y="121.17" width="0.56" height="1.95" transform="translate(-44.34 78.87) rotate(-30.01)"/><rect class="cls-1" x="129.71" y="115.09" width="0.53" height="4.16" transform="translate(-44.9 110.96) rotate(-40)"/><rect class="cls-1" x="127.76" y="116.72" width="0.53" height="4.16" transform="translate(-46.41 110.08) rotate(-40)"/><rect class="cls-1" x="129.43" y="117.85" width="0.56" height="1.95" transform="translate(-46.03 111.12) rotate(-39.98)"/><rect class="cls-1" x="133.51" y="110.97" width="0.53" height="4.16" transform="translate(-38.81 142.86) rotate(-50)"/><rect class="cls-1" x="131.88" y="112.91" width="0.53" height="4.16" transform="translate(-40.88 142.32) rotate(-50)"/><rect class="cls-1" x="133.53" y="113.75" width="0.56" height="1.95" transform="translate(-40.08 143.54) rotate(-50.02)"/><rect class="cls-1" x="136.54" y="106.26" width="0.53" height="4.16" transform="translate(-25.42 172.63) rotate(-60)"/><rect class="cls-1" x="135.27" y="108.45" width="0.53" height="4.16" transform="matrix(0.5, -0.87, 0.87, 0.5, -27.95, 172.65)"/><rect class="cls-1" x="136.85" y="109.01" width="0.56" height="1.95" transform="translate(-26.68 173.75) rotate(-60)"/><rect class="cls-1" x="138.71" y="101.09" width="0.53" height="4.16" transform="translate(-5.5 198.47) rotate(-70)"/><rect class="cls-1" x="137.84" y="103.47" width="0.53" height="4.16" transform="translate(-8.31 199.23) rotate(-70)"/><rect class="cls-1" x="139.3" y="103.76" width="0.56" height="1.95" transform="translate(-6.6 200.04) rotate(-69.99)"/><rect class="cls-1" x="139.94" y="95.62" width="0.53" height="4.16" transform="translate(19.65 218.81) rotate(-80)"/><rect class="cls-1" x="139.5" y="98.11" width="0.53" height="4.16" transform="matrix(0.17, -0.98, 0.98, 0.17, 16.84, 220.45)"/><rect class="cls-1" x="140.8" y="98.16" width="0.56" height="1.95" transform="translate(18.96 220.87) rotate(-80.01)"/><rect class="cls-1" x="138.4" y="91.83" width="4.16" height="0.53"/><rect class="cls-1" x="138.4" y="94.37" width="4.16" height="0.53"/><rect class="cls-1" x="140.6" y="93.09" width="1.95" height="0.56"/><rect class="cls-1" x="137.69" y="86.27" width="4.16" height="0.53" transform="translate(-12.9 25.58) rotate(-10)"/><rect class="cls-1" x="138.13" y="88.77" width="4.16" height="0.53" transform="translate(-13.33 25.7) rotate(-10)"/><rect class="cls-1" x="140.1" y="87.32" width="1.95" height="0.56" transform="translate(-13.08 25.86) rotate(-10.01)"/><rect class="cls-1" x="136.03" y="80.92" width="4.16" height="0.53" transform="translate(-19.44 52.15) rotate(-20.01)"/><rect class="cls-1" x="136.9" y="83.3" width="4.16" height="0.53" transform="translate(-20.2 52.57) rotate(-20)"/><rect class="cls-1" x="138.6" y="81.72" width="1.95" height="0.56" transform="translate(-19.63 52.7) rotate(-20.01)"/><rect class="cls-1" x="133.46" y="75.94" width="4.16" height="0.53" transform="translate(-19.94 77.98) rotate(-30)"/><rect class="cls-1" x="134.73" y="78.13" width="4.16" height="0.53" transform="translate(-20.87 78.91) rotate(-30)"/><rect class="cls-1" x="136.15" y="76.47" width="1.95" height="0.56" transform="translate(-20 78.85) rotate(-30)"/><rect class="cls-1" x="130.07" y="71.47" width="4.16" height="0.53" transform="translate(-15.2 101.73) rotate(-40)"/><rect class="cls-1" x="131.7" y="73.42" width="4.16" height="0.53" transform="translate(-16.06 103.23) rotate(-40)"/><rect class="cls-1" x="132.83" y="71.72" width="1.95" height="0.56" transform="translate(-14.97 102.89) rotate(-40.01)"/><rect class="cls-1" x="125.95" y="67.67" width="4.16" height="0.53" transform="matrix(0.64, -0.77, 0.77, 0.64, -6.31, 122.33)"/><rect class="cls-1" x="127.89" y="69.3" width="4.16" height="0.53" transform="translate(-6.86 124.42) rotate(-50)"/><rect class="cls-1" x="128.73" y="67.63" width="1.95" height="0.56" transform="translate(-5.68 123.63) rotate(-50.01)"/><rect class="cls-1" x="121.24" y="64.64" width="4.16" height="0.53" transform="translate(5.44 139.24) rotate(-60)"/><rect class="cls-1" x="123.43" y="65.91" width="4.16" height="0.53" transform="translate(5.44 141.77) rotate(-60)"/><rect class="cls-1" x="123.99" y="64.31" width="1.95" height="0.56" transform="translate(6.55 140.51) rotate(-60)"/><rect class="cls-1" x="116.07" y="62.47" width="4.16" height="0.53" transform="translate(18.78 152.3) rotate(-70)"/><rect class="cls-1" x="118.45" y="63.34" width="4.16" height="0.53" transform="translate(19.54 155.12) rotate(-70)"/><rect class="cls-1" x="118.74" y="61.86" width="1.95" height="0.56" transform="translate(20.38 153.38) rotate(-70)"/><rect class="cls-1" x="110.6" y="61.24" width="4.16" height="0.53" transform="translate(32.55 161.79) rotate(-80)"/><rect class="cls-1" x="113.1" y="61.68" width="4.16" height="0.53" transform="matrix(0.17, -0.98, 0.98, 0.17, 34.18, 164.61)"/><rect class="cls-1" x="113.14" y="60.36" width="1.95" height="0.56" transform="matrix(0.17, -0.98, 0.98, 0.17, 34.62, 162.52)"/><path class="cls-1" d="M134.53,52.33a47.5,47.5,0,0,1,6.58,4.94l1.75-1.74a51.54,51.54,0,0,0-7.07-5.39Z"/><path class="cls-1" d="M143.82,59.91A45.19,45.19,0,0,1,149,66.45l2.15-1.24a51.73,51.73,0,0,0-5.57-7Z"/><path class="cls-1" d="M64.39,93.37H57.14a51.19,51.19,0,0,0,1,9.89l7.28-2A46.09,46.09,0,0,1,64.39,93.37Z"/><path class="cls-1" d="M157.91,80.44l-2.71.72a46.63,46.63,0,0,1,1.11,8.42h3.09A50.1,50.1,0,0,0,157.91,80.44Z"/><path class="cls-1" d="M112.07,45.51a45.73,45.73,0,0,1,7.91.94l.74-2.78a51.31,51.31,0,0,0-8.65-1.37Z"/><path class="cls-1" d="M153.08,68.44l-2.16,1.25a45.43,45.43,0,0,1,3.31,7.82l2.58-.69A51.63,51.63,0,0,0,153.08,68.44Z"/><path class="cls-1" d="M123.64,47.39a46.15,46.15,0,0,1,7.6,3.08l1.29-2.25a51.92,51.92,0,0,0-8.17-3.5Z"/><path class="cls-1" d="M108.29,137.42a46.32,46.32,0,0,1-8.47-1.15l-1.93,7.23a51.6,51.6,0,0,0,10.4,1.08Z"/><path class="cls-1" d="M64.39,89.58a46,46,0,0,1,43.9-44V42.16a51.21,51.21,0,0,0-51,47.42Z"/><path class="cls-1" d="M112.07,137.44v7a51.21,51.21,0,0,0,47.49-51.06h-3.25A46,46,0,0,1,112.07,137.44Z"/><path class="cls-1" d="M85.28,130.07A46,46,0,0,1,78.79,125l-5.62,5.62a51.81,51.81,0,0,0,8.18,6.31Z"/><path class="cls-1" d="M76.15,122.24a46.22,46.22,0,0,1-4.92-6.54l-6.84,4a52.46,52.46,0,0,0,6.12,8.23Z"/><path class="cls-1" d="M96.17,135.28A45.46,45.46,0,0,1,88.52,132l-3.89,6.73a50.67,50.67,0,0,0,9.59,3.84Z"/><path class="cls-1" d="M69.37,112.41A45.12,45.12,0,0,1,66.32,105L59,107a50.83,50.83,0,0,0,3.61,9.38Z"/><path class="cls-1" d="M86.81,163.53l.27-1A71.31,71.31,0,0,1,72,156l-.52.9A73.13,73.13,0,0,0,86.81,163.53Z"/><path class="cls-1" d="M170.36,56.73a71.81,71.81,0,0,1,6.47,14.33l1-.27a72.32,72.32,0,0,0-6.57-14.58Z"/><path class="cls-1" d="M106.06,165.61a71.76,71.76,0,0,1-16.17-2.29l-.27,1a72.45,72.45,0,0,0,16.44,2.33Z"/><path class="cls-1" d="M178.68,73.58l-1,.27a71.65,71.65,0,0,1,2.57,15.67h1A72.91,72.91,0,0,0,178.68,73.58Z"/><path class="cls-1" d="M168.83,54.24l.9-.51a73.61,73.61,0,0,0-10-12.39l-.74.73A72.4,72.4,0,0,1,168.83,54.24Z"/><path class="cls-1" d="M54.78,142.12A72.89,72.89,0,0,1,45.23,129l-.9.52A74.06,74.06,0,0,0,54,142.85Z"/><path class="cls-1" d="M42.94,126.93l.9-.52a72,72,0,0,1-5.74-15.16l-1,.27A73.1,73.1,0,0,0,42.94,126.93Z"/><path class="cls-1" d="M34.85,92.44c0,.32,0,.64,0,1a73.93,73.93,0,0,0,1.6,15.27l1-.27a72.7,72.7,0,0,1-1.56-15c0-.33,0-.65,0-1Z"/><path class="cls-1" d="M69.52,154.47a72.34,72.34,0,0,1-12.73-10.24l-.73.73A72.64,72.64,0,0,0,69,155.37Z"/><path class="cls-1" d="M180.35,92.44c0,.32,0,.64,0,1A72.23,72.23,0,0,1,109,165.63v1A73.27,73.27,0,0,0,181.4,93.41c0-.33,0-.65,0-1Z"/><path class="cls-1" d="M36,89.52A72.24,72.24,0,0,1,106.06,21.2v-1A73.27,73.27,0,0,0,35,89.52Z"/><path class="cls-1" d="M144.26,30.84a72.68,72.68,0,0,1,12.57,9.22l.74-.73A73.27,73.27,0,0,0,144.78,30Z"/><path class="cls-1" d="M109,21.18A72.37,72.37,0,0,1,124.46,23l.27-1A73.61,73.61,0,0,0,109,20.14Z"/><path class="cls-1" d="M127.29,23.74a72.16,72.16,0,0,1,14.42,5.7l.51-.9a72.4,72.4,0,0,0-14.67-5.8Z"/><path class="cls-1" d="M141.75,156.4l-.5-.88a69.9,69.9,0,0,1-14.89,5.88l.26,1A71.23,71.23,0,0,0,141.75,156.4Z"/><path class="cls-1" d="M125.73,25.25a69.86,69.86,0,0,1,14.33,5.42l.51-.88A70.93,70.93,0,0,0,126,24.27Z"/><path class="cls-1" d="M156.45,144.57a70.62,70.62,0,0,1-12.72,9.57l.5.87a71.21,71.21,0,0,0,12.94-9.72Z"/><path class="cls-1" d="M143.07,31.13l-.5.88a70.56,70.56,0,0,1,12.57,9l.72-.72A72.17,72.17,0,0,0,143.07,31.13Z"/><path class="cls-1" d="M123,24.6l.26-1A71.91,71.91,0,0,0,107.77,22v1A70.76,70.76,0,0,1,123,24.6Z"/><path class="cls-1" d="M104.93,163.72a71.11,71.11,0,0,1-15.64-2.48l-.26,1a71.7,71.7,0,0,0,15.9,2.52Z"/><path class="cls-1" d="M86.31,161.4l.26-1a70.32,70.32,0,0,1-14.4-6.49l-.5.87A70,70,0,0,0,86.31,161.4Z"/><path class="cls-1" d="M57,143.21l.66.68a71.2,71.2,0,0,0,11.63,9.42l.5-.88a70.57,70.57,0,0,1-11.41-9.25l-.66-.68Z"/><path class="cls-1" d="M123.6,162.08a71.6,71.6,0,0,1-15.83,1.71v1a72.11,72.11,0,0,0,16.09-1.75Z"/><path class="cls-1" d="M157.21,43l.68.66a70.39,70.39,0,0,1,.58,99l.72.71a71.39,71.39,0,0,0-.59-100.37l-.67-.66Z"/><path class="cls-1" d="M55.74,140.43A70.4,70.4,0,0,1,57,45.07l-.71-.71A71.38,71.38,0,0,0,55,141.14Z"/><path class="cls-1" d="M89.92,25.4a70.82,70.82,0,0,1,15-2.31v-1a71.54,71.54,0,0,0-15.28,2.35Z"/><path class="cls-1" d="M59,43.05a70.31,70.31,0,0,1,11.94-9.4l-.51-.87a71.24,71.24,0,0,0-12.15,9.56Z"/><path class="cls-1" d="M73.33,32.2a70.37,70.37,0,0,1,13.86-6l-.26-1a70.51,70.51,0,0,0-14.11,6.11Z"/><path class="cls-1" d="M72.84,27.34l.53.92A73.34,73.34,0,0,1,89,22.1l-.27-1A74.54,74.54,0,0,0,72.84,27.34Z"/><path class="cls-1" d="M89.65,164.88a73,73,0,0,1-15-5.68l-.53.92a74.29,74.29,0,0,0,15.28,5.79Z"/><path class="cls-1" d="M57.43,39.74a73.94,73.94,0,0,1,13.34-10l-.53-.92A75.11,75.11,0,0,0,56.68,39Z"/><path class="cls-1" d="M71.46,158.72l.53-.92a73.44,73.44,0,0,1-13.19-9.47l-.75.76A75,75,0,0,0,71.46,158.72Z"/><path class="cls-1" d="M92.55,165.57l-.28,1a75.08,75.08,0,0,0,16.22,1.68v-1.06A73.69,73.69,0,0,1,92.55,165.57Z"/><path class="cls-1" d="M111.46,19.66a73.79,73.79,0,0,1,16.4,2.61l.28-1a75.12,75.12,0,0,0-16.68-2.64Z"/><path class="cls-1" d="M131,22.09l-.27,1a73.17,73.17,0,0,1,15.1,6.8l.53-.92A74.59,74.59,0,0,0,131,22.09Z"/><path class="cls-1" d="M161.76,41.17l-.69-.71a75,75,0,0,0-12.19-9.88l-.53.92a74.42,74.42,0,0,1,12,9.71l.69.71Z"/><path class="cls-1" d="M91.89,21.39a73.73,73.73,0,0,1,16.6-1.8V18.53a75,75,0,0,0-16.88,1.83Z"/><path class="cls-1" d="M56.63,146.3l-.71-.7a73.81,73.81,0,0,1-.61-103.76l-.75-.75a74.87,74.87,0,0,0,.61,105.26l.71.7Z"/><path class="cls-1" d="M163.05,44.09a73.82,73.82,0,0,1-1.27,100l.75.75A74.89,74.89,0,0,0,163.8,43.34Z"/><path class="cls-1" d="M127.21,164.72a73.86,73.86,0,0,1-15.75,2.43v1.06a75.1,75.1,0,0,0,16-2.46Z"/><path class="cls-1" d="M159.69,146.22a74.7,74.7,0,0,1-12.52,9.85l.53.92a75.36,75.36,0,0,0,12.74-10Z"/><path class="cls-1" d="M144.61,157.59a73.46,73.46,0,0,1-14.54,6.31l.28,1a74.78,74.78,0,0,0,14.79-6.41Z"/><path class="cls-1" d="M197.73,66.8l-4.06-2.56a2.71,2.71,0,0,0-2.65-.13,88.12,88.12,0,0,0-7.89-16.88,2.69,2.69,0,0,0,1.6-2l.83-4.6a2.71,2.71,0,0,0-.93-2.56L148.14,7.43a2.74,2.74,0,0,0-2.58-.51L141,8.4a2.64,2.64,0,0,0-1.8,1.95A88,88,0,0,0,117.34,5l-2.1-3.67A2.7,2.7,0,0,0,112.88,0H99.41a2.73,2.73,0,0,0-2.3,1.27L94.56,5.34a.25.25,0,0,0,0,.07,87.75,87.75,0,0,0-31.37,11,2.55,2.55,0,0,0-.73-.33L57.9,14.8a2.7,2.7,0,0,0-2.63.7L35,35.76a2.72,2.72,0,0,0-.72,2.53l.86,3.76a87.91,87.91,0,0,0-16,50.75c0,.55,0,1.09,0,1.63a2.65,2.65,0,0,0-2.4.94l-3,3.57a2.72,2.72,0,0,0-.48,2.68l16.3,44.77a2.73,2.73,0,0,0,2,1.73l4.69,1a2.66,2.66,0,0,0,2.55-.8,88.89,88.89,0,0,0,19.37,17.76,2.68,2.68,0,0,0-.6,2.49l1.19,4.53A2.73,2.73,0,0,0,60.63,175l46,12.33a2.69,2.69,0,0,0,2.55-.63l3.52-3.26a2.68,2.68,0,0,0,.8-2.55,88.89,88.89,0,0,0,10.67-1.39l2.62,2.64a2.72,2.72,0,0,0,2.63.71l13-3.49a2.7,2.7,0,0,0,1.89-1.82l1.42-4.59a2.86,2.86,0,0,0,.11-.64,87.64,87.64,0,0,0,8.75-4.87,2.73,2.73,0,0,0,1.16.67l4.52,1.23a2.7,2.7,0,0,0,2.63-.7l20.27-20.27a2.69,2.69,0,0,0,.72-2.52l-1.06-4.68a2.7,2.7,0,0,0-.7-1.29A87.94,87.94,0,0,0,191,121.49a2.66,2.66,0,0,0,2.55-.07l4.06-2.32a2.7,2.7,0,0,0,1.37-2.36V69.1A2.71,2.71,0,0,0,197.73,66.8Zm-89.8,109.78a83.8,83.8,0,1,1,83.79-83.8A83.8,83.8,0,0,1,107.93,176.58Z"/></g></g></svg>