<svg xmlns="http://www.w3.org/2000/svg" viewBox="0 0 184.51 176.72"><defs><style>.cls-1,.cls-10,.cls-4,.cls-5,.cls-6,.cls-7,.cls-8,.cls-9{fill:#d27c1d;}.cls-2{fill:#0aa3b1;}.cls-3{fill:#068d99;}.cls-4{opacity:0.5;}.cls-5{opacity:0.2;}.cls-6{opacity:0.9;}.cls-7{opacity:0.3;}.cls-8{opacity:0.6;}.cls-9{opacity:0.7;}.cls-10{opacity:0.8;}.cls-11{fill:#f49022;}.cls-12{fill:#0cbdcd;}</style></defs><title>资源 9</title><g id="图层_2" data-name="图层 2"><g id="央铋_1" data-name="央铋 1"><polygon class="cls-1" points="130.02 159.02 129.88 159.56 122.27 161.59 122.41 161.06 130.02 159.02"/><path class="cls-1" d="M168.69,138.25c2.09,2.24,2.8,5.85,1.6,10.35-2.46,9.28-12,18.86-21.36,21.35-4.51,1.21-8.14.54-10.41-1.53l-5.71,5.71-.43-.41L138.1,168c-2.1-2.24-2.8-5.85-1.6-10.35,2.45-9.27,12-18.86,21.35-21.35,4.52-1.21,8.15-.54,10.42,1.53l5.5-5.5.42.42Zm-19.54,30.9c8.87-2.37,18-11.5,20.34-20.34s-3-14.09-11.85-11.71-18,11.5-20.34,20.34,3,14.09,11.85,11.71"/><polygon class="cls-1" points="184.51 144.42 184.36 144.96 176.76 146.99 176.9 146.46 184.51 144.42"/><path class="cls-2" d="M119,49c-3.29-5.89-9.47-9.2-17.42-9.33l.42-.83a39,39,0,0,0-10.66,1.43C82.48,42.62,73.29,47.71,64.8,55A84.37,84.37,0,0,0,45,79.48l.71,0a57.68,57.68,0,0,0-4.55,11.56c-3,11.14-1,20.53,5.32,25.78l-1.86,2a18.79,18.79,0,0,0,4.3,2.66l1.64-2.11a25.22,25.22,0,0,0,12.83,1.78L63,122a42.62,42.62,0,0,0,7-1.29,63.16,63.16,0,0,0,18-8.27l-.14-.63c13.43-8.74,24.74-22,30.25-35.5l2-.23a55.72,55.72,0,0,0,2.28-6.78c2.31-8.7,1.84-16.31-1.34-22ZM117.74,50l-2.08,1.72c2.75,4.93,3.15,11.52,1.16,19a48.86,48.86,0,0,1-2,5.87l2-.23c-5.32,13-16.25,25.85-29.23,34.3l-.14-.64a58.89,58.89,0,0,1-16.65,7.66,40.47,40.47,0,0,1-6.54,1.2l-.64,1.51.29-.69A24.47,24.47,0,0,1,51.56,118l1.64-2.11a16.28,16.28,0,0,1-3.71-2.3l-1.87,2c-6.11-5.06-8-14.14-5.13-24.9a55,55,0,0,1,4.39-11.17h-.59l1.3,0c8.82-17,26.51-31.95,43-36.38a36.33,36.33,0,0,1,9.89-1.33l.42-.83c7.68.13,13.65,3.33,16.83,9"/><path class="cls-3" d="M154.32,122.68a8.7,8.7,0,0,1,1.54,1l3.6-3.61a9.71,9.71,0,0,0-2-1.3Z"/><path class="cls-4" d="M158.88,132.86a21.82,21.82,0,0,1-.52,2.66c-.06.2-.12.41-.19.62l4-.91c.08-.26.16-.52.23-.78a22.64,22.64,0,0,0,.63-3.25Z"/><path class="cls-5" d="M157.1,124.91a7.7,7.7,0,0,1,.88,1.4l3.93-3.13a10.37,10.37,0,0,0-1.2-1.88Z"/><path class="cls-6" d="M148.3,150.93l1.74,2.4a48.48,48.48,0,0,0,3.65-3.66l-2.42-1.73A41.88,41.88,0,0,1,148.3,150.93Z"/><path class="cls-1" d="M144.65,153.84l.92,3.07a47.8,47.8,0,0,0,4-3.16l-1.66-2.48A37.5,37.5,0,0,1,144.65,153.84Z"/><path class="cls-3" d="M131.47,126.72l1.66,2.48a39.52,39.52,0,0,1,3.26-2.57l-.92-3.06A47.24,47.24,0,0,0,131.47,126.72Z"/><path class="cls-1" d="M119.05,144.72l3.93-.82a27.69,27.69,0,0,1,1.39-3.43l-3.63,0A33,33,0,0,0,119.05,144.72Z"/><path class="cls-3" d="M145.38,118.59l-.89,4,.82-.24a19.57,19.57,0,0,1,2.45-.48l1.63-4.14a23.75,23.75,0,0,0-3,.6Z"/><path class="cls-3" d="M148.14,121.8a14.24,14.24,0,0,1,3,0l2.39-4.14a17.2,17.2,0,0,0-3.66,0Z"/><path class="cls-3" d="M118,149.72a16.52,16.52,0,0,0,0,3.66l4.13-2.41a13.46,13.46,0,0,1,0-3Z"/><path class="cls-3" d="M119.1,157.28a9.86,9.86,0,0,0,1.22,1.91l3.6-3.61a8.51,8.51,0,0,1-.89-1.42Z"/><path class="cls-3" d="M121.56,160.44a10.1,10.1,0,0,0,2,1.3l3.11-3.94a8.57,8.57,0,0,1-1.53-1Z"/><path class="cls-7" d="M158.11,126.6a9.58,9.58,0,0,1,.74,2.55l4.12-2.49a12.12,12.12,0,0,0-.9-3.13Z"/><path class="cls-3" d="M127.49,162.84a17.3,17.3,0,0,0,3.67,0l1.71-4.15a13.57,13.57,0,0,1-3,0Z"/><path class="cls-8" d="M156.67,140l3.62,0a31.7,31.7,0,0,0,1.7-4.21l-3.94.83A26.59,26.59,0,0,1,156.67,140Z"/><path class="cls-3" d="M137,157.79l-.81,3.94a31.19,31.19,0,0,0,4.2-1.72l0-3.62A28.28,28.28,0,0,1,137,157.79Z"/><path class="cls-3" d="M127.36,130.79l2.42,1.73a39.62,39.62,0,0,1,3-3L131,127.13A50.27,50.27,0,0,0,127.36,130.79Z"/><path class="cls-1" d="M121,140l3.59,0a30,30,0,0,1,2-3.43l-3.13-.82A40.92,40.92,0,0,0,121,140Z"/><path class="cls-3" d="M136,123.22l.83,3.13a31.55,31.55,0,0,1,3.41-2l-.06-3.59A41.82,41.82,0,0,0,136,123.22Z"/><path class="cls-3" d="M140.68,120.47l0,3.63a24.85,24.85,0,0,1,3.42-1.4l.81-4A32.55,32.55,0,0,0,140.68,120.47Z"/><path class="cls-3" d="M118,153.8a12.2,12.2,0,0,0,.9,3.14l4-3.07a9.65,9.65,0,0,1-.73-2.56Z"/><path class="cls-4" d="M158.9,129.49a14.06,14.06,0,0,1,0,3l4.13-1.74a16.43,16.43,0,0,0,0-3.65Z"/><path class="cls-9" d="M154.45,143.84l3.12.82a39.18,39.18,0,0,0,2.47-4.21l-3.58,0A33.31,33.31,0,0,1,154.45,143.84Z"/><path class="cls-10" d="M151.62,147.54l2.48,1.65a45.59,45.59,0,0,0,3.12-4l-3.06-.91A37.83,37.83,0,0,1,151.62,147.54Z"/><path class="cls-3" d="M143.1,106.1l-.09.52-.37.14.07-.51Z"/><path class="cls-3" d="M141.91,106.56l-.07.51-.37.16.05-.51Z"/><path class="cls-3" d="M145.46,105.3l-.12.52-.37.12.11-.52Z"/><path class="cls-3" d="M139.51,107.6l0,.49-.38.18v-.48Z"/><path class="cls-3" d="M153,103.76l.36,0-.25.56-.34,0Z"/><path class="cls-3" d="M147.42,104.74l.37-.09-.16.54c-.12,0-.24.06-.36.09Z"/><path class="cls-3" d="M156.2,103.68h.34l-.3.55h-.32Z"/><path class="cls-3" d="M158.21,103.83l.32,0-.33.55-.31,0Z"/><path class="cls-3" d="M150.83,104l.37-.06-.22.55-.35.06Z"/><path class="cls-3" d="M155.17,103.66h.34l-.29.56h-.32Z"/><path class="cls-3" d="M117.12,125l.34.22-.3.34-.35-.19C116.91,125.22,117,125.1,117.12,125Z"/><path class="cls-3" d="M118.08,123.88l.32.23-.3.35-.34-.22Z"/><path class="cls-3" d="M115.28,127.23l.36.17c-.09.13-.19.24-.28.36l-.38-.16Z"/><path class="cls-3" d="M119.07,122.8l.3.25-.31.34-.32-.24Z"/><path class="cls-3" d="M112.72,130.69l.41.12c-.09.12-.17.25-.25.37l-.42-.11C112.54,130.94,112.63,130.82,112.72,130.69Z"/><path class="cls-3" d="M163.59,105.28l.26.13-.41.52-.26-.12Z"/><path class="cls-3" d="M131.16,112.37l.1.42-.36.25-.13-.4Z"/><path class="cls-3" d="M122.16,119.67l.25.3-.33.32-.27-.29Z"/><path class="cls-3" d="M132.33,111.59l.1.43-.38.24-.1-.41Z"/><path class="cls-3" d="M127.68,114.91l.16.37c-.12.1-.23.19-.36.28l-.18-.36Z"/><path class="cls-3" d="M133.52,110.84l.07.44-.37.24-.09-.44Z"/><path class="cls-3" d="M128.83,114l.14.39-.36.27-.16-.37Z"/><path class="cls-3" d="M126.54,115.81l.19.36-.36.29-.2-.35Z"/><path class="cls-3" d="M123.23,118.67l.23.31-.33.32-.26-.31Z"/><path class="cls-3" d="M104.9,159.56c0,.1,0,.19.07.29l-.55.36c0-.1,0-.2-.07-.3Z"/><path class="cls-3" d="M149.7,104.23l.38-.07-.2.55-.36.06Z"/><path class="cls-3" d="M110.45,134.23l.44.07-.22.37-.46,0Z"/><path class="cls-3" d="M161,104.37l.3.08-.38.54-.28-.07Z"/><path class="cls-3" d="M151.94,103.87l.36,0-.23.56-.34,0Z"/><path class="cls-3" d="M165.88,106.55l.23.16-.45.5-.22-.15Z"/><path class="cls-3" d="M167.87,108.16c.06.07.13.13.2.2l-.49.48a1.7,1.7,0,0,0-.19-.19Z"/><path class="cls-3" d="M108.91,167.12l.19.19-.47.48-.2-.19Z"/><path class="cls-3" d="M115.55,171l.28.08-.36.54-.3-.08Z"/><path class="cls-3" d="M155.44,154.66l.28.27-.34.34-.27-.28Z"/><path class="cls-3" d="M112.28,169.64l.25.13-.42.52-.26-.13Z"/><path class="cls-3" d="M108.34,166.51l.18.2-.49.47-.18-.2Z"/><path class="cls-3" d="M169.54,110.1l.15.23-.5.44c-.06-.07-.1-.15-.16-.22Z"/><path class="cls-3" d="M170.46,111.55c0,.09.09.17.13.26l-.52.42c0-.08-.09-.16-.13-.25Z"/><path class="cls-3" d="M172.19,126c0,.12,0,.24-.07.37l-.54.18.06-.35Z"/><path class="cls-3" d="M170.86,112.33c0,.09.08.18.13.27l-.53.4c0-.08-.08-.17-.13-.25Z"/><path class="cls-3" d="M170,110.81c.05.08.11.16.15.24l-.51.43-.15-.23Z"/><path class="cls-3" d="M167.24,107.59l.21.18-.47.49-.21-.18Z"/><path class="cls-3" d="M168.46,108.77l.19.21-.5.47a1.71,1.71,0,0,0-.18-.2Z"/><path class="cls-3" d="M172.59,122.73c0,.12,0,.24,0,.35l-.55.24c0-.11,0-.23,0-.34Z"/><path class="cls-3" d="M172.37,124.91l-.06.37-.55.2.06-.35Z"/><path class="cls-3" d="M172.27,116.68l.06.3-.55.34-.06-.3Z"/><path class="cls-3" d="M172.07,115.75c0,.1.05.2.07.3l-.54.35c0-.1,0-.19-.07-.29Z"/><path class="cls-3" d="M172.55,118.6l0,.33-.55.3,0-.31Z"/><path class="cls-3" d="M172.44,117.63c0,.1,0,.21,0,.31l-.56.32c0-.1,0-.2,0-.3Z"/><path class="cls-3" d="M172.5,123.81c0,.12,0,.24,0,.36l-.55.22c0-.12,0-.23,0-.35Z"/><path class="cls-3" d="M147.88,161.27l.16.37-.38.29-.14-.39Z"/><path class="cls-3" d="M146.74,162.1l.14.4-.38.27-.13-.4Z"/><path class="cls-3" d="M149,160.4l.18.36-.37.3-.17-.38C148.77,160.59,148.88,160.49,149,160.4Z"/><path class="cls-3" d="M144.44,163.7l.1.42-.39.25-.09-.43Z"/><path class="cls-3" d="M156.44,153.63l.31.25-.34.35-.28-.27Z"/><path class="cls-3" d="M153.36,156.67l.26.3-.36.32L153,157Z"/><path class="cls-3" d="M154.41,155.67l.27.29-.35.33-.25-.3Z"/><path class="cls-3" d="M152.3,157.64l.23.31-.36.32-.22-.33Z"/><path class="cls-3" d="M143.27,164.44l.09.43-.39.25-.07-.44Z"/><path class="cls-3" d="M136.2,168.23l0,.49-.39.17,0-.5Z"/><path class="cls-3" d="M131.52,170l-.11.52-.39.12.13-.53Z"/><path class="cls-3" d="M132.68,169.62l-.09.52-.39.14.1-.52Z"/><path class="cls-3" d="M140.92,165.84l.05.46-.39.22,0-.46Z"/><path class="cls-3" d="M137.38,167.69v.48l-.39.18,0-.49Z"/><path class="cls-3" d="M138.56,167.11l0,.47-.4.2v-.48Z"/><path class="cls-3" d="M166.49,140.11l.47,0c-.08.13-.15.26-.22.39l-.46,0Z"/><path class="cls-3" d="M169.3,134.23l.52-.06c0,.13-.11.26-.17.39l-.5.05Z"/><path class="cls-3" d="M167.73,137.76h.48c-.06.13-.13.26-.2.39h-.47Z"/><path class="cls-3" d="M167.12,138.94h.48c-.07.13-.13.26-.21.39l-.46,0Z"/><path class="cls-3" d="M170.87,129.6l.54-.14c0,.12-.07.25-.11.38l-.53.13C170.81,129.84,170.84,129.72,170.87,129.6Z"/><path class="cls-3" d="M157.43,152.58l.32.23-.33.35-.31-.25Z"/><path class="cls-3" d="M169.75,133.06l.52-.08c-.05.13-.1.26-.14.39l-.51.07C169.66,133.31,169.71,133.19,169.75,133.06Z"/><path class="cls-3" d="M170.17,131.9l.52-.1-.13.38-.52.09Z"/><path class="cls-3" d="M171.71,128.3l-.09.38-.54.15.09-.37Z"/><path class="cls-3" d="M161.13,148.2l.37.16c-.09.13-.19.25-.29.38l-.37-.18Z"/><path class="cls-3" d="M165.82,141.29l.45.05-.22.39-.45-.06Z"/><path class="cls-3" d="M160.24,149.32l.36.18c-.1.12-.2.24-.29.37l-.36-.2C160.05,149.55,160.14,149.43,160.24,149.32Z"/><path class="cls-3" d="M159.33,150.42l.35.2-.31.36-.34-.21Z"/><path class="cls-3" d="M158.39,151.5l.34.22-.32.36-.32-.23Z"/><path class="cls-3" d="M162,147.07l.39.14-.28.38-.39-.16Z"/><path class="cls-3" d="M164.38,143.62l.43.09-.25.39-.42-.11Z"/><path class="cls-3" d="M165.12,142.46l.44.07-.24.39-.44-.09Z"/><path class="cls-3" d="M162.81,145.93l.41.13-.27.38-.4-.14Z"/><path class="cls-3" d="M163.61,144.78l.42.11c-.09.13-.17.26-.26.38l-.41-.12Z"/><path class="cls-3" d="M104.57,157.7c0,.1,0,.2,0,.3l-.55.33c0-.1,0-.21,0-.31Z"/><path class="cls-3" d="M109.75,135.43l.46,0-.21.38-.46,0C109.6,135.69,109.68,135.56,109.75,135.43Z"/><path class="cls-3" d="M104.71,158.64l.06.3-.55.34-.06-.3Z"/><path class="cls-3" d="M107.89,139h.49l-.18.37-.49,0Z"/><path class="cls-3" d="M108.47,137.82H109l-.18.37h-.49C108.35,138.08,108.41,138,108.47,137.82Z"/><path class="cls-3" d="M105.39,161.31l.09.27L105,162c0-.09-.07-.18-.1-.28Z"/><path class="cls-3" d="M120.25,171.72h.32l-.28.55H120Z"/><path class="cls-3" d="M124.42,171.57l.35,0-.22.55-.36,0Z"/><path class="cls-3" d="M122.3,171.72h.33l-.25.55-.35,0Z"/><path class="cls-3" d="M109.52,167.7l.2.18-.47.49-.21-.19Z"/><path class="cls-3" d="M106.84,164.48l.15.23-.51.44-.15-.24Z"/><path class="cls-3" d="M106,163l.12.25-.53.41-.12-.26Z"/><path class="cls-3" d="M107.81,165.87l.16.21-.49.46-.18-.22Z"/><path class="cls-3" d="M105.7,162.15a2,2,0,0,0,.1.26l-.53.41c0-.09-.07-.19-.11-.28Z"/><path class="cls-3" d="M113.86,170.38l.26.1-.39.54-.28-.11Z"/><path class="cls-3" d="M111.54,169.21l.24.14-.43.52-.25-.15Z"/><path class="cls-3" d="M113.06,170l.25.12-.41.52-.26-.12Z"/><path class="cls-3" d="M121.1,120.69l.28.28-.33.33-.28-.27Z"/><path class="cls-3" d="M120.08,121.74l.28.26c-.1.11-.21.22-.31.34l-.31-.26C119.85,122,120,121.85,120.08,121.74Z"/><path class="cls-3" d="M124.32,117.69l.21.33-.34.31L124,118Z"/><path class="cls-3" d="M125.42,116.74l.2.34-.35.3-.22-.33Z"/><path class="cls-3" d="M116.18,126.1l.36.19-.29.36-.36-.18C116,126.34,116.08,126.22,116.18,126.1Z"/><path class="cls-3" d="M114.4,128.37l.37.16-.26.36-.39-.14Z"/><path class="cls-3" d="M130,113.19l.13.4-.36.26-.14-.39Z"/><path class="cls-3" d="M113.54,129.52l.4.15c-.09.12-.17.24-.27.36l-.4-.13Z"/><path class="cls-3" d="M111.93,131.86l.42.11-.24.37-.43-.09C111.76,132.12,111.84,132,111.93,131.86Z"/><path class="cls-3" d="M111.17,133.05l.44.08-.24.37-.44-.06Q111.05,133.23,111.17,133.05Z"/><path class="cls-3" d="M134.71,110.12l.06.46-.38.22-.07-.44Z"/><path class="cls-3" d="M137.11,108.79v.48l-.37.19,0-.46Z"/><path class="cls-3" d="M109.1,136.62l.46,0-.19.38-.48,0Z"/><path class="cls-3" d="M140.71,107.06l0,.51-.38.16,0-.49Z"/><path class="cls-3" d="M107.34,140.21l.5,0c0,.13-.11.25-.16.38l-.51,0C107.23,140.47,107.29,140.34,107.34,140.21Z"/><path class="cls-3" d="M106.84,141.41l.5-.06c0,.13-.1.26-.16.38l-.51.07Z"/><path class="cls-3" d="M106.36,142.6l.51-.08c0,.13-.09.26-.13.38l-.52.09Z"/><path class="cls-3" d="M144.29,105.68l-.11.52-.37.13.09-.52Z"/><path class="cls-3" d="M105.94,143.78l.51-.09c0,.12-.08.25-.13.37l-.52.11C105.84,144,105.89,143.91,105.94,143.78Z"/><path class="cls-3" d="M105.54,145l.53-.1-.12.36-.53.13Z"/><path class="cls-3" d="M146.63,105l-.14.54-.36.1.12-.53Z"/><path class="cls-3" d="M105.19,146.13l.53-.13c0,.12-.07.24-.1.36l-.54.14C105.11,146.38,105.15,146.25,105.19,146.13Z"/><path class="cls-3" d="M105.41,147.14l-.09.36-.54.16c0-.13.06-.25.1-.38Z"/><path class="cls-3" d="M148.57,104.46l.37-.08-.17.55-.37.07Z"/><path class="cls-3" d="M105.14,148.26c0,.13,0,.24-.07.36l-.55.18c0-.12.06-.25.08-.37Z"/><path class="cls-3" d="M104.92,149.38c0,.12,0,.24-.07.35l-.54.2.06-.37Z"/><path class="cls-3" d="M104.58,151.57l0,.34-.56.24c0-.12,0-.24,0-.36Z"/><path class="cls-3" d="M154.11,103.69h.35l-.27.55h-.33Z"/><path class="cls-3" d="M104.41,153.69c0,.11,0,.22,0,.33l-.55.27c0-.11,0-.23,0-.34Z"/><path class="cls-3" d="M104.39,154.73v.32l-.55.29c0-.12,0-.23,0-.34Z"/><path class="cls-3" d="M104.41,155.74c0,.11,0,.21,0,.32l-.55.3c0-.11,0-.22,0-.33Z"/><path class="cls-3" d="M104.47,156.73l0,.31-.55.32c0-.11,0-.22,0-.33Z"/><path class="cls-3" d="M159.17,104l.31,0-.34.55-.3,0Z"/><path class="cls-3" d="M105.12,160.45c0,.09.06.19.08.28l-.54.38c0-.1-.06-.2-.08-.29Z"/><path class="cls-3" d="M161.91,104.63l.28.1-.39.54-.27-.1Z"/><path class="cls-3" d="M164.38,105.67l.26.13-.43.52-.24-.13Z"/><path class="cls-3" d="M106.42,163.73c0,.08.09.16.13.24l-.52.43-.13-.25Z"/><path class="cls-3" d="M165.15,106.09l.24.15-.44.51-.23-.14Z"/><path class="cls-3" d="M107.31,165.19l.15.22-.5.45-.16-.23Z"/><path class="cls-3" d="M166.58,107.05a1.84,1.84,0,0,0,.22.17l-.47.5-.21-.17Z"/><path class="cls-3" d="M110.16,168.24l.21.16-.45.5-.23-.17Z"/><path class="cls-3" d="M171.55,114l.09.28-.54.38a2,2,0,0,0-.09-.26Z"/><path class="cls-3" d="M114.69,170.69l.27.09-.38.54-.28-.09Z"/><path class="cls-3" d="M171.83,114.85c0,.1.06.2.08.29l-.54.37c0-.09-.05-.19-.08-.28Z"/><path class="cls-3" d="M116.44,171.2l.29.06-.35.55-.3-.07Z"/><path class="cls-3" d="M118.3,171.54l.31,0-.32.55-.32,0Z"/><path class="cls-3" d="M119.26,171.65l.32,0-.31.56-.32,0Z"/><path class="cls-3" d="M172.63,119.6c0,.11,0,.22,0,.33l-.55.29c0-.11,0-.21,0-.32Z"/><path class="cls-3" d="M172.66,120.62V121l-.55.27c0-.11,0-.22,0-.32Z"/><path class="cls-3" d="M121.26,171.74h.33l-.27.55c-.11,0-.23,0-.34,0Z"/><path class="cls-3" d="M172.65,121.67c0,.11,0,.23,0,.35l-.56.25c0-.11,0-.23,0-.34Z"/><path class="cls-3" d="M123.35,171.67l.34,0-.23.55-.36,0Z"/><path class="cls-3" d="M125.5,171.43l.36-.05-.2.55-.37,0Z"/><path class="cls-3" d="M126.61,171.25l.35-.06-.17.54-.38.07Z"/><path class="cls-3" d="M130.37,170.37l-.13.53-.38.1.14-.53Z"/><path class="cls-3" d="M170.54,130.75l.53-.13L171,131l-.53.1Z"/><path class="cls-3" d="M135,168.73l-.06.5-.39.16.06-.5Z"/><path class="cls-3" d="M168.82,135.4l.5,0c-.06.13-.12.26-.17.39l-.5,0Z"/><path class="cls-3" d="M168.29,136.58l.49,0-.18.4h-.49Z"/><path class="cls-3" d="M142.1,165.16l.07.44-.4.24-.05-.46Z"/><path class="cls-3" d="M135.91,109.44l0,.46-.37.22,0-.46Z"/><path class="cls-3" d="M138.31,108.18v.48l-.39.19v-.47Z"/><path class="cls-3" d="M104.73,150.48c0,.12,0,.24,0,.35l-.56.22.06-.37Z"/><path class="cls-3" d="M104.47,152.64c0,.11,0,.23,0,.34l-.56.25c0-.12,0-.24,0-.35Z"/><path class="cls-3" d="M157.22,103.73l.32,0-.31.55-.31,0Z"/><path class="cls-3" d="M160.11,104.15l.3.07-.36.54-.29-.06Z"/><path class="cls-3" d="M162.77,104.94l.27.11-.4.53-.27-.1Z"/><path class="cls-3" d="M169,109.42l.17.22-.5.45-.17-.21Z"/><path class="cls-3" d="M110.83,168.74l.23.15-.44.51-.24-.15Z"/><path class="cls-3" d="M171.23,113.14c0,.09.07.18.1.28l-.53.39c0-.09-.07-.18-.11-.26Z"/><path class="cls-3" d="M117.36,171.39l.29.05-.33.55-.31-.06Z"/><path class="cls-3" d="M172,127.16c0,.12-.05.25-.08.37l-.54.17c0-.12.05-.24.08-.36Z"/><path class="cls-3" d="M127.72,171l.37-.08-.17.54-.37.09Z"/><path class="cls-3" d="M128.85,170.77l.37-.09-.14.53-.38.1Z"/><path class="cls-3" d="M133.85,169.2l-.07.51-.39.14.08-.51Z"/><path class="cls-3" d="M139.74,166.49l0,.47-.39.21v-.48Z"/><path class="cls-3" d="M145.59,162.92l.13.4-.39.27-.11-.42Z"/><path class="cls-3" d="M150.12,159.5l.19.35-.37.3-.18-.36Z"/><path class="cls-3" d="M151.22,158.58l.21.34-.36.31-.2-.35Z"/><path class="cls-11" d="M1,60.72a1.57,1.57,0,0,0-1,1c-.12.42.14.68.56.57C-.68,70.65.73,77.76,4.67,82.87s10,7.79,17.66,7.94c-.15.54.11.79.55.68a1.57,1.57,0,0,0,1-1c.11-.43-.14-.69-.58-.57a1.55,1.55,0,0,0-.82.62C6.76,90.23-1.71,79.12.86,62.18a1.6,1.6,0,0,0,.75-.88C1.72,60.86,1.46,60.6,1,60.72ZM22.56,90.84a1.06,1.06,0,0,1,.66-.66c.29-.07.46.1.38.38a1,1,0,0,1-.66.66C22.66,91.3,22.49,91.13,22.56,90.84ZM1.33,61.37A1,1,0,0,1,.68,62c-.29.08-.46-.09-.39-.37A1,1,0,0,1,1,61C1.24,60.91,1.41,61.08,1.33,61.37Z"/><path class="cls-11" d="M57.29,1.56a61.83,61.83,0,0,0-9.17,3.3c0-.25-.27-.38-.6-.29a1.59,1.59,0,0,0-1,1c-.11.44.15.7.58.58a1.57,1.57,0,0,0,1-1,59.56,59.56,0,0,1,9.11-3.28C81.35-4.63,95.8,9.66,89.43,33.68c-.31,1.18-.67,2.36-1.08,3.56a63.5,63.5,0,0,1-2.92,7.14,79.23,79.23,0,0,1-6.47,11,.75.75,0,0,0-.29,0,1.58,1.58,0,0,0-1,1c-.11.43.15.69.58.58a1.56,1.56,0,0,0,1-1,.5.5,0,0,0-.1-.51,79.2,79.2,0,0,0,5.24-8.58,65.09,65.09,0,0,0,5-12.26c.1-.35.2-.7.29-1C96.1,9.44,81.57-4.94,57.29,1.56ZM47.83,5.21a1,1,0,0,1-.65.66c-.29.08-.46-.09-.39-.38a1,1,0,0,1,.66-.65C47.74,4.76,47.91,4.93,47.83,5.21ZM79,56.08a1,1,0,0,1-.66.66c-.28.07-.45-.1-.38-.38a1,1,0,0,1,.66-.66C78.89,55.62,79.06,55.79,79,56.08Z"/><path class="cls-11" d="M100.06,37.52C80.83,42.67,60.38,58.61,47.67,78.21a2.31,2.31,0,0,0-1.49,1.48c-.17.65.22,1,.86.86a2.31,2.31,0,0,0,1.49-1.49.66.66,0,0,0-.22-.8c12.37-19.34,32.59-35.11,51.6-40.2,26.65-7.14,42.6,8.64,35.57,35.17a64.51,64.51,0,0,1-2.75,8.1,2.32,2.32,0,0,0-1.41,1.46c-.17.65.21,1,.86.86a2.35,2.35,0,0,0,1.49-1.49c.12-.48-.06-.81-.43-.88A65.94,65.94,0,0,0,136,73.09C143.13,46.26,127,30.31,100.06,37.52ZM48,79.21a1.23,1.23,0,0,1-.8.8c-.35.1-.56-.11-.47-.46a1.29,1.29,0,0,1,.8-.81C47.88,78.65,48.09,78.86,48,79.21Zm85.14,3.09a1.24,1.24,0,0,1-.81.81c-.35.1-.56-.11-.47-.46a1.28,1.28,0,0,1,.81-.81C133,81.75,133.22,82,133.13,82.3Z"/><path class="cls-11" d="M99.23,121.45a2.31,2.31,0,0,0-1.49,1.49,1.24,1.24,0,0,0,0,.27A77,77,0,0,1,74.42,134.3c-14.19,3.8-25.95,1.22-32.31-7.07a1.83,1.83,0,0,0,.37-.7c.17-.65-.22-1-.86-.86a2.33,2.33,0,0,0-1.49,1.49c-.17.64.22,1,.87.85a1.9,1.9,0,0,0,.62-.31c6.43,8.37,18.32,11,32.66,7.13a77.6,77.6,0,0,0,23.55-11.22.68.68,0,0,0,.78.18,2.3,2.3,0,0,0,1.48-1.48C100.26,121.66,99.87,121.28,99.23,121.45Zm-58.09,6c-.35.09-.56-.12-.47-.47a1.24,1.24,0,0,1,.81-.8c.35-.1.56.11.46.46A1.27,1.27,0,0,1,41.14,127.48Zm58.41-5a1.23,1.23,0,0,1-.8.8c-.35.1-.57-.11-.47-.46a1.22,1.22,0,0,1,.81-.8C99.44,121.89,99.65,122.1,99.55,122.45Z"/><path class="cls-1" d="M96.36,135.61l1.41,7.14-1.22.76-1.21-7.26Z"/><path class="cls-1" d="M98.52,134.22l1.72,6.93-1.21.79-1.53-7.05Z"/><path class="cls-1" d="M104.91,129.7l2.65,6.27-1.18.89-2.46-6.41Z"/><path class="cls-2" d="M121,118.81l1.15,1.08a143.83,143.83,0,0,1-12.9,11.61l-.73-1.45A139.15,139.15,0,0,0,121,118.81Z"/><path class="cls-1" d="M100.67,132.77l2,6.72-1.21.82-1.84-6.85Z"/><path class="cls-1" d="M102.8,131.26l2.35,6.5-1.2.85L101.79,132Z"/><path class="cls-1" d="M107,128.08l3,6-1.17.91L106,128.86Z"/><path class="cls-2" d="M18.52,101l8.69-1.82c-.1.34-.21.68-.31,1l-8.75,2C18.27,101.8,18.39,101.4,18.52,101Z"/><path class="cls-2" d="M17.78,103.44l8.79-2.13c-.1.34-.19.68-.28,1l-8.85,2.31C17.55,104.23,17.66,103.84,17.78,103.44Z"/><path class="cls-2" d="M26,103.43c-.08.33-.17.67-.25,1L16.82,107l.3-1.17Z"/><path class="cls-2" d="M25.49,105.53c-.08.33-.15.65-.22,1l-9,2.92c.08-.38.16-.77.25-1.16Z"/><path class="cls-2" d="M25.06,107.6c-.07.33-.13.65-.18,1l-9,3.23c.07-.39.14-.77.22-1.16Z"/><path class="cls-2" d="M24.7,109.65c-.05.32-.1.64-.14,1l-9.09,3.52c0-.38.11-.76.17-1.14Z"/><path class="cls-2" d="M24.42,111.67c0,.31-.07.63-.11,1l-9.12,3.81c0-.37.08-.75.13-1.13Z"/><path class="cls-2" d="M24.22,113.66c0,.31,0,.62-.07.93L15,118.69c0-.37.05-.74.08-1.1Z"/><path class="cls-2" d="M24.09,115.61c0,.31,0,.62,0,.92l-9.16,4.38c0-.36,0-.72,0-1.08Z"/><path class="cls-2" d="M24,117.54v.89l-9.16,4.66V122Z"/><path class="cls-2" d="M24.07,119.42c0,.29,0,.59,0,.88L15,125.23c0-.35,0-.69,0-1Z"/><path class="cls-2" d="M24.17,121.26c0,.29,0,.57.08.86l-9.13,5.19-.09-1Z"/><path class="cls-2" d="M24.36,123.06c0,.28.07.56.11.84l-9.1,5.46c0-.33-.09-.67-.13-1Z"/><path class="cls-1" d="M21,126C24.27,148,43.48,157.53,70,150.43a97.37,97.37,0,0,0,24.1-10.38l-.38-2.8.51-.31,1.09,7.33-.6.36-.6-4.48.22,1.69a100.62,100.62,0,0,1-24.9,10.73c-13.55,3.63-25.5,3.07-34.57-1.6-8.87-4.58-14.4-12.74-16-23.61Z"/><path class="cls-2" d="M44.83,56.92l5.31,3.76-.84,1L43.84,58Z"/><path class="cls-2" d="M51.17,50.25l4.5,4.61-.89.9-4.67-4.45Z"/><path class="cls-2" d="M53.37,48.11,57.6,53l-.91.88-4.4-4.73Z"/><path class="cls-2" d="M49,52.43l4.78,4.34c-.3.3-.59.61-.88.91L48,53.51Z"/><path class="cls-2" d="M55.62,46l3.94,5.16-.93.86-4.12-5Z"/><path class="cls-2" d="M46.9,54.65l5,4.06-.86.93-5.2-3.88Z"/><path class="cls-2" d="M57.9,44l3.65,5.43-.94.83L56.78,45Z"/><path class="cls-2" d="M60.21,42l3.37,5.68-1,.81L59.08,43C59.45,42.62,59.83,42.3,60.21,42Z"/><path class="cls-2" d="M42.82,59.22l5.56,3.48c-.28.31-.55.63-.82,1l-5.71-3.31Z"/><path class="cls-2" d="M62.56,40,65.64,46l-1,.79L61.41,41Z"/><path class="cls-2" d="M40.86,61.55l5.81,3.18c-.27.32-.54.65-.8,1l-5.95-3C40.23,62.31,40.54,61.93,40.86,61.55Z"/><path class="cls-2" d="M64.94,38.17l2.77,6.16-1,.77-3-6Z"/><path class="cls-2" d="M39,63.91l6,2.89-.77,1L38,65.08Z"/><path class="cls-2" d="M67.35,36.35l2.46,6.4-1,.74-2.65-6.26Z"/><path class="cls-2" d="M37.11,66.3l6.28,2.59c-.25.32-.5.66-.74,1l-6.43-2.4Z"/><path class="cls-2" d="M69.78,34.59l2.16,6.62-1,.72-2.34-6.49C69,35.15,69.38,34.87,69.78,34.59Z"/><path class="cls-2" d="M35.32,68.71,41.83,71l-.71,1-6.65-2.1Z"/><path class="cls-2" d="M72.23,32.89l1.85,6.85-1,.69-2-6.71Z"/><path class="cls-2" d="M33.6,71.15l6.73,2-.69,1-6.87-1.79Z"/><path class="cls-2" d="M74.7,31.27l1.53,7.05-1,.66-1.72-6.93Z"/><path class="cls-2" d="M31.94,73.61l7,1.66c-.23.34-.45.68-.67,1l-7.07-1.48C31.41,74.41,31.67,74,31.94,73.61Z"/><path class="cls-2" d="M77.18,29.7,78.4,37l-1,.64L76,30.46Z"/><path class="cls-2" d="M30.34,76.08l7.16,1.35-.63,1-7.28-1.16Z"/><path class="cls-2" d="M28.82,78.56l7.35,1-.6,1-7.47-.85Z"/><path class="cls-2" d="M27.37,81.06l7.54.72-.57,1-7.65-.53C26.91,81.87,27.14,81.46,27.37,81.06Z"/><path class="cls-2" d="M26,83.56l7.73.4-.55,1-7.83-.21Z"/><path class="cls-2" d="M24.69,86.06l7.89.09-.51,1-8,.1C24.28,86.88,24.48,86.47,24.69,86.06Z"/><path class="cls-2" d="M23.46,88.57l8.06-.23c-.17.34-.33.69-.49,1l-8.14.42Z"/><path class="cls-2" d="M22.31,91.07l8.21-.55c-.16.34-.3.69-.45,1l-8.29.75Z"/><path class="cls-2" d="M21.24,93.57l8.35-.87-.42,1-8.42,1.06C20.91,94.38,21.08,94,21.24,93.57Z"/><path class="cls-2" d="M20.25,96.06l8.47-1.19c-.12.34-.25.69-.38,1L19.8,97.27Z"/><path class="cls-2" d="M19.35,98.54,27.93,97l-.35,1-8.65,1.69C19.07,99.34,19.2,98.94,19.35,98.54Z"/><path class="cls-2" d="M104.35,20.64c12.46-3.34,23.69-3.13,32.47.61a29.34,29.34,0,0,1,17.05,19.69l-1.08.75,4.47-3.06c0,.11.07.23.1.34l-9,6.05a2.86,2.86,0,0,0-.07-.28l3.39-2.31c-5.28-18.63-23.64-26.16-47.92-19.66a98.47,98.47,0,0,0-25.08,11L78.42,32A101,101,0,0,1,104.35,20.64Z"/><path class="cls-2" d="M157.61,39.94c.07.31.15.62.21.94l-9,5.8c-.06-.26-.11-.53-.18-.79Z"/><path class="cls-2" d="M158,41.86c.06.32.11.65.17,1l-9.08,5.56c0-.27-.09-.55-.15-.82Z"/><path class="cls-2" d="M158.38,43.85c0,.33.09.66.13,1l-9.12,5.3c0-.28-.07-.56-.11-.83Z"/><path class="cls-2" d="M158.63,45.89c0,.34.07.67.09,1l-9.14,5c0-.29-.06-.57-.09-.85Z"/><path class="cls-2" d="M158.79,48c0,.34,0,.69.05,1l-9.16,4.76c0-.29,0-.58,0-.87Z"/><path class="cls-2" d="M158.86,50.11c0,.35,0,.71,0,1.06l-9.16,4.5c0-.3,0-.6,0-.9Z"/><path class="cls-2" d="M158.86,52.29c0,.36,0,.72-.05,1.09l-9.15,4.21c0-.31,0-.61,0-.92Z"/><path class="cls-2" d="M158.75,54.52c0,.36-.05.73-.08,1.1l-9.14,3.93c0-.31.05-.63.07-.93Z"/><path class="cls-2" d="M158.55,56.78c0,.37-.07.74-.12,1.12l-9.1,3.64c0-.32.07-.63.1-.95Z"/><path class="cls-2" d="M158.27,59.08c-.05.38-.1.75-.16,1.14l-9.06,3.34c0-.32.09-.64.13-1Z"/><path class="cls-2" d="M157.91,61.41l-.21,1.16-9,3c.05-.33.12-.65.18-1Z"/><path class="cls-2" d="M157.46,63.77c-.08.39-.17.78-.26,1.17l-8.95,2.74c.08-.33.15-.66.22-1Z"/><path class="cls-2" d="M156.92,66.16l-.3,1.18-8.87,2.44.25-1Z"/><path class="cls-2" d="M147.45,70.89l8.85-2.31c-.11.39-.22.79-.34,1.19l-8.79,2.12C147.27,71.56,147.36,71.22,147.45,70.89Z"/><path class="cls-2" d="M146.84,73l8.75-2c-.12.4-.24.8-.37,1.2L146.52,74C146.63,73.69,146.74,73.35,146.84,73Z"/><path class="cls-2" d="M146.15,75.16l8.66-1.69-.42,1.21-8.59,1.5C145.93,75.84,146,75.49,146.15,75.16Z"/><path class="cls-2" d="M145.4,77.31l8.54-1.37c-.15.4-.3.81-.46,1.21L145,78.34Z"/><path class="cls-2" d="M144.57,79.48,153,78.42c-.16.41-.33.81-.49,1.22l-8.35.87Z"/><path class="cls-2" d="M143.67,81.66l8.29-.75-.54,1.23-8.21.55Z"/><path class="cls-2" d="M142.7,83.84l8.15-.43c-.18.41-.38.82-.57,1.23l-8.07.23C142.38,84.53,142.54,84.18,142.7,83.84Z"/><path class="cls-2" d="M141.66,86l8-.1c-.2.41-.4.82-.61,1.23l-7.9-.09Z"/><path class="cls-2" d="M136.85,94.75l7.3,1.17-.75,1.22-7.19-1.36Z"/><path class="cls-2" d="M120.8,115.5l5,4.19-1,1.09-4.8-4.37C120.21,116.11,120.5,115.8,120.8,115.5Z"/><path class="cls-2" d="M140.56,88.21l7.84.22-.65,1.22-7.74-.4Z"/><path class="cls-2" d="M139.38,90.4l7.68.53-.69,1.22-7.56-.72Z"/><path class="cls-2" d="M138.15,92.58l7.49.85-.72,1.22-7.38-1Z"/><path class="cls-2" d="M135.49,96.91l7.1,1.49-.78,1.21-7-1.68C135.05,97.59,135.27,97.25,135.49,96.91Z"/><path class="cls-2" d="M134.07,99.06l6.9,1.8-.82,1.2-6.77-2Z"/><path class="cls-2" d="M132.59,101.2l6.69,2.11-.86,1.19-6.55-2.3C132.12,101.87,132.36,101.53,132.59,101.2Z"/><path class="cls-2" d="M131.06,103.32l6.46,2.41c-.29.4-.59.79-.89,1.18l-6.32-2.6Z"/><path class="cls-2" d="M129.47,105.41l6.23,2.72-.91,1.17-6.09-2.9Z"/><path class="cls-2" d="M127.83,107.49l6,3c-.32.39-.64.77-1,1.16L127,108.46C127.3,108.13,127.57,107.81,127.83,107.49Z"/><path class="cls-2" d="M126.14,109.53l5.74,3.33c-.31.38-.64.76-1,1.14l-5.6-3.51Z"/><path class="cls-2" d="M124.41,111.55l5.48,3.62c-.32.38-.66.75-1,1.12l-5.34-3.79Z"/><path class="cls-2" d="M122.62,113.54l5.23,3.91-1,1.11-5.08-4.09Z"/><path class="cls-1" d="M57.46,68.19l.49.38c-2.66,2.93-5.21,5.94-7.62,9l-.59-.28.81-1-.27-.12q2.27-2.85,4.7-5.62l.24.15C56,69.86,56.7,69,57.46,68.19Z"/><path class="cls-1" d="M120.39,27.06a78.47,78.47,0,0,1,11.24-2.18l-.16.39a53,53,0,0,1,18.86.9l-.57.85c-8.35-2.07-18.41-1.8-29.75,1.24q-2,.54-4.08,1.2l.17-.79c1.37-.44,2.75-.85,4.12-1.21Z"/><path class="cls-3" d="M41.51,88.44l.68.14a112.53,112.53,0,0,0-14.34,31.56c-3.79,14.28-3.16,26.5,1,35.83l-.84.65C23.7,147,23.3,134.5,27,120.35A114.12,114.12,0,0,1,41.51,88.44Z"/><path class="cls-1" d="M175.54,51.51c.21.85.38,1.72.54,2.6l.39-.25a47.86,47.86,0,0,1,.7,6.8l-.4.21q.07,2,0,4.14l-.85.39a48.76,48.76,0,0,0-1.25-13.31Z"/><path class="cls-3" d="M170.33,90.74l.78-.11c-.5,1.3-1,2.6-1.58,3.9l.36,0a125.2,125.2,0,0,1-9.67,18.16l-.31-.06c-2,3.07-4.08,6.11-6.33,9.11l.27.11a158.75,158.75,0,0,1-14.58,16.75A155.09,155.09,0,0,1,113,159.74l-.07-.31c-3.37,2.15-6.78,4.11-10.2,5.88l1.77-.59a109.52,109.52,0,0,1-23.16,9.36,80.48,80.48,0,0,1-11.26,2.19l1.8-.61a63.56,63.56,0,0,1-7.62.65l-.19.4C52.66,177,43,173.88,36,167.55l.34-.34c-.37-.34-.73-.67-1.08-1a30.29,30.29,0,0,1-2.67-3l.78-.72c9.25,11.83,26.38,16.31,48.35,10.42,11.7-3.13,23.51-8.87,34.61-16.42l.09.29a158.09,158.09,0,0,0,34-31.53l-.25-.13A130.33,130.33,0,0,0,170.33,90.74Z"/><path class="cls-11" d="M21.06,21.6c-.35.37-.69.76-1,1.16l-.64.17c.3-.39.61-.77.95-1.14Z"/><path class="cls-11" d="M17.31,33.11a3.82,3.82,0,0,0,.51.75l-.71.19a4.45,4.45,0,0,1-.45-.77Z"/><path class="cls-11" d="M35.27,17.79a3.93,3.93,0,0,1,.44.77l-.64.17a3.82,3.82,0,0,0-.51-.75Z"/><path class="cls-11" d="M33,28.91c-.3.39-.62.77-.94,1.14l-.72.19c.36-.37.7-.76,1-1.15Z"/><path class="cls-12" d="M28.87,44.76a.59.59,0,0,0,0,.14L25,46.42a2.51,2.51,0,0,1,0-.27Z"/><path class="cls-12" d="M28.78,45.51a.71.71,0,0,0,0,.14l-3.89,1.77a2.46,2.46,0,0,0,0-.26Z"/><path class="cls-12" d="M29.78,41.58l-3.62.57s0-.08,0-.12l.06-.14,3.53-.34Z"/><path class="cls-12" d="M29.72,41.7l-3.58.48,0,0,3.62-.57Z"/><path class="cls-12" d="M26,42.44,29.63,42l-.06.14-3.64.61C26,42.63,26,42.53,26,42.44Z"/><path class="cls-12" d="M25.84,43l3.63-.61a.88.88,0,0,1,0,.15l-3.67.75Z"/><path class="cls-12" d="M25.5,44.06l3.72-.88a.83.83,0,0,0,0,.15l-3.76,1A2.29,2.29,0,0,1,25.5,44.06Z"/><path class="cls-12" d="M29.11,43.58c0,.05,0,.1,0,.15l-3.79,1.14c0-.1,0-.19.07-.28Z"/><path class="cls-12" d="M29,44l0,.14-3.82,1.27.06-.27Z"/><path class="cls-12" d="M25.66,43.52l3.67-.74,0,.15-3.72.87Z"/><path class="cls-12" d="M31.89,33.37,34,35.13a1.59,1.59,0,0,0-.13.13l-2.24-1.63Z"/><path class="cls-12" d="M31.43,33.86l2.24,1.64-.12.14L31.2,34.13Z"/><path class="cls-12" d="M30.14,35.4l2.56,1.26-.11.14-2.66-1.13Z"/><path class="cls-12" d="M29.74,35.92l2.66,1.13-.11.15-2.76-1Z"/><path class="cls-11" d="M29,37l2.85.87-.1.15-2.94-.73Z"/><path class="cls-11" d="M27.92,38.61l3.11.47a1.19,1.19,0,0,1-.09.15l-3.19-.34Z"/><path class="cls-12" d="M30.54,39.94l-3.32-.08.07-.15,3.27.2S30.55,39.93,30.54,39.94Z"/><path class="cls-12" d="M30.49,40.05,27.15,40l.07-.13,3.32.08A.37.37,0,0,1,30.49,40.05Z"/><path class="cls-12" d="M26.74,40.8l3.41-.07-.07.15-3.47.21C26.65,41,26.7,40.9,26.74,40.8Z"/><path class="cls-12" d="M31,34.37l2.35,1.51-.12.14-2.46-1.38Z"/><path class="cls-12" d="M30.56,34.88,33,36.27l-.12.14-2.56-1.26Z"/><path class="cls-11" d="M28.26,38.06l3,.61-.09.15-3.11-.47C28.14,38.25,28.19,38.16,28.26,38.06Z"/><path class="cls-12" d="M27.29,39.71h0l3.27.2h0Z"/><path class="cls-12" d="M27,40.25l3.33.07-.07.14-3.41.08C26.91,40.44,27,40.35,27,40.25Z"/><path class="cls-12" d="M26.49,41.35,30,41.14l-.06.15-3.53.34Z"/><path class="cls-12" d="M43.12,29.08l-.12,0,.73-3.66.23-.08Z"/><path class="cls-12" d="M44.54,25.21l-1,3.74L43.4,29l.86-3.71Z"/><path class="cls-12" d="M45.33,25,45.6,25l-1.25,3.81-.14,0Z"/><path class="cls-12" d="M43.47,25.54l-.73,3.67-.15.05.32-2,0,.18a25.54,25.54,0,0,0-9.52,6.36l1,.93a1.59,1.59,0,0,1-.13.13l-1-.87L33,33.91l-.91-.77.25-.26.87.81a26.13,26.13,0,0,1,9.71-6.48l.25-1.57Z"/><path class="cls-12" d="M44,25.37l-.86,3.7h0l.84-3.7Z"/><path class="cls-12" d="M44.8,25.14l.28-.06L44,28.85l-.14,0Z"/><path class="cls-12" d="M45.85,24.91l.27-.06-1.38,3.83-.14,0Z"/><path class="cls-12" d="M46.37,24.81l.27,0-1.51,3.85-.14,0Z"/><path class="cls-12" d="M46.88,24.74l.26,0-1.63,3.86h-.13Z"/><path class="cls-12" d="M47.38,24.69l.26,0-1.75,3.87-.14,0Z"/><path class="cls-12" d="M47.88,24.65h.25l-1.87,3.87h-.13Z"/><path class="cls-12" d="M49.31,24.67h.24l-2.22,3.86H47.2Z"/><path class="cls-12" d="M48.84,24.64h.25L47,28.52h-.13Z"/><path class="cls-12" d="M49.76,24.71l.24,0-2.33,3.84h-.12Z"/><path class="cls-12" d="M50.21,24.77l.23,0L48,28.64l-.12,0Z"/><path class="cls-12" d="M50.64,24.85l.23,0-2.55,3.8-.11,0Z"/><path class="cls-12" d="M51.47,25.07l.21.07-2.74,3.74-.11,0Z"/><path class="cls-12" d="M51.86,25.21l.2.08L49.23,29l-.1,0Z"/><path class="cls-12" d="M52.24,25.37l.2.08-2.93,3.67-.1-.05Z"/><path class="cls-12" d="M53,25.73l.18.11L50,29.41,50,29.35Z"/><path class="cls-12" d="M53.62,26.17l.16.13-3.25,3.45-.08-.06Z"/><path class="cls-12" d="M53.93,26.42l.15.13-3.32,3.39-.09-.07Z"/><path class="cls-12" d="M54.21,26.68l.15.14L51,30.15a.3.3,0,0,0-.08-.08Z"/><path class="cls-12" d="M54.48,27l.14.15-3.45,3.25-.07-.08Z"/><path class="cls-12" d="M54.74,27.26a1,1,0,0,1,.13.16l-3.51,3.17-.07-.08Z"/><path class="cls-12" d="M55,27.56l.11.18-3.57,3.09-.06-.09Z"/><path class="cls-12" d="M55.2,27.89a1.74,1.74,0,0,1,.11.18l-3.62,3,0-.09Z"/><path class="cls-12" d="M55.41,28.24a1.62,1.62,0,0,1,.1.18l-3.67,2.93a.93.93,0,0,1-.05-.1Z"/><path class="cls-12" d="M55.59,28.59a.88.88,0,0,1,.09.2L52,31.62a1,1,0,0,0,0-.1Z"/><path class="cls-12" d="M55.76,29a1,1,0,0,1,.08.2l-3.75,2.75,0-.11Z"/><path class="cls-12" d="M56.05,29.75l.06.21L52.29,32.5l0-.11Z"/><path class="cls-12" d="M56.16,30.16a1.7,1.7,0,0,1,0,.22l-3.83,2.44s0-.08,0-.12Z"/><path class="cls-12" d="M56.38,31.47a1.94,1.94,0,0,0,0,.24l-3.88,2.11s0-.09,0-.13Z"/><path class="cls-12" d="M56.42,31.92v.25l-3.88,2V34Z"/><path class="cls-12" d="M56.43,32.4v.25l-3.88,1.87a.49.49,0,0,0,0-.12Z"/><path class="cls-12" d="M56.41,33.36l0,.26-3.87,1.64a.61.61,0,0,0,0-.14Z"/><path class="cls-12" d="M56.36,33.86l0,.26-3.86,1.52s0-.09,0-.14Z"/><path class="cls-12" d="M56.22,34.88a2.56,2.56,0,0,0,0,.27l-3.82,1.26,0-.14Z"/><path class="cls-12" d="M56.12,35.4l-.06.27L52.27,36.8l0-.14Z"/><path class="cls-12" d="M48.37,24.63h.25l-2,3.87h-.14Z"/><path class="cls-12" d="M51.06,25l.21.06-2.63,3.78-.12,0Z"/><path class="cls-12" d="M52.61,25.54l.18.1-3,3.62-.09-.06Z"/><path class="cls-12" d="M53.3,26l.17.11L50.3,29.57l-.1-.06Z"/><path class="cls-12" d="M55.91,29.35a1.67,1.67,0,0,1,.08.2L52.2,32.2l0-.11Z"/><path class="cls-12" d="M56.25,30.58a1.85,1.85,0,0,1,0,.23l-3.85,2.33a.43.43,0,0,1,0-.12Z"/><path class="cls-12" d="M56.32,31a1.85,1.85,0,0,1,0,.23l-3.87,2.23a.74.74,0,0,1,0-.12Z"/><path class="cls-12" d="M56.43,32.87a2.26,2.26,0,0,0,0,.26l-3.88,1.76v-.13Z"/><path class="cls-12" d="M56.3,34.37a2.34,2.34,0,0,0,0,.26L52.42,36s0-.09,0-.14Z"/><path class="cls-12" d="M39.89,51l-.19,3.45-.28.13.32-3.51Z"/><path class="cls-12" d="M41.13,50.42l.22,3.25-.28.15L41,50.5Z"/><path class="cls-12" d="M41.55,50.19l.35,3.17-.28.16-.22-3.25Z"/><path class="cls-12" d="M42,50,42.45,53l-.29.17L41.81,50Z"/><path class="cls-12" d="M50.07,42l3.11.46c0,.1-.12.19-.18.29l-3-.61Z"/><path class="cls-12" d="M42.37,49.7l.63,3-.29.18-.48-3.1Z"/><path class="cls-12" d="M49.81,42.4l3,.6c-.06.09-.12.19-.19.28l-2.94-.74Z"/><path class="cls-12" d="M42.78,49.44l.76,2.92-.28.18-.63-3Z"/><path class="cls-12" d="M49.53,42.8l2.95.74c-.06.09-.13.18-.19.28L49.44,43Z"/><path class="cls-12" d="M43.59,48.88l1,2.74-.27.2L43.45,49Z"/><path class="cls-12" d="M44.78,48l1.4,2.43-.26.23-1.28-2.55Z"/><path class="cls-12" d="M48,44.78l2.45,1.39-.22.26L47.9,44.92Z"/><path class="cls-12" d="M45.17,47.65,46.7,50l-.27.22L45,47.77Z"/><path class="cls-12" d="M45.55,47.31l1.65,2.23-.26.23-1.53-2.33Z"/><path class="cls-12" d="M47.36,45.54l2.24,1.63-.24.26-2.13-1.75Z"/><path class="cls-12" d="M45.92,47l1.78,2.1-.26.24L45.79,47.1Z"/><path class="cls-12" d="M48.34,44.4l2.57,1.25-.23.27-2.45-1.38Z"/><path class="cls-12" d="M35.74,52.19l.14,0L34.37,56l-.26,0Z"/><path class="cls-12" d="M36.12,52.14l.14,0L34.89,56l-.27,0Z"/><path class="cls-12" d="M36.51,52.08l.14,0L35.4,55.86l-.27,0Z"/><path class="cls-12" d="M38.25,51.65l-.73,3.66-.28.09.86-3.71Z"/><path class="cls-12" d="M39.06,51.36l-.45,3.57-.29.11.59-3.62Z"/><path class="cls-12" d="M35.37,52.22h.13l-1.63,3.86-.26,0Z"/><path class="cls-12" d="M28.76,45.88a.66.66,0,0,0,0,.14L24.86,47.9a2.09,2.09,0,0,0,0-.25Z"/><path class="cls-12" d="M28.75,46.6a.57.57,0,0,0,0,.13l-3.88,2.12a2.18,2.18,0,0,1,0-.25Z"/><path class="cls-12" d="M29.13,48.67l-3.75,2.74a.14.14,0,0,0,0-.06l3.74-2.77Z"/><path class="cls-12" d="M29.37,49.24l-3.68,2.93a.3.3,0,0,0,0-.1l3.68-2.9A.25.25,0,0,0,29.37,49.24Z"/><path class="cls-12" d="M30.32,50.6l.07.08-3.32,3.39-.14-.14Z"/><path class="cls-12" d="M30.75,51l.09.06-3.17,3.51-.17-.12Z"/><path class="cls-12" d="M31,51.18l.09.06L28,54.8l-.17-.11Z"/><path class="cls-12" d="M31.24,51.34l.09.06-3,3.62-.17-.11Z"/><path class="cls-12" d="M31.77,51.63l.1,0L29,55.38l-.2-.08Z"/><path class="cls-12" d="M32.05,51.75l.1,0-2.74,3.74-.2-.08Z"/><path class="cls-12" d="M32.34,51.86l.1,0L29.8,55.68l-.2-.07Z"/><path class="cls-12" d="M32.64,52l.11,0L30.22,55.8,30,55.74Z"/><path class="cls-12" d="M33,52l.12,0L30.63,55.9l-.22,0Z"/><path class="cls-12" d="M31,56l-.15,0,2.43-3.83h0Z"/><path class="cls-12" d="M33.39,52.14,31.06,56H31l2.31-3.85Z"/><path class="cls-12" d="M34.64,52.24h.13L32.9,56.12h-.25Z"/><path class="cls-12" d="M28.77,47v.12L24.91,49.3c0-.08,0-.16,0-.24Z"/><path class="cls-12" d="M29,48.26l0,.11L25.25,51c0-.06,0-.14-.06-.21Z"/><path class="cls-12" d="M31.49,51.49l.11,0-2.93,3.67-.18-.1Z"/><path class="cls-12" d="M28.74,46.25s0,.08,0,.13l-3.89,2v-.25Z"/><path class="cls-12" d="M28.81,47.29s0,.08,0,.12L25,49.75l0-.23Z"/><path class="cls-12" d="M28.86,47.62a.5.5,0,0,0,0,.12L25,50.18,25,50Z"/><path class="cls-12" d="M28.92,47.94l0,.12-3.82,2.55a1.42,1.42,0,0,0-.05-.22Z"/><path class="cls-12" d="M25.36,51.35l-.06-.14,3.79-2.65v0Z"/><path class="cls-12" d="M25.65,52.07a.93.93,0,0,0,0-.1l3.72-2.83s0,0,0,0Z"/><path class="cls-12" d="M29.45,49.41a.31.31,0,0,1,.05.1l-3.62,3a1.62,1.62,0,0,0-.1-.18Z"/><path class="cls-12" d="M29.76,49.92l.06.09L26.3,53.19c0-.06-.07-.12-.11-.17Z"/><path class="cls-12" d="M29.93,50.16l.07.08-3.45,3.25-.13-.15Z"/><path class="cls-12" d="M30.53,50.81l.08.07-3.25,3.45-.15-.13Z"/><path class="cls-12" d="M33.6,52.17h.12L31.51,56l-.24,0Z"/><path class="cls-12" d="M33.94,52.21h.12L32,56.09l-.24,0Z"/><path class="cls-12" d="M34.28,52.23h.13l-2,3.87h-.24Z"/><path class="cls-12" d="M35,52.24h.13L33.38,56.1h-.25Z"/><path class="cls-12" d="M35.66,55.8h0L36.9,52H37Z"/><path class="cls-12" d="M37.05,52l-1.13,3.78-.26,0L37,52Z"/><path class="cls-12" d="M37.3,51.91l.14,0-1,3.74-.27.07Z"/><path class="cls-12" d="M37.84,51.77,37,55.47l-.27.08,1-3.74Z"/><path class="cls-12" d="M38.65,51.51l-.59,3.62-.28.09.73-3.66Z"/><path class="cls-12" d="M39.48,51.2l-.33,3.51-.28.12.46-3.57Z"/><path class="cls-12" d="M40.3,50.83l0,3.39-.29.14.2-3.46Z"/><path class="cls-12" d="M40.72,50.63,40.8,54l-.28.14,0-3.38Z"/><path class="cls-11" d="M56,35.92a2.86,2.86,0,0,1-.07.28l-1.63.43s0,.06,0,.09a20,20,0,0,1-1.87,4.55l1.41.09-.16.29-3.19-.34a1.09,1.09,0,0,0,.08-.15l1.75.11h-.12A20.17,20.17,0,0,0,54,36.79a.24.24,0,0,0,0-.09l-1.85.5,0-.14,1.88-.57.1,0Z"/><path class="cls-12" d="M43.19,49.17,44.08,52l-.28.19L43,49.27Z"/><path class="cls-12" d="M49.26,43.21l2.85.86-.2.28-2.76-1Z"/><path class="cls-12" d="M49,43.61l2.76,1-.21.27-2.66-1.13A1.34,1.34,0,0,0,49,43.61Z"/><path class="cls-12" d="M44,48.59l1.15,2.64-.27.2-1-2.74A.71.71,0,0,0,44,48.59Z"/><path class="cls-12" d="M48.66,44l2.66,1.13-.21.27-2.56-1.25Z"/><path class="cls-12" d="M44.39,48.28l1.28,2.54-.28.22L44.25,48.4Z"/><path class="cls-12" d="M47.7,45.17,50,46.67l-.23.27L47.57,45.3A1.59,1.59,0,0,1,47.7,45.17Z"/><path class="cls-12" d="M47,45.91l2.13,1.75-.25.26-2-1.88Z"/><path class="cls-12" d="M46.29,46.63l1.9,2-.25.24-1.78-2.1Z"/><path class="cls-12" d="M46.65,46.27l2,1.88-.25.24-1.9-2Z"/><path class="cls-12" d="M38.87,70a8.31,8.31,0,0,0,1,1.54l-3.6,3.6a9.74,9.74,0,0,1-1.31-2Z"/><path class="cls-4" d="M49.05,74.52A18.37,18.37,0,0,0,51.7,74l.62-.18-.91,4-.77.23a22.9,22.9,0,0,1-3.25.63Z"/><path class="cls-5" d="M41.09,72.75a7.78,7.78,0,0,0,1.41.88l-3.13,3.93a10.37,10.37,0,0,1-1.88-1.2Z"/><path class="cls-6" d="M67.11,64l2.41,1.74a46.82,46.82,0,0,1-3.67,3.65l-1.73-2.42A38.09,38.09,0,0,0,67.11,64Z"/><path class="cls-1" d="M70,60.3l3.06.92a45.69,45.69,0,0,1-3.15,4l-2.48-1.66A39.52,39.52,0,0,0,70,60.3Z"/><path class="cls-12" d="M42.9,47.12l2.48,1.66A37.38,37.38,0,0,0,42.82,52l-3.06-.92A47.11,47.11,0,0,1,42.9,47.12Z"/><path class="cls-1" d="M60.91,34.7l-.83,3.93A26.79,26.79,0,0,0,56.65,40l.05-3.62A31.16,31.16,0,0,1,60.91,34.7Z"/><path class="cls-12" d="M34.77,61l4-.89c-.09.27-.17.55-.24.82A18.3,18.3,0,0,0,38,63.41L33.89,65a23.66,23.66,0,0,1,.59-3C34.57,61.7,34.67,61.37,34.77,61Z"/><path class="cls-12" d="M38,63.8a13.48,13.48,0,0,0,0,3l-4.15,2.39a16.6,16.6,0,0,1,0-3.66Z"/><path class="cls-12" d="M65.91,33.62a16.52,16.52,0,0,1,3.66,0l-2.41,4.13a14.16,14.16,0,0,0-3,0Z"/><path class="cls-12" d="M73.47,34.75A10.1,10.1,0,0,1,75.37,36l-3.61,3.6a8.12,8.12,0,0,0-1.42-.89Z"/><path class="cls-12" d="M76.63,37.21a9.9,9.9,0,0,1,1.3,2l-4,3.1a8.15,8.15,0,0,0-1-1.52Z"/><path class="cls-7" d="M42.78,73.76a9.69,9.69,0,0,0,2.55.74l-2.48,4.12a11.74,11.74,0,0,1-3.13-.9Z"/><path class="cls-12" d="M79,43.14a16.07,16.07,0,0,1,0,3.67l-4.14,1.71a13.57,13.57,0,0,0,0-3Z"/><path class="cls-8" d="M56.17,72.32l-.05,3.62a31.58,31.58,0,0,1-4.2,1.7l.82-3.94A26.15,26.15,0,0,0,56.17,72.32Z"/><path class="cls-12" d="M74,52.61l4-.81A32.55,32.55,0,0,1,76.2,56l-3.63,0A24.85,24.85,0,0,0,74,52.61Z"/><path class="cls-12" d="M47,43l1.73,2.42a39.62,39.62,0,0,0-3,3l-2.41-1.74A48.34,48.34,0,0,1,47,43Z"/><path class="cls-1" d="M56.18,36.65l0,3.59a31.47,31.47,0,0,0-3.42,2L52,39.12A43.16,43.16,0,0,1,56.18,36.65Z"/><path class="cls-12" d="M39.41,51.62l3.12.84a32.55,32.55,0,0,0-2,3.41l-3.58,0A39.25,39.25,0,0,1,39.41,51.62Z"/><path class="cls-12" d="M36.66,56.33l3.62,0a27.63,27.63,0,0,0-1.4,3.42l-3.94.8A31.61,31.61,0,0,1,36.66,56.33Z"/><path class="cls-12" d="M70,33.69a12.24,12.24,0,0,1,3.13.9l-3.06,4a10.16,10.16,0,0,0-2.56-.73Z"/><path class="cls-4" d="M45.68,74.55a14,14,0,0,0,3,0L46.92,78.7a16.52,16.52,0,0,1-3.66,0Z"/><path class="cls-9" d="M60,70.1l.82,3.12a40.18,40.18,0,0,1-4.21,2.47l0-3.59A31.49,31.49,0,0,0,60,70.1Z"/><path class="cls-10" d="M63.73,67.26l1.64,2.49a44,44,0,0,1-4,3.12l-.91-3.06A37.51,37.51,0,0,0,63.73,67.26Z"/><path class="cls-12" d="M27.84,24l.09.18-.13.11-.11-.17Z"/><path class="cls-12" d="M28.39,23.6l.07.2-.13.1-.09-.18Z"/><path class="cls-12" d="M27.3,24.47l.1.18-.13.11-.11-.16Z"/><path class="cls-12" d="M29,23.2l.06.2-.14.1-.07-.19A.83.83,0,0,1,29,23.2Z"/><path class="cls-12" d="M26.77,24.94l.12.16-.13.12-.13-.15Z"/><path class="cls-12" d="M31.23,21.81v.24l-.14.07v-.23Z"/><path class="cls-12" d="M31.81,21.52v.25a.61.61,0,0,0-.14.07V21.6Z"/><path class="cls-12" d="M30.66,22.12v.23l-.14.08,0-.22Z"/><path class="cls-12" d="M25.76,25.92l.14.14-.13.12-.15-.12A1.85,1.85,0,0,1,25.76,25.92Z"/><path class="cls-12" d="M33.53,20.83l-.06.26-.13.05,0-.26Z"/><path class="cls-12" d="M23.92,28l.19.09-.1.14-.2-.08Z"/><path class="cls-12" d="M24.8,27l.17.12a.69.69,0,0,0-.11.13l-.18-.1Z"/><path class="cls-12" d="M24.35,27.49l.18.1-.11.13-.19-.08Z"/><path class="cls-12" d="M25.27,26.43l.15.12-.11.13-.17-.11Z"/><path class="cls-12" d="M35.06,20.42l.14,0-.1.28-.13,0Z"/><path class="cls-12" d="M35.6,20.33l.14,0-.11.27-.13,0Z"/><path class="cls-12" d="M34.5,20.55l.15,0-.08.27-.14,0Z"/><path class="cls-12" d="M34.1,20.66l-.07.26-.14,0L34,20.7Z"/><path class="cls-12" d="M41.24,30.3l.25,0-.07.16h-.24Z"/><path class="cls-12" d="M21,34.21l0,.13-.27.09,0-.15Z"/><path class="cls-12" d="M22.41,30.29l.23,0a1,1,0,0,1-.08.14h-.23A1.19,1.19,0,0,0,22.41,30.29Z"/><path class="cls-12" d="M21.55,32l.24,0-.06.15-.25,0A1,1,0,0,1,21.55,32Z"/><path class="cls-12" d="M21.1,33.16l.26,0s0,.09,0,.14l-.27.06A1.42,1.42,0,0,0,21.1,33.16Z"/><path class="cls-12" d="M21.81,31.44h.24a.61.61,0,0,1-.07.14l-.25,0A1.19,1.19,0,0,0,21.81,31.44Z"/><path class="cls-12" d="M23.51,28.59l.2.07-.1.14-.2-.06Z"/><path class="cls-12" d="M42.31,24l0,.12-.27.17a.35.35,0,0,1,0-.11Z"/><path class="cls-12" d="M40.82,21.52l.08.07-.23.24-.08-.07Z"/><path class="cls-12" d="M42.18,23.59s0,.07,0,.11l-.27.18a1,1,0,0,1,0-.1Z"/><path class="cls-12" d="M42,23.18a.54.54,0,0,1,0,.11l-.27.2a1,1,0,0,0,0-.1Z"/><path class="cls-12" d="M41.63,22.45l.06.09-.26.21-.06-.08Z"/><path class="cls-12" d="M41.12,21.8l.07.08-.24.23a.23.23,0,0,1-.07-.07Z"/><path class="cls-12" d="M41.84,22.8l.06.1-.27.21s0-.06-.05-.09Z"/><path class="cls-12" d="M42.44,26.93a.78.78,0,0,0,0,.14l-.28.1a.59.59,0,0,0,0-.13Z"/><path class="cls-12" d="M42.49,26.41a.71.71,0,0,1,0,.14l-.28.11a.59.59,0,0,1,0-.13Z"/><path class="cls-12" d="M42.47,24.92s0,.08,0,.13l-.28.15a.49.49,0,0,1,0-.12Z"/><path class="cls-12" d="M36.13,20.26h.14l-.13.28H36Z"/><path class="cls-12" d="M40.51,21.26l.08.07-.23.24-.08-.06Z"/><path class="cls-12" d="M37.15,20.23a.29.29,0,0,1,.13,0l-.15.27H37Z"/><path class="cls-12" d="M37.63,20.25h.14l-.17.27h-.12Z"/><path class="cls-12" d="M36.64,20.23h.14l-.14.28h-.12Z"/><path class="cls-12" d="M39.4,20.65l.11.05-.2.26-.1,0Z"/><path class="cls-12" d="M39,20.51l.12,0-.2.27-.1,0Z"/><path class="cls-12" d="M35.18,38.12l.1.17-.14.12-.09-.18Z"/><path class="cls-12" d="M30.2,41.09l0,.25L30,41.4l0-.26Z"/><path class="cls-12" d="M35.7,37.68l.12.16-.15.12-.1-.17Z"/><path class="cls-12" d="M37.2,36.26l.15.13-.13.13-.14-.14Z"/><path class="cls-12" d="M30.76,40.86l0,.25-.15.06,0-.25Z"/><path class="cls-12" d="M31.88,40.32l0,.23-.16.08v-.24Z"/><path class="cls-12" d="M37.67,35.76l.16.11L37.7,36l-.15-.12Z"/><path class="cls-12" d="M31.32,40.6v.24l-.15.07v-.24Z"/><path class="cls-12" d="M32.44,40l0,.22-.15.09,0-.23Z"/><path class="cls-12" d="M33,39.68l0,.21-.16.09,0-.22Z"/><path class="cls-12" d="M34.65,38.54l.09.18-.16.12-.07-.2Z"/><path class="cls-12" d="M39,34.19l.19.07-.11.15-.19-.09Z"/><path class="cls-12" d="M38.55,34.72l.19.09-.12.14-.18-.1A.69.69,0,0,0,38.55,34.72Z"/><path class="cls-12" d="M21.17,39a.36.36,0,0,1,0,.09l-.26.21s0-.07,0-.11Z"/><path class="cls-12" d="M20.91,38.14l0,.11-.27.18,0-.12Z"/><path class="cls-12" d="M21,38.56l0,.1-.26.2a.56.56,0,0,1,0-.12Z"/><path class="cls-12" d="M22.31,40.61l.08.07-.24.24-.08-.07Z"/><path class="cls-12" d="M21.78,40l.06.08-.25.23-.06-.09Z"/><path class="cls-12" d="M20.77,35.78s0,.09,0,.13l-.28.13s0-.1,0-.15Z"/><path class="cls-12" d="M20.83,35.27a.59.59,0,0,1,0,.13l-.27.11a.68.68,0,0,1,0-.14Z"/><path class="cls-12" d="M20.74,36.29v.12l-.28.14v-.14Z"/><path class="cls-12" d="M20.83,37.7s0,.08,0,.12l-.27.17s0-.09,0-.13Z"/><path class="cls-12" d="M20.77,37.24a.49.49,0,0,0,0,.12l-.28.17c0-.05,0-.09,0-.13Z"/><path class="cls-12" d="M20.74,36.77v.12l-.27.16s0-.09,0-.14Z"/><path class="cls-12" d="M25.38,41.9h.11l-.15.28h-.13Z"/><path class="cls-12" d="M26.83,41.91H27l-.11.28h-.14Z"/><path class="cls-12" d="M26.33,41.94h.13l-.13.28h-.14Z"/><path class="cls-12" d="M27.35,41.85h.13l-.1.27-.15,0Z"/><path class="cls-12" d="M27.87,41.77l.14,0-.09.27-.15,0Z"/><path class="cls-12" d="M20.92,34.74a.68.68,0,0,0,0,.14l-.27.1a.77.77,0,0,1,0-.15Z"/><path class="cls-12" d="M23.67,41.48l.1,0-.2.27-.1,0Z"/><path class="cls-12" d="M24.07,41.63l.1,0-.19.27-.11,0Z"/><path class="cls-12" d="M22.94,41.1a.26.26,0,0,1,.09,0l-.21.26-.1-.06Z"/><path class="cls-12" d="M24.48,41.75l.12,0-.18.28-.12,0Z"/><path class="cls-12" d="M29.64,41.3l0,.25-.15.05.05-.26Z"/><path class="cls-12" d="M24.92,41.84l.12,0-.17.27-.13,0Z"/><path class="cls-12" d="M26.26,25.42l.13.15-.13.12-.14-.13Z"/><path class="cls-12" d="M29.42,23.12l-.06-.2.06,0,.11.17Z"/><path class="cls-12" d="M29.56,23l0,0-.11-.17.09-.06Z"/><path class="cls-12" d="M23.12,29.15l.21.06-.09.14-.22,0Z"/><path class="cls-12" d="M30.08,22.45l0,.23-.14.08,0-.21Z"/><path class="cls-12" d="M22.76,29.72l.21,0-.08.15-.23,0Z"/><path class="cls-12" d="M32.39,21.26l0,.26-.14.06v-.25Z"/><path class="cls-12" d="M21.31,32.6h0l.26,0a.36.36,0,0,0,0,.07Z"/><path class="cls-12" d="M20.92,33.72l.27,0a.57.57,0,0,0,0,.14l-.27.07A.75.75,0,0,0,20.92,33.72Z"/><path class="cls-12" d="M38.56,20.39l.12,0-.19.27-.11,0Z"/><path class="cls-12" d="M39.79,20.82l.11.06-.22.26-.09-.05Z"/><path class="cls-12" d="M40.16,21l.1.06-.23.25L40,21.29Z"/><path class="cls-12" d="M21.55,39.69a.35.35,0,0,1,.05.08l-.25.23-.06-.1Z"/><path class="cls-12" d="M22,40.33l.07.07-.24.24a.3.3,0,0,0-.08-.08Z"/><path class="cls-12" d="M41.18,22.39a.1.1,0,0,1,0-.05l.25-.23,0,0Z"/><path class="cls-12" d="M41.46,22.2l-.26.22,0,0,.24-.24Z"/><path class="cls-12" d="M22.39,41.11h0l.23-.24,0,0Z"/><path class="cls-12" d="M42.14,24.7v-.07l.27-.18s0,.08,0,.11Z"/><path class="cls-12" d="M42.43,24.58l-.28.16a.06.06,0,0,0,0,0l.29-.14Z"/><path class="cls-12" d="M42.51,25.4v.13l-.27.14s0-.08,0-.12Z"/><path class="cls-12" d="M25.85,41.93H26l-.14.27H25.7Z"/><path class="cls-12" d="M42.35,27.47a.68.68,0,0,0,0,.14l-.28.09,0-.13Z"/><path class="cls-12" d="M41.81,28.7s0,0,0-.06l.26-.07a.19.19,0,0,1,0,.07Z"/><path class="cls-12" d="M42.06,28.68l-.26.06s0,0,0,0l.26-.06S42.07,28.67,42.06,28.68Z"/><path class="cls-12" d="M41.66,29.19l.26-.06c0,.05,0,.1-.05.15l-.26,0S41.64,29.23,41.66,29.19Z"/><path class="cls-12" d="M41.46,29.74l.26,0-.06.15-.25,0C41.42,29.83,41.45,29.79,41.46,29.74Z"/><path class="cls-12" d="M41,30.86l.25,0-.08.16h-.24A.91.91,0,0,0,41,30.86Z"/><path class="cls-12" d="M40.71,31.42H41l-.08.16-.23,0A.61.61,0,0,0,40.71,31.42Z"/><path class="cls-12" d="M40.08,32.54l.23,0-.1.15-.21,0A1,1,0,0,0,40.08,32.54Z"/><path class="cls-12" d="M39.71,33.13l0,0,.21,0s0,0,0,0Z"/><path class="cls-12" d="M39.85,33.29l-.21-.06a.61.61,0,0,0,.07-.1l.22,0A.83.83,0,0,0,39.85,33.29Z"/><path class="cls-12" d="M33.56,39.32l.06.2-.16.1,0-.21Z"/><path class="cls-12" d="M34.11,38.94l.07.19-.15.11L34,39A.71.71,0,0,1,34.11,38.94Z"/><path class="cls-12" d="M38.12,35.25l.17.1-.12.14L38,35.37Z"/><path class="cls-12" d="M29.09,41.47l-.06.27-.15,0,.07-.27Z"/><path class="cls-12" d="M33,21l0,.26-.14.05,0-.24Z"/><path class="cls-12" d="M21.51,32.7l-.26,0,.06-.15.23,0Z"/><path class="cls-12" d="M38.11,20.3l.12,0-.17.28-.12,0Z"/><path class="cls-12" d="M21.35,39.33a.41.41,0,0,0,0,.09l-.26.22-.06-.1Z"/><path class="cls-12" d="M22.7,40.93l-.23.25-.08-.07.27-.21Z"/><path class="cls-12" d="M23.3,41.3l.09.05-.21.26-.1,0Z"/><path class="cls-12" d="M42.52,25.89c0,.05,0,.1,0,.14l-.28.13a.53.53,0,0,0,0-.13Z"/><path class="cls-12" d="M42.24,28a.83.83,0,0,1,0,.15l-.27.07a.65.65,0,0,1,0-.13Z"/><path class="cls-12" d="M28.41,41.66l.13,0-.07.27-.15,0Z"/><path class="cls-12" d="M42.05,28.72l-.26.06s0,0,0,0l.26-.06S42.05,28.71,42.05,28.72Z"/><path class="cls-12" d="M40.41,32l.23,0a1.09,1.09,0,0,1-.08.15l-.23,0S40.38,32,40.41,32Z"/><path class="cls-12" d="M39.36,33.64l.21.06-.11.15-.2-.07Z"/><path class="cls-12" d="M36.21,37.22l.13.15-.14.13-.11-.16Z"/><path class="cls-12" d="M36.71,36.75l.14.14-.13.13-.13-.15Z"/><path class="cls-12" d="M22.1,30.87h.23a.61.61,0,0,1-.07.14H22Z"/></g></g></svg>