<svg xmlns="http://www.w3.org/2000/svg" viewBox="0 0 51.86 50.5"><defs><style>.cls-1{isolation:isolate;}.cls-2{mix-blend-mode:screen;}.cls-3{fill:#fff;}</style></defs><title>资源 19</title><g class="cls-1"><g id="图层_2" data-name="图层 2"><g id="Elements"><g class="cls-2"><path class="cls-3" d="M26,44.92A19.67,19.67,0,1,1,45.67,25.25,19.69,19.69,0,0,1,26,44.92ZM26,6.58A18.67,18.67,0,1,0,44.67,25.25,18.7,18.7,0,0,0,26,6.58Z"/></g><g class="cls-2"><path class="cls-3" d="M42.47,14.68A19.51,19.51,0,0,0,28.1,5.79l.33-3A22.57,22.57,0,0,1,45,13.06Z"/></g><g class="cls-2"><path class="cls-3" d="M20.32,6.86,19.72,5a20.86,20.86,0,0,1,6.75-1l0,2H26A18.56,18.56,0,0,0,20.32,6.86Z"/></g><g class="cls-2"><path class="cls-3" d="M6.83,22.89l-3-.29a22.35,22.35,0,0,1,3.36-9.76l2.53,1.61a19.3,19.3,0,0,0-2.91,8.44Z"/></g><g class="cls-2"><path class="cls-3" d="M6,33.38c-.2-.47-.39-.94-.56-1.43S5.14,31,5,30.48L6.94,30c.12.45.26.89.41,1.33s.32.87.51,1.3Z"/></g><g class="cls-2"><path class="cls-3" d="M26,47A22.13,22.13,0,0,1,7.18,36.65l2.54-1.6a19.26,19.26,0,0,0,22.89,7.8l1,2.82A22.08,22.08,0,0,1,26,47Z"/></g><g class="cls-2"><path class="cls-3" d="M9.58,44.43a25.24,25.24,0,0,1-8.13-25l.48.11a24.79,24.79,0,0,0,8,24.54Z"/></g><g class="cls-2"><path class="cls-3" d="M38.54,48l-1-1.75a23.47,23.47,0,0,0,2.68-1.72,23.94,23.94,0,0,0,2.43-2.05l1.39,1.43A25.67,25.67,0,0,1,38.54,48Z"/></g><g class="cls-2"><path class="cls-3" d="M51.21,31.73l-1.94-.49c.14-.54.26-1.07.35-1.61s.19-1.09.25-1.63l2,.23c-.07.59-.16,1.18-.27,1.76S51.35,31.16,51.21,31.73Z"/></g><g class="cls-2"><path class="cls-3" d="M.15,28.1c0-.36-.07-.72-.1-1.08s0-.73,0-1.1l2-.05c0,.34,0,.67,0,1s.05.67.09,1Z"/></g><g class="cls-2"><path class="cls-3" d="M16.67,3.12,15.9,1.28c.54-.23,1.1-.44,1.66-.64S18.7.28,19.27.12l.52,1.93c-.53.15-1.06.31-1.58.48S17.18,2.91,16.67,3.12Z"/></g><g class="cls-2"><path class="cls-3" d="M3.13,15.82l-.47-.19A25.26,25.26,0,0,1,38.3,3.19l-.24.44A24.75,24.75,0,0,0,3.13,15.82Z"/></g><g class="cls-2"><path class="cls-3" d="M26,50.5a25.32,25.32,0,0,1-12.68-3.41l.25-.43A24.75,24.75,0,0,0,41.43,5.9l.32-.39A25.25,25.25,0,0,1,26,50.5Z"/></g></g></g></g></svg>