<svg xmlns="http://www.w3.org/2000/svg" viewBox="0 0 50 50"><defs><style>.cls-1{fill:#fff;}</style></defs><title>资源 11</title><g id="图层_2" data-name="图层 2"><g id="Elements"><path class="cls-1" d="M29.77.46l-.47.65A23.61,23.61,0,0,1,25,47.93,21.44,21.44,0,0,1,21.67,5.32L25,.71h0l.51-.7H25a25,25,0,1,0,4.77.46Z"/><path class="cls-1" d="M27.6,45.72c-.69.06-1.39.1-2.09.1A20.74,20.74,0,0,0,27.6,45.72Z"/><path class="cls-1" d="M5.85,26.48A19.33,19.33,0,0,0,15.49,43.2V43a18.27,18.27,0,0,1,2.18-32.17l2.12-2.93A19.33,19.33,0,0,0,5.85,26.48Z"/><path class="cls-1" d="M27.82,3.24,26.25,5.42a20.2,20.2,0,0,1,7.89,38.31v.1A21.34,21.34,0,0,0,27.82,3.24Z"/></g></g></svg>