<svg xmlns="http://www.w3.org/2000/svg" viewBox="0 0 259.21 30.5"><defs><style>.cls-1{fill:#61b8ff;}.cls-2{fill:#008cff;}.cls-3{fill:#5ec4ff;}</style></defs><title>资源 1</title><g id="图层_2" data-name="图层 2"><g id="Layer_10" data-name="Layer 10"><polygon class="cls-1" points="255.65 14.97 248.17 14.97 240.37 7.17 240.37 3 246.44 3 255.65 12.21 255.65 14.97"/><polygon class="cls-1" points="233.46 18.61 233.46 24 218.84 24 214.83 20 229.46 20 229.46 14.61 233.46 18.61"/><polygon class="cls-1" points="36.55 8.27 17.46 8.27 13.17 12.57 32.25 12.57 36.55 8.27"/><polygon class="cls-1" points="222.22 22.09 211.44 22.09 211.37 22.02 203.28 13.92 0 13.92 0 13.43 203.48 13.43 203.55 13.5 211.64 21.6 222.22 21.6 222.22 22.09"/><polygon class="cls-1" points="250.84 30.5 230.79 30.5 230.97 19.83 232.06 19.85 231.9 29.4 249.74 29.4 249.74 1.09 236.8 1.09 226.93 10.97 0 10.97 0 9.88 226.47 9.88 236.35 0 250.84 0 250.84 30.5"/><polygon class="cls-1" points="259.21 22.12 250.8 22.12 250.8 13.31 251.9 13.31 251.9 21.02 258.12 21.02 258.12 10.57 251.94 4.39 245.97 4.39 245.97 3.3 252.4 3.3 259.21 10.12 259.21 22.12"/><polygon class="cls-1" points="157.99 9.26 154.12 9.26 152.18 12.61 148.31 12.61 146.38 15.96 148.31 19.3 152.18 19.3 154.12 15.96 157.99 15.96 159.92 12.61 157.99 9.26"/><polygon class="cls-2" points="163.79 5.91 159.92 5.91 157.99 9.26 159.92 12.61 163.79 12.61 165.72 9.26 163.79 5.91"/><polygon class="cls-3" points="157.99 9.26 154.12 9.26 152.18 12.61 154.12 15.96 157.99 15.96 159.92 12.61 157.99 9.26"/><polygon class="cls-3" points="152.18 5.91 148.31 5.91 146.38 9.26 142.51 9.26 140.58 12.61 142.51 15.96 146.38 15.96 148.31 12.61 152.18 12.61 154.12 9.26 152.18 5.91"/><polygon class="cls-3" points="140.58 5.91 136.72 5.91 134.78 9.26 136.72 12.61 140.58 12.61 142.51 9.26 140.58 5.91"/><polygon class="cls-3" points="152.18 5.91 148.31 5.91 146.38 9.26 148.31 12.61 152.18 12.61 154.12 9.26 152.18 5.91"/><polygon class="cls-1" points="163.79 5.91 159.92 5.91 157.99 9.26 159.92 12.61 163.79 12.61 165.72 9.26 163.79 5.91"/><polygon class="cls-3" points="181.19 15.96 177.32 15.96 175.39 19.3 177.32 22.65 181.19 22.65 183.13 19.3 181.19 15.96"/><polygon class="cls-2" points="192.79 15.96 188.93 15.96 186.99 19.3 188.93 22.65 192.79 22.65 194.73 19.3 192.79 15.96"/><polygon class="cls-2" points="175.39 5.91 171.52 5.91 169.59 9.26 165.72 9.26 163.79 12.61 165.72 15.96 169.59 15.96 171.52 12.61 175.39 12.61 177.32 9.26 175.39 5.91"/><polygon class="cls-3" points="175.39 5.91 171.52 5.91 169.59 9.26 171.52 12.61 175.39 12.61 177.32 9.26 175.39 5.91"/></g></g></svg>