<svg xmlns="http://www.w3.org/2000/svg" viewBox="0 0 179.33 171.55"><defs><style>.cls-1{fill:#0cbdcd;}.cls-10,.cls-11,.cls-2,.cls-3,.cls-4,.cls-5,.cls-6,.cls-7,.cls-8,.cls-9{fill:#f49022;}.cls-3{opacity:0.6;}.cls-4{opacity:0.4;}.cls-5{opacity:0.8;}.cls-6{opacity:0.2;}.cls-7{opacity:0.1;}.cls-8{opacity:0.3;}.cls-9{opacity:0.7;}.cls-10{opacity:0.9;}.cls-11{opacity:0.5;}</style></defs><title>资源 8</title><g id="图层_2" data-name="图层 2"><g id="央铋_1" data-name="央铋 1"><path class="cls-1" d="M179.33,91.74a90.84,90.84,0,0,0-5.42-31l.91-.34q-.37-1-.78-2.07l-.9.36A91,91,0,0,0,92.26,1.05l0-1C91.06,0,89.81,0,88.56,0A91.67,91.67,0,0,0,57.69,5.3l.36,1c-1.21.42-2.39.88-3.58,1.36l-.39-1a90.53,90.53,0,0,0-10.32,5l.51.89a92.86,92.86,0,0,0-10.6,6.94l-.6-.79a93.16,93.16,0,0,0-9.34,8.15l.7.69A90.35,90.35,0,0,0,8.33,49.26l-.88-.46A90.44,90.44,0,0,0,0,67.69L1,68c0,.09,0,.19-.08.28l1,.26A89.76,89.76,0,1,1,146.7,160.11l.66.77c.66-.56,1.31-1.13,1.94-1.7l.66.72c1.18-1.07,2.34-2.16,3.47-3.3,2-2,3.83-4,5.6-6.12l-.76-.62a90.44,90.44,0,0,0,15.93-28l1,.33a92.07,92.07,0,0,0,3.8-14.62l-1-.17A91.16,91.16,0,0,0,179.33,91.74Z"/><path class="cls-1" d="M88.56,20.82A70.64,70.64,0,0,0,39.91,40.14l.7.74a69.62,69.62,0,0,1,48-19Z"/><path class="cls-1" d="M17.43,44.12l.84.57A84.73,84.73,0,0,1,108.2,9.45l.24-1a85.73,85.73,0,0,0-91,35.66Z"/><path class="cls-1" d="M137.59,91.74a49,49,0,1,0-49,49A49.08,49.08,0,0,0,137.59,91.74Zm-49,43.6a43.6,43.6,0,1,1,43.61-43.6A43.65,43.65,0,0,1,88.56,135.34Z"/><path class="cls-2" d="M88.56,119.22a27.53,27.53,0,0,0,27.23-23.75H108l6.61,1.11a26.49,26.49,0,0,1-52.09,0l6.61-1.11H61.34A27.53,27.53,0,0,0,88.56,119.22Z"/><path class="cls-1" d="M65.42,98.87a24.22,24.22,0,0,0,46.29,0l-.65-.11a23.57,23.57,0,0,1-45,0Z"/><path class="cls-2" d="M61.34,88h7.79l-6.61-1.1a26.49,26.49,0,0,1,52.09,0L108,88h7.79a27.48,27.48,0,0,0-54.45,0Z"/><path class="cls-1" d="M111.72,84.64a24.22,24.22,0,0,0-46.32,0l.65.11a23.57,23.57,0,0,1,45,0Z"/><path class="cls-1" d="M173.39,109.09,156,105.52c-.18.89-.39,1.76-.6,2.64l17.29,4.25C172.91,111.31,173.16,110.2,173.39,109.09Z"/><path class="cls-2" d="M2.16,86.75l17.75,1A68.25,68.25,0,0,1,30.1,55.56L14.94,46.17A85.83,85.83,0,0,0,2.16,86.75ZM23.34,57.6A73.27,73.27,0,0,0,15.6,81.83L7.52,80.74A81.1,81.1,0,0,1,16.08,53.8Z"/><path class="cls-1" d="M168.82,107.55a83,83,0,0,0,1.52-15.81c0-.82,0-1.63,0-2.44l-8.14.24c0,.73,0,1.46,0,2.2A73.44,73.44,0,0,1,160.81,106Z"/><path class="cls-1" d="M146.39,149.56a82.33,82.33,0,0,0,11.74-14.79l-7-4.3a74.14,74.14,0,0,1-33.31,28.82l3.26,7.51A81.62,81.62,0,0,0,146.39,149.56Z"/><path class="cls-1" d="M26.11,86.84l9.13.72.09-1-9.12-.88C26.18,86.08,26.14,86.46,26.11,86.84Z"/><path class="cls-1" d="M27,80.34,36,82l.18-1-9-1.83C27.1,79.59,27,80,27,80.34Z"/><path class="cls-1" d="M27.9,76.07l8.88,2.29c.23-.92.5-1.83.78-2.73l-8.73-2.76C28.49,73.93,28.18,75,27.9,76.07Z"/><path class="cls-1" d="M26.32,84.67l9.11,1c0-.32.07-.65.11-1l-9.08-1.2C26.41,83.91,26.37,84.29,26.32,84.67Z"/><path class="cls-1" d="M27.4,78.2l8.94,2c.07-.32.15-.63.22-1l-8.9-2.14C27.57,77.46,27.48,77.83,27.4,78.2Z"/><path class="cls-1" d="M26.6,82.5l9.06,1.35c.05-.32.1-.64.16-1l-9-1.52Z"/><path class="cls-1" d="M25.93,91.21l9.16.08c0-.33,0-.65,0-1l-9.16-.24C25.93,90.45,25.93,90.83,25.93,91.21Z"/><path class="cls-1" d="M26,94.44,26,95.58,35.19,95c0-.32,0-.65,0-1Z"/><path class="cls-1" d="M26,89l9.16.39c0-.32,0-.65,0-1L26,87.89Q26,88.45,26,89Z"/><path class="cls-1" d="M25.94,93.4l9.16-.24c0-.33,0-.65,0-1l-9.16.08C25.93,92.64,25.93,93,25.94,93.4Z"/><path class="cls-1" d="M138.32,72.12c.12.3.23.6.35.91l8.58-3.21c-.13-.35-.27-.71-.41-1.06Z"/><path class="cls-1" d="M137.6,70.39c.13.3.26.6.38.9l8.47-3.5L146,66.74Z"/><path class="cls-1" d="M139,73.86c.11.31.22.62.32.93L148,71.88l-.37-1.08Z"/><path class="cls-1" d="M140.1,77.42c.09.32.17.63.25,1l8.88-2.29-.3-1.11Z"/><path class="cls-1" d="M139.57,75.63c.1.31.19.62.28.94l8.79-2.6c-.11-.37-.22-.73-.34-1.09Z"/><path class="cls-1" d="M140.57,79.23c.07.32.15.63.22,1l8.94-2c-.08-.38-.17-.75-.26-1.12Z"/><path class="cls-1" d="M135.09,65.39l.48.85,8.05-4.37c-.18-.33-.37-.66-.56-1Z"/><path class="cls-1" d="M136.82,68.7l.42.88,8.33-3.79-.48-1Z"/><path class="cls-1" d="M136,67l.44.87,8.2-4.08c-.17-.35-.35-.69-.52-1Z"/><path class="cls-1" d="M128,127.84q-1,1-2,2l6.42,6.53c.79-.77,1.56-1.57,2.31-2.39Z"/><path class="cls-1" d="M51.11,129.87l-.69-.68-6.53,6.41c.26.27.54.54.81.81Z"/><path class="cls-1" d="M126,53.6q.35.33.69.69l6.53-6.42-.81-.81Z"/><path class="cls-1" d="M141,81.05c.07.32.13.64.19,1l9-1.66c-.07-.38-.14-.75-.22-1.13Z"/><path class="cls-1" d="M133.14,62.21l.53.82,7.73-4.92-.63-1Z"/><path class="cls-1" d="M141.94,88.45c0,.33,0,.65.05,1l9.15-.4c0-.38,0-.76,0-1.14Z"/><path class="cls-1" d="M141.31,82.89q.09.48.15,1l9.07-1.35c-.06-.37-.12-.75-.19-1.13Z"/><path class="cls-1" d="M141.59,84.74c0,.32.08.64.11,1l9.11-1c-.05-.38-.09-.76-.14-1.13Z"/><path class="cls-1" d="M141.8,86.59l.09,1,9.13-.71c0-.38-.07-.76-.1-1.14Z"/><path class="cls-1" d="M134.14,63.78c.17.28.34.56.5.84l7.9-4.64c-.2-.33-.39-.66-.59-1Z"/><path class="cls-1" d="M109,42.32l.9.38,3.66-8.39c-.35-.16-.7-.31-1.06-.45Z"/><path class="cls-1" d="M107.28,41.63l.91.35,3.36-8.52-1.07-.41Z"/><path class="cls-1" d="M132.08,60.67c.19.27.37.54.56.8l7.54-5.18-.65-.94Z"/><path class="cls-1" d="M112.41,43.87c1.4.71,2.78,1.47,4.11,2.29l4.79-7.81q-2.34-1.44-4.82-2.68Z"/><path class="cls-1" d="M110.72,43.06l.89.42,3.94-8.27-1-.48Z"/><path class="cls-1" d="M89.09,29.1,89,38.26a53.23,53.23,0,0,1,12.06,1.47l2.15-8.9A62.68,62.68,0,0,0,89.09,29.1Z"/><path class="cls-1" d="M117.27,46.63l.82.54,5.06-7.64-1-.62Z"/><path class="cls-1" d="M104.23,31.08,101.94,40l.94.25,2.45-8.82C105,31.27,104.6,31.17,104.23,31.08Z"/><path class="cls-1" d="M103.74,40.45l.93.28L107.43,32l-1.1-.34Z"/><path class="cls-1" d="M105.52,41l.92.32,3.06-8.63-1.08-.38Z"/><path class="cls-1" d="M128.59,56.3l.64.74,7-5.95-.75-.86Z"/><path class="cls-1" d="M129.8,57.72c.21.25.41.5.61.76l7.17-5.7c-.23-.3-.47-.6-.72-.89Z"/><path class="cls-1" d="M127.33,54.93l.66.71,6.75-6.18q-.37-.42-.78-.84Z"/><path class="cls-1" d="M131,59.18c.2.26.4.51.59.78l7.37-5.45c-.23-.3-.46-.61-.7-.91Z"/><path class="cls-1" d="M120.35,48.75l.78.59,5.57-7.26-.91-.69Z"/><path class="cls-1" d="M118.83,47.67l.8.56L125,40.77c-.31-.22-.62-.44-.94-.65Z"/><path class="cls-1" d="M124.66,52.31l.72.67,6.3-6.64-.83-.78Z"/><path class="cls-1" d="M121.83,49.89l.76.61,5.82-7.06c-.29-.25-.59-.48-.89-.72Z"/><path class="cls-1" d="M123.27,51.08l.73.64,6.07-6.86-.86-.75Z"/><path class="cls-1" d="M126.7,141.4l-5.58-7.26-.78.59,5.45,7.36Z"/><path class="cls-1" d="M124.94,142.7l-5.32-7.45-.8.56,5.19,7.55C124.32,143.14,124.63,142.93,124.94,142.7Z"/><path class="cls-1" d="M117.5,147.28l-4.23-8.12-.87.44,4.08,8.2Z"/><path class="cls-1" d="M120.32,145.71l1-.59-4.79-7.8-.83.5Z"/><path class="cls-1" d="M119.42,146.23l-4.51-8-.85.47,4.36,8C118.76,146.61,119.09,146.42,119.42,146.23Z"/><path class="cls-1" d="M118.09,136.31l-.82.53,4.92,7.73,1-.63Z"/><path class="cls-1" d="M131.68,137.14l-6.31-6.64-.71.66,6.18,6.76Z"/><path class="cls-1" d="M136.19,132.38l-7-5.94c-.21.25-.42.49-.64.73l6.86,6.08Z"/><path class="cls-1" d="M130.07,138.61,124,131.76l-.74.64,5.94,7Q129.64,139,130.07,138.61Z"/><path class="cls-1" d="M121.82,133.59l5.7,7.16.89-.71L122.58,133C122.33,133.18,122.08,133.39,121.82,133.59Z"/><path class="cls-1" d="M137.58,130.7l-7.17-5.7c-.2.26-.4.51-.61.76l7.06,5.83Z"/><path class="cls-1" d="M115.55,148.26l-4-8.26-.88.41,3.79,8.33C114.86,148.59,115.2,148.43,115.55,148.26Z"/><path class="cls-1" d="M105.32,152.1l-2.45-8.83-.94.26,2.29,8.87Z"/><path class="cls-1" d="M101.07,153.12l-1.82-9-1,.18,1.66,9Z"/><path class="cls-1" d="M98.92,153.52l-1.51-9-1,.16,1.34,9.06Z"/><path class="cls-1" d="M103.21,152.65l-2.14-8.91-.95.22,2,8.94Z"/><path class="cls-1" d="M112.51,149.62l1-.45-3.66-8.4-.89.38Z"/><path class="cls-1" d="M107.42,151.47l-2.76-8.73-.93.28,2.6,8.79Z"/><path class="cls-1" d="M108.18,141.49l-.91.35,3.21,8.58,1.06-.41Z"/><path class="cls-1" d="M95.63,154l1.13-.14-1.2-9.08-1,.12Z"/><path class="cls-1" d="M109.49,150.78l-3.06-8.63-.92.31,2.9,8.69Z"/><path class="cls-1" d="M131,124.3l7.26,5.58.69-.91-7.36-5.45Z"/><path class="cls-1" d="M142.53,123.5l-7.89-4.64c-.16.28-.33.56-.5.83l7.8,4.79C142.14,124.16,142.34,123.83,142.53,123.5Z"/><path class="cls-1" d="M141.39,125.37l-7.72-4.92-.54.81,7.64,5.06C141,126,141.19,125.69,141.39,125.37Z"/><path class="cls-1" d="M132.63,122c-.18.27-.37.54-.56.8l7.46,5.32.65-.93Z"/><path class="cls-1" d="M90,145.2H89l.07,9.16h1.14Z"/><path class="cls-1" d="M42.48,118.85l-7.89,4.65.59,1L43,119.69Z"/><path class="cls-1" d="M44,121.26c-.18-.27-.36-.54-.53-.82l-7.73,4.92.63,1Z"/><path class="cls-1" d="M41.14,116.44c-.15-.29-.3-.57-.44-.86l-8.2,4.08c.17.34.34.68.52,1Z"/><path class="cls-1" d="M45.05,122.8c-.19-.27-.37-.54-.56-.8l-7.55,5.18.66.94Z"/><path class="cls-1" d="M40.31,114.77c-.15-.29-.28-.58-.42-.88l-8.33,3.8c.15.34.31.69.48,1Z"/><path class="cls-1" d="M42,118.08c-.16-.28-.33-.56-.48-.85l-8.05,4.37c.18.33.37.66.56,1Z"/><path class="cls-1" d="M52.46,131.16l-.71-.66-6.31,6.63c.28.27.56.52.84.78Z"/><path class="cls-1" d="M49.8,128.55l-.66-.72L42.38,134c.26.29.52.56.78.84Z"/><path class="cls-1" d="M46.16,124.29l-.58-.77L38.21,129l.69.91Z"/><path class="cls-1" d="M46.71,125l-7.16,5.69c.23.3.47.6.71.89l7.07-5.83Z"/><path class="cls-1" d="M48.54,127.17l-.64-.74-7,5.95c.24.29.49.57.75.86Z"/><path class="cls-1" d="M36.15,102.42l-.18-1-9,1.67c.07.37.14.75.22,1.12Z"/><path class="cls-1" d="M36.56,104.24c-.07-.32-.15-.63-.22-.95l-8.94,2c.08.37.17.74.26,1.11Z"/><path class="cls-1" d="M39.53,113.08c-.13-.3-.26-.6-.38-.9l-8.47,3.5.45,1Z"/><path class="cls-1" d="M35.54,98.74l-.12-1-9.1,1c.05.38.09.76.14,1.14Z"/><path class="cls-1" d="M35.82,100.58c-.06-.32-.11-.64-.16-1L26.6,101l.18,1.13Z"/><path class="cls-1" d="M37,106.05c-.09-.32-.17-.63-.26-.94L27.9,107.4l.3,1.1Z"/><path class="cls-1" d="M38.16,109.61c-.11-.31-.22-.62-.32-.92l-8.69,2.9.37,1.08Z"/><path class="cls-1" d="M38.81,111.35c-.12-.3-.24-.6-.35-.91l-8.58,3.21c.13.35.27.71.41,1.07Z"/><path class="cls-1" d="M37.56,107.84c-.1-.31-.19-.62-.28-.94l-8.79,2.6c.11.37.22.73.34,1.09Z"/><path class="cls-1" d="M58.7,146.79l4.36-8-.85-.48-4.51,8C58,146.42,58.36,146.61,58.7,146.79Z"/><path class="cls-1" d="M74.25,143.27,71.8,152.1l1.1.29,2.29-8.87Z"/><path class="cls-1" d="M82.53,144.88l-1-.12-1.2,9.08,1.13.14Z"/><path class="cls-1" d="M77,144l-1-.22-2.15,8.9,1.12.26Z"/><path class="cls-1" d="M83.67,154.19l.72-9.13-1-.09-.88,9.12Z"/><path class="cls-1" d="M77.17,153.33l1.66-9-1-.19-1.83,9C76.42,153.2,76.79,153.27,77.17,153.33Z"/><path class="cls-1" d="M79.33,153.7l1.35-9.07c-.33,0-.65-.09-1-.15l-1.51,9Z"/><path class="cls-1" d="M85.85,154.31l.4-9.14-1-.06-.57,9.15Z"/><path class="cls-1" d="M91.27,154.32l1.14-.06-.56-9.15-1,.06Z"/><path class="cls-1" d="M35.33,96.88l-.09-1-9.13.72c0,.38.07.75.1,1.13Z"/><path class="cls-1" d="M88.12,145.21h-1l-.24,9.15,1.14,0Z"/><path class="cls-1" d="M71.61,142.46l-.92-.32-3.06,8.63c.36.13.71.26,1.08.38Z"/><path class="cls-1" d="M56.8,145.71l4.64-7.9-.83-.5-4.79,7.81Z"/><path class="cls-1" d="M93.45,154.19l1.14-.1L93.71,145l-1,.09Z"/><path class="cls-1" d="M54.93,144.56l4.92-7.72L59,136.3,54,143.94Z"/><path class="cls-1" d="M60.64,147.8l4.08-8.2-.87-.45-4.23,8.13Z"/><path class="cls-1" d="M64.61,149.61l3.5-8.46-.89-.38-3.66,8.4Z"/><path class="cls-1" d="M69.85,141.84l-.91-.35L65.58,150l1.07.41Z"/><path class="cls-1" d="M47.06,138.61a64.38,64.38,0,0,0,6,4.74l5.19-7.54a52.18,52.18,0,0,1-5.17-4.06Z"/><path class="cls-1" d="M70.79,151.81l2.6-8.79-.93-.28-2.76,8.73Z"/><path class="cls-1" d="M62.61,148.74l3.79-8.33-.88-.42-3.95,8.27Z"/><path class="cls-1" d="M63.48,47.83l.34.59.3-.17-.34-.59Z"/><path class="cls-1" d="M63.36,48.69,63,48.1l-.3.18.35.58Z"/><path class="cls-1" d="M61.87,49.6,61.51,49l-.29.19.37.57Z"/><path class="cls-1" d="M64.88,47.83l-.32-.6-.31.17.33.59Z"/><path class="cls-1" d="M62.32,49.32a2.29,2.29,0,0,1,.29-.18l-.35-.59-.29.19Z"/><path class="cls-1" d="M60.86,50.26l.28-.19-.37-.57-.29.2Z"/><path class="cls-1" d="M66.9,46.79l.31-.14L66.92,46l-.31.15Z"/><path class="cls-1" d="M53.08,56.69l-.48-.47-.25.24.49.48Z"/><path class="cls-1" d="M67.69,46.42l.31-.14-.28-.62-.31.15Z"/><path class="cls-1" d="M66.42,47l-.3-.61-.3.15.3.61Z"/><path class="cls-1" d="M60.42,50.56,60,50l-.29.19.39.56Z"/><path class="cls-1" d="M55,54.88l-.45-.5-.26.24.46.49A2.73,2.73,0,0,0,55,54.88Z"/><path class="cls-1" d="M55.61,54.3l-.45-.51L54.9,54l.46.51Z"/><path class="cls-1" d="M68.48,46.06l.32-.14-.27-.62-.32.14Z"/><path class="cls-1" d="M54.32,55.48l-.46-.5-.25.24.47.49Z"/><path class="cls-1" d="M53.7,56.08l-.48-.49-.24.25.47.48Z"/><path class="cls-1" d="M56.27,53.73l-.44-.52-.26.23L56,54Z"/><path class="cls-1" d="M56.94,53.17l-.43-.52-.27.22.43.52Z"/><path class="cls-1" d="M59.43,51.26l.27-.21-.39-.55-.28.2Z"/><path class="cls-1" d="M58.72,51.77l.28-.2L58.6,51l-.28.2Z"/><path class="cls-1" d="M58.3,52.09l-.41-.54-.27.21.41.54Z"/><path class="cls-1" d="M57.61,52.63l-.42-.54-.27.22.43.53Z"/><path class="cls-1" d="M65,47l.32.6.3-.16-.31-.6Z"/><path class="cls-1" d="M81,42.41l.33,0-.09-.67-.35.05Z"/><path class="cls-1" d="M78.43,42.87l.34-.06-.14-.67-.34.07Z"/><path class="cls-1" d="M79.29,42.71l.33-.07L79.5,42l-.34.06Z"/><path class="cls-1" d="M80.15,42.55l.33,0-.11-.67-.34.05Z"/><path class="cls-1" d="M82.74,42.18l.33,0L83,41.47l-.34,0Z"/><path class="cls-1" d="M81.87,42.29l.34,0-.09-.67-.34,0Z"/><path class="cls-1" d="M86.55,41.88l0-.68-.35,0,0,.68Z"/><path class="cls-1" d="M85.34,42l.34,0,0-.67-.34,0Z"/><path class="cls-1" d="M83.6,42.09l.34,0-.06-.68-.34,0Z"/><path class="cls-1" d="M84.47,42l.34,0,0-.68-.34,0Z"/><path class="cls-1" d="M70.91,45.07l.31-.12L71,44.31l-.33.13Z"/><path class="cls-1" d="M72,44.65,71.82,44l-.33.12.23.64Z"/><path class="cls-1" d="M77.43,42.4l.15.66.33-.07-.14-.67Z"/><path class="cls-1" d="M70.41,45.26l-.25-.63-.32.12.25.64Z"/><path class="cls-1" d="M69.28,45.72l.32-.13L69.34,45l-.32.13Z"/><path class="cls-1" d="M73.7,44.1l-.2-.65-.33.11.2.65Z"/><path class="cls-1" d="M72.54,44.48l.33-.11-.21-.64-.33.1Z"/><path class="cls-1" d="M77.06,43.18l-.15-.66-.34.08.16.66Z"/><path class="cls-1" d="M75.71,42.82l.17.65.34-.08-.17-.66Z"/><path class="cls-1" d="M74.21,44l.32-.1-.19-.65-.33.1Z"/><path class="cls-1" d="M75.37,43.61,75.19,43l-.33.09.18.65Z"/><path class="cls-1" d="M48.54,62l-.54-.4-.21.28.55.4Z"/><path class="cls-1" d="M40.28,79.12,39.63,79l-.09.34.66.16C40.23,79.34,40.25,79.23,40.28,79.12Z"/><path class="cls-1" d="M40.07,80l-.66-.16c0,.11,0,.22-.08.33l.66.16C40,80.19,40.05,80.08,40.07,80Z"/><path class="cls-1" d="M40.51,78.28l-.65-.18-.09.33.65.18Z"/><path class="cls-1" d="M39.69,81.66,39,81.53l-.06.34.66.13C39.65,81.89,39.67,81.77,39.69,81.66Z"/><path class="cls-1" d="M39.88,80.81l-.67-.15c0,.12-.05.23-.07.34l.66.15C39.83,81,39.85,80.92,39.88,80.81Z"/><path class="cls-1" d="M41.57,75l-.64-.23-.12.32.65.23A3,3,0,0,1,41.57,75Z"/><path class="cls-1" d="M38.79,82.73l.67.12.06-.33-.66-.13C38.84,82.51,38.81,82.62,38.79,82.73Z"/><path class="cls-1" d="M41.87,74.15l-.63-.24c0,.11-.09.21-.13.32l.64.24Z"/><path class="cls-1" d="M41,76.61l-.64-.2c0,.11-.08.22-.11.33l.65.2C40.94,76.83,41,76.72,41,76.61Z"/><path class="cls-1" d="M42.18,73.34l-.63-.26-.12.33.63.24Z"/><path class="cls-1" d="M41.28,75.79l-.64-.22c0,.11-.07.22-.11.33l.65.21A3,3,0,0,1,41.28,75.79Z"/><path class="cls-1" d="M40.76,77.45l-.65-.2c0,.11-.07.22-.1.33l.65.19C40.69,77.66,40.72,77.56,40.76,77.45Z"/><path class="cls-1" d="M38.07,88.86l.68,0c0-.12,0-.23,0-.34l-.68,0C38.09,88.63,38.08,88.75,38.07,88.86Z"/><path class="cls-1" d="M38,89.74l.68,0c0-.12,0-.23,0-.34l-.68,0C38,89.51,38,89.63,38,89.74Z"/><path class="cls-1" d="M38,90.62l.68,0c0-.12,0-.23,0-.34l-.68,0C38,90.39,38,90.51,38,90.62Z"/><path class="cls-1" d="M38.13,88l.67,0,0-.34-.67-.06Z"/><path class="cls-1" d="M52.47,57.32,52,56.85l-.24.25.5.47Z"/><path class="cls-1" d="M38.39,85.35l.67.08c0-.11,0-.22,0-.33l-.67-.1C38.42,85.12,38.4,85.23,38.39,85.35Z"/><path class="cls-1" d="M38.65,83.6l.67.11c0-.11,0-.22,0-.33l-.67-.12C38.68,83.37,38.66,83.49,38.65,83.6Z"/><path class="cls-1" d="M38.51,84.47l.67.1c0-.11,0-.22,0-.34l-.67-.1C38.54,84.24,38.53,84.36,38.51,84.47Z"/><path class="cls-1" d="M38.2,87.1l.68.06,0-.34-.68-.06Z"/><path class="cls-1" d="M38.29,86.22l.67.08c0-.12,0-.23,0-.34l-.67-.08C38.32,86,38.3,86.11,38.29,86.22Z"/><path class="cls-1" d="M38,91.5h.68v-.34H38C38,91.27,38,91.39,38,91.5Z"/><path class="cls-1" d="M47,64.11l-.57-.38-.19.29.57.37C46.91,64.3,47,64.2,47,64.11Z"/><path class="cls-1" d="M87.09,41.86h.34l0-.67h-.35Z"/><path class="cls-1" d="M48,62.68l-.55-.4-.2.28.55.39Z"/><path class="cls-1" d="M47.53,63.39,47,63l-.2.29.56.38A2.83,2.83,0,0,1,47.53,63.39Z"/><path class="cls-1" d="M49.61,60.6l-.53-.43-.22.27.53.42Z"/><path class="cls-1" d="M49.07,61.28l-.54-.42-.21.28.54.41Z"/><path class="cls-1" d="M50.15,59.92l-.52-.43c-.07.08-.14.18-.22.26l.53.43Z"/><path class="cls-1" d="M51.29,58.6l-.5-.45a2.85,2.85,0,0,0-.23.26l.51.45Z"/><path class="cls-1" d="M38,92c0,.11,0,.23,0,.35h.68V92Z"/><path class="cls-1" d="M50.72,59.26l-.51-.45-.23.27.52.44A2.75,2.75,0,0,1,50.72,59.26Z"/><path class="cls-1" d="M44.78,67.83l-.6-.33c0,.1-.11.2-.16.31l.6.32Z"/><path class="cls-1" d="M44,69.37l-.61-.31-.15.31.61.3Z"/><path class="cls-1" d="M43.58,70.15l-.61-.3-.15.32.62.29C43.49,70.35,43.53,70.25,43.58,70.15Z"/><path class="cls-1" d="M42.86,71.73l-.62-.27a3.09,3.09,0,0,0-.14.32l.62.26C42.76,71.94,42.81,71.84,42.86,71.73Z"/><path class="cls-1" d="M43.21,70.94l-.61-.29-.15.32.62.28C43.12,71.14,43.17,71,43.21,70.94Z"/><path class="cls-1" d="M44.37,68.59l-.6-.31a3,3,0,0,0-.16.31l.6.31C44.26,68.8,44.32,68.7,44.37,68.59Z"/><path class="cls-1" d="M46.56,64.83,46,64.47l-.19.29.58.36Z"/><path class="cls-1" d="M42.51,72.53l-.62-.26c0,.11-.09.21-.13.32l.62.26C42.43,72.74,42.47,72.64,42.51,72.53Z"/><path class="cls-1" d="M46.09,65.57l-.57-.36-.19.3.58.35C46,65.76,46,65.67,46.09,65.57Z"/><path class="cls-1" d="M45.64,66.32,45.06,66l-.18.3.59.34Z"/><path class="cls-1" d="M45.2,67.07l-.59-.34-.16.3.59.34Z"/><path class="cls-1" d="M51.88,58l-.5-.47-.24.26.5.45Z"/><path class="cls-1" d="M131.85,65.61l-.18-.29-.57.35.17.29Z"/><path class="cls-1" d="M132.3,66.37c-.05-.1-.11-.2-.17-.3l-.58.35c0,.1.11.19.17.29Z"/><path class="cls-1" d="M130.91,64.12a2.9,2.9,0,0,0-.19-.29l-.56.38.18.28Z"/><path class="cls-1" d="M132.74,67.14c-.05-.1-.11-.2-.17-.3l-.59.33.17.3Z"/><path class="cls-1" d="M131.39,64.86a2.9,2.9,0,0,0-.19-.29l-.57.36c.07.1.12.2.18.29Z"/><path class="cls-1" d="M135.08,71.89l-.14-.32-.62.28c.05.1.09.2.14.31Z"/><path class="cls-1" d="M134.73,71.08l-.15-.31-.61.28c0,.1.09.21.14.31Z"/><path class="cls-1" d="M134.36,70.28l-.15-.31-.61.29c.05.1.09.21.14.31Z"/><path class="cls-1" d="M133.17,67.91l-.17-.3-.59.32.16.3Z"/><path class="cls-1" d="M134,69.48l-.15-.3-.61.3.15.3Z"/><path class="cls-1" d="M130.42,63.38l-.19-.28-.56.38c.06.1.13.19.19.28Z"/><path class="cls-1" d="M133.58,68.69l-.16-.3-.6.32.16.3Z"/><path class="cls-1" d="M129.92,62.66l-.2-.29-.55.4.2.28Z"/><path class="cls-1" d="M126.64,58.49l-.22-.26-.51.45.22.26Z"/><path class="cls-1" d="M127.22,59.16,127,58.9l-.52.44.22.26Z"/><path class="cls-1" d="M125.46,57.18l-.24-.25-.49.47a2.73,2.73,0,0,1,.23.25Z"/><path class="cls-1" d="M124.85,56.54l-.24-.25-.49.48.24.24Z"/><path class="cls-1" d="M126.06,57.83l-.24-.26-.49.47.23.25Z"/><path class="cls-1" d="M129.4,61.94l-.2-.28-.54.41.2.27Z"/><path class="cls-1" d="M127.78,59.84l-.21-.27L127,60a2.75,2.75,0,0,1,.22.26Z"/><path class="cls-1" d="M128.87,61.23l-.2-.27-.54.41.21.27Z"/><path class="cls-1" d="M128.34,60.53l-.22-.27-.53.42.22.27Z"/><path class="cls-1" d="M135.75,73.53c0-.11-.08-.22-.13-.33l-.63.26c0,.1.08.21.12.31Z"/><path class="cls-1" d="M137.92,84.37c0,.12,0,.23,0,.34l.67-.1,0-.34Z"/><path class="cls-1" d="M138,85.23l0,.34.67-.08c0-.12,0-.23,0-.35Z"/><path class="cls-1" d="M137.63,82.66l.06.33.67-.12-.06-.34Z"/><path class="cls-1" d="M138.14,86.1c0,.11,0,.22,0,.34l.67-.08c0-.11,0-.22,0-.34Z"/><path class="cls-1" d="M137.78,83.51l.06.34.66-.11c0-.11,0-.23-.05-.34Z"/><path class="cls-1" d="M138.41,89.57c0,.11,0,.23,0,.34l.68,0c0-.11,0-.22,0-.34Z"/><path class="cls-1" d="M138.23,87l0,.33.68-.06,0-.34Z"/><path class="cls-1" d="M138.2,82c0-.11,0-.23-.07-.34l-.66.14.06.33Z"/><path class="cls-1" d="M138.44,90.44c0,.11,0,.23,0,.34h.68c0-.12,0-.23,0-.35Z"/><path class="cls-1" d="M138.31,87.83c0,.12,0,.23,0,.34l.68,0c0-.11,0-.23,0-.34Z"/><path class="cls-1" d="M138.37,88.7c0,.12,0,.23,0,.34l.67,0c0-.11,0-.23,0-.34Z"/><path class="cls-1" d="M138,81.14a3.38,3.38,0,0,0-.08-.34l-.66.15c0,.11.05.22.08.33Z"/><path class="cls-1" d="M136.36,75.19l-.12-.33-.64.23.12.32Z"/><path class="cls-1" d="M136.64,76l-.11-.33-.64.22c0,.11.07.22.1.32Z"/><path class="cls-1" d="M136.91,76.86l-.11-.33-.64.21c0,.11.07.22.1.32Z"/><path class="cls-1" d="M136.06,74.35l-.12-.32-.64.24c0,.11.09.21.12.32Z"/><path class="cls-1" d="M124.23,55.91l-.25-.24-.47.49.24.23Z"/><path class="cls-1" d="M135.42,72.71c0-.11-.09-.22-.13-.32l-.63.26c.05.1.09.21.13.31Z"/><path class="cls-1" d="M137.62,79.42c0-.12-.05-.23-.08-.34l-.66.17c0,.11.05.22.08.33Z"/><path class="cls-1" d="M137.83,80.27c0-.11-.06-.22-.08-.33l-.66.16c0,.11,0,.22.08.33Z"/><path class="cls-1" d="M137.4,78.56l-.09-.33-.66.18.09.33Z"/><path class="cls-1" d="M137.16,77.71c0-.11-.07-.22-.1-.33l-.65.19c0,.11.07.22.1.33Z"/><path class="cls-1" d="M88.83,41.84h.34v-.68h-.35Z"/><path class="cls-1" d="M100.48,43.28l.16-.66-.34-.08-.16.66Z"/><path class="cls-1" d="M97.92,42.72l.12-.66L97.7,42l-.12.67Z"/><path class="cls-1" d="M99.63,43.08l.15-.67-.34-.07L99.3,43Z"/><path class="cls-1" d="M102.16,43.72l.19-.65L102,43l-.18.65Z"/><path class="cls-1" d="M98.77,42.89l.14-.66-.34-.07-.13.66Z"/><path class="cls-1" d="M101.32,43.49l.17-.65-.33-.09-.17.66Z"/><path class="cls-1" d="M106,45l.31.12.24-.63-.32-.13Z"/><path class="cls-1" d="M105.17,44.68l.32.11.22-.63-.32-.12Z"/><path class="cls-1" d="M102.68,43.87l.32.1.2-.65-.33-.1Z"/><path class="cls-1" d="M104,43.58l-.33-.1-.2.65.32.1Z"/><path class="cls-1" d="M104.34,44.4l.32.11.22-.65-.33-.11Z"/><path class="cls-1" d="M96.2,42.42l.1-.67-.34,0-.1.67Z"/><path class="cls-1" d="M92.65,42l.06-.68-.35,0,0,.68Z"/><path class="cls-1" d="M91.78,42l0-.68-.35,0,0,.67Z"/><path class="cls-1" d="M97.06,42.57l.11-.67-.34-.06-.11.67Z"/><path class="cls-1" d="M88.3,41.84v-.68H88v.68Z"/><path class="cls-1" d="M90,41.86l0-.68h-.34l0,.67Z"/><path class="cls-1" d="M123.6,55.29l-.25-.23-.47.49c.09.08.16.16.25.23Z"/><path class="cls-1" d="M106.8,45.29l.32.13.25-.63-.32-.13Z"/><path class="cls-1" d="M95.33,42.3l.09-.67-.34-.05-.08.67Z"/><path class="cls-1" d="M94.47,42.19l.08-.67-.42-.05-.08.67Z"/><path class="cls-1" d="M93.52,42.09l.07-.68-.34,0-.07.68C93.3,42.07,93.41,42.07,93.52,42.09Z"/><path class="cls-1" d="M90.91,41.9l0-.68-.34,0,0,.68Z"/><path class="cls-1" d="M116.07,50.13l.28.18.38-.56-.29-.19Z"/><path class="cls-1" d="M119.17,52.36l.42-.54-.27-.21-.41.54Z"/><path class="cls-1" d="M118.21,51.63l.27.2.41-.54-.28-.21Z"/><path class="cls-1" d="M116.79,50.61l.28.2.39-.56-.29-.2Z"/><path class="cls-1" d="M117.51,51.11l.27.2.4-.55a2.83,2.83,0,0,1-.28-.2Z"/><path class="cls-1" d="M119.59,52.69l.27.21.42-.53-.27-.21Z"/><path class="cls-1" d="M123,54.69l-.25-.24-.46.5.25.24Z"/><path class="cls-1" d="M122.3,54.09l-.26-.23-.44.51.25.23Z"/><path class="cls-1" d="M121.64,53.51l-.26-.23-.44.52.26.22Z"/><path class="cls-1" d="M121,52.93l-.26-.22-.43.53.26.22Z"/><path class="cls-1" d="M108.72,46.1l.28-.62-.32-.14-.27.62Z"/><path class="cls-1" d="M111.09,47.22l.3-.61-.3-.15-.3.61Z"/><path class="cls-1" d="M110.31,46.83l.29-.61-.31-.15-.29.62Z"/><path class="cls-1" d="M107.93,45.75l.26-.63-.32-.13-.26.63Z"/><path class="cls-1" d="M111.86,47.62l.32-.6-.31-.16-.31.61Z"/><path class="cls-1" d="M109.52,46.46l.28-.62-.31-.14-.28.61Z"/><path class="cls-1" d="M114.14,48.91l.35-.58-.3-.18-.34.59Z"/><path class="cls-1" d="M114.89,49.37l.35-.58-.29-.18-.35.58Z"/><path class="cls-1" d="M112.63,48l.33-.6-.3-.16-.32.59Z"/><path class="cls-1" d="M115.62,49.83l.37-.57-.29-.19-.36.58Z"/><path class="cls-1" d="M113.39,48.46l.34-.58-.3-.17-.33.59A2.69,2.69,0,0,0,113.39,48.46Z"/><path class="cls-1" d="M41.8,111c0,.1.09.21.13.32l.63-.27c-.05-.1-.09-.21-.13-.31Z"/><path class="cls-1" d="M115.13,134l.36.57.29-.18-.37-.57Z"/><path class="cls-1" d="M114.68,134.24l-.29.18.35.57a2.82,2.82,0,0,0,.29-.18Z"/><path class="cls-1" d="M116.86,132.81l-.28.19.38.56.29-.19Z"/><path class="cls-1" d="M117.57,132.31l-.28.2.4.55.28-.2Z"/><path class="cls-1" d="M116.14,133.3l-.28.19.37.56.29-.19Z"/><path class="cls-1" d="M113.93,134.69l-.29.17.34.58.3-.17Z"/><path class="cls-1" d="M110.4,137.35l-.29-.61-.31.14.29.61Z"/><path class="cls-1" d="M111.19,137l-.3-.61-.31.15.3.61Z"/><path class="cls-1" d="M112.75,136.14l-.32-.59-.3.16.32.59Z"/><path class="cls-1" d="M113.18,135.12l-.29.17.33.59.3-.17Z"/><path class="cls-1" d="M112,136.55l-.31-.6-.3.16.31.61Z"/><path class="cls-1" d="M122,128.71l.45.5.26-.23-.46-.5Z"/><path class="cls-1" d="M122.67,128.12l.47.49.25-.23-.47-.49Z"/><path class="cls-1" d="M121.39,129.29l.44.51.26-.23-.45-.51A2.73,2.73,0,0,0,121.39,129.29Z"/><path class="cls-1" d="M109.32,137.11l-.31.14.28.61.31-.14Z"/><path class="cls-1" d="M123.3,127.52l.47.48.25-.24-.48-.48Z"/><path class="cls-1" d="M123.92,126.91l.48.48.24-.25-.48-.47Z"/><path class="cls-1" d="M119.38,131.81l-.42-.54-.27.21.41.54Z"/><path class="cls-1" d="M119.38,131l.42.53.27-.21-.42-.53Z"/><path class="cls-1" d="M118.68,132.34l-.41-.54-.27.2.4.55Z"/><path class="cls-1" d="M90.87,142.26l0-.68H90.5l0,.68Z"/><path class="cls-1" d="M120.73,129.85l.43.52.27-.22-.44-.52Z"/><path class="cls-1" d="M105.3,138.74l-.32.11.22.65.33-.12Z"/><path class="cls-1" d="M96,141.07l-.34.05.1.67.34,0Z"/><path class="cls-1" d="M96.88,140.94l-.33.05.11.67.34-.06Z"/><path class="cls-1" d="M95.17,141.2l-.34,0,.08.67.35,0Z"/><path class="cls-1" d="M98.73,141.28l-.14-.66-.33.06.13.67Z"/><path class="cls-1" d="M99.59,141.1l-.15-.66-.33.07.14.66Z"/><path class="cls-1" d="M97.87,141.45l-.13-.67-.33.07.12.67Z"/><path class="cls-1" d="M94.3,141.3l-.33,0L94,142l.34,0Z"/><path class="cls-1" d="M91.71,141.53l-.34,0,0,.68.34,0Z"/><path class="cls-1" d="M92.57,141.47l-.33,0,.05.67.34,0Z"/><path class="cls-1" d="M93.44,141.39l-.34,0,.06.68.35,0Z"/><path class="cls-1" d="M106.11,138.44l-.31.12.23.64.32-.12Z"/><path class="cls-1" d="M104.48,139l-.32.1.21.65.33-.11Z"/><path class="cls-1" d="M124.53,126.29l.49.47.24-.25-.5-.47Z"/><path class="cls-1" d="M108.49,138.22l.31-.14-.27-.62-.31.14Z"/><path class="cls-1" d="M107.67,138.56l.32-.13-.26-.63-.31.13Z"/><path class="cls-1" d="M100.31,140.23l-.35.09.15.66.36-.09Z"/><path class="cls-1" d="M106.61,138.26l.25.63.32-.13-.26-.63Z"/><path class="cls-1" d="M103.33,139.4l.2.65.33-.1-.21-.65Z"/><path class="cls-1" d="M101.15,140l-.33.09.17.66.33-.09Z"/><path class="cls-1" d="M102,139.8l-.33.08.18.66.33-.09Z"/><path class="cls-1" d="M102.69,140.3l.33-.1-.2-.65-.32.1Z"/><path class="cls-1" d="M120.06,130.41l.43.52a2.75,2.75,0,0,0,.26-.22l-.43-.52Z"/><path class="cls-1" d="M137.21,102.87l.66.15c0-.11,0-.22.07-.33l-.66-.15C137.25,102.65,137.23,102.76,137.21,102.87Z"/><path class="cls-1" d="M137,103.72l.66.16c0-.11.06-.22.08-.33l-.66-.16C137.06,103.5,137,103.61,137,103.72Z"/><path class="cls-1" d="M138.23,101.3l.06-.34-.66-.12c0,.11,0,.22-.07.33Z"/><path class="cls-1" d="M136.79,104.56l.65.18.09-.34-.65-.17Z"/><path class="cls-1" d="M137.72,100.31l.67.12.06-.34-.67-.11Z"/><path class="cls-1" d="M137.39,102l.67.14c0-.11,0-.22.07-.34l-.67-.13C137.44,101.8,137.42,101.91,137.39,102Z"/><path class="cls-1" d="M135.49,108.71l.63.23.12-.32-.64-.23C135.56,108.5,135.52,108.61,135.49,108.71Z"/><path class="cls-1" d="M136.56,105.4l.65.19.09-.34-.65-.17Z"/><path class="cls-1" d="M135.77,107.89l.65.22c0-.11.07-.22.11-.33l-.65-.21C135.85,107.68,135.81,107.78,135.77,107.89Z"/><path class="cls-1" d="M136.31,106.23l.65.2c0-.11.07-.22.1-.33l-.65-.19C136.37,106,136.34,106.13,136.31,106.23Z"/><path class="cls-1" d="M136.05,107.07l.65.2c0-.11.07-.22.1-.33l-.65-.2C136.12,106.85,136.08,107,136.05,107.07Z"/><path class="cls-1" d="M138.4,94.26l.68,0c0-.12,0-.23,0-.35l-.68,0C138.4,94,138.4,94.15,138.4,94.26Z"/><path class="cls-1" d="M138.43,93.39l.68,0c0-.11,0-.23,0-.34l-.68,0C138.44,93.17,138.43,93.28,138.43,93.39Z"/><path class="cls-1" d="M135.18,109.53l.63.24c.05-.11.09-.22.13-.33l-.64-.23Z"/><path class="cls-1" d="M138.46,91.31v.34h.68c0-.12,0-.23,0-.35Z"/><path class="cls-1" d="M125.12,125.66l.5.46c.08-.09.16-.17.23-.26l-.5-.45Z"/><path class="cls-1" d="M139.13,92.19h-.68v.34h.68Z"/><path class="cls-1" d="M138.81,97.47l-.67-.08c0,.12,0,.23,0,.34l.67.08C138.79,97.7,138.8,97.58,138.81,97.47Z"/><path class="cls-1" d="M139,95.71l-.67,0,0,.34.67.06Z"/><path class="cls-1" d="M138.71,98.34l-.68-.08c0,.11,0,.22,0,.33l.67.1C138.68,98.57,138.69,98.46,138.71,98.34Z"/><path class="cls-1" d="M138.58,99.22l-.67-.1c0,.11,0,.22,0,.34l.67.1C138.55,99.45,138.57,99.33,138.58,99.22Z"/><path class="cls-1" d="M138.91,96.59l-.68-.06,0,.34.67.06C138.89,96.82,138.89,96.71,138.91,96.59Z"/><path class="cls-1" d="M138.34,95.13l.68.05c0-.12,0-.23,0-.35l-.68,0C138.36,94.91,138.35,95,138.34,95.13Z"/><path class="cls-1" d="M128.47,121.66l.54.41.21-.28-.55-.4Z"/><path class="cls-1" d="M130.46,118.81l.57.37.19-.29-.58-.36Z"/><path class="cls-1" d="M127.94,122.35l.53.41c.08-.09.14-.18.21-.27l-.53-.41Z"/><path class="cls-1" d="M130,119.54l.56.37a2.9,2.9,0,0,0,.19-.29l-.56-.37Z"/><path class="cls-1" d="M129.49,120.25l.55.39.2-.29-.56-.38C129.62,120.07,129.55,120.16,129.49,120.25Z"/><path class="cls-1" d="M129,121l.55.39.21-.27-.56-.39Z"/><path class="cls-1" d="M134.86,110.34l.63.25c0-.11.09-.22.13-.32L135,110C135,110.13,134.9,110.23,134.86,110.34Z"/><path class="cls-1" d="M125.71,125l.51.46.22-.26-.51-.45Z"/><path class="cls-1" d="M126.28,124.36l.52.45.22-.27-.52-.44A2.75,2.75,0,0,1,126.28,124.36Z"/><path class="cls-1" d="M126.85,123.7l.52.43.22-.26-.52-.43Z"/><path class="cls-1" d="M127.4,123l.53.42.21-.27-.53-.42Z"/><path class="cls-1" d="M133.45,113.51l.61.3.15-.31-.61-.29Z"/><path class="cls-1" d="M130.92,118.07l.58.36.18-.29-.58-.35Z"/><path class="cls-1" d="M134.53,111.14l.63.26c0-.1.08-.21.13-.32l-.63-.25C134.62,110.93,134.58,111,134.53,111.14Z"/><path class="cls-1" d="M133.06,114.29l.61.31.15-.31-.61-.3C133.16,114.09,133.12,114.19,133.06,114.29Z"/><path class="cls-1" d="M134.18,111.94l.63.27c0-.1.09-.21.13-.32l-.62-.26Z"/><path class="cls-1" d="M133.82,112.73l.62.28.15-.31-.62-.28Z"/><path class="cls-1" d="M131.82,116.59l.59.33.17-.3-.59-.33Z"/><path class="cls-1" d="M132.66,115.06l.6.32c.05-.1.11-.2.16-.31l-.6-.31Z"/><path class="cls-1" d="M131.38,117.33l.58.35.18-.29-.59-.35C131.49,117.14,131.44,117.24,131.38,117.33Z"/><path class="cls-1" d="M132.25,115.83l.59.32.17-.3-.6-.32Z"/><path class="cls-1" d="M46.83,120.27l.2.29.56-.39-.2-.28Z"/><path class="cls-1" d="M45.86,118.8l.18.29.57-.37-.18-.28Z"/><path class="cls-1" d="M45.39,118.05l.18.3.58-.36L46,117.7Z"/><path class="cls-1" d="M44.94,117.3l.18.29.58-.34-.17-.29Z"/><path class="cls-1" d="M38.69,93.25c0-.12,0-.23,0-.34H38v.35Z"/><path class="cls-1" d="M46.34,119.54l.19.29.56-.38-.18-.28Z"/><path class="cls-1" d="M43.66,115l.16.31.6-.32-.16-.3Z"/><path class="cls-1" d="M42.87,113.4l.15.32.61-.3c-.05-.1-.1-.2-.14-.3Z"/><path class="cls-1" d="M43.26,114.2l.15.31.61-.31-.15-.3Z"/><path class="cls-1" d="M44.5,116.53l.17.31.59-.34-.17-.3Z"/><path class="cls-1" d="M44.07,115.76l.17.31.59-.33-.16-.3Z"/><path class="cls-1" d="M47.33,121l.21.28.55-.4a2.83,2.83,0,0,1-.2-.28Z"/><path class="cls-1" d="M48.92,123.11l.22.27.53-.43-.22-.26Z"/><path class="cls-1" d="M51.81,126.44l.23.25.49-.47L52.3,126Z"/><path class="cls-1" d="M51.21,125.79a2.73,2.73,0,0,0,.23.25l.5-.46a2.73,2.73,0,0,1-.23-.25Z"/><path class="cls-1" d="M53,127.69a3,3,0,0,0,.25.25l.47-.49-.25-.24Z"/><path class="cls-1" d="M50.62,125.13c.08.09.15.18.23.26l.5-.45-.22-.25Z"/><path class="cls-1" d="M52.42,127.07l.24.25.48-.48-.24-.24Z"/><path class="cls-1" d="M48.38,122.41l.21.28.54-.42-.21-.27Z"/><path class="cls-1" d="M47.85,121.71l.21.28.54-.41-.2-.27Z"/><path class="cls-1" d="M42.5,112.61l.15.31.61-.28c0-.11-.1-.21-.14-.31Z"/><path class="cls-1" d="M53.67,128.31l.25.24.47-.5a2.73,2.73,0,0,1-.25-.23Z"/><path class="cls-1" d="M50,124.47c.08.08.15.18.23.26l.51-.44-.22-.26Z"/><path class="cls-1" d="M49.48,123.79l.22.27.52-.43-.22-.27Z"/><path class="cls-1" d="M39.25,99.35c0-.12,0-.23,0-.34l-.67.09c0,.12,0,.24,0,.35Z"/><path class="cls-1" d="M39,97.62c0-.11,0-.23,0-.34l-.68.07c0,.12,0,.23,0,.35Z"/><path class="cls-1" d="M39.12,98.48c0-.11,0-.22,0-.33l-.68.08c0,.12,0,.23.05.35Z"/><path class="cls-1" d="M38.81,100.85c0,.11,0,.22.07.34l.67-.13c0-.11,0-.22-.07-.33Z"/><path class="cls-1" d="M90,141.61h-.34l0,.68H90Z"/><path class="cls-1" d="M39,101.71a3.4,3.4,0,0,0,.07.34l.66-.13c0-.11,0-.23-.07-.34Z"/><path class="cls-1" d="M38.92,96.75l0-.34-.68.07,0,.34Z"/><path class="cls-1" d="M38.73,94.12c0-.12,0-.23,0-.35l-.68,0c0,.12,0,.23,0,.35Z"/><path class="cls-1" d="M38.78,95l0-.34-.67,0c0,.12,0,.23,0,.35Z"/><path class="cls-1" d="M38.84,95.89l0-.38-.68,0c0,.13,0,.26,0,.38Z"/><path class="cls-1" d="M40.85,108.51l.12.33.64-.23-.12-.32Z"/><path class="cls-1" d="M42.14,111.8c0,.1.09.21.14.31l.62-.27c0-.1-.09-.21-.14-.31Z"/><path class="cls-1" d="M40.56,107.68l.12.33.64-.22c0-.11-.07-.22-.11-.32Z"/><path class="cls-1" d="M40.29,106.84c0,.11.08.22.11.33l.65-.21a3,3,0,0,1-.11-.32Z"/><path class="cls-1" d="M41.47,110.17c0,.11.08.21.13.32l.63-.25c0-.11-.09-.21-.13-.32Z"/><path class="cls-1" d="M41.15,109.34l.13.33.63-.24-.12-.32Z"/><path class="cls-1" d="M39.36,103.44c0,.11,0,.22.08.34l.66-.17c0-.11-.06-.22-.08-.33Z"/><path class="cls-1" d="M39.57,104.3l.09.33.65-.17c0-.11-.06-.22-.08-.33Z"/><path class="cls-1" d="M40,106c0,.11.06.22.1.33l.65-.2c0-.11-.07-.22-.1-.32Z"/><path class="cls-1" d="M39.16,102.58c0,.11.05.22.08.34l.66-.15c0-.12,0-.23-.07-.34Z"/><path class="cls-1" d="M39.8,105.15l.09.33.65-.18-.09-.33Z"/><path class="cls-1" d="M39.39,100.21l-.06-.34-.67.11.06.34Z"/><path class="cls-1" d="M76.74,140.21l-.17.66.34.08.16-.66Z"/><path class="cls-1" d="M76.22,140.09l-.33-.09-.17.66.34.08Z"/><path class="cls-1" d="M77.58,140.41l-.15.66.34.08.14-.67Z"/><path class="cls-1" d="M78.43,140.6l-.14.66.34.07.13-.67Z"/><path class="cls-1" d="M79.28,140.76l-.12.67.34.07.12-.67Z"/><path class="cls-1" d="M74.55,139.63l-.33-.1-.19.65.33.1Z"/><path class="cls-1" d="M75.38,139.86l-.33-.09-.18.66.33.09Z"/><path class="cls-1" d="M72.89,139.11l-.33-.11-.21.64.33.11Z"/><path class="cls-1" d="M71.52,139.35l.32.12.23-.64-.33-.12Z"/><path class="cls-1" d="M73.71,139.38l-.32-.11-.21.65.33.1Z"/><path class="cls-1" d="M80.14,140.92l-.12.67.34,0,.11-.67Z"/><path class="cls-1" d="M86.52,141.59l-.34,0,0,.68h.34Z"/><path class="cls-1" d="M87.39,141.62h-.34l0,.68h.34Z"/><path class="cls-1" d="M54.31,128.91l.26.24.45-.5-.25-.24Z"/><path class="cls-1" d="M85.65,141.55l-.34,0,0,.68.34,0Z"/><path class="cls-1" d="M89.11,141.63h-.33v.68h.32Z"/><path class="cls-1" d="M88.26,141.63h-.34v.67h.34Z"/><path class="cls-1" d="M70.93,138.41l-.24.64.32.12.24-.64Z"/><path class="cls-1" d="M82.72,141.29l-.08.67.34,0,.08-.67Z"/><path class="cls-1" d="M81.86,141.18l-.1.67.35.05.08-.67Z"/><path class="cls-1" d="M84.39,142.14l.34,0,0-.68-.33,0Z"/><path class="cls-1" d="M83.58,141.38l-.07.68.35,0,.06-.67Z"/><path class="cls-1" d="M81,141.06l-.1.67.34.05.1-.67Z"/><path class="cls-1" d="M59.48,132.26l-.39.55.28.2.39-.55Z"/><path class="cls-1" d="M58.78,131.74l-.4.55.27.2.41-.55A2.83,2.83,0,0,1,58.78,131.74Z"/><path class="cls-1" d="M59.81,133.31l.28.2.38-.56-.28-.19Z"/><path class="cls-1" d="M61.19,133.43l-.28-.18-.38.56.29.19Z"/><path class="cls-1" d="M58.09,131.22l-.42.53L58,132l.41-.53Z"/><path class="cls-1" d="M56.3,130.65l.27.22.43-.52-.27-.22Z"/><path class="cls-1" d="M57,131.21l.27.22.42-.54-.26-.21Z"/><path class="cls-1" d="M55,129.5l.26.23.44-.51-.25-.22Z"/><path class="cls-1" d="M55.63,130.08l.26.23.44-.52-.26-.22Z"/><path class="cls-1" d="M61.27,134.3l.29.18.36-.57-.28-.18Z"/><path class="cls-1" d="M65.39,135.91l-.32.6.31.17.31-.61Z"/><path class="cls-1" d="M67.73,137.07l-.29.61.32.15.27-.62Z"/><path class="cls-1" d="M66.94,136.7l-.3.61.32.15.29-.62Z"/><path class="cls-1" d="M66.16,136.31l-.3.61.31.15.3-.61Z"/><path class="cls-1" d="M68.52,137.42l-.28.63.32.13.27-.62Z"/><path class="cls-1" d="M69.31,137.77l-.26.62.32.14.26-.63Z"/><path class="cls-1" d="M62.77,135.22l.3.18.34-.59-.3-.17Z"/><path class="cls-1" d="M70.12,138.1l-.25.63.32.12.25-.63Z"/><path class="cls-1" d="M63.86,135.08l-.33.59.3.17.33-.6Z"/><path class="cls-1" d="M62.66,134.37l-.29-.18-.35.57.29.19Z"/><path class="cls-1" d="M64.62,135.5l-.32.6.3.16.32-.59Z"/><path class="cls-2" d="M48.88,26.61a75.51,75.51,0,0,1,21.75-9l-.53-2.23a78.08,78.08,0,0,0-22.4,9.3Z"/><path class="cls-1" d="M106.8,12a82.72,82.72,0,0,0-37.46.24L69.77,14a80.75,80.75,0,0,1,36.62-.23Z"/><path class="cls-1" d="M30.74,33.91c-1.56,1.56-3,3.17-4.46,4.83L27.7,40c1.39-1.62,2.83-3.2,4.36-4.72A80,80,0,0,1,47,23.48l-1-1.6A83,83,0,0,0,30.74,33.91Z"/><path class="cls-1" d="M31.3,43l1.21,1A74.33,74.33,0,0,1,50.26,28.88l-.83-1.36A76,76,0,0,0,31.3,43Z"/><path class="cls-1" d="M70.87,18.63l.37,1.54A73.64,73.64,0,0,1,105,20l.36-1.55a75.51,75.51,0,0,0-34.47.23Z"/><path class="cls-3" d="M147.81,28.63l-12.2,13a68.77,68.77,0,0,1,7.27,8L157,38.68a89,89,0,0,0-7.19-8.15Z"/><path class="cls-4" d="M145,52.5a68.55,68.55,0,0,1,5.46,9.31l16.05-7.76a85.8,85.8,0,0,0-6.87-11.73Z"/><path class="cls-5" d="M124.17,32.93a67.35,67.35,0,0,1,8.76,6.31l11.51-13.62a87.49,87.49,0,0,0-11-7.95Z"/><path class="cls-6" d="M152,65.08a68.79,68.79,0,0,1,3.4,10.25l17.29-4.25a84.44,84.44,0,0,0-4.25-12.91Z"/><path class="cls-7" d="M173.6,75.5l-17.48,3.34a69.68,69.68,0,0,1,1.14,9.65L175,87.65A87.41,87.41,0,0,0,173.6,75.5Z"/><path class="cls-2" d="M106.26,25.28a68.36,68.36,0,0,1,14.79,5.86l8.43-15.72a85.28,85.28,0,0,0-18.64-7.35Z"/><path class="cls-1" d="M14,108.41c-.12-.49-.22-1-.32-1.49l-3.35.68.33,1.56Z"/><path class="cls-1" d="M15.32,113.57l-.42-1.46-3.3.91c.14.52.29,1,.44,1.53Z"/><path class="cls-1" d="M14.6,111c-.13-.5-.25-1-.37-1.48l-3.32.79c.13.52.25,1,.39,1.55Z"/><path class="cls-1" d="M13.44,105.8c-.09-.5-.18-1-.26-1.5l-3.36.56c.08.52.18,1,.27,1.57Z"/><path class="cls-1" d="M13,103.17l-.21-1.51-3.37.44c.07.53.14,1.05.22,1.58Z"/><path class="cls-1" d="M16.13,116.12c-.17-.48-.32-1-.47-1.45l-3.27,1c.16.5.32,1,.49,1.51Z"/><path class="cls-1" d="M12.65,100.52c-.06-.5-.12-1-.16-1.51l-3.39.33c.05.52.11,1,.17,1.57Z"/><path class="cls-1" d="M22.8,130.63c-.26-.43-.51-.87-.76-1.31L19,131c.26.46.53.92.8,1.37Z"/><path class="cls-1" d="M21.48,128.32c-.25-.45-.48-.9-.72-1.35l-3.05,1.59c.24.47.49.94.75,1.4Z"/><path class="cls-1" d="M17,118.63c-.18-.48-.35-.95-.52-1.43l-3.24,1.14.54,1.49Z"/><path class="cls-1" d="M24.2,132.9c-.28-.42-.54-.85-.81-1.29l-2.93,1.8.84,1.34Z"/><path class="cls-1" d="M18,121.11c-.19-.47-.39-.94-.57-1.41L14.24,121c.2.5.39,1,.6,1.48Z"/><path class="cls-1" d="M19.08,123.55c-.21-.46-.41-.92-.62-1.39l-3.15,1.37c.21.49.43,1,.65,1.45Z"/><path class="cls-1" d="M20.24,126c-.23-.45-.45-.9-.67-1.36l-3.11,1.48c.23.48.46,1,.7,1.43Z"/><path class="cls-1" d="M98.93,170.89l1.57-.22-.5-3.36-1.51.21Z"/><path class="cls-1" d="M25.68,135.12l-.85-1.26L22,135.76c.29.44.59.88.89,1.31Z"/><path class="cls-1" d="M106,169.65l-.74-3.31-1.49.31.68,3.33C105,169.87,105.47,169.77,106,169.65Z"/><path class="cls-1" d="M12.38,97.87c0-.51-.07-1-.1-1.52l-3.39.21c0,.53.07,1,.11,1.58Z"/><path class="cls-1" d="M96.16,171.2l1.58-.17-.39-3.37-1.51.16Z"/><path class="cls-1" d="M92.19,171.47,92,168.08l-1.52.06.09,3.39Z"/><path class="cls-1" d="M118.8,165.63l-1.28-3.14-1,.39,1.24,3.16Z"/><path class="cls-1" d="M93.38,171.41,95,171.3l-.28-3.38-1.51.1Z"/><path class="cls-1" d="M103.25,170.2l-.62-3.33-1.5.26.56,3.35Z"/><path class="cls-1" d="M116.66,166.47l-1.2-3.18-1.43.53,1.13,3.2Z"/><path class="cls-1" d="M107.15,169.38c.51-.12,1-.25,1.54-.39l-.85-3.28-1.48.37Z"/><path class="cls-1" d="M12.22,95.21l-.06-1.52-3.39.08c0,.53,0,1.06.06,1.59Z"/><path class="cls-1" d="M8.75,91.74c0,.28,0,.56,0,.84l3.39,0c0-.27,0-.54,0-.8s0-.48,0-.72l-3.4,0Z"/><path class="cls-1" d="M114,167.4,113,164.19l-1.45.47,1,3.23Z"/><path class="cls-1" d="M111.37,168.25l-1-3.25-1.47.42.91,3.27Z"/><path class="cls-1" d="M48.76,157l-1.29-.8-1.85,2.9,1.35.84Z"/><path class="cls-1" d="M76.08,167.14l-1.49-.26L74,170.22l1.57.28Z"/><path class="cls-1" d="M68.27,165.42c-.49-.13-1-.27-1.46-.42l-1,3.28,1.53.44Z"/><path class="cls-1" d="M73.46,166.66,72,166.34l-.74,3.34,1.55.32Z"/><path class="cls-1" d="M70.06,169.4l.79-3.31-1.47-.37L68.52,169Z"/><path class="cls-1" d="M65.71,164.67l-1.45-.47-1.09,3.25,1.52.49Z"/><path class="cls-1" d="M60.68,162.89q-.7-.27-1.41-.57L58,165.5l1.48.59Z"/><path class="cls-1" d="M63.18,163.82l-1.43-.52-1.2,3.22,1.49.54Z"/><path class="cls-1" d="M89.4,171.54l0-3.39H87.85l0,3.4H89.4Z"/><path class="cls-1" d="M86.62,171.53l.08-3.39c-.51,0-1,0-1.52-.06L85,171.47Q85.83,171.52,86.62,171.53Z"/><path class="cls-1" d="M12.17,89.59,8.78,89.5v.29l3.39.08C12.17,89.78,12.16,89.69,12.17,89.59Z"/><path class="cls-1" d="M58.22,161.87l-1.39-.62-1.43,3.13,1.45.65Z"/><path class="cls-1" d="M27.23,137.29l-.89-1.23-2.8,2,.93,1.29Z"/><path class="cls-1" d="M84,168l-1.51-.1-.27,3.39,1.58.1Z"/><path class="cls-1" d="M81.37,167.82l-1.51-.16L79.47,171c.53.06,1.06.12,1.58.16Z"/><path class="cls-1" d="M78.28,170.9l.44-3.37-1.5-.21-.51,3.37Z"/><path class="cls-1" d="M32.34,143.44l-1-1.13-2.57,2.27c.35.4.7.79,1.06,1.18Z"/><path class="cls-1" d="M34.18,145.37c-.36-.36-.71-.72-1.06-1.09l-2.49,2.36c.36.39.73.76,1.11,1.14Z"/><path class="cls-1" d="M55.79,160.77l-1.37-.67-1.54,3.08,1.43.7Z"/><path class="cls-1" d="M28.87,139.4l-.94-1.2-2.73,2.09c.32.42.65.83,1,1.25Z"/><path class="cls-1" d="M30.57,141.45l-1-1.16-2.64,2.18c.33.41.67.81,1,1.21Z"/><path class="cls-1" d="M38.05,149l-1.13-1-2.32,2.53,1.18,1.06Z"/><path class="cls-1" d="M36.08,147.24,35,146.18l-2.41,2.45,1.14,1.1Z"/><path class="cls-1" d="M51.06,158.3l-1.32-.76-1.75,3c.46.27.91.54,1.38.8Z"/><path class="cls-1" d="M46.51,155.52l-1.26-.85-2,2.83,1.31.89Z"/><path class="cls-1" d="M53.4,159.58c-.45-.24-.9-.47-1.34-.72l-1.65,3,1.41.74Z"/><path class="cls-1" d="M40.08,150.77l-1.17-1-2.23,2.61c.41.34.81.69,1.22,1Z"/><path class="cls-1" d="M42.17,152.42l-1.2-.93-2.14,2.68,1.25,1Z"/><path class="cls-1" d="M44.31,154l-1.23-.89-2,2.76,1.29.93Z"/><path class="cls-1" d="M24.91,122.21c.58,1.21,1.2,2.41,1.86,3.59l.29-.17c-.65-1.17-1.26-2.36-1.85-3.57Z"/><path class="cls-1" d="M35.46,137.66c-.88-1-1.72-2-2.54-3.11l-.27.21c.82,1.06,1.67,2.11,2.55,3.13Z"/><path class="cls-1" d="M46.17,147.7c-1.07-.81-2.12-1.65-3.13-2.52l-.22.25c1,.88,2.07,1.72,3.14,2.54Z"/><path class="cls-1" d="M55,153.79c1.18.64,2.39,1.25,3.61,1.82l.14-.3c-1.21-.58-2.41-1.18-3.59-1.82Z"/><path class="cls-1" d="M52.06,152.12l.18-.29c-1.15-.69-2.27-1.42-3.38-2.18l-.19.28Q50.34,151.07,52.06,152.12Z"/><path class="cls-1" d="M40.32,143.2l.23-.24c-1-.92-1.93-1.86-2.85-2.83l-.25.23C38.38,141.34,39.34,142.28,40.32,143.2Z"/><path class="cls-1" d="M61.63,157c1.24.51,2.5,1,3.77,1.44l.11-.33c-1.27-.44-2.52-.91-3.76-1.43Z"/><path class="cls-2" d="M140,140l-.25-.23c-.92,1-1.86,1.93-2.84,2.85l.24.24C138.14,142,139.09,141,140,140Z"/><path class="cls-2" d="M156.38,110.11c-.14.53-.29,1-.45,1.57l.33.09.45-1.57Z"/><path class="cls-1" d="M18.24,97.72l.34,0c-.11-1.33-.19-2.66-.23-4H18C18.05,95,18.13,96.39,18.24,97.72Z"/><path class="cls-1" d="M23.84,119c-.52-1.24-1-2.49-1.45-3.75l-.32.11c.45,1.27.94,2.53,1.46,3.77Z"/><path class="cls-1" d="M21.34,112.11c-.39-1.27-.74-2.57-1.05-3.88l-.33.08c.31,1.32.67,2.62,1.06,3.9Z"/><path class="cls-1" d="M19.58,105c-.25-1.31-.47-2.64-.64-4l-.34,0c.18,1.34.4,2.67.65,4Z"/><path class="cls-2" d="M115.79,156.47c-1.23.52-2.48,1-3.74,1.45l.11.32c1.27-.45,2.53-.94,3.77-1.46Z"/><path class="cls-2" d="M144.79,134.41l-.27-.2c-.82,1.06-1.66,2.11-2.53,3.12l.26.22C143.12,136.53,144,135.48,144.79,134.41Z"/><path class="cls-1" d="M72.57,160.14c-1.31-.31-2.61-.66-3.89-1l-.09.32c1.28.38,2.58.73,3.9,1Z"/><path class="cls-2" d="M128.84,149.67l-.19-.28c-1.1.77-2.22,1.5-3.37,2.2l.18.29C126.61,151.17,127.74,150.44,128.84,149.67Z"/><path class="cls-2" d="M148.94,128.31l-.29-.18c-.69,1.15-1.42,2.28-2.18,3.38l.28.19Q147.89,130,148.94,128.31Z"/><path class="cls-1" d="M18,90.34h.34c0-.27,0-.54,0-.8H18C18,89.8,18,90.07,18,90.34Z"/><path class="cls-2" d="M154.91,114.85c-.44,1.27-.92,2.52-1.43,3.76l.32.13c.51-1.24,1-2.5,1.43-3.78Z"/><path class="cls-2" d="M152.44,121.8l-.31-.15c-.57,1.22-1.17,2.42-1.81,3.59l.29.17C151.25,124.23,151.86,123,152.44,121.8Z"/><path class="cls-2" d="M134.68,145.15l-.22-.26c-1,.88-2.06,1.72-3.12,2.54l.2.27C132.61,146.88,133.66,146,134.68,145.15Z"/><path class="cls-2" d="M122.57,153.56l-.16-.3c-1.18.65-2.37,1.26-3.58,1.84l.15.31C120.19,154.83,121.39,154.21,122.57,153.56Z"/><path class="cls-1" d="M79.8,161.43c-1.34-.17-2.66-.37-4-.61l-.06.33c1.31.24,2.64.45,4,.62Z"/><path class="cls-1" d="M87.13,162c-1.35,0-2.69-.09-4-.19l0,.33c1.33.11,2.68.17,4,.2Z"/><path class="cls-2" d="M108.89,159c-1.28.38-2.58.73-3.88,1.05l.07.33c1.32-.32,2.62-.67,3.9-1.06Z"/><path class="cls-2" d="M96.45,156.83a4.94,4.94,0,1,0,4.93,4.94A4.94,4.94,0,0,0,96.45,156.83Zm0,9.53a4.6,4.6,0,1,1,4.59-4.59A4.6,4.6,0,0,1,96.45,166.36Z"/><path class="cls-1" d="M59.32,109.5a35.27,35.27,0,0,1-2.07-4L56,106.1a35.47,35.47,0,0,0,2.15,4.1Z"/><path class="cls-1" d="M61.34,112.45c-.49-.64-1-1.3-1.4-2l-1.13.75c.46.7.94,1.39,1.45,2Z"/><path class="cls-1" d="M55.63,101.07c-.22-.77-.41-1.54-.57-2.33L53.73,99c.17.81.37,1.62.59,2.41Z"/><path class="cls-1" d="M63.65,115.18c-.55-.59-1.08-1.19-1.6-1.82l-1,.87c.53.64,1.08,1.27,1.66,1.88Z"/><path class="cls-1" d="M60.61,69.75l1.06.83a35,35,0,0,1,4.09-4.34l-.91-1A35.56,35.56,0,0,0,60.61,69.75Z"/><path class="cls-1" d="M53,91.74c0,.79,0,1.58.08,2.36L54.41,94c0-.75-.07-1.51-.07-2.27v-.12H53Z"/><path class="cls-1" d="M59,74.53l-1.18-.68a36.48,36.48,0,0,0-2.65,5.61l1.28.46A33.65,33.65,0,0,1,59,74.53Z"/><path class="cls-1" d="M55.11,84.51l-1.33-.29c-.17.81-.32,1.62-.44,2.45l1.35.19C54.8,86.07,54.94,85.28,55.11,84.51Z"/><path class="cls-1" d="M78.32,125.81l.39-1.29c-.78-.24-1.54-.5-2.3-.79L75.94,125C76.72,125.3,77.52,125.57,78.32,125.81Z"/><path class="cls-1" d="M68.77,62.18l.75,1.13a35,35,0,0,1,5.23-2.89l-.55-1.24A36.26,36.26,0,0,0,68.77,62.18Z"/><path class="cls-1" d="M78.87,57.5l.37,1.3a34.22,34.22,0,1,1,.58,66l-.33,1.31a35.59,35.59,0,1,0-.62-68.64Z"/><path class="cls-1" d="M72.12,121.74c-.72-.39-1.41-.8-2.09-1.24l-.72,1.14c.7.46,1.42.89,2.15,1.29Z"/><path class="cls-1" d="M69.07,119.85c-.66-.46-1.31-.94-1.94-1.45l-.84,1.06c.65.53,1.32,1,2,1.51Z"/><path class="cls-1" d="M66.24,117.66c-.61-.53-1.21-1.08-1.78-1.65l-.95,1c.6.59,1.21,1.16,1.84,1.71Z"/><path class="cls-1" d="M75.34,123.3c-.75-.31-1.48-.65-2.21-1l-.6,1.22q1.13.57,2.28,1Z"/><path class="cls-2" d="M60.62,77.05l2.1,1.11a29.93,29.93,0,0,1,2.34-3.73L63.15,73A31.8,31.8,0,0,0,60.62,77.05Z"/><path class="cls-5" d="M57.32,87.14A33.86,33.86,0,0,0,57,90.8l2.38.07a31.43,31.43,0,0,1,.29-3.38Z"/><path class="cls-1" d="M71.72,65l1.26,2a29,29,0,0,1,4.84-2.47L77,62.37A31.38,31.38,0,0,0,71.72,65Z"/><path class="cls-8" d="M68.4,112.82c-.33-.31-.65-.63-1-.95l-1.73,1.64c.34.35.69.7,1,1Z"/><path class="cls-1" d="M65,70.73l1.77,1.59a29.55,29.55,0,0,1,4-3.7L69.3,66.73A31.87,31.87,0,0,0,65,70.73Z"/><path class="cls-1" d="M86.6,60.22a31.76,31.76,0,0,0-6.87,1.2l.67,2.28a28.9,28.9,0,0,1,6.35-1.1Z"/><path class="cls-9" d="M59.84,97a28.72,28.72,0,0,1-.41-3.37l-2.38.15a33.5,33.5,0,0,0,.44,3.64Z"/><path class="cls-1" d="M89.55,60.18l-.07,2.38a29.22,29.22,0,0,1,6.38.9l.59-2.3A31.38,31.38,0,0,0,89.55,60.18Z"/><path class="cls-10" d="M57.88,84.26l2.32.56a29.71,29.71,0,0,1,1.36-4.19l-2.19-.91A31.73,31.73,0,0,0,57.88,84.26Z"/><path class="cls-1" d="M119.41,98.5,117.08,98a28.37,28.37,0,0,1-1.3,4.32l2.22.86A31.53,31.53,0,0,0,119.41,98.5Z"/><path class="cls-1" d="M99.27,62l-.81,2.23A29.27,29.27,0,0,1,117.7,89.87l2.37-.16A31.63,31.63,0,0,0,99.27,62Z"/><path class="cls-7" d="M72.93,116.38l-1.28,2,.31.19,1.25-2Z"/><path class="cls-1" d="M107.43,117l-1.42-1.9a29.11,29.11,0,0,1-30.43,2.74L74.52,120a31.52,31.52,0,0,0,32.91-3Z"/><path class="cls-4" d="M65.66,109.82l-.82-1.08-1.93,1.38c.28.4.58.79.88,1.17Z"/><path class="cls-11" d="M63.36,106.46c-.4-.68-.78-1.38-1.12-2.09l-2.14,1c.37.78.77,1.53,1.21,2.27Z"/><path class="cls-6" d="M70.71,114.82l-.27-.21L69,116.47l.29.23Z"/><path class="cls-3" d="M61.18,101.87c-.28-.74-.52-1.5-.73-2.26l-2.3.64c.24.82.5,1.64.8,2.44Z"/><path class="cls-2" d="M88.56,129.24a37.51,37.51,0,1,1,9.18-73.87l.08-.33A37.84,37.84,0,1,0,124,105.13l-.32-.13A37.57,37.57,0,0,1,88.56,129.24Z"/><path class="cls-2" d="M99.35,78.48a17.07,17.07,0,0,0-21.57,0H99.35Z"/><path class="cls-2" d="M99.55,104.37h.52a17.07,17.07,0,0,0,0-25.27h-.52a16.72,16.72,0,0,1,0,25.27Z"/><path class="cls-2" d="M98.8,105h-21a17.07,17.07,0,0,0,21.57,0Z"/><path class="cls-2" d="M77.06,104.37h.52a16.72,16.72,0,0,1,0-25.27h-.52a17.07,17.07,0,0,0,0,25.27Z"/></g></g></svg>