<svg xmlns="http://www.w3.org/2000/svg" viewBox="0 0 31.06 28.28"><defs><style>.cls-1{fill:#69bffe;}</style></defs><title>资源 9</title><g id="图层_2" data-name="图层 2"><g id="央铋_1" data-name="央铋 1"><path class="cls-1" d="M6.67,28.28c-.2-.14-.4-.28-.59-.43l4.69-6.1.3.22Z"/><path class="cls-1" d="M5,26.92c-.36-.33-.69-.67-1-1l5.73-5.14c.17.19.34.36.52.53ZM3.05,24.77q-.44-.59-.81-1.2l6.58-4c.13.21.27.41.41.61Zm-1.5-2.48Q1.24,21.65,1,21l7.21-2.7c.08.23.18.45.28.67Zm-1-2.71c-.13-.46-.23-.93-.32-1.41l7.59-1.31c0,.25.09.48.15.71ZM.05,16.73c0-.4,0-.8,0-1.2v-.25l7.7.13v.12c0,.2,0,.41,0,.61Zm7.69-2.06L.09,13.85c.05-.48.13-1,.22-1.43L7.85,14C7.8,14.19,7.77,14.43,7.74,14.67Zm15.55-.27a5.57,5.57,0,0,0-.14-.71l7.49-1.8c.11.47.2.95.27,1.43ZM8,13.24.67,11c.14-.46.3-.92.48-1.36l7.12,2.91C8.18,12.78,8.1,13,8,13.24ZM23,13c-.08-.23-.17-.46-.27-.68l7-3.16a13,13,0,0,1,.53,1.35ZM8.58,11.9,1.77,8.33A12,12,0,0,1,2.5,7.08L9,11.27A6.5,6.5,0,0,0,8.58,11.9Zm13.77-.24c-.12-.21-.25-.42-.39-.62l6.31-4.4A13.11,13.11,0,0,1,29,7.86Zm-13-1-6-4.77c.3-.37.62-.74,1-1.09l5.57,5.31C9.69,10.3,9.53,10.48,9.38,10.67Zm12.14-.2c-.16-.19-.33-.37-.5-.54l5.39-5.5c.34.34.67.69,1,1.06ZM10.39,9.61,5.33,3.81q.55-.48,1.14-.9L11,9.16A6.26,6.26,0,0,0,10.39,9.61Zm10.08-.17A6.46,6.46,0,0,0,19.88,9l4.28-6.39c.4.27.79.56,1.17.86Zm-8.9-.68L7.68,2.12c.42-.24.85-.47,1.28-.67l3.26,7C12,8.52,11.78,8.64,11.57,8.76Zm7.69-.13a6.65,6.65,0,0,0-.66-.32l3-7.08c.44.19.88.4,1.3.63Zm-6.37-.49L10.3.9c.45-.16.92-.31,1.39-.43l1.9,7.46C13.35,8,13.12,8.06,12.89,8.14Zm5-.08a5.71,5.71,0,0,0-.71-.19L18.86.35c.47.1.94.23,1.39.37ZM14.3,7.78,13.11.18c.48-.07,1-.13,1.44-.16L15,7.7Zm2.2,0c-.24,0-.49,0-.74-.06L16,0a14,14,0,0,1,1.44.11Z"/><path class="cls-1" d="M31.06,15.53H23.37c0-.13,0-.25,0-.37l7.69-.37C31.06,15,31.06,15.28,31.06,15.53Z"/></g></g></svg>