<svg xmlns="http://www.w3.org/2000/svg" viewBox="0 0 74.33 18.97"><defs><style>.cls-1{fill:#00b8de;}.cls-2{fill:#ff7000;}</style></defs><title>资源 12</title><g id="图层_2" data-name="图层 2"><g id="Layer_1" data-name="Layer 1"><rect class="cls-1" y="1.23" width="74.33" height="0.31"/><rect class="cls-1" width="52.18" height="2.77"/><rect class="cls-1" y="5.29" width="74.33" height="0.31"/><rect class="cls-1" y="9.34" width="74.33" height="0.31"/><rect class="cls-1" y="13.37" width="74.33" height="0.31"/><rect class="cls-1" y="17.43" width="74.33" height="0.31"/><rect class="cls-1" y="4.06" width="26.5" height="2.77"/><rect class="cls-1" y="8.11" width="36.12" height="2.75"/><rect class="cls-1" y="12.17" width="24.81" height="2.75"/><rect class="cls-1" y="16.2" width="10.45" height="2.77"/><rect class="cls-2" x="26.44" y="12.17" width="3.04" height="2.75"/><rect class="cls-1" x="31.6" y="12.17" width="0.97" height="2.75"/><rect class="cls-1" x="37.75" y="8.11" width="5.13" height="2.75"/><rect class="cls-2" x="47.15" y="8.11" width="2.4" height="2.75"/><rect class="cls-1" x="53.12" y="8.11" width="0.45" height="2.75"/><rect class="cls-2" x="28.06" y="4.06" width="0.85" height="2.77"/><rect class="cls-1" x="32.47" y="4.06" width="3.53" height="2.77"/><rect class="cls-1" x="39.03" y="4.06" width="5.92" height="2.77"/><rect class="cls-1" x="53.8" width="5.91" height="2.77"/><rect class="cls-2" x="61.52" width="0.72" height="2.77"/><rect class="cls-1" x="12.84" y="16.2" width="15.46" height="2.77"/><rect class="cls-1" x="30.39" y="16.2" width="0.9" height="2.77"/><rect class="cls-1" x="33.97" y="16.2" width="4.27" height="2.77"/><rect class="cls-2" x="39.83" y="16.2" width="0.8" height="2.77"/></g></g></svg>