<svg xmlns="http://www.w3.org/2000/svg" viewBox="0 0 510.26 534.61"><defs><style>.cls-1{opacity:0.8;}.cls-2{fill:#5fffe8;}</style></defs><title>资源 13</title><g id="图层_2" data-name="图层 2"><g id="央铋_1" data-name="央铋 1"><g class="cls-1"><path class="cls-2" d="M397.38,339.2s2.72-8.79,4.62-17.79c.78-4.54,1.75-9,2.08-12.48s.73-5.7.73-5.7-1.36-1.9-2.73-3.74l-2.74-3.63s.14-1.18.22-3.27.12-5.09.21-8.68a201.66,201.66,0,0,0-2-26.2A195.66,195.66,0,0,0,392,232.16L389.29,224c-.69-2-1.17-3.06-1.17-3.06l-6.15-3s-.32-.89-1-2.37-1.64-3.65-2.8-6.22a180.73,180.73,0,0,0-22.29-34.82l-4.48-5.16c-1.06-1.27-1.73-1.94-1.73-1.94l-.22-7.93c-.06-2-.25-4-.39-5.52s-.23-2.52-.23-2.52a172.74,172.74,0,0,0-15.86-13.51c-4.2-3.09-8.44-6.13-11.78-8.16-1.65-1.05-3-2-4-2.54l-1.55-.89s-.47-1.35-1.19-3.37-1.71-4.83-2.87-7.46-2.37-5.4-3.26-7.43-1.62-3.35-1.62-3.35L304,103.49c-1.69-.74-4.05-1.93-7-3s-6.35-2.6-10.13-3.78l-5.77-2L275.07,93c-4-1.26-8.2-2-12-2.94l-10.63-1.92-7.59-1c-1.83-.26-2.88-.33-2.88-.33s-5.06,3.36-9.72,6.75c-4.72,3.63-9.05,7.24-9.05,7.24s-.88,0-2.54,0l-7.16.18a189.6,189.6,0,0,0-25.32,3.05c-20.7,3.81-47.76,13.42-70.7,30a185.87,185.87,0,0,0-30.92,27.34,188,188,0,0,0-21.37,29,191.7,191.7,0,0,0-11.5,22.72c-1.13,2.86-2,5.11-2.61,6.64s-.88,2.37-.88,2.37,1.78,4.48,3.62,8.68,4.07,8.31,4.07,8.31-.19.69-.54,1.88-.68,2.94-1.17,5-1,4.49-1.46,7.13-1,5.4-1.3,8.24c-.82,5.63-1.16,11.33-1.37,15.59s-.19,7.14-.19,7.14H67.39s0-1.5.12-3.75.1-5.24.4-8.21c.13-1.48.19-3,.34-4.37s.35-2.67.5-3.78l.45-3.69-3.62-5.14-2.5-3.69c-.62-1-1-1.69-1-1.69s.38-1.61.94-4,1.47-5.6,2.34-8.78,2.1-6.28,2.83-8.65,1.49-3.85,1.49-3.85-.89-2.22-1.79-4.44c-.47-1.13-.86-2.26-1.15-3.1l-.48-1.42s1.09-2.37,2.71-5.93l3-5.95c1.13-2.16,2.51-4.38,3.78-6.66,2.7-4.47,5.54-8.86,7.87-12s3.9-5.24,3.9-5.24l4.33-.67c2.12-.33,4.3-.54,4.3-.54s1.59-1.85,4-4.61,5.78-6.26,9.38-9.55a181.11,181.11,0,0,1,14.89-12.54l6.82,1c3.31.49,6.64,1.3,6.64,1.3l4.16-2.7c2.76-1.54,6.61-3.9,11.47-6.27a155.79,155.79,0,0,1,37.3-12.95,163.42,163.42,0,0,1,39.58-3.05l7.38.56c2.19.2,4.08.52,5.66.69a46.38,46.38,0,0,1,4.9.73L253,128c2.37-1.68,4.8-3.1,4.8-3.1l5.77,1.34c3.41,1,8,2.19,12.45,3.81a180.94,180.94,0,0,1,17.51,7.2l1.84,5.46,1.16,3.69c.32,1,.49,1.69.49,1.69l2.9,1.69,3.34,1.92,4.2,2.7A157.47,157.47,0,0,1,346.51,191c2.13,3,3.94,5.45,5.12,7.23l1.8,2.84,5,1.11,4.9,1.34A133.89,133.89,0,0,1,370.7,218a162.74,162.74,0,0,1,10.91,34,168.09,168.09,0,0,1,3.1,35.72A136.71,136.71,0,0,1,383.55,304l-4,3.15c-1,.77-2,1.51-2.81,2.06l-1.31.9-.58,3.27c-.28,2.1-1.1,5-1.86,8.55A160.6,160.6,0,0,1,364.33,347a156.55,156.55,0,0,1-12.79,23.28c-2.08,3-3.83,5.45-5.09,7.16L344.38,380l13,10.22,1.32-1.67c.87-1,2-2.59,3.33-4.5s3-4.06,4.48-6.54,3.26-5,4.74-7.74l2.3-4c.69-1.35,1.37-2.68,2-4,1.38-2.55,2.49-5,3.42-7.13,2-4.19,3-7.11,3-7.11s1-.46,2.42-1.18,3.47-1.69,5.32-2.77C393.5,341.53,397.38,339.2,397.38,339.2Z"/><path class="cls-2" d="M247.8,510.91s-.94.14-2.61.29l-6.9.53c-2.86.27-6.2.39-9.78.45s-7.4.19-11.21,0a242.89,242.89,0,0,1-30.44-2.66l-4.8-4.77c-1.15-1.19-2.31-2.37-3.18-3.26s-1.41-1.51-1.41-1.51l-7.24-1.67c-2.19-.46-4.69-1.17-7.37-1.94s-5.56-1.49-8.36-2.51a201.87,201.87,0,0,1-22.17-8.56l-3.14.62-1.28-.58c-.82-.37-2-.89-3.36-1.61-2.72-1.44-6.45-3.18-10-5.25-7.21-3.95-14-8.51-14-8.51L99.36,467l-9.07-6.46-6-4.72c-1.65-1.28-2.71-2.19-2.71-2.19l-4.49,5.39s.23,1,.65,2.31,1,3.21,1.56,5l1.65,5.11c.46,1.41.8,2.31.8,2.31L87.6,478c2.89,2.13,6,4,6,4l5.85-.13s2.81,1.82,5.73,3.45l5.81,3.33s1,1.91,2,3.82l2.13,3.82,3.45,1.76c2.08,1,4.93,2.27,7.75,3.56s5.68,2.47,7.85,3.31l3.61,1.42,2.15,3,2.25,2.93,5,1.68c3,1.08,7,2.18,11.05,3.32s8.14,2.07,11.2,2.79,5.12,1.15,5.12,1.15l5.16,5.29,3.68,3.65c1,1,1.71,1.63,1.71,1.63l6.23.8c1.87.23,4,.54,6.38.77L205,534c5,.46,10,.45,13.77.58s6.27,0,6.27,0l5-4.42,4.88-4.43,5.63-.42c3.39-.23,7.9-.59,12.39-1.24l6.59-.86,5.72-1,5.57-1,2.44-2.49,9.49-2.21,9.38-2.66s1.55-1.79,3-3.71,2.91-3.77,2.91-3.77a238.15,238.15,0,0,0,25.69-10.43c6.21-3.07,12.36-6.29,16.82-9,2.25-1.29,4.13-2.37,5.39-3.22l2-1.29,6.49.11c3.27,0,6.51-.13,6.51-.13l5.82-4.15c3.35-2.65,8-6,12.25-9.81,2.16-1.87,4.31-3.75,6.33-5.51l5.3-5c3.13-2.92,5-5,5-5l6.1,1,6.18.91s.65-.64,1.69-1.85l4.33-5c1.81-2,3.85-4.49,5.93-7.2s4.42-5.51,6.48-8.52c4.33-5.86,8.25-12,11.16-16.64l4.59-7.88s-.15-4.77-.65-9.52-1-9.33-1-9.33l4.72-10.45c2.11-5.33,4.21-10.66,4.21-10.66s-.36-1.5-.73-3l-.76-3,1.67-5c1-3,2.08-7.05,3.25-11.09s2-8.17,2.7-11.22c.36-1.53.64-2.82.78-3.73s.26-1.42.26-1.42l-3.19-7.28.45-2.65c.2-1.61.48-3.75.75-5.88s.53-4.28.72-5.89.21-2.68.21-2.68l4.32-5.5c2.21-2.79,4.19-5.69,4.19-5.69l.14-5.34-21.4-.37s0,3.31-.26,8.28-.81,11.59-1.78,18.15c-.35,3.31-1,6.56-1.55,9.62s-1.09,5.92-1.69,8.34l-1.36,5.86a20.94,20.94,0,0,1-.57,2.21l1.63,4.54s-.69,2.65-1.92,6.57-3,9.12-5.07,14.18c-1.91,5.14-4.28,10.08-5.95,13.82-.82,1.89-1.68,3.37-2.2,4.45s-.86,1.68-.86,1.68.16,1.16.41,2.89.56,4.11.73,6.44c.37,4.76.73,9.52.73,9.52s-.28.54-.85,1.43-1.39,2.16-2.37,3.69L416.61,415c-1.32,1.85-2.72,3.82-4.11,5.8-2.73,4-5.85,7.71-8.07,10.59-1.1,1.44-2.09,2.58-2.79,3.38L400.55,436l-3.65,1c-2.18.57-5,1.33-8,1.91l-8,1.58c-2.13.42-3.61.6-3.61.6l-4.24,4c-2.65,2.63-6.73,6.07-11.62,10.18a220.8,220.8,0,0,1-39.26,25.49,217.38,217.38,0,0,1-43.75,16.67c-6.22,1.49-11.4,2.78-15.09,3.34l-5.77,1-1.47,1.48-3.34,3.1Z"/><path class="cls-2" d="M16.85,290.47s0,4,.39,8.06c.15,2,.31,4,.43,5.54a24.19,24.19,0,0,0,.25,2.51l3.34,3.36s.26,2.06.66,5.13c.57,3.05,1.2,7.15,2.06,11.19,1.7,8.11,4.09,16,4.09,16l-3.79-2.79.9,3.18c.49,1.93,1.34,4.44,2.2,6.94,1.6,5,3.63,9.93,3.62,9.94s3,1.78,5.89,3.43l6,3.14s1.82,4.15,3.95,8.14,4.33,8,4.33,8l-.94,6.46,4.87,7.58,5.33,7.55c2,2.71,4.29,5.5,6.5,8.35,2.36,2.72,4.69,5.48,7,8l6.39,6.68L86.82,433s.3,1.73.65,3.47l.7,3.5A190.84,190.84,0,0,0,105,453.08c2.14,1.59,4.4,3,6.51,4.35s4,2.66,5.79,3.61l5.77,3.32s1,2,2.15,3.81l2.25,3.79,1.48.75c.94.48,2.26,1.2,3.92,1.91,3.3,1.47,7.63,3.57,12.15,5.24,8.92,3.63,18.2,6.27,18.2,6.27l7.19-2.83s5.23,1.36,13.18,2.95a214.64,214.64,0,0,0,29.5,3.48,227.42,227.42,0,0,0,29.71-.76c4-.44,7.38-.92,9.73-1.2,1.17-.13,2.09-.3,2.71-.42l1-.17,2.28-2.5,2.49-.44c1.51-.24,3.5-.63,5.47-1.13l5.43-1.25c1.49-.32,2.46-.62,2.46-.62l2.35-3.17a184.44,184.44,0,0,0,21.7-7.41,222.49,222.49,0,0,0,20.73-9.81l7.19,1s8.18-4.68,15.78-10.23c3.9-2.64,7.5-5.68,10.3-7.82s4.49-3.81,4.49-3.81l-5.43-6.28s-2.07.06-4.14.14-4.14,0-4.14,0l-3.37,2.65c-2,1.65-4.82,3.58-7.6,5.58s-5.74,3.75-7.87,5.19-3.65,2.24-3.65,2.24l-3.53-1.22L313.67,447s-2.28,1.37-5.86,3.13-8.35,4.07-13.22,6.21a190.51,190.51,0,0,1-20,7L272.1,467l-1.75,2.52-.82,1.09-3.77.86c-2.25.54-5.27,1.25-8.34,1.73s-6.08,1.13-8.39,1.35l-3.85.49-2.52,2.63-2.61,2.51-7.53.56c-4.53.1-10.57.37-16.6.08a218.58,218.58,0,0,1-24-2.2l-4.78-5.51-1.35-.24c-.86-.15-2.09-.34-3.54-.71-2.89-.75-6.83-1.41-10.63-2.61s-7.67-2.17-10.47-3.2l-4.72-1.59-.92-3.74c-.43-1.86-.85-3.71-.85-3.71a169.38,169.38,0,0,1-17.76-8.07c-2.2-1.07-4.33-2.26-6.3-3.43s-3.86-2.15-5.39-3.16l-5.14-3.3s-2.45.35-4.85.52l-4.89.36a164.29,164.29,0,0,1-14.5-11.53,190.65,190.65,0,0,1-48.29-64.89,162,162,0,0,1-6.85-17.17l-3.51-2.21c-1.78-1.12-3.51-2.3-3.51-2.3s-.78-2.74-1.94-6.85c-.65-2-1.1-4.49-1.73-7.08s-1.24-5.38-1.69-8.2c-1.12-5.58-1.69-11.26-2.27-15.49-.32-4.26-.54-7.11-.54-7.11l2.37-3.4,2.54-3.32-.17-6.56H21.53Z"/><path class="cls-2" d="M66.78,160.23l1.9-2.41L74,151.7c2.17-2.55,5-5.28,7.81-8.34,3.08-2.83,6.16-6.07,9.61-8.91a203.76,203.76,0,0,1,19.36-15l6.79-4.39c1.63-1.07,2.6-1.62,2.6-1.62l2.72-6.75,2.44-1.41,6.62-3.4a221.09,221.09,0,0,1,20.71-9,219.69,219.69,0,0,1,21.61-6.5l7.25-1.68,2.78-.49,6.43,3.43s1.41-.29,3.56-.53l7.87-1,7.9-.59c2.16-.2,3.6-.21,3.6-.21l-.94-21.39s-.86,0-2.37.11l-6.24.47c-2.59.15-5.59.45-8.8.91s-6.65.79-10,1.47c-6.83,1.08-13.54,2.73-18.58,4l-8.31,2.35-1.17,1.5-2.46,3.43-3.45,4.94s-1.1.32-2.95,1l-7.68,3c-3.15,1.3-6.74,3-10.64,4.75-3.77,2-7.92,3.89-11.82,6.22l-5.89,3.39L106.73,105c-3.64,2.23-6.82,4.63-9.61,6.59s-5,3.79-6.56,5l-2.46,1.93-1.9.07-4.11.3-6.09.55s-1.57,1.29-3.75,3.42-5.23,4.83-8,7.83-5.62,5.87-7.57,8.22l-3.33,3.84s-1.85.41-4.53,1.2-6.34,1.83-10,3-7.23,2.56-10,3.6-4.56,1.8-4.56,1.8l-4.48,7c-1.36,2.08-2.73,4.65-4.3,7.33s-3.16,5.59-4.64,8.56c-3.14,5.85-5.73,12-7.78,16.51l-3,7.72s.52,1.72,1.29,4.31,2,6,3.23,9.33,2.55,6.59,3.58,9l1.72,4,10.33,2.81s.3-1.07.83-2.93,1.25-4.54,2.37-7.67,2.26-6.83,3.86-10.67c1.44-3.9,3.25-7.94,5.11-12s4-7.92,5.82-11.64c2.09-3.58,3.94-7,5.72-9.8l4.33-6.76c1.07-1.62,1.73-2.51,1.73-2.51l8.42-2.59C62.59,161.18,66.78,160.23,66.78,160.23Z"/><path class="cls-2" d="M285.45,22.55l4.43,1.05,11.54,3.27a273,273,0,0,1,34,13,261.27,261.27,0,0,1,31.87,17.48c2.09,1.33,4,2.57,5.69,3.66l4.26,3,3.7,2.64s1,2.1,1.83,4.26,1.69,4.31,1.69,4.31,6.77,5.16,13.1,10.85,12.4,11.63,12.39,11.64l7.19,2c3.62,1,7.27,2.17,7.27,2.17l6.69,7.71c3.89,4.73,9,11.09,13.67,17.81A290.53,290.53,0,0,1,462,155.16s-.26,6.06-.67,11.92c-.16,2.91-.58,5.9-.8,8.06s-.44,3.62-.44,3.62l.83,1.84c.56,1.2,1.33,3,2.22,5.27s2,5.08,3.24,8.27,2.38,6.9,3.73,10.9,2.48,8.44,3.81,13.08,2.34,9.66,3.42,14.82a264.15,264.15,0,0,1,1.48,94.21c-1.35,8.33-3,15.17-4.13,20-.52,2.4-1.12,4.25-1.46,5.52l-.55,1.95,12.75,3.58s.29-1.05.81-2.89,1.21-4.47,1.93-7.66c1.58-6.34,3.23-14.91,4.55-23.51a263.7,263.7,0,0,0,2.82-34.62s3.11-4.91,5.79-10c1.38-2.6,2.75-5.2,3.79-7.15s1.68-3.3,1.68-3.3-.45-5.94-.89-11.88c-.21-3-.68-5.92-.93-8.14s-.47-3.7-.47-3.7l1-2.14c.58-1.29,1.35-3,2-4.76l2.76-7s-.37-2.06-.93-5.14-1.59-7.14-2.53-11.22-2.11-8.09-2.95-11.11l-1.44-5-1.77-1.64-4-3.5-5.84-4.95s-.38-1.2-1.16-3.26-1.95-5-3.33-8.49c-2.82-7-6.95-16.19-11.65-25.08a289.36,289.36,0,0,0-21.14-34.14s2-4,4-8,3.73-8.11,3.73-8.11-1.59-2-4.36-5.54-7-8.37-12.05-14.17A309,309,0,0,0,403.1,44,296.09,296.09,0,0,0,355,14.44c-6.94-3.38-12.84-6-17-7.72l-6.58-2.61-6.4.16c-3.86.22-8.95.57-13.95,1s-10,1.19-13.66,1.67-6.1,1-6.1,1S278.6,4.71,265.66,2.71s-26-2.71-26-2.71l-3.16,1.52L229.7,5.1c-2.42,1.31-4.84,2.64-6.65,3.63l-3,1.75-5.43.13-6.23.18-8.09.6a263.89,263.89,0,0,0-43,6.92A288.19,288.19,0,0,0,115.85,32c-5.43,2.44-10,4.45-13.09,6s-4.86,2.48-4.86,2.48l6.29,12.28s2.33-1.24,6.5-3.27c4.22-1.88,10.18-4.78,17.62-7.57A260.35,260.35,0,0,1,184.46,27a266.42,266.42,0,0,1,57.89-2c7.9.46,14.44,1.55,19,2.08l7.17,1.24s4.11-1.64,8.34-3.09Z"/><path class="cls-2" d="M354.41,105s-1.26-3.57-2.51-7.14-2.8-7.16-2.8-7.16-3-2-7.51-4.76l-7.9-4.54c-2.92-1.61-6.11-3.18-9.27-4.81-6.41-3.1-12.92-6-17.91-7.85-4.94-2-8.35-3.08-8.35-3.08l-2.58,7.45,3.07,1c1.83.64,4.22,1.63,6.64,2.57s4.82,1.9,6.57,2.74l2.95,1.33s3,5,5.55,10.17c1.29,2.57,2.55,5.08,3.44,7l1.42,3.25,3.23,1.86c2.09,1.13,4.94,3,8.36,5.17s7.25,5,11.4,7.92c4,3.14,8.32,6.44,12.34,10.07a202.07,202.07,0,0,1,21,21.16c2.71,3,4.76,5.73,6.23,7.59l2.3,2.93L396.6,153s-2.53-3.2-5-6.41-5.29-6.2-5.29-6.2l-.36-3.86c-.2-1.93-.49-3.83-.49-3.83L380.93,128c-2.75-2.77-6.5-6.39-10.37-9.86s-7.87-6.81-11-9.17c-1.54-1.2-2.82-2.2-3.71-2.91Z"/><path class="cls-2" d="M84.59,399.08l6.22.83,1,1.11c.55.68,1.35,1.54,2.17,2.37l3.22,3.38s3,.24,6.15.27l6.06.06,1,.91c.61.52,1.42,1.21,2.22,1.91l3.21,2.79s.13,1.2.31,2.36.36,2.35.36,2.35l1.61,1.27c1,.74,2.22,1.84,3.58,2.75l5.35,3.8s.42,1.78.89,3.56,1,3.59,1,3.59l3.13,2,3.21,1.84.34,5.65s1.25.75,3.21,1.71,4.5,2.4,7.16,3.58,5.29,2.44,7.31,3.26l3.38,1.33,3.33-1.22c1.64-.58,3.29-1.3,3.29-1.29l4.87,1.64s2.62-1.07,5.21-2.42l5.05-2.59s2.55.78,5.15,1.31l5.18,1.2,2.46,3.33,5,.9c3,.35,7,1,11.09,1.31l6,.46c1.9.11,3.69.1,5.22.16s2.8.08,3.7.09a10.91,10.91,0,0,0,1.4,0l5.47,4.75s1.49,0,3.7-.14l8.1-.62,8.06-1,3.63-.63,2.64-3.44,1.76-2.34.77-1.12,2.86-.66c1.71-.45,4-.83,6.27-1.55s4.52-1.27,6.22-1.76,2.78-.95,2.78-.95L274,439.92l-2.81-1.35s-1.68.5-4.2,1.22L262.67,441l-5,1.14c-3.39.9-6.89,1.27-9.46,1.83s-4.34.59-4.34.59l-3.6,4.44a9.93,9.93,0,0,1-1.42.14l-3.15.24-4.58.36-4.26-3.85s-3.81.23-9.52,0a158,158,0,0,1-41.06-6.6c-2.75-.69-4.94-1.63-6.53-2.1l-2.47-.82s-2.1.94-4.27,1.83L158.59,440l-.72-.29a20.53,20.53,0,0,1-1.9-.8l-5.7-2.58-8.1-4.11-1.4-4.57-1.28-4.49a11.83,11.83,0,0,1-1.43-.86l-3.71-2.39c-1.56-.94-3.32-2.16-5.16-3.51s-3.88-2.69-5.75-4.26c-3.91-2.93-7.53-6.2-10.28-8.61l-4.41-4.22s0-.68,0-1.71,0-2.43.06-3.81c.08-2.7.17-5.41.17-5.41s-.78-.8-1.85-2.09-2.59-2.92-4-4.65l-3.79-4.83c-1-1.32-1.63-2.26-1.63-2.26l-4.4.48-4.47.4L77.64,383l.09,7.29,1,1.42c.65.82,1.52,1.91,2.37,3l2.37,3A14.34,14.34,0,0,0,84.59,399.08Z"/><path class="cls-2" d="M243.09,139.62l-3.37-.42c-2-.34-4.74-.44-7.44-.68s-5.46-.19-7.5-.3-3.42,0-3.42,0-1.32,1.49-2.63,3l-2.52,3-1.17,0-1.15.1-2.28,3-2.18,3c0-.07-3.35.4-3.35.4l-2.34-2.12-1.78.22c-1.07.14-2.46.44-3.87.68-2.84.43-5.61,1.12-5.61,1.12L189,148l-1.43.31-3.08.89-3.1.86a9.59,9.59,0,0,0-1.38.44l-1.69,4.05-1.56,3.95,2.53,6.95,6.58-2.16a122.89,122.89,0,0,1,14.84-3.49c2.71-.6,5.51-.76,8.1-1.17l7.14-.59L221,158c1.23-.06,1.94,0,1.94,0l2.54-3,3.23.05,7.06.51,7,.92,3.14.57,1.86,3.43s.53.1,1.32.3l2.89.68a41.29,41.29,0,0,1,4.19,1.07l1.72,4.22a12.08,12.08,0,0,1,1.77.53l3.88,1.32c1.44.41,2.77,1.08,3.82,1.45l1.74.68s1-.58,2-1.14l2-1,5.6-12.78-1.34-.61c-.86-.39-2.13-.83-3.62-1.44-3-1.25-7.06-2.6-11.16-3.86s-8.3-2.18-11.44-2.92l-5.29-.94-1.34-3.21C243.8,141.18,243.09,139.62,243.09,139.62Z"/><rect class="cls-2" x="221.82" y="171.42" width="3.97" height="14.17"/><rect class="cls-2" x="209.15" y="172.18" width="3.97" height="14.17" transform="translate(-17.49 22.92) rotate(-5.97)"/><rect class="cls-2" x="196.63" y="174.25" width="3.97" height="14.17" transform="matrix(0.98, -0.21, 0.21, 0.98, -33.36, 45.26)"/><rect class="cls-2" x="184.39" y="177.62" width="3.97" height="14.17" transform="translate(-47.8 66.33) rotate(-17.93)"/><rect class="cls-2" x="172.57" y="182.25" width="3.96" height="14.17" transform="translate(-61.92 87.37) rotate(-24)"/><polygon class="cls-2" points="168.54 200.32 165.11 202.3 158.03 190.04 161.47 188.06 168.54 200.32"/><polygon class="cls-2" points="158.46 206.73 155.25 209.06 146.92 197.6 150.13 195.27 158.46 206.73"/><polygon class="cls-2" points="149.09 214.16 146.15 216.82 136.67 206.28 139.62 203.64 149.09 214.16"/><rect class="cls-2" x="131.99" y="212.18" width="3.97" height="14.17" transform="translate(-118.59 171.95) rotate(-47.97)"/><rect class="cls-2" x="124.07" y="222.1" width="3.97" height="14.16" transform="translate(-133.42 196.2) rotate(-53.94)"/><rect class="cls-2" x="117.23" y="232.79" width="3.97" height="14.16" transform="translate(-148.12 222.95) rotate(-59.95)"/><rect class="cls-2" x="111.55" y="244.14" width="3.96" height="14.16" transform="translate(-162.15 252.94) rotate(-66.04)"/><rect class="cls-2" x="107.09" y="256.02" width="3.96" height="14.17" transform="translate(-174.88 285.32) rotate(-71.96)"/><rect class="cls-2" x="103.88" y="268.3" width="3.96" height="14.17" transform="translate(-185.52 321.62) rotate(-77.99)"/><rect class="cls-2" x="101.99" y="280.85" width="3.97" height="14.17" transform="translate(-193.3 361.07) rotate(-83.97)"/><rect class="cls-2" x="96.31" y="298.63" width="14.16" height="3.97"/><rect class="cls-2" x="97.06" y="311.31" width="14.17" height="3.97" transform="translate(-32.3 12.66) rotate(-6.02)"/><rect class="cls-2" x="99.14" y="323.83" width="14.16" height="3.97" transform="translate(-65.52 29.26) rotate(-12.02)"/><rect class="cls-2" x="102.51" y="336.07" width="14.17" height="3.96" transform="translate(-98.87 50.25) rotate(-17.96)"/><rect class="cls-2" x="107.14" y="347.88" width="14.16" height="3.97" transform="translate(-132.26 76.56) rotate(-23.96)"/><polygon class="cls-2" points="125.2 355.88 127.19 359.31 114.92 366.39 112.94 362.96 125.2 355.88"/><rect class="cls-2" x="119.97" y="369.75" width="14.16" height="3.97" transform="translate(-194.26 145.71) rotate(-36.01)"/><rect class="cls-2" x="128.03" y="379.55" width="14.17" height="3.97" transform="translate(-220.69 188.59) rotate(-42.03)"/><rect class="cls-2" x="137.07" y="388.46" width="14.17" height="3.97" transform="translate(-242.39 236.12) rotate(-47.97)"/><rect class="cls-2" x="146.99" y="396.39" width="14.16" height="3.97" transform="translate(-258.79 288.89) rotate(-54)"/><rect class="cls-2" x="157.68" y="403.22" width="14.16" height="3.97" transform="translate(-268.53 345.22) rotate(-59.99)"/><rect class="cls-2" x="169.03" y="408.91" width="14.16" height="3.97" transform="matrix(0.41, -0.91, 0.91, 0.41, -270.88, 404.29)"/><rect class="cls-2" x="180.91" y="413.37" width="14.16" height="3.96" transform="translate(-265.08 466.16) rotate(-72.05)"/><rect class="cls-2" x="193.19" y="416.57" width="14.17" height="3.97" transform="translate(-250.79 527.36) rotate(-77.99)"/><rect class="cls-2" x="205.74" y="418.47" width="14.17" height="3.96" transform="translate(-227.8 587.54) rotate(-83.92)"/><rect class="cls-2" x="223.52" y="413.94" width="3.97" height="14.16"/><rect class="cls-2" x="236.19" y="413.19" width="3.96" height="14.17" transform="translate(-42.72 27.26) rotate(-6.01)"/><rect class="cls-2" x="248.72" y="411.12" width="3.97" height="14.16" transform="matrix(0.98, -0.21, 0.21, 0.98, -81.5, 61.29)"/><rect class="cls-2" x="260.95" y="407.75" width="3.97" height="14.16" transform="matrix(0.95, -0.31, 0.31, 0.95, -115.61, 101.9)"/><rect class="cls-2" x="272.77" y="403.12" width="3.97" height="14.16" transform="translate(-143.28 147.53) rotate(-24.04)"/><rect class="cls-2" x="284.04" y="397.27" width="3.97" height="14.16" transform="translate(-164.11 197.72) rotate(-30.07)"/><polygon class="cls-2" points="290.85 392.8 294.06 390.47 302.39 401.93 299.17 404.26 290.85 392.8"/><rect class="cls-2" x="304.44" y="382.22" width="3.97" height="14.17" transform="translate(-181.73 304.69) rotate(-41.96)"/><rect class="cls-2" x="313.35" y="373.19" width="3.97" height="14.16" transform="translate(-178.27 360.4) rotate(-48.03)"/><rect class="cls-2" x="321.27" y="363.27" width="3.96" height="14.16" transform="translate(-166.33 414.57) rotate(-54.05)"/><rect class="cls-2" x="328.11" y="352.58" width="3.97" height="14.17" transform="translate(-146.32 466.2) rotate(-60.06)"/><rect class="cls-2" x="333.79" y="341.23" width="3.97" height="14.16" transform="translate(-118.82 513.86) rotate(-66.06)"/><rect class="cls-2" x="338.26" y="329.35" width="3.97" height="14.16" transform="translate(-84.63 556.5) rotate(-72.06)"/><rect class="cls-2" x="341.46" y="317.06" width="3.97" height="14.16" transform="translate(-44.6 593.3) rotate(-78.09)"/><rect class="cls-2" x="343.36" y="304.51" width="3.97" height="14.17" transform="translate(-0.82 622.28) rotate(-83.97)"/><rect class="cls-2" x="338.83" y="296.93" width="14.16" height="3.97"/><rect class="cls-2" x="338.08" y="284.26" width="14.16" height="3.97" transform="translate(-28.09 37.74) rotate(-6.01)"/><rect class="cls-2" x="336" y="271.74" width="14.16" height="3.97" transform="translate(-49.8 78.09) rotate(-12.11)"/><polygon class="cls-2" points="333.6 265.56 332.36 261.79 345.84 257.41 347.06 261.19 333.6 265.56"/><rect class="cls-2" x="328" y="247.68" width="14.16" height="3.97" transform="translate(-72.66 158.25) rotate(-24.05)"/><rect class="cls-2" x="322.16" y="236.41" width="14.16" height="3.97" transform="translate(-75.14 197.03) rotate(-30.07)"/><rect class="cls-2" x="315.17" y="225.81" width="14.16" height="3.97" transform="translate(-72.35 233.39) rotate(-36.07)"/><rect class="cls-2" x="307.12" y="216.01" width="14.16" height="3.97" transform="translate(-65.07 266.95) rotate(-42.11)"/><rect class="cls-2" x="298.08" y="207.1" width="14.16" height="3.97" transform="translate(-54.3 296.41) rotate(-48.07)"/><rect class="cls-2" x="288.16" y="199.18" width="14.16" height="3.97" transform="translate(-40.99 321.93) rotate(-54.03)"/><rect class="cls-2" x="277.46" y="192.34" width="14.17" height="3.97" transform="translate(-26.2 343.2) rotate(-59.93)"/><rect class="cls-2" x="266.12" y="186.66" width="14.16" height="3.97" transform="translate(-10.08 361.78) rotate(-66.06)"/><polygon class="cls-2" points="261.01 191.52 257.24 190.3 261.62 176.83 265.39 178.06 261.01 191.52"/><rect class="cls-2" x="241.95" y="179" width="14.16" height="3.97" transform="translate(20.25 386.96) rotate(-78.01)"/><rect class="cls-2" x="229.4" y="177.1" width="14.16" height="3.97" transform="translate(33.74 395.63) rotate(-84.02)"/></g></g></g></svg>