<svg xmlns="http://www.w3.org/2000/svg" viewBox="0 0 26.89 20.76"><defs><style>.cls-1{fill:#00b8de;}</style></defs><title>资源 11</title><g id="图层_2" data-name="图层 2"><g id="Layer_1" data-name="Layer 1"><path class="cls-1" d="M2.35,11.59l2.23,1.28,0,0v2.67l0,0-2.23,1.3,0,0-.05,0L0,15.59l0,0V12.9l0,0,2.22-1.28.05,0,0,0ZM4.45,13,2.31,11.77.17,13v2.47l2.14,1.24,2.14-1.24Z"/><path class="cls-1" d="M6.81,11.59,9,12.87l0,0v2.67l0,0-2.22,1.3,0,0,0,0L4.5,15.59l0,0V12.9l0,0,2.22-1.28,0,0,0,0ZM8.91,13,6.76,11.77,4.62,13v2.47l2.14,1.24,2.15-1.24Z"/><path class="cls-1" d="M11.26,11.59l2.22,1.28,0,0v2.67l0,0-2.22,1.3,0,0-.05,0L9,15.59l0,0V12.9l0,0,2.22-1.28.05,0,0,0ZM13.36,13l-2.14-1.23L9.07,13v2.47l2.15,1.24,2.14-1.24Z"/><path class="cls-1" d="M15.72,11.59l2.22,1.28,0,0v2.67l0,0-2.22,1.3-.05,0,0,0-2.22-1.3-.05,0V12.9l.05,0,2.22-1.28,0,0,.05,0ZM17.8,13l-2.13-1.23L13.53,13v2.47l2.14,1.24,2.13-1.24Z"/><path class="cls-1" d="M20.16,11.59l2.23,1.28.05,0v2.67l-.05,0-2.23,1.3,0,0-.05,0-2.23-1.3-.05,0V12.9l.05,0,2.23-1.28.05,0,0,0ZM22.26,13l-2.13-1.23L18,13v2.47l2.15,1.24,2.13-1.24Z"/><path class="cls-1" d="M24.62,11.59l2.23,1.28,0,0v2.67l0,0-2.23,1.3,0,0,0,0-2.24-1.3,0,0V12.9l0,0,2.24-1.28,0,0,0,0ZM26.71,13l-2.13-1.23L22.44,13v2.47l2.14,1.24,2.13-1.24Z"/><path class="cls-1" d="M4.58,15.45l2.23,1.29,0,0v2.67l0,0L4.58,20.74l0,0,0,0L2.26,19.46l0,0V16.76l0,0L4.5,15.45l0,0,0,0Zm2.09,1.41L4.54,15.62,2.4,16.86v2.47l2.14,1.23,2.13-1.23Z"/><path class="cls-1" d="M9,15.45l2.23,1.29.05,0v2.67l-.05,0L9,20.74l0,0-.05,0L6.72,19.46l0,0V16.76l0,0L9,15.45l.05,0,0,0Zm2.1,1.41L9,15.62,6.85,16.86v2.47L9,20.56l2.13-1.23Z"/><path class="cls-1" d="M13.48,15.45l2.24,1.29,0,0v2.67l0,0-2.24,1.28,0,0,0,0-2.24-1.28,0,0V16.76l0,0,2.24-1.29,0,0,0,0Zm2.1,1.41-2.14-1.24-2.13,1.24v2.47l2.13,1.23,2.14-1.23Z"/><path class="cls-1" d="M17.94,15.45l2.22,1.29.05,0v2.67l-.05,0-2.22,1.28-.05,0,0,0-2.22-1.28-.05,0V16.76l.05,0,2.22-1.29,0,0,.05,0ZM20,16.86l-2.15-1.24-2.14,1.24v2.47l2.14,1.23L20,19.33Z"/><path class="cls-1" d="M22.39,15.45l2.23,1.29,0,0v2.67l0,0-2.23,1.28,0,0-.05,0-2.22-1.28,0,0V16.76l0,0,2.22-1.29.05,0,0,0Zm2.1,1.41-2.14-1.24-2.14,1.24v2.47l2.14,1.23,2.14-1.23Z"/><path class="cls-1" d="M4.58,7.73,6.81,9l0,0v2.67l0,0L4.58,13l0,0,0,0L2.26,11.74l0,0V9.05l0,0L4.5,7.73l0,0,0,0ZM6.67,9.15,4.54,7.9,2.4,9.15v2.47l2.14,1.23,2.13-1.23Z"/><path class="cls-1" d="M9,7.73,11.26,9l.05,0v2.67l-.05,0L9,13l0,0L9,13,6.72,11.74l0,0V9.05l0,0L9,7.73,9,7.7l0,0Zm2.1,1.42L9,7.9,6.85,9.15v2.47L9,12.85l2.13-1.23Z"/><path class="cls-1" d="M13.48,7.73,15.72,9l0,0v2.67l0,0L13.48,13l0,0,0,0-2.24-1.28,0,0V9.05l0,0,2.24-1.29,0,0,0,0Zm2.1,1.42L13.44,7.9,11.31,9.15v2.47l2.13,1.23,2.14-1.23Z"/><path class="cls-1" d="M17.94,7.73,20.16,9l.05,0v2.67l-.05,0L17.94,13l-.05,0,0,0-2.22-1.28-.05,0V9.05l.05,0,2.22-1.29,0,0,.05,0ZM20,9.15,17.89,7.9,15.75,9.15v2.47l2.14,1.23L20,11.62Z"/><path class="cls-1" d="M22.39,7.73,24.62,9l0,0v2.67l0,0L22.39,13l0,0-.05,0-2.22-1.28,0,0V9.05l0,0L22.3,7.73l.05,0,0,0Zm2.1,1.42L22.35,7.9,20.21,9.15v2.47l2.14,1.23,2.14-1.23Z"/><path class="cls-1" d="M2.35,3.88,4.58,5.16l0,0V7.85l0,0L2.35,9.17l0,0-.05,0L0,7.88l0,0V5.18l0,0L2.26,3.88l.05,0,0,0Zm2.1,1.4L2.31,4.05.17,5.28V7.75L2.31,9,4.45,7.75Z"/><path class="cls-1" d="M6.81,3.88,9,5.16l0,0V7.85l0,0L6.81,9.17l0,0,0,0L4.5,7.88l0,0V5.18l0,0L6.72,3.88l0,0,0,0Zm2.1,1.4L6.76,4.05,4.62,5.28V7.75L6.76,9,8.91,7.75Z"/><path class="cls-1" d="M11.26,3.88l2.22,1.28,0,0V7.85l0,0L11.26,9.17l0,0-.05,0L9,7.88l0,0V5.18l0,0,2.22-1.28.05,0,0,0Zm2.1,1.4L11.22,4.05,9.07,5.28V7.75L11.22,9l2.14-1.25Z"/><path class="cls-1" d="M15.72,3.88l2.22,1.28,0,0V7.85l0,0L15.72,9.17l-.05,0,0,0L13.41,7.88l-.05,0V5.18l.05,0,2.22-1.28,0,0,.05,0Zm2.08,1.4L15.67,4.05,13.53,5.28V7.75L15.67,9,17.8,7.75Z"/><path class="cls-1" d="M20.16,3.88l2.23,1.28.05,0V7.85l-.05,0L20.16,9.17l0,0-.05,0L17.85,7.88l-.05,0V5.18l.05,0,2.23-1.28.05,0,0,0Zm2.1,1.4L20.13,4.05,18,5.28V7.75L20.13,9l2.13-1.25Z"/><path class="cls-1" d="M24.62,3.88l2.23,1.28,0,0V7.85l0,0L24.62,9.17l0,0,0,0L22.3,7.88l0,0V5.18l0,0,2.24-1.28,0,0,0,0Zm2.09,1.4L24.58,4.05,22.44,5.28V7.75L24.58,9l2.13-1.25Z"/><path class="cls-1" d="M4.58,0,6.81,1.31l0,0V4l0,0L4.58,5.31l0,0,0,0L2.26,4l0,0V1.33l0,0L4.5,0l0,0,0,0Zm2.09,1.4L4.54.2,2.4,1.43V3.9L4.54,5.13,6.67,3.9Z"/><path class="cls-1" d="M9,0l2.23,1.28.05,0V4l-.05,0L9,5.31l0,0L9,5.31,6.72,4l0,0V1.33l0,0L9,0,9,0,9,0Zm2.1,1.4L9,.2,6.85,1.43V3.9L9,5.13,11.13,3.9Z"/><path class="cls-1" d="M13.48,0l2.24,1.28,0,0V4l0,0L13.48,5.31l0,0,0,0L11.17,4l0,0V1.33l0,0L13.41,0l0,0,0,0Zm2.1,1.4L13.44.2,11.31,1.43V3.9l2.13,1.23L15.58,3.9Z"/><path class="cls-1" d="M17.94,0l2.22,1.28.05,0V4l-.05,0L17.94,5.31l-.05,0,0,0L15.63,4l-.05,0V1.33l.05,0L17.85,0l0,0,.05,0ZM20,1.43,17.89.2,15.75,1.43V3.9l2.14,1.23L20,3.9Z"/><path class="cls-1" d="M22.39,0l2.23,1.28,0,0V4l0,0L22.39,5.31l0,0-.05,0L20.08,4l0,0V1.33l0,0L22.3,0l.05,0,0,0Zm2.1,1.4L22.35.2,20.21,1.43V3.9l2.14,1.23L24.49,3.9Z"/></g></g></svg>