<svg xmlns="http://www.w3.org/2000/svg" viewBox="0 0 327.48 318"><defs><style>.cls-1{opacity:0.8;}.cls-2{fill:#5fffe8;}</style></defs><title>资源 11</title><g id="图层_2" data-name="图层 2"><g id="央铋_1" data-name="央铋 1"><g class="cls-1"><path class="cls-2" d="M16.4,253.08l5,6.72c1.57,2,3.13,4.48,5.3,6.77s4.37,4.8,6.63,7.29a75.84,75.84,0,0,0,7,6.88c2.32,2.12,4.5,4.09,6.37,5.78s3.66,2.8,4.81,3.71l1.85,1.37,5.81.59a49.87,49.87,0,0,0,5.77.3L69.09,295c2.64,1.48,6.16,4.07,10.94,6.15,4.69,2.24,10.07,5.07,16.27,7.07,3.08,1,6.16,2.44,9.46,3.28l10,2.57a77.86,77.86,0,0,0,10.16,1.89c3.38.45,6.68,1.16,9.92,1.38l9.36.47a59.28,59.28,0,0,0,8.38.11l12.55-.64,4.72-.69,3.36-2.85,3.25-2.83,3.7-.58,9.57-2.46A100.75,100.75,0,0,0,204,303.51c4.89-1.55,9.73-4.07,14.65-6.43A149.42,149.42,0,0,0,243.89,281a74.78,74.78,0,0,0,7.53-6.38c1.77-1.6,2.77-2.52,2.77-2.52l3.11-.58a56.85,56.85,0,0,0,6.71-1.67c4.85-1.37,9.9-3,9.9-3l1.75-1.95,4.13-5.51c1.66-2.3,3.78-4.88,5.72-7.86s3.83-6.29,5.8-9.54,3.51-6.73,5.13-9.9,3.14-6.13,4.05-8.84l3.27-8.93,3.58-3c2-1.87,4.57-4.5,7.22-7.24s5.36-5.59,7.21-7.82l3-3.81s.24-1.53.65-4.22c.21-1.35.45-3,.73-4.85a45.26,45.26,0,0,0,.67-6.32c.22-4.65.59-10.07.71-15.88-.29-5.81-.5-12-1-18.21-1-6.14-1.74-12.32-2.89-18-1.46-5.65-2.81-10.92-4-15.44L314.3,94.93a35.15,35.15,0,0,0-3.83-3c-2.38-1.75-5.53-4-8.63-6.14l-4.53-3.06c-1.51-.92-3-1.71-4.21-2.39L289,78.1s-.66-1.1-1.92-3.16l-2.32-3.78c-1.05-1.39-2.24-3-3.59-4.8A117.78,117.78,0,0,0,271,53.8c-2.14-2.28-4.27-4.85-6.79-7.29L256,39.08a167.58,167.58,0,0,0-44.71-27.29A158.06,158.06,0,0,0,152.52,0a163.06,163.06,0,0,0-59,10.42,166.74,166.74,0,0,0-45.41,26c-11.69,10-20.47,19.45-25.77,26.69L16.1,71.52c-1.25,2-1.91,3.15-1.91,3.15s-.13,6.19,0,12c.05,2.92.51,6,.71,8.1s.42,3.6.42,3.6l-1.22,2.54c-.39.81-.87,1.79-1.41,2.92s-.91,2.51-1.44,4c-1.05,2.9-2.28,6.27-3.6,9.89l-3,11.68a40.4,40.4,0,0,0-1.18,6c-.3,2-.6,4-.89,5.87S2,145,1.72,146.71c-.09,1.76-.17,3.43-.24,5C1.16,157.84,1,161.94,1,161.94H16.52s.11-2.12.29-5.3c.08-1.59.17-3.45.27-5.44,0-1,.09-2,.14-3.07s.33-2.07.5-3.12c.73-4.17,1.11-8.42,1.89-11.49l1.33-5.13s-1.39-3.58-2.75-7.4c-1.06-3.71-2-7.62-2-7.62s.81-2.24,2-5.58,3.56-7.53,5.54-11.86a49.87,49.87,0,0,1,3.44-6.07c1.15-1.92,2.24-3.7,3.16-5.22A33,33,0,0,1,32.71,81l1-1.3L34,73.78c.22-3,.45-6.1.45-6.1a15.46,15.46,0,0,1,1.67-2l4.6-5.06c3.6-4.4,9.4-9.26,15-14.33l8.88-6.64c2.74-2.25,5.74-3.69,8.11-5.24l5.84-3.55a12.85,12.85,0,0,1,1.69-.9l.61-.29,5.52.66,5.35.74L93.87,30c1.37-.68,3.48-1.3,5.92-2.23s5.32-2,8.42-3l9.94-2.55a72.63,72.63,0,0,1,10.08-1.88c3.24-.43,6.24-1.11,8.86-1.23l8.74-.44L148.09,20l2.28,1.41,2.55,1.89c3.43,2.58,6.61,5.14,6.61,5.14l1.85.08a30.59,30.59,0,0,1,5.19.51c4.43.77,10.86,1.32,18.25,3.56,1.86.49,3.82.93,5.81,1.51l6,2.23c2.07.78,4.22,1.47,6.37,2.35l6.38,3.1c8.76,4,17.28,9.89,25.42,16.15C251,70.87,263.13,88,270,101.72c1.59,3.51,3.37,6.58,4.43,9.53s2,5.5,2.78,7.6a33.28,33.28,0,0,1,1.63,5c.3,1.17.45,1.79.45,1.79l5.3,4.5,3.71,3.29L289.8,135l1.28,8.41c.19,1.27.41,2.63.63,4.08s.14,3,.22,4.61c.16,3.19.33,6.59.51,10-.18,3.41-.36,6.81-.52,10-.08,1.59-.16,3.13-.24,4.6s-.44,2.81-.63,4.07c-.77,5.05-1.28,8.42-1.28,8.42s-.56.65-1.54,1.57L284.52,194l-5.3,4.5s-.11.42-.3,1.21a23.87,23.87,0,0,1-1,3.38c-1.1,2.83-2.47,7-4.41,11.79a150.15,150.15,0,0,1-19.9,32.52C244.67,258.14,233.8,267,225.33,273l-10.78,6.54-4.3,2.09s-1.52,2.72-3,5.45L205,290.94l-1.11,1.6-6,2.2c-1.94.63-4.19,1.73-7,2.39l-9.26,2.38a146.13,146.13,0,0,1-51.11,2A143.57,143.57,0,0,1,82,285.33c-6-3.69-11.1-6.51-14.23-9.18l-5.15-3.85a49,49,0,0,1-1.73-6.11c-.69-3.05-1.37-6.11-1.37-6.11L56,256.91l-8.43-9.23c-6.37-8.12-14.5-19.4-19.85-32.15-1.49-3.11-2.41-6.45-3.66-9.59-.56-1.6-1.24-3.14-1.69-4.74l-1.21-4.77c-.71-3.14-1.77-6.1-2.17-9s-.86-5.7-1.25-8.25c-.19-1.27-.42-2.5-.56-3.66s-.1-2.3-.15-3.35c-.1-2.1-.19-3.94-.27-5.45-.17-3-.26-4.74-.26-4.74H0s.23,4.47.57,11.16A53,53,0,0,0,1,178.5c.29,1.9.59,3.9.91,6s.64,4.21,1,6.39a63.24,63.24,0,0,0,1.52,6.48c.55,2.16,1.11,4.33,1.65,6.46.29,1.06.52,2.13.84,3.16L8,210c1.45,3.93,2.8,7.6,4,10.75l4.85,10.06s-.14,1.37-.36,3.44-.13,4.72-.16,7.51,0,5.65,0,7.77c0,1.09,0,2,0,2.63A9.49,9.49,0,0,0,16.4,253.08Z"/><path class="cls-2" d="M149.1,281.77A122.33,122.33,0,1,1,271.42,159.44,122.47,122.47,0,0,1,149.1,281.77Zm0-243A120.72,120.72,0,1,0,269.81,159.44,120.85,120.85,0,0,0,149.1,38.73Zm0,239.82A119.11,119.11,0,1,1,268.2,159.44,119.25,119.25,0,0,1,149.1,278.55Zm0-236.61a117.51,117.51,0,1,0,117.5,117.5A117.63,117.63,0,0,0,149.1,41.94Z"/></g></g></g></svg>