<svg xmlns="http://www.w3.org/2000/svg" viewBox="0 0 38.04 38.04"><defs><style>.cls-1{fill:#00b3ea;}.cls-2{fill:#08ade5;}.cls-3{fill:#065977;}.cls-4{fill:#feb113;}</style></defs><title>资源 6</title><g id="图层_2" data-name="图层 2"><g id="Layer_1" data-name="Layer 1"><rect class="cls-1" x="6.81" y="18.8" width="0.15" height="0.44"/><rect class="cls-1" x="7.13" y="18.8" width="0.15" height="0.44"/><rect class="cls-1" x="7.46" y="18.8" width="0.15" height="0.44"/><rect class="cls-1" x="7.78" y="18.8" width="0.15" height="0.44"/><rect class="cls-1" x="8.11" y="18.8" width="0.15" height="0.44"/><rect class="cls-1" x="8.44" y="18.8" width="0.15" height="0.44"/><rect class="cls-1" x="8.76" y="18.8" width="0.15" height="0.44"/><rect class="cls-1" x="9.09" y="18.8" width="0.15" height="0.44"/><rect class="cls-1" x="9.41" y="18.8" width="0.15" height="0.44"/><rect class="cls-1" x="9.74" y="18.8" width="0.15" height="0.44"/><rect class="cls-1" x="10.06" y="18.8" width="0.15" height="0.44"/><rect class="cls-1" x="10.39" y="18.8" width="0.15" height="0.44"/><rect class="cls-1" x="10.72" y="18.8" width="0.15" height="0.44"/><rect class="cls-1" x="11.04" y="18.8" width="0.15" height="0.44"/><rect class="cls-1" x="11.37" y="18.8" width="0.15" height="0.44"/><rect class="cls-1" x="11.69" y="18.8" width="0.15" height="0.44"/><rect class="cls-1" x="12.02" y="18.8" width="0.15" height="0.44"/><rect class="cls-1" x="12.34" y="18.8" width="0.15" height="0.44"/><rect class="cls-1" x="12.67" y="18.8" width="0.15" height="0.44"/><rect class="cls-1" x="13" y="18.8" width="0.15" height="0.44"/><rect class="cls-1" x="13.32" y="18.8" width="0.15" height="0.44"/><rect class="cls-1" x="13.65" y="18.8" width="0.15" height="0.44"/><rect class="cls-1" x="13.97" y="18.8" width="0.15" height="0.44"/><rect class="cls-1" x="14.3" y="18.8" width="0.15" height="0.44"/><rect class="cls-1" x="14.62" y="18.8" width="0.15" height="0.44"/><rect class="cls-1" x="14.95" y="18.8" width="0.15" height="0.44"/><rect class="cls-1" x="15.28" y="18.8" width="0.15" height="0.44"/><rect class="cls-1" x="15.6" y="18.8" width="0.15" height="0.44"/><rect class="cls-1" x="15.93" y="18.8" width="0.15" height="0.44"/><rect class="cls-1" x="16.25" y="18.8" width="0.15" height="0.44"/><rect class="cls-1" x="16.58" y="18.8" width="0.15" height="0.44"/><rect class="cls-1" x="21.18" y="18.8" width="0.15" height="0.44"/><rect class="cls-1" x="21.51" y="18.8" width="0.15" height="0.44"/><rect class="cls-1" x="21.83" y="18.8" width="0.15" height="0.44"/><rect class="cls-1" x="22.16" y="18.8" width="0.15" height="0.44"/><rect class="cls-1" x="22.48" y="18.8" width="0.15" height="0.44"/><rect class="cls-1" x="22.81" y="18.8" width="0.15" height="0.44"/><rect class="cls-1" x="23.13" y="18.8" width="0.15" height="0.44"/><rect class="cls-1" x="23.46" y="18.8" width="0.15" height="0.44"/><rect class="cls-1" x="23.79" y="18.8" width="0.15" height="0.44"/><rect class="cls-1" x="24.11" y="18.8" width="0.15" height="0.44"/><rect class="cls-1" x="24.44" y="18.8" width="0.15" height="0.44"/><rect class="cls-1" x="24.76" y="18.8" width="0.15" height="0.44"/><rect class="cls-1" x="25.09" y="18.8" width="0.15" height="0.44"/><rect class="cls-1" x="25.41" y="18.8" width="0.15" height="0.44"/><rect class="cls-1" x="25.74" y="18.8" width="0.15" height="0.44"/><rect class="cls-1" x="26.07" y="18.8" width="0.15" height="0.44"/><rect class="cls-1" x="26.39" y="18.8" width="0.15" height="0.44"/><rect class="cls-1" x="26.72" y="18.8" width="0.15" height="0.44"/><rect class="cls-1" x="27.04" y="18.8" width="0.15" height="0.44"/><rect class="cls-1" x="27.37" y="18.8" width="0.15" height="0.44"/><rect class="cls-1" x="27.69" y="18.8" width="0.15" height="0.44"/><rect class="cls-1" x="28.02" y="18.8" width="0.15" height="0.44"/><rect class="cls-1" x="28.35" y="18.8" width="0.15" height="0.44"/><rect class="cls-1" x="28.67" y="18.8" width="0.15" height="0.44"/><rect class="cls-1" x="29" y="18.8" width="0.15" height="0.44"/><rect class="cls-1" x="29.32" y="18.8" width="0.15" height="0.44"/><rect class="cls-1" x="29.65" y="18.8" width="0.15" height="0.44"/><rect class="cls-1" x="29.97" y="18.8" width="0.15" height="0.44"/><rect class="cls-1" x="30.3" y="18.8" width="0.15" height="0.44"/><rect class="cls-1" x="30.63" y="18.8" width="0.15" height="0.44"/><rect class="cls-1" x="30.95" y="18.8" width="0.15" height="0.44"/><rect class="cls-1" x="18.86" y="31.02" width="0.44" height="0.15"/><rect class="cls-1" x="18.86" y="30.69" width="0.44" height="0.15"/><rect class="cls-1" x="18.86" y="30.37" width="0.44" height="0.15"/><rect class="cls-1" x="18.86" y="30.04" width="0.44" height="0.15"/><rect class="cls-1" x="18.86" y="29.72" width="0.44" height="0.15"/><rect class="cls-1" x="18.86" y="29.39" width="0.44" height="0.15"/><rect class="cls-1" x="18.86" y="29.06" width="0.44" height="0.15"/><rect class="cls-1" x="18.86" y="28.74" width="0.44" height="0.15"/><rect class="cls-1" x="18.86" y="28.41" width="0.44" height="0.15"/><rect class="cls-1" x="18.86" y="28.09" width="0.44" height="0.15"/><rect class="cls-1" x="18.86" y="27.76" width="0.44" height="0.15"/><rect class="cls-1" x="18.86" y="27.44" width="0.44" height="0.15"/><rect class="cls-1" x="18.86" y="27.11" width="0.44" height="0.15"/><rect class="cls-1" x="18.86" y="26.78" width="0.44" height="0.15"/><rect class="cls-1" x="18.86" y="26.46" width="0.44" height="0.15"/><rect class="cls-1" x="18.86" y="26.13" width="0.44" height="0.15"/><rect class="cls-1" x="18.86" y="25.81" width="0.44" height="0.15"/><rect class="cls-1" x="18.86" y="25.48" width="0.44" height="0.15"/><rect class="cls-1" x="18.86" y="25.16" width="0.44" height="0.15"/><rect class="cls-1" x="18.86" y="24.83" width="0.44" height="0.15"/><rect class="cls-1" x="18.86" y="24.5" width="0.44" height="0.15"/><rect class="cls-1" x="18.86" y="24.18" width="0.44" height="0.15"/><rect class="cls-1" x="18.86" y="23.85" width="0.44" height="0.15"/><rect class="cls-1" x="18.86" y="23.53" width="0.44" height="0.15"/><rect class="cls-1" x="18.86" y="23.2" width="0.44" height="0.15"/><rect class="cls-1" x="18.86" y="22.88" width="0.44" height="0.15"/><rect class="cls-1" x="18.86" y="22.55" width="0.44" height="0.15"/><rect class="cls-1" x="18.86" y="22.22" width="0.44" height="0.15"/><rect class="cls-1" x="18.86" y="21.9" width="0.44" height="0.15"/><rect class="cls-1" x="18.86" y="21.57" width="0.44" height="0.15"/><rect class="cls-1" x="18.86" y="21.25" width="0.44" height="0.15"/><rect class="cls-1" x="18.86" y="16.65" width="0.44" height="0.15"/><rect class="cls-1" x="18.86" y="16.32" width="0.44" height="0.15"/><rect class="cls-1" x="18.86" y="15.99" width="0.44" height="0.15"/><rect class="cls-1" x="18.86" y="15.67" width="0.44" height="0.15"/><rect class="cls-1" x="18.86" y="15.34" width="0.44" height="0.15"/><rect class="cls-1" x="18.86" y="15.02" width="0.44" height="0.15"/><rect class="cls-1" x="18.86" y="14.69" width="0.44" height="0.15"/><rect class="cls-1" x="18.86" y="14.37" width="0.44" height="0.15"/><rect class="cls-1" x="18.86" y="14.04" width="0.44" height="0.15"/><rect class="cls-1" x="18.86" y="13.71" width="0.44" height="0.15"/><rect class="cls-1" x="18.86" y="13.39" width="0.44" height="0.15"/><rect class="cls-1" x="18.86" y="13.06" width="0.44" height="0.15"/><rect class="cls-1" x="18.86" y="12.74" width="0.44" height="0.15"/><rect class="cls-1" x="18.86" y="12.41" width="0.44" height="0.15"/><rect class="cls-1" x="18.86" y="12.09" width="0.44" height="0.15"/><rect class="cls-1" x="18.86" y="11.76" width="0.44" height="0.15"/><rect class="cls-1" x="18.86" y="11.43" width="0.44" height="0.15"/><rect class="cls-1" x="18.86" y="11.11" width="0.44" height="0.15"/><rect class="cls-1" x="18.86" y="10.78" width="0.44" height="0.15"/><rect class="cls-1" x="18.86" y="10.46" width="0.44" height="0.15"/><rect class="cls-1" x="18.86" y="10.13" width="0.44" height="0.15"/><rect class="cls-1" x="18.86" y="9.81" width="0.44" height="0.15"/><rect class="cls-1" x="18.86" y="9.48" width="0.44" height="0.15"/><rect class="cls-1" x="18.86" y="9.15" width="0.44" height="0.15"/><rect class="cls-1" x="18.86" y="8.83" width="0.44" height="0.15"/><rect class="cls-1" x="18.86" y="8.5" width="0.44" height="0.15"/><rect class="cls-1" x="18.86" y="8.18" width="0.44" height="0.15"/><rect class="cls-1" x="18.86" y="7.85" width="0.44" height="0.15"/><rect class="cls-1" x="18.86" y="7.53" width="0.44" height="0.15"/><rect class="cls-1" x="18.86" y="7.2" width="0.44" height="0.15"/><rect class="cls-1" x="18.86" y="6.87" width="0.44" height="0.15"/><path class="cls-2" d="M8.31,12l.54-.13.55-.1.63-.08.62,0h1s0-.19,0-.5v-.26a2.72,2.72,0,0,1,0-.28c0-.19,0-.41,0-.62s0-.42.08-.62.06-.39.1-.55C12,8.52,12,8.3,12,8.3l.27-.17a3.54,3.54,0,0,1,.31-.19c.13-.06.26-.15.42-.23a12.56,12.56,0,0,1,2.35-1,12.79,12.79,0,0,1,2.5-.48l.47,0h1.37l.47,0a12.79,12.79,0,0,1,2.5.48,12.56,12.56,0,0,1,2.35,1l.41.23.32.19L26,8.3s.06.22.12.55c0,.16.07.35.1.55s.06.41.08.62,0,.43,0,.62v.28a2.17,2.17,0,0,1,0,.26c0,.31,0,.5,0,.5h1l.62,0,.63.08.55.1.54.13.17.26c.06.09.12.2.19.32l.23.41a13,13,0,0,1,1.44,4.85c0,.18,0,.34,0,.48s0,.26,0,.36,0,.32,0,.32,0,.11,0,.32,0,.22,0,.36,0,.3,0,.47A13,13,0,0,1,30.33,25l-.23.41a3.54,3.54,0,0,1-.19.31l-.17.27-.54.13-.55.1-.63.07c-.21,0-.43,0-.62,0h-.53c-.31,0-.51,0-.51,0s0,.2,0,.51a2,2,0,0,1,0,.25v.28c0,.2,0,.41,0,.62s0,.43-.08.63-.07.39-.1.55c-.06.33-.12.55-.12.55l-.27.17-.32.18c-.12.07-.25.16-.41.24a12.56,12.56,0,0,1-2.35,1,12.79,12.79,0,0,1-2.5.48l-.47,0H18.34l-.47,0a12.79,12.79,0,0,1-2.5-.48,12.56,12.56,0,0,1-2.35-1c-.16-.08-.29-.17-.42-.24l-.31-.18L12,29.74s-.06-.22-.12-.55c0-.16-.07-.35-.1-.55s-.06-.42-.08-.63,0-.42,0-.62a2.62,2.62,0,0,1,0-.28v-.25c0-.31,0-.51,0-.51s-.2,0-.51,0h-.53c-.2,0-.41,0-.62,0l-.63-.07-.55-.1L8.31,26l-.18-.27L8,25.44c-.07-.12-.16-.26-.23-.41a12.65,12.65,0,0,1-1-2.36,12.79,12.79,0,0,1-.48-2.5l0-.47c0-.14,0-.26,0-.36V19H5.89v.7c0,.14,0,.31,0,.48a13.49,13.49,0,0,0,.49,2.57,12.9,12.9,0,0,0,1,2.41c.08.16.17.3.24.43s.13.23.19.32L8,26.2l.24.07.24.05.47.1c.28,0,.66.1,1,.14s.74,0,1,0h.44s0,.2,0,.51v.54c0,.2,0,.42,0,.63s.05.43.09.64.07.39.11.55a4.25,4.25,0,0,0,.13.55l.27.18.33.19c.12.07.26.16.42.24a13.19,13.19,0,0,0,2.41,1,13.63,13.63,0,0,0,2.57.49l.48,0h1.4l.49,0a13.13,13.13,0,0,0,5-1.48c.16-.08.29-.17.42-.24a2.7,2.7,0,0,0,.32-.19l.28-.18.06-.24.06-.24s0-.19.09-.47.11-.66.14-1a9.41,9.41,0,0,0,0-1c0-.27,0-.44,0-.44h.77l.29,0c.19,0,.41,0,.63,0l.63-.08.56-.11c.33-.07.55-.14.55-.14l.17-.27.2-.32c.07-.13.15-.27.23-.43a12.26,12.26,0,0,0,1-2.41,12.75,12.75,0,0,0,.49-2.57c0-.17,0-.34,0-.48s0-.27,0-.38,0-.32,0-.32,0-.12,0-.33,0-.23,0-.37,0-.31,0-.49a12.79,12.79,0,0,0-.49-2.56,12.26,12.26,0,0,0-1-2.41c-.08-.16-.16-.3-.24-.43s-.13-.23-.19-.32L30,11.83l-.24-.06-.24,0-.47-.1c-.29,0-.66-.1-1-.14a9.23,9.23,0,0,0-1,0h-.45s0-.2,0-.52v-.54c0-.19,0-.41-.05-.62l-.09-.64c0-.2-.08-.39-.11-.56-.07-.33-.13-.55-.13-.55l-.28-.17a2.7,2.7,0,0,0-.32-.19c-.13-.07-.26-.16-.42-.24a13.13,13.13,0,0,0-5-1.48l-.49,0h-1.4l-.48,0a13.63,13.63,0,0,0-2.57.49,13.19,13.19,0,0,0-2.41,1c-.16.08-.3.17-.42.24l-.33.19L11.84,8l-.07.24,0,.24-.1.48c0,.28-.1.65-.13,1s-.05.73-.05,1,0,.45,0,.45h-1l-.63.05-.64.09-.55.11c-.34.07-.55.13-.55.13l-.18.28c-.06.09-.12.2-.19.32s-.16.27-.24.43a12.9,12.9,0,0,0-1,2.41,13.54,13.54,0,0,0-.49,2.56c0,.18,0,.34,0,.49V19h.33V18.7c0-.1,0-.22,0-.36l0-.48A12.77,12.77,0,0,1,7.72,13c.07-.15.16-.29.23-.41l.18-.32C8.24,12.11,8.31,12,8.31,12Z"/><path class="cls-2" d="M17.52,18.7h0l-.05,0-.06.05a.18.18,0,0,0-.07.05l-.07.06,0,0,0,0a.28.28,0,0,0-.06.06l.06.06,0,0,0,0s0,.05.07.06l.07.06.06,0s0,0,.05,0h0v0s0,0,0,0v.06a1.46,1.46,0,0,0,.11.28,1.35,1.35,0,0,0,.18.25l0,0,0,0,0,0,0,0,0,0,0,0,.25.17a1.46,1.46,0,0,0,.28.11h.14v0l0,0,0,.07.06.07.06.07,0,0,0,0,.06.06a.28.28,0,0,0,.06-.06l0,0,0,0,.06-.07.05-.07.05-.07,0,0v0h.13a1.46,1.46,0,0,0,.28-.11L20,20.2l.05,0,0,0,0,0,0,0,0,0,0,0a1.35,1.35,0,0,0,.17-.25,2.93,2.93,0,0,0,.12-.28v-.06a.06.06,0,0,0,0,0v0h0l.05,0,.06,0,.07-.06.07-.06,0,0,0,0,0-.06,0-.06,0,0,0,0-.07-.06-.07-.05s0,0-.06-.05l-.05,0h0v0a.11.11,0,0,0,0-.05v-.05a2.93,2.93,0,0,0-.12-.28A1.35,1.35,0,0,0,20.2,18l0-.05,0,0,0,0,0,0,0,0-.05,0a1.35,1.35,0,0,0-.25-.17l-.28-.12h-.13v0l0,0-.05-.07-.05-.07-.06-.07,0,0,0,0L19,17.14l-.06.05,0,0,0,0-.06.07-.06.07,0,.07,0,0v0h-.14l-.28.12a2.71,2.71,0,0,0-.25.17l0,0,0,0,0,0,0,0,0,0,0,0,0,0a1.35,1.35,0,0,1,.25-.17,1.18,1.18,0,0,1,.27-.11h.13v0l0,0,0-.05,0-.06.05-.06.1-.11.05,0,.06,0,0,0,0,0,.05.07.06.07,0,.06,0,.05v0h.13a1.4,1.4,0,0,1,.27.11,1.66,1.66,0,0,1,.24.17l.05,0,0,0,0,0,0,0,0,0,0,0a1.66,1.66,0,0,1,.17.24,1.71,1.71,0,0,1,.11.27v.13l0,0,0,0,0,0,.06,0,.06.05.11.1.05.05a.28.28,0,0,0-.06.06l0,0,0,0-.07.06-.07,0-.06.05-.05,0h0v0s0,0,0,0v.05a1.46,1.46,0,0,1-.11.28,1.66,1.66,0,0,1-.17.24l0,0,0,0,0,0,0,0,0,0-.05,0-.24.17a1.4,1.4,0,0,1-.27.11h-.13l0,0,0,0,0,0,0,.05,0,.06a.55.55,0,0,1-.1.11l-.05.05L19,20.8l0,0,0,0-.06-.07-.05-.07a.25.25,0,0,1,0-.07.05.05,0,0,1,0,0v0h-.13a1.18,1.18,0,0,1-.27-.11l-.25-.17,0,0,0,0,0,0,0,0,0,0,0,0a1.66,1.66,0,0,1-.16-.24,2.93,2.93,0,0,1-.12-.28V19.4a.06.06,0,0,1,0,0v0h0l0,0-.05,0-.05,0-.06,0-.11-.1,0-.05a.28.28,0,0,1,.06-.06l0,0,0,0,.07-.06.07-.06.07,0,0,0h0v0a.06.06,0,0,1,0,0v-.06c0-.07.07-.17.12-.27a1.66,1.66,0,0,1,.16-.24l0,0,0,0,0,0,0,0,0,0,0,0,0,.05a1.35,1.35,0,0,0-.18.25,1.46,1.46,0,0,0-.11.28v.05a.43.43,0,0,1,0,.05Z"/><path class="cls-3" d="M4.67,26.77a.28.28,0,0,0,0,.06l.11.18c0,.08.1.17.16.29l.11.18.13.21c.09.14.19.31.31.48l.41.57.49.64.61.69c.22.23.45.48.71.72l.4.37.43.38a18.37,18.37,0,0,0,2,1.46,16.28,16.28,0,0,0,9.07,2.31l.44,0,.46,0c.3,0,.6-.07.91-.11s.6-.1.91-.17l.46-.1.23,0,.23-.07a15.86,15.86,0,0,0,3.6-1.47,16.35,16.35,0,0,0,7.71-9.56l.15-.53c.05-.17.09-.35.13-.53.09-.35.14-.71.21-1.07A16.91,16.91,0,0,0,34.84,15l-.15-.53c0-.18-.1-.36-.16-.53l-.18-.53-.2-.51-.1-.26-.12-.25c-.07-.17-.15-.34-.23-.5-.17-.33-.32-.66-.51-1a17,17,0,0,0-2.66-3.47,16.33,16.33,0,0,0-15.2-4.33,15.52,15.52,0,0,0-3.47,1.24A16.29,16.29,0,0,0,5,10.72,16.1,16.1,0,0,0,3.87,13a18.23,18.23,0,0,0-.66,2c0,.16-.07.31-.1.46s-.07.29-.1.44,0,.28-.07.41,0,.26-.06.38-.06.48-.09.69,0,.41,0,.58,0,.17,0,.24v.22c0,.13,0,.24,0,.33s0,.27,0,.27H1.46v-.29c0-.1,0-.22,0-.36v-.23a2.46,2.46,0,0,1,0-.26l.05-.62c0-.23.05-.48.09-.74s0-.28.06-.42.05-.29.08-.44.06-.31.1-.47L2,14.7a15.37,15.37,0,0,1,.71-2.19A17.53,17.53,0,0,1,15.05,1.91a17.55,17.55,0,0,1,19.23,8.4c.2.34.37.7.55,1,.09.18.17.36.25.54l.12.27.11.28.22.55.19.57c.07.18.12.38.18.57s.11.38.15.57a17.91,17.91,0,0,1,.53,4.72,18.48,18.48,0,0,1-.21,2.35c-.07.39-.13.78-.23,1.16,0,.19-.08.38-.13.57l-.16.57a17.69,17.69,0,0,1-4.78,7.72A17.56,17.56,0,0,1,23.66,36l-.25.07-.25.06-.49.11-1,.18c-.33,0-.65.09-1,.12l-.48,0-.48,0A17.58,17.58,0,0,1,10,34.08a18.09,18.09,0,0,1-2.2-1.58l-.47-.4-.43-.4c-.28-.26-.53-.53-.77-.78l-.65-.75-.53-.68-.44-.61-.33-.52L4,28.13l-.11-.19-.18-.31a2,2,0,0,0-.11-.19l0-.07Z"/><path class="cls-2" d="M.62,19v.3c0,.1,0,.23,0,.38v.24a2.28,2.28,0,0,1,0,.27c0,.2,0,.41,0,.65s.06.5.1.78,0,.29.07.44.05.3.08.46.07.32.1.49l.12.52a19.57,19.57,0,0,0,.75,2.29,17.66,17.66,0,0,0,1.26,2.55,18.47,18.47,0,0,0,7.75,7.16,17.49,17.49,0,0,0,3.92,1.39A18.4,18.4,0,0,0,32,32.06a18.83,18.83,0,0,0,3-3.92c.22-.35.4-.73.59-1.1.09-.18.17-.38.26-.56l.12-.29.12-.29.23-.58.2-.59c.07-.2.12-.4.18-.6s.12-.4.16-.6a18.32,18.32,0,0,0,.55-4.94,20.07,20.07,0,0,0-.21-2.46c-.08-.41-.14-.82-.24-1.22-.05-.2-.09-.4-.15-.6l-.16-.59a18.46,18.46,0,0,0-5-8.09A18.66,18.66,0,0,0,28,2.93a18,18,0,0,0-4.07-1.66l-.26-.07-.26-.06L22.84,1c-.34-.08-.69-.13-1-.19s-.69-.1-1-.13l-.51,0-.5,0A18.37,18.37,0,0,0,9.54,3.25,19.9,19.9,0,0,0,7.23,4.89l-.49.43c-.16.13-.3.28-.45.42s-.55.55-.8.82-.47.53-.68.77-.39.49-.56.72l-.46.64c-.13.2-.25.38-.35.55l-.15.23-.12.21C3.1,9.81,3,9.91,3,10s-.08.16-.11.2a.28.28,0,0,0,0,.07L2.29,10l0-.07.12-.2.19-.34.13-.21.15-.24.37-.57.47-.66.58-.74L5,6.13c.26-.27.53-.56.83-.84s.3-.3.47-.44l.5-.43A20.45,20.45,0,0,1,9.22,2.71,18.84,18.84,0,0,1,15.79.28a19.4,19.4,0,0,1,4-.27l.53,0,.52,0L21.9.21c.36.07.71.12,1.07.2l.54.12.26.06L24,.67a18.71,18.71,0,0,1,4.21,1.71,19.31,19.31,0,0,1,3.82,2.8,19.07,19.07,0,0,1,5.17,8.36l.18.61c0,.21.09.42.14.62.11.42.17.84.25,1.26a19.15,19.15,0,0,1-.34,7.65c0,.21-.12.42-.17.63s-.12.41-.19.61l-.21.61-.24.6-.11.3-.14.3c-.09.19-.17.39-.27.58-.19.39-.38.77-.6,1.14a19,19,0,0,1-11.62,9,19.05,19.05,0,0,1-13.26-1.29A20.24,20.24,0,0,1,7.26,34,19.24,19.24,0,0,1,2.65,28.7a17.19,17.19,0,0,1-1.29-2.63A19.18,19.18,0,0,1,.58,23.7l-.12-.54c0-.17-.08-.34-.11-.5s-.06-.33-.08-.48-.06-.31-.08-.45-.07-.56-.1-.81,0-.47,0-.67A2.46,2.46,0,0,0,0,20V19Z"/><path class="cls-4" d="M17.94,4.4h-.16c-.1,0-.26,0-.45,0a13.53,13.53,0,0,0-1.59.28,14.36,14.36,0,0,0-4.49,1.85A15.16,15.16,0,0,0,9.17,8.16,14.59,14.59,0,0,0,7.61,9.82l-.3.37-.25.35-.22.31-.17.27c-.11.17-.19.29-.24.39l-.08.13-1-.57.09-.15.25-.41.19-.29.24-.33c.08-.12.17-.25.27-.38l.32-.41A15.86,15.86,0,0,1,8.41,7.32a16.26,16.26,0,0,1,2.24-1.7,15.76,15.76,0,0,1,4.84-2,16.44,16.44,0,0,1,1.71-.29l.49-.05h.17Z"/><path class="cls-4" d="M31,10.57l-.09-.13-.27-.36-.2-.25-.12-.15-.13-.15-.28-.32c-.1-.12-.21-.23-.33-.35a13.84,13.84,0,0,0-1.7-1.52A14.64,14.64,0,0,0,25.69,6a14.45,14.45,0,0,0-2.42-1,13.54,13.54,0,0,0-2.22-.48l-.48-.07-.43,0-.38,0h-.93l0-1.13h1l.41,0,.46,0,.51.06a16.23,16.23,0,0,1,2.4.53A15.39,15.39,0,0,1,26.2,5a15.64,15.64,0,0,1,4.21,3.12l.35.38.31.35a1.07,1.07,0,0,0,.14.16l.12.16.21.27c.13.16.23.3.29.39l.1.14Z"/><path class="cls-4" d="M32.44,25s.09-.2.23-.56q.06-.13.12-.3t.12-.36c0-.13.09-.26.14-.41s.08-.3.13-.46a13.79,13.79,0,0,0,.42-2.24,15,15,0,0,0,0-2.61,13.94,13.94,0,0,0-.4-2.57,16,16,0,0,0-.73-2.16c-.27-.61-.52-1.1-.71-1.44l-.22-.39-.09-.14,1-.59a1.1,1.1,0,0,1,.09.14l.25.42c.21.37.48.9.77,1.56a17.5,17.5,0,0,1,.77,2.32,15.37,15.37,0,0,1,.44,2.78,16.14,16.14,0,0,1-.51,5.22c-.05.17-.1.33-.14.49s-.1.3-.15.44-.09.27-.13.39-.09.22-.13.32-.13.35-.18.45l-.07.16Z"/><path class="cls-4" d="M20.84,33.57l.16,0,.44-.07A12.07,12.07,0,0,0,23,33.13a14.6,14.6,0,0,0,4.4-2.08,15.05,15.05,0,0,0,2-1.68,14.29,14.29,0,0,0,1.47-1.73l.28-.39.24-.36.2-.32.16-.28c.1-.17.17-.3.22-.4l.07-.14,1,.52-.08.15a4.34,4.34,0,0,1-.24.43l-.17.3c-.06.11-.14.22-.22.35l-.25.39q-.15.2-.3.42a17.63,17.63,0,0,1-1.59,1.86A16.58,16.58,0,0,1,28.06,32a15.75,15.75,0,0,1-4.74,2.24,15,15,0,0,1-1.69.38l-.48.07-.17,0Z"/><path class="cls-4" d="M7.48,28.06l.09.12a1,1,0,0,1,.12.15l.17.2c.13.14.28.33.47.52l.3.31L9,29.7a15,15,0,0,0,1.78,1.43A14.61,14.61,0,0,0,13,32.4a15.28,15.28,0,0,0,2.46.85,13.82,13.82,0,0,0,2.25.37l.47,0h1.14l.45,0H20L20,34.78l-.17,0H18.61l-.47,0-.51,0a15,15,0,0,1-2.42-.4,15.45,15.45,0,0,1-2.65-.92,15.2,15.2,0,0,1-2.45-1.37A14.67,14.67,0,0,1,8.2,30.52c-.13-.12-.26-.24-.37-.36l-.32-.33c-.21-.21-.37-.41-.51-.57l-.18-.21-.13-.16-.1-.14Z"/></g></g></svg>